<?xml version="1.0" encoding="utf-8"?>
<!-- Generator: Adobe Illustrator 19.1.0, SVG Export Plug-In . SVG Version: 6.00 Build 0)  -->
<!DOCTYPE svg PUBLIC "-//W3C//DTD SVG 1.1//EN" "http://www.w3.org/Graphics/SVG/1.1/DTD/svg11.dtd">
<svg version="1.1" id="Layer_1" xmlns="http://www.w3.org/2000/svg" xmlns:xlink="http://www.w3.org/1999/xlink" x="0px" y="0px"
	 viewBox="0 0 500 250.6" enable-background="new 0 0 500 250.6" xml:space="preserve">
<g id="Change1">
	<path fill="#FFFFFF" d="M250,18c32.7,0,64.4,3.1,94.3,9.3c28.5,5.9,54.1,14.3,75.9,25C441,62.5,457.9,74.7,469,87.5
		c10.6,12.3,16,25,16,37.8c0,12.8-5.4,25.5-16,37.8c-11.1,12.8-28,25-48.8,35.2c-21.8,10.7-47.4,19.1-75.9,25
		c-29.8,6.2-61.5,9.3-94.3,9.3s-64.4-3.1-94.3-9.3c-28.5-5.9-54.1-14.3-75.9-25C59,188.1,42.1,175.9,31,163.1
		c-10.6-12.3-16-25-16-37.8c0-12.8,5.4-25.5,16-37.8c11.1-12.8,28-25,48.8-35.2c21.8-10.7,47.4-19.1,75.9-25
		C185.6,21.2,217.3,18,250,18 M250,3C111.9,3,0,57.8,0,125.3c0,67.5,111.9,122.3,250,122.3s250-54.7,250-122.3
		C500,57.8,388.1,3,250,3L250,3z"/>
</g>
</svg>
