<?xml version="1.0" encoding="utf-8"?><!DOCTYPE svg PUBLIC "-//W3C//DTD SVG 1.1//EN" "http://www.w3.org/Graphics/SVG/1.1/DTD/svg11.dtd">
<svg version="1.1" id="Layer_1" xmlns="http://www.w3.org/2000/svg" xmlns:xlink="http://www.w3.org/1999/xlink" x="0px" y="0px" viewBox="-0.2 -0.2 500.4 500.4" enable-background="new -0.2 -0.2 500.4 500.4" xml:space="preserve">
<g id="change1_1"><path fill="#FFFFFF" d="M250,500.2c-66.8,0-129.7-26-176.9-73.3C25.8,379.7-0.2,316.8-0.2,250s26-129.7,73.3-176.9
	C120.3,25.8,183.2-0.2,250-0.2s129.7,26,176.9,73.3c47.3,47.3,73.3,110.1,73.3,176.9s-26,129.7-73.3,176.9
	C379.7,474.2,316.8,500.2,250,500.2z M250,14.8c-62.8,0-121.9,24.5-166.3,68.9S14.8,187.2,14.8,250s24.5,121.9,68.9,166.3
	s103.5,68.9,166.3,68.9s121.9-24.5,166.3-68.9s68.9-103.5,68.9-166.3s-24.5-121.9-68.9-166.3S312.8,14.8,250,14.8z"></path></g>
</svg>