<?xml version="1.0" encoding="utf-8"?><!DOCTYPE svg PUBLIC "-//W3C//DTD SVG 1.1//EN" "http://www.w3.org/Graphics/SVG/1.1/DTD/svg11.dtd">
<svg version="1.1" id="Layer_1" xmlns="http://www.w3.org/2000/svg" xmlns:xlink="http://www.w3.org/1999/xlink" x="0px" y="0px" viewBox="0.5 0 499 500" enable-background="new 0.5 0 499 500" xml:space="preserve">
<g id="change1_1"><polygon fill="#7D8693" points="152.7,484.1 145.3,354.2 15.4,346.7 102,249.5 15.4,152.3 145.3,144.8 152.8,14.9 250,101.5 
	347.2,14.9 354.6,144.8 484.6,152.3 398,249.5 484.6,346.7 354.6,354.1 347.2,484.1 239.6,398.7 "></polygon></g>
<g id="change2_1"><path fill="#FFFFFF" d="M146.6,500l-7.9-139.2l-138.2-8l92.2-103.3L0.5,146.1l138.2-7.9L146.6,0L250,92.2L353.3,0l8,138.2l138.2,7.9
	l-92.1,103.4l92.1,103.3l-138.2,7.9L353.4,498l-113.3-90L146.6,500z M239.1,389.3l101.8,80.9l7.1-122.8l121.9-7l-81.2-91l81.2-91
	l-121.8-7l-7-121.8L250,110.9l-91-81.2l-7,121.8l-121.8,7l81.2,91l-81.2,91l121.8,7l6.9,120.9L239.1,389.3z"></path></g>
</svg>