<?xml version="1.0" encoding="utf-8"?><!DOCTYPE svg PUBLIC "-//W3C//DTD SVG 1.1//EN" "http://www.w3.org/Graphics/SVG/1.1/DTD/svg11.dtd">
<svg version="1.1" id="Layer_1" xmlns="http://www.w3.org/2000/svg" xmlns:xlink="http://www.w3.org/1999/xlink" x="0px" y="0px" viewBox="6.2 0 487.5 500" enable-background="new 6.2 0 487.5 500" xml:space="preserve">
<g id="change1_1"><polygon fill="#7D8693" points="249.9,11 292.4,64.2 353.6,34.7 368.9,101 436.9,101 421.6,167.3 483,196.8 440.5,250 483,303.2 
	421.6,332.7 436.9,399 368.9,399 353.6,465.3 292.4,435.8 249.9,489 207.6,435.8 146.2,465.3 131.1,399 63.2,399 78.2,332.7 
	17,303.2 59.5,250 17,196.8 78.2,167.3 63.2,101 131.1,101 146.2,34.7 207.6,64.2 "></polygon></g>
<g id="change2_1"><path fill="#FFFFFF" d="M249.9,500l-44.4-55.6l-64.1,30.9l-15.8-69.4H54.5l15.8-69.4L6.2,305.6L50.7,250L6.2,194.4l64.1-30.9
	L54.5,94.1h71.2l15.8-69.4l64.1,30.9L249.9,0l44.4,55.6l64.1-30.9l15.8,69.4h71.2l-15.8,69.4l64.1,30.9L449.4,250l44.4,55.6
	l-64.1,30.9l15.8,69.4h-71.2l-15.8,69.4l-64.1-30.9L249.9,500z M209.6,427.2l40.4,50.7l40.4-50.7l58.4,28.1l14.4-63.3H428
	l-14.4-63.2l58.5-28.1L431.8,250l40.4-50.7l-58.5-28.1L428,108h-64.9l-14.4-63.2l-58.4,28.1L250,22.2l-40.4,50.7l-58.5-28.1
	L136.7,108H71.8l14.5,63.1l-58.5,28.1L68.2,250l-40.4,50.7l58.4,28.2l-14.4,63.2h64.9l14.4,63.3L209.6,427.2z"></path></g>
</svg>