<?xml version="1.0" encoding="utf-8"?>
<!-- Generator: Adobe Illustrator 18.1.1, SVG Export Plug-In . SVG Version: 6.00 Build 0)  -->
<!DOCTYPE svg PUBLIC "-//W3C//DTD SVG 1.1//EN" "http://www.w3.org/Graphics/SVG/1.1/DTD/svg11.dtd">
<svg version="1.1" id="Layer_1" xmlns="http://www.w3.org/2000/svg" xmlns:xlink="http://www.w3.org/1999/xlink" x="0px" y="0px"
	 viewBox="0 0 487.5 500" enable-background="new 0 0 487.5 500" xml:space="preserve">
<g id="change1_32_">
	<path fill="#FFFFFF" d="M243.7,500l-44.4-55.6l-64.1,30.9l-15.8-69.4H48.3l15.8-69.4L0,305.6L44.4,250L0,194.4l64.1-30.9L48.3,94.1
		h71.2l15.8-69.4l64.1,30.9L243.7,0l44.4,55.6l64.1-30.9L368,94.1h71.2l-15.8,69.4l64.1,30.9L443.1,250l44.4,55.6l-64.1,30.9
		l15.8,69.4H368l-15.8,69.4l-64.1-30.9L243.7,500z M203.3,427.2l40.4,50.7l40.4-50.7l58.4,28.1l14.4-63.3h64.9l-14.4-63.2l58.5-28.1
		L425.5,250l40.4-50.7l-58.5-28.1l14.4-63.2h-64.9l-14.4-63.2l-58.4,28.1l-40.4-50.7l-40.4,50.7l-58.5-28.1l-14.4,63.2H65.5
		L80,171.1l-58.5,28.1L62,250l-40.4,50.7L80,328.9l-14.4,63.2h64.9l14.4,63.3L203.3,427.2z"/>
</g>
</svg>
