<?xml version="1.0" encoding="utf-8"?><!DOCTYPE svg PUBLIC "-//W3C//DTD SVG 1.1//EN" "http://www.w3.org/Graphics/SVG/1.1/DTD/svg11.dtd">
<svg version="1.1" id="Layer_1" xmlns="http://www.w3.org/2000/svg" xmlns:xlink="http://www.w3.org/1999/xlink" x="0px" y="0px" viewBox="0 0 500 500" enable-background="new 0 0 500 500" xml:space="preserve">
<g id="change1_1"><path fill="#FFFFFF" d="M250,0C111.9,0,0,111.9,0,250s111.9,250,250,250s250-111.9,250-250S388.1,0,250,0z M413.2,414.2
	C369.5,457.9,311.3,482,249.5,482s-120-24.1-163.7-67.8C42.1,370.5,18,312.3,18,250.5c0-61.8,24.1-120,67.8-163.7S187.7,19,249.5,19
	s120,24.1,163.7,67.8c43.7,43.7,67.8,101.9,67.8,163.7C481,312.3,456.9,370.5,413.2,414.2z"></path></g>
<g id="change1_2"><path fill="#FFFFFF" d="M249.5,29C127.4,29,28,128.4,28,250.5S127.4,472,249.5,472S471,372.6,471,250.5S371.6,29,249.5,29z
	 M63.3,169.9c0,0,0-0.1,0-0.1c0.6-1.4,2.2-2,3.6-1.4c1.4,0.6,2,2.2,1.4,3.6c-0.5,1.1-1.5,1.7-2.6,1.7c-0.4,0-0.7-0.1-1.1-0.2
	C63.4,172.9,62.7,171.3,63.3,169.9z M57.9,183.9l0-0.1c0.5-1.4,2.1-2.2,3.5-1.7c1.4,0.5,2.2,2.1,1.7,3.5c-0.4,1.2-1.5,1.9-2.6,1.9
	c-0.3,0-0.6,0-0.9-0.1C58.2,186.9,57.4,185.4,57.9,183.9z M53.5,198.3c0,0,0-0.1,0-0.1c0.4-1.5,1.9-2.3,3.4-1.9
	c1.5,0.4,2.3,1.9,1.9,3.4c-0.3,1.2-1.5,2.1-2.7,2.1c-0.2,0-0.5,0-0.7-0.1C54.1,201.2,53.2,199.8,53.5,198.3z M50.3,212.9
	c0,0,0-0.1,0-0.1c0.3-1.5,1.7-2.5,3.2-2.2c1.5,0.3,2.5,1.7,2.2,3.2c-0.3,1.3-1.4,2.3-2.7,2.3c-0.2,0-0.3,0-0.5,0
	C51,215.8,50,214.4,50.3,212.9z M48.1,227.8c0,0,0-0.1,0-0.1c0.2-1.5,1.6-2.6,3.1-2.4c1.5,0.2,2.6,1.6,2.4,3.1
	c-0.2,1.4-1.4,2.5-2.8,2.5c-0.1,0-0.2,0-0.3,0C49,230.6,47.9,229.3,48.1,227.8z M47,242.6c0.1-1.5,1.4-2.7,2.9-2.6
	c1.5,0.1,2.7,1.4,2.6,2.9c-0.1,1.5-1.3,2.7-2.8,2.7c0,0-0.1,0-0.1,0c-1.5-0.1-2.7-1.3-2.7-2.8C47,242.7,47,242.6,47,242.6z
	 M47,257.6C47,257.6,47,257.5,47,257.6c0-1.6,1.2-2.8,2.7-2.8c1.5-0.1,2.8,1,2.8,2.5c0,1.5-1.1,2.7-2.7,2.7c0,0-0.1,0-0.1,0
	C48.3,260,47.1,259.1,47,257.6z M48.2,272.7c0,0,0-0.1,0-0.1c-0.2-1.5,0.9-2.9,2.5-3c1.5-0.2,2.9,0.9,3,2.5c0.2,1.5-0.9,2.9-2.4,3.1
	c-0.1,0-0.2,0-0.3,0C49.5,275.1,48.3,274.1,48.2,272.7z M50.4,287.6C50.4,287.6,50.4,287.5,50.4,287.6c-0.3-1.6,0.7-3,2.2-3.3
	c1.5-0.3,2.9,0.7,3.2,2.2c0.3,1.5-0.7,3-2.2,3.3c-0.2,0-0.4,0-0.5,0C51.8,289.8,50.6,288.9,50.4,287.6z M53.6,302.1
	c-0.4-1.5,0.5-3,1.9-3.4c1.5-0.4,3,0.5,3.4,1.9c0,0,0,0.1,0,0.1c0.4,1.5-0.5,3-2,3.4c-0.2,0.1-0.5,0.1-0.7,0.1
	C55.1,304.2,54,303.4,53.6,302.1 M61.6,318.3c-0.3,0.1-0.6,0.1-0.9,0.1c-1.2,0-2.2-0.7-2.6-1.9l0-0.1c-0.5-1.4,0.3-3,1.7-3.5
	c1.4-0.5,3,0.3,3.5,1.7l0,0.1C63.8,316.2,63,317.8,61.6,318.3z M67.1,331.9c-0.4,0.2-0.8,0.2-1.1,0.2c-1,0-2-0.6-2.5-1.6l0-0.1
	c-0.6-1.4,0-3,1.4-3.6c1.4-0.6,3,0,3.6,1.4C69.1,329.6,68.5,331.3,67.1,331.9z M69.7,156.3L69.7,156.3c0.7-1.4,2.4-2,3.8-1.3
	c1.4,0.7,1.9,2.4,1.2,3.7l0,0.1c-0.5,0.9-1.5,1.5-2.5,1.5c-0.4,0-0.9-0.1-1.3-0.3C69.6,159.4,69,157.7,69.7,156.3z M69.9,344
	c-0.7-1.4-0.2-3,1.1-3.7c1.3-0.7,3-0.2,3.7,1.1c0,0,0.1,0.1,0.1,0.1c0.7,1.4,0.2,3-1.2,3.7c-0.4,0.2-0.8,0.3-1.3,0.3
	C71.4,345.5,70.4,345,69.9,344 M77.2,143.3L77.2,143.3c0.9-1.4,2.6-1.8,3.9-1c1.3,0.8,1.7,2.5,0.9,3.8c-0.5,0.9-1.5,1.3-2.4,1.3
	c-0.5,0-1-0.1-1.4-0.4C76.8,146.2,76.4,144.6,77.2,143.3z M77.3,357c-0.8-1.3-0.4-3,0.9-3.8c1.3-0.8,3-0.4,3.8,0.9l0.1,0.1
	c0.8,1.3,0.4,3-0.9,3.8c-0.5,0.3-1,0.4-1.5,0.4C78.8,358.4,77.9,357.9,77.3,357 M85.5,130.8L85.5,130.8c1-1.3,2.7-1.6,3.9-0.7
	c1.2,0.9,1.5,2.6,0.6,3.9c-0.5,0.8-1.4,1.2-2.3,1.2c-0.6,0-1.1-0.2-1.6-0.5C84.9,133.7,84.6,132,85.5,130.8z M89.6,370.1
	c-0.5,0.4-1.1,0.5-1.7,0.5c-0.8,0-1.6-0.4-2.2-1.1c0,0-0.1-0.1-0.1-0.1c-0.9-1.2-0.6-3,0.6-3.9c1.2-0.9,3-0.6,3.9,0.6
	C91.1,367.4,90.8,369.2,89.6,370.1z M94.8,119L94.8,119c1-1.2,2.8-1.4,4-0.4c1.2,1,1.3,2.7,0.3,3.9c-0.6,0.7-1.4,1-2.2,1
	c-0.6,0-1.3-0.2-1.8-0.6C94,121.9,93.8,120.2,94.8,119z M98.9,381.6c-0.5,0.4-1.2,0.7-1.8,0.7c-0.8,0-1.5-0.3-2.1-1l-0.1-0.1
	c-1-1.2-0.8-2.9,0.3-3.9c1.2-1,2.9-0.8,3.9,0.3C100.2,378.8,100.1,380.6,98.9,381.6z M105,107.8c1.1-1.1,2.8-1.1,3.9,0
	c1.1,1.1,1.1,2.8,0,3.9l-0.1,0.1c-0.5,0.6-1.3,0.8-2,0.8c-0.7,0-1.4-0.3-1.9-0.8C103.8,110.7,103.8,109,105,107.8 M109,392.4
	c-0.5,0.5-1.2,0.8-1.9,0.8c-0.7,0-1.4-0.3-1.9-0.8c0,0-0.1-0.1-0.1-0.1c-1-1.1-1-2.9,0.1-3.9c1.1-1,2.9-1,3.9,0.1
	C110.1,389.6,110.1,391.3,109,392.4z M115.8,97.6L115.8,97.6c1.2-1.1,3-1,4,0.2c1,1.1,0.9,2.9-0.2,3.9c-0.5,0.5-1.2,0.7-1.9,0.7
	c-0.8,0-1.5-0.3-2.1-0.9C114.6,100.3,114.6,98.6,115.8,97.6z M119.9,402.4c-0.6,0.6-1.3,0.9-2.1,0.9c-0.6,0-1.2-0.2-1.8-0.7
	c0,0-0.1-0.1-0.1-0.1c-1.1-1-1.2-2.8-0.2-3.9c1-1.1,2.8-1.2,3.9-0.2C120.8,399.5,120.9,401.3,119.9,402.4z M127.4,88.1L127.4,88.1
	c1.3-1,3-0.7,4,0.5c0.9,1.2,0.7,3-0.5,3.9c-0.5,0.4-1.1,0.6-1.7,0.6c-0.8,0-1.7-0.4-2.2-1.1C126,90.7,126.2,89,127.4,88.1z
	 M127.6,412.1c-1.2-0.9-1.5-2.7-0.6-3.9c0.9-1.2,2.6-1.5,3.8-0.6l0.1,0.1c1.2,0.9,1.4,2.7,0.5,3.9c-0.5,0.7-1.4,1.1-2.2,1.1
	C128.8,412.7,128.2,412.5,127.6,412.1 M139.7,79.5L139.7,79.5c1.4-0.9,3.1-0.5,3.9,0.8c0.8,1.3,0.5,3-0.8,3.8
	c-0.5,0.3-1,0.5-1.5,0.5c-0.9,0-1.8-0.4-2.3-1.2C138.1,82,138.4,80.3,139.7,79.5z M143.8,419.9c-0.5,0.8-1.4,1.3-2.3,1.3
	c-0.5,0-1-0.1-1.4-0.4c0,0-0.1-0.1-0.1-0.1c-1.3-0.8-1.6-2.6-0.8-3.8c0.8-1.3,2.6-1.6,3.8-0.8C144.2,416.9,144.6,418.6,143.8,419.9z
	 M152.5,71.8c0,0,0.1-0.1,0.1-0.1c1.3-0.7,3-0.2,3.7,1.1c0.7,1.3,0.2,3-1.1,3.7c-0.4,0.2-0.9,0.3-1.3,0.3c-1,0-1.9-0.5-2.4-1.4
	C150.8,74.2,151.2,72.5,152.5,71.8z M156.7,427.3c-0.5,0.9-1.5,1.5-2.4,1.5c-0.4,0-0.9-0.1-1.3-0.3l-0.1-0.1c-1.3-0.8-1.8-2.4-1-3.8
	c0.8-1.3,2.4-1.8,3.8-1C156.9,424.3,157.4,426,156.7,427.3z M166,65c1.4-0.6,3,0,3.7,1.4c0.6,1.4,0,3-1.4,3.7c0,0-0.1,0-0.1,0
	c-0.4,0.2-0.8,0.2-1.1,0.2c-1.1,0-2.1-0.6-2.5-1.6C164,67.3,164.6,65.7,166,65 M170,433.8c-0.5,1-1.5,1.6-2.5,1.6
	c-0.4,0-0.8-0.1-1.1-0.2l-0.1,0c-1.4-0.6-2-2.3-1.4-3.6c0.6-1.4,2.3-2,3.7-1.4l0.1,0C170,430.7,170.6,432.4,170,433.8z M179.8,59.4
	c0,0,0.1,0,0.1,0c1.4-0.5,3,0.2,3.5,1.7c0.5,1.4-0.2,3-1.7,3.5c-0.3,0.1-0.6,0.2-1,0.2c-1.1,0-2.2-0.7-2.6-1.8
	C177.7,61.5,178.4,59.9,179.8,59.4z M180.2,440.8c-1.4-0.5-2.2-2.1-1.7-3.5c0.5-1.4,2-2.2,3.5-1.7l0.2,0.1c1.4,0.5,2.2,2.1,1.6,3.6
	c-0.4,1.1-1.5,1.8-2.6,1.8C180.9,441,180.6,440.9,180.2,440.8 M194.1,54.7c0,0,0.1,0,0.1,0c1.5-0.4,3,0.5,3.4,1.9
	c0.4,1.5-0.5,3-1.9,3.4c-0.2,0.1-0.5,0.1-0.7,0.1c-1.2,0-2.4-0.8-2.7-2C191.8,56.6,192.6,55.1,194.1,54.7z M198,443.5
	c-0.3,1.2-1.5,2-2.7,2c-0.2,0-0.5,0-0.7-0.1l-0.2-0.1c-1.5-0.4-2.3-2-1.8-3.5c0.4-1.5,2-2.3,3.5-1.8
	C197.5,440.5,198.4,442,198,443.5z M208.7,51.1c0,0,0.1,0,0.1,0c1.5-0.3,3,0.7,3.3,2.2c0.3,1.5-0.7,3-2.2,3.3
	c-0.2,0-0.4,0.1-0.5,0.1c-1.3,0-2.5-0.9-2.8-2.2C206.2,52.9,207.2,51.4,208.7,51.1z M209.1,449c-1.5-0.3-2.5-1.7-2.2-3.2
	c0.3-1.5,1.7-2.5,3.2-2.2c0,0,0.1,0,0.2,0c1.5,0.3,2.5,1.8,2.1,3.3c-0.3,1.3-1.4,2.2-2.7,2.2C209.5,449,209.3,449,209.1,449
	 M223.5,48.6c0,0,0.1,0,0.1,0c1.5-0.2,2.9,0.9,3.1,2.4c0.2,1.5-0.9,2.9-2.4,3.1c-0.1,0-0.2,0-0.3,0c-1.4,0-2.6-1-2.8-2.4
	C220.9,50.2,221.9,48.8,223.5,48.6z M227,449.1c-0.2,1.4-1.3,2.4-2.7,2.4c-0.1,0-0.2,0-0.3,0c0,0-0.1,0-0.2,0
	c-1.5-0.2-2.6-1.6-2.3-3.1c0.2-1.5,1.6-2.6,3.1-2.3C226.1,446.2,227.2,447.5,227,449.1z M238.4,47.2c0,0,0.1,0,0.1,0
	c1.5-0.1,2.8,1.1,2.9,2.6c0.1,1.5-1.1,2.8-2.6,2.9c0,0-0.1,0-0.1,0c-1.5,0-2.7-1.1-2.8-2.6C235.8,48.6,236.9,47.3,238.4,47.2z
	 M239,452.8c-0.1,0-0.1,0-0.2,0l-0.1,0c-1.5-0.1-2.7-1.4-2.6-2.9c0.1-1.5,1.4-2.7,2.9-2.6c1.5,0.1,2.7,1.4,2.6,2.9
	C241.6,451.7,240.5,452.8,239,452.8z M452.5,234.5c0,0,0,0.1,0,0.2c0.1,1.5-1.1,2.8-2.6,2.9c-0.1,0-0.1,0-0.2,0
	c-1.4,0-2.7-1.1-2.8-2.6c-0.1-1.5,1-2.9,2.6-3C451.1,231.9,452.4,233,452.5,234.5z M450.8,219.6L450.8,219.6c0.2,1.6-0.8,3-2.3,3.2
	c-0.1,0-0.3,0-0.4,0c-1.4,0-2.5-1-2.7-2.4c-0.2-1.5,0.8-3,2.3-3.2C449.2,217.1,450.6,218.1,450.8,219.6z M448.1,204.8
	c0,0,0,0.1,0,0.2c0.3,1.5-0.6,3-2.1,3.3c-0.2,0-0.4,0.1-0.6,0.1c-1.3,0-2.4-0.9-2.7-2.2c-0.3-1.5,0.6-3,2.1-3.3
	C446.3,202.5,447.7,203.4,448.1,204.8z M440.8,188.6c1.5-0.4,3,0.3,3.4,1.8l0,0.1c0.4,1.5-0.4,3-1.8,3.5c-0.3,0.1-0.5,0.1-0.8,0.1
	c-1.2,0-2.3-0.8-2.6-2C438.5,190.6,439.3,189,440.8,188.6z M253.4,47L253.4,47c1.6,0,2.8,1.5,2.8,3c0,1.5-1.3,3-2.8,3c0,0,0,0,0,0
	c-1.5,0-2.8-1.5-2.8-3.1C250.7,48.4,251.9,47,253.4,47z M254.6,453.5c-0.2,0.1-0.4,0.1-0.6,0.1c-1.6,0-3.1-1.5-3.1-3.1
	c0-1.5,1.2-2.9,2.8-2.9c1.5,0,2.8,1.4,2.8,2.9C256.5,451.8,255.9,453.1,254.6,453.5z M268.4,47.7L268.4,47.7c1.6,0.1,2.7,1.5,2.6,3
	c-0.1,1.4-1.3,2.5-2.8,2.5c-0.1,0-0.2,0-0.2,0c-1.5-0.1-2.7-1.5-2.6-3C265.5,48.7,266.8,47.6,268.4,47.7z M268.8,452.2L268.8,452.2
	c-0.2,0-0.3,0-0.3,0c-1.4,0-2.6-1.1-2.8-2.5c-0.1-1.5,1-2.9,2.5-3c1.5-0.1,2.9,1,3,2.5C271.4,450.8,270.4,452.1,268.8,452.2z
	 M280.1,51.9c0.2-1.5,1.6-2.5,3.1-2.3c0,0,0.1,0,0.1,0c1.5,0.3,2.5,1.7,2.3,3.2c-0.2,1.4-1.4,2.3-2.7,2.3c-0.2,0-0.3,0-0.5,0
	C280.9,54.8,279.9,53.4,280.1,51.9z M283.7,450.3l-0.2,0c-0.1,0-0.3,0-0.4,0c-1.3,0-2.5-1-2.7-2.4c-0.2-1.5,0.8-2.9,2.3-3.1
	c1.5-0.3,3,0.7,3.2,2.2C286.2,448.6,285.2,450,283.7,450.3z M294.7,54.6c0.4-1.5,1.8-2.4,3.3-2l0.1,0c1.5,0.4,2.4,1.9,2,3.3
	c-0.3,1.3-1.4,2.1-2.7,2.1c-0.2,0-0.4,0-0.7-0.1C295.3,57.6,294.3,56.1,294.7,54.6z M298.4,447.3L298.4,447.3
	c-0.3,0.1-0.5,0.1-0.7,0.1c-1.2,0-2.4-0.9-2.7-2.1c-0.4-1.5,0.6-3,2-3.3c1.5-0.4,3,0.5,3.4,2C300.8,445.4,299.9,446.9,298.4,447.3z
	 M309,58.5c0.5-1.5,2-2.3,3.4-1.8l0.1,0c1.5,0.5,2.2,2,1.8,3.5c-0.4,1.2-1.5,1.9-2.6,1.9c-0.3,0-0.6,0-0.9-0.1
	C309.3,61.5,308.5,59.9,309,58.5z M312.9,443.2c0,0-0.1,0-0.2,0.1c-0.3,0.1-0.5,0.1-0.8,0.1c-1.2,0-2.3-0.8-2.6-2
	c-0.4-1.5,0.4-3,1.8-3.5c1.5-0.5,3,0.3,3.5,1.7C315.1,441.1,314.3,442.7,312.9,443.2z M322.9,63.3c0.6-1.4,2.2-2.1,3.6-1.5l0.1,0
	c1.4,0.6,2.1,2.2,1.5,3.6c-0.4,1.1-1.5,1.7-2.6,1.7c-0.4,0-0.7-0.1-1-0.2l-0.1,0C323,66.4,322.3,64.8,322.9,63.3z M327,438
	c0,0-0.1,0-0.1,0c-0.3,0.1-0.7,0.2-1,0.2c-1.1,0-2.1-0.6-2.6-1.7c-0.6-1.4,0.1-3,1.5-3.6c1.4-0.6,3.1,0.1,3.6,1.5
	C329,435.8,328.4,437.4,327,438z M336.5,69.3c0.7-1.4,2.3-2,3.7-1.3l0.1,0.1c1.4,0.7,1.9,2.4,1.2,3.7c-0.5,1-1.5,1.5-2.5,1.5
	c-0.4,0-0.9-0.1-1.3-0.3C336.4,72.3,335.8,70.6,336.5,69.3z M340.6,431.8c0,0-0.1,0.1-0.1,0.1c-0.4,0.2-0.8,0.3-1.2,0.3
	c-1,0-2-0.6-2.5-1.6c-0.7-1.4-0.1-3,1.3-3.7c1.4-0.7,3.1-0.1,3.7,1.2C342.5,429.5,342,431.2,340.6,431.8z M353.5,75.2
	c1.3,0.8,1.8,2.5,1,3.8c-0.5,0.9-1.4,1.4-2.4,1.4c-0.5,0-0.9-0.1-1.4-0.4c0,0-0.1-0.1-0.1-0.1c-1.3-0.8-1.7-2.5-0.9-3.8
	C350.4,74.8,352.1,74.4,353.5,75.2 M353.7,424.7c-0.5,0.3-0.9,0.4-1.4,0.4c-0.9,0-1.9-0.5-2.4-1.3c-0.8-1.3-0.4-3,0.9-3.8
	c0,0,0.1-0.1,0.1-0.1c1.3-0.8,3-0.3,3.8,1C355.5,422.2,355.1,423.9,353.7,424.7 M362.2,84c0.9-1.3,2.6-1.6,3.8-0.7l0.1,0.1
	c1.3,0.9,1.6,2.6,0.7,3.9c-0.5,0.8-1.4,1.2-2.3,1.2c-0.5,0-1.1-0.2-1.6-0.5C361.7,87,361.3,85.3,362.2,84z M366.3,416.5
	c-0.5,0.4-1.1,0.5-1.6,0.5c-0.8,0-1.7-0.4-2.2-1.1c-0.9-1.2-0.6-3,0.6-3.9c0,0,0.1-0.1,0.2-0.1c1.3-0.9,3-0.5,3.8,0.7
	C367.9,413.9,367.6,415.7,366.3,416.5 M378.1,92.4c1.2,1,1.4,2.7,0.4,3.9c-0.6,0.7-1.4,1-2.2,1c-0.6,0-1.2-0.2-1.7-0.6
	c0,0-0.1-0.1-0.1-0.1c-1.2-1-1.3-2.7-0.4-3.9C375.1,91.5,376.9,91.4,378.1,92.4 M378.2,407.5c-0.5,0.4-1.1,0.6-1.8,0.6
	c-0.8,0-1.6-0.3-2.1-1c-1-1.2-0.8-2.9,0.4-3.9l0.1-0.1c1.2-1,2.9-0.8,3.9,0.4C379.7,404.7,379.5,406.5,378.2,407.5 M385.4,102.4
	c1-1.1,2.8-1.2,3.9-0.1c0,0,0.1,0.1,0.1,0.1c1.1,1.1,1.1,2.8,0.1,3.9c-0.5,0.6-1.3,0.9-2,0.9c-0.7,0-1.4-0.3-1.9-0.8
	C384.5,105.2,384.4,103.5,385.4,102.4z M389.5,397.6c-0.5,0.5-1.2,0.8-1.9,0.8c-0.7,0-1.4-0.3-2-0.8c-1.1-1.1-1.1-2.9,0-3.9
	c0,0,0.1-0.1,0.1-0.1c1.1-1,2.9-1,3.9,0.2C390.7,394.8,390.7,396.5,389.5,397.6 M396,112.8c1.1-1,2.8-1,3.9,0.1l0.1,0.1
	c1,1.1,1,2.9-0.2,3.9c-0.5,0.5-1.2,0.7-1.9,0.7c-0.7,0-1.5-0.3-2-0.9C394.8,115.6,394.8,113.8,396,112.8z M400.1,386.8L400.1,386.8
	c-0.6,0.7-1.3,1-2.1,1c-0.7,0-1.3-0.2-1.9-0.7c-1.1-1-1.2-2.8-0.2-3.9c1-1.1,2.8-1.2,3.9-0.2C401,384,401.1,385.7,400.1,386.8z
	 M405.7,123.9c1.2-0.9,2.9-0.8,3.9,0.4c0,0,0.1,0.1,0.1,0.1c0.9,1.2,0.7,2.9-0.5,3.9c-0.5,0.4-1.1,0.6-1.7,0.6
	c-0.8,0-1.6-0.4-2.2-1.1C404.3,126.6,404.5,124.8,405.7,123.9z M409.8,375.4c0,0-0.1,0.1-0.1,0.1c-0.5,0.7-1.3,1-2.1,1
	c-0.6,0-1.2-0.2-1.7-0.6c-1.2-1-1.4-2.7-0.4-3.9c1-1.2,2.7-1.4,3.9-0.5C410.5,372.5,410.7,374.2,409.8,375.4z M414.6,135.7
	c1.3-0.9,3-0.6,3.8,0.7c0,0,0.1,0.1,0.1,0.1c0.9,1.3,0.5,3-0.8,3.8c-0.5,0.3-1,0.5-1.5,0.5c-0.9,0-1.8-0.4-2.3-1.2
	C413,138.3,413.3,136.6,414.6,135.7z M418.6,363.3c-0.5,0.8-1.4,1.2-2.3,1.2c-0.5,0-1-0.1-1.5-0.5c-1.3-0.8-1.6-2.6-0.8-3.8
	c0,0,0.1-0.1,0.1-0.1c0.9-1.3,2.6-1.6,3.8-0.7C419.2,360.3,419.5,362,418.6,363.3 M422.6,148.2c1.3-0.8,3-0.3,3.8,1l0,0.1
	c0.8,1.3,0.3,3-1,3.8c-0.4,0.3-0.9,0.4-1.4,0.4c-1,0-1.9-0.5-2.4-1.4C420.8,150.7,421.3,149,422.6,148.2z M426.6,350.5l-0.1,0.1
	c-0.5,0.9-1.4,1.4-2.4,1.4c-0.5,0-1-0.1-1.4-0.4c-1.3-0.8-1.8-2.5-1-3.8c0.8-1.3,2.5-1.8,3.8-1.1
	C426.8,347.5,427.3,349.1,426.6,350.5z M429.7,161.2c1.4-0.6,3-0.1,3.6,1.2c0,0,0.1,0.1,0.1,0.1c0.6,1.4,0,3-1.4,3.7
	c-0.4,0.2-0.8,0.3-1.1,0.3c-1.1,0-2.1-0.6-2.5-1.6C427.7,163.5,428.3,161.8,429.7,161.2z M433.5,337.2c-0.5,1-1.5,1.6-2.5,1.6
	c-0.4,0-0.8-0.1-1.2-0.3c-1.4-0.6-2-2.3-1.3-3.7c0,0,0.1-0.1,0.1-0.1c0.7-1.4,2.3-2,3.7-1.3C433.6,334.1,434.2,335.8,433.5,337.2
	 M439.3,176.3c0.6,1.4-0.1,3-1.5,3.6c-0.3,0.1-0.7,0.2-1,0.2c-1.1,0-2.1-0.6-2.6-1.7c0,0,0-0.1-0.1-0.1c-0.5-1.4,0.2-3,1.6-3.6
	C437.2,174.1,438.7,174.8,439.3,176.3 M439.5,323.4l-0.1,0.2c-0.4,1.1-1.5,1.7-2.6,1.7c-0.3,0-0.7-0.1-1-0.2
	c-1.4-0.6-2.1-2.2-1.5-3.6c0.5-1.4,2.1-2.2,3.6-1.6C439.3,320.3,440,321.9,439.5,323.4z M444.4,309.2l0,0.1
	c-0.4,1.2-1.5,1.9-2.6,1.9c-0.3,0-0.6,0-0.8-0.1c-1.5-0.5-2.3-2-1.8-3.5c0.4-1.5,2-2.3,3.5-1.9C444,306.2,444.8,307.7,444.4,309.2z
	 M448.2,294.6c0,0,0,0.1,0,0.1c-0.3,1.3-1.4,2.1-2.7,2.1c-0.2,0-0.4,0-0.6-0.1c-1.5-0.4-2.4-1.8-2.1-3.3c0.4-1.5,1.8-2.4,3.3-2.1
	C447.5,291.7,448.5,293.1,448.2,294.6z M450.9,279.9l0,0.1c-0.2,1.4-1.4,2.3-2.7,2.3c-0.1,0-0.3,0-0.4,0c-1.5-0.2-2.6-1.6-2.3-3.1
	c0.2-1.5,1.6-2.6,3.2-2.4C450.1,277,451.1,278.4,450.9,279.9z M452.5,265.1c-0.1,1.4-1.3,2.5-2.8,2.5c-0.1,0-0.2,0-0.2,0
	c-1.5-0.1-2.6-1.5-2.5-3c0.1-1.5,1.4-2.7,3-2.6c1.5,0.1,2.7,1.4,2.6,2.9C452.6,265,452.5,265.1,452.5,265.1z M453.4,250L453.4,250
	c0,1.6-1.4,2.9-2.9,2.9c-1.5,0-2.8-1.2-2.8-2.8c0-0.1,0-0.2,0-0.2c0-0.1,0-0.2,0-0.2c0-1.5,1.4-2.8,2.9-2.8c1.5,0,2.9,1.2,2.9,2.7
	v0.1c0,0.1,0,0.1,0,0.2C453.4,249.9,453.4,249.9,453.4,250z"></path></g>
</svg>