<?xml version="1.0" encoding="utf-8"?><!DOCTYPE svg PUBLIC "-//W3C//DTD SVG 1.1//EN" "http://www.w3.org/Graphics/SVG/1.1/DTD/svg11.dtd">
<svg version="1.1" id="Layer_1" xmlns="http://www.w3.org/2000/svg" xmlns:xlink="http://www.w3.org/1999/xlink" x="0px" y="0px" viewBox="0 0 500 500" enable-background="new 0 0 500 500" xml:space="preserve">
<g id="change1_1"><path fill="#FFFFFF" d="M250,62.1C146.4,62.1,62.1,146.4,62.1,250c0,103.6,84.3,187.9,187.9,187.9S437.9,353.6,437.9,250
	S353.6,62.1,250,62.1z"></path></g>
<path fill="none" d="M250,51.9C140.8,51.9,51.9,140.8,51.9,250c0,109.2,88.9,198.1,198.1,198.1S448.1,359.2,448.1,250
	C448.1,140.8,359.2,51.9,250,51.9z"></path>
<g id="change1_2"><path fill="#FFFFFF" d="M250,0C111.9,0,0,111.9,0,250c0,138.1,111.9,250,250,250s250-111.9,250-250C500,111.9,388.1,0,250,0z
	 M474.6,228.4l0,0.5c0.2,2.2-1.4,4.2-3.7,4.4c-0.1,0-0.2,0-0.4,0c-2.1,0-3.8-1.6-4-3.7l0-0.5c-0.2-2.2,1.4-4.2,3.6-4.4
	C472.4,224.5,474.3,226.1,474.6,228.4z M471.6,207.5l0.1,0.5c0.4,2.2-1,4.3-3.2,4.7c-0.3,0-0.5,0.1-0.8,0.1c-1.9,0-3.6-1.4-4-3.3
	l-0.1-0.5c-0.4-2.2,1-4.3,3.2-4.7C469,203.8,471.2,205.3,471.6,207.5z M466.6,186.9l0.1,0.5c0.6,2.1-0.6,4.4-2.8,5
	c-0.4,0.1-0.7,0.2-1.1,0.2c-1.8,0-3.4-1.2-3.9-2.9l-0.1-0.5c-0.6-2.1,0.6-4.4,2.7-5C463.8,183.5,466,184.7,466.6,186.9z
	 M454.5,164.6c2.1-0.8,4.4,0.2,5.3,2.3l0.2,0.5c0.8,2.1-0.2,4.4-2.3,5.2c-0.5,0.2-1,0.3-1.5,0.3c-1.6,0-3.1-1-3.8-2.6l-0.2-0.4
	C451.4,167.8,452.5,165.4,454.5,164.6z M435,128c1.9-1.2,4.4-0.6,5.6,1.2l0.3,0.4c1.2,1.9,0.6,4.4-1.3,5.6c-0.7,0.4-1.4,0.6-2.1,0.6
	c-1.3,0-2.7-0.7-3.4-1.9l-0.3-0.4C432.6,131.7,433.1,129.2,435,128z M422.8,111.2c1.8-1.4,4.3-1.1,5.7,0.7l0.3,0.4
	c1.3,1.8,1,4.3-0.8,5.7c-0.7,0.6-1.6,0.8-2.5,0.8c-1.2,0-2.4-0.5-3.2-1.6l-0.3-0.4C420.7,115.2,421,112.6,422.8,111.2z M409,95.7
	c1.6-1.5,4.2-1.4,5.7,0.2l0.4,0.4c1.5,1.6,1.4,4.2-0.2,5.7c-0.8,0.7-1.8,1.1-2.8,1.1c-1.1,0-2.2-0.4-3-1.3l-0.3-0.3
	C407.3,99.8,407.4,97.2,409,95.7z M393.9,81.5c1.5-1.7,4-1.8,5.7-0.3l0.4,0.4c1.7,1.5,1.8,4,0.3,5.7c-0.8,0.9-1.9,1.3-3,1.3
	c-1,0-1.9-0.3-2.7-1l-0.4-0.3C392.5,85.7,392.4,83.1,393.9,81.5z M377.5,68.7c1.3-1.8,3.8-2.2,5.7-0.9l0.4,0.3
	c1.8,1.3,2.2,3.9,0.9,5.7c-0.8,1.1-2,1.6-3.3,1.6c-0.8,0-1.7-0.3-2.4-0.8l-0.4-0.3C376.5,73.1,376.1,70.5,377.5,68.7z M359.9,57.6
	c1.1-1.9,3.6-2.5,5.5-1.4l0.4,0.3c1.9,1.1,2.5,3.6,1.4,5.5c-0.8,1.3-2.1,2-3.5,2c-0.7,0-1.4-0.2-2.1-0.6l-0.4-0.3
	C359.4,62,358.8,59.5,359.9,57.6z M341.5,48.1c1-2,3.4-2.9,5.4-1.9l0.4,0.2c2,1,2.9,3.4,1.9,5.4c-0.7,1.5-2.1,2.3-3.7,2.3
	c-0.6,0-1.2-0.1-1.7-0.4l-0.4-0.2C341.3,52.5,340.5,50.1,341.5,48.1z M322.1,40.4c0.8-2.1,3.1-3.2,5.2-2.4l0.5,0.2
	c2.1,0.8,3.2,3.1,2.4,5.2c-0.6,1.6-2.1,2.7-3.8,2.7c-0.5,0-0.9-0.1-1.4-0.2l-0.5-0.2C322.4,44.8,321.4,42.5,322.1,40.4z M302.2,34.6
	c0.6-2.2,2.8-3.5,4.9-2.9l0.5,0.1c2.2,0.6,3.4,2.8,2.9,4.9c-0.5,1.8-2.1,3-3.9,3c-0.3,0-0.7,0-1-0.1l-0.5-0.1
	C302.9,39,301.6,36.8,302.2,34.6z M281.8,30.7c0.4-2.2,2.4-3.7,4.6-3.3l0.5,0.1c2.2,0.4,3.7,2.4,3.3,4.7c-0.3,2-2.1,3.4-4,3.4
	c-0.2,0-0.4,0-0.7-0.1l-0.5-0.1C283,35,281.5,32.9,281.8,30.7z M265.5,24.9l0.5,0c2.2,0.2,3.9,2.1,3.8,4.3c-0.2,2.1-1.9,3.8-4,3.8
	c-0.1,0-0.2,0-0.3,0l-0.5,0c-2.2-0.2-3.9-2.1-3.8-4.3C261.3,26.5,263.2,24.8,265.5,24.9z M244.3,24.5l0.5,0c2.2-0.1,4.1,1.7,4.1,3.9
	c0.1,2.2-1.7,4.3-3.9,4.4l-0.5,0.2c0,0-0.1,0-0.1,0c-2.2,0-4-2-4-4.2C240.3,26.6,242.1,24.6,244.3,24.5z M223.3,26l0.5-0.1
	c2.2-0.3,4.2,1.3,4.5,3.5c0.3,2.2-1.3,4.2-3.5,4.5l-0.5,0.1c-0.2,0-0.3,0-0.5,0c-2,0-3.8-1.5-4-3.6C219.4,28.3,221,26.2,223.3,26z
	 M202.4,29.4l0.4-0.1c2.2-0.5,4.4,0.9,4.8,3.1c0.5,2.2-0.9,4.3-3.1,4.8l-0.5,0.1c-0.3,0.1-0.6,0.1-0.9,0.1c-1.9,0-3.5-1.3-3.9-3.2
	C198.8,32.1,200.2,29.9,202.4,29.4z M182,34.9l0.5-0.2c2.1-0.7,4.4,0.5,5.1,2.6c0.7,2.1-0.5,4.4-2.6,5.1l-0.5,0.2
	c-0.4,0.1-0.8,0.2-1.2,0.2c-1.7,0-3.3-1.1-3.9-2.8C178.6,37.8,179.8,35.5,182,34.9z M162.1,42.2l0.5-0.2c2.1-0.9,4.4,0.1,5.3,2.2
	c0.9,2.1-0.1,4.4-2.2,5.3l-0.5,0.2c-0.5,0.2-1,0.3-1.6,0.3c-1.6,0-3.1-0.9-3.7-2.5C159.1,45.4,160.1,43,162.1,42.2z M143.1,51.3
	l0.5-0.2c2-1.1,4.4-0.3,5.5,1.7c1.1,2,0.3,4.4-1.7,5.5l-0.4,0.2c-0.6,0.3-1.3,0.5-1.9,0.5c-1.4,0-2.8-0.8-3.6-2.1
	C140.4,54.8,141.1,52.4,143.1,51.3z M124.9,62.2l0.4-0.3c1.9-1.2,4.4-0.7,5.6,1.1c1.2,1.9,0.7,4.4-1.1,5.6l-0.4,0.3
	c-0.7,0.5-1.5,0.7-2.2,0.7c-1.3,0-2.6-0.6-3.4-1.8C122.6,66,123.1,63.5,124.9,62.2z M107.9,74.8l0.4-0.3c1.7-1.4,4.3-1.1,5.7,0.6
	c1.4,1.7,1.1,4.3-0.6,5.7L113,81c-0.7,0.6-1.6,0.9-2.5,0.9c-1.2,0-2.3-0.5-3.1-1.5C105.9,78.7,106.2,76.2,107.9,74.8z M92.2,88.8
	l0.4-0.4c1.6-1.6,4.2-1.5,5.7,0.1c1.6,1.6,1.5,4.2-0.1,5.7l-0.3,0.3C97,95.4,96,95.8,95,95.8c-1,0-2.1-0.4-2.9-1.2
	C90.5,93,90.6,90.4,92.2,88.8z M77.8,104.3l0.3-0.4c1.5-1.7,4-1.9,5.7-0.4c1.7,1.5,1.9,4,0.4,5.7l-0.3,0.4c-0.8,0.9-1.9,1.4-3.1,1.4
	c-0.9,0-1.8-0.3-2.6-1C76.5,108.6,76.3,106,77.8,104.3z M64.9,121.1l0.3-0.4c1.3-1.8,3.8-2.3,5.6-1c1.8,1.3,2.3,3.8,1,5.6l-0.3,0.4
	c-0.8,1.1-2,1.7-3.3,1.7c-0.8,0-1.6-0.2-2.3-0.7C64,125.4,63.6,122.9,64.9,121.1z M53.6,139l0.3-0.5c1.1-1.9,3.6-2.6,5.5-1.5
	c1.9,1.1,2.6,3.6,1.5,5.5l-0.2,0.4c-0.7,1.3-2.1,2.1-3.5,2.1c-0.7,0-1.4-0.2-2-0.5C53.2,143.4,52.5,140.9,53.6,139z M44,157.8
	l0.2-0.5c0.9-2,3.3-2.9,5.4-2c2,0.9,2.9,3.3,2,5.4l-0.2,0.4c-0.7,1.5-2.1,2.4-3.7,2.4c-0.6,0-1.1-0.1-1.7-0.4
	C44,162.3,43.1,159.9,44,157.8z M36.3,177.5l0.1-0.4c0.7-2.1,3-3.3,5.1-2.6c2.1,0.7,3.3,3,2.5,5.1l-0.2,0.5
	c-0.6,1.7-2.1,2.8-3.8,2.8c-0.4,0-0.9-0.1-1.3-0.2C36.7,181.9,35.6,179.7,36.3,177.5z M30.5,197.9l0.1-0.5c0.5-2.2,2.7-3.5,4.9-3
	c2.2,0.5,3.5,2.7,3,4.9l-0.1,0.5c-0.4,1.9-2.1,3.1-3.9,3.1c-0.3,0-0.6,0-0.9-0.1C31.3,202.2,30,200,30.5,197.9z M26.6,218.6l0.1-0.5
	c0.3-2.2,2.4-3.7,4.6-3.4c2.2,0.3,3.8,2.4,3.4,4.6l-0.1,0.5c-0.3,2-2,3.5-4,3.5c-0.2,0-0.4,0-0.6,0
	C27.8,222.9,26.3,220.9,26.6,218.6z M24.7,239.2c0.1-2.2,2-3.9,4.2-3.8c2.2,0.1,4,2,3.8,4.2l0,0.5c-0.1,2.2-1.9,3.9-4,3.9
	c-0.1,0-0.1,0-0.2,0c-2.2-0.1-4-2-3.9-4.2L24.7,239.2z M24.7,260.8l0-0.5c-0.1-2.2,1.6-4.1,3.8-4.2c2.2-0.1,4.1,1.6,4.2,3.8l0,0.5
	c0.1,2.2-1.6,4.1-3.8,4.2c-0.1,0-0.1,0-0.2,0C26.6,264.7,24.8,263,24.7,260.8z M26.6,281.9l-0.1-0.5c-0.3-2.2,1.2-4.3,3.5-4.6
	c2.2-0.3,4.3,1.2,4.6,3.5l0.1,0.5c0.3,2.2-1.2,4.3-3.4,4.6c-0.2,0-0.4,0-0.6,0C28.7,285.3,26.9,283.9,26.6,281.9z M34.5,305.7
	c-1.8,0-3.5-1.2-3.9-3.1l-0.1-0.5c-0.5-2.2,0.8-4.4,3-4.9c2.2-0.5,4.4,0.8,4.9,3l0.1,0.5c0.5,2.2-0.8,4.4-3,4.9
	C35.1,305.7,34.8,305.7,34.5,305.7z M41.6,325.5c-0.4,0.1-0.9,0.2-1.3,0.2c-1.7,0-3.3-1.1-3.8-2.7l-0.2-0.5
	c-0.7-2.1,0.4-4.4,2.5-5.1c2.1-0.7,4.4,0.4,5.1,2.5l0.2,0.5C44.8,322.4,43.7,324.7,41.6,325.5z M49.6,344.6
	c-0.5,0.2-1.1,0.4-1.7,0.4c-1.5,0-3-0.9-3.7-2.4l-0.2-0.5c-0.9-2,0-4.4,2-5.3c2-0.9,4.4,0,5.3,2l0.2,0.5
	C52.5,341.3,51.6,343.7,49.6,344.6z M59.3,363c-0.6,0.4-1.3,0.5-2,0.5c-1.4,0-2.8-0.7-3.5-2l-0.2-0.4c-1.1-1.9-0.4-4.4,1.5-5.5
	c1.9-1.1,4.4-0.4,5.5,1.5l0.2,0.4C62,359.4,61.3,361.9,59.3,363z M70.8,380.3c-0.7,0.5-1.5,0.7-2.3,0.7c-1.3,0-2.5-0.6-3.3-1.7
	l-0.3-0.4c-1.3-1.8-0.8-4.4,1-5.6c1.8-1.3,4.4-0.8,5.6,1l0.3,0.4C73,376.5,72.6,379,70.8,380.3z M83.8,396.5c-0.8,0.6-1.7,1-2.6,1
	c-1.1,0-2.3-0.5-3.1-1.4l-0.3-0.4c-1.4-1.7-1.2-4.3,0.5-5.7c1.7-1.4,4.3-1.2,5.7,0.5l0.3,0.4C85.7,392.5,85.5,395.1,83.8,396.5z
	 M98.2,411.4c-0.8,0.8-1.8,1.2-2.9,1.2c-1,0-2-0.4-2.8-1.1l-0.4-0.4c-1.6-1.6-1.6-4.1,0-5.7c1.6-1.6,4.1-1.6,5.7,0l0.3,0.3
	C99.7,407.3,99.8,409.8,98.2,411.4z M114,424.9c-0.8,1-2,1.5-3.1,1.5c-0.9,0-1.8-0.3-2.5-0.9l-0.4-0.3c-1.7-1.4-2-3.9-0.6-5.7
	c1.4-1.7,3.9-2,5.7-0.6l0.4,0.3C115.1,420.6,115.4,423.2,114,424.9z M131,436.9c-0.8,1.2-2.1,1.8-3.4,1.8c-0.8,0-1.5-0.2-2.2-0.7
	l-0.4-0.3c-1.9-1.2-2.4-3.7-1.1-5.6c1.2-1.9,3.7-2.4,5.6-1.1l0.4,0.3C131.7,432.6,132.2,435.1,131,436.9z M149,447.3
	c-0.7,1.4-2.1,2.1-3.6,2.1c-0.6,0-1.3-0.2-1.9-0.5l-0.4-0.2c-2-1.1-2.7-3.5-1.7-5.5c1.1-2,3.5-2.7,5.5-1.7l0.5,0.2
	C149.3,442.8,150,445.3,149,447.3z M167.9,455.9c-0.6,1.5-2.2,2.5-3.7,2.5c-0.5,0-1-0.1-1.6-0.3l-0.5-0.2c-2.1-0.9-3-3.3-2.1-5.3
	c0.9-2.1,3.3-3,5.3-2.1l0.4,0.2C167.8,451.4,168.7,453.8,167.9,455.9z M187.5,462.6c-0.5,1.7-2.1,2.8-3.9,2.8
	c-0.4,0-0.8-0.1-1.2-0.2l-0.4-0.1c-2.1-0.7-3.3-3-2.7-5.1c0.7-2.1,2.9-3.3,5-2.6l0.5,0.1C187,458.2,188.2,460.5,187.5,462.6z
	 M207.7,467.6c-0.4,1.9-2.1,3.2-4,3.2c-0.3,0-0.6,0-0.8-0.1l-0.5-0.1c-2.2-0.5-3.6-2.6-3.1-4.8c0.5-2.2,2.6-3.6,4.8-3.1l0.5,0.1
	C206.8,463.2,208.2,465.4,207.7,467.6z M228.2,470.5c-0.2,2.1-2,3.6-4,3.6c-0.2,0-0.3,0-0.5,0l-0.5-0.1c-2.2-0.3-3.8-2.3-3.5-4.5
	c0.3-2.2,2.3-3.8,4.5-3.5l0.5,0.1C226.9,466.3,228.5,468.3,228.2,470.5z M244.9,475.5C244.9,475.5,244.9,475.5,244.9,475.5l-0.6,0
	c-2.2-0.1-4-1.9-3.9-4.1c0.1-2.2,1.9-3.9,4-3.9c0,0,0.1,0,0.1,0l0.5,0c2.2,0.1,4,1.9,3.9,4.1C248.9,473.8,247.1,475.5,244.9,475.5z
	 M266,475l-0.5,0c-0.1,0-0.2,0-0.2,0c-2.1,0-3.9-1.7-4-3.8c-0.1-2.2,1.6-4.1,3.8-4.3l0.5,0c2.2-0.2,4.2,1.5,4.3,3.7
	C269.9,472.9,268.2,474.9,266,475z M287,472.6l-0.5,0.1c-0.2,0-0.4,0.1-0.7,0.1c-1.9,0-3.7-1.4-4-3.4c-0.4-2.2,1.1-4.3,3.3-4.6
	l0.5-0.1c2.2-0.4,4.3,1.1,4.6,3.3C290.7,470.1,289.2,472.2,287,472.6z M307.7,468.2l-0.5,0.1c-0.3,0.1-0.7,0.1-1,0.1
	c-1.8,0-3.5-1.2-3.9-3.1c-0.5-2.2,0.8-4.4,2.9-4.9l0.4-0.1c2.2-0.6,4.4,0.7,5,2.9C311.1,465.4,309.8,467.6,307.7,468.2z
	 M327.8,461.8l-0.5,0.2c-0.5,0.2-0.9,0.2-1.4,0.2c-1.6,0-3.2-1-3.8-2.7c-0.8-2.1,0.3-4.4,2.4-5.2l0.5-0.2c2.1-0.8,4.4,0.3,5.2,2.4
	C331,458.7,329.9,461,327.8,461.8z M347.3,453.6l-0.4,0.2c-0.6,0.3-1.2,0.4-1.8,0.4c-1.5,0-3-0.8-3.6-2.3c-1-2-0.1-4.4,1.9-5.4
	l0.5-0.2c2-1,4.4-0.1,5.4,1.9C350.2,450.2,349.3,452.6,347.3,453.6z M365.9,443.6l-0.4,0.2c-0.6,0.4-1.4,0.6-2.1,0.6
	c-1.4,0-2.7-0.7-3.5-1.9c-1.2-1.9-0.6-4.4,1.4-5.6l0.4-0.3c1.9-1.2,4.4-0.5,5.5,1.4C368.4,440,367.8,442.4,365.9,443.6z
	 M383.5,431.9l-0.4,0.3c-0.7,0.5-1.6,0.8-2.4,0.8c-1.2,0-2.5-0.6-3.3-1.6c-1.3-1.8-1-4.3,0.8-5.7l0.4-0.3c1.8-1.3,4.3-0.9,5.6,0.9
	C385.7,428,385.3,430.5,383.5,431.9z M250,448.1c-109.2,0-198.1-88.9-198.1-198.1c0-109.2,88.9-198.1,198.1-198.1
	c109.2,0,198.1,88.9,198.1,198.1C448.1,359.2,359.2,448.1,250,448.1z M399.9,418.5l-0.3,0.3c-0.8,0.7-1.7,1-2.7,1
	c-1.1,0-2.2-0.5-3-1.3c-1.5-1.7-1.4-4.2,0.3-5.7l0.4-0.3c1.7-1.5,4.2-1.3,5.7,0.3C401.8,414.5,401.6,417.1,399.9,418.5z
	 M415.1,403.8l-0.3,0.4c-0.8,0.9-1.9,1.3-3,1.3c-1,0-2-0.4-2.7-1.1c-1.6-1.5-1.7-4.1-0.2-5.7l0.4-0.4c1.5-1.6,4.1-1.7,5.7-0.2
	C416.5,399.6,416.6,402.1,415.1,403.8z M428.7,387.7l-0.3,0.4c-0.8,1-2,1.6-3.2,1.6c-0.9,0-1.7-0.3-2.5-0.8
	c-1.8-1.4-2.1-3.9-0.7-5.7l0.3-0.4c1.4-1.8,3.9-2.1,5.7-0.7C429.8,383.3,430.1,385.9,428.7,387.7z M440.9,370.3l-0.3,0.4
	c-0.8,1.2-2.1,1.9-3.4,1.9c-0.7,0-1.5-0.2-2.1-0.6c-1.9-1.2-2.5-3.7-1.3-5.6l0.3-0.4c1.2-1.9,3.7-2.4,5.6-1.3
	C441.5,365.9,442.1,368.4,440.9,370.3z M451.3,351.9l-0.2,0.5c-0.7,1.4-2.1,2.2-3.6,2.2c-0.6,0-1.2-0.1-1.8-0.4
	c-2-1-2.8-3.5-1.8-5.4l0.2-0.4c1-2,3.4-2.8,5.4-1.8C451.5,347.5,452.3,349.9,451.3,351.9z M449.5,153.5c-0.6,0.3-1.2,0.4-1.8,0.4
	c-1.5,0-2.9-0.8-3.6-2.2l-0.2-0.4c-1-2-0.2-4.4,1.8-5.4c2-1,4.4-0.2,5.4,1.8l0.2,0.5C452.3,150.1,451.5,152.5,449.5,153.5z
	 M460,332.6l-0.2,0.5c-0.6,1.6-2.2,2.6-3.8,2.6c-0.5,0-1-0.1-1.5-0.3c-2.1-0.8-3.1-3.2-2.3-5.2l0.2-0.5c0.8-2.1,3.2-3.1,5.2-2.3
	C459.8,328.2,460.8,330.6,460,332.6z M466.8,312.6l-0.1,0.5c-0.5,1.8-2.1,2.9-3.9,2.9c-0.4,0-0.8-0.1-1.1-0.2
	c-2.1-0.6-3.4-2.9-2.7-5l0.1-0.5c0.6-2.1,2.9-3.4,5-2.7C466.2,308.2,467.4,310.5,466.8,312.6z M471.7,292l-0.1,0.5
	c-0.4,1.9-2.1,3.3-4,3.3c-0.3,0-0.5,0-0.8-0.1c-2.2-0.4-3.6-2.5-3.2-4.7l0.1-0.5c0.4-2.2,2.5-3.6,4.7-3.2
	C470.6,287.7,472.1,289.8,471.7,292z M474.6,271.6c-0.2,2.1-2,3.7-4,3.7c-0.1,0-0.3,0-0.4,0c-2.2-0.2-3.9-2.2-3.6-4.4l0-0.5
	c0.2-2.2,2.2-3.8,4.4-3.6c2.2,0.2,3.9,2.2,3.6,4.4L474.6,271.6z M475.4,250v0.5c0,2.2-1.6,4.5-3.9,4.5c0,0,0,0,0,0
	c-2.2,0-5.1-2.3-5.1-4.5v-0.4c0,0,0-0.1,0-0.1v-0.5c0-2.2,2.3-4,4.5-4c2.2,0,4.5,1.8,4.5,4V250C475.4,249.9,475.4,250,475.4,250z"></path></g>
</svg>