<?xml version="1.0" encoding="utf-8"?><!DOCTYPE svg PUBLIC "-//W3C//DTD SVG 1.1//EN" "http://www.w3.org/Graphics/SVG/1.1/DTD/svg11.dtd">
<svg version="1.1" id="Layer_1" xmlns="http://www.w3.org/2000/svg" xmlns:xlink="http://www.w3.org/1999/xlink" x="0px" y="0px" viewBox="0 0 500 500" enable-background="new 0 0 500 500" xml:space="preserve">
<g id="change1_1"><path fill="#FFFFFF" d="M250,500c-66.8,0-129.6-26-176.8-73.2C26,379.6,0,316.8,0,250c0-66.8,26-129.6,73.2-176.8
	C120.4,26,183.2,0,250,0c66.8,0,129.6,26,176.8,73.2C474,120.4,500,183.2,500,250c0,66.8-26,129.6-73.2,176.8
	C379.6,474,316.8,500,250,500z M250,10C117.7,10,10,117.7,10,250c0,132.3,107.7,240,240,240c132.3,0,240-107.7,240-240
	C490,117.7,382.3,10,250,10z"></path></g>
<g id="change1_2"><path fill="#FFFFFF" d="M441.4,245c-1.3-48.6-20.7-92.7-51.8-125.9L427,81.8l-7.1-7.1L382.6,112C349.3,80,304.5,59.8,255,58.6V6h-10
	v52.6c-49,1.3-93.5,21-126.7,52.5L80.5,73.3l-7.1,7.1l37.8,37.8C79.6,151.4,59.8,195.9,58.6,245H4v10h54.6
	c1.3,49.5,21.4,94.3,53.4,127.6l-39.3,39.3l7.1,7.1l39.3-39.3c33.1,31.1,77.3,50.5,125.9,51.8V497h10v-55.6
	c49.1-1.3,93.6-21.1,126.8-52.7l38.8,38.8l7.1-7.1l-38.8-38.8c31.5-33.2,51.3-77.7,52.5-126.7H495v-10L441.4,245L441.4,245z
	 M255,431.4c-1.7,0-3.3,0.1-5,0.1s-3.3,0-5-0.1c-97.8-2.7-176.5-83-176.5-181.4c0-98.4,78.7-178.8,176.5-181.4c1.7,0,3.3-0.1,5-0.1
	s3.3,0,5,0.1c97.8,2.7,176.5,83,176.5,181.4C431.5,348.4,352.8,428.8,255,431.4z"></path></g>
</svg>