<?xml version="1.0" encoding="utf-8"?><!DOCTYPE svg PUBLIC "-//W3C//DTD SVG 1.1//EN" "http://www.w3.org/Graphics/SVG/1.1/DTD/svg11.dtd">
<svg version="1.1" id="Layer_1" xmlns="http://www.w3.org/2000/svg" xmlns:xlink="http://www.w3.org/1999/xlink" x="0px" y="0px" viewBox="0 0 488.4 501.5" enable-background="new 0 0 488.4 501.5" xml:space="preserve">
<g>
	<g>
		<g id="change1_1"><path fill="#7D8693" d="M202.9,501.5c1.9,0,1.9-2.9,0-2.9C201,498.5,201,501.5,202.9,501.5L202.9,501.5z"></path></g>
	</g>
</g>
<g id="change2_1"><path fill="#FFFFFF" d="M244.2,488.4c-65.2,0-126.6-25.4-172.7-71.5C25.4,370.8,0,309.4,0,244.2C0,179,25.4,117.7,71.5,71.5
	C117.7,25.4,179,0,244.2,0c65.2,0,126.6,25.4,172.7,71.5c46.1,46.1,71.5,107.5,71.5,172.7c0,65.2-25.4,126.6-71.5,172.7
	C370.8,463,309.4,488.4,244.2,488.4z M244.2,9.8C114.9,9.8,9.8,114.9,9.8,244.2c0,129.3,105.2,234.4,234.4,234.4
	c129.3,0,234.4-105.2,234.4-234.4C478.7,114.9,373.5,9.8,244.2,9.8z"></path></g>
<g id="change2_2"><path fill="#FFFFFF" d="M431.2,240.3c-2.1-99.7-82.5-180.5-182.1-183.1V5.9h-9.8v51.3c-99.6,2.6-180.1,83.4-182.1,183.1H3.9v9.8
	h53.3c3.1,98.8,83.1,178.6,182.1,181.1v54.3h9.8v-54.3c99-2.5,179-82.3,182.1-181.1h52.4v-9.8H431.2z M249.1,421.5
	c-1.6,0-3.3,0.1-4.9,0.1s-3.3,0-4.9-0.1c-95.5-2.6-172.4-81.1-172.4-177.2c0-96.1,76.9-174.6,172.4-177.2c1.6,0,3.3-0.1,4.9-0.1
	s3.3,0,4.9,0.1c95.5,2.6,172.4,81.1,172.4,177.2C421.5,340.4,344.6,418.9,249.1,421.5z"></path></g>
</svg>