<?xml version="1.0" encoding="utf-8"?><!DOCTYPE svg PUBLIC "-//W3C//DTD SVG 1.1//EN" "http://www.w3.org/Graphics/SVG/1.1/DTD/svg11.dtd">
<svg version="1.1" id="Layer_1" xmlns="http://www.w3.org/2000/svg" xmlns:xlink="http://www.w3.org/1999/xlink" x="0px" y="0px" viewBox="0 0 500 497.7" enable-background="new 0 0 500 497.7" xml:space="preserve">
<g id="change1_1"><path fill="#FFFFFF" d="M293.7,497.7l-43.7-27l-43.7,27l-31.6-40.5l-50.4,10.1l-15.6-48.9l-50.8-7.8l2-51.3l-45.1-24.6l19.3-47.6
	L0,248.9l34.1-38.3l-19.3-47.6l45.1-24.6l-2-51.3l50.8-7.8l15.6-48.9l50.4,10.1L206.3,0L250,27l43.7-27l31.6,40.5l50.4-10.1
	l15.6,48.9l50.8,7.8l-2,51.3l45.1,24.6l-19.3,47.6l34.1,38.3l-34.1,38.3l19.3,47.6l-45.1,24.6l2,51.3l-50.8,7.8l-15.6,48.9
	l-50.4-10.1L293.7,497.7z M178.8,446.2l29.9,38.3l41.3-25.6l41.3,25.6l29.9-38.3l47.6,9.6l14.8-46.3l48.1-7.4l-1.9-48.6l42.7-23.3
	l-18.3-45.1l32.3-36.3l-32.3-36.3l18.3-45.1l-42.7-23.3l1.9-48.6l-48.1-7.4l-14.8-46.3l-47.6,9.6l-29.9-38.3L250,38.8l-41.3-25.6
	l-29.9,38.3l-47.6-9.6l-14.8,46.3l-48.1,7.4l1.9,48.6l-42.7,23.2l18.3,45.1l-32.3,36.3l32.3,36.3l-18.3,45.1l42.7,23.3l-1.9,48.6
	l48.1,7.4l14.8,46.3L178.8,446.2z"></path></g>
<g id="change1_2"><path fill="#FFFFFF" d="M249.8,419.2C155.6,419.2,79,342.6,79,248.5c0-94.1,76.6-170.7,170.7-170.7s170.7,76.6,170.7,170.7
	C420.5,342.6,343.9,419.2,249.8,419.2z M249.8,87.8c-88.6,0-160.7,72.1-160.7,160.7c0,88.6,72.1,160.7,160.7,160.7
	c88.6,0,160.7-72.1,160.7-160.7C410.5,159.9,338.4,87.8,249.8,87.8z"></path></g>
<g id="change1_3"><path fill="#FFFFFF" d="M62,400.6l6.5,7.7l58-49c-2.2-2.5-4.4-5-6.5-7.6L62,400.6z M124.8,456.5l8.7,5l38.3-66.7
	c-2.9-1.6-5.8-3.2-8.7-5L124.8,456.5z M21.7,327.6l3.5,9.4l71-26.1c-1.3-3.1-2.4-6.2-3.5-9.4L21.7,327.6z M431,408.2l6.5-7.7l-58-49
	c-2.1,2.6-4.2,5.2-6.5,7.6L431,408.2z M202.4,488.3l9.9,1.7l13.7-77.5c-3.3-0.5-6.6-1-9.9-1.7L202.4,488.3z M474.3,337l3.4-9.4
	l-71-26.1c-1.1,3.2-2.2,6.3-3.5,9.4L474.3,337z M366.1,461.5l8.7-5l-38.3-66.8c-2.8,1.7-5.7,3.4-8.7,5L366.1,461.5z M287.2,490
	l9.9-1.7l-13.7-77.5c-3.3,0.7-6.5,1.2-9.9,1.7L287.2,490z M25.2,160.7l-3.5,9.4l70.8,26c1.1-3.2,2.2-6.3,3.5-9.4L25.2,160.7z
	 M477.8,170.1l-3.4-9.4l-70.8,26c1.2,3.1,2.4,6.2,3.5,9.4L477.8,170.1z M415.4,253.5h73.7v-10h-73.7c0.1,1.7,0.1,3.3,0.1,5
	S415.5,251.8,415.4,253.5z M84.1,243.5H12.5v10h71.7c0-1.7-0.1-3.3-0.1-5C84,246.8,84.1,245.2,84.1,243.5z M437.5,97.1l-6.5-7.7
	l-57.6,48.7c2.2,2.5,4.4,5,6.4,7.7L437.5,97.1z M374.8,41.2l-8.7-5l-37.9,66.2c2.9,1.6,5.8,3.3,8.7,5L374.8,41.2z M133.5,36.2
	l-8.7,5l38,66.2c2.8-1.8,5.7-3.4,8.7-5L133.5,36.2z M212.3,7.6l-9.9,1.7L216,86.2c3.3-0.7,6.5-1.2,9.9-1.7L212.3,7.6z M68.5,89.5
	L62,97.1l57.7,48.7c2.1-2.6,4.2-5.2,6.4-7.7L68.5,89.5z M297.1,9.4l-9.9-1.7l-13.6,76.9c3.3,0.5,6.6,1,9.9,1.7L297.1,9.4z"></path></g>
</svg>