<?xml version="1.0" encoding="utf-8"?><!DOCTYPE svg PUBLIC "-//W3C//DTD SVG 1.1//EN" "http://www.w3.org/Graphics/SVG/1.1/DTD/svg11.dtd">
<svg version="1.1" id="Layer_1" xmlns="http://www.w3.org/2000/svg" xmlns:xlink="http://www.w3.org/1999/xlink" x="0px" y="0px" viewBox="0 0 500 500" enable-background="new 0 0 500 500" xml:space="preserve">
<g id="change1_1"><path fill="#FFFFFF" d="M250,420.5C156,420.5,79.5,344,79.5,250C79.5,156,156,79.5,250,79.5S420.5,156,420.5,250
	C420.5,344,344,420.5,250,420.5z M250,89.5c-88.5,0-160.5,72-160.5,160.5c0,88.5,72,160.5,160.5,160.5c88.5,0,160.5-72,160.5-160.5
	C410.5,161.5,338.5,89.5,250,89.5z"></path></g>
<g id="change1_2"><path fill="#FFFFFF" d="M250,500c-66.8,0-129.6-26-176.8-73.2C26,379.6,0,316.8,0,250S26,120.4,73.2,73.2S183.2,0,250,0
	s129.6,26,176.8,73.2C474,120.4,500,183.2,500,250s-26,129.6-73.2,176.8C379.6,474,316.8,500,250,500z M250,10
	C117.7,10,10,117.7,10,250c0,132.3,107.7,240,240,240c132.3,0,240-107.7,240-240C490,117.7,382.3,10,250,10z"></path></g>
<g id="change1_3"><path fill="#FFFFFF" d="M458.2,282.1c1.4-8.9,2.2-17.9,2.4-27.1H494v-10h-33.4c-0.2-9-1-17.8-2.3-26.4c-0.5-3.3-1.1-6.6-1.7-9.9
	c-1.8-9.1-4.2-18-7.2-26.6l28.3-10.4l-3.4-9.4L446,172.7c-3.2-8.2-7-16.1-11.2-23.7c-1.6-2.9-3.3-5.8-5-8.7c-4.7-7.7-9.9-15-15.5-22
	l23.1-19.5l-6.4-7.6l-23.1,19.5c-5.9-6.7-12.2-13-18.9-18.8c-2.5-2.2-5.1-4.3-7.7-6.4c-7-5.6-14.3-10.8-22-15.4l15.5-27l-8.7-5
	l-15.5,27c-7.8-4.3-15.9-8.1-24.3-11.3c-3.1-1.2-6.2-2.4-9.4-3.4c-8.3-2.8-16.7-5.1-25.4-6.8l5.7-32.3l-9.8-1.7l-5.7,32.3
	c-10.3-1.6-20.9-2.4-31.7-2.4c-10.8,0-21.4,0.8-31.7,2.4l-5.7-32.3l-9.8,1.7l5.7,32.3c-8.7,1.7-17.2,4-25.4,6.8
	c-3.2,1.1-6.3,2.2-9.4,3.4c-8.4,3.3-16.5,7.1-24.3,11.3l-15.5-27l-8.7,5l15.5,27c-7.7,4.7-15,9.8-22,15.4c-2.6,2.1-5.2,4.2-7.7,6.4
	c-6.7,5.9-13,12.2-18.9,18.8L69,91.2l-6.5,7.6l23.1,19.5c-5.6,7-10.8,14.3-15.5,22c-1.7,2.8-3.4,5.7-5,8.7
	c-4.2,7.6-7.9,15.6-11.2,23.7l-28.3-10.4l-3.4,9.4l28.3,10.4c-3,8.6-5.3,17.5-7.2,26.6c-0.7,3.3-1.2,6.5-1.7,9.9
	c-1.3,8.7-2.1,17.5-2.3,26.4H8v10h31.4c0.2,9.2,1,18.2,2.4,27.1c0.5,3.3,1.1,6.6,1.8,9.8c1.8,9.1,4.3,18,7.2,26.6L22.3,329l3.4,9.4
	l28.5-10.5c3.3,8.1,7,16,11.2,23.6c1.6,2.9,3.3,5.8,5,8.6c4.7,7.6,9.9,14.9,15.5,21.9l-23.5,19.8l6.5,7.6l23.5-19.8
	c5.9,6.6,12.2,12.9,18.9,18.8c2.5,2.2,5.1,4.3,7.7,6.4c7,5.6,14.3,10.7,21.9,15.3l-15.8,27.5l8.7,5l15.8-27.5
	c7.8,4.2,15.9,8,24.2,11.2c3.1,1.2,6.2,2.3,9.4,3.4c8.2,2.8,16.7,5,25.3,6.7l-5.8,32.9l9.8,1.7l5.8-32.9c8.7,1.3,17.6,2.1,26.6,2.3
	c1.7,0,3.3,0.1,5,0.1s3.3,0,5-0.1c9-0.2,17.9-1,26.6-2.3l5.8,32.9l9.8-1.7l-5.8-32.9c8.6-1.7,17.1-4,25.3-6.7
	c3.2-1.1,6.3-2.2,9.4-3.4c8.3-3.2,16.4-7,24.2-11.2l15.8,27.5l8.7-5l-15.8-27.5c7.6-4.6,15-9.8,21.9-15.3c2.6-2.1,5.2-4.2,7.7-6.4
	c6.7-5.9,13-12.1,18.9-18.8l23.5,19.8l6.4-7.6L414,382.1c5.6-6.9,10.8-14.2,15.5-21.9c1.7-2.8,3.4-5.7,5-8.6
	c4.2-7.6,8-15.5,11.2-23.6l28.5,10.5l3.4-9.4l-28.5-10.5c3-8.6,5.4-17.5,7.2-26.6C457.1,288.7,457.7,285.4,458.2,282.1z
	 M439.8,315.1l-33-12.1c-1.1,3.2-2.2,6.3-3.5,9.4l33,12.1c-3,7.6-6.6,15-10.5,22.1L395.5,329c-1.6,2.9-3.3,5.8-5.1,8.6l30.4,17.6
	c-4.4,7.1-9.2,13.9-14.5,20.4L379.6,353c-2.1,2.6-4.2,5.2-6.5,7.6l26.8,22.6c-5.5,6.2-11.4,12-17.6,17.5l-22.5-26.9
	c-2.5,2.2-5,4.4-7.7,6.4l22.5,26.9c-6.5,5.2-13.4,10-20.5,14.3L336.6,391c-2.8,1.7-5.7,3.4-8.7,5l17.5,30.5
	c-7.3,4-14.9,7.5-22.7,10.5l-12-33c-3.1,1.2-6.2,2.3-9.4,3.4l12,33.1c-7.7,2.6-15.6,4.7-23.7,6.3l-6.1-34.6
	c-3.2,0.7-6.5,1.2-9.9,1.7l6.1,34.6c-8.1,1.2-16.4,2-24.9,2.2v-35.2c-1.7,0-3.3,0.1-5,0.1s-3.3,0-5-0.1v35.2
	c-8.4-0.2-16.7-0.9-24.9-2.2l6.1-34.6c-3.3-0.5-6.6-1-9.9-1.7l-6.1,34.6c-8.1-1.6-16-3.7-23.7-6.3l12-33.1c-3.2-1-6.3-2.2-9.4-3.4
	l-12,33c-7.8-3-15.4-6.6-22.7-10.5L172,396c-2.9-1.6-5.8-3.2-8.7-5l-17.5,30.5c-7.1-4.4-14-9.1-20.5-14.3l22.5-26.9
	c-2.6-2.1-5.2-4.2-7.7-6.4l-22.5,26.9c-6.2-5.5-12.1-11.3-17.6-17.5l26.8-22.6c-2.2-2.5-4.4-5-6.5-7.6l-26.8,22.6
	c-5.2-6.5-10.1-13.3-14.5-20.4l30.4-17.6c-1.8-2.8-3.5-5.7-5.1-8.6l-30.4,17.6c-3.9-7.1-7.4-14.5-10.5-22.1l33-12.1
	c-1.3-3.1-2.4-6.2-3.5-9.4l-33,12.1c-2.8-8.1-5.1-16.4-6.8-24.9l34.6-6.1c-0.7-3.2-1.3-6.5-1.7-9.8l-34.6,6.1
	c-1.3-8.3-2-16.8-2.2-25.4h35.2c0-1.7-0.1-3.3-0.1-5s0-3.3,0.1-5H49.4c0.2-8.4,0.9-16.6,2.1-24.7l34.6,6.1c0.5-3.3,1-6.6,1.7-9.9
	l-34.6-6.1c1.7-8.5,4-16.8,6.7-24.9l33,12.1c1.1-3.2,2.2-6.3,3.4-9.4l-33-12.1c3-7.6,6.5-15,10.4-22.2l30.4,17.6
	c1.6-2.9,3.3-5.8,5-8.6l-30.4-17.6c4.4-7.1,9.2-14,14.4-20.5l26.8,22.6c2.1-2.6,4.2-5.2,6.4-7.6l-26.8-22.6
	c5.5-6.2,11.4-12.1,17.6-17.6l22.5,26.9c2.5-2.2,5-4.4,7.7-6.4l-22.5-26.9c6.5-5.2,13.4-10,20.6-14.4l17.5,30.5
	c2.8-1.8,5.7-3.4,8.7-5l-17.5-30.5c7.3-4,14.9-7.5,22.7-10.6l12,33c3.1-1.2,6.2-2.4,9.4-3.4l-12-33.1c7.7-2.6,15.7-4.7,23.8-6.4
	l6.1,34.6c3.2-0.7,6.5-1.2,9.9-1.7L220,51.6c8.2-1.2,16.5-2,25-2.2v35.2c1.7,0,3.3-0.1,5-0.1s3.3,0,5,0.1V49.4
	c8.5,0.2,16.8,0.9,25,2.2l-6.1,34.6c3.3,0.5,6.6,1,9.9,1.7l6.1-34.6c8.1,1.6,16,3.8,23.8,6.4l-12,33.1c3.2,1,6.3,2.2,9.4,3.4l12-33
	c7.8,3.1,15.4,6.6,22.7,10.6l-17.5,30.5c2.9,1.6,5.8,3.3,8.7,5l17.5-30.5c7.2,4.4,14,9.2,20.6,14.4L352.5,120
	c2.6,2.1,5.2,4.2,7.7,6.4l22.5-26.9c6.2,5.5,12.1,11.4,17.6,17.6l-26.8,22.6c2.2,2.5,4.4,5,6.4,7.6l26.8-22.6
	c5.2,6.5,10,13.4,14.4,20.5l-30.4,17.6c1.8,2.8,3.4,5.7,5,8.6l30.4-17.6c3.9,7.1,7.4,14.5,10.4,22.2l-33,12.1
	c1.2,3.1,2.4,6.2,3.5,9.4l33-12.1c2.8,8.1,5,16.4,6.7,24.9l-34.6,6.1c0.7,3.2,1.2,6.5,1.7,9.9l34.6-6.1c1.2,8.1,1.9,16.3,2.1,24.7
	h-35.2c0,1.7,0.1,3.3,0.1,5s0,3.3-0.1,5h35.2c-0.2,8.6-1,17.1-2.2,25.4l-34.6-6.1c-0.5,3.3-1.1,6.6-1.7,9.8l34.6,6.1
	C444.9,298.7,442.6,307,439.8,315.1z"></path></g>
</svg>