<?xml version="1.0" encoding="utf-8"?><!DOCTYPE svg PUBLIC "-//W3C//DTD SVG 1.1//EN" "http://www.w3.org/Graphics/SVG/1.1/DTD/svg11.dtd">
<svg version="1.1" id="Layer_1" xmlns="http://www.w3.org/2000/svg" xmlns:xlink="http://www.w3.org/1999/xlink" x="0px" y="0px" viewBox="0 0 500 498.5" enable-background="new 0 0 500 498.5" xml:space="preserve">
<g id="change1_1"><path fill="#FFFFFF" d="M314.9,493.3l-64.8-49.6l-65,49.6l-0.3-0.6l-31.1-75.2l-81.3,10.9l10.7-81.3L7.3,316.1l50-64.8l-50-64.8
	l75.9-31.1L72.4,74.2l81.3,10.9l31.3-75.8L250,59.3l64.9-50.1l0.3,0.6l31.1,75.2l81.3-10.9l-0.1,0.7l-10.6,80.6l75.9,31.1l-50,64.8
	l50,64.8l-0.6,0.3l-75.3,30.8l10.7,81.3l-81.3-10.9L314.9,493.3z M154.4,416.4l0.1,0.4l31,75l64.6-49.2l0.3,0.2l64.1,49l31.1-75.3
	l0.4,0.1l80.4,10.8l-10.6-80.7l0.4-0.1l75-30.7l-49.7-64.3l49.7-64.3l-75.4-30.8l0.1-0.4l10.6-80.3l-80.8,10.8l-0.1-0.4l-31-75
	L250,60.6l-64.5-49.7l-31.1,75.3L73.6,75.4l10.6,80.7L8.9,187l49.7,64.3L8.9,315.6l75.4,30.8l-10.6,80.7L154.4,416.4z"></path></g>
<g id="change1_2"><path fill="#FFFFFF" d="M316.9,498.5l-66.8-51.1l-67,51l-32.2-78.1l-83.7,11.2l11-83.7L0,316l51.6-66.7L0,182.5l78.2-32l-11-83.7
	l83.7,11.2L183.1,0L250,51.6L316.9,0l32.3,78.1l83.7-11.2l-11,83.7l78.2,32l-51.6,66.7L500,316l-78.2,32l11,83.7l-83.7-11.2
	L316.9,498.5z M157.3,409.3l30.2,73.1l62.6-47.7l62.4,47.7l30.2-73.1l78.3,10.5l-10.3-78.3l73.1-29.9l-48.2-62.4l48.2-62.4
	L410.7,157l10.3-78.3l-78.3,10.5l-30.2-73.1L250,64.4l-62.5-48.2l-30.2,73.1L78.9,78.7L89.3,157l-73.1,29.9l48.2,62.4l-48.2,62.4
	l73.1,29.9l-10.3,78.3L157.3,409.3z"></path></g>
<g id="change1_3"><path fill="#FFFFFF" d="M203.6,420.8l-22-54.1l-57.9,8l8-57.9l-54.2-22l35.9-46l-35.9-46l54.2-22l-8-57.9l57.9,8l22-54.2l46,35.9
	l46-35.9l22,54.2l57.9-8l-8,57.9l54.2,22l-35.9,46l35.9,46l-54.2,22l8,57.9l-57.9-8l-22,54.1l-46.4-35.5L203.6,420.8z M249.3,372.4
	l42.1,32.2l19.9-49.1l52.4,7.2l-7.2-52.4l49-19.9l-32.5-41.7l32.5-41.7l-49-19.9l7.2-52.4l-52.4,7.2l-19.9-49l-41.7,32.5L208,92.8
	l-19.9,49l-52.4-7.2l7.2,52.4l-49,19.9l32.5,41.7l-32.5,41.7l49,19.9l-7.2,52.4l52.4-7.2l19.9,49L249.3,372.4z"></path></g>
<g id="change1_4"><rect x="244.6" y="383.7" fill="#FFFFFF" width="10.2" height="61.9"></rect></g>
<g id="change1_5"><rect x="244.6" y="52.8" fill="#FFFFFF" width="10.2" height="61.9"></rect></g>
<g id="change1_6"><rect x="53.8" y="243.6" fill="#FFFFFF" width="61.9" height="10.2"></rect></g>
<g id="change1_7"><rect x="384.7" y="243.6" fill="#FFFFFF" width="61.9" height="10.2"></rect></g>
</svg>