<?xml version="1.0" encoding="utf-8"?><!DOCTYPE svg PUBLIC "-//W3C//DTD SVG 1.1//EN" "http://www.w3.org/Graphics/SVG/1.1/DTD/svg11.dtd">
<svg version="1.1" id="Layer_1" xmlns="http://www.w3.org/2000/svg" xmlns:xlink="http://www.w3.org/1999/xlink" x="0px" y="0px" viewBox="0 0 500 498.5" enable-background="new 0 0 500 498.5" xml:space="preserve">
<g id="change1_1"><polygon fill="#7D8693" points="185.3,492.5 154.1,416.9 73,427.8 83.7,346.8 8.1,315.8 58,251.3 8.1,186.7 83.7,155.8 73,74.8 
	154.1,85.7 185.3,10.1 250,60 314.7,10.1 345.9,85.7 427,74.8 416.3,155.8 491.9,186.7 442,251.3 491.9,315.8 416.3,346.8 
	427,427.8 345.9,416.9 314.7,492.5 250.1,443.1 "></polygon></g>
<g id="change2_1"><path fill="#FFFFFF" d="M316.9,498.5l-66.8-51.1l-67,51l-32.2-78.1l-83.7,11.2l11-83.7L0,316l51.6-66.7L0,182.5l78.2-32l-11-83.7
	l83.7,11.2L183.1,0L250,51.6L316.9,0l32.3,78.1l83.7-11.2l-11,83.7l78.2,32l-51.6,66.7L500,316l-78.2,32l11,83.7l-83.7-11.2
	L316.9,498.5z M157.3,409.3l30.2,73.1l62.6-47.7l62.4,47.7l30.2-73.1l78.3,10.5l-10.3-78.3l73.1-29.9l-48.2-62.4l48.2-62.4
	L410.7,157l10.3-78.3l-78.3,10.5l-30.2-73.1L250,64.4l-62.5-48.2l-30.2,73.1L78.9,78.7L89.3,157l-73.1,29.9l48.2,62.4l-48.2,62.4
	l73.1,29.9l-10.3,78.3L157.3,409.3z"></path></g>
<g id="change2_2"><path fill="#FFFFFF" d="M488.6,317.9l2.6-9.8l-74.5-19.8l-26.9-34.5h56.7v-10.2h-56.7l26.2-33.7l72.9-19.3l-2.6-9.8l-71.6,18.9
	l-40.4-16.4l43.3-24.7l-5-8.8l-44.2,25.2l5.9-42.8l55.1-54.6l-7.1-7.2l-53.7,53.3l-43.6,6l26.8-46l-8.8-5.1l-27.4,46.9l-16.4-40.5
	l19.5-72.2l-9.8-2.6l-19.2,71.1l-34.9,27.2V52.8h-10.2v55.7L210.6,82l-19.4-71.8l-9.8,2.6l19.3,71.2L184,124.9l-27-46.2l-8.8,5.1
	l26.9,46.1l-43.5-6L77.8,70.5l-7.1,7.2l54.3,53.8l5.9,43.2l-43.5-24.8l-5,8.8l43,24.5l-40.5,16.5l-71.2-18.8l-2.6,9.8l72.1,19.1
	l26.4,33.9H53.8v10.2h55.7l-27,34.7L8.8,308.1l2.6,9.8l74.4-19.8l39.9,16.2L82.4,339l5,8.8l43.4-24.8l-6,43.9l-52.6,52.4l7.2,7.2
	l53.4-53.2l42.6-5.9l-27.1,46.5l8.8,5.1l27.1-46.4l16.7,41l-19.3,71.5l9.8,2.6l19.6-72.7l33.7-26.2v56.7h10.2v-56.2l34.6,26.4
	l19.4,72l9.8-2.6L299,412.7l16.5-40.7l27.5,47.1l8.8-5.1l-27-46.4l42.7,5.9l53.3,53.1l7.2-7.2l-53.4-53.2l-6-43.5l44.2,25.2l5-8.8
	L374,314.1l39.8-16.2L488.6,317.9z M397.5,293.6l-34.7,14.1l-6.3,2.6l0.8,6l5.2,38l1.2,8.4l-8.2-1.1l-37.3-5.1l-6.9-1l-2.2,5.4
	l-14.4,35.6l-3.3,8.1l-6.3-4.8l-35.7-27.3l-34,26.4l-7.3,5.7l-2.9-7l-14.6-35.9l-2.5-6.1l-6.2,0.9l-37.2,5.1l-9,1.2l1.1-7.6
	l5.3-38.4l0.9-6.4l-5.9-2.4l-34.8-14.1l-8.3-3.4l4.9-6.2l27.6-35.5l-27-34.7l-5.5-7l7.4-3l35.4-14.4l6.3-2.5L142,181l-5.2-37.7
	l-1.2-8.6l8,1.1l38,5.2l6.4,0.9l2.4-5.9l14.5-35.7l3-7.4l7,5.4l34.7,27l35.6-27.7l6.1-4.8l3.4,8.4l14.4,35.4l2.1,5.2l7.2-1l38-5.2
	l7.2-1l-1.3,9.4l-5.1,37.4l-0.8,5.6l6.7,2.7l35.3,14.3l7.1,2.9l-5.6,7.2l-26.8,34.5l27.4,35.2l5,6.5L397.5,293.6z"></path></g>
</svg>