<?xml version="1.0" encoding="utf-8"?><!DOCTYPE svg PUBLIC "-//W3C//DTD SVG 1.1//EN" "http://www.w3.org/Graphics/SVG/1.1/DTD/svg11.dtd">
<svg version="1.1" id="Layer_1" xmlns="http://www.w3.org/2000/svg" xmlns:xlink="http://www.w3.org/1999/xlink" x="0px" y="0px" viewBox="0 0 500 500" enable-background="new 0 0 500 500" xml:space="preserve">
<g id="C">
	<g id="change1_1"><rect x="58" y="59" fill="#FFFFFF" width="383" height="381"></rect></g>
</g>
<g id="SE">
	<g id="change1_2"><rect x="438" y="438" fill="#FFFFFF" width="18" height="18"></rect></g>
	<g id="change1_3"><polygon fill="#FFFFFF" points="500,438 471,438 471,471 438,471 438,500 500,500 	"></polygon></g>
</g>
<g id="W">
	<g id="change1_4"><rect y="60" fill="#FFFFFF" width="29" height="379"></rect></g>
	<g id="change1_5"><rect x="44" y="61" fill="#FFFFFF" width="18" height="378"></rect></g>
</g>
<g id="SW">
	<g id="change1_6"><rect x="44" y="438" fill="#FFFFFF" width="18" height="18"></rect></g>
	<g id="change1_7"><polygon fill="#FFFFFF" points="29,471 29,438 0,438 0,500 62,500 62,471 	"></polygon></g>
</g>
<g id="E">
	<g id="change1_8"><rect x="471" y="60" fill="#FFFFFF" width="29" height="380"></rect></g>
	<g id="change1_9"><rect x="438" y="60" fill="#FFFFFF" width="18" height="380"></rect></g>
</g>
<g id="S">
	<g id="change1_10"><rect x="60" y="471" fill="#FFFFFF" width="380" height="29"></rect></g>
	<g id="change1_11"><rect x="60" y="438" fill="#FFFFFF" width="379" height="18"></rect></g>
</g>
<g id="NE">
	<g id="change1_12"><polygon fill="#FFFFFF" points="438,0 438,29 471,29 471,62 500,62 500,0 	"></polygon></g>
	<g id="change1_13"><rect x="438" y="44" fill="#FFFFFF" width="18" height="18"></rect></g>
</g>
<g id="NW">
	<g id="change1_14"><polygon fill="#FFFFFF" points="29,29 62,29 62,0 0,0 0,62 29,62 	"></polygon></g>
	<g id="change1_15"><rect x="44" y="44" fill="#FFFFFF" width="18" height="18"></rect></g>
</g>
<g id="N">
	<g id="change1_16"><rect x="60" fill="#FFFFFF" width="380" height="29"></rect></g>
	<g id="change1_17"><rect x="60" y="44" fill="#FFFFFF" width="379" height="18"></rect></g>
</g>
</svg>