<?xml version="1.0" encoding="utf-8"?>
<!-- Generator: Adobe Illustrator 18.1.1, SVG Export Plug-In . SVG Version: 6.00 Build 0)  -->
<!DOCTYPE svg PUBLIC "-//W3C//DTD SVG 1.1//EN" "http://www.w3.org/Graphics/SVG/1.1/DTD/svg11.dtd">
<svg version="1.1" id="Layer_1" xmlns="http://www.w3.org/2000/svg" xmlns:xlink="http://www.w3.org/1999/xlink" x="0px" y="0px"
	 viewBox="0 0 500 500" enable-background="new 0 0 500 500" xml:space="preserve">
<g id="nw_3_">
	<g id="change1">
		<path fill="#7D8693" d="M44.5,0C41,9.2,35,18.5,26.8,26.8C18.5,35,9.2,41,0,44.5v38.8h31.1h40.2h12v-12V31.1V0H44.5z"/>
	</g>
	<g id="change2_6_">
		<path fill="#FFFFFF" enable-background="new    " d="M31.1,83.3H0V44.5C9.2,41,18.5,35,26.8,26.8C35,18.5,41,9.2,44.5,0h38.8v31.1
			h-5.9c-25.6,0-46.3,20.7-46.3,46.3L31.1,83.3z"/>
		<circle fill="#FFFFFF" enable-background="new    " cx="70.3" cy="70.3" r="12"/>
	</g>
</g>
<g id="w_3_">
	<g id="change1_42_">
		<polygon fill="#7D8693" points="71.3,83.3 31.1,83.3 0,83.3 0,416.7 31.1,416.7 71.3,416.7 83.3,416.7 83.3,83.3 		"/>
	</g>
	<g id="change2_5_">
		<path fill="#FFFFFF" enable-background="new    " d="M31.1,416.7H0V83.3h31.1V416.7z"/>
	</g>
</g>
<g id="sw_2_">
	<g id="change1_41_">
		<path fill="#7D8693" d="M71.3,416.7H31.1H0v38.8c9.2,3.5,18.5,9.5,26.8,17.7C35,481.5,41,490.8,44.5,500h38.8v-31.1v-40.2v-12
			L71.3,416.7L71.3,416.7z"/>
	</g>
	<g id="change2_4_">
		<path fill="#FFFFFF" enable-background="new    " d="M83.3,468.9V500H44.5c-3.5-9.2-9.5-18.5-17.7-26.8C18.5,465,9.2,459,0,455.5
			v-38.8h31.1v5.9c0,25.6,20.7,46.3,46.3,46.3L83.3,468.9L83.3,468.9z"/>
		<path fill="#FFFFFF" enable-background="new    " d="M70.3,417.7c-6.6,0-12,5.4-12,12c0,6.6,5.4,12,12,12c6.6,0,12-5.4,12-12
			C82.3,423.1,76.9,417.7,70.3,417.7z"/>
	</g>
</g>
<g id="s_3_">
	<g id="change1_40_">
		<polygon fill="#7D8693" points="83.3,416.7 83.3,428.7 83.3,468.9 83.3,500 416.7,500 416.7,468.9 416.7,428.7 416.7,416.7 		"/>
	</g>
	<g id="change2_3_">
		<path fill="#FFFFFF" enable-background="new    " d="M416.7,468.9V500H83.3v-31.1H416.7z"/>
	</g>
</g>
<g id="c_3_">
	<g id="change1_39_">
		<rect x="83.3" y="83.3" fill="#7D8693" width="333.5" height="333.4"/>
	</g>
</g>
<g id="n_2_">
	<g id="change1_38_">
		<polygon fill="#7D8693" points="83.3,0 83.3,31.1 83.3,71.3 83.3,83.3 416.7,83.3 416.7,71.3 416.7,31.1 416.7,0 		"/>
	</g>
	<g id="change2_7_">
		<path fill="#FFFFFF" enable-background="new    " d="M83.3,31.1V0h333.5v31.1H83.3z"/>
	</g>
</g>
<g id="se_3_">
	<g id="change1_37_">
		<path fill="#7D8693" d="M468.9,416.7h-40.2h-12v12v40.2V500h38.8c3.5-9.2,9.5-18.5,17.7-26.8c8.2-8.2,17.5-14.2,26.8-17.7v-38.8
			H468.9z"/>
	</g>
	<g id="change2_2_">
		<path fill="#FFFFFF" enable-background="new    " d="M500,416.7v38.8c-9.2,3.5-18.5,9.5-26.8,17.7c-8.2,8.2-14.2,17.5-17.7,26.8
			h-38.8v-31.1h5.9c25.6,0,46.3-20.7,46.3-46.3v-5.9L500,416.7L500,416.7z"/>
		<path fill="#FFFFFF" enable-background="new    " d="M417.7,429.7c0,6.6,5.4,12,12,12c6.6,0,12-5.4,12-12c0-6.6-5.4-12-12-12
			C423.1,417.7,417.7,423.1,417.7,429.7z"/>
	</g>
</g>
<g id="e_2_">
	<g id="change1_36_">
		<polygon fill="#7D8693" points="468.9,83.3 428.7,83.3 416.7,83.3 416.7,416.7 428.7,416.7 468.9,416.7 500,416.7 500,83.3 		"/>
	</g>
	<g id="change2">
		<path fill="#FFFFFF" enable-background="new    " d="M468.9,83.3H500v333.4h-31.1V83.3z"/>
	</g>
</g>
<g id="ne_2_">
	<g id="change1_35_">
		<path fill="#7D8693" d="M473.2,26.8C465,18.5,459,9.2,455.5,0h-38.8v31.1v40.2v12h12h40.2H500V44.5C490.8,41,481.5,35,473.2,26.8z
			"/>
	</g>
	<g id="change2_1_">
		<path fill="#FFFFFF" enable-background="new    " d="M416.7,31.1V0h38.8c3.5,9.2,9.5,18.5,17.7,26.8C481.5,35,490.8,41,500,44.5
			v38.8h-31.1v-5.9c0-25.6-20.7-46.3-46.3-46.3L416.7,31.1z"/>
		<path fill="#FFFFFF" enable-background="new    " d="M441.7,70.3c0-6.6-5.4-12-12-12c-6.6,0-12,5.4-12,12c0,6.6,5.4,12,12,12
			C436.4,82.3,441.7,76.9,441.7,70.3z"/>
	</g>
</g>
</svg>
