<?xml version="1.0" encoding="utf-8"?><!DOCTYPE svg PUBLIC "-//W3C//DTD SVG 1.1//EN" "http://www.w3.org/Graphics/SVG/1.1/DTD/svg11.dtd">
<svg version="1.1" id="Layer_1" xmlns="http://www.w3.org/2000/svg" xmlns:xlink="http://www.w3.org/1999/xlink" x="0px" y="0px" viewBox="0 0 500 500" enable-background="new 0 0 500 500" xml:space="preserve">
<g id="change1_1"><polygon fill="#FFFFFF" points="466.1,216.1 466.1,160.5 426.8,121.1 426.8,73.2 378.9,73.2 339.5,33.9 283.9,33.9 250,0 
	216.1,33.9 160.5,33.9 121.1,73.2 73.2,73.2 73.2,121.1 33.9,160.5 33.9,216.1 0,250 33.9,283.9 33.9,339.5 73.2,378.9 73.2,426.8 
	121.1,426.8 160.5,466.1 216.1,466.1 250,500 283.9,466.1 339.5,466.1 378.9,426.8 426.8,426.8 426.8,378.9 466.1,339.5 
	466.1,283.9 500,250 "></polygon></g>
<g id="change2_1"><path fill="#3F4651" d="M320.2,419.6H179.8l-99.3-99.3V179.8l99.3-99.3h140.5l99.3,99.3v140.5L320.2,419.6z M183,411.8h134
	l94.8-94.8V183L317,88.2H183L88.2,183v134L183,411.8z"></path></g>
<g id="change2_2"><path fill="#3F4651" d="M327.9,438.2H172L61.8,328V172L172,61.8h155.9L438.2,172v156L327.9,438.2z M175.3,430.4h149.5l105.7-105.7
	V175.3L324.7,69.6H175.3L69.6,175.3v149.5L175.3,430.4z"></path></g>
<g id="change2_3"><path fill="#3F4651" d="M398.9,398.9H101.1V101.1h297.7L398.9,398.9L398.9,398.9z M108.9,391.1h282.2V108.9H108.9V391.1z"></path></g>
<g id="change2_4"><path fill="#3F4651" d="M250,460.5L39.5,250L250,39.5L460.5,250L250,460.5z M50.5,250L250,449.5L449.5,250L250,50.5L50.5,250z"></path></g>
</svg>