<?xml version="1.0" encoding="utf-8"?><!DOCTYPE svg PUBLIC "-//W3C//DTD SVG 1.1//EN" "http://www.w3.org/Graphics/SVG/1.1/DTD/svg11.dtd">
<svg version="1.1" id="Layer_1" xmlns="http://www.w3.org/2000/svg" xmlns:xlink="http://www.w3.org/1999/xlink" x="0px" y="0px" viewBox="0 0 500 500" enable-background="new 0 0 500 500" xml:space="preserve">
<g id="change1_1"><polygon fill="#FFFFFF" points="466.1,216.1 466.1,160.5 426.8,121.1 426.8,73.2 378.9,73.2 339.5,33.9 283.9,33.9 250,0 
	216.1,33.9 160.5,33.9 121.1,73.2 73.2,73.2 73.2,121.1 33.9,160.5 33.9,216.1 0,250 33.9,283.9 33.9,339.5 73.2,378.9 73.2,426.8 
	121.1,426.8 160.5,466.1 216.1,466.1 250,500 283.9,466.1 339.5,466.1 378.9,426.8 426.8,426.8 426.8,378.9 466.1,339.5 
	466.1,283.9 500,250 "></polygon></g>
</svg>