<?xml version="1.0" encoding="utf-8"?><!DOCTYPE svg PUBLIC "-//W3C//DTD SVG 1.1//EN" "http://www.w3.org/Graphics/SVG/1.1/DTD/svg11.dtd">
<svg version="1.1" id="Layer_1" xmlns="http://www.w3.org/2000/svg" xmlns:xlink="http://www.w3.org/1999/xlink" x="0px" y="0px" viewBox="0 0 500 500" enable-background="new 0 0 500 500" xml:space="preserve">
<g id="change1_1"><path fill="#FFFFFF" d="M76.1,428c-1.1,0-2.1-0.4-2.9-1.2c-0.8-0.9-1.2-1.9-1.2-3c0-1.1,0.5-2.1,1.2-2.9c1.6-1.5,4.3-1.5,5.9,0
	c0.8,0.8,1.2,1.8,1.2,2.9c0,1.2-0.4,2.2-1.2,3S77.2,428,76.1,428z"></path></g>
<g id="change1_2"><path fill="#FFFFFF" d="M72,406c0-2.3,1.9-4.2,4.2-4.2l0,0c2.3,0,4.2,1.8,4.2,4.2l0,0c0,2.3-1.8,4.2-4.2,4.2l0,0
	C73.9,410.2,72,408.2,72,406z M72,388.2c0-2.3,1.9-4.2,4.2-4.2l0,0c2.3,0,4.2,1.8,4.2,4.2l0,0c0,2.3-1.8,4.2-4.2,4.2l0,0
	C73.9,392.2,72,390.5,72,388.2z"></path></g>
<g id="change1_3"><path fill="#FFFFFF" d="M76.1,374.5c-1.1,0-2.1-0.4-2.9-1.2s-1.2-1.8-1.2-2.9c0-1.1,0.4-2.1,1.2-2.9c1.6-1.6,4.3-1.5,5.9,0
	c0.8,0.8,1.2,1.8,1.2,2.9c0,1.1-0.4,2.1-1.2,2.9S77.2,374.5,76.1,374.5z"></path></g>
<g id="change1_4"><path fill="#FFFFFF" d="M61.8,361.8c-1.6-1.6-1.6-4.2,0-5.9l0,0c1.6-1.6,4.3-1.6,5.9,0l0,0c1.6,1.7,1.6,4.3,0,5.9l0,0
	c-0.9,0.9-1.9,1.2-3,1.2l0,0C63.7,363,62.7,362.7,61.8,361.8z M50.4,350.5c-1.6-1.6-1.6-4.2,0-5.9l0,0c1.7-1.6,4.3-1.6,5.9,0l0,0
	c1.7,1.6,1.7,4.3,0,5.9l0,0c-0.8,0.9-1.8,1.2-2.9,1.2l0,0C52.3,351.7,51.3,351.2,50.4,350.5z"></path></g>
<g id="change1_5"><path fill="#FFFFFF" d="M42,340.3c-1.2,0-2.2-0.5-3-1.2c-0.8-0.8-1.2-1.9-1.2-2.9c0-1.1,0.5-2.2,1.2-2.9c1.5-1.6,4.3-1.6,5.9,0
	c0.7,0.7,1.2,1.8,1.2,2.9c0,1-0.4,2.1-1.2,2.9C44.2,339.8,43.1,340.3,42,340.3z"></path></g>
<g id="change1_6"><path fill="#FFFFFF" d="M37.8,315.8c0-2.3,1.9-4.2,4.2-4.2l0,0c2.3,0,4.2,1.8,4.2,4.2l0,0c0,2.3-1.9,4.2-4.2,4.2l0,0
	C39.7,320,37.8,318,37.8,315.8z M37.8,295.5c0-2.3,1.9-4.2,4.2-4.2l0,0c2.3,0,4.2,1.8,4.2,4.2l0,0c0,2.3-1.9,4.2-4.2,4.2l0,0
	C39.7,299.5,37.8,297.7,37.8,295.5z M30,281.8c-1.6-1.6-1.6-4.2,0-5.9l0,0c1.6-1.6,4.3-1.6,5.9,0l0,0c1.6,1.7,1.6,4.3,0,5.9l0,0
	c-0.9,0.9-1.9,1.2-3,1.2l0,0C31.9,283,30.8,282.5,30,281.8z M15.6,267.3c-1.7-1.7-1.7-4.3,0-5.9l0,0c1.6-1.7,4.3-1.7,5.9,0l0,0
	c1.6,1.6,1.6,4.2,0,5.9l0,0c-0.8,0.8-1.9,1.2-2.9,1.2l0,0C17.5,268.5,16.4,268.2,15.6,267.3z"></path></g>
<g id="change1_7"><path fill="#FFFFFF" d="M4.2,254.2c-1.1,0-2.2-0.5-2.9-1.2c-0.9-0.8-1.3-1.8-1.3-2.9c0-1.2,0.4-2.2,1.2-3c1.5-1.5,4.3-1.5,5.9,0
	c0.8,0.9,1.2,1.9,1.2,3s-0.4,2.1-1.2,2.9C6.3,253.7,5.3,254.2,4.2,254.2z"></path></g>
<g id="change1_8"><path fill="#FFFFFF" d="M15.6,238.6c-1.7-1.6-1.7-4.2,0-5.9l0,0c1.6-1.6,4.3-1.6,5.9,0l0,0c1.6,1.7,1.6,4.3,0,5.9l0,0
	c-0.8,0.9-1.8,1.2-2.9,1.2l0,0C17.5,239.8,16.4,239.4,15.6,238.6z M30,224.2c-1.6-1.7-1.6-4.3,0-5.9l0,0c1.6-1.7,4.3-1.7,5.9,0l0,0
	c1.6,1.6,1.6,4.2,0,5.9l0,0c-0.9,0.8-1.9,1.2-3,1.2l0,0C31.9,225.4,30.8,224.9,30,224.2z M37.8,204.6c0-2.3,1.9-4.2,4.2-4.2l0,0
	c2.3,0,4.2,1.9,4.2,4.2l0,0c0,2.3-1.9,4.2-4.2,4.2l0,0C39.7,208.8,37.8,206.9,37.8,204.6z M37.8,184.2c0-2.3,1.9-4.2,4.2-4.2l0,0
	c2.3,0,4.2,1.8,4.2,4.2l0,0c0,2.3-1.9,4.2-4.2,4.2l0,0C39.7,188.4,37.8,186.6,37.8,184.2z"></path></g>
<g id="change1_9"><path fill="#FFFFFF" d="M42,168.1c-1.2,0-2.2-0.4-3-1.2s-1.2-1.8-1.2-2.9c0-1.1,0.5-2.2,1.2-2.9c1.5-1.6,4.3-1.6,5.9,0
	c0.7,0.8,1.2,1.8,1.2,2.9c0,1.1-0.4,2.1-1.2,2.9C44.2,167.7,43.1,168.1,42,168.1z"></path></g>
<g id="change1_10"><path fill="#FFFFFF" d="M50.4,155.4c-1.6-1.6-1.6-4.3,0-5.9l0,0c1.7-1.7,4.3-1.7,5.9,0l0,0c1.6,1.6,1.6,4.3,0,5.9l0,0
	c-0.9,0.8-1.9,1.2-3,1.2l0,0C52.3,156.7,51.3,156.2,50.4,155.4z M61.8,144.1c-1.6-1.6-1.6-4.3,0-5.9l0,0c1.6-1.7,4.3-1.7,5.9,0l0,0
	c1.6,1.6,1.6,4.3,0,5.9l0,0c-0.8,0.8-1.8,1.2-2.9,1.2l0,0C63.7,145.2,62.6,144.9,61.8,144.1z"></path></g>
<g id="change1_11"><path fill="#FFFFFF" d="M76.1,133.9c-1.1,0-2.1-0.4-2.9-1.2s-1.2-1.8-1.2-2.9c0-1.1,0.4-2.1,1.2-2.9c1.6-1.6,4.3-1.5,5.9,0
	c0.8,0.8,1.2,1.9,1.2,2.9c0,1.1-0.4,2.1-1.2,2.9S77.2,133.9,76.1,133.9z"></path></g>
<g id="change1_12"><path fill="#FFFFFF" d="M72,111.9c0-2.3,1.9-4.2,4.2-4.2l0,0c2.3,0,4.2,1.9,4.2,4.2l0,0c0,2.3-1.8,4.2-4.2,4.2l0,0
	C73.9,116.1,72,114.2,72,111.9z M72,94.1c0-2.3,1.9-4.2,4.2-4.2l0,0c2.3,0,4.2,1.8,4.2,4.2l0,0c0,2.3-1.8,4.2-4.2,4.2l0,0
	C73.9,98.2,72,96.4,72,94.1z"></path></g>
<g id="change1_13"><path fill="#FFFFFF" d="M76.1,80.4c-1.1,0-2.1-0.4-2.9-1.2c-0.8-0.8-1.2-1.8-1.2-2.9s0.5-2.2,1.2-2.9c1.6-1.6,4.3-1.6,5.9,0
	c0.8,0.7,1.2,1.8,1.2,2.9s-0.4,2.1-1.2,2.9C78.3,80,77.3,80.4,76.1,80.4z"></path></g>
<g id="change1_14"><path fill="#FFFFFF" d="M109,76.2c0-2.3,1.9-4.2,4.2-4.2l0,0c2.3,0,4.2,1.8,4.2,4.2l0,0c0,2.3-1.8,4.2-4.2,4.2l0,0
	C110.9,80.4,109,78.5,109,76.2z M90.5,76.2c0-2.3,1.8-4.2,4.2-4.2l0,0c2.3,0,4.2,1.8,4.2,4.2l0,0c0,2.3-1.9,4.2-4.2,4.2l0,0
	C92.3,80.4,90.5,78.5,90.5,76.2z M128.2,77.8c-1.6-1.6-1.6-4.2,0-5.9l0,0c1.6-1.6,4.2-1.6,5.9,0l0,0c1.6,1.7,1.6,4.3,0,5.9l0,0
	c-0.9,0.9-1.9,1.2-2.9,1.2l0,0C130,79,129,78.6,128.2,77.8z M141.2,64.7c-1.6-1.6-1.6-4.2,0-5.9l0,0c1.7-1.6,4.3-1.6,5.9,0l0,0
	c1.6,1.7,1.6,4.3,0,5.9l0,0c-0.9,0.9-1.9,1.2-3,1.2l0,0C143.1,65.9,142.1,65.5,141.2,64.7z M154.3,51.6c-1.6-1.6-1.6-4.2,0-5.9l0,0
	c1.6-1.6,4.3-1.6,5.9,0l0,0c1.6,1.7,1.6,4.3,0,5.9l0,0c-0.9,0.9-1.9,1.2-2.9,1.2l0,0C156.2,52.8,155.2,52.4,154.3,51.6z M206,42.1
	c0-2.3,1.8-4.2,4.2-4.2l0,0c2.3,0,4.2,1.8,4.2,4.2l0,0c0,2.3-1.9,4.2-4.2,4.2l0,0C207.8,46.2,206,44.4,206,42.1z M187.4,42.1
	c0-2.3,1.9-4.2,4.2-4.2l0,0c2.3,0,4.2,1.8,4.2,4.2l0,0c0,2.3-1.8,4.2-4.2,4.2l0,0C189.3,46.2,187.4,44.4,187.4,42.1z M169,42.1
	c0-2.3,1.8-4.2,4.2-4.2l0,0c2.3,0,4.2,1.8,4.2,4.2l0,0c0,2.3-1.9,4.2-4.2,4.2l0,0C170.8,46.2,169,44.4,169,42.1z M220.8,33.3
	c-1.6-1.6-1.6-4.2,0-5.9l0,0c1.6-1.7,4.3-1.7,5.9,0l0,0c1.6,1.7,1.6,4.3,0,5.9l0,0c-0.8,0.8-1.8,1.2-2.9,1.2l0,0
	C222.7,34.6,221.6,34.1,220.8,33.3z M233.9,20.2c-1.7-1.6-1.7-4.2,0-5.9l0,0c1.6-1.7,4.3-1.7,5.9,0l0,0c1.6,1.7,1.6,4.3,0,5.9l0,0
	c-0.8,0.9-1.8,1.2-2.9,1.2l0,0C235.8,21.5,234.7,21.1,233.9,20.2z"></path></g>
<g id="change1_15"><path fill="#FFFFFF" d="M250,8.4c-1.1,0-2.1-0.4-2.9-1.2c-0.8-0.8-1.2-1.8-1.2-2.9s0.5-2.1,1.2-2.9c1.6-1.6,4.3-1.5,5.9,0
	c0.8,0.8,1.2,1.8,1.2,2.9s-0.4,2.1-1.2,2.9C252.1,7.9,251.1,8.4,250,8.4z"></path></g>
<g id="change1_16"><path fill="#FFFFFF" d="M401.2,76.2c0-2.3,1.8-4.2,4.2-4.2l0,0c2.3,0,4.2,1.8,4.2,4.2l0,0c0,2.3-1.9,4.2-4.2,4.2l0,0
	C403,80.4,401.2,78.6,401.2,76.2z M382.6,76.2c0-2.3,1.8-4.2,4.2-4.2l0,0c2.3,0,4.2,1.8,4.2,4.2l0,0c0,2.3-1.9,4.2-4.2,4.2l0,0
	C384.5,80.4,382.6,78.6,382.6,76.2z M365.9,77.8c-1.7-1.6-1.7-4.3,0-5.9l0,0c1.6-1.7,4.2-1.7,5.9,0l0,0c1.6,1.6,1.6,4.3,0,5.9l0,0
	c-0.8,0.8-1.9,1.2-2.9,1.2l0,0C367.8,79,366.7,78.6,365.9,77.8z M352.8,64.7c-1.6-1.6-1.6-4.2,0-5.9l0,0c1.6-1.6,4.2-1.6,5.9,0l0,0
	c1.6,1.7,1.6,4.3,0,5.9l0,0c-0.8,0.9-1.9,1.2-2.9,1.2l0,0C354.7,65.9,353.6,65.5,352.8,64.7z M339.7,51.6c-1.7-1.6-1.7-4.2,0-5.9
	l0,0c1.6-1.6,4.2-1.6,5.9,0l0,0c1.6,1.7,1.6,4.3,0,5.9l0,0c-0.8,0.9-1.9,1.2-2.9,1.2l0,0C341.6,52.8,340.5,52.4,339.7,51.6z
	 M322.7,42.1c0-2.3,1.8-4.2,4.2-4.2l0,0c2.3,0,4.2,1.8,4.2,4.2l0,0c0,2.3-1.9,4.2-4.2,4.2l0,0C324.6,46.2,322.7,44.4,322.7,42.1z
	 M304.2,42.1c0-2.3,1.9-4.2,4.2-4.2l0,0c2.3,0,4.2,1.8,4.2,4.2l0,0c0,2.3-1.8,4.2-4.2,4.2l0,0C306.1,46.2,304.2,44.4,304.2,42.1z
	 M285.6,42.1c0-2.3,1.9-4.2,4.2-4.2l0,0c2.3,0,4.1,1.8,4.1,4.2l0,0c0,2.3-1.8,4.2-4.1,4.2l0,0C287.5,46.2,285.6,44.4,285.6,42.1z
	 M273.2,33.3c-1.6-1.6-1.6-4.2,0-5.9l0,0c1.6-1.7,4.3-1.7,5.9,0l0,0c1.7,1.7,1.7,4.3,0,5.9l0,0c-0.8,0.8-1.9,1.2-2.9,1.2l0,0
	C275.1,34.6,274,34.1,273.2,33.3z M260.1,20.2c-1.6-1.6-1.6-4.2,0-5.9l0,0c1.6-1.6,4.3-1.6,5.9,0l0,0c1.6,1.7,1.6,4.3,0,5.9l0,0
	c-0.8,0.9-1.8,1.2-2.9,1.2l0,0C262,21.5,260.9,21.1,260.1,20.2z"></path></g>
<g id="change1_17"><path fill="#FFFFFF" d="M423.8,80.4c-1.1,0-2.1-0.4-2.9-1.2c-0.8-0.8-1.2-1.8-1.2-2.9s0.4-2.2,1.2-2.9c1.6-1.5,4.3-1.5,5.9,0
	c0.8,0.7,1.2,1.8,1.2,2.9s-0.4,2.1-1.2,2.9C426,80,425,80.4,423.8,80.4z"></path></g>
<g id="change1_18"><path fill="#FFFFFF" d="M419.7,112c0-2.3,1.9-4.2,4.2-4.2l0,0c2.3,0,4.2,1.9,4.2,4.2l0,0c0,2.3-1.8,4.2-4.2,4.2l0,0
	C421.6,116.1,419.7,114.2,419.7,112z M419.7,94.1c0-2.3,1.9-4.2,4.2-4.2l0,0c2.3,0,4.2,1.8,4.2,4.2l0,0c0,2.3-1.8,4.2-4.2,4.2l0,0
	C421.6,98.2,419.7,96.4,419.7,94.1z"></path></g>
<g id="change1_19"><path fill="#FFFFFF" d="M423.8,133.9c-1.1,0-2.1-0.4-2.9-1.2c-0.8-0.7-1.2-1.8-1.2-2.9c0-1.1,0.4-2.1,1.2-2.9c1.6-1.5,4.3-1.5,5.9,0
	c0.8,0.8,1.2,1.8,1.2,2.9c0,1.2-0.4,2.2-1.2,2.9C426,133.4,425,133.9,423.8,133.9z"></path></g>
<g id="change1_20"><path fill="#FFFFFF" d="M443.6,155.4c-1.6-1.6-1.6-4.3,0-5.9l0,0c1.6-1.7,4.3-1.7,5.9,0l0,0c1.7,1.6,1.7,4.3,0,5.9l0,0
	c-0.8,0.8-1.9,1.2-2.9,1.2l0,0C445.5,156.7,444.4,156.2,443.6,155.4z M432.3,144.1c-1.7-1.6-1.7-4.2,0-5.9l0,0
	c1.6-1.7,4.3-1.7,5.9,0l0,0c1.6,1.6,1.6,4.3,0,5.9l0,0c-0.8,0.9-1.8,1.2-2.9,1.2l0,0C434.2,145.2,433.1,144.9,432.3,144.1z"></path></g>
<g id="change1_21"><path fill="#FFFFFF" d="M458,168.1c-1.2,0-2.2-0.4-3-1.2c-0.7-0.7-1.2-1.8-1.2-2.9c0-1.1,0.4-2.2,1.2-2.9c1.5-1.6,4.3-1.6,5.9,0
	c0.8,0.7,1.2,1.8,1.2,2.9c0,1.1-0.4,2.1-1.2,2.9C460.1,167.7,459.1,168.1,458,168.1z"></path></g>
<g id="change1_22"><path fill="#FFFFFF" d="M478.5,238.6c-1.6-1.6-1.6-4.2,0-5.9l0,0c1.6-1.6,4.3-1.6,5.9,0l0,0c1.6,1.7,1.6,4.3,0,5.9l0,0
	c-0.8,0.9-1.8,1.2-2.9,1.2l0,0C480.4,239.8,479.3,239.4,478.5,238.6z M464.1,224.2c-1.7-1.7-1.7-4.3,0-5.9l0,0
	c1.6-1.7,4.2-1.7,5.9,0l0,0c1.6,1.6,1.6,4.2,0,5.9l0,0c-0.8,0.8-1.9,1.2-2.9,1.2l0,0C465.9,225.4,464.9,224.9,464.1,224.2z
	 M453.8,204.7c0-2.3,1.8-4.2,4.2-4.2l0,0c2.3,0,4.2,1.9,4.2,4.2l0,0c0,2.3-1.9,4.1-4.2,4.1l0,0C455.6,208.8,453.8,206.9,453.8,204.7
	z M453.8,184.2c0-2.3,1.8-4.2,4.2-4.2l0,0c2.3,0,4.2,1.8,4.2,4.2l0,0c0,2.3-1.9,4.2-4.2,4.2l0,0
	C455.6,188.4,453.8,186.6,453.8,184.2z"></path></g>
<g id="change1_23"><path fill="#FFFFFF" d="M495.8,254.2c-1.2,0-2.2-0.4-2.9-1.2c-0.9-0.8-1.3-1.8-1.3-2.9c0-1.1,0.5-2.2,1.2-3c1.6-1.5,4.3-1.5,5.9,0
	c0.7,0.8,1.2,1.9,1.2,3s-0.4,2.1-1.2,2.9C498,253.7,496.9,254.2,495.8,254.2z"></path></g>
<g id="change1_24"><path fill="#FFFFFF" d="M453.8,315.8c0-2.3,1.8-4.2,4.2-4.2l0,0c2.3,0,4.2,1.9,4.2,4.2l0,0c0,2.3-1.9,4.2-4.2,4.2l0,0
	C455.6,320,453.8,318,453.8,315.8z M453.8,295.5c0-2.3,1.8-4.2,4.2-4.2l0,0c2.3,0,4.2,1.8,4.2,4.2l0,0c0,2.3-1.9,4.2-4.2,4.2l0,0
	C455.6,299.5,453.8,297.7,453.8,295.5z M464.1,281.8c-1.7-1.6-1.7-4.2,0-5.9l0,0c1.6-1.6,4.2-1.6,5.9,0l0,0c1.6,1.7,1.6,4.3,0,5.9
	l0,0c-0.8,0.8-1.9,1.2-2.9,1.2l0,0C465.9,283,464.9,282.5,464.1,281.8z M478.5,267.3c-1.6-1.7-1.6-4.3,0-5.9l0,0
	c1.6-1.7,4.3-1.7,5.9,0l0,0c1.6,1.6,1.6,4.2,0,5.9l0,0c-0.8,0.8-1.8,1.2-2.9,1.2l0,0C480.4,268.5,479.3,268.2,478.5,267.3z"></path></g>
<g id="change1_25"><path fill="#FFFFFF" d="M458,340.2c-1.1,0-2.1-0.4-2.9-1.2c-0.8-0.8-1.2-1.8-1.2-2.9c0-1.1,0.4-2.2,1.2-3c1.5-1.5,4.3-1.5,5.9,0
	c0.8,0.8,1.2,1.9,1.2,3c0,1.1-0.4,2.1-1.2,2.9C460.1,339.8,459.1,340.2,458,340.2z"></path></g>
<g id="change1_26"><path fill="#FFFFFF" d="M432.3,361.8c-1.7-1.6-1.7-4.2,0-5.9l0,0c1.6-1.6,4.2-1.6,5.9,0l0,0c1.6,1.7,1.6,4.3,0,5.9l0,0
	c-0.8,0.8-1.9,1.2-2.9,1.2l0,0C434.2,363,433.1,362.7,432.3,361.8z M443.6,350.5c-1.6-1.6-1.6-4.2,0-5.9l0,0c1.6-1.6,4.3-1.6,5.9,0
	l0,0c1.7,1.6,1.7,4.3,0,5.9l0,0c-0.8,0.9-1.9,1.2-2.9,1.2l0,0C445.5,351.7,444.4,351.2,443.6,350.5z"></path></g>
<g id="change1_27"><path fill="#FFFFFF" d="M423.8,374.5c-1.1,0-2.1-0.4-2.9-1.2s-1.2-1.8-1.2-2.9c0-1.1,0.4-2.1,1.2-2.9c1.5-1.5,4.4-1.6,5.9,0
	c0.7,0.8,1.2,1.8,1.2,2.9c0,1.1-0.4,2.1-1.2,2.9C426,374,424.9,374.5,423.8,374.5z"></path></g>
<g id="change1_28"><path fill="#FFFFFF" d="M419.7,406c0-2.3,1.9-4.2,4.2-4.2l0,0c2.3,0,4.2,1.8,4.2,4.2l0,0c0,2.3-1.8,4.2-4.2,4.2l0,0
	C421.6,410.2,419.7,408.2,419.7,406z M419.7,388.2c0-2.3,1.9-4.2,4.2-4.2l0,0c2.3,0,4.2,1.8,4.2,4.2l0,0c0,2.3-1.8,4.2-4.2,4.2l0,0
	C421.6,392.2,419.7,390.5,419.7,388.2z"></path></g>
<g id="change1_29"><path fill="#FFFFFF" d="M423.8,428c-1.1,0-2.1-0.4-2.9-1.2c-0.8-0.7-1.2-1.8-1.2-2.9c0-1.1,0.4-2.1,1.2-2.9c1.5-1.5,4.3-1.5,5.9,0
	c0.8,0.8,1.2,1.8,1.2,2.9c0,1.2-0.4,2.2-1.2,3C426,427.5,425,428,423.8,428z"></path></g>
<g id="change1_30"><path fill="#FFFFFF" d="M260.1,485.7c-1.6-1.6-1.6-4.3,0-5.9l0,0c1.6-1.6,4.3-1.6,5.9,0l0,0c1.6,1.6,1.6,4.3,0,5.9l0,0
	c-0.8,0.8-1.8,1.2-2.9,1.2l0,0C262,487,260.9,486.5,260.1,485.7z M273.2,472.5c-1.6-1.6-1.6-4.2,0-5.9l0,0c1.6-1.7,4.3-1.7,5.9,0
	l0,0c1.7,1.6,1.7,4.3,0,5.9l0,0c-0.8,0.8-1.8,1.2-2.9,1.2l0,0C275.1,473.8,274,473.3,273.2,472.5z M322.7,458c0-2.3,1.8-4.2,4.2-4.2
	l0,0c2.3,0,4.2,1.9,4.2,4.2l0,0c0,2.3-1.9,4.2-4.2,4.2l0,0C324.6,462.2,322.7,460.2,322.7,458z M304.2,458c0-2.3,1.9-4.2,4.2-4.2
	l0,0c2.3,0,4.2,1.9,4.2,4.2l0,0c0,2.3-1.8,4.2-4.2,4.2l0,0C306.1,462.2,304.2,460.2,304.2,458z M285.7,458c0-2.3,1.8-4.2,4.2-4.2
	l0,0c2.3,0,4.2,1.9,4.2,4.2l0,0c0,2.3-1.9,4.2-4.2,4.2l0,0C287.5,462.2,285.7,460.2,285.7,458z M339.7,454.3c-1.7-1.6-1.7-4.3,0-5.9
	l0,0c1.6-1.6,4.2-1.6,5.9,0l0,0c1.6,1.6,1.6,4.2,0,5.9l0,0c-0.8,0.8-1.9,1.2-2.9,1.2l0,0C341.6,455.5,340.5,455.2,339.7,454.3z
	 M352.8,441.2c-1.6-1.7-1.6-4.2,0-5.9l0,0c1.6-1.7,4.2-1.7,5.9,0l0,0c1.7,1.6,1.7,4.2,0,5.9l0,0c-0.8,0.8-1.9,1.2-2.9,1.2l0,0
	C354.7,442.5,353.6,442,352.8,441.2z M365.9,428.2c-1.7-1.6-1.7-4.2,0-5.9l0,0c1.6-1.7,4.2-1.7,5.9,0l0,0c1.6,1.6,1.6,4.3,0,5.9l0,0
	c-0.8,0.8-1.9,1.2-2.9,1.2l0,0C367.8,429.3,366.7,429,365.9,428.2z M401.2,423.8c0-2.3,1.8-4.2,4.2-4.2l0,0c2.3,0,4.2,1.9,4.2,4.2
	l0,0c0,2.3-1.9,4.2-4.2,4.2l0,0C403,428,401.2,426.2,401.2,423.8z M382.6,423.8c0-2.3,1.8-4.2,4.2-4.2l0,0c2.3,0,4.2,1.9,4.2,4.2
	l0,0c0,2.3-1.8,4.2-4.2,4.2l0,0C384.5,428,382.6,426.2,382.6,423.8z"></path></g>
<g id="change1_31"><path fill="#FFFFFF" d="M250,500c-1.1,0-2.1-0.4-2.9-1.2c-0.8-0.8-1.2-1.8-1.2-2.9c0-1.1,0.5-2.1,1.2-2.9c1.6-1.6,4.3-1.5,5.9,0
	c0.8,0.8,1.2,1.8,1.2,2.9c0,1.1-0.4,2.1-1.2,2.9C252.1,499.5,251.1,500,250,500z"></path></g>
<g id="change1_32"><path fill="#FFFFFF" d="M233.9,485.7c-1.6-1.6-1.6-4.2,0-5.9l0,0c1.6-1.6,4.3-1.6,5.9,0l0,0c1.6,1.7,1.6,4.3,0,5.9l0,0
	c-0.8,0.9-1.8,1.2-2.9,1.2l0,0C235.8,487,234.7,486.5,233.9,485.7z M220.8,472.5c-1.6-1.6-1.6-4.2,0-5.9l0,0c1.6-1.7,4.3-1.7,5.9,0
	l0,0c1.6,1.6,1.6,4.3,0,5.9l0,0c-0.8,0.9-1.8,1.2-2.9,1.2l0,0C222.7,473.8,221.6,473.5,220.8,472.5z M206,458c0-2.3,1.8-4.2,4.2-4.2
	l0,0c2.3,0,4.2,1.9,4.2,4.2l0,0c0,2.3-1.9,4.2-4.2,4.2l0,0C207.8,462.2,206,460.2,206,458z M187.4,458c0-2.3,1.9-4.2,4.2-4.2l0,0
	c2.3,0,4.2,1.9,4.2,4.2l0,0c0,2.3-1.8,4.2-4.2,4.2l0,0C189.3,462.2,187.4,460.2,187.4,458z M169,458c0-2.3,1.8-4.2,4.2-4.2l0,0
	c2.3,0,4.2,1.9,4.2,4.2l0,0c0,2.3-1.9,4.2-4.2,4.2l0,0C170.8,462.2,169,460.2,169,458z M154.3,454.3c-1.6-1.6-1.6-4.3,0-5.9l0,0
	c1.6-1.6,4.3-1.6,5.9,0l0,0c1.6,1.6,1.6,4.2,0,5.9l0,0c-0.8,0.8-1.8,1.2-2.9,1.2l0,0C156.2,455.5,155.2,455.2,154.3,454.3z
	 M141.2,441.2c-1.6-1.7-1.6-4.3,0-5.9l0,0c1.7-1.7,4.3-1.7,5.9,0l0,0c1.6,1.6,1.6,4.2,0,5.9l0,0c-0.9,0.8-1.9,1.2-2.9,1.2l0,0
	C143.1,442.5,142.1,442,141.2,441.2z M128.1,428.2c-1.6-1.6-1.6-4.3,0-5.9l0,0c1.6-1.7,4.3-1.7,5.9,0l0,0c1.6,1.6,1.6,4.3,0,5.9l0,0
	c-0.9,0.8-1.9,1.2-2.9,1.2l0,0C130,429.3,129,429,128.1,428.2z M109,423.8c0-2.3,1.9-4.2,4.2-4.2l0,0c2.3,0,4.1,1.9,4.1,4.2l0,0
	c0,2.3-1.8,4.2-4.1,4.2l0,0C110.9,428,109,426.2,109,423.8z M90.5,423.8c0-2.3,1.8-4.2,4.2-4.2l0,0c2.3,0,4.2,1.9,4.2,4.2l0,0
	c0,2.3-1.9,4.2-4.2,4.2l0,0C92.3,428,90.5,426.2,90.5,423.8z"></path></g>
<g id="change1_33"><polygon fill="#FFFFFF" points="437.5,220.7 437.5,172.4 403.3,138.2 403.3,96.7 361.8,96.7 327.6,62.6 279.4,62.6 250,33.2 
	220.6,62.6 172.3,62.6 138.2,96.7 96.6,96.7 96.6,138.2 62.5,172.4 62.5,220.7 33.1,250.1 62.5,279.3 62.5,327.7 96.6,361.8 
	96.6,403.3 138.2,403.3 172.3,437.5 220.6,437.5 250,466.8 279.4,437.5 327.6,437.5 361.8,403.3 403.3,403.3 403.3,361.8 
	437.5,327.7 437.5,279.3 466.8,250.1 "></polygon></g>
<g id="change2_1"><circle fill="#3F4651" cx="374.4" cy="126.5" r="7.9"></circle></g>
<g id="change2_2"><circle fill="#3F4651" cx="124.3" cy="126.5" r="7.9"></circle></g>
<g id="change2_3"><circle fill="#3F4651" cx="374.4" cy="374.5" r="7.9"></circle></g>
<g id="change2_4"><circle fill="#3F4651" cx="124.3" cy="374.5" r="7.9"></circle></g>
</svg>