<?xml version="1.0" encoding="utf-8"?><!DOCTYPE svg PUBLIC "-//W3C//DTD SVG 1.1//EN" "http://www.w3.org/Graphics/SVG/1.1/DTD/svg11.dtd">
<svg version="1.1" id="Layer_1" xmlns="http://www.w3.org/2000/svg" xmlns:xlink="http://www.w3.org/1999/xlink" x="0px" y="0px" viewBox="0 0 500 500" enable-background="new 0 0 500 500" xml:space="preserve">
<g>
	<g id="change1_1"><circle fill="#FFFFFF" cx="250" cy="250" r="236.3"></circle></g>
</g>
<g id="change2_1"><path fill="#3F4651" d="M439.7,319c2.1-5.6,8.5-8.8,14.2-7.1c6,1.8,8.9,8.3,6.6,14.7L439.7,319z M452,250c-0.3,6,4.4,11.2,10.5,11.6
	s11.3-4.8,11.6-11.6H452z M468.1,280.4c-3.1-4.5-6.1-8.6-6.1-8.6s-4.2,3.5-8.4,6.6c-4.2,3.2-8.4,6.1-8.4,6.1s0.8,1.1,1.9,2.6
	c1.1,1.6,2.8,3.8,4,6c2.7,4.4,5.3,9,5.3,9s4.5-2.8,9.1-5.9c2.4-1.5,4.3-3.2,6-4.5c1.6-1.3,2.7-2.1,2.7-2.1S471.2,284.8,468.1,280.4z
	 M421.7,394c4.4-5.2,3.5-12.7-1.4-16.3c-5-3.7-11.7-2.6-15.5,2L421.7,394z M460.4,326.6c-2.4,6.4-8.7,9.6-14.5,7.1
	c-5.5-2.4-8.4-9-6.3-14.6L460.4,326.6z M447.2,363.8c0,0-5.3,1.7-10.5,3.1c-2.6,0.7-5.1,1.4-7.1,1.9c-1.9,0.5-3.2,0.8-3.2,0.8
	s-0.2-1.3-0.6-3.3s-1-4.6-1.6-7.2c-1.2-5.1-2.5-10-2.5-10s1.3-0.3,3.2-0.8c1.9-0.5,4.5-1.1,6.9-2c4.9-1.6,9.9-3.5,9.9-3.5
	s1.6,5.1,3.2,10.4c0.8,2.7,1.3,5.3,1.7,7.3C446.9,362.5,447.2,363.8,447.2,363.8z M350.9,424.8c5.1-3.1,12-1.5,15.4,3.6
	s1.5,12.1-4.4,15.6L350.9,424.8z M404.7,379.8c-4,4.4-3.7,11.5,0.7,15.7c4.4,4.2,11.7,3.6,16.2-1.4L404.7,379.8z M397.6,413.4
	c0.5-5.4,0.8-10.6,0.8-10.6s-5.4,0-10.6-0.3c-5.2-0.2-10.2-0.6-10.2-0.6s0,1.3-0.2,3.2c-0.2,1.9-0.6,4.4-0.9,7
	c-0.7,5.1-1.6,10.4-1.6,10.4s5.2,0.7,10.7,1.2c2.8,0.2,5.5,0.5,7.6,0.6s3.4,0.1,3.4,0.1S397.1,418.9,397.6,413.4z M288.9,470.5
	c6.7-0.8,10.9-7.3,9.4-13.2c-1.5-6-7.3-9.3-13.2-8.6L288.9,470.5z M350.9,424.8c-5,3.3-7.4,9.5-4.6,15.1c2.7,5.4,10,7.8,15.7,4.1
	L350.9,424.8z M332.8,454.2c1.2-2.4,2.3-4.8,3-6.7c0.8-1.9,1.3-3.2,1.3-3.2s-1.2-0.4-3.1-1.1c-1.8-0.6-4.3-1.6-6.7-2.7
	c-4.9-2.1-9.5-4.4-9.5-4.4s-2.1,4.7-4.5,9.5c-1.2,2.5-2.4,4.7-3.4,6.3c-1,1.7-1.7,2.8-1.7,2.8s1.2,0.6,3,1.6s4.3,2.3,6.7,3.3
	c4.9,2.1,10,4.2,10,4.2S330.5,459,332.8,454.2z M215,448.7c5.9,0.9,10.2,6.6,9.5,12.6c-0.7,6.1-6.6,10.2-13.4,9.2L215,448.7z
	 M285.1,448.7c-5.9,0.9-10.2,6.6-9.5,12.6c0.7,6.1,6.6,10.2,13.4,9.2L285.1,448.7z M258,470c3.9-3.9,7.4-7.7,7.4-7.7s-4.1-3.5-7.9-7
	c-3.9-3.5-7.4-7-7.4-7s-3.6,3.5-7.4,7c-3.8,3.5-8,7-8,7s3.6,3.9,7.4,7.7c3.8,3.9,8,7.7,8,7.7S254.2,473.9,258,470z M138.1,443.9
	c5.7,3.7,13,1.3,15.7-4.1c2.8-5.6,0.4-11.8-4.6-15.1L138.1,443.9z M215,448.7c-6-0.7-11.8,2.6-13.2,8.6c-1.4,5.9,2.7,12.4,9.4,13.2
	L215,448.7z M182.2,459.7c2.4-1,4.9-2.3,6.7-3.3s3-1.6,3-1.6s-0.7-1.1-1.7-2.8c-1-1.7-2.3-3.9-3.4-6.3c-2.4-4.8-4.5-9.5-4.5-9.5
	s-4.6,2.2-9.5,4.4c-2.5,1.1-4.9,2.1-6.7,2.7c-1.9,0.6-3.1,1.1-3.1,1.1s0.5,1.3,1.3,3.2c0.7,2,1.8,4.4,3,6.7c2.3,4.8,5,9.7,5,9.7
	S177.3,461.8,182.2,459.7z M78.4,394c4.5,5,11.8,5.7,16.3,1.5c4.4-4.2,4.7-11.2,0.7-15.7L78.4,394z M149.1,424.8
	c-5.1-3.1-12-1.5-15.4,3.6s-1.5,12.1,4.3,15.6L149.1,424.8z M107.1,424.3c2.1-0.2,4.8-0.4,7.6-0.6c5.5-0.5,10.7-1.2,10.7-1.2
	s-0.9-5.3-1.6-10.4c-0.3-2.5-0.6-5.1-0.9-7c-0.2-1.9-0.2-3.2-0.2-3.2s-5,0.4-10.2,0.6s-10.6,0.3-10.6,0.3s0.3,5.2,0.8,10.6
	s1.2,11,1.2,11S105,424.5,107.1,424.3z M60.4,319c2.1,5.6-0.9,12.2-6.3,14.6c-5.7,2.5-12.1-0.7-14.5-7.1L60.4,319z M95.4,379.8
	c-3.8-4.6-10.6-5.7-15.5-2c-4.9,3.6-5.7,11.1-1.4,16.3L95.4,379.8z M63.4,367c2.6,0.7,5.1,1.4,7.1,1.9c1.9,0.5,3.2,0.8,3.2,0.8
	s0.2-1.3,0.6-3.3s1-4.6,1.6-7.2c1.2-5.1,2.5-10,2.5-10s-1.3-0.3-3.2-0.8c-1.9-0.5-4.5-1.1-6.9-2c-4.9-1.6-9.9-3.5-9.9-3.5
	s-1.6,5.1-3.2,10.4c-0.8,2.7-1.3,5.3-1.7,7.3s-0.7,3.3-0.7,3.3S58.2,365.5,63.4,367z M25.9,250c0.3,6.8,5.5,11.9,11.6,11.6
	c6.1-0.4,10.8-5.6,10.5-11.6H25.9z M60.4,319c-2.1-5.6-8.5-8.8-14.2-7.1c-6,1.8-8.9,8.3-6.6,14.7L60.4,319z M28.5,291.6
	c1.6,1.2,3.6,2.9,6,4.4c4.6,3.1,9.1,5.9,9.1,5.9s2.6-4.6,5.3-9c1.3-2.2,2.9-4.4,4-5.9c1.2-1.6,1.9-2.6,1.9-2.6s-4.2-2.9-8.4-6.1
	s-8.4-6.6-8.4-6.6s-3.1,4.2-6.1,8.6c-3.1,4.4-6,9.1-6,9.1S27,290.4,28.5,291.6z M60.4,181c-2.1,5.6-8.5,8.8-14.2,7.1
	c-6-1.8-8.9-8.3-6.6-14.7L60.4,181z M48.1,250c0.3-6-4.4-11.2-10.5-11.6C31.5,238,26.3,243.2,26,250H48.1z M31.9,219.7
	c3.1,4.5,6.1,8.6,6.1,8.6s4.2-3.5,8.4-6.6c4.2-3.2,8.4-6.1,8.4-6.1s-0.8-1.1-1.9-2.6c-1.1-1.6-2.8-3.8-4-6c-2.7-4.4-5.3-9-5.3-9
	s-4.5,2.8-9.1,5.9c-2.4,1.5-4.3,3.2-6,4.5c-1.6,1.3-2.7,2.1-2.7,2.1S28.9,215.2,31.9,219.7z M78.4,106c-4.4,5.2-3.5,12.7,1.4,16.3
	c5,3.7,11.7,2.6,15.5-2L78.4,106z M60.4,181c2.1-5.6-0.9-12.2-6.3-14.6c-5.7-2.5-12.1,0.7-14.5,7.1L60.4,181z M53.6,139.5
	c0.4,2,0.9,4.6,1.7,7.3c1.5,5.3,3.2,10.4,3.2,10.4s5-1.9,9.9-3.5c2.4-0.8,5-1.5,6.9-2s3.2-0.8,3.2-0.8s-1.3-4.9-2.5-10
	c-0.6-2.6-1.1-5.2-1.6-7.2c-0.4-2-0.6-3.3-0.6-3.3s-1.3,0.3-3.2,0.8c-1.9,0.5-4.5,1.2-7.1,1.9c-5.2,1.4-10.5,3.1-10.5,3.1
	S53.2,137.5,53.6,139.5z M149.1,75.2c-5.1,3.1-12,1.5-15.4-3.6s-1.5-12.1,4.4-15.6L149.1,75.2z M95.4,120.2c4-4.4,3.7-11.5-0.7-15.7
	c-4.4-4.2-11.7-3.6-16.2,1.4L95.4,120.2z M102.5,86.6c-0.5,5.4-0.8,10.6-0.8,10.6s5.4,0,10.6,0.3c5.2,0.2,10.2,0.6,10.2,0.6
	s0-1.3,0.2-3.2c0.2-1.9,0.6-4.4,0.9-7c0.7-5.1,1.6-10.4,1.6-10.4s-5.2-0.7-10.7-1.2c-2.8-0.2-5.5-0.5-7.6-0.6s-3.4-0.1-3.4-0.1
	S103,81.2,102.5,86.6z M211.2,29.5c-6.7,0.8-10.9,7.3-9.4,13.2c1.5,6,7.3,9.3,13.2,8.6L211.2,29.5z M138.1,56.1
	c5.7-3.7,13-1.3,15.7,4.1c2.8,5.6,0.4,11.8-4.6,15.1L138.1,56.1z M172.2,36.2c0,0,5.1,2,10,4.2c2.4,1,4.9,2.3,6.7,3.3s3,1.6,3,1.6
	s-0.7,1.1-1.7,2.8s-2.3,3.9-3.4,6.3c-2.4,4.8-4.5,9.5-4.5,9.5s-4.6-2.2-9.5-4.4c-2.5-1.1-4.9-2.1-6.7-2.7c-1.9-0.6-3.1-1.1-3.1-1.1
	s0.5-1.3,1.3-3.2c0.7-2,1.8-4.4,3-6.7C169.6,41,172.2,36.2,172.2,36.2z M285.1,51.3c-5.9-0.9-10.2-6.6-9.5-12.6
	c0.7-6.1,6.6-10.2,13.4-9.2L285.1,51.3z M211.2,29.5c6.7-1,12.7,3.1,13.4,9.2s-3.6,11.7-9.5,12.6L211.2,29.5z M250,22.2
	c0,0,4.1,3.9,8,7.7c3.9,3.9,7.4,7.7,7.4,7.7s-4.1,3.5-8,7s-7.4,7-7.4,7s-3.6-3.5-7.4-7c-3.8-3.5-7.9-7-7.9-7s3.6-3.9,7.4-7.7
	S250,22.2,250,22.2z M362,56.1c-5.7-3.7-13-1.3-15.7,4.1c-2.8,5.6-0.4,11.8,4.6,15.1L362,56.1z M288.9,29.5
	c6.7,0.8,10.8,7.3,9.4,13.2c-1.5,6-7.3,9.3-13.2,8.6L288.9,29.5z M327.9,36.2c0,0,2.6,4.9,5,9.7c1.2,2.4,2.3,4.8,3,6.7
	c0.8,1.9,1.3,3.2,1.3,3.2s-1.2,0.4-3.1,1.1c-1.8,0.6-4.3,1.6-6.7,2.7c-4.9,2.1-9.5,4.4-9.5,4.4s-2.1-4.7-4.5-9.5
	c-1.2-2.5-2.4-4.7-3.4-6.3c-1-1.7-1.7-2.8-1.7-2.8s1.2-0.6,3-1.6s4.3-2.3,6.7-3.3C322.7,38.2,327.9,36.2,327.9,36.2z M404.7,120.2
	c-4-4.4-3.7-11.5,0.7-15.7c4.4-4.2,11.7-3.6,16.3,1.5L404.7,120.2z M350.9,75.2c5.1,3.1,12,1.5,15.4-3.6s1.5-12.1-4.3-15.6
	L350.9,75.2z M393,75.7c-2.1,0.2-4.8,0.4-7.6,0.6c-5.5,0.5-10.7,1.2-10.7,1.2s0.9,5.3,1.6,10.4c0.3,2.5,0.6,5.1,0.9,7
	c0.2,1.9,0.2,3.2,0.2,3.2s5-0.4,10.2-0.6s10.6-0.3,10.6-0.3s-0.3-5.2-0.8-10.6s-1.2-11-1.2-11S395.1,75.6,393,75.7z M460.4,173.4
	c-2.4-6.4-8.7-9.6-14.5-7.1c-5.5,2.4-8.4,9-6.3,14.6L460.4,173.4z M421.7,106c4.3,5.2,3.5,12.7-1.4,16.3c-5,3.7-11.7,2.6-15.5-2
	L421.7,106z M447.2,136.2c0,0-0.3,1.3-0.7,3.3c-0.4,2-0.9,4.6-1.7,7.3c-1.5,5.3-3.2,10.4-3.2,10.4s-5-1.9-9.9-3.5
	c-2.4-0.8-5-1.5-6.9-2s-3.2-0.8-3.2-0.8s1.3-4.9,2.5-10c0.6-2.6,1.1-5.2,1.6-7.2c0.4-2,0.6-3.3,0.6-3.3s1.3,0.3,3.2,0.8
	c1.9,0.5,4.5,1.2,7.1,1.9C441.8,134.5,447.2,136.2,447.2,136.2z M452,250c-0.3-6,4.4-11.2,10.5-11.6c6.1-0.4,11.3,4.8,11.6,11.6H452
	z M460.4,173.4c2.3,6.4-0.5,12.9-6.6,14.7c-5.7,1.7-12.2-1.5-14.2-7.1L460.4,173.4z M474.2,210.5c0,0-3,4.7-6,9.1
	c-3.1,4.5-6.1,8.6-6.1,8.6s-4.2-3.5-8.4-6.6c-4.2-3.2-8.4-6.1-8.4-6.1s0.8-1.1,1.9-2.6c1.1-1.6,2.8-3.8,4-5.9c2.7-4.4,5.3-9,5.3-9
	s4.5,2.8,9.1,5.9c2.4,1.5,4.3,3.2,6,4.4C473.1,209.7,474.2,210.5,474.2,210.5z"></path></g>
<g>
	<g id="change1_2"><path fill="#FFFFFF" d="M260.3,497.6c-0.1-1.3,1-2.5,2.4-2.6l0,0c1.4-0.1,2.5,1,2.7,2.4l0,0c0.1,1.3-1,2.5-2.4,2.6l0,0
		c-0.1,0-0.1,0-0.1,0l0,0C261.4,500,260.4,498.9,260.3,497.6z M236.8,500L236.8,500L236.8,500c-1.4-0.1-2.5-1.3-2.4-2.7l0,0
		c0.1-1.4,1.3-2.5,2.6-2.3l0,0c1.4,0.1,2.5,1.2,2.4,2.6l0,0C239.3,498.9,238.2,500,236.8,500L236.8,500L236.8,500z M286,495.2
		c-0.2-1.4,0.7-2.7,2.1-2.9l0,0c1.3-0.2,2.6,0.7,2.9,2.1l0,0c0.2,1.4-0.7,2.7-2.1,2.9l0,0c-0.1,0-0.3,0-0.3,0l0,0
		C287.3,497.3,286.2,496.4,286,495.2z M210.7,497.2L210.7,497.2L210.7,497.2c-1.3-0.3-2.3-1.5-2.1-2.9l0,0c0.2-1.4,1.5-2.4,2.9-2.1
		l0,0c1.3,0.3,2.3,1.5,2.1,2.9l0,0c-0.2,1.3-1.3,2.1-2.5,2.1l0,0C210.9,497.2,210.8,497.2,210.7,497.2z M311.5,490.1
		c-0.4-1.3,0.4-2.8,1.7-3.1l0,0c1.3-0.4,2.8,0.4,3.1,1.7l0,0c0.3,1.3-0.4,2.8-1.8,3.2l0,0c0,0,0,0,0-0.1l0,0
		c-0.2,0.1-0.4,0.1-0.6,0.1l0,0C312.8,492,311.8,491.2,311.5,490.1z M185,491.8c-1.3-0.4-2.1-1.7-1.7-3.1l0,0
		c0.3-1.3,1.7-2.1,3.1-1.8l0,0c1.3,0.3,2.1,1.7,1.7,3.1l0,0c-0.3,1.1-1.3,1.9-2.4,1.9l0,0C185.5,491.9,185.3,491.8,185,491.8z
		 M336.2,482.4c-0.5-1.3,0.2-2.8,1.5-3.3l0,0c1.3-0.5,2.8,0.1,3.2,1.5l0,0c0.5,1.3-0.1,2.8-1.4,3.2l0,0c-0.3,0.1-0.6,0.2-0.9,0.2
		l0,0C337.6,484,336.6,483.4,336.2,482.4z M160.2,483.7c-1.3-0.5-1.9-1.9-1.5-3.3l0,0c0.5-1.3,1.9-1.9,3.3-1.4l0,0
		c1.3,0.5,1.9,1.9,1.4,3.2l0,0c-0.4,1-1.3,1.6-2.3,1.6l0,0C160.8,483.8,160.4,483.8,160.2,483.7z M360,472.1
		c-0.6-1.2-0.1-2.8,1.1-3.4l0,0c1.2-0.7,2.8-0.2,3.4,1.1l0,0c0.6,1.2,0.1,2.8-1.1,3.4l0,0c0,0,0,0,0.1,0l0,0
		c-0.4,0.2-0.8,0.3-1.1,0.3l0,0C361.4,473.5,360.5,473,360,472.1z M136.2,473L136.2,473L136.2,473c-1.2-0.7-1.7-2.1-1.1-3.4l0,0
		c0.6-1.2,2.1-1.7,3.4-1.1l0,0c1.3,0.6,1.7,2.1,1.1,3.4l0,0c-0.5,0.9-1.3,1.4-2.3,1.4l0,0C137,473.3,136.6,473.2,136.2,473z
		 M382.6,459.4c-0.8-1.1-0.4-2.7,0.7-3.5l0,0c1.1-0.7,2.7-0.4,3.5,0.8l0,0c0.7,1.1,0.4,2.7-0.7,3.4l0,0c-0.5,0.3-0.9,0.4-1.4,0.4
		l0,0C383.9,460.5,383.1,460.1,382.6,459.4z M113.5,459.9c-1.1-0.7-1.5-2.4-0.7-3.5l0,0c0.7-1.1,2.4-1.5,3.5-0.7l0,0
		c1.1,0.7,1.5,2.4,0.7,3.5l0,0c-0.5,0.7-1.3,1.1-2.1,1.1l0,0C114.5,460.3,113.9,460.2,113.5,459.9z M403.8,444.4
		c-0.9-1.1-0.7-2.7,0.4-3.6l0,0c1.1-0.9,2.6-0.7,3.5,0.3l0,0c0.9,1.1,0.7,2.7-0.3,3.5l0,0l0,0l0,0c-0.5,0.4-1.1,0.5-1.6,0.5l0,0
		C405,445.3,404.2,445,403.8,444.4z M92.4,444.5c-1.1-0.9-1.3-2.5-0.4-3.5l0,0c0.9-1.1,2.5-1.2,3.6-0.3l0,0c1.1,0.9,1.2,2.4,0.3,3.6
		l0,0c-0.5,0.6-1.2,0.9-1.9,0.9l0,0C93.4,445,92.8,444.9,92.4,444.5z M423.2,427.2c-0.9-0.9-0.9-2.5,0-3.6l0,0c1-1,2.6-1,3.6,0l0,0
		c1,1,1,2.6,0,3.6l0,0c-0.5,0.5-1.1,0.7-1.7,0.7l0,0C424.3,428,423.7,427.8,423.2,427.2z M73,426.9c-1-0.9-1-2.5,0-3.5l0,0
		c0.9-0.9,2.5-0.9,3.6,0l0,0c0.9,1,0.9,2.6,0,3.5l0,0c-0.5,0.5-1.1,0.7-1.8,0.7l0,0C74.1,427.6,73.4,427.4,73,426.9z M440.8,408.2
		c-1.1-0.9-1.2-2.5-0.3-3.5l0,0c0.9-1.1,2.5-1.2,3.5-0.3l0,0c1.1,0.9,1.2,2.5,0.3,3.5l0,0l0,0l0,0c-0.5,0.6-1.2,0.9-1.9,0.9l0,0
		C441.8,408.7,441.2,408.6,440.8,408.2z M55.5,407.4L55.5,407.4L55.5,407.4c-0.9-1.1-0.7-2.7,0.3-3.6l0,0c1.1-0.8,2.7-0.7,3.6,0.4
		l0,0c0.9,1.1,0.7,2.7-0.4,3.5l0,0c-0.5,0.3-1,0.5-1.5,0.5l0,0C56.7,408.4,55.9,408,55.5,407.4z M456.3,387.4
		c-1.1-0.7-1.5-2.3-0.7-3.5l0,0c0.7-1.1,2.3-1.5,3.4-0.7l0,0c1.2,0.8,1.5,2.3,0.7,3.5l0,0c-0.5,0.7-1.3,1.1-2.1,1.1l0,0
		C457.2,387.8,456.7,387.7,456.3,387.4z M40,386.2c-0.7-1.1-0.4-2.7,0.7-3.5l0,0c1.1-0.7,2.7-0.4,3.5,0.8l0,0
		c0.7,1.1,0.4,2.7-0.7,3.4l0,0c-0.4,0.3-0.9,0.4-1.4,0.4l0,0C41.3,387.4,40.5,387,40,386.2z M469.5,365.1c-1.2-0.7-1.7-2.1-1.1-3.4
		l0,0c0.6-1.2,2.1-1.7,3.4-1.1l0,0c1.3,0.6,1.7,2.1,1.1,3.4l0,0c0,0,0,0,0.1,0l0,0c-0.5,0.8-1.3,1.3-2.3,1.3l0,0
		C470.3,365.4,469.9,365.3,469.5,365.1z M27,363.6c-0.7-1.2-0.2-2.8,1.1-3.4l0,0c1.2-0.7,2.8-0.1,3.4,1.1l0,0
		c0.7,1.3,0.1,2.8-1.1,3.4l0,0c-0.4,0.2-0.7,0.3-1.1,0.3l0,0C28.2,365,27.4,364.5,27,363.6z M480.3,341.5c-1.3-0.5-1.9-1.9-1.4-3.2
		l0,0c0.5-1.3,1.9-1.9,3.2-1.5l0,0c1.3,0.5,1.9,1.9,1.5,3.3l0,0l0,0l0,0c-0.4,1-1.3,1.6-2.3,1.6l0,0
		C481,341.7,480.7,341.6,480.3,341.5z M16.3,339.7L16.3,339.7L16.3,339.7c-0.5-1.3,0.1-2.7,1.4-3.3l0,0c1.3-0.5,2.8,0.2,3.3,1.5l0,0
		c0.5,1.3-0.2,2.8-1.5,3.2l0,0c-0.3,0.1-0.6,0.2-0.9,0.2l0,0C17.6,341.3,16.6,340.7,16.3,339.7z M488.7,317
		c-1.3-0.3-2.1-1.7-1.7-3.1l0,0c0.3-1.3,1.7-2.1,3.1-1.7l0,0c1.3,0.3,2.1,1.7,1.7,3.1l0,0c-0.3,1.1-1.3,1.8-2.4,1.8l0,0
		C489.1,317,488.9,317,488.7,317z M8.2,314.8c-0.4-1.4,0.4-2.7,1.7-3.1l0,0c1.3-0.4,2.8,0.4,3.1,1.7l0,0c0.4,1.3-0.4,2.7-1.7,3.1
		l0,0c-0.2,0.1-0.5,0.1-0.7,0.1l0,0C9.5,316.6,8.5,315.9,8.2,314.8z M494.4,291.7c-1.4-0.3-2.4-1.5-2.1-2.9l0,0
		c0.2-1.4,1.5-2.3,2.8-2.1l0,0c1.4,0.2,2.4,1.5,2.1,2.9l0,0c-0.2,1.2-1.3,2.1-2.5,2.1l0,0C494.6,291.7,494.5,291.7,494.4,291.7z
		 M2.8,289.2L2.8,289.2L2.8,289.2c-0.2-1.4,0.7-2.7,2.1-2.9l0,0c1.4-0.3,2.7,0.7,2.9,2.1l0,0c0.2,1.3-0.7,2.6-2.1,2.9l0,0
		c-0.1,0-0.3,0-0.4,0l0,0C4,291.3,3,290.4,2.8,289.2z M497.3,265.9c-1.4-0.1-2.4-1.3-2.3-2.7v0.1c0-0.2,0-0.3,0.1-0.5l0,0
		c0-0.1-0.1-0.3,0-0.5l0,0c0-1.4,1.2-2.5,2.6-2.4l0,0c1.3,0.1,2.4,1.2,2.4,2.6l0,0c0,0.2,0,0.3-0.1,0.5l0,0c0.1,0.2,0.1,0.3,0.1,0.5
		l0,0c0,0,0,0,0,0.1l0,0c-0.1,1.3-1.2,2.3-2.5,2.3l0,0C497.4,265.9,497.4,265.9,497.3,265.9z M0,263.1c-0.1-1.4,1-2.5,2.4-2.6l0,0
		c1.4-0.1,2.5,0.9,2.6,2.3l0,0c0.1,1.4-1,2.6-2.4,2.7l0,0c-0.1,0-0.1,0-0.1,0l0,0C1.2,265.5,0.1,264.5,0,263.1z M2.4,239.6
		C1,239.5,0,238.3,0.1,237l0,0c0.1-1.4,1.3-2.5,2.6-2.4l0,0c1.4,0.1,2.5,1.3,2.4,2.7l0,0c-0.1,1.3-1.2,2.3-2.5,2.3l0,0
		C2.5,239.6,2.5,239.6,2.4,239.6z M495,236.7L495,236.7c-0.1-1.4,1-2.6,2.4-2.7l0,0c1.3-0.1,2.5,1,2.6,2.4l0,0
		c0.1,1.4-1,2.5-2.4,2.6l0,0h-0.1l0,0C496.1,239,495,238,495,236.7z M4.9,213.8c-1.4-0.2-2.3-1.5-2.1-2.9l0,0c0,0,0,0,0,0.1l0,0
		c0.3-1.4,1.5-2.4,2.9-2.1l0,0c1.4,0.2,2.3,1.5,2.1,2.9l0,0c-0.2,1.3-1.3,2.1-2.5,2.1l0,0C5.1,213.8,5,213.8,4.9,213.8z
		 M492.3,211.1L492.3,211.1c-0.3-1.3,0.7-2.6,2.1-2.9l0,0c1.3-0.2,2.6,0.7,2.9,2.1l0,0c0,0,0,0,0-0.1l0,0c0.2,1.4-0.7,2.7-2.1,2.9
		l0,0c-0.1,0.1-0.3,0.1-0.4,0.1l0,0C493.6,213.3,492.5,212.4,492.3,211.1z M10,188.3c-1.4-0.3-2.1-1.7-1.8-3.1l0,0
		c0.3-1.3,1.7-2.1,3.1-1.7l0,0c1.3,0.3,2.1,1.7,1.7,3.1l0,0c-0.3,1.1-1.3,1.9-2.4,1.9l0,0C10.4,188.5,10.2,188.4,10,188.3z
		 M486.9,186.1c-0.4-1.3,0.4-2.7,1.7-3.1l0,0c1.3-0.3,2.8,0.5,3.1,1.8l0,0l0,0l0,0c0.3,1.3-0.4,2.7-1.7,3.1l0,0
		c-0.3,0.1-0.5,0.1-0.7,0.1l0,0C488.2,187.9,487.2,187.2,486.9,186.1z M17.7,163.6c-1.3-0.5-1.9-1.9-1.5-3.2l0,0
		c0.5-1.3,1.9-1.9,3.3-1.5l0,0c1.3,0.5,1.9,1.9,1.4,3.3l0,0c-0.3,0.9-1.3,1.6-2.4,1.6l0,0C18.3,163.8,18,163.7,17.7,163.6z
		 M478.9,161.7c-0.5-1.3,0.1-2.7,1.4-3.3l0,0c1.3-0.5,2.7,0.1,3.3,1.4l0,0c0,0,0,0,0,0.1l0,0c0.5,1.3-0.2,2.7-1.5,3.2l0,0
		c-0.3,0.1-0.6,0.2-0.9,0.2l0,0C480.3,163.3,479.3,162.6,478.9,161.7z M28,139.8c-1.3-0.6-1.7-2.1-1.1-3.4l0,0l0,0l0,0
		c0.7-1.2,2.1-1.7,3.4-1.1l0,0c1.2,0.6,1.7,2.1,1.1,3.4l0,0c-0.5,0.9-1.3,1.4-2.3,1.4l0,0C28.8,140.1,28.4,140,28,139.8z
		 M468.4,138.2c-0.6-1.2-0.1-2.7,1.1-3.4l0,0c1.2-0.6,2.7-0.1,3.4,1.1l0,0c0.6,1.3,0.1,2.8-1.1,3.4l0,0c-0.4,0.2-0.8,0.3-1.1,0.3
		l0,0C469.8,139.6,468.9,139.1,468.4,138.2z M40.8,117.2c-1.2-0.8-1.5-2.3-0.7-3.5l0,0c0.7-1.2,2.3-1.5,3.5-0.7l0,0
		c1.1,0.7,1.5,2.3,0.7,3.5l0,0c-0.5,0.7-1.3,1.1-2.1,1.1l0,0C41.7,117.6,41.2,117.5,40.8,117.2z M455.5,116.1
		c-0.7-1.2-0.4-2.8,0.7-3.5l0,0c1.1-0.7,2.8-0.5,3.5,0.7l0,0l0,0l0,0c0.7,1.1,0.4,2.7-0.7,3.5l0,0c-0.4,0.3-0.9,0.4-1.3,0.4l0,0
		C456.8,117.2,456,116.8,455.5,116.1z M55.8,96.1c-1.1-0.9-1.3-2.5-0.4-3.6l0,0l0,0l0,0c0.9-1.1,2.5-1.3,3.6-0.3l0,0
		c1.1,0.8,1.2,2.4,0.4,3.5l0,0c-0.5,0.6-1.3,0.9-2,0.9l0,0C56.8,96.6,56.3,96.4,55.8,96.1z M440.4,95.4c-0.9-1.1-0.7-2.7,0.3-3.6
		l0,0c1.1-0.9,2.7-0.7,3.6,0.4l0,0c0.9,1,0.7,2.6-0.4,3.5l0,0c-0.5,0.4-1,0.5-1.5,0.5l0,0C441.6,96.2,440.9,96,440.4,95.4z M73,76.7
		c-1-1-1-2.5,0-3.6l0,0c0.9-1,2.5-1,3.5,0l0,0c1,0.9,1,2.6,0.1,3.6l0,0c-0.5,0.5-1.1,0.7-1.8,0.7l0,0C74,77.4,73.4,77.1,73,76.7z
		 M423.2,76.3c-1-1-1-2.6,0-3.6l0,0c1-1,2.5-1,3.6,0l0,0c1,0.9,1,2.5,0,3.6l0,0c-0.5,0.5-1.1,0.7-1.8,0.7l0,0
		C424.3,77.1,423.7,76.8,423.2,76.3z M92,59.1c-0.9-1.1-0.7-2.7,0.4-3.5l0,0l0,0l0,0c1.1-0.9,2.6-0.7,3.5,0.4l0,0
		c0.9,1.1,0.7,2.6-0.3,3.6l0,0C95.1,59.8,94.5,60,94,60l0,0C93.2,60,92.5,59.7,92,59.1z M404.2,59.2L404.2,59.2
		c-1.1-0.9-1.3-2.5-0.4-3.6l0,0c0.9-1.1,2.5-1.3,3.6-0.3l0,0l0,0l0,0c1.1,0.9,1.2,2.4,0.3,3.5l0,0c-0.5,0.6-1.2,0.9-1.9,0.9l0,0
		C405.2,59.7,404.6,59.5,404.2,59.2z M112.8,43.6c-0.7-1.1-0.4-2.7,0.7-3.4l0,0c0,0,0,0,0-0.1l0,0c1.1-0.7,2.8-0.4,3.5,0.7l0,0
		c0.7,1.2,0.4,2.8-0.7,3.5l0,0c-0.4,0.3-0.9,0.4-1.3,0.4l0,0C114.1,44.7,113.3,44.3,112.8,43.6z M383.4,44.1L383.4,44.1
		c-1.1-0.7-1.5-2.4-0.7-3.5l0,0c0.7-1.1,2.3-1.5,3.5-0.7l0,0c1.1,0.7,1.5,2.3,0.7,3.5l0,0c-0.5,0.7-1.3,1.1-2.1,1.1l0,0
		C384.2,44.5,383.8,44.3,383.4,44.1z M135.1,30.4c-0.7-1.2-0.2-2.8,1.1-3.4l0,0c1.2-0.7,2.8-0.1,3.4,1.1l0,0
		c0.7,1.2,0.1,2.8-1.1,3.4l0,0c-0.3,0.2-0.7,0.3-1.1,0.3l0,0C136.4,31.8,135.5,31.3,135.1,30.4z M361.1,31.3
		c-1.2-0.7-1.7-2.1-1.1-3.4l0,0c0.6-1.3,2.1-1.7,3.4-1.1l0,0c1.3,0.6,1.7,2.1,1.1,3.4l0,0c-0.5,0.9-1.3,1.4-2.3,1.4l0,0
		C361.8,31.5,361.5,31.5,361.1,31.3z M158.7,19.6c-0.5-1.3,0.1-2.8,1.4-3.3l0,0c1.3-0.5,2.7,0.2,3.3,1.5l0,0
		c0.5,1.3-0.2,2.8-1.5,3.2h0.1c-0.3,0.1-0.7,0.2-0.9,0.2l0,0C160,21.2,159.1,20.6,158.7,19.6z M337.7,20.9c-1.3-0.5-1.9-1.9-1.5-3.3
		l0,0c0.5-1.3,1.9-1.9,3.2-1.5l0,0c0,0,0,0,0,0.1l0,0c1.3,0.5,1.9,1.9,1.5,3.2l0,0c-0.4,1-1.3,1.6-2.4,1.6l0,0
		C338.2,21,338,20.9,337.7,20.9z M183.2,11.3c-0.3-1.3,0.4-2.7,1.7-3.1l0,0c1.4-0.3,2.7,0.5,3.1,1.8l0,0c0.4,1.3-0.4,2.7-1.7,3.1
		l0,0c-0.2,0.1-0.4,0.1-0.7,0.1l0,0C184.6,13.1,183.5,12.4,183.2,11.3z M313.2,12.9L313.2,12.9c-1.3-0.3-2.1-1.7-1.7-3.1l0,0
		c0.3-1.3,1.7-2.1,3.1-1.7l0,0c1.3,0.3,2.1,1.7,1.7,3l0,0c-0.3,1.1-1.3,1.9-2.4,1.9l0,0C313.7,13,313.5,13,313.2,12.9z M208.5,5.6
		c-0.2-1.3,0.7-2.7,2.1-2.9l0,0c1.4-0.2,2.7,0.7,2.9,2.1l0,0c0.3,1.3-0.7,2.7-2.1,2.9l0,0c-0.1,0-0.3,0-0.4,0l0,0
		C209.8,7.7,208.7,6.8,208.5,5.6z M288.1,7.6c-1.4-0.2-2.4-1.5-2.1-2.8l0,0c0.2-1.4,1.5-2.3,2.8-2.1l0,0c1.4,0.3,2.4,1.5,2.1,2.9
		l0,0c-0.2,1.3-1.3,2.1-2.5,2.1l0,0C288.4,7.7,288.3,7.7,288.1,7.6z M262.6,5L262.6,5c-1.4-0.1-2.4-1.3-2.3-2.6l0,0
		c0.1-1.4,1.3-2.5,2.6-2.4l0,0l0,0l0,0c1.4,0.1,2.5,1.3,2.4,2.7l0,0C265.2,4,264.1,5,262.7,5l0,0C262.6,5,262.6,5,262.6,5z M237,5
		c-1.4,0.1-2.6-1-2.7-2.4l0,0c-0.1-1.4,1-2.6,2.4-2.7l0,0l0,0l0,0c1.3-0.1,2.5,1,2.6,2.4l0,0C239.4,3.8,238.3,5,237,5L237,5z"></path></g>
</g>
<g>
	<g id="change2_2"><path fill="#3F4651" d="M246.5,440.3L246.5,440.3L246.5,440.3c-1.4-0.1-2.5-1.2-2.5-2.5l0,0c0-1.4,1.2-2.5,2.5-2.5l0,0
		c1.4,0,2.5,1.1,2.5,2.6l0,0C249.1,439.2,248,440.3,246.5,440.3L246.5,440.3L246.5,440.3z M270.2,436.8c-0.1-1.4,0.8-2.6,2.2-2.8
		l0,0c1.4-0.2,2.6,0.8,2.8,2.1l0,0c0.1,1.4-0.8,2.6-2.2,2.8l0,0c-0.1,0-0.2,0-0.3,0l0,0C271.5,439,270.4,438,270.2,436.8z
		 M220.1,438c-1.4-0.2-2.3-1.5-2.1-2.9l0,0c0.2-1.3,1.5-2.3,2.8-2.1l0,0c1.4,0.2,2.3,1.5,2.1,2.9l0,0c-0.2,1.3-1.3,2.1-2.5,2.1l0,0
		C220.4,438,220.3,438,220.1,438z M296,432.2c-0.4-1.3,0.4-2.7,1.7-3.1l0,0c1.3-0.4,2.8,0.4,3.1,1.7l0,0c0.4,1.3-0.4,2.7-1.7,3.1
		l0,0c-0.2,0.1-0.5,0.1-0.7,0.1l0,0C297.3,434,296.3,433.3,296,432.2z M194.2,432c-1.3-0.4-2.1-1.8-1.7-3.1l0,0
		c0.4-1.3,1.8-2.1,3.2-1.7l0,0c1.3,0.4,2.1,1.8,1.7,3.1l0,0c-0.3,1.1-1.3,1.8-2.4,1.8l0,0C194.7,432.1,194.5,432.1,194.2,432z
		 M320.9,424c-0.5-1.3,0.1-2.8,1.3-3.3l0,0c1.3-0.6,2.8,0,3.3,1.3l0,0c0.5,1.3-0.1,2.8-1.3,3.3l0,0c-0.3,0.1-0.7,0.2-1,0.2l0,0
		C322.3,425.6,321.3,424.9,320.9,424z M169.5,422.5c-1.3-0.5-1.8-2.1-1.2-3.3l0,0c0.5-1.3,2.1-1.8,3.3-1.3l0,0
		c1.3,0.6,1.8,2.1,1.2,3.4l0,0c-0.4,0.9-1.3,1.5-2.3,1.5l0,0C170.2,422.7,169.8,422.7,169.5,422.5z M344.4,412.4
		c-0.7-1.1-0.3-2.8,0.9-3.4l0,0c1.1-0.7,2.8-0.3,3.4,0.9l0,0c0.7,1.1,0.3,2.7-0.9,3.4l0,0l0,0l0,0c-0.4,0.3-0.8,0.3-1.3,0.3l0,0
		C345.7,413.6,344.9,413.2,344.4,412.4z M146.3,409.6c-1.2-0.7-1.5-2.4-0.7-3.5l0,0c0.7-1.1,2.3-1.5,3.4-0.7h0.1
		c1.1,0.7,1.5,2.4,0.7,3.5l0,0c-0.5,0.7-1.3,1.1-2.1,1.1l0,0C147.1,410,146.7,409.9,146.3,409.6z M366.1,397.7
		c-0.9-1.1-0.7-2.7,0.3-3.6h0.1c1.1-0.9,2.6-0.7,3.5,0.4l0,0c0.9,1.1,0.7,2.6-0.3,3.5l0,0l0,0l0,0c-0.5,0.4-1.1,0.6-1.6,0.6l0,0
		C367.3,398.7,366.5,398.3,366.1,397.7z M125.1,393.6c-1.1-0.9-1.1-2.5-0.3-3.6l0,0c0.9-1,2.5-1.1,3.6-0.2l0,0
		c1.1,0.9,1.1,2.5,0.3,3.5l0,0c-0.5,0.6-1.2,0.9-1.9,0.9l0,0C126.2,394.2,125.6,394,125.1,393.6z M385.5,380.1
		c-1.1-0.9-1.1-2.5-0.1-3.6l0,0c0.9-1,2.5-1.1,3.5-0.1l0,0c1,0.9,1.1,2.5,0.1,3.6l0,0c0,0,0,0,0.1,0l0,0c-0.5,0.5-1.2,0.8-1.9,0.8
		l0,0C386.6,380.8,386,380.6,385.5,380.1z M106.3,374.8c-0.9-1-0.8-2.6,0.3-3.6l0,0c1.1-0.9,2.6-0.8,3.6,0.3l0,0
		c0.9,1.1,0.8,2.6-0.3,3.6l0,0c-0.5,0.4-1.1,0.6-1.7,0.6l0,0C107.5,375.7,106.8,375.4,106.3,374.8z M402.3,360
		c-1.1-0.8-1.4-2.3-0.6-3.5l0,0c0.8-1.1,2.3-1.4,3.5-0.6l0,0c1.1,0.8,1.4,2.3,0.6,3.5l0,0c-0.5,0.7-1.3,1.1-2.1,1.1l0,0
		C403.2,360.5,402.7,360.4,402.3,360z M90.3,353.6c-0.7-1.1-0.4-2.8,0.7-3.5l0,0c1.1-0.7,2.7-0.4,3.5,0.7l0,0
		c0.7,1.2,0.4,2.8-0.7,3.5l0,0c-0.4,0.3-0.9,0.4-1.3,0.4l0,0C91.6,354.7,90.8,354.3,90.3,353.6z M416.1,337.8
		c-1.2-0.7-1.7-2.2-1.1-3.4l0,0c0.7-1.2,2.1-1.7,3.4-1.1l0,0c1.2,0.6,1.7,2.1,1.1,3.4l0,0l0,0l0,0c-0.5,0.9-1.3,1.4-2.3,1.4l0,0
		C416.9,338.1,416.5,338,416.1,337.8z M77.5,330.4L77.5,330.4L77.5,330.4c-0.6-1.2-0.1-2.8,1.2-3.3l0,0c1.3-0.6,2.8-0.1,3.4,1.2l0,0
		c0.6,1.2,0.1,2.7-1.2,3.4l0,0c-0.3,0.1-0.7,0.2-1.1,0.2l0,0C78.8,331.9,77.9,331.3,77.5,330.4z M426.8,313.8
		c-1.3-0.5-2.1-1.9-1.6-3.2v-0.1c0.5-1.3,1.9-1.9,3.2-1.5l0,0c1.3,0.5,2,1.9,1.5,3.2l0,0l0,0l0,0c-0.3,1.1-1.3,1.7-2.3,1.7l0,0
		C427.3,313.9,427,313.9,426.8,313.8z M67.9,305.6c-0.4-1.3,0.3-2.8,1.7-3.2l0,0c1.3-0.4,2.8,0.3,3.2,1.7l0,0
		c0.4,1.3-0.3,2.8-1.7,3.2l0,0c-0.2,0.1-0.5,0.1-0.7,0.1l0,0C69.3,307.4,68.3,306.7,67.9,305.6z M433.9,288.7c-1.3-0.3-2.3-1.6-2-3
		v-0.1c0.3-1.3,1.6-2.2,3-1.9l0,0c1.3,0.3,2.2,1.5,1.9,3l0,0c-0.2,1.2-1.3,2-2.5,2l0,0C434.2,288.7,434,288.7,433.9,288.7z
		 M62,279.8L62,279.8L62,279.8c-0.2-1.4,0.7-2.7,2.1-2.9l0,0c1.3-0.2,2.6,0.7,2.9,2.1l0,0c0.2,1.3-0.7,2.6-2.1,2.9l0,0
		c-0.1,0-0.3,0-0.4,0l0,0C63.2,281.9,62.2,281,62,279.8z M437.4,262.7c-1.4-0.1-2.4-1.3-2.3-2.7l0,0c0-0.1,0-0.2,0-0.3l0,0
		c0-0.1,0-0.3,0-0.4l0,0c0.1-1.4,1.3-2.5,2.7-2.4l0,0c1.3,0.1,2.4,1.2,2.4,2.6l0,0l0,0l0,0c0,0.1,0,0.3-0.1,0.3l0,0
		c0.1,0.1,0.1,0.3,0.1,0.4l0,0l0,0l0,0c-0.1,1.3-1.2,2.4-2.6,2.4l0,0C437.5,262.7,437.5,262.7,437.4,262.7z M59.8,253.3L59.8,253.3
		L59.8,253.3c-0.1-1.3,1-2.5,2.4-2.5l0,0c1.4,0,2.5,1.1,2.5,2.5l0,0c0.1,1.4-1.1,2.5-2.5,2.5l0,0l0,0l0,0
		C60.8,255.8,59.8,254.7,59.8,253.3z M434.6,233.5L434.6,233.5c-0.1-1.4,0.9-2.6,2.3-2.8l0,0c1.4-0.1,2.6,0.9,2.8,2.4l0,0
		c0,0,0,0,0-0.1l0,0c0.1,1.4-0.9,2.6-2.4,2.7l0,0c-0.1,0-0.1,0-0.2,0l0,0C435.8,235.7,434.7,234.8,434.6,233.5z M63.3,229.6
		c-1.4-0.2-2.3-1.4-2.2-2.8l0,0l0,0l0,0c0.2-1.3,1.4-2.4,2.8-2.1l0,0c1.3,0.1,2.4,1.4,2.2,2.8l0,0c-0.2,1.3-1.3,2.2-2.5,2.2l0,0
		C63.5,229.6,63.4,229.6,63.3,229.6z M430.5,208c-0.3-1.4,0.5-2.8,1.9-3l0,0c1.4-0.3,2.8,0.5,3,1.9l0,0c0.3,1.3-0.5,2.7-1.9,3l0,0
		c-0.2,0-0.3,0.1-0.5,0.1l0,0C431.9,209.9,430.8,209.1,430.5,208z M67.9,203.9c-1.3-0.4-2.1-1.7-1.8-3.1l0,0
		c0.3-1.3,1.7-2.1,3.1-1.8l0,0c1.3,0.4,2.1,1.7,1.7,3.1l0,0c-0.3,1.1-1.3,1.9-2.4,1.9l0,0C68.3,204,68.1,204,67.9,203.9z
		 M422.9,183.3L422.9,183.3c-0.5-1.3,0.1-2.8,1.4-3.3l0,0c1.3-0.5,2.8,0.1,3.3,1.5l0,0c0.5,1.3-0.1,2.8-1.5,3.2l0,0
		c-0.3,0.1-0.6,0.2-0.9,0.2l0,0C424.3,184.9,423.3,184.3,422.9,183.3z M76.1,178.9c-1.3-0.5-1.9-2-1.3-3.3l0,0l0,0l0,0
		c0.5-1.3,2-1.9,3.3-1.3l0,0c1.3,0.5,1.9,2,1.3,3.4l0,0c-0.4,0.9-1.3,1.5-2.4,1.5l0,0C76.7,179.1,76.4,179.1,76.1,178.9z
		 M411.9,159.9c-0.7-1.2-0.2-2.8,1-3.4l0,0c1.2-0.7,2.8-0.3,3.4,1l0,0l0,0l0,0c0.7,1.2,0.2,2.7-1,3.4l0,0c-0.4,0.3-0.8,0.3-1.2,0.3
		l0,0C413.3,161.2,412.4,160.7,411.9,159.9z M87.7,155.5c-1.1-0.7-1.5-2.3-0.8-3.4l0,0c0.7-1.2,2.2-1.6,3.4-0.9l0,0
		c1.2,0.7,1.5,2.3,0.9,3.4l0,0c-0.5,0.8-1.3,1.2-2.1,1.2l0,0C88.5,155.8,88.1,155.7,87.7,155.5z M397.8,138.2L397.8,138.2
		c-0.9-1.1-0.7-2.6,0.5-3.5l0,0c1.1-0.9,2.7-0.6,3.6,0.5l0,0c0,0,0,0-0.1,0l0,0c0.9,1.1,0.7,2.7-0.5,3.5l0,0
		c-0.4,0.3-0.9,0.5-1.5,0.5l0,0C399.1,139.2,398.3,138.9,397.8,138.2z M102.4,133.8c-1.1-0.9-1.2-2.5-0.3-3.5l0,0
		c0.9-1.1,2.4-1.3,3.6-0.4l0,0c1.1,0.9,1.2,2.4,0.3,3.5l0,0c-0.5,0.6-1.2,0.9-1.9,0.9l0,0C103.5,134.4,102.9,134.2,102.4,133.8z
		 M380.9,118.8L380.9,118.8c-1-1-1-2.5,0-3.6l0,0c0.9-1,2.5-1,3.5,0l0,0l0,0l0,0c0.9,1,0.9,2.5,0,3.6l0,0c-0.5,0.5-1.1,0.7-1.8,0.7
		l0,0C382,119.5,381.4,119.3,380.9,118.8z M120.1,114.4c-0.9-1-0.9-2.6,0.1-3.5l0,0l0,0l0,0c1-0.9,2.6-0.9,3.5,0.1l0,0
		c0.9,1,0.9,2.6-0.1,3.6l0,0c-0.5,0.5-1.1,0.7-1.7,0.7l0,0C121.2,115.2,120.5,115,120.1,114.4z M361.4,101.9
		c-1.1-0.9-1.3-2.4-0.5-3.5l0,0c0.9-1.1,2.4-1.3,3.6-0.5l0,0c1.1,0.8,1.3,2.4,0.5,3.5l0,0c-0.5,0.7-1.3,1-2,1l0,0
		C362.3,102.3,361.8,102.2,361.4,101.9z M140.2,97.7c-0.8-1.1-0.5-2.7,0.6-3.5l0,0l0,0l0,0c1.1-0.8,2.7-0.5,3.5,0.6l0,0
		c0.8,1.1,0.5,2.7-0.6,3.5l0,0c-0.4,0.3-0.9,0.5-1.4,0.5l0,0C141.4,98.7,140.6,98.3,140.2,97.7z M339.7,87.8c-1.3-0.7-1.7-2.2-1-3.4
		l0,0c0.7-1.2,2.1-1.7,3.4-1l0,0c1.2,0.7,1.6,2.2,0.9,3.4l0,0c-0.5,0.9-1.3,1.3-2.1,1.3l0,0C340.4,88.1,340,88,339.7,87.8z
		 M162.4,83.8c-0.6-1.3-0.1-2.8,1.1-3.4l0,0c1.2-0.6,2.8-0.1,3.4,1.1l0,0c0.7,1.2,0.1,2.8-1.1,3.4l0,0c-0.4,0.2-0.7,0.3-1.1,0.3l0,0
		C163.7,85.2,162.8,84.7,162.4,83.8z M316.2,76.9L316.2,76.9c-1.3-0.5-1.9-1.9-1.5-3.2l0,0c0.5-1.3,1.9-1.9,3.3-1.5l0,0
		c0,0,0,0,0,0.1l0,0c1.3,0.5,1.9,1.9,1.4,3.2l0,0c-0.4,1-1.3,1.6-2.4,1.6l0,0C316.8,77.1,316.5,77,316.2,76.9z M186.3,73.2
		c-0.4-1.3,0.3-2.8,1.5-3.2l0,0c0,0,0,0,0.1,0l0,0c1.3-0.5,2.7,0.3,3.2,1.6l0,0c0.5,1.3-0.2,2.8-1.5,3.2l0,0
		c-0.3,0.1-0.5,0.1-0.8,0.1l0,0C187.7,74.9,186.7,74.3,186.3,73.2z M291.5,69.4L291.5,69.4c-1.3-0.3-2.2-1.6-1.9-3l0,0
		c0.3-1.4,1.7-2.2,3-1.9l0,0l0,0l0,0c1.3,0.3,2.2,1.7,1.9,3l0,0c-0.3,1.2-1.3,1.9-2.4,1.9l0,0C291.9,69.4,291.7,69.4,291.5,69.4z
		 M211.5,66.1c-0.3-1.4,0.6-2.7,2-2.9l0,0c1.3-0.3,2.7,0.6,2.9,2l0,0c0.3,1.3-0.7,2.6-2,2.9l0,0c-0.1,0.1-0.3,0.1-0.5,0.1l0,0
		C212.8,68.1,211.7,67.3,211.5,66.1z M266,65.4L266,65.4c-1.4-0.1-2.4-1.3-2.3-2.8l0,0c0.1-1.3,1.3-2.4,2.7-2.3l0,0
		c1.4,0.1,2.4,1.3,2.3,2.8l0,0c-0.1,1.3-1.2,2.3-2.5,2.3l0,0C266.1,65.4,266.1,65.4,266,65.4z M237.5,62.6c-0.1-1.4,1-2.5,2.3-2.6
		l0,0c1.4-0.1,2.6,0.9,2.7,2.4l0,0c0.1,1.4-1,2.5-2.4,2.6l0,0c0,0.1-0.1,0.1-0.1,0.1l0,0C238.6,65,237.6,63.9,237.5,62.6z"></path></g>
</g>
</svg>