<?xml version="1.0" encoding="utf-8"?><!DOCTYPE svg PUBLIC "-//W3C//DTD SVG 1.1//EN" "http://www.w3.org/Graphics/SVG/1.1/DTD/svg11.dtd">
<svg version="1.1" id="Layer_1" xmlns="http://www.w3.org/2000/svg" xmlns:xlink="http://www.w3.org/1999/xlink" x="0px" y="0px" viewBox="0 0 500 500" enable-background="new 0 0 500 500" xml:space="preserve">
<g>
	<g id="change1_1"><circle fill="#FFFFFF" cx="250" cy="250" r="250"></circle></g>
</g>
<g>
	<g>
		<g>
			<g>
				<g>
					<g id="change2_1"><path fill="#3F4651" d="M46.2,283.1V283l0,0l0,0c-0.7-1.5-2.5-4-5-6.4s-5.8-4.7-9.6-5.6c-6-1.4-9.9-5.5-12.2-9.4
						s-3-7.5-3.1-7.7c0,0-0.9,2.6-1.2,6.9c-0.3,4.2,0,10.1,2.6,16.1l0,0c0.5,1.3,1.9,4.1,4.5,6.7s6.4,4.9,11.7,5.3
						c6,0.5,9.7,2.9,12.1,5.3c2.4,2.5,3.4,5.1,3.7,6.3c0,0,0.1-2.2-0.3-5.5C49,291.7,48.1,287.4,46.2,283.1z"></path></g>
				</g>
			</g>
		</g>
	</g>
	<g>
		<g>
			<g>
				<g>
					<g id="change2_2"><path fill="#3F4651" d="M44.8,254.1V254l0,0l0,0c-0.6-1.6-2.2-4.2-4.5-6.8c-2.3-2.5-5.5-5-9.2-6.2c-5.9-1.8-9.5-6.2-11.6-10.2
						c-2.1-4.1-2.6-7.7-2.6-7.9c0,0-1.1,2.6-1.7,6.8c-0.6,4.2-0.6,10.1,1.5,16.2l0,0c0.4,1.4,1.6,4.3,4,7c2.4,2.8,6,5.3,11.3,6.1
						c5.9,0.9,9.5,3.5,11.7,6.1s3.1,5.3,3.3,6.5c0,0,0.3-2.2,0.1-5.4C47,262.9,46.5,258.6,44.8,254.1z"></path></g>
				</g>
			</g>
		</g>
	</g>
	<g>
		<g>
			<g>
				<g>
					<g id="change2_3"><path fill="#3F4651" d="M53.7,312.1l-0.1-0.1l0,0l0,0c-0.9-1.4-3.1-3.6-5.9-5.6c-2.8-2-6.4-3.8-10.3-4.1
						c-6.1-0.5-10.6-4-13.5-7.5s-4.1-7-4.2-7.2c0,0-0.5,2.7-0.2,7c0.3,4.2,1.5,10,5,15.5l0,0c0.7,1.2,2.5,3.8,5.4,6
						s7.1,3.9,12.3,3.5c6-0.4,10,1.3,12.8,3.4c2.7,2.1,4.2,4.5,4.7,5.6c0,0-0.2-2.2-1.1-5.3C57.7,320.2,56.3,316.1,53.7,312.1z"></path></g>
				</g>
			</g>
		</g>
	</g>
	<g>
		<g>
			<g>
				<g>
					<g id="change2_4"><path fill="#3F4651" d="M63.8,338.8L63.8,338.8l-0.1-0.1l0,0c-1.1-1.3-3.6-3.1-6.7-4.7c-3.1-1.5-6.9-2.7-10.8-2.5
						c-6.1,0.5-11.1-2.3-14.5-5.4c-3.4-3-5.2-6.3-5.3-6.5c0,0-0.1,2.8,0.9,6.9s3,9.6,7.3,14.6l0,0c0.9,1.1,3,3.4,6.3,5.1
						c3.2,1.7,7.6,2.8,12.7,1.6c5.8-1.3,10.1-0.2,13.1,1.5s4.8,3.9,5.5,4.9c0,0-0.6-2.1-1.9-5.1C69,346.2,66.9,342.4,63.8,338.8z"></path></g>
				</g>
			</g>
		</g>
	</g>
	<g>
		<g>
			<g>
				<g>
					<g id="change2_5"><path fill="#3F4651" d="M79.3,365.8L79.3,365.8L79.3,365.8L79.3,365.8c-1.4-1.2-4.1-2.6-7.4-3.7c-3.3-1-7.2-1.7-11.1-0.8
						c-6,1.4-11.4-0.6-15.1-3.1c-3.8-2.5-6-5.4-6.2-5.6c0,0,0.3,2.8,1.9,6.7c1.6,3.9,4.5,9,9.4,13.4l0,0c1.1,0.9,3.5,2.9,7,4.1
						s7.9,1.6,12.8-0.3c5.6-2.2,10-1.7,13.2-0.5s5.3,3.1,6.1,4c0,0-0.9-2-2.7-4.8C85.6,372.4,83,368.9,79.3,365.8z"></path></g>
				</g>
			</g>
		</g>
	</g>
	<g>
		<g>
			<g>
				<g>
					<g id="change2_6"><path fill="#3F4651" d="M98.8,390.2l-0.1-0.1l0,0l0,0c-1.4-0.9-4.3-1.9-7.7-2.5c-3.4-0.5-7.4-0.6-11.1,0.9
						c-5.7,2.3-11.3,1.1-15.4-0.8s-6.8-4.5-6.9-4.6c0,0,0.7,2.7,2.9,6.4c2.1,3.7,5.8,8.3,11.3,11.8l0,0c1.2,0.8,3.9,2.3,7.5,3
						s8,0.4,12.6-2.3c5.2-3,9.6-3.2,13-2.5s5.7,2.3,6.6,3c0,0-1.2-1.9-3.3-4.3C105.9,395.8,102.8,392.7,98.8,390.2z"></path></g>
				</g>
			</g>
		</g>
	</g>
	<g>
		<g>
			<g>
				<g>
					<g id="change2_7"><path fill="#3F4651" d="M121.7,411.4l-0.1-0.1l0,0l0,0c-1.6-0.6-4.6-1.2-8-1.3c-3.5,0-7.4,0.6-10.8,2.5
						c-5.3,3.1-11,2.8-15.4,1.5c-4.4-1.2-7.4-3.4-7.5-3.5c0,0,1.1,2.6,3.8,5.9c2.7,3.3,7,7.3,13,9.9l0,0c1.3,0.6,4.2,1.7,7.9,1.8
						c3.7,0.1,8-0.8,12.1-4.1c4.7-3.7,9-4.6,12.5-4.4c3.4,0.2,6,1.4,7,2c0,0-1.5-1.7-4-3.8C129.6,415.8,126,413.3,121.7,411.4z"></path></g>
				</g>
			</g>
		</g>
	</g>
	<g>
		<g>
			<g>
				<g>
					<g id="change2_8"><path fill="#3F4651" d="M147.5,429h-0.1l0,0l0,0c-1.6-0.4-4.7-0.5-8.1,0c-3.4,0.5-7.3,1.7-10.3,4.1c-4.8,3.9-10.4,4.4-15,3.8
						c-4.5-0.6-7.8-2.2-8-2.3c0,0,1.5,2.4,4.6,5.2c3.1,2.9,8,6.2,14.3,7.9l0,0c1.4,0.4,4.4,1.1,8.1,0.6c3.6-0.5,7.8-2,11.4-5.9
						c4.1-4.4,8.2-5.9,11.7-6.2c3.4-0.4,6.1,0.4,7.2,0.9c0,0-1.7-1.4-4.5-3.1C156,432.1,152.1,430.1,147.5,429z"></path></g>
				</g>
			</g>
		</g>
	</g>
	<g>
		<g>
			<g>
				<g>
					<g id="change2_9"><path fill="#3F4651" d="M175.6,442.4h-0.1l0,0l0,0c-1.7-0.2-4.7,0.2-8,1.2s-6.9,2.7-9.6,5.6c-4.1,4.6-9.7,5.9-14.2,6.1
						c-4.6,0.1-8.1-1-8.3-1.1c0,0,1.8,2.1,5.4,4.4c3.5,2.3,8.8,4.9,15.3,5.7l0,0c1.4,0.2,4.6,0.4,8.1-0.6s7.4-3.2,10.3-7.6
						c3.4-5,7.2-7.1,10.6-8c3.3-0.9,6.1-0.5,7.3-0.2c0,0-1.9-1.2-4.9-2.4C184.5,444.2,180.4,442.8,175.6,442.4z"></path></g>
				</g>
			</g>
		</g>
	</g>
	<g>
		<g>
			<g>
				<g>
					<g id="change2_10"><path fill="#3F4651" d="M205.5,451.4h-0.1l0,0l0,0c-1.7,0.1-4.6,0.9-7.8,2.4c-3.1,1.5-6.4,3.8-8.6,7c-3.4,5.1-8.7,7.3-13.1,8.1
						c-4.5,0.8-8.1,0.2-8.3,0.2c0,0,2.1,1.8,6,3.6c3.8,1.8,9.5,3.5,16,3.2l0,0c1.4,0,4.5-0.3,7.9-1.8c3.3-1.5,6.8-4.3,9.1-9
						c2.6-5.4,6.1-8.1,9.2-9.5c3.2-1.4,6-1.4,7.2-1.3c0,0-2-0.9-5.2-1.7C214.5,451.8,210.2,451.1,205.5,451.4z"></path></g>
				</g>
			</g>
		</g>
	</g>
	<g>
		<g>
			<g>
				<g>
					<g id="change2_11"><path fill="#3F4651" d="M236.4,455.7h-0.1l0,0l0,0c-1.6,0.4-4.5,1.6-7.3,3.5c-2.9,2-5.8,4.7-7.4,8.2c-2.6,5.6-7.5,8.6-11.8,10
						c-4.3,1.5-8,1.4-8.2,1.4c0,0,2.4,1.5,6.5,2.6c4.1,1.2,9.9,2,16.3,0.8l0,0c1.4-0.3,4.5-1,7.5-3c3.1-2,6.1-5.2,7.6-10.3
						c1.7-5.7,4.8-8.9,7.7-10.7c2.9-1.8,5.7-2.3,6.9-2.4c0,0-2.1-0.5-5.4-0.8C245.4,454.8,241,454.8,236.4,455.7z"></path></g>
				</g>
			</g>
		</g>
	</g>
	<g>
		<g>
			<g>
				<g>
					<g id="change2_12"><path fill="#3F4651" d="M267.6,455.4h-0.1l0,0l0,0c-1.5,0.6-4.2,2.2-6.7,4.6s-5,5.5-6.1,9.2c-1.7,5.9-6.1,9.6-10.1,11.7
						s-7.7,2.6-7.9,2.7c0,0,2.6,1.1,6.8,1.6c4.2,0.6,10.1,0.5,16.2-1.7l0,0c1.4-0.5,4.3-1.6,7-4.1c2.7-2.4,5.2-6.1,6-11.3
						c0.9-5.9,3.4-9.5,6-11.8c2.6-2.2,5.3-3.1,6.5-3.4c0,0-2.2-0.2-5.5,0C276.3,453.2,272,453.8,267.6,455.4z"></path></g>
				</g>
			</g>
		</g>
	</g>
	<g>
		<g>
			<g>
				<g>
					<g id="change2_13"><path fill="#3F4651" d="M298.4,450.5l-0.1,0.1l0,0l0,0c-1.4,0.8-3.8,2.8-5.9,5.5s-4.1,6.2-4.7,10.1c-0.8,6.1-4.6,10.4-8.3,13.1
						c-3.7,2.7-7.2,3.7-7.4,3.8c0,0,2.7,0.7,6.9,0.6c4.2-0.1,10-1,15.8-4.1l0,0c1.3-0.6,4-2.3,6.3-5.1c2.3-2.8,4.3-6.8,4.2-12.1
						c-0.1-6,1.9-9.9,4.2-12.6c2.2-2.6,4.8-3.9,5.9-4.3c0,0-2.2,0.1-5.4,0.8C306.7,446.9,302.5,448.2,298.4,450.5z"></path></g>
				</g>
			</g>
		</g>
	</g>
	<g>
		<g>
			<g>
				<g>
					<g id="change2_14"><path fill="#3F4651" d="M328,440.9L328,440.9l-0.1,0.1l0,0c-1.3,1.1-3.3,3.4-5,6.4s-3.1,6.7-3.1,10.6c0.1,6.2-2.9,11-6.2,14.2
						c-3.2,3.2-6.6,4.8-6.7,4.9c0,0,2.8,0.3,7-0.4c4.2-0.7,9.8-2.5,15-6.4l0,0c1.2-0.8,3.6-2.8,5.4-6c1.9-3.1,3.2-7.4,2.3-12.6
						c-1-5.9,0.4-10.1,2.2-13c1.8-2.9,4.1-4.6,5.2-5.2c0,0-2.2,0.4-5.2,1.6C335.7,436.1,331.8,438,328,440.9z"></path></g>
				</g>
			</g>
		</g>
	</g>
	<g>
		<g>
			<g>
				<g>
					<g id="change2_15"><path fill="#3F4651" d="M355.9,426.9L355.9,426.9l-0.1,0.1l0,0c-1.1,1.2-2.8,3.8-4,7.1c-1.2,3.2-2.1,7.1-1.4,11
						c1.1,6.1-1.2,11.3-4,15c-2.7,3.6-5.8,5.7-5.9,5.8c0,0,2.8-0.1,6.8-1.5c4-1.3,9.3-3.9,13.8-8.6l0,0c1-1,3.1-3.3,4.5-6.7
						c1.4-3.4,2-7.8,0.4-12.8c-1.8-5.7-1.1-10.1,0.2-13.2c1.4-3.2,3.4-5.1,4.3-5.9c0,0-2.1,0.8-4.9,2.4
						C362.8,421.1,359.2,423.5,355.9,426.9z"></path></g>
				</g>
			</g>
		</g>
	</g>
	<g>
		<g>
			<g>
				<g>
					<g id="change2_16"><path fill="#3F4651" d="M381.4,408.9L381.4,408.9l-0.1,0.1l0,0c-0.9,1.4-2.1,4.2-2.9,7.6c-0.7,3.4-1,7.4,0.3,11.1
						c1.9,5.8,0.5,11.3-1.7,15.4c-2.1,4-4.8,6.5-5,6.7c0,0,2.7-0.6,6.5-2.5s8.6-5.3,12.4-10.6l0,0c0.9-1.1,2.6-3.8,3.4-7.3
						c0.9-3.6,0.8-8-1.6-12.7c-2.7-5.3-2.6-9.8-1.8-13.1c0.9-3.3,2.6-5.6,3.4-6.5c0,0-1.9,1.1-4.5,3.1
						C387.3,402,384.1,405,381.4,408.9z"></path></g>
				</g>
			</g>
		</g>
	</g>
	<g>
		<g>
			<g>
				<g>
					<g id="change2_17"><path fill="#3F4651" d="M403.8,387.2v0.1l0,0l0,0c-0.7,1.5-1.5,4.5-1.7,7.9c-0.2,3.5,0.1,7.4,1.9,10.9
						c2.8,5.5,2.2,11.1,0.7,15.4s-3.8,7.2-3.9,7.4c0,0,2.6-1,6.1-3.5c3.4-2.5,7.7-6.5,10.6-12.4l0,0c0.7-1.2,1.9-4.1,2.3-7.7
						c0.3-3.6-0.4-8-3.4-12.4c-3.5-4.9-4.1-9.3-3.7-12.7c0.4-3.4,1.7-5.9,2.4-6.9c0,0-1.8,1.4-4,3.7
						C408.7,379.6,405.9,383,403.8,387.2z"></path></g>
				</g>
			</g>
		</g>
	</g>
	<g>
		<g>
			<g>
				<g>
					<g id="change2_18"><path fill="#3F4651" d="M422.8,362.5v0.1l0,0l0,0c-0.5,1.6-0.8,4.7-0.5,8.1c0.3,3.5,1.2,7.3,3.5,10.5c3.6,5,3.8,10.7,3,15.2
						s-2.7,7.7-2.8,7.8c0,0,2.4-1.4,5.5-4.3c3-3,6.6-7.6,8.7-13.8l0,0c0.5-1.3,1.3-4.4,1.1-8c-0.2-3.6-1.6-7.9-5.3-11.7
						c-4.1-4.3-5.4-8.6-5.6-12s0.8-6.1,1.3-7.2c0,0-1.5,1.6-3.4,4.3C426.4,354.2,424.2,357.9,422.8,362.5z"></path></g>
				</g>
			</g>
		</g>
	</g>
	<g>
		<g>
			<g>
				<g>
					<g id="change2_19"><path fill="#3F4651" d="M437.8,335.1v0.1l0,0l0,0c-0.3,1.7-0.1,4.7,0.7,8.1c0.8,3.4,2.4,7.1,5.1,9.9c4.3,4.4,5.4,10,5.2,14.5
						c-0.2,4.6-1.5,8-1.6,8.2c0,0,2.2-1.7,4.8-5.1c2.5-3.4,5.4-8.5,6.5-15l0,0c0.3-1.4,0.7-4.5-0.1-8.1c-0.8-3.6-2.8-7.6-7-10.8
						c-4.7-3.6-6.6-7.7-7.3-11c-0.7-3.4-0.1-6.2,0.2-7.3c0,0-1.3,1.8-2.7,4.7C440.1,326.4,438.5,330.4,437.8,335.1z"></path></g>
				</g>
			</g>
		</g>
	</g>
	<g>
		<g>
			<g>
				<g>
					<g id="change2_20"><path fill="#3F4651" d="M448.5,305.8v0.1l0,0l0,0c0,1.7,0.6,4.7,2,7.9c1.3,3.2,3.4,6.6,6.5,9c4.9,3.7,6.8,9.1,7.4,13.6
						s-0.3,8.1-0.3,8.3c0,0,1.9-2,3.9-5.8c2-3.7,4.1-9.2,4.2-15.8l0,0c0.1-1.4,0-4.6-1.4-8c-1.3-3.4-3.9-7.1-8.5-9.6
						c-5.3-2.9-7.7-6.5-8.9-9.8c-1.2-3.2-1.1-6.1-0.9-7.2c0,0-1,2-1.9,5.1C449.5,296.9,448.5,301.1,448.5,305.8z"></path></g>
				</g>
			</g>
		</g>
	</g>
	<g>
		<g>
			<g>
				<g>
					<g id="change2_21"><path fill="#3F4651" d="M454.6,275.3v0.1l0,0l0,0c0.3,1.7,1.3,4.5,3.1,7.5c1.8,3,4.3,6,7.8,7.9c5.4,2.9,8.1,7.9,9.4,12.3
						c1.2,4.4,1,8.1,0.9,8.3c0,0,1.6-2.3,3-6.3s2.6-9.7,1.7-16.2l0,0c-0.2-1.4-0.7-4.5-2.6-7.7c-1.8-3.2-4.9-6.4-9.9-8.2
						c-5.6-2-8.6-5.3-10.3-8.3c-1.6-3-1.9-5.8-2-7c0,0-0.7,2.1-1.1,5.3C454.2,266.2,453.9,270.6,454.6,275.3z"></path></g>
				</g>
			</g>
		</g>
	</g>
	<g>
		<g>
			<g>
				<g>
					<g id="change2_22"><path fill="#3F4651" d="M456.1,244.1v0.1l0,0l0,0c0.5,1.6,2,4.3,4.2,7s5.2,5.3,8.9,6.7c5.8,2.1,9.2,6.6,11.1,10.8
						c1.9,4.1,2.2,7.8,2.2,8c0,0,1.2-2.5,2-6.7s1.1-10-0.7-16.3l0,0c-0.4-1.4-1.4-4.3-3.7-7.2c-2.3-2.9-5.8-5.6-11-6.6
						c-5.9-1.2-9.3-4-11.4-6.7s-2.8-5.5-3-6.7c0,0-0.3,2.2-0.4,5.5C454.3,235.2,454.7,239.5,456.1,244.1z"></path></g>
				</g>
			</g>
		</g>
	</g>
	<g>
		<g>
			<g>
				<g>
					<g id="change2_23"><path fill="#3F4651" d="M452.9,213l0.1,0.1l0,0l0,0c0.7,1.5,2.6,3.9,5.2,6.2s5.9,4.5,9.8,5.2c6,1.2,10.1,5.2,12.6,9
						s3.3,7.4,3.4,7.6c0,0,0.8-2.7,1-6.9s-0.4-10.1-3.2-16l0,0c-0.6-1.3-2-4.1-4.7-6.6s-6.6-4.7-11.9-4.9c-6-0.3-9.8-2.5-12.3-4.9
						s-3.6-5-4-6.1c0,0,0,2.2,0.5,5.4C449.8,204.5,450.8,208.8,452.9,213z"></path></g>
				</g>
			</g>
		</g>
	</g>
	<g>
		<g>
			<g>
				<g>
					<g id="change2_24"><path fill="#3F4651" d="M445,182.9l0.1,0.1l0,0l0,0c1,1.4,3.2,3.5,6.1,5.4s6.5,3.5,10.5,3.7c6.1,0.2,10.8,3.6,13.8,7
						s4.4,6.8,4.5,7c0,0,0.4-2.8-0.1-7s-1.9-9.9-5.6-15.3l0,0c-0.8-1.2-2.6-3.7-5.6-5.8s-7.2-3.6-12.4-3c-5.9,0.6-10.1-1-12.9-3
						s-4.3-4.4-4.8-5.5c0,0,0.3,2.2,1.3,5.3C440.7,174.9,442.3,179,445,182.9z"></path></g>
				</g>
			</g>
		</g>
	</g>
	<g>
		<g>
			<g>
				<g>
					<g id="change2_25"><path fill="#3F4651" d="M432.6,154.3l0.1,0.1l0,0l0,0c1.2,1.2,3.7,3,6.8,4.4c3.2,1.4,7,2.5,10.9,2.1c6.1-0.7,11.2,1.9,14.7,4.8
						c3.5,2.9,5.4,6.1,5.5,6.3c0,0,0-2.8-1.1-6.9c-1.1-4.1-3.4-9.5-7.8-14.3l0,0c-0.9-1.1-3.2-3.3-6.5-4.9
						c-3.3-1.6-7.7-2.5-12.8-1.1c-5.8,1.5-10.1,0.6-13.2-1c-3.1-1.5-4.9-3.7-5.6-4.7c0,0,0.7,2.1,2.1,5.1
						C427.2,147,429.4,150.8,432.6,154.3z"></path></g>
				</g>
			</g>
		</g>
	</g>
	<g>
		<g>
			<g>
				<g>
					<g id="change2_26"><path fill="#3F4651" d="M416.1,127.8l0.1,0.1l0,0l0,0c1.3,1,4.1,2.4,7.4,3.3s7.3,1.4,11.1,0.4c5.9-1.6,11.4,0.2,15.2,2.5
						c3.9,2.3,6.2,5.2,6.4,5.4c0,0-0.4-2.8-2.1-6.6c-1.7-3.9-4.8-8.9-9.9-13l0,0c-1.1-0.9-3.6-2.8-7.1-3.8
						c-3.5-1.1-7.9-1.3-12.8,0.8c-5.5,2.4-9.9,2.1-13.2,1c-3.3-1.1-5.4-2.9-6.3-3.7c0,0,1,2,2.8,4.7
						C409.6,121.5,412.4,124.9,416.1,127.8z"></path></g>
				</g>
			</g>
		</g>
	</g>
	<g>
		<g>
			<g>
				<g>
					<g id="change2_27"><path fill="#3F4651" d="M395.8,104.2l0.1,0.1l0,0l0,0c1.5,0.8,4.4,1.8,7.8,2.2c3.4,0.4,7.4,0.3,11-1.3
						c5.6-2.5,11.3-1.5,15.4,0.2c4.2,1.7,7,4.2,7.1,4.3c0,0-0.8-2.7-3.1-6.3c-2.3-3.6-6.1-8-11.7-11.3l0,0c-1.2-0.7-4-2.2-7.6-2.7
						s-8-0.1-12.5,2.7c-5.1,3.2-9.5,3.5-12.9,3c-3.4-0.6-5.8-2.1-6.8-2.8c0,0,1.2,1.8,3.5,4.2C388.4,98.9,391.6,101.8,395.8,104.2z"></path></g>
				</g>
			</g>
		</g>
	</g>
	<g>
		<g>
			<g>
				<g>
					<g id="change2_28"><path fill="#3F4651" d="M372.1,83.8h0.1l0,0l0,0c1.6,0.6,4.6,1.1,8.1,1s7.4-0.8,10.7-2.9c5.2-3.3,10.9-3.2,15.3-2.1
						s7.5,3.1,7.7,3.2c0,0-1.2-2.5-4-5.7s-7.2-7-13.3-9.4l0,0c-1.3-0.6-4.3-1.6-7.9-1.5c-3.7,0-8,1.1-12,4.6
						c-4.5,3.9-8.9,4.9-12.3,4.9c-3.4-0.1-6.1-1.2-7.1-1.7c0,0,1.5,1.6,4.1,3.6C364,79.7,367.7,82.1,372.1,83.8z"></path></g>
				</g>
			</g>
		</g>
	</g>
	<g>
		<g>
			<g>
				<g>
					<g id="change2_29"><path fill="#3F4651" d="M345.7,67.3h0.1l0,0l0,0c1.6,0.3,4.7,0.4,8.1-0.3c3.4-0.6,7.2-1.9,10.1-4.5c4.6-4.1,10.3-4.8,14.8-4.4
						c4.5,0.4,7.9,2,8.1,2c0,0-1.6-2.3-4.8-5c-3.2-2.7-8.2-5.9-14.6-7.3l0,0c-1.4-0.4-4.5-0.9-8.1-0.3c-3.6,0.6-7.7,2.3-11.1,6.3
						c-3.9,4.5-8,6.2-11.4,6.7s-6.2-0.2-7.3-0.6c0,0,1.7,1.4,4.6,3C337.1,64.4,341,66.3,345.7,67.3z"></path></g>
				</g>
			</g>
		</g>
	</g>
	<g>
		<g>
			<g>
				<g>
					<g id="change2_30"><path fill="#3F4651" d="M317,54.9h0.1l0,0l0,0c1.7,0.1,4.7-0.4,8-1.5c3.3-1.2,6.8-3,9.4-6c4-4.7,9.4-6.3,14-6.6
						c4.5-0.3,8.1,0.7,8.3,0.8c0,0-1.9-2-5.5-4.3c-3.6-2.2-9-4.6-15.5-5.1l0,0c-1.4-0.1-4.5-0.2-8,0.9c-3.5,1.1-7.3,3.5-10.1,7.9
						c-3.1,5.1-7,7.3-10.3,8.3s-6.1,0.7-7.3,0.5c0,0,1.9,1.1,5,2.2C308.1,53.4,312.3,54.6,317,54.9z"></path></g>
				</g>
			</g>
		</g>
	</g>
	<g>
		<g>
			<g>
				<g>
					<g id="change2_31"><path fill="#3F4651" d="M286.9,47.1h0.1l0,0l0,0c1.7-0.2,4.6-1.1,7.7-2.7c3.1-1.6,6.3-4,8.3-7.3c3.2-5.2,8.4-7.6,12.8-8.6
						c4.5-1,8.1-0.5,8.3-0.5c0,0-2.2-1.7-6.1-3.4c-3.9-1.6-9.6-3.2-16.1-2.6l0,0c-1.4,0.1-4.5,0.5-7.8,2.1s-6.7,4.5-8.7,9.4
						c-2.4,5.5-5.8,8.3-8.9,9.8s-6,1.6-7.1,1.6c0,0,2.1,0.8,5.3,1.4C277.8,46.9,282.2,47.5,286.9,47.1z"></path></g>
				</g>
			</g>
		</g>
	</g>
	<g>
		<g>
			<g>
				<g>
					<g id="change2_32"><path fill="#3F4651" d="M255.8,43.8h0.1l0,0l0,0c1.6-0.4,4.4-1.7,7.2-3.8s5.6-4.9,7.1-8.5c2.4-5.7,7.1-8.8,11.4-10.5
						c4.3-1.6,7.9-1.7,8.2-1.7c0,0-2.5-1.4-6.6-2.4s-9.9-1.7-16.3-0.2l0,0c-1.4,0.3-4.4,1.1-7.4,3.3c-3,2.1-5.9,5.5-7.2,10.6
						c-1.5,5.8-4.5,9.1-7.3,11c-2.9,1.9-5.6,2.5-6.8,2.6c0,0,2.2,0.5,5.4,0.7C246.9,45.1,251.2,45,255.8,43.8z"></path></g>
				</g>
			</g>
		</g>
	</g>
	<g>
		<g>
			<g>
				<g>
					<g id="change2_33"><path fill="#3F4651" d="M224.6,45.3l0.1-0.1l0,0l0,0c1.5-0.7,4.1-2.4,6.5-4.8c2.4-2.5,4.8-5.7,5.8-9.5c1.5-6,5.7-9.8,9.7-12
						c3.9-2.3,7.6-2.9,7.8-2.9c0,0-2.6-1-6.8-1.4s-10.1-0.2-16.1,2.2l0,0c-1.3,0.5-4.2,1.8-6.8,4.3s-5,6.3-5.5,11.5
						c-0.6,5.9-3.1,9.6-5.6,12c-2.5,2.3-5.2,3.3-6.3,3.6c0,0,2.2,0.1,5.4-0.2C216,47.8,220.3,47.1,224.6,45.3z"></path></g>
				</g>
			</g>
		</g>
	</g>
	<g>
		<g>
			<g>
				<g>
					<g id="change2_34"><path fill="#3F4651" d="M194.1,51.4l0.1-0.1l0,0l0,0c1.4-0.9,3.7-2.9,5.7-5.8c2-2.8,3.9-6.3,4.3-10.2
						c0.6-6.1,4.2-10.6,7.8-13.4s7.1-4,7.3-4.1c0,0-2.8-0.6-7-0.4s-10,1.3-15.6,4.7l0,0c-1.2,0.7-3.9,2.4-6.1,5.3
						c-2.2,2.9-4,7-3.7,12.3c0.3,6-1.6,10-3.7,12.7c-2.1,2.7-4.6,4.1-5.7,4.5c0,0,2.2-0.2,5.4-1C185.9,55.2,190,53.9,194.1,51.4z"></path></g>
				</g>
			</g>
		</g>
	</g>
	<g>
		<g>
			<g>
				<g>
					<g id="change2_35"><path fill="#3F4651" d="M164.8,62.1L164.8,62.1l0.1-0.1l0,0c1.3-1.1,3.2-3.5,4.8-6.6s2.9-6.9,2.7-10.8
						c-0.3-6.1,2.5-11.1,5.7-14.4c3.1-3.3,6.4-5,6.6-5.1c0,0-2.8-0.2-6.9,0.7c-4.1,0.9-9.7,2.8-14.8,7l0,0c-1.1,0.9-3.5,3-5.2,6.2
						c-1.8,3.2-2.9,7.5-1.9,12.7c1.2,5.9,0,10.1-1.7,13.1s-4,4.7-5,5.4c0,0,2.1-0.5,5.2-1.8C157.3,67.1,161.2,65.1,164.8,62.1z"></path></g>
				</g>
			</g>
		</g>
	</g>
	<g>
		<g>
			<g>
				<g>
					<g id="change2_36"><path fill="#3F4651" d="M137.5,77.1L137.5,77.1l0.1-0.1l0,0c1.1-1.3,2.6-3.9,3.7-7.2c1.1-3.3,1.8-7.2,1-11.1
						c-1.3-6,0.8-11.3,3.4-15.1c2.6-3.8,5.5-5.9,5.7-6.1c0,0-2.8,0.3-6.8,1.8s-9.1,4.3-13.5,9.1l0,0c-1,1-3,3.4-4.2,6.9
						s-1.7,7.9,0.1,12.8c2.1,5.6,1.5,10,0.3,13.2c-1.2,3.2-3.2,5.3-4.1,6c0,0,2.1-0.8,4.8-2.6C130.8,83.2,134.3,80.7,137.5,77.1z"></path></g>
				</g>
			</g>
		</g>
	</g>
	<g>
		<g>
			<g>
				<g>
					<g id="change2_37"><path fill="#3F4651" d="M112.7,96.1L112.7,96.1L112.7,96.1L112.7,96.1c1-1.5,2.1-4.4,2.7-7.8c0.6-3.4,0.7-7.4-0.7-11.1
						c-2.1-5.8-0.9-11.3,1.1-15.4s4.6-6.7,4.7-6.8c0,0-2.7,0.7-6.4,2.8c-3.7,2-8.4,5.6-12,11l0,0c-0.8,1.2-2.4,3.9-3.1,7.5
						s-0.6,8,2,12.7c2.9,5.3,3,9.7,2.2,13c-0.7,3.4-2.4,5.7-3.1,6.6c0,0,1.9-1.1,4.4-3.3C107,103.1,110.1,100,112.7,96.1z"></path></g>
				</g>
			</g>
		</g>
	</g>
	<g>
		<g>
			<g>
				<g>
					<g id="change2_38"><path fill="#3F4651" d="M91,118.5L91,118.5L91,118.5L91,118.5c0.7-1.7,1.3-4.6,1.4-8.1S92,103,90.1,99.5
						c-3-5.3-2.6-11-1.2-15.4c1.3-4.3,3.5-7.3,3.7-7.5c0,0-2.6,1.1-5.9,3.7s-7.4,6.8-10.2,12.8l0,0c-0.6,1.3-1.8,4.2-2,7.8
						c-0.2,3.6,0.7,8,3.9,12.2c3.6,4.8,4.4,9.1,4.2,12.6c-0.3,3.4-1.5,6-2.1,7c0,0,1.7-1.4,3.9-3.9C86.5,126.3,89.1,122.9,91,118.5z
						"></path></g>
				</g>
			</g>
		</g>
	</g>
	<g>
		<g>
			<g>
				<g>
					<g id="change2_39"><path fill="#3F4651" d="M73,144v-0.1l0,0l0,0c0.4-1.6,0.6-4.7,0.2-8.1c-0.4-3.4-1.5-7.3-3.9-10.4c-3.8-4.9-4.2-10.5-3.5-15.1
						c0.7-4.5,2.4-7.7,2.5-7.9c0,0-2.4,1.5-5.3,4.5c-2.9,3.1-6.3,7.8-8.2,14.1l0,0c-0.4,1.4-1.2,4.4-0.8,8.1
						c0.4,3.6,1.9,7.8,5.7,11.5c4.3,4.2,5.7,8.3,6,11.8c0.3,3.4-0.6,6.1-1.1,7.2c0,0,1.5-1.7,3.2-4.4C69.7,152.4,71.7,148.6,73,144z
						"></path></g>
				</g>
			</g>
		</g>
	</g>
	<g>
		<g>
			<g>
				<g>
					<g id="change2_40"><path fill="#3F4651" d="M59,171.9v-0.1l0,0l0,0c0.2-1.7-0.1-4.7-1-8.1c-1-3.3-2.6-7-5.4-9.7c-4.5-4.2-5.7-9.8-5.8-14.3
						c0-4.6,1.2-8,1.3-8.2c0,0-2.2,1.8-4.6,5.3c-2.4,3.5-5.1,8.7-5.9,15.2l0,0c-0.2,1.4-0.5,4.5,0.4,8.1c0.9,3.5,3,7.5,7.4,10.5
						c4.9,3.4,6.9,7.4,7.8,10.7c0.8,3.4,0.4,6.2,0.1,7.3c0,0,1.2-1.9,2.5-4.8C57,180.7,58.5,176.6,59,171.9z"></path></g>
				</g>
			</g>
		</g>
	</g>
	<g>
		<g>
			<g>
				<g>
					<g id="change2_41"><path fill="#3F4651" d="M49.9,197.9v-0.1l0,0l0,0c-0.1-1.7-0.8-4.7-2.2-7.8c-1.5-3.1-3.6-6.5-6.9-8.7c-5-3.5-7.2-8.8-7.9-13.3
						s0-8.1,0-8.3c0,0-1.9,2.1-3.7,5.9c-1.9,3.8-3.7,9.4-3.6,15.9l0,0c0,1.4,0.2,4.6,1.7,7.9c1.4,3.4,4.1,6.9,8.9,9.2
						c5.4,2.7,8,6.3,9.3,9.4c1.3,3.2,1.3,6,1.2,7.2c0,0,0.9-2,1.8-5.2C49.3,206.9,50.1,202.6,49.9,197.9z"></path></g>
				</g>
			</g>
		</g>
	</g>
	<g>
		<g>
			<g>
				<g>
					<g id="change2_42"><path fill="#3F4651" d="M45,224.9v-0.1l0,0l0,0c-0.4-1.6-1.5-4.5-3.4-7.4s-4.6-5.9-8.1-7.6c-5.5-2.7-8.4-7.6-9.8-11.9
						c-1.4-4.3-1.3-8-1.3-8.2c0,0-1.5,2.4-2.8,6.4s-2.2,9.8-1.1,16.3l0,0c0.2,1.4,0.9,4.5,2.8,7.6s5.1,6.2,10.2,7.8
						c5.7,1.8,8.8,5,10.6,7.9c1.8,3,2.2,5.8,2.2,7c0,0,0.6-2.1,0.9-5.4C45.7,233.9,45.9,229.6,45,224.9z"></path></g>
				</g>
			</g>
		</g>
	</g>
</g>
</svg>