<?xml version="1.0" encoding="utf-8"?><!DOCTYPE svg PUBLIC "-//W3C//DTD SVG 1.1//EN" "http://www.w3.org/Graphics/SVG/1.1/DTD/svg11.dtd">
<svg version="1.1" id="Layer_1" xmlns="http://www.w3.org/2000/svg" xmlns:xlink="http://www.w3.org/1999/xlink" x="0px" y="0px" viewBox="0 0 500 501" enable-background="new 0 0 500 501" xml:space="preserve">
<g>
	<g>
		<g>
			<g>
				<g>
					<g id="change1_1"><path fill="#FFFFFF" d="M3.8,267.7c2.8,3.6,7,7.2,13.2,8.6c2.8,0.7,5.7,2.4,8.5,5c2.5,2.4,4,4.6,4.5,5.6c0,0.1,0.1,0.1,0.1,0.2
						c0.6,1.5,1.2,3,1.7,4.7c-3.2-2.1-7-3.3-11.3-3.6c-4-0.3-7.4-1.9-10.1-4.6c-2.5-2.5-3.6-5.2-4-6C4.8,274,4.1,270.6,3.8,267.7
						 M1.6,254.5c0,0-1,2.8-1.3,7.3c-0.3,4.5,0,10.7,2.7,17.1c0.5,1.4,2,4.4,4.7,7.2c2.8,2.7,6.8,5.2,12.4,5.7
						c6.3,0.5,10.3,3,12.9,5.7c2.5,2.6,3.6,5.4,4,6.7c0,0,0.1-2.3-0.3-5.8c-0.4-3.5-1.3-8-3.3-12.6l0-0.1l0,0v0
						c-0.8-1.6-2.6-4.3-5.3-6.9c-2.7-2.5-6.1-5-10.2-6c-6.4-1.5-10.5-5.9-13-10C2.4,258.6,1.6,254.7,1.6,254.5L1.6,254.5z"></path></g>
				</g>
			</g>
		</g>
	</g>
	<g>
		<g>
			<g>
				<g>
					<g id="change1_2"><path fill="#FFFFFF" d="M3.6,234.9c2.5,3.7,6.5,7.6,12.6,9.5c2.8,0.9,5.6,2.7,8.2,5.6c2.1,2.3,3.6,4.8,4.1,6
						c0,0.1,0,0.1,0.1,0.2c0.5,1.5,1,3.1,1.3,4.7c-3.1-2.3-6.8-3.7-11.1-4.4c-4-0.6-7.3-2.4-9.8-5.3c-2.1-2.4-3.1-4.9-3.6-6.3
						C4.1,241.4,3.7,237.9,3.6,234.9 M2.2,221.7L2.2,221.7L2.2,221.7L2.2,221.7z M2.2,221.7c0,0.1-1.2,2.8-1.8,7.2
						c-0.6,4.5-0.7,10.7,1.6,17.3c0.5,1.4,1.7,4.5,4.3,7.5c2.6,2.9,6.4,5.6,12,6.5c6.3,1,10.1,3.7,12.5,6.5c2.4,2.8,3.3,5.7,3.5,6.9
						c0,0,0.3-2.3,0.1-5.8c-0.2-3.5-0.7-8.1-2.4-12.8l0-0.1v0h0c-0.6-1.7-2.3-4.5-4.8-7.2c-2.5-2.7-5.8-5.4-9.8-6.6
						c-6.3-1.9-10.1-6.6-12.3-10.9C2.7,225.8,2.2,221.9,2.2,221.7L2.2,221.7z"></path></g>
				</g>
			</g>
		</g>
	</g>
	<g>
		<g>
			<g>
				<g>
					<g id="change1_3"><path fill="#FFFFFF" d="M9.4,303.2c3.3,3.1,8,6.1,14.3,6.6c2.9,0.2,6,1.5,9.2,3.7c2.5,1.7,4.4,3.7,5.2,4.8
						c0,0.1,0.1,0.2,0.1,0.2c0.9,1.4,1.6,2.8,2.3,4.4c-2.9-1.3-6.1-1.9-9.7-1.9c-0.7,0-1.3,0-2.1,0.1c-0.4,0-0.9,0-1.3,0
						c-3.5,0-6.7-1-9.5-3.1c-2.5-1.9-4.1-4.1-4.8-5.3C11.3,309.3,10.1,306.1,9.4,303.2 M5.2,290.5L5.2,290.5L5.2,290.5L5.2,290.5z
						 M5.2,290.5c0,0-0.6,2.9-0.2,7.4c0.3,4.5,1.6,10.6,5.3,16.5c0.8,1.3,2.7,4.1,5.8,6.4c2.8,2.1,6.7,3.8,11.6,3.8
						c0.5,0,1,0,1.5-0.1c0.6,0,1.2-0.1,1.8-0.1c5.4,0,9.1,1.7,11.8,3.7c2.9,2.2,4.4,4.8,4.9,6c0,0-0.2-2.3-1.2-5.7
						c-0.9-3.4-2.5-7.7-5.2-12l-0.1-0.1l0,0h0c-1-1.5-3.3-3.8-6.3-6c-3-2.1-6.8-4-11-4.3c-6.5-0.5-11.3-4.2-14.4-8
						C6.6,294.4,5.3,290.7,5.2,290.5L5.2,290.5z"></path></g>
				</g>
			</g>
		</g>
	</g>
	<g>
		<g>
			<g>
				<g>
					<g id="change1_4"><path fill="#FFFFFF" d="M18.5,336.6c3.3,2.3,7.8,4.3,13.4,4.3c0.6,0,1.2,0,1.7-0.1c0.3,0,0.6,0,0.9,0c2.7,0,5.7,0.8,8.8,2.3
						c2.8,1.4,5.1,3.1,6,4.1l0,0c0,0,0,0,0.1,0.1c1.1,1.2,2.1,2.5,3,4c-1.9-0.5-3.9-0.8-5.9-0.8c-1.9,0-3.9,0.2-6,0.7
						c-1.3,0.3-2.5,0.4-3.8,0.4c-2.5,0-5-0.6-7.3-1.8c-3.1-1.6-5-3.8-5.6-4.6C21.3,342.4,19.6,339.3,18.5,336.6 M12.3,324.7
						L12.3,324.7L12.3,324.7L12.3,324.7z M12.3,324.7c0,0-0.1,3,0.9,7.4c1,4.4,3.2,10.2,7.7,15.5c0.9,1.2,3.2,3.6,6.7,5.4
						c2.4,1.3,5.5,2.2,9,2.2c1.4,0,3-0.2,4.6-0.5c1.9-0.4,3.6-0.6,5.2-0.6c3.6,0,6.5,1,8.8,2.2c3.2,1.8,5.1,4.1,5.8,5.2
						c0,0-0.6-2.3-2-5.4c-1.4-3.2-3.6-7.3-6.9-11.1l-0.1-0.1l0,0c-1.2-1.3-3.8-3.3-7.1-4.9c-3-1.5-6.6-2.7-10.4-2.7
						c-0.4,0-0.8,0-1.2,0c-0.5,0-1,0.1-1.5,0.1c-5.9,0-10.6-2.8-13.9-5.8C14.3,328.3,12.4,324.9,12.3,324.7L12.3,324.7z"></path></g>
				</g>
			</g>
		</g>
	</g>
	<g>
		<g>
			<g>
				<g>
					<g id="change1_5"><path fill="#FFFFFF" d="M34.1,370.5c2.8,1.4,6.4,2.5,10.6,2.5c1.7,0,3.4-0.2,5-0.6c1-0.2,2.1-0.3,3.2-0.3
						c2.1,0,4.3,0.4,6.7,1.1c3.1,1,5.5,2.3,6.6,3.2c1.2,1.1,2.4,2.2,3.6,3.5c-0.8-0.1-1.6-0.1-2.5-0.1c-3,0-6.1,0.6-9.3,1.9
						c-2,0.8-4,1.2-6,1.2c-1.7,0-3.4-0.3-5.1-0.9c-2.9-1-5-2.6-6.1-3.5c-0.1-0.1-0.1-0.1-0.2-0.2C37.8,375.8,35.6,373,34.1,370.5
						 M26.3,359.7c0,0,0.3,3,2,7.1c1.7,4.2,4.7,9.6,10,14.2h0c1.1,1,3.7,3.1,7.4,4.3c1.9,0.6,4,1.1,6.3,1.1c2.3,0,4.7-0.4,7.3-1.4
						c3-1.2,5.6-1.6,8-1.6c2.3,0,4.3,0.4,6.1,1.1c3.4,1.2,5.7,3.3,6.5,4.2c0,0-0.9-2.1-2.8-5.1c-1.9-2.9-4.7-6.6-8.5-9.9l-0.1-0.1
						l0,0c-1.4-1.1-4.2-2.7-7.8-3.8c-2.4-0.7-5-1.3-7.8-1.3c-1.3,0-2.7,0.1-4,0.4c-1.5,0.3-2.9,0.5-4.2,0.5c-4.6,0-8.7-1.7-11.9-3.8
						C28.8,363,26.4,359.8,26.3,359.7L26.3,359.7z"></path></g>
				</g>
			</g>
		</g>
	</g>
	<g>
		<g>
			<g>
				<g>
					<g id="change1_6"><path fill="#FFFFFF" d="M76.4,400.2c1.2,0,2.6,0.1,3.9,0.3c3.1,0.5,5.8,1.5,7,2.1c0,0,0.1,0,0.1,0.1v0c1.4,0.8,2.7,1.8,4,2.9
						c-3.8,0.1-7.6,1.3-11.4,3.5c-2.6,1.5-5.3,2.2-8.1,2.2c-1,0-1.9-0.1-2.9-0.3c-3.3-0.6-5.7-2-6.7-2.7c-3.2-2-5.7-4.4-7.6-6.7
						c2.5,0.8,5,1.2,7.4,1.2c2.9,0,5.7-0.5,8.3-1.6C72.2,400.5,74.2,400.2,76.4,400.2 M45.3,392.1c0,0,0.8,2.9,3.1,6.8
						c2.3,3.9,6.1,8.8,12,12.5c1.3,0.8,4.2,2.5,8,3.2c1.1,0.2,2.3,0.3,3.5,0.3c3,0,6.4-0.7,9.9-2.7c3.9-2.2,7.4-3,10.4-3
						c1.2,0,2.4,0.1,3.4,0.3c3.6,0.7,6.1,2.4,7.1,3.2c0,0-1.3-2-3.5-4.6c-2.3-2.6-5.6-5.8-9.9-8.5l-0.1-0.1l0,0
						c-1.5-0.9-4.6-2-8.2-2.6c-1.4-0.2-2.9-0.4-4.5-0.4c-2.4,0-4.9,0.3-7.3,1.3c-2.4,0.9-4.7,1.3-7,1.3c-3.5,0-6.7-0.9-9.4-2.2
						C48.3,395,45.5,392.3,45.3,392.1L45.3,392.1z"></path></g>
				</g>
			</g>
		</g>
	</g>
	<g>
		<g>
			<g>
				<g>
					<g id="change1_7"><path fill="#FFFFFF" d="M104.9,424.3c3.2,0,6,0.6,7.2,1.1c0,0,0.1,0,0.1,0v0c1.5,0.6,3,1.4,4.4,2.3c-3.7,0.7-7.3,2.4-10.7,5.1
						c-3,2.4-6.4,3.6-10,3.6l-0.5,0c-3.6-0.1-6.4-1.3-6.9-1.6c-0.2-0.1-0.3-0.1-0.5-0.2c-3.3-1.5-6.1-3.5-8.2-5.4
						c1.3,0.2,2.6,0.3,3.9,0.3c4.2,0,8.1-1,11.6-3.1C97.7,425.1,101,424.3,104.9,424.3 M104.9,420.7c-3.7,0-7.9,0.6-11.5,2.7
						c-3.2,1.9-6.6,2.6-9.8,2.6c-2.4,0-4.6-0.4-6.6-1c-4.6-1.3-7.8-3.6-8-3.7c0,0,1.2,2.7,4,6.2c2.8,3.5,7.4,7.7,13.8,10.6v0
						c1.4,0.7,4.5,1.8,8.4,2c0.2,0,0.4,0,0.6,0c3.8,0,8.1-1.1,12.3-4.4c4.6-3.7,8.9-4.7,12.4-4.7c0.3,0,0.6,0,0.8,0
						c3.7,0.2,6.4,1.5,7.5,2.1c0,0-1.5-1.8-4.2-4c-2.7-2.2-6.4-4.9-11.1-6.9l-0.1-0.1l0,0v0C111.8,421.4,108.6,420.8,104.9,420.7
						L104.9,420.7z"></path></g>
				</g>
			</g>
		</g>
	</g>
	<g>
		<g>
			<g>
				<g>
					<g id="change1_8"><path fill="#FFFFFF" d="M136.8,444c1.8,0,2.8,0.2,3.1,0.3c0.1,0,0.1,0,0.2,0.1c1.6,0.4,3.1,0.9,4.7,1.6
						c-3.6,1.3-6.9,3.5-9.8,6.7c-2.7,2.9-6,4.7-9.9,5.2c-0.7,0.1-1.5,0.1-2.1,0.1c-2.4,0-4.3-0.5-5.1-0.7c-3.7-1-6.8-2.5-9.3-4.2
						c5.6,0,10.8-1.8,14.9-5.1c2.3-1.8,5.4-3,9.2-3.6C134.1,444.1,135.5,444,136.8,444 M136.8,440.4c-1.4,0-2.9,0.1-4.6,0.3
						c-3.6,0.5-7.7,1.8-11,4.4c-4,3.2-8.6,4.3-12.7,4.3c-1.1,0-2.2-0.1-3.2-0.2c-4.8-0.6-8.3-2.4-8.5-2.5c0,0,1.6,2.5,4.9,5.6
						c3.3,3,8.5,6.6,15.2,8.4c1.1,0.3,3.3,0.8,6,0.8c0.8,0,1.7,0,2.6-0.2c3.9-0.5,8.3-2.2,12.1-6.3c4.3-4.7,8.8-6.3,12.4-6.6
						c0.6-0.1,1.2-0.1,1.8-0.1c2.8,0,4.9,0.7,5.9,1c0,0-1.8-1.5-4.7-3.3c-3-1.8-7.1-3.9-12-5.2l-0.1,0l0,0
						C139.9,440.5,138.5,440.4,136.8,440.4L136.8,440.4z M96.8,446.7L96.8,446.7L96.8,446.7L96.8,446.7L96.8,446.7z"></path></g>
				</g>
			</g>
		</g>
	</g>
	<g>
		<g>
			<g>
				<g>
					<g id="change1_9"><path fill="#FFFFFF" d="M169.9,458.6c0.2,0,0.4,0,0.6,0c0.1,0,0.1,0,0.2,0c1.6,0.2,3.2,0.4,4.9,0.8c-3.3,1.8-6.3,4.5-8.7,8.1
						c-2.2,3.3-5.2,5.5-9,6.6c-1.6,0.4-3.3,0.7-5,0.7c-0.9,0-1.6-0.1-2.1-0.1c-0.1,0-0.2,0-0.3,0c-3.7-0.4-6.9-1.5-9.6-2.7
						c4.5-0.7,9.7-2.6,13.9-7.3c2-2.2,4.9-3.8,8.6-5C166.7,458.7,169.2,458.6,169.9,458.6L169.9,458.6 M169.9,455
						c-1.9,0-4.6,0.4-7.6,1.3c-3.5,1.1-7.4,2.9-10.2,6c-4.4,4.8-10.3,6.3-15.1,6.4c-0.2,0-0.4,0-0.6,0c-4.5,0-7.9-1.1-8.1-1.2
						c0,0,1.9,2.2,5.7,4.7c3.8,2.5,9.4,5.2,16.3,6l0,0c0.6,0.1,1.5,0.2,2.6,0.2c1.6,0,3.7-0.2,6-0.8c3.7-1.1,7.9-3.4,11-8
						c3.6-5.3,7.7-7.5,11.2-8.5c1.6-0.4,3.1-0.6,4.4-0.6c1.5,0,2.7,0.2,3.3,0.3c0,0-2-1.2-5.2-2.6c-3.2-1.3-7.6-2.8-12.6-3.3l-0.1,0
						l0,0v0C170.5,455,170.2,455,169.9,455L169.9,455z"></path></g>
				</g>
			</g>
		</g>
	</g>
	<g>
		<g>
			<g>
				<g>
					<g id="change1_10"><path fill="#FFFFFF" d="M204.8,468.1c1,0,2,0,3.1,0.1c-3,2.3-5.5,5.4-7.4,9.4c-1.7,3.6-4.4,6.3-7.9,7.9c-3.2,1.5-6.1,1.6-7,1.6
						c-0.4,0-0.9,0-1.3,0c-3.3,0-6.3-0.5-8.8-1.2c5.3-1.7,9.8-4.9,12.7-9.3c1.6-2.4,4.2-4.5,7.7-6.2c2.8-1.4,5.6-2.1,7-2.2
						C203.5,468.2,204.1,468.1,204.8,468.1 M204.8,464.5c-0.7,0-1.4,0-2.1,0.1l-0.1,0h0c-1.8,0.1-4.9,0.9-8.3,2.6
						c-3.3,1.6-6.8,4-9.1,7.5c-3.6,5.4-9.2,7.8-14,8.6c-1.9,0.3-3.6,0.4-5.1,0.4c-2.2,0-3.7-0.2-3.8-0.3c0,0,2.3,1.9,6.4,3.8
						c3.8,1.8,9.2,3.5,15.6,3.5c0.5,0,1,0,1.5,0c1.5,0,4.8-0.3,8.4-1.9c3.5-1.6,7.3-4.5,9.6-9.6c2.7-5.7,6.5-8.6,9.8-10.1
						c2.7-1.2,5.2-1.4,6.8-1.4c0.3,0,0.6,0,0.9,0c0,0-2.2-0.9-5.5-1.8C212.7,465.2,208.9,464.5,204.8,464.5L204.8,464.5z
						 M162.3,483.4L162.3,483.4L162.3,483.4L162.3,483.4L162.3,483.4z"></path></g>
				</g>
			</g>
		</g>
	</g>
	<g>
		<g>
			<g>
				<g>
					<g id="change1_11"><path fill="#FFFFFF" d="M241.2,472.1c-2.7,2.7-4.6,6.2-5.9,10.4c-1.4,4.8-4.4,7.5-6.6,9c-2.6,1.7-5.3,2.4-6.7,2.7
						c-2,0.4-4.1,0.6-6.1,0.6c-1.4,0-2.8-0.1-4-0.2c5-2.5,8.9-6.3,11.1-11.1c1.3-2.7,3.5-5.1,6.7-7.3c2.6-1.8,5.2-2.9,6.5-3.2l0,0
						c0,0,0.1,0,0.1,0C237.8,472.4,239.5,472.2,241.2,472.1 M244,468.4c-2.6,0-5.5,0.2-8.5,0.8l-0.1,0h0c-1.7,0.4-4.7,1.7-7.8,3.8
						c-3.1,2.1-6.1,5-7.9,8.8c-2.8,5.9-7.9,9.1-12.5,10.7c-4.4,1.5-8.2,1.5-8.7,1.5c0,0,0,0,0,0c0,0,2.6,1.6,6.9,2.8
						c2.8,0.8,6.4,1.5,10.5,1.5c2.2,0,4.5-0.2,6.8-0.6c1.5-0.3,4.7-1.1,8-3.2c3.3-2.1,6.5-5.6,8.1-11c1.8-6.1,5.1-9.5,8.2-11.4
						c3.1-1.9,6.1-2.4,7.3-2.5c0,0-2.3-0.6-5.7-0.9C247.2,468.5,245.6,468.4,244,468.4L244,468.4z M198.4,494L198.4,494L198.4,494
						L198.4,494L198.4,494z"></path></g>
				</g>
			</g>
		</g>
	</g>
	<g>
		<g>
			<g>
				<g>
					<g id="change1_12"><path fill="#FFFFFF" d="M274.7,470.9c-2.2,3.1-3.7,6.8-4.3,11.1c-0.6,4-2.3,7.3-5.2,9.9c-2.5,2.2-5.1,3.2-6.2,3.6
						c-3.2,1.1-6.5,1.8-10,1.9c3.7-2.6,7.5-6.6,9.3-12.7c0.8-2.8,2.7-5.6,5.5-8.2c2.3-2.1,4.7-3.7,6-4.1c0,0,0.1,0,0.1,0
						C271.5,471.7,273.1,471.3,274.7,470.9 M284.3,466.3c-0.8,0-1.8,0-2.8,0.1c-3.5,0.2-8.1,0.8-12.8,2.6l-0.1,0l0,0
						c-1.6,0.6-4.4,2.4-7.1,4.9c-2.7,2.5-5.3,5.8-6.5,9.8c-1.9,6.3-6.5,10.2-10.8,12.4c-4.3,2.2-8.2,2.8-8.4,2.8
						c0,0,2.7,1.1,7.2,1.7c1.5,0.2,3.1,0.3,4.9,0.3c3.7,0,7.9-0.5,12.3-2.1c1.5-0.5,4.5-1.7,7.4-4.3c2.9-2.6,5.6-6.5,6.4-12.1
						c0.9-6.3,3.6-10.1,6.4-12.5c2.8-2.4,5.6-3.3,6.9-3.6C287.3,466.4,286.2,466.3,284.3,466.3L284.3,466.3z M235.8,498.9
						L235.8,498.9L235.8,498.9L235.8,498.9L235.8,498.9z"></path></g>
				</g>
			</g>
		</g>
	</g>
	<g>
		<g>
			<g>
				<g>
					<g id="change1_13"><path fill="#FFFFFF" d="M307.7,464.7c-1.7,3.4-2.6,7.3-2.5,11.6c0.1,4-1.2,7.6-3.7,10.5c-2.1,2.6-4.6,4-5.6,4.5
						c-3.4,1.8-6.7,2.8-9.6,3.3c3.3-3.1,6.5-7.6,7.4-13.9c0.4-2.9,1.8-5.9,4.2-9c2-2.5,4.1-4.3,5.3-5l0,0c0,0,0.1,0,0.1,0
						C304.6,466,306.1,465.3,307.7,464.7 M319.4,458.3L319.4,458.3L319.4,458.3z M319.4,458.3c0,0-2.3,0.1-5.7,0.8
						c-3.4,0.7-7.8,2-12.2,4.4l-0.1,0.1l0,0c-1.5,0.9-4,3-6.3,5.9c-2.3,2.9-4.4,6.6-4.9,10.7c-0.9,6.5-4.9,11-8.8,13.9
						c-3.9,2.9-7.7,4-7.9,4h0c0.1,0,2.6,0.6,6.7,0.6c0.2,0,0.5,0,0.7,0c4.5-0.1,10.7-1,16.8-4.3c1.3-0.7,4.2-2.4,6.7-5.4
						c2.5-3,4.6-7.2,4.5-12.9c-0.1-6.3,2.1-10.6,4.4-13.4C315.5,460.1,318.3,458.8,319.4,458.3L319.4,458.3z M273.4,498.2
						L273.4,498.2L273.4,498.2L273.4,498.2z"></path></g>
				</g>
			</g>
		</g>
	</g>
	<g>
		<g>
			<g>
				<g>
					<g id="change1_14"><path fill="#FFFFFF" d="M339.3,453.5c-1.2,3.6-1.5,7.6-0.8,11.9c0.7,4,0,7.7-2,11c-1.8,3-4.1,4.8-4.9,5.3
						c-3.1,2.3-6.2,3.8-9,4.8c2.8-3.6,5.3-8.5,5.1-14.9c-0.1-3.7,1.5-7.2,2.8-9.5c1.5-2.6,3.3-4.7,4.3-5.7c0.1,0,0.1-0.1,0.2-0.1
						C336.5,455.3,337.8,454.4,339.3,453.5 M349.9,445.5L349.9,445.5L349.9,445.5z M349.9,445.5c0,0-2.3,0.5-5.5,1.7
						c-3.3,1.2-7.5,3.2-11.4,6.3l-0.1,0.1l0,0c-1.4,1.1-3.5,3.6-5.3,6.8c-1.8,3.2-3.3,7.2-3.3,11.3c0.1,6.5-3.1,11.7-6.6,15.1
						c-3.4,3.4-7,5.1-7.2,5.2c0,0,0.6,0.1,1.6,0.1c1.3,0,3.3-0.1,5.8-0.5c4.4-0.8,10.4-2.6,15.9-6.8c1.2-0.9,3.8-3,5.8-6.3
						c2-3.3,3.4-7.9,2.5-13.4c-1-6.3,0.4-10.7,2.4-13.9C346.4,447.9,348.8,446.1,349.9,445.5L349.9,445.5z"></path></g>
				</g>
			</g>
		</g>
	</g>
	<g>
		<g>
			<g>
				<g>
					<g id="change1_15"><path fill="#FFFFFF" d="M368.9,437.7c-0.6,3.7-0.3,7.7,1.1,11.9c1.2,3.8,1.1,7.5-0.3,11.1c-1.3,3.1-3.2,5.2-4,6
						c-2.7,2.7-5.5,4.7-8.2,6.1c2.7-4.9,3.7-10.3,2.8-15.5c-0.5-2.9,0-6.2,1.3-9.8c1.1-3,2.6-5.4,3.5-6.4c0,0,0,0,0,0
						c0,0,0,0,0.1-0.1C366.3,439.9,367.5,438.8,368.9,437.7 M378.2,428.1c0,0-2.2,0.8-5.2,2.5c-3,1.7-6.9,4.3-10.4,7.9l-0.1,0.1l0,0
						h0c-1.2,1.3-2.9,4.1-4.3,7.5c-1.3,3.4-2.2,7.6-1.5,11.7c1.1,6.5-1.3,12-4.2,15.9c-2.9,3.9-6.1,6.1-6.3,6.2c0,0,3-0.2,7.2-1.6
						c4.3-1.4,9.9-4.2,14.7-9.2c1.1-1.1,3.3-3.6,4.8-7.2c1.5-3.6,2.2-8.3,0.4-13.6c-2-6.1-1.2-10.7,0.2-14.1
						C375,431,377.2,428.9,378.2,428.1L378.2,428.1L378.2,428.1z M346.2,480L346.2,480L346.2,480L346.2,480z"></path></g>
				</g>
			</g>
		</g>
	</g>
	<g>
		<g>
			<g>
				<g>
					<g id="change1_16"><path fill="#FFFFFF" d="M395.7,417.6c-0.1,3.8,0.9,7.7,2.8,11.6c2.3,4.5,2,8.5,1.4,11.1c-0.8,3.4-2.5,5.8-3,6.5
						c-0.1,0.1-0.2,0.2-0.2,0.3c-2.2,3-4.6,5.2-7,7c1.6-4.2,2.4-9.7,0.5-15.7c-0.9-2.8-1-6.1-0.2-9.9c0.7-3,1.7-5.6,2.5-6.7
						c0-0.1,0.1-0.1,0.1-0.2l0,0C393.6,420.1,394.6,418.9,395.7,417.6 M403.5,406.7c0,0-2.1,1.2-4.8,3.3c-2.8,2.1-6.2,5.3-9.1,9.4
						l-0.1,0.1l0,0v0c-1,1.5-2.3,4.5-3.1,8.1c-0.8,3.6-1,7.8,0.3,11.8c2.1,6.2,0.5,12.1-1.8,16.3c-2.3,4.3-5.1,6.9-5.3,7.1
						c0,0,2.9-0.6,6.9-2.7c4-2.1,9.1-5.6,13.2-11.3h0c0.9-1.2,2.7-4,3.6-7.8c0.9-3.8,0.9-8.5-1.6-13.5c-2.9-5.7-2.8-10.4-1.9-13.9
						C400.8,410.1,402.7,407.7,403.5,406.7L403.5,406.7L403.5,406.7z"></path></g>
				</g>
			</g>
		</g>
	</g>
	<g>
		<g>
			<g>
				<g>
					<g id="change1_17"><path fill="#FFFFFF" d="M419.3,393.7c0.5,3.8,2,7.4,4.5,11c2.3,3.3,3.3,6.9,3,10.7c-0.3,3.5-1.6,6.1-2,6.9
						c-1.7,3.4-3.9,6.1-6,8.2c1.1-5.5,0.5-10.9-1.9-15.6c-1.3-2.6-1.9-5.9-1.7-9.8c0.2-3.2,0.9-5.9,1.5-7.1l0,0
						c0-0.1,0.1-0.1,0.1-0.2C417.5,396.4,418.4,395.1,419.3,393.7 M425.3,381.8L425.3,381.8L425.3,381.8z M425.3,381.8
						c0,0-1.9,1.4-4.2,4c-2.4,2.5-5.3,6.1-7.6,10.6l0,0.1l0,0v0c-0.8,1.6-1.6,4.8-1.8,8.4c-0.2,3.7,0.2,7.9,2,11.6
						c3,5.8,2.3,11.9,0.7,16.4c-1.6,4.6-4,7.6-4.2,7.8c0,0,2.8-1.1,6.4-3.7c3.7-2.6,8.2-6.9,11.3-13.1c0.7-1.3,2.1-4.4,2.4-8.2
						c0.3-3.9-0.4-8.6-3.6-13.1c-3.7-5.2-4.3-9.9-3.9-13.5C423.2,385.5,424.6,382.8,425.3,381.8L425.3,381.8z M410.2,440.8
						L410.2,440.8L410.2,440.8L410.2,440.8z"></path></g>
				</g>
			</g>
		</g>
	</g>
	<g>
		<g>
			<g>
				<g>
					<g id="change1_18"><path fill="#FFFFFF" d="M439,366.5c1,3.6,3.1,7.1,6.1,10.2c2.8,2.9,4.3,6.3,4.6,10.2c0.2,3.3-0.6,6.1-1,7.2
						c-1.2,3.6-2.9,6.7-4.7,9.1c0.3-5.6-1.1-10.9-4.2-15.2c-1.7-2.4-2.7-5.6-3.1-9.4c-0.3-3,0-5.7,0.3-7.1c0-0.1,0.1-0.2,0.1-0.3
						C437.6,369.6,438.3,368.1,439,366.5 M443.2,353.8L443.2,353.8L443.2,353.8z M443.2,353.8c0,0-1.6,1.7-3.6,4.6
						c-2,2.9-4.3,6.9-5.8,11.7l0,0.1l0,0c-0.5,1.7-0.9,4.9-0.5,8.6c0.3,3.7,1.3,7.8,3.8,11.2c3.8,5.3,4,11.4,3.1,16.1
						c-0.9,4.7-2.8,8.1-2.9,8.3c0,0,2.6-1.5,5.8-4.6c3.2-3.1,7-8.1,9.2-14.7c0.5-1.4,1.4-4.6,1.1-8.5c-0.3-3.9-1.7-8.4-5.6-12.4
						c-4.4-4.6-5.8-9.1-5.9-12.8C441.6,357.8,442.6,355,443.2,353.8L443.2,353.8z M437.1,414.5L437.1,414.5L437.1,414.5L437.1,414.5
						z"></path></g>
				</g>
			</g>
		</g>
	</g>
	<g>
		<g>
			<g>
				<g>
					<g id="change1_19"><path fill="#FFFFFF" d="M454.3,336.7c1.6,3.4,4.1,6.5,7.6,9.2c3.2,2.4,5.2,5.6,6.1,9.3c0.7,3.2,0.3,6.1,0.1,7.1
						c0,0.1,0,0.2,0,0.4c-0.7,3.6-1.9,6.8-3.2,9.3c-0.5-5.6-2.8-10.6-6.4-14.4c-2.1-2.1-3.6-5.1-4.5-8.8c-0.8-3.1-0.9-5.9-0.7-7.2
						c0-0.1,0-0.1,0-0.2l0,0C453.5,339.9,453.9,338.3,454.3,336.7 M456.6,323.6L456.6,323.6L456.6,323.6z M456.6,323.6
						c0,0-1.4,1.9-2.9,5c-1.5,3.1-3.2,7.4-4,12.4l0,0.2v0c-0.3,1.8-0.1,5,0.8,8.6c0.9,3.6,2.5,7.5,5.4,10.5
						c4.5,4.7,5.7,10.6,5.5,15.5c-0.2,4.8-1.6,8.5-1.7,8.7c0,0,2.3-1.8,5.1-5.4c2.7-3.6,5.8-9,6.9-15.9h0c0.3-1.5,0.7-4.8-0.1-8.6
						c-0.8-3.8-2.9-8.1-7.4-11.4c-5-3.9-7.1-8.1-7.8-11.7C455.6,327.7,456.2,324.8,456.6,323.6L456.6,323.6z"></path></g>
				</g>
			</g>
		</g>
	</g>
	<g>
		<g>
			<g>
				<g>
					<g id="change1_20"><path fill="#FFFFFF" d="M465,304.9c2.1,3.2,5.1,5.8,8.9,7.9c3.5,1.9,6,4.7,7.4,8.3c1.2,3.1,1.2,5.9,1.2,7.1
						c-0.1,3.8-0.8,7.2-1.8,10c-1.1-4.4-3.5-9.4-8.6-13.2c-2.3-1.8-4.3-4.5-5.8-8.1c-1.4-3.3-1.8-6-1.8-7.1l0,0c0,0,0,0,0-0.1
						C464.6,308.3,464.8,306.6,465,304.9 M465.2,291.6L465.2,291.6L465.2,291.6z M465.2,291.6c0,0-1,2.1-2.1,5.4
						c-1,3.3-2.1,7.8-2.1,12.9v0.1v0v0c0,1.8,0.7,5,2.1,8.4c1.4,3.4,3.6,7,6.9,9.6c5.2,3.9,7.3,9.6,7.8,14.5
						c0.6,4.8-0.3,8.6-0.3,8.8c0,0,2.1-2.2,4.2-6.1c2.1-4,4.3-9.8,4.4-16.8c0.1-1.5,0-4.8-1.4-8.5c-1.4-3.6-4.1-7.5-9.1-10.2
						c-5.6-3-8.2-7-9.5-10.4C464.9,295.8,465,292.8,465.2,291.6L465.2,291.6z M477.5,351.2L477.5,351.2L477.5,351.2L477.5,351.2z"></path></g>
				</g>
			</g>
		</g>
	</g>
	<g>
		<g>
			<g>
				<g>
					<g id="change1_21"><path fill="#FFFFFF" d="M470.7,271.9c2.6,2.8,5.9,5,10,6.5c4.7,1.7,7.3,4.8,8.6,7.1c1.6,2.7,2.1,5.4,2.3,6.8
						c0.5,3.8,0.3,7.3-0.2,10.2c-2.2-5.2-5.8-9.3-10.5-11.8c-2.6-1.4-4.9-3.8-6.9-7.1c-1.7-2.7-2.6-5.4-2.8-6.7l0,0
						c0-0.1,0-0.1,0-0.1C470.9,275.2,470.7,273.6,470.7,271.9 M468.9,258.6c0,0-0.7,2.2-1.2,5.7c-0.5,3.4-0.9,8.1-0.1,13.1l0,0.1v0
						c0.3,1.8,1.4,4.8,3.3,8c1.9,3.2,4.6,6.4,8.3,8.4c5.8,3.1,8.7,8.4,9.9,13.1c1.3,4.7,1,8.6,1,8.8c0,0,1.7-2.4,3.2-6.7
						c1.5-4.2,2.8-10.4,1.8-17.3c-0.2-1.5-0.8-4.8-2.7-8.2c-1.9-3.4-5.2-6.8-10.5-8.7c-6-2.2-9.2-5.6-11-8.8
						C469.2,262.9,468.9,259.9,468.9,258.6L468.9,258.6z"></path></g>
				</g>
			</g>
		</g>
	</g>
	<g>
		<g>
			<g>
				<g>
					<g id="change1_22"><path fill="#FFFFFF" d="M471.4,238.3c2.9,2.4,6.6,4,10.9,4.9c3.9,0.8,7.1,2.7,9.5,5.7c2,2.5,2.9,5.1,3.3,6.4
						c1.1,3.6,1.4,7.1,1.3,10.1c-2.4-3.8-6.1-7.9-12.1-10c-2.8-1-5.4-3-7.9-6c-2-2.5-3.4-4.9-3.8-6.2c0,0,0,0,0-0.1l0,0
						C472.1,241.6,471.7,240,471.4,238.3 M467.6,225.5c0,0-0.4,2.3-0.4,5.8c0,3.5,0.3,8.1,1.8,12.9l0,0.1v0v0
						c0.5,1.7,2.1,4.6,4.5,7.4c2.4,2.8,5.5,5.7,9.4,7.1c6.2,2.2,9.8,7,11.8,11.4c2,4.4,2.3,8.3,2.3,8.5c0,0,1.3-2.7,2.1-7.1
						c0.8-4.4,1.2-10.6-0.8-17.3c-0.4-1.5-1.5-4.6-3.9-7.7c-2.4-3-6.1-5.9-11.7-7c-6.2-1.3-9.9-4.2-12.1-7.1
						C468.6,229.6,467.8,226.7,467.6,225.5L467.6,225.5z"></path></g>
				</g>
			</g>
		</g>
	</g>
	<g>
		<g>
			<g>
				<g>
					<g id="change1_23"><path fill="#FFFFFF" d="M467.1,205c3.3,1.9,7.1,3,11.5,3.2c4,0.2,7.5,1.6,10.3,4.3c2.6,2.4,3.8,5,4.1,5.8
						c0,0.1,0.1,0.2,0.1,0.3c1.6,3.4,2.3,6.7,2.7,9.6c-3.6-4.3-8.3-7.1-13.5-8.2c-2.9-0.6-5.8-2.2-8.7-4.7c-2.3-2-4-4.2-4.6-5.4
						c0-0.1-0.1-0.2-0.1-0.3l0,0C468.2,208.2,467.6,206.6,467.1,205 M461.4,192.9c0,0,0,2.3,0.5,5.8c0.5,3.4,1.6,7.9,3.8,12.5
						l0.1,0.1l0,0h0c0.8,1.6,2.8,4.2,5.5,6.6c2.8,2.4,6.3,4.8,10.4,5.6c6.4,1.2,10.8,5.5,13.3,9.6c2.7,4.1,3.5,7.9,3.6,8.1
						c0,0,0.9-2.9,1.1-7.4c0.2-4.5-0.4-10.7-3.4-17v0c-0.6-1.4-2.2-4.4-5-7c-2.8-2.7-7-5-12.6-5.2c-6.3-0.3-10.4-2.7-13.1-5.2
						C463,196.9,461.8,194.1,461.4,192.9L461.4,192.9z M498.6,241.2L498.6,241.2L498.6,241.2L498.6,241.2L498.6,241.2z"></path></g>
				</g>
			</g>
		</g>
	</g>
	<g>
		<g>
			<g>
				<g>
					<g id="change1_24"><path fill="#FFFFFF" d="M457.8,172.8c2.7,1.1,5.6,1.6,8.7,1.6c1,0,2-0.1,3.1-0.2c0.7-0.1,1.3-0.1,1.9-0.1
						c3.2,0,6.2,0.9,8.9,2.7c2.9,2,4.5,4.4,5,5.2c2.1,3.2,3.4,6.4,4.3,9.2c-4.2-3.7-9.3-5.8-14.5-6c-3.7-0.2-7.1-1.9-9.3-3.4
						c-2.5-1.6-4.5-3.4-5.4-4.7c0-0.1-0.1-0.1-0.1-0.2C459.4,175.7,458.5,174.3,457.8,172.8 M450.3,161.7c0,0,0.3,2.3,1.4,5.6
						c1,3.3,2.8,7.6,5.6,11.8l0.1,0.1l0,0c1,1.5,3.4,3.7,6.5,5.7c3.1,2,6.9,3.7,11.1,3.9c6.5,0.3,11.5,3.8,14.7,7.4
						c3.2,3.6,4.7,7.3,4.8,7.5c0-0.1,0.4-3-0.1-7.4c-0.5-4.5-2-10.5-5.9-16.3c-0.8-1.3-2.8-4-6-6.2c-2.8-1.9-6.4-3.4-10.9-3.4
						c-0.8,0-1.5,0-2.3,0.1c-0.9,0.1-1.8,0.1-2.7,0.1c-4.9,0-8.5-1.5-11-3.3C452.5,165.4,450.9,162.9,450.3,161.7L450.3,161.7z
						 M494.4,203.8L494.4,203.8L494.4,203.8L494.4,203.8z"></path></g>
				</g>
			</g>
		</g>
	</g>
	<g>
		<g>
			<g>
				<g>
					<g id="change1_25"><path fill="#FFFFFF" d="M459.9,141.4c2.3,0,4.6,0.5,6.7,1.5c3.2,1.5,5.2,3.6,5.8,4.3c2.6,2.8,4.4,5.8,5.6,8.5
						c-3.2-2.1-7.6-3.9-12.8-3.9c-0.8,0-1.7,0-2.5,0.1c-0.5,0.1-1,0.1-1.5,0.1c-2.5,0-5.3-0.7-8.2-2c-3.3-1.5-5.4-3.1-6.2-4
						c-1.1-1.2-2.2-2.5-3.1-3.8c1.6,0.4,3.3,0.6,5,0.6c2.2,0,4.5-0.3,6.9-0.9C457,141.6,458.5,141.4,459.9,141.4 M434.6,132.5
						c0,0,0.7,2.3,2.2,5.4c1.5,3.1,3.9,7.1,7.3,10.8l0.1,0.1v0c1.2,1.3,3.9,3.2,7.3,4.7c2.8,1.3,6.2,2.3,9.7,2.3
						c0.6,0,1.3,0,1.9-0.1c0.7-0.1,1.4-0.1,2.1-0.1c5.6,0,10.2,2.5,13.5,5.2c3.7,3.1,5.7,6.5,5.9,6.7c0,0,0-3-1.2-7.3
						c-1.2-4.3-3.6-10.1-8.3-15.2c-1-1.1-3.4-3.5-6.9-5.2c-2.3-1.1-5.1-1.9-8.3-1.9c-1.7,0-3.4,0.2-5.3,0.7
						c-2.2,0.6-4.1,0.8-5.9,0.8c-3.3,0-6-0.8-8.1-1.9C437.4,135.8,435.4,133.6,434.6,132.5L434.6,132.5z"></path></g>
				</g>
			</g>
		</g>
	</g>
	<g>
		<g>
			<g>
				<g>
					<g id="change1_26"><path fill="#FFFFFF" d="M443.4,110.8c1.5,0,3.1,0.2,4.6,0.7c3.2,0.9,5.5,2.7,6.4,3.4c3,2.4,5.2,5.1,6.8,7.5
						c-2.7-1.2-6-2.1-9.8-2.1c-2,0-3.9,0.3-5.8,0.8c-1.2,0.3-2.5,0.5-3.9,0.5c-1.9,0-3.9-0.3-6.1-0.9c-3-0.8-5.6-2.1-6.7-2.9l0,0
						c-0.1,0-0.1-0.1-0.2-0.1c-1.2-1-2.5-2.1-3.6-3.3c0.5,0,1.1,0.1,1.7,0.1c3.3,0,6.7-0.7,10.1-2.2
						C439,111.3,441.2,110.8,443.4,110.8 M414.7,106c0,0,1,2.1,3,5c2,2.9,4.9,6.5,8.8,9.6l0.1,0.1l0,0c1.4,1.1,4.3,2.6,7.9,3.5
						c2.2,0.6,4.6,1,7,1c1.6,0,3.2-0.2,4.8-0.6c1.7-0.5,3.3-0.7,4.9-0.7c4.4,0,8.3,1.5,11.3,3.3c4.2,2.5,6.6,5.5,6.8,5.7
						c0,0-0.5-3-2.3-7.1c-1.8-4.1-5.1-9.4-10.5-13.8c-1.2-1-3.8-3-7.6-4.1c-1.7-0.5-3.6-0.8-5.6-0.8c-2.5,0-5.2,0.5-8,1.7
						c-3.2,1.4-6.1,1.9-8.6,1.9c-2,0-3.8-0.3-5.4-0.8C417.9,108.9,415.6,107,414.7,106L414.7,106z M469.4,133L469.4,133L469.4,133
						L469.4,133z"></path></g>
				</g>
			</g>
		</g>
	</g>
	<g>
		<g>
			<g>
				<g>
					<g id="change1_27"><path fill="#FFFFFF" d="M422.4,83.1c0.8,0,1.6,0.1,2.3,0.2c3.3,0.5,5.8,1.8,6.8,2.4c3.3,1.9,5.9,4.2,7.9,6.4
						c-2.2-0.6-4.4-0.9-6.6-0.9c-3.2,0-6.2,0.6-9.1,1.9c-1.9,0.8-4.2,1.3-6.8,1.3c-1,0-2.1-0.1-3-0.2c-3.1-0.4-5.8-1.2-7.1-2
						c-1.4-0.8-2.8-1.7-4.1-2.7c3.8-0.3,7.6-1.6,11.3-3.9C416.6,84,419.4,83.1,422.4,83.1L422.4,83.1 M422.4,79.5
						c-3.2,0-6.8,0.8-10.5,3.1c-4.1,2.6-7.8,3.4-10.9,3.4c-1,0-1.9-0.1-2.8-0.2c-3.6-0.6-6.2-2.2-7.2-3c0,0,1.3,1.9,3.7,4.5
						c2.4,2.5,5.8,5.6,10.2,8.1l0.1,0.1l0,0c1.6,0.9,4.7,1.9,8.3,2.3c1.1,0.1,2.3,0.2,3.5,0.2c2.7,0,5.6-0.4,8.2-1.6
						c2.6-1.1,5.2-1.6,7.7-1.6c3.2,0,6.2,0.8,8.8,1.8c4.5,1.8,7.4,4.4,7.6,4.6c0,0-0.9-2.8-3.3-6.7c-2.4-3.8-6.5-8.5-12.5-12
						c-1.3-0.8-4.2-2.3-8.1-2.9C424.4,79.6,423.4,79.5,422.4,79.5L422.4,79.5z"></path></g>
				</g>
			</g>
		</g>
	</g>
	<g>
		<g>
			<g>
				<g>
					<g id="change1_28"><path fill="#FFFFFF" d="M397.7,55.2v3.6c3.4,0,6.1,1,6.9,1.4c3.6,1.4,6.5,3.3,8.8,5.2c-1-0.1-2-0.2-3-0.2
						c-4.5,0-8.7,1.2-12.4,3.5c-2.5,1.6-5.7,2.4-9.6,2.6l-0.8,0c-2.8,0-5.2-0.4-6.4-0.8c-0.1,0-0.1,0-0.2-0.1
						c-1.5-0.6-3-1.3-4.4-2.1c3.7-0.9,7.2-2.7,10.5-5.6c3-2.6,6.5-4,10.4-4L397.7,55.2 M397.7,55.2c-0.1,0-0.1,0-0.2,0
						c-3.9,0-8.5,1.2-12.7,4.9c-4.8,4.1-9.3,5.2-12.9,5.2c0,0-0.1,0-0.1,0c-3.7-0.1-6.4-1.2-7.5-1.9c0,0,1.6,1.7,4.3,3.9
						c2.7,2.1,6.6,4.7,11.3,6.5l0.1,0l0,0h0c1.5,0.6,4.4,1.1,7.7,1.1c0.3,0,0.6,0,0.9,0c3.7-0.1,7.9-0.9,11.4-3.1
						c3.4-2.2,7.1-3,10.5-3c2.1,0,4,0.3,5.8,0.7c4.7,1.1,8,3.3,8.1,3.4c0,0-1.3-2.7-4.3-6.1c-3-3.4-7.7-7.5-14.1-10
						C404.6,56.3,401.5,55.2,397.7,55.2L397.7,55.2z M424.3,73L424.3,73L424.3,73L424.3,73L424.3,73z"></path></g>
				</g>
			</g>
		</g>
	</g>
	<g>
		<g>
			<g>
				<g>
					<g id="change1_29"><path fill="#FFFFFF" d="M369.8,38.5c2,0,3.6,0.3,4.4,0.5c3.7,0.9,6.9,2.3,9.4,3.8c-5.7,0.2-10.7,2.2-14.7,5.6
						c-2.2,1.9-5.3,3.3-9.1,4c-2.1,0.4-3.8,0.5-4.9,0.5c-1.1,0-1.8-0.1-2.2-0.1c-0.1,0-0.2-0.1-0.3-0.1c-1.6-0.3-3.2-0.8-4.8-1.4
						c3.5-1.4,6.7-3.8,9.6-7.1c2.6-3,5.9-4.9,9.7-5.5C367.9,38.6,368.8,38.5,369.8,38.5 M369.8,34.9c-1.1,0-2.2,0.1-3.4,0.3
						c-3.8,0.6-8.2,2.5-11.8,6.7c-4.1,4.8-8.5,6.6-12.1,7.1c-0.9,0.1-1.7,0.2-2.5,0.2c-2.4,0-4.3-0.5-5.2-0.9c0,0,1.8,1.5,4.9,3.2
						c3,1.7,7.2,3.7,12.2,4.7l0.1,0l0,0c0.8,0.2,1.8,0.2,3.1,0.2c1.6,0,3.5-0.2,5.5-0.5c3.6-0.7,7.6-2.1,10.8-4.8
						c4.2-3.6,9.1-4.8,13.5-4.8c0.8,0,1.6,0,2.3,0.1c4.8,0.4,8.4,2.1,8.6,2.2c0,0-1.7-2.5-5.1-5.4c-3.4-2.9-8.7-6.3-15.5-7.8
						C374,35.3,372.1,34.9,369.8,34.9L369.8,34.9z"></path></g>
				</g>
			</g>
		</g>
	</g>
	<g>
		<g>
			<g>
				<g>
					<g id="change1_30"><path fill="#FFFFFF" d="M339.3,22.6c0.6,0,1.1,0,1.6,0.1c3.8,0.3,7.1,1.2,9.9,2.3c-5.5,1.1-10.3,3.8-13.7,7.8
						c-1.9,2.2-4.7,4-8.4,5.3c-3,1-5.6,1.4-6.9,1.4l-0.2,0c-0.1,0-0.1,0-0.2,0c-1.6-0.1-3.2-0.3-4.9-0.6c3.3-1.9,6.1-4.7,8.4-8.4
						c2.1-3.4,5.1-5.7,8.8-6.9C335.9,22.8,338,22.6,339.3,22.6L339.3,22.6 M339.3,19c-1.7,0-4.1,0.2-6.7,1
						c-3.7,1.2-7.7,3.7-10.7,8.4c-3.3,5.4-7.4,7.8-10.9,8.9c-1.9,0.6-3.7,0.8-5.1,0.8c-1.2,0-2.1-0.1-2.7-0.2c0,0,2,1.2,5.3,2.4
						c3.3,1.2,7.7,2.5,12.7,2.8l0.1,0h0c0.1,0,0.3,0,0.4,0c1.8,0,4.8-0.5,8.1-1.6c3.5-1.2,7.2-3.2,10-6.4c4.2-5,10-6.7,14.9-7
						c0.6,0,1.2-0.1,1.7-0.1c4,0,6.9,0.8,7.1,0.9c0,0-2-2.2-5.9-4.5c-3.8-2.4-9.6-4.9-16.5-5.4C340.7,19,340.1,19,339.3,19L339.3,19
						z"></path></g>
				</g>
			</g>
		</g>
	</g>
	<g>
		<g>
			<g>
				<g>
					<g id="change1_31"><path fill="#FFFFFF" d="M308,11.5L308,11.5c2.8,0,5.4,0.4,7.6,0.9c-4.3,1.5-9,4.4-12.3,9.8c-1.6,2.5-4.1,4.7-7.5,6.5
						c-2.7,1.4-5.4,2.3-6.8,2.5c-0.1,0-0.1,0-0.1,0c-1.1,0.1-2.1,0.1-3.2,0.1c-0.6,0-1.2,0-1.8,0c2.9-2.4,5.3-5.6,7-9.6
						c1.5-3.7,4.1-6.4,7.6-8.2c3-1.5,5.8-1.8,7-1.9C306.3,11.5,307.2,11.5,308,11.5 M308,7.9c-0.9,0-1.8,0-2.8,0.1
						c-1.5,0.1-4.8,0.5-8.3,2.2c-3.5,1.7-7.1,4.8-9.3,10c-2.5,5.9-6.1,8.8-9.4,10.4c-3,1.4-5.7,1.7-7.1,1.7c-0.2,0-0.3,0-0.5,0
						c0,0,2.2,0.8,5.6,1.5c2.6,0.5,5.9,1,9.5,1c1.1,0,2.3,0,3.5-0.2l0.1,0h0c1.8-0.2,4.9-1.1,8.2-2.9c3.2-1.7,6.7-4.3,8.9-7.8
						c3.4-5.6,8.9-8.1,13.6-9.1c2.4-0.5,4.6-0.7,6.2-0.7c1.5,0,2.5,0.1,2.7,0.1c0,0-2.4-1.8-6.5-3.6C318.7,9.3,313.8,7.9,308,7.9
						L308,7.9z M328.8,14.4L328.8,14.4L328.8,14.4L328.8,14.4L328.8,14.4z"></path></g>
				</g>
			</g>
		</g>
	</g>
	<g>
		<g>
			<g>
				<g>
					<g id="change1_32"><path fill="#FFFFFF" d="M276.2,5.1c0.9,0,1.8,0,2.7,0.1c-4.9,2.7-8.7,6.7-10.7,11.5c-1.2,2.7-3.3,5.3-6.4,7.6
						c-2.5,1.9-5.1,3.1-6.4,3.5l0,0c0,0-0.1,0-0.1,0c-1.6,0.4-3.2,0.7-4.9,0.9c2.6-2.8,4.4-6.3,5.5-10.6c1.3-4.8,4.1-7.7,6.3-9.2
						c2.7-1.9,5.5-2.7,6.6-2.9C271.2,5.4,273.7,5.1,276.2,5.1 M276.2,1.5c-2.6,0-5.3,0.3-8.2,0.9c-1.5,0.3-4.7,1.2-7.9,3.5
						c-3.2,2.2-6.3,5.8-7.7,11.2c-1.6,6.2-4.7,9.7-7.8,11.7c-3,2.1-6,2.7-7.3,2.8c0,0,2.3,0.5,5.8,0.7c0.9,0.1,1.9,0.1,2.9,0.1
						c3,0,6.5-0.3,10.1-1.2l0.1,0h0c1.7-0.5,4.7-1.8,7.6-4c3-2.2,5.9-5.2,7.6-9c2.5-6,7.6-9.4,12.1-11.1c4.5-1.7,8.4-1.8,8.7-1.8
						c0,0-2.6-1.5-7-2.5C282.8,2,279.7,1.5,276.2,1.5L276.2,1.5z M292.3,5.2L292.3,5.2L292.3,5.2z M292.3,5.2L292.3,5.2L292.3,5.2
						L292.3,5.2L292.3,5.2z"></path></g>
				</g>
			</g>
		</g>
	</g>
	<g>
		<g>
			<g>
				<g>
					<g id="change1_33"><path fill="#FFFFFF" d="M241.7,3.7c-4.5,3.4-7.6,7.9-8.9,13c-0.7,2.8-2.5,5.7-5.2,8.4c-2.2,2.2-4.6,3.8-5.8,4.4l0,0
						c0,0-0.1,0-0.1,0c-1.5,0.6-3.1,1.1-4.7,1.6c2.1-3.2,3.4-6.9,3.9-11.3c0.4-4,2-7.3,4.8-10c2.4-2.3,5.1-3.5,6.1-3.9
						C234.9,4.7,238.2,3.9,241.7,3.7 M244,0c-4,0-8.7,0.6-13.5,2.6c-1.4,0.5-4.5,1.9-7.3,4.6c-2.8,2.7-5.3,6.7-5.9,12.3
						c-0.7,6.3-3.3,10.3-6,12.8c-2.7,2.5-5.5,3.5-6.7,3.8c0,0,0.5,0,1.5,0c1,0,2.5,0,4.3-0.2c3.5-0.3,8-1.1,12.7-3l0.1-0.1l0,0
						c1.6-0.7,4.3-2.5,7-5.1c2.6-2.6,5.1-6,6.1-10.1c1.6-6.3,6.1-10.4,10.3-12.8c4.2-2.4,8-3.1,8.3-3.1c0,0-2.8-1-7.3-1.5
						C246.5,0.1,245.3,0,244,0L244,0z"></path></g>
				</g>
			</g>
		</g>
	</g>
	<g>
		<g>
			<g>
				<g>
					<g id="change1_34"><path fill="#FFFFFF" d="M204.5,7.7c-3.2,3.2-6.2,7.9-6.8,14.2c-0.3,2.9-1.6,6-3.9,9.1c-1.9,2.6-3.9,4.5-5.1,5.2
						c-0.1,0-0.1,0.1-0.2,0.1c-1.4,0.8-2.8,1.6-4.3,2.2c1.6-3.4,2.3-7.4,2.1-11.7c-0.2-4,0.9-7.6,3.2-10.7c1.7-2.2,3.8-3.7,5.3-4.6
						c0.1,0,0.1-0.1,0.2-0.1C198.4,9.5,201.6,8.4,204.5,7.7 M212,3.3c-0.7,0-1.3,0-2.1,0.1c-4.5,0.2-10.6,1.4-16.6,5v0
						c-1.3,0.8-4.1,2.6-6.5,5.6c-2.4,3.1-4.3,7.4-4,13c0.3,6.3-1.7,10.6-3.9,13.5c-2.3,2.9-4.9,4.3-6.1,4.8c0,0,2.3-0.2,5.7-1
						c3.4-0.9,7.8-2.3,12.1-4.9l0.1-0.1l0,0c1.5-0.9,3.9-3.1,6.1-6.1c2.2-3,4.1-6.7,4.6-10.9c0.6-6.5,4.4-11.2,8.3-14.2
						c3.8-3,7.5-4.2,7.7-4.3C217.3,3.7,215.3,3.3,212,3.3L212,3.3z"></path></g>
				</g>
			</g>
		</g>
	</g>
	<g>
		<g>
			<g>
				<g>
					<g id="change1_35"><path fill="#FFFFFF" d="M168.5,17.3c-3.3,4.6-4.9,9.8-4.6,15c0.1,2.9-0.7,6.1-2.4,9.6c-1.5,2.8-3.2,5-4.2,5.9
						c0,0-0.1,0.1-0.1,0.1c-1.2,1-2.5,2-4,2.9c1.1-3.7,1.2-7.6,0.3-11.9c-0.8-3.9-0.3-7.6,1.6-11c1.7-3,3.9-4.9,4.7-5.5
						C162.6,20,165.7,18.4,168.5,17.3 M179.8,11.4c-1.1,0-3.5,0.1-6.7,0.8c-4.4,0.9-10.3,3-15.7,7.4c-1.2,0.9-3.7,3.2-5.5,6.6
						c-1.9,3.4-3.1,8-2,13.5c1.3,6.2,0,10.8-1.8,13.9c-1.8,3.2-4.2,5-5.3,5.7c0,0,2.3-0.6,5.5-1.9c3.2-1.4,7.3-3.5,11.2-6.7l0.1-0.1
						l0,0c1.4-1.2,3.4-3.7,5.1-7c1.7-3.3,3.1-7.3,2.9-11.5c-0.4-6.5,2.7-11.8,6-15.3c3.3-3.5,6.8-5.3,7-5.4
						C180.4,11.4,180.2,11.4,179.8,11.4L179.8,11.4z"></path></g>
				</g>
			</g>
		</g>
	</g>
	<g>
		<g>
			<g>
				<g>
					<g id="change1_36"><path fill="#FFFFFF" d="M134.2,32.3c-2.5,5-3.3,10.4-2.3,15.6c0.6,2.9,0.2,6.3-1,9.9c-1,3-2.4,5.5-3.3,6.5c0,0,0,0,0,0
						c0,0-0.1,0.1-0.1,0.1c-1.1,1.2-2.2,2.4-3.5,3.5c0.5-3.8,0-7.7-1.5-11.8c-1.4-3.7-1.4-7.5-0.1-11.2c1.1-3.1,3-5.3,3.8-6.1
						C128.9,35.8,131.7,33.8,134.2,32.3 M145.2,24.7c0,0-3,0.3-7.2,1.9c-4.2,1.6-9.7,4.6-14.4,9.7c-1,1.1-3.2,3.7-4.5,7.3
						c-1.3,3.7-1.8,8.4,0.1,13.6c2.2,6,1.6,10.6,0.3,14.1c-1.3,3.4-3.4,5.6-4.4,6.4c0,0,2.2-0.9,5.1-2.7c3-1.8,6.7-4.5,10.1-8.3
						l0.1-0.1l0,0h0c1.2-1.4,2.8-4.2,4-7.7c1.2-3.5,1.9-7.7,1.1-11.8c-1.4-6.4,0.9-12,3.6-16C141.8,27.1,145,24.8,145.2,24.7
						L145.2,24.7z M130.4,66.5L130.4,66.5L130.4,66.5z"></path></g>
				</g>
			</g>
		</g>
	</g>
	<g>
		<g>
			<g>
				<g>
					<g id="change1_37"><path fill="#FFFFFF" d="M102.7,52.2c-1.8,5.3-1.7,10.8,0.1,15.7c1,2.8,1.2,6.1,0.5,9.9c-0.6,3.1-1.6,5.8-2.3,6.9
						c0,0-0.1,0.1-0.1,0.1c-0.9,1.3-1.9,2.7-3,3.9c-0.1-3.8-1.1-7.6-3.2-11.5c-1.9-3.5-2.5-7.2-1.8-11c0.7-3.3,2.2-5.7,2.8-6.6
						C97.9,56.5,100.4,54.1,102.7,52.2 M112.4,43.1L112.4,43.1L112.4,43.1z M112.4,43.1c0,0-2.9,0.7-6.8,3
						c-3.9,2.2-8.9,5.9-12.7,11.7c-0.8,1.2-2.6,4.1-3.3,7.9c-0.8,3.8-0.6,8.5,2.1,13.5c3.1,5.6,3.2,10.3,2.4,13.9
						c-0.8,3.6-2.5,6-3.3,7l0,0c0,0,2-1.2,4.7-3.5c2.7-2.2,6-5.5,8.7-9.7l0.1-0.1l0,0c0.9-1.5,2.1-4.5,2.8-8.2
						c0.6-3.6,0.7-7.9-0.7-11.8c-2.3-6.1-1-12,1.2-16.4C109.4,46,112.2,43.2,112.4,43.1L112.4,43.1z"></path></g>
				</g>
			</g>
		</g>
	</g>
	<g>
		<g>
			<g>
				<g>
					<g id="change1_38"><path fill="#FFFFFF" d="M74.5,76.7c-0.9,5.5-0.1,10.9,2.5,15.5c1.4,2.6,2.1,5.9,2,9.7c-0.1,3.2-0.7,6-1.2,7.2
						c0,0.1-0.1,0.1-0.1,0.2c-0.6,1.4-1.4,2.8-2.3,4.2c-0.6-3.7-2.3-7.4-4.9-10.8c-3.1-4-3.5-7.9-3.4-10.6c0.2-3.3,1.3-6,1.8-7
						C70.4,81.7,72.5,78.9,74.5,76.7 M82.7,66.2L82.7,66.2L82.7,66.2z M82.7,66.2c0,0-2.7,1.2-6.3,3.9c-3.5,2.8-7.9,7.2-10.8,13.6
						c-0.7,1.4-1.9,4.4-2.1,8.3c-0.2,3.9,0.7,8.5,4.1,13c3.9,5.1,4.7,9.7,4.4,13.3c-0.3,3.7-1.6,6.4-2.3,7.4c0,0,1.8-1.5,4.1-4.1
						c2.3-2.6,5.1-6.3,7.1-10.9l0-0.1v0c0.7-1.7,1.4-4.8,1.5-8.5c0.1-3.7-0.4-7.9-2.4-11.6c-3.2-5.7-2.8-11.7-1.3-16.4
						C80.2,69.5,82.5,66.4,82.7,66.2L82.7,66.2z"></path></g>
				</g>
			</g>
		</g>
	</g>
	<g>
		<g>
			<g>
				<g>
					<g id="change1_39"><path fill="#FFFFFF" d="M50.3,105.2c-0.1,4.5,0.9,10,4.8,15c2.3,2.9,3.1,6.7,3.4,9.3c0.4,3,0.2,5.8-0.1,7.1
						c0,0.1-0.1,0.2-0.1,0.3c-0.4,1.6-1,3.1-1.7,4.7c-1.2-3.6-3.4-6.9-6.5-10c-2.9-2.8-4.6-6.1-5-10c-0.3-3.5,0.4-6.3,0.7-7.2
						C47,110.7,48.6,107.6,50.3,105.2 M56.8,93.5L56.8,93.5L56.8,93.5z M56.8,93.5c0,0-2.5,1.6-5.6,4.8c-3.1,3.3-6.7,8.3-8.7,15
						c-0.5,1.5-1.2,4.7-0.8,8.6c0.4,3.9,2,8.3,6,12.2c4.6,4.4,6.1,8.9,6.4,12.5c0.3,3.6-0.6,6.5-1.1,7.7c0,0,1.6-1.8,3.4-4.7
						c1.9-2.9,4.1-7,5.4-11.9l0-0.1l0,0c0.4-1.7,0.7-5,0.2-8.6c-0.5-3.7-1.6-7.7-4.2-11c-4-5.2-4.5-11.2-3.8-16
						C54.9,97.2,56.7,93.7,56.8,93.5L56.8,93.5z"></path></g>
				</g>
			</g>
		</g>
	</g>
	<g>
		<g>
			<g>
				<g>
					<g id="change1_40"><path fill="#FFFFFF" d="M30.6,136.9c0.6,4.5,2.4,9.7,7,14.1c2.1,2,3.7,5,4.8,8.7c0.9,3,1.1,5.9,1,7.3c-0.2,1.6-0.5,3.2-0.9,4.9
						c-1.7-3.4-4.4-6.4-8-8.9c-3.3-2.3-5.4-5.4-6.4-9.1c-0.8-3.3-0.6-6.1-0.4-7.2C28.2,142.9,29.3,139.6,30.6,136.9 M35.3,124.4
						L35.3,124.4L35.3,124.4z M35.3,124.4c0,0-2.3,1.9-4.9,5.6c-2.6,3.7-5.4,9.3-6.3,16.2c-0.2,1.5-0.5,4.8,0.5,8.6
						c1,3.8,3.2,7.9,7.8,11.2c5.2,3.7,7.4,7.9,8.2,11.4c0.9,3.6,0.4,6.5,0.1,7.8c0,0,1.3-2,2.7-5.1c1.4-3.2,3-7.6,3.5-12.6l0-0.1v0
						c0.2-1.8-0.1-5-1.1-8.6c-1-3.6-2.8-7.4-5.8-10.3c-4.7-4.5-6.1-10.4-6.1-15.2C34,128.3,35.2,124.6,35.3,124.4L35.3,124.4z"></path></g>
				</g>
			</g>
		</g>
	</g>
	<g>
		<g>
			<g>
				<g>
					<g id="change1_41"><path fill="#FFFFFF" d="M16.5,167.4c1.6,5.4,4.7,9.9,9,12.9c2.4,1.7,4.5,4.3,6.1,7.9c1.5,3.3,2,5.9,2,7.1c0.1,1.6,0,3.3-0.2,5
						c-2.2-3.1-5.3-5.6-9.2-7.6c-3.6-1.8-6.2-4.5-7.7-8c-1.3-3.1-1.5-5.9-1.5-7.1C15.1,173.7,15.7,170.2,16.5,167.4 M19.3,154.3
						L19.3,154.3L19.3,154.3L19.3,154.3z M19.3,154.3c0,0-2,2.3-3.9,6.3c-2,4.1-3.9,10-3.8,16.9c0,1.5,0.2,4.8,1.8,8.4
						c1.5,3.6,4.4,7.3,9.4,9.8c5.7,2.8,8.5,6.7,9.9,10c1.4,3.4,1.4,6.4,1.2,7.7c0,0,1-2.1,1.9-5.5c0.9-3.3,1.8-7.9,1.6-12.9v-0.1v0
						c-0.1-1.8-0.8-4.9-2.4-8.3c-1.6-3.3-3.9-6.9-7.3-9.3c-5.4-3.7-7.6-9.4-8.4-14.1C18.5,158.4,19.2,154.5,19.3,154.3L19.3,154.3z"></path></g>
				</g>
			</g>
		</g>
	</g>
	<g>
		<g>
			<g>
				<g>
					<g id="change1_42"><path fill="#FFFFFF" d="M7.3,199.6c1.9,4.1,5.2,8.6,10.9,11.3c2.7,1.3,5.1,3.6,7.2,6.9c1.9,2.8,2.8,5.3,3.1,6.5
						c0,0.1,0,0.1,0,0.2c0.3,1.6,0.5,3.2,0.6,4.9c-2.7-2.7-6.1-4.8-10.2-6.1c-4.8-1.5-7.4-4.5-8.8-6.8c-1.8-2.9-2.3-5.6-2.5-6.8
						C6.8,206,6.9,202.5,7.3,199.6 M8,186.2c0,0-1.6,2.5-3,6.8c-1.3,4.3-2.4,10.4-1.2,17.3c0.2,1.5,1,4.7,3,8.1
						c2.1,3.3,5.5,6.6,10.8,8.3c6.1,1.9,9.4,5.3,11.3,8.4c1.9,3.2,2.3,6.1,2.4,7.4c0,0,0.6-2.3,1-5.7c0.4-3.5,0.6-8.1-0.4-13.1
						l0-0.1v0c-0.4-1.7-1.6-4.8-3.6-7.8c-2-3.1-4.8-6.2-8.6-8.1c-5.9-2.9-8.9-8.1-10.4-12.7C7.9,190.4,8,186.5,8,186.2L8,186.2z"></path></g>
				</g>
			</g>
		</g>
	</g>
</g>
</svg>