<?xml version="1.0" encoding="utf-8"?><!DOCTYPE svg PUBLIC "-//W3C//DTD SVG 1.1//EN" "http://www.w3.org/Graphics/SVG/1.1/DTD/svg11.dtd">
<svg version="1.1" id="Layer_1" xmlns="http://www.w3.org/2000/svg" xmlns:xlink="http://www.w3.org/1999/xlink" x="0px" y="0px" viewBox="0 0 499 500" enable-background="new 0 0 499 500" xml:space="preserve">
<g>
	<g>
		<g>
			<g>
				<g>
					<g id="change1_1"><path fill="#FFFFFF" d="M33.3,285.1l0-0.1l0,0v0c-0.8-1.6-2.6-4.3-5.3-6.8c-2.7-2.5-6.1-5-10.2-5.9c-6.4-1.5-10.5-5.9-13-10
						c-2.5-4.2-3.2-8-3.3-8.2c0,0-1,2.8-1.3,7.3c-0.3,4.5,0,10.7,2.7,17.1l0,0c0.5,1.4,2,4.4,4.7,7.1c2.7,2.7,6.8,5.2,12.4,5.7
						c6.3,0.5,10.3,3,12.8,5.7c2.5,2.6,3.6,5.4,4,6.6c0,0,0.1-2.3-0.3-5.8C36.2,294.3,35.3,289.7,33.3,285.1z"></path></g>
				</g>
			</g>
		</g>
	</g>
	<g>
		<g>
			<g>
				<g>
					<g id="change1_2"><path fill="#FFFFFF" d="M31.8,254.4l0-0.1v0h0c-0.6-1.7-2.3-4.5-4.8-7.2c-2.5-2.7-5.8-5.4-9.8-6.6c-6.3-1.9-10.1-6.6-12.3-10.9
						c-2.2-4.3-2.7-8.2-2.7-8.4c0,0-1.2,2.7-1.8,7.2c-0.6,4.4-0.7,10.7,1.6,17.2l0,0c0.5,1.4,1.7,4.5,4.3,7.4
						c2.6,2.9,6.4,5.6,12,6.5c6.3,1,10.1,3.7,12.4,6.5c2.3,2.8,3.3,5.7,3.5,6.9c0,0,0.3-2.3,0.1-5.8
						C34.1,263.7,33.5,259.1,31.8,254.4z"></path></g>
				</g>
			</g>
		</g>
	</g>
	<g>
		<g>
			<g>
				<g>
					<g id="change1_3"><path fill="#FFFFFF" d="M41.2,315.9l-0.1-0.1l0,0h0c-1-1.5-3.2-3.8-6.3-5.9c-3-2.1-6.8-4-11-4.3c-6.5-0.5-11.3-4.2-14.3-8
						c-3.1-3.7-4.4-7.4-4.5-7.6c0,0-0.6,2.9-0.2,7.4c0.3,4.5,1.6,10.6,5.3,16.5l0,0c0.8,1.3,2.6,4.1,5.8,6.3
						c3.1,2.3,7.5,4.1,13.1,3.7c6.3-0.4,10.6,1.4,13.5,3.7c2.9,2.2,4.4,4.8,4.9,6c0,0-0.2-2.3-1.2-5.7
						C45.5,324.5,43.9,320.2,41.2,315.9z"></path></g>
				</g>
			</g>
		</g>
	</g>
	<g>
		<g>
			<g>
				<g>
					<g id="change1_4"><path fill="#FFFFFF" d="M51.9,344.2L51.9,344.2l-0.1-0.1l0,0c-1.2-1.3-3.8-3.3-7.1-4.9c-3.3-1.6-7.3-2.9-11.5-2.6
						c-6.5,0.5-11.8-2.4-15.4-5.7c-3.6-3.2-5.5-6.7-5.6-6.9c0,0-0.1,3,0.9,7.4c1,4.4,3.2,10.2,7.7,15.5l0,0c0.9,1.2,3.2,3.6,6.7,5.4
						c3.4,1.8,8,2.9,13.5,1.7c6.2-1.4,10.7-0.2,13.9,1.6c3.2,1.8,5.1,4.1,5.8,5.2c0,0-0.6-2.3-2-5.4C57.4,352.1,55.2,348,51.9,344.2
						z"></path></g>
				</g>
			</g>
		</g>
	</g>
	<g>
		<g>
			<g>
				<g>
					<g id="change1_5"><path fill="#FFFFFF" d="M68.4,372.9L68.4,372.9l-0.1-0.1l0,0c-1.4-1.1-4.2-2.7-7.7-3.8c-3.5-1.1-7.7-1.8-11.7-0.9
						c-6.4,1.5-12-0.6-16.1-3.3c-4-2.6-6.4-5.8-6.5-5.9c0,0,0.3,3,2,7.1c1.7,4.2,4.7,9.6,10,14.2h0c1.1,1,3.7,3.1,7.4,4.3
						c3.7,1.3,8.4,1.7,13.6-0.4c5.9-2.3,10.6-1.8,14-0.6c3.4,1.2,5.6,3.3,6.5,4.2c0,0-0.9-2.1-2.8-5.1
						C75,379.9,72.3,376.2,68.4,372.9z"></path></g>
				</g>
			</g>
		</g>
	</g>
	<g>
		<g>
			<g>
				<g>
					<g id="change1_6"><path fill="#FFFFFF" d="M89.1,398.8l-0.1-0.1l0,0l0,0c-1.5-0.9-4.6-2-8.2-2.6c-3.6-0.6-7.9-0.6-11.7,0.9
						c-6.1,2.4-12,1.2-16.4-0.8c-4.4-2-7.2-4.7-7.4-4.9c0,0,0.8,2.9,3.1,6.7c2.3,3.9,6.1,8.8,12,12.5l0,0c1.3,0.8,4.2,2.5,8,3.2
						c3.8,0.7,8.5,0.4,13.4-2.4c5.5-3.2,10.2-3.4,13.8-2.7c3.6,0.7,6.1,2.4,7,3.2c0,0-1.3-2-3.5-4.6
						C96.6,404.7,93.3,401.5,89.1,398.8z"></path></g>
				</g>
			</g>
		</g>
	</g>
	<g>
		<g>
			<g>
				<g>
					<g id="change1_7"><path fill="#FFFFFF" d="M113.3,421.3l-0.1-0.1l0,0v0c-1.6-0.7-4.8-1.3-8.5-1.4c-3.7,0-7.9,0.6-11.5,2.7
						c-5.6,3.3-11.7,3-16.3,1.6c-4.6-1.3-7.8-3.6-8-3.7c0,0,1.2,2.7,4,6.2c2.8,3.5,7.4,7.7,13.8,10.5v0c1.4,0.7,4.5,1.8,8.3,2
						c3.9,0.1,8.5-0.9,12.9-4.4c5-4,9.6-4.9,13.2-4.7c3.7,0.2,6.4,1.5,7.5,2.1c0,0-1.5-1.8-4.2-4C121.7,426,118,423.3,113.3,421.3z"></path></g>
				</g>
			</g>
		</g>
	</g>
	<g>
		<g>
			<g>
				<g>
					<g id="change1_8"><path fill="#FFFFFF" d="M140.7,439.9l-0.1,0l0,0l0,0c-1.7-0.4-5-0.6-8.6,0c-3.6,0.5-7.7,1.8-10.9,4.4
						c-5.1,4.1-11.1,4.7-15.9,4.1c-4.8-0.6-8.3-2.4-8.5-2.5c0,0,1.6,2.5,4.9,5.5c3.3,3,8.5,6.5,15.2,8.3l0,0
						c1.4,0.4,4.7,1.2,8.5,0.7c3.9-0.5,8.3-2.2,12.1-6.3c4.3-4.7,8.7-6.2,12.4-6.6c3.6-0.4,6.5,0.5,7.7,1c0,0-1.8-1.5-4.7-3.3
						C149.7,443.3,145.6,441.2,140.7,439.9z"></path></g>
				</g>
			</g>
		</g>
	</g>
	<g>
		<g>
			<g>
				<g>
					<g id="change1_9"><path fill="#FFFFFF" d="M170.6,454.2l-0.1,0l0,0v0c-1.8-0.2-5,0.2-8.5,1.2c-3.5,1.1-7.3,2.9-10.2,6c-4.4,4.8-10.3,6.3-15.1,6.4
						c-4.8,0.1-8.6-1.1-8.8-1.2c0,0,1.9,2.2,5.7,4.7c3.8,2.5,9.4,5.2,16.3,6l0,0c1.5,0.2,4.8,0.4,8.6-0.6c3.7-1.1,7.9-3.4,11-8
						c3.6-5.3,7.7-7.5,11.2-8.5c3.5-0.9,6.5-0.5,7.7-0.2c0,0-2-1.2-5.2-2.6C180,456.1,175.6,454.6,170.6,454.2z"></path></g>
				</g>
			</g>
		</g>
	</g>
	<g>
		<g>
			<g>
				<g>
					<g id="change1_10"><path fill="#FFFFFF" d="M202.3,463.7l-0.1,0h0l0,0c-1.8,0.1-4.9,0.9-8.2,2.5c-3.3,1.6-6.8,4-9.1,7.4c-3.6,5.4-9.2,7.8-13.9,8.6
						c-4.8,0.9-8.6,0.2-8.8,0.2c0,0,2.3,1.9,6.4,3.8c4.1,1.9,10,3.7,17,3.4l0,0c1.5,0,4.8-0.3,8.4-1.9c3.5-1.6,7.2-4.5,9.6-9.6
						c2.7-5.7,6.5-8.6,9.8-10c3.4-1.4,6.4-1.5,7.6-1.4c0,0-2.2-0.9-5.5-1.8C211.8,464.2,207.3,463.4,202.3,463.7z"></path></g>
				</g>
			</g>
		</g>
	</g>
	<g>
		<g>
			<g>
				<g>
					<g id="change1_11"><path fill="#FFFFFF" d="M235,468.3l-0.1,0h0l0,0c-1.7,0.4-4.7,1.7-7.8,3.8c-3.1,2.1-6.1,5-7.9,8.7c-2.8,5.9-7.9,9.1-12.5,10.6
						c-4.6,1.6-8.5,1.5-8.7,1.5c0,0,2.5,1.5,6.9,2.8c4.3,1.2,10.5,2.2,17.3,0.8l0,0c1.5-0.3,4.7-1.1,8-3.2c3.3-2.1,6.5-5.6,8.1-10.9
						c1.8-6.1,5.1-9.5,8.2-11.4c3.1-1.9,6.1-2.4,7.3-2.5c0,0-2.3-0.6-5.7-0.9C244.6,467.4,240,467.3,235,468.3z"></path></g>
				</g>
			</g>
		</g>
	</g>
	<g>
		<g>
			<g>
				<g>
					<g id="change1_12"><path fill="#FFFFFF" d="M268.2,468l-0.1,0l0,0l0,0c-1.6,0.6-4.4,2.3-7.1,4.9c-2.7,2.5-5.3,5.8-6.5,9.8
						c-1.8,6.3-6.5,10.2-10.7,12.4c-4.3,2.2-8.2,2.8-8.4,2.8c0,0,2.7,1.1,7.2,1.7c4.5,0.6,10.7,0.5,17.2-1.8l0,0
						c1.5-0.5,4.5-1.7,7.4-4.3c2.9-2.6,5.6-6.5,6.3-12c0.9-6.3,3.6-10.1,6.4-12.5c2.8-2.4,5.6-3.3,6.9-3.6c0,0-2.3-0.2-5.8,0
						C277.5,465.6,272.9,466.2,268.2,468z"></path></g>
				</g>
			</g>
		</g>
	</g>
	<g>
		<g>
			<g>
				<g>
					<g id="change1_13"><path fill="#FFFFFF" d="M300.8,462.7l-0.1,0.1l0,0l0,0c-1.5,0.9-4,3-6.3,5.9c-2.3,2.9-4.4,6.6-4.9,10.7
						c-0.9,6.5-4.9,11-8.8,13.9c-3.9,2.9-7.7,4-7.8,4c0,0,2.9,0.7,7.4,0.6c4.5-0.1,10.6-1,16.8-4.3l0,0c1.3-0.7,4.2-2.4,6.7-5.4
						c2.5-3,4.6-7.2,4.5-12.8c-0.1-6.3,2.1-10.5,4.4-13.3c2.4-2.8,5.1-4.1,6.2-4.6c0,0-2.3,0.1-5.7,0.8
						C309.7,459,305.2,460.3,300.8,462.7z"></path></g>
				</g>
			</g>
		</g>
	</g>
	<g>
		<g>
			<g>
				<g>
					<g id="change1_14"><path fill="#FFFFFF" d="M332.3,452.6l-0.1,0.1l0,0l0,0c-1.4,1.1-3.5,3.6-5.3,6.8c-1.8,3.2-3.3,7.1-3.3,11.3
						c0.1,6.5-3.1,11.6-6.6,15c-3.4,3.4-7,5.1-7.2,5.2c0,0,2.9,0.3,7.4-0.5c4.4-0.8,10.4-2.6,15.9-6.8l0,0c1.2-0.9,3.8-3,5.8-6.3
						c2-3.3,3.4-7.8,2.5-13.4c-1-6.3,0.4-10.7,2.4-13.8c1.9-3.1,4.4-4.8,5.5-5.5c0,0-2.3,0.5-5.5,1.7
						C340.5,447.5,336.3,449.5,332.3,452.6z"></path></g>
				</g>
			</g>
		</g>
	</g>
	<g>
		<g>
			<g>
				<g>
					<g id="change1_15"><path fill="#FFFFFF" d="M361.9,437.7l-0.1,0.1l0,0h0c-1.2,1.3-2.9,4.1-4.2,7.5c-1.3,3.4-2.2,7.6-1.5,11.7
						c1.1,6.4-1.3,12-4.2,15.9c-2.9,3.9-6.1,6.1-6.3,6.2c0,0,3-0.2,7.2-1.6c4.3-1.4,9.8-4.2,14.7-9.2l0,0c1.1-1.1,3.3-3.5,4.8-7.2
						c1.5-3.6,2.1-8.3,0.4-13.6c-2-6.1-1.2-10.7,0.2-14.1c1.4-3.4,3.6-5.4,4.6-6.2c0,0-2.2,0.8-5.2,2.5
						C369.2,431.5,365.3,434.1,361.9,437.7z"></path></g>
				</g>
			</g>
		</g>
	</g>
	<g>
		<g>
			<g>
				<g>
					<g id="change1_16"><path fill="#FFFFFF" d="M388.9,418.6l-0.1,0.1l0,0v0c-1,1.5-2.3,4.5-3.1,8.1c-0.8,3.6-1,7.8,0.3,11.8c2.1,6.2,0.5,12-1.8,16.3
						c-2.3,4.3-5.1,6.9-5.3,7.1c0,0,2.9-0.6,6.9-2.7c4-2.1,9.1-5.6,13.2-11.3h0c0.9-1.2,2.7-4,3.6-7.8c0.9-3.8,0.9-8.5-1.6-13.5
						c-2.8-5.7-2.8-10.4-1.9-13.9c0.9-3.5,2.8-5.9,3.6-6.9c0,0-2.1,1.1-4.8,3.3C395.2,411.3,391.8,414.5,388.9,418.6z"></path></g>
				</g>
			</g>
		</g>
	</g>
	<g>
		<g>
			<g>
				<g>
					<g id="change1_17"><path fill="#FFFFFF" d="M412.7,395.6l0,0.1l0,0v0c-0.8,1.6-1.6,4.8-1.8,8.4c-0.2,3.7,0.2,7.9,2,11.6c3,5.8,2.3,11.8,0.7,16.4
						c-1.6,4.6-4,7.6-4.2,7.8c0,0,2.8-1,6.4-3.7c3.6-2.6,8.1-6.9,11.3-13.1l0,0c0.7-1.3,2.1-4.3,2.4-8.2c0.3-3.9-0.4-8.5-3.6-13.1
						c-3.7-5.2-4.3-9.8-3.9-13.5c0.4-3.6,1.8-6.3,2.5-7.3c0,0-1.9,1.4-4.2,4C417.9,387.5,415,391.1,412.7,395.6z"></path></g>
				</g>
			</g>
		</g>
	</g>
	<g>
		<g>
			<g>
				<g>
					<g id="change1_18"><path fill="#FFFFFF" d="M432.9,369.3l0,0.1l0,0l0,0c-0.5,1.7-0.8,4.9-0.5,8.6c0.3,3.7,1.3,7.8,3.8,11.2
						c3.8,5.3,4,11.3,3.1,16.1c-0.9,4.7-2.8,8.1-2.9,8.3c0,0,2.6-1.4,5.8-4.6c3.2-3.1,7-8.1,9.2-14.6l0,0c0.5-1.4,1.4-4.6,1.1-8.5
						c-0.3-3.9-1.7-8.4-5.6-12.4c-4.4-4.6-5.7-9.1-5.9-12.7c-0.2-3.6,0.8-6.5,1.4-7.6c0,0-1.6,1.7-3.6,4.6
						C436.7,360.6,434.4,364.5,432.9,369.3z"></path></g>
				</g>
			</g>
		</g>
	</g>
	<g>
		<g>
			<g>
				<g>
					<g id="change1_19"><path fill="#FFFFFF" d="M448.8,340.3l0,0.2v0l0,0c-0.3,1.8-0.1,5,0.8,8.6c0.9,3.6,2.5,7.5,5.4,10.5c4.5,4.7,5.7,10.6,5.5,15.4
						c-0.2,4.8-1.6,8.5-1.7,8.7c0,0,2.3-1.8,5-5.4c2.7-3.6,5.7-9,6.9-15.9h0c0.3-1.5,0.7-4.8-0.1-8.6c-0.8-3.8-2.9-8-7.4-11.4
						c-5-3.9-7-8.1-7.8-11.7c-0.7-3.6-0.1-6.5,0.2-7.7c0,0-1.4,1.9-2.9,5C451.3,331.1,449.6,335.4,448.8,340.3z"></path></g>
				</g>
			</g>
		</g>
	</g>
	<g>
		<g>
			<g>
				<g>
					<g id="change1_20"><path fill="#FFFFFF" d="M460.1,309.2v0.1v0v0c0,1.8,0.7,5,2.1,8.4c1.4,3.4,3.6,7,6.9,9.5c5.2,3.9,7.3,9.6,7.8,14.4
						c0.6,4.8-0.3,8.6-0.3,8.8c0,0,2-2.2,4.2-6.1c2.1-3.9,4.3-9.8,4.4-16.7l0,0c0.1-1.5,0-4.8-1.4-8.4c-1.4-3.6-4.1-7.5-9.1-10.2
						c-5.6-3-8.2-6.9-9.4-10.4c-1.3-3.4-1.1-6.4-1-7.7c0,0-1,2.1-2.1,5.4C461.2,299.7,460.1,304.2,460.1,309.2z"></path></g>
				</g>
			</g>
		</g>
	</g>
	<g>
		<g>
			<g>
				<g>
					<g id="change1_21"><path fill="#FFFFFF" d="M466.6,276.8l0,0.1v0l0,0c0.3,1.8,1.4,4.8,3.3,8c1.9,3.1,4.6,6.4,8.3,8.4c5.7,3.1,8.6,8.4,9.9,13.1
						c1.3,4.6,1,8.5,1,8.8c0,0,1.7-2.4,3.2-6.7c1.5-4.2,2.8-10.3,1.8-17.2l0,0c-0.2-1.5-0.8-4.8-2.7-8.1c-1.9-3.4-5.2-6.8-10.5-8.7
						c-6-2.1-9.1-5.6-10.9-8.8c-1.7-3.2-2.1-6.2-2.1-7.5c0,0-0.7,2.2-1.2,5.7C466.2,267.2,465.9,271.8,466.6,276.8z"></path></g>
				</g>
			</g>
		</g>
	</g>
	<g>
		<g>
			<g>
				<g>
					<g id="change1_22"><path fill="#FFFFFF" d="M468.2,243.7l0,0.1v0v0c0.5,1.7,2.1,4.6,4.5,7.4c2.4,2.8,5.5,5.7,9.4,7.1c6.2,2.2,9.8,7,11.8,11.4
						c2,4.4,2.3,8.3,2.3,8.5c0,0,1.3-2.7,2.1-7.1c0.8-4.4,1.2-10.6-0.8-17.3l0,0c-0.4-1.5-1.5-4.6-3.9-7.6c-2.4-3-6.1-5.9-11.6-7
						c-6.2-1.3-9.9-4.2-12.1-7.1c-2.2-2.9-3-5.8-3.2-7.1c0,0-0.4,2.3-0.4,5.8C466.3,234.3,466.7,238.9,468.2,243.7z"></path></g>
				</g>
			</g>
		</g>
	</g>
	<g>
		<g>
			<g>
				<g>
					<g id="change1_23"><path fill="#FFFFFF" d="M464.8,210.8l0.1,0.1l0,0h0c0.8,1.6,2.8,4.2,5.5,6.6c2.7,2.4,6.3,4.8,10.4,5.6
						c6.4,1.2,10.7,5.5,13.3,9.5c2.6,4.1,3.5,7.9,3.6,8.1c0,0,0.9-2.8,1.1-7.3c0.2-4.5-0.4-10.7-3.4-17v0c-0.6-1.4-2.2-4.4-5-7
						c-2.8-2.6-7-5-12.6-5.2c-6.3-0.3-10.4-2.7-13-5.2c-2.6-2.5-3.8-5.3-4.2-6.5c0,0,0,2.3,0.5,5.8
						C461.6,201.8,462.6,206.3,464.8,210.8z"></path></g>
				</g>
			</g>
		</g>
	</g>
	<g>
		<g>
			<g>
				<g>
					<g id="change1_24"><path fill="#FFFFFF" d="M456.4,178.8l0.1,0.1l0,0l0,0c1,1.5,3.4,3.7,6.5,5.7c3.1,2,6.9,3.7,11.1,3.9c6.5,0.3,11.4,3.8,14.6,7.4
						c3.2,3.6,4.7,7.3,4.8,7.5c0,0,0.4-2.9-0.1-7.4c-0.5-4.5-2-10.5-5.9-16.3l0,0c-0.8-1.3-2.8-4-6-6.1c-3.2-2.2-7.7-3.8-13.2-3.2
						c-6.3,0.7-10.7-1-13.7-3.1c-3-2.1-4.6-4.7-5.1-5.8c0,0,0.3,2.3,1.4,5.6C451.9,170.3,453.6,174.6,456.4,178.8z"></path></g>
				</g>
			</g>
		</g>
	</g>
	<g>
		<g>
			<g>
				<g>
					<g id="change1_25"><path fill="#FFFFFF" d="M443.3,148.4l0.1,0.1v0l0,0c1.2,1.3,3.9,3.2,7.3,4.7c3.4,1.5,7.4,2.6,11.6,2.2c6.5-0.7,11.9,2,15.6,5.1
						c3.7,3.1,5.7,6.5,5.8,6.6c0,0,0-3-1.2-7.3c-1.2-4.3-3.6-10.1-8.3-15.2l0,0c-1-1.1-3.3-3.5-6.9-5.2c-3.5-1.7-8.1-2.6-13.6-1.2
						c-6.1,1.6-10.7,0.6-14-1c-3.3-1.6-5.2-3.9-6-4.9c0,0,0.7,2.3,2.2,5.4C437.5,140.8,439.9,144.7,443.3,148.4z"></path></g>
				</g>
			</g>
		</g>
	</g>
	<g>
		<g>
			<g>
				<g>
					<g id="change1_26"><path fill="#FFFFFF" d="M425.7,120.3l0.1,0.1l0,0l0,0c1.4,1.1,4.3,2.5,7.9,3.5c3.5,1,7.7,1.5,11.8,0.4
						c6.3-1.7,12.1,0.2,16.2,2.7c4.1,2.5,6.6,5.5,6.8,5.7c0,0-0.5-2.9-2.3-7c-1.8-4.1-5.1-9.4-10.5-13.8l0,0c-1.1-1-3.8-2.9-7.6-4.1
						c-3.7-1.1-8.4-1.4-13.6,0.9c-5.8,2.5-10.5,2.2-14,1.1c-3.5-1.1-5.8-3.1-6.6-4c0,0,1,2.1,3,5
						C418.9,113.7,421.8,117.2,425.7,120.3z"></path></g>
				</g>
			</g>
		</g>
	</g>
	<g>
		<g>
			<g>
				<g>
					<g id="change1_27"><path fill="#FFFFFF" d="M404.2,95.2l0.1,0.1l0,0l0,0c1.6,0.9,4.6,1.9,8.3,2.3c3.6,0.4,7.9,0.3,11.7-1.4
						c6-2.6,11.9-1.6,16.4,0.2c4.5,1.8,7.4,4.4,7.5,4.6c0,0-0.9-2.8-3.3-6.6c-2.4-3.8-6.4-8.5-12.4-12l0,0c-1.3-0.8-4.2-2.3-8.1-2.9
						c-3.8-0.6-8.5-0.1-13.3,2.9c-5.4,3.4-10.1,3.7-13.7,3.2c-3.6-0.6-6.2-2.2-7.2-3c0,0,1.3,1.9,3.7,4.5
						C396.4,89.6,399.8,92.8,404.2,95.2z"></path></g>
				</g>
			</g>
		</g>
	</g>
	<g>
		<g>
			<g>
				<g>
					<g id="change1_28"><path fill="#FFFFFF" d="M379.1,73.7l0.1,0l0,0h0c1.7,0.6,4.9,1.1,8.5,1c3.7-0.1,7.9-0.9,11.4-3.1c5.5-3.5,11.6-3.4,16.3-2.2
						c4.7,1.1,8,3.3,8.1,3.4c0,0-1.3-2.7-4.2-6.1c-3-3.4-7.7-7.4-14.1-10l0,0c-1.4-0.6-4.5-1.7-8.4-1.6c-3.9,0-8.5,1.2-12.7,4.9
						c-4.8,4.1-9.4,5.2-13.1,5.2c-3.6-0.1-6.4-1.2-7.5-1.9c0,0,1.6,1.7,4.3,3.9C370.5,69.3,374.4,71.9,379.1,73.7z"></path></g>
				</g>
			</g>
		</g>
	</g>
	<g>
		<g>
			<g>
				<g>
					<g id="change1_29"><path fill="#FFFFFF" d="M351,56.1l0.1,0l0,0l0,0c1.7,0.3,5,0.4,8.6-0.3c3.6-0.7,7.6-2.1,10.8-4.8c4.9-4.3,10.9-5.1,15.7-4.7
						c4.8,0.4,8.4,2.1,8.6,2.2c0,0-1.7-2.4-5.1-5.3c-3.4-2.9-8.7-6.2-15.5-7.8l0,0c-1.5-0.4-4.7-1-8.6-0.3
						c-3.8,0.6-8.2,2.5-11.8,6.7c-4.1,4.8-8.5,6.6-12.1,7.1c-3.6,0.5-6.5-0.2-7.7-0.7c0,0,1.8,1.5,4.9,3.2
						C341.9,53.1,346.1,55,351,56.1z"></path></g>
				</g>
			</g>
		</g>
	</g>
	<g>
		<g>
			<g>
				<g>
					<g id="change1_30"><path fill="#FFFFFF" d="M320.6,43l0.1,0h0l0,0c1.8,0.1,5-0.4,8.5-1.6c3.5-1.2,7.2-3.2,9.9-6.4c4.2-5,10-6.7,14.8-7
						c4.8-0.3,8.6,0.8,8.8,0.8c0,0-2-2.2-5.9-4.5c-3.8-2.4-9.5-4.9-16.5-5.4l0,0c-1.5-0.1-4.8-0.2-8.5,1c-3.7,1.2-7.7,3.7-10.7,8.4
						c-3.3,5.4-7.4,7.8-10.9,8.8c-3.5,1.1-6.5,0.8-7.7,0.5c0,0,2,1.2,5.3,2.4C311.2,41.4,315.6,42.7,320.6,43z"></path></g>
				</g>
			</g>
		</g>
	</g>
	<g>
		<g>
			<g>
				<g>
					<g id="change1_31"><path fill="#FFFFFF" d="M288.6,34.6l0.1,0h0l0,0c1.8-0.2,4.9-1.1,8.1-2.9c3.2-1.7,6.6-4.3,8.8-7.8c3.4-5.6,8.9-8.1,13.6-9.1
						c4.7-1,8.6-0.5,8.8-0.5c0,0-2.3-1.8-6.5-3.6C317.6,9,311.5,7.4,304.6,8l0,0c-1.5,0.1-4.8,0.5-8.3,2.2c-3.5,1.7-7.1,4.8-9.3,10
						c-2.5,5.8-6.1,8.8-9.4,10.4c-3.3,1.6-6.3,1.7-7.6,1.7c0,0,2.2,0.8,5.6,1.5C279,34.5,283.6,35.1,288.6,34.6z"></path></g>
				</g>
			</g>
		</g>
	</g>
	<g>
		<g>
			<g>
				<g>
					<g id="change1_32"><path fill="#FFFFFF" d="M255.7,31.2l0.1,0h0l0,0c1.7-0.5,4.7-1.8,7.6-4c3-2.2,5.9-5.2,7.6-9c2.5-6,7.6-9.4,12.1-11.1
						c4.5-1.7,8.4-1.8,8.7-1.8c0,0-2.6-1.5-7-2.5c-4.4-1.1-10.5-1.8-17.3-0.2l0,0c-1.5,0.3-4.7,1.2-7.8,3.5
						c-3.2,2.2-6.3,5.8-7.7,11.2c-1.6,6.2-4.7,9.6-7.8,11.7c-3,2.1-6,2.7-7.2,2.8c0,0,2.3,0.5,5.8,0.7
						C246.2,32.5,250.8,32.4,255.7,31.2z"></path></g>
				</g>
			</g>
		</g>
	</g>
	<g>
		<g>
			<g>
				<g>
					<g id="change1_33"><path fill="#FFFFFF" d="M222.6,32.8l0.1-0.1l0,0l0,0c1.6-0.7,4.3-2.5,6.9-5.1c2.6-2.6,5.1-6,6.1-10.1
						c1.6-6.3,6.1-10.4,10.3-12.8c4.2-2.4,8-3.1,8.3-3.1c0,0-2.8-1-7.3-1.5C242.6-0.3,236.4,0,230,2.6l0,0c-1.4,0.5-4.4,1.9-7.3,4.6
						c-2.8,2.7-5.3,6.7-5.9,12.2c-0.7,6.3-3.3,10.2-5.9,12.7c-2.7,2.5-5.5,3.5-6.7,3.8c0,0,2.3,0.2,5.8-0.2
						C213.4,35.5,218,34.7,222.6,32.8z"></path></g>
				</g>
			</g>
		</g>
	</g>
	<g>
		<g>
			<g>
				<g>
					<g id="change1_34"><path fill="#FFFFFF" d="M190.2,39.3l0.1-0.1l0,0l0,0c1.5-0.9,3.9-3.1,6.1-6.1c2.2-3,4.1-6.7,4.6-10.9
						c0.6-6.5,4.4-11.2,8.2-14.2c3.8-3,7.5-4.2,7.7-4.3c0,0-2.9-0.6-7.4-0.4c-4.5,0.2-10.6,1.4-16.6,4.9v0c-1.3,0.8-4.1,2.6-6.5,5.6
						c-2.4,3.1-4.3,7.4-4,13c0.3,6.3-1.7,10.6-3.9,13.5c-2.3,2.9-4.9,4.3-6,4.8c0,0,2.3-0.2,5.7-1C181.5,43.3,185.9,41.9,190.2,39.3
						z"></path></g>
				</g>
			</g>
		</g>
	</g>
	<g>
		<g>
			<g>
				<g>
					<g id="change1_35"><path fill="#FFFFFF" d="M159.1,50.6l0.1-0.1l0,0l0,0c1.4-1.2,3.4-3.7,5.1-7c1.7-3.3,3.1-7.3,2.8-11.4c-0.4-6.5,2.7-11.8,6-15.3
						c3.3-3.5,6.8-5.3,7-5.4c0,0-3-0.2-7.4,0.8c-4.4,0.9-10.3,3-15.7,7.4l0,0c-1.2,0.9-3.7,3.1-5.5,6.5c-1.9,3.4-3.1,8-2,13.5
						c1.3,6.2,0,10.7-1.8,13.9c-1.8,3.2-4.2,5-5.3,5.7c0,0,2.3-0.6,5.5-1.9C151.1,55.9,155.2,53.8,159.1,50.6z"></path></g>
				</g>
			</g>
		</g>
	</g>
	<g>
		<g>
			<g>
				<g>
					<g id="change1_36"><path fill="#FFFFFF" d="M130.1,66.5L130.1,66.5l0.1-0.1h0c1.2-1.4,2.8-4.2,4-7.7c1.2-3.5,1.9-7.7,1.1-11.7
						c-1.4-6.4,0.9-12,3.6-16c2.7-4,5.9-6.3,6.1-6.4c0,0-3,0.3-7.2,1.9c-4.2,1.6-9.7,4.6-14.4,9.7l0,0c-1,1.1-3.2,3.7-4.5,7.3
						c-1.3,3.7-1.8,8.4,0.1,13.6c2.2,6,1.6,10.6,0.3,14c-1.3,3.4-3.4,5.6-4.4,6.4c0,0,2.2-0.9,5.1-2.7C123,73,126.8,70.3,130.1,66.5
						z"></path></g>
				</g>
			</g>
		</g>
	</g>
	<g>
		<g>
			<g>
				<g>
					<g id="change1_37"><path fill="#FFFFFF" d="M103.8,86.7l0.1-0.1l0,0l0,0c0.9-1.5,2.1-4.5,2.8-8.2c0.6-3.6,0.7-7.8-0.7-11.7c-2.3-6.1-1-12,1.2-16.4
						c2.1-4.3,4.8-7.1,5-7.3c0,0-2.9,0.7-6.8,2.9c-3.9,2.2-8.9,5.9-12.7,11.7l0,0c-0.8,1.2-2.6,4.1-3.3,7.9
						c-0.8,3.8-0.6,8.5,2.1,13.4c3.1,5.6,3.2,10.3,2.4,13.8c-0.8,3.6-2.5,6-3.3,7c0,0,2-1.2,4.7-3.5
						C97.8,94.1,101.1,90.9,103.8,86.7z"></path></g>
				</g>
			</g>
		</g>
	</g>
	<g>
		<g>
			<g>
				<g>
					<g id="change1_38"><path fill="#FFFFFF" d="M80.8,110.5l0-0.1v0l0,0c0.7-1.6,1.4-4.8,1.5-8.5C82.5,98.2,82,94,80,90.3c-3.2-5.7-2.8-11.7-1.3-16.3
						c1.4-4.6,3.7-7.8,3.9-7.9c0,0-2.7,1.2-6.3,3.9c-3.5,2.8-7.9,7.2-10.8,13.5l0,0c-0.7,1.4-1.9,4.4-2.1,8.3
						c-0.2,3.9,0.7,8.5,4.1,12.9c3.8,5.1,4.7,9.7,4.4,13.3c-0.3,3.7-1.6,6.3-2.3,7.4c0,0,1.8-1.5,4.1-4.1
						C76,118.8,78.8,115.1,80.8,110.5z"></path></g>
				</g>
			</g>
		</g>
	</g>
	<g>
		<g>
			<g>
				<g>
					<g id="change1_39"><path fill="#FFFFFF" d="M61.7,137.5l0-0.1l0,0l0,0c0.4-1.7,0.7-5,0.2-8.6c-0.5-3.6-1.6-7.7-4.2-11c-4-5.2-4.5-11.2-3.7-16
						c0.7-4.8,2.5-8.2,2.6-8.4c0,0-2.5,1.5-5.6,4.8c-3.1,3.3-6.7,8.3-8.7,15l0,0c-0.5,1.5-1.2,4.7-0.8,8.5c0.4,3.9,2,8.3,6,12.2
						c4.6,4.4,6.1,8.9,6.4,12.5c0.3,3.6-0.6,6.5-1.1,7.7c0,0,1.6-1.8,3.4-4.7C58.2,146.4,60.3,142.4,61.7,137.5z"></path></g>
				</g>
			</g>
		</g>
	</g>
	<g>
		<g>
			<g>
				<g>
					<g id="change1_40"><path fill="#FFFFFF" d="M46.9,167.1l0-0.1v0l0,0c0.2-1.8-0.1-5-1.1-8.5c-1-3.5-2.8-7.4-5.8-10.3c-4.7-4.5-6.1-10.4-6.1-15.2
						c0-4.8,1.3-8.5,1.3-8.7c0,0-2.3,1.9-4.8,5.6c-2.6,3.7-5.4,9.2-6.3,16.1l0,0c-0.2,1.5-0.5,4.8,0.5,8.6c1,3.8,3.2,7.9,7.8,11.1
						c5.2,3.7,7.4,7.8,8.2,11.4c0.9,3.6,0.4,6.5,0.1,7.8c0,0,1.3-2,2.7-5.1C44.7,176.4,46.3,172.1,46.9,167.1z"></path></g>
				</g>
			</g>
		</g>
	</g>
	<g>
		<g>
			<g>
				<g>
					<g id="change1_41"><path fill="#FFFFFF" d="M37.2,194.7v-0.1v0l0,0c-0.1-1.8-0.8-4.9-2.4-8.3c-1.5-3.3-3.9-6.9-7.3-9.3c-5.4-3.7-7.6-9.3-8.3-14.1
						c-0.8-4.8,0-8.6,0-8.8c0,0-2,2.2-3.9,6.3c-2,4-3.9,10-3.8,16.9l0,0c0,1.5,0.2,4.8,1.8,8.4c1.5,3.6,4.4,7.3,9.4,9.8
						c5.7,2.8,8.5,6.6,9.9,10c1.4,3.4,1.4,6.4,1.2,7.6c0,0,1-2.1,1.9-5.5C36.5,204.2,37.4,199.7,37.2,194.7z"></path></g>
				</g>
			</g>
		</g>
	</g>
	<g>
		<g>
			<g>
				<g>
					<g id="change1_42"><path fill="#FFFFFF" d="M32,223.4l0-0.1v0l0,0c-0.4-1.7-1.6-4.8-3.6-7.8c-2-3.1-4.8-6.2-8.6-8.1c-5.9-2.9-8.9-8.1-10.4-12.7
						C7.9,190,8,186.1,8,185.9c0,0-1.6,2.5-2.9,6.8C3.7,197,2.7,203.1,3.9,210l0,0c0.2,1.5,1,4.7,3,8c2,3.3,5.5,6.6,10.8,8.3
						c6.1,1.9,9.4,5.3,11.2,8.4c1.9,3.1,2.3,6.1,2.4,7.4c0,0,0.6-2.3,1-5.7C32.7,232.9,32.9,228.3,32,223.4z"></path></g>
				</g>
			</g>
		</g>
	</g>
</g>
</svg>