<?xml version="1.0" encoding="utf-8"?><!DOCTYPE svg PUBLIC "-//W3C//DTD SVG 1.1//EN" "http://www.w3.org/Graphics/SVG/1.1/DTD/svg11.dtd">
<svg version="1.1" id="Layer_1" xmlns="http://www.w3.org/2000/svg" xmlns:xlink="http://www.w3.org/1999/xlink" x="0px" y="0px" viewBox="0 0 500 500" enable-background="new 0 0 500 500" xml:space="preserve">
<g>
	<g id="change1_1"><circle fill="#FFFFFF" cx="250" cy="250" r="250"></circle></g>
</g>
<g>
	<g>
		<g id="change2_1"><path fill="#3F4651" d="M237,62.2c0,0,13.2,1.8,24.7-9.7c0,0,14.4-13.6,2.4-25.2c-4.7-4.5-12-5.1-16.5,0.1c-1.8,2.1-2.8,4.8-3,7.6
			c-0.2,2.4,0.3,4.8,0.3,7.2c0,5-0.8,10.3-3.2,14.7c-0.6,1.1-1.3,2.1-2.1,3C239.3,60.3,237.7,62.3,237,62.2z"></path></g>
	</g>
	<g>
		<g id="change2_2"><path fill="#3F4651" d="M275.3,63.4c0,0,12.6,4.4,26.2-4.6c0,0,16.8-10.4,7.4-24.2c-3.7-5.4-10.7-7.5-16.2-3.3
			c-2.2,1.7-3.7,4.2-4.5,6.8c-0.7,2.3-0.7,4.7-1.2,7.1c-1.1,4.9-2.8,9.9-6.1,13.8c-0.8,0.9-1.7,1.8-2.7,2.6
			C277.9,61.9,275.9,63.6,275.3,63.4z"></path></g>
	</g>
	<g>
		<g id="change2_3"><path fill="#3F4651" d="M312.5,72.2c0,0,11.4,6.9,26.5,0.8c0,0,18.6-6.8,12.2-22.2c-2.5-6-9-9.5-15.2-6.5
			c-2.5,1.2-4.5,3.3-5.7,5.8c-1.1,2.1-1.6,4.5-2.6,6.7c-2,4.6-4.8,9.1-8.7,12.3c-1,0.8-2,1.4-3.1,2C315.3,71.4,313,72.6,312.5,72.2z
			"></path></g>
	</g>
	<g>
		<g id="change2_4"><path fill="#3F4651" d="M347.1,88.5c0,0,9.8,9,25.8,6.2c0,0,19.6-2.9,16.4-19.3c-1.2-6.4-6.9-11.1-13.5-9.4
			c-2.7,0.7-5,2.4-6.8,4.5c-1.5,1.9-2.5,4.1-3.9,6.1c-2.9,4.1-6.5,8-11,10.3c-1.1,0.6-2.3,1-3.5,1.3
			C350.1,88.2,347.6,88.9,347.1,88.5z"></path></g>
	</g>
	<g>
		<g id="change2_5"><path fill="#3F4651" d="M377.8,111.3c0,0,7.8,10.8,24.1,11.2c0,0,19.7,1.1,20-15.6c0.1-6.5-4.5-12.3-11.4-11.9
			c-2.8,0.1-5.4,1.3-7.6,3c-1.9,1.5-3.2,3.5-5,5.1c-3.7,3.4-8,6.5-12.9,7.8c-1.2,0.3-2.4,0.5-3.6,0.6
			C380.7,111.7,378.2,111.8,377.8,111.3z"></path></g>
	</g>
	<g>
		<g id="change2_6"><path fill="#3F4651" d="M403.2,139.9c0,0,5.5,12.2,21.3,15.9c0,0,19.1,5.1,22.7-11.2c1.4-6.4-2-12.9-8.7-14
			c-2.7-0.4-5.6,0.2-8,1.4c-2.1,1.1-3.9,2.8-5.9,4c-4.3,2.6-9.1,4.8-14.2,5.1c-1.2,0.1-2.5,0-3.7-0.2
			C406,140.8,403.5,140.5,403.2,139.9z"></path></g>
	</g>
	<g>
		<g id="change2_7"><path fill="#3F4651" d="M422.3,173c0,0,2.9,13,17.7,19.8c0,0,17.7,8.8,24.5-6.4c2.6-5.9,0.7-13.1-5.7-15.5c-2.6-1-5.5-0.9-8.1-0.2
			c-2.3,0.6-4.4,1.9-6.6,2.7c-4.7,1.7-9.9,2.8-14.9,2.1c-1.2-0.2-2.4-0.5-3.6-0.9C424.9,174.5,422.5,173.7,422.3,173z"></path></g>
	</g>
	<g>
		<g id="change2_8"><path fill="#3F4651" d="M434.4,209.3c0,0,0.2,13.3,13.3,23c0,0,15.6,12.2,25.3-1.3c3.8-5.3,3.3-12.7-2.5-16.3
			c-2.4-1.5-5.2-2-7.9-1.8c-2.4,0.2-4.7,1-7.1,1.4c-5,0.7-10.3,0.8-15-1c-1.2-0.4-2.3-0.9-3.3-1.6
			C436.6,211.3,434.4,210,434.4,209.3z"></path></g>
	</g>
	<g>
		<g id="change2_9"><path fill="#3F4651" d="M438.8,247.3c0,0-2.5,13.1,8.4,25.2c0,0,12.8,15.1,25,3.8c4.8-4.4,5.8-11.7,0.9-16.5c-2-1.9-4.7-3-7.4-3.4
			c-2.4-0.3-4.8,0.1-7.2-0.1c-5-0.3-10.2-1.3-14.5-4c-1-0.6-2-1.4-2.9-2.2C440.6,249.7,438.7,248,438.8,247.3z"></path></g>
	</g>
	<g>
		<g id="change2_10"><path fill="#3F4651" d="M435.5,285.4c0,0-5.1,12.3,3.1,26.4c0,0,9.5,17.4,23.8,8.8c5.6-3.4,8.1-10.3,4.2-16
			c-1.6-2.3-4-3.9-6.6-4.8c-2.3-0.8-4.7-0.9-7-1.5c-4.8-1.3-9.7-3.4-13.4-6.8c-0.9-0.8-1.7-1.8-2.4-2.8
			C436.8,288.1,435.3,286,435.5,285.4z"></path></g>
	</g>
	<g>
		<g id="change2_11"><path fill="#3F4651" d="M424.6,322.1c0,0-7.5,11-2.3,26.5c0,0,5.8,18.9,21.5,13.4c6.1-2.2,10-8.5,7.3-14.8
			c-1.1-2.6-3.1-4.6-5.5-6.1c-2.1-1.2-4.4-1.8-6.6-2.9c-4.5-2.3-8.9-5.3-11.8-9.4c-0.7-1-1.3-2.1-1.8-3.2
			C425.3,325,424.2,322.6,424.6,322.1z"></path></g>
	</g>
	<g>
		<g id="change2_12"><path fill="#3F4651" d="M406.5,355.8c0,0-9.6,9.3-7.6,25.5c0,0,1.8,19.7,18.4,17.4c6.4-0.9,11.5-6.3,10.1-13
			c-0.5-2.7-2.1-5.2-4.1-7c-1.8-1.6-3.9-2.7-5.8-4.2c-3.9-3.1-7.6-6.9-9.6-11.6c-0.5-1.1-0.9-2.3-1.1-3.5
			C406.6,358.8,406,356.2,406.5,355.8z"></path></g>
	</g>
	<g>
		<g id="change2_13"><path fill="#3F4651" d="M382,385.1c0,0-11.2,7.2-12.6,23.4c0,0-2.2,19.7,14.5,20.8c6.5,0.4,12.5-3.8,12.5-10.7
			c0-2.8-1-5.5-2.6-7.7c-1.4-2-3.3-3.4-4.9-5.3c-3.2-3.8-6.1-8.3-7.1-13.3c-0.3-1.2-0.4-2.4-0.4-3.7
			C381.5,388.1,381.4,385.5,382,385.1z"></path></g>
	</g>
	<g>
		<g id="change2_14"><path fill="#3F4651" d="M352,408.9c0,0-12.5,4.8-17,20.4c0,0-6.1,18.8,10,23.3c6.3,1.7,13-1.2,14.4-7.9c0.6-2.7,0.1-5.6-1-8.1
			c-1-2.2-2.6-4-3.7-6.2c-2.4-4.4-4.3-9.4-4.3-14.4c0-1.2,0.1-2.5,0.4-3.7C351,411.7,351.4,409.2,352,408.9z"></path></g>
	</g>
	<g>
		<g id="change2_15"><path fill="#3F4651" d="M317.9,426.2c0,0-13.2,2.2-20.8,16.5c0,0-9.8,17.2,5.1,24.8c5.8,3,13,1.4,15.8-4.9
			c1.1-2.5,1.2-5.4,0.7-8.1c-0.5-2.4-1.7-4.5-2.4-6.8c-1.4-4.8-2.3-10.1-1.3-15c0.2-1.2,0.6-2.4,1.1-3.5
			C316.3,428.7,317.3,426.3,317.9,426.2z"></path></g>
	</g>
	<g>
		<g id="change2_16"><path fill="#3F4651" d="M281,436.2c0,0-13.3-0.5-23.7,12c0,0-13,14.9,0,25.3c5.1,4.1,12.5,4,16.4-1.6c1.6-2.3,2.3-5.1,2.3-7.8
			c0-2.4-0.8-4.7-1-7.1c-0.4-5-0.2-10.3,1.8-15c0.5-1.1,1.1-2.2,1.8-3.2C278.9,438.3,280.4,436.2,281,436.2z"></path></g>
	</g>
	<g>
		<g id="change2_17"><path fill="#3F4651" d="M242.8,438.6c0,0-12.9-3.2-25.6,7c0,0-15.8,11.9-5.2,24.8c4.1,5,11.4,6.4,16.4,1.8c2-1.9,3.3-4.5,3.8-7.2
			c0.5-2.4,0.2-4.8,0.5-7.2c0.6-5,1.9-10.1,4.8-14.3c0.7-1,1.5-2,2.4-2.8C240.3,440.2,242.2,438.4,242.8,438.6z"></path></g>
	</g>
	<g>
		<g id="change2_18"><path fill="#3F4651" d="M205,433.2c0,0-12-5.8-26.5,1.7c0,0-17.9,8.5-10.1,23.2c3,5.7,9.9,8.6,15.7,5c2.4-1.5,4.1-3.7,5.2-6.3
			c0.9-2.2,1.2-4.6,1.9-6.9c1.6-4.7,3.9-9.5,7.6-13c0.9-0.9,1.9-1.6,2.9-2.2C202.2,434.3,204.4,432.9,205,433.2z"></path></g>
	</g>
	<g>
		<g id="change2_19"><path fill="#3F4651" d="M169,420.3c0,0-10.6-8.1-26.3-3.7c0,0-19.2,4.7-14.5,20.7c1.8,6.2,7.9,10.4,14.4,8.1
			c2.6-0.9,4.8-2.8,6.3-5.1c1.4-2,2.1-4.3,3.3-6.4c2.5-4.3,5.7-8.6,10-11.2c1-0.7,2.2-1.2,3.3-1.6C166,420.8,168.4,419.9,169,420.3z
			"></path></g>
	</g>
	<g>
		<g id="change2_20"><path fill="#3F4651" d="M136.3,400.3c0,0-8.8-10.1-25-9c0,0-19.8,0.7-18.4,17.4c0.5,6.5,5.7,11.8,12.4,10.8
			c2.7-0.4,5.3-1.8,7.2-3.7c1.7-1.7,2.9-3.8,4.5-5.6c3.3-3.7,7.3-7.2,12.1-9c1.2-0.4,2.4-0.7,3.6-0.9
			C133.3,400.3,135.9,399.9,136.3,400.3z"></path></g>
	</g>
	<g>
		<g id="change2_21"><path fill="#3F4651" d="M108.4,374.2c0,0-6.6-11.6-22.7-13.8c0,0-19.5-3.3-21.5,13.3c-0.8,6.5,3.2,12.7,10,13.1
			c2.8,0.2,5.5-0.7,7.8-2.2c2-1.3,3.6-3.1,5.5-4.6c4-3,8.7-5.6,13.7-6.4c1.2-0.2,2.5-0.3,3.7-0.2C105.4,373.6,108,373.7,108.4,374.2
			z"></path></g>
	</g>
	<g>
		<g id="change2_22"><path fill="#3F4651" d="M86.2,343c0,0-4.1-12.7-19.4-18.1c0,0-18.4-7.1-23.8,8.7c-2.1,6.2,0.5,13.1,7.1,14.9
			c2.7,0.7,5.6,0.4,8.1-0.6c2.3-0.9,4.2-2.3,6.4-3.4c4.5-2.1,9.6-3.7,14.7-3.5c1.2,0.1,2.5,0.2,3.6,0.6
			C83.5,341.8,86,342.4,86.2,343z"></path></g>
	</g>
	<g>
		<g id="change2_23"><path fill="#3F4651" d="M70.9,308c0,0-1.4-13.3-15.4-21.7c0,0-16.6-10.7-25,3.7c-3.3,5.6-2.1,12.9,4,16c2.5,1.2,5.4,1.5,8.1,1.1
			c2.4-0.4,4.6-1.4,6.9-2c4.9-1.2,10.2-1.7,15.1-0.4c1.2,0.3,2.4,0.7,3.5,1.3C68.5,306.2,70.8,307.4,70.9,308z"></path></g>
	</g>
	<g>
		<g id="change2_24"><path fill="#3F4651" d="M62.9,270.6c0,0,1.3-13.3-10.7-24.3c0,0-14.1-13.8-25.3-1.4c-4.3,4.8-4.7,12.2,0.7,16.5
			c2.2,1.7,4.9,2.6,7.7,2.7c2.4,0.1,4.8-0.5,7.2-0.6c5-0.1,10.3,0.4,14.8,2.6c1.1,0.5,2.2,1.2,3.1,2C60.9,268.4,63,269.9,62.9,270.6
			z"></path></g>
	</g>
	<g>
		<g id="change2_25"><path fill="#3F4651" d="M62.7,232.3c0,0,3.9-12.8-5.5-26c0,0-11-16.4-24.5-6.5c-5.2,3.9-7.1,11-2.7,16.3c1.8,2.1,4.3,3.5,7,4.2
			c2.3,0.6,4.8,0.5,7.1,0.9c4.9,0.9,10,2.4,14,5.5c1,0.8,1.9,1.6,2.7,2.6C61.1,229.8,62.9,231.7,62.7,232.3z"></path></g>
	</g>
	<g>
		<g id="change2_26"><path fill="#3F4651" d="M70.1,194.8c0,0,6.4-11.7-0.2-26.6c0,0-7.5-18.3-22.6-11.3c-5.9,2.7-9.1,9.4-5.9,15.4
			c1.3,2.4,3.5,4.3,6,5.5c2.2,1,4.6,1.4,6.8,2.3c4.7,1.8,9.3,4.4,12.6,8.3c0.8,0.9,1.5,2,2.1,3C69.2,192,70.5,194.3,70.1,194.8z"></path></g>
	</g>
	<g>
		<g id="change2_27"><path fill="#3F4651" d="M85,159.6c0,0,8.6-10.2,5.2-26.1c0,0-3.6-19.4-19.9-15.7c-6.3,1.5-10.8,7.3-8.9,13.9
			c0.8,2.7,2.6,4.9,4.7,6.6c1.9,1.5,4.2,2.3,6.2,3.6c4.2,2.7,8.2,6.2,10.7,10.6c0.6,1.1,1.1,2.2,1.4,3.4
			C84.7,156.6,85.5,159.1,85,159.6z"></path></g>
	</g>
	<g>
		<g id="change2_28"><path fill="#3F4651" d="M106.7,128.1c0,0,10.5-8.2,10.3-24.5c0,0,0.4-19.8-16.3-19.4c-6.5,0.2-12.1,5-11.5,11.8
			c0.2,2.8,1.5,5.4,3.3,7.4c1.6,1.8,3.6,3.1,5.3,4.8c3.5,3.5,6.8,7.7,8.3,12.6c0.4,1.2,0.6,2.4,0.7,3.6
			C107,125.1,107.2,127.7,106.7,128.1z"></path></g>
	</g>
	<g>
		<g id="change2_29"><path fill="#3F4651" d="M134.3,101.6c0,0,12-5.9,15.1-21.9c0,0,4.3-19.3-12.1-22.2c-6.4-1.2-12.9,2.4-13.6,9.2
			c-0.3,2.8,0.4,5.6,1.7,8c1.2,2.1,2.9,3.8,4.3,5.8c2.8,4.2,5.1,8.9,5.6,14c0.1,1.2,0.1,2.5,0,3.7
			C135.2,98.8,134.9,101.3,134.3,101.6z"></path></g>
	</g>
	<g>
		<g id="change2_30"><path fill="#3F4651" d="M166.7,81.3c0,0,12.9-3.4,19.2-18.4c0,0,8.1-18-7.3-24.2c-6-2.4-13.1-0.2-15.2,6.3
			c-0.9,2.6-0.7,5.5,0.1,8.1c0.7,2.3,2.1,4.3,3,6.5c1.9,4.6,3.2,9.8,2.7,14.8c-0.1,1.2-0.4,2.4-0.8,3.6
			C168.1,78.6,167.3,81.1,166.7,81.3z"></path></g>
	</g>
	<g>
		<g id="change2_31"><path fill="#3F4651" d="M202.5,67.9c0,0,13.3-0.7,22.5-14.1c0,0,11.6-16-2.3-25.2c-5.4-3.6-12.8-2.8-16.2,3.1
			c-1.4,2.4-1.8,5.3-1.5,8c0.3,2.4,1.2,4.6,1.6,7c0.9,4.9,1.2,10.2-0.4,15.1c-0.4,1.2-0.9,2.3-1.5,3.4
			C204.4,65.6,203.2,67.8,202.5,67.9z"></path></g>
	</g>
</g>
</svg>