<?xml version="1.0" encoding="utf-8"?><!DOCTYPE svg PUBLIC "-//W3C//DTD SVG 1.1//EN" "http://www.w3.org/Graphics/SVG/1.1/DTD/svg11.dtd">
<svg version="1.1" id="Layer_1" xmlns="http://www.w3.org/2000/svg" xmlns:xlink="http://www.w3.org/1999/xlink" x="0px" y="0px" viewBox="0 0 811.5 521.5" enable-background="new 0 0 811.5 521.5" xml:space="preserve">
<g id="C_repeat">
	<g id="change1_1"><polygon fill="#FFFFFF" points="708.5,518 708.5,504.4 691.5,504.4 691.5,518 686.3,518 681.3,518 681.3,504.4 664.3,504.4 
		664.3,518 659.1,518 654.1,518 654.1,504.4 637,504.4 637,518 631.9,518 626.8,518 626.8,504.4 609.8,504.4 609.8,518 604.7,518 
		599.6,518 599.6,504.4 582.6,504.4 582.6,518 577.5,518 572.4,518 572.4,504.4 555.4,504.4 555.4,518 550.3,518 545.2,518 
		545.2,504.4 528.2,504.4 528.2,518 523,518 518,518 518,504.4 500.9,504.4 500.9,518 495.8,518 490.7,518 490.7,504.4 473.7,504.4 
		473.7,518 468.6,518 463.5,518 463.5,504.4 446.5,504.4 446.5,518 441.4,518 436.3,518 436.3,504.4 419.3,504.4 419.3,518 
		414.2,518 409.1,518 409.1,504.4 392.1,504.4 392.1,518 386.9,518 381.9,518 381.9,504.4 364.8,504.4 364.8,518 359.7,518 
		354.7,518 354.7,504.4 337.6,504.4 337.6,518 332.5,518 327.4,518 327.4,504.4 310.4,504.4 310.4,518 305.3,518 300.2,518 
		300.2,504.4 283.2,504.4 283.2,518 278.1,518 273,518 273,504.4 256,504.4 256,518 250.8,518 245.8,518 245.8,504.4 228.8,504.4 
		228.8,518 223.6,518 218.6,518 218.6,504.4 201.5,504.4 201.5,518 196.4,518 191.3,518 191.3,504.4 174.3,504.4 174.3,518 
		169.2,518 164.1,518 164.1,504.4 147.1,504.4 147.1,518 142,518 136.9,518 136.9,504.4 119.9,504.4 119.9,518 114.7,518 109.7,518 
		109.7,504.4 92.7,504.4 92.7,518 87.5,518 87.5,521.5 96.1,521.5 96.1,507.9 106.2,507.9 106.2,521.5 114.7,521.5 123.3,521.5 
		123.3,507.9 133.5,507.9 133.5,521.5 142,521.5 150.5,521.5 150.5,507.9 160.7,507.9 160.7,521.5 169.2,521.5 177.8,521.5 
		177.8,507.9 187.9,507.9 187.9,521.5 196.4,521.5 205,521.5 205,507.9 215.1,507.9 215.1,521.5 223.6,521.5 232.2,521.5 
		232.2,507.9 242.3,507.9 242.3,521.5 250.8,521.5 259.4,521.5 259.4,507.9 269.6,507.9 269.6,521.5 278.1,521.5 286.6,521.5 
		286.6,507.9 296.8,507.9 296.8,521.5 305.3,521.5 313.9,521.5 313.9,507.9 324,507.9 324,521.5 332.5,521.5 341.1,521.5 
		341.1,507.9 351.2,507.9 351.2,521.5 359.7,521.5 368.3,521.5 368.3,507.9 378.4,507.9 378.4,521.5 386.9,521.5 395.5,521.5 
		395.5,507.9 405.6,507.9 405.6,521.5 414.2,521.5 422.7,521.5 422.7,507.9 432.9,507.9 432.9,521.5 441.4,521.5 449.9,521.5 
		449.9,507.9 460.1,507.9 460.1,521.5 468.6,521.5 477.2,521.5 477.2,507.9 487.3,507.9 487.3,521.5 495.8,521.5 504.4,521.5 
		504.4,507.9 514.5,507.9 514.5,521.5 523,521.5 531.6,521.5 531.6,507.9 541.7,507.9 541.7,521.5 550.3,521.5 558.8,521.5 
		558.8,507.9 569,507.9 569,521.5 577.5,521.5 586,521.5 586,507.9 596.2,507.9 596.2,521.5 604.7,521.5 613.3,521.5 613.3,507.9 
		623.4,507.9 623.4,521.5 631.9,521.5 640.5,521.5 640.5,507.9 650.6,507.9 650.6,521.5 659.1,521.5 667.7,521.5 667.7,507.9 
		677.8,507.9 677.8,521.5 686.3,521.5 694.9,521.5 694.9,507.9 705.1,507.9 705.1,521.5 713.6,521.5 713.6,518 	"></polygon></g>
	<g id="change1_2"><polygon fill="#FFFFFF" points="705,0 705,13.6 694.9,13.6 694.9,0 686.3,0 677.8,0 677.8,13.6 667.6,13.6 667.6,0 659.1,0 
		650.6,0 650.6,13.6 640.4,13.6 640.4,0 631.9,0 623.3,0 623.3,13.6 613.2,13.6 613.2,0 604.7,0 596.1,0 596.1,13.6 586,13.6 586,0 
		577.5,0 568.9,0 568.9,13.6 558.8,13.6 558.8,0 550.2,0 541.7,0 541.7,13.6 531.5,13.6 531.5,0 523,0 514.5,0 514.5,13.6 
		504.3,13.6 504.3,0 495.8,0 487.2,0 487.2,13.6 477.1,13.6 477.1,0 468.6,0 460,0 460,13.6 449.9,13.6 449.9,0 441.4,0 432.8,0 
		432.8,13.6 422.7,13.6 422.7,0 414.2,0 405.6,0 405.6,13.6 395.4,13.6 395.4,0 386.9,0 378.4,0 378.4,13.6 368.2,13.6 368.2,0 
		359.7,0 351.1,0 351.1,13.6 341,13.6 341,0 332.5,0 323.9,0 323.9,13.6 313.8,13.6 313.8,0 305.3,0 296.7,0 296.7,13.6 286.6,13.6 
		286.6,0 278.1,0 269.5,0 269.5,13.6 259.3,13.6 259.3,0 250.8,0 242.3,0 242.3,13.6 232.1,13.6 232.1,0 223.6,0 215,0 215,13.6 
		204.9,13.6 204.9,0 196.4,0 187.8,0 187.8,13.6 177.7,13.6 177.7,0 169.2,0 160.6,0 160.6,13.6 150.5,13.6 150.5,0 142,0 133.4,0 
		133.4,13.6 123.3,13.6 123.3,0 114.7,0 114.7,0 106.2,0 106.2,13.6 96,13.6 96,0 87.5,0 87.5,3.5 92.6,3.5 92.6,17.1 109.6,17.1 
		109.6,3.5 114.7,3.5 114.7,3.5 119.8,3.5 119.8,17.1 136.8,17.1 136.8,3.5 142,3.5 147,3.5 147,17.1 164.1,17.1 164.1,3.5 
		169.2,3.5 174.2,3.5 174.2,17.1 191.3,17.1 191.3,3.5 196.4,3.5 201.5,3.5 201.5,17.1 218.5,17.1 218.5,3.5 223.6,3.5 228.7,3.5 
		228.7,17.1 245.7,17.1 245.7,3.5 250.8,3.5 255.9,3.5 255.9,17.1 272.9,17.1 272.9,3.5 278.1,3.5 283.1,3.5 283.1,17.1 300.1,17.1 
		300.1,3.5 305.3,3.5 310.3,3.5 310.3,17.1 327.4,17.1 327.4,3.5 332.5,3.5 337.6,3.5 337.6,17.1 354.6,17.1 354.6,3.5 359.7,3.5 
		364.8,3.5 364.8,17.1 381.8,17.1 381.8,3.5 386.9,3.5 392,3.5 392,17.1 409,17.1 409,3.5 414.2,3.5 419.2,3.5 419.2,17.1 
		436.2,17.1 436.2,3.5 441.4,3.5 446.4,3.5 446.4,17.1 463.5,17.1 463.5,3.5 468.6,3.5 473.7,3.5 473.7,17.1 490.7,17.1 490.7,3.5 
		495.8,3.5 500.9,3.5 500.9,17.1 517.9,17.1 517.9,3.5 523,3.5 528.1,3.5 528.1,17.1 545.1,17.1 545.1,3.5 550.2,3.5 555.3,3.5 
		555.3,17.1 572.3,17.1 572.3,3.5 577.5,3.5 582.5,3.5 582.5,17.1 599.6,17.1 599.6,3.5 604.7,3.5 609.8,3.5 609.8,17.1 626.8,17.1 
		626.8,3.5 631.9,3.5 637,3.5 637,17.1 654,17.1 654,3.5 659.1,3.5 664.2,3.5 664.2,17.1 681.2,17.1 681.2,3.5 686.3,3.5 691.4,3.5 
		691.4,17.1 708.4,17.1 708.4,3.5 713.6,3.5 713.6,0 	"></polygon></g>
</g>
<g id="W">
	<g id="change1_3"><path fill="#FFFFFF" d="M50.9,6.4c-0.5,0.2-0.9,0.3-0.9,0.3l4.2,12.9c0,0-0.9,0.3-2.2,0.8c-0.7,0.3-1.4,0.6-2.3,0.9
		c-0.8,0.4-1.7,0.7-2.5,1.2c-1.7,0.8-3.4,1.8-4.6,2.5c-0.6,0.4-1.1,0.7-1.5,0.9c-0.3,0.2-0.5,0.4-0.5,0.4L33,15.1
		c0,0-1.1,0.8-2.3,1.6c-1.1,0.9-2.2,1.8-2.2,1.8s-0.3,0.2-0.7,0.6c-0.4,0.4-1,0.8-1.5,1.3c-0.5,0.5-1.1,0.9-1.5,1.3
		c-0.4,0.4-0.6,0.6-0.6,0.6l9.4,9.8c0,0-0.7,0.6-1.7,1.7c-0.5,0.5-1.1,1.1-1.6,1.8c-0.3,0.3-0.6,0.7-0.9,1c-0.3,0.4-0.6,0.8-0.9,1.1
		c-0.6,0.7-1.2,1.5-1.7,2.2c-0.5,0.7-1,1.4-1.3,2c-0.4,0.6-0.7,1.1-0.9,1.5c-0.2,0.4-0.3,0.6-0.3,0.6l-11.8-6.8c0,0-0.2,0.3-0.4,0.8
		c-0.3,0.5-0.6,1.1-0.9,1.7c-0.3,0.6-0.6,1.3-0.9,1.7c-0.2,0.5-0.4,0.8-0.4,0.8s-0.6,1.3-1.2,2.6c-0.5,1.3-1.1,2.7-1.1,2.7l12.8,4.7
		c0,0-0.3,0.9-0.8,2.2c-0.4,1.4-0.9,3.2-1.3,5.1c-0.2,0.9-0.3,1.9-0.5,2.8c-0.1,0.9-0.2,1.7-0.3,2.4c-0.1,0.7-0.1,1.3-0.1,1.7
		c0,0.4-0.1,0.7-0.1,0.7L3.6,66.2c0,0,0,0.3-0.1,0.9c0,0.5,0,1.2-0.1,2c0,0.7,0,1.4,0,1.9c0,0.5,0,0.8,0,0.8v5.1h13.6v17H3.5v10.2
		h13.6v17H3.5v10.2h13.6v17H3.5v10.2h13.6v17H3.5v10.2h13.6v17H3.5V213h13.6v17H3.5v10.2h13.6v17H3.5v10.2h13.6v17H3.5v10.2h13.6v17
		H3.5v10.2h13.6v17H3.5v10.2h13.6v17H3.5v10.2h13.6v17H3.5v10.2h13.6v17H3.5v10.2h13.6v17H3.5c0,0,0,1.3,0,2.5
		c0,1.4,0.1,2.8,0.1,2.8s0,0.4,0,0.9c0,0.5,0.1,1.2,0.1,2c0.1,1.4,0.3,2.9,0.3,2.9l13.5-1.6c0,0,0.4,3.8,1.4,7.5
		c1,3.7,2.5,7.2,2.5,7.2l-12.5,5.4c0,0,0.6,1.3,1.2,2.6c0.6,1.3,1.3,2.5,1.3,2.5s0.2,0.3,0.4,0.8c0.3,0.5,0.6,1.1,1,1.7
		c0.4,0.6,0.7,1.2,1,1.7c0.3,0.5,0.5,0.8,0.5,0.8l11.4-7.4c0,0,0.5,0.8,1.3,2c0.4,0.6,0.9,1.3,1.5,2c0.3,0.3,0.6,0.7,0.8,1.1
		c0.3,0.4,0.6,0.7,0.9,1.1c1.2,1.4,2.6,2.8,3.6,3.8c0.5,0.5,1,0.9,1.3,1.2c0.3,0.3,0.5,0.4,0.5,0.4l-8.9,10.3c0,0,1,1,2.2,1.8
		c0.6,0.4,1.1,0.9,1.5,1.2c0.4,0.3,0.7,0.5,0.7,0.5s0.3,0.2,0.7,0.5c0.5,0.3,1,0.8,1.6,1.1c0.6,0.4,1.2,0.8,1.7,1.1
		c0.4,0.3,0.8,0.5,0.8,0.5l7-11.7c0,0,0.8,0.5,2.1,1.2c0.6,0.3,1.4,0.7,2.2,1.1c0.8,0.4,1.7,0.8,2.5,1.2c0.9,0.3,1.8,0.7,2.6,1
		c0.8,0.3,1.6,0.6,2.3,0.8c1.4,0.4,2.3,0.7,2.3,0.7l-3.5,13.2c0,0,0.3,0.1,0.9,0.2c0.5,0.1,1.2,0.3,1.9,0.4c0.7,0.2,1.4,0.3,1.9,0.4
		c0.5,0.1,0.9,0.2,0.9,0.2s1.4,0.3,2.8,0.4c0.7,0.1,1.4,0.2,2,0.2c0.5,0,0.9,0.1,0.9,0.1l1.2-13.6c0,0,0.2,0,0.7,0
		c0.4,0,1,0.1,1.7,0.1c0.7,0,1.6,0,2.4,0.1H74c4.2,0,8.5,0,8.5,0V518h5.1v3.5H79v-13.6c0,0-2.5,0-5.1,0c-1.3,0-2.5,0-3.5,0
		c-0.9,0-1.5,0-1.5,0l-0.4,13.6c0,0-0.6,0-1.6,0c-0.9-0.1-2.2-0.2-3.5-0.3c-1.2-0.2-2.5-0.3-3.4-0.4c-0.9-0.2-1.6-0.3-1.6-0.3
		s-0.6-0.1-1.5-0.3c-0.9-0.2-2.1-0.5-3.4-0.8c-1.2-0.3-2.4-0.7-3.3-0.9c-0.5-0.1-0.8-0.2-1.1-0.3c-0.3-0.1-0.4-0.1-0.4-0.1L53,505
		c0,0-0.6-0.2-1.4-0.5c-0.9-0.3-2-0.8-3.1-1.2c-1.1-0.5-2.2-1-3-1.4c-0.8-0.4-1.3-0.7-1.3-0.7l-6.4,12c0,0-0.6-0.3-1.4-0.8
		c-0.8-0.5-1.9-1.1-3-1.8c-2.2-1.3-4.2-2.8-4.2-2.8s-0.1-0.1-0.4-0.2c-0.2-0.2-0.5-0.4-0.9-0.7c-0.7-0.6-1.7-1.3-2.7-2.1
		c-1.9-1.6-3.7-3.4-3.7-3.4l9.5-9.8c0,0-1.8-1.7-3.3-3.5c-0.8-0.9-1.6-1.8-2.1-2.6c-0.6-0.7-0.9-1.2-0.9-1.2l-11,8
		c0,0-0.4-0.5-0.9-1.3c-0.6-0.8-1.2-1.8-1.9-2.9c-0.7-1-1.3-2.2-1.8-3c-0.5-0.8-0.8-1.4-0.8-1.4s-0.3-0.6-0.7-1.4
		c-0.4-0.8-1-2-1.5-3.1c-0.5-1.1-1-2.3-1.3-3.2c-0.3-0.9-0.6-1.5-0.6-1.5l12.8-4.6c0,0-0.2-0.6-0.5-1.4c-0.3-0.9-0.6-2-1-3.2
		c-0.3-1.2-0.5-2.3-0.8-3.2c-0.2-0.9-0.3-1.5-0.3-1.5l-13.4,2.4c0,0-0.1-0.6-0.3-1.6c-0.1-0.9-0.3-2.2-0.5-3.4
		c-0.1-1.2-0.2-2.5-0.3-3.5c0-0.5,0-0.9-0.1-1.2c0-0.3,0-0.4,0-0.4s0-0.6,0-1.6c0-1,0-2,0-3.1c0-2.1,0-4.2,0-4.2h13.6v-10.1H0v-17.1
		h13.6V407H0v-17.1h13.6v-10.1H0v-17.1h13.6v-10.1H0v-17.1h13.6v-10.1H0v-17.1h13.6v-10.1H0V281h13.6v-10.1H0v-17.1h13.6v-10.1H0
		v-17.1h13.6v-10.1H0v-17.1h13.6v-10.1H0v-17.1h13.6V162H0v-17.1h13.6v-10.1H0v-17.1h13.6v-10.1H0V90.5h13.6V80.4H0v-8.6
		c0,0,0-0.6,0-1.4c0-0.9,0.1-2.2,0.1-3.4c0.1-1.2,0.2-2.5,0.3-3.4C0.5,62.6,0.6,62,0.6,62l13.5,1.7c0,0,0.1-0.6,0.2-1.5
		c0.2-0.9,0.4-2.1,0.6-3.3c0.5-2.4,1.2-4.7,1.2-4.7L3,50.3c0,0,0.2-0.6,0.5-1.5c0.3-0.9,0.7-2.1,1.2-3.3c0.5-1.2,0.9-2.4,1.3-3.2
		c0.4-0.9,0.6-1.4,0.6-1.4s0.2-0.6,0.7-1.4c0.4-0.8,1-2,1.6-3c1.2-2.2,2.6-4.3,2.6-4.3l11.4,7.5c0,0,1.3-2,2.8-3.9
		c0.7-1,1.5-1.9,2.1-2.5c0.6-0.7,1-1.1,1-1.1l-10-9.3c0,0,0.4-0.5,1.1-1.1c0.6-0.7,1.6-1.6,2.5-2.4c0.9-0.9,1.9-1.7,2.6-2.3
		c0.7-0.6,1.2-1,1.2-1s0.5-0.4,1.2-1c0.7-0.6,1.8-1.3,2.8-2c1-0.7,2.1-1.4,2.9-1.9c0.8-0.5,1.3-0.8,1.3-0.8l7,11.7
		c0,0,2.1-1.2,4.2-2.3c1.1-0.5,2.2-1,3-1.4c0.8-0.3,1.4-0.5,1.4-0.5L45.2,4.8c0,0,0.6-0.2,1.5-0.6c0.9-0.3,2.1-0.7,3.3-1.1
		c1.2-0.3,2.4-0.7,3.4-0.9c0.9-0.2,1.5-0.4,1.5-0.4s0.6-0.1,1.5-0.4c0.9-0.2,2.2-0.4,3.4-0.6c1.2-0.2,2.5-0.3,3.4-0.5
		c0.9-0.1,1.6-0.1,1.6-0.1l1.1,13.6c0,0,0.6,0,1.5-0.1c0.9-0.1,2.1-0.1,3.3-0.1c2.5,0,5.1,0,5.1,0V0h11.8v3.5h-8.4v13.6
		c0,0-4.3,0-8.5,0c-1,0-1.9,0-2.8,0.1c-0.9,0.1-1.7,0.1-2.4,0.2c-1.4,0.2-2.4,0.3-2.4,0.3L61.2,4.1c0,0-0.3,0-0.9,0.1
		c-0.5,0.1-1.2,0.2-1.9,0.3C57.7,4.7,57,4.8,56.5,5c-0.5,0.1-0.9,0.2-0.9,0.2s-0.4,0.1-0.9,0.2c-0.5,0.1-1.2,0.3-1.9,0.5
		C52.1,6.1,51.5,6.3,50.9,6.4z"></path></g>
</g>
<g id="E">
	<g id="change1_4"><path fill="#FFFFFF" d="M811.5,90.8V73.7h-13.6c0,0,0-0.6,0-1.6c0-1,0-2.2,0-3.4c0-1.2-0.2-2.4-0.2-3.3c0-0.5-0.1-0.8-0.1-1.1
		c0-0.3-0.1-0.4-0.1-0.4l13.5-1.6c0,0-0.3-2.5-0.8-5c-0.2-1.2-0.5-2.5-0.7-3.4s-0.4-1.5-0.4-1.5s-0.2-0.6-0.4-1.5
		c-0.2-0.9-0.6-2.1-1.1-3.3c-0.4-1.2-0.9-2.4-1.2-3.3c-0.2-0.4-0.3-0.8-0.4-1.1c-0.1-0.2-0.2-0.4-0.2-0.4l-12.5,5.4
		c0,0-0.2-0.5-0.6-1.4c-0.3-0.8-0.9-1.9-1.5-3c-0.6-1.1-1.2-2.1-1.7-2.9c-0.5-0.8-0.8-1.3-0.8-1.3l11.4-7.4c0,0-0.3-0.5-0.9-1.3
		c-0.5-0.8-1.3-1.8-2-2.8c-0.8-1-1.5-2-2.1-2.7c-0.6-0.7-1-1.2-1-1.2s-0.4-0.5-1-1.2c-0.7-0.7-1.5-1.6-2.4-2.5
		c-0.9-0.9-1.8-1.8-2.5-2.4c-0.7-0.6-1.2-1-1.2-1l-8.9,10.3c0,0-0.5-0.4-1.2-1c-0.7-0.5-1.6-1.3-2.6-2c-1-0.7-2-1.4-2.7-1.9
		c-0.8-0.5-1.3-0.8-1.3-0.8l7-11.6c0,0-0.5-0.3-1.4-0.8c-0.4-0.2-0.9-0.5-1.4-0.8c-0.5-0.3-1.1-0.6-1.6-0.8
		c-1.1-0.6-2.2-1.1-3.1-1.5c-0.8-0.4-1.4-0.6-1.4-0.6s-0.6-0.2-1.5-0.6c-0.9-0.4-2-0.8-3.3-1.2c-0.6-0.2-1.2-0.4-1.8-0.6
		c-0.6-0.2-1.1-0.3-1.6-0.4c-0.9-0.3-1.5-0.4-1.5-0.4l-3.5,13.2c0,0-0.1,0-0.4-0.1c-0.3-0.1-0.6-0.1-1.1-0.2c-0.4-0.1-1-0.2-1.5-0.3
		c-0.5-0.1-1.2-0.2-1.7-0.3c-1.2-0.2-2.4-0.3-3.3-0.5c-0.9-0.1-1.5-0.2-1.5-0.2l1.2-13.5c0,0-0.6,0-1.6-0.1
		c-0.9-0.1-2.2-0.1-3.4-0.1c-0.5,0-0.9,0-1.3,0v0h-0.3c-0.6,0-1.1,0-1.6,0c-0.8,0-1.3,0-1.3,0v0h-5.4v13.6h-10.1V0h-8.5v3.5h5.1
		v13.6l17,0V3.5h2v0c0,0,1.3,0,2.5,0c0.6,0,1.3,0,1.9,0c0.5,0,0.9,0,0.9,0l-0.4,13.6c0,0,1,0,2.4,0.1c0.7,0,1.6,0.1,2.4,0.2
		c0.9,0.1,1.8,0.2,2.8,0.4c0.9,0.2,1.9,0.3,2.7,0.6c0.9,0.2,1.7,0.4,2.4,0.6c0.7,0.2,1.3,0.4,1.7,0.5c0.4,0.1,0.6,0.2,0.6,0.2
		l4.2-12.9c0,0,0.3,0.1,0.8,0.3c0.5,0.2,1.2,0.4,1.9,0.7c1.3,0.5,2.7,1.1,2.7,1.1s1.3,0.6,2.6,1.2c1.3,0.6,2.5,1.3,2.5,1.3l-6.4,12
		c0,0,0.2,0.1,0.6,0.3c0.4,0.2,0.9,0.5,1.5,0.9c1.2,0.7,2.8,1.7,4.4,2.9c3.1,2.2,5.8,4.9,5.8,4.9l9.5-9.8c0,0,0.3,0.2,0.7,0.6
		c0.4,0.4,0.9,0.9,1.4,1.4c1,1,1.9,2.1,1.9,2.1s0.2,0.3,0.6,0.7c0.4,0.4,0.8,0.9,1.2,1.5c0.4,0.6,0.9,1.1,1.2,1.5
		c0.3,0.4,0.5,0.7,0.5,0.7l-11,8c0,0,0.6,0.8,1.4,2c0.4,0.6,0.8,1.3,1.3,2.1c0.4,0.8,0.9,1.6,1.4,2.4c0.9,1.7,1.7,3.4,2.2,4.7
		c0.3,0.7,0.5,1.2,0.6,1.6c0.2,0.4,0.2,0.6,0.2,0.6l12.8-4.6c0,0,0.5,1.4,0.9,2.7c0.4,1.4,0.8,2.8,0.8,2.8s0.1,0.3,0.2,0.8
		c0.1,0.5,0.3,1.2,0.4,1.9c0.2,0.7,0.3,1.4,0.4,1.9c0.1,0.5,0.2,0.9,0.2,0.9l-13.4,2.4c0,0,0.7,3.8,0.8,7.6c0.1,1.8,0,4,0.1,5.6
		c0,1.6,0,2.7,0,2.7h13.6v10.2h-13.6v17h13.6v10.2h-13.6v17h13.6v10.2h-13.6v17h13.6V169h-13.6v17h13.6v10.2h-13.6v17h13.6v10.2
		h-13.6v17h13.6v10.2h-13.6v17h13.6v10.2h-13.6v17h13.6v10.2h-13.6v17h13.6v10.2h-13.6v17h13.6v10.2h-13.6v17h13.6v10.2h-13.6v17
		h13.6v10.2h-13.6v17h13.6v10.2h-13.6c0,0,0,4.3,0,8.5c0,1.1,0,2-0.1,2.9c0,0.9-0.1,1.7-0.1,2.4c0,0.7-0.1,1.3-0.2,1.7
		c0,0.4-0.1,0.7-0.1,0.7l13.5,1.7c0,0,0,0.4-0.1,0.9c-0.1,0.5-0.2,1.2-0.3,2c-0.1,0.7-0.2,1.4-0.3,2c-0.1,0.5-0.2,0.9-0.2,0.9
		s-0.3,1.4-0.6,2.8c-0.4,1.4-0.8,2.7-0.8,2.7l-13-4c0,0,0,0.2-0.2,0.6c-0.1,0.4-0.3,1-0.6,1.6c-0.5,1.3-1.2,3.1-2,4.8
		c-1.6,3.5-3.7,6.6-3.7,6.6l11.4,7.5c0,0-0.2,0.3-0.5,0.8c-0.3,0.4-0.7,1-1.1,1.6c-0.8,1.2-1.7,2.3-1.7,2.3s-0.2,0.3-0.6,0.7
		c-0.3,0.4-0.8,1-1.2,1.5c-0.5,0.5-0.9,1.1-1.3,1.5c-0.4,0.4-0.6,0.7-0.6,0.7l-10-9.3c0,0-0.6,0.7-1.6,1.7c-0.5,0.5-1.1,1.1-1.8,1.7
		c-0.7,0.6-1.4,1.2-2.1,1.8c-1.5,1.2-3,2.3-4.2,3.1c-0.6,0.4-1.1,0.7-1.5,0.9c-0.4,0.2-0.6,0.3-0.6,0.3l7,11.7c0,0-1.2,0.7-2.5,1.4
		c-1.3,0.7-2.6,1.3-2.6,1.3s-0.3,0.2-0.8,0.4c-0.5,0.2-1.1,0.5-1.8,0.8c-0.7,0.3-1.3,0.6-1.8,0.8c-0.5,0.2-0.8,0.3-0.8,0.3
		l-4.9-12.7c0,0-0.9,0.4-2.2,0.8c-0.7,0.2-1.5,0.5-2.3,0.7c-0.4,0.1-0.9,0.2-1.3,0.4c-0.5,0.1-0.9,0.2-1.4,0.3
		c-0.5,0.1-0.9,0.2-1.4,0.3c-0.5,0.1-0.9,0.2-1.4,0.2c-0.9,0.2-1.7,0.3-2.4,0.4c-1.4,0.2-2.4,0.2-2.4,0.2l1.2,13.6
		c0,0-0.4,0-0.9,0.1c-0.5,0-1.3,0.1-2,0.1c-1.4,0-2.9,0.1-2.9,0.1h-5.1v-13.6l-17,0V518h-5.1v3.5h8.6v-13.6h10.1v13.6h8.5
		c0,0,0.6,0,1.6,0c0.9,0,2.2,0,3.5-0.2c1.3-0.1,2.5-0.2,3.5-0.3c0.9-0.1,1.6-0.2,1.6-0.2l-1.9-13.5c0,0,0.6-0.1,1.5-0.2
		c0.9-0.2,2.1-0.3,3.3-0.6c1.2-0.2,2.3-0.6,3.2-0.8c0.9-0.2,1.4-0.4,1.4-0.4l4.2,13c0,0,0.6-0.2,1.5-0.5c0.9-0.3,2.1-0.8,3.2-1.2
		c1.2-0.4,2.3-1,3.2-1.4c0.4-0.2,0.8-0.4,1-0.5c0.2-0.1,0.4-0.2,0.4-0.2s0.6-0.3,1.4-0.7c0.8-0.4,2-1,3-1.7c1.1-0.6,2.2-1.3,3-1.8
		s1.3-0.9,1.3-0.9l-7.7-11.2c0,0,0.5-0.4,1.2-0.9c0.8-0.5,1.7-1.3,2.6-2c0.9-0.8,1.8-1.6,2.5-2.2c0.6-0.6,1.1-1,1.1-1l9.4,9.8
		c0,0,0.4-0.4,1.1-1.1c0.7-0.7,1.5-1.6,2.4-2.5c0.8-0.9,1.6-1.9,2.2-2.6c0.6-0.7,1-1.2,1-1.2s0.4-0.5,1-1.2c0.5-0.8,1.3-1.8,2-2.8
		c0.7-1.1,1.4-2.1,1.9-2.9c0.5-0.8,0.8-1.4,0.8-1.4l-11.8-6.8c0,0,0.3-0.5,0.8-1.3c0.4-0.8,1-1.9,1.5-3c0.5-1.1,1-2.2,1.3-3
		c0.3-0.8,0.6-1.4,0.6-1.4l12.8,4.7c0,0,0.2-0.6,0.5-1.5c0.3-0.9,0.7-2.1,1-3.3c0.4-1.2,0.7-2.4,0.9-3.3c0.2-0.9,0.4-1.5,0.4-1.5
		s0.1-0.6,0.3-1.5c0.1-0.9,0.4-2.2,0.6-3.4c0.4-2.5,0.5-5,0.5-5l-13.6-0.9c0,0,0-0.1,0-0.4c0-0.3,0-0.6,0-1.1c0-0.9,0.1-2.1,0.1-3.4
		c0-2.5,0-5.1,0-5.1h13.6v-17.1h-13.6v-10.1h13.6v-17.1h-13.6v-10.1h13.6v-17.1h-13.6v-10.1h13.6v-17.1h-13.6v-10.1h13.6v-17.1
		h-13.6v-10.1h13.6v-17.1h-13.6v-10.1h13.6v-17.1h-13.6v-10.1h13.6V237h-13.6v-10.1h13.6v-17.1h-13.6v-10.1h13.6v-17.1h-13.6v-10.1
		h13.6v-17.1h-13.6v-10.1h13.6v-17.1h-13.6V118h13.6v-17.1h-13.6V90.8H811.5z"></path></g>
</g>
</svg>