<?xml version="1.0" encoding="utf-8"?><!DOCTYPE svg PUBLIC "-//W3C//DTD SVG 1.1//EN" "http://www.w3.org/Graphics/SVG/1.1/DTD/svg11.dtd">
<svg version="1.1" id="Layer_1" xmlns="http://www.w3.org/2000/svg" xmlns:xlink="http://www.w3.org/1999/xlink" x="0px" y="0px" viewBox="0 0 800.5 521.5" enable-background="new 0 0 800.5 521.5" xml:space="preserve">
<g id="w">
	<g id="change1_1"><path fill="#FFFFFF" d="M75.5,0v13.6c0,0-2.5,0-5.1,0c-1.2,0-2.4,0-3.3,0.1c-0.9,0.1-1.5,0.1-1.5,0.1L64.5,0.3c0,0-0.6,0-1.6,0.1
		c-0.9,0.1-2.2,0.3-3.4,0.5c-1.2,0.2-2.5,0.4-3.4,0.6c-0.9,0.2-1.5,0.4-1.5,0.4S54,2,53.1,2.2c-0.9,0.2-2.1,0.6-3.3,0.9
		c-1.2,0.4-2.4,0.8-3.3,1.1c-0.9,0.3-1.5,0.6-1.5,0.6l4.9,12.7c0,0-0.6,0.2-1.4,0.5c-0.8,0.4-1.9,0.9-3,1.4
		c-2.2,1.1-4.2,2.3-4.2,2.3l-7-11.7c0,0-0.5,0.3-1.3,0.8C32.1,11.4,31,12,30,12.8c-1,0.7-2,1.4-2.8,2c-0.7,0.6-1.2,1-1.2,1
		s-0.5,0.4-1.2,1c-0.7,0.6-1.7,1.4-2.6,2.3c-0.9,0.9-1.8,1.7-2.5,2.4c-0.7,0.7-1.1,1.1-1.1,1.1l10,9.3c0,0-0.4,0.4-1,1.1
		c-0.6,0.7-1.4,1.6-2.1,2.5c-1.5,1.9-2.8,3.9-2.8,3.9l-11.4-7.5c0,0-1.4,2.1-2.6,4.3c-0.6,1.1-1.2,2.2-1.6,3s-0.7,1.4-0.7,1.4
		s-0.3,0.6-0.7,1.4c-0.4,0.9-0.9,2-1.3,3.2c-0.5,1.2-0.8,2.4-1.2,3.3c-0.3,0.9-0.5,1.5-0.5,1.5l13,3.9c0,0-0.7,2.3-1.2,4.7
		c-0.2,1.2-0.4,2.4-0.6,3.3c-0.1,0.9-0.2,1.5-0.2,1.5L0.3,62c0,0-0.1,0.6-0.2,1.6C0.1,64,0,64.5,0,65v15.4h13.4v10.1H0v17.1h13.4
		v10.1H0v17.1h13.4v10.1H0V162h13.4v10.1H0v17.1h13.4v10.1H0v17.1h13.4v10.1H0v17.1h13.4v10.1H0v17.1h13.4V281H0v17.1h13.4v10.1H0
		v17.1h13.4v10.1H0v17.1h13.4v10.1H0v17.1h13.4v10.1H0V407h13.4v10.1H0v17.1h13.4v10.1H0v12.2c0,0.5,0.1,1.1,0.2,1.7
		c0.2,1.3,0.3,2.5,0.5,3.4c0.2,0.9,0.3,1.6,0.3,1.6l13.4-2.4c0,0,0.1,0.6,0.3,1.5c0.2,0.9,0.4,2.1,0.8,3.2c0.3,1.2,0.7,2.3,1,3.2
		c0.3,0.9,0.5,1.4,0.5,1.4L4,474.8c0,0,0.2,0.6,0.6,1.5c0.3,0.9,0.8,2,1.3,3.2c0.5,1.2,1,2.3,1.5,3.1C7.8,483.4,8,484,8,484
		s0.3,0.6,0.8,1.4c0.5,0.8,1.1,1.9,1.8,3c0.7,1.1,1.4,2.1,1.9,2.9c0.5,0.8,0.9,1.3,0.9,1.3l11-8c0,0,0.3,0.5,0.9,1.2
		c0.5,0.7,1.3,1.7,2.1,2.6c1.6,1.8,3.3,3.5,3.3,3.5l-9.5,9.8c0,0,1.8,1.8,3.7,3.4c1,0.8,2,1.6,2.7,2.1c0.4,0.3,0.7,0.5,0.9,0.7
		c0.2,0.2,0.3,0.2,0.3,0.2s2,1.5,4.2,2.8c1.1,0.7,2.2,1.3,3,1.8c0.8,0.5,1.4,0.8,1.4,0.8l6.4-12c0,0,0.5,0.3,1.3,0.7
		c0.8,0.4,1.9,0.9,3,1.4c1.1,0.4,2.2,0.9,3.1,1.2c0.9,0.3,1.4,0.5,1.4,0.5L48.5,518c0,0,0.2,0,0.4,0.1c0.3,0.1,0.6,0.2,1.1,0.3
		c0.9,0.2,2.1,0.6,3.3,0.9c1.2,0.3,2.5,0.6,3.4,0.8c0.9,0.2,1.5,0.3,1.5,0.3s0.6,0.1,1.5,0.3c0.9,0.1,2.2,0.3,3.5,0.4
		c1.3,0.1,2.5,0.2,3.5,0.3c1,0,1.6,0,1.6,0l0.4-13.6c0,0,0.6,0,1.5,0c0.9,0,2.2,0,3.5,0c2.5,0,5.1,0,5.1,0v13.6h8.5V0H75.5z"></path></g>
</g>
<g id="e">
	<g id="change1_2"><path fill="#FFFFFF" d="M725,0v13.6c0,0,2.5,0,5.1,0c1.2,0,2.4,0,3.3,0.1c0.9,0.1,1.5,0.1,1.5,0.1L736,0.3c0,0,0.6,0,1.6,0.1
		c0.9,0.1,2.2,0.3,3.4,0.5c1.2,0.2,2.5,0.4,3.4,0.6c0.9,0.2,1.5,0.4,1.5,0.4s0.6,0.1,1.5,0.4c0.9,0.2,2.1,0.6,3.3,0.9
		c1.2,0.4,2.4,0.8,3.3,1.1c0.9,0.3,1.5,0.6,1.5,0.6l-4.9,12.7c0,0,0.6,0.2,1.4,0.5c0.8,0.4,1.9,0.9,3,1.4c2.2,1.1,4.2,2.3,4.2,2.3
		l7-11.7c0,0,0.5,0.3,1.3,0.8c0.8,0.5,1.9,1.2,2.9,1.9c1,0.7,2,1.4,2.8,2c0.7,0.6,1.2,1,1.2,1s0.5,0.4,1.2,1
		c0.7,0.6,1.7,1.4,2.6,2.3c0.9,0.9,1.8,1.7,2.5,2.4c0.7,0.7,1.1,1.1,1.1,1.1l-10,9.3c0,0,0.4,0.4,1,1.1c0.6,0.7,1.4,1.6,2.1,2.5
		c1.5,1.9,2.8,3.9,2.8,3.9l11.4-7.5c0,0,1.4,2.1,2.6,4.3c0.6,1.1,1.2,2.2,1.6,3s0.7,1.4,0.7,1.4s0.3,0.6,0.7,1.4
		c0.4,0.9,0.9,2,1.3,3.2c0.5,1.2,0.8,2.4,1.2,3.3c0.3,0.9,0.5,1.5,0.5,1.5l-13,3.9c0,0,0.7,2.3,1.2,4.7c0.2,1.2,0.4,2.4,0.6,3.3
		c0.1,0.9,0.2,1.5,0.2,1.5l13.5-1.7c0,0,0.1,0.6,0.2,1.6c0,0.4,0.1,0.9,0.1,1.5v15.4h-13.4v10.1h13.4v17.1h-13.4v10.1h13.4v17.1
		h-13.4v10.1h13.4V162h-13.4v10.1h13.4v17.1h-13.4v10.1h13.4v17.1h-13.4v10.1h13.4v17.1h-13.4v10.1h13.4v17.1h-13.4V281h13.4v17.1
		h-13.4v10.1h13.4v17.1h-13.4v10.1h13.4v17.1h-13.4v10.1h13.4v17.1h-13.4v10.1h13.4V407h-13.4v10.1h13.4v17.1h-13.4v10.1h13.4v12.2
		c0,0.5-0.1,1.1-0.2,1.7c-0.2,1.3-0.3,2.5-0.5,3.4c-0.2,0.9-0.3,1.6-0.3,1.6l-13.4-2.4c0,0-0.1,0.6-0.3,1.5
		c-0.2,0.9-0.4,2.1-0.8,3.2c-0.3,1.2-0.7,2.3-1,3.2c-0.3,0.9-0.5,1.4-0.5,1.4l12.8,4.6c0,0-0.2,0.6-0.6,1.5c-0.3,0.9-0.8,2-1.3,3.2
		c-0.5,1.2-1,2.3-1.5,3.1c-0.4,0.8-0.7,1.4-0.7,1.4s-0.3,0.6-0.8,1.4c-0.5,0.8-1.1,1.9-1.8,3c-0.7,1.1-1.4,2.1-1.9,2.9
		c-0.5,0.8-0.9,1.3-0.9,1.3l-11-8c0,0-0.3,0.5-0.9,1.2c-0.5,0.7-1.3,1.7-2.1,2.6c-1.6,1.8-3.3,3.5-3.3,3.5l9.5,9.8
		c0,0-1.8,1.8-3.7,3.4c-1,0.8-2,1.6-2.7,2.1c-0.4,0.3-0.7,0.5-0.9,0.7c-0.2,0.2-0.3,0.2-0.3,0.2s-2,1.5-4.2,2.8
		c-1.1,0.7-2.2,1.3-3,1.8c-0.8,0.5-1.4,0.8-1.4,0.8l-6.4-12c0,0-0.5,0.3-1.3,0.7c-0.8,0.4-1.9,0.9-3,1.4c-1.1,0.4-2.2,0.9-3.1,1.2
		c-0.9,0.3-1.4,0.5-1.4,0.5L752,518c0,0-0.2,0-0.4,0.1c-0.3,0.1-0.6,0.2-1.1,0.3c-0.9,0.2-2.1,0.6-3.3,0.9c-1.2,0.3-2.5,0.6-3.4,0.8
		c-0.9,0.2-1.5,0.3-1.5,0.3s-0.6,0.1-1.5,0.3c-0.9,0.1-2.2,0.3-3.5,0.4c-1.3,0.1-2.5,0.2-3.5,0.3c-1,0-1.6,0-1.6,0l-0.4-13.6
		c0,0-0.6,0-1.5,0c-0.9,0-2.2,0-3.5,0c-2.5,0-5.1,0-5.1,0v13.6h-8.5V0L725,0z"></path></g>
</g>
<g id="c_repeat">
	<g id="change1_3"><polygon fill="#FFFFFF" points="713.3,518 713.3,3.5 713.3,3.5 713.3,0 713.3,0 704.7,0 704.7,13.6 694.6,13.6 694.6,0 677.5,0 
		677.5,13.6 667.4,13.6 667.4,0 650.3,0 650.3,13.6 640.2,13.6 640.2,0 623.1,0 623.1,13.6 613,13.6 613,0 595.9,0 595.9,13.6 
		585.7,13.6 585.7,0 568.7,0 568.7,13.6 558.5,13.6 558.5,0 541.4,0 541.4,13.6 531.3,13.6 531.3,0 514.2,0 514.2,13.6 504.1,13.6 
		504.1,0 487,0 487,13.6 476.8,13.6 476.8,0 459.8,0 459.8,13.6 449.6,13.6 449.6,0 432.5,0 432.5,13.6 422.4,13.6 422.4,0 405.3,0 
		405.3,13.6 395.2,13.6 395.2,0 378.1,0 378.1,13.6 368,13.6 368,0 350.9,0 350.9,13.6 340.8,13.6 340.8,0 323.7,0 323.7,13.6 
		313.5,13.6 313.5,0 296.5,0 296.5,13.6 286.3,13.6 286.3,0 269.2,0 269.2,13.6 259.1,13.6 259.1,0 242,0 242,13.6 231.9,13.6 
		231.9,0 214.8,0 214.8,13.6 204.7,13.6 204.7,0 187.6,0 187.6,13.6 177.4,13.6 177.4,0 160.4,0 160.4,13.6 150.2,13.6 150.2,0 
		133.1,0 133.1,13.6 123,13.6 123,0 105.9,0 105.9,13.6 95.8,13.6 95.8,0 87.3,0 87.3,521.5 95.9,521.5 95.9,507.9 106,507.9 
		106,521.5 123.1,521.5 123.1,507.9 133.2,507.9 133.2,521.5 150.3,521.5 150.3,507.9 160.4,507.9 160.4,521.5 177.5,521.5 
		177.5,507.9 187.7,507.9 187.7,521.5 204.7,521.5 204.7,507.9 214.9,507.9 214.9,521.5 231.9,521.5 231.9,507.9 242.1,507.9 
		242.1,521.5 259.2,521.5 259.2,507.9 269.3,507.9 269.3,521.5 286.4,521.5 286.4,507.9 296.5,507.9 296.5,521.5 313.6,521.5 
		313.6,507.9 323.7,507.9 323.7,521.5 340.8,521.5 340.8,507.9 351,507.9 351,521.5 368,521.5 368,507.9 378.2,507.9 378.2,521.5 
		395.3,521.5 395.3,507.9 405.4,507.9 405.4,521.5 422.5,521.5 422.5,507.9 432.6,507.9 432.6,521.5 449.7,521.5 449.7,507.9 
		459.8,507.9 459.8,521.5 476.9,521.5 476.9,507.9 487.1,507.9 487.1,521.5 504.1,521.5 504.1,507.9 514.3,507.9 514.3,521.5 
		531.3,521.5 531.3,507.9 541.5,507.9 541.5,521.5 558.6,521.5 558.6,507.9 568.7,507.9 568.7,521.5 585.8,521.5 585.8,507.9 
		595.9,507.9 595.9,521.5 613,521.5 613,507.9 623.2,507.9 623.2,521.5 640.2,521.5 640.2,507.9 650.4,507.9 650.4,521.5 
		667.5,521.5 667.5,507.9 677.6,507.9 677.6,521.5 694.7,521.5 694.7,507.9 704.8,507.9 704.8,521.5 713.3,521.5 713.3,521.5 
		713.3,518 	"></polygon></g>
</g>
</svg>