<?xml version="1.0" encoding="utf-8"?>
<!-- Generator: Adobe Illustrator 18.1.1, SVG Export Plug-In . SVG Version: 6.00 Build 0)  -->
<!DOCTYPE svg PUBLIC "-//W3C//DTD SVG 1.1//EN" "http://www.w3.org/Graphics/SVG/1.1/DTD/svg11.dtd">
<svg version="1.1" id="Layer_1" xmlns="http://www.w3.org/2000/svg" xmlns:xlink="http://www.w3.org/1999/xlink" x="0px" y="0px"
	 viewBox="0 0 500 325.7" enable-background="new 0 0 500 325.7" xml:space="preserve">
<g id="w">
	<g id="change1_2_">
		<path fill="#FFFFFF" d="M47.2,0v8.5c0,0-1.6,0-3.2,0c-0.8,0-1.5,0-2.1,0.1c-0.6,0-0.9,0.1-0.9,0.1l-0.7-8.5c0,0-0.4,0-1,0.1
			c-0.6,0.1-1.4,0.2-2.1,0.3c-0.8,0.1-1.5,0.3-2.1,0.4c-0.6,0.1-1,0.2-1,0.2s-0.4,0.1-1,0.2c-0.6,0.1-1.3,0.4-2.1,0.6
			c-0.7,0.2-1.5,0.5-2.1,0.7C28.4,2.8,28.1,3,28.1,3l3.1,7.9c0,0-0.3,0.1-0.9,0.3c-0.5,0.2-1.2,0.5-1.9,0.9
			c-1.4,0.7-2.6,1.4-2.6,1.4l-4.4-7.3c0,0-0.3,0.2-0.8,0.5C20,7.1,19.4,7.5,18.7,8c-0.6,0.5-1.3,0.9-1.7,1.3
			c-0.5,0.4-0.8,0.6-0.8,0.6s-0.3,0.2-0.8,0.6c-0.4,0.4-1.1,0.9-1.6,1.4c-0.6,0.5-1.1,1.1-1.5,1.5c-0.4,0.4-0.7,0.7-0.7,0.7l6.2,5.8
			c0,0-0.3,0.3-0.6,0.7c-0.4,0.4-0.9,1-1.3,1.6c-0.9,1.2-1.8,2.5-1.8,2.5L7,20c0,0-0.9,1.3-1.6,2.7c-0.4,0.7-0.7,1.4-1,1.9
			C4.1,25.1,4,25.5,4,25.5s-0.2,0.4-0.4,0.9c-0.3,0.5-0.5,1.3-0.8,2c-0.3,0.7-0.5,1.5-0.7,2c-0.2,0.6-0.3,0.9-0.3,0.9l8.1,2.5
			c0,0-0.4,1.4-0.7,2.9c-0.1,0.7-0.3,1.5-0.4,2c-0.1,0.6-0.1,0.9-0.1,0.9l-8.4-1c0,0,0,0.4-0.1,1c0,0.3,0,0.6-0.1,0.9v9.6h8.3v6.3H0
			v10.7h8.3v6.3H0v10.7h8.3v6.3H0v10.7h8.3v6.3H0v10.7h8.3v6.3H0v10.7h8.3v6.3H0v10.7h8.3v6.3H0v10.7h8.3v6.3H0v10.7h8.3v6.3H0v10.7
			h8.3v6.3H0v10.7h8.3v6.3H0v10.7h8.3v6.3H0v10.7h8.3v6.3H0v10.7h8.3v6.3H0v7.6c0,0.3,0.1,0.7,0.1,1.1c0.1,0.8,0.2,1.6,0.3,2.2
			c0.1,0.6,0.2,1,0.2,1l8.4-1.5c0,0,0.1,0.4,0.2,0.9c0.1,0.5,0.3,1.3,0.5,2c0.2,0.7,0.4,1.4,0.6,2c0.2,0.5,0.3,0.9,0.3,0.9l-8,2.9
			c0,0,0.1,0.4,0.3,0.9c0.2,0.5,0.5,1.3,0.8,2c0.3,0.7,0.6,1.4,0.9,1.9c0.3,0.5,0.4,0.9,0.4,0.9s0.2,0.4,0.5,0.9
			c0.3,0.5,0.7,1.2,1.1,1.9c0.4,0.7,0.8,1.3,1.2,1.8c0.3,0.5,0.6,0.8,0.6,0.8l6.9-5c0,0,0.2,0.3,0.6,0.7c0.3,0.4,0.8,1,1.3,1.6
			c1,1.1,2.1,2.2,2.1,2.2l-5.9,6.1c0,0,1.1,1.1,2.3,2.1c0.6,0.5,1.2,1,1.7,1.3c0.2,0.2,0.4,0.3,0.6,0.4c0.1,0.1,0.2,0.2,0.2,0.2
			s1.3,0.9,2.6,1.8c0.7,0.4,1.4,0.8,1.9,1.1c0.5,0.3,0.9,0.5,0.9,0.5l4-7.5c0,0,0.3,0.2,0.8,0.4c0.5,0.3,1.2,0.6,1.9,0.9
			c0.7,0.3,1.4,0.6,1.9,0.7c0.5,0.2,0.9,0.3,0.9,0.3l-2.6,8.1c0,0,0.1,0,0.3,0.1c0.2,0.1,0.4,0.1,0.7,0.2c0.6,0.2,1.3,0.4,2.1,0.6
			c0.8,0.2,1.5,0.4,2.1,0.5c0.6,0.1,1,0.2,1,0.2s0.4,0.1,1,0.2c0.6,0.1,1.4,0.2,2.2,0.3c0.8,0.1,1.6,0.1,2.2,0.2c0.6,0,1,0,1,0
			l0.3-8.5c0,0,0.4,0,0.9,0c0.6,0,1.4,0,2.2,0c1.6,0,3.2,0,3.2,0v8.5h5.3V0H47.2z"/>
	</g>
	<g id="change2_2_">
		<path fill="#7D8693" d="M44,307.2l-0.7,0l-4-0.1l-3-1c0,0-0.4-0.1-1-0.3c-0.2-0.1-0.4-0.2-0.7-0.3c-0.2-0.1-0.4-0.2-0.6-0.2
			c-0.2-0.1-0.4-0.2-0.6-0.3c-0.2-0.1-0.4-0.2-0.5-0.3l-1-0.5l-2.8-1.4l-3-2.9c-0.2-0.2-0.9-0.8-1.4-1.4l-0.2-0.2
			c-0.2-0.2-0.5-0.5-0.8-0.9c0,0-0.3-0.3-0.3-0.4l-2.9-4.4l-1-3l0-0.1c-0.1-0.3-0.2-0.6-0.3-1l-0.1-0.3c-0.1-0.3-0.1-0.5-0.2-0.8
			c0-0.2-0.1-0.4-0.1-0.6l-0.5-2.9v-241l0.2-1.9c0,0,0-0.2,0.1-0.6l0.1-0.4c0.1-0.4,0.1-0.8,0.2-1.2c0.2-0.8,0.4-1.7,0.5-2l1-3.4
			l2.1-3.2c0.2-0.2,0.7-1,1.2-1.7l0.1-0.1c0.3-0.3,0.6-0.7,0.9-1c0,0,0.2-0.3,0.2-0.3l3.7-3.5l2.2-1.3c0.3-0.2,1.1-0.6,1.9-1
			c0.4-0.2,0.9-0.4,1.3-0.6l4-1.6l4.6-0.4c0.1,0,0.4,0,0.7,0c0.3,0,0.5,0,0.8,0h10.4v288.7C44.3,307.2,44.2,307.2,44,307.2z"/>
	</g>
</g>
<g id="e">
	<g id="change1">
		<path fill="#FFFFFF" d="M452.8,0v8.5c0,0,1.6,0,3.2,0c0.8,0,1.5,0,2.1,0.1c0.6,0,0.9,0.1,0.9,0.1l0.7-8.5c0,0,0.4,0,1,0.1
			c0.6,0.1,1.4,0.2,2.1,0.3c0.8,0.1,1.5,0.3,2.1,0.4c0.6,0.1,1,0.2,1,0.2s0.4,0.1,1,0.2c0.6,0.1,1.3,0.4,2.1,0.6
			c0.7,0.2,1.5,0.5,2.1,0.7c0.6,0.2,0.9,0.4,0.9,0.4l-3.1,7.9c0,0,0.3,0.1,0.9,0.3c0.5,0.2,1.2,0.5,1.9,0.9c1.4,0.7,2.6,1.4,2.6,1.4
			l4.4-7.3c0,0,0.3,0.2,0.8,0.5c0.5,0.3,1.2,0.7,1.8,1.2c0.6,0.5,1.3,0.9,1.7,1.3c0.5,0.4,0.8,0.6,0.8,0.6s0.3,0.2,0.8,0.6
			c0.4,0.4,1.1,0.9,1.6,1.4c0.6,0.5,1.1,1.1,1.5,1.5c0.4,0.4,0.7,0.7,0.7,0.7l-6.2,5.8c0,0,0.3,0.3,0.6,0.7c0.4,0.4,0.9,1,1.3,1.6
			c0.9,1.2,1.8,2.5,1.8,2.5L493,20c0,0,0.9,1.3,1.6,2.7c0.4,0.7,0.7,1.4,1,1.9s0.4,0.9,0.4,0.9s0.2,0.4,0.4,0.9
			c0.3,0.5,0.5,1.3,0.8,2c0.3,0.7,0.5,1.5,0.7,2c0.2,0.6,0.3,0.9,0.3,0.9l-8.1,2.5c0,0,0.4,1.4,0.7,2.9c0.1,0.7,0.3,1.5,0.4,2
			c0.1,0.6,0.1,0.9,0.1,0.9l8.4-1c0,0,0,0.4,0.1,1c0,0.3,0,0.6,0.1,0.9v9.6h-8.3v6.3h8.3v10.7h-8.3v6.3h8.3v10.7h-8.3v6.3h8.3v10.7
			h-8.3v6.3h8.3v10.7h-8.3v6.3h8.3v10.7h-8.3v6.3h8.3v10.7h-8.3v6.3h8.3v10.7h-8.3v6.3h8.3v10.7h-8.3v6.3h8.3v10.7h-8.3v6.3h8.3
			v10.7h-8.3v6.3h8.3v10.7h-8.3v6.3h8.3v10.7h-8.3v6.3h8.3v10.7h-8.3v6.3h8.3v7.6c0,0.3-0.1,0.7-0.1,1.1c-0.1,0.8-0.2,1.6-0.3,2.2
			c-0.1,0.6-0.2,1-0.2,1l-8.4-1.5c0,0-0.1,0.4-0.2,0.9c-0.1,0.5-0.3,1.3-0.5,2c-0.2,0.7-0.4,1.4-0.6,2c-0.2,0.5-0.3,0.9-0.3,0.9
			l8,2.9c0,0-0.1,0.4-0.3,0.9c-0.2,0.5-0.5,1.3-0.8,2c-0.3,0.7-0.6,1.4-0.9,1.9c-0.3,0.5-0.4,0.9-0.4,0.9s-0.2,0.4-0.5,0.9
			c-0.3,0.5-0.7,1.2-1.1,1.9c-0.4,0.7-0.8,1.3-1.2,1.8c-0.3,0.5-0.6,0.8-0.6,0.8l-6.9-5c0,0-0.2,0.3-0.6,0.7c-0.3,0.4-0.8,1-1.3,1.6
			c-1,1.1-2.1,2.2-2.1,2.2l5.9,6.1c0,0-1.1,1.1-2.3,2.1c-0.6,0.5-1.2,1-1.7,1.3c-0.2,0.2-0.4,0.3-0.6,0.4c-0.1,0.1-0.2,0.2-0.2,0.2
			s-1.3,0.9-2.6,1.8c-0.7,0.4-1.4,0.8-1.9,1.1c-0.5,0.3-0.9,0.5-0.9,0.5l-4-7.5c0,0-0.3,0.2-0.8,0.4c-0.5,0.3-1.2,0.6-1.9,0.9
			c-0.7,0.3-1.4,0.6-1.9,0.7c-0.5,0.2-0.9,0.3-0.9,0.3l2.6,8.1c0,0-0.1,0-0.3,0.1c-0.2,0.1-0.4,0.1-0.7,0.2
			c-0.6,0.2-1.3,0.4-2.1,0.6c-0.8,0.2-1.5,0.4-2.1,0.5c-0.6,0.1-1,0.2-1,0.2s-0.4,0.1-1,0.2c-0.6,0.1-1.4,0.2-2.2,0.3
			c-0.8,0.1-1.6,0.1-2.2,0.2c-0.6,0-1,0-1,0l-0.3-8.5c0,0-0.4,0-0.9,0c-0.6,0-1.4,0-2.2,0c-1.6,0-3.2,0-3.2,0v8.5h-5.3V0L452.8,0z"
			/>
	</g>
	<g id="change2">
		<path fill="#7D8693" d="M445.5,18.5h10.3c0.3,0,0.5,0,0.8,0c0.3,0,0.6,0,0.8,0l4.5,0.4l4,1.6c0.4,0.2,0.9,0.4,1.4,0.6
			c0.8,0.4,1.6,0.8,1.8,1l2.2,1.3L475,27c0,0,0.2,0.3,0.2,0.3c0.3,0.3,0.6,0.7,0.9,1l0.1,0.1c0.5,0.6,1,1.4,1.2,1.7l2.1,3.2l1,3.4
			c0.1,0.3,0.4,1.2,0.5,2.1c0.1,0.3,0.1,0.8,0.2,1.1l0.1,0.4c0,0.3,0.1,0.6,0.1,0.6l0.2,1.9v241l-0.5,2.9c0,0.2-0.1,0.4-0.1,0.6
			c-0.1,0.2-0.1,0.5-0.2,0.8l-0.1,0.2c-0.1,0.4-0.2,0.8-0.3,1.1l-0.4,1.2l-0.6,1.9l-2.9,4.5c0,0-0.3,0.4-0.3,0.4
			c-0.3,0.4-0.6,0.7-0.8,0.9l-0.2,0.2c-0.5,0.6-1.2,1.3-1.4,1.5l-2.9,2.8l-3.9,2c-0.1,0-0.9,0.4-1,0.5c-0.2,0.1-0.4,0.2-0.6,0.2
			c-0.2,0.1-0.4,0.2-0.6,0.2c-0.7,0.2-1.1,0.4-1.1,0.4l-3,1l-4,0.1l-0.7,0c-0.2,0-0.3,0-10.5,0V18.5z"/>
	</g>
</g>
<g id="c_repeat">
	<g id="change1_1_">
		<polygon fill="#FFFFFF" points="445.5,323.5 445.5,2.2 445.5,2.2 445.5,0 445.5,0 440.2,0 440.2,8.5 433.8,8.5 433.8,0 423.2,0 
			423.2,8.5 416.8,8.5 416.8,0 406.2,0 406.2,8.5 399.8,8.5 399.8,0 389.2,0 389.2,8.5 382.8,8.5 382.8,0 372.2,0 372.2,8.5 
			365.8,8.5 365.8,0 355.2,0 355.2,8.5 348.8,8.5 348.8,0 338.2,0 338.2,8.5 331.8,8.5 331.8,0 321.2,0 321.2,8.5 314.8,8.5 
			314.8,0 304.2,0 304.2,8.5 297.8,8.5 297.8,0 287.2,0 287.2,8.5 280.8,8.5 280.8,0 270.2,0 270.2,8.5 263.8,8.5 263.8,0 253.2,0 
			253.2,8.5 246.8,8.5 246.8,0 236.2,0 236.2,8.5 229.8,8.5 229.8,0 219.2,0 219.2,8.5 212.8,8.5 212.8,0 202.2,0 202.2,8.5 
			195.8,8.5 195.8,0 185.2,0 185.2,8.5 178.8,8.5 178.8,0 168.2,0 168.2,8.5 161.8,8.5 161.8,0 151.2,0 151.2,8.5 144.8,8.5 
			144.8,0 134.2,0 134.2,8.5 127.8,8.5 127.8,0 117.2,0 117.2,8.5 110.8,8.5 110.8,0 100.2,0 100.2,8.5 93.8,8.5 93.8,0 83.2,0 
			83.2,8.5 76.8,8.5 76.8,0 66.2,0 66.2,8.5 59.8,8.5 59.8,0 54.5,0 54.5,325.7 59.9,325.7 59.9,317.2 66.2,317.2 66.2,325.7 
			76.9,325.7 76.9,317.2 83.2,317.2 83.2,325.7 93.9,325.7 93.9,317.2 100.2,317.2 100.2,325.7 110.9,325.7 110.9,317.2 
			117.2,317.2 117.2,325.7 127.9,325.7 127.9,317.2 134.2,317.2 134.2,325.7 144.9,325.7 144.9,317.2 151.2,317.2 151.2,325.7 
			161.9,325.7 161.9,317.2 168.2,317.2 168.2,325.7 178.9,325.7 178.9,317.2 185.2,317.2 185.2,325.7 195.9,325.7 195.9,317.2 
			202.2,317.2 202.2,325.7 212.9,325.7 212.9,317.2 219.2,317.2 219.2,325.7 229.9,325.7 229.9,317.2 236.2,317.2 236.2,325.7 
			246.9,325.7 246.9,317.2 253.2,317.2 253.2,325.7 263.9,325.7 263.9,317.2 270.2,317.2 270.2,325.7 280.9,325.7 280.9,317.2 
			287.2,317.2 287.2,325.7 297.9,325.7 297.9,317.2 304.2,317.2 304.2,325.7 314.9,325.7 314.9,317.2 321.2,317.2 321.2,325.7 
			331.9,325.7 331.9,317.2 338.2,317.2 338.2,325.7 348.9,325.7 348.9,317.2 355.2,317.2 355.2,325.7 365.9,325.7 365.9,317.2 
			372.2,317.2 372.2,325.7 382.9,325.7 382.9,317.2 389.2,317.2 389.2,325.7 399.9,325.7 399.9,317.2 406.2,317.2 406.2,325.7 
			416.9,325.7 416.9,317.2 423.2,317.2 423.2,325.7 433.9,325.7 433.9,317.2 440.2,317.2 440.2,325.7 445.5,325.7 445.5,325.7 
			445.5,323.5 		"/>
	</g>
	<g id="change2_1_">
		<rect x="54.5" y="18.5" fill="#7D8693" width="391" height="288.7"/>
	</g>
</g>
</svg>
