<?xml version="1.0" encoding="utf-8"?>
<!-- Generator: Adobe Illustrator 18.1.1, SVG Export Plug-In . SVG Version: 6.00 Build 0)  -->
<!DOCTYPE svg PUBLIC "-//W3C//DTD SVG 1.1//EN" "http://www.w3.org/Graphics/SVG/1.1/DTD/svg11.dtd">
<svg version="1.1" id="Layer_1" xmlns="http://www.w3.org/2000/svg" xmlns:xlink="http://www.w3.org/1999/xlink" x="0px" y="0px"
	 viewBox="0 0 500 500" enable-background="new 0 0 500 500" xml:space="preserve">
<g id="change1_1_">
	<circle fill="#FFFFFF" cx="250" cy="250" r="250"/>
</g>
<g id="change2_1_">
	<path fill="#3F4651" d="M250,476.8c-2.4,0-4.8,0-7.1-0.1l0.3-9.5c7.7,0.2,15.6,0.1,23.2-0.5l0.7,9.4
		C261.4,476.6,255.7,476.8,250,476.8z M233.2,476.2c-8-0.6-16.1-1.6-24-3.1l1.7-9.3c7.6,1.4,15.3,2.4,23,2.9L233.2,476.2z
		 M276.7,475.3l-1.1-9.4c7.7-0.9,15.4-2.2,22.9-3.9l2.1,9.2C292.8,472.9,284.7,474.3,276.7,475.3z M199.7,471.2
		c-7.8-1.8-15.7-4-23.3-6.6l3.1-9c7.3,2.5,14.8,4.6,22.3,6.3L199.7,471.2z M310,468.8l-2.5-9.1c7.4-2,14.8-4.5,22-7.3l3.5,8.8
		C325.5,464.1,317.8,466.7,310,468.8z M167.2,461.2c-7.5-2.9-14.9-6.3-22.1-10l4.4-8.4c6.8,3.6,13.9,6.8,21.1,9.6L167.2,461.2z
		 M341.9,457.4l-3.8-8.7c7-3.1,14-6.7,20.7-10.5l4.8,8.2C356.5,450.5,349.3,454.2,341.9,457.4z M136.7,446.5
		c-7-4-13.8-8.5-20.3-13.2l5.6-7.6c6.2,4.6,12.8,8.8,19.5,12.7L136.7,446.5z M371.8,441.4l-5.1-8c6.5-4.1,12.9-8.7,18.9-13.5
		l5.9,7.4C385.2,432.3,378.5,437.1,371.8,441.4z M108.7,427.4c-6.3-5-12.4-10.4-18.1-16.1l6.7-6.7c5.5,5.4,11.3,10.6,17.4,15.4
		L108.7,427.4z M398.9,421.1l-6.2-7.1c5.8-5.1,11.4-10.5,16.7-16.1l6.9,6.4C410.8,410.2,405,415.8,398.9,421.1z M83.8,404.4
		c-5.5-5.9-10.7-12.1-15.5-18.6l7.6-5.7c4.6,6.2,9.6,12.2,14.9,17.8L83.8,404.4z M422.7,397l-7.2-6.1c5-5.9,9.8-12.1,14.1-18.4
		l7.8,5.3C432.9,384.4,428,390.9,422.7,397z M62.7,377.9c-4.5-6.7-8.8-13.6-12.6-20.7l8.4-4.5c3.6,6.8,7.7,13.5,12.1,19.8
		L62.7,377.9z M442.7,369.7l-8-5c4.1-6.6,7.8-13.4,11.2-20.3l8.5,4.1C450.9,355.7,447,362.8,442.7,369.7z M45.7,348.6
		c-3.5-7.3-6.7-14.8-9.4-22.4l8.9-3.2c2.6,7.2,5.6,14.5,9,21.4L45.7,348.6z M458.4,339.6l-8.7-3.7c3.1-7.1,5.7-14.4,8-21.8l9.1,2.8
		C464.4,324.5,461.6,332.2,458.4,339.6z M33.3,317.1c-2.4-7.7-4.4-15.6-5.9-23.5l9.3-1.8c1.5,7.6,3.4,15.1,5.6,22.5L33.3,317.1z
		 M469.5,307.5l-9.2-2.4c2-7.5,3.5-15.1,4.7-22.7l9.4,1.4C473.1,291.8,471.5,299.7,469.5,307.5z M25.7,284c-1.2-7.9-2-16.1-2.3-24.1
		l9.5-0.4c0.3,7.7,1.1,15.5,2.2,23.1L25.7,284z M475.6,274.2l-9.4-1c0.8-7.6,1.2-15.4,1.2-23.2v-0.5h9.5v0.5
		C476.8,258.1,476.4,266.2,475.6,274.2z M32.6,250.2h-9.5V250c0-8,0.4-16,1.2-23.9l9.4,1c-0.8,7.6-1.2,15.3-1.2,22.9L32.6,250.2
		L32.6,250.2L32.6,250.2z M467.1,240.2c-0.3-7.7-1.1-15.5-2.2-23.1l9.4-1.4c1.2,7.9,2,16,2.3,24.1L467.1,240.2z M35,217.8l-9.4-1.4
		c1.2-8,2.8-15.9,4.8-23.7l9.2,2.4C37.7,202.6,36.1,210.2,35,217.8z M463.3,208c-1.5-7.6-3.4-15.1-5.7-22.5l9.1-2.8
		c2.4,7.7,4.4,15.6,5.9,23.5L463.3,208z M42.2,186.2l-9.1-2.8c2.4-7.7,5.2-15.4,8.3-22.8l8.7,3.7C47.1,171.5,44.4,178.8,42.2,186.2z
		 M454.7,176.7c-2.6-7.3-5.6-14.4-9-21.4l8.5-4.1c3.5,7.2,6.7,14.8,9.4,22.3L454.7,176.7z M54,155.9l-8.5-4.1
		c3.5-7.2,7.4-14.4,11.7-21.2l8.1,5C61.1,142.1,57.4,149,54,155.9z M441.5,147c-3.7-6.8-7.7-13.4-12.1-19.8l7.8-5.4
		c4.6,6.6,8.8,13.6,12.6,20.7L441.5,147z M70.3,127.8l-7.8-5.3c4.5-6.7,9.5-13.1,14.7-19.3l7.2,6.1
		C79.3,115.2,74.6,121.4,70.3,127.8z M424,119.7c-4.6-6.2-9.6-12.1-14.9-17.8l6.9-6.5c5.5,5.9,10.7,12.1,15.5,18.6L424,119.7z
		 M90.5,102.3l-7-6.4C89,90,94.9,84.3,100.9,79l6.2,7.1C101.3,91.2,95.7,96.7,90.5,102.3z M402.6,95.2c-5.5-5.4-11.3-10.6-17.4-15.4
		l5.9-7.4c6.3,5,12.4,10.4,18.1,16.1L402.6,95.2z M114.3,80.2l-5.9-7.4c6.3-5,12.9-9.8,19.7-14.1l5.1,8
		C126.6,70.8,120.3,75.4,114.3,80.2z M377.8,74.2c-6.2-4.5-12.8-8.8-19.5-12.6l4.7-8.2c7,4,13.8,8.5,20.3,13.2L377.8,74.2z
		 M141.1,61.9l-4.8-8.2c7-4,14.2-7.8,21.6-11l3.9,8.7C154.7,54.5,147.7,58,141.1,61.9z M350.2,57.1c-6.9-3.6-14-6.8-21.1-9.6
		l3.4-8.8c7.5,2.9,14.9,6.3,22.1,10L350.2,57.1z M170.3,47.7l-3.5-8.8c7.5-3,15.2-5.5,23-7.7l2.5,9.1
		C184.8,42.4,177.4,44.9,170.3,47.7z M320.3,44.3c-7.3-2.5-14.8-4.6-22.3-6.3l2.1-9.2c7.9,1.8,15.7,4,23.3,6.6L320.3,44.3z
		 M201.3,38.1l-2.1-9.2c7.8-1.8,15.9-3.2,23.9-4.1l1.1,9.4C216.5,35.1,208.8,36.4,201.3,38.1z M288.9,36.1c-7.6-1.4-15.3-2.3-23-2.9
		l0.7-9.5c8,0.6,16.1,1.6,24,3L288.9,36.1z M233.4,33.3l-0.7-9.5c8-0.6,16.2-0.8,24.2-0.5l-0.3,9.5
		C248.9,32.5,241.1,32.7,233.4,33.3z"/>
</g>
</svg>
