<?xml version="1.0" encoding="utf-8"?>
<!-- Generator: Adobe Illustrator 18.1.1, SVG Export Plug-In . SVG Version: 6.00 Build 0)  -->
<!DOCTYPE svg PUBLIC "-//W3C//DTD SVG 1.1//EN" "http://www.w3.org/Graphics/SVG/1.1/DTD/svg11.dtd">
<svg version="1.1" id="Layer_1" xmlns="http://www.w3.org/2000/svg" xmlns:xlink="http://www.w3.org/1999/xlink" x="0px" y="0px"
	 viewBox="0 0 563.6 563.6" enable-background="new 0 0 563.6 563.6" xml:space="preserve">
<g id="c_repeat">
	<g id="change1_2_">
		<rect x="65.5" y="0" fill="#FFFFFF" width="432.7" height="563.6"/>
	</g>
	<g id="change2_3_">
		<polygon fill="#3F4652" points="481.1,22.5 481.1,49 461,49 461,22.5 444.1,22.5 427,22.5 427,49 406.9,49 406.9,22.5 390,22.5 
			373,22.5 373,49 352.8,49 352.8,22.5 335.9,22.5 318.9,22.5 318.9,49 298.7,49 298.7,22.5 281.8,22.5 264.8,22.5 264.8,49 
			244.6,49 244.6,22.5 227.7,22.5 210.7,22.5 210.7,49 190.6,49 190.6,22.5 173.7,22.5 156.6,22.5 156.6,49 136.5,49 136.5,22.5 
			119.6,22.5 102.5,22.5 102.5,49 82.4,49 82.4,22.5 65.5,22.5 65.5,29.2 75.6,29.2 75.6,55.7 109.4,55.7 109.4,29.2 119.6,29.2 
			129.6,29.2 129.6,55.7 163.5,55.7 163.5,29.2 173.7,29.2 183.7,29.2 183.7,55.7 217.5,55.7 217.5,29.2 227.7,29.2 237.8,29.2 
			237.8,55.7 271.6,55.7 271.6,29.2 281.8,29.2 291.9,29.2 291.9,55.7 325.7,55.7 325.7,29.2 335.9,29.2 346,29.2 346,55.7 
			379.8,55.7 379.8,29.2 390,29.2 400,29.2 400,55.7 433.9,55.7 433.9,29.2 444.1,29.2 454.1,29.2 454.1,55.7 488,55.7 488,29.2 
			498.1,29.2 498.1,22.5 		"/>
		<polygon fill="#3F4652" points="488.1,534.4 488.1,507.9 454.3,507.9 454.3,534.4 444.1,534.4 434,534.4 434,507.9 400.2,507.9 
			400.2,534.4 390,534.4 379.9,534.4 379.9,507.9 346.1,507.9 346.1,534.4 335.9,534.4 325.8,534.4 325.8,507.9 292,507.9 
			292,534.4 281.8,534.4 271.8,534.4 271.8,507.9 237.9,507.9 237.9,534.4 227.7,534.4 217.7,534.4 217.7,507.9 183.8,507.9 
			183.8,534.4 173.7,534.4 163.6,534.4 163.6,507.9 129.8,507.9 129.8,534.4 119.6,534.4 109.5,534.4 109.5,507.9 75.7,507.9 
			75.7,534.4 65.5,534.4 65.5,541.2 82.5,541.2 82.5,514.6 102.7,514.6 102.7,541.2 119.6,541.2 136.6,541.2 136.6,514.6 
			156.8,514.6 156.8,541.2 173.7,541.2 190.7,541.2 190.7,514.6 210.8,514.6 210.8,541.2 227.7,541.2 244.8,541.2 244.8,514.6 
			264.9,514.6 264.9,541.2 281.8,541.2 298.9,541.2 298.9,514.6 319,514.6 319,541.2 335.9,541.2 352.9,541.2 352.9,514.6 
			373.1,514.6 373.1,541.2 390,541.2 407,541.2 407,514.6 427.2,514.6 427.2,541.2 444.1,541.2 461.1,541.2 461.1,514.6 
			481.2,514.6 481.2,541.2 498.1,541.2 498.1,534.4 		"/>
	</g>
</g>
<g id="e">
	<g id="change1_1_">
		<rect x="498.1" y="0" fill="#FFFFFF" width="65.5" height="563.6"/>
	</g>
	<g id="change2_2_">
		<polygon fill="#3F4652" points="514.6,48.9 514.6,22.5 498.1,22.5 498.1,29.2 507.9,29.2 507.9,55.6 534.4,55.6 534.4,65.5 
			534.4,75.6 507.9,75.6 507.9,109.4 534.4,109.4 534.4,119.6 534.4,129.6 507.9,129.6 507.9,163.5 534.4,163.5 534.4,173.7 
			534.4,183.7 507.9,183.7 507.9,217.5 534.4,217.5 534.4,227.7 534.4,237.8 507.9,237.8 507.9,271.6 534.4,271.6 534.4,281.8 
			534.4,291.9 507.9,291.9 507.9,325.7 534.4,325.7 534.4,335.9 534.4,346 507.9,346 507.9,379.8 534.4,379.8 534.4,390 534.4,400 
			507.9,400 507.9,433.9 534.4,433.9 534.4,444.1 534.4,454.1 507.9,454.1 507.9,488 534.4,488 534.4,498.1 534.4,498.1 
			534.4,507.9 508,507.9 508,534.4 498.1,534.4 498.1,541.2 514.8,541.2 514.8,514.6 541.2,514.6 541.2,498.1 541.2,481.1 
			514.6,481.1 514.6,461 541.2,461 541.2,444.1 541.2,427 514.6,427 514.6,406.9 541.2,406.9 541.2,390 541.2,373 514.6,373 
			514.6,352.8 541.2,352.8 541.2,335.9 541.2,318.9 514.6,318.9 514.6,298.7 541.2,298.7 541.2,281.8 541.2,264.8 514.6,264.8 
			514.6,244.6 541.2,244.6 541.2,227.7 541.2,210.7 514.6,210.7 514.6,190.6 541.2,190.6 541.2,173.7 541.2,156.6 514.6,156.6 
			514.6,136.5 541.2,136.5 541.2,119.6 541.2,102.5 514.6,102.5 514.6,82.4 541.2,82.4 541.2,65.5 541.2,48.9 		"/>
	</g>
</g>
<g id="w">
	<g id="change1">
		<rect x="0" y="0" fill="#FFFFFF" width="65.5" height="563.6"/>
	</g>
	<g id="change2_1_">
		<polygon id="change2" fill="#3F4652" points="55.6,55.8 55.6,29.2 65.5,29.2 65.5,22.5 48.9,22.5 48.9,49 22.5,49 22.5,65.5 
			22.5,82.5 49,82.5 49,102.7 22.5,102.7 22.5,119.6 22.5,136.6 49,136.6 49,156.8 22.5,156.8 22.5,173.7 22.5,190.7 49,190.7 
			49,210.8 22.5,210.8 22.5,227.7 22.5,244.8 49,244.8 49,264.9 22.5,264.9 22.5,281.8 22.5,298.8 49,298.8 49,319 22.5,319 
			22.5,335.9 22.5,352.9 49,352.9 49,373.1 22.5,373.1 22.5,390 22.5,407 49,407 49,427.2 22.5,427.2 22.5,444.1 22.5,461.1 
			49,461.1 49,481.2 22.5,481.2 22.5,498.1 22.5,514.8 49,514.8 49,541.2 65.5,541.2 65.5,534.4 55.7,534.4 55.8,508 29.2,508 
			29.2,498.1 29.2,488.1 55.7,488.1 55.7,454.3 29.2,454.3 29.2,444.1 29.2,434 55.7,434 55.7,400.2 29.2,400.2 29.2,390 
			29.2,379.9 55.7,379.9 55.7,346.1 29.2,346.1 29.2,335.9 29.2,325.8 55.7,325.8 55.7,292 29.2,292 29.2,281.8 29.2,271.8 
			55.7,271.8 55.7,237.9 29.2,237.9 29.2,227.7 29.2,217.7 55.7,217.7 55.7,183.8 29.2,183.8 29.2,173.7 29.2,163.6 55.7,163.6 
			55.7,129.8 29.2,129.8 29.2,119.6 29.2,109.5 55.7,109.5 55.7,75.7 29.2,75.7 29.2,65.5 29.2,65.5 29.2,55.7 		"/>
	</g>
</g>
</svg>
