<?xml version="1.0" encoding="utf-8"?>
<!-- Generator: Adobe Illustrator 18.1.1, SVG Export Plug-In . SVG Version: 6.00 Build 0)  -->
<!DOCTYPE svg PUBLIC "-//W3C//DTD SVG 1.1//EN" "http://www.w3.org/Graphics/SVG/1.1/DTD/svg11.dtd">
<svg version="1.1" id="Layer_1" xmlns="http://www.w3.org/2000/svg" xmlns:xlink="http://www.w3.org/1999/xlink" x="0px" y="0px"
	 viewBox="0 0 500 500" enable-background="new 0 0 500 500" xml:space="preserve">
<g id="Layer_X">
	<g id="change1_1_">
		<g id="NW_1_">
			<path fill="#D1339D" d="M12,0h155v169.2H0V12C0,5.4,5.4,0,12,0z"/>
		</g>
		<g id="N_1_">
			<rect x="162.6" y="0" fill="#D1339D" width="173.7" height="169.2"/>
		</g>
		<g id="NE_1_">
			<path fill="#D1339D" d="M334.1,0H488c6.6,0,12,5.4,12,12v157.2H334.1V0z"/>
		</g>
		<g id="W_1_">
			<rect x="0" y="167" fill="#D1339D" width="167" height="169.2"/>
		</g>
		<g id="C_1_">
			<rect x="164.8" y="167" fill="#D1339D" width="171.5" height="169.2"/>
		</g>
		<g id="E_1_">
			<rect x="334.1" y="167" fill="#D1339D" width="165.9" height="169.2"/>
		</g>
		<g id="SW_1_">
			<path fill="#D1339D" d="M0,334.1h167V500H12c-6.6,0-12-5.4-12-12V334.1z"/>
		</g>
		<g id="S_1_">
			<rect x="165.9" y="334.1" fill="#D1339D" width="170.4" height="165.9"/>
		</g>
		<g id="SE_1_">
			<path fill="#D1339D" d="M334.1,334.1H500V488c0,6.6-5.4,12-12,12H334.1V334.1z"/>
		</g>
	</g>
</g>
</svg>
