<?xml version="1.0" standalone="no"?>
<!DOCTYPE svg PUBLIC "-//W3C//DTD SVG 1.1//EN" "http://www.w3.org/Graphics/SVG/1.1/DTD/svg11.dtd">
<!-- Generator: Adobe Illustrator 16.0.0, SVG Export Plug-In . SVG Version: 6.00 Build 0)  -->
<svg xmlns="http://www.w3.org/2000/svg" xmlns:xlink="http://www.w3.org/1999/xlink" version="1.1" id="Layer_1" x="0px" y="0px" width="360.359px" height="371.605px" viewBox="0 0 360.359 371.605" style="enable-background:new 0 0 360.359 371.605;" xml:space="preserve">
<g id="change1">
	<path style="fill:#E05A47;" d="M0.189,216.588L0,209.023C1.587,213.461,0.274,213.407,0.189,216.588z M4.033,219.333l0.631-4.824   l-1.438-0.242L4.033,219.333z M224.215,362.451l0.208-0.271c-0.75,0.147-1.438,0.282-2.146,0.43L224.215,362.451z M0.224,217.994   l-0.035-1.406C0.178,216.999,0.185,217.458,0.224,217.994z M350.759,140.001l1.303,0.608   C351.322,138.255,350.981,138.882,350.759,140.001z M343.578,106.707c-0.429,1.507-0.552,3.033-0.521,4.528   C344.049,111.351,344.428,109.648,343.578,106.707z M132.427,3.737c-0.348-0.034-0.779-0.053-1.333-0.05   C131.094,3.687,131.63,3.707,132.427,3.737z M358.889,188.3c0.545,2.049,0.886,4.111,0.886,4.111   c-5.557,0.586-1.101,11.569-6.297,12.479c-0.896,9.117,3.308-0.91,2.462,2.288c0.017,4.353-1.929,10.152-3.479,15.154   c-0.396,1.252-0.773,2.463-1.125,3.588c-0.438,1.11-0.812,2.146-1.098,3.085c-0.566,1.876-0.767,3.354-0.313,4.218   c-1.889,3.358-2.871,7.075-4.067,10.593c-1.33,3.464-2.525,6.829-4.106,9.55l2.058,1.266c-0.862,1.411-1.817,2.973-2.755,4.496   c-0.945,1.524-1.951,2.997-2.435,4.531c0.334,0.13,0.818-0.115,1.367-0.59c-1.647,2.619-3.154,5.121-4.559,7.552   c-1.425,2.421-2.618,4.839-4.17,6.993c-2.854,4.442-5.584,8.694-8.397,13.072c1.679,0.415,2.521,0.967,6.12-3.891   c-1.408,4.896-6.052,9.642-11.009,14.719c-1.245,1.258-2.521,2.547-3.802,3.849c-1.374,1.22-2.769,2.458-4.156,3.696   c-2.734,2.519-5.356,5.152-7.661,7.998l1.565,0.028c0.146,0.176-7.27,4.214-7.27,4.214c1.752-0.529,1.493,0.771,2.209,1.456   c-2.54,2.477-5.27,5.065-8.062,7.567c-2.939,2.325-6.062,4.431-9.037,6.335c-5.41,3.68-11.014,5.63-15.175,5.795   c1.075,0.652-3.957,5.406,3.01,3.135c-13.615,5.226-29.973,12.809-45.176,16.593l0.184-0.238l-6.573,0.505l-0.386,0.516   l4.634-0.353c-3.086,0.587-6.093,1.075-8.953,1.392c-1.432,0.144-2.81,0.314-4.173,0.294c-1.367-0.062-2.689-0.172-3.952-0.339   c-0.839,0.938-1.983,3.315-5.573,4.688c-0.137-0.73-1.306-0.759-3.111-0.425c-1.811,0.299-4.243,1.15-6.984,1.5   c-5.447,0.913-11.98,1.812-15.83,0.336c-1.021,0.85,3.305,0.427,0.646,1.555c-4.9-0.204-10.375-0.896-16.146-1.541   c-2.896-0.218-5.824-0.954-8.811-1.595c-2.979-0.641-6.013-1.289-9.07-1.947c-3.079-0.512-6.066-1.583-9.093-2.438   c-3.021-0.883-6.044-1.729-9.057-2.521c-5.968-1.743-11.671-3.924-17.347-5.306c0.438-5.846-17.395-12.43-25.964-21.485   c-4.432,1.255,4.874,5.009,6.403,8.905c-5.484-4.231-3.423,2.853-12.537-5.977c0.06,0.492-0.146,0.719,0.188,1.122   c-2.345-2.293,3.854-2.013-4.149-6.74l-1.731,1.677l-3.328-6.396c-8.785-6.216-16.199-13.126-22.55-20.474   c-1.625-1.811-3.309-3.54-4.869-5.354c-1.489-1.876-2.97-3.743-4.447-5.604c-2.97-3.712-6.264-7.169-9.105-11.022   c-0.146-1.262,1.096-1.448,2.886,0.245c-2.261-3.614-3.841-8.08-5.698-12.451c-1.521-4.571-3.228-9.103-6.421-12.948l0.246,2.769   c-1.079-1.65-1.957-3.134-2.678-4.497c-0.642-1.398-1.047-2.704-1.405-3.911c-0.689-2.421-0.979-4.521-1.204-6.717   c-0.199-2.202-0.435-4.466-0.764-7.303c-0.174-2.892-0.565-6.308-1.473-10.723c1.219,3.869,1.841,13.484,5.058,13.361   c0.858-1.93-1.433-10.635-3.604-13.267l1.172,0.212c-1.586-6.451-2.809-13.045-3.634-19.766c-0.167-0.711-0.344-1.458-0.525-2.233   c-0.572-2.404-0.705-5.136-0.943-7.724c-0.229-3.234-0.244-6.289,0.225-8.377c-0.014-0.849-0.031-1.693-0.031-2.549   c0-7.688,0.521-15.254,1.513-22.671L3.8,170.432c3.217-15.08-2.979,1.278-3.104-10.144c1.711-6.389,1.746-11.597,1.104-16.37   c-0.583-4.729-1.776-8.979-0.532-12.295c5.284-12.979,1.01,5.941,5.425-1.662c2.889-6.888-0.428-4.096,0.652-8.809   c0,0,1.105-0.448,2.214-0.896c1.094-0.442,2.302-0.819,2.304-0.819c4.146-7.385-2.912-1.713,0.414-5.501   c0.97-7.113-2.174,1.347-5.443,1.809c1.438-1.199,5.911-7.413,6.077-10.955c-0.914-0.389-5.078,7.896-2.866,2.335   c2.646-4.803,5.126-8.47,7.059-11.839c1.942-3.353,3.347-6.413,4.863-9.33c1.658-2.818,3.258-5.626,5.214-8.698   c0.979-1.534,2.046-3.14,3.253-4.843c1.201-1.706,2.81-3.295,4.48-5.115l-2.496,0.134c1.812-1.436,3.529-2.17,4.536-4.176   l-1.67,0.093c1.79-2.298,17.443-15.055,27.927-22.924l-6.708,2.362l10.941-5.06l-2.873-1.802c1.28,0.025,2.853-0.566,4.641-1.563   c1.888-0.856,4.019-2.072,6.301-3.467c4.563-2.774,9.695-6.396,15.019-8.205l-0.951-1.73l6.599-1.896l-2.646-0.254   c6.104-3.069,14.812-2.486,21.434-6.646c-4.436,2.271-6.643-0.274-6.696-1.736c0,0,1.279-0.239,3.204-0.599   c1.932-0.312,4.437-0.901,7.02-1.185c5.149-0.443,10.302-0.89,10.302-0.89c0.104-1.34,7.321-3.655,3.655-4.021   c0.771,0.029,1.788,0.067,2.806,0.104c2.08,0.251,4.158,0.504,4.158,0.504l-0.896-1.46c7.791-1.867,15.505-3.271,23.138-2.792   c3.805,0.081,7.563,0.275,11.281,0.517c3.718,0.459,7.393,1.166,11.042,1.739c3.644,0.689,7.294,0.965,10.889,1.873   c3.602,0.825,7.211,1.567,10.873,2.169c1.838,0.269,3.682,0.539,5.54,0.81c1.834,0.393,3.685,0.738,5.57,1.038   c3.769,0.604,7.648,1.014,11.729,1.19l-0.382-0.708c0,0,1.088,0.438,2.61,1.405c1.522,0.917,3.561,2.146,5.596,3.366   c3.989,2.44,7.979,4.88,7.979,4.88c3.249,0.857,5.152-1.143,10.644,0.32c-3.74,1.624,9.67,4.721,11.19,9.094   c4.323,1.2,0.91-1.759,0.446-3.407c4.204,1.698,8.006,3.735,11.567,5.944c3.557,2.229,6.557,5.105,9.731,7.768   c6.485,5.219,11.979,11.69,19.935,17.566c-8.549-5.244-12.656-7.798-15.974-10.191c-3.542-2.09-6.304-3.958-12.037-7.2   c11.369,10.448,15.226,9.959,26.547,22.201c0,0-0.268-0.416-0.667-1.042c-0.416-0.613-0.907-1.495-1.535-2.244   c-1.207-1.559-2.413-3.114-2.413-3.114c4.883,1.176,8.704,6.59,12.135,11.107c1.667,2.312,3.366,4.326,4.688,5.945   c1.356,1.594,2.686,2.521,4.057,2.282c2.688,4.335,4.582,8.771,6.164,13.59c1.541,4.865,3.367,9.707,6.775,14.691   c0,0,0.331-1.637,0.595-3.271c0.263-1.648,0.524-3.302,0.524-3.302s0.362,0.6,0.912,1.497c0.521,0.914,1.344,2.063,1.946,3.333   c1.24,2.521,2.479,5.041,2.479,5.041l-2.589,1.462c1.407,3.29,2.704,4.694,3.565,4.789c0.038,2.076,0.523,4.13,1.078,6.295   c0.456,2.204,1.117,4.462,1.822,6.793c1.326,4.682,3.271,9.55,3.098,14.934l1.703,0.744c-0.177,0.864-0.304,2.021-0.486,2.344   c2.985,1.328,4.197,9.59,6.524,9.562c-0.155-3.389-0.876-11.333-2.235-10.337c0.341-4.521,1.396-2.095,2.547,2.199   c0.572,2.142,1.162,4.739,1.694,7.141c0.325,2.439,0.627,4.68,0.812,6.077c-2.328-5.771-1.468,2.062-1.534,5.465   c0.477,0.479,0.498-0.655,1.003-1.294c3.441,10.312-4.353,14.499,1.276,21.177l-2.67,1.896   C357.685,184.23,358.284,186.266,358.889,188.3z M12.648,242.872c-0.449-1.343-0.881-2.69-1.297-4.052   c0.354,1.903,0.796,3.848,1.187,5.622C12.421,243.748,12.492,243.263,12.648,242.872z M13.633,132.357   c-0.24,0.05-0.521,0.188-0.868,0.521l-1.592,2.675c-0.092,1.563,0.254,1.989,0.794,1.742   C12.498,135.635,13.054,133.991,13.633,132.357z M21.958,265.218c-2.658-5.275-5.045-10.715-7.147-16.292   c0.05,0.185,0.096,0.355,0.146,0.539c0.812,2.767,1.523,5.849,2.668,8.866c0,0-0.265-0.51-0.66-1.277   c-0.406-0.765-0.938-1.787-1.32-2.878c-0.854-2.141-1.703-4.278-1.703-4.278c-0.764,2.281,0.348,6.031,2.409,9.312   c1.909,3.355,4.021,6.547,4.285,8.438C21.613,267.091,21.826,266.068,21.958,265.218z M51.914,56.287   c2.774-1.746,3.551-1.66,6.062-6.103C55.185,51.93,52.134,55.005,51.914,56.287z M42.353,302.764   c-0.204-1.247-0.787-2.737-1.592-4.38c-0.688-1.732-1.604-3.614-2.645-5.521s-2.204-3.832-3.396-5.663   c-1.208-1.816-2.437-3.546-3.365-5.206c0.118,0.038,0.229,0.062,0.341,0.078c-0.78-1.188-1.545-2.384-2.296-3.591   c0.011,0.584,0.041,1.21,0.131,1.941c0.285,1.771,0.61,4.308,2.333,7.53l-2.341-1.463c2.468,3.926,2.238,8.868,8.02,12.882   c1.474-1.316-1.645-5.436-2.413-8.084c0.914,0.229,1.455,2.418,2.383,4.946c0.469,1.258,1.001,2.625,1.766,3.802   C40.11,301.165,41.115,302.151,42.353,302.764z M46.073,58.713c1.519-0.261,3.09-0.972,5.382-4.422   c-2.415,1.821-4.104,1.897-5.635,2.235c-1.496,0.368-3.007,0.847-4.499,3.938C43.094,58.737,44.546,58.957,46.073,58.713z    M57.547,316.683l-4.455-4.279l0.611,4.006L57.547,316.683z M78.939,331.599c-1.47-1.863-2.205-2.916-2.451-3.435   c-1.73-1.21-3.438-2.448-5.12-3.72c0.212,0.647,0.398,1.288,0.632,1.925c-3.909-1.754-5.56-4.557-7.242-7.187   c-6.064-5.078-11.773-10.567-17.075-16.437c1.611,2.148,3.263,4.288,4.889,6.458c3.934,4.347,8.061,8.58,12.337,12.532   C69.508,325.288,74.089,328.807,78.939,331.599z M114.523,349.048l-5.141-0.798l3.298,1.396L114.523,349.048z M137.159,23.316   c2.521-0.551,5.059-1.048,7.619-1.485c-2.121-0.286-3.405-1.055-2.302-1.583C140.025,21.905,137.351,22.246,137.159,23.316z    M151.525,357.947c-0.582-0.305-1.179-0.616-1.786-0.934c-5.438-0.769-10.793-1.786-16.053-3.057   c1.357,0.758,2.723,1.514,4.08,2.225C142.787,358.497,147.809,359.635,151.525,357.947z M182.151,361.874   c-0.448-0.47-1.349-0.733-2.37-0.89c-0.572-0.521-0.762-1.159-0.464-1.69c0.773-0.26,1.429-0.521,1.819-0.783   c-0.23,0.014-0.464,0.021-0.691,0.026c-0.583,0.179-0.924,0.448-1.128,0.757c-1.296,0.44-3.097,0.866-5.181,1.254   c-2.083,0.294-4.45,0.328-6.879,0.406c-4.843,0.01-9.953,0.15-13.379-0.675c-1.592,0.467-0.272,1.558,1.805,2.707   c2.092,0.938,4.946,1.861,6.244,2.41c-1.708-4.129,0.75-3.921,4.431-2.99c1.847,0.466,4.019,1.111,6.128,1.486   c2.104,0.379,4.146,0.123,5.67-0.606c-1.626-0.675-5.772-0.263-6.834-1.619c1.828-0.485,5.774-1.109,8.459-0.683   C180.337,361.53,181.234,361.929,182.151,361.874z M205.057,355.759c-3.446,0.646-6.93,1.195-10.443,1.633   c0.67,0.152,1.33,0.323,1.975,0.534C198.278,357.654,203.248,356.866,205.057,355.759z M221.048,19.342l-4.055-0.816   c5.315,0.312-5.618-4.669,2.396-3.673c3.236,0.398-4.844-3.267-8.707-3.397c0.271,1.692,7.651,2.926,4.722,4.232l-3.181-0.393   C216.997,15.87,214.014,19.809,221.048,19.342z M235.084,18.597c-0.377-0.347-0.712-0.559-1.062-0.811   c-2.312-2.07-4.487-6.41-10.341-4.717c3.066,4.255,5.984,1.585,10.341,4.717C234.354,18.1,234.72,18.383,235.084,18.597z    M266.099,46.389l0.005,0.44c0.546,0.356,1.091,0.713,1.633,1.075C267.211,47.37,266.669,46.859,266.099,46.389z M258.425,349.233   l-3.74,0.532c0.235-1.266,3.262-4.02-3.099,0.401l3.099-0.401C254.597,350.395,255.189,350.675,258.425,349.233z M263.021,341.337   c-2.577,1.723-5.748,3.877-7.667,4.783c0.715-0.081,1.843-0.375,3.104-0.865c1.216-0.565,2.581-1.307,3.854-2.087   c2.55-1.562,4.739-3.316,4.688-4.334C267.6,338.347,265.609,339.633,263.021,341.337z M270.467,331.268   c-0.103-1.158-1.584-1.057-3.473-0.614c-0.102,0.067-0.203,0.134-0.306,0.201C267.437,331.186,266.004,333.121,270.467,331.268z    M288.75,317.103c-0.108-0.101-0.224-0.193-0.312-0.321C288.471,316.947,288.592,317.04,288.75,317.103z M290.763,59.545   l-3.911-5.099l1.267,0.866l-0.062-2.439c-0.904,2.442-2.4,0.985-4.357-0.999c-1.899-2.052-4.014-5.032-5.466-6.229   C281.243,48.915,283.266,55.664,290.763,59.545z M310.218,301.947c1.039-0.938,2.062-2.339,3.051-4.238   c-6.253,3.312-8.074,2.486-14.688,7.601l0.572,3.21c1.776-2.562-0.587-3.194,4.408-6.386c0.346,0.945,1.702,1.729,3.56,1.354   C308.052,303.301,309.107,302.826,310.218,301.947z M318.802,292.544c-6.529,2.38-3.941,5.282-5.377,9.52   c0,0-0.44,0.774-0.88,1.555c-0.509,0.726-1.01,1.456-1.01,1.456c1.054-1.003,1.6-2.05,1.89-3.011L318.802,292.544z M323.73,110.037   c-0.164-0.489-0.311-0.971-0.409-1.428c-0.3-1.378-0.426-2.491,0.198-3.319c-1.289-0.271-1.851,0.037-1.958,0.762   C322.302,107.369,323.024,108.698,323.73,110.037z M328.233,88.09c-2.062-2.572-1.177,2.223-1.586,3.815   c-1.012-1.261-1.414-2.282-2.246-4.381c-2.799,3.352,4.276,4.271,5.874,11.033C331.939,97.486,328.287,90.799,328.233,88.09z    M335.037,132.576c0.195-1.728-1.611-3.757-1.414-5.489c1.871-0.361,1.227-1.101,0.156-4.146c-0.098-0.812-0.312-1.705-1.021-2.82   c0.442,1.115,0.763,2.015,1.021,2.82C334.302,126.653,331.356,127.33,335.037,132.576z M340.741,110.459l1.184,2.77   C341.747,112.123,341.291,111.252,340.741,110.459l-1.868-4.365C337.442,107.388,339.326,108.424,340.741,110.459z    M342.396,154.399c-1.302-0.503-2.03-0.296-2.808-0.41c0.441,2.117,0.847,4.249,1.212,6.394   C340.993,158.321,341.477,156.323,342.396,154.399z M349.928,233.219c0.238,0.475,0.645,0.785,1.292,0.853l-0.757-1.859   C350.269,232.528,350.112,232.885,349.928,233.219z M342.515,258.788c-0.774,1.582-1.677,2.863-2.526,4.278   C340.871,262.26,342.109,260.88,342.515,258.788z M74.448,339.954c-0.722-0.438-1.213-0.811-1.541-1.131   C73.123,339.085,73.561,339.421,74.448,339.954z"/>
</g>
</svg>
