<?xml version="1.0" encoding="utf-8"?>
<!-- Generator: Adobe Illustrator 21.0.0, SVG Export Plug-In . SVG Version: 6.00 Build 0)  -->
<svg version="1.1" id="Filled-Star-shape-D6" xmlns="http://www.w3.org/2000/svg" xmlns:xlink="http://www.w3.org/1999/xlink"
	 x="0px" y="0px" viewBox="0 0 415.8148 415.8148" enable-background="new 0 0 415.8148 415.8148" xml:space="preserve">
<g id="change1">
	<polygon fill="#FF7055" points="233.7469,309.4236 278.3602,331.2967 281.7235,281.7234 331.2968,278.3602 309.4237,233.7469 
		350.6737,206.0462 309.4237,178.3465 331.2968,133.7327 281.7235,130.3694 278.3602,80.7962 233.7469,102.6693 206.0463,61.4197 
		178.3466,102.6693 133.7328,80.7962 130.3695,130.3694 80.7963,133.7327 102.6693,178.3465 61.4198,206.0462 102.6693,233.7469 
		80.7963,278.3602 130.3695,281.7234 133.7328,331.2967 178.3466,309.4236 206.0463,350.6736 	"/>
</g>
<g id="change2">
	<polygon fill="#F44D37" points="94.799,173.6525 75.0027,133.2747 26.3561,105.189 54.6605,162.9196 	"/>
	<polygon fill="#F44D37" points="77.503,128.9448 122.3957,125.8987 93.2306,96.4905 28.8557,100.8587 	"/>
	<polygon fill="#F44D37" points="125.9028,122.3351 128.9448,77.5029 100.8588,28.8557 96.5256,92.713 	"/>
	<polygon fill="#F44D37" points="122.3226,286.1893 77.503,283.1481 28.8557,311.2342 92.6091,315.5603 	"/>
	<polygon fill="#F44D37" points="56.174,203.5462 93.5002,178.4808 53.3257,167.7382 0.0015,203.5462 	"/>
	<polygon fill="#F44D37" points="94.811,238.4155 54.7667,248.9568 26.3561,306.9039 75.0027,278.8182 	"/>
	<polygon fill="#F44D37" points="53.123,244.2186 93.4767,233.5959 56.1732,208.5457 0,208.5457 	"/>
	<polygon fill="#F44D37" points="358.4175,167.5033 318.5512,178.4534 355.9194,203.5462 412.0916,203.5462 	"/>
	<polygon fill="#F44D37" points="338.3534,130.6984 317.3149,173.608 357.6198,162.5374 385.8147,105.0303 	"/>
	<polygon fill="#F44D37" points="318.647,96.4758 289.6727,125.897 331.4749,128.7334 383.0411,100.8454 	"/>
	<polygon fill="#F44D37" points="167.7224,358.7436 203.5463,412.0915 203.5463,355.9194 178.4791,318.5894 	"/>
	<polygon fill="#F44D37" points="238.4785,94.78 278.8183,75.0026 306.9039,26.356 249.4999,54.5004 	"/>
	<polygon fill="#F44D37" points="208.5458,56.1732 233.6357,93.5359 244.5561,53.6255 208.5458,0 	"/>
	<polygon fill="#F44D37" points="203.5463,56.1739 203.5463,0.0014 167.827,53.1934 178.4914,93.4844 	"/>
	<polygon fill="#F44D37" points="283.1482,77.5029 286.1884,122.3088 315.5524,92.492 311.2343,28.8557 	"/>
	<polygon fill="#F44D37" points="133.2747,75.0026 173.6688,94.8069 163.0612,54.7299 105.1891,26.356 	"/>
	<polygon fill="#F44D37" points="387.711,101.1627 387.7112,101.1623 387.7108,101.1623 	"/>
	<polygon fill="#F44D37" points="128.9448,334.59 125.8979,289.6859 96.4836,318.7613 100.8588,383.2369 	"/>
	<polygon fill="#F44D37" points="415.8143,206.0461 415.8143,206.0468 415.8148,206.0464 	"/>
	<polygon fill="#F44D37" points="101.1623,387.7107 101.1624,387.7111 101.1628,387.7109 	"/>
	<polygon fill="#F44D37" points="387.7108,310.9307 387.7112,310.9306 387.711,310.9302 	"/>
	<polygon fill="#F44D37" points="310.9302,387.7109 310.9307,387.7111 310.9307,387.7107 	"/>
	<polygon fill="#F44D37" points="206.0462,415.8143 206.0465,415.8148 206.0468,415.8143 	"/>
	<polygon fill="#F44D37" points="355.9202,208.5457 318.6166,233.5951 358.98,244.2119 412.093,208.5457 	"/>
	<polygon fill="#F44D37" points="244.3882,358.7174 233.6161,318.5853 208.5458,355.9201 208.5458,412.0929 	"/>
	<polygon fill="#F44D37" points="133.2748,337.0901 105.1887,385.7371 162.8937,357.4451 173.6495,317.2945 	"/>
	<polygon fill="#F44D37" points="357.3209,248.9459 317.2804,238.414 337.0903,278.8182 385.7371,306.9042 	"/>
	<polygon fill="#F44D37" points="278.8182,337.0902 238.4463,317.2961 249.2266,357.4585 306.9043,385.7371 	"/>
	<polygon fill="#F44D37" points="334.59,283.1481 289.6715,286.196 318.6407,315.6176 383.2369,311.2342 	"/>
	<polygon fill="#F44D37" points="315.552,319.6065 286.1884,289.7844 283.1482,334.59 311.2343,383.2369 	"/>
</g>
</svg>
