<?xml version="1.0" standalone="no"?>
<!DOCTYPE svg PUBLIC "-//W3C//DTD SVG 1.1//EN" "http://www.w3.org/Graphics/SVG/1.1/DTD/svg11.dtd">
<!-- Generator: Adobe Illustrator 16.0.0, SVG Export Plug-In . SVG Version: 6.00 Build 0)  -->
<svg xmlns="http://www.w3.org/2000/svg" xmlns:xlink="http://www.w3.org/1999/xlink" version="1.1" id="Layer_1" x="0px" y="0px" width="550px" height="475.244px" viewBox="0 0 550 475.244" style="enable-background:new 0 0 550 475.244;" xml:space="preserve">
<g id="c">
	<g id="change1">
		<path style="fill:#99B83C;" d="M543.875,168.212c0.18-0.491,0.277-1.104,0.316-1.784L543.875,168.212z"/>
		<path style="fill:#99B83C;" d="M522.884,6.836c1.307-0.064,1.854-0.332,1.918-0.574C523.59,6.437,522.59,6.603,522.884,6.836z"/>
		<path style="fill:#99B83C;" d="M493.535,3.875c0.631,0.068,1.154,0.122,1.732,0.183C494.599,3.807,493.939,3.668,493.535,3.875z"/>
		<path style="fill:#99B83C;" d="M544.19,166.428l0.845-4.591C544.166,161.511,544.387,164.186,544.19,166.428z"/>
		<path style="fill:#99B83C;" d="M546.375,242.198v1.396c0.312,0.41,0.673,0.8,1.097,1.166L546.375,242.198z"/>
		<path style="fill:#99B83C;" d="M543.606,298.078c0.94,0.739,1.393,1.711,1.563,2.87c0.437,0.019,0.958-0.156,1.617-0.598    C546.884,299.036,544.602,298.577,543.606,298.078z"/>
		<path style="fill:#99B83C;" d="M542.773,392.562l0.312,1.638C542.982,393.776,542.899,393.058,542.773,392.562z"/>
		<path style="fill:#99B83C;" d="M546.864,200.578c0.344-0.1,0.638-0.306,0.818-0.528    C547.402,200.046,547.131,200.253,546.864,200.578z"/>
		<path style="fill:#99B83C;" d="M540.426,463.533l-0.938,0.125c-0.089,0.43-0.205,0.853-0.205,1.274L540.426,463.533z"/>
		<path style="fill:#99B83C;" d="M439.818,0.947c0.106,0.02,0.146,0.026,0.245,0.043C441.479,0.729,440.676,0.774,439.818,0.947z"/>
		<path style="fill:#99B83C;" d="M3.695,78.463c2.04-5.584,2.618,9.091,4.89,0.685C7.686,79.931,5.019,71.502,3.695,78.463z"/>
		<path style="fill:#99B83C;" d="M316.066,2.319c0.251,0.403,0.75,0.707,1.262,1C317.287,3.087,316.995,2.8,316.066,2.319z"/>
		<path style="fill:#99B83C;" d="M408.261,5.568l-2.278-0.308C406.887,5.471,407.619,5.542,408.261,5.568z"/>
		<path style="fill:#99B83C;" d="M267.176,5.359c-0.628-0.126-1.192-0.207-2.328,0c0.151,0.115,0.312,0.196,0.508,0.277    C265.805,5.413,266.366,5.278,267.176,5.359z"/>
		<path style="fill:#99B83C;" d="M267.176,5.359c0.307,0.061,0.62,0.128,1.026,0.183C267.819,5.442,267.483,5.388,267.176,5.359z"/>
		<path style="fill:#99B83C;" d="M218.377,5.559c0.261,0.174,0.61,0.303,0.914,0.46c0.495-0.042,1.072-0.086,1.586-0.126    L218.377,5.559z"/>
		<path style="fill:#99B83C;" d="M548.634,32.341c-1.89-3.843-1.328,7.895-3.54,4.456c0.188-3.343,1.241-6.755,2.258-9.594    c0.265-0.713,0.509-1.397,0.744-2.029c0.228-1.023,0.449-1.978,0.637-2.833c0.369-1.768,0.613-3.239,0.613-4.117    c0.756-8.162-0.254-11.404-1.32-13.75c-4.536,1.037-8.318,2.113-14.937,1.608c0.766,0.48,1.208,1.364,0.291,2.242    c-0.865,0.879-3.124,1.748-6.896,2.205c-6.688-0.36-8.221-4.044-3.995-4.819c1.605-0.081,2.377,0.226,2.312,0.552    c0.542-0.091,1.123-0.193,1.65-0.281c0.62-0.142,1.183-0.271,1.571-0.358c0.997-0.28,1.057-0.642-0.878-1.167l-0.865,0.964    c-3.32-0.983-12.525-0.883-10.36-2.461c-5.059,0.916-2.165,1.578,1.585,2.08c-8.584-1.396-13.41-0.041-22.236-0.98    c1.396,0.53,2.694,1.663,1.294,1.652c-12.956-1.193-5.708,1.83-14.48,2.252c-4.984-1.471,1.782-3.51-7.053-2.275    c-5.395-0.994-1.142-2.561,1.004-3.345c-8.057,1.861-15.042-1.22-19.645-1.562L460.628,0c-2.529,0.464-4.609,0.446-6.723,0.442    l2.416,1.928c-2.489-0.338-4.595-0.345-4.549-1.147c-2.562,1.265,1.961,3.206-3.13,4.933c-3.315-0.979-10.104,1.052-11.259-1.507    c10.445,0.869-1.153-2.568,7.683-2.981c-1.704,0.304-3.777,0.294-6.277-0.044c-0.376-0.287,0.354-0.53,1.03-0.675    c-9.99-2.286-4.589,2.893-14.941,2.833c1.313-1.444-2.397-2.735-4.088-2.428c4.17,0.032,1.993,2.407-1.836,3.51    c-6.637-1.123-7.211,0.835-10.689,0.707l3.968,0.526c-1.344,1.441-4.662,1.254-9.291,1.709c-0.396-1.123,4.2-0.774,2.549-1.268    c-5.138,2.536-11.607-2.624-18.771-0.917c-3.321-0.977-0.323-2.708-3.235-3.371c-8.036,1.869-8.697-1.975-17.143-0.429    c2.433,1.936,2.861,1.464-3.084,3.354l13.877-1.366l-8.901,2.816c4.183,0.026,8.832-1.216,11.342-0.89    c-4.247,1.583-3.804,1.1-1.803,2.709c-5.729-2.907-11.361,1.693-17.984-0.271l0.205-4.797c-9.955-2.139-17.692,2.462-30.626,1.258    l4.156,0.836c-1.736,1.903-7.979,0.265-12.177,1.04c0.396-1.604-2.226-2.188-4.019-3.185c0.219,1.19-9.463-0.111-10.635,3.094    l-5.771-2.113c-10.439-0.865-11.919,4.568-21.956,4.023c3.028-1.743-1.538-2.88,5.185-4.127c-3.349-0.015-6.358-0.309-6.415,0.801    c-1.959-1.004-9.295,2.161-12.375,0.635c-1.413,0.703-1.875,2.384-5.636,2.252c-0.255-0.207-0.185-0.453-0.089-0.619    c-0.771,0.67-5.53,1.042-2.497,2.678c-10.324-5.004-28.853,0.365-37.839-3.932c-7.312,0.538-16.127,1.055-22.762,1.17    c0.425-0.48,0.02-0.798,1.279-0.632c-9.162-1.491-5.636,4.604-16.056,2.942c-5.322-2.594,5.533-1.404,2.212-2.384    c-1.445-5.278-12.579,0.72-19.588-2.359l1.7-0.312c-5.362-1.792-13.082,1.997-21.841,1.619c0,0,0.427-0.467,0.05-0.798    c-5.986,2.691-17.328,3.584-25.753,4.327c2.621-2.062,3.826-1.091,2.225-3.188c-3.776,0.297,1.106,3.371-6.431,3.955    c-2.449-1.129-7.893-2.116-8.614-4.358l7.115-0.122c-3.64-2.897-9.208,0.099-12.949-0.404l0.476-1.268    C89.468,4.616,89.317,7.804,77.605,7.577l1.205,0.959c-6.408,3.165-5.375-1.774-11.761,0.578L65.118,5.91    c-4.224,0.775-14.796,3.1-22.372,3.701c4.298-2.375,13.159-3.589,18.644-5.003C57.203,4.585,47.16,4.842,44.977,6.427    c1.688-0.311,3.811-1.095,5.479-0.601C45.315,8.343,38.557,9.585,30.22,9.53c0.238-1.017-0.178-1.745-1.07-2.268    c-0.456-0.264-1.022-0.477-1.684-0.648C27.13,6.529,26.78,6.451,26.4,6.384c-0.436-0.068-1.09-0.128-1.674-0.184    c-4.893-0.419-11.585-0.389-18.08-0.619c-0.244,6.451-0.778,12.327-2.45,15.569l0.621,7.178c0.128,1.842,0.191,3.688,0.201,5.542    c0.026,3.706-0.162,7.44-0.398,11.255c-0.492,7.624-1.216,15.552-1.033,24.153c4.836-6.1,0.135,5.017,5.101,3.962    c0.32,3.976,0.237,5.508-0.076,5.878l0.208-0.841c-0.092,0.357-0.151,0.561-0.228,0.87c0.003,0,0.013,0,0.017,0l-2.969,12.12    c-1.443,2.878-1.093-3.809-2.208-3.441C3.041,96.595,1.318,91.503,0,97.31c1.772-1.19,2.542,3.048,1.865,8.046l2.292-7.04    c2.645,12.256-4.163,10.592-1.553,22.946l-1.562-3.909c0.921,6.341-0.033,23.383,3.959,29.597    c-0.575,1.122-1.928,2.604-2.291-0.186c-0.599,15.146,4.246,33.72,1.789,45.493l-1.215-1.146c0.353,2.826,2.284,4.92,1.06,8.456    c-0.502-0.182-1.212-1.137-1.288,0.173c0.419,1.497,2.133,7.504,1.427,11.252l-1.37-3.203c-1.588,14.775,3.325,22.676,4.16,35.067    c-3.574-0.034-4.733,11.598-5.314,17.396l-0.502-0.205c-0.446,17.208,2.962,29.228,4.364,45.16    c-3.88,9.892-1.62,33.505-3.803,49.396c0.653-2.43,2.786,0.396,3.146,3.223c-0.724,3.734,2.482,10.318-0.795,9.721l0.062-1.331    c-3.216,2.808-2.361,10.479-2.45,16.464l4.292,0.982c-6.239,15.663,2.295,41.029-3.298,49.571    c1.076,3.776,1.058,8.458,2.133,12.201l-2.301-0.197c-0.093,1.717-0.179,3.295-0.257,4.801c-0.07,2.682-0.132,5.229-0.198,7.766    c-0.105,5.104-0.172,10.199-0.166,16.092c4.854-0.01,11.651-0.099,20.098-0.293c0,0-1.309,0.412-2.612,0.821    c-1.387,0.409-2.773,0.819-2.773,0.819c3.529,0.039,6.527-0.357,8.968-0.971c0.355-0.079,0.551-0.158,0.68-0.244l0.469-0.259    c0.309-0.19,0.608-0.377,0.901-0.563c0.588-0.395,1.148-0.815,1.71-1.238c2.231-1.689,4.397-3.421,7.759-3.485l2.03,3.434    c12.734-0.053,25.622,2.961,38.207-0.151c-0.211,0.501-0.584,1.492-2.646,1.63c5.993,0.091,23.186,2.328,21.009-2.39    c0.151,3.07,13.138,0.304,20.019-1.051l-1.07,2.263c5.807-2.89,5.99-3.682,14.1-4.483c1.914,0.301,1.681,1.812-0.868,1.23    c6.398,1.189,4.984-2.139,12.747-0.931l-2.893,1.438c6.586,0.18,6.062-0.602,9.688-2.284c4.145-0.91,12.493,0.574,13.464,2.614    c0.889-1.245,4.494-2.912,8.374-2.324c0.526,0.772-0.885,1.255-1.6,1.482c11.015,1.546,16.377-2.625,23.946-0.406    c0.159,0.753,0.651,1.126,1.282,1.348c-8.033-0.054-14.61-0.157-15.129-0.305c0.09,2.051,7.02,2.438,1.437,5.296    c5.672-1.57,15.372-4.991,22.265-4.008c0.332,0.198,0.658,0.396,0.909,0.72l-0.716,0.23c1.595,0.212,3.018,0.015,4.354-0.336    c2.199,0.343,3.596,0.598,5.708,0.627c0.812,1.73,8.099,0.931,11.626,1.017c-0.295-2.283,4.317-1.914,0-3.803    c0.557,0.164-0.664,0.277-3.012,0.366c-0.531,0.069-1.152,0.103-1.504,0.237c0.073-0.062,0.156-0.125,0.242-0.2    c-2.314,0.039-5.333,0.092-8.759,0.15c2.779-1.162,5.695-2.14,9.59-0.871c1.808-1.467,3.798-2.973,4.92-3.685    c4.82,3.187,14.111,4.905,15.409,6.87c10.757-1.281,25.346-0.845,32.108-5.135c3.061-0.555,3.516,1.229,4.662,1.898    c-1.764,0.433-3.866,0.366-4.824,0.982c6.115-1.103,18.123-0.428,19.583-3.43c7.712,1.354-4.333,2.761,6.259,2.274l-1.426,0.914    c20.833,4.794,33.878-7.649,56.981-1.498c-1.607-0.377-2.403-0.548-2.729-1.055c26.341,2.712,54.274-2.544,80.264,1.754    c7.392,0.872,8.188-1.047,12.697-2.499l1.606,2.452l7.703-2.829c10.929-2.07,18.937,6.019,32.772,2.101l-1.789-1.647    c4.976,0.311,15.749-0.978,14.916,0.925c0.509-0.304,1.631-1.723,3.576-0.858l0.15,1.281l12.207-2.199    c9.461,0.933-1.482,5.099,12.327,5.35c5.138-0.495,14.62-3.734,12.692-4.597c-2.073-0.064-5.29-0.803-5.447-2.086l4.697-0.667    c0.053-0.237,0.115-0.477,0.191-0.714h0.745v-2.344c0.284-1.027,0.403-2.038,0-2.995v-50.165l0.631,0.562l-0.631-1.661v-7.178    c0.485,0.218,0.901,0.892,1.097,2.305c1.672-5.21-1.201-4.609,0.66-9.091c0.291-0.49,0.448-0.267,0.587,0.189l-1.01-5.092    c0.714,0.998,2.391-0.846,1.898,2.277c1.946-9.139-2.535-14.734,0.026-18.172l0.207,0.762c-0.852-9.484-1.814-5.475-3.467-6.823    v-5.931l4.194-4.383l-2.479-1.25c0.086-1.311,0.271-3.893,1.269-3.42c-1.703-4.867-1.078,0.832-2.688-1.994    c2.258-6.293-1.054-17.359,2.892-18.779c-1.882-2.258-1.444,6.021-2.76-0.699c4.252-1.919-0.726-7.771,1.222-13.523    c2.192,1.764,1.03,7.217,2.991,1.459c-3.711-3.467,0.806-11.199,0.101-16.053c-2.952-0.225-1.229-10.553-2.213-18.693    c0.99,0.516,1.621-15.312,2.688-22.892l0.495,0.222c-2.979-1.465-2.416-9.275-3.037-14.966c1.782,0.222,2.489,1.245,3.292,4.328    l-0.017-5.349c-0.955-1.262-1.46-2.93-1.8-6.4l2.23,1.346c-0.118-7.116-2.627-14.333-1.139-23.493    c-1.406-0.348-3.565,3.101-5.243,2.366v-4.949c0.707,0.165,1.338,0.697,1.572,2.001c-0.152-0.83-0.937-2.958-0.456-4.634    l1.897,3.871c0.826-4.173-1.588-2.185-1.406-5.52c1.604,0.071,1.143-2.464,2.417-1.987c0.151,0.853-0.667,2.91-0.032,4.188    c0.282-3.76,1.229-8.306,2.449-9.808c-0.911,0.329-2.159,0-2.363-2.752c-0.119-7.116,1.928-2.437,2.753-6.588    c-1.116-1.726,0.04-6.265-2.356-6.385c0.006-2.082,1.129-2.467,1.775-3.271c-1.057-3.683-0.3-17.206-2.855-13.054l-0.165,0.947    c-0.053-0.178-0.053-0.387-0.104-0.603c-2.381-12.073,1.354-25.083,0.333-37.062l0.806,0.021    c-0.917-7.153-0.541-15.918-2.274-21.025c0.008-2.112,1.47-4.99,2.427-4.087c-0.61-5.468-1.505-6.08-0.188-13.979    c1.407,5.496,1.241-1.896,1.033,5.632c0.693-7.103,1.976-8.713-0.219-16.34c2.055,2.598,2.59-5.348,1.975-8.723l-1.472,4.978    c-0.301-3.797-0.112-7.117,0.06-10.491l2.7,1.826C552.014,55.084,543.133,43.406,548.634,32.341z M217.036,471.854    c0.072-0.086,0.212-0.185,0.276-0.283c-0.217,0.436-0.475,0.846-0.921,1.148c-2.344,0.323-3.127-0.123-3.45-0.595    C214.049,472.088,215.339,472.005,217.036,471.854z M540.784,390.353c-0.119,0.312-0.237,0.519-0.355,0.685v-3.011    C540.551,388.758,540.676,389.521,540.784,390.353z"/>
		<path style="fill:#99B83C;" d="M259.74,7.097c0,0-0.059,0.074-0.107,0.172C259.691,7.214,259.74,7.158,259.74,7.097z"/>
		<path style="fill:#99B83C;" d="M178.034,469.608c0-0.015-0.007-0.026-0.007-0.039    C177.975,469.588,177.989,469.595,178.034,469.608z"/>
		<path style="fill:#99B83C;" d="M220.606,469.727c0.34-0.056,0.521-0.145,0.967-0.164c-0.479-0.207-0.935-0.377-1.396-0.516    c-0.286,0.245-0.577,0.492-0.831,0.72C219.771,469.747,220.213,469.734,220.606,469.727z"/>
		<path style="fill:#99B83C;" d="M543.875,168.212c-0.093,0.261-0.182,0.496-0.327,0.657c0.112-0.212,0.182-0.212,0.271-0.346    L543.875,168.212z"/>
		<path style="fill:#99B83C;" d="M544.354,337.526l-0.659,9.129c0.881-1.598,2.066-3.698,2.277,0.459    C548.607,335.608,543.996,349.485,544.354,337.526z"/>
		<path style="fill:#99B83C;" d="M545.636,309.218c0.409,4.906,1.28-0.056,1.774,0.209    C546.614,306.315,546.41,305.556,545.636,309.218z"/>
		<path style="fill:#99B83C;" d="M545.642,104.655l2.08,0.493C547.422,101.368,546.916,105.114,545.642,104.655z"/>
		<polygon style="fill:#99B83C;" points="549.25,37.798 549.701,42.454 550,44.103   "/>
		<path style="fill:#99B83C;" d="M227.239,3.536l1.144,2.559C230.937,5.636,231.475,2.762,227.239,3.536z"/>
		<path style="fill:#99B83C;" d="M78.923,6.143c-1.618-1.281-5.788-2.104-8.36-0.846C73.894,5.478,77.222,6.474,78.923,6.143z"/>
		<polygon style="fill:#99B83C;" points="3.037,391.115 2.182,388.127 2.893,393.754   "/>
	</g>
</g>
<g id="s">
</g>
<g id="n">
</g>
<g id="w">
</g>
<g id="e">
</g>
<g id="se">
</g>
<g id="sw">
</g>
<g id="ne">
</g>
<g id="nw">
</g>
</svg>
