<?xml version="1.0" standalone="no"?>
<!DOCTYPE svg PUBLIC "-//W3C//DTD SVG 1.1//EN" "http://www.w3.org/Graphics/SVG/1.1/DTD/svg11.dtd">
<!-- Generator: Adobe Illustrator 16.0.0, SVG Export Plug-In . SVG Version: 6.00 Build 0)  -->
<svg xmlns="http://www.w3.org/2000/svg" xmlns:xlink="http://www.w3.org/1999/xlink" version="1.1" id="Layer_1" x="0px" y="0px" width="442.895px" height="337.346px" viewBox="0 0 442.895 337.346" style="enable-background:new 0 0 442.895 337.346;" xml:space="preserve">
<g id="c">
	<g id="change1">
		<rect x="21.947" y="42.224" style="fill:#EE826C;" width="399" height="248.194"/>
	</g>
</g>
<g id="w">
	<g id="change1_1_">
		<polygon style="fill:#EE826C;" points="0.001,42.224 0.001,42.223 0,42.223 0,290.418 21.947,290.418 21.947,42.224   "/>
	</g>
</g>
<g id="s_repeat">
	<g id="change1_3_">
		<path style="fill:#EE826C;" d="M21.947,328.951c0.082-0.312,0.151-0.631,0.207-0.953c0.904,5.304,5.513,9.348,11.073,9.348    c5.562,0,10.169-4.046,11.071-9.349c0.905,5.303,5.513,9.349,11.073,9.349c5.562,0,10.169-4.043,11.071-9.346    c0.905,5.303,5.513,9.346,11.072,9.346c5.562,0,10.17-4.047,11.073-9.352c0.903,5.305,5.511,9.352,11.073,9.352    s10.167-4.043,11.069-9.346c0.907,5.303,5.516,9.346,11.073,9.346c5.562,0,10.171-4.046,11.073-9.349    c0.904,5.303,5.509,9.349,11.073,9.349c5.562,0,10.169-4.047,11.071-9.352c0.903,5.305,5.513,9.352,11.073,9.352    c5.562,0,10.167-4.043,11.071-9.346c0.907,5.303,5.513,9.346,11.072,9.346c5.562,0,10.173-4.046,11.072-9.349    c0.905,5.303,5.513,9.349,11.073,9.349c5.562,0,10.169-4.045,11.073-9.348c0.904,5.304,5.513,9.348,11.072,9.348    c5.561,0,10.17-4.045,11.062-9.348c0.908,5.304,5.52,9.348,11.073,9.348c5.562,0,10.172-4.045,11.067-9.348    c0.906,5.304,5.52,9.348,11.072,9.348c5.562,0,10.172-4.048,11.073-9.354c0.901,5.307,5.511,9.354,11.073,9.354    c5.562,0,10.17-4.045,11.065-9.348c0.905,5.304,5.519,9.348,11.072,9.348c5.562,0,10.171-4.045,11.072-9.347    c0.901,5.302,5.511,9.347,11.068,9.347c5.562,0,10.173-4.045,11.068-9.348c0.905,5.304,5.517,9.348,11.072,9.348    c5.562,0,10.171-4.049,11.074-9.354c0.897,5.306,5.51,9.354,11.068,9.354c5.562,0,10.171-4.045,11.069-9.348    c0.905,5.304,5.516,9.348,11.073,9.348c5.562,0,10.17-4.045,11.069-9.347c0.059,0.341,0.133,0.677,0.222,1.007V290.42l-399-0.001    v38.532H21.947z"/>
	</g>
</g>
<g id="se">
	<g id="change1_2_">
		<path style="fill:#EE826C;" d="M431.795,337.346c5.515,0,10.074-3.967,11.038-9.197V290.42h-21.886v38.586    C422.228,333.804,426.597,337.346,431.795,337.346z"/>
	</g>
</g>
<g id="sw">
	<g id="change1_4_">
		<path style="fill:#EE826C;" d="M0,290.419v37.627c0.003-0.021,0.007-0.029,0.01-0.048c0.904,5.303,5.511,9.348,11.073,9.348    c5.224,0,9.603-3.567,10.864-8.395v-38.532H0z"/>
	</g>
</g>
<g id="e">
	<g id="change1_5_">
		<rect x="420.947" y="42.223" style="fill:#EE826C;" width="21.946" height="248.195"/>
	</g>
</g>
<g id="ne">
	<g id="change1_6_">
		<path style="fill:#EE826C;" d="M431.856,0c-5.297,0-9.723,3.666-10.909,8.596v33.627h21.946V9.198    C441.932,3.966,437.365,0,431.856,0z"/>
	</g>
</g>
<g id="n_repeat">
	<g id="change1_7_">
		<path style="fill:#EE826C;" d="M420.947,42.223V8.596c-0.061,0.249-0.119,0.497-0.162,0.752C419.88,4.041,415.273,0,409.711,0    c-5.562,0-10.172,4.041-11.073,9.348C397.735,4.041,393.127,0,387.564,0c-5.563,0-10.176,4.045-11.072,9.354    c-0.9-5.31-5.51-9.354-11.076-9.354c-5.562,0-10.171,4.041-11.07,9.348C353.441,4.041,348.832,0,343.272,0    C337.71,0,333.1,4.041,332.2,9.346C331.297,4.041,326.69,0,321.126,0c-5.562,0-10.171,4.041-11.073,9.348    C309.151,4.041,304.545,0,298.98,0c-5.562,0-10.17,4.045-11.07,9.354C287.006,4.044,282.398,0,276.834,0    c-5.562,0-10.171,4.041-11.072,9.348C264.857,4.041,260.25,0,254.688,0c-5.562,0-10.168,4.041-11.066,9.348    C242.711,4.041,238.105,0,232.543,0s-10.17,4.042-11.073,9.348C220.566,4.042,215.958,0,210.397,0s-10.171,4.042-11.071,9.349    C198.421,4.042,193.815,0,188.25,0c-5.562,0-10.167,4.041-11.073,9.345C176.273,4.041,171.665,0,166.105,0    c-5.562,0-10.171,4.043-11.071,9.351C154.128,4.043,149.521,0,143.959,0c-5.564,0-10.17,4.042-11.073,9.349    C131.983,4.042,127.376,0,121.813,0c-5.562,0-10.167,4.041-11.071,9.345C109.835,4.041,105.228,0,99.668,0    c-5.562,0-10.171,4.043-11.073,9.35C87.69,4.044,83.083,0,77.521,0s-10.169,4.041-11.07,9.345C65.544,4.041,60.937,0,55.376,0    c-5.562,0-10.169,4.042-11.073,9.349C43.399,4.042,38.792,0,33.228,0c-5.562,0-10.168,4.041-11.07,9.348    c-0.056-0.329-0.127-0.653-0.211-0.971v33.846H420.947z"/>
	</g>
</g>
<g id="nw">
	<g id="change1_8_">
		<path style="fill:#EE826C;" d="M21.947,8.377C20.676,3.556,16.299,0,11.084,0C5.522,0,0.914,4.041,0.011,9.347    C0.009,9.33,0.004,9.315,0.001,9.299v32.924h21.946V8.377L21.947,8.377z"/>
	</g>
</g>
</svg>
