<?xml version="1.0" standalone="no"?>
<!DOCTYPE svg PUBLIC "-//W3C//DTD SVG 1.1//EN" "http://www.w3.org/Graphics/SVG/1.1/DTD/svg11.dtd">
<!-- Generator: Adobe Illustrator 16.0.0, SVG Export Plug-In . SVG Version: 6.00 Build 0)  -->
<svg xmlns="http://www.w3.org/2000/svg" xmlns:xlink="http://www.w3.org/1999/xlink" version="1.1" id="Layer_1" x="0px" y="0px" width="500px" height="500px" viewBox="0 0 500 500" style="enable-background:new 0 0 500 500;" xml:space="preserve">
<g id="c">
	<g id="change1_9_">
		<rect id="change1" x="15.875" y="15.875" style="fill:#FBB040;" width="468.244" height="468.246"/>
	</g>
</g>
<g id="w_1_">
	<g id="change1_8_">
		<path style="fill:#FBB040;" d="M15.875,15.875H-0.002c0,4.185,1.72,8.294,4.67,11.246c0.657,0.656,1.39,1.229,2.148,1.758    c-4.108,2.878-6.818,7.638-6.818,13.035c0,5.379,2.688,10.124,6.762,13c-4.072,2.876-6.762,7.621-6.762,13s2.688,10.124,6.762,13    c-4.072,2.877-6.762,7.622-6.762,13.001s2.688,10.162,6.762,13c-4.072,2.877-6.762,7.66-6.762,13.039    c0,5.38,2.688,10.124,6.762,13.001c-4.072,2.876-6.762,7.621-6.762,13c0,5.38,2.688,10.124,6.762,13.001    c-4.072,2.876-6.762,7.621-6.762,13c0,5.38,2.688,10.124,6.762,13.001c-4.072,2.876-6.762,7.621-6.762,13    c0,5.38,2.688,10.162,6.762,13.001c-4.072,2.876-6.762,7.657-6.762,13.038c0,5.38,2.688,10.124,6.762,13.001    c-4.072,2.877-6.762,7.621-6.762,13c0,5.378,2.688,10.124,6.762,12.999c-4.072,2.879-6.762,7.621-6.762,13.002    c0,5.378,2.688,10.124,6.762,12.999c-4.072,2.879-6.762,7.621-6.762,13.002c0,5.378,2.688,10.161,6.762,13.039    c-4.072,2.839-6.762,7.621-6.762,12.999c0,5.381,2.688,10.124,6.762,13.002c-4.072,2.875-6.762,7.621-6.762,12.999    c0,5.381,2.688,10.124,6.762,13.002c-4.072,2.875-6.762,7.621-6.762,12.999c0,5.381,2.688,10.124,6.762,13.002    c-4.072,2.875-6.762,7.658-6.762,13.039c0,5.378,2.688,10.124,6.762,12.999c-4.072,2.878-6.762,7.621-6.762,13.002    c0,5.378,2.688,10.124,6.762,12.999c-4.072,2.878-6.762,7.621-6.762,13.002c0,5.403,2.716,10.156,6.835,13.021    c-0.768,0.526-1.503,1.106-2.165,1.771c-2.95,2.951-4.67,7.062-4.67,11.243h15.877V15.875z"/>
	</g>
</g>
<g id="sw">
	<g id="change1_7_">
		<path style="fill:#FBB040;" d="M-0.002,484.12c0,4.222,1.646,8.22,4.67,11.208c2.99,2.987,6.984,4.67,11.207,4.67V484.12H-0.002z"/>
	</g>
</g>
<g id="s_repeat">
	<g id="change1_1_">
		<path style="fill:#FBB040;" d="M15.875,484.12v15.878c4.259,0,8.258-1.683,11.246-4.67c0.662-0.664,1.233-1.396,1.764-2.146    c2.88,4.108,7.636,6.815,13.03,6.815c5.379,0,10.124-2.689,13-6.765c2.876,4.069,7.621,6.765,13,6.765s10.124-2.689,13-6.765    c2.877,4.069,7.622,6.765,13.001,6.765s10.124-2.689,13-6.765c2.877,4.069,7.622,6.765,13.001,6.765s10.162-2.689,13.039-6.765    c2.838,4.069,7.621,6.765,13,6.765c5.38,0,10.124-2.689,13.001-6.765c2.876,4.069,7.621,6.765,13,6.765    c5.38,0,10.124-2.689,13.001-6.765c2.876,4.069,7.621,6.765,13,6.765c5.38,0,10.162-2.689,13.001-6.765    c2.876,4.069,7.657,6.765,13.038,6.765c5.38,0,10.124-2.689,13.001-6.765c2.877,4.069,7.621,6.765,13,6.765    c5.378,0,10.124-2.689,12.999-6.765c2.879,4.069,7.621,6.765,13.002,6.765c5.378,0,10.124-2.689,12.999-6.765    c2.879,4.069,7.621,6.765,13.002,6.765c5.378,0,10.159-2.689,12.997-6.765c2.881,4.069,7.661,6.765,13.039,6.765    c5.383,0,10.124-2.689,13.002-6.765c2.875,4.069,7.621,6.765,12.999,6.765c5.383,0,10.124-2.689,13.004-6.765    c2.875,4.069,7.619,6.765,12.997,6.765c5.383,0,10.124-2.689,13.003-6.765c2.875,4.069,7.657,6.765,13.038,6.765    c5.38,0,10.124-2.689,12.999-6.765c2.879,4.069,7.621,6.765,13.003,6.765c5.378,0,10.123-2.689,12.998-6.801    c2.879,4.105,7.621,6.801,13.003,6.801c5.396,0,10.143-2.711,13.011-6.819c0.531,0.756,1.111,1.485,1.784,2.149    c2.985,2.987,6.984,4.67,11.241,4.67V484.12H15.875z"/>
	</g>
</g>
<g id="se">
	<g id="change1_3_">
		<path style="fill:#FBB040;" d="M484.118,499.998c4.224,0,8.222-1.683,11.208-4.67c2.987-2.988,4.67-6.986,4.67-11.208h-15.878    V499.998L484.118,499.998z"/>
	</g>
</g>
<g id="e">
	<g id="change1_2_">
		<path style="fill:#FBB040;" d="M493.156,471.1c4.126-2.861,6.841-7.607,6.841-13.017c0-5.381-2.688-10.124-6.801-13.002    c4.107-2.875,6.801-7.621,6.801-12.999c0-5.381-2.688-10.124-6.801-13.002c4.107-2.875,6.801-7.621,6.801-12.999    c0-5.381-2.688-10.164-6.801-13.002c4.107-2.875,6.801-7.658,6.801-13.039c0-5.378-2.688-10.124-6.801-12.999    c4.107-2.878,6.801-7.621,6.801-13.002c0-5.378-2.688-10.124-6.801-12.999c4.107-2.878,6.801-7.621,6.801-13.002    c0-5.378-2.688-10.124-6.801-12.999c4.107-2.878,6.801-7.661,6.801-13.002c0-5.418-2.688-10.16-6.801-13.039    c4.107-2.875,6.801-7.621,6.801-12.999c0-5.381-2.688-10.123-6.801-13.002c4.107-2.875,6.801-7.621,6.801-12.999    c0-5.379-2.688-10.123-6.801-13c4.107-2.877,6.801-7.621,6.801-13.001c0-5.381-2.688-10.125-6.765-13    c4.071-2.877,6.765-7.659,6.765-13.039c0-5.379-2.688-10.124-6.801-13c4.107-2.877,6.801-7.621,6.801-13.001    c0-5.379-2.688-10.124-6.801-13c4.107-2.877,6.801-7.621,6.801-13.001c0-5.379-2.688-10.124-6.801-13    c4.107-2.877,6.801-7.621,6.801-13.001c0-5.379-2.688-10.162-6.801-13.039c4.107-2.838,6.801-7.621,6.801-13    s-2.688-10.124-6.801-13.001c4.107-2.876,6.801-7.621,6.801-13s-2.688-10.124-6.801-13c4.107-2.877,6.801-7.621,6.801-13    c0-5.403-2.715-10.151-6.841-13.019c0.771-0.532,1.507-1.111,2.171-1.774c2.951-2.952,4.67-7.062,4.67-11.246h-15.878V484.12    h15.878c0-4.188-1.719-8.292-4.67-11.243C494.662,472.213,493.927,471.636,493.156,471.1z"/>
	</g>
</g>
<g id="ne">
	<g id="change1_6_">
		<path style="fill:#FBB040;" d="M499.996,15.875c0-4.183-1.719-8.256-4.67-11.207c-2.941-2.941-7-4.658-11.208-4.668v15.875    H499.996z"/>
	</g>
</g>
<g id="n_repeat">
	<g id="change1_4_">
		<path style="fill:#FBB040;" d="M484.118,15.875V0c-0.012,0-0.022-0.002-0.034-0.002c-4.187,0-8.258,1.72-11.207,4.67    c-0.664,0.662-1.241,1.399-1.773,2.163c-2.863-4.117-7.613-6.833-13.021-6.833c-5.381,0-10.122,2.69-13.002,6.762    c-2.875-4.072-7.621-6.762-12.999-6.762c-5.381,0-10.124,2.69-13.002,6.762c-2.875-4.072-7.621-6.762-12.999-6.762    c-5.381,0-10.164,2.69-13.002,6.762c-2.875-4.072-7.656-6.762-13.039-6.762c-5.378,0-10.124,2.69-12.999,6.762    c-2.878-4.072-7.619-6.762-13.002-6.762c-5.378,0-10.124,2.69-12.999,6.762c-2.878-4.072-7.621-6.762-13.002-6.762    c-5.378,0-10.124,2.69-12.999,6.762c-2.878-4.072-7.661-6.762-13-6.762c-5.38,0-10.16,2.69-13.039,6.762    c-2.875-4.072-7.621-6.762-12.999-6.762c-5.382,0-10.123,2.69-13.002,6.762c-2.875-4.072-7.621-6.762-12.999-6.762    c-5.379,0-10.123,2.69-13,6.762c-2.877-4.072-7.621-6.762-13.001-6.762c-5.383,0-10.162,2.69-13,6.762    c-2.877-4.072-7.659-6.762-13.039-6.762c-5.379,0-10.124,2.69-13,6.762c-2.877-4.072-7.621-6.762-13.001-6.762    c-5.379,0-10.124,2.69-13,6.762c-2.877-4.072-7.621-6.762-13.001-6.762c-5.381,0-10.124,2.69-13,6.762    c-2.877-4.072-7.621-6.762-13.001-6.762c-5.381,0-10.162,2.69-13.039,6.762c-2.838-4.072-7.621-6.762-13-6.762    S83.792,2.688,80.915,6.76c-2.876-4.072-7.621-6.762-13-6.762s-10.124,2.69-13,6.762c-2.877-4.072-7.621-6.762-13-6.762    c-5.397,0-10.157,2.71-13.035,6.82c-0.529-0.761-1.104-1.494-1.758-2.15c-2.952-2.95-7.062-4.67-11.246-4.67v15.877H484.118z"/>
	</g>
</g>
<g id="nw">
	<g id="change1_5_">
		<path style="fill:#FBB040;" d="M15.875-0.002c-4.146,0-8.256,1.72-11.207,4.67c-2.95,2.951-4.67,7.061-4.67,11.207h15.877V-0.002z    "/>
	</g>
</g>
</svg>
