<?xml version="1.0" standalone="no"?>
<!DOCTYPE svg PUBLIC "-//W3C//DTD SVG 1.1//EN" "http://www.w3.org/Graphics/SVG/1.1/DTD/svg11.dtd">
<!-- Generator: Adobe Illustrator 16.0.0, SVG Export Plug-In . SVG Version: 6.00 Build 0)  -->
<svg xmlns="http://www.w3.org/2000/svg" xmlns:xlink="http://www.w3.org/1999/xlink" version="1.1" id="Layer_1" x="0px" y="0px" width="500px" height="499.998px" viewBox="0 0 500 499.998" style="enable-background:new 0 0 500 499.998;" xml:space="preserve">
<g id="change1">
	<polygon style="fill:#0E4D8D;" points="250,15.634 289.591,0 322.421,27.104 364.914,24.472 387.753,60.398 428.973,71.023    439.605,112.245 475.528,135.089 472.891,177.577 500,210.41 484.358,250 500,289.588 472.891,322.423 475.528,364.917    439.605,387.75 428.973,428.98 387.753,439.602 364.914,475.526 322.421,472.893 289.591,499.998 250,484.366 210.404,499.998    177.571,472.893 135.09,475.526 112.244,439.602 71.022,428.98 60.397,387.75 24.472,364.917 27.109,322.423 0,289.588 15.634,250    0,210.41 27.109,177.577 24.472,135.089 60.397,112.245 71.022,71.023 112.244,60.398 135.09,24.472 177.571,27.104 210.404,0  "/>
</g>
</svg>
