<?xml version="1.0" standalone="no"?>
<!DOCTYPE svg PUBLIC "-//W3C//DTD SVG 1.1//EN" "http://www.w3.org/Graphics/SVG/1.1/DTD/svg11.dtd">
<!-- Generator: Adobe Illustrator 16.0.0, SVG Export Plug-In . SVG Version: 6.00 Build 0)  -->
<svg xmlns="http://www.w3.org/2000/svg" xmlns:xlink="http://www.w3.org/1999/xlink" version="1.1" id="Layer_1" x="0px" y="0px" width="343.961px" height="346.514px" viewBox="0 0 343.961 346.514" style="enable-background:new 0 0 343.961 346.514;" xml:space="preserve">
<g id="change1">
	<path style="fill:#C6302C;" d="M340.533,270.229c-0.027,0.577-0.069,1.067-0.118,1.51L340.533,270.229z M339.748,280.245   l0.667-8.509C340.026,275.295,339.115,275.031,339.748,280.245z M337.102,273.352l0.969,0.521l-0.021-5.867L337.102,273.352z    M4.31,92.651l-0.773-0.992C3.623,94.277,3.961,93.741,4.31,92.651z M46.522,0.61l-1.749,0.835   c0.394,0.062,0.799,0.125,1.201,0.188C46.405,1.392,46.624,1.062,46.522,0.61z M0.77,128.269c0.727-1.217,1.267-2.608,1.701-4.054   C1.879,123.667,1.128,125.133,0.77,128.269z M74.717,1.061c1.901,0.144,3.553,0.266,5.32,0.396   C78.851,1.103,76.966,0.876,74.717,1.061z M86.609,346.205c0.342,0.081,0.774,0.168,1.33,0.26L86.609,346.205z M343.818,107.961   c0.165,7.555-2.903-1.627-2.173,10.094l1.659,0.446l-2.181,7.211c1.051,23.958-0.258,44.633,1.472,65.651   c-0.371,1.257-1.181,0.717-1.632-1.963c0.066,9.501-2.694,20.675-1.021,31.521l0.684-2.942c1.44,17.434-2.009,17.687-2.62,38.276   c-0.158-4.667,1.049-15.33-0.891-16.345c-1.232,1.781-1.057,12.321-0.076,15.847l-0.885-0.663v16.28   c0.032,0.056,0.068,0.14,0.112,0.282c-0.046,0.27-0.08,0.61-0.112,0.97v4.058c0.338,6.783,0.998,18.235,0,23.538v2.602   c0,4.635-1.083,9.016-3.003,12.91c0.107-0.16,0.215-0.322,0.327-0.499c-0.21,0.438-0.457,0.856-0.72,1.267   c-2.021,3.812-4.858,7.127-8.284,9.705c2.521-1.325,4.721-3.235,4.721-3.235c-3.211,3.217-5.085,4.306-5.687,4.988   c-0.658,0.601-0.168,0.655,0.514,0.659c0.675,0,1.502-0.132,1.533,0.371c0.018,0.485-0.756,1.657-3.84,3.619   c-3.924,1.554-7.478,2.646-10.839,3.351c-1.642,0.316-3.217,0.621-4.745,0.916c-1.353,0.265-2.636,0.562-3.865,0.874   c-4.911,1.241-8.932,2.67-12.751,2.751c-15.241-0.36,5.805-2.085-3.659-3.161c-8.291-0.242-4.096,1.26-9.341,1.688l-3.694-2.468   c-9.425-0.379-0.413,2.35-5.77,1.402c-7.541,1.544,2.391,0.958,4.257,2.878c-1.786-0.544-10.035-1.48-13.541-0.502   c0.104,0.688,10.081,0.797,3.659,1.092c-23.558-1.298-29.331,1.483-50.436,1.146l1.843,1.231c-2.391-0.268-4.198-0.812-6.489-0.391   l1.261,0.819c-2.987,0.017-24.265-1.7-38.272-1.236l7.142,1.49l-12.471-1.747l1.377,2.202c-4.3-2.19-18.896-0.764-30.646-1.409   l0.081,1.379l-7.108-0.807l2.408,0.964c-7.055-0.118-15.427-2.431-23.524-1.301c5.229-0.429,6.487,1.774,6.006,2.739l-21.318-2.405   c-0.467,0.887-8.327,1.22-4.669,2.098l-7.002-1.369l0.645,1.104c-8.318,0.516-16.354,0.399-24.246,0.01   c-3.946-0.195-7.856-0.46-11.75-0.743l-3.885-0.368c-1.389-0.107-2.755-0.479-4.117-0.743c-2.713-0.625-5.352-1.529-7.859-2.671   c-10.061-4.574-17.895-12.904-22.065-22.966c-2.097-4.979-3.24-10.625-3.454-15.951c-0.245-4.022-0.646-8.099-1.247-12.245   l-0.412,0.598l2.551-19.506c-0.285-3.557-2.225-4.566-2.932-10.38c2.083,2.771,0.237-11.207,2.019-14.862   c-0.847-4.583-1.379,0.114-2.199,1.367c-2.004-18.717,1.393-33.595-0.056-54.036c2.829,20.361,2.136,20.442,3.291,34.425   c1.185-16.48-0.897-19.292-0.271-36.965l-0.938,8.271c-3.064-9.165,1.695-27.099-1.761-29.819   c0.511-10.581,3.931-19.646,3.328-32.534l-3.013,5.499l-0.044-11.74l2.071-0.161c0.114-3.795-0.28-5.732-0.791-6.197   c2.354-8.037,1.04-19.262,2.861-30.304l-1.022-1.263c0.271-0.841,0.559-2.008,0.739-2.291c-1.8-2.193-1.147-11.025-2.802-11.492   c-0.4,3.557-1.339,11.773-0.233,11.128c-2.04,8.974-1.145-11.027-1.166-16.904c0.988,6.37,1.233-1.85,1.636-5.412   c-0.275-0.568-0.411,0.612-0.825,1.195C0.515,57.848,5.743,53.972,2.13,46.558l1.925-1.919c0,0-0.353-2.18-0.705-4.358   l-0.131-0.824c-0.027-0.369-0.057-0.733-0.084-1.086c-0.045-0.71-0.089-1.373-0.126-1.94c-0.092-1.143-0.04-1.91-0.04-1.91   c1.981-0.329,2.551-4.374,4.123-8.295c1.404-3.973,3.844-7.632,5.796-7.358c1.843-2.56,2.733-3.729,2.949-4.219   c0.195-0.508-0.313-0.343-1.002,0.036c-1.385,0.742-3.244,2.591-1.688,0.809c3.418-5.198,10.92-10.13,18.085-11.828   c7.097-1.973,13.671-1.039,14.74-2.021c8.053,1.319,16.804,0.473,23.579,1.233l0.479-1.651c3.553,0.398,7.724,1.213,11.194,0.923   c-0.021-0.249-0.48-0.479-1.19-0.682c13.245,0.992,23.939,1.032,35.278,1.115c-0.646-1.104-0.685-1.793-7.145-2.186   c10.448-1.553,27.684,2.108,43.508,1.499l-1.172-0.822l8.837,1.351c-1.788-0.548-0.606-1.1-0.674-1.789   c14.662-0.324,32.603-0.268,40.928,2.659c-0.513-0.776,6.626-1.784-1.011-2.945c15.426,2.217,35.069,1.717,52.069,2.309   l-0.265,0.128l7.093,0.807l0.544-0.282l-4.996-0.567c6.832,0.281,13.271,0.768,18.646,1.761c1.101-0.557,2.794-2.075,6.848-2.646   c0.13,2.067,19.862-1.86,28.238,0.452c1.11-0.557-3.583-0.406-0.693-1.105c6.371-0.079,14.632,1.896,21.211,6.565   c6.671,4.613,12.199,11.69,14.639,19.991c1.268,4.034,1.73,8.667,1.636,12.546c-0.042,3.438-0.084,6.869-0.126,10.271   c-0.018,6.805,0.13,13.479,0.532,19.78c-3.996,1.99-2.954,23.098-4.838,36.671c2.357,3.406,1.217-7.683,2.993-11.311   c-0.523,7.632,2.905,1.586,1.021,15.192C343.55,110.318,343.825,110.835,343.818,107.961z M3.691,125.993l0.093-3.201   C3.561,123.936,3.586,124.98,3.691,125.993l-0.148,5.048C4.835,130.493,3.965,128.589,3.691,125.993z M338.158,145.854l1.781-3.644   l-1.663-3.406L338.158,145.854z M336.902,63.154l0.709,5.846l0.122-4.102L336.902,63.154z M336.155,160.23   c1.053-17.302,1.812-34.831,1.046-51.299c-0.549,2.918-0.861,4.312-1.046,4.745v7.48c0.316-0.77,0.645-1.471,0.942-2.226   c0.677,4.854-0.303,8.372-0.942,11.871V160.23z M329.773,20.342c0.403,0.777,0.772,1.592,1.123,2.422   c3.311,4.741,5.259,10.504,5.259,16.726v1.604c0.321-2.019,0.592-4.048,0.546-6.106C336.752,28.463,333.647,22.406,329.773,20.342z    M297.135,7.711c0.481,0.345,1.497,0.561,2.654,0.703c0.636,0.384,0.831,0.836,0.468,1.194c-1.08,0.186-1.992,0.374-2.393,0.581   c1.372-0.046,2.039-0.278,2.393-0.581c1.517-0.26,3.598-0.492,5.995-0.691c2.433-0.181,5.372-0.172,8.236,0.489   c5.85,1.073,11.247,4.617,14.145,7.713c1.675,0.956,0.92-0.717-0.797-2.993c-1.771-2.171-4.709-4.673-6.195-5.625   c0.973,3.715-1.621,1.96-5.874,0.151c-2.153-0.854-4.816-1.803-7.491-2.021c-2.682-0.319-4.751-0.226-6.56,0.233   c1.773,0.531,6.557,0.382,7.936,1.351c-2.354,0.301-6.773,0.592-9.861,0.199C299.177,8.013,298.181,7.703,297.135,7.711z    M269.9,10.237h12.945c-0.899-0.215-1.779-0.437-2.617-0.674C278.189,9.573,271.986,9.595,269.9,10.237z M211.006,2.089l3.89,0.805   c-0.858,0.722-5.2,1.534,3.237,0.688l-3.237-0.688C215.29,2.522,214.841,2.169,211.006,2.089z M212.4,4.982   c-2.987-0.682-14.176-0.918-15.292,0.328C195.4,5.457,207.687,5.135,212.4,4.982z M192.252,10.237h0.322   c-0.797-0.485,2.228-1.089-3.416-1.726C188.482,9.228,190.049,9.823,192.252,10.237z M162.689,8.258   c0.028,0.113,0.038,0.229,0.018,0.348C162.805,8.49,162.794,8.374,162.689,8.258z M127.797,5.005   c7.227,2.188,7.873,3.285,17.34,4.354l2.226-1.804c-3.486,0.285-2.226,1.804-8.751,0.72C139.724,7.032,137.167,4.01,127.797,5.005z    M119.548,4.07c6.396,2.659,7.342-0.002,11.903-0.975l3.855-0.322c-1.578-0.046-2.838,0.094-3.855,0.322L119.548,4.07z    M12.451,79.339c0.815,0.89,1.352,0.797,1.866,1.136v-8.514C13.979,74.637,13.41,77.132,12.451,79.339z M8.517,211.116   c3.305-1.985,0.31,9.355,0.183,13.508c0.535-4.748,3.688-11.394,1.993-20.688l-0.799,7.072L9.747,209.3L8.517,211.116z    M6.092,150.804c0.146,1.744,0.015,2.918-0.257,5.312c2.892-1.374-0.985-6.41,0.505-13.536c-1.381,0.118-1.623,8.305-2.581,10.748   C4.048,156.838,5.27,152.045,6.092,150.804z M4.949,294.137c2.407-4.48-0.077-6.677,0.921-12.189   c0.124-0.452,0.222-0.93,0.275-1.381c-0.137,0.515-0.192,0.929-0.275,1.381C5.021,285.099,2.887,288.635,4.949,294.137z    M9.647,295.05l0.15,4.613c-0.712-5.777-2.182,7.253-2.899-1.548c-0.146-1.751-0.485-0.263-0.72,2.184   c-0.296,2.042-0.263,6.911,0.57,9.349c0.48-0.521,0.143-3.292,0.33-5.521c0.032-1.188,0.149-1.946,0.323-2.314   c0.17-0.387,0.404-0.375,0.751,0.322c-0.062-0.211,0.458,4.08,0.458,4.08c-0.198-1.567-0.128-2.606,0.053-3.383   c0.211-0.659,0.521-1.119,0.795-1.647C10.007,300.127,10.418,298.794,9.647,295.05z M11.749,116.527   c0.555-4.111,2.646-3.669,1.491-10.81c-0.542,1.796,0.156,4.698-0.392,6.478C11.535,111.814,11.784,112.858,11.749,116.527   c-0.119,0.899-0.19,1.93-0.11,3.406C11.719,118.569,11.74,117.485,11.749,116.527z M14.318,139.991v-5.9   c-0.148,2.723-0.544,4.983-1.506,5.686C13.491,140.837,13.977,140.778,14.318,139.991z M13.98,235.474l0.338-0.373v-2.374   C14.197,233.645,14.083,234.561,13.98,235.474z M86.181,332.074h-9.808c2.544,0.359,4.205,1.025,3.421,1.359   C82.872,332.573,85.844,332.797,86.181,332.074z M189.626,339.48c-3.518-0.401-4.142-0.812-9.363,0.314   C183.813,340.193,188.495,340.036,189.626,339.48z M200.986,342.472c-5.279-0.257-3.738-3.161-12.456-1.747   C195.056,341.112,194.044,343.741,200.986,342.472z M291.772,332.074h-6.095c0.11,0.188,0.376,0.382,1.013,0.572l3.511,0.399   C292.02,332.72,292.321,332.378,291.772,332.074z M336.694,237.578c-0.104,0.921-0.303,1.444-0.539,1.833v5.45   C336.302,242.425,336.434,239.875,336.694,237.578z M337.837,209.347c-0.874,0.045-1.325,1.218-1.683,2.076v22.688   c0.243-4.098,0.374-8.767,0.754-13.62l0.178,10.625C339.28,226.815,337.024,213.481,337.837,209.347z M340.031,168.646   c-1.375,0.103-1.354,5.965-2.034,8.917c-0.829-1.661,2.452-9.561,1.048-15.343c-1.912,4.885-2.693,17.814-2.659,26.619   c-0.074-0.146-0.15-0.271-0.229-0.376v5.383c0.742-2.041,1.581-4.878,2.275-11.018l0.697,2.878   C339.387,180.404,341.58,176.181,340.031,168.646z M250.957,2.495l-0.299,0.148c0.832,0.028,1.598,0.057,2.376,0.084L250.957,2.495   z"/>
</g>
</svg>
