<?xml version="1.0" standalone="no"?>
<!DOCTYPE svg PUBLIC "-//W3C//DTD SVG 1.1//EN" "http://www.w3.org/Graphics/SVG/1.1/DTD/svg11.dtd">
<!-- Generator: Adobe Illustrator 16.0.0, SVG Export Plug-In . SVG Version: 6.00 Build 0)  -->
<svg xmlns="http://www.w3.org/2000/svg" xmlns:xlink="http://www.w3.org/1999/xlink" version="1.1" id="Layer_1" x="0px" y="0px" width="500px" height="499.88px" viewBox="-53.219 -53.233 500 499.88" style="enable-background:new -53.219 -53.233 500 499.88;" xml:space="preserve">
<g id="change1">
	<path style="fill:#F4BC33;" d="M439.193,216.07c4.415-2.561,7.44-7.297,7.583-12.744c0.142-5.48-2.67-10.358-6.94-13.135   c4.127-2.989,6.655-8.01,6.23-13.457c-0.465-5.446-3.741-10.002-8.295-12.317c3.807-3.417,5.764-8.649,4.77-14.06   c-1.032-5.377-4.77-9.576-9.542-11.356c3.416-3.811,4.809-9.256,3.24-14.489c-1.604-5.27-5.768-9.007-10.715-10.288   c2.989-4.166,3.811-9.718,1.673-14.773c-0.035,0-0.035,0-0.035,0c-2.136-5.019-6.658-8.331-11.714-9.078   c2.493-4.415,2.705-10.038,0.073-14.844c-2.669-4.772-7.547-7.548-12.641-7.762c2.031-4.663,1.64-10.289-1.494-14.773   c-3.166-4.45-8.328-6.692-13.418-6.373c1.528-4.877,0.569-10.395-3.062-14.524c-3.595-4.128-8.936-5.802-13.989-4.949   c1.032-4.983-0.536-10.394-4.56-14.097c-4.021-3.738-9.538-4.841-14.45-3.417c0.497-5.089-1.639-10.287-6.019-13.564   c-4.415-3.274-10.001-3.808-14.736-1.885c-0.073-5.126-2.705-10.075-7.44-12.851c-4.733-2.777-10.325-2.706-14.843-0.321   c-0.609-5.055-3.776-9.682-8.758-11.96c-5.02-2.279-10.576-1.602-14.81,1.28c-1.141-4.983-4.809-9.253-10.007-11   c-5.196-1.708-10.679-0.462-14.594,2.884c-1.671-4.841-5.732-8.723-11.106-9.86c-5.341-1.139-10.681,0.676-14.171,4.378   c-2.202-4.593-6.653-8.01-12.101-8.58c-5.447-0.569-10.537,1.816-13.635,5.875c-2.67-4.344-7.44-7.262-12.923-7.262   c-0.107,0-0.213,0-0.321,0c-0.143,0-0.248,0-0.391,0c-5.482,0-10.253,2.918-12.922,7.297c-3.098-4.058-8.188-6.444-13.636-5.839   c-5.445,0.605-9.895,3.988-12.067,8.615c-3.523-3.666-8.829-5.518-14.204-4.342c-5.339,1.176-9.397,5.055-11.072,9.861   c-3.914-3.274-9.396-4.521-14.594-2.812c-5.197,1.743-8.829,6.053-9.969,11.036c-4.236-2.884-9.789-3.525-14.808-1.247   c-4.949,2.279-8.117,6.905-8.723,11.997c-4.521-2.385-10.109-2.456-14.845,0.357c-4.7,2.776-7.333,7.724-7.405,12.85   c-4.734-1.922-10.323-1.353-14.702,1.923c-4.379,3.274-6.479,8.472-6.016,13.563c-4.914-1.389-10.396-0.25-14.418,3.489   c-4.022,3.702-5.554,9.113-4.522,14.131c-5.055-0.89-10.394,0.819-13.989,4.949c-3.597,4.13-4.558,9.683-3.026,14.525   c-5.091-0.322-10.217,1.957-13.386,6.444c-3.132,4.484-3.489,10.109-1.458,14.773c-5.091,0.213-9.969,3.026-12.602,7.796   c-2.67,4.806-2.422,10.432,0.106,14.881c-5.055,0.747-9.61,4.021-11.712,9.112c-2.136,5.056-1.318,10.61,1.708,14.738   c-4.947,1.28-9.113,5.054-10.714,10.323c0.035,0,0.035,0,0.035,0c-1.602,5.233-0.178,10.68,3.274,14.489   c-4.805,1.815-8.507,5.98-9.504,11.391c-0.035,0-0.035,0-0.035,0c-0.998,5.377,0.996,10.645,4.807,14.026   c-4.559,2.315-7.798,6.87-8.225,12.354c-0.427,5.445,2.1,10.466,6.23,13.455c-4.273,2.778-7.049,7.655-6.872,13.103   c0.144,5.48,3.169,10.216,7.62,12.743c-3.988,3.205-6.23,8.365-5.483,13.777c0.71,5.447,4.271,9.789,8.935,11.855   c-3.595,3.629-5.304,8.969-3.986,14.31c1.316,5.305,5.303,9.291,10.181,10.821c-3.203,3.988-4.308,9.505-2.456,14.632   c1.885,5.163,6.264,8.685,11.248,9.683c-2.741,4.307-3.238,9.898-0.818,14.845c2.387,4.912,7.12,7.939,12.211,8.401   c-2.279,4.594-2.171,10.18,0.748,14.846c2.918,4.627,7.938,7.12,13.029,7.047c-1.779,4.807-1.103,10.358,2.314,14.667   c3.382,4.307,8.65,6.268,13.706,5.659c-1.247,4.951,0,10.398,3.845,14.313c3.844,3.915,9.254,5.338,14.24,4.164   c-0.712,5.056,1.104,10.36,5.34,13.847c0,0.039,0,0.039,0,0.039c4.2,3.486,9.753,4.307,14.594,2.632   c-0.177,5.092,2.208,10.181,6.766,13.206c4.593,3.027,10.181,3.241,14.809,1.071c0.355,5.09,3.274,9.895,8.152,12.422   c4.842,2.526,10.465,2.137,14.844-0.499c0.89,5.021,4.308,9.472,9.399,11.463c5.126,1.994,10.644,1.031,14.701-2.064   c1.426,4.878,5.305,8.973,10.608,10.395c5.27,1.425,10.68-0.139,14.382-3.631c1.959,4.7,6.229,8.33,11.642,9.187   c5.41,0.89,10.607-1.245,13.92-5.162c2.421,4.484,7.083,7.653,12.53,7.938c0.285,0,0.534,0.035,0.782,0.035   c5.163,0,9.789-2.636,12.496-6.622c2.92,4.202,7.866,6.834,13.314,6.549c5.482-0.32,10.109-3.452,12.529-7.972   c3.313,3.915,8.51,6.015,13.92,5.125c5.414-0.854,9.683-4.521,11.604-9.22c3.737,3.489,9.115,5.02,14.416,3.594   c5.307-1.459,9.15-5.516,10.576-10.428c4.058,3.097,9.574,4.056,14.703,2.028c5.089-1.994,8.506-6.479,9.36-11.499   c4.382,2.636,10.003,2.989,14.845,0.463c4.878-2.527,7.759-7.332,8.119-12.426c4.626,2.174,10.216,1.922,14.77-1.101   c0-0.036,0-0.036,0-0.036c4.594-3.027,6.942-8.116,6.767-13.206c4.805,1.638,10.358,0.816,14.594-2.671   c4.204-3.525,6.017-8.831,5.27-13.885c4.986,1.142,10.43-0.284,14.24-4.199c3.81-3.919,5.089-9.4,3.81-14.347   c5.057,0.604,10.321-1.353,13.705-5.695c3.383-4.308,4.057-9.897,2.242-14.667c5.127,0.069,10.146-2.457,13.029-7.084   c2.921-4.663,2.99-10.288,0.712-14.846c5.09-0.496,9.792-3.525,12.21-8.437c0-0.036,0-0.036,0-0.036   c2.385-4.911,1.853-10.503-0.89-14.81c4.984-1.031,9.362-4.558,11.215-9.716c1.851-5.163,0.747-10.681-2.458-14.634   c4.878-1.567,8.831-5.554,10.11-10.856c1.316-5.339-0.39-10.68-4.022-14.312c4.665-2.066,8.187-6.442,8.899-11.855   c0.034,0,0.034,0,0.034,0C445.424,224.404,443.146,219.275,439.193,216.07z"/>
</g>
</svg>
