<?xml version="1.0" encoding="utf-8"?>
<!-- Generator: Adobe Illustrator 21.0.0, SVG Export Plug-In . SVG Version: 6.00 Build 0)  -->
<svg version="1.1" id="Circle-Shapedotline2-D6" xmlns="http://www.w3.org/2000/svg" xmlns:xlink="http://www.w3.org/1999/xlink"
	 x="0px" y="0px" viewBox="0 0 499.9 499.9" enable-background="new 0 0 499.9 499.9" xml:space="preserve">
<g id="change1">
	<circle fill="#5659C9" cx="249.9" cy="249.9" r="242.5"/>
</g>
<g id="change2">
	<path fill="#FFFFFF" d="M245.1,465.6C245,465.6,245,465.6,245.1,465.6h-0.6c-2.1-0.1-3.8-1.8-3.8-4c0-2.1,1.8-3.8,3.9-3.8h0.1h0.5
		c2.1,0.1,3.8,1.8,3.8,4C248.9,463.9,247.2,465.6,245.1,465.6z M264.4,465.1c-2,0-3.7-1.6-3.9-3.6c-0.1-2.1,1.5-4,3.6-4.1h0.4
		c2.1-0.2,4,1.5,4.1,3.6c0.2,2.1-1.5,4-3.6,4.1h-0.5C264.6,465.1,264.5,465.1,264.4,465.1z M225.3,464.2c-0.1,0-0.3,0-0.4,0
		l-0.5-0.1c-2.1-0.3-3.6-2.2-3.4-4.3c0.3-2.1,2.2-3.6,4.3-3.4l0.5,0.1c2.1,0.2,3.6,2.2,3.4,4.3C228.9,462.7,227.2,464.2,225.3,464.2
		z M284.2,462.9c-1.9,0-3.5-1.3-3.8-3.2c-0.3-2.1,1.1-4.1,3.2-4.4l0.5-0.1c2.1-0.3,4.1,1.1,4.4,3.2c0.3,2.1-1.1,4.1-3.2,4.4
		l-0.5,0.1C284.6,462.8,284.4,462.9,284.2,462.9z M205.7,461c-0.3,0-0.5,0-0.8-0.1l-0.5-0.1c-2.1-0.5-3.4-2.5-2.9-4.6
		c0.5-2.1,2.5-3.4,4.6-2.9l0.4,0.1c2.1,0.4,3.4,2.5,3,4.6C209.1,459.7,207.5,461,205.7,461z M303.6,458.8c-1.7,0-3.3-1.2-3.7-2.9
		c-0.5-2.1,0.7-4.2,2.8-4.7l0.4-0.1c2.1-0.5,4.2,0.7,4.7,2.7c0.5,2.1-0.7,4.2-2.7,4.7l-0.5,0.1C304.2,458.7,303.9,458.8,303.6,458.8
		z M186.5,456c-0.4,0-0.8-0.1-1.1-0.2l-0.4-0.1c-2-0.6-3.2-2.8-2.6-4.9c0.6-2,2.8-3.2,4.8-2.5l0.4,0.1c2,0.6,3.2,2.8,2.5,4.8
		C189.7,454.9,188.1,456,186.5,456z M322.5,452.8c-1.6,0-3.1-1-3.6-2.5c-0.7-2,0.3-4.2,2.3-5l0.4-0.2c2-0.7,4.2,0.3,5,2.3
		c0.7,2-0.3,4.2-2.3,5l-0.5,0.2C323.4,452.8,323,452.8,322.5,452.8z M167.8,449.1c-0.5,0-1-0.1-1.5-0.3l-0.5-0.2
		c-2-0.8-2.9-3.1-2-5.1c0.8-2,3.1-2.9,5.1-2l0.4,0.2c2,0.8,2.9,3.1,2.1,5.1C170.8,448.2,169.3,449.1,167.8,449.1z M340.8,445.2
		c-1.4,0-2.8-0.8-3.5-2.2c-0.9-1.9-0.1-4.2,1.8-5.2l0.4-0.2c1.9-0.9,4.2-0.1,5.2,1.8c0.9,1.9,0.1,4.2-1.8,5.2l-0.4,0.2
		C342,445,341.4,445.2,340.8,445.2z M149.9,440.6c-0.6,0-1.2-0.1-1.8-0.5l-0.4-0.2c-1.9-1-2.6-3.4-1.6-5.2c1-1.9,3.4-2.6,5.2-1.6
		l0.4,0.2c1.9,1,2.6,3.4,1.6,5.2C152.6,439.8,151.3,440.6,149.9,440.6z M358.4,435.8c-1.3,0-2.6-0.7-3.3-1.9
		c-1.1-1.8-0.5-4.2,1.3-5.3l0.4-0.3c1.8-1.1,4.2-0.5,5.3,1.3c1.1,1.8,0.5,4.2-1.3,5.3l-0.4,0.2C359.7,435.6,359,435.8,358.4,435.8z
		 M132.9,430.4c-0.7,0-1.5-0.2-2.1-0.6l-0.4-0.3c-1.8-1.2-2.3-3.6-1.1-5.4s3.6-2.3,5.4-1.1l0.4,0.3c1.8,1.2,2.3,3.6,1.1,5.4
		C135.3,429.8,134.1,430.4,132.9,430.4z M374.9,424.8c-1.2,0-2.4-0.5-3.1-1.6c-1.3-1.7-0.9-4.1,0.8-5.4l0.4-0.3
		c1.7-1.3,4.1-0.9,5.4,0.8s0.9,4.1-0.8,5.4l-0.4,0.3C376.5,424.6,375.7,424.8,374.9,424.8z M116.8,418.6c-0.9,0-1.7-0.3-2.4-0.9
		l-0.4-0.3c-1.7-1.3-1.9-3.8-0.6-5.4c1.3-1.7,3.8-1.9,5.4-0.6l0.4,0.3c1.7,1.3,1.9,3.8,0.6,5.4C119.1,418.1,118,418.6,116.8,418.6z
		 M390.4,412.4c-1.1,0-2.1-0.4-2.9-1.3c-1.4-1.6-1.3-4,0.3-5.4l0.3-0.3c1.6-1.4,4-1.3,5.5,0.3c1.4,1.6,1.3,4-0.3,5.5l-0.3,0.3
		C392.2,412,391.3,412.4,390.4,412.4z M102,405.4c-1,0-1.9-0.4-2.7-1.1l-0.4-0.3c-1.5-1.5-1.5-3.9,0-5.5c1.5-1.5,3.9-1.5,5.5,0
		l0.3,0.3c1.5,1.5,1.6,3.9,0.1,5.5C104,405,103,405.4,102,405.4z M404.6,398.5c-0.9,0-1.9-0.3-2.6-1c-1.6-1.5-1.7-3.9-0.2-5.5
		l0.3-0.4c1.5-1.6,3.9-1.6,5.5-0.2c1.6,1.5,1.6,3.9,0.2,5.5l-0.3,0.3C406.7,398.1,405.6,398.5,404.6,398.5z M88.5,390.9
		c-1.1,0-2.2-0.5-3-1.4l-0.3-0.4c-1.4-1.6-1.2-4.1,0.4-5.5c1.6-1.4,4.1-1.2,5.5,0.4l0.3,0.4c1.4,1.6,1.2,4.1-0.4,5.5
		C90.2,390.6,89.3,390.9,88.5,390.9z M417.5,383.4c-0.8,0-1.6-0.3-2.4-0.8c-1.7-1.3-2-3.7-0.7-5.4l0.3-0.4c1.3-1.7,3.7-2,5.4-0.7
		c1.7,1.3,2,3.7,0.7,5.4l-0.3,0.4C419.8,382.9,418.6,383.4,417.5,383.4z M76.3,375.2c-1.2,0-2.4-0.6-3.2-1.6l-0.3-0.4
		c-1.2-1.8-0.8-4.2,1-5.4c1.8-1.2,4.2-0.8,5.4,1l0.3,0.4c1.2,1.8,0.8,4.2-0.9,5.4C77.9,375,77.1,375.2,76.3,375.2z M428.9,367.2
		c-0.7,0-1.4-0.2-2.1-0.6c-1.8-1.1-2.4-3.5-1.2-5.3l0.3-0.4c1.1-1.8,3.5-2.3,5.3-1.2c1.8,1.1,2.3,3.5,1.2,5.3l-0.3,0.4
		C431.4,366.5,430.2,367.2,428.9,367.2z M65.7,358.4c-1.3,0-2.7-0.7-3.4-2l-0.2-0.4c-1.1-1.9-0.4-4.2,1.4-5.3
		c1.9-1.1,4.2-0.4,5.3,1.4l0.2,0.4c1.1,1.9,0.4,4.2-1.5,5.3C67,358.3,66.3,358.4,65.7,358.4z M438.7,349.9c-0.6,0-1.2-0.1-1.8-0.4
		c-1.9-1-2.7-3.3-1.7-5.2l0.2-0.4c1-1.9,3.3-2.7,5.2-1.7c1.9,1,2.7,3.3,1.7,5.2l-0.2,0.4C441.5,349.2,440.1,349.9,438.7,349.9z
		 M56.7,340.7c-1.5,0-2.9-0.8-3.5-2.3L53,338c-0.9-1.9,0-4.2,1.9-5.1c1.9-0.9,4.2,0,5.1,1.9l0.2,0.4c0.9,1.9,0,4.2-1.9,5.1
		C57.8,340.6,57.2,340.7,56.7,340.7z M446.9,331.8c-0.5,0-1-0.1-1.4-0.3c-2-0.8-3-3-2.2-5l0.2-0.4c0.8-2,3-3,5-2.2s3,3,2.2,5
		l-0.2,0.4C449.9,330.9,448.5,331.8,446.9,331.8z M49.4,322.3c-1.6,0-3.1-1-3.7-2.6l-0.2-0.5c-0.7-2,0.4-4.2,2.4-4.9
		c2-0.7,4.2,0.4,4.9,2.4l0.2,0.4c0.7,2-0.4,4.2-2.4,4.9C50.2,322.2,49.8,322.3,49.4,322.3z M453.4,313c-0.4,0-0.7-0.1-1.1-0.2
		c-2.1-0.6-3.2-2.7-2.6-4.8l0.1-0.5c0.6-2.1,2.8-3.2,4.8-2.6c2.1,0.6,3.2,2.7,2.6,4.8l-0.1,0.5C456.6,311.9,455,313,453.4,313z
		 M43.9,303.2c-1.7,0-3.3-1.2-3.8-3l-0.1-0.5c-0.5-2.1,0.8-4.2,2.9-4.6c2.1-0.5,4.2,0.8,4.6,2.9l0.1,0.5c0.5,2.1-0.8,4.2-2.9,4.7
		C44.5,303.2,44.2,303.2,43.9,303.2z M458,293.7c-0.2,0-0.5,0-0.7-0.1c-2.1-0.4-3.5-2.4-3.1-4.5l0.1-0.4c0.4-2.1,2.4-3.5,4.5-3.1
		c2.1,0.4,3.5,2.4,3.1,4.5l-0.1,0.5C461.4,292.5,459.8,293.7,458,293.7z M40.2,283.7c-1.9,0-3.6-1.4-3.8-3.3l-0.1-0.5
		c-0.3-2.1,1.2-4.1,3.3-4.4s4.1,1.2,4.4,3.3l0.1,0.5c0.3,2.1-1.2,4.1-3.3,4.4C40.5,283.7,40.4,283.7,40.2,283.7z M460.8,274.1
		c-0.1,0-0.2,0-0.4,0c-2.1-0.2-3.7-2.1-3.5-4.2v-0.5c0.2-2.1,2.1-3.7,4.2-3.5s3.7,2.1,3.5,4.2v0.5
		C464.5,272.6,462.8,274.1,460.8,274.1z M38.3,263.9c-2.1,0-3.8-1.6-3.9-3.7v-0.5c-0.1-2.1,1.5-3.9,3.7-4c2.1-0.1,3.9,1.5,4,3.7v0.5
		c0.1,2.1-1.5,3.9-3.7,4C38.4,263.9,38.4,263.9,38.3,263.9z M461.8,253.8C461.7,253.8,461.7,253.8,461.8,253.8c-2.2,0-4-1.3-4-3.4
		V250v-0.1v-0.5c0-2.1,1.8-3.9,3.9-3.9s3.9,1.7,3.9,3.9v0.4v0.1v0.5C465.5,252.5,463.9,253.8,461.8,253.8z M38.3,244.1
		c-0.1,0-0.1,0-0.2,0c-2.1-0.1-3.8-1.9-3.7-4v-0.5c0.1-2.1,1.9-3.8,4-3.7s3.8,1.9,3.7,4v0.5C42.1,242.5,40.4,244.1,38.3,244.1z
		 M460.8,234c-2,0-3.7-1.5-3.8-3.5V230c-0.2-2.1,1.4-4,3.5-4.2s4,1.4,4.2,3.5v0.5c0.2,2.1-1.4,4-3.5,4.2
		C461.1,233.9,460.9,234,460.8,234z M40.1,224.3c-0.2,0-0.4,0-0.5,0c-2.1-0.3-3.6-2.2-3.3-4.4l0.1-0.5c0.3-2.1,2.3-3.6,4.4-3.3
		c2.1,0.3,3.6,2.3,3.3,4.4L44,221C43.7,222.9,42,224.3,40.1,224.3z M458.1,214.3c-1.8,0-3.4-1.3-3.8-3.2l-0.1-0.5
		c-0.4-2.1,1-4.1,3.1-4.5s4.1,1,4.5,3.1l0.1,0.5c0.4,2.1-1,4.1-3.1,4.5C458.6,214.3,458.3,214.3,458.1,214.3z M43.8,204.8
		c-0.3,0-0.6,0-0.9-0.1c-2.1-0.5-3.4-2.6-2.9-4.7l0.1-0.5c0.5-2.1,2.6-3.4,4.7-2.9c2.1,0.5,3.4,2.6,2.9,4.7l-0.1,0.5
		C47.1,203.6,45.5,204.8,43.8,204.8z M453.5,195c-1.7,0-3.2-1.1-3.7-2.8l-0.1-0.4c-0.6-2.1,0.6-4.2,2.6-4.8s4.2,0.6,4.8,2.6l0.1,0.5
		c0.6,2.1-0.6,4.2-2.7,4.8C454.2,194.9,453.8,195,453.5,195z M49.2,185.7c-0.4,0-0.8-0.1-1.2-0.2c-2-0.7-3.1-2.9-2.4-4.9l0.1-0.4
		c0.7-2,2.9-3.1,4.9-2.5c2,0.7,3.1,2.8,2.4,4.9l-0.2,0.4C52.4,184.7,50.9,185.7,49.2,185.7z M447.1,176.2c-1.5,0-3-0.9-3.6-2.5
		l-0.2-0.4c-0.8-2,0.2-4.2,2.2-5s4.2,0.2,5,2.2l0.2,0.5c0.8,2-0.2,4.2-2.2,5C448,176.1,447.6,176.2,447.1,176.2z M56.5,167.2
		c-0.5,0-1.1-0.1-1.6-0.3c-1.9-0.9-2.8-3.2-1.9-5.1l0.2-0.5c0.9-1.9,3.2-2.8,5.1-1.9c1.9,0.9,2.8,3.2,1.9,5.1l-0.2,0.4
		C59.4,166.4,58,167.2,56.5,167.2z M439,158.1c-1.4,0-2.8-0.8-3.5-2.1l-0.2-0.4c-1-1.9-0.2-4.2,1.7-5.2c1.9-1,4.2-0.2,5.2,1.7
		l0.2,0.4c1,1.9,0.2,4.2-1.7,5.2C440.1,157.9,439.5,158.1,439,158.1z M65.5,149.5c-0.6,0-1.3-0.2-1.9-0.5c-1.9-1.1-2.5-3.4-1.5-5.3
		l0.2-0.4c1.1-1.9,3.4-2.5,5.3-1.4s2.5,3.4,1.4,5.3l-0.2,0.4C68.1,148.8,66.8,149.5,65.5,149.5z M429.2,140.8
		c-1.3,0-2.5-0.6-3.3-1.8l-0.2-0.4c-1.1-1.8-0.6-4.2,1.2-5.3c1.8-1.1,4.2-0.6,5.3,1.2l0.3,0.4c1.1,1.8,0.6,4.2-1.2,5.3
		C430.6,140.6,429.9,140.8,429.2,140.8z M76.1,132.7c-0.8,0-1.5-0.2-2.2-0.7c-1.8-1.2-2.2-3.6-1-5.4l0.3-0.4
		c1.2-1.7,3.6-2.2,5.4-0.9c1.7,1.2,2.2,3.6,0.9,5.4l-0.3,0.4C78.5,132.1,77.3,132.7,76.1,132.7z M417.8,124.5
		c-1.2,0-2.3-0.5-3.1-1.5l-0.3-0.4c-1.3-1.7-1-4.1,0.7-5.4s4.1-1,5.4,0.7l0.3,0.4c1.3,1.7,1,4.1-0.7,5.4
		C419.4,124.3,418.6,124.5,417.8,124.5z M88.2,117c-0.9,0-1.8-0.3-2.5-0.9c-1.6-1.4-1.8-3.8-0.5-5.4l0.3-0.4
		c1.4-1.6,3.8-1.8,5.5-0.4c1.6,1.4,1.8,3.8,0.4,5.5l-0.3,0.3C90.4,116.5,89.3,117,88.2,117z M404.9,109.4c-1,0-2.1-0.4-2.8-1.2
		l-0.3-0.3c-1.5-1.6-1.4-4,0.2-5.5s4-1.4,5.5,0.2l0.3,0.4c1.5,1.6,1.4,4-0.2,5.5C406.8,109.1,405.9,109.4,404.9,109.4z M101.7,102.4
		c-1,0-2-0.4-2.8-1.2c-1.5-1.5-1.5-4,0.1-5.5l0.4-0.3c1.5-1.5,4-1.5,5.5,0.1c1.5,1.5,1.5,4-0.1,5.5l-0.3,0.3
		C103.6,102.1,102.7,102.4,101.7,102.4z M390.7,95.5c-0.9,0-1.8-0.3-2.6-1l-0.3-0.3c-1.6-1.4-1.7-3.9-0.3-5.5
		c1.4-1.6,3.9-1.7,5.5-0.3l0.4,0.3c1.6,1.4,1.7,3.9,0.3,5.5C392.8,95.1,391.8,95.5,390.7,95.5z M116.5,89.2c-1.1,0-2.2-0.5-3-1.4
		c-1.3-1.7-1.1-4.1,0.6-5.4l0.4-0.3c1.7-1.3,4.1-1.1,5.4,0.6s1.1,4.1-0.6,5.4l-0.4,0.3C118.2,88.9,117.4,89.2,116.5,89.2z M375.3,83
		c-0.8,0-1.6-0.2-2.3-0.8l-0.4-0.3c-1.7-1.3-2.1-3.7-0.8-5.4c1.3-1.7,3.7-2.1,5.4-0.8l0.4,0.3c1.7,1.3,2.1,3.7,0.8,5.4
		C377.7,82.5,376.5,83,375.3,83z M132.5,77.4c-1.2,0-2.5-0.6-3.2-1.7c-1.2-1.8-0.7-4.2,1.1-5.4l0.4-0.3c1.8-1.2,4.2-0.7,5.4,1.1
		c1.2,1.8,0.7,4.2-1.1,5.4l-0.4,0.3C134,77.2,133.2,77.4,132.5,77.4z M358.8,72c-0.7,0-1.4-0.2-2-0.5l-0.4-0.2
		c-1.8-1.1-2.4-3.5-1.3-5.3s3.5-2.4,5.3-1.3l0.4,0.2c1.8,1.1,2.4,3.5,1.3,5.3C361.4,71.3,360.1,72,358.8,72z M149.5,67.2
		c-1.4,0-2.7-0.7-3.4-2c-1-1.9-0.3-4.2,1.6-5.2l0.4-0.2c1.9-1,4.2-0.3,5.2,1.6c1,1.9,0.3,4.2-1.6,5.2l-0.4,0.2
		C150.8,67.1,150.1,67.2,149.5,67.2z M341.3,62.6c-0.6,0-1.1-0.1-1.7-0.4l-0.4-0.2c-1.9-0.9-2.7-3.2-1.8-5.2
		c0.9-1.9,3.2-2.7,5.2-1.8l0.4,0.2c1.9,0.9,2.7,3.2,1.8,5.2C344.1,61.8,342.7,62.6,341.3,62.6z M167.4,58.6c-1.5,0-2.9-0.9-3.6-2.4
		c-0.8-2,0.1-4.2,2.1-5.1l0.4-0.2c2-0.8,4.2,0.1,5.1,2.1c0.8,2-0.1,4.2-2.1,5.1l-0.4,0.2C168.4,58.5,167.9,58.6,167.4,58.6z
		 M323,54.9c-0.4,0-0.9-0.1-1.3-0.2l-0.5-0.2c-2-0.7-3-3-2.3-5s3-3,5-2.3l0.4,0.2c2,0.7,3,3,2.3,5C326,53.9,324.6,54.9,323,54.9z
		 M186,51.8c-1.6,0-3.2-1.1-3.7-2.7c-0.6-2,0.5-4.2,2.5-4.9l0.5-0.1c2-0.6,4.2,0.5,4.9,2.5c0.6,2-0.5,4.2-2.5,4.9l-0.5,0.1
		C186.8,51.7,186.4,51.8,186,51.8z M304,48.9c-0.3,0-0.7,0-1-0.1l-0.4-0.1c-2.1-0.5-3.3-2.7-2.8-4.7c0.5-2.1,2.7-3.3,4.7-2.8
		l0.5,0.1c2.1,0.5,3.3,2.7,2.7,4.7C307.3,47.8,305.8,48.9,304,48.9z M205.2,46.7c-1.8,0-3.4-1.2-3.8-3.1c-0.5-2.1,0.9-4.1,3-4.6
		l0.4-0.1c2.1-0.4,4.2,0.9,4.6,3c0.4,2.1-0.9,4.1-2.9,4.6l-0.5,0.1C205.7,46.6,205.5,46.7,205.2,46.7z M284.6,44.8
		c-0.2,0-0.4,0-0.6-0.1l-0.5-0.1c-2.1-0.3-3.5-2.3-3.2-4.4c0.3-2.1,2.3-3.5,4.4-3.2l0.5,0.1c2.1,0.3,3.5,2.3,3.2,4.4
		C288.1,43.4,286.5,44.8,284.6,44.8z M224.8,43.4c-1.9,0-3.6-1.5-3.8-3.4c-0.2-2.1,1.3-4,3.4-4.3l0.5-0.1c2.1-0.2,4,1.3,4.3,3.4
		c0.2,2.1-1.3,4-3.4,4.3l-0.5,0.1C225.1,43.4,224.9,43.4,224.8,43.4z M264.9,42.5c-0.1,0-0.2,0-0.3,0h-0.5c-2.1-0.1-3.7-2-3.6-4.1
		s2-3.7,4.1-3.6h0.5c2.1,0.1,3.7,2,3.6,4.1C268.6,40.9,266.9,42.5,264.9,42.5z M244.6,42.1c-2.1,0-3.8-1.7-3.9-3.8
		c-0.1-2.1,1.6-3.9,3.8-4h0.5c2.1-0.1,3.9,1.6,4,3.8c0.1,2.1-1.6,3.9-3.8,4H244.6C244.7,42.1,244.6,42.1,244.6,42.1z"/>
</g>
<g id="change3">
	<path fill="#A1A8FF" d="M249.9,499.9c-66.8,0-129.5-26-176.7-73.2C26,379.5,0,316.7,0,249.9S26,120.4,73.2,73.2S183.2,0,249.9,0
		c66.8,0,129.5,26,176.8,73.2c47.2,47.2,73.2,110,73.2,176.7c0,66.8-26,129.5-73.2,176.8C379.5,473.9,316.7,499.9,249.9,499.9z
		 M249.9,15c-62.8,0-121.8,24.4-166.1,68.8C39.4,128.2,15,187.2,15,249.9c0,62.8,24.4,121.8,68.8,166.1
		c44.4,44.4,103.4,68.8,166.1,68.8c62.8,0,121.8-24.4,166.1-68.8c44.4-44.4,68.8-103.4,68.8-166.1c0-62.8-24.4-121.8-68.8-166.1
		C371.7,39.4,312.7,15,249.9,15z"/>
</g>
</svg>
