<?xml version="1.0" standalone="no"?>
<!DOCTYPE svg PUBLIC "-//W3C//DTD SVG 1.1//EN" "http://www.w3.org/Graphics/SVG/1.1/DTD/svg11.dtd">
<!-- Generator: Adobe Illustrator 16.0.0, SVG Export Plug-In . SVG Version: 6.00 Build 0)  -->
<svg xmlns="http://www.w3.org/2000/svg" xmlns:xlink="http://www.w3.org/1999/xlink" version="1.1" id="Layer_1" x="0px" y="0px" width="500px" height="500px" viewBox="0 0 500 500" style="enable-background:new 0 0 500 500;" xml:space="preserve">
<g id="change2">
	<circle style="opacity:0.4;fill:#D2DF64;enable-background:new    ;" cx="250" cy="250" r="250"/>
</g>
<g id="change1">
	<circle style="fill:#54A4A6;" cx="250" cy="250" r="236.896"/>
</g>
<g id="change3">
	<path style="fill:#FFFFFF;" d="M240.928,462.977c-2.555-0.131-4.553-2.293-4.421-4.849l0,0c0.098-2.556,2.259-4.551,4.812-4.42l0,0   c2.556,0.096,4.554,2.258,4.455,4.812l0,0c-0.1,2.488-2.162,4.455-4.649,4.455l0,0C241.06,462.977,240.993,462.977,240.928,462.977   z M254.943,458.521c-0.131-2.589,1.869-4.749,4.421-4.851l0,0c2.557-0.131,4.719,1.868,4.85,4.423l0,0   c0.101,2.555-1.866,4.715-4.42,4.848l0,0c-0.067,0-0.166,0-0.229,0l0,0C257.105,462.941,255.044,461.01,254.943,458.521z    M222.162,461.339c-2.557-0.329-4.324-2.654-3.996-5.175l0,0c0.328-2.555,2.652-4.355,5.207-4.029l0,0   c2.521,0.361,4.323,2.688,3.996,5.207l0,0c-0.294,2.36-2.293,4.062-4.585,4.062l0,0   C222.554,461.403,222.358,461.371,222.162,461.339z M273.352,457.277c-0.36-2.558,1.406-4.881,3.963-5.207v-0.035   c2.557-0.326,4.881,1.475,5.238,3.998l0,0c0.329,2.553-1.472,4.877-3.994,5.239l0,0c0,0,0,0,0-0.032l0,0   c-0.229,0.032-0.427,0.062-0.621,0.062l0,0C275.645,461.304,273.645,459.603,273.352,457.277z M203.592,458.096   c-2.488-0.556-4.095-3.048-3.536-5.536l0,0c0.557-2.52,3.045-4.094,5.566-3.535l0,0c2.489,0.557,4.062,3.048,3.506,5.534l0,0   c-0.459,2.162-2.392,3.636-4.521,3.636l0,0C204.28,458.192,203.953,458.16,203.592,458.096z M291.559,454.428   c-0.557-2.486,0.985-4.979,3.506-5.536l0,0c2.487-0.589,4.979,0.985,5.535,3.476l0,0c0.559,2.52-0.982,5.008-3.504,5.565l0,0l0,0   l0,0c-0.326,0.064-0.688,0.134-1.019,0.134l0,0C293.951,458.064,292.051,456.59,291.559,454.428z M185.384,453.184   c-2.425-0.785-3.8-3.374-3.015-5.83l0,0c0.786-2.425,3.374-3.8,5.83-3.013l0,0c2.456,0.786,3.8,3.374,3.013,5.83l0,0   c-0.621,1.964-2.456,3.24-4.421,3.24l0,0C186.333,453.411,185.874,453.347,185.384,453.184z M309.44,449.973   c-0.784-2.456,0.556-5.044,3.013-5.86l0,0c2.425-0.752,5.043,0.557,5.83,3.013l0,0c0.787,2.456-0.558,5.044-2.979,5.83l0,0   c-0.488,0.163-0.981,0.229-1.438,0.229l0,0C311.896,453.184,310.096,451.939,309.44,449.973z M167.697,446.697c0,0,0,0,0-0.032l0,0   c-2.356-0.981-3.471-3.7-2.487-6.057l0,0c0.98-2.36,3.7-3.476,6.059-2.492l0,0c2.392,0.983,3.504,3.701,2.488,6.093l0,0   c-0.72,1.769-2.456,2.818-4.29,2.818l0,0C168.877,447.027,168.255,446.928,167.697,446.697z M326.864,443.947   c-0.98-2.357,0.101-5.108,2.487-6.095h-0.031c2.394-0.98,5.11,0.101,6.093,2.456l0,0c1.015,2.36-0.099,5.11-2.456,6.095l0,0l0,0   l0,0c-0.592,0.262-1.212,0.359-1.801,0.359l0,0C329.353,446.765,327.618,445.716,326.864,443.947z M150.634,438.641   c0,0,0,0,0-0.029l0,0c-2.259-1.183-3.144-3.995-1.932-6.258l0,0c1.213-2.259,3.995-3.145,6.256-1.932l0,0   c2.292,1.18,3.145,3.994,1.964,6.255l0,0c-0.852,1.571-2.456,2.488-4.126,2.488l0,0   C152.075,439.165,151.322,439.002,150.634,438.641z M343.697,436.383c-1.209-2.261-0.357-5.079,1.898-6.288l0,0   c2.293-1.212,5.079-0.329,6.288,1.935l0,0c1.212,2.258,0.36,5.074-1.896,6.287l0,0c-0.725,0.356-1.441,0.522-2.197,0.522l0,0   C346.12,438.839,344.516,437.953,343.697,436.383z M134.358,429.11c-2.129-1.407-2.752-4.289-1.375-6.451l0,0   c1.407-2.13,4.288-2.751,6.418-1.375l0,0c2.161,1.407,2.783,4.289,1.376,6.419l0,0c-0.885,1.375-2.358,2.13-3.896,2.13l0,0   C136.027,429.833,135.144,429.603,134.358,429.11z M359.777,427.377c-1.407-2.162-0.783-5.044,1.344-6.419l0,0   c2.162-1.411,5.044-0.819,6.451,1.34l0,0c1.375,2.162,0.786,5.012-1.376,6.419l0,0l0,0l0,0c-0.783,0.524-1.669,0.755-2.521,0.755   l0,0C362.138,429.472,360.663,428.717,359.777,427.377z M118.998,418.172c-1.999-1.57-2.358-4.487-0.786-6.518l0,0   c1.571-2.028,4.487-2.392,6.518-0.819l0,0c1.998,1.574,2.357,4.487,0.785,6.519l0,0c-0.916,1.182-2.26,1.803-3.668,1.803l0,0   C120.864,419.154,119.85,418.827,118.998,418.172z M375.008,416.96c-1.573-2.031-1.244-4.913,0.787-6.515l0,0   c2.029-1.574,4.943-1.248,6.515,0.781l0,0c1.573,2.031,1.213,4.948-0.782,6.521l0,0c-0.854,0.655-1.868,0.979-2.851,0.979l0,0   C377.301,418.729,375.926,418.14,375.008,416.96z M104.652,405.923L104.652,405.923L104.652,405.923   c-1.865-1.731-1.964-4.683-0.229-6.551l0,0c1.769-1.896,4.684-1.995,6.584-0.229l0,0c1.866,1.733,1.964,4.685,0.229,6.552l0,0   c-0.918,0.98-2.161,1.475-3.405,1.475l0,0C106.717,407.17,105.57,406.776,104.652,405.923z M389.253,405.271   c-1.733-1.868-1.639-4.817,0.229-6.588l0,0c1.867-1.731,4.78-1.637,6.55,0.23l0,0c1.77,1.868,1.67,4.812-0.193,6.55l0,0   c-0.918,0.854-2.065,1.244-3.181,1.244l0,0C391.414,406.709,390.171,406.22,389.253,405.271z M91.455,392.496L91.455,392.496   L91.455,392.496c-1.703-1.932-1.54-4.846,0.358-6.582l0,0c1.9-1.704,4.849-1.538,6.55,0.357l0,0   c1.703,1.898,1.572,4.85-0.358,6.551l0,0c-0.885,0.787-1.997,1.212-3.078,1.212l0,0C93.648,394.034,92.371,393.51,91.455,392.496z    M402.451,392.333c-1.933-1.705-2.095-4.618-0.395-6.55l0,0c1.705-1.9,4.649-2.062,6.552-0.361l0,0   c1.932,1.704,2.095,4.65,0.395,6.551l0,0c-0.95,1.018-2.194,1.537-3.472,1.537l0,0C404.415,393.51,403.303,393.15,402.451,392.333z    M79.501,377.922c-1.571-2.031-1.146-4.943,0.917-6.482l0,0c2.029-1.541,4.944-1.146,6.483,0.914l0,0   c1.54,2.066,1.114,4.947-0.917,6.486l0,0c-0.852,0.623-1.834,0.949-2.782,0.949l0,0C81.793,379.789,80.386,379.134,79.501,377.922z    M414.439,378.314c-2.062-1.539-2.488-4.42-0.95-6.482l0,0c1.539-2.066,4.421-2.491,6.482-0.95l0,0   c2.065,1.539,2.491,4.452,0.95,6.517l0,0c-0.915,1.211-2.325,1.836-3.731,1.836l0,0   C416.24,379.232,415.259,378.938,414.439,378.314z M68.824,362.365c-1.343-2.162-0.688-5.045,1.506-6.387l0,0   c2.162-1.343,5.044-0.688,6.387,1.474l0,0c1.343,2.194,0.688,5.044-1.475,6.42l0,0c-0.785,0.46-1.638,0.688-2.456,0.688l0,0   C71.248,364.561,69.708,363.775,68.824,362.365z M425.147,363.314c-2.194-1.344-2.883-4.227-1.538-6.389l0,0   c1.375-2.191,4.226-2.881,6.387-1.537l0,0c2.194,1.375,2.883,4.226,1.538,6.42l0,0c0,0,0,0,0-0.033l0,0   c-0.883,1.438-2.424,2.228-3.963,2.228l0,0C426.753,364.003,425.902,363.775,425.147,363.314z M59.621,345.926   c-1.179-2.261-0.262-5.074,2.03-6.224l0,0c2.293-1.146,5.077-0.229,6.257,2.062l0,0c1.146,2.295,0.229,5.076-2.063,6.227l0,0   c-0.688,0.324-1.377,0.488-2.097,0.488l0,0C62.045,348.479,60.408,347.562,59.621,345.926z M434.483,347.4   c-2.293-1.148-3.211-3.963-2.062-6.226l0,0c1.146-2.293,3.928-3.241,6.221-2.095l0,0c2.294,1.146,3.212,3.962,2.062,6.252l0,0   c-0.818,1.604-2.456,2.557-4.157,2.557l0,0C435.858,347.891,435.139,347.727,434.483,347.4z M51.86,328.764L51.86,328.764   L51.86,328.764c-0.949-2.392,0.229-5.105,2.587-6.023l0,0c2.392-0.949,5.107,0.193,6.058,2.588l0,0   c0.95,2.389-0.229,5.074-2.619,6.023l0,0c-0.557,0.23-1.146,0.326-1.703,0.326l0,0C54.348,331.678,52.58,330.564,51.86,328.764z    M442.377,330.729c-2.394-0.949-3.573-3.633-2.623-6.024l0,0c0.918-2.39,3.637-3.569,6.028-2.619l0,0   c2.39,0.95,3.533,3.638,2.619,6.024l0,0l0,0l0,0c-0.724,1.802-2.491,2.949-4.324,2.949l0,0   C443.489,331.059,442.933,330.926,442.377,330.729z M45.67,310.945c-0.721-2.455,0.688-5.043,3.144-5.762l0,0   c2.456-0.752,5.043,0.653,5.764,3.109l0,0c0.721,2.456-0.654,5.044-3.11,5.766l0,0c-0.459,0.131-0.884,0.196-1.343,0.196l0,0   C48.126,314.257,46.292,312.979,45.67,310.945z M448.761,313.402c-2.457-0.721-3.896-3.307-3.146-5.764l0,0   c0.724-2.455,3.274-3.863,5.768-3.146l0,0c2.456,0.72,3.862,3.309,3.145,5.764l0,0l0,0l0,0c-0.623,2.031-2.456,3.343-4.455,3.343   l0,0C449.614,313.602,449.186,313.534,448.761,313.402z M41.117,292.641c-0.523-2.488,1.114-4.943,3.635-5.47l0,0   c2.49-0.489,4.945,1.112,5.471,3.636l0,0c0.491,2.521-1.115,4.979-3.637,5.471l0,0c-0.326,0.062-0.622,0.1-0.95,0.1l0,0   C43.508,296.375,41.542,294.869,41.117,292.641z M453.576,295.62c-2.522-0.524-4.161-2.979-3.669-5.47l0,0   c0.489-2.521,2.945-4.157,5.471-3.637l0,0c2.521,0.491,4.156,2.948,3.633,5.438l0,0c-0.425,2.229-2.356,3.734-4.551,3.734l0,0   C454.164,295.688,453.87,295.652,453.576,295.62z M38.17,274.038c-0.262-2.556,1.572-4.849,4.094-5.144l0,0   c2.554-0.264,4.847,1.572,5.141,4.094v0.035c0.297,2.521-1.537,4.812-4.094,5.106l0,0c-0.163,0.032-0.359,0.032-0.522,0.032l0,0   C40.463,278.164,38.432,276.396,38.17,274.038z M456.784,277.443c-2.557-0.262-4.39-2.555-4.126-5.109l0,0   c0.294-2.553,2.587-4.389,5.106-4.126l0,0c2.557,0.294,4.393,2.587,4.129,5.144l0,0c-0.262,2.356-2.261,4.125-4.617,4.125l0,0   C457.114,277.477,456.948,277.477,456.784,277.443z M36.892,255.238c-0.032-2.555,1.965-4.682,4.553-4.747l0,0   c2.555-0.065,4.685,1.965,4.75,4.521l0,0c0.065,2.553-1.965,4.684-4.553,4.746l0,0c-0.034,0-0.064,0-0.099,0l0,0   C39.021,259.758,36.958,257.764,36.892,255.238z M458.358,259.07c-2.557-0.032-4.586-2.162-4.521-4.715l0,0   c0.031-2.588,2.158-4.62,4.715-4.553l0,0c2.587,0.031,4.618,2.16,4.551,4.717l0,0c-0.062,2.555-2.127,4.551-4.649,4.551l0,0   C458.423,259.07,458.391,259.07,458.358,259.07z M41.608,241.32c-2.554-0.163-4.484-2.357-4.354-4.913l0,0   c0.163-2.554,2.391-4.52,4.945-4.354l0,0c2.554,0.163,4.486,2.391,4.355,4.944l0,0c-0.165,2.457-2.228,4.323-4.65,4.323l0,0   C41.805,241.32,41.707,241.32,41.608,241.32z M453.41,236.31c-0.164-2.554,1.77-4.781,4.323-4.944l0,0   c2.556-0.165,4.781,1.767,4.944,4.322l0,0c0.166,2.554-1.771,4.781-4.32,4.944l0,0c-0.101,0-0.198,0-0.329,0l0,0   C455.607,240.632,453.576,238.766,453.41,236.31z M43.18,222.947c-2.554-0.396-4.289-2.75-3.896-5.272l0,0   c0.394-2.556,2.752-4.29,5.273-3.896l0,0c2.554,0.393,4.289,2.75,3.897,5.271l0,0c-0.361,2.294-2.325,3.963-4.585,3.963l0,0   C43.639,223.013,43.41,222.98,43.18,222.947z M451.447,218.395L451.447,218.395c-0.395-2.554,1.343-4.912,3.862-5.305l0,0   c2.522-0.393,4.912,1.342,5.307,3.864l0,0c0.395,2.555-1.343,4.912-3.896,5.306l0,0c-0.229,0.033-0.46,0.065-0.724,0.065l0,0   C453.772,222.325,451.773,220.688,451.447,218.395z M46.357,204.771c-2.487-0.59-4.027-3.112-3.405-5.601l0,0   c0.59-2.489,3.111-4.027,5.6-3.405l0,0c2.49,0.622,4.028,3.11,3.406,5.6l0,0c-0.524,2.129-2.422,3.537-4.52,3.537l0,0   C47.079,204.902,46.717,204.869,46.357,204.771z M447.878,200.71L447.878,200.71c-0.624-2.488,0.883-5.011,3.374-5.601l0,0   c2.487-0.622,5.009,0.885,5.632,3.374l0,0c0.621,2.488-0.887,5.011-3.374,5.633l0,0c-0.395,0.099-0.752,0.131-1.113,0.131l0,0   C450.302,204.247,448.402,202.838,447.878,200.71z M51.139,186.987c-2.456-0.851-3.734-3.472-2.915-5.928l0,0c0,0,0,0,0,0.033l0,0   c0.854-2.456,3.472-3.733,5.896-2.915l0,0c2.423,0.819,3.731,3.472,2.882,5.896l0,0c-0.656,1.934-2.457,3.144-4.389,3.144l0,0   C52.121,187.216,51.63,187.152,51.139,186.987z M442.767,183.45c-0.852-2.423,0.43-5.076,2.851-5.928l0,0   c2.425-0.819,5.079,0.459,5.931,2.883l0,0c0.818,2.423-0.46,5.076-2.883,5.895l0,0c-0.491,0.196-1.017,0.263-1.541,0.263l0,0   C445.223,186.562,443.423,185.35,442.767,183.45z M57.46,169.662c-2.325-1.047-3.375-3.798-2.359-6.156l0,0   c1.049-2.325,3.8-3.373,6.157-2.325l0,0c2.325,1.016,3.374,3.766,2.359,6.125l0,0c-0.787,1.703-2.49,2.75-4.258,2.75l0,0   C58.736,170.056,58.083,169.925,57.46,169.662z M436.12,166.684c-1.05-2.359,0-5.078,2.325-6.125l0,0   c2.355-1.049,5.106,0,6.155,2.325l0,0l0,0l0,0c1.05,2.325,0,5.075-2.356,6.125l0,0c-0.592,0.294-1.247,0.425-1.898,0.425l0,0   C438.576,169.434,436.904,168.418,436.12,166.684z M65.32,152.959c-2.228-1.244-3.046-4.094-1.801-6.319l0,0   c1.244-2.228,4.094-3.047,6.32-1.803l0,0c2.259,1.246,3.046,4.062,1.802,6.322l0,0c-0.853,1.539-2.424,2.391-4.062,2.391l0,0   C66.827,153.55,66.04,153.353,65.32,152.959z M428.029,150.568L428.029,150.568c-1.244-2.226-0.458-5.043,1.77-6.319l0,0   c2.261-1.246,5.079-0.459,6.322,1.801l0,0l0,0l0,0c1.244,2.228,0.457,5.077-1.77,6.321l0,0c-0.724,0.394-1.507,0.588-2.262,0.588   l0,0C430.452,152.959,428.883,152.108,428.029,150.568z M74.654,137.011c-2.128-1.408-2.687-4.323-1.245-6.419l0,0   c1.441-2.13,4.323-2.687,6.452-1.245l0,0c2.128,1.44,2.686,4.324,1.244,6.452l0,0c-0.917,1.31-2.356,2.031-3.863,2.031l0,0   C76.357,137.83,75.439,137.567,74.654,137.011z M418.532,135.242c-1.441-2.128-0.886-5.012,1.212-6.452l0,0   c2.127-1.44,5.01-0.885,6.451,1.244l0,0c1.441,2.097,0.918,4.979-1.212,6.452l0,0c-0.787,0.524-1.701,0.785-2.619,0.785l0,0   C420.891,137.271,419.45,136.584,418.532,135.242z M85.33,121.978c-1.997-1.604-2.292-4.551-0.654-6.517l0,0l0,0l0,0   c1.604-1.997,4.52-2.293,6.517-0.688l0,0c1.997,1.638,2.293,4.551,0.656,6.55l0,0c-0.918,1.113-2.26,1.703-3.604,1.703l0,0   C87.229,123.026,86.183,122.699,85.33,121.978z M407.727,120.833c-1.638-1.999-1.344-4.913,0.652-6.551l0,0   c1.999-1.605,4.911-1.343,6.52,0.654l0,0c1.637,1.966,1.343,4.913-0.621,6.519l0,0c-0.887,0.72-1.936,1.079-2.948,1.079l0,0   C409.984,122.534,408.642,121.945,407.727,120.833z M97.284,107.961c-1.833-1.802-1.866-4.749-0.099-6.583l0,0c0,0,0,0,0.031,0l0,0   c1.769-1.833,4.718-1.866,6.551-0.098l0,0c1.834,1.801,1.867,4.716,0.1,6.582l0,0c-0.918,0.918-2.129,1.408-3.342,1.408l0,0   C99.349,109.271,98.201,108.812,97.284,107.961z M395.706,107.404L395.706,107.404c-1.804-1.834-1.77-4.781,0.063-6.583l0,0   c1.832-1.801,4.781-1.735,6.551,0.065l0,0l0,0l0,0c1.801,1.834,1.77,4.781-0.062,6.584l0,0c-0.888,0.884-2.065,1.311-3.243,1.311   l0,0C397.802,108.78,396.621,108.321,395.706,107.404z M110.449,94.992c-1.67-1.934-1.474-4.847,0.492-6.55l0,0   c1.933-1.672,4.848-1.441,6.517,0.49l0,0c1.672,1.966,1.475,4.881-0.459,6.551l0,0c-0.885,0.753-1.963,1.146-3.044,1.146l0,0   C112.646,96.63,111.367,96.073,110.449,94.992z M382.539,95.058c-1.964-1.638-2.193-4.585-0.523-6.55l0,0   c1.669-1.934,4.618-2.162,6.551-0.491l0,0c1.932,1.67,2.161,4.585,0.491,6.55l0,0c-0.918,1.08-2.192,1.638-3.505,1.638l0,0   C384.472,96.204,383.391,95.811,382.539,95.058z M124.664,83.268c-1.476-2.063-1.017-4.979,1.081-6.485l0,0l0,0l0,0   c2.062-1.475,4.977-1.016,6.483,1.081l0,0c1.474,2.062,1.015,4.979-1.081,6.485v-0.034c-0.817,0.59-1.769,0.885-2.719,0.885l0,0   C126.989,85.199,125.58,84.545,124.664,83.268z M368.326,83.955L368.326,83.955c-2.096-1.507-2.557-4.389-1.081-6.484l0,0   c1.475-2.063,4.389-2.554,6.485-1.082l0,0l0,0l0,0c2.062,1.506,2.553,4.388,1.077,6.485l0,0c-0.914,1.277-2.356,1.965-3.796,1.965   l0,0C370.096,84.839,369.146,84.545,368.326,83.955z M139.893,72.852c-1.31-2.226-0.59-5.076,1.604-6.385l0,0   c2.228-1.31,5.043-0.557,6.354,1.637l0,0c1.311,2.226,0.589,5.044-1.604,6.354l0,0c-0.753,0.459-1.572,0.654-2.358,0.654l0,0   C142.283,75.112,140.743,74.293,139.893,72.852z M353.195,74.13c-2.192-1.31-2.948-4.126-1.638-6.354l0,0   c1.274-2.194,4.125-2.947,6.354-1.638l0,0c2.194,1.278,2.945,4.16,1.639,6.354l0,0c-0.854,1.475-2.425,2.293-3.998,2.293l0,0   C354.734,74.785,353.949,74.555,353.195,74.13z M155.94,63.78c-1.112-2.292-0.132-5.076,2.193-6.189l0,0   c2.325-1.114,5.078-0.131,6.189,2.194l0,0c1.113,2.325,0.133,5.076-2.192,6.19l0,0c-0.622,0.326-1.312,0.458-1.998,0.458l0,0   C158.396,66.433,156.727,65.451,155.94,63.78z M337.278,65.68c-2.325-1.081-3.309-3.863-2.228-6.156l0,0   c1.112-2.325,3.862-3.309,6.188-2.228l0,0c2.325,1.115,3.312,3.865,2.196,6.19l0,0c-0.785,1.671-2.455,2.653-4.191,2.653l0,0   C338.589,66.139,337.901,66.008,337.278,65.68z M172.741,56.214c-0.886-2.422,0.326-5.076,2.752-5.992l0,0   c2.391-0.884,5.074,0.326,5.96,2.717l0,0c0.884,2.424-0.328,5.077-2.72,5.994l0,0c-0.557,0.197-1.081,0.296-1.638,0.296l0,0   C175.23,59.229,173.462,58.083,172.741,56.214z M320.641,58.705c-2.391-0.884-3.634-3.569-2.751-5.96l0,0   c0.887-2.424,3.569-3.637,5.962-2.752l0,0c2.425,0.884,3.638,3.571,2.75,5.962l0,0c-0.688,1.866-2.455,3.044-4.354,3.044l0,0   C321.722,58.999,321.164,58.901,320.641,58.705z M190.165,50.157c-0.688-2.49,0.785-5.044,3.24-5.731l0,0   c2.49-0.656,5.045,0.785,5.699,3.275l0,0c0.688,2.457-0.753,5.01-3.243,5.698l0,0c-0.393,0.099-0.817,0.165-1.212,0.165l0,0   C192.588,53.563,190.722,52.187,190.165,50.157z M303.48,53.202c-2.49-0.654-3.931-3.209-3.272-5.698l0,0   c0.688-2.456,3.207-3.931,5.694-3.243l0,0c2.457,0.655,3.931,3.209,3.274,5.699l0,0c-0.589,2.063-2.456,3.406-4.483,3.406l0,0   C304.301,53.367,303.875,53.333,303.48,53.202z M208.047,45.636c-0.459-2.521,1.212-4.913,3.766-5.37l0,0l0,0l0,0   c2.521-0.458,4.913,1.211,5.371,3.732l0,0c0.458,2.522-1.212,4.946-3.732,5.405l0,0c-0.264,0.032-0.558,0.065-0.819,0.065l0,0   C210.403,49.469,208.472,47.897,208.047,45.636z M285.895,49.273c-2.556-0.459-4.226-2.85-3.768-5.372l0,0   c0.425-2.522,2.85-4.225,5.373-3.766l0,0c2.521,0.459,4.188,2.85,3.766,5.372l0,0c-0.395,2.259-2.356,3.832-4.553,3.832l0,0   C286.419,49.338,286.156,49.305,285.895,49.273z M226.288,42.754c-0.264-2.521,1.638-4.781,4.191-5.01l0,0   c2.556-0.262,4.813,1.637,5.043,4.191l0,0c0.229,2.555-1.67,4.815-4.224,5.043l0,0c-0.131,0-0.263,0-0.395,0l0,0   C228.516,46.979,226.484,45.179,226.288,42.754z M268.014,46.914L268.014,46.914c-2.557-0.229-4.455-2.488-4.226-5.044l0,0   c0.229-2.554,2.487-4.421,5.043-4.225l0,0c0,0,0,0-0.031,0l0,0c2.587,0.23,4.452,2.49,4.257,5.043l0,0   c-0.229,2.424-2.262,4.225-4.617,4.225l0,0C268.275,46.914,268.145,46.914,268.014,46.914z M249.639,46.129   c-0.098,0-0.196,0-0.326,0l0,0c-2.556,0-4.618-2.064-4.651-4.619l0,0c0-2.587,2.063-4.65,4.651-4.65l0,0c0.099,0,0.229,0,0.359,0   l0,0c0.098,0,0.197,0,0.328,0l0,0c2.557,0,4.648,2.062,4.648,4.617l0,0c0,2.555-2.094,4.652-4.648,4.652l0,0   C249.869,46.129,249.77,46.129,249.639,46.129z"/>
</g>
</svg>
