<?xml version="1.0" standalone="no"?>
<!DOCTYPE svg PUBLIC "-//W3C//DTD SVG 1.1//EN" "http://www.w3.org/Graphics/SVG/1.1/DTD/svg11.dtd">
<!-- Generator: Adobe Illustrator 16.0.0, SVG Export Plug-In . SVG Version: 6.00 Build 0)  -->
<svg xmlns="http://www.w3.org/2000/svg" xmlns:xlink="http://www.w3.org/1999/xlink" version="1.1" id="Layer_1" x="0px" y="0px" width="499.998px" height="500px" viewBox="0 0 499.998 500" style="enable-background:new 0 0 499.998 500;" xml:space="preserve">
<g id="change1">
	<path style="fill:#753192;" d="M490.294,250.004l6.693-16.949c5.759-14.59,3.139-31.156-6.844-43.249l-11.612-14.058l1.136-18.192   c0.971-15.653-6.646-30.595-19.88-39.012l-15.391-9.785l-4.541-17.656c-3.923-15.184-15.767-27.038-30.95-30.955L391.24,55.6   l-9.774-15.385c-8.424-13.232-23.358-20.819-39.006-19.875l-18.198,1.125L310.192,9.864C298.11-0.133,281.538-2.744,266.953,3.01   l-16.954,6.693L233.046,3.01c-14.591-5.75-31.146-3.138-43.238,6.854l-14.063,11.602l-18.197-1.125   c-15.533-0.965-30.584,6.637-39.007,19.88L108.76,55.6l-17.66,4.547c-15.18,3.917-27.033,15.771-30.95,30.955l-4.552,17.656   l-15.386,9.785c-13.231,8.417-20.84,23.358-19.875,39.012l1.13,18.192L9.865,189.805c-9.992,12.093-12.613,28.659-6.854,43.249   l6.693,16.949l-6.693,16.948c-5.76,14.586-3.139,31.151,6.854,43.243l11.602,14.06l-1.13,18.191   c-0.97,15.653,6.643,30.596,19.875,39.018l15.386,9.779l4.552,17.656c3.917,15.184,15.771,27.037,30.95,30.955l17.66,4.541   l9.779,15.385c8.418,13.238,23.391,20.871,39.007,19.887l18.197-1.131l14.063,11.602c12.093,10.002,28.664,12.604,43.229,6.855   l16.964-6.699l16.959,6.699c5.12,2.018,10.478,3.008,15.804,3.008c9.856,0,19.58-3.379,27.42-9.861l14.069-11.602l18.196,1.129   c15.529,0.977,30.584-6.646,39.007-19.885l9.774-15.387l17.666-4.541c15.184-3.916,27.028-15.771,30.95-30.953l4.542-17.656   l15.39-9.781c13.232-8.422,20.845-23.362,19.88-39.017l-1.135-18.192l11.611-14.059c9.98-12.092,12.604-28.658,6.844-43.242   L490.294,250.004z"/>
</g>
</svg>
