<?xml version="1.0" encoding="utf-8"?>
<!-- Generator: Adobe Illustrator 16.0.0, SVG Export Plug-In . SVG Version: 6.00 Build 0)  -->
<!DOCTYPE svg PUBLIC "-//W3C//DTD SVG 1.1//EN" "http://www.w3.org/Graphics/SVG/1.1/DTD/svg11.dtd">
<svg version="1.1" id="Layer_1" xmlns="http://www.w3.org/2000/svg" xmlns:xlink="http://www.w3.org/1999/xlink" x="0px" y="0px"
	 width="512.975px" height="529.473px" viewBox="0 0 512.975 529.473" enable-background="new 0 0 512.975 529.473"
	 xml:space="preserve">
<g id="C">
	<g id="change1">
		<rect x="95.933" y="95.934" fill="#FEE266" width="321.771" height="338.146"/>
	</g>
</g>
<g id="W">
	<g id="change1_15_">
		<rect x="18.614" y="95.934" fill="#FEE266" width="77.319" height="338.146"/>
	</g>
	<g id="change2_16_">
		<polygon fill="#F4BC33" points="12.716,95.934 6.818,95.934 6.818,434.079 12.716,434.079 18.614,434.079 18.614,95.934 		"/>
	</g>
</g>
<g id="SW">
	<g id="change1_3_">
		<path fill="#FEE266" d="M18.614,434.079c0,42.633,34.687,77.32,77.319,77.32v-77.32H18.614z"/>
	</g>
	<g id="change2_2_">
		<path fill="#F4BC33" d="M12.716,434.079H6.818c0,49.139,39.979,89.111,89.115,89.111v-5.896
			C49.973,517.297,12.716,480.038,12.716,434.079z"/>
		<path fill="#F4BC33" d="M18.614,434.079h-5.896c0,45.959,37.257,83.219,83.218,83.219v-5.896
			C53.298,511.401,18.614,476.711,18.614,434.079z"/>
	</g>
</g>
<g id="S">
	<g id="change1_12_">
		<rect x="95.933" y="434.079" fill="#FEE266" width="321.771" height="77.32"/>
	</g>
	<g id="change2_12_">
		<polygon fill="#F4BC33" points="95.933,511.401 95.933,517.297 95.933,523.192 417.703,523.192 417.703,517.297 417.703,511.401 
					"/>
	</g>
</g>
<g id="SE">
	<g id="change1_5_">
		<path fill="#FEE266" d="M417.703,511.401c42.637,0,77.321-34.688,77.321-77.32h-77.321V511.401L417.703,511.401z"/>
	</g>
	<g id="change2_4_">
		<path fill="#F4BC33" d="M500.923,434.079h-5.896c0,42.633-34.688,77.32-77.321,77.32v5.896v5.896
			c49.142,0,89.113-39.976,89.113-89.111L500.923,434.079L500.923,434.079z"/>
	</g>
</g>
<g id="E">
	<g id="change1_9_">
		<rect x="417.703" y="95.934" fill="#FEE266" width="77.321" height="338.146"/>
	</g>
	<g id="change2_9_">
		<polygon fill="#F4BC33" points="500.923,95.934 495.027,95.934 495.027,434.079 500.923,434.079 506.819,434.079 506.819,95.934 
					"/>
	</g>
</g>
<g id="NE">
	<g id="change1_6_">
		<path fill="#FEE266" d="M495.027,95.934c0-42.634-34.688-77.318-77.321-77.318v77.318H495.027z"/>
	</g>
	<g id="change2_5_">
		<path fill="#F4BC33" d="M417.703,6.819v5.898v5.896c42.637,0,77.321,34.687,77.321,77.318h5.896h5.896
			C506.819,46.796,466.844,6.819,417.703,6.819z"/>
	</g>
</g>
<g id="NW">
	<g id="change1_2_">
		<path fill="#FEE266" d="M95.933,18.615c-42.636,0-77.319,34.687-77.319,77.318h77.319V18.615z"/>
	</g>
	<g id="change2_3_">
		<path fill="#F4BC33" d="M6.818,95.934h5.897h5.896c0-42.634,34.687-77.318,77.319-77.318v-5.896v-5.9
			C46.795,6.819,6.818,46.796,6.818,95.934z"/>
	</g>
</g>
<g id="N">
	<g id="change1_8_">
		<rect x="95.933" y="18.615" fill="#FEE266" width="321.771" height="77.318"/>
	</g>
	<g id="change2_7_">
		<polygon fill="#F4BC33" points="95.933,6.819 95.933,12.717 95.933,18.615 417.703,18.615 417.703,12.717 417.703,6.819 		"/>
	</g>
</g>
</svg>
