<?xml version="1.0" encoding="utf-8"?>
<!-- Generator: Adobe Illustrator 21.0.0, SVG Export Plug-In . SVG Version: 6.00 Build 0)  -->
<svg version="1.1" id="Solid-circle-dotline-D6" xmlns="http://www.w3.org/2000/svg" xmlns:xlink="http://www.w3.org/1999/xlink"
	 x="0px" y="0px" viewBox="0 0 499.2 499.2" enable-background="new 0 0 499.2 499.2" xml:space="preserve">
<g id="change1">
	<circle fill="#4CD4B0" cx="249.6" cy="249.6" r="249.6"/>
</g>
<g id="change2">
	<path fill="#10916C" d="M244.4566,481.196C244.3538,481.196,244.3538,481.196,244.4566,481.196h-0.6171
		c-2.2625-0.1028-4.1136-1.9539-4.0108-4.2165c0.1028-2.2625,1.8511-4.0107,4.1136-4.0107h0.1029h0.5142
		c2.2625,0.1028,4.1136,1.9539,4.0108,4.2164C248.4674,479.4478,246.6163,481.196,244.4566,481.196z M265.2303,480.6818
		c-2.1596,0-4.0107-1.7483-4.1136-3.9079c-0.1028-2.2625,1.6454-4.2165,3.9079-4.4221h0.5142
		c2.2625-0.2057,4.3193,1.5426,4.4221,3.8051c0.2057,2.2625-1.5426,4.3193-3.8051,4.4221h-0.5142
		C265.3332,480.6818,265.3332,480.6818,265.2303,480.6818z M223.1687,479.7563c-0.2057,0-0.3085,0-0.5142,0l-0.5142-0.1028
		c-2.2625-0.3085-3.9079-2.3653-3.5994-4.6278c0.3085-2.2625,2.3653-3.9079,4.6278-3.5994l0.5142,0.1028
		c2.2625,0.3085,3.9079,2.3653,3.7022,4.6278C227.0766,478.2137,225.2255,479.7563,223.1687,479.7563z M286.4154,478.3165
		c-1.954,0-3.8051-1.4398-4.1136-3.4966c-0.4113-2.2625,1.1313-4.4221,3.3937-4.7307l0.5142-0.1028
		c2.2625-0.4113,4.4221,1.1312,4.7307,3.3937c0.3085,2.2625-1.1313,4.4221-3.3937,4.7307l-0.5142,0.1028
		C286.8268,478.3165,286.6211,478.3165,286.4154,478.3165z M202.0865,476.2597c-0.3085,0-0.617,0-0.8227-0.1028l-0.5142-0.1028
		c-2.2625-0.5142-3.7023-2.6739-3.188-4.9363c0.5142-2.2625,2.6738-3.7022,4.9363-3.188l0.5142,0.1029
		c2.2625,0.5142,3.7023,2.6738,3.1881,4.9363C205.7887,474.9228,204.0405,476.2597,202.0865,476.2597z M307.292,473.8944
		c-1.8511,0-3.4966-1.2341-4.0108-3.0852c-0.5142-2.2625,0.8227-4.525,2.9824-5.0392l0.4114-0.1028
		c2.2625-0.617,4.5249,0.7199,5.0392,2.9824c0.617,2.2625-0.7199,4.525-2.9824,5.0392l-0.5142,0.1028
		C307.909,473.8944,307.6005,473.8944,307.292,473.8944z M181.5185,470.912c-0.4113,0-0.8227-0.1028-1.2341-0.2057l-0.4114-0.1028
		c-2.1597-0.7199-3.3937-3.0852-2.7767-5.2448c0.7199-2.1597,2.9823-3.3937,5.142-2.6739l0.5142,0.1028
		c2.1597,0.7199,3.3937,2.9824,2.7767,5.2448C184.9122,469.7808,183.2668,470.912,181.5185,470.912z M327.5515,467.5183
		c-1.6454,0-3.2909-1.0284-3.9079-2.7767c-0.8227-2.1596,0.3085-4.5249,2.4682-5.3477l0.5142-0.2057
		c2.1597-0.8227,4.525,0.3085,5.3477,2.4681c0.8227,2.1597-0.3085,4.525-2.4682,5.3477l-0.5142,0.2057
		C328.5798,467.4154,328.0656,467.5183,327.5515,467.5183z M161.4646,463.5075c-0.5142,0-1.0284-0.1028-1.6454-0.3085
		l-0.5142-0.2057c-2.1597-0.9255-3.0852-3.2909-2.1597-5.4505c0.9256-2.1596,3.2909-3.0852,5.4505-2.1596l0.4114,0.2057
		c2.1596,0.9255,3.0852,3.2909,2.2625,5.4505C164.6527,462.582,163.1101,463.5075,161.4646,463.5075z M347.2968,459.2911
		c-1.5426,0-2.9824-0.8227-3.7022-2.3653c-1.0284-2.0568-0.1028-4.5249,1.9539-5.5533l0.5142-0.2057
		c2.0568-1.0284,4.5249-0.1028,5.5533,1.9539s0.1028,4.525-1.9539,5.5534l-0.4113,0.2057
		C348.5308,459.1882,347.9138,459.2911,347.2968,459.2911z M142.2335,454.3548c-0.617,0-1.3369-0.2057-1.9539-0.5142l-0.4114-0.2057
		c-2.0568-1.1312-2.7767-3.5994-1.7483-5.6562c1.1313-2.0568,3.5994-2.7767,5.6562-1.7483l0.5142,0.2057
		c2.0568,1.1313,2.7767,3.5994,1.6454,5.6562C145.1131,453.532,143.6733,454.3548,142.2335,454.3548z M366.0136,449.2128
		c-1.4398,0-2.7767-0.7199-3.5994-1.954c-1.2341-1.9539-0.617-4.525,1.4398-5.6562l0.5142-0.3085
		c1.9539-1.1313,4.525-0.5142,5.6562,1.4397c1.1312,1.954,0.5142,4.525-1.4398,5.6562l-0.4113,0.2057
		C367.5562,449.007,366.8364,449.2128,366.0136,449.2128z M123.928,443.3509c-0.8227,0-1.5426-0.2057-2.2625-0.7199l-0.4114-0.3085
		c-1.954-1.2341-2.4682-3.8051-1.1312-5.759c1.2341-1.954,3.8051-2.4682,5.759-1.1313l0.4114,0.3085
		c1.954,1.2341,2.4682,3.8051,1.1312,5.7591C126.6018,442.7338,125.2649,443.3509,123.928,443.3509z M383.805,437.489
		c-1.2341,0-2.571-0.617-3.2909-1.6454c-1.3369-1.8511-1.0284-4.4221,0.8227-5.7591l0.4113-0.3085
		c1.8511-1.3369,4.4221-0.9255,5.7591,0.9256c1.3369,1.8511,0.9255,4.4221-0.9256,5.759l-0.4113,0.3085
		C385.5533,437.1805,384.7306,437.489,383.805,437.489z M106.7537,430.8044c-0.9256,0-1.8511-0.3085-2.571-0.9256l-0.4114-0.3085
		c-1.7483-1.4398-2.0568-4.0107-0.617-5.8619c1.4398-1.7483,4.0108-2.0568,5.8619-0.617l0.4114,0.3085
		c1.7483,1.4398,2.0568,4.0108,0.617,5.8619C109.119,430.2902,107.8849,430.8044,106.7537,430.8044z M400.4651,424.0169
		c-1.1313,0-2.2625-0.5142-3.0852-1.3369c-1.5426-1.7483-1.4398-4.3193,0.3085-5.8619l0.4114-0.3085
		c1.7483-1.5426,4.3193-1.3369,5.8619,0.3085c1.5426,1.7483,1.3369,4.3193-0.3085,5.8619l-0.3085,0.3085
		C402.4191,423.7084,401.3907,424.0169,400.4651,424.0169z M90.8135,416.6124c-1.0284,0-2.0568-0.4113-2.8795-1.1313l-0.4114-0.4113
		c-1.6454-1.6454-1.6454-4.2165,0-5.8619s4.2164-1.6454,5.8619,0l0.3085,0.3085c1.6454,1.6454,1.6454,4.2165,0.1028,5.8619
		C92.9731,416.2011,91.8419,416.6124,90.8135,416.6124z M415.6855,409.2079c-1.0284,0-2.0568-0.4113-2.7767-1.1313
		c-1.6454-1.5426-1.7483-4.2164-0.2057-5.8619l0.4113-0.4114c1.5426-1.6454,4.2165-1.7483,5.8619-0.2057
		s1.7483,4.2165,0.2057,5.8619l-0.3085,0.4113C417.9479,408.7966,416.8167,409.2079,415.6855,409.2079z M76.2102,401.0836
		c-1.1312,0-2.3653-0.5142-3.188-1.4398l-0.3085-0.4113c-1.4398-1.7483-1.2341-4.4221,0.5142-5.8619
		c1.7483-1.4398,4.3193-1.2341,5.8619,0.5142l0.3085,0.4114c1.4398,1.7483,1.2341,4.3193-0.5142,5.8619
		C78.1641,400.6722,77.1357,401.0836,76.2102,401.0836z M429.5689,392.9592c-0.9256,0-1.7483-0.3085-2.571-0.8227
		c-1.8511-1.4398-2.1596-4.0107-0.7199-5.8619l0.3085-0.4114c1.4398-1.8511,4.0107-2.1596,5.8619-0.7199
		s2.1597,4.0107,0.7199,5.8619l-0.3085,0.4113C432.037,392.445,430.8029,392.9592,429.5689,392.9592z M63.1495,384.1149
		c-1.3369,0-2.571-0.617-3.3937-1.7483l-0.3085-0.4113c-1.3369-1.8511-0.8227-4.4221,1.0284-5.7591
		c1.8511-1.3369,4.4221-0.8227,5.759,1.0284l0.3085,0.4113c1.3369,1.8511,0.8227,4.4221-1.0284,5.7591
		C64.8978,383.9093,63.9722,384.1149,63.1495,384.1149z M441.8068,375.5792c-0.7199,0-1.5426-0.2057-2.1596-0.6171
		c-1.9539-1.2341-2.571-3.8051-1.3369-5.759l0.3085-0.4113c1.2341-1.954,3.8051-2.4682,5.7591-1.2341
		c1.9539,1.2341,2.4682,3.8051,1.2341,5.759l-0.3085,0.4114C444.4807,374.8593,443.1437,375.5792,441.8068,375.5792z
		 M51.8371,366.1179c-1.4398,0-2.8795-0.7199-3.5994-2.0568l-0.2057-0.4114c-1.1312-1.9539-0.4114-4.525,1.5426-5.6562
		c1.954-1.1313,4.525-0.4114,5.6562,1.5426l0.2057,0.4113c1.1312,1.9539,0.4114,4.525-1.5426,5.6562
		C53.174,366.0151,52.4541,366.1179,51.8371,366.1179z M452.3994,356.9651c-0.617,0-1.2341-0.1028-1.8511-0.4113
		c-2.0568-1.0284-2.8795-3.4966-1.8511-5.5534l0.2057-0.4113c1.0284-2.0568,3.4966-2.8795,5.5533-1.8511
		c2.0568,1.0284,2.8795,3.4966,1.8511,5.5533l-0.2057,0.5142C455.3817,356.1425,453.8391,356.9651,452.3994,356.9651z
		 M42.1701,347.1953c-1.5426,0-3.0852-0.9256-3.8051-2.4682l-0.2057-0.5142c-0.9256-2.0568,0-4.525,2.0568-5.4505
		c2.0568-0.9255,4.525,0,5.4505,2.0568l0.2057,0.5142c0.9256,2.0568,0,4.525-2.0568,5.4505
		C43.3013,346.9897,42.6843,347.1953,42.1701,347.1953z M461.1408,337.6312c-0.5142,0-1.0284-0.1028-1.5426-0.3085
		c-2.1597-0.8227-3.188-3.2909-2.3653-5.3477l0.2057-0.5142c0.8227-2.1597,3.2909-3.188,5.3477-2.3653
		c2.1596,0.8227,3.188,3.2909,2.3653,5.3477l-0.2057,0.5142C464.3288,336.6028,462.7862,337.6312,461.1408,337.6312z
		 M34.2514,327.3472c-1.7483,0-3.2909-1.1313-3.9079-2.7767l-0.2057-0.5142c-0.7199-2.1596,0.4114-4.525,2.571-5.2448
		c2.1596-0.7199,4.525,0.4113,5.2448,2.571l0.2057,0.5142c0.7199,2.1596-0.4114,4.525-2.571,5.2448
		C35.177,327.2444,34.7656,327.3472,34.2514,327.3472z M468.0311,317.3717c-0.4113,0-0.8227-0.1028-1.1313-0.2057
		c-2.1596-0.6171-3.4966-2.9824-2.8795-5.142l0.1029-0.5142c0.617-2.1596,2.9823-3.4966,5.142-2.7767
		c2.1596,0.6171,3.4966,2.9824,2.7767,5.142l-0.1029,0.5142C471.5276,316.2404,469.8822,317.3717,468.0311,317.3717z
		 M28.3895,306.882c-1.8511,0-3.5994-1.2341-4.0108-3.188l-0.1028-0.5142c-0.5142-2.2625,0.8227-4.4221,3.0852-5.0392
		c2.2625-0.5142,4.4221,0.8227,5.0392,3.0852l0.1028,0.5142c0.5142,2.2625-0.8227,4.4221-3.0852,5.0392
		C29.0066,306.7792,28.698,306.882,28.3895,306.882z M473.0702,296.7008c-0.3085,0-0.5142,0-0.8227-0.1028
		c-2.2625-0.4114-3.7023-2.571-3.2909-4.8335l0.1028-0.5142c0.4113-2.2625,2.571-3.7022,4.8335-3.2909
		c2.2625,0.4113,3.7022,2.571,3.2909,4.8335l-0.1028,0.5142C476.7725,295.2611,475.0242,296.7008,473.0702,296.7008z
		 M24.3788,285.9026c-2.0568,0-3.8051-1.5426-4.1136-3.5994l-0.1028-0.5142c-0.3085-2.2625,1.2341-4.3193,3.4966-4.7307
		c2.2625-0.3085,4.3193,1.2341,4.7306,3.5994l0.1028,0.5142c0.3085,2.2625-1.2341,4.4221-3.4966,4.7307
		C24.7901,285.9026,24.5844,285.9026,24.3788,285.9026z M476.0526,275.6186c-0.1028,0-0.3085,0-0.4113,0
		c-2.2625-0.2057-3.9079-2.2625-3.7023-4.5249v-0.5142c0.2057-2.2625,2.2625-3.9079,4.525-3.7022
		c2.2625,0.2057,3.9079,2.2625,3.7023,4.525v0.5142C479.9605,273.9731,478.2122,275.6186,476.0526,275.6186z M22.4248,264.7175
		c-2.1596,0-4.0108-1.7483-4.1136-3.9079v-0.5142c-0.1028-2.2625,1.6454-4.2165,3.9079-4.3193
		c2.2625-0.1028,4.2164,1.6454,4.3193,3.9079v0.5142c0.1028,2.2625-1.6454,4.2164-3.9079,4.3193
		C22.5276,264.7175,22.4248,264.7175,22.4248,264.7175z M477.081,253.8165L477.081,253.8165c-2.3653,0-4.3193-1.4398-4.3193-3.7023
		v-0.4113v-0.1028v-0.5142c0-2.2625,1.8511-4.1136,4.2165-4.1136c2.2625,0,4.2164,1.8511,4.2164,4.1136v0.4114v0.1028v0.5142
		C481.1946,252.4796,479.3435,253.8165,477.081,253.8165z M22.322,243.3268c-0.1028,0-0.1028,0-0.2057,0
		c-2.2625-0.1028-4.1136-2.0568-4.0108-4.3193v-0.5142c0.1028-2.2625,2.0568-4.0108,4.3193-3.9079
		c2.2625,0.1028,4.0108,2.0568,3.9079,4.3193v0.5142C26.4356,241.5785,24.5844,243.3268,22.322,243.3268z M476.1554,232.4258
		c-2.1596,0-3.9079-1.6454-4.1136-3.8051v-0.5142c-0.2057-2.2625,1.4397-4.3193,3.7022-4.5249
		c2.2625-0.2057,4.3193,1.4398,4.525,3.7022v0.5142c0.2057,2.2625-1.4398,4.3193-3.8051,4.525
		C476.3611,232.4258,476.2583,232.4258,476.1554,232.4258z M24.2759,222.1417c-0.2057,0-0.4114,0-0.617,0
		c-2.2625-0.3085-3.9079-2.3653-3.4966-4.7307l0.1028-0.5142c0.3085-2.2625,2.4682-3.8051,4.7306-3.4966
		c2.2625,0.3085,3.8051,2.4682,3.4966,4.7307l-0.1028,0.5142C28.1838,220.5991,26.3327,222.1417,24.2759,222.1417z
		 M473.1731,211.3435c-1.9539,0-3.7022-1.4398-4.1136-3.3937l-0.1028-0.5142c-0.4114-2.2625,1.0284-4.4221,3.2909-4.8335
		c2.2625-0.4113,4.4221,1.0284,4.8335,3.2909l0.1028,0.5142c0.4113,2.2625-1.0284,4.4221-3.2909,4.8335
		C473.6873,211.3435,473.3788,211.3435,473.1731,211.3435z M28.2867,201.1624c-0.3085,0-0.617,0-0.9256-0.1028
		c-2.2625-0.5142-3.5994-2.7767-3.0852-5.0392l0.1028-0.5142c0.5142-2.2625,2.7767-3.5994,5.0392-3.0852
		s3.5994,2.7767,3.0852,5.0392l-0.1028,0.5142C31.7832,199.9283,30.1378,201.1624,28.2867,201.1624z M468.2368,190.5698
		c-1.8511,0-3.4966-1.2341-4.0107-2.9824l-0.1028-0.5142c-0.6171-2.1596,0.617-4.5249,2.7767-5.142
		c2.1597-0.6171,4.525,0.6171,5.142,2.7767l0.1028,0.5142c0.617,2.1597-0.6171,4.525-2.8795,5.142
		C468.9566,190.5698,468.5453,190.5698,468.2368,190.5698z M34.1486,180.6972c-0.4114,0-0.9256-0.1028-1.3369-0.2057
		c-2.1596-0.7199-3.2909-3.0852-2.571-5.2449l0.1028-0.4113c0.7199-2.1597,3.0852-3.3937,5.2448-2.6739s3.3937,3.0852,2.571,5.2449
		l-0.2057,0.5142C37.4395,179.5659,35.8969,180.6972,34.1486,180.6972z M461.3465,170.4132c-1.6454,0-3.188-1.0284-3.9079-2.6738
		l-0.2057-0.4114c-0.8227-2.1596,0.2057-4.5249,2.3653-5.3477c2.1596-0.8227,4.5249,0.2057,5.3477,2.3653l0.2057,0.5142
		c0.8227,2.1597-0.2057,4.525-2.3653,5.3477C462.3748,170.3103,461.8607,170.4132,461.3465,170.4132z M41.9644,160.849
		c-0.617,0-1.1312-0.1028-1.6454-0.4113c-2.0568-0.9256-2.9824-3.3937-2.0568-5.4505l0.2057-0.5142
		c0.9256-2.0568,3.3937-2.9824,5.4505-2.0568s2.9824,3.3937,2.0568,5.4505l-0.2057,0.4114
		C45.0496,159.9235,43.507,160.849,41.9644,160.849z M452.605,150.9764c-1.5426,0-2.9824-0.8227-3.7022-2.2625l-0.2057-0.4114
		c-1.0284-2.0568-0.2057-4.525,1.8511-5.5534s4.525-0.2057,5.5533,1.8511l0.2057,0.5142c1.0284,2.0568,0.2057,4.525-1.8511,5.5534
		C453.8391,150.8735,453.2221,150.9764,452.605,150.9764z M51.5286,141.8236c-0.7199,0-1.4398-0.2057-2.0568-0.5142
		c-1.954-1.1312-2.6738-3.7022-1.5426-5.6562l0.3085-0.5142c1.1312-1.9539,3.7022-2.6738,5.6562-1.5426
		c1.954,1.1313,2.6738,3.7023,1.5426,5.6562l-0.2057,0.4113C54.4081,141.0009,52.9683,141.8236,51.5286,141.8236z
		 M442.1154,132.4651c-1.3369,0-2.7767-0.7199-3.4966-1.9539l-0.3085-0.4114c-1.2341-1.9539-0.617-4.525,1.2341-5.759
		c1.9539-1.2341,4.525-0.617,5.7591,1.2341l0.3085,0.4114c1.2341,1.954,0.617,4.525-1.3369,5.759
		C443.5551,132.2595,442.8352,132.4651,442.1154,132.4651z M62.9438,123.7237c-0.8227,0-1.6454-0.2057-2.3653-0.7199
		c-1.8511-1.3369-2.3653-3.9079-1.0284-5.759l0.3085-0.4114c1.3369-1.8511,3.9079-2.3653,5.759-1.0284
		c1.8511,1.3369,2.3653,3.9079,1.0284,5.759l-0.3085,0.4114C65.5148,123.1067,64.1779,123.7237,62.9438,123.7237z
		 M429.8774,114.9823c-1.2341,0-2.4682-0.5142-3.2909-1.6454l-0.3085-0.4114c-1.4397-1.8511-1.1312-4.4221,0.7199-5.8619
		c1.8511-1.4398,4.4221-1.1312,5.8619,0.7199l0.3085,0.4114c1.4398,1.8511,1.0284,4.4221-0.8227,5.8619
		C431.6257,114.6738,430.8029,114.9823,429.8774,114.9823z M75.9017,106.858c-0.9256,0-1.8511-0.3085-2.6738-1.0284
		c-1.7483-1.4398-1.954-4.1136-0.5142-5.8619l0.3085-0.4114c1.4398-1.7483,4.1136-1.954,5.8619-0.4114
		c1.7483,1.4398,1.954,4.1136,0.4114,5.8619l-0.3085,0.4114C78.267,106.3438,77.1357,106.858,75.9017,106.858z M416.0968,98.7336
		c-1.1313,0-2.2625-0.4114-3.0852-1.3369l-0.3085-0.3085c-1.5426-1.6454-1.4398-4.3193,0.2057-5.8619s4.3193-1.4398,5.8619,0.2057
		l0.4113,0.4114c1.5426,1.6454,1.4398,4.3193-0.2057,5.8619C418.0508,98.3222,417.1252,98.7336,416.0968,98.7336z M90.4021,91.2263
		c-1.0284,0-2.1596-0.4114-2.9824-1.2341c-1.6454-1.6454-1.5426-4.2164,0.1028-5.8619l0.4114-0.4114
		c1.6454-1.6454,4.3193-1.5426,5.8619,0.1028c1.6454,1.6454,1.5426,4.3193-0.1028,5.8619l-0.3085,0.3085
		C92.5618,90.8149,91.5334,91.2263,90.4021,91.2263z M400.8765,83.8218c-1.0284,0-1.9539-0.3085-2.7767-1.0284l-0.4114-0.3085
		c-1.7483-1.5426-1.8511-4.1136-0.3085-5.8619c1.5426-1.7483,4.1136-1.8511,5.8619-0.3085l0.4113,0.4114
		c1.7483,1.5426,1.8511,4.1136,0.3085,5.8619C403.1389,83.3076,402.0077,83.8218,400.8765,83.8218z M106.3423,77.0343
		c-1.2341,0-2.3653-0.5142-3.188-1.5426c-1.4398-1.7483-1.1312-4.4221,0.617-5.8619l0.4114-0.3085
		c1.7483-1.4398,4.4221-1.1312,5.8619,0.617c1.4398,1.7483,1.1312,4.4221-0.617,5.8619l-0.4114,0.3085
		C108.1935,76.7258,107.2679,77.0343,106.3423,77.0343z M384.2164,70.3497c-0.8227,0-1.7483-0.3085-2.4682-0.8227l-0.4113-0.3085
		c-1.8511-1.3369-2.2625-3.9079-0.9256-5.759c1.3369-1.8511,3.9079-2.2625,5.7591-0.9256l0.4113,0.3085
		c1.8511,1.3369,2.2625,4.0108,0.9256,5.759C386.7874,69.8355,385.5533,70.3497,384.2164,70.3497z M123.5166,64.385
		c-1.3369,0-2.6738-0.617-3.4966-1.8511c-1.2341-1.954-0.7199-4.525,1.1312-5.759l0.4114-0.3085
		c1.954-1.2341,4.525-0.7199,5.759,1.1312c1.2341,1.954,0.7199,4.525-1.1312,5.759l-0.4114,0.3085
		C125.0592,64.1793,124.3394,64.385,123.5166,64.385z M366.5279,58.6259c-0.7199,0-1.4398-0.2057-2.1597-0.617l-0.4113-0.3085
		c-1.9539-1.1312-2.571-3.7022-1.4398-5.6562s3.7022-2.571,5.6562-1.4398l0.4113,0.3085c1.9539,1.1312,2.571,3.7022,1.4398,5.6562
		C369.3045,57.9061,367.9676,58.6259,366.5279,58.6259z M141.8222,53.3811c-1.4398,0-2.8795-0.8227-3.7023-2.1596
		c-1.1312-2.0568-0.3085-4.525,1.6454-5.6562l0.4114-0.2057c2.0568-1.1312,4.5249-0.3085,5.6562,1.7483
		c1.1312,2.0568,0.3085,4.525-1.7483,5.6562l-0.4114,0.2057C143.1591,53.2783,142.4392,53.3811,141.8222,53.3811z M347.7081,48.4448
		c-0.6171,0-1.2341-0.1028-1.7483-0.4114l-0.5142-0.2057c-2.0568-1.0284-2.9824-3.4966-1.9539-5.5534
		c1.0284-2.0568,3.4966-2.9824,5.5533-1.954l0.5142,0.2057c2.0568,1.0284,2.9824,3.4966,1.9539,5.5534
		C350.7933,47.622,349.2507,48.4448,347.7081,48.4448z M160.9504,44.2283c-1.6454,0-3.188-0.9256-3.8051-2.571
		c-0.9256-2.1596,0.1028-4.525,2.1597-5.4505l0.5142-0.2057c2.1596-0.9256,4.5249,0.1028,5.4505,2.2625
		c0.9256,2.1596-0.1029,4.525-2.2625,5.4505l-0.5142,0.2057C162.0817,44.1255,161.5675,44.2283,160.9504,44.2283z M328.0656,40.2176
		c-0.5142,0-0.9255-0.1028-1.4398-0.2057l-0.5142-0.2057c-2.1596-0.8227-3.2909-3.188-2.4682-5.3477
		c0.8227-2.1596,3.188-3.2909,5.3477-2.4682l0.5142,0.2057c2.1596,0.8227,3.2909,3.188,2.4682,5.3477
		C331.3565,39.0863,329.8139,40.2176,328.0656,40.2176z M181.0043,36.8238c-1.7483,0-3.3937-1.1312-3.9079-2.8795
		c-0.7199-2.1596,0.5142-4.525,2.6738-5.2448l0.5142-0.2057c2.1596-0.7199,4.5249,0.5142,5.2448,2.6738
		c0.7199,2.1596-0.5142,4.525-2.6738,5.2448l-0.5142,0.2057C181.827,36.721,181.4156,36.8238,181.0043,36.8238z M307.7033,33.7386
		c-0.3085,0-0.7199,0-1.0284-0.1028l-0.5142-0.1028c-2.2625-0.617-3.5994-2.8795-2.9824-5.0392
		c0.6171-2.2625,2.8795-3.5994,5.0392-2.9824l0.5142,0.1028c2.2625,0.617,3.4966,2.8795,2.9824,5.0392
		C311.3027,32.5045,309.5544,33.7386,307.7033,33.7386z M201.5723,31.3733c-1.954,0-3.5994-1.3369-4.0108-3.2909
		c-0.5142-2.2625,0.9256-4.4221,3.188-4.9363l0.4113-0.1028c2.2625-0.5142,4.525,0.9256,4.9363,3.188
		c0.5142,2.2625-0.9256,4.4221-3.188,4.9363l-0.5142,0.1028C202.1893,31.3733,201.8808,31.3733,201.5723,31.3733z M286.9296,29.3165
		c-0.2057,0-0.4113,0-0.7199-0.1028l-0.5142-0.1028c-2.2625-0.4114-3.8051-2.4682-3.3937-4.7306
		c0.4113-2.2625,2.4682-3.8051,4.7307-3.3937l0.5142,0.1028c2.2625,0.4114,3.8051,2.4682,3.3937,4.7306
		C290.6318,27.8767,288.8835,29.3165,286.9296,29.3165z M222.6545,27.8767c-2.0568,0-3.9079-1.5426-4.1136-3.7022
		c-0.3085-2.2625,1.3369-4.3193,3.5994-4.6278l0.5142-0.1028c2.2625-0.3085,4.3193,1.3369,4.6278,3.5994
		c0.3085,2.2625-1.3369,4.3193-3.5994,4.6278l-0.5142,0.1028C222.963,27.8767,222.7574,27.8767,222.6545,27.8767z M265.7445,26.8483
		c-0.1029,0-0.2057,0-0.3085,0h-0.5142c-2.2625-0.2057-4.0107-2.1596-3.9079-4.4221c0.2057-2.2625,2.1596-4.0108,4.4221-3.9079
		h0.5142c2.2625,0.2057,4.0107,2.1596,3.9079,4.4221C269.7553,25.2029,267.9042,26.8483,265.7445,26.8483z M243.9424,26.437
		c-2.2625,0-4.1136-1.8511-4.1136-4.1136c-0.1028-2.2625,1.7483-4.2164,4.0108-4.3193h0.5142
		c2.2625-0.1028,4.2164,1.7483,4.2164,4.0108c0.1028,2.2625-1.7483,4.2164-4.0108,4.3193L243.9424,26.437L243.9424,26.437z"/>
</g>
</svg>
