<?xml version="1.0" encoding="utf-8"?>
<!-- Generator: Adobe Illustrator 16.0.0, SVG Export Plug-In . SVG Version: 6.00 Build 0)  -->
<!DOCTYPE svg PUBLIC "-//W3C//DTD SVG 1.1//EN" "http://www.w3.org/Graphics/SVG/1.1/DTD/svg11.dtd">
<svg version="1.1" id="Layer_1" xmlns="http://www.w3.org/2000/svg" xmlns:xlink="http://www.w3.org/1999/xlink" x="0px" y="0px"
	 width="500px" height="499.992px" viewBox="0 0 500 499.992" enable-background="new 0 0 500 499.992" xml:space="preserve">
<g id="change1">
	<path fill="#EE826C" d="M482.476,395.25c11.247,19.133,12.165,43.601,0.276,64.189c-17.592,30.463-56.552,40.904-87.014,23.315
		c-46.534-27.377-106.759-19.787-145.729,17.235h-0.027c-38.238-36.33-97.162-44.987-145.238-17.518
		c-19.128,11.247-43.602,12.161-64.19,0.275c-30.462-17.593-40.9-56.554-23.315-87.016C44.618,349.21,37.023,288.982,0,250.014
		v-0.027c36.334-38.24,44.987-97.155,17.52-145.236c-11.25-19.128-12.165-43.6-0.273-64.186
		c17.589-30.47,56.549-40.912,87.011-23.323C150.791,44.614,211.015,37.023,249.987,0h0.027
		c39.4,37.434,98.659,44.342,145.729,17.241c30.461-17.589,69.421-7.15,87.013,23.315c11.889,20.59,10.971,45.065-0.28,64.197
		C455.011,152.835,463.67,211.742,500,249.983v0.027C463.664,288.254,455.011,347.17,482.476,395.25"/>
</g>
</svg>
