<?xml version="1.0" encoding="utf-8"?>
<!-- Generator: Adobe Illustrator 16.0.0, SVG Export Plug-In . SVG Version: 6.00 Build 0)  -->
<!DOCTYPE svg PUBLIC "-//W3C//DTD SVG 1.1//EN" "http://www.w3.org/Graphics/SVG/1.1/DTD/svg11.dtd">
<svg version="1.1" id="Layer_1" xmlns="http://www.w3.org/2000/svg" xmlns:xlink="http://www.w3.org/1999/xlink" x="0px" y="0px"
	 width="500.002px" height="500.004px" viewBox="0 0 500.002 500.004" enable-background="new 0 0 500.002 500.004"
	 xml:space="preserve">
<g id="change1">
	<path fill="#AB2849" d="M127.859,449.504h39.509l27.933,27.938c30.088,30.084,79.312,30.084,109.396,0l27.938-27.938h39.511
		c42.546,0,77.357-34.812,77.357-77.36v-39.506l27.936-27.933c30.087-30.089,30.087-79.32,0-109.403l-27.937-27.936v-39.509
		c0-42.548-34.812-77.356-77.357-77.356h-39.511l-27.938-27.938c-30.082-30.085-79.312-30.085-109.396,0l-27.933,27.938h-39.509
		c-42.548,0-77.356,34.809-77.356,77.356v39.509l-27.938,27.937c-30.085,30.083-30.085,79.315,0,109.401l27.938,27.934v39.506
		C50.498,414.694,85.308,449.504,127.859,449.504"/>
</g>
</svg>
