<?xml version="1.0" encoding="utf-8"?>
<!-- Generator: Adobe Illustrator 21.0.0, SVG Export Plug-In . SVG Version: 6.00 Build 0)  -->
<svg version="1.1" id="Flat-star6shape1-D6" xmlns="http://www.w3.org/2000/svg" xmlns:xlink="http://www.w3.org/1999/xlink"
	 x="0px" y="0px" viewBox="0 0 499.1426 499.1426" enable-background="new 0 0 499.1426 499.1426" xml:space="preserve">
<g id="change1">
	<polygon fill="#FF7416" points="421.0447,320.5978 492.0713,249.5713 421.0447,178.5447 421.0447,78.0978 320.5978,78.0978 
		249.5713,7.0713 178.5447,78.0978 78.0978,78.0978 78.0978,178.5447 7.0713,249.5713 78.0978,320.5978 78.0978,421.0447 
		178.5447,421.0447 249.5713,492.0713 320.5978,421.0447 421.0447,421.0447 	"/>
</g>
<g id="change2">
	<path fill="#F04903" d="M249.5713,499.1426l-73.0977-73.0977H73.0977v-103.376L0,249.5713l73.0977-73.0977V73.0977h103.376
		L249.5713,0l73.0977,73.0977h103.376v103.376l73.0977,73.0977l-73.0977,73.0977v103.376h-103.376L249.5713,499.1426z
		 M83.0977,416.0449h97.5186L249.5713,485l68.9551-68.9551h97.5186v-97.5186L485,249.5713l-68.9551-68.9551V83.0977h-97.5186
		l-68.9551-68.9556l-68.9551,68.9556H83.0977v97.5186l-68.9556,68.9551l68.9556,68.9551V416.0449z"/>
</g>
</svg>
