<?xml version="1.0" encoding="iso-8859-1"?>
<!-- Generator: Adobe Illustrator 16.0.0, SVG Export Plug-In . SVG Version: 6.00 Build 0)  -->
<!DOCTYPE svg PUBLIC "-//W3C//DTD SVG 1.1//EN" "http://www.w3.org/Graphics/SVG/1.1/DTD/svg11.dtd">
<svg version="1.1" id="Layer_1" xmlns="http://www.w3.org/2000/svg" xmlns:xlink="http://www.w3.org/1999/xlink" x="0px" y="0px"
	 width="500px" height="500.003px" viewBox="0 0 500 500.003" style="enable-background:new 0 0 500 500.003;" xml:space="preserve"
	>
<g id="se">
	<g id="change1">
		<path style="fill:#99B83C;" d="M404.111,500.003l2.339-23.488c3.682-36.916,33.147-66.385,70.068-70.062l23.463-2.34h-95.87
			V500.003z"/>
	</g>
</g>
<g id="s">
	<g id="change1_1_">
		<rect x="95.892" y="404.113" style="fill:#99B83C;" width="308.219" height="95.891"/>
	</g>
</g>
<g id="sw">
	<g id="change1_2_">
		<path style="fill:#99B83C;" d="M0,404.113l23.484,2.34c36.919,3.674,66.388,33.141,70.065,70.064l2.341,23.486v-95.891H0
			L0,404.113z"/>
	</g>
</g>
<g id="e">
	<g id="change1_3_">
		<polygon style="fill:#99B83C;" points="500,95.893 404.111,95.893 404.111,404.113 499.981,404.113 500,404.111 		"/>
	</g>
</g>
<g id="c">
	<g id="change1_4_">
		<rect x="95.892" y="95.893" style="fill:#99B83C;" width="308.219" height="308.22"/>
	</g>
</g>
<g id="w">
	<g id="change1_5_">
		<rect x="0" y="95.893" style="fill:#99B83C;" width="95.892" height="308.22"/>
	</g>
</g>
<g id="ne">
	<g id="change1_6_">
		<path style="fill:#99B83C;" d="M500,95.893v-0.002l-23.482-2.34c-36.921-3.68-66.386-33.148-70.068-70.067L404.111,0v95.893H500z"
			/>
	</g>
</g>
<g id="n">
	<g id="change1_7_">
		<rect x="95.892" style="fill:#99B83C;" width="308.219" height="95.893"/>
	</g>
</g>
<g id="nw">
	<g id="change1_8_">
		<path style="fill:#99B83C;" d="M95.892,0l-2.343,23.485c-3.677,36.92-33.147,66.387-70.068,70.067L0,95.893h95.892V0z"/>
	</g>
</g>
</svg>
