<?xml version="1.0" encoding="iso-8859-1"?>
<!-- Generator: Adobe Illustrator 16.0.0, SVG Export Plug-In . SVG Version: 6.00 Build 0)  -->
<!DOCTYPE svg PUBLIC "-//W3C//DTD SVG 1.1//EN" "http://www.w3.org/Graphics/SVG/1.1/DTD/svg11.dtd">
<svg version="1.1" id="Layer_1" xmlns="http://www.w3.org/2000/svg" xmlns:xlink="http://www.w3.org/1999/xlink" x="0px" y="0px"
	 width="490.781px" height="425.811px" viewBox="0 0 490.781 425.811" style="enable-background:new 0 0 490.781 425.811;"
	 xml:space="preserve">
<g id="C">
	<g id="Change1_1_">
		<rect x="0" y="85.562" style="fill:#C6302C;" width="490.781" height="255.944"/>
	</g>
</g>
<g id="S">
	<g id="Change1_2_">
		<path style="fill:#C6302C;" d="M0,341.505v6.6c0,14.875,11.883,29.662,26.408,32.861l192.573,42.443
			c14.521,3.202,38.292,3.202,52.812,0l192.575-42.443c14.523-3.199,26.408-17.986,26.408-32.861v-6.6H0z"/>
	</g>
</g>
<g id="N">
	<g id="Change1">
		<path style="fill:#C6302C;" d="M490.781,77.705c0-14.874-11.885-29.661-26.408-32.862L271.797,2.401
			c-14.521-3.201-38.291-3.201-52.812,0L26.408,44.843C11.883,48.044,0,62.832,0,77.705v7.856h490.781V77.705z"/>
	</g>
</g>
</svg>
