<?xml version="1.0" encoding="iso-8859-1"?>
<!-- Generator: Adobe Illustrator 16.0.0, SVG Export Plug-In . SVG Version: 6.00 Build 0)  -->
<!DOCTYPE svg PUBLIC "-//W3C//DTD SVG 1.1//EN" "http://www.w3.org/Graphics/SVG/1.1/DTD/svg11.dtd">
<svg version="1.1" id="Layer_1" xmlns="http://www.w3.org/2000/svg" xmlns:xlink="http://www.w3.org/1999/xlink" x="0px" y="0px"
	 width="200px" height="183.486px" viewBox="0 0 200 183.486" style="enable-background:new 0 0 200 183.486;" xml:space="preserve"
	>
<g id="change1">
	<path style="fill:#753192;" d="M100,183.486l-4.591-3.476c-1.053-0.8-26.071-19.828-50.337-45.216
		C11.251,99.41-3.659,69.95,0.758,47.234C6.336,18.541,27.032,0,53.482,0c19.045,0,36.053,9.986,46.52,26.443
		C110.468,9.986,127.476,0,146.52,0c26.45,0,47.145,18.541,52.723,47.234c4.418,22.716-10.492,52.176-44.312,87.561
		c-24.268,25.388-49.285,44.416-50.337,45.216L100,183.486z M53.482,15.207c-14.302,0-32.784,9.147-37.795,34.929
		c-6.641,34.161,54.791,90.877,84.312,114.198c29.519-23.331,90.952-80.068,84.316-114.198
		c-3.133-16.112-14.911-34.929-37.795-34.929c-17.729,0-33.146,12.333-39.282,31.418L100,69.147l-7.238-22.521
		C86.627,27.54,71.209,15.207,53.482,15.207z"/>
</g>
</svg>
