<?xml version="1.0" encoding="iso-8859-1"?>
<!-- Generator: Adobe Illustrator 16.0.0, SVG Export Plug-In . SVG Version: 6.00 Build 0)  -->
<!DOCTYPE svg PUBLIC "-//W3C//DTD SVG 1.1//EN" "http://www.w3.org/Graphics/SVG/1.1/DTD/svg11.dtd">
<svg version="1.1" id="Layer_1" xmlns="http://www.w3.org/2000/svg" xmlns:xlink="http://www.w3.org/1999/xlink" x="0px" y="0px"
	 width="500px" height="499.707px" viewBox="0 0 500 499.707" style="enable-background:new 0 0 500 499.707;" xml:space="preserve"
	>
<g id="change1">
	<polygon style="fill:#00A79D;" points="485.781,271.574 500,257.417 486.62,242.463 499.02,226.683 483.924,213.465 
		494.287,196.28 477.678,185.022 485.838,166.685 467.966,157.563 473.803,138.362 454.941,131.518 458.371,111.74 438.81,107.269 
		439.791,87.224 419.831,85.175 418.365,65.159 398.297,65.561 394.391,45.881 374.533,48.729 368.241,29.675 348.879,34.943 
		340.286,16.808 321.721,24.432 310.949,7.496 293.47,17.355 280.696,1.876 264.567,13.813 250,0 235.437,13.81 219.308,1.876 
		206.531,17.355 189.05,7.496 178.281,24.432 159.713,16.808 151.126,34.946 131.761,29.675 125.464,48.734 105.607,45.876 
		101.701,65.561 81.635,65.159 80.171,85.175 60.206,87.227 61.191,107.269 41.631,111.74 45.059,131.518 26.199,138.359 
		32.034,157.561 14.162,166.685 22.321,185.022 5.71,196.284 16.079,213.465 0.98,226.683 13.382,242.463 0,257.417 14.219,271.578 
		2.76,288.046 18.607,300.367 9.269,318.13 26.513,328.399 19.44,347.179 37.821,355.234 33.123,374.744 52.351,380.47 
		50.083,400.412 69.872,403.74 70.05,423.81 90.102,424.693 92.726,444.585 112.738,443.025 117.78,462.443 137.442,458.435 
		144.844,477.085 163.863,470.691 173.511,488.292 191.593,479.591 203.345,495.865 220.21,484.994 233.862,499.701 250,486.25 
		249.998,486.25 266.141,499.707 279.79,484.994 296.66,495.865 308.411,479.591 326.49,488.287 336.141,470.691 355.155,477.085 
		362.552,458.435 382.221,462.443 387.263,443.025 407.274,444.585 409.899,424.693 429.948,423.81 430.131,403.74 449.918,400.414 
		447.65,380.47 466.88,374.744 462.177,355.234 480.56,347.179 473.488,328.399 490.732,318.13 481.396,300.367 497.239,288.046 	
		"/>
</g>
<g id="change2">
	<path style="fill:#A8DCD8;" d="M250.002,476.716c-123.432,0-223.852-100.422-223.852-223.852
		c0-123.431,100.42-223.851,223.852-223.851s223.852,100.42,223.852,223.851C473.854,376.294,373.431,476.716,250.002,476.716z
		 M250.002,40.929c-116.861,0-211.937,95.075-211.937,211.936c0,116.862,95.074,211.934,211.937,211.934
		c116.861,0,211.935-95.072,211.935-211.934C461.937,136.006,366.863,40.929,250.002,40.929z M250.002,459.291
		c-27.87,0-54.902-5.457-80.347-16.217c-24.578-10.398-46.655-25.283-65.618-44.242c-18.961-18.961-33.851-41.045-44.243-65.619
		c-10.759-25.443-16.216-52.475-16.216-80.348c0-27.873,5.457-54.905,16.216-80.347c10.396-24.578,25.282-46.657,44.243-65.621
		c18.966-18.961,41.042-33.847,65.618-44.24c25.443-10.762,52.477-16.218,80.347-16.218c27.871,0,54.902,5.454,80.347,16.218
		c24.579,10.396,46.653,25.279,65.617,44.24c18.961,18.964,33.85,41.043,44.245,65.621c10.759,25.441,16.216,52.474,16.216,80.347
		c0,27.873-5.457,54.903-16.216,80.348c-10.398,24.58-25.284,46.658-44.245,65.619c-18.959,18.959-41.038,33.848-65.617,44.242
		C304.904,453.833,277.87,459.291,250.002,459.291z M250.002,58.354c-26.27,0-51.738,5.139-75.703,15.274
		c-23.156,9.796-43.964,23.823-61.836,41.695c-17.873,17.872-31.899,38.678-41.695,61.836
		c-10.136,23.965-15.273,49.435-15.273,75.706c0,26.27,5.139,51.739,15.273,75.704c9.796,23.16,23.823,43.964,41.695,61.836
		c17.872,17.874,38.678,31.899,61.836,41.692c23.965,10.137,49.435,15.277,75.703,15.277c26.268,0,51.739-5.143,75.703-15.277
		c23.161-9.795,43.967-23.822,61.834-41.692c17.872-17.87,31.901-38.678,41.697-61.836c10.133-23.965,15.271-49.435,15.271-75.704
		c0-26.271-5.14-51.741-15.271-75.706c-9.798-23.16-23.825-43.966-41.697-61.836c-17.873-17.87-38.678-31.899-61.834-41.695
		C301.741,63.493,276.27,58.354,250.002,58.354z"/>
</g>
</svg>
