<?xml version="1.0" encoding="utf-8"?>
<!-- Generator: Adobe Illustrator 21.0.0, SVG Export Plug-In . SVG Version: 6.00 Build 0)  -->
<svg version="1.1" id="Circle-Outline-Dot1-D6" xmlns="http://www.w3.org/2000/svg" xmlns:xlink="http://www.w3.org/1999/xlink"
	 x="0px" y="0px" viewBox="0 0 499.3789 499.3789" enable-background="new 0 0 499.3789 499.3789" xml:space="preserve">
<g id="change1">
	<path fill="#EE543A" d="M249.6895,499.3789c-66.6943,0-129.397-25.9727-176.5571-73.1328C25.9722,379.0869,0,316.3838,0,249.6895
		s25.9722-129.397,73.1323-176.5571S182.9951,0,249.6895,0s129.3975,25.9722,176.5566,73.1323
		c47.1602,47.1602,73.1328,109.8628,73.1328,176.5571s-25.9727,129.3975-73.1328,176.5566
		C379.0869,473.4062,316.3838,499.3789,249.6895,499.3789z M249.6895,12c-63.4893,0-123.1782,24.7241-168.0718,69.6177
		S12,186.2002,12,249.6895s24.7241,123.1787,69.6177,168.0723s104.5825,69.6172,168.0718,69.6172s123.1787-24.7236,168.0723-69.6172
		s69.6172-104.583,69.6172-168.0723s-24.7236-123.1782-69.6172-168.0718S313.1787,12,249.6895,12z"/>
</g>
<g id="change2">
	<path fill="#EE543A" d="M249.6895,470.9746c-59.1074,0-114.6772-23.0176-156.4722-64.8135
		c-41.7954-41.7949-64.813-97.3643-64.813-156.4717s23.0176-114.6772,64.813-156.4722
		c41.7949-41.7954,97.3647-64.813,156.4722-64.813s114.6768,23.0176,156.4717,64.813
		c41.7959,41.7949,64.8135,97.3647,64.8135,156.4722s-23.0176,114.6768-64.8135,156.4717
		C364.3662,447.957,308.7969,470.9746,249.6895,470.9746z M249.6895,40.4043c-115.4004,0-209.2852,93.8848-209.2852,209.2852
		s93.8848,209.2852,209.2852,209.2852s209.2852-93.8848,209.2852-209.2852S365.0898,40.4043,249.6895,40.4043z"/>
</g>
<g id="change3">
	<path fill="#AA1505" d="M250.1094,441.2588c-0.0303-1.3799,1.0703-2.5098,2.4502-2.5391l0,0
		c1.3896-0.0205,2.5195,1.0898,2.54,2.4697l0,0c0.0195,1.3799-1.0801,2.5098-2.46,2.5303l0,0c-0.0107,0-0.0205,0-0.0303,0l0,0
		C251.2393,443.7197,250.1191,442.6289,250.1094,441.2588z M239.5391,443.4795v0.0098c-1.3799-0.0703-2.4399-1.25-2.3696-2.6299l0,0
		c0.0698-1.3799,1.25-2.4404,2.6299-2.3701l0,0c1.3701,0.0703,2.4302,1.25,2.3599,2.6299l0,0
		c-0.0698,1.3301-1.1699,2.3701-2.4897,2.3701l0,0C239.6294,443.4893,239.5791,443.4893,239.5391,443.4795z M263.0293,440.7988
		c-0.1104-1.3691,0.9102-2.5791,2.29-2.6895l0,0c1.3799-0.1104,2.5801,0.9102,2.7002,2.29l0,0
		c0.1094,1.3701-0.9199,2.5801-2.29,2.6895l0,0c-0.0703,0.0107-0.1406,0.0107-0.21,0.0107l0,0
		C264.2295,443.0996,263.1396,442.1094,263.0293,440.7988z M226.4795,442.3691c-1.3701-0.1602-2.3403-1.4102-2.1802-2.7803l0,0
		c0.1602-1.3691,1.4102-2.3496,2.7798-2.1797l0,0c1.3701,0.1602,2.3501,1.4004,2.1802,2.7803l0,0
		c-0.1499,1.2695-1.23,2.2002-2.48,2.2002l0,0C226.6792,442.3896,226.5791,442.3789,226.4795,442.3691z M275.8994,439.4893
		c-0.21-1.3701,0.7295-2.6396,2.0996-2.8496l0,0c1.3701-0.21,2.6406,0.7393,2.8398,2.0996l0,0
		c0.21,1.3701-0.7295,2.6396-2.0996,2.8496v-0.0098c-0.1201,0.0205-0.25,0.0303-0.3701,0.0303l0,0
		C277.1494,441.6094,276.0889,440.7197,275.8994,439.4893z M213.5293,440.3789c-1.3501-0.25-2.25-1.5596-1.9902-2.9199l0,0
		c0.25-1.3496,1.5601-2.25,2.9204-1.9893l0,0l0,0l0,0c1.3599,0.25,2.25,1.5596,1.9897,2.9199l0,0
		c-0.2197,1.1992-1.27,2.04-2.4497,2.04l0,0C213.8491,440.4297,213.6895,440.4092,213.5293,440.3789z M288.6494,437.2988
		c-0.2998-1.3496,0.5498-2.6797,1.8994-2.9795l0,0c1.3506-0.2998,2.6807,0.5498,2.9805,1.9004l0,0
		c0.2998,1.3496-0.5498,2.6797-1.9004,2.9795l0,0c-0.1797,0.04-0.3594,0.0596-0.54,0.0596l0,0
		C289.9395,439.2588,288.9092,438.459,288.6494,437.2988z M200.7495,437.5195c-1.3403-0.3506-2.1401-1.71-1.8003-3.0498l0,0
		c0.3501-1.3408,1.7202-2.1406,3.0503-1.79l0,0l0,0l0,0c1.3398,0.3496,2.1396,1.71,1.7896,3.0498l0,0
		c-0.2896,1.1299-1.2998,1.8701-2.4097,1.8701l0,0C201.1694,437.5996,200.9595,437.5791,200.7495,437.5195z M301.2197,434.249
		c-0.3906-1.3193,0.3691-2.71,1.6992-3.0996l0,0c1.3203-0.3906,2.71,0.3701,3.1006,1.7002l0,0
		c0.3896,1.3193-0.3701,2.71-1.7002,3.0996l0,0c-0.2305,0.0703-0.4697,0.0996-0.7002,0.0996l0,0
		C302.5391,436.0488,301.5391,435.3389,301.2197,434.249z M188.1792,433.7891L188.1792,433.7891
		c-1.3101-0.4297-2.02-1.8496-1.5801-3.1602l0,0c0.4399-1.3096,1.8501-2.0195,3.1602-1.5801l0,0
		c1.3101,0.4404,2.02,1.8604,1.5801,3.1602l0,0c-0.3501,1.0498-1.3203,1.71-2.3701,1.71l0,0
		C188.7095,433.9189,188.4395,433.8789,188.1792,433.7891z M313.5596,430.3594c-0.4805-1.2998,0.1895-2.7402,1.4795-3.21l0,0
		c1.2998-0.4805,2.7305,0.1797,3.21,1.4795l0,0c0.4805,1.29-0.1895,2.7305-1.4795,3.21l0,0
		c-0.29,0.1006-0.5801,0.1504-0.8701,0.1504l0,0C314.8896,431.9893,313.9297,431.3691,313.5596,430.3594z M175.8994,429.2197
		c-1.2803-0.5205-1.8901-1.9805-1.3604-3.2607l0,0c0.52-1.2793,1.98-1.8896,3.2603-1.3594l0,0l0,0l0,0
		c1.2798,0.5195,1.8901,1.9795,1.3599,3.2598l0,0c-0.3999,0.9697-1.3301,1.5498-2.3101,1.5498l0,0
		C176.5293,429.4092,176.2095,429.3496,175.8994,429.2197z M325.6191,425.6289c-0.5703-1.2598,0-2.7393,1.2598-3.3096l0,0
		c0,0,0,0,0,0.0098l0,0c1.2607-0.5703,2.7305-0.0098,3.3008,1.25l0,0c0.5596,1.2598,0,2.7402-1.2607,3.3105l0,0
		c-0.3301,0.1494-0.6797,0.2197-1.0195,0.2197l0,0C326.9395,427.1094,326.0293,426.5488,325.6191,425.6289z M163.9692,423.8291
		c-1.2397-0.6094-1.75-2.1094-1.1401-3.3398l0,0c0.6104-1.2402,2.1104-1.75,3.3501-1.1396l0,0
		c1.2402,0.6094,1.75,2.1094,1.1401,3.3496l0,0c-0.4399,0.8799-1.3301,1.3896-2.25,1.3896l0,0
		C164.6992,424.0889,164.3193,424.0088,163.9692,423.8291z M337.3193,420.0889c-0.6504-1.2197-0.1797-2.7393,1.04-3.3799l0,0l0,0
		l0,0c1.2197-0.6494,2.7295-0.1895,3.3799,1.0303l0,0c0.6504,1.2197,0.1797,2.7305-1.0303,3.3799l0,0
		c-0.3799,0.2002-0.7793,0.2998-1.1797,0.2998l0,0C338.6396,421.4189,337.7695,420.9297,337.3193,420.0889z M152.4292,417.6494
		L152.4292,417.6494c-1.1997-0.6904-1.6001-2.2197-0.9102-3.4199l0,0c0.6904-1.1904,2.2202-1.6006,3.4204-0.9102l0,0
		c1.1899,0.7002,1.5996,2.2295,0.8999,3.4199l0,0c-0.46,0.7998-1.3003,1.25-2.1602,1.25l0,0
		C153.2495,417.9893,152.8193,417.8789,152.4292,417.6494z M348.6289,413.7695c-0.7295-1.1699-0.3799-2.71,0.8008-3.4404l0,0l0,0
		l0,0c1.1699-0.7295,2.71-0.3701,3.4395,0.7998l0,0c0.7305,1.1699,0.3701,2.71-0.7998,3.4404l0,0
		c-0.4102,0.2598-0.8701,0.3799-1.3203,0.3799l0,0C349.9189,414.9492,349.0996,414.5293,348.6289,413.7695z M141.3291,410.6992
		c-1.1499-0.7803-1.4497-2.3301-0.6797-3.4697l0,0c0.77-1.1504,2.3301-1.4502,3.4697-0.6807l0,0l0,0l0,0
		c1.1499,0.7705,1.4502,2.3301,0.6802,3.4707l0,0c-0.48,0.7197-1.27,1.0996-2.0801,1.0996l0,0
		C142.2393,411.1191,141.7593,410.9893,141.3291,410.6992z M359.4697,406.709c-0.8008-1.1299-0.5508-2.6895,0.5693-3.4893l0,0
		c0,0,0,0,0-0.0107l0,0c1.1201-0.7998,2.6807-0.5498,3.4902,0.5703l0,0c0.8096,1.1201,0.5498,2.6904-0.5703,3.4902l0,0
		c-0.4395,0.3193-0.9502,0.4697-1.46,0.4697l0,0C360.7295,407.7393,359.959,407.3789,359.4697,406.709z M130.7192,403.0088
		L130.7192,403.0088c-1.0898-0.8398-1.29-2.4199-0.4399-3.5098l0,0c0.8501-1.0898,2.4199-1.29,3.5098-0.4395l0,0
		c1.0903,0.8496,1.2803,2.4199,0.4404,3.5098l0,0c-0.5,0.6396-1.23,0.9697-1.98,0.9697l0,0
		C131.7192,403.5391,131.1792,403.3691,130.7192,403.0088z M369.8193,398.9297c-0.8799-1.0703-0.7305-2.6406,0.3301-3.5205l0,0
		c1.0596-0.8799,2.6396-0.7295,3.5195,0.3301l0,0c0.8799,1.0596,0.7305,2.6396-0.3301,3.5195l0,0
		c-0.4697,0.3809-1.04,0.5703-1.5996,0.5703l0,0C371.0195,399.8291,370.3096,399.5195,369.8193,398.9297z M120.6494,394.6289
		c-1.0303-0.9199-1.1201-2.5-0.2002-3.5293l0,0c0.9199-1.0303,2.5-1.1201,3.5303-0.2002l0,0
		c1.0298,0.9102,1.1196,2.4902,0.1997,3.5195l0,0c-0.4897,0.5605-1.1797,0.8398-1.8701,0.8398l0,0
		C121.7192,395.2588,121.1294,395.0488,120.6494,394.6289z M379.6094,390.4697c-0.9404-1-0.9004-2.5801,0.0996-3.5303l0,0
		c1-0.9502,2.5801-0.9102,3.5303,0.0898l0,0c0.9502,1.0098,0.9102,2.5898-0.0898,3.54l0,0c-0.4805,0.46-1.1006,0.6797-1.7197,0.6797
		l0,0C380.7695,391.249,380.1094,390.9893,379.6094,390.4697z M111.1592,385.5889c-0.96-0.9893-0.9497-2.5693,0.04-3.54l0,0
		c0.98-0.96,2.5698-0.9492,3.5303,0.04l0,0c0.9697,0.9805,0.9497,2.5605-0.0303,3.5303l0,0
		c-0.4897,0.4805-1.1201,0.7197-1.75,0.7197l0,0C112.2993,386.3389,111.6494,386.0889,111.1592,385.5889z M388.8193,381.3789
		c-1.0205-0.9297-1.0801-2.5195-0.1396-3.5293l0,0l0,0l0,0c0.9297-1.0107,2.5195-1.0801,3.5293-0.1406l0,0
		c1.0205,0.9307,1.0801,2.5107,0.1406,3.5303l0,0c-0.4902,0.5303-1.1602,0.7998-1.8301,0.7998l0,0
		C389.9092,382.0391,389.2988,381.8291,388.8193,381.3789z M102.2993,375.9297L102.2993,375.9297
		c-0.8999-1.0508-0.77-2.6309,0.27-3.5303l0,0c1.0498-0.8906,2.6299-0.7705,3.5298,0.2803l0,0
		c0.9004,1.04,0.7803,2.6191-0.27,3.5195l0,0c-0.4697,0.4102-1.0498,0.5996-1.6299,0.5996l0,0
		C103.4995,376.7988,102.7993,376.5088,102.2993,375.9297z M397.3896,371.6992c-1.0703-0.8701-1.2402-2.4502-0.3701-3.5195l0,0
		c0.8594-1.0801,2.4297-1.2402,3.5098-0.3809l0,0c1.0801,0.8701,1.25,2.4404,0.3799,3.5205l0,0
		c-0.4902,0.6104-1.2197,0.9297-1.9502,0.9297l0,0C398.4092,372.249,397.8594,372.0693,397.3896,371.6992z M94.1094,365.6992
		c-0.8203-1.1104-0.6001-2.6797,0.5098-3.5l0,0c1.1001-0.8301,2.6699-0.5996,3.5,0.5l0,0c0.8203,1.1104,0.6001,2.6797-0.5098,3.5
		l0,0c-0.4502,0.3398-0.9702,0.5-1.4902,0.5l0,0C95.3491,366.6992,94.5991,366.3496,94.1094,365.6992z M405.2988,361.459
		c-1.1396-0.79-1.4092-2.3496-0.6191-3.4893l0,0c0.79-1.1309,2.3496-1.4004,3.4795-0.6104l0,0
		c1.1299,0.79,1.4102,2.3496,0.6201,3.4795l0,0c-0.4902,0.7002-1.2598,1.0703-2.0498,1.0703l0,0
		C406.2295,361.9092,405.7295,361.7588,405.2988,361.459z M86.6191,354.9297L86.6191,354.9297
		c-0.75-1.1602-0.4199-2.7002,0.7402-3.4502l0,0c1.1597-0.75,2.71-0.4199,3.46,0.7402l0,0l0,0l0,0
		c0.75,1.1592,0.4199,2.6992-0.7402,3.4492l0,0c-0.4199,0.2803-0.8896,0.4102-1.3496,0.4102l0,0
		C87.8994,356.0791,87.0991,355.6689,86.6191,354.9297z M412.4893,350.709c-1.1797-0.71-1.5596-2.25-0.8496-3.4297l0,0l0,0l0,0
		c0.7197-1.1797,2.25-1.5596,3.4395-0.8496l0,0c1.1797,0.7197,1.5605,2.25,0.8398,3.4395h0.0107
		c-0.4805,0.7705-1.3008,1.21-2.1504,1.21l0,0C413.3389,351.0791,412.8896,350.959,412.4893,350.709z M79.8794,343.6895
		c-0.6699-1.21-0.2402-2.7305,0.9697-3.4004l0,0c1.21-0.6699,2.73-0.2402,3.4004,0.9697l0,0
		c0.6699,1.2109,0.23,2.7305-0.9702,3.4004l0,0c-0.3901,0.21-0.7998,0.3105-1.21,0.3105l0,0
		C81.1895,344.9697,80.3291,344.5088,79.8794,343.6895z M418.9395,339.5088c-1.2197-0.6299-1.71-2.1396-1.0703-3.3691l0,0
		c0.6299-1.2207,2.1299-1.71,3.3604-1.0703l0,0c1.2295,0.6299,1.71,2.1396,1.0801,3.3604l0,0
		c-0.4404,0.8594-1.3203,1.3594-2.2207,1.3594l0,0C419.6992,339.7891,419.3096,339.6992,418.9395,339.5088z M73.9092,331.999
		c-0.5898-1.25-0.0498-2.7402,1.2002-3.3193l0,0c1.25-0.5908,2.7397-0.0508,3.3198,1.1992l0,0
		c0.5898,1.25,0.0503,2.7402-1.1997,3.3301l0,0c-0.3403,0.1602-0.7002,0.2305-1.0601,0.2305l0,0
		C75.2295,333.4395,74.3291,332.9092,73.9092,331.999z M424.6191,327.8994c-1.2695-0.5498-1.8496-2.0205-1.2998-3.2803l0,0l0,0l0,0
		c0.5498-1.2695,2.0195-1.8496,3.29-1.3096l0,0c1.2598,0.5498,1.8496,2.0195,1.2998,3.29l0,0
		c-0.4102,0.9395-1.3301,1.5098-2.2998,1.5098l0,0C425.2793,328.1094,424.9395,328.0391,424.6191,327.8994z M68.7393,319.9395
		c-0.5-1.2803,0.1401-2.7305,1.4302-3.2305l0,0c1.2798-0.5,2.73,0.1299,3.23,1.4199l0,0l0,0l0,0
		c0.5,1.29-0.1401,2.7402-1.4199,3.2402l0,0c-0.3003,0.1104-0.6104,0.1699-0.9102,0.1699l0,0
		C70.0693,321.5391,69.1294,320.9297,68.7393,319.9395z M429.499,315.9395c-1.3096-0.46-1.9902-1.8906-1.5293-3.1904l0,0l0,0l0,0
		c0.4697-1.2998,1.8896-1.9795,3.1992-1.5195l0,0c1.3008,0.46,1.9805,1.8896,1.5205,3.1895l0,0
		c-0.3604,1.0205-1.3301,1.6699-2.3604,1.6699l0,0C430.0488,316.0889,429.7695,316.0391,429.499,315.9395z M64.4092,307.5488
		L64.4092,307.5488c-0.4097-1.3096,0.3203-2.7197,1.6401-3.1299l0,0c1.3198-0.4102,2.7197,0.3301,3.1299,1.6406l0,0l0,0l0,0
		c0.4102,1.3193-0.3198,2.7295-1.6401,3.1396l0,0c-0.25,0.0703-0.5,0.1104-0.75,0.1104l0,0
		C65.7295,309.3096,64.7393,308.6191,64.4092,307.5488z M433.5596,303.6592c-1.3301-0.3701-2.1104-1.75-1.7402-3.0801l0,0
		c0.3701-1.3301,1.75-2.1094,3.0801-1.7402l0,0c1.3301,0.3701,2.0996,1.75,1.7295,3.0801l0,0
		c-0.2998,1.1104-1.3096,1.8301-2.3994,1.8301l0,0C434.0088,303.749,433.7793,303.7197,433.5596,303.6592z M60.9292,294.9189
		c-0.3198-1.3496,0.5103-2.6895,1.8501-3.0195l0,0c1.3501-0.3203,2.6899,0.5098,3.02,1.8594l0,0
		c0.3198,1.3408-0.5103,2.6904-1.8599,3.0107l0,0c-0.1899,0.04-0.3901,0.0693-0.5801,0.0693l0,0
		C62.2295,296.8389,61.2095,296.0596,60.9292,294.9189z M436.7695,291.1289c-1.3506-0.2793-2.2207-1.6094-1.9404-2.96l0,0
		c0.2803-1.3496,1.6006-2.2197,2.9502-1.9395l0,0c1.3496,0.2793,2.2197,1.5996,1.9404,2.96l0,0
		c-0.2402,1.1797-1.2803,1.9902-2.4404,1.9902l0,0C437.1094,291.1797,436.9395,291.1592,436.7695,291.1289z M58.3193,282.0693
		c-0.2202-1.3604,0.6899-2.6504,2.0601-2.8799l0,0c1.3599-0.2305,2.6499,0.6895,2.8701,2.0596l0,0
		c0.23,1.3604-0.6802,2.6504-2.0503,2.8701l0,0c-0.1401,0.0303-0.2798,0.04-0.4102,0.04l0,0
		C59.5894,284.1592,58.5293,283.2988,58.3193,282.0693z M439.1191,278.4092c-1.3604-0.1895-2.3203-1.4502-2.1299-2.8203l0,0l0,0l0,0
		c0.1797-1.3691,1.4404-2.3193,2.8096-2.1299l0,0c1.3701,0.1807,2.3301,1.4404,2.1406,2.8105l0,0
		c-0.1699,1.25-1.2402,2.1602-2.4697,2.1602l0,0C439.3496,278.4297,439.2393,278.4189,439.1191,278.4092z M56.5894,269.0889
		c-0.1401-1.3799,0.8701-2.5996,2.2397-2.7393l0,0c1.3701-0.1406,2.6001,0.8701,2.7402,2.2393l0,0l0,0l0,0
		c0.1299,1.3809-0.8701,2.6006-2.25,2.7402l0,0c-0.0801,0.0098-0.1602,0.0098-0.2402,0.0098l0,0
		C57.8091,271.3389,56.7192,270.3789,56.5894,269.0889z M440.6094,265.5596c-1.3701-0.1006-2.4102-1.29-2.3203-2.6699l0,0
		c0.1006-1.3809,1.29-2.4102,2.6699-2.3203l0,0c1.3799,0.0996,2.4199,1.29,2.3203,2.6699l0,0
		c-0.0898,1.3203-1.1904,2.3301-2.4902,2.3301l0,0C440.7295,265.5693,440.6689,265.5596,440.6094,265.5596z M55.7295,256.0088
		c-0.04-1.3799,1.0396-2.5293,2.4199-2.5791l0,0c1.3799-0.04,2.54,1.04,2.5801,2.4199l0,0c0.0396,1.3799-1.04,2.54-2.4204,2.5801
		l0,0c-0.02,0-0.0498,0-0.0796,0l0,0C56.8892,258.4297,55.7793,257.3691,55.7295,256.0088z M441.2393,252.6289
		c-1.3799,0-2.5-1.1201-2.4902-2.4995l0,0c0-0.0801,0-0.1499,0.0098-0.23l0,0c-0.0098-0.0703-0.0098-0.1401-0.0098-0.21l0,0
		c0-1.3804,1.1201-2.5,2.5-2.5l0,0c1.3799,0,2.5,1.1196,2.5,2.5l0,0c0,0.0796-0.0098,0.1597-0.0098,0.23l0,0
		c0,0.0801,0.0098,0.1499,0.0098,0.2197l0,0c-0.0098,1.3804-1.1201,2.4897-2.5,2.4897l0,0
		C441.2393,252.6289,441.2393,252.6289,441.2393,252.6289z M58.1592,245.4893c-1.3799-0.04-2.46-1.2002-2.4097-2.5801l0,0
		c0.0498-1.3799,1.1997-2.46,2.5796-2.4097l0,0c1.3804,0.0396,2.46,1.1997,2.4204,2.5796l0,0
		c-0.0503,1.3501-1.1602,2.4204-2.5,2.4204l0,0C58.2192,245.4995,58.1895,245.4995,58.1592,245.4893z M438.3193,236.9292
		c-0.0898-1.3799,0.9502-2.5698,2.3301-2.6602l0,0c1.3799-0.0898,2.5703,0.9502,2.6602,2.3301l0,0
		c0.0898,1.3701-0.9502,2.5601-2.3301,2.6602l0,0c-0.0605,0-0.1104,0-0.1699,0l0,0
		C439.5088,239.2593,438.4092,238.2495,438.3193,236.9292z M58.8691,232.5791c-1.3696-0.1396-2.3696-1.3696-2.23-2.7397l0,0
		c0.1401-1.3799,1.3604-2.3799,2.7402-2.23l0,0c1.3701,0.1299,2.3701,1.3599,2.23,2.73l0,0c-0.1299,1.29-1.2202,2.25-2.48,2.25l0,0
		C59.0391,232.5894,58.9595,232.5894,58.8691,232.5791z M437.0488,224.2295c-0.1895-1.3701,0.7705-2.6304,2.1406-2.8101l0,0
		c1.3701-0.1899,2.6299,0.77,2.8096,2.1396l0,0c0.1904,1.3701-0.7793,2.6304-2.1396,2.8101l0,0
		c-0.1201,0.02-0.2305,0.02-0.3398,0.02l0,0C438.2891,226.3892,437.209,225.4795,437.0488,224.2295z M60.4395,219.7393
		c-1.3604-0.23-2.27-1.52-2.04-2.8901l0,0c0.23-1.3599,1.52-2.27,2.8799-2.04l0,0c1.3701,0.23,2.2798,1.52,2.0498,2.8804l0,0
		c-0.21,1.2197-1.27,2.0796-2.46,2.0796l0,0C60.7295,219.769,60.5894,219.7593,60.4395,219.7393z M434.9189,211.6392
		c-0.2793-1.3501,0.5898-2.6699,1.9404-2.9497l0,0c1.3604-0.2803,2.6797,0.5996,2.9502,1.9497l0,0
		c0.2793,1.3501-0.5898,2.6699-1.9404,2.9502l0,0c-0.1699,0.0298-0.3398,0.0498-0.5098,0.0498l0,0
		C436.1992,213.6392,435.1592,212.8193,434.9189,211.6392z M62.8794,207.0391c-1.3403-0.3296-2.1699-1.6797-1.8403-3.02l0,0
		c0.3203-1.3398,1.6704-2.1699,3.02-1.8398l0,0c1.3403,0.3203,2.1602,1.6699,1.8403,3.0103l0,0
		c-0.2803,1.1499-1.3003,1.9199-2.4302,1.9199l0,0C63.2793,207.1094,63.0791,207.0791,62.8794,207.0391z M431.9395,199.2295
		c-0.3701-1.3301,0.4102-2.7104,1.7402-3.0801l0,0c1.3291-0.3604,2.71,0.4199,3.0791,1.75l0,0
		c0.3701,1.3301-0.4199,2.6997-1.75,3.0698l0,0c-0.2197,0.0601-0.4395,0.0898-0.6592,0.0898l0,0
		C433.249,201.0591,432.2393,200.3394,431.9395,199.2295z M66.1792,194.5293c-1.3198-0.4199-2.0498-1.8198-1.6401-3.1401l0,0
		c0.4204-1.3198,1.8203-2.0498,3.1401-1.6299l0,0c1.3203,0.4102,2.0503,1.8101,1.6299,3.1299l0,0
		c-0.3296,1.0703-1.3198,1.75-2.3799,1.75l0,0C66.6792,194.6392,66.4292,194.5991,66.1792,194.5293z M428.1191,187.0493
		L428.1191,187.0493L428.1191,187.0493c-0.46-1.3101,0.2305-2.73,1.5303-3.1899l0,0c1.2998-0.46,2.7295,0.23,3.1895,1.5298l0,0
		c0.46,1.3003-0.2295,2.73-1.5293,3.1899l0,0c-0.2803,0.0903-0.5605,0.1401-0.8301,0.1401l0,0
		C429.4492,188.7192,428.4795,188.0693,428.1191,187.0493z M70.3193,182.269c-1.29-0.5-1.9199-1.9497-1.4199-3.2397l0,0
		c0.5-1.29,1.9497-1.9199,3.2397-1.4199l0,0c1.2803,0.5,1.9199,1.9497,1.4199,3.2397l0,0
		c-0.3896,0.9902-1.3296,1.5903-2.3296,1.5903l0,0C70.9194,182.4395,70.6191,182.3892,70.3193,182.269z M423.4795,175.1294
		c-0.5498-1.2603,0.04-2.73,1.3096-3.2803l0,0c1.2705-0.5498,2.7402,0.04,3.2803,1.3101l0,0c0.54,1.27-0.04,2.7402-1.3105,3.29l0,0
		c-0.3193,0.1299-0.6592,0.2002-0.9795,0.2002l0,0C424.8096,176.6494,423.8789,176.0791,423.4795,175.1294z M75.269,170.3394
		c-1.25-0.5898-1.7798-2.0801-1.1899-3.3301l0,0c0.5903-1.25,2.0801-1.7798,3.3301-1.2002l0,0
		c1.25,0.5903,1.7803,2.0801,1.1899,3.3301l0,0c-0.4297,0.9102-1.3301,1.4399-2.2598,1.4399l0,0
		C75.9795,170.5791,75.6191,170.4995,75.269,170.3394z M418.0391,163.5693c-0.6299-1.23-0.1494-2.73,1.0801-3.3599l0,0
		c1.2305-0.6304,2.7402-0.1504,3.3701,1.0796l0,0c0.6299,1.23,0.1396,2.7402-1.0898,3.3604l0,0
		c-0.3604,0.1899-0.75,0.2798-1.1406,0.2798l0,0C419.3594,164.9292,418.4795,164.4395,418.0391,163.5693z M81.0293,158.7593
		c-1.21-0.6699-1.6401-2.1899-0.9702-3.3999l0,0c0.6704-1.2002,2.2002-1.6401,3.4004-0.96l0,0
		c1.21,0.6699,1.6396,2.1899,0.9697,3.3999l0,0l0,0l0,0c-0.46,0.8198-1.3101,1.2798-2.1899,1.2798l0,0
		C81.8291,159.0791,81.4092,158.9795,81.0293,158.7593z M411.8291,152.3994c-0.7197-1.1802-0.3301-2.7202,0.8506-3.4302l0,0
		c1.1895-0.71,2.7197-0.3301,3.4297,0.8599l0,0c0.71,1.1802,0.3301,2.7202-0.8506,3.4302l0,0
		c-0.3994,0.2402-0.8496,0.3599-1.2891,0.3599l0,0C413.1289,153.6191,412.2988,153.1792,411.8291,152.3994z M87.5591,147.5991
		c-1.1597-0.75-1.4897-2.2998-0.7397-3.4497l0,0c0.75-1.1602,2.2998-1.4902,3.46-0.7402l0,0c1.1499,0.75,1.48,2.3003,0.73,3.46l0,0
		c-0.48,0.7402-1.2798,1.1401-2.1001,1.1401l0,0C88.4492,148.0093,87.9795,147.8794,87.5591,147.5991z M404.8789,141.6792
		c-0.79-1.1299-0.5195-2.6899,0.6201-3.48l0,0c1.1299-0.79,2.6904-0.5098,3.4805,0.6201l0,0c0.79,1.1401,0.5098,2.6997-0.6201,3.48
		l0,0c-0.4404,0.3101-0.9404,0.4502-1.4297,0.4502l0,0C406.1396,142.7495,405.3594,142.3794,404.8789,141.6792z M94.8193,136.8994
		c-1.1099-0.8203-1.3301-2.3901-0.5-3.4902l0,0c0.8301-1.1099,2.3901-1.3301,3.5-0.5098l0,0c1.1001,0.8301,1.3301,2.3999,0.5,3.5
		l0,0c-0.4902,0.6597-1.2402,1-2,1l0,0C95.7891,137.3994,95.269,137.2393,94.8193,136.8994z M397.2197,131.4595L397.2197,131.4595
		L397.2197,131.4595c-0.8604-1.0801-0.6904-2.6504,0.3896-3.52l0,0c1.0703-0.8604,2.6494-0.6899,3.5098,0.3896l0,0
		c0.8604,1.0703,0.6904,2.6504-0.3799,3.5103l0,0c-0.46,0.3701-1.0195,0.5498-1.5703,0.5498l0,0
		C398.4395,132.3892,397.7197,132.0693,397.2197,131.4595z M102.7891,126.7192c-1.0498-0.8999-1.1699-2.48-0.27-3.5298h0.0103
		c0.8901-1.04,2.4702-1.1602,3.52-0.2603l0,0c1.0498,0.8999,1.1699,2.48,0.27,3.52l0,0c-0.5,0.5801-1.2002,0.8701-1.8999,0.8701l0,0
		C103.8394,127.3193,103.2593,127.1191,102.7891,126.7192z M388.8994,121.769c-0.9404-1.0195-0.8701-2.5996,0.1494-3.5298l0,0
		c1.0107-0.9399,2.6006-0.8701,3.5303,0.1499l0,0c0.9297,1.0103,0.8701,2.5903-0.1494,3.5303l0,0
		c-0.4805,0.4399-1.0908,0.6597-1.6904,0.6597l0,0C390.0693,122.5791,389.3896,122.3091,388.8994,121.769z M111.4292,117.0894
		c-0.9897-0.9702-1-2.5503-0.0298-3.54l0,0c0.9697-0.98,2.5498-0.9902,3.54-0.0303l0,0c0.98,0.9702,0.9897,2.5601,0.02,3.54l0,0
		c-0.4902,0.5-1.1304,0.75-1.7803,0.75l0,0C112.5493,117.8091,111.9092,117.5693,111.4292,117.0894z M379.9492,112.6592
		c-1-0.9497-1.04-2.5298-0.0898-3.5298l0,0c0.9502-1,2.5303-1.04,3.5303-0.0903l0,0c1,0.9502,1.04,2.54,0.0898,3.54l0,0
		c-0.4902,0.5103-1.1504,0.77-1.8105,0.77l0,0C381.0488,113.3491,380.4297,113.1191,379.9492,112.6592z M120.6895,108.0591
		c-0.9204-1.04-0.8203-2.6196,0.21-3.5298l0,0c1.0298-0.9199,2.6099-0.8301,3.5298,0.2002l0,0
		c0.9199,1.0396,0.8203,2.6196-0.21,3.5298l0,0c0,0,0,0,0,0.0098l0,0c-0.4697,0.4204-1.0698,0.6304-1.6602,0.6304l0,0
		C121.8691,108.8994,121.1895,108.6094,120.6895,108.0591z M370.3994,104.1792c0,0,0,0,0.0098,0l0,0
		c-1.0703-0.8799-1.21-2.4497-0.3301-3.52l0,0c0.8799-1.0601,2.46-1.1997,3.5205-0.3198l0,0c1.0596,0.8799,1.21,2.4497,0.3193,3.52
		l0,0c-0.4893,0.5898-1.1992,0.8999-1.9199,0.8999l0,0C371.4395,104.7593,370.8691,104.5693,370.3994,104.1792z M130.5493,99.6694
		c-0.8501-1.1001-0.6499-2.6699,0.4399-3.5103l0,0c1.0898-0.8501,2.6602-0.6499,3.5103,0.4399l0,0
		c0.8398,1.1001,0.6396,2.6699-0.4502,3.5103l0,0l0,0l0,0c-0.4502,0.3501-0.9902,0.52-1.5303,0.52l0,0
		C131.7793,100.6294,131.0391,100.2993,130.5493,99.6694z M360.3193,96.3594c-1.1201-0.8101-1.3701-2.3701-0.5703-3.4902l0,0
		c0.8105-1.1196,2.3799-1.3696,3.4902-0.5601l0,0c1.1201,0.8101,1.3701,2.3701,0.5703,3.4902l0,0
		c-0.4902,0.6802-1.2607,1.04-2.0303,1.04l0,0C361.2695,96.8394,360.7588,96.6792,360.3193,96.3594z M140.9395,91.9492
		c-0.77-1.1401-0.46-2.6997,0.6797-3.46l0,0c1.1499-0.7798,2.7002-0.4702,3.4702,0.6802l0,0c0.77,1.1396,0.4697,2.6899-0.6802,3.46
		l0,0c-0.4297,0.29-0.9097,0.4297-1.3901,0.4297l0,0C142.2095,93.0591,141.4194,92.6694,140.9395,91.9492z M349.7295,89.2393
		c-1.1699-0.73-1.5303-2.27-0.7998-3.4502l0,0c0.7295-1.1699,2.2793-1.52,3.4492-0.7896l0,0c1.1699,0.73,1.5205,2.2695,0.79,3.4399
		l0,0c-0.4697,0.7598-1.29,1.1797-2.1201,1.1797l0,0C350.5996,89.6191,350.1396,89.4995,349.7295,89.2393z M151.8394,84.9595
		c-0.6899-1.2002-0.29-2.7202,0.9102-3.4204l0,0c1.1997-0.6899,2.7197-0.2798,3.4199,0.9204l0,0
		c0.6899,1.1899,0.2798,2.7197-0.9199,3.4097l0,0l0,0l0,0c-0.3901,0.23-0.8203,0.3403-1.25,0.3403l0,0
		C153.1392,86.2095,152.2993,85.7593,151.8394,84.9595z M338.6895,82.8491c-1.2197-0.6499-1.6807-2.1699-1.0303-3.3896l0,0
		c0.6504-1.21,2.1699-1.6704,3.3799-1.02l0,0c1.2197,0.6499,1.6807,2.1597,1.0303,3.3799l0,0
		c-0.4502,0.8398-1.3105,1.3198-2.21,1.3198l0,0C339.459,83.1392,339.0596,83.0493,338.6895,82.8491z M163.1792,78.7192
		c-0.6099-1.2397-0.1001-2.7397,1.1401-3.3501l0,0c1.2397-0.6099,2.7397-0.1001,3.3501,1.1401l0,0
		c0.6099,1.2402,0.0996,2.7402-1.1401,3.3501l0,0c-0.3599,0.1699-0.73,0.2598-1.1001,0.2598l0,0
		C164.4995,80.1191,163.6094,79.5991,163.1792,78.7192z M327.2393,77.2192c-1.2598-0.5698-1.8203-2.0498-1.25-3.3101l0,0
		c0.5596-1.2598,2.04-1.8198,3.2998-1.25l0,0c1.2598,0.5703,1.8203,2.0503,1.2598,3.3101l0,0
		c-0.4199,0.9199-1.3291,1.4702-2.29,1.4702l0,0C327.9189,77.4395,327.5693,77.3691,327.2393,77.2192z M174.9194,73.2495
		c-0.52-1.27,0.0898-2.7305,1.3696-3.2603l0,0c1.2803-0.52,2.7402,0.0898,3.2603,1.3701l0,0
		c0.5298,1.2798-0.0898,2.7397-1.3701,3.2598l0,0c-0.3101,0.1304-0.6299,0.1899-0.9399,0.1899l0,0
		C176.2495,74.8091,175.3193,74.2192,174.9194,73.2495z M315.4492,72.3794L315.4492,72.3794L315.4492,72.3794
		c-1.2998-0.48-1.96-1.9199-1.4795-3.21l0,0c0.4795-1.3003,1.9199-1.96,3.2197-1.48l0,0c1.29,0.48,1.9502,1.9199,1.4697,3.2197l0,0
		c-0.3701,1.0103-1.3301,1.6299-2.3496,1.6299l0,0C316.0293,72.5391,315.7295,72.4893,315.4492,72.3794z M187.019,68.5991
		c-0.4399-1.3101,0.27-2.7197,1.5801-3.1597l0,0c1.3101-0.4302,2.73,0.2798,3.1602,1.5898l0,0
		c0.4399,1.3101-0.27,2.73-1.5801,3.1602l0,0c0,0,0,0-0.0098,0l0,0c-0.2603,0.0898-0.52,0.1299-0.7803,0.1299l0,0
		C188.3394,70.3193,187.3594,69.6494,187.019,68.5991z M303.3389,68.3491c-1.3301-0.3896-2.0898-1.7798-1.6895-3.0996l0,0
		c0.3896-1.3301,1.7803-2.0801,3.0996-1.6904l0,0c1.3203,0.3901,2.0801,1.7803,1.6904,3.1001l0,0
		c-0.3203,1.0903-1.3203,1.79-2.4004,1.79l0,0C303.8096,68.4492,303.5693,68.4194,303.3389,68.3491z M199.3794,64.7891
		c-0.3501-1.3398,0.46-2.6997,1.7998-3.0396l0,0c1.3301-0.3501,2.7002,0.46,3.04,1.7998l0,0c0.3398,1.3301-0.46,2.7002-1.7998,3.04
		l0,0c-0.21,0.0498-0.4199,0.0801-0.6201,0.0801l0,0C200.6895,66.6694,199.6694,65.9194,199.3794,64.7891z M290.9795,65.1494
		c-1.3506-0.29-2.2002-1.6304-1.9004-2.98l0,0c0.2998-1.3501,1.6299-2.2002,2.9805-1.9004l0,0
		c1.3496,0.3003,2.1992,1.6401,1.8994,2.9902l0,0c-0.2598,1.1602-1.29,1.9502-2.4395,1.9502l0,0
		C291.3389,65.2095,291.1592,65.1895,290.9795,65.1494z M211.9692,61.8291c-0.25-1.3599,0.6401-2.6597,2-2.9199l0,0
		c1.3599-0.25,2.6602,0.6499,2.9199,2l0,0c0.25,1.3599-0.6499,2.6699-2,2.9199l0,0c-0.1597,0.0303-0.3101,0.04-0.46,0.04l0,0
		C213.2495,63.8691,212.1992,63.0293,211.9692,61.8291z M278.4297,62.7993c-1.3701-0.2002-2.3008-1.48-2.1006-2.8501l0,0
		c0.21-1.3599,1.4902-2.2998,2.8506-2.0898l0,0c1.3691,0.21,2.3096,1.48,2.0996,2.8501l0,0
		c-0.1904,1.2397-1.2598,2.1196-2.4697,2.1196l0,0C278.6797,62.8291,278.5596,62.8193,278.4297,62.7993z M224.7393,59.7295
		c-0.1699-1.3701,0.8198-2.6104,2.1899-2.77v-0.0103c1.3701-0.1602,2.6099,0.8301,2.77,2.2002l0,0
		c0.1602,1.3696-0.8198,2.6099-2.1899,2.77l0,0l0,0l0,0c-0.1001,0.0098-0.2002,0.02-0.29,0.02l0,0
		C225.9692,61.9395,224.8892,60.9995,224.7393,59.7295z M265.749,61.3091L265.749,61.3091L265.749,61.3091
		c-1.3701-0.1196-2.3994-1.3296-2.2793-2.6997l0,0c0.1191-1.3799,1.3291-2.3999,2.6992-2.29l0,0
		c1.3799,0.1201,2.4004,1.3301,2.2803,2.6997l0,0c-0.1104,1.3101-1.2002,2.29-2.4902,2.29l0,0
		C265.8994,61.3091,265.8193,61.3091,265.749,61.3091z M237.6094,58.4893c-0.0703-1.3799,1-2.5498,2.3799-2.6201l0,0
		c1.3701-0.0698,2.5498,1,2.6201,2.3804l0,0c0.0601,1.3696-1,2.5498-2.3799,2.6196l0,0c-0.04,0-0.0801,0-0.1304,0l0,0
		C238.7793,60.8691,237.6792,59.8291,237.6094,58.4893z M252.999,60.6592c-1.3799-0.02-2.48-1.1597-2.46-2.54l0,0
		c0.0303-1.3799,1.1602-2.48,2.5498-2.46l0,0c1.3701,0.02,2.4805,1.1602,2.4502,2.5503l0,0
		c-0.0195,1.3599-1.1396,2.4497-2.4902,2.4497l0,0C253.0293,60.6592,253.0195,60.6592,252.999,60.6592z"/>
</g>
</svg>
