<?xml version="1.0" encoding="utf-8"?>
<!-- Generator: Adobe Illustrator 16.0.0, SVG Export Plug-In . SVG Version: 6.00 Build 0)  -->
<!DOCTYPE svg PUBLIC "-//W3C//DTD SVG 1.1//EN" "http://www.w3.org/Graphics/SVG/1.1/DTD/svg11.dtd">
<svg version="1.1" id="C" xmlns="http://www.w3.org/2000/svg" xmlns:xlink="http://www.w3.org/1999/xlink" x="0px" y="0px"
	 width="493.936px" height="193.621px" viewBox="0 0 493.936 193.621" enable-background="new 0 0 493.936 193.621"
	 xml:space="preserve">
<g id="Change1">
	<path fill="#8CCDB0" d="M416.959,19.833c-5.9,0-11.638,0.686-17.158,1.943c-4.094-5.912-10.399-10.368-16.044-10.935
		C338.161,6.465,246.968,38.869,246.968,0c0,37.799-91.189,6.465-136.785,10.842c-5.645,0.567-11.951,5.022-16.047,10.935
		c-5.52-1.257-11.258-1.943-17.159-1.943C34.465,19.833,0,54.296,0,96.81c0,42.51,34.465,76.977,76.977,76.977
		c5.902,0,11.64-0.688,17.161-1.945c4.096,5.914,10.401,10.369,16.045,10.938c45.596,4.377,136.785-24.711,136.785,10.842
		c0-36.08,91.193-6.465,136.789-10.842c5.645-0.568,11.948-5.023,16.043-10.938c5.521,1.258,11.258,1.945,17.159,1.945
		c42.514,0,76.977-34.467,76.977-76.977C493.936,54.296,459.473,19.833,416.959,19.833z"/>
</g>
</svg>
