<?xml version="1.0" encoding="utf-8"?>
<!-- Generator: Adobe Illustrator 16.0.0, SVG Export Plug-In . SVG Version: 6.00 Build 0)  -->
<!DOCTYPE svg PUBLIC "-//W3C//DTD SVG 1.1//EN" "http://www.w3.org/Graphics/SVG/1.1/DTD/svg11.dtd">
<svg version="1.1" id="C" xmlns="http://www.w3.org/2000/svg" xmlns:xlink="http://www.w3.org/1999/xlink" x="0px" y="0px"
	 width="489.229px" height="264.228px" viewBox="0 0 489.229 264.228" enable-background="new 0 0 489.229 264.228"
	 xml:space="preserve">
<g id="Change1">
	<path fill="#318BA2" d="M475.731,47.818c-3.832-11.726-17.451-22.23-29.118-23.228c-32.051-2.604-64.103-4.582-96.153-5.946
		C319.502,6.809,283.304,0,244.615,0c-38.69,0-74.889,6.809-105.847,18.645c-32.049,1.365-64.099,3.341-96.149,5.946
		C30.953,25.588,17.331,36.092,13.5,47.818c-18,56.197-18,112.394,0,168.59c3.831,11.727,17.453,22.236,29.119,23.229
		c32.051,2.604,64.103,4.581,96.154,5.945c30.957,11.836,67.154,18.646,105.842,18.646c38.688,0,74.884-6.809,105.84-18.645
		c32.053-1.365,64.104-3.343,96.158-5.946c11.667-0.992,25.286-11.502,29.118-23.229
		C493.729,160.212,493.729,104.015,475.731,47.818z"/>
</g>
</svg>
