<?xml version="1.0" encoding="utf-8"?>
<!-- Generator: Adobe Illustrator 16.0.0, SVG Export Plug-In . SVG Version: 6.00 Build 0)  -->
<!DOCTYPE svg PUBLIC "-//W3C//DTD SVG 1.1//EN" "http://www.w3.org/Graphics/SVG/1.1/DTD/svg11.dtd">
<svg version="1.1" xmlns="http://www.w3.org/2000/svg" xmlns:xlink="http://www.w3.org/1999/xlink" x="0px" y="0px"
	 width="492.068px" height="428.281px" viewBox="0 0 492.068 428.281" enable-background="new 0 0 492.068 428.281"
	 xml:space="preserve">
<g id="C">
	<g id="Change1">
		<path fill="#EE826C" d="M308.302,0c-34.931,0-92.642,0-124.536,0c-31.893,0-88.424,0-88.424,0c-0.758,0-1.508,0.031-2.259,0.057
			v428.167c0.751,0.025,1.501,0.057,2.259,0.057c0,0,53.494,0,88.424,0c34.931,0,92.643,0,124.536,0c25.244,0,65.916,0,81.781,0V0
			C374.685,0,335.761,0,308.302,0z"/>
	</g>
</g>
<g id="E">
	<g id="Change1_1_">
		<path fill="#EE826C" d="M460.175,151.873c0-34.931,0-88.424,0-88.424C460.175,28.411,431.771,0,396.727,0c0,0-2.453,0-6.644,0
			v428.281c4.18,0,6.644,0,6.644,0c35.044,0,63.448-28.411,63.448-63.448c0,0,0-47.419,0-88.425s31.894-62.268,31.894-62.268
			S460.175,186.804,460.175,151.873z"/>
	</g>
</g>
<g id="W">
	<g id="Change1_2_">
		<path fill="#EE826C" d="M31.894,63.448c0,0,0,50.456,0,88.424S0,214.141,0,214.141s31.894,30.375,31.894,62.268
			c0,31.894,0,88.425,0,88.425c0,34.279,27.194,62.199,61.189,63.392V0.057C59.088,1.249,31.894,29.168,31.894,63.448z"/>
	</g>
</g>
</svg>
