<?xml version="1.0" encoding="utf-8"?>
<!-- Generator: Adobe Illustrator 16.0.0, SVG Export Plug-In . SVG Version: 6.00 Build 0)  -->
<!DOCTYPE svg PUBLIC "-//W3C//DTD SVG 1.1//EN" "http://www.w3.org/Graphics/SVG/1.1/DTD/svg11.dtd">
<svg version="1.1" id="C" xmlns="http://www.w3.org/2000/svg" xmlns:xlink="http://www.w3.org/1999/xlink" x="0px" y="0px"
	 width="497.199px" height="284.936px" viewBox="0 0 497.199 284.936" enable-background="new 0 0 497.199 284.936"
	 xml:space="preserve">
<g id="Change1">
	<path fill="#EE826C" d="M389.152,34.424c-8.62,0-16.993,1.035-25.027,2.944C333.681,14.165,293.128,0,248.597,0
		c-44.529,0-85.078,14.165-115.522,37.368c-8.04-1.909-16.411-2.944-25.03-2.944C48.374,34.424,0,82.795,0,142.468
		s48.374,108.044,108.044,108.044c8.62,0,16.99-1.036,25.027-2.944c30.447,23.203,70.997,37.368,115.525,37.368
		c44.534,0,85.084-14.165,115.528-37.368c8.034,1.908,16.407,2.944,25.027,2.944c59.67,0,108.047-48.371,108.047-108.044
		S448.822,34.424,389.152,34.424z"/>
</g>
</svg>
