<?xml version="1.0" encoding="utf-8"?>
<!-- Generator: Adobe Illustrator 21.0.0, SVG Export Plug-In . SVG Version: 6.00 Build 0)  -->
<svg version="1.1" id="Outline-Circle1-D6" xmlns="http://www.w3.org/2000/svg" xmlns:xlink="http://www.w3.org/1999/xlink" x="0px"
	 y="0px" viewBox="0 0 500 500" enable-background="new 0 0 500 500" xml:space="preserve">
<g id="change1">
	<path fill="#D8335B" d="M426.8,73.2C379.6,26,316.8,0,250,0S120.4,26,73.2,73.2S0,183.2,0,250s26,129.6,73.2,176.8
		C120.4,474,183.2,500,250,500s129.6-26,176.8-73.2C474,379.6,500,316.8,500,250S474,120.4,426.8,73.2z M250,79.8
		c93.8,0,170.2,76.4,170.2,170.2S343.8,420.2,250,420.2S79.8,343.9,79.8,250S156.2,79.8,250,79.8z M402.3986,346
		c17.5963-27.8185,27.8015-60.7467,27.8015-96s-10.2051-68.1815-27.8015-96h67.5288C482.8237,183.4175,490,215.8868,490,250
		s-7.1763,66.5825-20.0726,96H402.3986z M250,10c94.2738,0,176.0419,54.6948,215.2664,134H395.592
		C362.778,99.0709,309.7219,69.8,250,69.8c-59.7411,0-112.8121,29.2535-145.6237,74.2H34.7336C73.9581,64.6948,155.7262,10,250,10z
		 M30.0726,154h67.5011C79.9946,181.8077,69.8,214.7299,69.8,250s10.1946,68.1923,27.7737,96H30.0726
		C17.1763,316.5825,10,284.1132,10,250S17.1763,183.4175,30.0726,154z M250,490c-94.2738,0-176.0419-54.6948-215.2664-134h69.6428
		c32.8116,44.9465,85.8826,74.2,145.6237,74.2c59.7219,0,112.778-29.2709,145.592-74.2h69.6744
		C426.0419,435.3052,344.2738,490,250,490z"/>
</g>
</svg>
