<?xml version="1.0" encoding="utf-8"?>
<!-- Generator: Adobe Illustrator 21.0.0, SVG Export Plug-In . SVG Version: 6.00 Build 0)  -->
<svg version="1.1" id="Badge-Vintage-d23" xmlns="http://www.w3.org/2000/svg" xmlns:xlink="http://www.w3.org/1999/xlink" x="0px"
	 y="0px" viewBox="0 0 286.6012 286.6012" enable-background="new 0 0 286.6012 286.6012" xml:space="preserve">
<g id="change1">
	<path fill="#FFF291" d="M282.6775,143.3599c0-23.0544-8.9611-44.4519-24.2718-62.1449v-5.3623
		c0-13.1546-10.6392-23.8224-23.7822-23.8727V33.1449H210.752C192.1,14.832,168.6789,3.9237,143.2413,3.9237
		S94.3827,14.832,75.7308,33.1449H51.8592V51.98C38.7163,52.0303,28.077,62.6981,28.077,75.8527v5.3623
		C12.7662,98.9079,3.8052,120.3055,3.8052,143.3599c0,23.0542,8.961,44.4518,24.2718,62.1449v5.3623
		c0,13.1546,10.6393,23.8223,23.7823,23.8727v18.8351h23.8715c18.6519,18.313,42.073,29.2213,67.5106,29.2213
		s48.8589-10.9083,67.5107-29.2213h23.8715v-18.8351c13.1429-0.0504,23.7822-10.718,23.7822-23.8727v-5.3623
		C273.7164,187.8117,282.6775,166.4141,282.6775,143.3599z"/>
</g>
<g id="change2">
	<path fill="#C6B659" d="M143.3006,6c23.7748,0,46.313,9.7903,65.1782,28.3124l1.7504,1.7186h2.4531h18.5331v13.3572v5.9771
		l5.9771,0.0229c10.1812,0.039,18.4643,8.3534,18.4643,18.5343v5.5109v2.2356l1.463,1.6906
		c15.3617,17.7519,23.4815,38.4792,23.4815,59.941c0,21.4618-8.1198,42.189-23.4816,59.941l-1.4629,1.6906v2.2356v5.5109
		c0,10.1808-8.2831,18.4953-18.4643,18.5343l-5.977,0.0229v5.9771v13.3571h-18.5331h-2.4532l-1.7505,1.7187
		c-18.8648,18.5222-41.403,28.3124-65.1781,28.3124c-23.7749,0-46.3131-9.7903-65.1781-28.3124l-1.7504-1.7187H73.919H55.3859
		V237.213v-5.9771l-5.977-0.0229c-10.1813-0.039-18.4644-8.3535-18.4644-18.5343v-5.5109v-2.2356l-1.4629-1.6906
		C14.1198,185.4896,6,164.7624,6,143.3006c0-21.4619,8.1198-42.1891,23.4816-59.941l1.463-1.6906v-2.2356v-5.5109
		c0-10.1809,8.2831-18.4953,18.4643-18.5343l5.9771-0.0229v-5.9771V36.031H73.919h2.4531l1.7504-1.7186
		C96.9876,15.7903,119.5258,6,143.3006,6 M143.3006,0C117.158,0,93.0879,11.2106,73.919,30.031H49.3859v19.3572
		c-13.5072,0.0517-24.4414,11.0151-24.4414,24.5343v5.5109C9.2094,97.6167,0,119.6073,0,143.3006
		c0,23.6932,9.2094,45.6838,24.9445,63.8672v5.5109c0,13.5192,10.9342,24.4825,24.4414,24.5343v19.3571H73.919
		c19.1688,18.8205,43.239,30.0311,69.3816,30.0311s50.213-11.2106,69.3817-30.0311h24.5331V237.213
		c13.5072-0.0518,24.4413-11.0151,24.4413-24.5343v-5.5109c15.7351-18.1834,24.9445-40.174,24.9445-63.8672
		c0-23.6933-9.2094-45.6839-24.9445-63.8672v-5.5109c0-13.5192-10.9341-24.4826-24.4413-24.5343V30.031h-24.5331
		C193.5134,11.2106,169.4432,0,143.3006,0L143.3006,0z"/>
</g>
<g id="change3">
	<g>
		<g>
			<path fill="#C6B659" d="M63.3859,243.5731c-0.27,0-0.52-0.1094-0.71-0.2998c-0.0898-0.0898-0.1602-0.2002-0.21-0.3193
				c-0.0503-0.1201-0.0801-0.25-0.0801-0.3809c0-0.1299,0.0298-0.2598,0.0801-0.3896c0.0498-0.1201,0.1201-0.2295,0.21-0.3203
				c0.3799-0.3701,1.0498-0.3701,1.4199,0c0.0898,0.0908,0.1602,0.2002,0.21,0.3203c0.0503,0.1299,0.0801,0.2598,0.0801,0.3896
				c0,0.1309-0.0298,0.2607-0.0801,0.3809c-0.0498,0.1191-0.1201,0.2295-0.21,0.3193
				C63.9059,243.4637,63.6559,243.5731,63.3859,243.5731z"/>
		</g>
		<g>
			<path fill="#C6B659" d="M62.3859,236.1337c0-0.5498,0.4502-1,1-1l0,0c0.5498,0,1,0.4502,1,1l0,0c0,0.5498-0.4502,1-1,1l0,0
				C62.8361,237.1337,62.3859,236.6835,62.3859,236.1337z M62.3859,229.704c0-0.5508,0.4502-1,1-1l0,0c0.5498,0,1,0.4492,1,1l0,0
				c0,0.5498-0.4502,1-1,1l0,0C62.8361,230.704,62.3859,230.2538,62.3859,229.704z"/>
		</g>
		<g>
			<path fill="#C6B659" d="M63.3859,224.2635c-0.27,0-0.52-0.0996-0.71-0.29c-0.0898-0.0996-0.1602-0.2002-0.21-0.3203
				c-0.0503-0.1299-0.0801-0.25-0.0801-0.3896c0-0.1299,0.0298-0.2598,0.0801-0.3799c0.0498-0.1201,0.1201-0.2305,0.21-0.3203
				c0.1001-0.0996,0.1997-0.1699,0.3301-0.2197c0.2397-0.1006,0.52-0.1006,0.7598,0c0.1299,0.0498,0.23,0.1201,0.3301,0.2197
				c0.0898,0.0898,0.1602,0.2002,0.21,0.3203c0.0503,0.1201,0.0801,0.25,0.0801,0.3799c0,0.1396-0.0298,0.2598-0.0801,0.3896
				c-0.0498,0.1201-0.1201,0.2207-0.21,0.3203C63.9059,224.1639,63.6559,224.2635,63.3859,224.2635z"/>
		</g>
		<g>
			<path fill="#C6B659" d="M57.296,224.243c-0.5503,0-1-0.4492-0.9902-1l0,0c0-0.5596,0.4502-1,1-1l0,0c0.5503,0,1,0.4502,1,1l0,0
				c0,0.5508-0.4497,1-1,1l0,0C57.3058,224.243,57.3058,224.243,57.296,224.243z M51.2159,224.2235c-0.5503-0.0098-1-0.46-1-1.0098
				l0,0c0.0098-0.5498,0.4497-1,1.0098-0.9902l0,0c0.5503,0,0.9902,0.4502,0.9902,1l0,0
				C52.2159,223.7733,51.7657,224.2235,51.2159,224.2235L51.2159,224.2235L51.2159,224.2235z M44.8561,223.243
				c-0.5-0.2197-0.7305-0.8096-0.5103-1.3193l0,0c0.2202-0.5,0.8101-0.7305,1.3198-0.5098l0,0c0.5,0.2197,0.73,0.8096,0.5103,1.3193
				l0,0c-0.1699,0.3701-0.5303,0.5898-0.9199,0.5898l0,0C45.1256,223.3231,44.986,223.3036,44.8561,223.243z M39.8458,219.0033
				c-0.3101-0.46-0.1802-1.0796,0.2798-1.3799l0,0c0.4604-0.3101,1.0801-0.1797,1.3901,0.2803l0,0
				c0.3003,0.46,0.1699,1.0801-0.29,1.3896l0,0c-0.1699,0.1104-0.3599,0.1602-0.5498,0.1602l0,0
				C40.3561,219.4535,40.0358,219.3036,39.8458,219.0033z M37.9459,212.7235c0-0.5498,0.4399-1,0.9897-1l0,0
				c0.5601-0.0098,1.0103,0.4399,1.0103,0.9902l0,0c0,0.5498-0.4502,1-1,1l0,0C38.3956,213.7235,37.9459,213.2733,37.9459,212.7235z
				 M37.9459,212.7235L37.9459,212.7235L37.9459,212.7235L37.9459,212.7235L37.9459,212.7235L37.9459,212.7235z M37.9459,206.6337
				c0-0.5503,0.4497-1,1-1l0,0c0.5498,0,1,0.4497,1,1l0,0c0,0.5498-0.4502,1-1,1l0,0
				C38.3956,207.6337,37.9459,207.1835,37.9459,206.6337z M37.276,201.5433c-0.3701-0.4097-0.3203-1.0498,0.0996-1.4097l0,0
				c0.4102-0.3604,1.0503-0.3101,1.4102,0.1099l0,0c0.3599,0.4102,0.3203,1.04-0.1001,1.4102l0,0
				c-0.1899,0.1597-0.4199,0.2397-0.6597,0.2397l0,0C37.7457,201.8934,37.4659,201.7733,37.276,201.5433z M33.296,196.9135
				c-0.3501-0.4199-0.29-1.0498,0.1299-1.4102l0,0c0.4302-0.3496,1.0601-0.2896,1.4102,0.1401l0,0
				c0.3599,0.4199,0.2896,1.0503-0.1304,1.4102l0,0c-0.1899,0.1499-0.4097,0.2197-0.6396,0.2197l0,0
				C33.776,197.2733,33.4957,197.1537,33.296,196.9135z M29.526,192.0634c-0.3203-0.4497-0.2202-1.0698,0.2197-1.3999l0,0
				c0.4502-0.3198,1.0703-0.2197,1.3999,0.2202l0,0c0.3203,0.4497,0.2202,1.0698-0.2197,1.3999l0,0
				c-0.1802,0.1299-0.3799,0.1899-0.5898,0.1899l0,0C30.026,192.4735,29.7257,192.3334,29.526,192.0634z M26.0758,186.9838
				L26.0758,186.9838L26.0758,186.9838c-0.2998-0.4702-0.1602-1.0903,0.2998-1.3804l0,0c0.4702-0.2998,1.0903-0.1597,1.3804,0.3101
				l0,0c0.2998,0.46,0.1597,1.0801-0.3101,1.3799l0,0c-0.1602,0.1001-0.3501,0.1504-0.5303,0.1504l0,0
				C26.5861,187.4437,26.2657,187.2836,26.0758,186.9838z M22.9557,181.6737L22.9557,181.6737L22.9557,181.6737
				c-0.2598-0.4902-0.0801-1.0903,0.4004-1.3604l0,0c0.4897-0.2598,1.0996-0.0796,1.3599,0.4102l0,0
				c0.2598,0.48,0.0801,1.0898-0.3999,1.3501l0,0c-0.1602,0.0801-0.3203,0.1201-0.48,0.1201l0,0
				C23.486,182.1937,23.1359,182.0033,22.9557,181.6737z M20.2159,176.1635c-0.23-0.5098-0.0103-1.1001,0.5-1.3301l0,0
				c0.5-0.2197,1.0898,0,1.3198,0.5l0,0c0.23,0.5103,0.0103,1.1001-0.5,1.3301l0,0c-0.1299,0.0601-0.27,0.0898-0.4102,0.0898l0,0
				C20.7457,176.7533,20.3859,176.5336,20.2159,176.1635z M17.8756,170.4637L17.8756,170.4637L17.8756,170.4637
				c-0.1899-0.52,0.0801-1.0903,0.6001-1.2803l0,0c0.52-0.1997,1.0903,0.0698,1.2803,0.5898l0,0
				c0.1899,0.52-0.0703,1.0903-0.5903,1.2803l0,0c-0.1196,0.0498-0.23,0.0698-0.3496,0.0698l0,0
				C18.4156,171.1234,18.026,170.8636,17.8756,170.4637z M15.9757,164.6034c-0.1499-0.5298,0.1602-1.0801,0.6899-1.23l0,0
				c0.5303-0.1499,1.0801,0.1602,1.23,0.6899h0.0103c0.1499,0.5303-0.1602,1.0801-0.7002,1.23l0,0
				c-0.0898,0.0303-0.1797,0.04-0.27,0.04l0,0C16.506,165.3334,16.0958,165.0433,15.9757,164.6034z M14.526,158.6234
				c-0.1104-0.5498,0.2397-1.0698,0.7798-1.1797l0,0c0.54-0.1104,1.0698,0.2397,1.1802,0.7798l0,0
				c0.1099,0.54-0.2402,1.0698-0.7803,1.1802l0,0c-0.0698,0.0098-0.1299,0.02-0.1997,0.02l0,0
				C15.0358,159.4237,14.6256,159.0936,14.526,158.6234z M13.546,152.5336c0,0,0,0,0.0098,0l0,0
				c-0.0698-0.54,0.3198-1.04,0.8701-1.1099l0,0c0.5498-0.0601,1.0498,0.3296,1.1099,0.8799l0,0
				c0.0703,0.54-0.3198,1.04-0.8701,1.1099l0,0c-0.04,0-0.0796,0-0.1196,0l0,0C14.046,153.4135,13.6158,153.0433,13.546,152.5336z
				 M13.066,146.4037c-0.0303-0.5601,0.3999-1.02,0.9497-1.0503l0,0c0.5601-0.02,1.02,0.4102,1.0503,0.9702l0,0
				c0.02,0.5498-0.4102,1.0098-0.9702,1.0298l0,0c-0.0098,0-0.02,0-0.04,0l0,0C13.526,147.3534,13.0861,146.9335,13.066,146.4037z
				 M14.0157,141.2733c-0.5498-0.02-0.98-0.48-0.96-1.0396l0,0c0,0,0,0,0.0103,0l0,0c0.02-0.5503,0.48-0.9805,1.0298-0.9604l0,0
				c0.5601,0.02,0.98,0.4902,0.96,1.04l0,0c-0.02,0.54-0.46,0.96-1,0.96l0,0C14.046,141.2733,14.0358,141.2733,14.0157,141.2733z
				 M14.4259,135.2035c-0.5503-0.0601-0.9399-0.5601-0.8799-1.1099l0,0c0.0698-0.5503,0.5698-0.9399,1.1099-0.8701l0,0
				c0.5498,0.0601,0.9399,0.5601,0.8799,1.1099l0,0c-0.0601,0.5103-0.4897,0.8804-0.9897,0.8804l0,0
				C14.506,135.2137,14.4659,135.2137,14.4259,135.2035z M15.3058,129.1937c-0.54-0.1104-0.8901-0.6401-0.79-1.1802l0,0
				c0.1099-0.54,0.6401-0.8901,1.1802-0.7798l0,0c0.54,0.1099,0.8901,0.6299,0.79,1.1699l0,0
				c-0.1001,0.48-0.52,0.8101-0.9902,0.8101l0,0C15.4357,129.2137,15.3658,129.2035,15.3058,129.1937z M16.6559,123.2635
				c-0.5303-0.1499-0.8398-0.7002-0.6899-1.23l0,0c0.1499-0.54,0.6997-0.8501,1.23-0.6899l0,0
				c0.54,0.1401,0.8398,0.6997,0.6997,1.23l0,0c-0.1299,0.4399-0.5298,0.73-0.9697,0.73l0,0
				C16.8361,123.3036,16.7457,123.2933,16.6559,123.2635z M18.4659,117.4637c-0.5303-0.2002-0.79-0.77-0.6001-1.29l0,0l0,0l0,0
				c0.1899-0.52,0.7598-0.7803,1.2798-0.5903l0,0c0.52,0.1899,0.79,0.7603,0.6001,1.2803l0,0
				c-0.1499,0.4097-0.5298,0.6597-0.9399,0.6597l0,0C18.6857,117.5233,18.5758,117.5033,18.4659,117.4637z M20.6959,111.8036
				c-0.5-0.23-0.73-0.8198-0.5-1.3198l0,0l0,0l0,0c0.23-0.5,0.8198-0.7305,1.3198-0.5l0,0c0.5103,0.23,0.73,0.8198,0.5,1.3198l0,0
				c-0.1699,0.3701-0.5298,0.5898-0.9097,0.5898l0,0C20.9659,111.8934,20.8258,111.8636,20.6959,111.8036z M23.3361,106.3334
				c-0.4902-0.27-0.6704-0.8696-0.4004-1.3599l0,0l0,0l0,0c0.2603-0.48,0.8604-0.6602,1.3501-0.3999l0,0
				c0.48,0.2598,0.6602,0.8701,0.3999,1.3501l0,0c-0.1797,0.3398-0.52,0.5298-0.8799,0.5298l0,0
				C23.6456,106.4535,23.486,106.4135,23.3361,106.3334z M26.3458,101.0536c-0.46-0.3003-0.6001-0.9199-0.3101-1.3799l0,0l0,0l0,0
				c0.3003-0.4702,0.9199-0.6104,1.3799-0.3101l0,0c0.4702,0.29,0.6104,0.9097,0.3101,1.3799l0,0
				c-0.1899,0.2998-0.5098,0.46-0.8398,0.46l0,0C26.6959,101.2035,26.5157,101.1537,26.3458,101.0536z M29.7159,95.9838
				c-0.4502-0.3301-0.5503-0.9502-0.2202-1.4004l0,0l0,0l0,0c0.3203-0.4497,0.9502-0.54,1.3901-0.2197l0,0
				c0.4502,0.3301,0.5498,0.9497,0.2202,1.3999l0,0c-0.1904,0.27-0.5,0.4102-0.8101,0.4102l0,0
				C30.0958,96.1737,29.8859,96.1136,29.7159,95.9838z M33.3956,91.1434c-0.4297-0.3599-0.4897-0.9897-0.1396-1.4097l0,0
				c0.3501-0.4302,0.98-0.4902,1.4097-0.1401l0,0c0.4302,0.3599,0.4902,0.9897,0.1304,1.4097l0,0
				c-0.1899,0.2402-0.48,0.3604-0.77,0.3604l0,0C33.8058,91.3636,33.5758,91.2933,33.3956,91.1434z M37.3361,86.5135
				c-0.4204-0.3701-0.4604-1-0.1001-1.4199l0,0c0.3599-0.4102,0.9897-0.46,1.4097-0.1001l0,0
				c0.4204,0.3599,0.4604,0.9902,0.1001,1.4102l0,0c-0.1997,0.23-0.48,0.3496-0.7598,0.3496l0,0
				C37.756,86.7533,37.526,86.6737,37.3361,86.5135z M37.9459,80.0233c0-0.5498,0.4497-1,1-1l0,0c0.5498,0,1,0.4502,1,1l0,0
				c0,0.5503-0.4502,1-1,1l0,0C38.3956,81.0233,37.9459,80.5736,37.9459,80.0233z M37.9459,73.9437c0-0.5503,0.4497-1,1-1l0,0
				c0.5498,0,1,0.4497,1,1l0,0c0,0.5498-0.4502,1-1,1l0,0C38.3956,74.9437,37.9459,74.4935,37.9459,73.9437z M40.0958,69.0233
				c-0.46-0.2998-0.5898-0.9199-0.29-1.3799l0,0l0,0l0,0c0.3003-0.46,0.9199-0.5898,1.3901-0.29l0,0
				c0.46,0.3003,0.5898,0.9199,0.29,1.3804l0,0c-0.1899,0.2998-0.5103,0.46-0.8403,0.46l0,0
				C40.4557,69.1937,40.2657,69.1337,40.0958,69.0233z M44.296,64.7035c-0.23-0.5098,0-1.1001,0.5-1.3198l0,0
				c0.5098-0.23,1.0996,0,1.3296,0.5l0,0c0.2202,0.5098-0.0098,1.1001-0.5098,1.3301l0,0c-0.1299,0.0498-0.27,0.0796-0.4102,0.0796
				l0,0C44.8258,65.2933,44.4557,65.0736,44.296,64.7035z M50.1656,63.3837c-0.0098-0.5503,0.4404-1,0.9902-1l0,0
				c0.5498-0.0103,1,0.4399,1.0098,0.9897l0,0c0,0.5601-0.4497,1.0103-1,1.0103l0,0
				C50.6158,64.3837,50.1656,63.9335,50.1656,63.3837z M56.2457,63.3636c0-0.5601,0.4399-1,1-1.0103l0,0c0.5503,0,1,0.4502,1,1l0,0
				c0,0.5503-0.4399,1-1,1l0,0C56.6959,64.3636,56.2457,63.9135,56.2457,63.3636z"/>
		</g>
		<g>
			<path fill="#C6B659" d="M63.3859,64.3334c-0.2603,0-0.52-0.1099-0.71-0.29c-0.1802-0.1899-0.29-0.4497-0.29-0.71
				c0-0.0601,0.0098-0.1299,0.02-0.1899c0.0098-0.0698,0.0298-0.1299,0.0601-0.1899c0.02-0.0601,0.0498-0.1201,0.0898-0.1802
				c0.0303-0.0498,0.0801-0.0996,0.1201-0.1499c0.0498-0.04,0.1001-0.0801,0.1499-0.1201c0.0601-0.0396,0.1201-0.0698,0.1802-0.0898
				c0.0601-0.0298,0.1196-0.0498,0.1797-0.0601c0.3301-0.0601,0.6704,0.04,0.9102,0.27c0.1802,0.1899,0.29,0.4502,0.29,0.71
				c0,0.1304-0.0298,0.2603-0.0801,0.3804c-0.0498,0.1299-0.1201,0.23-0.21,0.3296c-0.1001,0.0903-0.21,0.1602-0.3301,0.21
				C63.6456,64.3036,63.5157,64.3334,63.3859,64.3334z"/>
		</g>
		<g>
			<path fill="#C6B659" d="M62.3859,56.9037c0-0.5601,0.4502-1,1-1l0,0c0.5498,0,1,0.4399,1,1l0,0c0,0.5498-0.4502,1-1,1l0,0
				C62.8361,57.9037,62.3859,57.4535,62.3859,56.9037z M62.3859,50.4637c0-0.5503,0.4502-1,1-1l0,0c0.5498,0,1,0.4497,1,1l0,0
				c0,0.5498-0.4502,1-1,1l0,0C62.8361,51.4637,62.3859,51.0135,62.3859,50.4637z"/>
		</g>
		<g>
			<path fill="#C6B659" d="M63.3859,45.0336c-0.2603,0-0.52-0.1099-0.71-0.2998c-0.1802-0.1802-0.29-0.4404-0.29-0.7002
				c0-0.2603,0.1099-0.52,0.29-0.71c0.2798-0.2803,0.7197-0.3701,1.0898-0.2202c0.1299,0.0503,0.23,0.1304,0.3301,0.2202
				c0.0898,0.0898,0.1602,0.1997,0.21,0.3198c0.0503,0.1299,0.0801,0.2603,0.0801,0.3901c0,0.2598-0.1099,0.52-0.29,0.7002
				c-0.1001,0.0996-0.2002,0.1699-0.3301,0.2197C63.6456,45.0033,63.5157,45.0336,63.3859,45.0336z"/>
		</g>
		<g>
			<path fill="#C6B659" d="M216.2755,44.0336c0-0.5601,0.4404-1,1-1l0,0c0.5508,0,1,0.4399,1,1l0,0c0,0.5498-0.4492,1-1,1l0,0
				C216.7159,45.0336,216.2755,44.5834,216.2755,44.0336z M210.3556,44.0336c0-0.5601,0.4502-1,1-1l0,0c0.5605,0,1,0.4399,1,1l0,0
				c0,0.5498-0.4395,1-1,1l0,0C210.8058,45.0336,210.3556,44.5834,210.3556,44.0336z M74.2159,44.0336c0-0.5601,0.4399-1,0.9897-1
				l0,0c0.5601,0,1.0103,0.4399,1.0103,1l0,0c0,0.5498-0.4502,1-1.0103,1l0,0C74.6559,45.0336,74.2159,44.5834,74.2159,44.0336z
				 M68.296,44.0336c0-0.5601,0.4497-1,1-1l0,0c0.5601,0,1,0.4399,1,1l0,0c0,0.5498-0.4399,1-1,1l0,0
				C68.7457,45.0336,68.296,44.5834,68.296,44.0336z M79.986,43.6937c-0.3901-0.3901-0.3799-1.0303,0.0098-1.4102l0,0
				c0.3999-0.3901,1.0303-0.3901,1.4199,0.0098l0,0c0.3804,0.3901,0.3804,1.0303-0.02,1.4102l0,0
				c-0.1899,0.1899-0.4399,0.29-0.6997,0.29l0,0C80.4357,43.9935,80.1857,43.8934,79.986,43.6937z M205.1759,43.6835
				c-0.3896-0.3799-0.4004-1.02-0.0098-1.4102l0,0c0.3896-0.3999,1.0195-0.3999,1.4102-0.0098l0,0
				c0.3994,0.3799,0.3994,1.02,0.0195,1.4102l0,0c-0.2002,0.1997-0.46,0.2998-0.7197,0.2998l0,0
				C205.6261,43.9735,205.3761,43.8734,205.1759,43.6835z M84.2057,39.5536c-0.3799-0.3999-0.3696-1.04,0.0303-1.4199l0,0l0,0l0,0
				c0.3999-0.3804,1.04-0.3604,1.4097,0.04l0,0c0.3804,0.3999,0.3701,1.0298-0.0298,1.4097l0,0
				c-0.1899,0.1899-0.4399,0.2803-0.6899,0.2803l0,0C84.6656,39.8636,84.3956,39.7533,84.2057,39.5536z M200.9659,39.5634
				c-0.4004-0.3799-0.4199-1.0098-0.04-1.4097l0,0c0.3799-0.4004,1.0195-0.4199,1.4199-0.04l0,0
				c0.3896,0.3799,0.4102,1.0098,0.0303,1.4199l0,0c-0.2002,0.2002-0.46,0.3101-0.7305,0.3101l0,0
				C201.4054,39.8436,201.1554,39.7435,200.9659,39.5634z M88.5558,35.5536c-0.3599-0.4199-0.3101-1.0503,0.1099-1.4102l0,0
				c0,0,0,0,0.0103,0l0,0c0.4199-0.3599,1.0498-0.3101,1.3999,0.1099l0,0c0.3599,0.4204,0.3101,1.0503-0.1099,1.4102l0,0
				c-0.1899,0.1602-0.4199,0.2402-0.6499,0.2402l0,0C89.0358,35.9037,88.756,35.7836,88.5558,35.5536z M196.6056,35.6434
				c-0.4199-0.3599-0.4697-0.9897-0.1094-1.4097l0,0c0.3594-0.4204,0.9893-0.4702,1.4092-0.1104l0,0
				c0.4209,0.3604,0.4707,0.9902,0.1104,1.4102l0,0c-0.1895,0.23-0.4795,0.3501-0.7598,0.3501l0,0
				C197.0255,35.8837,196.796,35.8036,196.6056,35.6434z M93.1359,31.8036c-0.3398-0.4399-0.25-1.0601,0.1899-1.3999l0,0
				c0.4399-0.3301,1.0698-0.2402,1.3999,0.1997l0,0c0.3403,0.4399,0.25,1.0703-0.1899,1.3999l0,0
				c-0.1797,0.1401-0.3901,0.2002-0.6001,0.2002l0,0C93.6256,32.2035,93.3258,32.0736,93.1359,31.8036z M192.046,31.9838
				L192.046,31.9838c-0.4404-0.3301-0.5303-0.9604-0.2002-1.4004l0,0c0.3301-0.4399,0.96-0.5298,1.4004-0.1997l0,0l0,0l0,0
				c0.4395,0.3398,0.5293,0.9697,0.1992,1.4097l0,0c-0.1992,0.2603-0.5,0.4004-0.7998,0.4004l0,0
				C192.4357,32.1937,192.2257,32.1234,192.046,31.9838z M97.9259,28.3436c-0.3101-0.46-0.1802-1.0801,0.2798-1.3799l0,0
				c0.46-0.3101,1.0801-0.1802,1.3901,0.2798l0,0c0.2998,0.46,0.1802,1.0801-0.29,1.3901l0,0
				c-0.1699,0.1099-0.3599,0.1597-0.5498,0.1597l0,0C98.4357,28.7933,98.1158,28.6337,97.9259,28.3436z M187.2657,28.6136
				L187.2657,28.6136c-0.46-0.3003-0.5898-0.9199-0.2803-1.3901l0,0c0.3008-0.46,0.9199-0.5801,1.3799-0.2798l0,0l0,0l0,0
				c0.4609,0.2998,0.5908,0.9297,0.2803,1.3896l0,0c-0.1895,0.29-0.5098,0.4399-0.8301,0.4399l0,0
				C187.6261,28.7733,187.4357,28.7235,187.2657,28.6136z M102.9259,25.1937c-0.27-0.48-0.1099-1.0903,0.3701-1.3604l0,0
				c0.48-0.2798,1.0898-0.1099,1.3696,0.3701l0,0c0.27,0.48,0.1001,1.0898-0.3799,1.3701l0,0
				c-0.1499,0.0801-0.3198,0.1299-0.4897,0.1299l0,0C103.4459,25.7035,103.1061,25.5135,102.9259,25.1937z M182.2863,25.5536
				c-0.4805-0.27-0.6504-0.8799-0.3809-1.3599l0,0c0.2803-0.48,0.8906-0.6504,1.3701-0.3804l0,0l0,0l0,0
				c0.4805,0.27,0.6406,0.8804,0.3701,1.3604l0,0c-0.1797,0.3296-0.5195,0.5098-0.8701,0.5098l0,0
				C182.6056,25.6835,182.4357,25.6434,182.2863,25.5536z M108.1256,22.3837c-0.2397-0.5-0.0298-1.1001,0.4702-1.3403l0,0
				c0.5-0.2397,1.0898-0.0298,1.3398,0.4702l0,0c0.23,0.5,0.0303,1.0898-0.4697,1.3301l0,0
				c-0.1401,0.0698-0.29,0.1001-0.4302,0.1001l0,0C108.6559,22.9437,108.3058,22.7338,108.1256,22.3837z M177.1154,22.8334
				L177.1154,22.8334c-0.5-0.2397-0.71-0.8398-0.4697-1.3301l0,0c0.2402-0.5,0.8398-0.71,1.3398-0.4697l0,0c0,0,0,0-0.0098,0l0,0
				c0.5,0.2397,0.71,0.8398,0.4697,1.3398l0,0c-0.1699,0.3501-0.5293,0.5601-0.8994,0.5601l0,0
				C177.3956,22.9335,177.256,22.9037,177.1154,22.8334z M113.5157,19.9335c-0.1997-0.5098,0.0503-1.0898,0.5601-1.2998l0,0l0,0l0,0
				c0.5103-0.2002,1.0898,0.0498,1.2998,0.5601l0,0c0.2002,0.52-0.0498,1.0996-0.5596,1.2998l0,0
				c-0.1201,0.0498-0.25,0.0698-0.3701,0.0698l0,0C114.046,20.5634,113.6759,20.3236,113.5157,19.9335z M171.7755,20.4935
				c-0.5195-0.21-0.7695-0.79-0.5693-1.2998l0,0c0.21-0.52,0.79-0.77,1.2998-0.5601l0,0c0.5195,0.1997,0.7695,0.7798,0.5596,1.2998
				l0,0c-0.1494,0.3901-0.5293,0.6299-0.9297,0.6299l0,0C172.0157,20.5634,171.8956,20.5336,171.7755,20.4935z M119.066,17.8837
				c-0.1704-0.5303,0.1196-1.0903,0.6499-1.25l0,0c0.5298-0.1699,1.0898,0.1196,1.25,0.6499l0,0
				c0.1699,0.5298-0.1201,1.0898-0.6499,1.2598l0,0c-0.1001,0.0303-0.2002,0.04-0.3003,0.04l0,0
				C119.5861,18.5834,119.1959,18.3134,119.066,17.8837z M166.2755,18.5336c-0.5293-0.1602-0.8193-0.7202-0.6602-1.25l0,0
				c0.1709-0.5303,0.7305-0.8198,1.2607-0.6602l0,0c0.5195,0.1699,0.8193,0.73,0.6494,1.2603l0,0
				c-0.1299,0.4297-0.5293,0.6997-0.9492,0.6997l0,0C166.4757,18.5834,166.3761,18.5634,166.2755,18.5336z M124.7457,16.2533
				c-0.1299-0.5396,0.21-1.0796,0.7402-1.1997l0,0c0.54-0.1299,1.0801,0.1997,1.21,0.7397l0,0c0.1201,0.54-0.21,1.0801-0.75,1.21
				l0,0c-0.0801,0.0103-0.1499,0.02-0.23,0.02l0,0C125.2657,17.0233,124.8561,16.7137,124.7457,16.2533z M160.6456,16.9935
				c-0.54-0.1201-0.8701-0.6602-0.7402-1.2002l0,0c0.1201-0.54,0.6602-0.8696,1.2002-0.7397l0,0
				c0.5303,0.1201,0.8701,0.6602,0.7402,1.1997l0,0c-0.1104,0.4604-0.5195,0.77-0.9697,0.77l0,0
				C160.796,17.0233,160.7257,17.0135,160.6456,16.9935z M130.5358,15.0536c-0.0898-0.5503,0.2803-1.0601,0.8301-1.1401l0,0
				c0.5498-0.0898,1.0601,0.29,1.1401,0.8301l0,0c0.0898,0.5498-0.29,1.0601-0.8301,1.1499l0,0
				c-0.0503,0-0.1099,0.0103-0.1602,0.0103l0,0C131.0358,15.9037,130.6061,15.5433,130.5358,15.0536z M154.9259,15.8837
				c-0.5498-0.0801-0.9297-0.5903-0.8398-1.1401l0,0c0.0801-0.54,0.5898-0.9199,1.1396-0.8301l0,0
				c0.5498,0.0801,0.9199,0.5898,0.8398,1.1401l0,0c-0.0801,0.4897-0.5098,0.8501-0.9893,0.8501l0,0
				C155.0255,15.9037,154.9757,15.8934,154.9259,15.8837z M136.3956,14.3036c-0.0498-0.5503,0.3701-1.0303,0.9199-1.0801l0,0
				c0.5498-0.04,1.0303,0.3701,1.0703,0.9302l0,0c0.04,0.5498-0.3701,1.0298-0.9199,1.0698l0,0c-0.0303,0-0.0498,0-0.0801,0l0,0
				C136.8654,15.2235,136.4357,14.8236,136.3956,14.3036z M149.1261,15.2235c-0.5498-0.0498-0.96-0.5298-0.9199-1.0801l0,0
				c0.04-0.5498,0.5195-0.96,1.0693-0.9199l0,0l0,0l0,0c0.5508,0.0498,0.9707,0.5298,0.9199,1.0801l0,0
				c-0.04,0.52-0.4697,0.9199-0.9893,0.9199l0,0C149.1759,15.2235,149.1554,15.2235,149.1261,15.2235z M142.296,14.0033
				c0-0.5596,0.4502-1,1-1l0,0c0.5498,0,1,0.4404,1,1l0,0c0,0.5503-0.4502,1-1,1l0,0
				C142.7462,15.0033,142.296,14.5536,142.296,14.0033z"/>
		</g>
		<g>
			<path fill="#C6B659" d="M223.2159,45.0336c-0.2598,0-0.5205-0.1099-0.71-0.29c-0.1904-0.1899-0.29-0.4502-0.29-0.71
				c0-0.2603,0.0996-0.52,0.29-0.71c0.2295-0.23,0.5801-0.3398,0.8994-0.27c0.0703,0.0098,0.1309,0.0298,0.1904,0.0498
				c0.0596,0.0303,0.1201,0.0601,0.1699,0.1001c0.0605,0.0303,0.1104,0.0698,0.1504,0.1201c0.1895,0.1899,0.2998,0.4399,0.2998,0.71
				c0,0.2598-0.1104,0.52-0.2998,0.71c-0.04,0.04-0.0898,0.0801-0.1504,0.1201c-0.0498,0.04-0.1104,0.0698-0.1699,0.0898
				c-0.0596,0.0303-0.1201,0.0498-0.1904,0.0601C223.3458,45.0233,223.2755,45.0336,223.2159,45.0336z"/>
		</g>
		<g>
			<path fill="#C6B659" d="M222.2159,56.9037c0-0.5601,0.4502-1,1-1l0,0c0.5498,0,1,0.4399,1,1l0,0c0,0.5498-0.4502,1-1,1l0,0
				C222.6661,57.9037,222.2159,57.4535,222.2159,56.9037z M222.2159,50.4637c0-0.5503,0.4502-1,1-1l0,0c0.5498,0,1,0.4497,1,1l0,0
				c0,0.5498-0.4502,1-1,1l0,0C222.6661,51.4637,222.2159,51.0135,222.2159,50.4637z"/>
		</g>
		<g>
			<path fill="#C6B659" d="M223.2159,64.3334c-0.2598,0-0.5205-0.1099-0.71-0.29c-0.0898-0.0996-0.1602-0.1997-0.2197-0.3296
				c-0.0508-0.1201-0.0703-0.25-0.0703-0.3804c0-0.2598,0.0996-0.52,0.29-0.71c0.3701-0.3701,1.0498-0.3701,1.4102,0
				c0.1895,0.1899,0.2998,0.4502,0.2998,0.71c0,0.1304-0.0303,0.2603-0.0801,0.3804c-0.0498,0.1299-0.1201,0.23-0.2197,0.3296
				c-0.04,0.04-0.0898,0.0903-0.1504,0.1201c-0.0498,0.04-0.1104,0.0703-0.1699,0.0898c-0.0596,0.0303-0.1201,0.0503-0.1904,0.0601
				C223.3458,64.3236,223.2755,64.3334,223.2159,64.3334z"/>
		</g>
		<g>
			<path fill="#C6B659" d="M228.3556,223.243c-0.0098-0.5498,0.4404-1,0.9902-1l0,0c0.5498-0.0098,1,0.4404,1,0.9902l0,0
				c0.0098,0.5605-0.4404,1-0.9902,1.0098l0,0h-0.0098l0,0C228.796,224.243,228.3556,223.7938,228.3556,223.243z M234.4357,223.2235
				c0-0.5498,0.4404-1,1-1l0,0c0.5498-0.0098,1,0.4404,1,0.9902l0,0c0,0.5498-0.4502,1-1,1l0,0
				C234.8859,224.2235,234.4357,223.7733,234.4357,223.2235z M240.4757,222.7137c-0.2295-0.5,0-1.1006,0.5098-1.3203l0,0
				c0.5-0.2295,1.0908,0,1.3203,0.5098l0,0c0.2197,0.5,0,1.0898-0.5098,1.3203l0,0l0,0l0,0
				c-0.1299,0.0596-0.2705,0.0801-0.4004,0.0801l0,0C241.006,223.3036,240.6456,223.0839,240.4757,222.7137z M245.4054,219.2435
				c-0.46-0.2998-0.5898-0.9199-0.29-1.3799l0,0c0.3008-0.46,0.9209-0.5903,1.3809-0.29l0,0c0.46,0.2998,0.5898,0.9199,0.29,1.3799
				l0,0c-0.1904,0.2998-0.5107,0.46-0.8408,0.46l0,0C245.7657,219.4135,245.5763,219.3534,245.4054,219.2435z M246.6554,212.6635
				c0-0.5498,0.4502-1,1-1l0,0c0.5508,0,1,0.4502,1,1l0,0c0,0.5503-0.4492,1-1,1l0,0
				C247.1056,213.6635,246.6554,213.2137,246.6554,212.6635z M246.6554,206.5736c0-0.5503,0.4502-1,1-1l0,0c0.5508,0,1,0.4497,1,1
				l0,0c0,0.5601-0.4492,1.0098-1,1.0098l0,0C247.1056,207.5834,246.6554,207.1337,246.6554,206.5736z M247.9562,201.6034
				c-0.4199-0.3599-0.4707-0.9897-0.1006-1.4097l0,0c0.3604-0.4204,0.9902-0.46,1.4102-0.1001l0,0
				c0.4102,0.3599,0.46,0.9897,0.0996,1.4097l0,0c-0.1992,0.2305-0.4795,0.3501-0.7598,0.3501l0,0
				C248.3761,201.8534,248.1456,201.7733,247.9562,201.6034z M251.9357,197.0033c-0.4297-0.3496-0.4902-0.98-0.1396-1.4097l0,0
				c0.3496-0.4199,0.9795-0.48,1.4102-0.1299l0,0c0.4297,0.3496,0.4893,0.98,0.1299,1.4097l0,0
				c-0.1904,0.23-0.4805,0.3604-0.7705,0.3604l0,0C252.3458,197.2338,252.1154,197.1537,251.9357,197.0033z M255.7159,192.2338
				c-0.4502-0.3203-0.5498-0.9502-0.2305-1.3901l0,0c0.3301-0.4502,0.96-0.5503,1.4004-0.2202l0,0
				c0.4404,0.3203,0.5498,0.9502,0.2197,1.3901l0,0c-0.2002,0.27-0.5,0.4102-0.8096,0.4102l0,0
				C256.0958,192.4237,255.8859,192.3636,255.7159,192.2338z M259.1759,187.2435c-0.46-0.2998-0.5996-0.9102-0.3105-1.3799l0,0
				c0.3008-0.4702,0.9209-0.6104,1.3809-0.3101l0,0c0.4697,0.29,0.6094,0.9102,0.3193,1.3799l0,0
				c-0.2002,0.3003-0.5195,0.46-0.8496,0.46l0,0C259.5255,187.3934,259.3458,187.3436,259.1759,187.2435z M262.3156,182.0336
				c-0.4893-0.27-0.6699-0.8701-0.4102-1.3599l0,0c0.2705-0.48,0.8701-0.6704,1.3604-0.4004l0,0
				c0.4805,0.2603,0.6699,0.8701,0.4004,1.3501l0,0c-0.1807,0.3403-0.5205,0.5303-0.8799,0.5303l0,0
				C262.6261,182.1537,262.4659,182.1136,262.3156,182.0336z M265.0763,176.6136c-0.5-0.2202-0.7207-0.8101-0.5-1.3203l0,0
				c0.2295-0.5,0.8193-0.73,1.3291-0.5l0,0c0.5,0.23,0.7305,0.8203,0.5,1.3301l0,0c-0.1699,0.3701-0.5293,0.5801-0.9199,0.5801l0,0
				C265.3556,176.7035,265.2159,176.6835,265.0763,176.6136z M267.4454,171.0233c-0.5098-0.1899-0.7793-0.77-0.5898-1.2896l0,0
				c0.1904-0.52,0.7705-0.7803,1.2803-0.5903l0,0c0.5195,0.1899,0.79,0.7603,0.5996,1.2803l0,0
				c-0.1494,0.4097-0.5293,0.6597-0.9395,0.6597l0,0C267.6857,171.0834,267.5656,171.0634,267.4454,171.0233z M269.3956,165.2635
				c-0.5303-0.1499-0.8398-0.7002-0.6895-1.2402v0.0103c0.1494-0.54,0.6992-0.8501,1.2393-0.7002l0,0
				c0.5303,0.1504,0.8408,0.71,0.6904,1.2402l0,0l0,0l0,0c-0.1299,0.4399-0.5303,0.73-0.96,0.73l0,0
				C269.5861,165.3036,269.4855,165.2933,269.3956,165.2635z M270.9054,159.3734c-0.5498-0.1099-0.8994-0.6396-0.79-1.1797l0,0
				c0.1104-0.54,0.6406-0.8901,1.1807-0.7803l0,0c0.54,0.1099,0.8896,0.6299,0.7803,1.1802l0,0
				c-0.0908,0.4697-0.5107,0.7998-0.9805,0.7998l0,0C271.0363,159.3934,270.9659,159.3837,270.9054,159.3734z M271.9357,153.3837
				c-0.54-0.0703-0.9395-0.5703-0.8701-1.1104l0,0c0.0703-0.5498,0.5605-0.9399,1.1104-0.8799l0,0
				c0.5498,0.0703,0.9395,0.5601,0.8799,1.1099l0,0c-0.0703,0.5103-0.5,0.8804-1,0.8804l0,0
				C272.0157,153.3837,271.9757,153.3837,271.9357,153.3837z M272.4962,147.3236c-0.5508-0.02-0.9805-0.48-0.9502-1.04h-0.0098
				c0.0293-0.5498,0.4893-0.98,1.04-0.96l0,0c0.5498,0.02,0.9893,0.4897,0.96,1.04l0,0l0,0l0,0c-0.0205,0.54-0.46,0.96-1,0.96l0,0
				C272.5255,147.3236,272.5157,147.3236,272.4962,147.3236z M271.5363,140.2836c-0.0205-0.5498,0.4092-1.02,0.96-1.04l0,0
				c0.5498-0.02,1.0195,0.4102,1.04,0.96l0,0c0.0195,0.5498-0.4102,1.02-0.96,1.04l0,0c-0.0107,0-0.0303,0-0.04,0l0,0
				C272.006,141.2435,271.5656,140.8236,271.5363,140.2836z M271.0656,134.3036c-0.0693-0.5503,0.3203-1.0503,0.8701-1.1099l0,0
				c0.5498-0.0703,1.0498,0.3198,1.1104,0.8696l0,0c0.0693,0.5503-0.3203,1.0503-0.8701,1.1104l0,0
				c-0.04,0.0098-0.0801,0.0098-0.1201,0.0098l0,0C271.5558,135.1835,271.1261,134.8134,271.0656,134.3036z M270.1154,128.3734
				c-0.1094-0.54,0.2402-1.0698,0.7803-1.1699l0,0c0.54-0.1099,1.0703,0.2402,1.1807,0.7803l0,0l0,0l0,0
				c0.1094,0.5396-0.25,1.0698-0.79,1.1797l0,0c-0.0605,0.0103-0.1309,0.02-0.1904,0.02l0,0
				C270.6261,129.1835,270.2062,128.8534,270.1154,128.3734z M268.6954,122.5433L268.6954,122.5433
				c-0.1494-0.5298,0.1602-1.0898,0.6904-1.2397l0,0c0.54-0.1499,1.0898,0.1602,1.2402,0.6899l0,0l0,0l0,0
				c0.1494,0.5298-0.1602,1.0898-0.6904,1.2402l0,0c-0.0898,0.0195-0.1895,0.0298-0.2803,0.0298l0,0
				C269.2257,123.2635,268.8263,122.9838,268.6954,122.5433z M266.8458,116.8236c-0.1904-0.5103,0.0703-1.0898,0.5898-1.2803l0,0
				c0.5205-0.1899,1.0898,0.0801,1.29,0.6001l0,0c0.1797,0.5103-0.0801,1.0903-0.5996,1.2803l0,0
				c-0.1104,0.04-0.2305,0.0601-0.3398,0.0601l0,0C267.3761,117.4838,266.9855,117.2338,266.8458,116.8236z M264.5656,111.2635
				c-0.2295-0.5-0.0098-1.0898,0.5-1.3198l0,0c0.5-0.23,1.0898-0.0103,1.3203,0.5l0,0c0.2295,0.5,0.0098,1.0898-0.5,1.3198l0,0
				c-0.1299,0.0601-0.2705,0.0898-0.4102,0.0898l0,0C265.0958,111.8534,264.7355,111.6337,264.5656,111.2635z M261.8859,105.8837
				c-0.2598-0.4902-0.0801-1.0903,0.4004-1.3604l0,0c0.4893-0.2598,1.0996-0.0796,1.3594,0.4102l0,0l0,0l0,0
				c0.2598,0.48,0.0801,1.0898-0.3994,1.3501l0,0c-0.1602,0.0801-0.3203,0.1201-0.4805,0.1201l0,0
				C262.4054,106.4037,262.0656,106.2137,261.8859,105.8837z M258.8361,100.6937c-0.29-0.4702-0.1504-1.0903,0.3096-1.3804l0,0
				c0.4697-0.2998,1.0898-0.1597,1.3799,0.3101l0,0c0,0,0,0,0.0107,0l0,0c0.29,0.46,0.1494,1.0801-0.3203,1.3799l0,0
				c-0.1602,0.1001-0.3506,0.1504-0.5303,0.1504l0,0C259.3556,101.1537,259.0255,100.9935,258.8361,100.6937z M255.4562,95.7137
				c-0.3203-0.4404-0.2305-1.0703,0.2197-1.3901l0,0c0.4502-0.3301,1.0703-0.23,1.4004,0.2197l0,0
				c0.3193,0.4404,0.2197,1.0703-0.2207,1.3901l0,0c-0.1797,0.1299-0.3799,0.1899-0.5898,0.1899l0,0
				C255.9562,96.1234,255.6554,95.9838,255.4562,95.7137z M251.7657,90.9637c-0.3604-0.4302-0.29-1.0601,0.1299-1.4102l0,0
				c0.4199-0.3501,1.0605-0.29,1.4102,0.1299l0,0c0.3496,0.4302,0.29,1.0601-0.1299,1.4102l0,0
				c-0.1904,0.1597-0.4199,0.23-0.6396,0.23l0,0C252.2462,91.3236,251.9659,91.2035,251.7657,90.9637z M247.8156,86.3636
				c-0.3594-0.4199-0.3193-1.0503,0.1006-1.4102l0,0c0.4199-0.3599,1.0498-0.3198,1.4102,0.1001l0,0
				c0.3594,0.4199,0.3193,1.0498-0.1006,1.4102l0,0c-0.1895,0.1699-0.4199,0.25-0.6494,0.25l0,0
				C248.296,86.7137,248.0157,86.5936,247.8156,86.3636z M246.6554,79.9637c0-0.5503,0.4502-1,1-1l0,0c0.5508,0,1,0.4497,1,1l0,0
				c0,0.5596-0.4492,1-1,1l0,0C247.1056,80.9637,246.6554,80.5233,246.6554,79.9637z M246.6554,73.8934v-0.0098
				c0-0.5503,0.4404-1,0.9902-1l0,0c0.5605,0,1.0098,0.4497,1.0098,1l0,0c0,0.5498-0.4492,1-1,1l0,0
				C247.1056,74.8837,246.6554,74.4437,246.6554,73.8934z M245.0861,68.6937c-0.2998-0.46-0.1807-1.0801,0.29-1.3901l0,0
				c0.46-0.3003,1.0801-0.1699,1.3799,0.29l0,0c0.3096,0.46,0.1797,1.0801-0.2803,1.3901l0,0
				c-0.1699,0.1099-0.3604,0.1597-0.5498,0.1597l0,0C245.5958,69.1434,245.2755,68.9838,245.0861,68.6937z M240.9357,65.1835
				c-0.5-0.2197-0.7402-0.8101-0.5098-1.3101l0,0c0.2197-0.5098,0.8096-0.7397,1.3203-0.52l0,0
				c0.5,0.23,0.7295,0.8203,0.5098,1.3203l0,0c-0.1699,0.3799-0.5303,0.5996-0.9199,0.5996l0,0
				C241.2062,65.2733,241.0656,65.2435,240.9357,65.1835z M235.3761,64.3837c-0.5498-0.0103-1-0.46-1-1.0103l0,0
				c0.0098-0.5498,0.46-0.9897,1.0098-0.9897l0,0c0.5498,0,1,0.4497,0.9902,1l0,0c0,0.5498-0.4502,1-0.9902,1l0,0
				C235.3761,64.3837,235.3761,64.3837,235.3761,64.3837z M229.296,64.3534c-0.5605,0-1-0.4497-1-1l0,0
				c0-0.5498,0.4502-1,1.0098-0.9897l0,0c0.5498,0,0.9902,0.4497,0.9902,1l0,0C230.296,63.9135,229.8458,64.3534,229.296,64.3534
				L229.296,64.3534L229.296,64.3534z"/>
		</g>
		<g>
			<path fill="#C6B659" d="M223.2159,224.2635c-0.2705,0-0.5205-0.0996-0.71-0.29c-0.0898-0.0898-0.1699-0.2002-0.2197-0.3203
				c-0.0508-0.1299-0.0703-0.25-0.0703-0.3896c0-0.2598,0.0996-0.5205,0.29-0.7002c0.2295-0.2402,0.5801-0.3496,0.8994-0.2803
				c0.0703,0.0205,0.1309,0.0303,0.1904,0.0605c0.0596,0.0195,0.1201,0.0596,0.1699,0.0898c0.0605,0.04,0.1104,0.0801,0.1504,0.1299
				c0.0996,0.0898,0.1699,0.2002,0.2197,0.3203s0.0801,0.25,0.0801,0.3799c0,0.1396-0.0303,0.2598-0.0801,0.3896
				c-0.0498,0.1201-0.1201,0.2305-0.2197,0.3203C223.7355,224.1639,223.4855,224.2635,223.2159,224.2635z"/>
		</g>
		<g>
			<path fill="#C6B659" d="M222.2159,236.1337c0-0.5498,0.4502-1,1-1l0,0c0.5498,0,1,0.4502,1,1l0,0c0,0.5498-0.4502,1-1,1l0,0
				C222.6661,237.1337,222.2159,236.6835,222.2159,236.1337z M222.2159,229.704c0-0.5508,0.4502-1,1-1l0,0c0.5498,0,1,0.4492,1,1
				l0,0c0,0.5498-0.4502,1-1,1l0,0C222.6661,230.704,222.2159,230.2538,222.2159,229.704z"/>
		</g>
		<g>
			<path fill="#C6B659" d="M223.2159,243.5731c-0.2705,0-0.5205-0.1094-0.71-0.2998c-0.0898-0.0898-0.1699-0.2002-0.2197-0.3193
				c-0.0508-0.1201-0.0703-0.25-0.0703-0.3809c0-0.2695,0.0996-0.5195,0.29-0.71c0.2295-0.2295,0.5801-0.3398,0.8994-0.2695
				c0.0703,0.0098,0.1309,0.0303,0.1904,0.0498c0.0596,0.0303,0.1201,0.0605,0.1699,0.0898c0.0605,0.04,0.1104,0.0801,0.1504,0.1299
				c0.1895,0.1807,0.2998,0.4404,0.2998,0.71c0,0.2607-0.1104,0.5107-0.2998,0.7002c-0.0898,0.1006-0.2002,0.1699-0.3203,0.2197
				C223.4757,243.5438,223.3458,243.5731,223.2159,243.5731z"/>
		</g>
		<g>
			<path fill="#C6B659" d="M142.3058,272.6034c0-0.5596,0.4502-1,1-1l0,0c0.5498,0,1,0.4404,1,1l0,0c0,0.5498-0.4502,1-1,1l0,0
				C142.756,273.6034,142.3058,273.1532,142.3058,272.6034z M148.2159,272.454c-0.0498-0.5508,0.3701-1.0303,0.9199-1.0703l0,0
				c0.5498-0.0498,1.0303,0.3594,1.0703,0.9199l0,0c0.04,0.5498-0.3701,1.0303-0.9199,1.0703l0,0c-0.0303,0-0.0508,0-0.0801,0l0,0
				C148.6954,273.3739,148.256,272.9735,148.2159,272.454z M137.3156,273.3739c-0.5498-0.04-0.96-0.5205-0.9199-1.0703l0,0
				c0.0498-0.5605,0.5303-0.9697,1.0801-0.9199l0,0c0.5498,0.04,0.96,0.5195,0.9199,1.0703l0,0c-0.04,0.5195-0.4795,0.9199-1,0.9199
				l0,0C137.3761,273.3739,137.3458,273.3739,137.3156,273.3739z M154.0958,271.8534c-0.0898-0.5498,0.29-1.0596,0.8301-1.1396l0,0
				c0.5498-0.0898,1.0596,0.29,1.1396,0.8301l0,0c0.0898,0.5498-0.29,1.0596-0.8301,1.1494l0,0
				c-0.0498,0-0.0996,0.0107-0.1494,0.0107l0,0C154.5958,272.704,154.1661,272.3436,154.0958,271.8534z M131.3756,272.6932
				c-0.5498-0.0898-0.9199-0.5996-0.8398-1.1494l0,0c0.0801-0.54,0.6001-0.9199,1.1401-0.8301l0,0
				c0.5498,0.0801,0.9199,0.5898,0.8398,1.1396l0,0c-0.0801,0.4902-0.5098,0.8506-0.9897,0.8506l0,0
				C131.4757,272.704,131.4259,272.6932,131.3756,272.6932z M125.4957,271.5536L125.4957,271.5536L125.4957,271.5536
				c-0.54-0.1299-0.8701-0.6602-0.75-1.2002l0,0c0.1299-0.54,0.6699-0.8799,1.2002-0.75l0,0c0.54,0.1299,0.8799,0.6602,0.75,1.2002
				l0,0c-0.1099,0.46-0.52,0.7695-0.9702,0.7695l0,0C125.6456,271.5731,125.5758,271.5731,125.4957,271.5536z M159.9054,270.8036
				c-0.1191-0.54,0.21-1.0801,0.75-1.2002l0,0c0.54-0.1299,1.0703,0.21,1.2002,0.75l0,0c0.1299,0.5303-0.21,1.0703-0.75,1.2002l0,0
				l0,0l0,0c-0.0693,0.0098-0.1494,0.0195-0.2197,0.0195l0,0C160.4259,271.5731,160.0157,271.2635,159.9054,270.8036z
				 M119.7257,269.9735c-0.5298-0.1699-0.8198-0.7305-0.6597-1.2598l0,0c0.1699-0.5205,0.73-0.8105,1.2598-0.6504l0,0
				c0.5303,0.1699,0.8198,0.7305,0.6499,1.2598l0,0c-0.1299,0.4199-0.5298,0.7002-0.9497,0.7002l0,0
				C119.9259,270.0233,119.8258,270.0038,119.7257,269.9735z M165.6261,269.3134c-0.1602-0.5303,0.1299-1.0898,0.6602-1.25l0,0
				c0.5195-0.1699,1.0898,0.1201,1.25,0.6504l0,0c0.1699,0.5293-0.1309,1.0898-0.6504,1.2598l0,0
				c-0.0996,0.0303-0.2002,0.04-0.2998,0.04l0,0C166.1554,270.0135,165.7657,269.743,165.6261,269.3134z M114.0958,267.9735
				c-0.52-0.21-0.77-0.79-0.5698-1.2998l0,0c0.21-0.5205,0.79-0.7705,1.2998-0.5605l0,0c0.52,0.2002,0.77,0.7803,0.5601,1.29l0,0
				c-0.1499,0.4004-0.5298,0.6406-0.9302,0.6406l0,0C114.3361,268.0438,114.2159,268.0135,114.0958,267.9735z M171.2257,267.4032
				c-0.2002-0.5098,0.0498-1.0996,0.5605-1.2998l0,0c0.5098-0.2002,1.0996,0.0498,1.2998,0.5605l0,0
				c0.2002,0.5098-0.0498,1.0996-0.5605,1.2998l0,0c-0.1201,0.0498-0.25,0.0693-0.3701,0.0693l0,0
				C171.756,268.0331,171.3859,267.7938,171.2257,267.4032z M108.6158,265.5634L108.6158,265.5634L108.6158,265.5634
				c-0.5-0.2402-0.7002-0.8398-0.4702-1.3301l0,0c0.25-0.5,0.8403-0.71,1.3403-0.4697l0,0c0.5,0.2402,0.71,0.8398,0.4697,1.3301l0,0
				c-0.1797,0.3604-0.5298,0.5703-0.8999,0.5703l0,0C108.9059,265.6639,108.756,265.6337,108.6158,265.5634z M176.6661,265.0936
				c-0.2402-0.5-0.0303-1.1006,0.4697-1.3398l0,0c0.5-0.2402,1.0898-0.0303,1.3398,0.4697l0,0
				c0.2305,0.4902,0.0205,1.0898-0.4697,1.3301l0,0l0,0l0,0c-0.1406,0.0703-0.29,0.0996-0.4404,0.0996l0,0
				C177.1954,265.6532,176.8361,265.4432,176.6661,265.0936z M103.3258,262.7831L103.3258,262.7831L103.3258,262.7831
				c-0.48-0.2793-0.6499-0.8896-0.3701-1.3594l0,0c0.27-0.4805,0.8804-0.6504,1.3604-0.3799l0,0
				c0.48,0.2793,0.6499,0.8896,0.3696,1.3594l0,0c-0.1797,0.3301-0.52,0.5107-0.8696,0.5107l0,0
				C103.6456,262.9139,103.486,262.8739,103.3258,262.7831z M181.9357,262.3934c-0.2695-0.4795-0.1094-1.0898,0.3701-1.3604l0,0
				c0.4805-0.2793,1.0898-0.1094,1.3701,0.3701l0,0c0.2695,0.4805,0.0996,1.0898-0.3799,1.3701l0,0
				c-0.1504,0.0898-0.3203,0.1299-0.4902,0.1299l0,0C182.4562,262.9032,182.1154,262.7235,181.9357,262.3934z M98.236,259.6532
				L98.236,259.6532L98.236,259.6532c-0.46-0.2998-0.5903-0.9199-0.29-1.3799l0,0c0.3101-0.46,0.9297-0.5898,1.3901-0.29l0,0
				c0.46,0.3105,0.5898,0.9307,0.2798,1.3906l0,0c-0.1899,0.29-0.5098,0.4492-0.8301,0.4492l0,0
				C98.5958,259.8231,98.4059,259.7733,98.236,259.6532z M187.006,259.3534c-0.2998-0.46-0.1797-1.0801,0.2803-1.3799l0,0
				c0.4697-0.3096,1.0898-0.1797,1.3896,0.2803l0,0c0.2998,0.46,0.1797,1.0801-0.2803,1.3896l0,0
				c-0.1699,0.1104-0.3701,0.1602-0.5498,0.1602l0,0C187.5157,259.8036,187.1954,259.6434,187.006,259.3534z M93.3561,256.2137
				c-0.4404-0.3398-0.5303-0.96-0.2002-1.4102l0,0c0.3301-0.4404,0.96-0.5205,1.3999-0.1904l0,0
				c0.4399,0.3301,0.5303,0.96,0.2002,1.4004l0,0c-0.2002,0.2598-0.5,0.4004-0.8003,0.4004l0,0
				C93.7457,256.4139,93.5358,256.3436,93.3561,256.2137z M191.8654,255.993c-0.3291-0.4395-0.2393-1.0596,0.2002-1.3994l0,0
				c0.4404-0.3301,1.0703-0.2402,1.4004,0.2002l0,0c0.3301,0.4395,0.2402,1.0693-0.2002,1.3994l0,0
				c-0.1797,0.1406-0.3896,0.2002-0.5996,0.2002l0,0C192.3654,256.3934,192.0656,256.2538,191.8654,255.993z M88.6959,252.4735
				c-0.4199-0.3496-0.4702-0.9902-0.1201-1.4102l0,0c0.3599-0.4199,0.9902-0.4697,1.4102-0.1094l0,0
				c0.4297,0.3594,0.48,0.9893,0.1201,1.4092l0,0c-0.2002,0.2305-0.4805,0.3506-0.7603,0.3506l0,0
				C89.1158,252.7137,88.8859,252.6337,88.6959,252.4735z M196.5157,252.3436c-0.3604-0.4199-0.3096-1.0498,0.1201-1.4102l0,0
				c0.4199-0.3604,1.0498-0.3096,1.4102,0.1104l0,0c0.3496,0.4297,0.2998,1.0596-0.1201,1.4102l0,0
				c-0.1904,0.1592-0.4199,0.2393-0.6504,0.2393l0,0C196.9962,252.6932,196.7159,252.5731,196.5157,252.3436z M84.256,248.4833
				L84.256,248.4833L84.256,248.4833c-0.3999-0.3799-0.4102-1.0098-0.0303-1.4102l0,0c0.3804-0.3994,1.0103-0.4199,1.4102-0.04l0,0
				c0.3999,0.3809,0.4199,1.0205,0.04,1.4209l0,0c-0.2002,0.1992-0.46,0.3096-0.73,0.3096l0,0
				C84.7057,248.7635,84.4557,248.6639,84.256,248.4833z M200.9454,248.4335c-0.3799-0.4102-0.3594-1.04,0.04-1.4199l0,0
				c0.4004-0.3799,1.0303-0.3604,1.4102,0.04l0,0c0.3799,0.4004,0.3701,1.0303-0.0303,1.4102l0,0
				c-0.1992,0.1797-0.4492,0.2695-0.6895,0.2695l0,0C201.4054,248.7333,201.1456,248.6337,200.9454,248.4335z M80.0157,244.3436
				c-0.3901-0.3896-0.3999-1.0205-0.0098-1.4199l0,0c0.3896-0.3906,1.02-0.4004,1.4097-0.0098l0,0
				c0.4004,0.3896,0.4004,1.0195,0.02,1.4092l0,0c-0.1997,0.2002-0.46,0.3008-0.7197,0.3008l0,0
				C80.4659,244.6239,80.2159,244.5331,80.0157,244.3436z M205.1857,244.3036c-0.3896-0.3896-0.3799-1.0205,0.0098-1.4102l0,0
				c0.4004-0.3896,1.0303-0.3799,1.4199,0.0098l0,0c0.3809,0.4004,0.3809,1.0303-0.0098,1.4199l0,0
				c-0.2002,0.1904-0.4502,0.2803-0.71,0.2803l0,0C205.6456,244.6034,205.3859,244.5038,205.1857,244.3036z M216.3058,242.5731
				c0-0.5596,0.4404-1,1-1l0,0c0.5498,0,1,0.4404,1,1l0,0c0,0.5508-0.4502,1-1,1l0,0
				C216.7462,243.5731,216.3058,243.1239,216.3058,242.5731z M210.3859,242.5731c0-0.5596,0.4502-1,1-1l0,0c0.5498,0,1,0.4404,1,1
				l0,0c0,0.5508-0.4502,1-1,1l0,0C210.8361,243.5731,210.3859,243.1239,210.3859,242.5731z M74.236,242.5731c0-0.5596,0.4497-1,1-1
				l0,0c0.5601,0,1,0.4404,1,1l0,0c0,0.5508-0.4399,1-1,1l0,0C74.6857,243.5731,74.236,243.1239,74.236,242.5731z M68.3258,242.5731
				c0-0.5596,0.4502-1,1-1l0,0c0.5498,0,1,0.4404,1,1l0,0c0,0.5508-0.4502,1-1,1l0,0
				C68.776,243.5731,68.3258,243.1239,68.3258,242.5731z"/>
		</g>
	</g>
	<g>
		<circle fill="#C6B659" cx="75.2254" cy="55.9335" r="3.6457"/>
		<circle fill="#C6B659" cx="211.3758" cy="55.9335" r="3.6457"/>
		<circle fill="#C6B659" cx="75.2254" cy="230.6677" r="3.6457"/>
		<circle fill="#C6B659" cx="211.3758" cy="230.6677" r="3.6457"/>
	</g>
</g>
</svg>
