<?xml version="1.0" encoding="utf-8"?><!DOCTYPE svg PUBLIC "-//W3C//DTD SVG 1.1//EN" "http://www.w3.org/Graphics/SVG/1.1/DTD/svg11.dtd">
<svg version="1.1" id="Layer_1" xmlns="http://www.w3.org/2000/svg" xmlns:xlink="http://www.w3.org/1999/xlink" x="0px" y="0px" viewBox="0 0 500 500" enable-background="new 0 0 500 500" xml:space="preserve">
<g>
	<g id="change1_1"><path fill="#FFFFFF" d="M489.4,250c0-11.8,12.1-24.3,10.5-35.6c-1.7-11.6-16.8-20.2-20.1-31.2c-3.3-11.2,4.7-26.6-0.1-37.1
		c-4.9-10.6-21.9-14.6-28.2-24.3c-6.4-9.8-3-26.8-10.7-35.5c-7.7-8.8-25.1-7.9-34-15.5c-8.8-7.6-10.4-24.8-20.3-31.1
		c-9.8-6.3-26.3-0.6-37-5.4c-10.6-4.8-17-20.9-28.3-24.2c-11.1-3.2-25.3,6.9-37,5.2C272.7,13.7,261.9,0,250,0
		c-11.9,0-22.7,13.7-34.1,15.3c-11.7,1.7-25.9-8.4-37-5.2c-11.3,3.3-17.8,19.4-28.3,24.2c-10.7,4.8-27.2-0.8-37,5.4
		c-9.9,6.3-11.5,23.5-20.3,31.1c-8.8,7.6-26.3,6.7-34,15.5c-7.7,8.7-4.3,25.7-10.7,35.5c-6.3,9.7-23.3,13.7-28.2,24.3
		c-4.8,10.5,3.2,25.8-0.1,37.1c-3.3,11-18.4,19.6-20.1,31.2c-1.6,11.3,10.5,23.8,10.5,35.6c0,11.8-12.1,24.3-10.5,35.6
		c1.7,11.6,16.8,20.2,20.1,31.2c3.3,11.2-4.7,26.6,0.1,37.1c4.9,10.6,21.9,14.6,28.2,24.3c6.4,9.8,3,26.8,10.7,35.5
		c7.7,8.8,25.1,7.9,34,15.5c8.8,7.6,10.4,24.8,20.3,31.1c9.8,6.3,26.3,0.6,37,5.4c10.6,4.8,17,20.9,28.3,24.2
		c11.1,3.2,25.3-6.9,37-5.2c11.4,1.6,22.2,15.3,34.1,15.3c11.9,0,22.7-13.7,34.1-15.3c11.7-1.7,25.9,8.4,37,5.2
		c11.3-3.3,17.8-19.4,28.3-24.2c10.7-4.8,27.2,0.8,37-5.4c9.9-6.3,11.5-23.5,20.3-31.1c8.8-7.6,26.3-6.7,34-15.5
		c7.7-8.7,4.3-25.7,10.7-35.5c6.3-9.7,23.3-13.7,28.2-24.3c4.8-10.5-3.2-25.8,0.1-37.1c3.3-11,18.4-19.6,20.1-31.2
		C501.5,274.3,489.4,261.8,489.4,250z"></path></g>
</g>
</svg>