<?xml version="1.0" encoding="utf-8"?>
<!-- Generator: Adobe Illustrator 21.0.0, SVG Export Plug-In . SVG Version: 6.00 Build 0)  -->
<svg version="1.1" id="Circle-ShapeDot-D6" xmlns="http://www.w3.org/2000/svg" xmlns:xlink="http://www.w3.org/1999/xlink" x="0px"
	 y="0px" viewBox="0 0 500 500" enable-background="new 0 0 500 500" xml:space="preserve">
<g id="change1">
	<circle fill="#DBCF3A" cx="250" cy="250.0475" r="193.6667"/>
</g>
<g id="change2">
	<g id="circle-shapedot-d6-change2-1">
		<path fill="#EEE657" d="M250,7.4C116,7.4,7.4,116,7.4,250S116,492.6,250,492.6S492.6,384,492.6,250S384,7.4,250,7.4z M250,440.2
			c-104.9,0-190.2-85.3-190.2-190.2S145.1,59.8,250,59.8S440.2,145.1,440.2,250S354.9,440.2,250,440.2z"/>
	</g>
	<g id="circle-shapedot-d6-change2-2">
		<path fill="#EEE657" d="M250,69.6c-99.5,0-180.4,80.9-180.4,180.4S150.5,430.4,250,430.4S430.4,349.5,430.4,250
			S349.5,69.6,250,69.6z"/>
	</g>
</g>
<g id="change3">
	<path fill="#FFFFFF" d="M174.1,46.5c0.3,0,0.7,0,1-0.1c1.6-0.6,2.4-2.3,1.8-3.8c-0.6-1.6-2.3-2.4-3.8-1.8H173
		c-1.5,0.6-2.3,2.3-1.7,3.8C171.7,45.8,172.9,46.5,174.1,46.5z"/>
	<path fill="#FFFFFF" d="M159,52.7c0.5,0,0.9-0.1,1.2-0.3c1.5-0.6,2.2-2.4,1.5-3.9c-0.6-1.5-2.4-2.2-3.9-1.5l-0.1,0.1
		c-1.5,0.7-2.1,2.4-1.4,3.9C156.8,52.1,157.9,52.7,159,52.7z"/>
	<path fill="#FFFFFF" d="M190.6,458.8c-1.6-0.5-3.2,0.4-3.7,2c-0.5,1.6,0.4,3.2,2,3.7h0.2c0.3,0.1,0.5,0.1,0.8,0.1
		c1.3,0,2.5-0.9,2.8-2.2C193.1,460.9,192.2,459.2,190.6,458.8z"/>
	<path fill="#FFFFFF" d="M104.7,87.9c0.7,0,1.4-0.3,2-0.8c1.2-1.1,1.4-3,0.3-4.2c-1.1-1.2-3-1.4-4.2-0.3l-0.1,0.1
		c-1.2,1.1-1.3,3-0.2,4.2C103.1,87.6,103.9,87.9,104.7,87.9z"/>
	<path fill="#FFFFFF" d="M175.4,453.8c-1.5-0.5-3.2,0.3-3.8,1.8c-0.5,1.5,0.3,3.2,1.8,3.8h0.1c0.3,0.1,0.7,0.2,1,0.2
		c1.2,0,2.3-0.8,2.7-2C177.8,456.1,176.9,454.4,175.4,453.8z"/>
	<path fill="#FFFFFF" d="M160.6,447.6c-1.5-0.7-3.3-0.1-4,1.4c-0.7,1.5-0.1,3.3,1.4,4l0.2,0.1c0.4,0.2,0.8,0.3,1.2,0.3
		c1.2,0,2.3-0.6,2.7-1.9C162.8,450,162.1,448.3,160.6,447.6z"/>
	<path fill="#FFFFFF" d="M132.4,432.3c-1.4-0.9-3.2-0.5-4.1,0.9c-0.9,1.4-0.5,3.2,0.9,4.1l0.1,0.1c0.5,0.3,1.1,0.5,1.6,0.5
		c0.9,0,1.9-0.5,2.4-1.5C134.2,435,133.8,433.2,132.4,432.3z"/>
	<path fill="#FFFFFF" d="M117.3,77.6c0.6,0,1.3-0.2,1.8-0.6c1.3-1,1.6-2.9,0.6-4.2s-2.9-1.6-4.2-0.6l-0.1,0.1
		c-1.3,1-1.5,2.8-0.5,4.1C115.5,77.2,116.4,77.6,117.3,77.6z"/>
	<path fill="#FFFFFF" d="M130.6,68.3c0.5,0,1.1-0.2,1.6-0.5c1.4-0.9,1.8-2.7,0.9-4.1c-0.9-1.4-2.7-1.8-4.1-0.9l-0.1,0.1
		c-1.3,0.9-1.7,2.7-0.8,4.1C128.7,67.8,129.6,68.3,130.6,68.3z"/>
	<path fill="#FFFFFF" d="M144.5,60c0.5,0,0.9-0.1,1.5-0.4l0.1-0.1c1.4-0.8,1.9-2.6,1.1-4s-2.6-1.9-4-1.1h-0.1c-1.4,0.8-2,2.6-1.2,4
		C142.4,59.4,143.4,60,144.5,60z"/>
	<path fill="#FFFFFF" d="M331.9,49c0.3,0.1,0.7,0.2,1.1,0.2c1.1,0,2.2-0.7,2.7-1.9c0.6-1.5-0.1-3.3-1.6-3.9H334
		c-1.5-0.6-3.2,0.2-3.8,1.7S330.4,48.4,331.9,49z"/>
	<path fill="#FFFFFF" d="M189.5,41.5c0.2,0,0.5,0,0.8-0.2h0.1c1.5-0.5,2.4-2.1,2-3.7c-0.5-1.5-2.1-2.4-3.7-2h-0.1
		c-1.5,0.5-2.4,2.1-2,3.7C187,40.6,188.2,41.5,189.5,41.5z"/>
	<path fill="#FFFFFF" d="M301.3,39.2c0.2,0.1,0.5,0.1,0.7,0.1c1.4,0,2.6-0.9,3-2.3c0.4-1.6-0.5-3.2-2.1-3.6h-0.2
		c-1.6-0.4-3.2,0.6-3.6,2.2C298.7,37.2,299.7,38.8,301.3,39.2z"/>
	<path fill="#FFFFFF" d="M285.6,36c0.2,0,0.3,0,0.5,0c1.4,0,2.7-1,2.9-2.5c0.3-1.6-0.8-3.1-2.4-3.4h-0.1c-1.7-0.2-3.1,0.9-3.4,2.5
		C282.8,34.2,284,35.7,285.6,36z"/>
	<path fill="#FFFFFF" d="M269.7,34c0.1,0,0.2,0,0.3,0c1.5,0,2.8-1.2,3.0001-2.6c0.1-1.7-1.1-3.1-2.7-3.3h-0.1
		c-1.6-0.2-3.1,1.1-3.2,2.7C266.8,32.4,268.1,33.9,269.7,34z"/>
	<path fill="#FFFFFF" d="M316.8,43.6c0.3,0.1,0.6,0.1,0.9,0.1c1.2,0,2.4-0.8,2.8-2c0.5-1.5-0.3-3.2-1.9-3.7h-0.1
		c-1.6-0.5-3.2,0.3-3.7,1.9C314.3,41.4,315.2,43.1,316.8,43.6z"/>
	<path fill="#FFFFFF" d="M238,466.7h-0.1c-1.6-0.1-3,1.2-3.1,2.8c-0.1,1.6,1.2,3,2.8,3.1h0.1c0.1,0,0.1,0,0.2,0
		c1.6,0,2.9-1.3,2.9-2.8C240.9,468.2,239.6,466.8,238,466.7z"/>
	<path fill="#FFFFFF" d="M254.2,466.8h-0.1c-1.7,0-3,1.4-3,3c0,1.6,1.4,3,3,3h0.2c1.7-0.1,2.9-1.5,2.9-3.1
		C257.1,468.1,255.8,466.8,254.2,466.8z"/>
	<path fill="#FFFFFF" d="M221.3,34.9c0.1,0,0.2,0,0.4,0h0.1c1.7-0.2,2.8-1.6,2.6-3.3c-0.2-1.7-1.7-2.8-3.3-2.6H221
		c-1.7,0.2-2.8,1.7-2.6,3.3C218.6,33.8,219.8,34.9,221.3,34.9z"/>
	<path fill="#FFFFFF" d="M206.3,462.5h-0.1c-1.6-0.3-3.2,0.7-3.5,2.3c-0.3,1.6,0.7,3.2,2.3,3.5h0.1c0.2,0.1,0.4,0.1,0.6,0.1
		c1.4,0,2.6-0.9,2.9-2.4C208.9,464.4,207.9,462.8,206.3,462.5z"/>
	<path fill="#FFFFFF" d="M205.2,37.6c0.2,0,0.4,0,0.6-0.1h0.1c1.6-0.3,2.6-1.9,2.3-3.5s-1.9-2.6-3.5-2.3h-0.1
		c-1.6,0.3-2.6,1.9-2.3,3.5C202.6,36.6,203.8,37.6,205.2,37.6z"/>
	<path fill="#FFFFFF" d="M253.7,33.2h0.0578c-0.014,0,0.0422,0,0.0422,0c1.6,0,2.9-1.4,3.0001-2.8c0-1.7-1.3-3.1-2.9-3.1h-0.1
		c-1.6-0.1-3,1.3-3,2.9C250.8,31.8,252.1,33.2,253.7,33.2z"/>
	<path fill="#FFFFFF" d="M237.4,33.4c0.1,0,0.1,0,0.1,0h0.1c1.6-0.1,2.9-1.5,2.8-3.1c-0.1-1.6-1.5-2.9-3.1-2.8h-0.1
		c-1.6,0.1-2.9,1.5-2.8,3.1C234.5,32.2,235.8,33.4,237.4,33.4z"/>
	<path fill="#FFFFFF" d="M222.2,465.2c-1.7-0.2-3.2,0.9-3.4,2.5c-0.2,1.7,0.9,3.2,2.5,3.4h0.2c0.1,0,0.2,0,0.3,0
		c1.4,0,2.7-1.1,3-2.6C225,466.9,223.8,465.4,222.2,465.2z"/>
	<path fill="#FFFFFF" d="M146.4,440.6l-0.2-0.1c-1.5-0.7-3.2-0.1-4,1.3c-0.8,1.4-0.2,3.2,1.2,4l1.5-2.6l-1.4,2.6
		c0.4,0.3,0.9,0.4,1.4,0.4c1,0,2-0.6,2.6-1.6C148.3,443.2,147.8,441.4,146.4,440.6z"/>
	<path fill="#FFFFFF" d="M36.7,290c-0.2-1.6-1.8-2.7-3.4-2.4c-1.6,0.2-2.7,1.8-2.4,3.4v0.2c0.3,1.4,1.5,2.4,2.9,2.4
		c0.2,0,0.4,0,0.5-0.1C36,293.2,37,291.6,36.7,290z"/>
	<path fill="#FFFFFF" d="M31.9,277.5c1.6-0.2,2.8-1.7,2.6-3.3c-0.2-1.7-1.7-2.9-3.3-2.7c-1.7,0.2-2.9,1.7-2.7,3.3v0.1
		c0.1,1.5,1.4,2.6,2.9,2.6C31.5,277.5,31.7,277.5,31.9,277.5z"/>
	<path fill="#FFFFFF" d="M30.4,261.3c1.6,0,2.9-1.5,2.8-3.1c-0.1-1.7-1.5-3-3.1-2.9c-1.7,0.1-2.9,1.5-2.9,3.1v0.1
		c0.1,1.6,1.4,2.8,3,2.8C30.3,261.3,30.3,261.3,30.4,261.3z"/>
	<path fill="#FFFFFF" d="M40.2,305.8v-0.1c-0.4-1.6-2-2.5-3.6-2.1c-1.6,0.4-2.5,2-2.1,3.6v0.1c0.4,1.3,1.6,2.2,2.9,2.2
		c0.3,0,0.5-0.1,0.7-0.1C39.7,309,40.6,307.4,40.2,305.8z"/>
	<path fill="#FFFFFF" d="M50.6,335.8c-0.7-1.5-2.4-2.2-3.9-1.5c-1.5,0.6-2.2,2.4-1.5,3.9l2.8-1.1l-2.7,1.2c0.4,1.1,1.5,1.8,2.7,1.8
		c0.4,0,0.8,0,1.1-0.2c1.5-0.6,2.2-2.4,1.6-3.9L50.6,335.8z"/>
	<path fill="#FFFFFF" d="M30.2,245c1.6,0,3-1.2,2.9-2.8c0.1-1.7-1.2-3-2.8-3.1c-1.6-0.1-3,1.2-3.1,2.8v0.1
		C27.2,243.6,28.5,245,30.2,245z"/>
	<path fill="#FFFFFF" d="M45,321c-0.6-1.6-2.2-2.4-3.8-1.9c-1.6,0.6-2.4,2.2-1.9,3.8v0.1c0.4,1.3,1.6,2,2.8,2c0.4,0,0.7-0.1,1.1-0.2
		C44.7,324.3,45.5,322.5,45,321z"/>
	<path fill="#FFFFFF" d="M46.7,166c0.4,0.1,0.8,0.2,1.2,0.2c1.1,0,2.2-0.6,2.7-1.7l0.1-0.1c0.6-1.5-0.1-3.3-1.6-3.9
		s-3.3,0.1-3.9,1.6C44.5,163.6,45.2,165.3,46.7,166z"/>
	<path fill="#FFFFFF" d="M41,181.2c0.3,0.1,0.7,0.2,1,0.2c1.2,0,2.4-0.8,2.9-2.1v-0.1c0.5-1.6-0.3-3.3-1.9-3.8s-3.3,0.3-3.8,1.9v0.1
		C38.6,179,39.5,180.7,41,181.2z"/>
	<path fill="#FFFFFF" d="M33.1,212.7c0.2,0.1,0.4,0.1,0.6,0.1c1.4,0,2.7-1,2.8-2.6v-0.1c0.3-1.6-0.8-3.1-2.4-3.4
		c-1.6-0.3-3.1,0.8-3.4,2.4v0.1C30.4,210.8,31.5,212.4,33.1,212.7z"/>
	<path fill="#FFFFFF" d="M36.5,196.9c0.3,0.1,0.5,0.1,0.8,0.1c1.3,0,2.5-0.9,2.9-2.2v-0.1c0.4-1.6-0.6-3.2-2.2-3.6s-3.2,0.6-3.6,2.2
		C34,194.8,34.9,196.5,36.5,196.9z"/>
	<path fill="#FFFFFF" d="M31.1,228.9c0.1,0,0.2,0,0.3,0c1.5,0,2.8-1.1,3.1-2.7v-0.1c0.1-1.7-1.1-3.1-2.7-3.3
		c-1.7-0.1-3.1,1.1-3.3,2.7v0.1C28.3,227.2,29.5,228.7,31.1,228.9z"/>
	<path fill="#FFFFFF" d="M61.3,136.9c0.5,0.4,1.1,0.5,1.6,0.5c0.9,0,1.9-0.5,2.5-1.4l0.1-0.1c0.9-1.4,0.4-3.3-1-4.1
		c-1.4-0.9-3.3-0.4-4.1,1C59.5,134.2,59.9,136,61.3,136.9z"/>
	<path fill="#FFFFFF" d="M92.9,99.1c0.8,0,1.5-0.3,2.1-0.9h0.1c1.2-1.2,1.2-3.1,0-4.2c-1.2-1.2-3.1-1.2-4.2,0l-0.1,0.1
		c-1.2,1.2-1.2,3.1,0,4.2C91.4,98.8,92.1,99.1,92.9,99.1z"/>
	<path fill="#FFFFFF" d="M106.8,413.1c-1.2-1.1-3.1-0.9-4.2,0.3c-1.1,1.2-0.9,3.1,0.3,4.2h0.1c0.6,0.5,1.3,0.7,2,0.7
		c0.8,0,1.6-0.4,2.2-0.9c1-1.2,0.9-3.1-0.3-4.2L106.8,413.1z"/>
	<path fill="#FFFFFF" d="M95.3,401.9c-1.2-1.2-3-1.2-4.2,0c-1.2,1.2-1.2,3,0,4.2v0.1c0.6,0.6,1.3,0.9,2.1,0.9c0.7,0,1.5-0.3,2.2-0.9
		c1.1-1.1,1.1-3,0-4.2L95.3,401.9z"/>
	<path fill="#FFFFFF" d="M119.3,422.9999c-1.3-1-3.2-0.7-4.2,0.6s-0.7,3.2,0.6,4.2l0.1,0.1c0.5,0.4,1.1,0.6,1.7,0.6
		c0.9,0,1.8-0.4,2.4-1.3C120.9,425.9,120.6,423.9999,119.3,422.9999z"/>
	<path fill="#FFFFFF" d="M81.9,111.1c0.9,0,1.7-0.3,2.3-1.1l0.1-0.1c1-1.3,0.9-3.1-0.4-4.2c-1.3-1-3.1-0.9-4.2,0.4v0.1
		c-1.1,1.3-1,3.1,0.3,4.2C80.5,110.9,81.2,111.1,81.9,111.1z"/>
	<path fill="#FFFFFF" d="M70.1,123.3c0.6,0.4,1.2,0.6,1.8,0.6c0.9,0,1.8-0.4,2.3-1.4l0.1-0.1c0.9-1.3,0.6-3.1-0.7-4.1
		c-1.3-0.9-3.1-0.6-4.1,0.7v0.1C68.5,120.5,68.8,122.3,70.1,123.3z"/>
	<path fill="#FFFFFF" d="M57.6,350.3c-0.8-1.4-2.6-2-4-1.2c-1.4,0.8-2,2.6-1.2,4v0.1c0.5,1,1.5,1.6,2.6,1.6c0.5,0,1-0.1,1.4-0.4
		c1.5-0.8,2.1-2.5,1.3-4L57.6,350.3z"/>
	<path fill="#FFFFFF" d="M61.5,363.2c-1.4,0.9-1.8,2.7-1,4.1l0.1,0.2c0.6,0.9,1.5,1.4,2.5,1.4c0.5,0,1.1-0.2,1.6-0.6
		c1.4-0.9,1.8-2.7,0.9-4.1C64.7,362.8,62.9,362.4,61.5,363.2z"/>
	<path fill="#FFFFFF" d="M53.5,151.2c0.4,0.2,0.8,0.3,1.3,0.3c1.1,0,2.2-0.6,2.7-1.6c0.8-1.4,0.2-3.2-1.2-4c-1.4-0.8-3.2-0.2-4,1.2
		l-0.1,0.1C51.5,148.7,52,150.4,53.5,151.2z"/>
	<path fill="#FFFFFF" d="M84.4,390.1c-1.1-1.2-3-1.4-4.2-0.3c-1.2,1.1-1.4,3-0.3,4.2c0.6,0.7,1.4,1.1,2.3,1.1c0.7,0,1.3-0.2,1.9-0.7
		c1.3-1.1,1.5-2.9,0.4-4.2L84.4,390.1z"/>
	<path fill="#FFFFFF" d="M74.5,377.4999c-1-1.3-2.9-1.6-4.2-0.6s-1.6,2.9-0.6,4.2l0.1,0.1c0.6,0.8,1.5,1.2,2.4,1.2
		c0.6,0,1.2-0.2,1.8-0.6c1.3-1,1.6-2.9,0.6-4.2L74.5,377.4999z"/>
	<path fill="#FFFFFF" d="M360.8,436.5c-1.5,0.9-1.9,2.7-1.1,4.1c0.6,1,1.6,1.5,2.6,1.5c0.5,0,1-0.1,1.5-0.4l0.1-0.1
		c1.4-0.9,1.8-2.7,1-4.1C364.1,436.1,362.2,435.7,360.8,436.5z"/>
	<path fill="#FFFFFF" d="M374,71.9c0.5,0.4,1.1,0.6,1.7,0.6c0.9,0,1.9-0.4,2.4-1.3c0.9-1.3,0.6-3.1-0.7-4.1l-0.1-0.1
		c-1.3-0.9-3.2-0.6-4.1,0.8C372.3,69.1,372.7,71,374,71.9z"/>
	<path fill="#FFFFFF" d="M374.2,427.9c-1.4,0.9-1.7,2.7-0.8,4.1c0.6,0.9,1.6,1.3,2.5,1.3c0.6,0,1.2-0.2,1.7-0.5l0.1-0.1
		c1.4-0.9,1.7-2.8,0.7-4.1C377.4,427.2,375.5,426.9,374.2,427.9z"/>
	<path fill="#FFFFFF" d="M455,173.2c0.3,0,0.7-0.1,1.1-0.2c1.5-0.6,2.3-2.3,1.7-3.8l-0.1-0.2c-0.7-1.5-2.4-2.2-3.9-1.6
		c-1.5,0.6-2.2,2.4-1.6,3.9C452.7,172.5,453.8,173.2,455,173.2z"/>
	<path fill="#FFFFFF" d="M434.1,370.2c-1.4-0.9-3.2-0.5-4.1,0.9c-0.9,1.3-0.6,3.2,0.8,4.1c0.5,0.3,1.1,0.5,1.7,0.5
		c1,0,1.9-0.5,2.4-1.3l0.1-0.1C435.9,372.9,435.5,371.1,434.1,370.2z"/>
	<path fill="#FFFFFF" d="M442.6,356.3c-1.5-0.9-3.3-0.3-4.1,1.1c-0.8,1.5-0.3,3.3,1.1,4.1c0.5,0.3,1,0.4,1.5,0.4c1,0,2-0.6,2.5-1.5
		l0.1-0.1C444.5,358.9,444,357.1,442.6,356.3z"/>
	<path fill="#FFFFFF" d="M461.6,201.8c0.3,1.4,1.5,2.4,2.9,2.4c0.2,0,0.4,0,0.6-0.1c1.6-0.3,2.6-1.9,2.3-3.5v-0.2
		c-0.4-1.6-2-2.6-3.6-2.2C462.2,198.6,461.2,200.2,461.6,201.8z"/>
	<path fill="#FFFFFF" d="M346.8,444.2l-0.2,0.1c-1.5,0.8-2,2.5-1.3,4c0.6,1,1.6,1.6,2.7,1.6c0.5,0,0.9-0.1,1.4-0.3
		c1.5-0.7,2.1-2.5,1.4-4S348.3,443.4999,346.8,444.2z"/>
	<path fill="#FFFFFF" d="M449.9,341.6c-1.5-0.7-3.3,0-4,1.5s-0.1,3.3,1.4,4c0.4,0.2,0.9,0.3,1.3,0.3c1.1,0,2.2-0.6,2.6-1.8l0.1-0.1
		C452.0001,344,451.4,342.3,449.9,341.6z"/>
	<path fill="#FFFFFF" d="M386.7,81.5l0.1,0.1c0.6,0.5,1.2,0.7,1.9,0.7c0.9,0,1.7-0.4,2.3-1.1c1.1-1.3,0.9-3.2-0.4-4.2l-0.1-0.1
		c-1.3-1.1-3.2-0.9-4.2,0.4C385.2,78.6,385.4,80.5,386.7,81.5z"/>
	<path fill="#FFFFFF" d="M399.1,407.6c-1.2,1.1-1.3,3-0.2,4.2c0.6,0.7,1.4,1,2.2,1c0.7,0,1.4-0.3,2-0.8l0.1-0.1
		c1.2-1.2,1.2-3,0.1-4.2C402.2,406.4999,400.3,406.4999,399.1,407.6z"/>
	<path fill="#FFFFFF" d="M410.3,396.2c-1.1,1.2-1.1,3.1,0.1,4.2c0.6,0.5,1.4,0.8,2.1,0.8s1.5-0.3,2.1-0.8l0.1-0.2
		c1.1-1.2,1-3.1-0.2-4.2S411.4,395,410.3,396.2z"/>
	<path fill="#FFFFFF" d="M410.1,103.6c0.6,0.7,1.4,1,2.2,1c0.7,0,1.5-0.3,1.9-0.9c1.2-1.1,1.3-3,0.2-4.2c-1.1-1.2-3-1.3-4.2-0.2
		c-1.2,1.1-1.3,3-0.2,4.2L410.1,103.6z"/>
	<path fill="#FFFFFF" d="M424.9,383.4c-1.3-1.1-3.2-0.9-4.2,0.4l-0.1,0.2c-1,1.3-0.7,3.2,0.6,4.2c0.5,0.4,1.2,0.6,1.8,0.6
		c0.9,0,1.7-0.4,2.3-1.2C426.4,386.2999,426.2,384.4,424.9,383.4z"/>
	<path fill="#FFFFFF" d="M270.1,466h-0.2c-1.6,0.2-2.8,1.7-2.6,3.3c0.2,1.6,1.5,2.7,3,2.7c0.1,0,0.2-0.1,0.2001-0.1l-0.2-3l0.3,3
		c1.6-0.1,2.8-1.6,2.7-3.2C273.2,467.1,271.7,465.9,270.1,466z"/>
	<path fill="#FFFFFF" d="M387.1,418.1l-0.1,0.1c-1.2,1.1-1.4,2.9-0.4,4.2c0.6,0.7,1.4,1.1,2.3,1.1c0.6,0,1.3-0.2,1.9-0.7l0.1-0.1
		c1.2-1.1,1.4-2.9,0.4-4.2C390.2,417.3,388.4,417.1,387.1,418.1z"/>
	<path fill="#FFFFFF" d="M457.4,186.3l0.1,0.2c0.4,1.2,1.6,2,2.8,2c0.3,0,0.6-0.1,1.0001-0.2c1.5-0.5,2.4-2.1,1.9-3.7l-2.9,0.8
		l2.8-0.8c-0.5-1.6-2.1-2.5-3.7-2C457.8,183.1,456.9,184.7,457.4,186.3z"/>
	<path fill="#FFFFFF" d="M464.6,217.6v0.1c0.2,1.4,1.4,2.5,2.9,2.5c0.1,0,0.3,0,0.5,0c1.6-0.3,2.7-1.8,2.5-3.4v-0.1
		c-0.3-1.6-1.8-2.7-3.4-2.5C465.5,214.5,464.4,216,464.6,217.6z"/>
	<path fill="#FFFFFF" d="M398.9,92.2c0.6,0.6,1.3,0.8,2,0.8c0.8,0,1.6-0.3,2.2-1c1.1-1.2,1-3.1-0.2-4.2c-1.2-1.1-3.1-1.1-4.2,0.1
		c-1.1,1.2-1.1,3.1,0.1,4.2L398.9,92.2z"/>
	<path fill="#FFFFFF" d="M445.8,156.6c0.5,1.1,1.6,1.7,2.7,1.7c0.5,0,0.9-0.1,1.2-0.3c1.5-0.7,2.1-2.5,1.4-4v-0.1
		c-0.7-1.5-2.5-2.1-4-1.4s-2.1,2.5-1.4,4L445.8,156.6z"/>
	<path fill="#FFFFFF" d="M469.5,263.2999c-1.6-0.1-3.1,1.1-3.2,2.7v0.2c-0.1,1.6,1.2,3,2.8,3.1c0.1,0,0.1,0,0.2,0
		c1.6,0,2.9-1.2,2.9-2.8C472.3,264.9,471.1,263.4,469.5,263.2999z"/>
	<path fill="#FFFFFF" d="M301.8,460.8h-0.2c-1.6,0.4-2.5,2-2.1,3.6c0.4,1.3,1.6,2.2,2.9,2.2c0.2,0,0.4,0,0.8,0
		c1.6-0.4,2.6-2,2.2-3.6C305.0001,461.4,303.4,460.4,301.8,460.8z"/>
	<path fill="#FFFFFF" d="M438.4,142.4c0.6,1,1.6,1.5,2.6,1.5c0.5,0,1-0.1,1.3-0.4c1.5-0.9,1.9-2.7,1.1-4.1c-0.8-1.4-2.6-1.9-4-1.1
		c-1.4,0.8-1.9,2.6-1.1,4L438.4,142.4z"/>
	<path fill="#FFFFFF" d="M465.3,295.4c-1.6-0.4-3.2,0.6-3.6,2.2v0.2c-0.3,1.6,0.7,3.2,2.3,3.5c0.2,0.1,0.4,0.1,0.6,0.1
		c1.3,0,2.6-1,2.9-2.4C467.9,297.4,466.9,295.7999,465.3,295.4z"/>
	<path fill="#FFFFFF" d="M469.8,246.5c-1.7,0-3,1.4-3,3v0.1c0,0.1,0,0.1,0,0.2s0,0.1,0,0.2v0.1c0,1.7,1.4,3,3,3c1.6,0,3-1.4,3-3V250
		c0-0.1,0-0.1,0-0.2c0-0.1,0-0.1,0-0.2v-0.1C472.8,247.8,471.4,246.5,469.8,246.5z"/>
	<path fill="#FFFFFF" d="M346.4,55.5l0.1,0.1c0.4,0.2,0.9,0.3,1.3,0.3c1.1,0,2.1-0.6,2.8-1.7c0.7-1.5,0.1-3.3-1.4-4h-0.1
		c-1.5-0.8-3.3-0.2-4,1.3C344.3,53,344.9,54.8,346.4,55.5z"/>
	<path fill="#FFFFFF" d="M360.5,63.2l0.1,0.1c0.5,0.3,1,0.4,1.5,0.4c1,0,2-0.5,2.7-1.5c0.8-1.5,0.3-3.3-1.1-4.1h-0.1
		c-1.4-0.9-3.3-0.4-4.1,1C358.6,60.5,359.1,62.4,360.5,63.2z"/>
	<path fill="#FFFFFF" d="M317.2,456.4c-1.6,0.5-2.5,2.1-2,3.7c0.3,1.3,1.5,2.1,2.8,2.1c0.2,0,0.5-0.1,0.9-0.0001l0.2-0.1
		c1.6-0.6,2.4-2.2,1.9-3.8C320.4,456.7,318.8,455.9,317.2,456.4z"/>
	<path fill="#FFFFFF" d="M286,463.9c-1.6,0.3-2.7,1.8-2.5,3.4c0.2,1.5,1.4,2.6,2.9,2.6c0.1,0,0.3,0,0.4-0.2h0.2
		c1.6-0.2,2.7-1.8,2.4-3.4C289.2,464.7,287.6,463.6,286,463.9z"/>
	<path fill="#FFFFFF" d="M468,279.5c-1.7-0.2-3.2,0.9-3.4,2.5v0.1c-0.3,1.7,0.9,3.2,2.5,3.4c0.1,0,0.3,0,0.4,0c1.5,0,2.8-1.1,3-2.5
		v-0.1C470.7,281.2,469.6,279.7,468,279.5z"/>
	<path fill="#FFFFFF" d="M456.4,326.7c-1.6-0.6-3.3,0.2-3.9,1.7l-0.1,0.1c-0.6,1.5,0.2,3.2,1.7,3.8c0.3,0.1,0.7,0.2,1,0.2
		c1.2,0,2.3-0.7,3-1.8v-0.1C458.7,328.9999,457.9,327.3,456.4,326.7z"/>
	<path fill="#FFFFFF" d="M422.8,117c0.7,0,1.3-0.2,1.9-0.6c1.3-1,1.5-2.9,0.5-4.2l-0.1-0.1c-1.1-1.2-2.9-1.4-4.2-0.4
		c-1.2,1-1.4,2.9-0.4,4.2C421,116.6,421.9,117,422.8,117z"/>
	<path fill="#FFFFFF" d="M332.2,450.8l-0.1,0.1c-1.5,0.6-2.2,2.4-1.6,3.9c0.4,1.1,1.5,1.8,2.7,1.8c0.4,0,0.8-0.1,1.2-0.3h0.1
		c1.5-0.6,2.2-2.4,1.6-3.9C335.5,450.9,333.7,450.2,332.2,450.8z"/>
	<path fill="#FFFFFF" d="M466.3,233.5c0.1,1.6,1.4,2.8,3,2.8h0.1c1.6-0.1,2.9-1.5,2.8-3.1V233c-0.1-1.6-1.6-2.8-3.2-2.7
		C467.4,230.4,466.2,231.9,466.3,233.5z"/>
	<path fill="#FFFFFF" d="M430,128.8c0.6,0.9,1.5,1.3,2.4,1.3c0.6,0,1.2-0.2,1.7-0.6c1.4-0.9,1.7-2.7,0.8-4.1
		c-0.9-1.4-2.7-1.8-4.1-0.9c-1.4,0.9-1.8,2.7-0.9,4.1L430,128.8z"/>
	<path fill="#FFFFFF" d="M461.3,311.3c-1.6-0.5-3.2,0.4-3.7,2c-0.5,1.5,0.3,3.2,1.9,3.7c0.3,0.1,0.6,0.1,0.9,0.1
		c1.3,0,2.4-0.8,2.9-2V315C463.8,313.4,462.9,311.8,461.3,311.3z"/>
	<path fill="#FFFFFF" d="M45.8,291.3c0.1,0,0.3,0,0.6,0c1.6-0.3,2.7-1.9,2.4-3.5c-0.3-1.6-1.9-2.7-3.5-2.4c-1.6,0.2-2.7,1.8-2.4,3.4
		v0.1C43.2,290.3,44.4,291.3,45.8,291.3z"/>
	<path fill="#FFFFFF" d="M49.2,306.3c0.2,0,0.5,0,0.8-0.2c1.6-0.4,2.5-2,2.1-3.6v-0.1c-0.5-1.6-2.1-2.5-3.7-2.1
		c-1.6,0.5-2.5,2.1-2.1,3.7l2.9-0.7l-2.9,0.8C46.7,305.4,47.9,306.3,49.2,306.3z"/>
	<path fill="#FFFFFF" d="M42.4,260.9c1.7,0,3-1.4,2.9-3.2v-0.1c-0.1-1.6-1.5-2.9-3.1-2.8c-1.6,0.1-2.9,1.5-2.8,3.1h3l-3,0.1
		C39.5,259.6,40.8,260.9,42.4,260.9z"/>
	<path fill="#FFFFFF" d="M43.2,230.2c0.1,0,0.2,0,0.3,0c1.5,0,2.8-1.1,3.1-2.6v-0.1c0.2-1.7-1-3.1-2.6-3.3c-1.7-0.2-3.1,1-3.3,2.6
		l2.9,0.4l-3-0.3C40.4,228.6,41.6,230,43.2,230.2z"/>
	<path fill="#FFFFFF" d="M48.2,200c0.3,0.1,0.5,0.1,0.8,0.1c1.4,0,2.6-0.9,2.8-2.1v-0.1c0.5-1.6-0.5-3.2-2.1-3.6
		c-1.6-0.5-3.2,0.5-3.6,2.1C45.7,198,46.6,199.6,48.2,200z"/>
	<path fill="#FFFFFF" d="M42.8,211.5v0.1c-0.3,1.6,0.8,3.1,2.4,3.4c0.1,0,0.3,0,0.5,0c1.4,0,2.7-1,3-2.4c0.3-1.6-0.8-3.2-2.4-3.5
		C44.7,208.8,43.1,209.9,42.8,211.5z"/>
	<path fill="#FFFFFF" d="M455.9,277.6c-1.6-0.2-3.2,0.9-3.4,2.5c0,0.1,0,0.2,0,0.2c-0.2,1.6,1,3.1,2.6,3.3c0.1,0,0.3,0,0.4,0
		c1.5,0,2.7-1,2.9-2.5l-2.9-0.5l2.9,0.4C458.6,279.4,457.5,277.8,455.9,277.6z"/>
	<path fill="#FFFFFF" d="M452.6,206.9c0.2,0,0.5,0,0.7,0.0001c1.6-0.4,2.6-2,2.2-3.6c-0.3-1.6-1.9-2.7-3.5-2.3
		c-1.6,0.3-2.7,1.9-2.3,3.5c0,0.1,0,0.2,0,0.2C450.1,206,451.3,206.9,452.6,206.9z"/>
	<path fill="#FFFFFF" d="M192,47.4c-1.6,0.5-2.4,2.1-2,3.7c0.4,1.3,1.6,2.1,2.9,2.1c0.3,0,0.5-0.1,0.8,0c1.6-0.5,2.5-2.1,2.1-3.7
		c-0.5-1.6-2.1-2.5-3.7-2.1H192z"/>
	<path fill="#FFFFFF" d="M207.2,43.6l0.5,2.9l-0.6-2.9c-1.6,0.3-2.6,1.9-2.3,3.5c0.3,1.4,1.5,2.4,2.9,2.4c0.2,0,0.4,0,0.6-0.1h0.1
		c1.6-0.3,2.6-1.9,2.3-3.5C210.4,44.3,208.8,43.3,207.2,43.6z"/>
	<path fill="#FFFFFF" d="M434.9,161.8c0.5,1.1,1.6,1.7,2.7,1.7c0.4,0,0.8-0.1,1.2-0.2c1.5-0.7,2.1-2.5,1.4-4v-0.1
		c-0.7-1.5-2.4-2.1-3.9-1.4S434.2,160.3,434.9,161.8z"/>
	<path fill="#FFFFFF" d="M175.5,56c0.4,1.2,1.6,1.9,2.8,1.9c0.3,0,0.7,0,1-0.1c1.6-0.6,2.4-2.3,1.8-3.8c-0.6-1.6-2.3-2.4-3.8-1.8
		h-0.1C175.7,52.8,174.9,54.5,175.5,56z"/>
	<path fill="#FFFFFF" d="M442.7,327.9c0.4,0.1,0.7,0.2,1.1,0.2c1.1,0,2.2-0.7,2.7-1.9c0.1,0,0.1-0.1,0.1-0.1
		c0.6-1.5-0.2-3.2-1.7-3.8c-1.6-0.6-3.3,0.2-3.9,1.7C440.4,325.6,441.2,327.3,442.7,327.9z"/>
	<path fill="#FFFFFF" d="M222.5,41.1h-0.1c-1.6,0.2-2.7,1.7-2.5,3.3c0.2,1.5,1.5,2.6,3,2.6c0.2,0,0.3,0,0.4-0.1
		c1.6-0.2,2.7-1.7,2.5-3.3C225.6,42,224.1,40.9,222.5,41.1z"/>
	<path fill="#FFFFFF" d="M390.6,101.1c0.5,0.5,1.3,0.8,2,0.8c0.8,0,1.6-0.4,2.2-0.9c1.2-1.2,1.1-3.1-0.1-4.2l-0.1-0.1
		c-1.2-1.1-3.1-1-4.2,0.2C389.3,98.1,389.4,100,390.6,101.1z"/>
	<path fill="#FFFFFF" d="M379.1,91c0.6,0.5,1.2,0.7,1.9,0.7c0.9,0,1.7-0.3,2.2-1.1c1.1-1.3,0.9-3.2-0.4-4.2l-0.1-0.1
		c-1.2-1-3.1-0.8-4.1,0.5S377.8,90,379.1,91z"/>
	<path fill="#FFFFFF" d="M401.2,107.6c-1.2,1.1-1.3,3-0.2,4.2l0.1,0.1c0.6,0.6,1.4,0.9,2.2,0.9c0.8,0,1.5-0.3,2-0.8
		c1.2-1.1,1.2-3,0.1-4.2C404.3,106.6,402.4,106.5,401.2,107.6z"/>
	<path fill="#FFFFFF" d="M39.4,242.4v0.1c0,1.6,1.3,2.9,2.9,3h0.1c1.6,0,2.9-1.3,2.9-2.8c0.1-1.6-1.2-3-2.8-3.1
		C40.9,239.5,39.5,240.8,39.4,242.4z"/>
	<path fill="#FFFFFF" d="M50.7,181.4c-0.5,1.5,0.4,3.2,1.9,3.7c0.3,0.1,0.6,0.2,0.9,0.2c1.2,0,2.4-0.8,2.8-2
		c0.6-1.6-0.3-3.3-1.8-3.8c-1.6-0.6-3.3,0.2-3.8,1.8V181.4z"/>
	<path fill="#FFFFFF" d="M411.4,119c-1.3,1-1.5,2.9-0.5,4.2c0,0.1,0.1,0.2,0.1,0.2c0.6,0.7,1.5,1.1,2.3,1.1c0.6,0,1.3-0.2,1.8-0.8
		c1.3-1.1,1.5-2.9,0.5-4.2S412.7,118,411.4,119z"/>
	<path fill="#FFFFFF" d="M56.3,166.9v0.1c-0.6,1.5,0.1,3.2,1.6,3.8c0.3,0.1,0.7,0.2,1.1,0.2c1.2,0,2.3-0.7,2.7-1.7
		c0.7-1.5,0-3.2-1.5-3.9C58.7,164.7,57,165.4,56.3,166.9z"/>
	<path fill="#FFFFFF" d="M63.1,152.7c-0.1,0-0.1,0.1-0.1,0.1c-0.7,1.5-0.2,3.2,1.3,4c0.4,0.2,0.8,0.3,1.3,0.3c1.1,0,2.1-0.6,2.7-1.6
		c0.8-1.4,0.3-3.2-1.2-4C65.7,150.7,63.9,151.2,63.1,152.7z"/>
	<path fill="#FFFFFF" d="M454.3,234.3v0.2c0.1,1.6,1.4,2.7,2.9,2.7c0,0,0.1,0,0.3,0c1.6-0.1,2.8-1.6,2.7-3.2
		c-0.1-1.7-1.5-2.9-3.1-2.8C455.4,231.3,454.2,232.7,454.3,234.3z"/>
	<path fill="#FFFFFF" d="M460.1,265.8v-0.2c0.1-1.6-1.1-3-2.7-3.1c-1.6-0.2-3.1,1.1-3.2,2.7c-0.1,1.6,1.1,3,2.7,3.2
		c0.1,0,0.2,0,0.3,0C458.7,268.4,460,267.2,460.1,265.8z"/>
	<path fill="#FFFFFF" d="M455.1,216.1c-1.6,0.2-2.7,1.8-2.5,3.4c0.2,1.4,1.5,2.5,2.9,2.5c0.1,0,0.3,0,0.5,0c1.6-0.3,2.7-1.8,2.5-3.4
		v-0.1C458.2,216.9,456.7,215.9,455.1,216.1z"/>
	<path fill="#FFFFFF" d="M70.7,139.2c-0.9,1.4-0.5,3.2,0.9,4.1c0.5,0.4,1.1,0.5,1.6,0.5c1,0,2-0.5,2.5-1.4l0.1-0.1
		c0.8-1.4,0.4-3.2-1-4.1C73.4,137.4,71.6,137.8,70.7,139.2z"/>
	<path fill="#FFFFFF" d="M447.8,186.2c-1.6,0.5-2.4,2.1-2,3.7c0.4,1.3,1.6,2.2,2.9,2.2c0.3,0,0.5-0.1,0.9-0.1c1.5-0.5,2.5-2.1,2-3.7
		c-0.1-0.1-0.1-0.2-0.1-0.2C451.0001,186.6,449.4,185.7,447.8,186.2z"/>
	<path fill="#FFFFFF" d="M147.7,69c0.5,1,1.5,1.6,2.6,1.6c0.5,0,1-0.1,1.4-0.3l0.1-0.1c1.5-0.8,2-2.6,1.2-4c-0.8-1.5-2.6-2-4-1.2
		l1.3,2.6l-1.4-2.6C147.4,65.8,146.9,67.6,147.7,69z"/>
	<path fill="#FFFFFF" d="M460.8,250.1c0-0.1,0-0.1,0-0.2c0-0.1,0-0.1,0-0.2v-0.1c0-1.6-1.4-2.9-3-2.9c-1.6,0-3,1.4-3,3
		c0,0,0,0.1,0,0.2c0,0,0,0.1,0,0.2c0,1.7,1.4,3,3,3c1.7,0,3.1-1.4,3-2.9V250.1z"/>
	<path fill="#FFFFFF" d="M442.6,171.8c-1.6,0.6-2.3,2.4-1.7,3.9c0.5,1.2,1.6,1.9,2.8,1.9c0.3,0,0.7-0.1,1-0.2999
		c1.5-0.5,2.3-2.3,1.7-3.8v-0.1C445.8,171.9,444.1,171.2,442.6,171.8z"/>
	<path fill="#FFFFFF" d="M161.3,62c0.5,1.1,1.6,1.8,2.7,1.8c0.4,0,0.9-0.1,1.2-0.3h0.1c1.5-0.6,2.2-2.4,1.5-3.9
		c-0.6-1.5-2.4-2.2-3.9-1.5l1.1,2.7l-1.2-2.7C161.3,58.7,160.6,60.5,161.3,62z"/>
	<path fill="#FFFFFF" d="M331.5,441.2c-0.6-1.6-2.4-2.3-3.9-1.7l-0.1,0.1c-1.5,0.6-2.2,2.4-1.6,3.9c0.4,1.1,1.5,1.8,2.7,1.8
		c0.4,0,0.8,0,1.2-0.2C331.4,444.5,332.1,442.7,331.5,441.2z"/>
	<path fill="#FFFFFF" d="M327.3,60.3c0.3,0.1,0.7,0.2,1.1,0.2c1.1,0,2.2-0.7,2.8-1.8c0.6-1.5-0.1-3.3-1.6-3.9h-0.1
		c-1.5-0.7-3.2,0.1-3.8,1.6C325,57.9,325.8,59.7,327.3,60.3z"/>
	<path fill="#FFFFFF" d="M317.0001,446.7c-0.5-1.5-2.1-2.4-3.7-1.9h-0.1c-1.5,0.6-2.3,2.3-1.8,3.8c0.4,1.2,1.6,2,2.8,2
		c0.3,0,0.6,0,0.9-0.2C316.6,449.9,317.5001,448.3,317.0001,446.7z"/>
	<path fill="#FFFFFF" d="M341,66.5c0.5,0.2,0.9,0.3,1.4,0.3c1,0,2.1-0.6,2.7-1.6c0.7-1.5,0.2-3.2-1.3-4c-0.1,0-0.2-0.1-0.2-0.1
		c-1.5-0.7-3.2-0.1-3.9,1.4C338.9,64,339.6,65.8,341,66.5z"/>
	<path fill="#FFFFFF" d="M43.5,276.2c0.1,0,0.2,0,0.4,0c1.6-0.2,2.8-1.7,2.6-3.3v-0.1c-0.2-1.6-1.7-2.8-3.3-2.6
		c-1.6,0.2-2.8,1.7-2.6,3.3C40.7,275.1,42,276.2,43.5,276.2z"/>
	<path fill="#FFFFFF" d="M345.3,434.7c-0.8-1.5-2.5-2.1-4-1.3c-1.5,0.6-2.1,2.4-1.4,3.9c0.5,1.1,1.6,1.7,2.7,1.7
		c0.4,0,0.8-0.1,1.2-0.2l0.2-0.1C345.5,437.9999,346.1,436.2,345.3,434.7z"/>
	<path fill="#FFFFFF" d="M268.6,46.1c0.1,0,0.2,0,0.3,0c1.5,0,2.8-1.2,3-2.7c0.1-1.6-1.1-3-2.7-3.2h-0.1c-1.7-0.1-3,1.1-3.2,2.7
		C265.7,44.5,267,45.9,268.6,46.1z"/>
	<path fill="#FFFFFF" d="M284.9,457.9l-0.4-2.9l0.5,2.9c1.7-0.3,2.8-1.8,2.5-3.4c-0.3-1.6-1.8-2.8-3.4-2.5c-0.1,0-0.2,0-0.2,0
		c-1.6,0.3-2.7,1.8-2.4,3.4c0.2,1.5,1.5,2.5,2.9,2.5C284.6,457.9,284.8,457.9,284.9,457.9z"/>
	<path fill="#FFFFFF" d="M283.5,48c0.1,0,0.2,0,0.2,0c0.1,0,0.3,0,0.4,0c1.5,0,2.7-1,2.9-2.5c0.2-1.6-0.9-3.1-2.5-3.4l-0.017,0.0986
		c-1.5935-0.2889-3.084,0.8071-3.3829,2.4014C280.8,46.2,281.9,47.7,283.5,48z"/>
	<path fill="#FFFFFF" d="M269.4001,459.9l-0.2-3l0.3,3c1.6-0.1,2.8-1.6,2.7-3.2c-0.1-1.6-1.6-2.9-3.2-2.7h-0.1
		c-1.7,0.1-2.9,1.6-2.7,3.2c0.2,1.5,1.5,2.7,3,2.7C269.3,459.9,269.4,459.8,269.4001,459.9z"/>
	<path fill="#FFFFFF" d="M300.3,454.7c1.5-0.3,2.5-1.9,2.1-3.5c-0.4-1.6-2-2.5-3.6-2.2c-1.6,0.3-2.7,1.9-2.3,3.5
		c0.3,1.4,1.5,2.3,2.9,2.3c0.2,0,0.5,0,0.7-0.1C300.2,454.7,300.3,454.7,300.3,454.7z"/>
	<path fill="#FFFFFF" d="M298.5,51c0.2,0.1,0.5,0.1,0.7,0.1c1.3,0,2.5-0.9,2.9-2.3c0.4-1.6-0.6-3.2-2.2-3.6h-0.1
		c-1.6-0.4-3.1,0.6-3.5,2.2C295.9,49,296.9,50.6,298.5,51z"/>
	<path fill="#FFFFFF" d="M313,55.1c0.3,0.1,0.6,0.1,0.9,0.1c1.3,0,2.4-0.8,2.9-2.1c0.5-1.5-0.3-3.2-1.9-3.7h-0.1
		c-1.6-0.5-3.1,0.3-3.7,1.9C310.5,52.9,311.5,54.6,313,55.1z"/>
	<path fill="#FFFFFF" d="M354.1,73.7c0.1,0,0.2,0.1,0.2,0.1c0.5,0.3,1,0.4,1.5,0.4c1.1,0,2.1-0.6,2.6-1.5c0.8-1.5,0.3-3.3-1.1-4.1
		l-1.6,2.5l1.5-2.5c-1.4-0.8-3.3-0.4-4.1,1C352.3,71,352.7,72.8,354.1,73.7z"/>
	<path fill="#FFFFFF" d="M420.7,368.4c0.5,0.3,1.1,0.5,1.7,0.5c1,0,1.9-0.5,2.3-1.2l0.1-0.1c0.9-1.4,0.6-3.2-0.8-4.1
		c-1.3-0.9-3.2-0.5-4.1,0.8C419,365.6,419.3,367.5,420.7,368.4z"/>
	<path fill="#FFFFFF" d="M440.2,340.7l0.1-0.2c0.7-1.5,0.1-3.3-1.4-4c-1.4-0.7-3.2-0.1-3.9,1.4s-0.2,3.2,1.3,4
		c0.5,0.2,0.9,0.3,1.4,0.3C438.7,342.2,439.8,341.6,440.2,340.7z"/>
	<path fill="#FFFFFF" d="M427.9,148.5c0.5,0.9,1.5,1.4,2.5,1.4c0.5,0,1.1-0.1,1.4-0.2c1.4-0.9,1.9-2.7,1.1-4.1l-2.6,1.4l2.6-1.5
		c-0.8-1.4-2.6-1.9-4-1.1c-1.4,0.8-1.9,2.6-1.1,4L427.9,148.5z"/>
	<path fill="#FFFFFF" d="M433.1,354.3l0.1-0.2c0.8-1.4,0.2-3.2-1.2-4c-1.4-0.7-3.2-0.2-4,1.2c-0.8,1.4-0.4,3.2,1,4.1
		c0.4,0.3,1,0.4,1.5,0.4C431.5,355.8,432.5,355.3,433.1,354.3z"/>
	<path fill="#FFFFFF" d="M449.7,307.8c-1.5-0.5-3.2,0.3-3.7,1.9v0.1c-0.5,1.6,0.4,3.2,2,3.7c0.2,0.1,0.5,0.1,0.8,0.1
		c1.3,0,2.4-0.9,2.9-2.1C452.1,310,451.3,308.3,449.7,307.8z"/>
	<path fill="#FFFFFF" d="M455.6,296.5v-0.2c0.4-1.6-0.6-3.1-2.2-3.5c-1.6-0.4-3.2,0.6-3.6,2.2c-0.4,1.6,0.6,3.2,2.2,3.6
		c0.2,0.1,0.5,0.1,0.7,0.1C454,298.7,455.2,297.8,455.6,296.5z"/>
	<path fill="#FFFFFF" d="M367,81.9l0.1,0.1c0.5,0.3,1.1,0.5,1.7,0.5c0.9,0,1.8-0.5,2.4999-1.3c0.9-1.3,0.6-3.2-0.8-4.1l-1.8,2.4
		l1.7-2.4c-1.3-1-3.2-0.6-4.1,0.7C365.3,79.1,365.7,81,367,81.9z"/>
	<path fill="#FFFFFF" d="M390.7,398.8c-1.2,1.1-1.3,3-0.2,4.2c0.6,0.7,1.4,1,2.2,1c0.7,0,1.4-0.3,2-0.9l0.1-0.1
		c1.2-1.1,1.2-2.9,0.1-4.1C393.8,397.7,391.9,397.7,390.7,398.8z"/>
	<path fill="#FFFFFF" d="M379.3,408.7c-1.3,1-1.5,2.9-0.5,4.2c0.6,0.8,1.5,1.2,2.4,1.2c0.6,0,1.2-0.2,1.7-0.7c0.1,0,0.2-0.1,0.2-0.1
		c1.3-1.1,1.5-2.9,0.4-4.2C382.4,407.8,380.6,407.6,379.3,408.7z"/>
	<path fill="#FFFFFF" d="M367.2,417.9c-1.3,0.9-1.7,2.7-0.8,4.1c0.6,0.8,1.5,1.3,2.5,1.3c0.6,0,1.2-0.1,1.6-0.4l0.1-0.1
		c1.3-0.9,1.6-2.8,0.7-4.1C370.4,417.3,368.6,417,367.2,417.9z"/>
	<path fill="#FFFFFF" d="M401.3,387.9999l-0.1,0.1c-1,1.3-0.9,3.1,0.3,4.2c0.6,0.5,1.3,0.7,2,0.7c0.8,0,1.6-0.3,2.2001-1.0001
		c1.1-1.2,1-3.1-0.2-4.2C404.3,386.7,402.4,386.7999,401.3,387.9999z"/>
	<path fill="#FFFFFF" d="M419.9,135.6c0.5,0.9,1.5,1.3,2.4,1.3c0.6,0,1.2-0.2,1.6-0.6c1.4-0.9,1.7-2.8,0.8-4.1
		c-0.9-1.3-2.7-1.7-4.1-0.8c-1.3,0.9-1.7,2.7-0.8,4.1L419.9,135.6z"/>
	<path fill="#FFFFFF" d="M415.3,375.9c-1.3-1-3.2-0.8-4.2,0.5c-1.1,1.3-0.9,3.2,0.4,4.2c0.6,0.5,1.2,0.7,1.9,0.7
		c0.9,0,1.7-0.4,2.3-1.2l0.1-0.1C416.8,378.7,416.6,376.9,415.3,375.9z"/>
	<path fill="#FFFFFF" d="M354.6,426.2c-1.5,0.8-2,2.6-1.2,4c0.5,0.9,1.5,1.5,2.6,1.5c0.5,0,1-0.2,1.5-0.3l0.2-0.1
		c1.4-0.9,1.9-2.7,1-4.1C357.8,425.8,356,425.4,354.6,426.2z"/>
	<path fill="#FFFFFF" d="M91.2,118.9c0.9,0,1.8-0.4,2.4-1.1c1-1.3,0.9-3.1-0.4-4.2c-1.3-1-3.1-0.9-4.2,0.4l-0.1,0.1
		c-1,1.2-0.9,3,0.4,4.1C89.9,118.7,90.5,118.9,91.2,118.9z"/>
	<path fill="#FFFFFF" d="M101.6,107.6c0.8,0,1.6-0.4,2.1-0.9c1.2-1.2,1.2-3.1,0-4.2c-1.2-1.2-3.1-1.2-4.2,0l-0.1,0.1
		c-1.1,1.2-1.1,3.1,0.1,4.2C100.1,107.3,100.9,107.6,101.6,107.6z"/>
	<path fill="#FFFFFF" d="M93.4,386.6c1.3-1.1,1.5-2.9,0.4-4.2l-0.1-0.1c-1.1-1.2-3-1.4-4.2-0.3c-1.2,1.1-1.4,3-0.3,4.2
		c0.6,0.7,1.5,1.1,2.3,1.1C92.2,387.3,92.8,387,93.4,386.6z"/>
	<path fill="#FFFFFF" d="M103.9,393.5c-1.1-1.2-3-1.2-4.2-0.1c-1.2,1.1-1.2,3-0.1,4.2l0.1,0.1c0.6,0.6,1.4,0.9,2.1,0.9
		c0.7,0,1.5-0.3,2.1-0.9C105,396.6,105,394.7,103.9,393.5z"/>
	<path fill="#FFFFFF" d="M112.7,97c0.7,0,1.4-0.2,2-0.7l0.1-0.1c1.3-1.1,1.4-3,0.3-4.2c-1.1-1.3-3-1.4-4.2-0.3l1.9,2.3l-2-2.2
		c-1.3,1.1-1.4,3-0.3,4.2C111.1,96.7,111.9,97,112.7,97z"/>
	<path fill="#FFFFFF" d="M115.1,408c1.1-1.2,1-3.1-0.2-4.2l-0.1-0.1c-1.2-1-3-0.8-4.1,0.4c-1.1,1.3-0.9,3.1,0.3,4.2
		c0.6,0.5,1.3,0.8,2,0.8C113.8,409.1,114.6,408.8,115.1,408z"/>
	<path fill="#FFFFFF" d="M82,372.3l-2.4,1.7c0.6,0.8,1.5,1.2,2.4,1.2c0.6,0,1.2-0.2,1.7-0.5c1.4-0.9,1.7-2.8,0.7-4.1l-0.1-0.1
		c-1-1.3-2.9-1.6-4.2-0.6c-1.3,0.9-1.6,2.8-0.6,4.1L82,372.3z"/>
	<path fill="#FFFFFF" d="M124.6,87.3c0.6,0,1.3-0.2,1.8-0.6c1.3-1,1.6-2.9,0.6-4.2s-2.9-1.6-4.2-0.6l-0.1,0.1
		c-1.3,1-1.5,2.8-0.5,4.1C122.8,86.9,123.7,87.3,124.6,87.3z"/>
	<path fill="#FFFFFF" d="M61.9,331c-0.6-1.5-2.4-2.2-3.9-1.5c-1.5,0.6-2.2,2.4-1.5,3.9v0.1c0.5,1.2,1.6,1.8,2.7,1.8
		c0.4,0,0.8-0.1,1.2-0.4C61.9,334.3,62.6,332.5,61.9,331z"/>
	<path fill="#FFFFFF" d="M54.7,320.9c1.5-0.5,2.3-2.3,1.8-3.8c-0.6-1.6-2.2-2.4-3.8-1.9c-1.6,0.6-2.4,2.2-1.9,3.8v0.1
		c0.5,1.2,1.6,1.9,2.8,1.9C53.9,321,54.3,320.9,54.7,320.9z"/>
	<path fill="#FFFFFF" d="M68.3,344.7c-0.8-1.4-2.6-2-4-1.2c-1.4,0.8-2,2.6-1.2,4l2.7-1.3l-2.6,1.4c0.5,1,1.5,1.6,2.6,1.6
		c0.5,0,0.9-0.1,1.3-0.4c1.5-0.8,2.1-2.5,1.3-4L68.3,344.7z"/>
	<path fill="#FFFFFF" d="M80,130.4c0.6,0.4,1.2,0.6,1.8,0.6c0.9,0,1.8-0.4,2.3-1.3l0.1-0.1c1-1.3,0.6-3.2-0.7-4.1s-3.1-0.6-4.1,0.7
		C78.4,127.6,78.7,129.4,80,130.4z"/>
	<path fill="#FFFFFF" d="M71.8,356.8c-1.4,0.9-1.9,2.7-1,4.1l0.1,0.1c0.6,0.9,1.5,1.4,2.5,1.4c0.5,0,1.1-0.1,1.5-0.5
		c1.4-0.8,1.8-2.7,1-4.1C75,356.4,73.2,356,71.8,356.8z"/>
	<path fill="#FFFFFF" d="M152.2,429.9c-0.1,0-0.2-0.1-0.2-0.1c-1.5-0.7-3.2-0.1-4,1.3c-0.8,1.4-0.2,3.2,1.2,4l1.5-2.6l-1.4,2.6
		c0.4,0.3,0.9,0.4,1.4,0.4c1,0,2-0.6,2.7-1.6C154.2,432.5,153.6,430.7,152.2,429.9z"/>
	<path fill="#FFFFFF" d="M194.1,446.9H194c-1.6-0.4-3.3,0.5-3.7,2.1c-0.4,1.6,0.5,3.3,2.1,3.7l0.9-2.8l-0.8,2.9
		c0.3,0.1,0.5,0.1,0.8,0.1c1.3,0,2.4-0.9,2.8-2.3C196.6,448.9999,195.7,447.4,194.1,446.9z"/>
	<path fill="#FFFFFF" d="M223.6,453.1c-1.6-0.2-3.2,0.9-3.4,2.5c-0.2,1.6,0.9,3.2,2.5,3.4c0.1,0,0.2,0,0.2,0c0.2,0,0.3,0,0.4,0
		c1.5,0,2.7-1.1,2.8-2.6C226.4,454.8,225.2,453.3,223.6,453.1z"/>
	<path fill="#FFFFFF" d="M208.8,450.5h-0.2c-1.6-0.3-3.1,0.8-3.4,2.4c-0.3,1.6,0.7,3.2,2.3,3.5l0.7-2.9l-0.6,2.9
		c0.2,0.1,0.4,0.1,0.6,0.1c1.3,0,2.6-0.9,2.9-2.5C211.4,452.4,210.4,450.9,208.8,450.5z"/>
	<path fill="#FFFFFF" d="M126.7,413.4c-1.3-1-3.2-0.8-4.2,0.5s-0.8,3.2,0.5,4.2l0.1,0.1c0.5,0.4,1.1,0.6,1.7,0.6
		c0.9,0,1.8-0.4,2.5-1.2C128.3,416.2999,128,414.4,126.7,413.4z"/>
	<path fill="#FFFFFF" d="M238.8,454.5h-0.2c-1.6-0.1-2.9,1.2-3,2.8c-0.1,1.6,1.2,3,2.8,3.1c0.1,0,0.1,0,0.2,0c1.6,0,2.9-1.2,3-2.8
		C241.7,456,240.4,454.6,238.8,454.5z"/>
	<path fill="#FFFFFF" d="M253.6,45c1.6,0,2.9-1.2,2.9-2.8c0-1.7-1.3-3-2.9-3l-0.1-0.1c-1.6,0-2.9,1.3-2.9,2.9S251.9,45,253.6,45z"/>
	<path fill="#FFFFFF" d="M238,39.6h-0.1c-1.6,0.1-2.8,1.5-2.7,3.1c0.1,1.6,1.4,2.8,3,2.8c0.1,0,0.1,0,0.1,0c1.6-0.1,2.9-1.5,2.8-3.1
		C241,40.8,239.6,39.5,238,39.6z"/>
	<path fill="#FFFFFF" d="M139.1,422.1L139,422c-1.4-0.9-3.2-0.5-4.1,0.9c-0.9,1.4-0.5,3.2,0.9,4.1l1.7-2.4l-1.6,2.5
		c0.5,0.3,1,0.5,1.6,0.5c0.9,0,1.9-0.4,2.5-1.4C140.9,424.8,140.5,423,139.1,422.1z"/>
	<path fill="#FFFFFF" d="M179.5,442.4c-1.5-0.6-3.2,0.2-3.8,1.7c-0.6,1.5,0.2,3.2,1.7,3.8c0.1,0,0.2,0.1,0.2,0.1
		c0.3,0.1,0.7,0.2,1,0.2c1.2,0,2.4-0.8,2.7-2.0001C181.8,444.7,181,443,179.5,442.4z"/>
	<path fill="#FFFFFF" d="M137.2,78.5c0.6,0,1.1-0.2,1.6-0.5c1.4-0.9,1.8-2.7,0.9-4.1c-0.9-1.4-2.7-1.8-4.1-0.9l-0.1,0.1
		c-1.3,0.9-1.7,2.7-0.8,4.1C135.3,78,136.2,78.5,137.2,78.5z"/>
	<path fill="#FFFFFF" d="M253.9,460.7c0,0,0.1,0,0.2-0.1c1.6,0,2.8-1.4,2.8-3c0-1.6-1.4-2.9-3-2.9c-1.7,0-3,1.4-3,3
		C250.9,459.4,252.3,460.7,253.9,460.7z"/>
	<path fill="#FFFFFF" d="M165.7,436.7c-0.1,0-0.2-0.1-0.2-0.1c-1.5-0.7-3.2,0-3.9,1.5c-0.7,1.5,0,3.2,1.5,3.9
		c0.5,0.2,0.9,0.3,1.3,0.3c1.1,0,2.2-0.6,2.7-1.7C167.8,439.2,167.2,437.4,165.7,436.7z"/>
</g>
<g id="change4">
	<path fill="#DBCF3A" d="M250,500c-66.8,0-129.6-26-176.8-73.2S0,316.8,0,250S26,120.4,73.2,73.2S183.2,0,250,0s129.6,26,176.8,73.2
		S500,183.2,500,250s-26,129.6-73.2,176.8S316.8,500,250,500z M250,14.9c-62.8,0-121.9,24.5-166.3,68.9S14.9,187.2,14.9,250
		s24.5,121.9,68.9,166.3s103.5,68.9,166.3,68.9s121.9-24.5,166.3-68.9s68.9-103.5,68.9-166.3s-24.5-121.9-68.9-166.3
		C371.9,39.3,312.8,14.9,250,14.9z"/>
</g>
</svg>
