<?xml version="1.0" encoding="utf-8"?>
<!-- Generator: Adobe Illustrator 21.0.0, SVG Export Plug-In . SVG Version: 6.00 Build 0)  -->
<svg version="1.1" id="Valentine-Heart-Pop2" xmlns="http://www.w3.org/2000/svg" xmlns:xlink="http://www.w3.org/1999/xlink"
	 x="0px" y="0px" viewBox="0 0 180.1313 141.8652" enable-background="new 0 0 180.1313 141.8652" xml:space="preserve">
<g id="change1">
	<path fill="#FFFFFF" d="M172.4501,25.0781C159.9593,4.351,143.5599,0,132.0033,0c-17.832,0-34.2456,9.976-41.9385,15.4755
		C82.3705,9.976,65.9569,0,48.1273,0C36.5707,0,20.1717,4.351,7.681,25.0781C-1.9064,40.9863-2.5304,58.8906,5.8754,76.8515
		c15.7783,33.7129,60.479,61.3584,83.1215,64.8496l1.0679,0.1641l1.0684-0.1641c22.6425-3.4912,67.3437-31.1367,83.1225-64.8496
		C182.662,58.8906,182.0375,40.9873,172.4501,25.0781z"/>
</g>
<g id="change2">
	<path fill="#00DAC0" d="M166.4481,28.6953c-27.7759-46.0899-76.3833-4.3892-76.3833-4.3892s-48.6059-41.7007-76.3813,4.3892
		c-29.834,49.5058,47.9126,101.6904,76.3813,106.0801C118.535,130.3857,196.2816,78.2011,166.4481,28.6953z"/>
</g>
<g id="change3">
	<path opacity="0.68" fill="#2DFFBE" d="M32.5002,16.2759l1.6028-6.3446c-4.0796,1.71-8.0735,4.304-11.8582,8.0112l0.9873,0.9595
		L32.5002,16.2759z"/>
	<path opacity="0.68" fill="#2DFFBE" d="M51.0359,11.0235l0.9294-3.6791c-4.9595-0.434-10.0601-0.0503-15.0774,1.563l4.8799,4.7421
		L51.0359,11.0235z"/>
	<path opacity="0.68" fill="#2DFFBE" d="M10.5161,35.2597c-0.7212,1.7153-1.3334,3.4312-1.8202,5.1457l0.5602-0.1588
		L10.5161,35.2597z"/>
	<path opacity="0.68" fill="#2DFFBE" d="M30.1516,25.6548l-6.9082-6.7133l-2.7103,0.7679
		c-2.3578,2.5695-4.6244,5.5982-6.7662,9.1525c-0.5376,0.892-1.0303,1.785-1.4989,2.6785l6.2562,6.0803l9.2681-2.626
		L30.1516,25.6548z"/>
	<polygon opacity="0.68" fill="#2DFFBE" points="46.3279,29.7427 48.6877,20.4029 41.779,13.6891 32.511,16.315 30.1516,25.6548 
		37.0598,32.3687 	"/>
	<path opacity="0.68" fill="#2DFFBE" d="M64.864,24.4903l2.3594-9.3399l-6.3812-6.2012c-0.4061-0.1096-0.8151-0.2133-1.2252-0.3143
		l-8.5698,2.4281l-2.3594,9.3399l6.9082,6.7139L64.864,24.4903z"/>
	<path opacity="0.68" fill="#2DFFBE" d="M83.1109,19.3201c-3.8365-2.5204-9.0118-5.5157-14.9447-7.9021l-0.9429,3.7324
		l6.9082,6.7139L83.1109,19.3201z"/>
	<path opacity="0.68" fill="#2DFFBE" d="M115.9123,10.0257l4.5591-1.2918l0.0122-0.0486
		C118.9284,9.0743,117.4026,9.5258,115.9123,10.0257z"/>
	<path opacity="0.68" fill="#2DFFBE" d="M7.1255,49.809l6.6794,6.4913l9.2681-2.6259l2.3594-9.3399l-6.9082-6.7137l-9.2681,2.6259
		L7.2583,48.155C7.2072,48.7067,7.1549,49.2584,7.1255,49.809z"/>
	<polygon opacity="0.68" fill="#2DFFBE" points="27.7922,34.9947 25.4323,44.3345 32.341,51.0484 41.6086,48.4225 43.9685,39.0826 
		37.0598,32.3687 	"/>
	<polygon opacity="0.68" fill="#2DFFBE" points="46.3279,29.7427 43.9685,39.0826 50.8767,45.7964 60.1447,43.1705 62.5041,33.8307 
		55.5959,27.1169 	"/>
	<polygon opacity="0.68" fill="#2DFFBE" points="62.5041,33.8307 69.4128,40.5435 78.6804,37.9175 81.0403,28.5777 74.1316,21.8643 
		64.864,24.4903 	"/>
	<path opacity="0.68" fill="#2DFFBE" d="M97.2165,32.6656l2.3594-9.3399l-3.4171-3.3206c-3.7762,2.5531-6.0106,4.4677-6.0106,4.4677
		s-2.5502-2.1851-6.8076-5.0003l-2.3003,9.1053l6.9082,6.7139L97.2165,32.6656z"/>
	<path opacity="0.68" fill="#2DFFBE" d="M115.7522,27.4136l2.3599-9.3398l-6.5907-6.4048
		c-3.8118,1.5734-7.2998,3.3851-10.2999,5.144l-1.6455,6.5127l6.9087,6.7139L115.7522,27.4136z"/>
	<path opacity="0.68" fill="#2DFFBE" d="M134.2883,22.1612l2.3594-9.3399l-5.785-5.6218c-3.182,0.0934-6.3207,0.5423-9.36,1.2422
		l-1.0312,0.2922l-2.3594,9.3399l6.9082,6.7134L134.2883,22.1612z"/>
	<path opacity="0.68" fill="#2DFFBE" d="M152.8239,16.9092l0.7101-2.8103c-5.015-3.666-10.2915-5.6674-15.5719-6.4808
		l-1.3145,5.2032l6.9082,6.7139L152.8239,16.9092z"/>
	<path opacity="0.68" fill="#2DFFBE" d="M13.8161,56.3404l-6.3303,1.7936c0.4854,3.5965,1.3955,7.1516,2.6548,10.6477
		c0,0,0.5956,3.0145,0.8469,2.2089c0.4227,1.0424,0.8677,2.0805,1.351,3.1107l6.0265-1.7081l2.3594-9.3388L13.8161,56.3404z"/>
	<polygon opacity="0.68" fill="#2DFFBE" points="36.9011,67.1412 39.2605,57.8014 32.3523,51.0876 23.0842,53.7144 20.7243,63.0544 
		27.633,69.7671 	"/>
	<polygon opacity="0.68" fill="#2DFFBE" points="55.4367,61.8893 57.7961,52.5494 50.8879,45.8355 41.6198,48.4615 39.2605,57.8014 
		46.1687,64.5152 	"/>
	<polygon opacity="0.68" fill="#2DFFBE" points="73.9729,56.6374 76.3322,47.2975 69.424,40.5836 60.156,43.2095 57.7961,52.5494 
		64.7048,59.2632 	"/>
	<polygon opacity="0.68" fill="#2DFFBE" points="92.5085,51.3843 94.8679,42.0445 87.9597,35.3316 78.6916,37.9576 76.3322,47.2975 
		83.2404,54.0113 	"/>
	<polygon opacity="0.68" fill="#2DFFBE" points="111.0442,46.1324 113.404,36.7925 106.4953,30.0787 97.2278,32.7057 
		94.8679,42.0445 101.7766,48.7585 	"/>
	<polygon opacity="0.68" fill="#2DFFBE" points="129.5803,40.8804 131.9397,31.5406 125.0315,24.8268 115.7634,27.4527 
		113.404,36.7925 120.3122,43.5064 	"/>
	<polygon opacity="0.68" fill="#2DFFBE" points="148.1159,35.6285 150.4758,26.2886 143.5671,19.5749 134.2995,22.2007 
		131.9397,31.5406 138.8484,38.2545 	"/>
	<path opacity="0.68" fill="#2DFFBE" d="M166.6521,30.3755l0.2275-0.9011c-0.1193-0.2041-0.2252-0.4085-0.3481-0.6125
		c-3.2637-5.4154-6.8171-9.6055-10.5432-12.807l-3.1531,0.8934l-2.3594,9.3403l6.9082,6.7139L166.6521,30.3755z"/>
	<path opacity="0.68" fill="#2DFFBE" d="M32.1819,85.821l2.3594-9.3399l-6.9082-6.7139l-9.2681,2.626l-2.2153,8.7697
		c0.3721,0.609,0.7506,1.2161,1.1411,1.8192l5.623,5.4648L32.1819,85.821z"/>
	<polygon opacity="0.68" fill="#2DFFBE" points="36.9011,67.1412 34.5412,76.481 41.4499,83.1949 50.7175,80.5689 53.0774,71.2292 
		46.1687,64.5152 	"/>
	<polygon opacity="0.68" fill="#2DFFBE" points="55.4367,61.8893 53.0774,71.2292 59.9856,77.9429 69.2536,75.317 71.613,65.9771 
		64.7048,59.2632 	"/>
	<polygon opacity="0.68" fill="#2DFFBE" points="73.9729,56.6374 71.613,65.9771 78.5217,72.691 87.7893,70.0641 90.1491,60.7242 
		83.2404,54.0113 	"/>
	<polygon opacity="0.68" fill="#2DFFBE" points="92.5085,51.3843 90.1491,60.7242 97.0573,67.438 106.3254,64.8121 
		108.6848,55.4723 101.7766,48.7585 	"/>
	<polygon opacity="0.68" fill="#2DFFBE" points="111.0442,46.1324 108.6848,55.4723 115.593,62.1861 124.8611,59.5602 
		127.2209,50.2203 120.3122,43.5064 	"/>
	<polygon opacity="0.68" fill="#2DFFBE" points="129.5803,40.8804 127.2209,50.2203 134.1291,56.9341 143.3972,54.3083 
		145.7566,44.9684 138.8484,38.2545 	"/>
	<polygon opacity="0.68" fill="#2DFFBE" points="148.1159,35.6285 145.7566,44.9684 152.6648,51.6812 161.9328,49.0552 
		164.2922,39.7154 157.384,33.0025 	"/>
	<path opacity="0.68" fill="#2DFFBE" d="M171.2009,46.4294l1.5798-0.4477c-0.7587-5.2474-2.5293-10.5291-5.4915-15.7867
		l-0.6372,0.1805l-2.3599,9.3399L171.2009,46.4294z"/>
	<path opacity="0.68" fill="#2DFFBE" d="M21.4758,88.8976c2.3655,3.086,4.9495,6.0735,7.6892,8.9487l0.6682-2.6456l-6.9082-6.7138
		L21.4758,88.8976z"/>
	<polygon opacity="0.68" fill="#2DFFBE" points="48.3694,89.9478 41.4607,83.2339 32.1931,85.8609 29.8332,95.2007 
		36.7419,101.9136 46.0095,99.2878 	"/>
	<polygon opacity="0.68" fill="#2DFFBE" points="64.5456,94.0357 66.905,84.696 59.9968,77.982 50.7287,80.608 48.3694,89.9478 
		55.2776,96.6617 	"/>
	<polygon opacity="0.68" fill="#2DFFBE" points="83.0813,88.7837 85.4411,79.4439 78.5324,72.73 69.2649,75.356 66.905,84.696 
		73.8137,91.4098 	"/>
	<polygon opacity="0.68" fill="#2DFFBE" points="101.6174,83.5309 103.9768,74.192 97.0686,67.4781 87.8005,70.1042 
		85.4411,79.4439 92.3493,86.1578 	"/>
	<polygon opacity="0.68" fill="#2DFFBE" points="120.153,78.279 122.5129,68.9391 115.6042,62.2253 106.3366,64.8521 
		103.9768,74.192 110.8855,80.9048 	"/>
	<polygon opacity="0.68" fill="#2DFFBE" points="138.6892,73.0269 141.0486,63.6871 134.1404,56.9732 124.8723,59.5992 
		122.5129,68.9391 129.4211,75.6529 	"/>
	<polygon opacity="0.68" fill="#2DFFBE" points="157.2248,67.7751 159.5847,58.4352 152.676,51.7212 143.4084,54.3473 
		141.0486,63.6871 147.9572,70.4009 	"/>
	<path opacity="0.68" fill="#2DFFBE" d="M173.0478,48.2531l-1.8357-1.7838l-9.2681,2.626l-2.3594,9.3398l6.9082,6.7139l5.252-1.4886
		C173.0273,58.6073,173.516,53.4518,173.0478,48.2531z"/>
	<path opacity="0.68" fill="#2DFFBE" d="M34.0251,102.6837c2.9365,2.7701,5.9999,5.4102,9.13,7.9034l0.495-1.9595l-6.9082-6.7139
		L34.0251,102.6837z"/>
	<polygon opacity="0.68" fill="#2DFFBE" points="46.0095,99.2878 43.6501,108.6275 50.5588,115.3415 59.8264,112.7154 
		62.1862,103.3755 55.2776,96.6617 	"/>
	<polygon opacity="0.68" fill="#2DFFBE" points="64.5456,94.0357 62.1862,103.3755 69.0945,110.0894 78.3625,107.4634 
		80.7219,98.1236 73.8137,91.4098 	"/>
	<polygon opacity="0.68" fill="#2DFFBE" points="83.0813,88.7837 80.7219,98.1236 87.6301,104.8376 96.8982,102.2105 
		99.258,92.8708 92.3493,86.1578 	"/>
	<polygon opacity="0.68" fill="#2DFFBE" points="101.6174,83.5309 99.258,92.8708 106.1662,99.5845 115.4343,96.9586 
		117.7937,87.6187 110.8855,80.9048 	"/>
	<polygon opacity="0.68" fill="#2DFFBE" points="120.153,78.279 117.7937,87.6187 124.7019,94.3326 133.9699,91.7066 
		136.3293,82.3669 129.4211,75.6529 	"/>
	<polygon opacity="0.68" fill="#2DFFBE" points="138.6892,73.0269 136.3293,82.3669 143.238,89.0807 152.5061,86.4546 
		154.8654,77.1148 147.9572,70.4009 	"/>
	<path opacity="0.68" fill="#2DFFBE" d="M154.8654,77.1148l6.9082,6.7129l0.8259-0.234c3.1555-4.7829,5.7457-9.7575,7.5811-14.8611
		l-3.6877-3.5836l-9.2681,2.626L154.8654,77.1148z"/>
	<path opacity="0.68" fill="#2DFFBE" d="M49.8008,115.5984c1.1475,0.818,2.2982,1.6116,3.4492,2.3868l-2.6804-2.6048
		L49.8008,115.5984z"/>
	<path opacity="0.68" fill="#2DFFBE" d="M69.1057,110.1285l-9.2681,2.626l-2.0637,8.1697c3.9165,2.4469,7.7903,4.6207,11.515,6.4949
		l4.3656-1.2369l2.3594-9.3399L69.1057,110.1285z"/>
	<polygon opacity="0.68" fill="#2DFFBE" points="92.1902,120.9302 94.55,111.5904 87.6413,104.8766 78.3737,107.5025 
		76.0139,116.8423 82.9226,123.5562 	"/>
	<polygon opacity="0.68" fill="#2DFFBE" points="110.7263,115.6773 113.0857,106.3384 106.1775,99.6246 96.9094,102.2505 
		94.55,111.5904 101.4582,118.3044 	"/>
	<polygon opacity="0.68" fill="#2DFFBE" points="124.7131,94.3716 115.4455,96.9986 113.0857,106.3384 119.9944,113.0514 
		129.2619,110.4253 131.6218,101.0855 	"/>
	<path opacity="0.68" fill="#2DFFBE" d="M133.9812,91.7458l-2.3594,9.3398l6.9082,6.7139l3.004-0.8512
		c2.6151-2.2516,5.1586-4.6044,7.5961-7.0475l1.0273-4.067l-6.9082-6.7139L133.9812,91.7458z"/>
	<path opacity="0.68" fill="#2DFFBE" d="M152.5168,86.4937l-2.3594,9.3399l1.5023,1.46c3.8925-4.1368,7.449-8.5069,10.5077-13.0541
		l-0.3826-0.3719L152.5168,86.4937z"/>
	<path opacity="0.68" fill="#2DFFBE" d="M73.6545,126.1822l-0.7532,2.9814c5.9495,2.751,11.3896,4.6499,15.8135,5.5242l1.116-4.4177
		l-6.9082-6.7139L73.6545,126.1822z"/>
	<path opacity="0.68" fill="#2DFFBE" d="M92.1902,120.9302l-2.3594,9.3399l4.0125,3.8995
		c3.9421-1.0008,8.5244-2.6862,13.4656-4.9658l1.0576-4.1867l-6.9082-6.7128L92.1902,120.9302z"/>
	<path opacity="0.68" fill="#2DFFBE" d="M108.3664,125.0171l2.5299,2.4586c4.8182-2.4185,9.8907-5.347,14.979-8.7088l-5.881-5.7156
		l-9.2681,2.626L108.3664,125.0171z"/>
	<path opacity="0.68" fill="#2DFFBE" d="M127.4153,117.7354c4.064-2.754,8.1182-5.7775,12.0437-9.0332l-0.929-0.9028l-9.2681,2.6259
		L127.4153,117.7354z"/>
</g>
<g id="valentine-heart-pop2-x">
	<path opacity="0.15" d="M28.9808,12.3818c-5.4629,3.4038-10.6699,8.6348-15.2973,16.3135
		c-29.834,49.5058,47.9126,101.6904,76.3813,106.0801c11.2866-1.7403,30.3154-10.9971,47.3179-24.6153
		C82.4974,106.7363,37.8363,65.6171,28.9808,12.3818z"/>
</g>
</svg>
