<?xml version="1.0" encoding="utf-8"?>
<!-- Generator: Adobe Illustrator 21.0.0, SVG Export Plug-In . SVG Version: 6.00 Build 0)  -->
<svg version="1.1" id="Snow-Line-new2-D4" xmlns="http://www.w3.org/2000/svg" xmlns:xlink="http://www.w3.org/1999/xlink" x="0px"
	 y="0px" viewBox="0 0 203.4902 203.4902" enable-background="new 0 0 203.4902 203.4902" xml:space="preserve">
<g id="change1">
	<g>
		<g>
			<path fill="#87E8C6" d="M101.7447,104.259c-1.3889,0-2.5143-1.1254-2.5143-2.5143V18.6569c0-1.3889,1.1254-2.5143,2.5143-2.5143
				s2.5143,1.1254,2.5143,2.5143v83.0879C104.259,103.1336,103.1336,104.259,101.7447,104.259z"/>
		</g>
		<g>
			<path fill="#87E8C6" d="M101.8102,46.8472c-0.6433,0-1.2866-0.2455-1.7777-0.7366L83.7549,29.833
				c-0.9822-0.9813-0.9822-2.5741,0-3.5554c0.9822-0.9822,2.5732-0.9822,3.5554,0l14.4999,14.4999l14.3689-14.3689
				c0.9822-0.9822,2.5732-0.9822,3.5554,0c0.9822,0.9813,0.9822,2.5741,0,3.5554l-16.1466,16.1466
				C103.0968,46.6016,102.4535,46.8472,101.8102,46.8472z"/>
		</g>
		<g>
			<path fill="#87E8C6" d="M101.8102,63.1247c-0.6433,0-1.2866-0.2455-1.7777-0.7366L83.7549,46.1105
				c-0.9822-0.9813-0.9822-2.5741,0-3.5554c0.9822-0.9822,2.5732-0.9822,3.5554,0l14.4999,14.4999l14.3689-14.3689
				c0.9822-0.9822,2.5732-0.9822,3.5554,0c0.9822,0.9813,0.9822,2.5741,0,3.5554l-16.1466,16.1466
				C103.0968,62.8792,102.4535,63.1247,101.8102,63.1247z"/>
		</g>
		<g>
			<path fill="#87E8C6" d="M101.7447,21.5337c-5.9371,0-10.7669-4.8297-10.7669-10.7669S95.8076,0,101.7447,0
				s10.7669,4.8297,10.7669,10.7669S107.6818,21.5337,101.7447,21.5337z M101.7447,5.0286c-3.1642,0-5.7382,2.5741-5.7382,5.7382
				s2.5741,5.7382,5.7382,5.7382s5.7382-2.5741,5.7382-5.7382S104.9089,5.0286,101.7447,5.0286z"/>
		</g>
	</g>
	<g>
		<g>
			<path fill="#87E8C6" d="M101.7447,104.259c-0.6433,0-1.2866-0.2455-1.7777-0.7366L41.2145,44.7707
				c-0.9822-0.9813-0.9822-2.5741,0-3.5554c0.9822-0.9822,2.5732-0.9822,3.5554,0l58.7525,58.7517
				c0.9822,0.9813,0.9822,2.5741,0,3.5554C103.0313,104.0135,102.388,104.259,101.7447,104.259z"/>
		</g>
		<g>
			<path fill="#87E8C6" d="M61.1948,63.6166H38.1747c-1.3889,0-2.5143-1.1254-2.5143-2.5143s1.1254-2.5143,2.5143-2.5143h20.5058
				V38.2672c0-1.3889,1.1254-2.5143,2.5143-2.5143s2.5143,1.1254,2.5143,2.5143v22.8351
				C63.7091,62.4912,62.5837,63.6166,61.1948,63.6166z"/>
		</g>
		<g>
			<path fill="#87E8C6" d="M72.7048,75.1267H49.6848c-1.3889,0-2.5143-1.1254-2.5143-2.5143c0-1.3889,1.1254-2.5143,2.5143-2.5143
				h20.5058V49.7773c0-1.3889,1.1254-2.5143,2.5143-2.5143s2.5143,1.1254,2.5143,2.5143v22.8351
				C75.2192,74.0013,74.0938,75.1267,72.7048,75.1267z"/>
		</g>
		<g>
			<path fill="#87E8C6" d="M37.4136,48.1747c-2.7574,0-5.514-1.0493-7.6133-3.147c-4.1979-4.1987-4.1979-11.0296,0-15.2275
				c4.1971-4.1971,11.028-4.1963,15.2267-0.0008c0,0.0008,0,0.0008,0.0008,0.0008c4.1963,4.1979,4.1963,11.0288,0,15.2267
				C42.9284,47.1254,40.171,48.1747,37.4136,48.1747z M37.4136,31.6786c-1.47,0-2.9391,0.559-4.0579,1.6778
				c-2.2369,2.2369-2.2369,5.8774,0,8.1151c2.2385,2.2369,5.879,2.236,8.1159-0.0008s2.236-5.8774,0-8.1151
				C40.3527,32.2376,38.8827,31.6786,37.4136,31.6786z"/>
		</g>
	</g>
	<g>
		<g>
			<path fill="#87E8C6" d="M101.7447,104.259H18.6569c-1.3889,0-2.5143-1.1254-2.5143-2.5143s1.1254-2.5143,2.5143-2.5143h83.0879
				c1.3889,0,2.5143,1.1254,2.5143,2.5143S103.1336,104.259,101.7447,104.259z"/>
		</g>
		<g>
			<path fill="#87E8C6" d="M28.0553,120.4711c-0.6433,0-1.2866-0.2455-1.7777-0.7366c-0.9822-0.9813-0.9822-2.5741,0-3.5554
				l14.4999-14.4999L26.4085,87.3103c-0.9822-0.9813-0.9822-2.5741,0-3.5554c0.9822-0.9822,2.5732-0.9822,3.5554,0l16.1466,16.1466
				c0.9822,0.9813,0.9822,2.5741,0,3.5554L29.833,119.7345C29.3419,120.2256,28.6986,120.4711,28.0553,120.4711z"/>
		</g>
		<g>
			<path fill="#87E8C6" d="M44.3328,120.4711c-0.6433,0-1.2866-0.2455-1.7777-0.7366c-0.9822-0.9813-0.9822-2.5741,0-3.5554
				l14.4999-14.4999L42.6861,87.3103c-0.9822-0.9813-0.9822-2.5741,0-3.5554c0.9822-0.9822,2.5732-0.9822,3.5554,0l16.1466,16.1466
				c0.9822,0.9813,0.9822,2.5741,0,3.5554l-16.2776,16.2776C45.6195,120.2256,44.9762,120.4711,44.3328,120.4711z"/>
		</g>
		<g>
			<path fill="#87E8C6" d="M10.7669,112.5116C4.8297,112.5116,0,107.6818,0,101.7447s4.8297-10.7669,10.7669-10.7669
				c5.9363,0,10.7661,4.8297,10.7661,10.7669S16.7032,112.5116,10.7669,112.5116z M10.7669,96.0065
				c-3.1642,0-5.7382,2.5741-5.7382,5.7382s2.5741,5.7382,5.7382,5.7382c3.1634,0,5.7374-2.5741,5.7374-5.7382
				S13.9302,96.0065,10.7669,96.0065z"/>
		</g>
	</g>
	<g>
		<g>
			<path fill="#87E8C6" d="M42.9922,163.0115c-0.6433,0-1.2866-0.2455-1.7777-0.7366c-0.9822-0.9813-0.9822-2.5741,0-3.5554
				L99.967,99.967c0.9822-0.9822,2.5732-0.9822,3.5554,0c0.9822,0.9813,0.9822,2.5741,0,3.5554l-58.7525,58.7525
				C44.2788,162.766,43.6355,163.0115,42.9922,163.0115z"/>
		</g>
		<g>
			<path fill="#87E8C6" d="M61.1023,167.8298c-1.3889,0-2.5143-1.1254-2.5143-2.5143v-20.5058H38.2672
				c-1.3889,0-2.5143-1.1254-2.5143-2.5143s1.1254-2.5143,2.5143-2.5143h22.8351c1.3889,0,2.5143,1.1254,2.5143,2.5143v23.0201
				C63.6166,166.7044,62.4912,167.8298,61.1023,167.8298z"/>
		</g>
		<g>
			<path fill="#87E8C6" d="M72.6124,156.3198c-1.3889,0-2.5143-1.1254-2.5143-2.5143v-20.5066H49.7773
				c-1.3889,0-2.5143-1.1254-2.5143-2.5143s1.1254-2.5143,2.5143-2.5143h22.8351c1.3889,0,2.5143,1.1254,2.5143,2.5143v23.0209
				C75.1267,155.1944,74.0013,156.3198,72.6124,156.3198z"/>
		</g>
		<g>
			<path fill="#87E8C6" d="M37.4136,176.8378c-2.7574,0-5.5148-1.0493-7.6133-3.1486c-2.0339-2.0331-3.1535-4.7364-3.1535-7.6125
				c0-2.8761,1.1197-5.5795,3.1535-7.6133c4.1971-4.1987,11.0296-4.1987,15.2267,0c4.1979,4.1987,4.1979,11.0288,0,15.2259
				C42.9284,175.7886,40.171,176.8378,37.4136,176.8378z M37.4136,160.3409c-1.47,0-2.9391,0.559-4.0579,1.6778
				c-1.0836,1.0845-1.6803,2.525-1.6803,4.0579c0,1.5322,0.5967,2.9735,1.6803,4.0563c2.2385,2.2377,5.879,2.2385,8.1159,0.0008
				c2.2369-2.2368,2.2369-5.8774-0.0008-8.1151C40.3527,160.8999,38.8827,160.3409,37.4136,160.3409z"/>
		</g>
	</g>
	<g>
		<g>
			<path fill="#87E8C6" d="M101.7447,187.3477c-1.3889,0-2.5143-1.1254-2.5143-2.5143v-83.0887
				c0-1.3889,1.1254-2.5143,2.5143-2.5143s2.5143,1.1254,2.5143,2.5143v83.0887
				C104.259,186.2223,103.1336,187.3477,101.7447,187.3477z"/>
		</g>
		<g>
			<path fill="#87E8C6" d="M117.9568,177.9493c-0.6433,0-1.2866-0.2455-1.7777-0.7366l-14.4999-14.4999l-14.3689,14.3681
				c-0.9822,0.9822-2.5732,0.9822-3.5554,0c-0.9822-0.9821-0.9822-2.5741,0-3.5554l16.1466-16.1458
				c0.9822-0.9822,2.5732-0.9822,3.5554,0l16.2776,16.2776c0.9822,0.9813,0.9822,2.5741,0,3.5554
				C119.2434,177.7038,118.6001,177.9493,117.9568,177.9493z"/>
		</g>
		<g>
			<path fill="#87E8C6" d="M117.9568,161.6717c-0.6433,0-1.2866-0.2455-1.7777-0.7366l-14.4999-14.4999l-14.3689,14.3681
				c-0.9822,0.9821-2.5732,0.9821-3.5554,0c-0.9822-0.9813-0.9822-2.5741,0-3.5554l16.1466-16.1466
				c0.9429-0.9429,2.6125-0.9429,3.5554,0l16.2776,16.2784c0.9822,0.9821,0.9822,2.5741,0,3.5554
				C119.2434,161.4262,118.6001,161.6717,117.9568,161.6717z"/>
		</g>
		<g>
			<path fill="#87E8C6" d="M101.7447,203.4902c-5.9371,0-10.7669-4.8297-10.7669-10.7669c0-5.9371,4.8297-10.7669,10.7669-10.7669
				s10.7669,4.8298,10.7669,10.7669C112.5116,198.6605,107.6818,203.4902,101.7447,203.4902z M101.7447,186.9851
				c-3.1642,0-5.7382,2.5741-5.7382,5.7382c0,3.1642,2.5741,5.7382,5.7382,5.7382s5.7382-2.5741,5.7382-5.7382
				C107.4829,189.5592,104.9089,186.9851,101.7447,186.9851z"/>
		</g>
	</g>
	<g>
		<g>
			<path fill="#87E8C6" d="M160.4972,163.0115c-0.6433,0-1.2866-0.2455-1.7777-0.7366L99.967,103.5224
				c-0.9822-0.9813-0.9822-2.5741,0-3.5554c0.9822-0.9822,2.5732-0.9822,3.5554,0l58.7525,58.7525
				c0.9822,0.9813,0.9822,2.5741,0,3.5554C161.7838,162.766,161.1405,163.0115,160.4972,163.0115z"/>
		</g>
		<g>
			<path fill="#87E8C6" d="M142.2946,167.7365c-1.3889,0-2.5143-1.1254-2.5143-2.5143v-22.8343
				c0-1.3889,1.1254-2.5143,2.5143-2.5143h23.0201c1.3889,0,2.5143,1.1254,2.5143,2.5143s-1.1254,2.5143-2.5143,2.5143h-20.5058
				v20.32C144.8089,166.6111,143.6835,167.7365,142.2946,167.7365z"/>
		</g>
		<g>
			<path fill="#87E8C6" d="M130.7846,156.2265c-1.3889,0-2.5143-1.1254-2.5143-2.5143v-22.8343
				c0-1.3889,1.1254-2.5143,2.5143-2.5143h23.0201c1.3889,0,2.5143,1.1254,2.5143,2.5143s-1.1254,2.5143-2.5143,2.5143h-20.5058
				v20.32C133.2989,155.1011,132.1735,156.2265,130.7846,156.2265z"/>
		</g>
		<g>
			<path fill="#87E8C6" d="M166.0759,176.8427c-2.8761,0-5.5795-1.1196-7.6125-3.1527l0,0c0-0.0008,0-0.0008,0-0.0008s0,0-0.0008,0
				c-2.0331-2.0331-3.1535-4.7364-3.1535-7.6125c0-2.8761,1.1205-5.5795,3.1543-7.6133c2.0331-2.0339,4.7365-3.1543,7.6125-3.1543
				c2.8761,0,5.5795,1.1205,7.6133,3.1543c2.0339,2.0339,3.1535,4.7373,3.1535,7.6133c0,2.8761-1.1196,5.5795-3.1535,7.6133
				C171.6553,175.7231,168.9519,176.8427,166.0759,176.8427z M166.0759,160.3376c-1.5322,0-2.9735,0.5975-4.0563,1.6811
				c-1.0845,1.0845-1.6819,2.525-1.6819,4.0579c0,1.5322,0.5975,2.9735,1.6811,4.0563c0,0.0008,0,0.0008,0.0008,0.0008
				c2.1656,2.1673,5.9453,2.1673,8.1142,0c1.0836-1.0836,1.6803-2.5249,1.6803-4.0571c0-1.533-0.5967-2.9735-1.6803-4.0579
				C169.0493,160.9351,167.6088,160.3376,166.0759,160.3376z"/>
		</g>
	</g>
	<g>
		<g>
			<path fill="#87E8C6" d="M184.8334,104.259h-83.0887c-1.3889,0-2.5143-1.1254-2.5143-2.5143s1.1254-2.5143,2.5143-2.5143h83.0887
				c1.3889,0,2.5143,1.1254,2.5143,2.5143S186.2223,104.259,184.8334,104.259z"/>
		</g>
		<g>
			<path fill="#87E8C6" d="M175.3032,120.4711c-0.6433,0-1.2866-0.2455-1.7777-0.7366l-16.1466-16.1466
				c-0.9821-0.9813-0.9821-2.5741,0-3.5554l16.2776-16.2776c0.9821-0.9822,2.5732-0.9822,3.5554,0
				c0.9822,0.9813,0.9822,2.5741,0,3.5554l-14.4999,14.4999l14.3689,14.3689c0.9822,0.9813,0.9822,2.5741,0,3.5554
				C176.5898,120.2256,175.9465,120.4711,175.3032,120.4711z"/>
		</g>
		<g>
			<path fill="#87E8C6" d="M159.0256,120.4711c-0.6433,0-1.2866-0.2455-1.7777-0.7366l-16.1466-16.1466
				c-0.9821-0.9813-0.9821-2.5741,0-3.5554l16.2776-16.2776c0.9822-0.9822,2.5732-0.9822,3.5554,0
				c0.9821,0.9813,0.9821,2.5741,0,3.5554l-14.4999,14.4999l14.3689,14.3689c0.9821,0.9813,0.9821,2.5741,0,3.5554
				C160.3122,120.2256,159.6689,120.4711,159.0256,120.4711z"/>
		</g>
		<g>
			<path fill="#87E8C6" d="M192.7234,112.5116c-5.9371,0-10.7669-4.8298-10.7669-10.7669s4.8298-10.7669,10.7669-10.7669
				c5.9371,0,10.7669,4.8297,10.7669,10.7669S198.6605,112.5116,192.7234,112.5116z M192.7234,96.0065
				c-3.1642,0-5.7382,2.5741-5.7382,5.7382s2.5741,5.7382,5.7382,5.7382c3.1642,0,5.7382-2.5741,5.7382-5.7382
				S195.8875,96.0065,192.7234,96.0065z"/>
		</g>
	</g>
	<g>
		<g>
			<path fill="#87E8C6" d="M101.7447,104.259c-0.6433,0-1.2866-0.2455-1.7777-0.7366c-0.9822-0.9813-0.9822-2.5741,0-3.5554
				l58.7525-58.7517c0.9822-0.9822,2.5733-0.9822,3.5554,0c0.9822,0.9813,0.9822,2.5741,0,3.5554l-58.7525,58.7517
				C103.0313,104.0135,102.388,104.259,101.7447,104.259z"/>
		</g>
		<g>
			<path fill="#87E8C6" d="M165.2222,63.7091h-22.8343c-1.3889,0-2.5143-1.1254-2.5143-2.5143V38.1747
				c0-1.3889,1.1254-2.5143,2.5143-2.5143s2.5143,1.1254,2.5143,2.5143v20.5058h20.32c1.3889,0,2.5143,1.1254,2.5143,2.5143
				S166.6111,63.7091,165.2222,63.7091z"/>
		</g>
		<g>
			<path fill="#87E8C6" d="M153.7122,75.2192h-22.8343c-1.3889,0-2.5143-1.1254-2.5143-2.5143V49.6848
				c0-1.3889,1.1254-2.5143,2.5143-2.5143s2.5143,1.1254,2.5143,2.5143v20.5058h20.32c1.3889,0,2.5143,1.1254,2.5143,2.5143
				S155.1011,75.2192,153.7122,75.2192z"/>
		</g>
		<g>
			<path fill="#87E8C6" d="M166.0759,48.1755c-2.7574,0-5.514-1.0493-7.6125-3.1486c-4.1979-4.1979-4.1979-11.0288,0-15.2267
				c4.1979-4.1979,11.028-4.1971,15.2259-0.0008c4.1979,4.1987,4.1979,11.0296,0,15.2275c0,0,0,0,0,0.0008
				C171.5907,47.1254,168.8324,48.1755,166.0759,48.1755z M171.9115,43.2492h0.0164H171.9115z M166.0759,31.6778
				c-1.4691,0-2.9383,0.5598-4.0571,1.6778c-2.2369,2.2377-2.2369,5.8782,0,8.1159c2.2385,2.2369,5.8782,2.236,8.1151-0.0008
				c2.2369-2.2369,2.2369-5.8774,0-8.1151C169.015,32.2376,167.5458,31.6778,166.0759,31.6778z"/>
		</g>
	</g>
	<g>
		<path fill="#87E8C6" d="M84.5562,146.238c-0.3233,0-0.6507-0.0622-0.9617-0.1915c-0.9396-0.3888-1.5518-1.3055-1.5518-2.3228
			v-21.9348H60.2004c-1.0173,0-1.934-0.6122-2.3228-1.5518c-0.3896-0.9396-0.1743-2.0216,0.5451-2.7402l15.3634-15.3634
			L57.2433,85.5899c-0.7235-0.7227-0.9363-1.8121-0.5394-2.7541s1.3112-1.5273,2.3482-1.5379l22.6485,0.2791V58.7517
			c0-1.0239,0.6212-1.9455,1.5698-2.3302c0.9511-0.3863,2.0372-0.1555,2.7492,0.5795l15.8626,16.3504l15.7529-14.9729
			c0.7284-0.6908,1.7982-0.8839,2.7238-0.4878c0.9232,0.3961,1.5223,1.3054,1.5223,2.3105v21.4896l21.3979-0.0827
			c1.0771,0.036,1.916,0.5909,2.3163,1.5142c0.4002,0.9224,0.212,1.9946-0.478,2.7255l-14.9697,15.8675l16.5256,15.7382
			c0.744,0.7096,0.9822,1.8006,0.5999,2.7549c-0.3814,0.9543-1.3063,1.5805-2.3342,1.5805h-23.1502v21.5002
			c0,1.0173-0.6122,1.934-1.5518,2.3228c-0.9404,0.392-2.0224,0.1743-2.7402-0.5451l-15.3634-15.3634l-15.7988,15.798
			C85.8543,145.9826,85.2109,146.238,84.5562,146.238z M66.2709,116.7602H84.557c1.3889,0,2.5143,1.1254,2.5143,2.5143v18.3794
			l13.2845-13.2845c0.9429-0.9429,2.6125-0.9429,3.5554,0l12.849,12.849v-17.944c0-1.3889,1.1254-2.5143,2.5143-2.5143h19.3787
			l-13.7862-13.129c-1.0018-0.9551-1.0444-2.5397-0.0941-3.5464l12.6657-13.4252l-18.0618,0.0696
			c-0.595-0.0065-1.3104-0.2611-1.7842-0.7333c-0.4739-0.4714-0.7399-1.1123-0.7399-1.781V66.0597l-13.3107,12.651
			c-0.9985,0.947-2.5773,0.9183-3.5366-0.072L86.7292,64.954v19.1684c0,0.672-0.2693,1.3161-0.7473,1.7892
			c-0.4788,0.4723-1.1549,0.7276-1.7982,0.7252l-19.017-0.2341l13.9531,13.9531c0.4714,0.4714,0.7366,1.1107,0.7366,1.7777
			s-0.2652,1.3063-0.7366,1.7777L66.2709,116.7602z"/>
	</g>
</g>
</svg>
