<?xml version="1.0" encoding="utf-8"?>
<!-- Generator: Adobe Illustrator 21.0.0, SVG Export Plug-In . SVG Version: 6.00 Build 0)  -->
<svg version="1.1" id="Snow-Line-new4-D4" xmlns="http://www.w3.org/2000/svg" xmlns:xlink="http://www.w3.org/1999/xlink" x="0px"
	 y="0px" viewBox="0 0 196.1366 199.3679" enable-background="new 0 0 196.1366 199.3679" xml:space="preserve">
<g id="change1">
	<path fill="#87E8C6" d="M191.9887,92.4988c-2.6002-1.5005-5.702-1.5005-8.299,0l-8.2473,4.7617h-5.7696v-9.0887
		c0-1.3387-1.0855-2.4234-2.4234-2.4234c-1.3379,0-2.4234,1.0847-2.4234,2.4234v9.0887h-12.5482l7.5246-7.5251
		c0.9467-0.9467,0.9467-2.481,0-3.4269c-0.9467-0.9467-2.4803-0.9467-3.4269,0L145.424,97.2605h-8.6869l7.5257-7.5251
		c0.9467-0.9459,0.9467-2.4802,0-3.4269c-0.9467-0.9467-2.4802-0.9467-3.4269,0l-10.9527,10.9521h-7.0638l-9.4508-9.4508
		l8.4783-8.4781h15.8224c1.338,0,2.4234-1.0847,2.4234-2.4234c0-1.3387-1.0855-2.4234-2.4234-2.4234H126.694l6.1415-6.1414h15.823
		c1.3379,0,2.4234-1.0847,2.4234-2.4234s-1.0855-2.4234-2.4234-2.4234h-10.976l9.3043-9.3042l6.4271,6.4271
		c0.4733,0.4733,1.0934,0.71,1.7134,0.71c0.6201,0,1.2401-0.2367,1.7135-0.71c0.9467-0.9459,0.9467-2.481,0-3.4269l-6.4271-6.4271
		l4.0807-4.0806l9.1971-2.4639c0.0016,0,0.0016,0,0.0016,0c2.8968-0.7763,5.0914-2.9701,5.8677-5.8677
		c0.7763-2.8968-0.0268-5.8929-2.1489-8.0135c-2.1205-2.1205-5.1135-2.9228-8.0135-2.1481
		c-2.8968,0.7763-5.0899,2.9694-5.8677,5.8677l-2.4657,9.2012l-4.0781,4.0779l-6.4269-6.4269c-0.9467-0.9467-2.4803-0.9467-3.4269,0
		c-0.9467,0.9459-0.9467,2.481,0,3.4269l6.4269,6.4269l-8.8725,8.8724V48.9959c0-1.3387-1.0855-2.4234-2.4234-2.4234
		c-1.338,0-2.4234,1.0847-2.4234,2.4234v15.4885l-6.1422,6.1421V59.9842c0-1.3387-1.0855-2.4234-2.4234-2.4234
		s-2.4234,1.0847-2.4234,2.4234v15.4891l-8.9096,8.9094l-9.45-9.45v-8.0711l11.1871-11.1871c0.9467-0.9459,0.9467-2.481,0-3.4269
		c-0.9467-0.9467-2.4802-0.9467-3.4269,0l-7.7602,7.7602v-8.6864l11.1871-11.1871c0.9467-0.9459,0.9467-2.481,0-3.4269
		c-0.9467-0.9467-2.4802-0.9467-3.4269,0l-7.7602,7.7602V31.3099h9.0887c1.3379,0,2.4234-1.0847,2.4234-2.4234
		c0-1.3387-1.0855-2.4234-2.4234-2.4234h-9.0887v-5.7696l4.7617-8.2473c1.5005-2.5978,1.5005-5.6997,0.0008-8.2975
		C103.7538,1.5509,101.0676,0,98.0683,0c-2.9993,0-5.6855,1.5509-7.1859,4.1487c-1.4997,2.5978-1.4997,5.6997,0.0008,8.2975
		l4.7617,8.2473v5.7696h-9.0887c-1.3387,0-2.4234,1.0847-2.4234,2.4234c0,1.3387,1.0847,2.4234,2.4234,2.4234h9.0887v12.5487
		l-7.5251-7.5251c-0.9467-0.9467-2.4802-0.9467-3.4269,0c-0.9467,0.9459-0.9467,2.481,0,3.4269l10.9521,10.952v8.6864
		l-7.5251-7.5251c-0.9467-0.9467-2.4802-0.9467-3.4269,0c-0.9467,0.9459-0.9467,2.481,0,3.4269l10.9521,10.9521v8.6801
		l-9.4504,9.4504l-8.4785-8.4785V60.0821c0-1.3387-1.0847-2.4234-2.4234-2.4234c-1.3387,0-2.4234,1.0847-2.4234,2.4234v10.9757
		l-6.1414-6.1414V49.0937c0-1.3387-1.0847-2.4234-2.4234-2.4234c-1.3387,0-2.4234,1.0847-2.4234,2.4234v10.9757l-9.3041-9.3041
		l6.427-6.427c0.9467-0.9459,0.9467-2.481,0-3.4269c-0.9467-0.9467-2.4802-0.9467-3.4269,0l-6.427,6.427l-4.0791-4.0791
		l-2.4655-9.2001c-0.7763-2.8976-2.9701-5.0914-5.8669-5.8677c-2.8984-0.7747-5.8937,0.0268-8.0143,2.1481
		c-2.1213,2.1205-2.9244,5.1167-2.1481,8.0143c0.7763,2.8968,2.9701,5.0907,5.8677,5.8669l9.1989,2.4642l4.0804,4.0804l-6.427,6.427
		c-0.9467,0.9459-0.9467,2.481,0,3.4269c0.4733,0.4733,1.0934,0.71,1.7135,0.71c0.6201,0,1.2401-0.2367,1.7135-0.71l6.427-6.427
		l8.8733,8.8733H47.3803c-1.3387,0-2.4234,1.0847-2.4234,2.4234c0,1.3387,1.0847,2.4234,2.4234,2.4234H62.87l6.1414,6.1414H58.3686
		c-1.3387,0-2.4234,1.0847-2.4234,2.4234s1.0847,2.4234,2.4234,2.4234h15.4897l8.9092,8.9092l-9.4504,9.4504h-6.4546
		L55.6746,86.0726c-0.9467-0.9467-2.4802-0.9467-3.4269,0c-0.9467,0.9459-0.9467,2.481,0,3.4269l7.761,7.761h-8.6856
		L40.1344,86.0726c-0.9467-0.9467-2.4802-0.9467-3.4269,0c-0.9467,0.9467-0.9467,2.481,0,3.4269l7.761,7.761H31.3099v-9.0887
		c0-1.3387-1.0847-2.4234-2.4234-2.4234c-1.3387,0-2.4234,1.0847-2.4234,2.4234v9.0887h-5.7696l-8.2473-4.7617
		c-2.5986-1.5005-5.7005-1.4997-8.2975-0.0008C1.5509,93.9985,0,96.6846,0,99.6839c0,2.9993,1.5509,5.6855,4.1487,7.1859
		c1.2985,0.7494,2.7232,1.1242,4.1487,1.1242c1.4247,0,2.8494-0.3747,4.1487-1.1249l8.2473-4.7617h5.7696v9.0887
		c0,1.3387,1.0847,2.4234,2.4234,2.4234c1.3387,0,2.4234-1.0847,2.4234-2.4234v-9.0887h12.5482l-7.5246,7.5252
		c-0.9467,0.9459-0.9467,2.481,0,3.4269c0.4733,0.4733,1.0934,0.71,1.7135,0.71c0.6201,0,1.2401-0.2367,1.7135-0.71l10.952-10.9521
		h8.6858l-7.5246,7.5252c-0.9467,0.9467-0.9467,2.481,0,3.4269c0.4733,0.4733,1.0934,0.71,1.7135,0.71s1.2401-0.2367,1.7135-0.71
		l10.9514-10.9521h7.0651l9.4502,9.4498l-8.4781,8.4783H58.4664c-1.3387,0-2.4234,1.0847-2.4234,2.4234
		c0,1.3387,1.0847,2.4234,2.4234,2.4234h10.976l-6.1421,6.1422H47.4781c-1.3387,0-2.4234,1.0847-2.4234,2.4234
		c0,1.3387,1.0847,2.4234,2.4234,2.4234h10.9754l-9.3039,9.304l-6.4269-6.4269c-0.9467-0.9467-2.4802-0.9467-3.4269,0
		c-0.9467,0.9459-0.9467,2.481,0,3.4269l6.4269,6.4269l-4.0782,4.0784l-9.2009,2.4655c-2.8984,0.7778-5.0914,2.9709-5.8677,5.8677
		c-0.7755,2.8984,0.0268,5.8929,2.1481,8.0135c1.5888,1.5888,3.6683,2.4392,5.8298,2.4392c0.7234,0,1.4571-0.0962,2.1836-0.2903
		c2.8976-0.7763,5.0914-2.9709,5.8677-5.8677l2.4656-9.2002l4.0789-4.0791l6.4271,6.4271c0.4733,0.4733,1.0934,0.71,1.7135,0.71
		c0.6201,0,1.2401-0.2367,1.7135-0.71c0.9467-0.9467,0.9467-2.4802,0-3.4269l-6.4271-6.4271l8.8734-8.8736v10.6431
		c0,1.3379,1.0847,2.4234,2.4234,2.4234s2.4234-1.0855,2.4234-2.4234v-15.4901l6.1414-6.1416v10.6425
		c0,1.3387,1.0847,2.4234,2.4234,2.4234s2.4234-1.0847,2.4234-2.4234v-15.4895l8.909-8.9092l9.4506,9.4502v8.0703l-11.1879,11.1887
		c-0.9467,0.9467-0.9467,2.481,0,3.4269c0.9467,0.9467,2.4802,0.9467,3.4269,0l7.761-7.761v8.6864l-11.1879,11.1871
		c-0.9467,0.9467-0.9467,2.4802,0,3.4269c0.9467,0.9467,2.4802,0.9467,3.4269,0l7.761-7.7604v13.158h-9.0887
		c-1.3387,0-2.4234,1.0855-2.4234,2.4234c0,1.338,1.0847,2.4234,2.4234,2.4234h9.0887v5.7696l-4.7617,8.2473
		c-1.5005,2.5986-1.5005,5.7005,0,8.299c1.4997,2.597,4.1858,4.1479,7.1851,4.1479c2.9993,0,5.6855-1.5509,7.1851-4.1479
		c1.5005-2.5986,1.5005-5.7005,0-8.299l-4.7617-8.2473v-5.7696h9.0887c1.3379,0,2.4234-1.0855,2.4234-2.4234
		c0-1.3379-1.0855-2.4234-2.4234-2.4234h-9.0887v-12.5476l7.5251,7.524c0.4733,0.4733,1.0934,0.71,1.7134,0.71
		c0.6201,0,1.2401-0.2367,1.7135-0.71c0.9467-0.9467,0.9467-2.4803,0-3.4269l-10.952-10.9506v-8.6865l7.5251,7.5246
		c0.4733,0.4733,1.0934,0.71,1.7134,0.71c0.6201,0,1.2401-0.2367,1.7135-0.71c0.9467-0.9459,0.9467-2.481,0-3.4269l-10.952-10.9521
		v-8.6809l9.4506-9.4502l8.4783,8.4785v15.8224c0,1.3387,1.0855,2.4234,2.4234,2.4234s2.4234-1.0847,2.4234-2.4234v-10.9754
		l6.1407,6.1408v15.8238c0,1.3379,1.0855,2.4234,2.4234,2.4234c1.3379,0,2.4234-1.0855,2.4234-2.4234v-10.9768l9.305,9.3051
		l-6.4271,6.4271c-0.9467,0.9467-0.9467,2.4803,0,3.4269c0.4733,0.4733,1.0934,0.71,1.7135,0.71s1.2401-0.2367,1.7135-0.71
		l6.4271-6.4271l4.0779,4.078l2.4657,9.2013c0.7778,2.8983,2.9709,5.0914,5.8693,5.8677c0.7258,0.1941,1.4594,0.2903,2.1836,0.2903
		c2.16,0,4.241-0.8504,5.8283-2.4392c2.1205-2.1205,2.9252-5.1151,2.1489-8.0119c-0.7763-2.8983-2.9694-5.0914-5.8677-5.8693
		l-9.2012-2.4657l-4.0779-4.0781l6.4269-6.4269c0.9467-0.9459,0.9467-2.481,0-3.4269c-0.9467-0.9467-2.4802-0.9467-3.4269,0
		l-6.4269,6.4269l-8.8732-8.8732h10.6425c1.3379,0,2.4234-1.0847,2.4234-2.4234s-1.0855-2.4234-2.4234-2.4234H133.267
		l-6.1413-6.1414h10.6415c1.338,0,2.4234-1.0847,2.4234-2.4234c0-1.3387-1.0855-2.4234-2.4234-2.4234h-15.4883l-8.9096-8.9098
		l9.4502-9.4498h6.4546l11.1879,11.1879c0.4733,0.4733,1.0934,0.71,1.7135,0.71c0.6201,0,1.2401-0.2367,1.7135-0.71
		c0.9467-0.9459,0.9467-2.481,0-3.4269l-7.761-7.761h8.6871l11.1864,11.1879c0.4733,0.4733,1.0934,0.71,1.7135,0.71
		s1.2401-0.2367,1.7135-0.71c0.9467-0.9459,0.9467-2.4802,0-3.4269l-7.7598-7.761h13.1573v9.0887
		c0,1.3387,1.0855,2.4234,2.4234,2.4234c1.338,0,2.4234-1.0847,2.4234-2.4234v-9.0887h5.7696l8.2473,4.7617
		c1.2985,0.7502,2.7232,1.1249,4.1495,1.1249c1.4247,0,2.8494-0.3747,4.1495-1.1249c2.597-1.4997,4.1479-4.1858,4.1479-7.1851
		C196.1366,96.6846,194.5857,93.9985,191.9887,92.4988z M160.6527,32.8735c0.3029-0.0813,0.6075-0.1207,0.9088-0.1207
		c0.8978,0,1.7624,0.3534,2.4234,1.0137c0.882,0.8828,1.2165,2.1284,0.893,3.3322c-0.3219,1.2054-1.2338,2.1174-2.4392,2.4408
		l-5.6999,1.5266c-0.0092-0.0095-0.0117-0.0223-0.0211-0.0317c-0.0096-0.0096-0.0228-0.0122-0.0325-0.0216l1.5283-5.6994
		C158.5353,34.1081,159.4489,33.1962,160.6527,32.8735z M95.08,6.5722c0.624-1.0808,1.7411-1.7253,2.9883-1.7253
		s2.3643,0.6445,2.9883,1.7253c0.6232,1.08,0.6232,2.3698,0,3.4506l-2.9486,5.1064c-0.0135-0.0002-0.026-0.0039-0.0396-0.0039
		c-0.0136,0-0.0261,0.0037-0.0396,0.0039L95.08,10.0227C94.4568,8.942,94.4568,7.6522,95.08,6.5722z M31.2579,37.0996
		c-0.3227-1.2046,0.011-2.4511,0.893-3.333c0.6611-0.6603,1.5257-1.0137,2.4242-1.0137c0.3014,0,0.6059,0.0394,0.9088,0.1207
		c1.2046,0.3227,2.1166,1.2354,2.44,2.44l1.5268,5.6998c-0.0096,0.0093-0.0225,0.0118-0.0318,0.0212s-0.0119,0.0223-0.0212,0.0318
		l-5.6998-1.5268C32.4933,39.2161,31.5805,38.3042,31.2579,37.0996z M10.0227,102.6722c-1.0808,0.6232-2.3714,0.6232-3.4506,0
		c-1.0808-0.624-1.7253-1.7411-1.7253-2.9883s0.6445-2.3643,1.7253-2.9883c0.5396-0.3116,1.1328-0.4678,1.7253-0.4678
		c0.5925,0,1.1849,0.1562,1.7253,0.4678l5.1064,2.9486c-0.0002,0.0135-0.0039,0.026-0.0039,0.0396
		c0,0.0136,0.0037,0.0261,0.0039,0.0396L10.0227,102.6722z M35.4831,166.4936c-1.2046,0.3297-2.4495-0.011-3.3322-0.893
		c-0.882-0.882-1.2157-2.1268-0.893-3.3322c0.3227-1.2038,1.2346-2.1174,2.44-2.4392l5.6994-1.5283
		c0.0094,0.0098,0.012,0.023,0.0216,0.0325c0.0094,0.0094,0.0222,0.0118,0.0317,0.021l-1.5266,5.6984
		C37.6005,165.2598,36.6885,166.1717,35.4831,166.4936z M101.0558,192.7965c-0.6232,1.0792-1.7403,1.7245-2.9875,1.7245
		s-2.3643-0.6453-2.9875-1.7245c-0.624-1.0808-0.624-2.3714-0.0008-3.4521l2.9486-5.1065c0.0135,0.0002,0.026,0.004,0.0396,0.004
		c0.0136,0,0.0261-0.0038,0.0396-0.004l2.9486,5.1065C101.6798,190.4251,101.6798,191.7157,101.0558,192.7965z M164.878,162.2683
		c0.3234,1.2054-0.011,2.4503-0.893,3.3322c-0.8835,0.882-2.1284,1.2165-3.3322,0.893c-1.2038-0.3219-2.1174-1.2338-2.4392-2.4408
		l-1.5281-5.6979c0.0097-0.0094,0.0228-0.0119,0.0323-0.0215s0.0121-0.0227,0.0215-0.0323l5.6979,1.5281
		C163.6441,160.151,164.5561,161.0645,164.878,162.2683z M118.3547,99.7184L98.0683,120.004l-9.6694-9.6694
		c-0.11-0.2066-0.2177-0.4159-0.392-0.59c-0.174-0.174-0.3832-0.2816-0.5897-0.3917l-9.636-9.636
		c0.0002-0.0112,0.0033-0.0216,0.0033-0.0329c0-0.0113-0.0032-0.0217-0.0033-0.0329l9.6373-9.6376
		c0.206-0.1099,0.4146-0.2171,0.5884-0.3909c0.1739-0.1738,0.2811-0.3826,0.3912-0.5888l9.6702-9.6706l9.6671,9.6671
		c0.1102,0.2076,0.2186,0.4176,0.3935,0.5923c0.1747,0.1747,0.3846,0.283,0.5921,0.3933l9.6337,9.6337
		c-0.0002,0.0117-0.0035,0.0227-0.0035,0.0344C118.3513,99.6957,118.3545,99.7066,118.3547,99.7184z M189.5652,102.6714
		c-1.0839,0.6256-2.3745,0.6232-3.4521,0.0008l-5.1064-2.9486c0.0002-0.0135,0.0039-0.026,0.0039-0.0396
		c0-0.0136-0.0037-0.0261-0.0039-0.0396l5.1064-2.9486c1.0776-0.6224,2.3682-0.6248,3.4521,0.0008
		c1.0792,0.6232,1.7245,1.7403,1.7245,2.9875S190.6444,102.0482,189.5652,102.6714z"/>
</g>
</svg>
