<?xml version="1.0" encoding="utf-8"?>
<!-- Generator: Adobe Illustrator 21.0.0, SVG Export Plug-In . SVG Version: 6.00 Build 0)  -->
<svg version="1.1" id="Snow-Line-new3-D4" xmlns="http://www.w3.org/2000/svg" xmlns:xlink="http://www.w3.org/1999/xlink" x="0px"
	 y="0px" viewBox="0 0 207.4991 207.5" enable-background="new 0 0 207.4991 207.5" xml:space="preserve">
<g id="change1">
	<path fill="#87E8C6" d="M199.9612,96.2128c-3.255,0-6.0258,2.0776-7.0779,4.9733h-9.1599l10.5442-10.5442
		c1.0015-1.0007,1.0015-2.6248,0-3.6254c-1.0015-1.0015-2.624-1.0015-3.6255,0l-14.1696,14.1696h-34.8557l17.1674-17.1675
		c0.7244-0.7244,0.9481-1.8119,0.5676-2.7633c-0.3789-0.9523-1.2903-1.5865-2.3152-1.6124l-24.9222-0.6329l17.4752-17.4752h18.1414
		c1.4155,0,2.5638-1.1475,2.5638-2.5638c0-1.4163-1.1484-2.5638-2.5638-2.5638h-13.0137l12.7584-12.7584
		c1.0015-1.0006,1.0015-2.6248,0-3.6254c-1.0015-1.0015-2.624-1.0015-3.6254,0l-12.7575,12.7575V39.7681
		c0-1.4163-1.1484-2.5638-2.5638-2.5638s-2.5638,1.1475-2.5638,2.5638v18.1406l-17.5339,17.5339l0.4014-26.5416
		c0.0151-1.0432-0.6025-1.993-1.564-2.3994c-0.9631-0.4081-2.0731-0.1903-2.8126,0.5483L106.313,65.1937V31.0274l14.1688-14.1696
		c1.0015-1.0015,1.0015-2.6248,0-3.6255c-1.0015-1.0015-2.624-1.0015-3.6255,0L106.313,23.7757v-9.1591
		c2.8958-1.0524,4.9733-3.8236,4.9733-7.0786c0-4.1562-3.3809-7.538-7.5372-7.538S96.212,3.3818,96.212,7.538
		c0,3.255,2.0776,6.0262,4.9733,7.0786v9.1591L90.642,13.2324c-1.0015-1.0015-2.624-1.0015-3.6254,0
		c-1.0015,1.0007-1.0015,2.624,0,3.6255l14.1688,14.1695v35.255l-18.8608-19.331c-0.7286-0.7469-1.8344-0.9798-2.8017-0.5842
		c-0.9656,0.3931-1.5974,1.332-1.5974,2.3744v25.5592L61.5349,57.9103V39.7681c0-1.4163-1.1476-2.5638-2.5638-2.5638
		c-1.4163,0-2.5638,1.1475-2.5638,2.5638v13.0145L43.6481,40.0234c-1.0015-1.0015-2.624-1.0015-3.6255,0
		c-1.0015,1.0007-1.0015,2.6248,0,3.6254l12.7584,12.7584H39.7681c-1.4163,0-2.5638,1.1476-2.5638,2.5638
		c0,1.4163,1.1475,2.5638,2.5638,2.5638h18.1406l18.0229,18.0229H49.2581c-1.0374,0-1.9721,0.6243-2.3685,1.5824
		c-0.3973,0.9581-0.1778,2.0615,0.5558,2.7942l17.2518,17.2518H31.0266L16.857,87.0165c-1.0015-1.0015-2.624-1.0015-3.6255,0
		c-1.0015,1.0007-1.0015,2.6248,0,3.6254l10.5442,10.5442h-9.16c-1.0524-2.8958-3.8236-4.9733-7.0786-4.9733
		C3.3809,96.2128,0,99.5938,0,103.75s3.3809,7.5372,7.5372,7.5372c3.2549,0,6.0262-2.0776,7.0786-4.9733h9.16L13.2315,116.858
		c-1.0015,1.0007-1.0015,2.6248,0,3.6254c0.5008,0.5007,1.1567,0.7512,1.8127,0.7512s1.312-0.2504,1.8127-0.7512l14.1696-14.1696
		h34.7889l-18.4543,18.4544c-0.7336,0.7327-0.9531,1.8361-0.5558,2.7942c0.3964,0.9581,1.3312,1.5824,2.3685,1.5824h25.5551
		l-16.8203,16.8203H39.7681c-1.4163,0-2.5638,1.1475-2.5638,2.5638c0,1.4163,1.1475,2.5638,2.5638,2.5638h13.0129l-12.7584,12.7584
		c-1.0015,1.0015-1.0015,2.6239,0,3.6254c0.5008,0.5007,1.1567,0.7511,1.8127,0.7511s1.312-0.2504,1.8127-0.7511l12.7592-12.7592
		v13.0145c0,1.4155,1.1475,2.5638,2.5638,2.5638c1.4163,0,2.5638-1.1484,2.5638-2.5638v-18.1422l17.0982-17.0982v25.3205
		c0,1.0366,0.6243,1.9713,1.5823,2.3686c0.9598,0.3989,2.0615,0.1769,2.7942-0.5558l18.1757-18.1749v35.0235l-14.1688,14.168
		c-1.0015,1.0015-1.0015,2.6239,0,3.6254c1.0015,1.0015,2.6239,1.0015,3.6254,0l10.5433-10.5427v9.16
		c-2.8958,1.0521-4.9733,3.8229-4.9733,7.0779c0,4.1562,3.3809,7.538,7.5372,7.538s7.5372-3.3818,7.5372-7.538
		c0-3.255-2.0776-6.0258-4.9733-7.0779v-9.16l10.5433,10.5427c0.5008,0.5007,1.1567,0.7512,1.8127,0.7512
		s1.312-0.2504,1.8127-0.7512c1.0015-1.0015,1.0015-2.624,0-3.6254l-14.1688-14.168V142.802l18.3267,18.3267
		c0.4907,0.4908,1.1467,0.7512,1.8127,0.7512c0.3405,0,0.6844-0.0684,1.0099-0.207c0.9631-0.414,1.579-1.3721,1.554-2.4186
		l-0.6664-27.278l17.6152,17.6152v18.1406c0,1.4155,1.1484,2.5638,2.5638,2.5638s2.5638-1.1484,2.5638-2.5638v-13.0129
		l12.7575,12.7575c0.5007,0.5007,1.1567,0.7511,1.8127,0.7511c0.656,0,1.312-0.2504,1.8127-0.7511
		c1.0015-1.0015,1.0015-2.624,0-3.6254l-12.7584-12.7584h13.0137c1.4155,0,2.5638-1.1476,2.5638-2.5638
		c0-1.4163-1.1484-2.5638-2.5638-2.5638h-18.1414l-16.9035-16.9035l24.3605-0.7097c1.0249-0.03,1.9329-0.6677,2.3102-1.6207
		c0.3755-0.954,0.1486-2.0397-0.5792-2.7625l-17.7941-17.6548h35.489l14.1696,14.1696c0.5008,0.5007,1.1567,0.7512,1.8127,0.7512
		s1.312-0.2504,1.8127-0.7512c1.0015-1.0007,1.0015-2.6248,0-3.6254l-10.5442-10.5442h9.1599
		c1.0521,2.8958,3.8229,4.9733,7.0779,4.9733c4.1562,0,7.538-3.3809,7.538-7.5372S204.1174,96.2128,199.9612,96.2128z
		 M150.9342,84.6171l-16.5683,16.5691h-24.4274l17.1736-17.1736L150.9342,84.6171z M123.6098,55.1478l-0.3862,25.5023
		L106.313,97.5607V72.4446L123.6098,55.1478z M103.7491,5.1277c1.3287,0,2.4095,1.0817,2.4095,2.4103
		c0,1.1163-0.7667,2.0489-1.7986,2.3213c-0.1967-0.0483-0.3992-0.0812-0.6109-0.0812c-0.2116,0-0.4142,0.0329-0.6109,0.0812
		c-1.0319-0.2724-1.7985-1.205-1.7985-2.3213C101.3397,6.2094,102.4205,5.1277,103.7491,5.1277z M83.053,55.041l18.1323,18.5836
		v23.936L83.053,79.4284V55.041z M55.4474,84.6855h25.0417c0.1774,0,0.3505-0.0181,0.5177-0.0524l16.553,16.553H71.9481
		L55.4474,84.6855z M7.5372,106.1594c-1.3287,0-2.4095-1.0807-2.4095-2.4094s1.0808-2.4094,2.4095-2.4094
		c1.1168,0,2.0497,0.7673,2.3217,1.7999c-0.0481,0.1963-0.0808,0.3984-0.0808,0.6095s0.0327,0.4132,0.0808,0.6095
		C9.5869,105.3921,8.6539,106.1594,7.5372,106.1594z M55.3632,124.0171l17.7032-17.7032h24.4935l-17.7032,17.7032H55.3632z
		 M83.7608,151.6227v-24.2589l17.4245-17.4245v24.2589L83.7608,151.6227z M103.7491,202.3723c-1.3287,0-2.4094-1.0817-2.4094-2.4103
		c0-1.1169,0.7673-2.0493,1.8-2.3209c0.1963,0.0481,0.3983,0.0809,0.6094,0.0809s0.4131-0.0328,0.6094-0.0809
		c1.0327,0.2717,1.8,1.204,1.8,2.3209C106.1586,201.2906,105.0778,202.3723,103.7491,202.3723z M123.7333,152.9706l-17.4203-17.4203
		v-25.611l16.7826,16.7826c0.0001,0.0143-0.0036,0.0275-0.0032,0.0419L123.7333,152.9706z M150.9242,123.4003l-23.2231,0.6761
		l-17.7626-17.7626h23.7656L150.9242,123.4003z M199.9612,106.1594c-1.1169,0-2.0493-0.7673-2.3209-1.8
		c0.0481-0.1963,0.0809-0.3983,0.0809-0.6094s-0.0328-0.4131-0.0809-0.6094c0.2717-1.0327,1.204-1.8,2.3209-1.8
		c1.3287,0,2.4103,1.0807,2.4103,2.4094S201.2899,106.1594,199.9612,106.1594z"/>
</g>
</svg>
