<?xml version="1.0" encoding="utf-8"?>
<!-- Generator: Adobe Illustrator 21.0.0, SVG Export Plug-In . SVG Version: 6.00 Build 0)  -->
<svg version="1.1" id="Snow-Line-new1-D4" xmlns="http://www.w3.org/2000/svg" xmlns:xlink="http://www.w3.org/1999/xlink" x="0px"
	 y="0px" viewBox="0 0 201.6608 201.6619" enable-background="new 0 0 201.6608 201.6619" xml:space="preserve">
<g id="change1">
	<path fill="#87E8C6" d="M197.4994,105.9283l-28.8782,17.9933c-0.1298-0.0734-0.1667-0.2302-0.3033-0.2835l-10.1143-3.8561
		l19.6011-12.2157c1.2809-0.7973,1.668-2.4816,0.8741-3.7561c-0.7973-1.2741-2.4885-1.6478-3.7527-0.8707l-23.1136,14.4073
		l-8.613-3.2823l10.1406-6.5181c1.2676-0.814,1.6344-2.5018,0.8208-3.7694c-0.8208-1.2676-2.5021-1.6314-3.7629-0.8208
		l-13.5233,8.693l-28.3976-10.821l28.3976-10.8214l13.5233,8.6899c0.4536,0.29,0.9639,0.4301,1.4712,0.4301
		c0.8905,0,1.7711-0.4403,2.2917-1.2475c0.8137-1.2608,0.4468-2.9489-0.8208-3.7629l-10.1406-6.5212l8.613-3.2826l23.1136,14.4073
		c0.4434,0.2736,0.9438,0.4068,1.4408,0.4068c0.9042,0,1.7913-0.4502,2.3119-1.2809c0.7938-1.2741,0.4068-2.9554-0.8741-3.7526
		l-19.6011-12.2188l10.1143-3.8531c0.1366-0.0533,0.1735-0.2101,0.3033-0.2835l28.8782,17.9933
		c0.4502,0.2736,0.9472,0.4068,1.4374,0.4068c0.9042,0,1.7981-0.4536,2.3118-1.2775c0.7938-1.2775,0.4068-2.9554-0.8673-3.7526
		l-28.6476-17.8464l7.9189-35.4195c0.3204-1.4678-0.6002-2.9287-2.0649-3.2556c-1.4644-0.3201-2.9185,0.6005-3.2556,2.0649
		l-8.1225,36.35l-9.3703,3.576l5.1705-23.1269c0.3235-1.4712-0.5971-2.9257-2.0615-3.2591
		c-1.4811-0.2869-2.9257,0.607-3.2525,2.0679l-5.9541,26.6398l-9.5038,3.6293l2.4187-12.8364
		c0.2767-1.4777-0.6941-2.9052-2.1718-3.1822c-1.4743-0.2934-2.9086,0.6804-3.1822,2.1714l-3.0356,16.1118l-29.7352,11.3351
		l11.3351-29.7318l16.1118-3.0421c1.4811-0.277,2.4519-1.7014,2.168-3.1825c-0.2767-1.4811-1.711-2.4382-3.1754-2.168
		l-12.8364,2.4218l3.6293-9.507l26.6363-5.9511c1.4678-0.3337,2.3884-1.7916,2.0649-3.256
		c-0.3303-1.461-1.7547-2.3617-3.2556-2.0615l-23.1238,5.174l3.5695-9.3768l36.3531-8.1229
		c1.4678-0.3303,2.3887-1.7878,2.0648-3.2522c-0.3269-1.4545-1.7445-2.372-3.2522-2.0615l-35.4195,7.9124L110.5555,1.2817
		c-0.7938-1.2878-2.485-1.6546-3.7526-0.8741c-1.2775,0.7973-1.6646,2.4755-0.8707,3.753l17.9933,28.8778
		c-0.0734,0.1267-0.2336,0.1667-0.2869,0.3067l-3.8561,10.1075l-12.2157-19.6011c-0.7938-1.2741-2.4884-1.641-3.7526-0.8707
		c-1.2745,0.7973-1.6646,2.4785-0.8707,3.753l14.4039,23.117l-3.2822,8.6127l-6.5181-10.1474
		c-0.8208-1.2608-2.5021-1.6212-3.7629-0.8137c-1.2676,0.8137-1.6345,2.4983-0.8204,3.766l8.6929,13.513l-10.8248,28.401
		l-10.8244-28.401l8.6929-13.513c0.8106-1.2676,0.4471-2.9523-0.8205-3.766c-1.2577-0.8041-2.9489-0.4471-3.7629,0.8137
		l-6.5198,10.1474l-3.284-8.6127l14.4073-23.117c0.7904-1.2744,0.4068-2.9557-0.8707-3.753
		c-1.2509-0.7703-2.939-0.4034-3.7526,0.8707L81.8778,43.4526l-3.8527-10.1075c-0.0533-0.14-0.2135-0.18-0.2886-0.3067
		l17.995-28.8778c0.7938-1.2775,0.4068-2.9557-0.8673-3.753c-1.2744-0.7805-2.9489-0.4137-3.7543,0.8741L73.2617,29.9228
		l-35.4177-7.9124c-1.4743-0.3269-2.9189,0.6002-3.2557,2.0615c-0.3252,1.4644,0.5937,2.9219,2.0649,3.2522l36.35,8.1229
		l3.5743,9.3768l-23.1256-5.174c-1.4893-0.3003-2.9188,0.6005-3.2522,2.0615c-0.3217,1.4644,0.5971,2.9222,2.0615,3.256
		l26.6394,5.9511l3.6245,9.507l-12.833-2.4218c-1.4408-0.2736-2.9069,0.6869-3.1788,2.168
		c-0.2787,1.4811,0.6938,2.9055,2.1714,3.1825l16.1101,3.0421l11.3369,29.7318L66.3948,84.7928L63.3561,68.681
		c-0.277-1.4777-1.7199-2.4649-3.1791-2.1714c-1.4777,0.277-2.4519,1.7045-2.1667,3.1822l2.4167,12.8364l-9.507-3.6293
		L44.9676,52.259c-0.3303-1.461-1.753-2.3549-3.256-2.0679c-1.4678,0.3334-2.3849,1.7878-2.0615,3.2591l5.174,23.1269l-9.3737-3.576
		l-8.1225-36.35c-0.3286-1.4644-1.7079-2.3849-3.2539-2.0649c-1.4678,0.3269-2.3853,1.7878-2.0601,3.2556l7.9124,35.4195
		L1.2822,91.1076c-1.2744,0.7973-1.6628,2.4751-0.8741,3.7526c0.5172,0.8307,1.4111,1.2775,2.317,1.2775
		c0.4936,0,0.9923-0.1332,1.4377-0.4068l28.8792-17.9933c0.1284,0.0734,0.1636,0.2302,0.3054,0.2835l10.1092,3.8531L23.8537,94.0931
		c-1.2758,0.7973-1.6628,2.4785-0.869,3.7526c0.5219,0.8307,1.4094,1.2809,2.3118,1.2809c0.497,0,0.9974-0.1332,1.4408-0.4068
		l23.1153-14.4073l8.613,3.2826l-10.144,6.5212c-1.2642,0.814-1.6328,2.5021-0.8205,3.7629
		c0.5236,0.8072,1.4008,1.2475,2.2931,1.2475c0.5039,0,1.0176-0.1401,1.4695-0.4301l13.5216-8.6899l28.3976,10.8214l-28.3976,10.821
		l-13.5216-8.693c-1.256-0.8037-2.9489-0.4369-3.7625,0.8208c-0.8123,1.2676-0.4437,2.9554,0.8205,3.7694l10.144,6.5181
		l-8.613,3.2823l-23.1153-14.4073c-1.2509-0.7771-2.9404-0.4034-3.7526,0.8707c-0.7938,1.2745-0.4068,2.9588,0.869,3.7561
		l19.6028,12.2157l-10.1092,3.8561c-0.1418,0.0533-0.1769,0.2101-0.3054,0.2835L4.1627,105.9283
		c-1.2762-0.7703-2.9472-0.3935-3.7547,0.8707c-0.7887,1.2775-0.4003,2.9557,0.8741,3.753l28.6442,17.8495l-7.9124,35.4195
		c-0.3252,1.4644,0.5923,2.9222,2.0601,3.2457c0.2015,0.0434,0.3986,0.0666,0.5954,0.0666c1.2492,0,2.3699-0.8574,2.6585-2.125
		l8.1225-36.353l9.3737-3.576l-5.174,23.1269c-0.3235,1.4712,0.5937,2.9287,2.0615,3.2556
		c0.2036,0.0434,0.4003,0.0669,0.5971,0.0669c1.2478,0,2.3685-0.8642,2.6589-2.1318l5.9524-26.6394l9.507-3.6225l-2.4167,12.8326
		c-0.2852,1.4777,0.689,2.8987,2.1667,3.1791c0.1735,0.0331,0.3419,0.0464,0.5103,0.0464c1.2827,0,2.4252-0.9072,2.6688-2.2182
		l3.0387-16.1152l29.7369-11.3314l-11.3369,29.7318l-16.1101,3.0456c-1.4777,0.2767-2.4502,1.6977-2.1714,3.1788
		c0.2835,1.4845,1.7445,2.4218,3.1788,2.1684l12.833-2.4184l-3.6245,9.5035l-26.6394,5.9576
		c-1.4643,0.3272-2.3832,1.7814-2.0615,3.2526c0.3334,1.4579,1.7629,2.3952,3.2522,2.0615l23.1256-5.1736l-3.5743,9.3734
		l-36.35,8.1259c-1.4712,0.3269-2.3901,1.7848-2.0649,3.2556c0.3368,1.4579,1.7547,2.3887,3.2557,2.0584l35.4177-7.9159
		l17.8481,28.6476c0.5134,0.8273,1.4094,1.2809,2.3098,1.2809c0.497,0,0.9974-0.1336,1.4445-0.4102
		c1.2741-0.7973,1.6611-2.4819,0.8673-3.7526l-17.995-28.8812c0.0751-0.1267,0.2354-0.1667,0.2886-0.3037l3.8527-10.1105
		l12.2191,19.6008c0.5202,0.8307,1.4077,1.2809,2.3081,1.2809c0.4939,0,0.9974-0.1332,1.4445-0.4068
		c1.2775-0.8007,1.6611-2.4785,0.8707-3.7561l-14.4073-23.117l3.284-8.6096l6.5198,10.1406
		c0.5206,0.8109,1.3978,1.2512,2.2883,1.2512c0.5072,0,1.021-0.1404,1.4746-0.4304c1.2676-0.8106,1.6311-2.4987,0.8205-3.7663
		l-8.6929-13.5165l10.8244-28.404l10.8248,28.404l-8.6929,13.5165c-0.814,1.2676-0.4472,2.9557,0.8204,3.7663
		c0.4537,0.29,0.9674,0.4304,1.4712,0.4304c0.8905,0,1.7711-0.4403,2.2917-1.2512l6.5181-10.1406l3.2822,8.6096l-14.4039,23.117
		c-0.7938,1.2775-0.4037,2.9554,0.8707,3.7561c0.4437,0.2736,0.9472,0.4068,1.4411,0.4068c0.9038,0,1.7913-0.4502,2.3115-1.2809
		l12.2157-19.6008l3.8561,10.1105c0.0533,0.1435,0.1933,0.2101,0.2668,0.3368l-17.9731,28.8481
		c-0.7938,1.2707-0.4068,2.9554,0.8707,3.7526c0.4502,0.2767,0.9441,0.4102,1.4377,0.4102c0.9072,0,1.8012-0.4536,2.3149-1.2809
		l17.8464-28.6476l35.4195,7.9159c1.4811,0.3201,2.9188-0.594,3.2522-2.0584c0.3238-1.4709-0.5971-2.9287-2.0648-3.2556
		l-36.3531-8.1259l-3.5695-9.3734l23.1238,5.1736c1.5009,0.3337,2.9253-0.6036,3.2556-2.0615
		c0.3235-1.4712-0.5971-2.9253-2.0649-3.2526l-26.6363-5.9576l-3.6293-9.5035l12.8364,2.4184
		c1.461,0.2534,2.8987-0.6938,3.1754-2.1684c0.2839-1.4811-0.6869-2.9021-2.168-3.1788l-16.1118-3.0456l-11.3351-29.7318
		l29.7352,11.3314l3.0356,16.1152c0.2466,1.311,1.3909,2.2182,2.6719,2.2182c0.1701,0,0.3402-0.0133,0.5103-0.0464
		c1.4777-0.2804,2.4485-1.7014,2.1718-3.1791l-2.4187-12.8326l9.5038,3.6225l5.9541,26.6394
		c0.2869,1.2676,1.4077,2.1318,2.6589,2.1318c0.1967,0,0.3935-0.0236,0.5937-0.0669c1.4644-0.3269,2.3849-1.7844,2.0615-3.2556
		l-5.1705-23.1269l9.3703,3.576l8.1225,36.353c0.2903,1.2676,1.4111,2.125,2.6585,2.125c0.1971,0,0.3973-0.0232,0.5971-0.0666
		c1.4647-0.3235,2.3853-1.7814,2.0649-3.2457l-7.9189-35.4195l28.6476-17.8495c1.2741-0.7973,1.6611-2.4755,0.8673-3.753
		C200.4548,105.5115,198.7735,105.158,197.4994,105.9283z"/>
</g>
</svg>
