<?xml version="1.0" encoding="utf-8"?>
<!-- Generator: Adobe Illustrator 21.0.0, SVG Export Plug-In . SVG Version: 6.00 Build 0)  -->
<svg version="1.1" id="Circus-Star-D6" xmlns="http://www.w3.org/2000/svg" xmlns:xlink="http://www.w3.org/1999/xlink" x="0px"
	 y="0px" viewBox="0 0 490.0002 489.4694" enable-background="new 0 0 490.0002 489.4694" xml:space="preserve">
<g id="change1">
	<circle fill="#6157D4" cx="245.0005" cy="244.735" r="224.3333"/>
</g>
<g id="change2">
	<path fill="#81E2E6" d="M417.5186,70.953c-10.831-10.831-22.618-20.601-35.253-29.308
		c-45.5551-31.219-100.454-44.917-154.715-40.988c-19.963,1.379-39.82,5.203-59.04,11.467
		c-60.951,19.645-109.372,62.1201-140.0599,117.975c-3.61,6.4771-6.901,13.167-9.769,19.963
		c-37.59,88.453-17.096,194.64,49.271,263.873c18.794,19.539,40.457,36.104,64.561,48.528
		c85.693,44.174,190.924,33.447,265.998-26.972c49.694-40.033,81.551-98.222,89.622-161.297
		C497.5826,199.651,470.7176,123.727,417.5186,70.953z M243.9035,476.479c-127.212-0.107-230.85-104.382-230.85-232.3371
		c0-127.848,104.169-231.381,232.7609-231.381c127.424,0,231.062,104.488,230.956,232.761
		C476.6645,372.947,372.1775,476.584,243.9035,476.479z"/>
</g>
<g id="change3">
	<path fill="#F8E8B5" d="M244.6202,464.9049c-2.4897-0.0098-4.5-2.0303-4.5-4.5098l0,0c0.0103-2.4902,2.0303-4.5,4.5103-4.4902l0,0
		l0,0l0,0c2.4902,0,4.5,2.0195,4.4902,4.5l0,0C249.1207,462.8844,247.1002,464.9049,244.6202,464.9049L244.6202,464.9049
		L244.6202,464.9049z M260.0406,459.9352c-0.2305-2.4805,1.5996-4.6699,4.0693-4.8906l0,0l0,0l0,0
		c2.4805-0.2197,4.6602,1.6104,4.8906,4.0801l0,0c0.2197,2.4805-1.6104,4.6699-4.0801,4.8906l0,0
		c-0.1396,0.0098-0.2705,0.0098-0.4004,0.0098l0,0C262.2105,464.025,260.2408,462.2653,260.0406,459.9352z M224.3204,463.9449
		c-2.48-0.2305-4.2998-2.4297-4.0698-4.9004l0,0c0.23-2.4795,2.4199-4.2998,4.8999-4.0596l0,0
		c2.4697,0.2295,4.29,2.4199,4.0601,4.8896l0,0c-0.21,2.3398-2.1802,4.0898-4.4702,4.0898l0,0
		C224.6002,463.9645,224.4605,463.9547,224.3204,463.9449z M279.8199,457.6549c-0.4492-2.4502,1.1709-4.79,3.6104-5.2402l0,0
		c2.4502-0.4502,4.79,1.1699,5.2402,3.6104l0,0c0.4502,2.4395-1.1602,4.79-3.6104,5.2402l0,0
		c-0.2695,0.0498-0.54,0.0693-0.8096,0.0693l0,0C282.1207,461.3346,280.2203,459.8248,279.8199,457.6549z M204.1802,461.1246
		L204.1802,461.1246c-2.4399-0.46-4.0498-2.8096-3.5898-5.25l0,0c0.46-2.4502,2.8101-4.0596,5.25-3.5996l0,0
		c2.4399,0.46,4.0498,2.8096,3.6001,5.25l0,0c-0.4102,2.1699-2.3003,3.6797-4.4199,3.6797l0,0
		C204.7403,461.2047,204.4605,461.1744,204.1802,461.1246z M299.3101,453.5543c-0.6699-2.3896,0.7207-4.8799,3.1104-5.5498l0,0
		c0,0,0,0,0.0098,0l0,0c2.3896-0.6797,4.8701,0.71,5.5498,3.1104l0,0c0.6699,2.3896-0.7197,4.8701-3.1094,5.5498l0,0
		c-0.4102,0.1104-0.8203,0.1699-1.2305,0.1699l0,0C301.6802,456.8346,299.8707,455.5348,299.3101,453.5543z M184.3902,456.4547
		L184.3902,456.4547c-2.3896-0.6797-3.77-3.1797-3.0898-5.5703l0,0c0.6802-2.3799,3.1802-3.7695,5.5698-3.0898l0,0
		c2.3804,0.6904,3.77,3.1807,3.0903,5.5703l0,0c-0.5703,1.9697-2.3701,3.2598-4.3301,3.2598l0,0
		C185.2203,456.6246,184.8106,456.5748,184.3902,456.4547z M318.3404,447.6647c-0.8896-2.3203,0.2598-4.9297,2.5801-5.8203l0,0l0,0
		l0,0c2.3203-0.8994,4.9297,0.2607,5.8203,2.5801l0,0c0.8896,2.3203-0.2607,4.9199-2.5801,5.8203l0,0
		c-0.5303,0.2002-1.0801,0.2998-1.6201,0.2998l0,0C320.73,450.5446,319.0308,449.4449,318.3404,447.6647z M165.1202,449.9645
		c-2.3096-0.8994-3.46-3.5098-2.5596-5.8301l0,0c0.9097-2.3193,3.5098-3.46,5.8296-2.5596l0,0l0,0l0,0
		c2.3101,0.9102,3.46,3.5098,2.5601,5.8301l0,0c-0.6899,1.7803-2.3896,2.8701-4.1997,2.8701l0,0
		C166.2105,450.275,165.6602,450.1744,165.1202,449.9645z M336.7408,440.025c-1.1006-2.2305-0.1904-4.9307,2.0293-6.0303l0,0
		c2.2305-1.1104,4.9307-0.2002,6.04,2.0303l0,0c1.1006,2.2197,0.1904,4.9199-2.0293,6.0293l0,0
		c-0.6504,0.3203-1.3301,0.4707-2,0.4707l0,0C339.1207,442.525,337.5308,441.6051,336.7408,440.025z M146.5406,441.7145
		c-2.2202-1.1201-3.1201-3.8193-2.0103-6.04l0,0c1.1201-2.2197,3.8198-3.1201,6.04-2.0098l0,0
		c2.2202,1.1104,3.1201,3.8203,2.0098,6.04l0,0c-0.7896,1.5703-2.3799,2.4805-4.0298,2.4805l0,0
		C147.8804,442.1852,147.1905,442.0348,146.5406,441.7145z M354.3599,430.7145c-1.3096-2.1201-0.6494-4.8896,1.46-6.1992l0,0l0,0
		l0,0c2.1201-1.3105,4.8906-0.6504,6.2002,1.4697l0,0c1.2998,2.1094,0.6504,4.8799-1.4697,6.1895l0,0
		c-0.7305,0.4502-1.5498,0.6699-2.3604,0.6699l0,0C356.6802,432.8444,355.2105,432.0846,354.3599,430.7145z M128.8004,431.775
		c-2.1001-1.3105-2.75-4.0898-1.4399-6.2002l0,0c1.3198-2.1104,4.0898-2.75,6.2002-1.4404l0,0l0,0l0,0
		c2.1099,1.3105,2.7598,4.0908,1.4399,6.2002l0,0c-0.8501,1.3701-2.3203,2.1201-3.8203,2.1201l0,0
		C130.3702,432.4547,129.5406,432.235,128.8004,431.775z M371.0406,419.8151c-1.5-1.9902-1.1006-4.8105,0.8896-6.2998l0,0
		c1.9805-1.5,4.7998-1.1006,6.2998,0.8896l0,0c1.4902,1.9795,1.1006,4.7998-0.8896,6.2998l0,0
		c-0.8096,0.6104-1.7598,0.9004-2.7002,0.9004l0,0C373.2701,421.6051,371.9205,420.985,371.0406,419.8151z M112.0606,420.2448
		c-1.9805-1.5-2.3701-4.3203-0.8701-6.2998l0,0c1.5-1.9805,4.3301-2.3701,6.3101-0.8701l0,0c1.98,1.5,2.3599,4.3301,0.8599,6.3096
		l0,0c-0.8799,1.1602-2.23,1.7803-3.5898,1.7803l0,0C113.8301,421.1647,112.8702,420.8649,112.0606,420.2448z M386.65,407.4352
		c-1.6797-1.8408-1.54-4.6904,0.3008-6.3604l0,0c1.8398-1.6699,4.6895-1.5303,6.3594,0.2998l0,0
		c1.6699,1.8398,1.5303,4.6904-0.3096,6.3604l0,0c-0.8604,0.7803-1.9404,1.1699-3.0205,1.1699l0,0
		C388.7505,408.9049,387.5308,408.4049,386.65,407.4352z M96.4405,407.2252c-1.8301-1.6709-1.96-4.5205-0.2803-6.3506l0,0
		c1.6802-1.8398,4.52-1.96,6.3604-0.29l0,0c1.8296,1.6807,1.96,4.5303,0.2798,6.3604l0,0c-0.8901,0.9697-2.1001,1.46-3.3198,1.46
		l0,0C98.3902,408.4049,97.3106,408.0153,96.4405,407.2252z M401.0504,393.6647c-1.8301-1.6797-1.96-4.5195-0.2803-6.3604l0,0
		c1.6807-1.8291,4.5303-1.9492,6.3604-0.2695l0,0c1.8301,1.6699,1.9502,4.5195,0.2803,6.3496l0,0
		c-0.8906,0.9707-2.1104,1.46-3.3203,1.46l0,0C403.0005,394.8444,401.9107,394.4547,401.0504,393.6647z M82.0904,392.8346
		L82.0904,392.8346c-1.6802-1.8398-1.54-4.6895,0.2998-6.3594l0,0c1.8403-1.6709,4.6802-1.54,6.3501,0.2998l0,0
		c1.6802,1.8398,1.54,4.6895-0.2998,6.3594l0,0c-0.8604,0.7803-1.9399,1.1699-3.02,1.1699l0,0
		C84.1905,394.3043,82.9703,393.8043,82.0904,392.8346z M414.1304,378.6451c-1.9805-1.5107-2.3604-4.3301-0.8604-6.3105l0,0l0,0l0,0
		c1.5-1.9795,4.3301-2.3701,6.2998-0.8594l0,0c1.9805,1.5,2.3701,4.3193,0.8701,6.2998l0,0
		c-0.8896,1.1699-2.2295,1.7793-3.5898,1.7793l0,0C415.9,379.5543,414.94,379.2545,414.1304,378.6451z M69.1104,377.1744
		c-1.5-1.9795-1.1001-4.7998,0.8799-6.2998l0,0c1.9902-1.5,4.8101-1.0996,6.3003,0.8799l0,0c1.5,1.9902,1.0996,4.8105-0.8804,6.3105
		l0,0c-0.8101,0.6094-1.7598,0.8994-2.6997,0.8994l0,0C71.3404,378.9645,69.9903,378.3551,69.1104,377.1744z M425.7808,362.4752
		c-2.1201-1.3105-2.7607-4.0908-1.4404-6.2002l0,0l0,0l0,0c1.3096-2.1006,4.0898-2.75,6.2002-1.4404l0,0
		c2.0996,1.3203,2.75,4.0898,1.4395,6.2002l-0.0098,0.0098c-0.8496,1.3604-2.3203,2.1104-3.8203,2.1104l0,0
		C427.3404,363.1549,426.5201,362.9352,425.7808,362.4752z M57.6304,360.3951c-1.3101-2.1104-0.6602-4.8906,1.46-6.1904l0,0
		c2.1099-1.3096,4.8799-0.6602,6.1899,1.46l0,0l0,0l0,0c1.3101,2.1104,0.6499,4.8799-1.46,6.1904l0,0
		c-0.7402,0.46-1.5498,0.6797-2.3599,0.6797l0,0C59.9503,362.5348,58.4805,361.775,57.6304,360.3951z M435.8804,345.3151
		c-2.2197-1.1201-3.1201-3.8203-2-6.04l0,0c1.1104-2.2305,3.8096-3.1201,6.0303-2.0098l0,0
		c2.2295,1.1191,3.1201,3.8193,2.0098,6.0391l0,0c-0.79,1.5801-2.3799,2.4902-4.0303,2.4902l0,0
		C437.2203,345.7946,436.5308,345.6344,435.8804,345.3151z M47.7403,342.6246c-1.1099-2.2197-0.1997-4.9199,2.02-6.0303l0,0
		c2.23-1.1094,4.9302-0.1992,6.04,2.0303l0,0c1.1099,2.2197,0.2002,4.9199-2.0298,6.0303l0,0c-0.6401,0.3203-1.3203,0.4697-2,0.4697
		l0,0C50.1202,345.1246,48.5303,344.2047,47.7403,342.6246z M444.3502,327.2848c-2.3096-0.9004-3.46-3.5098-2.5498-5.8301l0,0
		c0.9004-2.3096,3.5098-3.46,5.8301-2.5498l0,0c2.3096,0.8994,3.46,3.5098,2.5498,5.8301l0,0
		c-0.6895,1.7695-2.3896,2.8594-4.1895,2.8594l0,0C445.44,327.5944,444.8902,327.4948,444.3502,327.2848z M39.5406,324.0153
		L39.5406,324.0153c-0.8901-2.3203,0.2598-4.9307,2.5796-5.8203l0,0c2.3203-0.9004,4.9204,0.2598,5.8203,2.5801l0,0
		c0.8896,2.3096-0.2603,4.9199-2.5801,5.8096l0,0c-0.5303,0.21-1.0801,0.3105-1.6201,0.3105l0,0
		C41.9302,326.8951,40.2305,325.7946,39.5406,324.0153z M451.1207,308.5446c-2.3906-0.6797-3.7705-3.1699-3.0898-5.5596l0,0
		c0.6895-2.3906,3.1797-3.7705,5.5693-3.0898l0,0c2.3799,0.6895,3.7705,3.1797,3.0801,5.5693l0,0
		c-0.5596,1.9707-2.3701,3.2607-4.3203,3.2607l0,0C451.9507,308.7252,451.5308,308.6647,451.1207,308.5446z M33.1104,304.7252
		c-0.6802-2.3906,0.71-4.8809,3.1001-5.5508l0,0c2.3896-0.6797,4.8799,0.71,5.5601,3.1006l0,0l0,0l0,0
		c0.6699,2.3994-0.7202,4.8799-3.1104,5.5596l0,0c-0.4097,0.1104-0.8198,0.1699-1.2197,0.1699l0,0
		C35.4703,308.0045,33.6705,306.7047,33.1104,304.7252z M456.1099,289.2653c-2.4395-0.4609-4.0498-2.8105-3.5898-5.25l0,0
		c0.46-2.4404,2.8105-4.0508,5.25-3.5908l0,0c2.4502,0.46,4.0498,2.8105,3.6006,5.25l0,0
		c-0.4102,2.1602-2.3008,3.6699-4.4199,3.6699l0,0C456.6705,289.3444,456.3902,289.3248,456.1099,289.2653z M28.4903,284.9244
		c-0.4497-2.4492,1.1699-4.79,3.6099-5.2393l0,0c2.4502-0.46,4.79,1.1592,5.2402,3.5996l0,0
		c0.4502,2.4502-1.1602,4.7998-3.6099,5.25l0,0c-0.27,0.0498-0.5503,0.0703-0.8203,0.0703l0,0
		C30.7803,288.6051,28.8902,287.0846,28.4903,284.9244z M459.2906,269.6051c-2.4707-0.2305-4.29-2.4199-4.0605-4.9004l0,0l0,0l0,0
		c0.2402-2.4697,2.4307-4.29,4.9102-4.0596l0,0c2.4697,0.2295,4.29,2.4297,4.0498,4.8994l0,0
		c-0.21,2.3398-2.1797,4.0801-4.4697,4.0801l0,0C459.5806,269.6246,459.44,269.6246,459.2906,269.6051z M25.7305,264.7848
		L25.7305,264.7848c-0.2202-2.4805,1.6099-4.6699,4.0801-4.8896l0,0c2.48-0.2207,4.6597,1.5996,4.8896,4.0801l0,0
		c0.2202,2.4697-1.6001,4.6592-4.0801,4.8799l0,0c-0.1396,0.0195-0.27,0.0195-0.4097,0.0195l0,0
		C27.9102,268.8746,25.9503,267.1149,25.7305,264.7848z M460.65,249.735c-2.4795-0.0098-4.4893-2.0205-4.4795-4.5103l0,0
		c0-0.0801,0-0.1602,0-0.2397l0,0c0-0.0801,0-0.1704,0-0.25l0,0l0,0l0,0c0-2.48,2.0098-4.5,4.5-4.5l0,0c2.4795,0,4.5,2.02,4.5,4.5
		l0,0c0,0.0898-0.0098,0.1797-0.0098,0.27l0,0c0,0.0796,0.0098,0.1597,0.0098,0.2397l0,0c-0.0098,2.4805-2.0205,4.4902-4.5,4.4902
		l0,0C460.6607,249.735,460.6607,249.735,460.65,249.735z M29.3301,248.985c-2.4897,0-4.5-2.0205-4.5-4.5103l0,0
		c0.0103-2.48,2.02-4.4897,4.5103-4.4897l0,0c2.48,0,4.5,2.02,4.4897,4.5098l0,0C33.8301,246.9752,31.8204,248.985,29.3301,248.985
		L29.3301,248.985L29.3301,248.985z M455.2808,225.255L455.2808,225.255L455.2808,225.255c-0.2305-2.48,1.5996-4.6704,4.0693-4.8901
		l0,0c2.4805-0.23,4.6699,1.5898,4.8906,4.0698l0,0c0.2295,2.4702-1.5908,4.6602-4.0703,4.8901l0,0
		c-0.1396,0.0098-0.2803,0.02-0.4102,0.02l0,0C457.4605,229.3448,455.4908,227.5846,455.2808,225.255z M29.8502,229.0748
		c-2.48-0.23-4.2998-2.4199-4.0698-4.8999l0,0c0.23-2.4702,2.4199-4.29,4.8999-4.0601l0,0c2.4702,0.23,4.29,2.4199,4.0601,4.8901
		l0,0l0,0l0,0c-0.21,2.3398-2.1699,4.0898-4.4697,4.0898l0,0C30.1304,229.0948,29.9903,229.0846,29.8502,229.0748z
		 M452.6099,205.9347L452.6099,205.9347L452.6099,205.9347c-0.4492-2.4399,1.1602-4.79,3.6006-5.2397l0,0
		c2.4502-0.46,4.7998,1.1597,5.25,3.6001l0,0c0.4502,2.4399-1.1602,4.7896-3.6006,5.25l0,0
		c-0.2793,0.0498-0.5498,0.0698-0.8291,0.0698l0,0C454.9,209.6149,453.0103,208.1046,452.6099,205.9347z M32.1802,209.295
		c-2.4399-0.4604-4.0498-2.8101-3.5898-5.25l0,0c0.4502-2.4404,2.7998-4.0601,5.25-3.6001l0,0
		c2.4399,0.46,4.0498,2.8101,3.5898,5.25l0,0c-0.3999,2.1597-2.29,3.6699-4.4199,3.6699l0,0
		C32.7403,209.3649,32.4605,209.3448,32.1802,209.295z M448.1705,186.9547c-0.6797-2.3901,0.71-4.8799,3.0996-5.5601l0,0
		c2.3906-0.6699,4.8799,0.71,5.5498,3.1104l0,0c0.6807,2.3799-0.71,4.8696-3.0996,5.5498l0,0
		c-0.4102,0.1201-0.8203,0.1699-1.2295,0.1699l0,0C450.5308,190.2247,448.73,188.9347,448.1705,186.9547z M36.3404,189.8146
		c-2.3901-0.6797-3.7798-3.1699-3.0898-5.5596l0,0c0.6797-2.3901,3.1699-3.7803,5.5601-3.1001l0,0
		c2.3896,0.6797,3.7695,3.1699,3.0898,5.5601l0,0c-0.5601,1.98-2.3701,3.27-4.3301,3.27l0,0
		C37.1705,189.985,36.7505,189.9347,36.3404,189.8146z M441.98,168.465L441.98,168.465L441.98,168.465
		c-0.8994-2.3101,0.25-4.9199,2.5703-5.8203l0,0c2.3096-0.8999,4.9199,0.25,5.8203,2.5703l0,0
		c0.8994,2.3198-0.2607,4.9297-2.5703,5.8198l0,0c-0.54,0.21-1.0898,0.3101-1.6299,0.3101l0,0
		C444.3707,171.3448,442.6607,170.255,441.98,168.465z M42.2906,170.8048c-2.3203-0.8999-3.4702-3.5098-2.5601-5.8301l0,0
		c0.8999-2.3101,3.5-3.46,5.8198-2.5601l0,0c2.3198,0.8999,3.46,3.5103,2.5601,5.8203l0,0
		c-0.6899,1.7798-2.3901,2.8696-4.1899,2.8696l0,0C43.3804,171.1046,42.8204,171.0148,42.2906,170.8048z M434.0904,150.6349
		c-1.1104-2.23-0.2002-4.9302,2.0195-6.04l0,0c2.2207-1.1099,4.9307-0.2002,6.04,2.02l0,0c1.1006,2.2197,0.2002,4.9199-2.0195,6.04
		l0,0c-0.6504,0.3198-1.3301,0.4697-2.0098,0.4697l0,0C436.4703,153.1246,434.8804,152.215,434.0904,150.6349z M49.9805,152.4249
		c-2.23-1.1104-3.1304-3.8101-2.02-6.0303l0,0c1.1196-2.23,3.8198-3.1299,6.04-2.02l0,0c2.23,1.1104,3.1299,3.8203,2.02,6.04l0,0
		c-0.79,1.5801-2.3804,2.4902-4.0303,2.4902l0,0C51.3106,152.9049,50.6202,152.755,49.9805,152.4249z M424.5904,133.5948
		L424.5904,133.5948L424.5904,133.5948c-1.3096-2.1099-0.6602-4.8799,1.4502-6.1899l0,0c2.1094-1.3101,4.8896-0.6602,6.2002,1.4497
		l0,0c1.3096,2.1104,0.6592,4.8901-1.4502,6.2002l0,0c-0.7402,0.4502-1.5605,0.6699-2.3701,0.6699l0,0
		C426.9107,135.7247,425.44,134.9747,424.5904,133.5948z M59.3404,134.8448c-2.1201-1.3101-2.7603-4.0898-1.4502-6.2002l0,0
		c1.3101-2.1099,4.0903-2.75,6.2002-1.4399l0,0c2.1099,1.3101,2.7598,4.0801,1.4399,6.2002l0,0
		c-0.8501,1.3701-2.3198,2.1201-3.8198,2.1201l0,0C60.9004,135.525,60.0801,135.3048,59.3404,134.8448z M413.5601,117.5148
		c-1.5-1.98-1.1094-4.8101,0.8701-6.2998l0,0c1.9805-1.5,4.8105-1.1104,6.2998,0.8696h0.0107
		c1.4893,1.98,1.0996,4.8101-0.8809,6.3003l0,0c-0.8096,0.6201-1.7695,0.9199-2.71,0.9199l0,0
		C415.7906,119.3048,414.44,118.6847,413.5601,117.5148z M70.2803,118.1949c-1.98-1.5-2.3701-4.3203-0.8701-6.3003l0,0
		c1.5-1.98,4.3203-2.3696,6.3003-0.8696l0,0c1.98,1.5,2.3696,4.3198,0.8696,6.3096l0,0c-0.8799,1.1602-2.23,1.7803-3.5898,1.7803
		l0,0C72.0406,119.1149,71.0904,118.8146,70.2803,118.1949z M401.0904,102.5148c-1.6797-1.8398-1.54-4.6899,0.29-6.3599l0,0
		c1.8398-1.6802,4.6895-1.54,6.3604,0.29l0,0c1.6797,1.8398,1.54,4.6899-0.29,6.3599l0,0c-0.8701,0.79-1.9502,1.1699-3.0303,1.1699
		l0,0C403.19,103.9747,401.98,103.485,401.0904,102.5148z M82.7105,102.6246c-1.8403-1.6699-1.9702-4.52-0.29-6.3496l0,0
		c1.6699-1.8403,4.52-1.9702,6.3599-0.29l0,0c1.8301,1.6797,1.96,4.52,0.2803,6.3599l0,0c-0.8804,0.9697-2.1001,1.46-3.3203,1.46
		l0,0C84.6602,103.8048,83.5704,103.4147,82.7105,102.6246z M387.3004,88.715c-1.8301-1.6699-1.96-4.52-0.29-6.3604l0,0
		c1.6797-1.8296,4.5205-1.96,6.3604-0.29l0,0c1.8301,1.6802,1.9697,4.5303,0.29,6.3604l0,0
		c-0.8906,0.9697-2.1104,1.4697-3.3301,1.4697l0,0C389.2505,89.8946,388.1607,89.505,387.3004,88.715z M96.5103,88.2648
		c-1.6699-1.8398-1.54-4.6899,0.3003-6.3599l0,0c1.8398-1.6699,4.6797-1.54,6.3599,0.2998l0,0
		c1.6699,1.8403,1.5298,4.6802-0.3003,6.3599l0,0c-0.8696,0.7803-1.9497,1.1704-3.0298,1.1704l0,0
		C98.6202,89.735,97.4005,89.235,96.5103,88.2648z M372.3101,76.2447c-1.9902-1.5-2.3799-4.3198-0.8799-6.2998l0,0
		c1.5-1.9902,4.3301-2.3804,6.3105-0.8804l0,0c1.9795,1.5,2.3691,4.3203,0.8691,6.3101l0,0
		c-0.8799,1.1704-2.2295,1.7803-3.5898,1.7803l0,0C374.0699,77.1549,373.1207,76.8546,372.3101,76.2447z M111.5704,75.2247
		c-1.4902-1.98-1.1001-4.8101,0.8799-6.2998h0.0103c1.98-1.5,4.7998-1.1104,6.2998,0.8799l0,0
		c1.4902,1.98,1.1001,4.7998-0.8799,6.2998l0,0c-0.8101,0.6104-1.77,0.9102-2.71,0.9102l0,0
		C113.8106,77.0148,112.4605,76.3946,111.5704,75.2247z M356.23,65.2047c-2.1094-1.3101-2.7598-4.0898-1.4492-6.1997l0,0
		c1.3096-2.1104,4.0898-2.7603,6.1992-1.4502l0,0c2.1104,1.3101,2.7607,4.0898,1.4502,6.2002l0,0
		c-0.8496,1.3696-2.3301,2.1299-3.8301,2.1299l0,0C357.7906,65.8849,356.9703,65.6647,356.23,65.2047z M127.7706,63.6246
		c-1.3101-2.1099-0.6504-4.8896,1.46-6.1997l0,0c2.1099-1.3101,4.8896-0.6499,6.1899,1.46l0,0
		c1.3101,2.1099,0.6597,4.8901-1.4502,6.1997l0,0c-0.7397,0.4502-1.5601,0.6704-2.3701,0.6704l0,0
		C130.1002,65.755,128.6202,64.9947,127.7706,63.6246z M339.2105,55.6949L339.2105,55.6949L339.2105,55.6949
		c-2.2305-1.1104-3.1299-3.8101-2.0205-6.04l0,0c1.1104-2.2202,3.8105-3.1201,6.04-2.0103l0,0
		c2.2207,1.1104,3.1299,3.8101,2.0205,6.0303l0,0c-0.79,1.5801-2.3799,2.5-4.04,2.5l0,0
		C340.5406,56.1749,339.8502,56.0148,339.2105,55.6949z M144.9703,53.5646c-1.1099-2.2197-0.1997-4.9297,2.02-6.0298l0,0
		c2.23-1.1099,4.9302-0.21,6.04,2.02l0,0c1.1099,2.2202,0.2002,4.9302-2.0298,6.0298l0,0c-0.6401,0.3203-1.3203,0.48-2,0.48l0,0
		C147.3502,56.0646,145.7603,55.1446,144.9703,53.5646z M321.3804,47.8048c-2.3203-0.8999-3.46-3.5098-2.5703-5.8198l0,0
		c0.9004-2.3203,3.5098-3.4702,5.8301-2.5703l0,0c2.3105,0.8999,3.46,3.5103,2.5605,5.8203l0,0
		c-0.6904,1.7798-2.3906,2.8799-4.1904,2.8799l0,0C322.4703,48.1149,321.9205,48.0148,321.3804,47.8048z M163.0303,45.1446
		c-0.8999-2.3198,0.25-4.9297,2.5698-5.8198l0,0c2.3203-0.8999,4.9204,0.25,5.8203,2.5698l0,0
		c0.8999,2.3203-0.25,4.9199-2.5703,5.8203l0,0l0,0l0,0c-0.5396,0.21-1.0796,0.2998-1.6196,0.2998l0,0
		C165.4205,48.0148,163.7203,46.9249,163.0303,45.1446z M302.9,41.6046c-2.3896-0.6797-3.7793-3.1699-3.0996-5.5596l0,0
		c0.6797-2.3901,3.1699-3.7803,5.5596-3.1001l0,0c2.3906,0.6797,3.7803,3.1699,3.1006,5.5601l0,0
		c-0.5703,1.98-2.3701,3.27-4.3301,3.27l0,0C303.7203,41.775,303.3101,41.715,302.9,41.6046z M181.7803,38.4347
		c-0.6699-2.3896,0.7202-4.8799,3.1099-5.5601l0,0c2.3901-0.6797,4.8804,0.71,5.5503,3.1001l0,0
		c0.6797,2.3999-0.71,4.8901-3.1001,5.5601l0,0c-0.4102,0.1201-0.8198,0.1699-1.23,0.1699l0,0
		C184.1505,41.7047,182.3404,40.4147,181.7803,38.4347z M283.9205,37.1446c-2.4404-0.4497-4.0605-2.7998-3.6006-5.25l0,0
		c0.4502-2.4399,2.8008-4.0498,5.25-3.5996l0,0c2.4404,0.46,4.0508,2.8096,3.6006,5.25l0,0
		c-0.4102,2.1699-2.2998,3.6797-4.4297,3.6797l0,0C284.4703,37.2247,284.19,37.1949,283.9205,37.1446z M201.0801,33.4947
		c-0.4497-2.4399,1.1602-4.79,3.6104-5.2397l0,0c2.4399-0.46,4.79,1.1597,5.2397,3.5996l0,0c0.4502,2.4502-1.1597,4.79-3.6099,5.25
		l0,0c-0.27,0.0503-0.5498,0.0703-0.8198,0.0703l0,0C203.3702,37.1749,201.4805,35.6647,201.0801,33.4947z M264.6099,34.465
		c0,0,0,0-0.0098,0l0,0c-2.4697-0.23-4.29-2.4199-4.0596-4.8901l0,0c0.2197-2.48,2.4199-4.2998,4.8896-4.0698l0,0
		c2.4697,0.23,4.2998,2.4199,4.0703,4.8896l0,0c-0.2197,2.3403-2.1807,4.0903-4.4805,4.0903l0,0
		C264.8902,34.485,264.7505,34.4747,264.6099,34.465z M220.7505,30.3649c-0.2202-2.4702,1.5996-4.6602,4.0796-4.8799l0,0
		c2.4702-0.23,4.6602,1.5898,4.8804,4.0698l0,0c0.23,2.4702-1.6001,4.6602-4.0703,4.8901l0,0c-0.1396,0.0098-0.27,0.02-0.4097,0.02
		l0,0C222.9302,34.465,220.9605,32.7047,220.7505,30.3649z M240.6202,29.0646c0.0103-2.48,2.02-4.5,4.5103-4.5l0,0
		c2.4795,0,4.4902,2.02,4.4902,4.5103l0,0c0,2.48-2.0107,4.4897-4.5005,4.4897l0,0
		C242.6402,33.5646,240.6202,31.5548,240.6202,29.0646z"/>
</g>
<g id="change4">
	<polygon fill="#F8E8B5" points="245.0005,145.8661 296.1788,53.735 294.435,159.112 384.8222,104.9133 330.6235,195.3005 
		436.0005,193.5567 343.8694,244.735 436.0005,295.9133 330.6235,294.1694 384.8222,384.5567 294.435,330.3579 296.1788,435.735 
		245.0005,343.6039 193.8223,435.735 195.5661,330.3579 105.1788,384.5567 159.3776,294.1694 54.0005,295.9133 146.1317,244.735 
		54.0005,193.5567 159.3776,195.3005 105.1788,104.9133 195.5661,159.112 193.8223,53.735 	"/>
</g>
</svg>
