<?xml version="1.0" encoding="utf-8"?>
<!-- Generator: Adobe Illustrator 18.1.1, SVG Export Plug-In . SVG Version: 6.00 Build 0)  -->
<!DOCTYPE svg PUBLIC "-//W3C//DTD SVG 1.1//EN" "http://www.w3.org/Graphics/SVG/1.1/DTD/svg11.dtd">
<svg version="1.1" id="Layer_1" xmlns="http://www.w3.org/2000/svg" xmlns:xlink="http://www.w3.org/1999/xlink" x="0px" y="0px"
	 viewBox="0 0 467 467" enable-background="new 0 0 467 467" xml:space="preserve">
<g id="Layer_X">
	<g id="change1_1_">
		<g id="E_1_">
			<path fill="#37C1F7" d="M444,236h-1c-1.657,0-3-1.343-3-3s1.343-3,3-3h1c1.657,0,3,1.343,3,3S445.657,236,444,236z"/>
			<path fill="#37C1F7" d="M423,236h-1c-1.657,0-3-1.343-3-3s1.343-3,3-3h1c1.657,0,3,1.343,3,3S424.657,236,423,236z"/>
			<path fill="#37C1F7" d="M402,236h-1c-1.657,0-3-1.343-3-3s1.343-3,3-3h1c1.657,0,3,1.343,3,3S403.657,236,402,236z"/>
			<path fill="#37C1F7" d="M381,236h-1c-1.657,0-3-1.343-3-3s1.343-3,3-3h1c1.657,0,3,1.343,3,3S382.657,236,381,236z"/>
			<path fill="#37C1F7" d="M360,236h-1c-1.657,0-3-1.343-3-3s1.343-3,3-3h1c1.657,0,3,1.343,3,3S361.657,236,360,236z"/>
			<path fill="#37C1F7" d="M339,236h-1c-1.657,0-3-1.343-3-3s1.343-3,3-3h1c1.657,0,3,1.343,3,3S340.657,236,339,236z"/>
			<polygon fill="#37C1F7" points="467,0 320,0 320,6 461,6 461,461 320,461 320,467 467,467 			"/>
		</g>
		<g id="C_REPEAT_1_">
			<path fill="#37C1F7" d="M318,236h-1c-1.657,0-3-1.343-3-3s1.343-3,3-3h1c1.657,0,3,1.343,3,3S319.657,236,318,236z"/>
			<path fill="#37C1F7" d="M297,236h-1c-1.657,0-3-1.343-3-3s1.343-3,3-3h1c1.657,0,3,1.343,3,3S298.657,236,297,236z"/>
			<path fill="#37C1F7" d="M276,236h-1c-1.657,0-3-1.343-3-3s1.343-3,3-3h1c1.657,0,3,1.343,3,3S277.657,236,276,236z"/>
			<path fill="#37C1F7" d="M255,236h-1c-1.657,0-3-1.343-3-3s1.343-3,3-3h1c1.657,0,3,1.343,3,3S256.657,236,255,236z"/>
			<path fill="#37C1F7" d="M234,236h-1c-1.657,0-3-1.343-3-3s1.343-3,3-3h1c1.657,0,3,1.343,3,3S235.657,236,234,236z"/>
			<path fill="#37C1F7" d="M213,236h-1c-1.657,0-3-1.343-3-3s1.343-3,3-3h1c1.657,0,3,1.343,3,3S214.657,236,213,236z"/>
			<path fill="#37C1F7" d="M192,236h-1c-1.657,0-3-1.343-3-3s1.343-3,3-3h1c1.657,0,3,1.343,3,3S193.657,236,192,236z"/>
			<path fill="#37C1F7" d="M171,236h-1c-1.657,0-3-1.343-3-3s1.343-3,3-3h1c1.657,0,3,1.343,3,3S172.657,236,171,236z"/>
			<rect x="154" fill="#37C1F7" width="166" height="6"/>
			<rect x="154" y="461" fill="#37C1F7" width="166" height="6"/>
		</g>
		<g id="W_1_">
			<path fill="#37C1F7" d="M150,236h-1c-1.657,0-3-1.343-3-3s1.343-3,3-3h1c1.657,0,3,1.343,3,3S151.657,236,150,236z"/>
			<path fill="#37C1F7" d="M129,236h-1c-1.657,0-3-1.343-3-3s1.343-3,3-3h1c1.657,0,3,1.343,3,3S130.657,236,129,236z"/>
			<path fill="#37C1F7" d="M108,236h-1c-1.657,0-3-1.343-3-3s1.343-3,3-3h1c1.657,0,3,1.343,3,3S109.657,236,108,236z"/>
			<path fill="#37C1F7" d="M87,236h-1c-1.657,0-3-1.343-3-3s1.343-3,3-3h1c1.657,0,3,1.343,3,3S88.657,236,87,236z"/>
			<path fill="#37C1F7" d="M66,236h-1c-1.657,0-3-1.343-3-3s1.343-3,3-3h1c1.657,0,3,1.343,3,3S67.657,236,66,236z"/>
			<path fill="#37C1F7" d="M45,236h-1c-1.657,0-3-1.343-3-3s1.343-3,3-3h1c1.657,0,3,1.343,3,3S46.657,236,45,236z"/>
			<path fill="#37C1F7" d="M24,236h-1c-1.657,0-3-1.343-3-3s1.343-3,3-3h1c1.657,0,3,1.343,3,3S25.657,236,24,236z"/>
			<polygon fill="#37C1F7" points="6,461 6,6 154,6 154,0 0,0 0,467 154,467 154,461 			"/>
		</g>
	</g>
</g>
</svg>
