<?xml version="1.0" encoding="utf-8"?>
<!-- Generator: Adobe Illustrator 21.0.0, SVG Export Plug-In . SVG Version: 6.00 Build 0)  -->
<svg version="1.1" id="circle-border" xmlns="http://www.w3.org/2000/svg" xmlns:xlink="http://www.w3.org/1999/xlink" x="0px"
	 y="0px" viewBox="0 0 1032.4756 1032.541" enable-background="new 0 0 1032.4756 1032.541" xml:space="preserve">
<g id="change1"><path fill="#b7204b" d="M516.2051,1032.541C231.6065,1032.541,0,800.9668,0,516.3037C0,231.6348,231.6065,0,516.2051,0
	c284.7275,0,516.2705,231.6348,516.2705,516.3037C1032.4756,800.9668,800.9326,1032.541,516.2051,1032.541z M516.2051,4.8564
	C234.252,4.8564,4.7998,234.2793,4.7998,516.3037c0,281.959,229.4522,511.4111,511.4053,511.4111
	c282.0303,0,511.4824-229.4521,511.4824-511.4111C1027.6875,234.2793,798.2354,4.8564,516.2051,4.8564z M516.211,935.793
	c-231.2647,0-419.4688-188.1779-419.4688-419.4956c0-231.3228,188.2041-419.5494,419.4688-419.5494
	c231.3701,0,419.5224,188.2266,419.5224,419.5494C935.7334,747.6152,747.5811,935.793,516.211,935.793z M516.211,100.6943
	c-229.1153,0-415.5684,186.4297-415.5684,415.6031c0,229.1206,186.4531,415.5737,415.5684,415.5737
	c229.1787,0,415.6318-186.4531,415.6318-415.5737C931.8428,287.124,745.3897,100.6943,516.211,100.6943z M1018.2949,475.7402
	c-2.7793-11.5175-9.2373-24.1059-19.2587-30.1264c1.6982-3.9117,1.9804-8.7154,2.2207-12.355
	c0.8281-15.7295-8.5899-29.9951-18.8418-40.4502c-4.6407-4.8027-9.793-9.0176-15.0899-12.9356
	c-2.9014-3.1669-7.4805-6.5209-7.331-10.9003c0.0693-2.3536,1.6416-5.3482,4.3838-4.8799c2.3369,0.3916,3.6689,4.7329,0.7158,3.9843
	c0.6093,2.0484,4.3437,1.4053,5.6318,0.3077c1.541-1.2793,1.6484-4.1436,1.2266-5.8194c-1.0928-4.2695-5.6006-5.5322-9.4785-4.9013
	c-4.3008,0.6992-7.8536,4.9365-7.2149,9.2861c0.5078,3.416,2.1094,5.3496,4.0518,7.2993c-2.8028-1.875-5.5235-3.7339-8.333-5.5376
	c-12.5469-8.2656-25.4815-15.4883-31.6075-28.8291c-5.2353-11.3442-4.5058-24.1011,8.211-31.4482
	c6.0722-3.4727,13.5195-3.6685,18.9687,1.0976c2.4864,2.168,3.7315,5.1836,4.3506,8.3272
	c0.7842,3.8994-3.8105,10.7314-8.2002,7.2539c-2.707-2.0488-5.7148,2.2178-3.123,4.2812c3.375,2.6719,8.289,1.565,11.8935-0.2817
	c4.7315-2.4058,5.3448-8.9727,4.378-13.6753c-2.4053-12.7744-16.4317-17.21-27.0997-13.2002
	c-11.205,4.166-18.6367,14.7065-17.7695,25.8877c1.001,13.8716,8.6748,24.7812,19.751,33.252
	c16.665,12.5,42.918,24.5761,56.6601,44.8515c-1.3808-1.1118-2.8271-2.1977-4.3945-2.9814
	c-4.2588-2.1514-12.125-1.5176-14.4639,3.1582c-2.4082,4.9692-0.6709,13.1328,5.0411,15.0996
	c2.4843,0.8354,6.5039,0.4023,8.5771-1.2544c1.6367-1.2984,3.1895-5.9004,0.3203-6.6294c0.6084,2.7959-3.8398,1.312-4.0732-1.1895
	c-0.2735-2.9658,2.5556-4.1318,4.8642-4.165c4.084-0.0293,6.461,2.8877,8.625,5.9678c2.8545,6.2256,4.3643,13.0517,3.9571,20.4385
	c-0.1778,2.8378-0.6319,5.9619-1.8252,8.6118c-3.2412-0.9541-6.4864-0.9473-9.9414,0.2407
	c-4.2422,1.4824-5.4053,5.7285-2.2246,8.666c3.5273,3.2617,9.9687,0.8809,13.2226-1.3213c0.4209-0.2861,0.7715-0.6538,1.1426-1.0068
	c4.9658,2.9604,8.8496,8.8515,11.5625,13.3403c8.9072,14.4185,9.9482,40.4136-8.6191,46.6577
	c-8.587,2.9385-17.8907-1.0229-21.4678-9.0639c-1.8975-4.2662-1.8848-9.5542,0.8818-13.4663
	c1.4629-2.0367,4.0313-3.0967,6.4278-3.5518c2.457-0.502,9.5615,3.2969,5.9414,6.0254c-2.6914,2.0166,0.0918,6.4824,2.9003,4.4599
	c3.6543-2.6084,3.3467-7.4379,1.6211-11.2148c-2.1015-4.6338-8.8642-5.5029-13.1513-4.0469
	c-12.2764,4.1934-13.2774,16.8804-8.044,26.7491c5.2539,10.0146,20.126,12.9394,29.9141,7.9335
	C1017.1572,507.1567,1021.7988,489.9463,1018.2949,475.7402z M782.583,137.147c-8.0127,8.8989-9.6924,21.6499-3.7558,31.186
	c7.3232,11.8296,19.1972,17.9434,32.9492,20.3066c20.5762,3.3477,49.4277,1.837,71.037,13.3565
	c-1.7411-0.3389-3.5293-0.6235-5.2812-0.5859c-4.7744,0.0839-11.4433,4.31-11.33,9.5322
	c0.1914,5.5122,5.5156,11.9458,11.5058,11.0058c2.5655-0.4013,5.9131-2.6523,6.9961-5.1015
	c0.8623-1.9278,0.0684-6.7022-2.8086-6.0117c1.8477,2.185-2.7851,2.9492-4.1621,0.8496c-1.6387-2.4834,0.3545-4.8623,2.3682-5.9561
	c3.5791-1.9101,7.0654-0.458,10.416,1.2559c5.3809,4.2124,9.9717,9.4848,13.0186,16.2373c1.1718,2.5879,2.2607,5.5371,2.3837,8.4795
	c-3.2939,0.6552-6.1503,2.167-8.663,4.8369c-3.1036,3.3218-2.0997,7.582,2.0908,8.6929c4.6435,1.2368,9.2344-3.8765,11.0801-7.3389
	c0.2382-0.4487,0.3759-0.937,0.5371-1.4209c5.749,0.3169,11.9394,3.7124,16.4521,6.4028
	c14.6074,8.5947,27.5781,31.1778,14.1582,45.3008c-6.206,6.5869-16.3681,7.458-23.2412,1.9912
	c-3.6416-2.9023-6.1924-7.5283-5.4795-12.3325c0.3281-2.4731,2.0986-4.6045,4.0029-6.1235c1.9307-1.585,10.0538-1.5777,8.0616,2.562
	c-1.4981,3.0732,3.1318,5.6772,4.6445,2.5947c1.9375-3.9644-0.416-8.1978-3.791-10.6821
	c-4.0801-3.083-10.3858-0.7471-13.5293,2.5595c-8.9337,9.4551-3.7959,21.0757,5.3457,27.4131
	c9.3867,6.3662,23.7558,2.124,30.1747-6.914c8.4717-11.8379,4.5605-29.2657-5.2119-40.1729
	c-7.876-8.8652-19.3574-17.0566-31.0928-17.6601c-0.3516-4.2315-2.2568-8.6739-3.7959-11.9634
	c-6.5967-14.2969-21.5664-22.523-35.5029-27.0015c-6.3496-2.0815-12.8584-3.4258-19.377-4.4238
	c-4.04-1.4551-9.6543-2.2959-11.5576-6.2442c-1.0371-2.1093-1.0303-5.4985,1.6123-6.3554c2.25-0.7373,5.4531,2.4804,2.4873,3.1928
	c1.4922,1.5303,4.499-0.7749,5.1289-2.3452c0.7696-1.8486-0.4629-4.4365-1.6191-5.7197c-2.9473-3.2734-7.5255-2.2978-10.666,0.0615
	c-3.4844,2.6158-4.6621,8.0196-2.0782,11.5777c2.0411,2.7856,4.3555,3.7563,6.9834,4.5791c-3.3545-0.357-6.6259-0.7408-9.955-1.0298
	c-14.9463-1.4995-29.7696-1.8955-41.3907-10.8838c-9.9189-7.6113-15.164-19.2891-7.3134-31.668
	c3.7832-5.9062,10.2929-9.5298,17.3173-7.8164c3.2237,0.7481,5.7149,2.8555,7.7168,5.3574
	c2.4873,3.1094,1.628,11.2373-3.9072,10.2349c-3.3398-0.5718-4.0449,4.6274-0.7715,5.2275
	c4.2256,0.8081,8.0645-2.4497,10.4024-5.7583c3.0879-4.3427,0.5644-10.413-2.4619-14.1435
	C804.6621,126.0879,790.1817,128.6509,782.583,137.147z M587.7383,88.1982c11.998,7.0069,25.3291,6.9244,38.5918,2.6031
	c19.751-6.6304,44.5898-21.3794,69.0869-21.1978c-1.6992,0.5069-3.415,1.083-4.9492,1.9287
	c-4.1895,2.2876-8.1328,9.126-5.6094,13.7017c2.7266,4.7978,10.4287,8.0141,15.2949,4.414c2.0987-1.5717,4.0127-5.102,3.836-7.7749
	c-0.1406-2.083-3.0498-5.9687-5.2793-4.0185c2.6484,1.0825-1.0996,3.9058-3.292,2.6807c-2.6006-1.4502-1.9453-4.4654-0.666-6.3765
	c2.2851-3.3565,6.0449-3.6792,9.8086-3.7114c6.7304,1.2187,13.2373,3.7822,19.0713,8.3476
	c2.2324,1.7647,4.5722,3.8613,6.0488,6.4033c-2.6133,2.1021-4.4453,4.7681-5.4337,8.2979
	c-1.2119,4.3833,1.6475,7.7017,5.8712,6.7519c4.6933-1.0634,6.3877-7.7128,6.4189-11.6367c0.003-0.5088-0.1006-1.0049-0.1806-1.5097
	c5.2646-2.4253,12.29-2.2188,17.5547-1.9561c16.9355,0.8457,38.8867,14.8565,33.5205,33.6055
	c-2.4268,8.6787-11.0713,14.2197-19.6641,12.5117c-4.6055-0.834-8.9551-3.8389-10.5811-8.3731
	c-0.8515-2.3486-0.2675-5.0595,0.7168-7.288c0.9727-2.2925,8.1778-6.0508,8.3379-1.4737c0.0938,3.4214,5.3955,3.5957,5.3125,0.1592
	c-0.1025-4.4394-4.1738-7.0586-8.3076-7.7114c-5.0371-0.854-9.543,4.1328-10.7988,8.522
	c-3.5401,12.5185,6.3857,20.4521,17.4267,21.831c11.2872,1.2705,22.0284-9.1074,23.545-20.1103
	c2-14.376-9.4971-28.0616-23.2198-33.1939c-11.0957-4.1968-25.0693-6.1406-35.748-1.2446
	c-2.2666-3.5996-6.0342-6.6153-8.9111-8.8438c-12.4795-9.6123-29.5704-9.956-43.9961-7.4492
	c-6.5909,1.0996-12.9815,2.94-19.2168,5.0845c-4.252,0.5835-9.6153,2.4595-13.1358-0.1504
	c-1.8965-1.397-3.4697-4.3911-1.5283-6.3823c1.6494-1.7041,5.9775-0.3272,3.6856,1.6753c2.0332,0.6596,3.623-2.7798,3.4501-4.4634
	c-0.1777-1.9971-2.4775-3.7017-4.0947-4.3159c-4.1347-1.521-7.7334,1.4756-9.415,5.0268c-1.8662,3.938-0.3926,9.2661,3.5508,11.2071
	c3.0976,1.5297,5.6015,1.2998,8.3095,0.8076c-3.1347,1.2422-6.2119,2.4375-9.2881,3.7168
	c-13.9296,5.6504-27.2148,12.1909-41.6777,9.667c-12.3096-2.1465-22.4023-9.9795-21.2334-24.5977
	c0.5879-6.9692,4.6563-13.2227,11.6758-15.0254c3.1865-0.7578,6.3848-0.1274,9.3242,1.1538
	c3.6563,1.5572,6.6651,9.2632,1.3154,10.8755c-3.2148,1.0225-1.4209,5.9854,1.751,5.0068c4.1172-1.2695,5.9951-5.9453,6.5205-9.9609
	c0.7051-5.2627-4.3574-9.4717-8.7724-11.3691c-11.8848-5.251-23.4932,3.7431-26.25,14.8154
	C573.584,70.4287,578.0401,82.5571,587.7383,88.1982z M381.1494,106.0288c13.8868,0.6909,25.6455-5.5986,35.3985-15.5698
	c14.4355-15.0059,29.6035-39.6602,51.3926-50.7896c-1.2706,1.23-2.5235,2.5293-3.4922,3.9849
	c-2.6514,3.9541-2.9746,11.834,1.3857,14.7383c4.6455,3.0205,12.9541,2.2109,15.6016-3.1597
	c1.1299-2.3594,1.1845-6.3989-0.211-8.6636c-1.0918-1.7856-5.4736-3.9023-6.5439-1.1484c2.8496-0.2529,0.8389,3.9727-1.6729,3.8896
	c-2.9707-0.0263-3.79-3.0024-3.5429-5.2919c0.4638-4.0684,3.6396-6.1294,6.9619-7.8589c6.5234-2.0796,13.4765-2.731,20.7558-1.4849
	c2.795,0.5317,5.8418,1.3779,8.3282,2.8906c-1.335,3.0992-1.7178,6.3155-0.9532,9.8926c0.9649,4.4248,5.0371,5.96,8.336,3.2246
	c3.6601-3.0874,2.0664-9.7768,0.2695-13.2817c-0.2334-0.4541-0.5566-0.8482-0.8623-1.2603
	c3.5313-4.5097,9.8389-7.7925,14.6143-9.8735c15.3584-7.1358,41.2988-5.0322,45.3017,14.0776
	c1.8945,8.8799-3.1465,17.6358-11.5566,20.2549c-4.4541,1.3018-9.7139,0.8106-13.2647-2.4873
	c-1.8476-1.708-2.5937-4.3936-2.7617-6.8257c-0.207-2.5044,4.4072-9.0742,6.6856-5.1377c1.6787,2.9654,6.4531,0.6031,4.7753-2.3803
	c-2.163-3.8467-6.9882-4.2144-10.9433-2.9571c-4.8555,1.6436-6.5176,8.1719-5.582,12.628
	c2.707,12.6503,15.1875,15.1562,25.6025,11.1484c10.5654-4.0518,15.2393-18.3779,11.4395-28.7481
	c-4.9296-13.7597-21.499-20.2924-36.0078-18.5156c-11.7588,1.3203-25.0088,6.336-32.1826,15.4854
	c-3.6748-2.045-8.4101-3.0093-11.9922-3.6822c-15.5029-2.7031-30.792,4.9253-42.4082,13.8467
	c-5.333,3.9937-10.1308,8.6651-14.6718,13.3941c-3.4844,2.5537-7.3819,6.6284-11.71,5.9516
	c-2.3154-0.2998-5.1084-2.2734-4.3066-4.9214c0.6748-2.2631,5.1337-3.1103,4.0371-0.247c2.1084-0.3501,1.9238-4.1328,0.9902-5.5469
	c-1.084-1.6934-3.9131-2.1484-5.624-1.9072c-4.3721,0.5551-6.1739,4.8701-6.0196,8.7939c0.1709,4.3521,3.9473,8.3994,8.3448,8.3057
	c3.4502-0.0982,5.5605-1.4722,7.7353-3.1446c-2.206,2.5303-4.375,5.0342-6.5058,7.608
	c-9.7334,11.4301-18.4746,23.3959-32.4571,27.8598c-11.8906,3.8281-24.4648,1.5469-30.2158-11.9658
	c-2.7139-6.4541-2.0029-13.8633,3.3916-18.6899c2.4463-2.2261,5.5986-3.0748,8.793-3.3101
	c3.9707-0.2915,10.1797,5.0527,6.207,9.0244c-2.3652,2.4307,1.5098,5.9497,3.8662,3.6084c3.0635-3.02,2.5615-8.0303,1.167-11.833
	c-1.8183-5.002-8.2549-6.3867-13.043-6.0049c-12.9726,0.8369-19.08,14.2188-16.3906,25.2964
	C360.3877,96.8809,369.9444,105.5186,381.1494,106.0288z M206.6631,217.958c12.625-5.8535,20.1191-16.9097,24.1152-30.2783
	c5.7852-20.0313,7.75-48.8428,21.7754-68.9253c-0.5449,1.689-1.041,3.4302-1.2148,5.1753
	c-0.4883,4.7519,2.9082,11.8804,8.1035,12.3921c5.4941,0.4702,12.5215-4.0406,12.3106-10.0972
	c-0.0909-2.5957-1.9239-6.1899-4.2247-7.5576c-1.8173-1.0996-6.6455-0.8735-6.3066,2.063c2.3896-1.5728,2.5928,3.1191,0.3438,4.2348
	c-2.6612,1.3311-4.7833-0.9336-5.627-3.0644c-1.4678-3.7832,0.3926-7.0708,2.4951-10.1943
	c4.8311-4.8326,10.6182-8.7579,17.6885-10.9717c2.708-0.8565,5.7715-1.5762,8.707-1.3457c0.253,3.3491,1.4102,6.3672,3.7578,9.1826
	c2.9239,3.4805,7.2735,2.9961,8.8809-1.0303c1.79-4.456-2.7363-9.6348-5.9512-11.8843c-0.417-0.2905-0.8847-0.4858-1.3457-0.7046
	c1.0108-5.664,5.125-11.4067,8.3438-15.5605c10.2959-13.4683,34.2939-23.6138,46.6875-8.583
	c5.7851,6.9546,5.4238,17.1611-0.8379,23.311c-3.3184,3.271-8.2227,5.2339-12.9024,3.9497
	c-2.416-0.6245-4.3173-2.6401-5.5957-4.7143c-1.3388-2.106-0.3515-10.1734,3.5176-7.6934c2.8701,1.8589,6.0156-2.4204,3.1387-4.2959
	c-3.7031-2.4048-8.1895-0.5786-11.0635,2.4722c-3.5537,3.6767-1.9971,10.2187,0.9053,13.7388
	c8.3066,10.0083,20.4609,6.3173,27.8574-1.9888c7.4512-8.5547,4.9883-23.3189-3.209-30.793
	c-10.7226-9.8379-28.5068-8.0737-40.5166,0.3194c-9.7558,6.748-19.2754,17.163-21.29,28.7392
	c-4.2422-0.1582-8.8858,1.1924-12.335,2.3296c-14.9902,4.8306-24.958,18.7065-31.0771,32.0039
	c-2.8252,6.0596-4.9493,12.3482-6.7139,18.7105c-1.9326,3.832-3.4395,9.3056-7.584,10.726
	c-2.2256,0.7686-5.5859,0.3604-6.1211-2.3676c-0.4638-2.3243,3.125-5.1055,3.4717-2.0821c1.6973-1.2988-0.2305-4.5605-1.7148-5.375
	c-1.7442-0.9878-4.4512-0.0625-5.875,0.919c-3.6016,2.5371-3.1797,7.2002-1.2139,10.6015c2.1807,3.773,7.4023,5.5884,11.2422,3.4463
	c3.0205-1.6797,4.2519-3.874,5.3847-6.3818c-0.7578,3.2851-1.5205,6.4995-2.2168,9.7573
	c-3.2685,14.6709-5.4482,29.3276-15.7626,39.7925c-8.753,8.9307-20.9659,12.7485-32.3223,3.4609
	c-5.4111-4.4658-8.2158-11.3525-5.6817-18.1294c1.129-3.1108,3.5264-5.3237,6.2452-7.0175
	c3.3779-2.1031,11.3652-0.2544,9.6904,5.1049c-0.9629,3.2515,4.1025,4.5645,5.1025,1.3975
	c1.3067-4.1006-1.4687-8.3027-4.4726-11.0205c-3.9356-3.5806-10.2744-1.8125-14.3369,0.748
	c-11.0918,6.7676-10.2813,21.4502-2.7598,30.0137C184.0225,219.5103,196.4903,222.7168,206.6631,217.958z M73.5108,405.5928
	c11.1513,4.3134,23.6982,1.3515,30.4697-7.5869c8.4521-11.0411,9.9463-24.293,7.2744-37.981
	c-4.1728-20.4077-15.8203-46.8662-12.6562-71.1489c0.2968,1.7475,0.6601,3.5195,1.3125,5.1455
	c1.7617,4.4346,8.0703,9.1767,12.9209,7.2285c5.0976-2.123,9.2138-9.3853,6.2363-14.6484c-1.3096-2.2745-4.586-4.604-7.2529-4.7481
	c-2.086-0.1123-6.2969,2.3037-4.6309,4.7525c1.3965-2.4976,3.7441,1.5639,2.2617,3.5913c-1.7578,2.4038-4.6601,1.395-6.4062-0.1084
	c-3.0664-2.6817-2.9219-6.4463-2.5-10.1866c2.0185-6.5361,5.3593-12.6777,10.5908-17.9189c2.0215-2.0029,4.3857-4.0703,7.0869-5.23
	c1.7715,2.8482,4.1973,4.9888,7.581,6.396c4.2051,1.7324,7.8438-0.706,7.4112-5.0137c-0.4903-4.7871-6.8867-7.271-10.7774-7.7758
	c-0.5048-0.065-1.0097-0.0215-1.5205-0.0025c-1.7724-5.5185-0.7207-12.4668,0.1729-17.6606
	c2.8828-16.7036,19.4228-36.8032,37.3867-29.23c8.3301,3.457,12.7832,12.6943,10.0635,21.0288
	c-1.3916,4.4629-4.8819,8.4341-9.5889,9.4946c-2.4326,0.5645-5.0537-0.3413-7.1475-1.5874
	c-2.1572-1.2402-5.0283-8.8501-0.458-8.4526c3.4073,0.3184,4.2149-4.9263,0.794-5.2559c-4.4141-0.4287-7.5098,3.293-8.6533,7.3184
	c-1.4522,4.8994,2.957,9.9727,7.1621,11.748c12.0019,5.021,21.0713-3.8828,23.7676-14.6787
	c2.624-11.0478-6.4004-22.9648-17.1358-25.7881c-14.04-3.7192-28.9922,6.0567-35.7392,19.0552
	c-5.502,10.5049-9.1133,24.1382-5.5411,35.3286c-3.8457,1.8155-7.2939,5.19-9.8535,7.7759
	c-11.0478,11.2227-13.458,28.1411-12.7158,42.7651c0.2861,6.6709,1.3545,13.2466,2.7109,19.6885
	c0.087,4.3018,1.2696,9.8408-1.747,13.0191c-1.5909,1.7231-4.7744,2.9135-6.5078,0.747c-1.4854-1.8418,0.3759-5.9829,2.0986-3.4594
	c0.9053-1.9366-2.3154-3.9322-4.0088-3.9659c-1.9971-0.0629-3.9961,2.0005-4.7705,3.544c-2.0195,3.9175,0.5137,7.8516,3.833,9.9517
	c3.6807,2.3295,9.1533,1.5166,11.5664-2.1592c1.8701-2.8999,1.9668-5.4038,1.8057-8.1524c0.8506,3.2613,1.6504,6.4556,2.5664,9.6734
	c3.8847,14.5005,8.791,28.4941,4.5224,42.5371c-3.6015,11.9614-12.6093,21.0215-27.0009,18.0864
	c-6.8487-1.4282-12.5508-6.2202-13.4659-13.4009c-0.4355-3.2754,0.6465-6.3545,2.2666-9.1186
	c2.0088-3.4361,9.9483-5.5098,10.9512,0.0117c0.6631,3.3276,5.751,2.1318,5.169-1.1343c-0.7491-4.2373-5.1602-6.668-9.083-7.6772
	c-5.1456-1.3409-9.9463,3.1704-12.3467,7.3305C55.3135,388.8965,62.8633,401.5195,73.5108,405.5928z M43.0791,525.2939
	c3.3555,5.7676,7.3858,11.0928,11.5469,16.167c2.1816,3.7627,5.6113,8.1328,4.5156,12.3409
	c-0.5752,2.2627-2.8916,4.7978-5.414,3.6826c-2.1309-0.9458-2.4854-5.4707,0.2363-4.0376c-0.1484-2.1309-3.877-2.4068-5.4111-1.6494
	c-1.834,0.8735-2.5303,3.6196-2.5372,5.3491c0.004,4.4072,4.0528,6.7187,7.9698,7.0386c4.3359,0.3569,8.8193-2.9034,9.2793-7.2828
	c0.3652-3.4414-0.8555-5.6933-2.2061-8.0586c2.2012,2.4991,4.5352,4.9463,6.7861,7.3765
	c10.2022,11.0396,20.9356,21.1846,23.7081,35.606c2.3916,12.2646-1.4512,24.4796-15.5235,28.5381
	c-6.748,1.9111-14.0361,0.3105-18.1426-5.6358c-1.9111-2.6992-2.4062-5.9233-2.2236-9.1289
	c0.2285-3.9824,6.208-9.4829,9.7207-5.0664c2.1016,2.6465,6.1231-0.7837,4.0234-3.3955c-2.6132-3.4102-7.6445-3.5205-11.5898-2.5962
	c-5.2178,1.2036-7.3164,7.4136-7.54,12.2163c-0.7412,12.9766,11.79,20.6655,23.1162,19.3418
	c11.9072-1.3516,21.5986-9.7764,23.5-20.8457c2.3701-13.7021-2.4473-26.1435-11.1797-37.0361
	c-13.0762-16.1612-35.8428-34.1885-44.2402-57.1328c1.0605,1.4077,2.1914,2.8061,3.5136,3.9404
	c3.6201,3.1025,11.4434,4.3657,14.7959,0.3828c3.6504-4.251,3.7139-12.6035-1.2529-15.8682
	c-2.1982-1.4013-6.2002-1.9355-8.6231-0.8203c-1.8964,0.8726-4.5927,4.9688-1.9355,6.3594c0.0391-2.8604,4.0352-0.3604,3.7002,2.125
	c-0.3897,2.9463-3.4541,3.4038-5.6914,2.8867c-3.9404-0.9443-5.669-4.3428-7.0078-7.8457
	c-1.2237-6.7207-1.1406-13.7041,1.0215-20.7822c0.7793-2.7188,2.0595-5.6377,3.8593-7.9268
	c2.9082,1.6934,6.0518,2.4551,9.7002,2.1211c4.5284-0.4297,6.5498-4.29,4.166-7.8965c-2.6035-3.999-9.4453-3.2143-13.1513-1.8486
	c-0.4805,0.1777-0.9131,0.4512-1.3604,0.7061c-3.9912-4.0371-6.5429-10.7012-8.042-15.6963
	c-5.2519-16.1197,0.0069-41.6367,19.4209-43.3081c9.0137-0.815,17.1875,5.269,18.7188,13.9204
	c0.7754,4.582-0.3369,9.7446-4.0781,12.8642c-1.9043,1.6309-4.6231,2.0557-7.0606,1.9292
	c-2.5156-0.0962-8.5557-5.4804-4.3262-7.2602c3.1553-1.3086,1.4092-6.3286-1.7646-5.0239c-4.0635,1.687-5.127,6.4135-4.2461,10.5107
	c1.0215,5.0151,7.2939,7.4478,11.8369,7.0552c12.9492-1.1582,16.8037-13.2622,14.166-24.0659
	c-2.8027-10.9878-16.373-17.3433-27.1709-14.8345c-14.2002,3.2417-22.8076,18.8916-22.7275,33.5381
	c-0.0352,11.8545,3.2226,25.6098,11.5605,33.834c-2.457,3.4077-4.1093,7.9868-5.0898,11.4716
	C29.8662,496.6279,35.5713,512.6992,43.0791,525.2939z M175.8262,821.3115c9.8916-6.7256,14.5801-18.7296,11.0664-29.3906
	c-4.2969-13.2354-14.3721-21.999-27.1621-27.5693c-19.1914-8.1416-47.5498-13.5616-65.8018-29.9082
	c1.6104,0.7446,3.2803,1.4482,4.9922,1.83c4.6582,1.0581,12.1446-1.4541,13.2783-6.5498c1.128-5.3965-2.498-12.917-8.538-13.4375
	c-2.587-0.2241-6.376,1.1613-8.0118,3.2798c-1.3105,1.6714-1.6689,6.4922,1.2871,6.5103c-1.2734-2.5625,3.4092-2.1973,4.2452,0.1699
	c1.0009,2.8027-1.503,4.6362-3.7207,5.2168c-3.9327,1-6.9727-1.2432-9.8194-3.709c-4.2129-5.3809-7.415-11.5986-8.7549-18.8877
	c-0.5185-2.7944-0.8711-5.9189-0.2851-8.8066c3.3545,0.1544,6.4912-0.6288,9.5693-2.6191c3.8096-2.4814,3.8574-6.8574,0.0567-8.9409
	c-4.2217-2.311-9.8926,1.5474-12.5176,4.4673c-0.3389,0.3789-0.5889,0.8193-0.8623,1.251
	c-5.5156-1.6836-10.6905-6.4756-14.4414-10.168c-12.1182-11.8584-19.2901-36.9111-2.8408-47.3926
	c7.5703-4.8882,17.7167-3.3056,23.0205,3.6675c2.8798,3.6807,4.1767,8.8032,2.3662,13.2827
	c-0.9151,2.3223-3.1475,3.9658-5.3623,4.9824c-2.2412,1.0704-10.1514-0.8823-7.2159-4.4233
	c2.1963-2.6235-1.663-6.2676-3.8769-3.6392c-2.8525,3.3887-1.5606,8.0567,1.1113,11.2823
	c3.2129,3.9765,9.8936,3.2256,13.7412,0.7705c10.9414-7.0308,8.7637-19.544,1.4131-27.8936
	c-7.6113-8.4287-22.5254-7.7871-30.9599-0.5537c-11.0342,9.439-11.4864,27.3189-4.6016,40.2598
	c5.5283,10.501,14.6973,21.2217,25.9541,24.6211c-0.6738,4.1943,0.1113,8.9653,0.8203,12.5294
	c2.9834,15.4677,15.5576,27.042,28.0205,34.7212c5.6807,3.5322,11.6611,6.4018,17.7686,8.9174
	c3.5732,2.3785,8.8193,4.5367,9.7373,8.8179c0.497,2.3008-0.3213,5.5942-3.0908,5.7949c-2.3584,0.1792-4.6885-3.7187-1.6456-3.6996
	c-1.0869-1.8398-4.5566-0.3178-5.5429,1.0567c-1.1924,1.6152-0.5899,4.4081,0.2031,5.9463
	c2.0889,3.8789,6.7695,4.0195,10.3828,2.4755c4.0078-1.7109,6.4365-6.6767,4.7686-10.7441c-1.295-3.2061-3.334-4.686-5.6866-6.1133
	l9.418,3.3745c14.1817,5.0005,28.46,8.9263,37.6143,20.4175c7.8086,9.7647,10.1484,22.3359-0.4434,32.5073
	c-5.0703,4.8262-12.2519,6.7925-18.6787,3.4663c-2.9404-1.5034-4.8633-4.1386-6.2178-7.0419
	c-1.6904-3.6006,1.125-11.3262,6.2276-9.0069c3.1181,1.3418,5.0166-3.5205,2.0049-4.9023c-3.917-1.787-8.4219,0.4648-11.4795,3.1212
	c-4.0205,3.4716-3.0372,9.9878-0.9776,14.3237C151.7481,826.7983,166.4248,827.7529,175.8262,821.3115z M357.1455,946.7515
	c5.6416-10.5601,4.2139-23.3423-3.8271-31.1734c-9.9356-9.7275-22.9131-12.8183-36.8291-11.8242
	c-20.7666,1.6641-48.4405,10.0283-72.1612,3.9634c1.7706-0.084,3.5733-0.231,5.2666-0.6836
	c4.6143-1.2144,10.0831-6.9053,8.7325-11.9551c-1.4922-5.3159-8.2051-10.2803-13.791-7.9546
	c-2.4131,1.0225-5.1172,3.9922-5.587,6.6289c-0.3623,2.0562,1.5293,6.5264,4.1612,5.167c-2.3116-1.6855,2.0039-3.5283,3.8379-1.8125
	c2.1757,2.0327,0.8203,4.7969-0.8809,6.3467c-3.0273,2.7168-6.751,2.124-10.4121,1.2549
	c-6.2383-2.7969-11.9434-6.8384-16.5117-12.668c-1.7432-2.248-3.5186-4.8354-4.3379-7.665c3.042-1.418,5.457-3.5664,7.2617-6.7583
	c2.2246-3.9658,0.2393-7.8697-4.0908-7.9556c-4.8125-0.0869-8.0459,5.9644-9.0137,9.7656c-0.125,0.4932-0.1426,1-0.1846,1.5089
	c-5.6845,1.0894-12.4638-0.7783-17.5117-2.29c-16.2285-4.8711-34.1992-23.6963-24.5361-40.6177
	c4.4453-7.8686,14.126-11.1626,22.0889-7.477c4.2509,1.9306,7.7978,5.8491,8.2724,10.663c0.2695,2.4825-0.9433,4.9751-2.4306,6.9043
	c-1.4883,1.9903-9.3965,3.9375-8.4444-0.5615c0.7237-3.3428-4.3887-4.7715-5.125-1.416c-0.9472,4.3242,2.3643,7.8545,6.2276,9.4688
	c4.6923,2.0263,10.2587-1.7432,12.5253-5.7051c6.4239-11.3125-1.333-21.3819-11.7265-25.3535
	c-10.6465-3.9361-23.5713,3.6064-27.6543,13.9209c-5.3867,13.5044,2.542,29.5048,14.6328,37.7617
	c9.7676,6.7207,22.8594,11.9492,34.4023,9.7402c1.3428,4.0322,4.2696,7.8691,6.5342,10.7153
	c9.8096,12.315,26.3096,16.7427,40.9151,17.7701c6.6562,0.52,13.3125,0.2529,19.8701-0.314
	c4.2832,0.4292,9.9219-0.0698,12.7119,3.3091c1.5234,1.7812,2.3144,5.0918-0.044,6.5488c-2.0068,1.249-5.8964-1.0923-3.1816-2.5
	c-1.8125-1.1328-4.1826,1.8223-4.4209,3.499c-0.3047,1.9745,1.5,4.2115,2.9414,5.162c3.6426,2.48,7.8535,0.4429,10.3399-2.5976
	c2.7587-3.3711,2.6142-8.9024-0.7413-11.7451c-2.6503-2.2105-5.1298-2.6006-7.875-2.778c3.3379-0.4453,6.6104-0.8608,9.9141-1.3784
	c14.8682-2.1055,29.3486-5.2622,42.7754,0.6753c11.4443,5.0122,19.332,15.083,14.6787,28.9898
	c-2.2558,6.6425-7.7031,11.7143-14.9375,11.7382c-3.3086,0.0479-6.2324-1.4033-8.7764-3.3535
	c-3.1591-2.4253-4.2744-10.5127,1.3428-10.873c3.3789-0.2432,2.8213-5.4639-0.5029-5.2574
	c-4.2949,0.2251-7.2422,4.3072-8.7207,8.0787c-1.961,4.9579,1.9443,10.2461,5.7773,13.1435
	C338.3623,962.7852,351.8076,956.8252,357.1455,946.7515z M558.1612,947.5068c-13.3262-3.999-26.2793-0.7041-38.1495,6.692
	c-17.6308,11.0453-38.2002,31.4488-62.0087,37.1245c1.5214-0.8623,3.0488-1.8452,4.3359-3.0459
	c3.5176-3.248,5.7012-10.8427,2.1474-14.6513c-3.7939-4.0513-12.0595-5.2354-15.9062-0.6211
	c-1.6543,2.0063-2.665,5.9131-1.8486,8.4599c0.6308,2.0362,4.3916,5.0967,6.0879,2.6495c-2.8331-0.3965,0.1259-4.0528,2.5507-3.4063
	c2.877,0.7578,2.9649,3.8584,2.1836,6.0151c-1.4091,3.8081-4.9824,5.0484-8.6299,6.004
	c-6.8173,0.3881-13.7548-0.4908-20.5166-3.5225c-2.5996-1.1382-5.3652-2.6538-7.4111-4.7691
	c2.0313-2.6757,3.166-5.7031,3.2754-9.3671c0.1182-4.543-3.459-7.0611-7.332-5.1094c-4.294,2.1416-4.3399,9.0185-3.4268,12.8413
	c0.1201,0.4936,0.3408,0.9497,0.541,1.4194c-4.5117,3.5625-11.4023,5.1371-16.5664,6.1118
	c-16.6426,3.2505-41.3379-5.0688-40.6338-24.5532c0.2745-9.0151,7.3311-16.456,16.087-16.8769
	c4.6611-0.2705,9.6201,1.5511,12.2773,5.5947c1.3935,2.0708,1.4795,4.8408,1.0596,7.2412
	c-0.3916,2.4551-6.4883,7.8564-7.7373,3.4287c-0.9141-3.2969-6.1045-2.1855-5.1963,1.1284
	c1.1718,4.2661,5.7451,5.8609,9.9189,5.4883c5.0986-0.3906,8.2715-6.3179,8.4346-10.8784
	c0.4209-12.9981-11.1182-18.3042-22.1641-16.9927c-11.2568,1.4732-19.1982,14.1323-18.0273,25.1743
	c1.5049,14.4532,15.9736,24.9595,30.5351,26.6382c11.7803,1.4175,25.8164-0.0639,35.001-7.393
	c3.0742,2.9189,7.4424,5.0107,10.7813,6.435c14.4277,6.3247,31.0898,2.5401,44.4843-3.3374
	c6.1397-2.7646,11.8887-5.9375,17.4317-9.5879c3.9902-1.6474,8.7392-4.5908,12.789-3.0137c2.1778,0.857,4.419,3.4751,3.0118,5.8375
	c-1.1914,1.9956-5.7246,1.7758-3.9795-0.7437c-2.1319-0.1338-2.8516,3.5918-2.2803,5.1787c0.6504,1.8955,3.292,2.958,5.0078,3.1748
	c4.375,0.585,7.1514-3.2558,7.9356-7.1069c0.872-4.3101-1.836-8.9995-6.128-10.0396c-3.373-0.7968-5.7529,0.1099-8.2646,1.2403
	l8.1318-5.8712c12.1758-8.8677,23.5459-18.2901,38.2129-19.287c12.4775-0.8848,24.1455,4.3901,26.4688,18.83
	c1.0791,6.9005-1.3819,14.0391-7.7842,17.338c-2.9131,1.5259-6.1641,1.7368-9.3272,1.1182
	c-3.9258-0.7256-8.6689-7.3472-3.8603-10.2764c2.8808-1.75-0.041-6.1738-2.8877-4.414c-3.6953,2.2822-4.4131,7.1772-3.9688,11.2303
	c0.5703,5.3584,6.4756,8.0822,11.2178,8.9473c12.7852,2.2847,21.9297-9.2085,21.9883-20.6123
	C576.1182,961.3481,568.9356,950.7944,558.1612,947.5068z M754.3301,880.793c-13.6523,2.6728-23.5596,11.6152-30.6279,23.6371
	c-10.3907,18.0669-19.1983,45.5659-37.6426,61.6968c0.9346-1.5088,1.8359-3.0796,2.4229-4.732
	c1.6163-4.4946,0.0293-12.2285-4.8925-13.9741c-5.2198-1.7734-13.1241,0.9102-14.3721,6.8486
	c-0.5342,2.5469,0.3789,6.4707,2.2852,8.3546c1.4921,1.4815,6.2412,2.4419,6.6171-0.4941
	c-2.6992,0.9507-1.7685-3.6514,0.6836-4.1919c2.9043-0.6504,4.4209,2.0581,4.7285,4.3286c0.5146,4.0244-2.082,6.7666-4.8759,9.2905
	c-5.8516,3.5331-12.4112,5.9648-19.8116,6.4009c-2.8417,0.1592-5.9794,0.1543-8.7744-0.7803
	c0.5616-3.3086,0.1651-6.5156-1.4375-9.8149c-2.0009-4.0835-6.3408-4.6694-8.872-1.1558
	c-2.8067,3.9092,0.3349,10.0089,2.914,12.9659c0.334,0.3828,0.7422,0.6855,1.1367,1.0097
	c-2.332,5.3096-7.7294,9.8091-11.8457,13.1045c-13.2382,10.6025-38.9668,14.6968-47.3828-2.9473
	c-3.9375-8.1235-1.1328-17.9648,6.4326-22.3867c3.9952-2.4619,9.2549-3.0229,13.4698-0.7529
	c2.1953,1.1958,3.5566,3.6138,4.2959,5.936c0.7939,2.3711-2.1162,9.9239-5.2627,6.6426c-2.3389-2.5044-6.4258,0.8691-4.085,3.3911
	c3.0244,3.2832,7.8027,2.5078,11.332,0.2652c4.3399-2.6929,4.4062-9.4117,2.4366-13.5318
	c-5.6504-11.7129-18.3409-11.0918-27.5205-4.7969c-9.292,6.5323-10.4551,21.4244-4.2969,30.6802
	c8.0273,12.0493,25.7109,14.6856,39.3954,9.4478c11.0898-4.23,22.8438-12.0293,27.588-22.7823
	c4.084,1.1885,8.9072,0.9561,12.537,0.7071c15.7168-1.085,28.7344-12.1651,37.8682-23.6074
	c4.1972-5.2041,7.7666-10.8008,11.0039-16.5567c2.7939-3.2578,5.5673-8.2095,9.9297-8.6006
	c2.3447-0.2158,5.5136,0.9942,5.3789,3.7672c-0.1065,2.3648-4.2579,4.2051-3.8711,1.187c-1.958,0.8565-0.8662,4.4854,0.3789,5.6299
	c1.459,1.3789,4.3056,1.1187,5.9287,0.5171c4.1025-1.606,4.8076-6.2358,3.7109-10.0093c-1.2158-4.1851-5.8515-7.1943-10.0898-6.0302
	c-3.3389,0.8994-5.0547,2.7431-6.7559,4.9062l4.4873-8.9409c6.6748-13.4746,12.2891-27.1729,24.793-34.876
	c10.6328-6.5703,23.3877-7.3882,32.2148,4.3501c4.1797,5.6089,5.2725,12.9785,1.2002,18.9619
	c-1.8525,2.7295-4.6943,4.3311-7.7402,5.3252c-3.7744,1.251-11.1152-2.4892-8.1913-7.2637c1.707-2.9326-2.8945-5.4067-4.6279-2.5835
	c-2.2442,3.6744-0.5508,8.4185,1.7187,11.774c2.96,4.4038,9.5527,4.2197,14.1025,2.6924
	c12.3877-3.9297,15.0977-18.3877,9.8321-28.4942C776.6895,884.6851,765.3291,878.5801,754.3301,880.793z M928.5186,730.373
	c-9.8028-6.8828-22.6573-7.0097-31.4112,0.0254c-10.8593,8.69-15.499,21.2072-16.1923,35.1431
	c-0.8536,20.8228,4.1152,49.2954-4.7432,72.1206c0.1279-1.7685,0.1973-3.5767-0.0488-5.3115
	c-0.6534-4.728-5.6475-10.8418-10.8213-10.1055c-5.4531,0.8477-11.1953,6.9102-9.5488,12.7403
	c0.7148,2.5083,3.3437,5.5546,5.9072,6.3388c2.0049,0.6123,6.6621-0.7363,5.6299-3.5112c-1.9502,2.0942-3.2627-2.4116-1.3409-4.0288
	c2.2725-1.9224,4.8682-0.2315,6.1983,1.6387c2.3242,3.3242,1.2988,6.9565-0.0039,10.4873
	c-3.5323,5.8501-8.2168,11.039-14.5567,14.871c-2.4355,1.4664-5.2216,2.9131-8.1308,3.3858
	c-1.0449-3.1914-2.8877-5.8457-5.8399-8.02c-3.6709-2.683-7.7822-1.1772-8.3838,3.1133c-0.663,4.767,4.9561,8.7016,8.6153,10.1196
	c0.4746,0.1826,0.9756,0.2607,1.4756,0.3633c0.3867,5.7583-2.2588,12.29-4.377,17.1049
	c-6.7773,15.5308-27.6279,31.1163-43.2637,19.4971c-7.2861-5.3667-9.3798-15.354-4.7763-22.831
	c2.4365-3.9732,6.7334-7.049,11.582-6.9278c2.4951,0.0287,4.8242,1.5308,6.5615,3.2388c1.8028,1.7227,2.7774,9.7939-1.5722,8.3125
	c-3.2315-1.1177-5.2608,3.79-2.0186,4.9219c4.1729,1.4511,8.085-1.4023,10.1475-5.0483c2.5722-4.4185-0.5039-10.3975-4.166-13.1212
	c-10.46-7.7328-21.3829-1.2358-26.5733,8.6046c-5.1885,10.0894,0.7549,23.8373,10.501,29.1226
	c12.7695,6.9795,29.5976,1.0098,39.2471-10.0029c7.8457-8.8887,14.6064-21.2579,13.7939-32.9854
	c4.1602-0.8535,8.332-3.2881,11.4199-5.2021c13.4024-8.2627,19.7744-24.1104,22.5489-38.4844
	c1.3115-6.5488,1.8544-13.1817,2.0732-19.7652c0.9482-4.1948,1.124-9.8584,4.8145-12.2216c1.9581-1.2925,5.334-1.6841,6.498,0.8344
	c1,2.1436-1.7988,5.7178-2.8672,2.8555c-1.3408,1.6636,1.3076,4.3721,2.9424,4.8106c1.9247,0.54,4.3584-0.9849,5.4805-2.2974
	c2.8994-3.3174,1.3828-7.7437-1.336-10.5781c-3.0137-3.1451-8.5215-3.6675-11.7471-0.6773
	c-2.5126,2.3661-3.2041,4.7764-3.7061,7.4834c-0.0449-3.3701-0.0576-6.665-0.1738-10.0078
	c-0.3008-15.0142-1.6875-29.7759,5.834-42.3901c6.3574-10.7613,17.3212-17.3687,30.5527-11.0699
	c6.3183,3.044,10.7051,9.0713,9.8457,16.25c-0.3565,3.2891-2.1416,6.0196-4.3897,8.3067
	c-2.792,2.8408-10.9492,2.9741-10.6318-2.6494c0.1689-3.3819-5.085-3.4615-5.2783-0.1348c-0.2959,4.291,3.3994,7.71,6.9648,9.6328
	c4.6866,2.5469,10.4033-0.6929,13.7451-4.1455C942.1572,750.959,937.8701,736.8916,928.5186,730.373z M981.3301,516.3335
	c-11.876-1.5317-23.3779,4.3462-27.833,14.6636c-5.5527,12.7646-3.75,26.0156,2.0957,38.6591
	c8.9785,18.816,26.5869,41.667,29.4238,66.0137c-0.7129-1.626-1.4961-3.2597-2.5244-4.6816
	c-2.7861-3.8819-10.0547-6.9654-14.2822-3.9033c-4.417,3.2929-6.7031,11.3212-2.5176,15.7207
	c1.7871,1.8828,5.541,3.3593,8.1719,2.8593c2.0781-0.3847,5.5527-3.7529,3.3506-5.7275c-0.7471,2.7622-4.0098-0.6162-3.0645-2.9434
	c1.1113-2.7607,4.2012-2.4721,6.2461-1.436c3.6065,1.8599,4.3916,5.5542,4.8857,9.2881c-0.415,6.8223-2.1357,13.603-5.9746,19.9443
	c-1.4795,2.4312-3.2656,5.0113-5.625,6.7808c-2.4062-2.3403-5.2714-3.834-8.8964-4.3877c-4.4981-0.6699-7.4415,2.5713-5.9825,6.6504
	c1.628,4.5303,8.4317,5.4057,12.3291,4.9599c0.5049-0.0581,0.9854-0.2216,1.4756-0.3632
	c3.0391,4.9297,3.6895,11.9321,4.0703,17.1923c1.2012,16.9126-10.0488,40.4107-29.3144,37.3438
	c-8.9072-1.3623-15.4502-9.2744-14.793-18.0103c0.2734-4.6713,2.7266-9.353,7.0342-11.5131
	c2.2275-1.1304,4.9883-0.8789,7.3203-0.1705c2.3916,0.688,6.998,7.3882,2.4697,8.0982c-3.3847,0.5063-2.917,5.7915,0.4844,5.293
	c4.3926-0.6387,6.5049-4.9961,6.6514-9.1792c0.2373-5.105-5.2588-8.9742-9.7676-9.69c-12.8525-1.998-19.5264,8.8106-19.5625,19.9365
	c0.1046,11.3575,11.6964,20.7676,22.8047,20.9473c14.5117,0.251,26.7148-12.8213,30.1484-27.0703
	c2.8194-11.5273,3.0752-25.6304-3.0928-35.6421c3.293-2.689,5.8487-6.7886,7.6973-9.9204
	c8.0274-13.5562,6.291-30.563,2.0586-44.5757c-1.9248-6.4145-4.4766-12.5239-7.3936-18.4585
	c-1.1074-4.1518-3.5703-9.2388-1.4492-13.0576c1.1319-2.0557,3.9971-3.9678,6.1758-2.2871c1.8311,1.4214,1.043,5.8926-1.2392,3.8584
	c-0.4004,2.0986,3.208,3.2598,4.8554,2.8838c1.9649-0.418,3.3516-2.9112,3.7832-4.5879c1.0508-4.2822-2.4121-7.4981-6.1308-8.7359
	c-4.1377-1.3754-9.2373,0.7339-10.67,4.8863c-1.2128,3.25-0.6142,5.7182,0.1924,8.3452l-4.8056-8.7686
	c-7.3614-13.1523-15.3955-25.5453-14.6465-40.2231c0.6689-12.4898,7.2197-23.4634,21.8574-24.0488
	c6.957-0.2491,13.7725,3.0449,16.3066,9.7928c1.1446,3.0733,0.9278,6.3239,0.0235,9.3947
	c-1.2149,3.8105-8.3858,7.7319-10.6856,2.6113c-1.373-3.0674-6.1328-0.6924-4.7461,2.3423
	c1.7764,3.9365,6.6495,5.2378,10.6973,5.2754c5.3379,0.067,8.7813-5.4712,10.2402-10.0746
	C1002.9053,528.1934,992.5967,517.7539,981.3301,516.3335z"/></g>
</svg>
