<?xml version="1.0" encoding="utf-8"?>
<!-- Generator: Adobe Illustrator 21.0.0, SVG Export Plug-In . SVG Version: 6.00 Build 0)  -->
<svg version="1.1" id="wreath-line-2" xmlns="http://www.w3.org/2000/svg" xmlns:xlink="http://www.w3.org/1999/xlink" x="0px"
	 y="0px" viewBox="0 0 980.5394 891.2532" enable-background="new 0 0 980.5394 891.2532" xml:space="preserve">
<g id="change1">
	<g>
		<path fill="#1ABC9C" d="M638.2726,10.0005c0,0,23.2968,9.8442,29.866,29.4106c6.8998,20.5043,4.05,37.554,2.9562,42.5097
			c15.3759,6.6306,33.2597,15.5967,52.5836,27.6831c-6.4425-6.6514-15.3427-16.9995-18.2645-26.0552
			c-6.6866-20.7209,5.8116-46.5723,5.8116-46.5723s21.6346,14.026,24.8005,34.8395c3.2178,21.2399-2.2964,37.5923-4.4258,42.874
			c14.8156,9.742,30.3412,21.3013,46.1276,35.0348c-5.0541-7.7511-11.0275-18.4328-12.228-27.168
			c-3.0638-22.0103,14.0786-45.775,14.0786-45.775s19.27,17.9253,18.7371,39.4103c-0.5018,20.9276-8.1952,35.9296-11.5654,41.5377
			c12.9437,11.3442,25.4625,24.5104,37.2405,39.2875c-3.1308-8.0209-6.0124-17.5735-5.7322-25.1507
			c0.834-22.6556,22.2809-43.501,22.2809-43.501s16.1678,21.4236,11.8369,42.9186c-4.0347,20.0021-13.706,33.4312-18.3801,38.9864
			c10.7382,14.8381,20.7549,30.9741,29.7781,48.2092c-1.9211-8.9857-3.4285-20.0569-1.6856-28.1805
			c4.8607-22.6192,30.0825-39.7615,30.0825-39.7615s12.4691,24.3967,4.3163,45.2232
			c-7.8318,20.0013-20.4482,31.8873-25.8851,36.3337c8.024,16.7841,15.0808,34.4796,21.0245,52.8358
			c-0.3782-9.4727,0.0205-21.1695,3.2775-29.1858c8.8872-21.8682,37.2875-34.6212,37.2875-34.6212s8.1908,26.7201-3.7109,46.2023
			c-11.4521,18.7726-26.2834,28.4843-32.4899,31.9592c4.9108,17.1949,8.8043,34.9062,11.5192,52.9844
			c1.3848-9.0135,3.8198-19.2856,8.0832-26.0781c12.7996-20.3936,43.5903-28.1849,43.5903-28.1849s3.5057,28.3048-11.8895,45.7809
			c-14.2835,16.2024-30.2498,23.4254-37.5417,26.078c1.7792,16.7993,2.5411,33.8429,2.112,51.0225
			c2.9245-8.1403,6.8923-16.7943,11.8669-22.3025c16.4985-18.2279,48.808-20.6027,48.808-20.6027s-1.4804,29.0656-20.0541,43.9005
			c-16.7963,13.408-33.6568,17.9409-41.7175,19.4312c-1.3021,16.3821-3.6369,32.8252-7.2426,49.2271
			c4.421-7.7801,10.0358-15.9691,16.1184-20.7019c13.8051-10.7379,33.9755-12.3635,44.9279-12.3635
			c4.7579,0,7.7776,0.307,7.7776,0.307s-6.66,28.9412-27.955,40.5588c-19.5116,10.6461-37.5107,12.1099-45.7292,12.1384
			c-3.8192,15.7153-8.6747,30.959-14.4491,45.6947c5.6494-6.7099,12.3755-13.438,18.9933-16.9437
			c8.9244-4.7137,19.3719-6.1411,28.7591-6.1407c14.4245,0.0006,26.3405,3.3724,26.3405,3.3724s-11.8136,27.9096-35.2593,35.8064
			c-12.3618,4.1625-23.6665,5.3655-32.6159,5.3655c-6.2451,0-11.3445-0.5864-14.8506-1.162
			c-6.946,15.0078-14.8513,29.4076-23.5249,43.19c7.0659-5.9988,15.4088-11.9504,22.9941-14.3964
			c5.248-1.6923,10.7638-2.3596,16.2079-2.3593c20.35,0.0015,39.6378,9.3326,39.6378,9.3326s-16.8116,25.9448-41.7785,29.7255
			c-5.5359,0.8381-10.7894,1.1826-15.6918,1.1826c-15.3091,0-27.1674-3.3633-33.2899-5.561
			c-9.73,13.7639-20.2508,26.791-31.3612,39.0692c8.3409-4.9499,18.1387-9.7145,26.4575-10.8646
			c2.1542-0.298,4.3206-0.4349,6.4861-0.4348c24.3718,0.0009,48.4114,17.3401,48.4114,17.3401s-20.9252,22.4835-46.2313,22.4835
			c-0.3428,0-0.6872-0.0042-1.0316-0.0125c-23.7438-0.5764-41.1336-8.876-48.6392-13.1962
			c-11.8432,11.8596-24.2244,22.9022-36.9803,33.0452c8.7574-3.2907,18.7645-6.1624,27.0294-6.162
			c0.4215,0,0.84,0.0075,1.252,0.0228c27.1678,1.0096,52.1473,26.7055,52.1473,26.7055s-19.9826,15.0984-42.3877,15.0984
			c-2.9952,0-6.0377-0.2704-9.0774-0.8826c-23.5309-4.7477-39.446-15.9892-46.3306-21.7096
			c-12.8201,9.1751-25.8949,17.4946-39.074,24.8468c5.4518-0.9037,11.163-1.5333,16.5061-1.5332
			c3.5201,0.0001,6.8809,0.2734,9.9009,0.9216c27.1179,5.826,47.6782,36.0782,47.6782,36.0782s-16.6008,8.4857-35.4719,8.4857
			c-6.1783,0-12.6035-0.9106-18.7644-3.3263c-21.9284-8.5884-35.7237-21.9702-42.0087-29.1857
			c-14.1663,6.7313-28.3216,12.371-42.2472,16.8057c9.1549,0.1359,18.7953,1.1408,25.9669,4.0574
			c26.2197,10.6635,41.5244,44.7083,41.5244,44.7083s-10.7678,3.3054-24.3775,3.3054c-9.8645,0-21.2234-1.7378-31.0501-7.7302
			c-21.2505-12.9756-32.812-29.5699-37.5457-37.6542c0,0-60.3799,10.6728-63.3799,29.6728c-0.8923,5.6511-4.7629,8.164-8.8871,8.164
			c-9.742,0-20.8884-14.0361,2.5403-33.8964c13.6391-11.5616,35.6721-11.2995,56.4036-15.242
			c-0.6351-10.33-0.0611-28.6539,8.4812-49.2101c10.4966-25.2833,42.1973-36.1781,42.1973-36.1781s7.6732,36.5352-7.266,60.5778
			c-4.5168,7.2752-12.8436,14.4335-20.9293,20.2673c14.2814-3.7232,28.9101-8.7562,43.6375-15.0729
			c-2.4727-9.3352-5.7656-28.1295-0.6785-50.9065c5.8231-26.1875,34.5743-42.1008,34.5743-42.1008s13.5987,33.954,3.28,59.7083
			c-3.2986,8.2402-10.73,17.0691-17.9185,24.3105c14.0353-7.0352,28.0388-15.1825,41.8038-24.3666
			c-3.9837-8.782-10.069-26.1046-9.0601-48.4678c1.1788-26.2579,26.1963-46.5079,26.1963-46.5079s18.9273,30.4542,13.3323,57.0543
			c-1.6632,7.9524-6.7207,17.0085-12.0269,24.862c12.3242-9.2324,24.3667-19.269,35.933-30.1372
			c-5.3347-7.7772-14.1927-23.4872-17.0209-45.2946c-3.3419-25.5464,17.3707-49.3436,17.3707-49.3436
			s23.4221,26.1701,22.5734,52.7908c-0.2669,8.1729-3.7821,18.0884-7.6938,26.736c10.9461-11.3932,21.3683-23.5191,31.097-36.3579
			c-6.4026-6.442-17.9364-20.2181-24.5152-41.1905c-7.5587-24.0896,8.3811-50.5798,8.3811-50.5798s27.0682,21.27,30.7529,47.1121
			c1.2188,8.4883-0.8105,19.5317-3.3524,28.9778c9.2263-13.4954,17.6968-27.6624,25.2156-42.4894
			c-7.0184-4.8044-21.1857-16.2563-31.5116-36.1773c-11.4068-21.9589-0.5327-50.2404-0.5327-50.2404s29.7402,15.925,37.7173,40.2397
			c2.8743,8.7799,2.4858,21.215,1.4047,31.3489c7.0837-15.684,13.1655-31.9981,17.9609-48.9509
			c-7.5528-3.4113-23.2599-12.0555-36.6862-29.6068c-14.7372-19.2476-9.0657-48.3924-9.0657-48.3924s31.4258,10.3037,43.251,32.4179
			c4.2015,7.8491,5.9597,19.6508,6.6672,29.5169c4.5768-16.9702,7.7767-34.0473,9.7527-51.1047
			c-7.5894-1.8607-24.728-7.4491-41.0832-22.4899c-17.5111-16.0786-17.0044-45.1735-17.0044-45.1735s32.069,4.5927,47.2508,23.9316
			c5.9498,7.5616,9.8427,20.2467,12.147,30.1556c1.4844-19.0433,1.4768-38.0072,0.1251-56.7148
			c-7.5952-0.4916-25.1396-2.9442-43.5573-14.7209c-19.6503-12.5333-24.092-40.7005-24.092-40.7005s0.4045-0.0131,1.1485-0.013
			c5.845,0,32.6248,0.8053,48.5165,15.0673c6.9847,6.2484,12.8615,17.7133,16.7732,26.8569
			c-2.0557-19.2424-5.4572-38.1623-10.0833-56.5365c-2.1081,0.2288-4.9876,0.4378-8.4787,0.4378
			c-8.911,0-21.7956-1.3636-35.9252-7.2434c-21.0816-8.7556-30.1707-35.18-30.1707-35.18s7.8033-1.6364,18.1121-1.6361
			c10.0551,0.0003,22.4939,1.5576,32.3903,7.7095c7.6902,4.777,15.2087,14.6385,20.5303,22.7384
			c-5.3275-18.5941-11.8893-36.5397-19.4125-53.666c-4.3674,1.3176-13.053,3.4012-24.3757,3.4012
			c-6.0684,0-12.8964-0.5991-20.2183-2.2356c-21.8391-4.8592-35.0953-28.8182-35.0953-28.8182s14.8713-5.9641,31.2288-5.9634
			c6.2091,0.0003,12.6349,0.86,18.5391,3.2316c8.9361,3.585,18.7041,12.9868,25.2965,20.1915
			c-8.6893-18.4263-18.5133-35.7821-29.2153-51.7565c-4.6398,2.4996-19.4169,9.4739-40.0063,9.4739
			c-1.3483,0-2.7251-0.03-4.1221-0.0931c-21.9005-0.9789-38.7912-21.8436-38.7912-21.8436s19.2761-11.9702,38.9105-11.9686
			c2.9008,0.0002,5.8132,0.2617,8.6685,0.8618c10.8763,2.285,24.2855,12.1816,31.5778,18.1189
			c-12.6871-18.2209-26.478-34.5736-40.9841-48.4998c-3.9399,3.1633-18.6552,13.8342-41.2624,16.7737
			c-1.5931,0.2085-3.1761,0.3049-4.7453,0.3049c-19.4189,0-36.4254-14.7786-36.4254-14.7786s21.0291-18.8339,42.8037-18.8333
			c0.4089,0.0001,0.8192,0.0067,1.2284,0.0202c10.9727,0.3531,25.7056,7.7081,33.7178,12.1896
			c-1.1368-1.0411-2.262-2.126-3.4066-3.1373c-15.4235-14.4146-30.709-26.6468-45.3969-37.067
			c-3.4117,3.8627-15.7671,16.4778-36.8855,23.0981c-3.8582,1.2139-7.7879,1.7038-11.6245,1.7038
			c-16.131,0-30.5609-8.6727-30.5609-8.6727s17.7507-22.5647,39.3-25.6417c1.4547-0.2083,2.9981-0.3026,4.6022-0.3026
			c10.288,0.0002,23.033,3.8801,30.3188,6.4363c-19.6033-13.4985-38.0011-23.7415-54.0496-31.4905
			c-1.845,3.1741-11.5992,18.6541-32.0728,29.2664c-6.3032,3.2759-13.2302,4.3493-19.6086,4.3493
			c-12.1475,0-22.2966-3.8972-22.2966-3.8972s13.306-24.792,33.5618-31.4389c4.1747-1.3652,9.3317-1.8508,14.5586-1.8506
			c9.3052,0.0001,18.8286,1.5394,23.4009,2.394c-15.2541-7.2357-28.2412-12.2056-37.9412-15.6044
			c-2.1976,1.1509-11.7825,5.8312-22.411,5.8312c-3.2769,0-6.6539-0.4451-9.943-1.5757
			c-19.3077-6.6249-28.8535-19.6439-28.8535-19.6439s15.5671-5.9552,27.3677-5.9548c1.5544,0,3.0446,0.1034,4.4241,0.3373
			c13.9882,2.4006,25.5793,15.3844,28.9255,19.4688c7.4376,2.2877,16.8666,5.4987,27.8443,9.963
			c-7.3703-5.2073-18.8312-14.2477-23.4863-23.0448C630.6378,37.0718,638.2726,10.0005,638.2726,10.0005 M638.2727,2.0005
			c-1.1868,0-2.372,0.2639-3.4658,0.7897c-2.0688,0.9944-3.6108,2.8295-4.2338,5.0388c-0.3075,1.0902-6.6363,24.0882-0.2139,44.2316
			c-5.8914-4.6426-13.3232-8.9605-21.6876-10.396c-1.7755-0.3011-3.7141-0.4526-5.7772-0.4526
			c-13.1274-0.0004-29.5341,6.2181-30.2261,6.483c-2.3301,0.8913-4.111,2.8188-4.8157,5.212
			c-0.7048,2.3934-0.2527,4.9783,1.2225,6.9903c0.4503,0.6141,11.2752,15.1261,32.7087,22.4804
			c3.8767,1.3325,8.0969,2.0088,12.5395,2.0088c2.9127,0,5.7431-0.2901,8.4057-0.7536
			c-16.2701,10.6239-26.1269,28.7132-26.6238,29.6392c-1.0861,2.0239-1.2501,4.4168-0.45,6.5699
			c0.8,2.1531,2.4869,3.8583,4.6311,4.6816c0.4711,0.1809,11.6887,4.4289,25.1644,4.4289c8.7556,0,16.5943-1.7667,23.298-5.2508
			c15.8239-8.2022,25.774-18.9683,31.1135-26.0931c4.6596,2.355,9.2956,4.817,13.9022,7.3823
			c-23.7869,4.1651-42.3006,27.3929-43.0913,28.3981c-1.4197,1.8047-1.9955,4.1323-1.5809,6.3906
			c0.4146,2.2584,1.7795,4.2297,3.7473,5.4125c0.6669,0.4008,16.5405,9.816,34.6821,9.816c4.9351,0,9.6539-0.6973,14.0253-2.0726
			c16.8783-5.291,28.7427-14.2097,35.3385-20.2474c4.2014,3.0844,8.3618,6.2589,12.4708,9.5156
			c-24.3467,0.2861-46.6636,20.0247-47.6083,20.8708c-1.71,1.5315-2.6797,3.7238-2.6625,6.0192
			c0.0171,2.2954,1.0196,4.4729,2.7523,5.9786c0.7866,0.6835,19.5183,16.74,41.6729,16.74c1.9496,0,3.8956-0.1253,5.7837-0.3725
			c18.1552-2.3606,31.7492-9.3694,39.3943-14.2991c3.8001,3.8322,7.55,7.8397,11.2446,12.0161
			c-3.0736-0.5997-6.3253-0.9037-9.6763-0.9039c-21.6678-0.0016-42.2655,12.6345-43.1318,13.1724
			c-1.9498,1.2109-3.2857,3.2009-3.6678,5.4642c-0.3823,2.2632,0.2261,4.5816,1.6704,6.3656
			c0.7821,0.9661,19.4452,23.6754,44.6519,24.802c1.4839,0.0671,2.9921,0.1011,4.4793,0.1011
			c16.2187,0,29.1208-3.9443,37.1288-7.279c2.8026,4.3585,5.5349,8.8093,8.1915,13.3429
			c-5.909-2.1262-12.6065-3.2039-19.9339-3.2043c-17.6985-0.0007-33.5412,6.2712-34.2069,6.5381
			c-2.1293,0.854-3.7895,2.5809-4.559,4.7421c-0.7693,2.1613-0.574,4.5488,0.5367,6.5562
			c0.6125,1.1069,15.2892,27.1764,40.3578,32.7543c7.2012,1.6096,14.5908,2.4265,21.9557,2.4265
			c7.885,0,14.6428-0.9439,19.7127-1.991c1.8529,4.4081,3.6296,8.8445,5.3279,13.303c-9.147-4.9749-20.6258-7.4947-34.1728-7.4951
			c-11.012-0.0002-19.4024,1.7327-19.7542,1.8064c-2.2461,0.4711-4.1818,1.884-5.3149,3.8798
			c-1.1332,1.9957-1.3546,4.3818-0.6081,6.5521c0.4189,1.218,10.5376,29.9445,34.6672,39.966
			c15.6008,6.4922,29.8164,7.8553,38.9936,7.8553c0.7688,0,1.532-0.0092,2.2892-0.0276c1.0636,4.544,2.0499,9.1168,2.9567,13.7072
			c-17.7271-14.3565-44.095-15.5052-51.9736-15.5052c-0.9113,0-1.4068,0.0172-1.4068,0.0172
			c-2.2894,0.0797-4.4449,1.1373-5.9028,2.9044c-1.4579,1.7671-2.0981,4.0746-1.7413,6.3376
			c0.2044,1.2955,5.2612,31.8922,27.6924,46.1992c15.4028,9.849,30.1822,13.7167,40.3016,15.2061
			c0.2367,4.3482,0.3978,8.6988,0.4833,13.0444c-17.2858-20.48-49.9055-25.3641-51.3144-25.5659
			c-0.3781-0.0541-0.7573-0.0808-1.1343-0.0808c-1.889-0.0001-3.731,0.6693-5.1876,1.91c-1.7474,1.4885-2.7711,3.6557-2.8111,5.9507
			c-0.0232,1.3349-0.3401,32.9036,19.5925,51.2056c2.8054,2.5799,5.6295,4.9039,8.4316,6.9967
			c-9.9671-5.7746-18.421-8.6037-19.1161-8.8316c-0.813-0.2665-1.6542-0.3981-2.492-0.3981c-1.4095,0-2.8094,0.3723-4.0508,1.1011
			c-1.9791,1.162-3.3639,3.118-3.8023,5.3708c-0.2597,1.3343-6.1666,32.9295,10.5665,54.784
			c1.0411,1.3609,2.0936,2.671,3.1561,3.9348c-7.1448-5.4748-12.8724-8.586-13.4246-8.8817
			c-1.1746-0.629-2.4731-0.9475-3.7767-0.9475c-0.9418,0-1.8862,0.1663-2.7884,0.5017c-2.1509,0.8-3.8548,2.4852-4.6784,4.6272
			c-0.4968,1.2921-12.0184,31.9297,0.9004,56.7994c0.3461,0.6678,0.6968,1.3276,1.0506,1.978
			c-5.3853-5.6237-9.66-9.0234-10.1129-9.3793c-1.4204-1.1161-3.1642-1.7098-4.9431-1.7098c-0.4808,0-0.9641,0.0434-1.4443,0.1315
			c-2.257,0.4142-4.2272,1.7778-5.4103,3.7438c-0.7267,1.2076-17.6978,29.8878-9.1595,57.0995
			c0.1144,0.3646,0.23,0.7268,0.3472,1.0874c-4.2864-6.3597-7.8313-10.368-8.2144-10.796
			c-1.5182-1.6962-3.6865-2.6649-5.9611-2.6649c-0.0185,0-0.0369,0.0001-0.0554,0.0002c-2.2949,0.016-4.4724,1.0165-5.9791,2.7476
			c-0.9231,1.0607-22.1452,25.8089-19.4666,53.8823c-2.736-5.8323-5.0178-9.5519-5.2924-9.9939
			c-1.2114-1.949-3.2012-3.2839-5.4639-3.6656c-0.4429-0.0748-0.8883-0.1115-1.331-0.1115c-1.819-0.0001-3.5986,0.6206-5.033,1.7817
			c-1.0776,0.8723-25.1632,20.6633-28.7589,47.8958c-1.5352-5.4064-2.9033-8.8802-3.0828-9.3284
			c-0.8532-2.1304-2.5804-3.7917-4.7423-4.5619c-0.871-0.3102-1.7791-0.4637-2.684-0.4637
			c-1.3411-0.0001-2.6754,0.337-3.8743,1.0005c-1.1951,0.6614-27.1105,15.2559-36.4269,40.335
			c-0.5365-4.4683-1.1202-7.3271-1.2079-7.7448c-0.4716-2.2452-1.8843-4.18-3.8793-5.3127c-1.2172-0.691-2.58-1.043-3.9501-1.0431
			c-0.8756,0-1.754,0.1437-2.5999,0.4344c-1.4335,0.4925-35.2428,12.3909-46.9857,40.6763
			c-7.287,17.5356-9.2373,33.5742-9.2828,45.5549c-2.9043,0.4453-5.8262,0.8449-8.6934,1.2371
			c-16.0861,2.2003-32.7197,4.4756-44.6931,14.6251c-18.8741,15.9995-17.8185,28.949-15.5093,35.2441
			c2.7984,7.629,10.0892,12.7548,18.142,12.7548c8.6334,0,15.3804-5.9944,16.7892-14.9163
			c0.0453-0.2873,1.4096-7.1326,27.3924-15.603c9.3688-3.0543,18.6587-5.2177,24.2344-6.3975
			c6.4623,9.7088,18.258,23.9791,37.2276,35.562c9.6884,5.908,21.5366,8.9024,35.2192,8.9024
			c14.6414,0,26.2386-3.5084,26.7252-3.6577c2.1938-0.6735,3.993-2.2568,4.9398-4.3475c0.9468-2.0905,0.9501-4.4872,0.0092-6.5804
			c-0.6672-1.4841-16.4107-35.9185-44.3668-48.2288c3.3046-1.391,6.6142-2.8423,9.9252-4.3528
			c7.9107,8.0401,21.4713,19.2796,40.9921,26.925c6.5604,2.5724,13.8561,3.8772,21.6819,3.8772
			c20.5608,0,38.3652-8.98,39.113-9.3622c2.0432-1.0444,3.5396-2.9159,4.1088-5.1389c0.5692-2.223,0.1564-4.5834-1.1335-6.4812
			c-0.9039-1.33-22.2722-32.3473-51.7188-39.2025c3.3029-2.166,6.5933-4.3887,9.8654-6.6644
			c9.1163,6.638,24.3262,15.4358,44.9739,19.6019c3.4297,0.6907,7.0152,1.0405,10.6596,1.0405
			c24.8026,0,46.3072-16.0331,47.2105-16.7156c1.8306-1.3831,2.9792-3.4857,3.154-5.7734c0.1747-2.2878-0.6412-4.5405-2.2405-6.1856
			c-1.1084-1.1403-27.4251-27.8703-57.3565-29.1147c3.248-2.9841,6.454-6.0183,9.6124-9.0976
			c9.9794,4.9102,26.2316,10.8665,47.0045,11.3708c0.4085,0.01,0.8181,0.015,1.2257,0.015c28.462,0,51.1362-24.011,52.0875-25.0332
			c1.5636-1.68,2.3304-3.9506,2.1053-6.2347c-0.225-2.284-1.4201-4.3613-3.2816-5.704
			c-1.067-0.7696-26.4416-18.8506-53.0911-18.8517c-2.2379,0-4.4512,0.1288-6.594,0.3833c2.7782-3.5627,5.4861-7.1528,8.118-10.7632
			c7.0938,2.0226,17.5933,4.1711,30.1832,4.1711c5.6285,0,11.3111-0.4282,16.8895-1.2728
			c28.2016-4.2706,46.5283-32.1023,47.2947-33.285c1.2479-1.9257,1.6086-4.2945,0.9908-6.5045
			c-0.6179-2.2098-2.1549-4.048-4.2205-5.0474c-0.8549-0.4136-21.1902-10.1296-43.1213-10.1312
			c-6.0709-0.0002-11.7719,0.7503-16.9761,2.2332c2.0965-3.9833,4.1131-7.9822,6.0446-11.9871
			c3.2846,0.3201,6.6645,0.4816,10.1047,0.4816c11.9385,0,23.7711-1.9459,35.1688-5.7837
			c26.5519-8.943,39.534-38.9949,40.0736-40.2698c0.8947-2.1135,0.8384-4.5095-0.1542-6.5788
			c-0.9928-2.0692-2.8264-3.6124-5.0347-4.2374c-0.5302-0.15-13.1607-3.6741-28.5186-3.6746
			c-11.8259-0.0005-22.1294,2.066-30.6655,6.1468c1.3026-4.3208,2.5227-8.6581,3.6571-13.0026
			c10.4803-0.7653,26.3436-3.637,43.2657-12.8702c24.1747-13.1887,31.6146-44.4625,31.9195-45.7873
			c0.5146-2.2369,0.0438-4.5871-1.2928-6.4531c-1.3368-1.866-3.4105-3.0679-5.6941-3.3c-0.1398-0.0143-3.482-0.3481-8.587-0.3481
			c-11.403,0-32.3954,1.6845-47.9625,12.6589c0.6254-4.7236,1.1658-9.4885,1.6199-14.2864
			c9.9166-2.552,24.6158-8.0332,39.2473-19.7131c21.1461-16.8896,22.9849-48.4123,23.0528-49.7458
			c0.1168-2.2916-0.7562-4.5229-2.3967-6.1271c-1.5001-1.4667-3.5102-2.2798-5.5927-2.2799c-0.1951,0-0.3906,0.0071-0.5867,0.0215
			c-1.407,0.1035-33.7294,2.6859-52.4865,21.4612c-0.2773-5.4663-0.6667-10.9526-1.1674-16.444
			c9.2872-4.1601,22.6957-11.9907,34.9962-25.9437c17.5737-19.9491,13.989-50.7529,13.8278-52.0545
			c-0.2822-2.2776-1.5288-4.3244-3.4231-5.62c-1.343-0.9185-2.9198-1.3967-4.5166-1.3967c-0.6556,0-1.3146,0.0806-1.9622,0.2445
			c-1.3568,0.3433-32.7832,8.507-47.5311,30.348c-1.3352-5.9122-2.7972-11.8073-4.382-17.6671
			c7.9426-5.3203,20.1851-15.3467,30.0024-31.4395c13.6196-22.2941,4.9077-51.4816,4.5302-52.7132
			c-0.6725-2.1942-2.2552-3.9939-4.3453-4.9415c-1.0496-0.4759-2.1765-0.7139-3.3033-0.7139c-1.1173,0-2.2347,0.234-3.2771,0.702
			c-1.2594,0.5656-30.5162,13.9258-40.9445,37.7759c-2.4147-5.9222-4.9486-11.7649-7.5942-17.5098
			c6.7646-6.5063,16.8441-18.2607,23.5607-35.4136c9.3576-23.9042-4.066-50.6539-4.6422-51.7809
			c-1.0443-2.0433-2.9158-3.5399-5.1389-4.1092c-0.6545-0.1676-1.3211-0.2501-1.9841-0.2501c-1.5889,0-3.1583,0.4735-4.4973,1.3837
			c-1.1093,0.7538-26.5919,18.3114-32.9501,42.7722c-3.4754-5.5261-7.0667-10.9379-10.7643-16.2198
			c5.6301-7.8296,12.8098-20.511,16.2583-37.6077c4.9847-24.7396-12.5446-48.3276-13.2933-49.3196
			c-1.3825-1.832-3.4853-2.982-5.7737-3.1575c-0.2045-0.0157-0.409-0.0234-0.6125-0.0234c-2.074-0.0001-4.0764,0.8065-5.5752,2.2633
			c-0.941,0.9146-22.4311,22.0695-24.5602,46.6868c-4.4619-4.6511-9.0085-9.1023-13.6271-13.3395
			c4.0008-8.2183,9.1163-22.045,9.5372-39.5923c0.6151-24.795-20.3915-44.6274-21.286-45.4595
			c-1.487-1.3833-3.4365-2.1425-5.4481-2.1426c-0.2612,0-0.5234,0.0128-0.7859,0.0387c-2.2836,0.2252-4.3605,1.4202-5.7029,3.2812
			c-0.771,1.0688-18.7174,26.2823-15.5864,51.0133c-5.3756-4.0242-10.822-7.9098-16.3201-11.6425
			c2.6277-8.7299,5.4196-23.2468,2.752-40.8547c-3.6651-24.0952-27.3517-39.7012-28.3583-40.3538
			c-1.309-0.8486-2.8229-1.2874-4.3524-1.2874c-0.721,0-1.4456,0.0975-2.1537,0.2955c-2.2106,0.6182-4.0492,2.1559-5.0483,4.2224
			c-0.5643,1.1672-13.6666,28.7138-6.3417,52.1364c-5.8702-3.0131-11.7742-5.8597-17.6951-8.5309
			c1.0272-8.6533,1.3763-23.475-4.2654-40.2402c-7.6277-22.7189-33.2474-33.7691-34.3344-34.2283
			C640.39,2.2103,639.3307,2.0005,638.2727,2.0005L638.2727,2.0005z M890.5795,505.8902
			c-4.4911-7.6458-10.8893-13.928-17.519-18.9372c7.1087,4.1275,13.7164,6.8527,19.0703,8.634
			C891.6642,499.0328,891.1468,502.4691,890.5795,505.8902L890.5795,505.8902z M874.5497,570.1357
			c-2.4514-6.5514-6.1913-12.4845-10.4329-17.7039c4.8453,3.7151,9.42,6.5664,13.3223,8.7042
			C876.5242,564.1332,875.5607,567.1341,874.5497,570.1357L874.5497,570.1357z M847.601,630.6569
			c-1.1452-5.9423-3.2963-11.5985-5.9771-16.8238c3.5911,3.7484,7.0529,6.825,10.1036,9.2767
			C850.3879,625.6308,849.0115,628.1481,847.601,630.6569L847.601,630.6569z M810.0742,685.5593
			c-0.1654-5.5793-1.1861-11.0596-2.7261-16.2746c2.6639,3.958,5.2993,7.327,7.6772,10.0991
			C813.4005,681.4529,811.7501,683.5114,810.0742,685.5593L810.0742,685.5593z M763.7205,733.6105
			c0.6298-4.5497,0.6912-9.1365,0.3468-13.6284c1.6077,3.4324,3.237,6.4641,4.7623,9.064
			C767.1448,730.5771,765.4409,732.0995,763.7205,733.6105L763.7205,733.6105z M709.2716,774.0643
			c1.3553-3.9448,2.2553-8.0045,2.7998-12.0715c0.9017,3.1692,1.8608,6.0251,2.7969,8.5336
			C713.0089,771.7236,711.1435,772.9028,709.2716,774.0643L709.2716,774.0643z M648.754,804.3909
			c1.8017-3.1293,3.2832-6.4052,4.4962-9.7537c0.3364,2.7385,0.7446,5.2546,1.1793,7.5187
			C652.5375,802.922,650.6458,803.6669,648.754,804.3909L648.754,804.3909z"/>
	</g>
	<g>
		<path fill="#1ABC9C" d="M342.2668,8c0,0,7.6347,27.0714-2.3293,45.9359c-4.6551,8.7971-16.116,17.8375-23.4863,23.0448
			c10.9778-4.4641,20.4067-7.675,27.8443-9.9629c3.3463-4.0844,14.9373-17.0683,28.9255-19.4687
			c1.3802-0.2341,2.869-0.3375,4.4243-0.3374c11.8002,0.0004,27.3674,5.9547,27.3674,5.9547s-9.5456,13.019-28.8533,19.644
			c-3.29,1.1308-6.6651,1.5756-9.9428,1.5756c-10.6275,0-20.2138-4.6804-22.4113-5.8312
			c-9.6999,3.3989-22.6869,8.3687-37.9411,15.6044c4.5727-0.8547,14.0944-2.3941,23.4005-2.3939
			c5.226,0.0001,10.385,0.4857,14.559,1.8508c20.2559,6.6469,33.5619,31.4388,33.5619,31.4388s-10.1476,3.8972-22.2965,3.8972
			c-6.3775,0-13.3065-1.074-19.6087-4.3494c-20.4736-10.6122-30.2278-26.0923-32.0727-29.2664
			c-16.0487,7.7491-34.4464,17.992-54.0497,31.4905c7.2864-2.5563,20.0306-6.4365,30.3191-6.4362
			c1.6033,0,3.1479,0.0943,4.602,0.3025c21.5494,3.0771,39.3,25.6417,39.3,25.6417s-14.4285,8.6727-30.561,8.6727
			c-3.8354,0-7.7674-0.4902-11.6244-1.7038c-21.1184-6.6202-33.4737-19.2356-36.8853-23.0981
			c-14.688,10.42-29.9736,22.6524-45.3971,37.0669c-1.1445,1.0114-2.2697,2.0963-3.4065,3.1373
			c8.0123-4.4814,22.7451-11.8365,33.7176-12.1896c0.4107-0.0136,0.8181-0.0203,1.2284-0.0202
			c21.7734,0.0017,42.8039,18.8333,42.8039,18.8333s-17.0052,14.7787-36.4256,14.7787c-1.568,0-3.1533-0.0965-4.7451-0.3048
			c-22.6072-2.9396-37.3225-13.6105-41.2624-16.7739c-14.5061,13.9263-28.2971,30.2789-40.9841,48.5
			c7.2924-5.9376,20.7015-15.834,31.5779-18.1191c2.8566-0.6003,5.7662-0.8618,8.6684-0.8618
			c19.633,0.0001,38.9104,11.9686,38.9104,11.9686s-16.8905,20.8647-38.7912,21.8438c-1.3983,0.0632-2.7719,0.0931-4.1216,0.0931
			c-20.5873,0-35.3672-6.9745-40.0068-9.474c-10.7019,15.9744-20.5259,33.3304-29.2151,51.7567
			c6.5921-7.2048,16.3601-16.6067,25.2965-20.1916c5.9054-2.3722,12.3286-3.2318,18.539-3.2316
			c16.3558,0.0003,31.2287,5.9633,31.2287,5.9633s-13.2563,23.9592-35.0953,28.8183c-7.3232,1.6367-14.1491,2.2355-20.2183,2.2355
			c-11.3211,0-20.0087-2.0837-24.3757-3.4011c-7.5232,17.1262-14.0851,35.0718-19.4124,53.666
			c5.3215-8.0999,12.8399-17.9612,20.5303-22.7383c9.8976-6.1526,22.3348-7.7097,32.3905-7.7095
			c10.3068,0.0001,18.1117,1.636,18.1117,1.636s-9.0892,26.4244-30.1707,35.18c-14.1308,5.8805-27.0138,7.2435-35.9249,7.2435
			c-3.4901,0-6.3714-0.2092-8.479-0.4379c-4.6261,18.3744-8.0276,37.2943-10.0833,56.5365
			c3.9117-9.1436,9.7885-20.6085,16.7732-26.8569c15.8928-14.2629,42.674-15.0674,48.5166-15.0673
			c0.7432,0,1.1485,0.013,1.1485,0.013s-4.4417,28.1672-24.092,40.7004c-18.4179,11.7771-35.9621,14.2295-43.5575,14.7211
			c-1.3515,18.7076-1.3592,37.6714,0.1252,56.7148c2.3044-9.9089,6.1972-22.594,12.1471-30.1556
			c15.1817-19.3389,47.2508-23.9315,47.2508-23.9315s0.5067,29.0948-17.0044,45.1733
			c-16.3552,15.0408-33.4939,20.6293-41.0832,22.4899c1.976,17.0572,5.1759,34.1345,9.7527,51.1048
			c0.7073-9.8663,2.4657-21.668,6.6672-29.5171c11.8252-22.1141,43.2508-32.4179,43.2508-32.4179s5.6716,29.1448-9.0656,48.3924
			c-13.4263,17.5514-29.1333,26.1955-36.6861,29.6068c4.7955,16.953,10.8772,33.267,17.9611,48.9509
			c-1.0813-10.1339-1.4699-22.569,1.4045-31.3489c7.9772-24.3146,37.7172-40.2397,37.7172-40.2397s10.8743,28.2816-0.5325,50.2404
			c-10.3259,19.9211-24.4932,31.373-31.5116,36.1775c7.5188,14.8269,15.9893,28.9939,25.2156,42.4893
			c-2.5419-9.4462-4.5712-20.4896-3.3524-28.9778c3.6845-25.8422,30.7529-47.1121,30.7529-47.1121s15.9396,26.4902,8.3809,50.5798
			c-6.5787,20.9723-18.1124,34.7484-24.5152,41.1903c9.7291,12.8389,20.1511,24.9648,31.0973,36.358
			c-3.9117-8.6476-7.4271-18.563-7.6941-26.736c-0.8485-26.6207,22.5736-52.7907,22.5736-52.7907s20.7125,23.7972,17.3707,49.3434
			c-2.8283,21.8075-11.6863,37.5173-17.0209,45.2946c11.5663,10.8683,23.6088,20.905,35.9329,30.1372
			c-5.3061-7.8535-10.3635-16.9095-12.0268-24.862c-5.5951-26.6002,13.3323-57.0543,13.3323-57.0543
			s25.0175,20.2501,26.1964,46.5079c1.0088,22.3633-5.0764,39.6857-9.0603,48.4677c13.7651,9.1841,27.7685,17.3315,41.8039,24.3667
			c-7.1885-7.2415-14.6199-16.0703-17.9185-24.3105c-10.3185-25.7543,3.28-59.7083,3.28-59.7083s28.7513,15.9133,34.5744,42.1009
			c5.0869,22.777,1.7941,41.5711-0.6785,50.9064c14.7273,6.3167,29.356,11.3497,43.6375,15.0729
			c-8.0858-5.8339-16.4125-12.9921-20.9294-20.2673c-14.9392-24.0427-7.266-60.5779-7.266-60.5779s31.7007,10.8948,42.1973,36.1782
			c8.5423,20.5562,9.1163,38.8801,8.4812,49.2101c20.7315,3.9426,42.7645,3.6804,56.4036,15.2421
			c23.4307,19.8619,12.2829,33.8963,2.5403,33.8963c-4.1232,0-7.995-2.5141-8.8871-8.164c-3-19-63.3799-29.6728-63.3799-29.6728
			c-4.7337,8.0844-16.2952,24.6785-37.5457,37.6541c-9.8281,5.9932-21.1847,7.7302-31.0502,7.7302
			c-13.6076,0-24.3774-3.3054-24.3774-3.3054s15.3045-34.0447,41.5244-44.7083c7.1716-2.9168,16.812-3.9216,25.9669-4.0575
			c-13.9256-4.4346-28.0808-10.0744-42.2472-16.8057c-6.2849,7.2158-20.0803,20.5974-42.0087,29.1857
			c-6.1624,2.4163-12.5848,3.3264-18.7645,3.3264c-18.8692,0-35.4718-8.4857-35.4718-8.4857s20.5603-30.2523,47.678-36.0783
			c3.0206-0.6483,6.3805-0.9216,9.9012-0.9216c5.3427,0.0001,11.0547,0.6296,16.5058,1.5332
			c-13.1789-7.3522-26.2537-15.6718-39.0739-24.8468c-6.8845,5.7204-22.7996,16.9619-46.3305,21.7096
			c-3.0412,0.6125-6.0807,0.8826-9.0774,0.8826c-22.4032,0-42.3877-15.0984-42.3877-15.0984s24.9795-25.696,52.1473-26.7054
			c0.4131-0.0153,0.8298-0.0228,1.2524-0.0228c8.2644,0.0003,18.2726,2.8717,27.0289,6.162
			c-12.7559-10.1429-25.1371-21.1855-36.9801-33.0452c-7.5056,4.3201-24.8957,12.6198-48.6393,13.1963
			c-0.346,0.0084-0.687,0.0125-1.0314,0.0125c-25.3041,0-46.2315-22.4835-46.2315-22.4835s24.038-17.3416,48.4115-17.3401
			c2.1639,0.0001,4.3335,0.1369,6.4861,0.4347c8.3188,1.1501,18.1164,5.9147,26.4576,10.8646
			c-11.1105-12.278-21.6313-25.3054-31.3613-39.0692c-6.1231,2.1979-17.9793,5.5612-33.2902,5.5612
			c-4.9013,0-10.157-0.3447-15.6916-1.1827c-24.9669-3.7808-41.7785-29.7255-41.7785-29.7255s19.2844-9.3342,39.6379-9.3327
			c5.441,0.0004,10.9628,0.6679,16.2078,2.3593c7.5853,2.446,15.9283,8.3976,22.9943,14.3964
			c-8.6736-13.7823-16.5791-28.1823-23.5251-43.1899c-3.5067,0.5757-8.6044,1.162-14.8508,1.162
			c-8.949,0-20.2553-1.2035-32.6159-5.3655c-23.4455-7.8968-35.2591-35.8064-35.2591-35.8064s11.9138-3.3726,26.3402-3.3724
			c9.3861,0.0001,19.8362,1.4279,28.7592,6.1409c6.6179,3.5056,13.344,10.2337,18.9933,16.9437
			c-5.7744-14.7359-10.6299-29.9795-14.4491-45.6948c-8.2185-0.0286-26.2176-1.4923-45.7291-12.1383
			c-21.2952-11.6177-27.9551-40.5589-27.9551-40.5589s3.018-0.3071,7.7776-0.307c10.953,0.0001,31.1239,1.6265,44.9277,12.3635
			c6.0828,4.7328,11.6976,12.9218,16.1185,20.7018c-3.6056-16.4017-5.9404-32.8449-7.2427-49.2269
			c-8.0604-1.4904-24.9212-6.0233-41.7175-19.4313C9.4804,445.0476,8,415.982,8,415.982s32.3095,2.3747,48.808,20.6028
			c4.9747,5.5081,8.9424,14.1621,11.8669,22.3024c-0.4291-17.1796,0.3328-34.2232,2.112-51.0225
			c-7.292-2.6526-23.2583-9.8756-37.5416-26.078c-15.3953-17.4761-11.8896-45.7809-11.8896-45.7809s30.7905,7.7913,43.5904,28.1849
			c4.2632,6.7925,6.6983,17.0647,8.0831,26.0783c2.7149-18.0784,6.6084-35.7896,11.5191-52.9846
			c-6.2063-3.4748-21.0376-13.1865-32.4897-31.9592c-11.9016-19.482-3.7109-46.2023-3.7109-46.2023s28.4003,12.7529,37.2875,34.6212
			c3.2569,8.0162,3.6557,19.7132,3.2775,29.1857c5.9437-18.3561,13.0005-36.0516,21.0244-52.8358
			c-5.4367-4.4464-18.0531-16.3324-25.8851-36.3337c-8.1527-20.8265,4.3164-45.2231,4.3164-45.2231s25.2219,17.1424,30.0824,39.7614
			c1.7431,8.1236,0.2356,19.1948-1.6855,28.1805c9.0233-17.235,19.04-33.371,29.7781-48.209
			c-4.674-5.5554-14.3456-18.9843-18.3801-38.9865c-4.3309-21.4951,11.8369-42.9187,11.8369-42.9187
			s21.4469,20.8455,22.2809,43.5012c0.2801,7.577-2.6016,17.1296-5.7323,25.1504c11.778-14.7768,24.2968-27.9431,37.2405-39.2874
			c-3.3704-5.608-11.0636-20.6101-11.5655-41.5377c-0.5329-21.4849,18.7372-39.4103,18.7372-39.4103
			s17.1423,23.7648,14.0784,45.7751c-1.2004,8.7352-7.1739,19.4169-12.2279,27.168c15.7863-13.7335,31.3119-25.2928,46.1273-35.0349
			c-2.1292-5.2816-7.6435-21.634-4.4256-42.8738c3.1659-20.8134,24.8005-34.8394,24.8005-34.8394s12.4983,25.8512,5.8116,46.5723
			c-2.922,9.0556-11.8219,19.4037-18.2646,26.0551c19.3239-12.0864,37.2076-21.0527,52.5836-27.683
			c-1.0938-4.9557-3.9436-22.0055,2.9563-42.5096C318.97,17.8444,342.2668,8,342.2668,8 M342.2668,0
			c-1.0581,0-2.1172,0.2098-3.1138,0.6309c-1.0869,0.4592-26.7067,11.5095-34.3362,34.2336
			c-5.6403,16.7611-5.2909,31.5818-4.2636,40.2349c-5.9206,2.671-11.825,5.5177-17.6951,8.5308
			c7.325-23.4226-5.7774-50.969-6.3418-52.1362c-0.9991-2.0665-2.8377-3.6043-5.0482-4.2224
			c-0.7081-0.1979-1.4328-0.2955-2.1537-0.2955c-1.5297-0.0001-3.0433,0.4387-4.3524,1.2874
			c-1.0065,0.6525-24.6932,16.2585-28.3576,40.3489c-2.6681,17.6113,0.1236,32.1292,2.7513,40.8593
			c-5.4993,3.7336-10.9434,7.6176-16.32,11.6426c3.1348-24.7203-14.8152-49.9442-15.5864-51.0132
			c-1.3424-1.8611-3.4193-3.056-5.7028-3.2812c-0.2623-0.0259-0.5248-0.0387-0.7859-0.0387
			c-2.0119-0.0001-3.9611,0.7592-5.4482,2.1424c-0.8945,0.8322-21.9012,20.6646-21.286,45.4663
			c0.4207,17.5432,5.5361,31.3682,9.5369,39.5858c-4.6176,4.2365-9.1659,8.689-13.627,13.3394
			c-2.1291-24.6162-23.6193-45.7722-24.5603-46.6868c-1.4987-1.4567-3.5014-2.2634-5.5752-2.2634
			c-0.2036,0-0.4079,0.0078-0.6125,0.0235c-2.2884,0.1754-4.3912,1.3254-5.7737,3.1575c-0.7487,0.9919-18.278,24.58-13.2937,49.3178
			c3.4486,17.0972,10.6286,29.7794,16.2588,37.6095c-3.6974,5.2817-7.2891,10.6941-10.7644,16.2202
			c-6.3586-24.463-31.8407-42.0187-32.9499-42.7726c-1.339-0.9101-2.9085-1.3835-4.4973-1.3836
			c-0.6632-0.0001-1.3295,0.0824-1.9841,0.2501c-2.2231,0.5693-4.0947,2.0659-5.1389,4.1092
			c-0.5761,1.1271-13.9997,27.8766-4.6425,51.7801c6.7168,17.1533,16.7963,28.908,23.561,35.4144
			c-2.6456,5.745-5.1794,11.5876-7.5941,17.5098c-10.4286-23.8507-39.685-37.2103-40.9445-37.7758
			c-1.0422-0.468-2.1599-0.702-3.2771-0.702c-1.127-0.0001-2.2536,0.2379-3.3033,0.7139c-2.0901,0.9476-3.6728,2.7474-4.3453,4.9416
			c-0.3776,1.2316-9.0893,30.4191,4.5327,52.7173c9.8154,16.0898,22.0573,26.1153,29.9997,31.4353
			c-1.5849,5.86-3.0467,11.7547-4.3819,17.667c-14.7482-21.841-46.1744-30.0045-47.5312-30.3479
			c-0.6475-0.1638-1.3067-0.2444-1.9622-0.2444c-1.597-0.0001-3.1735,0.4782-4.5166,1.3967
			c-1.8943,1.2956-3.1409,3.3424-3.4231,5.62c-0.1612,1.3016-3.746,32.1055,13.826,52.0524
			c12.3019,13.9548,25.7106,21.7857,34.9979,25.9459c-0.5007,5.4913-0.8901,10.9784-1.1674,16.4446
			C42.31,410.687,9.9934,408.107,8.5864,408.0035c-0.196-0.0144-0.3916-0.0215-0.5867-0.0215c-2.0826,0-4.0925,0.8133-5.5926,2.2799
			c-1.6405,1.6041-2.5135,3.8355-2.3967,6.1271c0.0679,1.3336,1.9067,32.8563,23.0509,49.7445
			c14.6324,11.6805,29.3322,17.1622,39.249,19.7144c0.4541,4.7969,0.9947,9.5638,1.6199,14.2864
			c-15.5674-10.9748-36.5591-12.6588-47.9622-12.6589c-5.1069,0-8.4477,0.334-8.5875,0.3481
			c-2.2835,0.2324-4.3572,1.4343-5.6939,3.3001c-1.3365,1.866-1.8073,4.216-1.2927,6.4528
			c0.3049,1.3249,7.7447,32.5988,31.92,45.7877c16.9218,9.2331,32.7849,12.1046,43.2652,12.87
			c1.1347,4.3453,2.3543,8.6813,3.6573,13.003c-8.5404-4.0811-18.8424-6.1472-30.6654-6.1473
			c-15.3605-0.0001-27.9893,3.5248-28.5195,3.6749c-2.2081,0.6251-4.0415,2.1683-5.034,4.2375
			c-0.9925,2.0692-1.0487,4.4651-0.1541,6.5784c0.5396,1.2749,13.5217,31.3268,40.0727,40.2695
			c11.3984,3.8381,23.2309,5.784,35.1695,5.784c3.4401,0,6.8197-0.1614,10.1048-0.4817c1.9314,4.0048,3.9482,8.0041,6.0447,11.9873
			c-5.2022-1.4822-10.9033-2.233-16.9754-2.2332c-21.9357-0.0016-42.2688,9.718-43.1236,10.1318
			c-2.0652,0.9996-3.6019,2.8378-4.2195,5.0475c-0.6175,2.2097-0.2567,4.5782,0.9911,6.5037
			c0.7664,1.1827,19.0931,29.0143,47.2944,33.2849c5.5792,0.8445,11.2615,1.2728,16.8895,1.2728
			c12.5896,0,23.0895-2.1486,30.1835-4.1713c2.6314,3.6097,5.3403,7.2012,8.1179,10.7631
			c-2.1409-0.2542-4.3542-0.3831-6.5931-0.3832c-26.6519-0.0015-52.0255,18.0824-53.0925,18.8522
			c-1.8612,1.3427-3.0561,3.4202-3.2809,5.704c-0.2249,2.284,0.542,4.5545,2.1056,6.2344
			c0.9513,1.0222,23.6276,25.0331,52.0875,25.0331c0.4092,0,0.8144-0.0049,1.2255-0.015
			c20.7731-0.5044,37.0252-6.4607,47.0046-11.371c3.1584,3.0794,6.3642,6.1135,9.6122,9.0977
			c-29.9316,1.2442-56.2481,27.9745-57.3565,29.1147c-1.5993,1.6452-2.4153,3.8978-2.2405,6.1857
			c0.1748,2.2878,1.3236,4.3905,3.1543,5.7736c0.9035,0.6826,22.4097,16.7153,47.2103,16.7153c3.6451,0,7.2305-0.3499,10.6569-1.04
			c20.6499-4.1665,35.8602-12.9644,44.9766-19.6024c3.2723,2.2758,6.5624,4.4984,9.8654,6.6644
			c-29.4483,6.8557-50.8148,37.8725-51.7187,39.2025c-1.2899,1.8979-1.7027,4.2584-1.1333,6.4813
			c0.5692,2.2231,2.0657,4.0945,4.1091,5.139c0.7479,0.3823,18.5539,9.3622,39.1127,9.3622c7.8253,0,15.1212-1.3049,21.6847-3.8784
			c19.5188-7.6447,33.0788-18.8839,40.9893-26.924c3.3111,1.5105,6.6204,2.9617,9.9251,4.3528
			c-27.9561,12.3104-43.6996,46.7446-44.3668,48.2288c-0.9409,2.0933-0.9376,4.49,0.0092,6.5807
			c0.9469,2.0906,2.7461,3.674,4.9401,4.3474c0.4867,0.1493,12.0854,3.6576,26.7248,3.6576c13.6825,0,25.5306-2.9944,35.2152-8.9
			c18.9732-11.5851,30.7684-25.8542,37.2307-35.5631c5.6131,1.1886,14.9854,3.3718,24.3798,6.4434
			c25.844,8.4498,27.2027,15.2697,27.2479,15.5559c1.4088,8.9219,8.1559,14.9163,16.7892,14.9163
			c8.0536,0,15.3448-5.1257,18.1432-12.7548c2.3091-6.2948,3.3644-19.244-15.5105-35.244
			c-11.9733-10.1497-28.6071-12.425-44.6931-14.6252c-2.8672-0.3922-5.7891-0.7919-8.6934-1.2371
			c-0.0455-11.9808-1.9959-28.0198-9.2838-45.5573c-11.7419-28.283-45.5512-40.1813-46.9847-40.6739
			c-0.8458-0.2907-1.7244-0.4344-2.5999-0.4344c-1.3703,0-2.7328,0.3519-3.9501,1.0431c-1.9951,1.1326-3.4077,3.0674-3.8793,5.3126
			c-0.0877,0.4176-0.6714,3.277-1.2077,7.7434c-9.3135-25.0767-35.2319-39.6721-36.4271-40.3337
			c-1.1988-0.6635-2.5334-1.0005-3.8743-1.0005c-0.905,0-1.8128,0.1535-2.684,0.4638c-2.1619,0.7701-3.8891,2.4314-4.7422,4.562
			c-0.1795,0.4482-1.5475,3.9216-3.0827,9.3281c-3.5957-27.2308-27.6815-47.0233-28.7589-47.8955
			c-1.4345-1.1611-3.2143-1.7818-5.0332-1.7818c-0.4428,0-0.8879,0.0368-1.3309,0.1115c-2.2627,0.3817-4.2525,1.7167-5.4639,3.6656
			c-0.2746,0.4419-2.5562,4.1609-5.2921,9.9935c2.6837-28.0693-18.5438-52.821-19.467-53.8818
			c-1.5067-1.7311-3.6841-2.7316-5.9791-2.7476c-0.0183-0.0002-0.0371-0.0002-0.0554-0.0002
			c-2.2748-0.0001-4.4428,0.9684-5.9611,2.6649c-0.3831,0.428-3.9281,4.4365-8.2145,10.7959
			c0.1171-0.3606,0.2329-0.7233,0.3473-1.0879c8.5381-27.2111-8.4328-55.8913-9.1593-57.0989
			c-1.1831-1.9661-3.1535-3.3296-5.4104-3.7439c-0.4802-0.0881-0.9636-0.1315-1.4444-0.1315c-1.7788,0-3.5225,0.5936-4.9428,1.7098
			c-0.4529,0.3558-4.7286,3.7567-10.114,9.3807c0.3553-0.653,0.7073-1.3152,1.0548-1.9858
			c12.9156-24.8632,1.3939-55.501,0.8971-56.793c-0.8236-2.142-2.5275-3.8271-4.6785-4.6272
			c-0.902-0.3354-1.8466-0.5017-2.7882-0.5018c-1.3037-0.0001-2.6021,0.3185-3.7768,0.9475
			c-0.5522,0.2957-6.2795,3.4067-13.4241,8.8812c1.0626-1.2639,2.1168-2.5759,3.158-3.937
			c16.7311-21.8517,10.824-53.447,10.5643-54.7812c-0.4384-2.2528-1.8232-4.2088-3.8023-5.3708
			c-1.2412-0.7287-2.6414-1.101-4.0508-1.1011c-0.8379,0-1.6789,0.1316-2.492,0.3981c-0.6953,0.228-9.1512,3.0577-19.12,8.8342
			c2.8049-2.0946,5.632-4.4209,8.4403-7.0035c19.928-18.2977,19.6111-49.8662,19.5879-51.2012
			c-0.04-2.2949-1.0637-4.4621-2.8111-5.9505c-1.4564-1.2408-3.2987-1.9101-5.1876-1.9102c-0.3772,0-0.7561,0.0267-1.1343,0.0808
			c-1.4088,0.2018-34.0225,5.0827-51.3143,25.5661c0.0854-4.3457,0.2466-8.6964,0.4832-13.0448
			c10.1197-1.4895,24.9006-5.358,40.3093-15.2111c22.4235-14.302,27.4803-44.8987,27.6847-46.1942
			c0.3568-2.2631-0.2835-4.5708-1.7415-6.3379c-1.4581-1.7671-3.6136-2.8247-5.9032-2.9041c0,0-0.4963-0.0172-1.4063-0.0172
			c-7.8772,0-34.2383,1.1497-51.9738,15.5062c0.9071-4.5916,1.8931-9.163,2.9569-13.7081c0.7572,0.0183,1.5207,0.0276,2.2895,0.0276
			c9.1771,0,23.3924-1.3632,38.9984-7.8575c24.1243-10.0193,34.2431-38.7459,34.662-39.9639
			c0.7465-2.1702,0.5251-4.5566-0.6083-6.5524c-1.1333-1.9959-3.0692-3.4087-5.3155-3.8796
			c-0.3519-0.0737-8.7433-1.8061-19.7529-1.8061c-13.5454-0.0001-25.0243,2.5197-34.1735,7.4954
			c1.6983-4.4585,3.4752-8.8952,5.3282-13.3034c5.0699,1.047,11.8277,1.991,19.7127,1.991c7.3648,0,14.7544-0.817,21.9633-2.4283
			c25.0611-5.5759,39.7377-31.6456,40.3503-32.7527c1.1107-2.0073,1.3061-4.395,0.5365-6.5564
			c-0.7696-2.1613-2.43-3.8881-4.5595-4.742c-0.6657-0.2669-16.5095-6.5376-34.2056-6.5378
			c-7.326-0.0001-14.0226,1.0771-19.9347,3.2045c2.6566-4.5336,5.389-8.9846,8.1916-13.3431
			c8.008,3.335,20.9093,7.2791,37.1292,7.2791c1.4884,0,2.9965-0.034,4.4828-0.1012c25.2028-1.1267,43.8659-23.8359,44.648-24.802
			c1.4443-1.7842,2.0525-4.1027,1.6703-6.366s-1.7184-4.2535-3.6685-5.4643c-0.8663-0.5377-21.4648-13.1718-43.1301-13.172
			c-3.3504,0-6.6024,0.3039-9.677,0.9039c3.6946-4.1764,7.4444-8.1838,11.2446-12.0161
			c7.6455,4.9297,21.2409,11.9388,39.4011,14.3002c1.8824,0.2462,3.828,0.3716,5.7767,0.3716
			c22.1561,0,40.8868-16.0568,41.6733-16.7404c1.7327-1.5057,2.7351-3.6835,2.752-5.9789c0.0171-2.2956-0.9529-4.4879-2.6631-6.0192
			c-0.9449-0.8461-23.2641-20.5839-47.6079-20.8703c4.109-3.2567,8.2697-6.4316,12.471-9.5157
			c6.5963,6.0378,18.4622,14.9571,35.3462,20.25c4.3632,1.3726,9.082,2.0699,14.0175,2.0699c18.1432,0,34.0156-9.4152,34.6824-9.816
			c1.9679-1.1828,3.3327-3.1542,3.7471-5.4125c0.4145-2.2582-0.1613-4.5858-1.5808-6.3904
			c-0.7907-1.0051-19.3014-24.2325-43.0913-28.3981c4.6066-2.5654,9.2426-5.0273,13.9022-7.3823
			c5.3396,7.1249,15.291,17.8917,31.1212,26.097c6.6959,3.4802,14.5344,5.2468,23.2901,5.2468
			c13.4774,0,24.6939-4.2482,25.1647-4.4291c2.1441-0.8235,3.8309-2.5287,4.631-4.6816c0.8-2.153,0.636-4.546-0.4501-6.5697
			c-0.497-0.926-10.3534-19.0167-26.6213-29.6389c2.662,0.4633,5.4916,0.7532,8.4035,0.7532c4.4425,0,8.6627-0.6763,12.5432-2.01
			c21.4296-7.3531,32.2543-21.8651,32.7045-22.4792c1.4752-2.012,1.9273-4.597,1.2225-6.9904
			c-0.7048-2.3934-2.4859-4.3208-4.8161-5.212c-0.692-0.2648-17.0983-6.4824-30.2251-6.4828c-2.063,0-4.0017,0.1515-5.7625,0.4501
			c-8.3738,1.437-15.8105,5.7568-21.7044,10.401c6.4242-20.1472,0.0952-43.144-0.2123-44.2342
			c-0.6229-2.2092-2.1651-4.0444-4.2339-5.0388C344.6388,0.264,343.4534,0,342.2668,0L342.2668,0z M88.4087,493.5866
			c5.3555-1.7819,11.9632-4.507,19.0751-8.6372c-6.6314,5.0096-13.0306,11.2928-17.5238,18.9405
			C89.3927,500.4688,88.8752,497.0323,88.4087,493.5866L88.4087,493.5866z M103.1002,559.1356
			c3.9017-2.1375,8.4759-4.9885,13.3203-8.7029c-4.241,5.2191-7.9806,11.1517-10.4309,17.7023
			C104.9786,565.1333,104.0151,562.1327,103.1002,559.1356L103.1002,559.1356z M128.8118,621.1093
			c3.0526-2.4531,6.5132-5.5287,10.1069-9.2805c-2.6812,5.226-4.834,10.8845-5.98,16.8282
			C131.5277,626.1473,130.1518,623.6311,128.8118,621.1093L128.8118,621.1093z M165.514,677.3831
			c2.3775-2.7714,5.012-6.1392,7.6754-10.0961c-1.5397,5.2145-2.5598,10.6927-2.7247,16.271
			C168.7894,681.5107,167.1385,679.4516,165.514,677.3831L165.514,677.3831z M211.7097,727.0456
			c1.5262-2.6013,3.1554-5.6331,4.7641-9.068c-0.345,4.4944-0.2841,9.0802,0.3458,13.633
			C215.0992,730.0995,213.3946,728.5767,211.7097,727.0456L211.7097,727.0456z M265.6711,768.5259
			c0.9364-2.5093,1.8952-5.3643,2.7971-8.5346c0.5446,4.0672,1.4444,8.1276,2.7998,12.0726
			C269.3961,770.9024,267.5306,769.7231,265.6711,768.5259L265.6711,768.5259z M326.11,800.1555
			c0.4346-2.2642,0.8429-4.7814,1.1793-7.5201c1.2128,3.3488,2.6949,6.6254,4.4964,9.7551
			C329.8938,801.6664,328.0018,800.9214,326.11,800.1555L326.11,800.1555z"/>
	</g>
</g>
</svg>
