<?xml version="1.0" encoding="utf-8"?>
<!-- Generator: Adobe Illustrator 21.0.0, SVG Export Plug-In . SVG Version: 6.00 Build 0)  -->
<svg version="1.1" id="wreath-line-4" xmlns="http://www.w3.org/2000/svg" xmlns:xlink="http://www.w3.org/1999/xlink" x="0px"
	 y="0px" viewBox="0 0 1068.6453 824.2943" enable-background="new 0 0 1068.6453 824.2943" xml:space="preserve">
<g id="change1">
	<polygon fill="#13BFB6" points="224.6892,235.1076 224.6836,235.1085 224.6884,235.1126 	"/>
	<path fill="#13BFB6" d="M26.0617,258.3165c-2.0795,24.1606,3.5356,44.1824,12.6692,60.4863
		c7.5444,12.5426,18.1584,24.7292,31.7732,36.5678c12.0771,9.6478,23.7432,15.9626,30.8234,19.3486
		c-0.5231,8.3719-0.7838,16.8029-0.7838,25.2841c0,21.0064,1.6088,41.6548,4.709,61.8431C79.3372,391.1216,0,382.7615,0,382.7615
		c2.6023,31.1395,15.4708,54.406,31.6483,71.6296c0.129,0.1353,0.2556,0.2716,0.3854,0.4067
		c0.163,0.172,0.3289,0.3383,0.4926,0.5091c5.3577,5.5157,11.3697,10.7846,18.0695,15.7941
		c0.1526,0.1122,0.3047,0.2277,0.4574,0.3392c0.1641,0.1218,0.3315,0.2424,0.4965,0.364
		c29.545,21.3848,60.8018,27.8975,61.421,28.025c6.4403,25.3964,15.2794,49.9034,26.2831,73.29
		c-30.7766-36.7772-71.5905-44.3847-100.0835-44.3858c-20.0996-0.0008-34.0651,3.7835-34.0651,3.7835
		c12.4927,23.2195,29.3964,38.801,47.3931,49.1882c0.3312,0.1896,0.6599,0.3826,0.993,0.5696
		c0.5758,0.3256,1.1522,0.6479,1.73,0.963c1.1981,0.6494,2.4061,1.285,3.6285,1.9009c0.1866,0.0944,0.3729,0.1908,0.5596,0.2841
		c1.4714,0.733,2.9586,1.4444,4.465,2.1295c0.0225,0.0103,0.045,0.0211,0.0676,0.0312c1.5277,0.6938,3.075,1.361,4.6384,2.0058
		c0.1769,0.0726,0.3538,0.142,0.5307,0.2138c1.2061,0.4919,2.4272,0.9631,3.6543,1.4261c0.829,0.3104,1.6577,0.614,2.4857,0.907
		c0.0856,0.0306,0.1722,0.0598,0.2579,0.0903c21.4635,7.5501,42.5177,9.3739,57.8395,9.3739c9.0535,0,16.0996-0.6355,20.0532-1.1016
		c6.3779,11.2913,13.2819,22.2737,20.6728,32.9241c-23.8346-12.5505-48.3287-16.351-69.2506-16.3514
		c-32.1244-0.0006-55.8314,8.958-55.8314,8.958c36.5898,54.5949,92.9155,65.8199,133.0385,65.8199
		c15.7668,0,29.0254-1.7318,37.6105-3.2463c76.3464,78.2341,183.3409,129.0772,302.843,135.2997l11.2343,0.3534v0.0381h1.2083
		v-0.0381l11.2343-0.3534c119.5021-6.2225,226.4966-57.0656,302.843-135.2997c8.5833,1.5141,21.8481,3.2463,37.6105,3.2463
		c40.1237,0,96.4457-11.2204,133.0385-65.8199c0,0-23.712-8.9568-55.8314-8.958c-20.9242-0.0008-45.4124,3.799-69.2507,16.3514
		c7.3909-10.6503,14.2949-21.6327,20.6728-32.9241c3.9525,0.4659,11.0035,1.1016,20.0532,1.1016
		c33.902,0,95.8729-8.9183,128.2432-69.0835c0,0-13.9702-3.7835-34.0652-3.7835c-28.4935,0-69.3037,7.6049-100.0835,44.3858
		c11.0037-23.3866,19.8428-47.8936,26.2831-73.2904c1.1339-0.2335,105.0154-21.8748,112.9705-117.0677
		c0,0-79.3372,8.3602-105.2527,79.0849c3.1001-20.1883,4.709-40.8369,4.709-61.8431c0-8.4812-0.2607-16.9122-0.7838-25.2841
		c20.837-9.9651,81.3888-45.2617,75.2657-116.4028c0,0-63.9329,17.2888-79.5094,77.7977
		c-3.2137-20.2477-7.9575-40.0152-14.0829-59.2155c0.0055,0.0076,0.0098,0.0148,0.0152,0.0222c0,0,66.675-70.2246,15.9028-141.4823
		c0,0-49.6034,47.6599-27.25,110.37c-11.2963-27.5189-25.5242-53.6412-42.3271-78.0257
		c11.5645-17.268,35.8407-63.4835,2.8588-109.7712c0,0-14.9732,14.3934-22.6691,37.1957c-1.4238,4.8285-2.6272,9.9008-3.6425,15.181
		c-1.2185,8.5005-1.1741,17.7636,0.9182,27.5866c-6.6525-8.0493-13.6097-15.8617-20.8463-23.4321l1.1743,0.3823l0.1608-0.4938
		c0.6958,0.7893,1.411,1.5785,2.15,2.3682c0,0,32.019-52.0222-8.3649-96.6717c0,0-29.0376,37.6147-4.2571,79.9379
		c-6.1102-5.4412-14.3946-11.7995-24.5472-17.22c-6.3782-5.3988-12.9351-10.6126-19.6345-15.6677
		C794.8741,58.4312,767.326,0.0023,702.2114,0c-0.6548,0-1.3232,0.023-1.9846,0.0349c-0.003,2.4424,0.2411,4.861,0.7206,7.2569
		c3.3968,8.2049,10.4625,22.0719,23.1362,34.532c5.0123,4.4532,10.7011,8.8411,16.9408,13.1758
		c13.1355,7.9178,29.9653,13.4539,51.3658,13.4539c2.188,0,4.415-0.0575,6.6994-0.1763c0,0-0.0711-0.1823-0.2094-0.5151
		c5.4827,4.3424,10.8627,8.7942,16.1078,13.3823c-12.3225-6.0748-27.1479-10.5942-43.9874-10.5947
		c-10.0093-0.0003-20.7286,1.596-32.0615,5.4112c0,0,5.8449,9.3556,17.3434,19.3674c9.7097,7.9639,19.7321,13.9642,30.0431,18.152
		c9.2876,3.4944,19.9114,5.764,31.8582,5.764c9.4783,0,19.7761-1.4235,30.9041-4.7912
		c9.0399,9.8706,17.5576,20.1662,25.5961,30.8168c2.1691,6.9571,5.3886,14.1487,9.9265,21.5125l6.1762,7.2848
		c0.4806-0.6038,1.1917-1.5205,2.0792-2.7366c7.4879,11.6907,14.383,23.7631,20.6487,36.1779
		c-14.5604-19.6755-45.1133-50.4748-93.6739-50.4774c-4.8412-0.0003-9.8628,0.3181-15.0635,0.9716
		c1.7787,4.7234,3.666,9.1696,5.6586,13.3467c11.4874,19.5229,39.2455,53.7502,92.6942,53.7502
		c5.7554,0,11.8006-0.3961,18.1635-1.2505c10.0302,22.3104,18.0757,45.6208,23.9037,69.7354
		c-15.9247-24.0078-45.9904-53.7037-97.3138-53.9466c0,0,16.092,79.5934,103.3286,83.7909
		c3.3372,20.6736,5.0928,41.8368,5.0928,63.3988c0,8.5452-0.2792,17.0275-0.8188,25.4427
		c-7.3511-29.8082-27.4775-72.7645-82.4854-89.7481c-0.7014,7.997-0.7919,15.6829-0.2567,23.0502
		c3.4331,28.3846,18.6871,75.0616,79.8375,95.4709c-4.5119,32.6702-13.0271,64.1423-25.0214,93.9829
		c0.6455-34.524-8.9382-85.5932-63.1277-118.416c0,0-37.6765,91.6154,49.1466,149.5189
		c-16.5414,32.7864-37.5455,63.1279-62.1552,90.458c14.2858-34.4475,30.3561-101.1555-23.739-159.4006
		c0,0-71.4054,88.8986,6.8929,177.078c-4.7684,4.7234-9.653,9.3397-14.6495,13.8449
		c-80.9626,73.0023-183.2838,109.5035-285.605,109.5035s-204.6424-36.5012-285.605-109.5035
		c-4.9963-4.5052-9.8809-9.1215-14.6494-13.8449c78.2983-88.1794,6.8929-177.078,6.8929-177.078
		c-54.0951,58.2452-38.0248,124.9531-23.739,159.4006c-24.6097-27.3301-45.6138-57.6716-62.1552-90.458
		c86.8227-57.9034,49.1464-149.5188,49.1464-149.5188c-54.1895,32.8228-63.7732,83.892-63.1277,118.416
		c-11.9943-29.8406-20.5096-61.3127-25.0214-93.9829c90.9289-30.3481,80.3785-118.7789,80.3785-118.7789
		c-16.082,4.8603-29.1931,11.9384-39.9081,20.2578c-5.4124,4.5077-10.5939,9.4312-15.5828,14.7016
		c-15.6987,17.9474-23.7159,38.5172-27.7922,55.0465c-0.5396-8.4152-0.8188-16.8975-0.8188-25.4427
		c0-21.562,1.7556-42.7252,5.0928-63.3988c87.2366-4.1975,103.3286-83.7909,103.3286-83.7909
		c-17.364,0.0822-32.2867,3.5431-45.0599,9.007c-1.4587,0.634-2.908,1.2986-4.3546,1.9727
		c-22.5893,10.8763-37.9862,28.022-47.8993,42.9669c5.828-24.1147,13.8735-47.4251,23.9037-69.7354
		c6.3575,0.8536,12.4125,1.2505,18.1635,1.2505c74.782,0,99.2736-66.9896,99.2736-66.9896
		c-5.529-0.7356-10.8588-1.0788-15.9842-1.079c-48.5664-0.0015-79.1124,30.8007-93.6739,50.4774
		c6.2656-12.4148,13.1607-24.4873,20.6487-36.1779c1.6836,2.3067,2.7571,3.5698,2.7571,3.5698
		c7.5602-10.2086,12.465-20.1372,15.4248-29.6304c8.0384-10.6507,16.5562-20.9462,25.5961-30.8168
		c11.1236,3.3664,21.4289,4.7912,30.904,4.7912c52.226,0,79.2448-43.2834,79.2448-43.2834
		c-11.3311-3.8146-22.0537-5.411-32.0616-5.4112c-16.8416-0.0005-31.6637,4.5193-43.9874,10.5947
		c5.245-4.5882,10.625-9.0399,16.1078-13.3823c-0.1384,0.3328-0.2094,0.5151-0.2094,0.5151
		c2.2795,0.1186,4.5159,0.1763,6.6994,0.1763c71.4966,0,92.0291-61.7254,93.9001-67.8847c0.0001-0.1677,0.0027-0.3351,0.0005-0.5031
		c-1.2513-0.0422-2.4977-0.0654-3.7219-0.0656C301.311-0.0048,273.772,58.4308,270.0126,67.178
		c-6.6994,5.0551-13.2563,10.269-19.6345,15.6677c-10.1525,5.4204-18.4368,11.7788-24.5472,17.22
		c24.7804-42.3233-4.2571-79.9379-4.2571-79.9379c-8.7584,9.6836-14.1075,19.7136-17.1199,29.4848
		c-1.7105,6.519-2.8147,13.1169-3.2452,19.802c-0.7952,26.5831,12.0002,47.3849,12.0002,47.3849
		c0.7389-0.7897,1.4541-1.579,2.15-2.3682l0.1608,0.4938l1.1743-0.3823c-7.2366,7.5704-14.1938,15.3827-20.8463,23.4321
		c9.8238-46.1219-25.3934-79.9634-25.3934-79.9634c-32.9818,46.2877-8.7057,92.5032,2.8588,109.7712
		c-16.8029,24.3845-31.0308,50.5068-42.3271,78.0257c22.3534-62.7101-27.2501-110.37-27.2501-110.37
		c-12.3814,17.3771-17.7656,34.6896-18.8483,50.9404c-0.2747,5.7576-0.1356,11.4925,0.3915,17.2062
		c4.6398,42.0217,34.3596,73.3356,34.3596,73.3356c0.0054-0.0074,0.0097-0.0146,0.0153-0.0222
		c-6.1254,19.2003-10.8692,38.9678-14.0829,59.2155c-15.575-60.5032-79.4972-77.7944-79.5092-77.7977
		C26.0619,258.3164,26.0618,258.3164,26.0617,258.3165L26.0617,258.3165z M852.3974,113.396
		c0.1674,0.195,0.3323,0.3901,0.5026,0.5852l-1.1599-0.3775C851.9588,113.5343,852.1783,113.4646,852.3974,113.396z
		 M215.7457,113.9812c0.1702-0.1951,0.3351-0.3901,0.5025-0.5852c0.2191,0.0686,0.4386,0.1383,0.6573,0.2077L215.7457,113.9812z"/>
	<polygon fill="#13BFB6" points="335.4927,74.3813 335.4853,74.3792 335.4877,74.3872 	"/>
	<polygon fill="#13BFB6" points="219.5173,14.499 219.5118,14.4932 219.506,14.5034 	"/>
	<polygon fill="#13BFB6" points="100.3417,130.4992 100.3368,130.4948 100.3314,130.5059 	"/>
</g>
</svg>
