<?xml version="1.0" encoding="utf-8"?>
<!-- Generator: Adobe Illustrator 21.0.0, SVG Export Plug-In . SVG Version: 6.00 Build 0)  -->
<svg version="1.1" id="wreath-illustration" xmlns="http://www.w3.org/2000/svg" xmlns:xlink="http://www.w3.org/1999/xlink"
	 x="0px" y="0px" viewBox="0 0 980.5386 891.2534" enable-background="new 0 0 980.5386 891.2534" xml:space="preserve">
<g id="change1">
	<path fill="#16A086" d="M973.1581,489.8237c-1.4346-0.1436-34.4268-3.291-56.5488,12.3105
		c0.625-4.7236,1.165-9.4893,1.6191-14.2861c9.917-2.5518,24.6152-8.0332,39.25-19.7139
		c21.1436-16.8887,22.9824-48.4111,23.0498-49.7446c0.1172-2.292-0.7559-4.5229-2.3965-6.1274
		c-1.6396-1.6035-3.8906-2.4253-6.1787-2.2583c-1.4072,0.1035-33.7246,2.6836-52.4873,21.4619
		c-0.2773-5.4673-0.666-10.9531-1.167-16.4448c9.2871-4.1602,22.6963-11.9907,34.998-25.9458
		c17.5723-19.9468,13.9873-50.751,13.8262-52.0527c-0.2822-2.2773-1.5293-4.3242-3.4229-5.6201
		c-1.8955-1.2954-4.251-1.7163-6.4795-1.1519c-1.3564,0.3433-32.7832,8.5063-47.5312,30.3477
		c-1.335-5.9121-2.7969-11.8066-4.3818-17.6665c7.9424-5.3203,20.1836-15.3452,30-31.4355
		c13.6211-22.2983,4.9102-51.4858,4.5322-52.7178c-0.6719-2.1943-2.2549-3.9937-4.3447-4.9414
		c-2.0908-0.9478-4.4883-0.9526-6.5811-0.0117c-1.2588,0.5654-30.5156,13.9248-40.9443,37.7764
		c-2.4141-5.9224-4.9482-11.7661-7.5938-17.5103c6.7646-6.5063,16.8438-18.2612,23.5605-35.4146
		c9.3574-23.9038-4.0664-50.6528-4.6426-51.7798c-1.0439-2.0435-2.915-3.54-5.1387-4.1094
		c-2.2217-0.5693-4.584-0.1562-6.4814,1.1338c-1.1094,0.7534-26.5908,18.3096-32.9492,42.7725
		c-3.4756-5.5264-7.0674-10.939-10.7646-16.2202c5.6299-7.8306,12.8105-20.5127,16.2588-37.6099
		c4.9844-24.7378-12.5459-48.3257-13.2939-49.3179c-1.3828-1.832-3.4854-2.9814-5.7734-3.1572
		c-2.2969-0.1729-4.543,0.6406-6.1885,2.2397c-0.9404,0.9146-22.4316,22.0708-24.5605,46.687
		c-4.4619-4.6514-9.0078-9.1021-13.626-13.3394c4-8.2183,9.1162-22.0435,9.5361-39.5859
		c0.6162-24.8013-20.3906-44.6338-21.2861-45.4658c-1.6787-1.5625-3.9541-2.3286-6.2334-2.104
		c-2.2832,0.2251-4.3604,1.4204-5.7031,3.2812c-0.7705,1.0688-18.7217,26.293-15.5859,51.0132
		c-5.376-4.0244-10.8223-7.9102-16.3203-11.6431c2.6279-8.73,5.4199-23.2476,2.751-40.8584
		c-3.6631-24.0908-27.3506-39.6968-28.3574-40.3496c-1.9258-1.2495-4.2979-1.6094-6.5059-0.9917
		c-2.2109,0.6182-4.0488,2.1558-5.0479,4.2227c-0.5645,1.167-13.667,28.7134-6.3418,52.1362
		c-5.8701-3.0132-11.7744-5.8604-17.6953-8.5312c1.0273-8.6528,1.376-23.4731-4.2637-40.2349
		c-7.6299-22.7241-33.249-33.7739-34.3359-34.2334c-2.1152-0.8931-4.5117-0.8359-6.5801,0.1587s-3.6104,2.8296-4.2334,5.0391
		c-0.3076,1.0903-6.6367,24.0869-0.2129,44.2344c-5.8936-4.6445-13.3311-8.9648-21.7041-10.4014
		c-13.6143-2.3101-33.7383,5.1724-35.9883,6.0322c-2.3301,0.8916-4.1113,2.8188-4.8154,5.2124
		c-0.7051,2.3931-0.2529,4.978,1.2227,6.9902c0.4502,0.6143,11.2754,15.126,32.7041,22.479
		c7.2031,2.4756,14.5156,2.3911,20.8887,1.2949c-16.2334,10.6274-26.0674,28.6758-26.5635,29.6011
		c-1.0859,2.0234-1.25,4.4165-0.4502,6.5698c0.7998,2.1528,2.4873,3.8584,4.6309,4.6816
		c1.1006,0.4219,27.2051,10.2266,48.4551-0.8179c15.8281-8.2041,25.7803-18.9722,31.1211-26.0977
		c4.6592,2.355,9.2959,4.8174,13.9033,7.3828c-23.7891,4.1655-42.3018,27.3926-43.0918,28.398
		c-1.4199,1.8047-1.9961,4.1323-1.5811,6.3901c0.4141,2.2588,1.7793,4.23,3.7471,5.4131
		c1.0283,0.6182,25.459,15.0586,48.7002,7.7461c16.8828-5.293,28.749-14.2124,35.3457-20.2505
		c4.2021,3.085,8.3623,6.2598,12.4717,9.5166c-24.3506,0.2944-46.6465,20.0083-47.6084,20.8701
		c-1.71,1.5312-2.6797,3.7236-2.6631,6.019c0.0176,2.2954,1.0195,4.4731,2.752,5.979c0.9229,0.8008,22.876,19.5874,47.4492,16.3682
		c18.1621-2.3613,31.7568-9.3701,39.4023-14.2998c3.7998,3.832,7.5498,7.8398,11.2441,12.0161
		c-24.8555-4.8481-51.6689,11.561-52.8076,12.2681c-1.9502,1.2104-3.2861,3.2007-3.6689,5.4639
		c-0.3818,2.2632,0.2266,4.582,1.6709,6.3662c0.7822,0.9663,19.4453,23.6753,44.6484,24.8018
		c18.3242,0.8291,32.8281-3.5068,41.6143-7.1738c2.8027,4.3579,5.5332,8.8066,8.1895,13.3394
		c-23.8789-8.585-52.8906,2.8325-54.1406,3.3335c-2.1289,0.8535-3.7891,2.5806-4.5586,4.7417
		c-0.7695,2.1616-0.5742,4.5493,0.5361,6.5566c0.6123,1.1069,15.2891,27.1763,40.3496,32.7529
		c17.4355,3.8955,32.416,2.3315,41.6738,0.4316c1.8545,4.4106,3.6318,8.8501,5.3311,13.311
		c-22.3418-12.1128-52.6035-5.9692-53.9277-5.6919c-2.2461,0.4712-4.1816,1.8843-5.3154,3.8799
		c-1.1328,1.9956-1.3545,4.3823-0.6074,6.5527c0.4189,1.2178,10.5381,29.9438,34.6621,39.9639
		c16.4375,6.8403,31.2852,8.0879,41.2891,7.8354c1.0635,4.543,2.0498,9.1147,2.9561,13.7041
		c-20.2324-16.3584-51.9961-15.5342-53.3809-15.4912c-2.293,0.0742-4.4443,1.1294-5.9062,2.897
		c-1.4629,1.7681-2.0957,4.0791-1.7383,6.3452c0.2041,1.2959,5.2617,31.8926,27.6846,46.1943
		c15.4092,9.853,30.1895,13.7217,40.3096,15.2109c0.2363,4.3477,0.3975,8.6997,0.4834,13.0444
		c-17.293-20.4834-49.9053-25.3638-51.3145-25.5659c-2.2705-0.3208-4.5742,0.3413-6.3213,1.8296s-2.7715,3.6558-2.8115,5.9507
		c-0.0234,1.335-0.3398,32.9028,19.5879,51.2017c2.8076,2.582,5.6348,4.9082,8.4385,7.002
		c-9.9688-5.7764-18.4229-8.6055-19.1182-8.833c-2.1797-0.7148-4.5635-0.46-6.543,0.7031
		c-1.9785,1.1611-3.3633,3.1172-3.8018,5.3701c-0.2598,1.334-6.167,32.9297,10.5635,54.7812
		c1.041,1.3613,2.0957,2.6729,3.1582,3.9365c-7.1445-5.4736-12.8711-8.585-13.4238-8.8809c-2.0244-1.084-4.417-1.2471-6.5645-0.4453
		c-2.1514,0.7998-3.8555,2.4844-4.6787,4.627c-0.4971,1.292-12.0195,31.9307,0.8965,56.793
		c0.3477,0.6699,0.7002,1.334,1.0557,1.9863c-5.3857-5.624-9.6621-9.0254-10.1143-9.3809c-1.8047-1.418-4.1299-1.9961-6.3877-1.5781
		c-2.2568,0.4141-4.2275,1.7773-5.4102,3.7432c-0.7266,1.208-17.6973,29.8887-9.1602,57.0996
		c0.1152,0.3643,0.2305,0.7275,0.3477,1.0879c-4.2871-6.3613-7.8311-10.3682-8.2148-10.7959
		c-1.5176-1.6963-3.6865-2.665-5.9609-2.665c-0.0186,0-0.0371,0-0.0557,0c-2.2949,0.0156-4.4727,1.0166-5.9785,2.748
		c-0.9238,1.0605-22.1504,25.8125-19.4668,53.8828c-2.7354-5.833-5.0176-9.5527-5.292-9.9941
		c-1.2119-1.9492-3.2012-3.2842-5.4639-3.666c-2.2656-0.3789-4.5801,0.2275-6.3643,1.6709
		c-1.0781,0.8721-25.166,20.6621-28.7588,47.8955c-1.5352-5.4062-2.9033-8.8809-3.083-9.3291
		c-0.8535-2.1299-2.5801-3.792-4.7422-4.5615c-2.1621-0.7715-4.5518-0.5752-6.5586,0.5371
		c-1.1953,0.6611-27.1133,15.2568-36.4268,40.333c-0.5361-4.4668-1.1201-7.3262-1.208-7.7441
		c-0.4717-2.2451-1.8838-4.1797-3.8789-5.3125c-1.9961-1.1338-4.3818-1.3555-6.5508-0.6084
		c-1.4336,0.4922-35.2422,12.3916-46.9844,40.6738c-7.2871,17.5371-9.2383,33.5762-9.2832,45.5576
		c-2.9043,0.4453-5.8262,0.8447-8.6934,1.2373c-16.0859,2.2002-32.7207,4.4756-44.6934,14.625
		c-20.4463,17.332-17.3262,31.2412-15.0361,36.417c3.459,7.8174,11.6836,12.5186,19.9775,11.4326
		c7.6514-1,13.2002-6.6582,14.4805-14.7666c0.0449-0.2861,1.4033-7.1064,27.248-15.5566
		c9.3945-3.0713,18.7656-5.2539,24.3789-6.4434c6.4629,9.709,18.2578,23.9785,37.2314,35.5635
		c11.333,6.9111,24.1982,8.9004,35.2617,8.9004c14.4707-0.001,25.8574-3.4053,26.6787-3.6582
		c2.1934-0.6729,3.9932-2.2559,4.9395-4.3467c0.9473-2.0908,0.9502-4.4873,0.0098-6.5811
		c-0.667-1.4844-16.4092-35.9209-44.3682-48.2285c3.3037-1.3916,6.6152-2.8438,9.9258-4.3535
		c7.9111,8.04,21.4717,19.2803,40.9902,26.9248c28.0068,10.9805,59.4717-4.8066,60.7969-5.4844
		c2.043-1.0439,3.54-2.915,4.1094-5.1387c0.5693-2.2227,0.1562-4.583-1.1338-6.4814c-0.9033-1.3301-22.2695-32.3467-51.7188-39.2031
		c3.3037-2.166,6.5928-4.3877,9.8652-6.6641c9.1172,6.6377,24.3291,15.4355,44.9775,19.6025
		c28.9756,5.832,56.7002-14.7949,57.8662-15.6758c1.8311-1.3828,2.9795-3.4854,3.1543-5.7734s-0.6406-4.541-2.2402-6.1855
		c-1.1084-1.1406-27.4258-27.8701-57.3574-29.1143c3.248-2.9834,6.4541-6.0186,9.6133-9.0977
		c9.9785,4.9102,26.2295,10.8662,47.0039,11.3711c29.0322,0.6689,52.3359-23.9678,53.3135-25.0186
		c1.5635-1.6797,2.3301-3.9502,2.1055-6.2344c-0.2256-2.2842-1.4199-4.3613-3.2812-5.7041
		c-1.2559-0.9053-30.7539-21.9082-59.6855-18.4688c2.7764-3.5605,5.4834-7.1494,8.1133-10.7568
		c10.4561,2.998,27.0811,5.9219,47.0781,2.8926c28.2012-4.2715,46.5273-32.1025,47.2939-33.2852
		c1.248-1.9258,1.6084-4.2939,0.9912-6.5039c-0.6182-2.21-2.1553-4.0479-4.2207-5.0479
		c-1.3535-0.6553-32.8662-15.6562-60.0977-7.8984c2.0977-3.9854,4.1133-7.9834,6.0459-11.9902
		c10.5225,1.0254,26.8359,0.9102,45.2734-5.2988c26.5508-8.9434,39.5322-38.9951,40.0723-40.2705
		c0.8945-2.1133,0.8389-4.5088-0.1543-6.5781c-0.9922-2.0693-2.8262-3.6123-5.0342-4.2373
		c-1.416-0.4014-34.1943-9.4561-59.1846,2.4727c1.3027-4.3203,2.5225-8.6582,3.6572-13.0029
		c10.4805-0.7656,26.3428-3.6367,43.2646-12.8701c24.1768-13.1885,31.6152-44.4629,31.9199-45.7881
		c0.5146-2.2373,0.0439-4.5869-1.293-6.4531C977.5155,491.2583,975.4413,490.0562,973.1581,489.8237z M606.9764,67.2436
		c-6.6309-2.2749-11.9619-5.4272-15.9717-8.3877c5.3115-1.2397,11.0234-2.0903,14.96-1.4219
		c6.0361,1.0356,12.252,5.0366,17.4307,9.6904C618.4852,68.4141,612.4335,69.1196,606.9764,67.2436z M641.369,109.5044
		c-8.2314,4.2778-18.1787,3.8472-25.4189,2.6079c5.4541-7.1782,13.79-15.7871,23.2529-18.8926
		c5.7695-1.8867,15.1406-1.7183,24.1299-0.6851C658.6259,97.7983,651.4471,104.2808,641.369,109.5044z M664.5673,69.4155
		c-8.3408-6.3506-14.3945-12.4961-16.8916-17.2158c-4.8701-9.2202-4.6426-21.2891-3.6045-29.7549
		c6.0771,4.1348,13.5332,10.7241,16.4854,19.5176C664.1659,52.6899,664.8319,62.3462,664.5673,69.4155z M696.744,137.6729
		c-9.167,2.8857-19.2422,0.6025-26.3359-1.9683c6.3721-5.9839,16.3115-13.5679,26.9854-15.0918
		c5.5381-0.792,14.3398,0.5347,24.7334,3.6699C716.4344,128.7964,707.9637,134.1558,696.744,137.6729z M727.1893,101.6802
		c-7.458-8.04-12.4492-15.2812-14.1621-20.5879c-3.3096-10.2573-0.8564-22.5103,1.7256-30.8604
		c5.4336,5.2671,11.9258,13.3325,13.3623,22.7827C729.87,84.5918,728.744,94.5952,727.1893,101.6802z M747.2167,175.5752
		c-9.8994,1.2944-19.7812-2.918-26.4873-6.812c7.9512-5.1919,19.4551-10.9087,30.1309-10.5464
		c5.7676,0.1855,14.5264,3.1431,24.5596,8.2349C768.8788,170.0308,759.3134,174.002,747.2167,175.5752z M784.1962,144.998
		c-6.1719-9.5273-9.9932-17.8726-10.7725-23.5444c-1.5381-11.0435,3.2158-23.084,7.3281-31.0371
		c4.5801,6.2783,9.8115,15.6714,9.5654,25.5835C790.0262,128.165,787.0712,138.1084,784.1962,144.998z M790.494,222.0728
		c-10.3193-0.4609-19.6143-6.5806-25.6768-11.731c8.4082-3.6621,21.1777-7.7681,32.4619-5.3979
		c5.8184,1.2222,14.21,5.8262,23.5088,12.8364C813.5643,220.25,803.0858,222.645,790.494,222.0728z M830.5887,201.6431
		c-0.0127-0.0166-0.0244-0.0322-0.0361-0.0483c1.4854-2.1323,1.8877-4.9292,0.8896-7.4863
		c-4.5312-11.6089-5.3232-18.3423-5.1904-21.9478c0.4248-11.5298,7.5039-22.938,13.0908-30.2124
		c3.5361,7.1294,7.2314,17.6265,5.1914,27.7539C841.5184,184.6523,834.9803,195.6138,830.5887,201.6431z M825.2479,275.9902
		c-10.4551-2.3262-18.8076-10.3066-23.9863-16.6104c9.7139-2.3271,23.3877-3.9453,33.9434,0.2939
		c5.6816,2.2793,13.3271,8.417,21.5977,17.3271C849.08,278.2378,837.9891,278.8379,825.2479,275.9902z M869.91,231.9795
		c2.5029-11.6479,11.7861-21.9595,18.7207-28.2822c2.3291,7.8462,4.2803,19.252,0.4072,29.1465
		c-4.958,12.6626-12.0254,21.7583-17.4688,27.4399c0.2578-1.1133,0.2812-2.2959,0.0283-3.4775
		C869.3397,246.249,868.7401,237.4312,869.91,231.9795z M849.7235,335.2798c-10.2266-4.2476-17.2705-13.9146-21.3584-21.2144
		c9.5859-0.6445,23.9453-0.208,34.4004,6.291c5.127,3.1851,11.543,10.4072,18.0654,20.3359
		c0.2891,0.4395,0.6143,0.8418,0.9707,1.2056C873.8407,341.8115,862.2977,340.5127,849.7235,335.2798z M863.0975,398.0547
		c-9.6777-6.1733-15.0752-17.3525-17.8711-25.4604c10.4336,1.1387,24.7881,4.4258,33.8096,12.522
		c4.665,4.1729,9.9043,12.7109,14.751,24.041c0.1992,0.4658,0.4385,0.9038,0.7119,1.312
		C886.4677,408.9912,874.9608,405.6396,863.0975,398.0547z M577.8739,837.9741c-24.2861,7.917-36.4365,16.916-38.2373,28.3193
		c-0.209,1.3271-0.5479,1.3711-0.749,1.3975c-0.9443,0.125-2.5986-0.5186-3.2725-2.041c-1.3818-3.1221,1.4062-9.8184,10.75-17.7383
		c7.8154-6.625,20.1426-8.708,33.4346-10.5547C579.1591,837.5591,578.5175,837.7642,577.8739,837.9741z M653.2499,794.6353
		c0.3359,2.7393,0.7451,5.2559,1.1797,7.5205c-1.8916,0.7656-3.7842,1.5107-5.6758,2.2354
		C650.5546,801.2612,652.037,797.9839,653.2499,794.6353z M691.786,874.3462c-10.1719,1.5088-26.3789,2.1377-39.1523-5.6514
		c-19.4941-11.9023-30.1777-26.9551-34.8115-34.8682c-1.4512-2.4795-4.0967-3.958-6.9014-3.958c-0.4619,0-0.9287,0.04-1.3945,0.1221
		c-0.2207,0.0391-2.1758,0.3877-5.292,1.04c0.9521-1.415,1.458-3.1396,1.3467-4.9541c-0.5342-8.6797-0.2188-26.1523,7.8848-45.6523
		c5.7031-13.7373,19.2139-22.792,28.3389-27.5781c1.0303,11.5723,1.043,30.791-7.5928,44.6904
		c-3.2549,5.2441-9.7607,11.4678-18.8135,18c-3.123,2.2529-4.1973,6.4111-2.5576,9.8955c1.6406,3.4834,5.5303,5.3096,9.2568,4.333
		c2.3389-0.6094,4.6855-1.2539,7.0381-1.9307c-0.6328,1.3711-0.8828,2.9316-0.6484,4.5176c0.5732,3.8789,3.874,6.7715,7.7959,6.8291
		c9.873,0.1465,17.8516,1.3457,23.0713,3.4688C674.453,848.7905,685.786,864.3755,691.786,874.3462z M919.3925,463.5923
		c3.2285-8.9824,6.7812-15.7754,10.2705-19.6392c8.8281-9.7539,23.5273-14.3384,33.3555-16.4087
		c-2.1064,9.0845-6.6641,21.0098-15.5234,28.0869c-14.5322,11.5986-29.0186,15.9697-37.0254,17.5918
		c0.1006-1.4688,0.1914-2.9404,0.2744-4.415C914.4823,469.3403,918.1053,467.1753,919.3925,463.5923z M915.4169,393.4839
		c1.5918-10.3628,3.9961-18.3306,6.9512-23.04c6.7676-10.7822,19.9717-17.6626,29.0771-21.3472
		c-0.5166,9.0723-2.9023,21.1704-10.1523,29.3999c-12.1943,13.8325-25.8506,20.5298-32.5801,23.2041
		c-0.0576-0.499-0.1162-0.9985-0.1758-1.4976C912.0282,399.7539,914.87,397.0439,915.4169,393.4839z M902.3153,298.7563
		c4.6377-11.4111,16.0039-20.2119,24.1348-25.3271c0.9873,8.3135,0.9756,20.2773-4.7988,29.73
		c-7.2725,11.9209-16.0381,19.8413-22.5371,24.5933c0.3682-0.9775,0.5508-2.041,0.5059-3.1421
		C899.1688,313.3267,900.1268,304.145,902.3153,298.7563z M851.7059,432.3242c10.3281,2.98,24.3604,8.8589,32.0889,18.7017
		c3.9893,5.0703,7.7686,14.667,10.6416,27.0215c0.1279,0.5498,0.3105,1.0742,0.541,1.5684
		c-7.835-2.8818-18.9932-8.3115-29.7314-18.1865C856.5018,453.4009,853.0604,441.0093,851.7059,432.3242z M892.1298,495.5864
		c-0.4658,3.4463-0.9834,6.8818-1.5508,10.3037c-4.4932-7.6475-10.8926-13.9307-17.5234-18.9404
		C880.1669,491.0796,886.7753,493.8052,892.1298,495.5864z M848.203,490.52c9.9033,4.8184,23.1582,13.2773,29.2422,24.6543
		c2.9111,5.4385,4.8965,14.5371,5.7412,26.3135c0.2793,3.8936,3.3281,7.0176,7.2139,7.3906
		c0.1387,0.0137,0.2764,0.0234,0.4141,0.0293c-0.0752,0.3076-0.1514,0.6152-0.2266,0.9219
		c-0.0977-0.0488-0.1963-0.0957-0.2959-0.1406c-7.3242-3.3076-21.4326-11.2373-33.627-27.1787
		C849.2098,512.7729,847.993,499.5171,848.203,490.52z M764.0653,719.978c1.6084,3.4336,3.2383,6.4668,4.7637,9.0674
		c-1.6846,1.5312-3.3887,3.0537-5.1094,4.5654C764.3495,729.0581,764.41,724.4722,764.0653,719.978z M712.0712,761.9917
		c0.9014,3.1689,1.8604,6.0264,2.7969,8.5352c-1.8594,1.1963-3.7256,2.376-5.5967,3.5381
		C710.6259,770.1196,711.5262,766.0591,712.0712,761.9917z M761.9608,834.9604c-9.585,3.1494-24.9746,6.4131-38.3857,1.1523
		c-20.3154-7.957-33.0889-20.3262-38.8945-26.9922c-1.5566-1.7871-3.7744-2.7451-6.0352-2.7451c-1.1602,0-2.332,0.252-3.4307,0.7744
		c-1.2461,0.5918-2.4922,1.1758-3.7383,1.75c0.3213-1.2773,0.3311-2.6475-0.0264-3.998
		c-2.2549-8.5107-5.3311-25.9502-0.6025-47.1211c3.126-14.0596,14.4277-25,22.3926-31.1865
		c2.9277,11.0273,6.1045,29.4102,0.2256,44.084c-2.3525,5.876-7.9434,13.3613-16.1699,21.6484
		c-2.7607,2.7812-3.1006,7.1543-0.8018,10.3281c2.2998,3.1758,6.5596,4.2158,10.0645,2.46
		c2.1074-1.0566,4.2139-2.1377,6.3193-3.2432c-0.1641,1.2158-0.0498,2.4824,0.3789,3.7061c1.2832,3.6699,5.0225,5.8809,8.8584,5.251
		c9.8184-1.6279,17.917-1.8623,23.4189-0.6836C740.9843,813.4644,754.454,826.3735,761.9608,834.9604z M824.3466,784.4526
		c-8.6758,4.6426-22.7783,10.2783-36.5518,7.5039c-21.4932-4.3369-36.041-14.4053-42.8008-20.0205
		c-1.4775-1.2275-3.293-1.8467-5.1133-1.8467c-1.627,0-3.2588,0.4951-4.6543,1.4941c-0.8164,0.584-1.6328,1.1641-2.4521,1.7412
		c-0.0342-1.0225-0.2656-2.0527-0.7109-3.0332c-3.5244-7.7686-9.2959-23.9189-8.3535-44.8047
		c0.626-13.9473,9.5146-26.3135,16.1143-33.6426c4.6875,10.1201,10.7637,27.1113,7.5908,42.1924
		c-1.1885,5.6836-4.9316,13.2988-10.8242,22.0215c-2.1865,3.2363-1.7168,7.5781,1.1113,10.2715
		c2.8281,2.6943,7.1875,2.9512,10.3145,0.6094c0.4297-0.3223,0.8594-0.6455,1.2881-0.9688c0.123,1.0264,0.4473,2.043,0.9844,2.9902
		c1.9424,3.4258,6.0889,4.9268,9.7734,3.5449c10.4072-3.9111,19.1016-5.8594,25.1709-5.6338
		C800.5721,767.4419,815.6366,777.4624,824.3466,784.4526z M836.33,713.7163c14.7402-2.042,30.8135,4.9238,40.4238,10.166
		c-7.6191,5.9248-20.1572,13.5996-33.6914,13.2871c-21.5898-0.5234-37.3613-7.8252-44.8418-12.1318
		c-1.2461-0.7168-2.6221-1.0664-3.9883-1.0664c-2.0723,0-4.1221,0.8037-5.6631,2.3467c-0.5859,0.5869-1.1729,1.1709-1.7617,1.7539
		c-0.2334-0.7666-0.585-1.5078-1.0586-2.1982c-4.7266-6.8906-13.0488-21.4834-15.6846-41.8066
		c-1.7549-13.417,4.5908-26.7197,9.6816-34.9102c6.6787,9.7383,14.7832,25.0225,14.333,39.1348
		c-0.1895,5.8184-2.6055,14.0127-6.9863,23.6992c-1.6055,3.5488-0.4209,7.7383,2.8047,9.9219
		c3.2256,2.1826,7.5537,1.7266,10.2529-1.082c0.3955-0.4121,0.79-0.8232,1.1836-1.2373c0.2969,0.7529,0.7139,1.4717,1.249,2.127
		c2.5049,3.0625,6.8721,3.835,10.2764,1.8154C822.3085,717.9272,830.4237,714.5317,836.33,713.7163z M807.3485,669.2856
		c2.6641,3.958,5.2988,7.3262,7.6768,10.0977c-1.625,2.0684-3.2764,4.1289-4.9512,6.1758
		C809.9091,679.981,808.8885,674.4995,807.3485,669.2856z M833.6053,672.9683c-0.4268,0.6035-0.8564,1.207-1.2871,1.8096
		c-0.3223-0.5303-0.7109-1.0303-1.165-1.4863c-5.8145-5.8506-16.4756-18.5596-22.5566-37.9463
		c-3.917-12.4863-0.1768-26.2197,3.3066-34.9805c7.5137,7.6416,18.2402,20.7666,20.2754,35.0439
		c0.8594,5.9824-0.2334,14.8906-3.1592,25.7617c-1.0137,3.7676,0.8379,7.7158,4.3809,9.3467
		c0.6514,0.2988,1.3242,0.5049,2.0029,0.6201C834.7225,671.6372,834.1132,672.2505,833.6053,672.9683z M834.7479,546.8911
		c9.1426,6.5986,21.1367,17.5449,25.2832,30.1807c1.9941,6.0928,2.3584,15.7783,1.0518,28.0098
		c-0.417,3.9072,2.0654,7.5391,5.8574,8.5693c0.3438,0.0938,0.6895,0.1631,1.0352,0.21c-0.1699,0.3643-0.3408,0.7285-0.5117,1.0918
		c-0.3018-0.2861-0.6309-0.5518-0.9834-0.7939c-6.7676-4.6318-19.5234-15.1123-28.9316-33.2646
		C831.703,569.6431,832.9071,555.9185,834.7479,546.8911z M851.7274,623.1099c-1.3398,2.5215-2.7158,5.0381-4.127,7.5479
		c-1.1465-5.9453-3.2979-11.6025-5.9805-16.8291C845.2137,617.5796,848.6747,620.6567,851.7274,623.1099z M877.5067,652.8804
		c13.7363-4.4336,30.2412-0.5479,40.4023,2.8525c-6.3477,6.9766-17.0479,16.3633-29.9873,18.3223
		c-20.7734,3.1455-37.1611-1.1553-45.0811-3.998c-0.4482-0.1611-0.9033-0.2803-1.3613-0.3574
		c0.7129-0.5234,1.3477-1.1709,1.8701-1.9355c0.7617-1.1143,1.5176-2.2324,2.2676-3.3535c0.3447,0.4668,0.7451,0.9023,1.1992,1.2959
		c2.9834,2.5879,7.4082,2.6104,10.4189,0.0547C865.118,659.0688,872.1278,654.6147,877.5067,652.8804z M864.118,552.4331
		c4.8447,3.7148,9.4189,6.5654,13.3203,8.7031c-0.915,2.9961-1.8779,5.9971-2.8887,8.999
		C872.0985,563.5845,868.3593,557.6519,864.118,552.4331z M906.9452,586.3052c12.3916-6.5459,28.8135-5.6611,39.1924-4.1318
		c-5.3027,8.2578-14.1777,18.6533-25.6406,22.5137c-19.1973,6.4658-35.5664,5.2139-43.6182,3.8906
		c-0.0811-0.0127-0.1621-0.0254-0.2422-0.0361c0.9053-2.0156,1.792-4.0352,2.6582-6.0586c0.2627,0.2041,0.5391,0.3936,0.8311,0.5674
		c3.3662,2,7.6865,1.2734,10.21-1.7236C896.5233,593.978,902.2694,588.7817,906.9452,586.3052z M940.5614,531.3188
		c-17.3955,9.4922-33.3379,11.084-41.5312,11.1592c0.4131-1.543,0.8164-3.0889,1.209-4.6426
		c0.1377,0.0625,0.2773,0.1201,0.4189,0.1748c3.6914,1.4189,7.8682-0.0762,9.8223-3.5166
		c4.9238-8.665,9.791-15.0068,14.0752-18.3398c10.7041-8.3262,26.4717-10.3037,36.7363-10.6211
		C957.8231,513.8452,951.3241,525.4478,940.5614,531.3188z"/>
	<path fill="#16A086" d="M444.5192,833.7061c-11.9727-10.1494-28.6074-12.4248-44.6934-14.625
		c-2.8672-0.3926-5.7891-0.792-8.6934-1.2373c-0.0449-11.9814-1.9961-28.0205-9.2832-45.5576
		c-11.7422-28.2822-45.5508-40.1816-46.9844-40.6738c-2.1689-0.7471-4.5547-0.5254-6.5508,0.6084
		c-1.9951,1.1328-3.4072,3.0674-3.8789,5.3125c-0.0879,0.418-0.6719,3.2773-1.208,7.7441
		c-9.3135-25.0762-35.2314-39.6719-36.4268-40.333c-2.0068-1.1123-4.3965-1.3086-6.5586-0.5371
		c-2.1621,0.7695-3.8887,2.4316-4.7422,4.5615c-0.1797,0.4482-1.5479,3.9229-3.083,9.3291
		c-3.5928-27.2334-27.6806-47.0234-28.7588-47.8955c-1.7842-1.4434-4.0986-2.0498-6.3643-1.6709
		c-2.2627,0.3818-4.252,1.7168-5.4639,3.666c-0.2744,0.4414-2.5566,4.1611-5.292,9.9941
		c2.6836-28.0703-18.543-52.8223-19.4668-53.8828c-1.5059-1.7314-3.6836-2.7324-5.9785-2.748c-0.0186,0-0.0371,0-0.0557,0
		c-2.2744,0-4.4434,0.9688-5.9609,2.665c-0.3838,0.4277-3.9277,4.4346-8.2148,10.7959c0.1172-0.3604,0.2324-0.7236,0.3477-1.0879
		c8.5371-27.2109-8.4336-55.8916-9.1602-57.0996c-1.1826-1.9658-3.1533-3.3291-5.4102-3.7432
		c-2.2578-0.418-4.583,0.1602-6.3877,1.5781c-0.4521,0.3555-4.7285,3.7568-10.1143,9.3809c0.3555-0.6523,0.708-1.3164,1.0557-1.9863
		c12.916-24.8623,1.3936-55.501,0.8965-56.793c-0.8232-2.1426-2.5273-3.8271-4.6787-4.627c-2.1475-0.8018-4.54-0.6387-6.5645,0.4453
		c-0.5527,0.2959-6.2793,3.4072-13.4238,8.8809c1.0625-1.2637,2.1172-2.5752,3.1582-3.9365
		c16.7305-21.8516,10.8232-53.4473,10.5635-54.7812c-0.4385-2.2529-1.8232-4.209-3.8018-5.3701
		c-1.9795-1.1631-4.3633-1.418-6.543-0.7031c-0.6953,0.2275-9.1494,3.0566-19.1182,8.833c2.8037-2.0938,5.6309-4.4199,8.4385-7.002
		c19.9277-18.2988,19.6113-49.8667,19.5879-51.2017c-0.04-2.2949-1.0645-4.4624-2.8115-5.9507s-4.0508-2.1504-6.3213-1.8296
		c-1.4092,0.2021-34.0215,5.0825-51.3145,25.5659c0.0859-4.3447,0.2471-8.6968,0.4834-13.0444
		c10.1201-1.4893,24.9004-5.3579,40.3096-15.2109c22.4229-14.3018,27.4805-44.8984,27.6846-46.1943
		c0.3574-2.2661-0.2754-4.5771-1.7383-6.3452c-1.4619-1.7676-3.6133-2.8228-5.9062-2.897
		c-1.3848-0.043-33.1484-0.8672-53.3809,15.4912c0.9062-4.5894,1.8926-9.1611,2.9561-13.7041
		c10.0039,0.2524,24.8516-0.9951,41.2891-7.8354c24.124-10.02,34.2432-38.7461,34.6621-39.9639
		c0.7471-2.1704,0.5254-4.5571-0.6074-6.5527c-1.1338-1.9956-3.0693-3.4087-5.3154-3.8799
		c-1.3242-0.2773-31.5859-6.4209-53.9277,5.6919c1.6992-4.4609,3.4766-8.9004,5.3311-13.311
		c9.2578,1.8999,24.2383,3.4639,41.6738-0.4316c25.0605-5.5767,39.7373-31.646,40.3496-32.7529
		c1.1104-2.0073,1.3057-4.395,0.5361-6.5566c-0.7695-2.1611-2.4297-3.8882-4.5586-4.7417
		c-1.25-0.501-30.2617-11.9185-54.1406-3.3335c2.6562-4.5327,5.3867-8.9814,8.1895-13.3394
		c8.7861,3.667,23.29,8.0029,41.6143,7.1738c25.2031-1.1265,43.8662-23.8354,44.6484-24.8018
		c1.4443-1.7842,2.0527-4.103,1.6709-6.3662c-0.3828-2.2632-1.7188-4.2534-3.6689-5.4639
		c-1.1387-0.707-27.9521-17.1162-52.8076-12.2681c3.6943-4.1763,7.4443-8.1841,11.2441-12.0161
		c7.6455,4.9297,21.2402,11.9385,39.4023,14.2998c24.5732,3.2192,46.5264-15.5674,47.4492-16.3682
		c1.7324-1.5059,2.7344-3.6836,2.752-5.979c0.0166-2.2954-0.9531-4.4878-2.6631-6.019
		c-0.9619-0.8618-23.2578-20.5757-47.6084-20.8701c4.1094-3.2568,8.2695-6.4316,12.4717-9.5166
		c6.5967,6.0381,18.4629,14.9575,35.3457,20.2505c23.2412,7.3125,47.6719-7.1279,48.7002-7.7461
		c1.9678-1.1831,3.333-3.1543,3.7471-5.4131c0.415-2.2578-0.1611-4.5854-1.5811-6.3901c-0.79-1.0054-19.3027-24.2324-43.0918-28.398
		c4.6074-2.5654,9.2441-5.0278,13.9033-7.3828c5.3408,7.1255,15.293,17.8936,31.1211,26.0977
		c21.25,11.0444,47.3545,1.2397,48.4551,0.8179c2.1436-0.8232,3.8311-2.5288,4.6309-4.6816
		c0.7998-2.1533,0.6357-4.5464-0.4502-6.5698c-0.4961-0.9253-10.3301-18.9736-26.5635-29.6011
		c6.373,1.0962,13.6855,1.1807,20.8887-1.2949c21.4287-7.353,32.2539-21.8647,32.7041-22.479
		c1.4756-2.0122,1.9277-4.5972,1.2227-6.9902c-0.7041-2.3936-2.4854-4.3208-4.8154-5.2124
		c-2.25-0.8599-22.374-8.3423-35.9883-6.0322c-8.373,1.4365-15.8105,5.7568-21.7041,10.4014
		c6.4238-20.1475,0.0947-43.144-0.2129-44.2344c-0.623-2.2095-2.165-4.0444-4.2334-5.0391s-4.4648-1.0518-6.5801-0.1587
		c-1.0869,0.4595-26.7061,11.5093-34.3359,34.2334c-5.6396,16.7617-5.291,31.582-4.2637,40.2349
		c-5.9209,2.6709-11.8252,5.5181-17.6953,8.5312c7.3252-23.4229-5.7773-50.9692-6.3418-52.1362
		c-0.999-2.0669-2.8369-3.6045-5.0479-4.2227c-2.208-0.6177-4.5801-0.2578-6.5059,0.9917
		c-1.0068,0.6528-24.6943,16.2588-28.3574,40.3496c-2.6689,17.6108,0.123,32.1284,2.751,40.8584
		c-5.498,3.7329-10.9443,7.6187-16.3203,11.6431c3.1357-24.7202-14.8154-49.9443-15.5859-51.0132
		c-1.3428-1.8608-3.4199-3.0562-5.7031-3.2812c-2.2793-0.2246-4.5547,0.5415-6.2334,2.104
		c-0.8955,0.832-21.9023,20.6646-21.2861,45.4658c0.4199,17.5425,5.5361,31.3677,9.5361,39.5859
		c-4.6182,4.2373-9.1641,8.688-13.626,13.3394c-2.1289-24.6162-23.6201-45.7725-24.5605-46.687
		c-1.6455-1.5991-3.8916-2.4126-6.1885-2.2397c-2.2881,0.1758-4.3906,1.3252-5.7734,3.1572
		c-0.748,0.9922-18.2783,24.5801-13.294,49.3179c3.4482,17.0972,10.6289,29.7793,16.2588,37.6099
		c-3.6973,5.2812-7.2891,10.6938-10.7647,16.2202c-6.3584-24.4629-31.8398-42.019-32.9492-42.7725
		c-1.8975-1.29-4.2598-1.7031-6.4814-1.1338c-2.2236,0.5693-4.0947,2.0659-5.1387,4.1094c-0.5762,1.127-14,27.876-4.6426,51.7798
		c6.7168,17.1533,16.7959,28.9082,23.5605,35.4146c-2.6455,5.7441-5.1797,11.5879-7.5938,17.5103
		c-10.4287-23.8516-39.6855-37.2109-40.9443-37.7764c-2.0928-0.9409-4.4902-0.936-6.5811,0.0117
		c-2.0898,0.9478-3.6729,2.7471-4.3447,4.9414c-0.3779,1.2319-9.0889,30.4194,4.5322,52.7178
		c9.8164,16.0903,22.0576,26.1152,30,31.4355c-1.585,5.8599-3.0469,11.7544-4.3818,17.6665
		c-14.748-21.8413-46.1748-30.0044-47.5312-30.3477c-2.2285-0.5645-4.584-0.1436-6.4795,1.1519
		c-1.8936,1.2959-3.1406,3.3428-3.4229,5.6201c-0.1611,1.3018-3.7461,32.106,13.8262,52.0527
		c12.3018,13.9551,25.7109,21.7856,34.998,25.9458c-0.501,5.4917-0.8896,10.9775-1.167,16.4448
		C42.3103,410.687,9.9929,408.1069,8.5856,408.0034c-2.2881-0.167-4.5391,0.6548-6.1787,2.2583
		c-1.6406,1.6045-2.5137,3.8354-2.3965,6.1274c0.0674,1.3335,1.9062,32.856,23.0498,49.7446
		c14.6348,11.6807,29.333,17.1621,39.25,19.7139c0.4541,4.7969,0.9941,9.5625,1.6191,14.2861
		c-22.1221-15.6016-55.1143-12.4541-56.5488-12.3105c-2.2832,0.2324-4.3574,1.4346-5.6934,3.2998
		c-1.3369,1.8662-1.8076,4.2158-1.293,6.4531c0.3047,1.3252,7.7432,32.5996,31.9199,45.7881
		c16.9219,9.2334,32.7842,12.1045,43.2646,12.8701c1.1348,4.3447,2.3545,8.6826,3.6572,13.0029
		c-24.9902-11.9287-57.7686-2.874-59.1846-2.4727c-2.208,0.625-4.042,2.168-5.0342,4.2373
		c-0.9932,2.0693-1.0488,4.4648-0.1543,6.5781c0.54,1.2754,13.5215,31.3271,40.0723,40.2705
		c18.4375,6.209,34.751,6.3242,45.2734,5.2988c1.9326,4.0068,3.9482,8.0049,6.0459,11.9902
		c-27.2314-7.7578-58.7441,7.2432-60.0977,7.8984c-2.0654,1-3.6025,2.8379-4.2207,5.0479c-0.6172,2.21-0.2568,4.5781,0.9912,6.5039
		c0.7666,1.1826,19.0928,29.0137,47.2939,33.2852c19.9971,3.0293,36.6221,0.1055,47.0781-2.8926
		c2.6299,3.6074,5.3369,7.1963,8.1133,10.7568c-28.9316-3.4395-58.4297,17.5635-59.6856,18.4688
		c-1.8613,1.3428-3.0557,3.4199-3.2812,5.7041c-0.2246,2.2842,0.542,4.5547,2.1055,6.2344
		c0.9775,1.0508,24.2812,25.6875,53.3135,25.0186c20.7744-0.5049,37.0254-6.4609,47.0039-11.3711
		c3.1592,3.0791,6.3652,6.1143,9.6133,9.0977c-29.9316,1.2441-56.249,27.9736-57.3574,29.1143
		c-1.5996,1.6445-2.415,3.8975-2.2402,6.1855s1.3232,4.3906,3.1543,5.7734c1.166,0.8809,28.8906,21.5078,57.8662,15.6758
		c20.6484-4.167,35.8604-12.9648,44.9775-19.6025c3.2725,2.2764,6.5615,4.498,9.8652,6.6641
		c-29.4492,6.8564-50.8154,37.873-51.7188,39.2031c-1.29,1.8984-1.7031,4.2588-1.1338,6.4814
		c0.5693,2.2236,2.0664,4.0947,4.1094,5.1387c1.3252,0.6777,32.79,16.4648,60.7969,5.4844
		c19.5186-7.6445,33.0791-18.8848,40.9902-26.9248c3.3105,1.5098,6.6221,2.9619,9.9258,4.3535
		c-27.959,12.3076-43.7012,46.7441-44.3682,48.2285c-0.9404,2.0938-0.9375,4.4902,0.0098,6.5811
		c0.9463,2.0908,2.7461,3.6738,4.9395,4.3467c0.8213,0.2529,12.208,3.6572,26.6787,3.6582c11.0635,0,23.9287-1.9893,35.2617-8.9004
		c18.9736-11.585,30.7686-25.8545,37.2314-35.5635c5.6133,1.1895,14.9844,3.3721,24.3789,6.4434
		c25.8447,8.4502,27.2031,15.2705,27.248,15.5566c1.2803,8.1084,6.8291,13.7666,14.4805,14.7666
		c8.2939,1.0859,16.5186-3.6152,19.9775-11.4326C461.8454,864.9473,464.9655,851.0381,444.5192,833.7061z M374.5739,55.4336
		c3.9365-0.6685,9.6484,0.1821,14.96,1.4219c-4.0098,2.9604-9.3408,6.1128-15.9717,8.3877
		c-5.457,1.876-11.5088,1.1704-16.4189-0.1191C362.322,60.4702,368.5378,56.4692,374.5739,55.4336z M341.3356,91.2192
		c9.4629,3.1055,17.7988,11.7144,23.2529,18.8926c-7.2402,1.2393-17.1875,1.6699-25.4189-2.6079
		c-10.0781-5.2236-17.2568-11.7061-21.9639-16.9697C326.195,89.501,335.5661,89.3325,341.3356,91.2192z M319.9821,39.9619
		c2.9521-8.7935,10.4082-15.3828,16.4854-19.5176c1.0381,8.4658,1.2656,20.5347-3.6045,29.7549
		c-2.4971,4.7197-8.5508,10.8652-16.8916,17.2158C315.7067,60.3457,316.3727,50.6894,319.9821,39.9619z M283.1452,118.6123
		c10.6738,1.5239,20.6133,9.1079,26.9854,15.0918c-7.0938,2.5708-17.1689,4.854-26.3359,1.9683
		c-11.2197-3.5171-19.6904-8.8765-25.3828-13.3901C268.8054,119.147,277.6071,117.8203,283.1452,118.6123z M252.4235,71.0142
		c1.4365-9.4502,7.9287-17.5156,13.3623-22.7827c2.582,8.3501,5.0352,20.603,1.7256,30.8604
		c-1.7129,5.3066-6.7041,12.5479-14.1621,20.5879C251.7946,92.5947,250.6687,82.5913,252.4235,71.0142z M229.6784,156.2163
		c10.6758-0.3623,22.1797,5.3545,30.1308,10.5464c-6.706,3.894-16.5879,8.1064-26.4873,6.812
		c-12.0967-1.5732-21.6621-5.5444-28.2031-9.1235C215.1521,159.3594,223.9108,156.4019,229.6784,156.2163z M199.7868,88.416
		c4.1123,7.9531,8.8662,19.9937,7.3281,31.0371c-0.7793,5.6719-4.6006,14.0171-10.7725,23.5444
		c-2.875-6.8896-5.8301-16.833-6.1211-28.9981C189.9753,104.0874,195.2067,94.6943,199.7868,88.416z M183.2595,202.9434
		c11.2842-2.3701,24.0537,1.7358,32.4619,5.3979c-6.0625,5.1504-15.3574,11.27-25.6768,11.731
		c-12.5918,0.5723-23.0703-1.8228-30.2939-4.2925C169.0495,208.7695,177.4411,204.1655,183.2595,202.9434z M136.0046,167.7017
		c-2.04-10.1274,1.6553-20.6245,5.1914-27.7539c5.5869,7.2744,12.666,18.6826,13.0908,30.2124
		c0.1328,3.6055-0.6592,10.3389-5.1904,21.9478c-0.998,2.5571-0.5957,5.354,0.8896,7.4863
		c-0.0117,0.0161-0.0234,0.0317-0.0361,0.0483C145.5583,193.6133,139.0202,182.6519,136.0046,167.7017z M145.3337,257.6733
		c10.5557-4.2393,24.2295-2.6211,33.9434-0.2939c-5.1787,6.3037-13.5312,14.2842-23.9863,16.6104
		c-12.7412,2.8477-23.832,2.2476-31.5547,1.0107C132.0065,266.0903,139.6521,259.9526,145.3337,257.6733z M91.5007,230.8433
		c-3.873-9.8945-1.9219-21.3003,0.4072-29.1465c6.9346,6.3228,16.2178,16.6343,18.7207,28.2822
		c1.1699,5.4517,0.5703,14.2695-1.6875,24.8267c-0.2529,1.1816-0.2295,2.3643,0.0283,3.4775
		C103.5261,252.6016,96.4587,243.5059,91.5007,230.8433z M99.7077,338.6919c6.5225-9.9287,12.9385-17.1509,18.0654-20.3359
		c10.4551-6.499,24.8145-6.9355,34.4004-6.291c-4.0879,7.2998-11.1318,16.9668-21.3584,21.2144
		c-12.5742,5.2329-24.1172,6.5317-32.0781,6.6182C99.0935,339.5337,99.4186,339.1313,99.7077,338.6919z M86.7517,407.1567
		c4.8467-11.3301,10.0859-19.8682,14.751-24.041c9.0215-8.0962,23.376-11.3833,33.8096-12.522
		c-2.7959,8.1079-8.1934,19.2871-17.8711,25.4604c-11.8633,7.585-23.3701,10.9365-31.4014,12.4146
		C86.3132,408.0605,86.5524,407.6226,86.7517,407.1567z M268.4675,759.9912c0.5449,4.0674,1.4453,8.1279,2.7998,12.0732
		c-1.8711-1.1621-3.7373-2.3418-5.5967-3.5381C266.6071,766.0176,267.5661,763.1602,268.4675,759.9912z M216.4733,717.9775
		c-0.3447,4.4941-0.2842,9.0801,0.3457,13.6328c-1.7207-1.5117-3.4248-3.0342-5.1094-4.5654
		C213.2351,724.4443,214.8649,721.4111,216.4733,717.9775z M132.3356,488.5195c0.21,8.9971-1.0068,22.2529-8.4619,31.9902
		c-12.1943,15.9414-26.3027,23.8711-33.627,27.1787c-0.0996,0.0449-0.1982,0.0918-0.2959,0.1406
		c-0.0752-0.3066-0.1514-0.6143-0.2266-0.9219c0.1377-0.0059,0.2754-0.0156,0.4141-0.0293c3.8857-0.373,6.9346-3.4971,7.2139-7.3906
		c0.8447-11.7764,2.8301-20.875,5.7412-26.3135C109.1774,501.7969,122.4323,493.3379,132.3356,488.5195z M88.4089,493.5859
		c5.3545-1.7812,11.9629-4.5068,19.0742-8.6367c-6.6309,5.0098-13.0303,11.293-17.5234,18.9404
		C89.3923,500.4678,88.8747,497.0322,88.4089,493.5859z M86.1022,476.0469c2.873-12.3545,6.6523-21.9512,10.6416-27.0215
		c7.7285-9.8428,21.7607-15.7217,32.0889-18.7017c-1.3545,8.6851-4.7959,21.0767-13.54,29.105
		c-10.7383,9.875-21.8965,15.3047-29.7314,18.1865C85.7917,477.1211,85.9743,476.5967,86.1022,476.0469z M58.8874,301.1587
		c-5.7744-9.4526-5.7861-21.4165-4.7988-29.73c8.1309,5.1152,19.4971,13.916,24.1348,25.3271
		c2.1885,5.3887,3.1465,14.5703,2.6953,25.854c-0.0449,1.1011,0.1377,2.1646,0.5059,3.1421
		C74.9255,321,66.1599,313.0796,58.8874,301.1587z M39.2458,376.4961c-7.25-8.2295-9.6357-20.3276-10.1523-29.3999
		c9.1055,3.6846,22.3096,10.5649,29.0771,21.3472c2.9551,4.7095,5.3594,12.6772,6.9512,23.04
		c0.5469,3.5601,3.3887,6.27,6.8799,6.7192c-0.0596,0.499-0.1182,0.9985-0.1758,1.4976
		C65.0964,397.0259,51.4401,390.3286,39.2458,376.4961z M33.0437,453.6309c-8.8594-7.0771-13.417-19.0024-15.5234-28.0869
		c9.8281,2.0703,24.5273,6.6548,33.3555,16.4087c3.4893,3.8638,7.042,10.6567,10.2705,19.6392
		c1.2871,3.583,4.9102,5.748,8.6484,5.2158c0.083,1.4746,0.1738,2.9463,0.2744,4.415
		C62.0622,469.6006,47.5759,465.2295,33.0437,453.6309z M39.9772,529.3184c-10.7627-5.8711-17.2617-17.4736-20.7305-25.7861
		c10.2646,0.3174,26.0322,2.2949,36.7363,10.6211c4.2842,3.333,9.1514,9.6748,14.0752,18.3398
		c1.9541,3.4404,6.1309,4.9355,9.8223,3.5166c0.1416-0.0547,0.2812-0.1123,0.4189-0.1748c0.3926,1.5537,0.7959,3.0996,1.209,4.6426
		C73.3151,540.4023,57.3728,538.8105,39.9772,529.3184z M103.6599,606.5771c-8.0518,1.3232-24.4209,2.5752-43.6182-3.8906
		c-11.4629-3.8604-20.3379-14.2559-25.6406-22.5137c10.3789-1.5293,26.8008-2.4141,39.1924,4.1318
		c4.6758,2.4766,10.4219,7.6729,16.6094,15.0215c2.5234,2.9971,6.8438,3.7236,10.21,1.7236
		c0.292-0.1738,0.5684-0.3633,0.8311-0.5674c0.8662,2.0234,1.7529,4.043,2.6582,6.0586
		C103.822,606.5518,103.7409,606.5645,103.6599,606.5771z M105.989,568.1348c-1.0107-3.002-1.9736-6.0029-2.8887-8.999
		c3.9014-2.1377,8.4756-4.9883,13.3203-8.7031C112.1794,555.6514,108.4401,561.584,105.989,568.1348z M137.698,668.0566
		c-7.9199,2.8428-24.3076,7.1436-45.0811,3.998c-12.9395-1.959-23.6396-11.3457-29.9873-18.3223
		c10.1611-3.4004,26.666-7.2861,40.4023-2.8525c5.3789,1.7344,12.3887,6.1885,20.2715,12.8809
		c3.0107,2.5557,7.4356,2.5332,10.419-0.0547c0.4541-0.3936,0.8545-0.8291,1.1992-1.2959c0.75,1.1211,1.5059,2.2393,2.2676,3.3535
		c0.5225,0.7646,1.1572,1.4121,1.8701,1.9355C138.6013,667.7764,138.1462,667.8955,137.698,668.0566z M128.8112,621.1094
		c3.0527-2.4531,6.5137-5.5303,10.1074-9.2812c-2.6826,5.2266-4.834,10.8838-5.9805,16.8291
		C131.5271,626.1475,130.1511,623.6309,128.8112,621.1094z M114.0583,612.1582c-0.3525,0.2422-0.6816,0.5078-0.9834,0.7939
		c-0.1709-0.3633-0.3418-0.7275-0.5117-1.0918c0.3457-0.0469,0.6914-0.1162,1.0352-0.21c3.792-1.0303,6.2744-4.6621,5.8574-8.5693
		c-1.3066-12.2314-0.9424-21.917,1.0518-28.0098c4.1465-12.6357,16.1406-23.582,25.2832-30.1807
		c1.8408,9.0273,3.0449,22.752-2.8008,34.0029C133.5817,597.0459,120.8259,607.5264,114.0583,612.1582z M145.1355,669.1367
		c0.6787-0.1152,1.3516-0.3213,2.0029-0.6201c3.543-1.6309,5.3945-5.5791,4.3809-9.3467
		c-2.9258-10.8711-4.0186-19.7793-3.1592-25.7617c2.0352-14.2773,12.7617-27.4023,20.2754-35.0439
		c3.4834,8.7607,7.2236,22.4941,3.3066,34.9805c-6.0811,19.3867-16.7422,32.0957-22.5566,37.9463
		c-0.4541,0.4561-0.8428,0.9561-1.165,1.4863c-0.4307-0.6025-0.8604-1.2061-1.2871-1.8096
		C146.4255,670.25,145.8161,669.6367,145.1355,669.1367z M173.1901,667.2852c-1.54,5.2139-2.5605,10.6953-2.7256,16.2734
		c-1.6748-2.0469-3.3262-4.1074-4.9512-6.1758C167.8913,674.6113,170.5261,671.2432,173.1901,667.2852z M193.7312,726.0713
		c-0.5889-0.583-1.1758-1.167-1.7617-1.7539c-1.541-1.543-3.5908-2.3467-5.6631-2.3467c-1.3662,0-2.7422,0.3496-3.9883,1.0664
		c-7.4805,4.3066-23.252,11.6084-44.8418,12.1318c-13.5342,0.3125-26.0723-7.3623-33.6914-13.2871
		c9.6104-5.2422,25.6836-12.208,40.4238-10.166c5.9062,0.8154,14.0215,4.2109,23.4707,9.8193
		c3.4043,2.0195,7.7715,1.2471,10.2764-1.8154c0.5352-0.6553,0.9521-1.374,1.249-2.127c0.3936,0.4141,0.7881,0.8252,1.1836,1.2373
		c2.6992,2.8086,7.0273,3.2646,10.2529,1.082c3.2256-2.1836,4.4102-6.373,2.8047-9.9219
		c-4.3809-9.6865-6.7969-17.8809-6.9863-23.6992c-0.4502-14.1123,7.6543-29.3965,14.333-39.1348
		c5.0908,8.1904,11.4365,21.4932,9.6816,34.9102c-2.6357,20.3232-10.958,34.916-15.6846,41.8066
		C194.3161,724.5635,193.9646,725.3047,193.7312,726.0713z M248.4753,768.291c-0.4453,0.9805-0.6768,2.0107-0.7109,3.0332
		c-0.8193-0.5771-1.6357-1.1572-2.4521-1.7412c-1.3955-0.999-3.0273-1.4941-4.6543-1.4941c-1.8203,0-3.6357,0.6191-5.1133,1.8467
		c-6.7598,5.6152-21.3076,15.6836-42.8008,20.0205c-13.7734,2.7744-27.876-2.8613-36.5518-7.5039
		c8.71-6.9902,23.7744-17.0107,39.1133-17.5811c6.0693-0.2256,14.7637,1.7227,25.1709,5.6338
		c3.6846,1.3818,7.8311-0.1191,9.7734-3.5449c0.5371-0.9473,0.8613-1.9639,0.9844-2.9902c0.4287,0.3232,0.8584,0.6465,1.2881,0.9688
		c3.127,2.3418,7.4863,2.085,10.3145-0.6094c2.8281-2.6934,3.2979-7.0352,1.1113-10.2715
		c-5.8926-8.7227-9.6357-16.3379-10.8242-22.0215c-3.1729-15.0811,2.9033-32.0723,7.5908-42.1924
		c6.5996,7.3291,15.4883,19.6953,16.1142,33.6426C257.7712,744.3721,251.9997,760.5225,248.4753,768.291z M309.0886,802.9014
		c-0.3574,1.3506-0.3477,2.7207-0.0264,3.998c-1.2461-0.5742-2.4922-1.1582-3.7383-1.75c-1.0986-0.5225-2.2705-0.7744-3.4307-0.7744
		c-2.2607,0-4.4785,0.958-6.0352,2.7451c-5.8057,6.666-18.5791,19.0352-38.8945,26.9922
		c-13.4111,5.2607-28.8008,1.9971-38.3857-1.1523c7.5068-8.5869,20.9766-21.4961,36.4268-24.8154
		c5.5019-1.1787,13.6006-0.9443,23.4189,0.6836c3.8359,0.6299,7.5752-1.5811,8.8584-5.251c0.4287-1.2236,0.543-2.4902,0.3789-3.7061
		c2.1055,1.1055,4.2119,2.1865,6.3193,3.2432c3.5049,1.7559,7.7646,0.7158,10.0645-2.46c2.2988-3.1738,1.959-7.5469-0.8018-10.3281
		c-8.2266-8.2871-13.8174-15.7725-16.1699-21.6484c-5.8789-14.6738-2.7021-33.0566,0.2256-44.084
		c7.9648,6.1865,19.2666,17.127,22.3926,31.1865C314.4196,776.9512,311.3434,794.3906,309.0886,802.9014z M327.2888,792.6348
		c1.2129,3.3486,2.6953,6.626,4.4961,9.7559c-1.8916-0.7246-3.7842-1.4697-5.6758-2.2354
		C326.5436,797.8906,326.9528,795.374,327.2888,792.6348z M371.0124,827.9902c-0.4658-0.082-0.9326-0.1221-1.3945-0.1221
		c-2.8047,0-5.4502,1.4785-6.9014,3.958c-4.6338,7.9131-15.3174,22.9658-34.8115,34.8682
		c-12.7734,7.7891-28.9805,7.1602-39.1523,5.6514c6-9.9707,17.333-25.5557,32.4316-31.6963
		c5.2197-2.123,13.1982-3.3223,23.0713-3.4688c3.9219-0.0576,7.2227-2.9502,7.7959-6.8291
		c0.2344-1.5859-0.0156-3.1465-0.6484-4.5176c2.3525,0.6768,4.6992,1.3213,7.0381,1.9307c3.7266,0.9766,7.6162-0.8496,9.2568-4.333
		c1.6396-3.4844,0.5654-7.6426-2.5576-9.8955c-9.0527-6.5322-15.5586-12.7559-18.8135-18
		c-8.6357-13.8994-8.623-33.1182-7.5928-44.6904c9.125,4.7861,22.6357,13.8408,28.3389,27.5781
		c8.1035,19.5,8.4189,36.9727,7.8848,45.6523c-0.1113,1.8145,0.3945,3.5391,1.3467,4.9541
		C373.1882,828.3779,371.2331,828.0293,371.0124,827.9902z M444.9235,863.6494c-0.6738,1.5225-2.3281,2.166-3.2725,2.041
		c-0.2012-0.0264-0.54-0.0703-0.749-1.3975c-1.8008-11.4033-13.9512-20.4023-38.2373-28.3193
		c-0.6436-0.21-1.2852-0.415-1.9258-0.6172c13.292,1.8467,25.6191,3.9297,33.4346,10.5547
		C443.5173,853.8311,446.3054,860.5273,444.9235,863.6494z"/>
</g>
<g id="change2">
	<path fill="#1ABC9C" d="M944.3938,538.3416c21.295-11.6177,27.955-40.5589,27.955-40.5589s-32.903-3.3463-52.7054,12.0566
		c-6.0827,4.7328-11.6976,12.9217-16.1185,20.7018c3.6056-16.4018,5.9404-32.8449,7.2426-49.227
		c8.0605-1.4904,24.9212-6.0233,41.7175-19.4312c18.5737-14.835,20.0541-43.9006,20.0541-43.9006s-32.3094,2.3748-48.808,20.6027
		c-4.9747,5.5082-8.9424,14.1622-11.8669,22.3026c0.4291-17.1797-0.3328-34.2233-2.1121-51.0226
		c7.2921-2.6525,23.2584-9.8756,37.5417-26.078c15.3953-17.4761,11.8895-45.7809,11.8895-45.7809s-30.7906,7.7913-43.5903,28.1849
		c-4.2632,6.7925-6.6983,17.0646-8.0832,26.0782c-2.7149-18.0784-6.6083-35.7895-11.5191-52.9845
		c6.2064-3.4749,21.0377-13.1865,32.4897-31.9592c11.9017-19.4821,3.7109-46.2023,3.7109-46.2023s-28.4002,12.7529-37.2874,34.6212
		c-3.257,8.0162-3.6557,19.7131-3.2775,29.1857c-5.9437-18.3562-13.0005-36.0516-21.0245-52.8358
		c5.4368-4.4464,18.0532-16.3323,25.8851-36.3337c8.1527-20.8265-4.3163-45.2232-4.3163-45.2232s-25.2219,17.1423-30.0825,39.7615
		c-1.743,8.1236-0.2355,19.1948,1.6855,28.1805c-9.0233-17.235-19.04-33.3711-29.7781-48.2092
		c4.6741-5.5552,14.3455-18.9843,18.3802-38.9865c4.3309-21.4951-11.837-42.9186-11.837-42.9186s-21.4469,20.8454-22.2809,43.5011
		c-0.2802,7.5771,2.6014,17.1297,5.7322,25.1506c-11.778-14.777-24.2968-27.9432-37.2406-39.2874
		c3.3704-5.6081,11.0637-20.6102,11.5655-41.5377c0.533-21.485-18.7371-39.4103-18.7371-39.4103s-17.1423,23.7648-14.0785,45.775
		c1.2005,8.7352,7.1738,19.417,12.228,27.168c-15.7864-13.7335-31.312-25.2929-46.1275-35.0349
		c2.1293-5.2817,7.6436-21.6341,4.4257-42.874c-3.1659-20.8134-24.8005-34.8394-24.8005-34.8394s-12.4982,25.8513-5.8116,46.5723
		c2.9219,9.0557,11.822,19.4038,18.2646,26.0552c-19.3239-12.0864-37.2077-21.0526-52.5836-27.6831
		c1.0937-4.9557,3.9435-22.0055-2.9563-42.5096c-6.5692-19.5664-29.866-29.4107-29.866-29.4107s-7.6348,27.0714,2.3293,45.9358
		c4.655,8.7971,16.116,17.8375,23.4862,23.0449c-10.9777-4.4642-20.4066-7.6752-27.8442-9.963
		c-3.3463-4.0844-14.9374-17.0683-28.9255-19.4688c-11.8519-2.01-31.7918,5.6174-31.7918,5.6174s9.5457,13.0189,28.8535,19.6439
		c13.9574,4.7975,29.4789-2.7498,32.354-4.2556c9.7,3.3989,22.687,8.3687,37.9411,15.6044
		c-7.1406-1.3346-26.3529-4.339-37.9594-0.5432c-20.256,6.6469-33.5619,31.4388-33.5619,31.4388s23.5978,9.0628,41.9052-0.4521
		c20.4736-10.6122,30.2277-26.0922,32.0728-29.2664c16.0486,7.749,34.4464,17.992,54.0497,31.4905
		c-8.4219-2.9547-24.1366-7.6781-34.9211-6.1337c-21.5493,3.077-39.3,25.6417-39.3,25.6417s22.105,13.2869,42.1854,6.969
		c21.1185-6.6202,33.4737-19.2355,36.8854-23.0981c14.6879,10.4201,29.9734,22.6524,45.397,37.0668
		c1.1445,1.0114,2.2697,2.0963,3.4066,3.1374c-8.0122-4.4815-22.7451-11.8366-33.7177-12.1896
		c-22.2048-0.7349-44.0322,18.813-44.0322,18.813s19.8638,17.2623,41.1707,14.4738c22.6072-2.9395,37.3225-13.6105,41.2625-16.7738
		c14.5061,13.9263,28.2971,30.2789,40.9841,48.4999c-7.2924-5.9374-20.7015-15.8339-31.5778-18.119
		c-22.1815-4.6616-47.5789,11.1068-47.5789,11.1068s16.8907,20.8646,38.7912,21.8436c22.7286,1.0266,39.1848-6.7175,44.1284-9.3809
		c10.7019,15.9744,20.5259,33.3303,29.2152,51.7566c-6.5923-7.2048-16.3603-16.6066-25.2965-20.1915
		c-21.4583-8.6194-49.7678,2.7317-49.7678,2.7317s13.2562,23.9592,35.0952,28.8183c20.9835,4.6898,37.8859,0.8582,44.5941-1.1656
		c7.5232,17.1263,14.0851,35.0719,19.4125,53.666c-5.3215-8.0999-12.84-17.9613-20.5303-22.7383
		c-20.0424-12.4588-50.5023-6.0734-50.5023-6.0734s9.0891,26.4244,30.1707,35.1799c19.6652,8.1836,36.915,7.6183,44.4039,6.8057
		c4.6261,18.3743,8.0276,37.2942,10.0833,56.5366c-3.9117-9.1436-9.7885-20.6086-16.7733-26.857
		c-17.9145-16.0773-49.665-15.0542-49.665-15.0542s4.4418,28.1672,24.0919,40.7004c18.4178,11.7769,35.9622,14.2294,43.5574,14.7209
		c1.3516,18.7076,1.3593,37.6715-0.1251,56.7148c-2.3045-9.909-6.1972-22.5941-12.1472-30.1556
		c-15.1817-19.3389-47.2508-23.9315-47.2508-23.9315s-0.5066,29.0948,17.0045,45.1735
		c16.3552,15.0407,33.4938,20.6292,41.0832,22.4898c-1.976,17.0573-5.1759,34.1345-9.7526,51.1047
		c-0.7075-9.8662-2.4658-21.6678-6.6672-29.517c-11.8253-22.1141-43.2509-32.4178-43.2509-32.4178s-5.6716,29.1448,9.0657,48.3924
		c13.4263,17.5513,29.1332,26.1954,36.686,29.6068c-4.7955,16.9529-10.8771,33.2669-17.9609,48.951
		c1.0812-10.134,1.4697-22.5692-1.4047-31.349c-7.9771-24.3146-37.7172-40.2397-37.7172-40.2397s-10.8741,28.2816,0.5326,50.2404
		c10.3259,19.921,24.4932,31.373,31.5117,36.1774c-7.5188,14.8269-15.9894,28.9939-25.2157,42.4893
		c2.5419-9.4461,4.5713-20.4895,3.3525-28.9778c-3.6846-25.8421-30.753-47.1122-30.753-47.1122s-15.9396,26.4902-8.381,50.5798
		c6.5787,20.9724,18.1124,34.7485,24.5152,41.1904c-9.7289,12.8388-20.1509,24.9647-31.0972,36.3579
		c3.9117-8.6476,7.4269-18.563,7.694-26.736c0.8486-26.6207-22.5735-52.7907-22.5735-52.7907s-20.7125,23.7972-17.3706,49.3435
		c2.8283,21.8074,11.6862,37.5173,17.0209,45.2946c-11.5663,10.8683-23.6088,20.9048-35.9329,30.1371
		c5.3061-7.8535,10.3635-16.9095,12.0267-24.8619c5.5952-26.6002-13.3323-57.0543-13.3323-57.0543s-25.0174,20.2501-26.1963,46.5079
		c-1.0089,22.3633,5.0764,39.6857,9.0602,48.4678c-13.765,9.1841-27.7685,17.3315-41.8038,24.3667
		c7.1885-7.2415,14.6199-16.0704,17.9186-24.3105c10.3185-25.7543-3.28-59.7083-3.28-59.7083s-28.7514,15.9133-34.5744,42.1008
		c-5.087,22.777-1.7942,41.5712,0.6785,50.9065c-14.7274,6.3167-29.356,11.3497-43.6375,15.0729
		c8.0858-5.8338,16.4126-12.9921,20.9293-20.2673c14.9392-24.0427,7.2661-60.5779,7.2661-60.5779s-31.7007,10.8948-42.1974,36.1782
		c-8.5423,20.5563-9.1162,38.8801-8.4812,49.2101c-20.7314,3.9425-42.7645,3.6804-56.4036,15.2421
		c-33.3468,28.2677,3.3468,44.7323,6.3468,25.7323s63.3799-29.6727,63.3799-29.6727c4.7337,8.0843,16.2952,24.6785,37.5457,37.6541
		c23.3842,14.2599,55.4276,4.4247,55.4276,4.4247s-15.3046-34.0447-41.5244-44.7082c-7.1717-2.9167-16.812-3.9216-25.967-4.0575
		c13.9255-4.4346,28.0809-10.0743,42.2471-16.8058c6.285,7.2157,20.0804,20.5974,42.0087,29.1857
		c24.979,9.7944,54.2363-5.1592,54.2363-5.1592s-20.5602-30.2523-47.678-36.0783c-7.6044-1.6322-17.3636-0.8875-26.407,0.6116
		c13.179-7.3522,26.2538-15.6717,39.074-24.8467c6.8845,5.7203,22.7996,16.9618,46.3304,21.7095
		c25.7775,5.1917,51.4651-14.2158,51.4651-14.2158s-24.9794-25.6959-52.1473-26.7055c-8.4914-0.3149-19.0773,2.6807-28.2813,6.1392
		c12.7558-10.143,25.137-21.1856,36.9802-33.0452c7.5056,4.3202,24.8956,12.6198,48.6393,13.1962
		c25.7662,0.6262,47.2629-22.471,47.2629-22.471s-28.4993-20.5575-54.8976-16.9053c-8.3188,1.15-18.1165,5.9146-26.4575,10.8645
		c11.1105-12.2781,21.6313-25.3053,31.3613-39.0692c8.0832,2.9014,26.1583,7.8339,48.9817,4.3785
		c24.9669-3.7808,41.7786-29.7255,41.7786-29.7255s-30.9805-14.9917-55.8458-6.9734c-7.5853,2.446-15.9283,8.3976-22.9942,14.3964
		c8.6736-13.7824,16.579-28.1823,23.525-43.19c8.5306,1.4006,26.4784,2.8636,47.4666-4.2035
		c23.4456-7.8968,35.2592-35.8063,35.2592-35.8063s-32.4617-9.1886-55.0996,2.7683c-6.6179,3.5057-13.344,10.2338-18.9932,16.9437
		c5.7744-14.7358,10.6298-29.9794,14.449-45.6948C906.8832,550.4514,924.8822,548.9876,944.3938,538.3416z"/>
	<path fill="#1ABC9C" d="M439.3464,839.8085c-13.639-11.5616-35.6721-11.2996-56.4036-15.2421
		c0.635-10.3301,0.0611-28.6539-8.4811-49.2101c-10.4967-25.2833-42.1974-36.1782-42.1974-36.1782s-7.6732,36.5352,7.2661,60.5779
		c4.5168,7.2752,12.8436,14.4335,20.9293,20.2673c-14.2815-3.7232-28.9101-8.7562-43.6375-15.0729
		c2.4727-9.3353,5.7656-28.1295,0.6785-50.9065c-5.823-26.1876-34.5743-42.1008-34.5743-42.1008s-13.5986,33.954-3.28,59.7083
		c3.2986,8.2402,10.73,17.069,17.9185,24.3105c-14.0353-7.0352-28.0388-15.1826-41.8038-24.3667
		c3.9838-8.782,10.0691-26.1045,9.0602-48.4678c-1.179-26.2578-26.1963-46.5079-26.1963-46.5079s-18.9274,30.4542-13.3323,57.0543
		c1.6633,7.9525,6.7206,17.0085,12.0268,24.8619c-12.3242-9.2323-24.3667-19.2689-35.9329-30.1371
		c5.3347-7.7772,14.1926-23.4871,17.0209-45.2946c3.3419-25.5463-17.3706-49.3435-17.3706-49.3435s-23.4222,26.17-22.5735,52.7907
		c0.267,8.173,3.7823,18.0884,7.694,26.736c-10.9462-11.3932-21.3683-23.5191-31.0972-36.358
		c6.4028-6.4419,17.9365-20.218,24.5152-41.1904c7.5587-24.0896-8.381-50.5798-8.381-50.5798s-27.0684,21.2701-30.7529,47.1121
		c-1.2188,8.4883,0.8105,19.5317,3.3524,28.9778c-9.2263-13.4954-17.6968-27.6624-25.2156-42.4893
		c7.0184-4.8044,21.1857-16.2564,31.5116-36.1774c11.4068-21.9589,0.5326-50.2404,0.5326-50.2404s-29.7401,15.9252-37.7172,40.2397
		c-2.8744,8.7798-2.4859,21.215-1.4046,31.349c-7.0839-15.6841-13.1655-31.9981-17.961-48.951
		c7.5528-3.4113,23.2598-12.0555,36.6861-29.6068c14.7372-19.2476,9.0657-48.3925,9.0657-48.3925s-31.4257,10.3038-43.2509,32.4179
		c-4.2015,7.8491-5.9598,19.6507-6.6672,29.517c-4.5768-16.9702-7.7767-34.0475-9.7527-51.1047
		c7.5894-1.8606,24.7281-7.4491,41.0833-22.4898c17.5111-16.0786,17.0044-45.1735,17.0044-45.1735s-32.0691,4.5927-47.2508,23.9315
		c-5.9499,7.5616-9.8427,20.2466-12.1471,30.1556c-1.4844-19.0433-1.4767-38.0073-0.1251-56.7148
		c7.5953-0.4916,25.1396-2.944,43.5574-14.721c19.6502-12.5332,24.092-40.7004,24.092-40.7004s-31.7505-1.0231-49.665,15.0542
		c-6.9847,6.2484-12.8615,17.7133-16.7733,26.857c2.0558-19.2424,5.4572-38.1622,10.0834-56.5366
		c7.4888,0.8126,24.7386,1.3779,44.4039-6.8057c21.0815-8.7556,30.1706-35.1799,30.1706-35.1799s-30.46-6.3854-50.5023,6.0734
		c-7.6904,4.777-15.2088,14.6385-20.5303,22.7383c5.3273-18.5942,11.8892-36.5397,19.4124-53.666
		c6.7082,2.0237,23.6106,5.8554,44.5941,1.1656c21.8391-4.8591,35.0953-28.8183,35.0953-28.8183s-28.3095-11.3512-49.7678-2.7317
		c-8.9363,3.5849-18.7043,12.9868-25.2965,20.1915c8.6893-18.4263,18.5133-35.7822,29.2152-51.7566
		c4.9437,2.6633,21.3998,10.4074,44.1284,9.3809c21.9006-0.9791,38.7912-21.8436,38.7912-21.8436s-25.3975-15.7684-47.5789-11.1068
		c-10.8764,2.285-24.2855,12.1815-31.5779,18.119c12.6871-18.221,26.478-34.5736,40.9841-48.4999
		c3.9399,3.1633,18.6552,13.8343,41.2625,16.7738c21.3068,2.7886,41.1706-14.4738,41.1706-14.4738s-21.8274-19.5479-44.0322-18.813
		c-10.9726,0.353-25.7054,7.7081-33.7177,12.1896c1.1369-1.0411,2.262-2.126,3.4066-3.1374
		c15.4235-14.4145,30.709-26.6469,45.397-37.0669c3.4117,3.8625,15.767,16.4779,36.8854,23.0982
		c20.0803,6.3179,42.1853-6.969,42.1853-6.969s-17.7506-22.5646-39.3-25.6417c-10.7845-1.5444-26.4992,3.1791-34.9211,6.1337
		c19.6034-13.4985,38.0011-23.7415,54.0497-31.4906c1.845,3.1741,11.5991,18.6542,32.0728,29.2664
		c18.3074,9.5149,41.9052,0.4521,41.9052,0.4521s-13.306-24.7919-33.5619-31.4388c-11.6065-3.7958-30.8188-0.7914-37.9594,0.5432
		c15.2542-7.2357,28.2411-12.2055,37.9411-15.6044c2.8751,1.5057,18.3967,9.053,32.3541,4.2556
		c19.3078-6.625,28.8534-19.644,28.8534-19.644s-19.9399-7.6274-31.7918-5.6174c-13.9881,2.4005-25.5792,15.3843-28.9255,19.4688
		c-7.4376,2.2878-16.8665,5.4987-27.8442,9.963c7.3703-5.2073,18.8312-14.2478,23.4862-23.0449
		c9.9641-18.8645,2.3293-45.9358,2.3293-45.9358s-23.2967,9.8443-29.8659,29.4107c-6.8999,20.5042-4.05,37.5539-2.9563,42.5096
		c-15.376,6.6304-33.2598,15.5967-52.5837,27.6831c6.4427-6.6514,15.3427-16.9995,18.2646-26.0552
		c6.6866-20.721-5.8116-46.5723-5.8116-46.5723s-21.6346,14.026-24.8005,34.8394c-3.2178,21.2399,2.2964,37.5923,4.4257,42.8739
		c-14.8156,9.7421-30.3411,21.3014-46.1274,35.0349c5.0541-7.751,11.0275-18.4328,12.228-27.168
		c3.0638-22.0103-14.0785-45.775-14.0785-45.775s-19.2701,17.9253-18.7372,39.4103c0.5019,20.9275,8.1951,35.9296,11.5655,41.5377
		c-12.9438,11.3442-25.4625,24.5104-37.2406,39.2874c3.1308-8.0208,6.0125-17.5734,5.7323-25.1505
		c-0.834-22.6557-22.2809-43.5011-22.2809-43.5011s-16.1679,21.4235-11.8369,42.9186
		c4.0346,20.0023,13.7061,33.4313,18.3801,38.9865c-10.7381,14.8381-20.7548,30.9741-29.7781,48.2092
		c1.9211-8.9858,3.4285-20.0569,1.6855-28.1806c-4.8606-22.6191-30.0825-39.7614-30.0825-39.7614s-12.469,24.3967-4.3163,45.2232
		c7.8319,20.0013,20.4484,31.8873,25.8851,36.3337c-8.0239,16.7842-15.0807,34.4796-21.0244,52.8358
		c0.3782-9.4727-0.0205-21.1695-3.2775-29.1857c-8.8873-21.8683-37.2875-34.6212-37.2875-34.6212s-8.1907,26.7202,3.7109,46.2023
		c11.4521,18.7726,26.2834,28.4843,32.4897,31.9592c-4.9107,17.195-8.8042,34.9061-11.519,52.9845
		c-1.3849-9.0135-3.8199-19.2856-8.0832-26.0782c-12.7997-20.3936-43.5904-28.1849-43.5904-28.1849s-3.5057,28.3047,11.8896,45.7809
		c14.2833,16.2024,30.2496,23.4255,37.5416,26.078c-1.7792,16.7994-2.5411,33.843-2.1121,51.0226
		c-2.9245-8.1403-6.8922-16.7943-11.8669-22.3025c-16.4985-18.228-48.8079-20.6027-48.8079-20.6027s1.4803,29.0656,20.054,43.9006
		c16.7963,13.408,33.657,17.9409,41.7175,19.4312c1.3022,16.3821,3.6371,32.8252,7.2426,49.227
		c-4.4209-7.7802-10.0358-15.9691-16.1185-20.7018c-19.8024-15.4028-52.7054-12.0566-52.7054-12.0566
		s6.6599,28.9412,27.9551,40.5589c19.5115,10.6461,37.5106,12.1098,45.7291,12.1383c3.8192,15.7154,8.6747,30.9589,14.449,45.6948
		c-5.6493-6.7099-12.3754-13.438-18.9933-16.9437c-22.6379-11.9569-55.0995-2.7683-55.0995-2.7683s11.8135,27.9095,35.2591,35.8063
		c20.9883,7.0671,38.9361,5.6041,47.4666,4.2035c6.946,15.0078,14.8514,29.4076,23.525,43.19
		c-7.066-5.9988-15.4089-11.9504-22.9943-14.3964c-24.8652-8.0183-55.8457,6.9734-55.8457,6.9734s16.8116,25.9447,41.7786,29.7255
		c22.8234,3.4554,40.8985-1.4771,48.9817-4.3785c9.73,13.7639,20.2509,26.7911,31.3613,39.0692
		c-8.3411-4.9498-18.1387-9.7144-26.4575-10.8644c-26.3983-3.6522-54.8977,16.9053-54.8977,16.9053s21.4967,23.0972,47.2629,22.471
		c23.7437-0.5765,41.1337-8.8761,48.6393-13.1962c11.8431,11.8596,24.2244,22.9022,36.9802,33.0452
		c-9.204-3.4585-19.7899-6.4542-28.2814-6.1392c-27.1678,1.0095-52.1472,26.7055-52.1472,26.7055s25.6875,19.4075,51.465,14.2158
		c23.5309-4.7477,39.446-15.9892,46.3305-21.7096c12.8201,9.1751,25.8949,17.4946,39.0739,24.8468
		c-9.0434-1.499-18.8026-2.2438-26.407-0.6116c-27.1177,5.8261-47.678,36.0784-47.678,36.0784s29.2573,14.9536,54.2363,5.1592
		c21.9283-8.5884,35.7237-21.97,42.0087-29.1857c14.1663,6.7314,28.3216,12.3712,42.2472,16.8058
		c-9.155,0.1359-18.7953,1.1407-25.967,4.0575c-26.2198,10.6635-41.5244,44.7082-41.5244,44.7082s32.0435,9.8351,55.4277-4.4247
		c21.2505-12.9756,32.812-29.5698,37.5457-37.6541c0,0,60.3799,10.6727,63.3799,29.6727S472.6932,868.0762,439.3464,839.8085z"/>
</g>
</svg>
