<?xml version="1.0" encoding="utf-8"?>
<!-- Generator: Adobe Illustrator 21.0.0, SVG Export Plug-In . SVG Version: 6.00 Build 0)  -->
<svg version="1.1" id="wreath-line-3" xmlns="http://www.w3.org/2000/svg" xmlns:xlink="http://www.w3.org/1999/xlink" x="0px"
	 y="0px" viewBox="0 0 1080.645 836.2942" enable-background="new 0 0 1080.645 836.2942" xml:space="preserve">
<g id="change1">
	<path fill="#0B8389" d="M222.2479,119.3959c-0.1674,0.1951-0.3323,0.3901-0.5025,0.5852l1.1599-0.3775
		C222.6865,119.5342,222.467,119.4645,222.2479,119.3959z"/>
	<path fill="#0B8389" d="M858.3971,119.3959c-0.2191,0.0686-0.4386,0.1383-0.6573,0.2077l1.1599,0.3775
		C858.7294,119.786,858.5645,119.5909,858.3971,119.3959z"/>
	<path fill="#0B8389" d="M1018.8348,487.9594c16.3718-10.4722,29.7843-23.0288,39.8651-37.3212
		c12.6422-17.9243,20.0186-38.5746,21.9242-61.3771c0.1488-1.7819-0.5048-3.5374-1.7826-4.788
		c-1.1268-1.1028-2.636-1.7116-4.1962-1.7117c-0.2091,0-0.4189,0.0109-0.6292,0.0331c-0.8514,0.0897-21.1234,2.3263-44.848,13.5652
		c-13.99,6.6276-26.2942,15.0327-36.5706,24.9819c-5.0521,4.8913-9.6134,10.1586-13.6669,15.7758
		c0.7786-10.3539,1.1706-20.749,1.1706-31.1141c0-7.2305-0.1902-14.5005-0.5662-21.6667
		c11.5647-5.9097,30.1552-17.183,45.9956-34.8756c22.0367-24.6138,31.8042-53.4337,29.0305-85.6591
		c-0.1523-1.7709-1.0822-3.3831-2.5387-4.402c-1.0186-0.7125-2.2216-1.0836-3.4396-1.0836c-0.5237,0-1.05,0.0685-1.5659,0.2081
		c-0.6909,0.1869-17.1348,4.7172-35.6625,16.9989c-17.9207,11.8795-31.5901,26.9788-40.3231,44.3702
		c-2.5587-11.9427-5.6644-23.8239-9.2887-35.524c5.1512-6.0341,17.4503-21.7684,25.8441-43.288
		c14.2766-36.6014,10.1993-72.2612-11.7915-103.1248c-1.012-1.4203-2.5919-2.33-4.3283-2.4923
		c-0.1865-0.0175-0.3728-0.0261-0.5583-0.0261c-1.5425,0-3.0342,0.5948-4.1569,1.6734
		c-0.5379,0.5168-13.2865,12.8914-23.2462,33.3713c-6.7677,13.9159-10.5822,28.2188-11.4163,42.4962
		c-7.1188-13.4707-14.9887-26.5995-23.5545-39.2844c6.3728-10.1893,13.7428-25.0682,16.8425-42.8871
		c4.3979-25.2814-1.0864-48.9265-16.3003-70.2782c-1.0121-1.4203-2.5922-2.33-4.3286-2.4921
		c-0.1864-0.0174-0.3727-0.026-0.5582-0.026c-1.5425,0-3.0343,0.595-4.1569,1.6737c-0.3877,0.3724-9.5848,9.2938-17.5192,24.1918
		c-1.6178,3.0377-3.0663,6.1078-4.3432,9.1998c0.0519-0.3072,0.1028-0.6171,0.1522-0.9272
		c4.1638-26.1749-3.0294-50.3968-20.8022-70.0468c-1.1397-1.2601-2.7574-1.9752-4.4493-1.9752
		c-0.0779,0-0.1559,0.0015-0.2341,0.0046c-1.7759,0.069-3.4298,0.922-4.5158,2.3289c-0.3254,0.4214-8.0182,10.5003-12.4448,26.1291
		c-3.7834,13.3578-4.0386,26.7504-0.8417,39.5842c-2.424-1.5301-4.8846-2.9705-7.3753-4.3171
		c-5.7282-4.8333-11.8317-9.7131-18.1693-14.527c-2.8852-6.3519-11.0052-22.255-25.79-37.2352
		c-9.3095-9.4324-19.7071-16.9169-30.9038-22.2454C739.0642,3.3145,724.0634,0.0007,708.211,0c0,0-0.0131,0-0.0132,0
		c-1.3391,0-2.7069,0.0242-4.0656,0.0717c-1.8343,0.0641-3.5383,0.9645-4.6252,2.4435c-1.0867,1.4791-1.4368,3.3741-0.9501,5.1439
		c0.206,0.7486,5.2122,18.5396,19.9664,36.4203c8.2736,10.0266,20.6647,21.2166,38.2671,28.5033
		c-4.5983,0.9207-9.1947,2.1525-13.7661,3.6915c-1.7396,0.5857-3.1154,1.9352-3.7343,3.6633c-0.619,1.728-0.413,3.6441,0.5592,5.201
		c0.2974,0.4763,7.444,11.796,21.3405,23.1158c18.4634,15.04,40.2463,22.9897,62.9937,22.9897
		c9.4171,0,19.1447-1.3432,28.9672-3.9962c7.6021,8.4605,15.0308,17.4648,22.1277,26.8218
		c2.0468,6.3037,4.8344,12.5472,8.3328,18.6735c-15.4882-9.089-34.6917-15.7113-57.7706-15.7125
		c-5.4866-0.0001-11.1308,0.3805-16.7759,1.1315c-1.8036,0.2399-3.4011,1.2854-4.3427,2.8425
		c-0.9417,1.5571-1.126,3.4572-0.501,5.1661c0.2671,0.7299,6.7237,18.076,22.8257,35.5052
		c14.9294,16.16,41.2889,35.4234,82.0829,35.4234c4.709,0,9.5594-0.2582,14.4719-0.769
		c5.335,12.2299,10.0501,24.7331,14.1089,37.4026c-5.7911-5.6879-12.0037-10.7162-18.6028-15.0494
		c-19.0721-12.5234-41.0074-18.9314-65.1964-19.046c-0.0093-0.0001-0.0188-0.0001-0.0282-0.0001
		c-1.7944-0.0001-3.4952,0.8032-4.6353,2.1901c-1.146,1.3942-1.6035,3.23-1.246,4.9991c0.1749,0.8651,4.4623,21.432,19.9877,42.6729
		c9.1563,12.5272,20.342,22.7034,33.2463,30.2458c14.8093,8.6559,31.8721,13.8136,50.7845,15.3585
		c2.5245,16.9562,3.9429,34.1429,4.2296,51.2416c-3.8665-7.7795-8.4004-15.0244-13.5804-21.6894
		c-15.6214-20.1002-36.7272-34.2765-62.7312-42.1354c-0.569-0.172-1.1538-0.2567-1.7356-0.2567
		c-1.1546,0-2.2978,0.3333-3.2847,0.9789c-1.4845,0.9709-2.4631,2.549-2.6732,4.3103c-0.1143,0.9575-2.6938,23.7608,6.3627,50.6357
		c5.3449,15.8608,13.6486,29.8569,24.6806,41.5999c12.7211,13.5408,29.0699,24.0488,48.6487,31.2788
		c-3.1187,20.6486-7.916,41.0858-14.327,61.0697c-1.8679-11.7299-5.0532-22.8711-9.5371-33.323
		c-10.887-25.3768-29.2343-46.0132-54.5325-61.3364c-0.9478-0.5741-2.0243-0.868-3.1086-0.868c-0.6307,0-1.2639,0.0994-1.876,0.301
		c-1.6646,0.5479-3.0065,1.7963-3.6729,3.4171c-0.4054,0.9855-9.9095,24.4957-8.4294,55.6128
		c0.8738,18.3707,5.4129,35.5835,13.491,51.16c9.3386,18.0065,23.4179,33.7895,41.892,46.9753
		c-11.0942,21.2787-24.2186,41.6914-39.2031,60.9904c3.0669-12.9676,5.0921-27.7595,4.5598-43.4592
		c-1.1771-34.7043-14.3365-65.8272-39.1126-92.5042c-1.1373-1.2246-2.7314-1.9169-4.3962-1.9169
		c-0.0718,0-0.1433,0.0013-0.2153,0.0038c-1.7421,0.0626-3.3709,0.8797-4.4626,2.2388
		c-0.7631,0.9502-18.7843,23.6603-27.0685,57.8148c-4.8936,20.1752-5.3457,40.1517-1.344,59.3743
		c4.6469,22.3221,15.3227,43.5885,31.7618,63.2921c-3.4256,3.3041-6.9244,6.5676-10.4461,9.7431
		c-77.21,69.6187-177.2128,107.9594-281.5869,107.9594s-204.3771-38.3408-281.5872-107.9594
		c-3.5219-3.1758-7.0204-6.4391-10.4458-9.743c16.439-19.7036,27.1149-40.9701,31.7618-63.2922
		c4.0017-19.2226,3.5496-39.1991-1.344-59.3743c-8.2841-34.1544-26.3053-56.8646-27.0684-57.8148
		c-1.0917-1.3591-2.7205-2.1761-4.4626-2.2388c-0.0719-0.0026-0.1437-0.0038-0.2153-0.0038c-1.6649,0-3.2589,0.6923-4.3962,1.9169
		c-24.7762,26.6769-37.9355,57.7999-39.1127,92.5042c-0.5323,15.6997,1.4929,30.4916,4.5598,43.4592
		c-14.9846-19.299-28.109-39.7116-39.2032-60.9904c18.4741-13.1858,32.5535-28.9688,41.892-46.9753
		c8.0781-15.5765,12.6172-32.7892,13.4911-51.16c1.4801-31.1171-8.024-54.6273-8.4294-55.6128
		c-0.6665-1.6207-2.0084-2.8692-3.673-3.4171c-0.612-0.2015-1.2455-0.3009-1.876-0.301c-1.0844,0-2.1608,0.2939-3.1086,0.868
		c-25.2981,15.3232-43.6455,35.9597-54.5324,61.3364c-4.484,10.4519-7.6693,21.5931-9.5372,33.323
		c-6.411-19.9839-11.2083-40.4211-14.327-61.0697c19.5789-7.23,35.9276-17.738,48.6487-31.2788
		c11.032-11.7429,19.3357-25.7391,24.6806-41.5999c9.0566-26.8749,6.4771-49.6782,6.3628-50.6357
		c-0.2102-1.7614-1.1888-3.3394-2.6733-4.3103c-0.9868-0.6456-2.1302-0.9789-3.2847-0.9789c-0.582,0-1.1666,0.0847-1.7356,0.2567
		c-26.004,7.8589-47.1099,22.0352-62.7313,42.1354c-5.18,6.665-9.7139,13.9099-13.5804,21.6894
		c0.2867-17.0987,1.7051-34.2854,4.2296-51.2416c18.9124-1.5449,35.9752-6.7026,50.7845-15.3585
		c12.9043-7.5425,24.09-17.7186,33.2463-30.2458c15.5254-21.2409,19.8128-41.8079,19.9877-42.6729
		c0.3575-1.7691-0.1-3.6049-1.246-4.9991c-1.14-1.3868-2.841-2.19-4.6353-2.1901c-0.0095,0-0.0187,0-0.0282,0.0001
		c-24.189,0.1146-46.1241,6.5226-65.1964,19.046c-6.5992,4.3333-12.8117,9.3615-18.6028,15.0494
		c4.0588-12.6695,8.7739-25.1727,14.1089-37.4026c4.9126,0.5108,9.7631,0.769,14.4719,0.769
		c40.8002,0,67.1594-19.2635,82.0874-35.4235c16.1009-17.4296,22.5546-34.776,22.8215-35.5059
		c0.6248-1.7089,0.4403-3.6089-0.5014-5.1658c-0.9417-1.5568-2.5391-2.6022-4.3426-2.842
		c-5.6412-0.7504-11.2852-1.1312-16.7753-1.1315c-23.0776-0.0007-42.2817,6.6214-57.77,15.7105
		c3.4979-6.1256,6.2851-12.3684,8.3317-18.6714c7.0969-9.3571,14.5256-18.3613,22.1277-26.8218
		c9.8223,2.6529,19.5497,3.9961,28.9672,3.9961c22.7506,0,44.5345-7.9498,62.9966-22.9898
		c13.8958-11.3202,21.0406-22.64,21.3378-23.1163c0.9719-1.5569,1.1777-3.4731,0.5588-5.2007
		c-0.6189-1.7278-1.9948-3.0773-3.7341-3.663c-4.5706-1.5386-9.1653-2.77-13.7634-3.6907
		c17.6035-7.2867,29.9961-18.4777,38.2687-28.5044c14.7531-17.881,19.7565-35.6723,19.9622-36.4209
		c0.4865-1.7695,0.1362-3.6645-0.9506-5.1434c-1.0869-1.4788-2.7908-2.3789-4.6249-2.4431C375.1539,0.0242,373.7816,0,372.4342,0
		c-15.8541-0.0012-30.8563,3.3117-44.5894,9.8465c-11.1973,5.3283-21.5948,12.8129-30.9037,22.246
		c-14.7791,14.9761-22.9005,30.8839-25.7866,37.2377c-6.3376,4.814-12.4412,9.6938-18.1694,14.5271
		c-2.4907,1.3466-4.9513,2.787-7.3753,4.3171c3.197-12.8337,2.9417-26.2264-0.8417-39.5842
		c-4.4266-15.6288-12.1194-25.7077-12.4448-26.1291c-1.086-1.4069-2.7398-2.2599-4.5158-2.3289
		c-0.0781-0.0031-0.1563-0.0046-0.2341-0.0046c-1.692-0.0001-3.3096,0.715-4.4493,1.9752
		c-17.7728,19.65-24.966,43.8719-20.8021,70.0468c0.0493,0.3101,0.1002,0.62,0.1521,0.9272
		c-1.2769-3.092-2.7253-6.1622-4.3432-9.1998c-7.9344-14.898-17.1315-23.8194-17.5192-24.1918
		c-1.1224-1.0787-2.6145-1.6736-4.1569-1.6737c-0.1856,0-0.3717,0.0086-0.5582,0.026c-1.7365,0.1622-3.3165,1.0718-4.3286,2.4921
		c-15.2139,21.3517-20.6982,44.9968-16.3003,70.2782c3.0997,17.8188,10.4697,32.6978,16.8425,42.8871
		c-8.5658,12.6849-16.4357,25.8137-23.5545,39.2844c-0.8342-14.2774-4.6486-28.5803-11.4163-42.4962
		c-9.9597-20.4799-22.7083-32.8545-23.2462-33.3713c-1.1226-1.0785-2.6146-1.6733-4.1569-1.6734
		c-0.1856,0-0.3718,0.0086-0.5583,0.0261c-1.7365,0.1623-3.3163,1.072-4.3283,2.4923
		C82.859,168.8202,78.7816,204.48,93.0582,241.0814c8.3938,21.5196,20.6929,37.2538,25.8441,43.288
		c-3.6243,11.7001-6.73,23.5814-9.2887,35.524c-8.733-17.3914-22.4025-32.4907-40.3231-44.3702
		c-18.5277-12.2817-34.9716-16.812-35.6625-16.9989c-0.5158-0.1395-1.0423-0.2081-1.5659-0.2081
		c-1.2182-0.0001-2.421,0.371-3.4397,1.0836c-1.4564,1.0189-2.3863,2.631-2.5386,4.402
		c-2.7737,32.2254,6.9937,61.0452,29.0305,85.6591c15.8404,17.6926,34.4309,28.9659,45.9956,34.8756
		c-0.376,7.1661-0.5662,14.4362-0.5662,21.6667c0,10.3652,0.392,20.7602,1.1706,31.1141
		c-4.0535-5.6172-8.6148-10.8845-13.6669-15.7758c-10.2764-9.9492-22.5806-18.3543-36.5706-24.9819
		c-23.7246-11.2389-43.9966-13.4755-44.848-13.5652c-0.2101-0.0222-0.4202-0.0331-0.6292-0.0331
		c-1.5602,0-3.0692,0.6088-4.1962,1.7117c-1.2778,1.2506-1.9313,3.0062-1.7826,4.788c1.9057,22.8024,9.282,43.4528,21.9243,61.3771
		c10.0807,14.2924,23.4932,26.8491,39.8651,37.3212c22.189,14.1932,43.7999,20.692,52.255,22.8683
		c3.9075,14.8495,8.6717,29.5433,14.2406,43.9354c-28.0253-21.0032-59.475-26.0289-83.1353-26.0298
		c-20.6609-0.0007-35.033,3.8294-35.6346,3.9925c-1.7671,0.4788-3.2188,1.7382-3.9423,3.4199
		c-0.7235,1.6817-0.6396,3.6018,0.2277,5.214c33.8178,62.8555,98.1746,72.2408,133.5271,72.2408
		c6.7776,0,12.4825-0.3416,16.7822-0.7307c2.5104,4.3475,5.1144,8.6762,7.7996,12.966c-16.464-5.8224-34.2499-8.7638-53.1064-8.7642
		c-32.8426-0.0006-56.9426,8.9637-57.9525,9.3454c-1.7128,0.6472-3.0363,2.0411-3.594,3.7849
		c-0.5577,1.744-0.2886,3.6471,0.7308,5.1682c37.9327,56.5988,95.9944,68.4794,138.0226,68.4794
		c14.4588,0,26.8765-1.4265,35.5223-2.811c38.6912,39.0974,84.0452,70.6093,134.8451,93.6819
		c53.3563,24.2337,110.4764,38.0868,169.774,41.1743c0.0411,0.0022,0.0822,0.0038,0.1234,0.0052l10.5613,0.3322
		c0.2813,0.041,0.5692,0.0623,0.8616,0.0623h1.2083c0.2951,0,0.5853-0.0214,0.869-0.0625l10.554-0.332
		c0.0412-0.0014,0.0823-0.0031,0.1234-0.0052c59.2975-3.0875,116.4177-16.9406,169.774-41.1743
		c50.8-23.0726,96.1539-54.5845,134.8452-93.6819c8.6456,1.3846,21.0633,2.811,35.5223,2.811
		c42.0281,0,100.0898-11.8806,138.0226-68.4794c1.0194-1.5211,1.2885-3.4244,0.7306-5.1685s-1.8817-3.1379-3.5946-3.7849
		c-1.01-0.3815-25.1141-9.3439-57.9514-9.3451c-18.8562-0.0007-36.6404,2.9399-53.1065,8.7639
		c2.6852-4.2899,5.2889-8.6181,7.7994-12.9656c4.2997,0.3891,10.0047,0.7307,16.7822,0.7307
		c35.3524,0,99.7092-9.3853,133.527-72.2408c0.8674-1.6123,0.9513-3.5325,0.2275-5.2143c-0.7236-1.6819-2.1757-2.9412-3.9429-3.4199
		c-0.6019-0.1629-14.978-3.9922-35.6335-3.9922c-23.6596,0-55.1094,5.0253-83.1354,26.0294
		c5.5688-14.3921,10.3329-29.0854,14.2404-43.9349C975.0349,508.6514,996.6459,502.1526,1018.8348,487.9594z M935.3913,579.1191
		c30.7798-36.7809,71.59-44.3858,100.0836-44.3858c20.0948,0,34.0651,3.7835,34.0651,3.7835
		c-32.3704,60.1652-94.3411,69.0835-128.2432,69.0835c-9.0497,0-16.1007-0.6357-20.0532-1.1016
		c-6.3779,11.2914-13.2819,22.2738-20.6728,32.9241c23.8383-12.5524,48.3265-16.3522,69.2507-16.3514
		c32.1194,0.0012,55.8314,8.958,55.8314,8.958c-36.5928,54.5995-92.9148,65.8199-133.0385,65.8199
		c-15.7623,0-29.0272-1.7322-37.6105-3.2463c-76.3463,78.2341-183.3409,129.0772-302.843,135.2997l-11.2343,0.3534v0.0381h-1.2083
		v-0.0381l-11.2343-0.3534c-119.502-6.2225-226.4966-57.0656-302.843-135.2997c-8.5851,1.5145-21.8437,3.2463-37.6105,3.2463
		c-40.123,0-96.4487-11.225-133.0385-65.8199c0,0,23.707-8.9586,55.8314-8.958c20.9219,0.0004,45.416,3.8009,69.2506,16.3514
		c-7.3909-10.6503-14.2949-21.6328-20.6728-32.9241c-3.9536,0.4661-10.9997,1.1016-20.0532,1.1016
		c-33.9038,0-95.8753-8.923-128.2432-69.0835c0,0,13.9655-3.7843,34.0651-3.7835c28.493,0.0011,69.3069,7.6086,100.0835,44.3858
		c-11.0037-23.3866-19.8428-47.8936-26.2831-73.29c-1.134-0.2335-105.0155-21.8748-112.9706-117.0677
		c0,0,79.3372,8.3602,105.2527,79.0849c-3.1002-20.1883-4.709-40.8367-4.709-61.8431c0-8.4812,0.2607-16.9122,0.7838-25.2841
		c-20.837-9.9651-81.3889-45.2617-75.2658-116.4028c0,0,63.933,17.2888,79.5095,77.7977
		c3.2137-20.2477,7.9575-40.0152,14.0829-59.2155c-0.0056,0.0075-0.0099,0.0148-0.0153,0.0222c0,0-66.6749-70.2246-15.9028-141.4823
		c0,0,49.6034,47.6599,27.25,110.37c11.2963-27.5189,25.5242-53.6412,42.3271-78.0257
		c-11.5645-17.268-35.8406-63.4835-2.8588-109.7712c0,0,35.2172,33.8414,25.3934,79.9634
		c6.6525-8.0494,13.6097-15.8617,20.8463-23.4321l-1.1743,0.3823l-0.1608-0.4938c-0.6959,0.7892-1.4111,1.5785-2.15,2.3682
		c0,0-32.019-52.0222,8.3649-96.6717c0,0,29.0375,37.6146,4.2571,79.9379c6.1104-5.4412,14.3947-11.7996,24.5472-17.22
		c6.3782-5.3987,12.9351-10.6126,19.6345-15.6677C279.7717,64.4307,307.3107,5.9951,372.4341,6
		c1.2725,0.0001,2.5676,0.0225,3.8688,0.0681c0,0-18.7969,68.3853-94.0475,68.3853c-2.1835,0-4.4199-0.0577-6.6994-0.1763
		c0,0,0.071-0.1823,0.2094-0.5151c-5.4828,4.3424-10.8628,8.7941-16.1078,13.3823c12.3237-6.0754,27.1458-10.5952,43.9874-10.5947
		c10.0079,0.0002,20.7305,1.5966,32.0616,5.4112c0,0-27.0189,43.2834-79.2448,43.2834c-9.4751,0-19.7804-1.4248-30.904-4.7912
		c-9.0399,9.8706-17.5577,20.1661-25.5961,30.8168c-2.9598,9.4932-7.8646,19.4218-15.4248,29.6304c0,0-1.0735-1.2631-2.7571-3.5698
		c-7.488,11.6906-14.3831,23.7631-20.6487,36.1779c14.5615-19.6767,45.1075-50.4789,93.6739-50.4774
		c5.1254,0.0002,10.4552,0.3434,15.9842,1.079c0,0-24.4916,66.9896-99.2736,66.9896c-5.751,0-11.806-0.3969-18.1635-1.2505
		c-10.0302,22.3103-18.0757,45.6207-23.9037,69.7354c15.9247-24.0078,45.9905-53.7037,97.3138-53.9466
		c0,0-16.092,79.5934-103.3286,83.7909c-3.3372,20.6736-5.0928,41.8368-5.0928,63.3988c0,8.5452,0.2792,17.0275,0.8188,25.4427
		c7.3871-29.9543,27.6614-73.1959,83.2831-90.0059c0,0,10.5504,88.4308-80.3785,118.7789
		c4.5118,32.6702,13.0271,64.1423,25.0214,93.9829c-0.6455-34.524,8.9382-85.5932,63.1277-118.416
		c0,0,37.6763,91.6154-49.1464,149.5188c16.5414,32.7864,37.5455,63.1279,62.1552,90.458
		c-14.2858-34.4475-30.3561-101.1554,23.739-159.4006c0,0,71.4054,88.8986-6.8929,177.078
		c4.7685,4.7234,9.6531,9.3397,14.6494,13.8449c80.9626,73.0023,183.2838,109.5035,285.605,109.5035
		s204.6424-36.5012,285.605-109.5035c4.9965-4.5052,9.8811-9.1215,14.6495-13.8449c-78.2983-88.1794-6.8929-177.078-6.8929-177.078
		c54.0951,58.2452,38.0248,124.9531,23.739,159.4006c24.6097-27.3301,45.6138-57.6716,62.1552-90.458
		C832.7554,514.2254,870.4318,422.61,870.4318,422.61c54.1895,32.8228,63.7732,83.892,63.1277,118.416
		c11.9943-29.8406,20.5095-61.3127,25.0214-93.9829c-90.9289-30.3481-80.3785-118.7789-80.3785-118.7789
		c55.6217,16.81,75.896,60.0516,83.2831,90.0059c0.5396-8.4152,0.8188-16.8975,0.8188-25.4427
		c0-21.562-1.7556-42.7252-5.0928-63.3988c-87.2366-4.1975-103.3286-83.7909-103.3286-83.7909
		c51.3234,0.2429,81.3891,29.9388,97.3138,53.9466c-5.828-24.1146-13.8735-47.425-23.9037-69.7354
		c-6.3629,0.8544-12.4081,1.2505-18.1635,1.2505c-74.7704,0-99.2736-66.9896-99.2736-66.9896
		c5.5326-0.7361,10.8559-1.0793,15.9843-1.079c48.5606,0.0026,79.1135,30.8019,93.6739,50.4774
		c-6.2657-12.4148-13.1608-24.4872-20.6487-36.1779c-1.6835,2.3068-2.7571,3.5698-2.7571,3.5698
		c-7.5602-10.2086-12.465-20.1372-15.4248-29.6304c-8.0385-10.6506-16.5563-20.9462-25.5961-30.8168
		c-11.128,3.3677-21.4258,4.7912-30.9041,4.7912c-52.2185,0-79.2447-43.2834-79.2447-43.2834
		c11.3329-3.8152,22.0522-5.4115,32.0615-5.4112c16.8395,0.0005,31.6649,4.5199,43.9874,10.5947
		c-5.2451-4.5881-10.6251-9.0399-16.1078-13.3823c0.1383,0.3328,0.2094,0.5151,0.2094,0.5151
		c-2.2844,0.1188-4.5114,0.1763-6.6994,0.1763c-75.2388,0-94.0475-68.3853-94.0475-68.3853
		c1.3054-0.0457,2.5924-0.0681,3.8688-0.0681c65.1147,0.0023,92.6627,58.4312,96.4213,67.1777
		c6.6994,5.0551,13.2563,10.2689,19.6345,15.6677c10.1526,5.4205,18.437,11.7788,24.5472,17.22
		c-24.7805-42.3232,4.2571-79.9379,4.2571-79.9379c40.384,44.6495,8.3649,96.6717,8.3649,96.6717
		c-0.739-0.7897-1.4542-1.5789-2.15-2.3682l-0.1608,0.4938l-1.1743-0.3823c7.2366,7.5704,14.1938,15.3828,20.8463,23.4321
		c-9.8239-46.122,25.3934-79.9634,25.3934-79.9634c32.9819,46.2877,8.7057,92.5032-2.8588,109.7712
		c16.8029,24.3845,31.0308,50.5068,42.3271,78.0257c-22.3534-62.7101,27.25-110.37,27.25-110.37
		c50.7722,71.2577-15.9028,141.4823-15.9028,141.4823c-0.0054-0.0074-0.0097-0.0146-0.0152-0.0222
		c6.1254,19.2003,10.8692,38.9678,14.0829,59.2155c15.5765-60.5089,79.5095-77.7977,79.5095-77.7977
		c6.123,71.1411-54.4288,106.4377-75.2658,116.4028c0.5231,8.3719,0.7838,16.8029,0.7838,25.2841
		c0,21.0063-1.6089,41.6548-4.709,61.8431c25.9155-70.7247,105.2528-79.0849,105.2528-79.0849
		c-7.9551,95.1929-111.8367,116.8342-112.9706,117.0677C955.2341,531.2255,946.395,555.7325,935.3913,579.1191z M208.5051,114.3675
		c1.4382,3.5834,2.8186,6.4484,3.8495,8.4337c-0.9456,1.0289-1.8852,2.0611-2.82,3.0978
		C209.4511,122.058,209.1073,118.2098,208.5051,114.3675z M872.14,114.3675c-0.6022,3.8423-0.946,7.6906-1.0296,11.5314
		c-0.9348-1.0367-1.8745-2.0688-2.82-3.0978C869.3214,120.8159,870.7017,117.9509,872.14,114.3675z"/>
</g>
</svg>
