<?xml version="1.0" encoding="utf-8"?>
<!-- Generator: Adobe Illustrator 21.0.0, SVG Export Plug-In . SVG Version: 6.00 Build 0)  -->
<svg version="1.1" id="wreath-illustration-3" xmlns="http://www.w3.org/2000/svg" xmlns:xlink="http://www.w3.org/1999/xlink"
	 x="0px" y="0px" viewBox="0 0 964.5394 875.2531" enable-background="new 0 0 964.5394 875.2531" xml:space="preserve">
<g id="change1">
	<path fill="#1ABC9C" d="M936.3942,530.3417c21.295-11.6177,27.955-40.5589,27.955-40.5589s-32.903-3.3463-52.7054,12.0566
		c-6.0827,4.7328-11.6976,12.9217-16.1185,20.7018c3.6056-16.4018,5.9404-32.8449,7.2426-49.227
		c8.0605-1.4904,24.9212-6.0233,41.7175-19.4312c18.5737-14.835,20.0541-43.9006,20.0541-43.9006s-32.3094,2.3748-48.808,20.6027
		c-4.9747,5.5082-8.9424,14.1622-11.8669,22.3026c0.4291-17.1797-0.3328-34.2233-2.1121-51.0226
		c7.2921-2.6525,23.2584-9.8756,37.5417-26.078c15.3953-17.4761,11.8895-45.7809,11.8895-45.7809s-30.7906,7.7913-43.5903,28.1849
		c-4.2632,6.7925-6.6983,17.0646-8.0832,26.0782c-2.7149-18.0784-6.6083-35.7895-11.5191-52.9845
		c6.2064-3.4749,21.0377-13.1865,32.4897-31.9592c11.9017-19.4821,3.7109-46.2023,3.7109-46.2023s-28.4002,12.7529-37.2874,34.6212
		c-3.257,8.0162-3.6557,19.7131-3.2775,29.1857c-5.9437-18.3562-13.0005-36.0516-21.0245-52.8358
		c5.4368-4.4464,18.0532-16.3323,25.8851-36.3337c8.1527-20.8265-4.3163-45.2232-4.3163-45.2232s-25.2219,17.1423-30.0825,39.7615
		c-1.743,8.1236-0.2355,19.1948,1.6855,28.1805c-9.0233-17.235-19.04-33.3711-29.7781-48.2092
		c4.6741-5.5552,14.3455-18.9843,18.3802-38.9865c4.3309-21.4951-11.837-42.9186-11.837-42.9186s-21.4469,20.8454-22.2809,43.5011
		c-0.2802,7.5771,2.6014,17.1297,5.7322,25.1506c-11.778-14.777-24.2968-27.9432-37.2406-39.2874
		c3.3704-5.6081,11.0637-20.6102,11.5655-41.5377c0.533-21.485-18.7371-39.4103-18.7371-39.4103s-17.1423,23.7648-14.0785,45.775
		c1.2005,8.7352,7.1738,19.417,12.228,27.168c-15.7864-13.7335-31.312-25.2928-46.1275-35.0349
		c2.1293-5.2817,7.6436-21.6341,4.4257-42.874c-3.1659-20.8134-24.8005-34.8394-24.8005-34.8394s-12.4982,25.8513-5.8116,46.5723
		c2.9219,9.0557,11.822,19.4038,18.2646,26.0552c-19.3239-12.0864-37.2077-21.0526-52.5836-27.6831
		c1.0937-4.9557,3.9435-22.0055-2.9563-42.5096c-6.5692-19.5664-29.866-29.4107-29.866-29.4107s-7.6348,27.0714,2.3293,45.9358
		c4.655,8.7971,16.116,17.8375,23.4862,23.0449c-10.9777-4.4642-20.4066-7.6752-27.8442-9.963
		c-3.3463-4.0844-14.9374-17.0683-28.9255-19.4688c-11.8519-2.01-31.7918,5.6174-31.7918,5.6174s9.5457,13.0189,28.8535,19.6439
		c13.9574,4.7975,29.4789-2.7498,32.354-4.2556c9.7,3.3989,22.687,8.3687,37.9411,15.6044
		c-7.1406-1.3346-26.3529-4.339-37.9594-0.5432c-20.256,6.6469-33.5619,31.4388-33.5619,31.4388s23.5978,9.0628,41.9052-0.4521
		c20.4736-10.6122,30.2277-26.0922,32.0728-29.2664c16.0486,7.749,34.4464,17.992,54.0497,31.4905
		c-8.4219-2.9547-24.1366-7.6781-34.9211-6.1337c-21.5493,3.077-39.3,25.6417-39.3,25.6417s22.105,13.2869,42.1854,6.969
		c21.1185-6.6202,33.4737-19.2355,36.8854-23.0981c14.6879,10.42,29.9734,22.6523,45.397,37.0668
		c1.1445,1.0114,2.2697,2.0963,3.4066,3.1374c-8.0122-4.4815-22.7451-11.8366-33.7177-12.1896
		c-22.2048-0.7349-44.0322,18.813-44.0322,18.813s19.8638,17.2623,41.1707,14.4738c22.6072-2.9395,37.3225-13.6105,41.2625-16.7738
		c14.5061,13.9263,28.2971,30.2789,40.9841,48.4999c-7.2924-5.9374-20.7015-15.8339-31.5778-18.119
		c-22.1815-4.6616-47.5789,11.1068-47.5789,11.1068s16.8907,20.8646,38.7912,21.8436c22.7286,1.0266,39.1848-6.7175,44.1284-9.3809
		c10.7019,15.9744,20.5259,33.3303,29.2152,51.7566c-6.5923-7.2048-16.3603-16.6066-25.2965-20.1915
		c-21.4583-8.6194-49.7678,2.7317-49.7678,2.7317s13.2562,23.9592,35.0952,28.8183c20.9835,4.6898,37.8859,0.8582,44.5941-1.1656
		c7.5232,17.1263,14.0851,35.0719,19.4125,53.666c-5.3215-8.0999-12.84-17.9613-20.5303-22.7383
		c-20.0424-12.4588-50.5023-6.0734-50.5023-6.0734s9.0891,26.4244,30.1707,35.1799c19.6652,8.1836,36.915,7.6183,44.4039,6.8057
		c4.6261,18.3743,8.0276,37.2942,10.0833,56.5366c-3.9117-9.1436-9.7885-20.6086-16.7733-26.857
		c-17.9145-16.0773-49.665-15.0542-49.665-15.0542s4.4418,28.1672,24.0919,40.7004c18.4178,11.7769,35.9622,14.2294,43.5574,14.7209
		c1.3516,18.7076,1.3593,37.6715-0.1251,56.7148c-2.3045-9.909-6.1972-22.5941-12.1472-30.1556
		c-15.1817-19.3389-47.2508-23.9315-47.2508-23.9315s-0.5066,29.0948,17.0045,45.1735
		c16.3552,15.0407,33.4938,20.6292,41.0832,22.4898c-1.976,17.0573-5.1759,34.1345-9.7526,51.1047
		c-0.7075-9.8662-2.4658-21.6678-6.6672-29.517c-11.8253-22.1141-43.2509-32.4178-43.2509-32.4178s-5.6716,29.1448,9.0657,48.3924
		c13.4263,17.5513,29.1332,26.1954,36.686,29.6068c-4.7955,16.9529-10.8771,33.2669-17.9609,48.951
		c1.0812-10.134,1.4697-22.5692-1.4047-31.349c-7.9771-24.3146-37.7172-40.2397-37.7172-40.2397s-10.8741,28.2816,0.5326,50.2404
		c10.3259,19.921,24.4932,31.373,31.5117,36.1774c-7.5188,14.8269-15.9894,28.9939-25.2157,42.4893
		c2.5419-9.4461,4.5713-20.4895,3.3525-28.9778c-3.6846-25.8421-30.753-47.1122-30.753-47.1122s-15.9396,26.4902-8.381,50.5798
		c6.5787,20.9724,18.1124,34.7485,24.5152,41.1904c-9.7289,12.8388-20.1509,24.9647-31.0972,36.3579
		c3.9117-8.6476,7.4269-18.563,7.694-26.736c0.8486-26.6207-22.5735-52.7907-22.5735-52.7907s-20.7125,23.7972-17.3706,49.3435
		c2.8283,21.8074,11.6862,37.5173,17.0209,45.2946c-11.5663,10.8683-23.6088,20.9048-35.9329,30.1371
		c5.3061-7.8535,10.3635-16.9095,12.0267-24.8619c5.5952-26.6002-13.3323-57.0543-13.3323-57.0543s-25.0174,20.2501-26.1963,46.5079
		c-1.0089,22.3633,5.0764,39.6857,9.0602,48.4678c-13.765,9.1841-27.7685,17.3315-41.8038,24.3667
		c7.1885-7.2415,14.6199-16.0704,17.9186-24.3105c10.3185-25.7543-3.28-59.7083-3.28-59.7083s-28.7514,15.9133-34.5744,42.1008
		c-5.087,22.777-1.7942,41.5712,0.6785,50.9065c-14.7274,6.3167-29.356,11.3497-43.6375,15.0729
		c8.0858-5.8338,16.4126-12.9921,20.9293-20.2673c14.9392-24.0427,7.2661-60.5779,7.2661-60.5779s-31.7007,10.8948-42.1974,36.1782
		c-8.5423,20.5563-9.1162,38.8801-8.4812,49.2101c-20.7314,3.9425-42.7645,3.6804-56.4036,15.2421
		c-33.3468,28.2677,3.3468,44.7323,6.3468,25.7323s63.3799-29.6727,63.3799-29.6727c4.7337,8.0843,16.2952,24.6785,37.5457,37.6541
		c23.3842,14.2599,55.4276,4.4247,55.4276,4.4247s-15.3046-34.0447-41.5244-44.7082c-7.1717-2.9167-16.812-3.9216-25.967-4.0575
		c13.9255-4.4346,28.0809-10.0743,42.2471-16.8058c6.285,7.2157,20.0804,20.5974,42.0087,29.1857
		c24.979,9.7944,54.2363-5.1592,54.2363-5.1592s-20.5602-30.2523-47.678-36.0783c-7.6044-1.6322-17.3636-0.8875-26.407,0.6116
		c13.179-7.3522,26.2538-15.6717,39.074-24.8467c6.8845,5.7203,22.7996,16.9618,46.3304,21.7095
		c25.7775,5.1917,51.4651-14.2158,51.4651-14.2158s-24.9794-25.6959-52.1473-26.7055c-8.4914-0.3149-19.0773,2.6807-28.2813,6.1392
		c12.7558-10.143,25.137-21.1856,36.9802-33.0452c7.5056,4.3202,24.8956,12.6198,48.6393,13.1962
		c25.7662,0.6262,47.2629-22.471,47.2629-22.471s-28.4993-20.5575-54.8976-16.9053c-8.3188,1.15-18.1165,5.9146-26.4575,10.8645
		c11.1105-12.2781,21.6313-25.3053,31.3613-39.0692c8.0832,2.9014,26.1583,7.8339,48.9817,4.3785
		c24.9669-3.7808,41.7786-29.7255,41.7786-29.7255s-30.9805-14.9917-55.8458-6.9734c-7.5853,2.446-15.9283,8.3976-22.9942,14.3964
		c8.6736-13.7824,16.579-28.1823,23.525-43.19c8.5306,1.4006,26.4784,2.8636,47.4666-4.2035
		c23.4456-7.8968,35.2592-35.8063,35.2592-35.8063s-32.4617-9.1886-55.0996,2.7683c-6.6179,3.5057-13.344,10.2338-18.9932,16.9437
		c5.7744-14.7358,10.6298-29.9794,14.449-45.6948C898.8836,542.4515,916.8826,540.9878,936.3942,530.3417z"/>
	<path fill="#1ABC9C" d="M431.3467,831.8087c-13.639-11.5616-35.6721-11.2996-56.4036-15.2421
		c0.635-10.3301,0.0611-28.6539-8.4811-49.2101c-10.4967-25.2833-42.1974-36.1782-42.1974-36.1782s-7.6732,36.5352,7.2661,60.5779
		c4.5168,7.2752,12.8436,14.4335,20.9293,20.2673c-14.2815-3.7232-28.9101-8.7562-43.6375-15.0729
		c2.4727-9.3353,5.7656-28.1295,0.6785-50.9065c-5.823-26.1876-34.5743-42.1008-34.5743-42.1008s-13.5986,33.954-3.28,59.7083
		c3.2986,8.2402,10.73,17.069,17.9185,24.3105c-14.0353-7.0352-28.0388-15.1826-41.8038-24.3667
		c3.9838-8.782,10.0691-26.1045,9.0602-48.4678c-1.179-26.2578-26.1964-46.5079-26.1964-46.5079s-18.9274,30.4542-13.3323,57.0543
		c1.6633,7.9525,6.7206,17.0085,12.0268,24.8619c-12.3242-9.2323-24.3667-19.2689-35.9329-30.1371
		c5.3347-7.7772,14.1926-23.4871,17.0209-45.2946c3.3419-25.5463-17.3706-49.3435-17.3706-49.3435s-23.4222,26.17-22.5735,52.7907
		c0.267,8.173,3.7823,18.0884,7.694,26.736c-10.9462-11.3932-21.3683-23.5191-31.0972-36.358
		c6.4028-6.4419,17.9365-20.218,24.5152-41.1904c7.5587-24.0896-8.381-50.5798-8.381-50.5798s-27.0684,21.2701-30.7529,47.1121
		c-1.2188,8.4883,0.8105,19.5317,3.3524,28.9778c-9.2263-13.4954-17.6968-27.6624-25.2156-42.4893
		c7.0184-4.8044,21.1857-16.2564,31.5116-36.1774c11.4068-21.9589,0.5326-50.2404,0.5326-50.2404s-29.7401,15.9252-37.7172,40.2397
		c-2.8744,8.7798-2.4859,21.215-1.4046,31.349c-7.0839-15.6841-13.1655-31.9981-17.961-48.951
		c7.5528-3.4113,23.2598-12.0555,36.6861-29.6068c14.7372-19.2476,9.0657-48.3925,9.0657-48.3925s-31.4257,10.3038-43.2509,32.4179
		c-4.2015,7.8491-5.9598,19.6507-6.6672,29.517c-4.5768-16.9702-7.7767-34.0475-9.7527-51.1047
		c7.5894-1.8606,24.7281-7.4491,41.0833-22.4898c17.511-16.0786,17.0044-45.1735,17.0044-45.1735s-32.0691,4.5927-47.2508,23.9315
		c-5.9499,7.5616-9.8427,20.2466-12.1471,30.1556c-1.4844-19.0433-1.4767-38.0073-0.1251-56.7148
		c7.5953-0.4916,25.1396-2.944,43.5574-14.721c19.6502-12.5332,24.092-40.7004,24.092-40.7004s-31.7505-1.0231-49.665,15.0542
		c-6.9847,6.2484-12.8615,17.7133-16.7733,26.857c2.0558-19.2424,5.4572-38.1622,10.0834-56.5366
		c7.4888,0.8126,24.7386,1.3779,44.4039-6.8057c21.0815-8.7556,30.1706-35.1799,30.1706-35.1799s-30.46-6.3854-50.5023,6.0734
		c-7.6904,4.777-15.2088,14.6385-20.5303,22.7383c5.3273-18.5942,11.8892-36.5397,19.4124-53.666
		c6.7082,2.0237,23.6106,5.8554,44.5941,1.1656c21.8391-4.8591,35.0953-28.8183,35.0953-28.8183s-28.3095-11.3512-49.7678-2.7317
		c-8.9363,3.5849-18.7043,12.9868-25.2965,20.1915c8.6893-18.4263,18.5133-35.7822,29.2151-51.7566
		c4.9437,2.6633,21.3998,10.4074,44.1284,9.3809c21.9006-0.9791,38.7912-21.8436,38.7912-21.8436s-25.3975-15.7684-47.5789-11.1068
		c-10.8764,2.285-24.2855,12.1815-31.5779,18.119c12.6871-18.221,26.478-34.5736,40.9841-48.4999
		c3.9399,3.1633,18.6552,13.8343,41.2625,16.7738c21.3068,2.7886,41.1707-14.4738,41.1707-14.4738s-21.8274-19.5479-44.0322-18.813
		c-10.9726,0.353-25.7054,7.7081-33.7177,12.1896c1.1369-1.0411,2.262-2.126,3.4066-3.1374
		c15.4235-14.4145,30.709-26.6469,45.397-37.0669c3.4117,3.8625,15.767,16.4779,36.8854,23.0981
		c20.0803,6.3179,42.1853-6.969,42.1853-6.969s-17.7506-22.5646-39.3-25.6417c-10.7845-1.5444-26.4992,3.1791-34.9211,6.1337
		c19.6034-13.4985,38.0011-23.7415,54.0497-31.4906c1.845,3.1741,11.5991,18.6542,32.0728,29.2664
		c18.3074,9.5149,41.9052,0.4521,41.9052,0.4521s-13.306-24.7919-33.5619-31.4388c-11.6065-3.7958-30.8188-0.7914-37.9594,0.5432
		c15.2542-7.2357,28.2411-12.2055,37.9411-15.6044c2.8751,1.5057,18.3967,9.053,32.3541,4.2556
		c19.3078-6.625,28.8534-19.644,28.8534-19.644s-19.9399-7.6274-31.7918-5.6174c-13.9881,2.4005-25.5792,15.3843-28.9255,19.4688
		c-7.4376,2.2878-16.8665,5.4987-27.8442,9.963c7.3703-5.2073,18.8312-14.2478,23.4862-23.0449
		C341.9015,27.0713,334.2667,0,334.2667,0S310.97,9.8443,304.4008,29.4107c-6.8999,20.5042-4.05,37.5539-2.9563,42.5096
		c-15.376,6.6304-33.2598,15.5967-52.5837,27.6831c6.4427-6.6514,15.3427-16.9995,18.2646-26.0552
		c6.6866-20.721-5.8116-46.5723-5.8116-46.5723s-21.6346,14.026-24.8005,34.8394c-3.2178,21.2399,2.2964,37.5923,4.4257,42.8739
		c-14.8156,9.7421-30.3411,21.3014-46.1274,35.0349c5.0541-7.751,11.0275-18.4328,12.228-27.168
		c3.0638-22.0103-14.0785-45.775-14.0785-45.775s-19.2701,17.9253-18.7372,39.4103c0.5019,20.9275,8.1951,35.9296,11.5655,41.5377
		c-12.9438,11.3442-25.4625,24.5104-37.2406,39.2874c3.1308-8.0208,6.0125-17.5734,5.7323-25.1505
		c-0.834-22.6557-22.2809-43.5011-22.2809-43.5011s-16.1678,21.4235-11.8369,42.9186
		c4.0346,20.0023,13.7061,33.4313,18.3801,38.9865c-10.7381,14.8381-20.7548,30.9741-29.7781,48.2092
		c1.9211-8.9858,3.4285-20.0569,1.6855-28.1806c-4.8606-22.6191-30.0825-39.7614-30.0825-39.7614s-12.469,24.3967-4.3163,45.2232
		c7.8319,20.0013,20.4484,31.8873,25.8851,36.3337c-8.0239,16.7842-15.0807,34.4796-21.0244,52.8358
		c0.3782-9.4727-0.0205-21.1695-3.2775-29.1857c-8.8873-21.8683-37.2875-34.6212-37.2875-34.6212s-8.1907,26.7202,3.7109,46.2023
		c11.4521,18.7726,26.2834,28.4843,32.4897,31.9592c-4.9107,17.195-8.8042,34.9061-11.519,52.9845
		c-1.3849-9.0135-3.8199-19.2856-8.0832-26.0782c-12.7997-20.3936-43.5904-28.1849-43.5904-28.1849S9.85,356.3105,25.2453,373.7866
		c14.2833,16.2024,30.2496,23.4255,37.5416,26.078c-1.7792,16.7994-2.5411,33.843-2.1121,51.0226
		c-2.9245-8.1403-6.8922-16.7943-11.8669-22.3025C32.3094,410.3567,0,407.982,0,407.982s1.4803,29.0656,20.054,43.9006
		c16.7963,13.408,33.657,17.9409,41.7175,19.4312c1.3022,16.3821,3.6371,32.8252,7.2426,49.227
		c-4.4209-7.7802-10.0358-15.9691-16.1185-20.7018c-19.8024-15.4028-52.7054-12.0566-52.7054-12.0566
		s6.6599,28.9412,27.9551,40.5589c19.5115,10.6461,37.5106,12.1098,45.7291,12.1383c3.8192,15.7154,8.6747,30.9589,14.449,45.6948
		c-5.6493-6.7099-12.3754-13.438-18.9933-16.9437c-22.6379-11.9569-55.0995-2.7683-55.0995-2.7683s11.8135,27.9095,35.2591,35.8063
		c20.9883,7.0671,38.9361,5.6041,47.4666,4.2035c6.946,15.0078,14.8514,29.4076,23.525,43.19
		c-7.066-5.9988-15.4089-11.9504-22.9943-14.3964c-24.8652-8.0183-55.8457,6.9734-55.8457,6.9734s16.8116,25.9447,41.7786,29.7255
		c22.8234,3.4554,40.8985-1.4771,48.9817-4.3785c9.73,13.7639,20.2509,26.7911,31.3613,39.0692
		c-8.3411-4.9498-18.1387-9.7144-26.4575-10.8644c-26.3983-3.6522-54.8976,16.9053-54.8976,16.9053s21.4967,23.0972,47.2629,22.471
		c23.7437-0.5765,41.1337-8.8761,48.6393-13.1962c11.8431,11.8596,24.2244,22.9022,36.9802,33.0452
		c-9.204-3.4585-19.7899-6.4542-28.2814-6.1392c-27.1678,1.0095-52.1472,26.7055-52.1472,26.7055s25.6875,19.4075,51.465,14.2158
		c23.5309-4.7477,39.446-15.9892,46.3305-21.7096c12.8201,9.1751,25.8949,17.4946,39.0739,24.8468
		c-9.0434-1.499-18.8026-2.2438-26.407-0.6116c-27.1177,5.8261-47.678,36.0784-47.678,36.0784s29.2573,14.9536,54.2363,5.1592
		c21.9283-8.5884,35.7237-21.97,42.0087-29.1857c14.1663,6.7314,28.3216,12.3712,42.2472,16.8058
		c-9.155,0.1359-18.7953,1.1407-25.967,4.0575c-26.2198,10.6635-41.5244,44.7082-41.5244,44.7082s32.0435,9.8351,55.4277-4.4247
		c21.2505-12.9756,32.812-29.5698,37.5457-37.6541c0,0,60.3799,10.6727,63.3799,29.6727S464.6935,860.0764,431.3467,831.8087z"/>
</g>
</svg>
