<?xml version="1.0" encoding="utf-8"?>
<!-- Generator: Adobe Illustrator 21.0.0, SVG Export Plug-In . SVG Version: 6.00 Build 0)  -->
<svg version="1.1" id="shield-badge-4" xmlns="http://www.w3.org/2000/svg" xmlns:xlink="http://www.w3.org/1999/xlink" x="0px"
	 y="0px" viewBox="0 0 579.93 647.343" enable-background="new 0 0 579.93 647.343" xml:space="preserve">
<g id="change1">
	<path fill="#785EDD" d="M289.9653,647.343h-0.0006C129.8216,647.343,0,517.5214,0,357.3783L0,37.394C0,16.7418,16.7418,0,37.394,0
		h505.142c20.6522,0,37.394,16.7418,37.394,37.394v319.9843C579.93,517.5214,450.1084,647.343,289.9653,647.343z"/>
</g>
<g id="change2">
	<path fill="#6157D4" d="M290.0907,592.0764h-0.0005c-130.8848,0-236.9879-106.1031-236.9879-236.9879V71.974
		c0-21.7257,17.6122-39.3379,39.3379-39.3379h395.3005c21.7257,0,39.3379,17.6122,39.3379,39.3379v283.1144
		C527.0786,485.9732,420.9755,592.0764,290.0907,592.0764z"/>
</g>
</svg>
