<?xml version="1.0" encoding="utf-8"?>
<!-- Generator: Adobe Illustrator 21.0.0, SVG Export Plug-In . SVG Version: 6.00 Build 0)  -->
<svg version="1.1" id="Circle-ShapeDashed-D6" xmlns="http://www.w3.org/2000/svg" xmlns:xlink="http://www.w3.org/1999/xlink"
	 x="0px" y="0px" viewBox="0 0 407.8198 407.6312" enable-background="new 0 0 407.8198 407.6312" xml:space="preserve">
<g id="change1">
	<circle fill="#2CC990" cx="203.9102" cy="203.8114" r="170.0039"/>
</g>
<g id="change2">
	<g>
		<path fill="#2CC990" d="M196.8101,384.7308c0.04-1.9395,1.6401-3.4697,3.5698-3.4395l0,0c0,0,0,0,0,0.0098l0,0
			c1.9302,0.0303,3.4702,1.6299,3.4302,3.5596l0,0c-0.04,1.9404-1.6299,3.4707-3.5601,3.4307v0.0098
			C198.3101,388.2611,196.7798,386.6615,196.8101,384.7308z M209.8804,384.7709c-0.1006-1.9297,1.3896-3.5801,3.3193-3.6797l0,0l0,0
			l0,0c1.9307-0.0996,3.5801,1.3896,3.6699,3.3203l0,0c0.1006,1.9297-1.3799,3.5693-3.3096,3.6699l0,0
			c-0.0605,0-0.1201,0.0098-0.1797,0.0098l0,0C211.5298,388.0912,209.98,386.641,209.8804,384.7709z M186.9502,387.5609
			L186.9502,387.5609c-1.9302-0.1699-3.3403-1.8799-3.1704-3.7998l0,0c0.1802-1.9297,1.8804-3.3496,3.8101-3.1699l0,0l0,0l0,0
			c1.9199,0.1699,3.3403,1.8799,3.1602,3.7998l0,0c-0.1602,1.8203-1.6899,3.1807-3.48,3.1807l0,0
			C187.1602,387.5717,187.0601,387.5717,186.9502,387.5609z M222.9204,383.8812c-0.2402-1.9199,1.1299-3.6699,3.0391-3.9102l0,0l0,0
			l0,0c1.9209-0.2295,3.6709,1.1299,3.9102,3.0498l0,0c0.2305,1.9102-1.1299,3.6602-3.04,3.9004h-0.0098
			c-0.1396,0.0195-0.29,0.0303-0.4297,0.0303l0,0C224.6499,386.9515,223.1401,385.6508,222.9204,383.8812z M173.7397,385.8715
			c-1.9097-0.3105-3.1997-2.1104-2.8799-4.0205l0,0c0.3101-1.9102,2.1099-3.2002,4.02-2.8799l0,0
			c1.8999,0.3105,3.2002,2.1104,2.8799,4.0205l0,0c-0.2798,1.71-1.77,2.9297-3.4497,2.9297l0,0
			C174.1201,385.9213,173.9302,385.9115,173.7397,385.8715z M235.8599,382.0511c-0.3701-1.8896,0.8604-3.7402,2.7598-4.1104l0,0
			c0,0,0,0-0.0098,0l0,0c1.9004-0.3799,3.7402,0.8604,4.1201,2.75l0,0c0.3701,1.9004-0.8604,3.7402-2.7598,4.1201l0,0
			c-0.2207,0.04-0.4502,0.0605-0.6807,0.0605l0,0C237.6499,384.8715,236.1899,383.7211,235.8599,382.0511z M160.6802,383.2416
			c-1.8804-0.4502-3.0303-2.3408-2.5801-4.2207l0,0c0.4497-1.8799,2.3398-3.04,4.2197-2.5898l0,0
			c1.8804,0.4502,3.0303,2.3398,2.5801,4.2197l0,0c-0.3799,1.6104-1.8198,2.6807-3.3999,2.6807l0,0
			C161.23,383.3314,160.96,383.3011,160.6802,383.2416z M248.6401,379.3011c-0.5205-1.8701,0.5801-3.79,2.4395-4.3096l0,0
			c1.8701-0.5107,3.79,0.5898,4.3105,2.4492l0,0c0.5098,1.8604-0.5898,3.79-2.4502,4.3008l0,0
			c-0.3096,0.0898-0.6201,0.1299-0.9297,0.1299l0,0C250.4702,381.8715,249.0601,380.851,248.6401,379.3011z M147.8501,379.6615
			L147.8501,379.6615c-1.8403-0.5898-2.8604-2.5605-2.27-4.4004l0,0c0.5898-1.8398,2.5601-2.8604,4.3999-2.2695l0,0
			c1.8398,0.5898,2.8599,2.5498,2.27,4.3994l0,0c-0.48,1.4805-1.8501,2.4307-3.3398,2.4307l0,0
			C148.5601,379.8217,148.2002,379.7709,147.8501,379.6615z M261.1802,375.6215c-0.6504-1.8203,0.2998-3.8203,2.1299-4.4707l0,0
			c0,0,0,0-0.0098,0l0,0c1.8301-0.6494,3.8301,0.3105,4.4697,2.1309l0,0c0.6504,1.8193-0.2998,3.8193-2.1201,4.4697l0,0
			c-0.3896,0.1396-0.7803,0.2002-1.1699,0.2002l0,0C263.0396,377.9515,261.6899,377.0511,261.1802,375.6215z M135.3198,375.1615
			c-1.7998-0.7207-2.6699-2.7607-1.9497-4.5508l0,0c0.7197-1.7998,2.75-2.6699,4.5498-1.9492l0,0
			c1.79,0.7197,2.6602,2.75,1.9502,4.5498l0,0c-0.5503,1.3701-1.8701,2.2002-3.25,2.2002l0,0
			C136.1802,375.4115,135.7397,375.3314,135.3198,375.1615z M273.4302,371.0316c-0.7705-1.7705,0.0293-3.8301,1.7998-4.6104l0,0
			c1.7695-0.7803,3.8301,0.0303,4.6104,1.7998l0,0c0.7793,1.7705-0.0205,3.8301-1.79,4.6104h-0.0107
			c-0.4492,0.2002-0.9297,0.2998-1.3994,0.2998l0,0C275.2896,373.1312,274.0103,372.351,273.4302,371.0316z M123.1499,369.7611
			c-1.7397-0.8398-2.46-2.9395-1.6099-4.6797l0,0c0.8398-1.7305,2.9399-2.46,4.6797-1.6104l0,0
			c1.7305,0.8506,2.4502,2.9404,1.6104,4.6797l0,0c-0.6104,1.2402-1.8501,1.9707-3.1499,1.9707l0,0
			C124.1602,370.1215,123.6401,370.0013,123.1499,369.7611z M285.3198,365.5717c-0.9102-1.7109-0.25-3.8203,1.46-4.7305l0,0
			c1.71-0.9004,3.8203-0.25,4.7305,1.46l0,0c0.8994,1.71,0.25,3.8301-1.46,4.7305l0,0c-0.5205,0.2793-1.0801,0.4092-1.6299,0.4092
			l0,0C287.1597,367.4408,285.9497,366.7611,285.3198,365.5717z M111.3999,363.5013c-1.6699-0.9697-2.2397-3.1104-1.2598-4.7803l0,0
			c0.96-1.6797,3.1099-2.2402,4.7798-1.2695l0,0c1.6699,0.9697,2.2402,3.1094,1.27,4.7793l0,0
			c-0.6499,1.1201-1.8198,1.7402-3.0298,1.7402l0,0C112.5601,363.9711,111.96,363.8217,111.3999,363.5013z M296.7798,359.2709
			c-1.0303-1.6396-0.5303-3.7998,1.1104-4.8301l0,0c1.6396-1.0195,3.7998-0.5293,4.8193,1.1104l0,0
			c1.0303,1.6396,0.5303,3.7998-1.1094,4.8301l0,0c-0.5801,0.3604-1.2197,0.5303-1.8506,0.5303l0,0
			C298.5796,360.9115,297.4399,360.3314,296.7798,359.2709z M100.1401,356.4115c-1.6001-1.0898-2.0103-3.2705-0.9204-4.8701l0,0
			c1.0801-1.6006,3.2603-2.0098,4.8604-0.9199l0,0c1.6001,1.0898,2.0098,3.2695,0.9199,4.8594l0,0
			c-0.6802,1-1.7803,1.5303-2.8901,1.5303l0,0C101.4302,357.0111,100.7397,356.8217,100.1401,356.4115z M307.7495,352.1508
			c-1.1396-1.5596-0.7998-3.75,0.7607-4.8896l0,0c1.5596-1.1396,3.75-0.7998,4.8896,0.7598l0,0
			c1.1396,1.5605,0.7998,3.75-0.7598,4.8906l0,0c-0.6299,0.4492-1.3506,0.6699-2.0605,0.6699l0,0
			C309.4995,353.5814,308.4302,353.0912,307.7495,352.1508z M89.4102,348.5209c-1.5103-1.1992-1.77-3.4102-0.5703-4.9199l0,0
			c1.2002-1.5098,3.3999-1.7695,4.9199-0.5693l0,0c1.5103,1.1992,1.77,3.3994,0.5703,4.9199l0,0
			c-0.6899,0.8701-1.7202,1.3193-2.75,1.3193l0,0C90.8198,349.2709,90.0498,349.0316,89.4102,348.5209z M318.1704,344.2611
			c-1.25-1.4795-1.0605-3.6797,0.4092-4.9297l0,0l0,0l0,0c1.4805-1.25,3.6904-1.0703,4.9404,0.4102l0,0
			c1.2402,1.4697,1.0596,3.6797-0.4102,4.9297l0,0c-0.6602,0.5596-1.46,0.8301-2.2598,0.8301l0,0
			C319.8501,345.5013,318.8696,345.0814,318.1704,344.2611z M79.2798,339.8812c-1.4297-1.3096-1.5298-3.5205-0.2197-4.9502l0,0
			c1.3101-1.4199,3.52-1.5195,4.9497-0.21l0,0l0,0l0,0c1.4204,1.2998,1.52,3.5205,0.21,4.9404l0,0
			c-0.6899,0.7598-1.6299,1.1396-2.5796,1.1396l0,0C80.79,340.8011,79.9502,340.4916,79.2798,339.8812z M328.0103,335.641
			c-1.3604-1.3799-1.3301-3.5898,0.0498-4.9502l0,0l0,0l0,0c1.3799-1.3496,3.5996-1.3193,4.9502,0.0605l0,0
			c1.3496,1.3799,1.3301,3.5996-0.0508,4.9502h-0.0098c-0.6797,0.6592-1.5596,1-2.4395,1l0,0
			C329.6001,336.7015,328.6899,336.351,328.0103,335.641z M69.79,330.5316c-1.3301-1.4004-1.27-3.6201,0.1299-4.9502l0,0
			c1.4102-1.3203,3.6201-1.2598,4.9502,0.1396l0,0l0,0l0,0c1.3301,1.4102,1.27,3.6201-0.1401,4.9502l0,0
			c-0.6699,0.6396-1.54,0.96-2.3999,0.96l0,0C71.3999,331.6312,70.4697,331.2611,69.79,330.5316z M337.1899,326.351
			c-1.4404-1.2793-1.5801-3.4902-0.2998-4.9395l0,0c1.2803-1.4502,3.4902-1.5801,4.9395-0.3008l0,0
			c1.4502,1.2803,1.5908,3.4902,0.3105,4.9404l0,0c-0.7002,0.7803-1.6602,1.1797-2.6299,1.1797l0,0
			C338.6899,327.2308,337.8599,326.9408,337.1899,326.351z M60.9897,320.5316c-1.2197-1.5-1-3.7002,0.4902-4.9307l0,0
			c1.5-1.2197,3.7002-1,4.9302,0.5l0,0c1.2197,1.4902,1,3.7002-0.5,4.9199l0,0c-0.6504,0.5303-1.4302,0.79-2.21,0.79l0,0
			C62.6899,321.8109,61.6802,321.3715,60.9897,320.5316z M345.6899,316.4213c-1.5303-1.1699-1.8301-3.3701-0.6504-4.9102l0,0
			c0,0,0,0-0.0098,0l0,0c1.1797-1.5303,3.3799-1.8301,4.9102-0.6504l0,0c1.54,1.1709,1.8301,3.3701,0.6602,4.9102l0,0
			c-0.6904,0.9004-1.7305,1.3701-2.79,1.3701l0,0C347.0698,317.141,346.3198,316.9008,345.6899,316.4213z M52.9302,309.9115
			c-1.1104-1.5801-0.73-3.7607,0.8496-4.8701l0,0c1.5801-1.1104,3.7603-0.7305,4.8804,0.8496l0,0
			c1.1099,1.5801,0.73,3.7598-0.8501,4.8701l0,0c-0.6099,0.4297-1.3203,0.6396-2.0103,0.6396l0,0
			C54.7002,311.4008,53.6099,310.8812,52.9302,309.9115z M353.4497,305.9115c-1.6201-1.0605-2.0693-3.2305-1.0098-4.8506l0,0
			c1.0596-1.6201,3.2305-2.0596,4.8496-1.0098l0,0c1.6201,1.0703,2.0703,3.2402,1.0107,4.8496l0,0
			c-0.6807,1.0303-1.79,1.5801-2.9307,1.5801l0,0C354.7095,306.4808,354.0396,306.3011,353.4497,305.9115z M45.6602,298.7513
			c-1-1.6602-0.46-3.8105,1.1899-4.7998l0,0c1.6597-1,3.8101-0.46,4.8101,1.1895l0,0c0.9897,1.6602,0.46,3.8105-1.2002,4.8105l0,0
			c-0.5601,0.3301-1.1899,0.5-1.7998,0.5l0,0C47.4697,300.4515,46.3101,299.8412,45.6602,298.7513z M360.4302,294.8715
			c-1.6904-0.9404-2.29-3.0703-1.3506-4.7607l0,0c0.9404-1.6895,3.0703-2.2998,4.7607-1.3594l0,0
			c1.6895,0.9395,2.29,3.0801,1.3496,4.7695l0,0c-0.6396,1.1406-1.8301,1.79-3.0596,1.79l0,0
			C361.5503,295.3109,360.9702,295.1713,360.4302,294.8715z M39.21,287.0814v0.0098c-0.8799-1.7305-0.1899-3.8398,1.54-4.71l0,0
			c1.7197-0.8701,3.8301-0.1797,4.7002,1.54l0,0c0.8696,1.7295,0.1797,3.8301-1.54,4.7002l0,0
			c-0.5103,0.2598-1.0503,0.3799-1.5801,0.3799l0,0C41.0498,289.0013,39.8198,288.3011,39.21,287.0814z M366.6001,283.3607
			c-1.75-0.8193-2.5098-2.8994-1.7002-4.6494l0,0c0.8203-1.7598,2.9004-2.5205,4.6602-1.7002l0,0
			c1.75,0.8203,2.5098,2.9004,1.6895,4.6504l0,0c-0.5996,1.2793-1.8594,2.0195-3.1797,2.0195l0,0
			C367.5796,283.681,367.0796,283.5814,366.6001,283.3607z M33.6201,274.9808c-0.75-1.79,0.0898-3.8398,1.8696-4.5801l0,0
			c1.79-0.75,3.8403,0.0908,4.5801,1.8809l0,0c0.75,1.7793-0.0898,3.8291-1.8696,4.5791l0,0
			c-0.4502,0.1807-0.9004,0.2705-1.3501,0.2705l0,0C35.48,277.1312,34.1802,276.3217,33.6201,274.9808z M371.9097,271.431
			c-1.7998-0.6895-2.71-2.71-2.0195-4.5098l0,0c0.6797-1.8105,2.71-2.7197,4.5098-2.0303l0,0
			c1.8096,0.6904,2.7197,2.71,2.0303,4.5205l0,0c-0.5303,1.3896-1.8604,2.25-3.2705,2.25l0,0
			C372.7397,271.6615,372.3198,271.5912,371.9097,271.431z M28.9199,262.4916c-0.6099-1.8301,0.3701-3.8105,2.21-4.4307l0,0
			c1.8301-0.6094,3.8101,0.3799,4.4302,2.21l0,0c0.6099,1.8301-0.3799,3.8203-2.21,4.4307l0,0
			c-0.3701,0.1201-0.7402,0.1797-1.1104,0.1797l0,0C30.77,264.8812,29.4102,263.9613,28.9199,262.4916z M376.3501,259.141
			c-1.8506-0.5498-2.9004-2.5-2.3506-4.3594l0,0c0.5605-1.8506,2.5107-2.9004,4.3604-2.3506l0,0
			c1.8496,0.5605,2.9004,2.5098,2.3496,4.3604l0,0c-0.4492,1.5195-1.8496,2.5-3.3496,2.5l0,0
			C377.02,259.2914,376.6899,259.2416,376.3501,259.141z M25.1499,249.7211c-0.48-1.8701,0.6499-3.7803,2.52-4.2598l0,0
			c1.8701-0.4805,3.7803,0.6494,4.2603,2.5195l0,0c0.48,1.8701-0.6504,3.7803-2.52,4.2607l0,0
			c-0.29,0.0693-0.5903,0.1094-0.8701,0.1094l0,0C26.98,252.3509,25.5498,251.3011,25.1499,249.7211z M379.8901,246.5609
			c-1.8906-0.4199-3.0801-2.29-2.6602-4.1797l0,0l0,0l0,0c0.4199-1.8799,2.29-3.0703,4.1699-2.6504l0,0
			c1.8896,0.4102,3.0801,2.2803,2.6602,4.1699l0,0c-0.3604,1.6309-1.8105,2.7402-3.4102,2.7402l0,0
			C380.3999,246.641,380.1401,246.6214,379.8901,246.5609z M22.3101,236.7015L22.3101,236.7015
			c-0.3403-1.9004,0.9297-3.7207,2.8301-4.0605l0,0c1.8999-0.3398,3.7197,0.9199,4.0601,2.8203l0,0
			c0.3496,1.9102-0.9204,3.7295-2.8203,4.0703l0,0c-0.21,0.04-0.4199,0.0498-0.6299,0.0498l0,0
			C24.0898,239.5814,22.6201,238.391,22.3101,236.7015z M382.4995,233.7611c-1.9199-0.29-3.2393-2.0596-2.96-3.9795l0,0
			c0,0,0,0,0,0.0098l0,0c0.2803-1.9199,2.0605-3.2402,3.9707-2.96l0,0c1.9199,0.2793,3.2393,2.0596,2.96,3.9697l0,0
			c-0.2607,1.7402-1.75,2.9902-3.46,2.9902l0,0C382.8403,233.7914,382.6704,233.7816,382.4995,233.7611z M20.4302,223.5209
			c-0.2104-1.9199,1.1899-3.6494,3.1099-3.8496l0,0c1.9199-0.21,3.6499,1.1895,3.8501,3.1104l0,0
			c0.1997,1.9199-1.1899,3.6494-3.1104,3.8496l0,0c-0.1196,0.0098-0.25,0.0195-0.3696,0.0195l0,0
			C22.1401,226.6507,20.6201,225.3216,20.4302,223.5209z M384.1802,220.8011c-1.9307-0.1504-3.3799-1.8203-3.2402-3.75l0,0
			c0.1396-1.9297,1.8203-3.3799,3.75-3.2402l0,0c1.9297,0.1504,3.3799,1.8203,3.2305,3.75l0,0
			c-0.1309,1.8398-1.6709,3.2402-3.4805,3.2402l0,0C384.3501,220.8011,384.2603,220.8011,384.1802,220.8011z M19.5,210.2308v0.0107
			c-0.0698-1.9404,1.4502-3.5605,3.3799-3.6201l0,0c1.9302-0.0703,3.5503,1.4395,3.6201,3.3701l0,0c0,0,0,0,0,0.0098l0,0
			c0.0601,1.9297-1.4502,3.5498-3.3799,3.6094l0,0c-0.04,0.0107-0.0801,0.0107-0.1201,0.0107l0,0
			C21.1201,213.6214,19.5601,212.1312,19.5,210.2308z M384.9204,207.7513c-1.9307-0.0098-3.5-1.5801-3.4902-3.5103l0,0
			c0-0.0698,0-0.1396,0.0098-0.21l0,0c-0.0098-0.0698-0.0098-0.1499-0.0098-0.2197l0,0l0,0l0,0c0-1.9302,1.5693-3.5,3.5-3.5l0,0
			c1.9297,0,3.5,1.5698,3.5,3.5l0,0c0,0.0698,0,0.1499-0.0098,0.2197l0,0c0.0098,0.0703,0.0098,0.1499,0.0098,0.2202l0,0
			c-0.0098,1.9395-1.5703,3.5-3.5,3.5l0,0C384.9204,207.7513,384.9204,207.7513,384.9204,207.7513z M22.8901,200.5414
			c-1.9399-0.0703-3.4399-1.6899-3.3701-3.6201l0,0c0.0698-1.9302,1.6899-3.4399,3.6201-3.3701l0,0
			c1.9297,0.0698,3.4399,1.6899,3.3696,3.6299l0,0c-0.0698,1.8804-1.6196,3.3701-3.4897,3.3701l0,0
			C22.9697,200.5511,22.9302,200.5511,22.8901,200.5414z M380.98,191.0013c-0.1396-1.9302,1.3096-3.6001,3.2402-3.7402l0,0
			c1.9199-0.1401,3.5996,1.3203,3.7393,3.2402l0,0c0.1309,1.9297-1.3193,3.6099-3.2393,3.75l0,0c-0.0898,0-0.1699,0-0.2607,0l0,0
			C382.6401,194.2513,381.1099,192.8514,380.98,191.0013z M23.5801,187.5013c-1.9199-0.21-3.3101-1.9399-3.1001-3.8604l0,0
			c0.21-1.9199,1.9399-3.3096,3.8599-3.0996l0,0c1.9199,0.21,3.3101,1.9297,3.1001,3.8496l0,0
			c-0.2002,1.8003-1.71,3.1304-3.4702,3.1304l0,0C23.8398,187.5213,23.71,187.5111,23.5801,187.5013z M379.6099,178.2611
			c-0.2803-1.9097,1.0498-3.6899,2.96-3.96l0,0c1.9102-0.2798,3.6904,1.0503,3.96,2.96l0,0c0.2803,1.9199-1.0498,3.6899-2.96,3.9702
			l0,0c-0.1699,0.02-0.3398,0.0298-0.5,0.0298l0,0C381.3501,181.2611,379.8599,180.0111,379.6099,178.2611z M25.21,174.5311
			c-1.8999-0.3501-3.1602-2.1699-2.8101-4.0698l0,0c0.3398-1.8999,2.1699-3.1602,4.0698-2.8203l0,0
			c1.9004,0.3501,3.1602,2.1704,2.8101,4.0801l0,0c-0.3101,1.6899-1.7798,2.8701-3.4399,2.8701l0,0
			C25.6401,174.5912,25.4199,174.5712,25.21,174.5311z M377.3198,165.661c0,0,0,0,0-0.0098l0,0
			c-0.4102-1.8799,0.7803-3.75,2.6699-4.1602l0,0c1.8906-0.4199,3.75,0.7803,4.1699,2.6699l0,0
			c0.4102,1.8804-0.7793,3.75-2.6699,4.1704l0,0c-0.25,0.0498-0.5098,0.0796-0.75,0.0796l0,0
			C379.1304,168.411,377.6802,167.2914,377.3198,165.661z M27.7798,161.7211c-1.8799-0.4897-3-2.3999-2.52-4.27l0,0
			c0.4902-1.8696,2.4004-3,4.27-2.5098l0,0c1.8701,0.48,2.9902,2.3901,2.5103,4.27l0,0c-0.4102,1.5698-1.8301,2.6201-3.3901,2.6201
			l0,0C28.3599,161.8314,28.0698,161.7914,27.7798,161.7211z M374.1304,153.2513c-0.5508-1.8604,0.5-3.8003,2.3594-4.3501l0,0
			c1.8506-0.5498,3.7998,0.5,4.3506,2.3599l0,0c0.5498,1.8501-0.5107,3.8003-2.3604,4.3501l0,0
			c-0.3398,0.1001-0.6699,0.1401-1,0.1401l0,0C375.9702,155.7513,374.5796,154.7713,374.1304,153.2513z M31.2598,149.121
			c-1.8296-0.6196-2.8096-2.5996-2.1899-4.4399l0,0c0.6201-1.8296,2.6001-2.8101,4.4302-2.1899l0,0
			c1.8301,0.6201,2.8198,2.6001,2.2002,4.4399l0,0l0,0l0,0c-0.5,1.46-1.8604,2.3804-3.3203,2.3804l0,0
			C32.0098,149.3114,31.6299,149.2513,31.2598,149.121z M370.0396,141.1014c-0.6895-1.8003,0.2305-3.8203,2.04-4.5103l0,0
			c1.8008-0.6802,3.8203,0.23,4.5107,2.04l0,0c0.6797,1.8101-0.2305,3.8301-2.04,4.5098l0,0c-0.4102,0.1602-0.8301,0.23-1.2402,0.23
			l0,0C371.8999,143.371,370.5698,142.5111,370.0396,141.1014z M35.6499,136.8314c-1.7798-0.75-2.6201-2.8003-1.8701-4.5903l0,0
			c0.75-1.7798,2.8003-2.6099,4.5903-1.8599l0,0c1.7798,0.75,2.6099,2.7998,1.8599,4.5801l0,0
			c-0.5601,1.3398-1.8599,2.1401-3.2202,2.1401l0,0C36.5498,137.1014,36.0898,137.0111,35.6499,136.8314z M365.0698,129.2811
			c-0.8096-1.7598-0.0498-3.8398,1.71-4.6499l0,0c1.75-0.8101,3.8301-0.0498,4.6406,1.7002l0,0
			c0.8193,1.7598,0.0498,3.8398-1.7002,4.6499l0,0c-0.4805,0.2197-0.9805,0.3301-1.4707,0.3301l0,0
			C366.9302,131.3114,365.6597,130.5614,365.0698,129.2811z M40.9199,124.8812c-1.7197-0.8799-2.4102-2.98-1.5298-4.71v0.0098
			c0.8799-1.73,2.98-2.4097,4.71-1.54l0,0c1.7197,0.8804,2.3999,2.9902,1.5298,4.7104l0,0c-0.6201,1.21-1.8501,1.9097-3.1299,1.9097
			l0,0C41.9697,125.2611,41.4302,125.141,40.9199,124.8812z M359.2603,117.8412L359.2603,117.8412L359.2603,117.8412
			c-0.9307-1.6899-0.3203-3.8198,1.3701-4.75l0,0c1.6895-0.9399,3.8193-0.3301,4.7598,1.3599l0,0
			c0.9297,1.6899,0.3193,3.8203-1.3701,4.7603l0,0c-0.54,0.29-1.1201,0.4399-1.6904,0.4399l0,0
			C361.1001,119.6512,359.8999,119.0013,359.2603,117.8412z M47.04,113.3412c-1.6499-0.9897-2.1802-3.1499-1.1802-4.7998l0,0
			c1-1.6602,3.1499-2.1899,4.8003-1.1899l0,0c1.6597,1,2.1899,3.1499,1.1899,4.8096l0,0c-0.6602,1.0903-1.8203,1.6904-3,1.6904l0,0
			C48.23,113.8514,47.6099,113.6913,47.04,113.3412z M352.6401,106.8612c-1.0498-1.6201-0.6006-3.79,1.0195-4.8398l0,0
			c1.6201-1.0601,3.79-0.6001,4.8506,1.0098l0,0c1.0498,1.6201,0.5996,3.79-1.0205,4.8501l0,0
			c-0.5898,0.3799-1.2598,0.5698-1.9102,0.5698l0,0C354.4399,108.451,353.3101,107.891,352.6401,106.8612z M53.98,102.2811
			c-1.5801-1.1201-1.9502-3.2998-0.8301-4.8799l0,0c1.1099-1.5801,3.3003-1.9502,4.8799-0.8398l0,0
			c1.5703,1.1196,1.9502,3.2998,0.8301,4.8799l0,0c-0.6797,0.96-1.7598,1.48-2.8599,1.48l0,0
			C55.2998,102.9212,54.6001,102.7113,53.98,102.2811z M345.2495,96.391c-1.1699-1.5396-0.8691-3.7397,0.6602-4.9097l0,0
			c1.54-1.1699,3.7402-0.8701,4.9102,0.6699l0,0c1.1699,1.54,0.8701,3.73-0.6699,4.8999l0,0
			c-0.6299,0.4902-1.3701,0.7202-2.1104,0.7202l0,0C346.98,97.7713,345.9399,97.2914,345.2495,96.391z M61.71,91.7411
			c-1.5-1.23-1.7202-3.4399-0.4902-4.9297l0,0c1.2305-1.4902,3.4302-1.71,4.9204-0.48l0,0c1.5,1.2197,1.7197,3.4297,0.4897,4.9199
			l0,0c-0.6899,0.8398-1.6997,1.2798-2.71,1.2798l0,0C63.1401,92.5311,62.3599,92.2713,61.71,91.7411z M337.1196,86.4711
			c-1.2793-1.4497-1.1396-3.6597,0.3203-4.9399l0,0c1.4502-1.2798,3.6602-1.1401,4.9297,0.3101l0,0
			c1.2803,1.4502,1.1406,3.6699-0.3096,4.9399l0,0c-0.6602,0.5898-1.4902,0.8799-2.3105,0.8799l0,0
			C338.7798,87.661,337.8198,87.2611,337.1196,86.4711z M70.1602,81.7713c-1.4004-1.3301-1.46-3.54-0.1304-4.9399l0,0
			c1.3301-1.4102,3.5503-1.4604,4.9502-0.1304l0,0c1.3999,1.3301,1.46,3.54,0.1299,4.9399l0,0
			c-0.6899,0.73-1.6099,1.0903-2.54,1.0903l0,0C71.71,82.7313,70.8398,82.4212,70.1602,81.7713z M328.3101,77.1712
			c-1.3799-1.3599-1.4004-3.5698-0.0498-4.9502l0,0c1.3594-1.3799,3.5693-1.3999,4.9492-0.0498l0,0
			c1.3809,1.3599,1.4004,3.5801,0.0508,4.9497l0,0c-0.6904,0.7002-1.5898,1.0503-2.5,1.0503l0,0
			C329.8696,78.1712,328.9897,77.8412,328.3101,77.1712z M79.3198,72.4413c-1.2998-1.4302-1.1997-3.6401,0.2202-4.9399l0,0
			c1.4297-1.3101,3.6401-1.2002,4.9497,0.2197l0,0c1.3003,1.4302,1.2002,3.6401-0.23,4.9502l0,0
			c-0.6699,0.6099-1.5098,0.9102-2.3599,0.9102l0,0C80.96,73.5814,80.0098,73.201,79.3198,72.4413z M318.8501,68.5213
			c-1.4697-1.25-1.6504-3.46-0.4004-4.9302l0,0c1.25-1.48,3.46-1.6602,4.9307-0.3999l0,0c1.4795,1.25,1.6494,3.46,0.3994,4.9297l0,0
			c-0.6895,0.8203-1.6699,1.2305-2.6602,1.2305l0,0C320.3101,69.3514,319.5103,69.0814,318.8501,68.5213z M89.1201,63.7914
			c-1.2002-1.52-0.9399-3.7202,0.5801-4.9204l0,0c1.5195-1.1899,3.7197-0.9297,4.9097,0.5903l0,0
			c1.2002,1.5098,0.9399,3.71-0.5801,4.9097l0,0c-0.6396,0.5103-1.3999,0.75-2.1597,0.75l0,0
			C90.8301,65.121,89.8101,64.6712,89.1201,63.7914z M308.8003,60.5712c-1.5605-1.1401-1.9004-3.3301-0.7607-4.8901l0,0
			c1.1504-1.5601,3.3408-1.8896,4.9004-0.75l0,0c1.5596,1.1401,1.8896,3.3301,0.75,4.8901l0,0
			c-0.6904,0.9399-1.75,1.4302-2.8203,1.4302l0,0C310.1499,61.2513,309.4204,61.0311,308.8003,60.5712z M99.52,55.8612
			c-1.0898-1.6001-0.6699-3.77,0.9302-4.8599l0,0c1.5996-1.0801,3.7695-0.6699,4.8599,0.9297l0,0
			c1.0898,1.6001,0.6699,3.7803-0.9302,4.8604l0,0c-0.6001,0.4097-1.29,0.6099-1.96,0.6099l0,0
			C101.2998,57.4012,100.1899,56.8612,99.52,55.8612z M298.1997,53.371c-1.6396-1.0195-2.1299-3.1797-1.0996-4.8198l0,0
			c1.0303-1.6401,3.1895-2.1299,4.8203-1.1001l0,0c1.6396,1.02,2.1299,3.1899,1.1094,4.8203l0,0
			c-0.6699,1.0601-1.8096,1.6396-2.9697,1.6396l0,0C299.4204,53.911,298.7798,53.7411,298.1997,53.371z M110.46,48.701
			c-0.9702-1.6699-0.3901-3.8101,1.2798-4.7798l0,0c1.6704-0.9702,3.8203-0.3901,4.7803,1.2798l0,0
			c0.9697,1.6802,0.3999,3.8203-1.2803,4.7803l0,0c-0.5498,0.3198-1.1499,0.4697-1.75,0.4697l0,0
			C112.29,50.451,111.1099,49.8314,110.46,48.701z M287.1196,46.9613c-1.71-0.9102-2.3594-3.0303-1.4492-4.73l0,0
			c0.9092-1.71,3.0293-2.3604,4.7295-1.4502h0.0098c1.7002,0.9102,2.3506,3.02,1.4404,4.73l0,0
			c-0.6299,1.1802-1.8398,1.8599-3.0898,1.8599l0,0C288.1997,47.371,287.6401,47.2411,287.1196,46.9613z M121.8999,42.3514
			c-0.8501-1.7402-0.1201-3.8301,1.6201-4.6704l0,0c1.7397-0.8496,3.8301-0.1196,4.6802,1.6201l0,0
			c0.8398,1.7402,0.1099,3.8301-1.6304,4.6802l0,0c-0.4897,0.23-1.0098,0.3501-1.52,0.3501l0,0
			C123.75,44.3314,122.5,43.6014,121.8999,42.3514z M275.6001,41.3612c0,0,0,0,0.0098,0l0,0
			c-1.7695-0.7798-2.5703-2.8501-1.79-4.6099l0,0c0.7803-1.77,2.8398-2.5703,4.6104-1.79l0,0
			c1.7695,0.7798,2.5693,2.8501,1.79,4.6099l0,0c-0.5801,1.3101-1.8604,2.0898-3.2002,2.0898l0,0
			C276.5396,41.661,276.0601,41.5614,275.6001,41.3612z M133.7598,36.8514c-0.71-1.8003,0.1704-3.8403,1.96-4.5503l0,0
			c1.8003-0.7197,3.8301,0.1602,4.5503,1.96l0,0c0.71,1.79-0.1602,3.8301-1.96,4.54l0,0c-0.4302,0.1699-0.8599,0.25-1.29,0.25l0,0
			C135.6201,39.0511,134.3101,38.2211,133.7598,36.8514z M263.7202,36.621c-1.8203-0.6597-2.7705-2.6597-2.1201-4.48l0,0
			c0.6494-1.8198,2.6602-2.77,4.4795-2.1099l0,0c1.8203,0.6499,2.7607,2.6499,2.1104,4.4702l0,0
			c-0.5098,1.4297-1.8604,2.3198-3.29,2.3198l0,0C264.5103,36.8212,264.1099,36.7513,263.7202,36.621z M146,32.2113
			c-0.5801-1.8403,0.4399-3.8101,2.29-4.3901l0,0c1.8398-0.5801,3.8101,0.4399,4.3901,2.29l0,0
			c0.5796,1.8398-0.4404,3.8101-2.29,4.3901l0,0c-0.3501,0.1099-0.7002,0.1597-1.0503,0.1597l0,0
			C147.8501,34.661,146.4697,33.7113,146,32.2113z M251.5103,32.7411L251.5103,32.7411L251.5103,32.7411
			c-1.8701-0.5098-2.96-2.4399-2.4404-4.3101l0,0c0.5205-1.8599,2.4404-2.9497,4.3105-2.4297l0,0
			c1.8594,0.52,2.9492,2.4399,2.4395,4.3101l0,0c-0.4297,1.5498-1.8398,2.5596-3.3701,2.5596l0,0
			C252.1401,32.871,251.8198,32.8314,251.5103,32.7411z M158.5298,28.4911c-0.4497-1.8799,0.7202-3.77,2.6001-4.21l0,0
			c1.8799-0.4497,3.7603,0.71,4.21,2.5898l0,0c0.4502,1.8804-0.7197,3.77-2.6001,4.2202l0,0
			c-0.27,0.0601-0.5396,0.0898-0.8096,0.0898l0,0C160.3501,31.181,158.9102,30.1014,158.5298,28.4911z M239.0503,29.7611
			c0,0,0,0-0.0107,0l0,0c-1.8896-0.3799-3.1191-2.2197-2.7393-4.1201l0,0c0.3799-1.8896,2.2295-3.1196,4.1201-2.7397l0,0
			c1.8994,0.3799,3.1299,2.23,2.75,4.1201l0,0c-0.3408,1.6699-1.8008,2.8101-3.4307,2.8101l0,0
			C239.5103,29.8314,239.2798,29.8114,239.0503,29.7611z M171.29,25.6913c-0.3003-1.9102,0.9897-3.71,2.8999-4.02l0,0
			c1.9102-0.3101,3.7002,0.9897,4.0103,2.8999l0,0c0.3096,1.9102-0.9805,3.7002-2.8901,4.0103l0,0
			c-0.1899,0.0298-0.3799,0.0498-0.5601,0.0498l0,0C173.0601,28.6312,171.5698,27.4012,171.29,25.6913z M226.3999,27.701
			c-1.9199-0.2397-3.2803-1.9897-3.0303-3.9097l0,0c0.2402-1.9204,1.9902-3.2803,3.9102-3.0303l0,0
			c1.9102,0.2402,3.2705,1.9902,3.0303,3.9102l0,0c-0.2197,1.77-1.7305,3.0601-3.4697,3.0601l0,0
			C226.6997,27.7313,226.5503,27.7211,226.3999,27.701z M184.23,23.8114c-0.1699-1.9204,1.25-3.6201,3.1699-3.79l0,0
			c1.9302-0.1699,3.6299,1.25,3.8003,3.1797l0,0c0.1699,1.9199-1.25,3.6201-3.1802,3.79l0,0
			c-0.1001,0.0103-0.21,0.0103-0.3101,0.0103l0,0C185.9199,27.0013,184.3901,25.6312,184.23,23.8114z M213.6401,26.5511
			L213.6401,26.5511L213.6401,26.5511c-1.9307-0.1001-3.4102-1.75-3.3105-3.6802l0,0c0.1104-1.9297,1.7607-3.4097,3.6904-3.3096l0,0
			c1.9297,0.1099,3.4102,1.75,3.2998,3.6899l0,0c-0.0996,1.8599-1.6396,3.3101-3.4902,3.3101l0,0
			C213.77,26.5614,213.6997,26.5614,213.6401,26.5511z M197.2598,22.8812c-0.0298-1.9399,1.5103-3.5298,3.4404-3.5601l0,0
			c1.9297-0.04,3.5298,1.5,3.5596,3.4399l0,0c0.0303,1.9302-1.5098,3.52-3.4399,3.5601l0,0l0,0l0,0c-0.02,0-0.04,0-0.0601,0l0,0
			C198.8501,26.3212,197.29,24.7914,197.2598,22.8812z"/>
	</g>
	<g>
		<path fill="#2CC990" d="M204.3398,396.8812c-0.0098-1.3799,1.0903-2.5205,2.4702-2.54l0,0
			c1.3799-0.0195,2.5098,1.0898,2.54,2.4697l0,0c0.0098,1.3799-1.0898,2.5107-2.4697,2.5303l0,0
			c-0.0107,0.0098-0.0205,0.0098-0.0303,0.0098l0,0C205.48,399.3412,204.3701,398.2513,204.3398,396.8812z M193.6802,399.101
			L193.6802,399.101c-1.3804-0.0693-2.4404-1.2402-2.3701-2.6201l0,0c0.0698-1.3799,1.25-2.4395,2.6299-2.3701l0,0
			c1.3799,0.0703,2.4399,1.25,2.3599,2.6201l0,0c-0.0601,1.3408-1.1699,2.3799-2.4897,2.3799l0,0
			C193.77,399.1107,193.7197,399.101,193.6802,399.101z M217.3696,396.4213c-0.1094-1.3799,0.9102-2.5801,2.29-2.6904l0,0l0,0l0,0
			c1.3799-0.1201,2.5801,0.9102,2.7002,2.2803l0,0c0.1104,1.3799-0.9199,2.5898-2.29,2.7002l0,0
			c-0.0703,0-0.1396,0.0098-0.21,0.0098l0,0C218.5698,398.7211,217.48,397.7308,217.3696,396.4213z M180.5298,397.9808
			c-1.3799-0.1592-2.3599-1.4092-2.1899-2.7793l0,0c0.1602-1.3701,1.3999-2.3506,2.7803-2.1807l0,0
			c1.3696,0.1602,2.3496,1.4102,2.1797,2.7803l0,0c-0.1499,1.2705-1.23,2.2002-2.48,2.2002l0,0
			C180.7197,398.0013,180.6201,397.9916,180.5298,397.9808z M230.3403,395.0912c-0.2002-1.3701,0.7393-2.6396,2.0996-2.8398l0,0
			c1.3701-0.21,2.6396,0.7295,2.8496,2.0996l0,0c0.2002,1.3604-0.7393,2.6299-2.0996,2.8398l0,0
			c-0.1299,0.0205-0.25,0.0303-0.3701,0.0303l0,0C231.6001,397.2211,230.5298,396.3314,230.3403,395.0912z M167.4697,395.9808
			c-1.3496-0.2598-2.25-1.5693-1.9897-2.9199l0,0c0.25-1.3594,1.5601-2.25,2.9199-2l0,0c1.3599,0.2607,2.25,1.5703,1.9902,2.9199
			l0,0c-0.2202,1.2002-1.27,2.04-2.4502,2.04l0,0C167.7798,396.0209,167.6299,396.0111,167.4697,395.9808z M243.1899,392.891
			c-0.2998-1.3496,0.5498-2.6895,1.9004-2.9902l0,0c1.3496-0.29,2.6895,0.5605,2.9893,1.9102l0,0
			c0.29,1.3506-0.5596,2.6807-1.9092,2.9805l0,0c-0.1807,0.04-0.3604,0.0596-0.54,0.0596l0,0
			C244.48,394.851,243.4497,394.0511,243.1899,392.891z M154.5898,393.0912c-1.3398-0.3496-2.1396-1.71-1.7998-3.0498l0,0
			c0.3501-1.3301,1.7197-2.1406,3.0498-1.79l0,0c1.3403,0.3496,2.1401,1.7197,1.79,3.0498l0,0
			c-0.29,1.1299-1.2998,1.8701-2.4199,1.8701l0,0C155.0098,393.1713,154.7998,393.1508,154.5898,393.0912z M255.8599,389.8109
			c-0.3896-1.3193,0.3701-2.71,1.7002-3.0996l0,0l0,0l0,0c1.3203-0.3896,2.71,0.3701,3.0996,1.7002l0,0
			c0.3906,1.3193-0.3701,2.71-1.7002,3.0996l0,0c-0.2295,0.0703-0.4697,0.0996-0.6992,0.0996l0,0
			C257.1802,391.6107,256.1802,390.9008,255.8599,389.8109z M141.9199,389.3412c-1.3101-0.4404-2.0098-1.8604-1.5698-3.1602l0,0
			c0.4297-1.3096,1.8501-2.0195,3.1597-1.5801l0,0c1.3101,0.4307,2.0103,1.8506,1.5801,3.1602l0,0
			c-0.3501,1.0498-1.3301,1.71-2.3799,1.71l0,0C142.4502,389.4711,142.1899,389.431,141.9199,389.3412z M268.2896,385.891
			c-0.4697-1.2998,0.1904-2.7402,1.4902-3.21l0,0c1.29-0.4795,2.7305,0.1797,3.21,1.4805l0,0c0.4697,1.29-0.1895,2.7295-1.4795,3.21
			l0,0c-0.29,0.0996-0.5801,0.1494-0.8701,0.1494l0,0C269.6304,387.5209,268.6704,386.9008,268.2896,385.891z M129.5498,384.7308
			c-1.2798-0.5195-1.8896-1.9893-1.3599-3.2598l0,0c0.52-1.2803,1.98-1.8896,3.2603-1.3604l0,0
			c1.2798,0.5205,1.8799,1.9805,1.3599,3.2607l0,0c-0.3999,0.9697-1.3301,1.5498-2.3101,1.5498l0,0
			C130.1802,384.9213,129.8599,384.8607,129.5498,384.7308z M280.4497,381.1215c-0.5596-1.2607,0-2.7402,1.2598-3.3105l0,0
			c1.2607-0.5596,2.7402,0,3.3008,1.2607l0,0c0.5693,1.2598,0,2.7393-1.2607,3.3096l0,0c-0.3291,0.1396-0.6797,0.2197-1.0195,0.2197
			l0,0C281.7798,382.601,280.8599,382.0414,280.4497,381.1215z M117.5298,379.3011c-1.2397-0.6104-1.75-2.1104-1.1396-3.3496l0,0
			c0.6099-1.2402,2.1099-1.7402,3.3496-1.1299l0,0c1.2402,0.6094,1.7402,2.0996,1.1304,3.3398l0,0
			c-0.4302,0.8896-1.3203,1.3994-2.2402,1.3994l0,0C118.2598,379.5609,117.8799,379.4808,117.5298,379.3011z M292.2495,375.5316
			c-0.6494-1.2207-0.1895-2.7305,1.0303-3.3809l0,0c1.2197-0.6494,2.7305-0.1797,3.3799,1.04l0,0
			c0.6504,1.21,0.1904,2.7305-1.0293,3.3809l0,0c-0.3809,0.1992-0.7803,0.2891-1.1807,0.2891l0,0
			C293.5601,376.8607,292.6997,376.3812,292.2495,375.5316z M105.8901,373.0717c-1.1899-0.7002-1.5903-2.2305-0.9004-3.4209l0,0
			c0.6904-1.1895,2.2202-1.5996,3.4204-0.9092l0,0c1.1899,0.6895,1.5996,2.2197,0.8999,3.4199l0,0
			c-0.46,0.7998-1.3003,1.2393-2.1602,1.2393l0,0C106.7197,373.4008,106.29,373.3011,105.8901,373.0717z M303.6401,369.1713
			c-0.7305-1.1797-0.3701-2.7197,0.7998-3.4502l0,0c1.1699-0.7295,2.71-0.3701,3.4404,0.7998l0,0
			c0.7295,1.1807,0.3691,2.7207-0.8008,3.4502l0,0c-0.4092,0.25-0.8701,0.3799-1.3193,0.3799l0,0
			C304.9302,370.351,304.1099,369.931,303.6401,369.1713z M94.71,366.0609L94.71,366.0609
			c-1.1499-0.7695-1.4502-2.3301-0.6802-3.4697l0,0c0.7803-1.1504,2.3301-1.4502,3.48-0.6699l0,0
			c1.1401,0.7695,1.4404,2.3203,0.6704,3.4697l0,0c-0.48,0.71-1.27,1.1006-2.0801,1.1006l0,0
			C95.6201,366.4916,95.1401,366.351,94.71,366.0609z M314.5698,362.0414c-0.8096-1.1201-0.5596-2.6807,0.5605-3.4805l0,0
			c0,0,0,0,0-0.0098l0,0c1.1299-0.7998,2.6895-0.5498,3.5,0.5703l0,0c0.7998,1.1201,0.5498,2.6895-0.5703,3.4893l0,0
			c-0.4404,0.3203-0.96,0.4707-1.46,0.4707l0,0C315.8198,363.0814,315.0601,362.7211,314.5698,362.0414z M84.02,358.3217v-0.0107
			c-1.0898-0.8398-1.29-2.4102-0.4399-3.5l0,0c0.8501-1.0898,2.4199-1.29,3.5098-0.4395l0,0l0,0l0,0
			c1.0903,0.8398,1.2803,2.4102,0.4399,3.5098l0,0c-0.4897,0.6299-1.23,0.96-1.98,0.96l0,0
			C85.02,358.8412,84.48,358.6713,84.02,358.3217z M324.9897,354.2113c-0.8799-1.0703-0.7295-2.6504,0.3301-3.5205l0,0
			c1.0703-0.8799,2.6396-0.7393,3.5205,0.3301l0,0c0.8799,1.0605,0.7393,2.6406-0.3301,3.5205l0,0
			c-0.4707,0.3799-1.0303,0.5693-1.5898,0.5693l0,0C326.1997,355.1107,325.4897,354.8011,324.9897,354.2113z M73.8701,349.8715
			L73.8701,349.8715c-1.0303-0.9199-1.1201-2.5-0.2002-3.5303l0,0c0.9199-1.0303,2.5-1.1201,3.5303-0.2002l0,0
			c1.0298,0.9102,1.1196,2.4902,0.1997,3.5303l0,0c-0.4897,0.5498-1.1802,0.8301-1.8701,0.8301l0,0
			C74.9399,350.5013,74.3501,350.2914,73.8701,349.8715z M334.8696,345.681c-0.96-1-0.9102-2.5801,0.0898-3.5303l0,0
			c1-0.9492,2.5801-0.9092,3.5303,0.0908l0,0c0.9502,1.0098,0.9102,2.5898-0.0898,3.54l0,0
			c-0.4795,0.46-1.0996,0.6797-1.7197,0.6797l0,0C336.02,346.4613,335.3599,346.2015,334.8696,345.681z M64.3101,340.7611
			c-0.96-0.9902-0.9502-2.5703,0.04-3.54l0,0c0.98-0.96,2.5601-0.9502,3.5298,0.04l0,0l0,0l0,0
			c0.9702,0.9805,0.9502,2.5605-0.0298,3.5303l0,0c-0.4902,0.4795-1.1201,0.7197-1.75,0.7197l0,0
			C65.4502,341.5111,64.7998,341.2611,64.3101,340.7611z M344.1401,336.5209c-1.0098-0.9395-1.0801-2.5195-0.1406-3.5293l0,0l0,0
			l0,0c0.9404-1.0205,2.5205-1.0801,3.5303-0.1406l0,0c1.0205,0.9307,1.0801,2.5098,0.1504,3.5303h-0.0098
			c-0.4902,0.5303-1.1602,0.7998-1.8301,0.7998l0,0C345.23,337.181,344.6196,336.9613,344.1401,336.5209z M55.3799,331.0316
			c-0.8901-1.0508-0.77-2.6309,0.2803-3.5303l0,0c1.04-0.9004,2.6196-0.7803,3.52,0.2695l0,0
			c0.8999,1.0508,0.7798,2.6299-0.27,3.5303l0,0c-0.4702,0.4004-1.0503,0.5996-1.6304,0.5996l0,0
			C56.5801,331.9008,55.8799,331.601,55.3799,331.0316z M352.7798,326.7611c-1.0703-0.8701-1.2402-2.4395-0.3799-3.5195l0,0
			c0,0,0,0,0.0098,0l0,0c0.8604-1.0703,2.4307-1.2402,3.5107-0.3809l0,0c1.0693,0.8701,1.2393,2.4404,0.3799,3.5205l0,0
			c-0.5,0.6104-1.2207,0.9297-1.9502,0.9297l0,0C353.8003,327.3109,353.2397,327.1312,352.7798,326.7611z M47.1299,320.7113
			c-0.8301-1.1006-0.6001-2.6699,0.5103-3.5l0,0c1.0996-0.8203,2.6699-0.6006,3.4897,0.5098l0,0
			c0.8301,1.1104,0.6001,2.6699-0.5,3.5l0,0c-0.4497,0.3398-0.98,0.5-1.5,0.5l0,0
			C48.3701,321.7211,47.6201,321.3715,47.1299,320.7113z M360.7397,316.4408c-1.1299-0.79-1.3994-2.3496-0.6094-3.4795l0,0l0,0l0,0
			c0.79-1.1396,2.3496-1.4102,3.4795-0.6201l0,0c1.1299,0.79,1.4102,2.3496,0.6201,3.4805l0,0
			c-0.4902,0.6992-1.2598,1.0693-2.0498,1.0693l0,0C361.6802,316.891,361.1802,316.7416,360.7397,316.4408z M39.5801,309.8607
			v0.0107c-0.75-1.1602-0.4199-2.71,0.7397-3.46l0,0c1.1602-0.75,2.71-0.4199,3.46,0.7393l0,0l0,0l0,0
			c0.75,1.1602,0.4204,2.71-0.7397,3.46l0,0c-0.4199,0.2705-0.8901,0.4004-1.3599,0.4004l0,0
			C40.8599,311.0111,40.0601,310.601,39.5801,309.8607z M367.9897,305.6107c-1.1797-0.71-1.5596-2.25-0.8398-3.4297l0,0l0,0l0,0
			c0.71-1.1895,2.25-1.5703,3.4297-0.8496l0,0c1.1807,0.71,1.5605,2.25,0.8506,3.4297l0,0c-0.4707,0.7803-1.2998,1.21-2.1406,1.21
			l0,0C368.8403,305.9711,368.3999,305.851,367.9897,305.6107z M32.7798,298.5316c-0.6699-1.21-0.23-2.7305,0.98-3.4004l0,0
			c1.2002-0.6699,2.73-0.2305,3.4004,0.9795l0,0c0.6699,1.2002,0.23,2.7207-0.98,3.4004l0,0
			c-0.3804,0.21-0.8003,0.3105-1.2104,0.3105l0,0C34.0898,299.8217,33.2397,299.351,32.7798,298.5316z M374.4995,294.3217
			c-1.2295-0.6309-1.71-2.1406-1.0791-3.3701l0,0c0.6299-1.2207,2.1396-1.71,3.3691-1.0703l0,0
			c1.2207,0.6299,1.71,2.1396,1.0703,3.3604l0,0c-0.4395,0.8594-1.3096,1.3594-2.2197,1.3594l0,0
			C375.2495,294.601,374.8599,294.5111,374.4995,294.3217z M26.77,286.7611c-0.5898-1.25-0.0503-2.7402,1.1997-3.3203l0,0
			c1.25-0.5898,2.7402-0.0498,3.3203,1.2002l0,0c0,0,0,0,0.0098,0l0,0c0.5801,1.25,0.04,2.7402-1.21,3.3203l0,0
			c-0.3398,0.1602-0.6997,0.2402-1.0601,0.2402l0,0C28.0898,288.2015,27.1899,287.6713,26.77,286.7611z M380.2202,282.6215
			c-1.2705-0.5498-1.8506-2.0205-1.3105-3.29l0,0c0.5498-1.2705,2.0303-1.8506,3.29-1.2998l0,0
			c1.2705,0.5498,1.8506,2.0195,1.3105,3.29l0,0c-0.4102,0.9395-1.3301,1.5-2.3008,1.5l0,0
			C380.8804,282.8217,380.5396,282.7611,380.2202,282.6215z M21.5601,274.6107L21.5601,274.6107
			c-0.5-1.2891,0.1401-2.7393,1.4297-3.2393l0,0c1.2803-0.5,2.73,0.1396,3.23,1.4199l0,0c0.5,1.29-0.1396,2.7402-1.4199,3.2402l0,0
			c-0.2998,0.1191-0.5996,0.1699-0.9097,0.1699l0,0C22.8901,276.2015,21.9502,275.601,21.5601,274.6107z M385.1304,270.5609
			c-1.3008-0.46-1.9805-1.8896-1.5205-3.1895l0,0l0,0l0,0c0.46-1.2998,1.8896-1.9805,3.1904-1.5205l0,0
			c1.2998,0.46,1.9795,1.8906,1.5195,3.1904l0,0c-0.3604,1.0303-1.3301,1.6699-2.3496,1.6699l0,0
			C385.6899,270.7113,385.4097,270.6615,385.1304,270.5609z M17.1899,262.1215c-0.4102-1.3203,0.3301-2.7207,1.6499-3.1299l0,0
			c1.3203-0.4102,2.7202,0.3193,3.1299,1.6396l0,0l0,0l0,0c0.4102,1.3203-0.3296,2.7197-1.6396,3.1299l0,0
			c-0.25,0.0801-0.5,0.1201-0.75,0.1201l0,0C18.52,263.8812,17.5298,263.1908,17.1899,262.1215z M389.2202,258.181
			c-1.3301-0.3701-2.1104-1.75-1.7402-3.0801l0,0c0.3701-1.3301,1.75-2.0996,3.0801-1.7295l0,0
			c1.3301,0.3701,2.1104,1.75,1.7402,3.0801l0,0c-0.3105,1.0996-1.3105,1.8193-2.4102,1.8193l0,0
			C389.6704,258.2709,389.4497,258.2513,389.2202,258.181z M13.6899,249.391L13.6899,249.391
			c-0.3198-1.3496,0.5103-2.7002,1.8501-3.0195l0,0c1.3501-0.3203,2.6997,0.5098,3.02,1.8594l0,0
			c0.3198,1.3408-0.5103,2.6904-1.8501,3.0107l0,0c-0.2002,0.04-0.3901,0.0693-0.5898,0.0693l0,0
			C14.9897,251.3109,13.9697,250.5316,13.6899,249.391z M392.4595,245.5511c-1.3496-0.2803-2.2197-1.5996-1.9395-2.9502l0,0
			c0.2803-1.3496,1.5996-2.2197,2.9502-1.9395l0,0c1.3496,0.2793,2.2197,1.5996,1.9395,2.9492l0,0c-0.2393,1.1807-1.2793,2-2.4395,2
			l0,0C392.8003,245.6107,392.6304,245.5912,392.4595,245.5511z M11.0601,236.4408L11.0601,236.4408
			c-0.2202-1.3594,0.6899-2.6494,2.0601-2.8799l0,0c1.3599-0.2295,2.6499,0.6904,2.8799,2.0605l0,0c0,0,0,0-0.0103-0.0107l0,0
			c0.23,1.3701-0.6797,2.6602-2.0498,2.8809l0,0c-0.1401,0.0293-0.2798,0.04-0.4102,0.04l0,0
			C12.3301,238.5316,11.27,237.6615,11.0601,236.4408z M394.8296,232.7416c-1.3701-0.1904-2.3301-1.4502-2.1396-2.8203l0,0l0,0l0,0
			c0.1904-1.3701,1.4502-2.3301,2.8203-2.1396l0,0c1.3701,0.1895,2.3193,1.4492,2.1396,2.8193l0,0
			c-0.1699,1.25-1.25,2.1602-2.4795,2.1602l0,0C395.0601,232.7611,394.9497,232.7513,394.8296,232.7416z M9.3198,223.3607
			c-0.1396-1.3799,0.8701-2.5996,2.2402-2.7393l0,0c1.3701-0.1406,2.6001,0.8701,2.73,2.2393l0,0
			c0.1401,1.3701-0.8599,2.6006-2.2402,2.7402l0,0c-0.0801,0-0.1699,0.0098-0.25,0.0098l0,0
			C10.5298,225.6107,9.4502,224.641,9.3198,223.3607z M396.3296,219.7914c-1.3799-0.1006-2.4199-1.29-2.3193-2.6699l0,0
			c0.0898-1.3799,1.29-2.4199,2.6602-2.3203l0,0c1.3799,0.0898,2.4199,1.29,2.3291,2.6602l0,0
			c-0.0898,1.3203-1.1895,2.3301-2.4893,2.3301l0,0C396.4497,219.7914,396.3901,219.7914,396.3296,219.7914z M8.4502,210.181
			c-0.04-1.3799,1.0396-2.5303,2.4199-2.5801l0,0c1.3799-0.04,2.54,1.04,2.5801,2.4199l0,0c0.0498,1.3799-1.04,2.5303-2.4204,2.5801
			l0,0c-0.02,0-0.0498,0-0.0796,0l0,0C9.6099,212.6009,8.5,211.5316,8.4502,210.181z M396.9595,206.7611
			c-1.3799,0-2.5-1.1201-2.4893-2.5l0,0c0-0.0801,0-0.1499,0.0098-0.2197l0,0c-0.0098-0.0801-0.0098-0.1504-0.0098-0.23l0,0l0,0l0,0
			c0-1.3804,1.1201-2.5,2.5-2.5l0,0c1.3799,0,2.5,1.1196,2.5,2.5l0,0c0,0.0796-0.0107,0.1597-0.0107,0.2397l0,0
			c0,0.0698,0.0107,0.1401,0.0107,0.2202l0,0C399.4595,205.6507,398.3403,206.7611,396.9595,206.7611L396.9595,206.7611
			L396.9595,206.7611z M10.8799,199.5614c-1.3799-0.0503-2.46-1.2002-2.4102-2.5801l0,0c0.0503-1.3799,1.2002-2.46,2.5801-2.4199
			l0,0c1.3901,0.0498,2.4702,1.21,2.4199,2.5898l0,0c-0.0498,1.3501-1.1597,2.4102-2.5,2.4102l0,0
			C10.9399,199.5614,10.9102,199.5614,10.8799,199.5614z M394.0396,190.951L394.0396,190.951L394.0396,190.951
			c-0.0898-1.3799,0.9502-2.5698,2.3301-2.6597l0,0c1.3799-0.0903,2.5703,0.9497,2.6602,2.3296l0,0
			c0.0898,1.3701-0.9502,2.5601-2.3301,2.6602l0,0c-0.0596,0-0.1094,0-0.1699,0l0,0
			C395.23,193.2811,394.1304,192.2713,394.0396,190.951z M11.6001,186.5414c-1.3804-0.1401-2.3804-1.3604-2.2402-2.73l0,0
			c0.1401-1.3804,1.3701-2.3804,2.7402-2.2402l0,0c1.3799,0.1401,2.3799,1.3701,2.2397,2.7402l0,0l0,0l0,0
			c-0.1299,1.29-1.2197,2.25-2.48,2.25l0,0C11.77,186.5614,11.6899,186.5511,11.6001,186.5414z M392.7495,178.1512
			c-0.1797-1.3701,0.7803-2.6299,2.1504-2.8198l0,0c1.3604-0.1802,2.6201,0.7798,2.8096,2.1499l0,0
			c0.1807,1.3701-0.7793,2.6201-2.1494,2.8101l0,0c-0.1104,0.0098-0.2197,0.02-0.3301,0.02l0,0
			C393.9897,180.3114,392.9204,179.4012,392.7495,178.1512z M13.1899,173.6112c-1.3701-0.2402-2.2798-1.5298-2.0498-2.8901l0,0
			c0.23-1.3599,1.52-2.2798,2.8896-2.04l0,0c1.3604,0.23,2.27,1.52,2.04,2.8804l0,0c-0.21,1.2197-1.27,2.0796-2.46,2.0796l0,0
			C13.4697,173.641,13.3301,173.6312,13.1899,173.6112z M390.6099,165.4613c-0.2803-1.3599,0.5898-2.6699,1.9502-2.9502l0,0
			c1.3496-0.2798,2.6699,0.5903,2.9395,1.9502l0,0c0.2803,1.3501-0.5898,2.6699-1.9395,2.9497l0,0
			c-0.1699,0.0303-0.3398,0.0503-0.5098,0.0503l0,0C391.8901,167.4613,390.8501,166.641,390.6099,165.4613z M15.6401,160.8011
			c-1.3403-0.3198-2.1602-1.6699-1.8403-3.0098v-0.0103c0.3301-1.3398,1.6699-2.1602,3.02-1.8398l0,0
			c1.3403,0.3198,2.1699,1.6797,1.8403,3.02l0,0l0,0l0,0c-0.2803,1.1401-1.3003,1.9097-2.4302,1.9097l0,0
			C16.04,160.871,15.8398,160.8514,15.6401,160.8011z M387.6001,152.951c0,0,0,0,0.0098,0l0,0
			c-0.3701-1.3301,0.4102-2.71,1.7402-3.0801l0,0c1.3301-0.3696,2.7002,0.4204,3.0703,1.75h0.0098
			c0.3594,1.3301-0.4199,2.7002-1.75,3.0703l0,0c-0.2207,0.0601-0.4502,0.0898-0.6699,0.0898l0,0
			C388.9204,154.7811,387.9097,154.0614,387.6001,152.951z M18.9697,148.1913c-1.3198-0.4102-2.0498-1.8101-1.6396-3.1299l0,0
			c0.4199-1.3203,1.8198-2.0503,3.1396-1.6304l0,0c1.3101,0.4102,2.0503,1.8101,1.6304,3.1304l0,0
			c-0.3301,1.0698-1.3203,1.75-2.3804,1.75l0,0C19.4697,148.3114,19.2197,148.2713,18.9697,148.1913z M383.7603,140.6712
			c-0.46-1.3003,0.2295-2.73,1.5293-3.1899l0,0c1.3008-0.46,2.7305,0.23,3.1807,1.5298h0.0098
			c0.4502,1.3003-0.2305,2.73-1.54,3.1899l0,0c-0.2695,0.1001-0.5498,0.1401-0.8203,0.1401l0,0
			C385.0796,142.3412,384.1196,141.701,383.7603,140.6712z M23.1401,135.8412c-1.29-0.5-1.9204-1.9502-1.4204-3.2397l0,0
			c0.5103-1.2803,1.9502-1.9204,3.2402-1.4102l0,0c1.29,0.5,1.9199,1.9497,1.4199,3.23l0,0
			c-0.3901,0.9897-1.3301,1.5898-2.3301,1.5898l0,0C23.75,136.0111,23.4399,135.9613,23.1401,135.8412z M379.0796,128.661
			c-0.5498-1.2598,0.04-2.7397,1.3105-3.2798l0,0c1.2695-0.5498,2.7295,0.04,3.2803,1.3101l0,0
			c0.5498,1.27-0.04,2.7397-1.3105,3.2798l0,0c-0.3203,0.1401-0.6602,0.21-0.9902,0.21l0,0
			C380.4097,130.181,379.48,129.6112,379.0796,128.661z M28.1401,123.8212c-1.25-0.5898-1.79-2.0801-1.2002-3.3301l0,0
			c0.5898-1.25,2.0801-1.7798,3.3301-1.1997l0,0c1.25,0.5898,1.7798,2.0796,1.1899,3.3296l0,0
			c-0.4199,0.9102-1.3198,1.4404-2.2598,1.4404l0,0C28.8398,124.0614,28.48,123.9813,28.1401,123.8212z M373.5903,117.0111
			c-0.6309-1.23-0.1406-2.7397,1.0898-3.3701l0,0c1.2295-0.6299,2.7295-0.1396,3.3594,1.0903l0,0
			c0.6309,1.2197,0.1504,2.73-1.0801,3.3599l0,0c-0.3691,0.1899-0.7598,0.2798-1.1396,0.2798l0,0
			C374.9097,118.371,374.0396,117.871,373.5903,117.0111z M33.9399,112.161c-1.21-0.6797-1.6401-2.1997-0.9702-3.4097l0,0
			c0.6704-1.2002,2.1904-1.6401,3.4004-0.96l0,0c1.21,0.6699,1.6396,2.1899,0.9697,3.3999l0,0
			c-0.46,0.8198-1.3101,1.2798-2.1899,1.2798l0,0C34.7397,112.4711,34.3198,112.371,33.9399,112.161z M367.3296,105.7513
			c-0.71-1.1802-0.3301-2.7202,0.8604-3.4302l0,0c1.1797-0.71,2.7197-0.3301,3.4297,0.8501v0.0098
			c0.71,1.1802,0.3301,2.7202-0.8496,3.4302l0,0c-0.4102,0.2402-0.8496,0.3501-1.29,0.3501l0,0
			C368.6304,106.9613,367.8003,106.5311,367.3296,105.7513z M40.5098,100.911c-1.1499-0.7598-1.48-2.2998-0.73-3.46l0,0
			c0.75-1.1597,2.3003-1.4897,3.46-0.7397l0,0c1.1602,0.7598,1.4902,2.2998,0.73,3.46l0,0l0,0l0,0
			c-0.48,0.7397-1.2798,1.1401-2.0996,1.1401l0,0C41.4102,101.3114,40.9399,101.181,40.5098,100.911z M360.3296,94.951
			c-0.79-1.1396-0.5098-2.6997,0.6201-3.48l0,0c1.1299-0.79,2.6904-0.52,3.4805,0.6201l0,0c0.79,1.1299,0.5098,2.6899-0.6201,3.48
			l0,0c-0.4404,0.2998-0.9404,0.4502-1.4297,0.4502l0,0C361.5903,96.0213,360.8198,95.641,360.3296,94.951z M47.8398,90.121
			c-1.1099-0.8198-1.3301-2.3896-0.5-3.4897l0,0c0.8301-1.1099,2.3901-1.3301,3.5-0.5l0,0c1.1001,0.8198,1.3301,2.3901,0.5,3.5l0,0
			l0,0l0,0c-0.4897,0.6499-1.2397,1-2,1l0,0C48.8101,90.6312,48.29,90.4613,47.8398,90.121z M352.6099,84.641
			c-0.8604-1.0796-0.6895-2.6499,0.3896-3.52l0,0c1.0703-0.8599,2.6504-0.6899,3.5107,0.3901l0,0
			c0.8701,1.0801,0.6895,2.6499-0.3799,3.5103l0,0c-0.46,0.3696-1.0205,0.5498-1.5605,0.5498l0,0
			C353.8296,85.5712,353.1099,85.2513,352.6099,84.641z M55.8701,79.8612c-1.04-0.8999-1.1602-2.48-0.2603-3.5298l0,0
			c0.8999-1.04,2.48-1.1602,3.52-0.2603l0,0c1.0503,0.8999,1.1699,2.48,0.27,3.52l0,0c0,0,0,0,0,0.0103l0,0
			c-0.5,0.5698-1.1997,0.8696-1.8999,0.8696l0,0C56.9199,80.4711,56.3398,80.2713,55.8701,79.8612z M344.2202,74.8812
			c-0.9307-1.02-0.8604-2.6001,0.1494-3.54l0,0c1.0205-0.9302,2.6006-0.8701,3.54,0.1499l0,0
			c0.9307,1.02,0.8604,2.6001-0.1494,3.5303l0,0c-0.4805,0.4497-1.0898,0.6597-1.7002,0.6597l0,0
			C345.3901,75.681,344.7202,75.411,344.2202,74.8812z M64.5801,70.1512c-0.9902-0.9702-1-2.5498-0.0303-3.5303l0,0
			c0.9702-0.9897,2.5503-1,3.54-0.0298l0,0c0.98,0.9702,0.9902,2.5498,0.02,3.54l0,0c-0.4897,0.4897-1.1299,0.7397-1.7798,0.7397
			l0,0C65.7002,70.871,65.0601,70.6312,64.5801,70.1512z M335.1997,65.701L335.1997,65.701L335.1997,65.701
			c-1-0.9497-1.04-2.5298-0.0898-3.54l0,0c0.9502-1,2.5303-1.04,3.5303-0.0898l0,0c1,0.96,1.04,2.54,0.0898,3.54l0,0
			c-0.4902,0.5098-1.1504,0.7798-1.8096,0.7798l0,0C336.3003,66.391,335.6802,66.161,335.1997,65.701z M73.9199,61.0511
			c-0.9199-1.0298-0.8301-2.6099,0.21-3.5298l0,0c1.0303-0.9102,2.6099-0.8203,3.5303,0.21l0,0
			c0.9097,1.04,0.8198,2.6201-0.21,3.5298l0,0c-0.4805,0.4302-1.0703,0.6299-1.6602,0.6299l0,0
			C75.1001,61.891,74.4102,61.6112,73.9199,61.0511z M325.5796,57.1512L325.5796,57.1512L325.5796,57.1512
			c-1.0596-0.8799-1.21-2.46-0.3193-3.52l0,0c0.8799-1.0601,2.4492-1.21,3.5195-0.3301l0,0c1.0605,0.8799,1.2002,2.46,0.3203,3.52
			l0,0c-0.4902,0.6001-1.2002,0.9102-1.9199,0.9102l0,0C326.6196,57.7313,326.0503,57.5414,325.5796,57.1512z M83.8501,52.6014
			C83,51.5111,83.2002,49.9413,84.29,49.0912h0.0098c1.0903-0.8501,2.6602-0.6499,3.5,0.4502l0,0
			c0.8501,1.0898,0.6504,2.6597-0.4399,3.5l0,0c-0.46,0.3599-1,0.5298-1.5298,0.5298l0,0
			C85.0801,53.5712,84.3398,53.2313,83.8501,52.6014z M315.4097,49.2713c-1.1201-0.8101-1.3701-2.3804-0.5596-3.5l0,0
			c0.8096-1.1104,2.3701-1.3701,3.4902-0.5601l0,0c1.1191,0.8101,1.3691,2.3799,0.5596,3.4897l0,0
			c-0.4795,0.6802-1.25,1.04-2.0195,1.04l0,0C316.3696,49.7411,315.8599,49.5814,315.4097,49.2713z M94.3301,44.8314
			c-0.77-1.1504-0.4702-2.7002,0.6797-3.4702l0,0c1.1401-0.77,2.7002-0.4702,3.4702,0.6802l0,0
			c0.77,1.1499,0.46,2.6997-0.6802,3.4697l0,0c-0.4297,0.29-0.9199,0.4199-1.3999,0.4199l0,0
			C95.6001,45.931,94.8101,45.5511,94.3301,44.8314z M304.7397,42.0912c-1.1699-0.7397-1.5303-2.2798-0.79-3.4502l0,0
			c0.7305-1.1699,2.2705-1.5298,3.4404-0.7998l0,0c1.1699,0.7402,1.5303,2.2798,0.7998,3.4502l0,0
			c-0.4805,0.7598-1.29,1.1797-2.1299,1.1797l0,0C305.6099,42.4711,305.1499,42.3412,304.7397,42.0912z M105.3101,37.7811
			c-0.6899-1.1997-0.2803-2.73,0.9097-3.4199l0,0c1.2002-0.6899,2.7202-0.2798,3.4204,0.9199l0,0
			c0.6899,1.1899,0.2798,2.7202-0.9204,3.4102l0,0l0,0l0,0c-0.3896,0.23-0.8198,0.3398-1.25,0.3398l0,0
			C106.6099,39.0311,105.77,38.5814,105.3101,37.7811z M293.6099,35.641c-1.21-0.6499-1.6699-2.1597-1.0195-3.3799l0,0
			c0.6494-1.2197,2.1592-1.6797,3.3799-1.0298v0.0098c1.2197,0.6499,1.6797,2.1602,1.0293,3.3799l0,0
			c-0.46,0.8403-1.3193,1.3203-2.21,1.3203l0,0C294.3901,35.9413,293.9897,35.8412,293.6099,35.641z M116.7397,31.4911
			c-0.6099-1.2397-0.0996-2.7397,1.1401-3.3501l0,0c1.2402-0.5996,2.7402-0.0898,3.3501,1.1504l0,0
			c0.6099,1.2397,0.1001,2.73-1.1401,3.3398l0,0c-0.3599,0.1802-0.73,0.2598-1.1001,0.2598l0,0
			C118.0601,32.891,117.1699,32.371,116.7397,31.4911z M282.0796,29.9711c-1.2598-0.5698-1.8193-2.04-1.2598-3.2998l0,0
			c0.5703-1.2603,2.0498-1.8198,3.3105-1.2603l0,0c1.2598,0.5703,1.8193,2.0503,1.25,3.3101l0,0
			c-0.4102,0.9199-1.3203,1.4702-2.2803,1.4702l0,0C282.7603,30.1913,282.4097,30.121,282.0796,29.9711z M128.5801,25.9911
			c-0.52-1.2798,0.0898-2.7397,1.3701-3.2598l0,0c1.2695-0.5303,2.73,0.0801,3.2598,1.3599l0,0
			c0.52,1.2798-0.0898,2.7402-1.3701,3.2603l0,0c-0.3101,0.1299-0.6299,0.1899-0.9497,0.1899l0,0
			C129.9102,27.5414,128.9697,26.951,128.5801,25.9911z M270.1899,25.1014c-1.29-0.4902-1.96-1.9204-1.4697-3.2202l0,0
			c0.4697-1.29,1.9102-1.9502,3.21-1.4702l0,0c1.29,0.48,1.9502,1.9204,1.4697,3.21l0,0c-0.3701,1.0103-1.3301,1.6304-2.3398,1.6304
			l0,0C270.77,25.2513,270.48,25.201,270.1899,25.1014z M140.77,21.3011c-0.4399-1.3101,0.27-2.73,1.5801-3.1602l0,0
			c1.3101-0.4399,2.73,0.2803,3.1597,1.5903l0,0c0.4404,1.3101-0.2798,2.7197-1.5898,3.1597l0,0c0,0,0,0,0.0103,0l0,0
			c-0.27,0.0801-0.5303,0.1201-0.79,0.1201l0,0C142.0898,23.0111,141.1099,22.3514,140.77,21.3011z M257.98,21.0311L257.98,21.0311
			L257.98,21.0311c-1.3203-0.3901-2.0801-1.7798-1.6904-3.1001l0,0c0.3906-1.3296,1.7803-2.0796,3.1104-1.6899l0,0
			c1.3203,0.3901,2.0801,1.7803,1.6904,3.1001l0,0c-0.3301,1.0898-1.3203,1.7998-2.4004,1.7998l0,0
			C258.4497,21.141,258.2202,21.1014,257.98,21.0311z M153.2197,17.4613c-0.3398-1.3403,0.4702-2.7002,1.8003-3.0503l0,0
			c1.3398-0.3398,2.6997,0.4702,3.0498,1.8003l0,0c0.3403,1.3398-0.46,2.6997-1.7998,3.0498l0,0l0,0l0,0
			c-0.21,0.0503-0.4199,0.0801-0.6299,0.0801l0,0C154.5298,19.3412,153.5098,18.5912,153.2197,17.4613z M245.52,17.8114
			L245.52,17.8114L245.52,17.8114c-1.3496-0.3003-2.1904-1.6401-1.8896-2.98l0,0c0.2998-1.3501,1.6299-2.2002,2.9795-1.9004l0,0
			c1.3496,0.3003,2.2002,1.6401,1.9004,2.98l0,0c-0.2607,1.1704-1.29,1.96-2.4404,1.96l0,0
			C245.8901,17.871,245.7095,17.8514,245.52,17.8114z M165.9199,14.4711c-0.2598-1.3501,0.6401-2.6597,2-2.9097l0,0
			c1.3501-0.25,2.6602,0.6396,2.9102,2l0,0c0.2598,1.3599-0.6401,2.6597-2,2.9199l0,0c-0.1499,0.02-0.3101,0.04-0.46,0.04l0,0
			C167.1899,16.5213,166.1401,15.681,165.9199,14.4711z M232.8804,15.4413L232.8804,15.4413L232.8804,15.4413
			c-1.3701-0.21-2.3105-1.48-2.1006-2.8501l0,0c0.21-1.3599,1.4902-2.2998,2.8506-2.0898l0,0c1.3691,0.21,2.2998,1.48,2.0996,2.8501
			l0,0c-0.1904,1.23-1.2598,2.1196-2.4697,2.1196l0,0C233.1304,15.4711,233.0103,15.4613,232.8804,15.4413z M178.7798,12.3612
			c-0.1597-1.3701,0.8203-2.6201,2.1899-2.7798l0,0c1.3701-0.1602,2.6201,0.8296,2.7803,2.1997l0,0
			c0.1602,1.3701-0.8301,2.6099-2.2002,2.77l0,0c-0.0898,0.0103-0.1899,0.02-0.29,0.02l0,0
			C180.0098,14.5712,178.9302,13.6312,178.7798,12.3612z M220.1001,13.931c-1.3799-0.1196-2.4004-1.3198-2.2803-2.6997l0,0
			c0.1104-1.3701,1.3203-2.3999,2.7002-2.2803l0,0c1.3799,0.1104,2.4004,1.3203,2.2803,2.7002l0,0
			c-0.1104,1.2998-1.2002,2.29-2.4902,2.29l0,0C220.2397,13.9413,220.1704,13.9413,220.1001,13.931z M191.7598,11.1112
			c-0.0698-1.3799,0.9902-2.5498,2.3701-2.6201l0,0c1.3799-0.0698,2.5503,1,2.6201,2.3799l0,0
			c0.0698,1.3804-0.9902,2.5503-2.3701,2.6201l0,0c-0.04,0-0.0898,0-0.1299,0l0,0
			C192.9302,13.4911,191.8198,12.451,191.7598,11.1112z M207.2495,13.2811c-1.3799-0.02-2.4795-1.1602-2.4595-2.54l0,0
			c0.02-1.3799,1.1597-2.48,2.5396-2.46l0,0c1.3799,0.0303,2.4805,1.1699,2.46,2.5503l0,0c-0.0293,1.3599-1.1396,2.4497-2.5,2.4497
			l0,0C207.2798,13.2811,207.2603,13.2811,207.2495,13.2811z"/>
	</g>
	<g>
		<path fill="#2CC990" d="M208.02,405.6908c-0.0303-1.1094,0.8398-2.0293,1.9395-2.0596l0,0l0,0l0,0
			c1.1104-0.0303,2.0303,0.8398,2.0605,1.9404l0,0c0.0303,1.0996-0.8301,2.0293-1.9404,2.0596l0,0c-0.0195,0-0.04,0-0.0596,0l0,0
			C208.9399,407.6312,208.0601,406.7709,208.02,405.6908z M197.0098,407.6107c-1.0996-0.0391-1.96-0.9697-1.9297-2.0693l0,0
			c0.04-1.1006,0.9697-1.9697,2.0698-1.9307l0,0c1.1001,0.0303,1.9702,0.9609,1.9302,2.0605l0,0
			c-0.04,1.0801-0.9199,1.9395-2,1.9395l0,0C197.0601,407.6107,197.04,407.6107,197.0098,407.6107z M220.9399,405.0209
			c-0.0996-1.0996,0.71-2.0693,1.8096-2.1797l0,0c0,0,0,0,0,0.0098l0,0c1.1006-0.1094,2.0703,0.7002,2.1807,1.7998l0,0
			c0.0996,1.1006-0.71,2.0801-1.8105,2.1807l0,0c-0.0596,0-0.1299,0.0098-0.1895,0.0098l0,0
			C221.9097,406.8412,221.0396,406.0609,220.9399,405.0209z M183.98,406.7611c-1.1001-0.1104-1.9102-1.0801-1.7998-2.1797l0,0
			c0.1099-1.1006,1.0898-1.9102,2.1797-1.7998l0,0c1.1001,0.0996,1.9102,1.0791,1.8003,2.1797l0,0
			c-0.1001,1.04-0.9702,1.8096-1.9902,1.8096l0,0C184.1099,406.7709,184.04,406.7709,183.98,406.7611z M233.8003,403.5316
			c-0.1807-1.0908,0.5693-2.1104,1.6592-2.2803l0,0c0,0,0,0,0-0.0098l0,0c1.0908-0.1699,2.1201,0.5801,2.29,1.6699l0,0
			c0.1709,1.0898-0.5693,2.1094-1.6592,2.2793l0,0c-0.1104,0.0205-0.21,0.0303-0.3203,0.0303l0,0
			C234.8101,405.2211,233.9595,404.5209,233.8003,403.5316z M171.02,405.0814L171.02,405.0814
			c-1.0898-0.1807-1.8301-1.2002-1.6499-2.29l0,0c0.1699-1.0898,1.1997-1.8301,2.29-1.6602l0,0
			c1.0898,0.1797,1.8296,1.21,1.6499,2.2998l0,0c-0.1499,0.9805-1,1.6797-1.9702,1.6797l0,0
			C171.2397,405.1107,171.1299,405.101,171.02,405.0814z M246.5298,401.2211c-0.2402-1.0703,0.4297-2.1396,1.5098-2.3896l0,0
			c1.0801-0.2402,2.1504,0.4395,2.3906,1.5195l0,0c0.2402,1.0703-0.4307,2.1406-1.5098,2.3906l0,0
			c-0.1504,0.0293-0.3008,0.0498-0.4404,0.0498l0,0C247.5601,402.7914,246.7397,402.1508,246.5298,401.2211z M158.2002,402.5814
			c-1.0801-0.25-1.75-1.3203-1.5103-2.4004l0,0c0.25-1.0801,1.3198-1.75,2.3999-1.5l0,0c1.0801,0.2402,1.75,1.3203,1.5,2.3906l0,0
			c-0.21,0.9297-1.04,1.5596-1.9497,1.5596l0,0C158.4897,402.6312,158.3501,402.6107,158.2002,402.5814z M259.0903,398.101
			c-0.3203-1.0596,0.29-2.1699,1.3496-2.4795l0,0c1.0596-0.3203,2.1699,0.29,2.4805,1.3496l0,0
			c0.3193,1.0605-0.29,2.1699-1.3506,2.4805l0,0c-0.1895,0.0596-0.3799,0.0898-0.5703,0.0898l0,0
			C260.1401,399.5414,259.3403,398.9711,259.0903,398.101z M145.5601,399.2513L145.5601,399.2513
			c-1.0601-0.3203-1.6602-1.4297-1.3501-2.4902l0,0c0.3198-1.0596,1.4302-1.6602,2.4902-1.3398l0,0
			c1.0596,0.3096,1.6597,1.4199,1.3496,2.4795l0,0c-0.2598,0.8701-1.0601,1.4307-1.9199,1.4307l0,0
			C145.9399,399.3314,145.75,399.3109,145.5601,399.2513z M271.4204,394.1713c-0.3809-1.04,0.1494-2.1904,1.1895-2.5605l0,0
			c1.04-0.3799,2.1797,0.1504,2.5605,1.1904l0,0c0.3799,1.0303-0.1504,2.1797-1.1904,2.5596l0,0
			c-0.2197,0.0801-0.46,0.1201-0.6904,0.1201l0,0C272.48,395.4808,271.7095,394.9808,271.4204,394.1713z M133.1602,395.1107
			L133.1602,395.1107c-1.0303-0.3799-1.5601-1.5293-1.1802-2.5693l0,0c0.3799-1.0303,1.5298-1.5605,2.5698-1.1807l0,0l0,0l0,0
			c1.0303,0.3906,1.5601,1.5303,1.1802,2.5703l0,0c-0.2998,0.8105-1.0601,1.3105-1.8799,1.3105l0,0
			C133.6201,395.2416,133.3901,395.2015,133.1602,395.1107z M283.48,389.4515c-0.4404-1.0107,0.0195-2.1904,1.0303-2.6406l0,0l0,0
			l0,0c1.0098-0.4502,2.1895,0.0107,2.6299,1.0205l0,0c0.4502,1.0098-0.0098,2.1895-1.0205,2.6396l0,0
			c-0.2598,0.1201-0.5293,0.1699-0.7998,0.1699l0,0C284.5503,390.641,283.8101,390.1908,283.48,389.4515z M121.0801,390.1908
			c-1.0103-0.4492-1.4702-1.6299-1.02-2.6396l0,0c0.4497-1.0098,1.6299-1.46,2.6401-1.0098l0,0
			c1.0098,0.4502,1.4697,1.6299,1.0195,2.6396l0,0c-0.3398,0.7402-1.0698,1.1904-1.8296,1.1904l0,0
			C121.6201,390.3715,121.3398,390.3109,121.0801,390.1908z M295.2202,383.9613c-0.5107-0.9805-0.1299-2.1904,0.8496-2.7002l0,0l0,0
			l0,0c0.9805-0.5098,2.1904-0.1299,2.7002,0.8496l0,0c0.5,0.9805,0.1201,2.1904-0.8604,2.7002l0,0
			c-0.29,0.1504-0.5996,0.2207-0.9199,0.2207l0,0C296.27,385.0316,295.5796,384.641,295.2202,383.9613z M109.3301,384.5013
			c-0.98-0.5098-1.3604-1.7197-0.8501-2.6904l0,0c0.52-0.9795,1.73-1.3594,2.71-0.8496l0,0
			c0.9702,0.5098,1.3501,1.7197,0.8398,2.7002l0,0c-0.3599,0.6797-1.0601,1.0693-1.7798,1.0693l0,0
			C109.9399,384.7308,109.6201,384.6615,109.3301,384.5013z M306.5698,377.7211c-0.5703-0.9395-0.2695-2.1699,0.6797-2.7402l0,0
			c0.9404-0.5801,2.1709-0.2695,2.7402,0.6699l0,0c0.5801,0.9502,0.2705,2.1709-0.6699,2.75l0,0
			c-0.3203,0.1904-0.6797,0.29-1.0303,0.29l0,0C307.6099,378.6908,306.9497,378.3412,306.5698,377.7211z M97.96,378.0717
			c-0.9399-0.5703-1.2402-1.8008-0.6602-2.75l0,0c0.5703-0.9404,1.8003-1.2402,2.75-0.6602l0,0
			c0.9399,0.5693,1.2402,1.7998,0.6602,2.7393l0,0c-0.3701,0.6201-1.0298,0.96-1.71,0.96l0,0
			C98.6499,378.3607,98.29,378.2709,97.96,378.0717z M317.4995,370.7709c-0.6299-0.8994-0.4092-2.1494,0.5-2.7793l0,0
			c0.9004-0.6309,2.1504-0.4102,2.7803,0.5l0,0c0.6299,0.8994,0.4102,2.1494-0.5,2.7793l0,0
			c-0.3398,0.25-0.7402,0.3604-1.1396,0.3604l0,0C318.5103,371.6312,317.8901,371.3314,317.4995,370.7709z M87.0298,370.9213v0.0098
			c-0.8999-0.6396-1.1196-1.8896-0.4897-2.79l0,0c0.6401-0.9102,1.8901-1.1299,2.79-0.4902l0,0l0,0l0,0
			c0.8999,0.6309,1.1201,1.8809,0.4897,2.7803l0,0c-0.3896,0.5605-1.0098,0.8604-1.6396,0.8604l0,0
			C87.79,371.2914,87.3799,371.1713,87.0298,370.9213z M327.9595,363.141c-0.6895-0.8594-0.5498-2.1201,0.3203-2.8096l0,0
			c0.8604-0.6904,2.1201-0.54,2.8105,0.3193l0,0c0.6895,0.8701,0.5498,2.1309-0.3203,2.8203l0,0
			c-0.3701,0.29-0.8105,0.4297-1.2402,0.4297l0,0C328.9399,363.9008,328.3501,363.641,327.9595,363.141z M76.5801,363.0912
			c-0.8604-0.6904-1-1.9502-0.3101-2.8096l0,0c0.6899-0.8604,1.9497-1,2.8101-0.3105l0,0c0.8599,0.6904,1,1.9502,0.3101,2.8105l0,0
			c-0.3901,0.4893-0.9702,0.75-1.5601,0.75l0,0C77.3901,363.5316,76.9502,363.391,76.5801,363.0912z M337.9097,354.8607
			c-0.7393-0.8193-0.6797-2.0791,0.1406-2.8193l0,0c0.8193-0.7402,2.0801-0.6807,2.8193,0.1396l0,0
			c0.75,0.8203,0.6807,2.0801-0.1299,2.8203l0,0c-0.3896,0.3496-0.8701,0.5195-1.3496,0.5195l0,0
			C338.8501,355.5209,338.3003,355.3011,337.9097,354.8607z M66.6499,354.601c-0.8198-0.7402-0.8799-2-0.1299-2.8193l0,0
			c0.7397-0.8203,2-0.8809,2.8198-0.1309l0,0c0.8203,0.7402,0.8799,2.0107,0.1299,2.8203l0,0
			c-0.3896,0.4404-0.9297,0.6504-1.48,0.6504l0,0C67.5098,355.1215,67.0298,354.9515,66.6499,354.601z M347.3101,345.9711
			c-0.79-0.7803-0.8105-2.04-0.04-2.8301l0,0l0,0l0,0c0.7695-0.7998,2.04-0.8096,2.8301-0.04l0,0
			c0.79,0.7705,0.8096,2.0303,0.04,2.8301l0,0c-0.4004,0.4004-0.9199,0.6006-1.4404,0.6006l0,0
			C348.1997,346.5316,347.6997,346.3412,347.3101,345.9711z M57.27,345.5013c-0.77-0.79-0.7402-2.0605,0.0498-2.8301l0,0
			c0.79-0.7598,2.0601-0.7402,2.8301,0.0498l0,0c0.7603,0.7998,0.7402,2.0605-0.0498,2.8301l0,0
			c-0.3901,0.3799-0.8901,0.5596-1.3901,0.5596l0,0C58.1899,346.1107,57.6602,345.9115,57.27,345.5013z M356.1196,336.4916
			c-0.8398-0.7207-0.9395-1.9805-0.2197-2.8203l0,0c0.7197-0.8398,1.9805-0.9404,2.8203-0.2197l0,0
			c0.8398,0.7197,0.9395,1.9795,0.2197,2.8193l0,0c-0.3896,0.46-0.9502,0.7002-1.5195,0.7002l0,0
			C356.9595,336.9711,356.4995,336.8109,356.1196,336.4916z M48.4897,335.8217c-0.71-0.8408-0.6099-2.1104,0.23-2.8203l0,0
			c0.8403-0.7197,2.1001-0.6104,2.8203,0.2295l0,0l0,0l0,0c0.71,0.8408,0.6099,2.1006-0.23,2.8203l0,0
			c-0.3799,0.3203-0.8403,0.4697-1.29,0.4697l0,0C49.4502,336.5209,48.8901,336.2816,48.4897,335.8217z M364.3101,326.4808
			c-0.8799-0.6699-1.0605-1.9199-0.4004-2.7998l0,0c0.6699-0.8896,1.9199-1.0703,2.7998-0.3994l0,0
			c0.8906,0.6592,1.0605,1.9092,0.4004,2.7998l0,0c-0.3896,0.5195-0.9902,0.7998-1.5996,0.7998l0,0
			C365.0903,326.8812,364.6704,326.7513,364.3101,326.4808z M40.3501,325.5912c-0.6602-0.8799-0.48-2.1299,0.3999-2.7998l0,0
			c0.8901-0.6504,2.1401-0.4697,2.7998,0.4102l0,0c0.6602,0.8896,0.48,2.1396-0.4097,2.7998l0,0
			c-0.3501,0.2695-0.77,0.3994-1.1899,0.3994l0,0C41.3398,326.4008,40.7397,326.1215,40.3501,325.5912z M371.8403,315.9613
			c-0.9199-0.6006-1.1807-1.8398-0.5703-2.7705l0,0c0.5996-0.9199,1.8398-1.1797,2.7695-0.5693l0,0
			c0.9199,0.5996,1.1807,1.8398,0.5801,2.7695l-0.0098-0.0098c-0.3799,0.5898-1.0195,0.9102-1.6699,0.9102l0,0
			C372.5601,316.2914,372.1802,316.181,371.8403,315.9613z M32.8701,314.8715c-0.6001-0.9307-0.3403-2.1699,0.5801-2.7705l0,0
			c0.9297-0.5996,2.1699-0.3398,2.7695,0.5898l0,0c0.6001,0.9199,0.3403,2.1602-0.5796,2.7607l0,0
			c-0.3403,0.2197-0.7202,0.3301-1.0903,0.3301l0,0C33.8901,315.7816,33.25,315.4613,32.8701,314.8715z M378.6899,304.9916
			c-0.96-0.54-1.2998-1.7607-0.75-2.7207l0,0l0,0l0,0c0.54-0.9697,1.7598-1.2998,2.7197-0.7598l0,0
			c0.96,0.5498,1.2998,1.7705,0.7607,2.7305l0,0c-0.3701,0.6494-1.0508,1.0098-1.75,1.0098l0,0
			C379.3403,305.2513,378.9995,305.1713,378.6899,304.9916z M26.0898,303.681L26.0898,303.681
			c-0.54-0.96-0.1997-2.1797,0.7603-2.7197l0,0c0.9697-0.54,2.1899-0.2002,2.73,0.7598l0,0l0,0l0,0
			c0.54,0.96,0.1997,2.1797-0.7603,2.7197l0,0c-0.3101,0.1807-0.6499,0.2607-0.98,0.2607l0,0
			C27.1401,304.7015,26.46,304.3314,26.0898,303.681z M384.8101,293.6107c-0.9902-0.4893-1.4004-1.6797-0.9199-2.6699l0,0
			c0,0,0,0,0-0.0098l0,0c0.4795-0.9902,1.6797-1.4102,2.6699-0.9199l0,0c0.9902,0.4805,1.4102,1.6797,0.9297,2.6699l0,0
			c-0.3496,0.71-1.0596,1.1299-1.7998,1.1299l0,0C385.3901,293.8109,385.1001,293.7416,384.8101,293.6107z M20.04,292.0814
			c-0.48-0.9902-0.0601-2.1904,0.9399-2.6699l0,0c0.9897-0.4805,2.1899-0.0605,2.6699,0.9395l0,0
			c0.48,0.9902,0.0601,2.1904-0.9399,2.6699l0,0c-0.2798,0.1299-0.5698,0.1904-0.8599,0.1904l0,0
			C21.1001,293.2113,20.3901,292.8011,20.04,292.0814z M390.1997,281.8607c-1.0293-0.4199-1.5195-1.5898-1.0996-2.6094l0,0
			c0.4102-1.0205,1.5801-1.5098,2.5996-1.1006l0,0c1.0303,0.4209,1.5205,1.5908,1.1006,2.6104l0,0
			c-0.3105,0.7803-1.0605,1.25-1.8506,1.25l0,0C390.6997,282.0111,390.4399,281.9613,390.1997,281.8607z M14.75,280.1107
			c-0.4102-1.0195,0.0898-2.1895,1.1099-2.5996l0,0c1.02-0.4199,2.1899,0.0801,2.6099,1.0996l0,0
			c0.4102,1.0303-0.0898,2.2002-1.1099,2.6104l0,0c-0.25,0.1006-0.5,0.1396-0.75,0.1396l0,0
			C15.8198,281.3607,15.0698,280.891,14.75,280.1107z M394.8101,269.7709c-1.0498-0.3496-1.6104-1.4795-1.2598-2.5293l0,0
			c0.3496-1.0508,1.4795-1.6104,2.5293-1.2607l0,0c1.0508,0.3506,1.6104,1.4805,1.2607,2.5303l0,0
			c-0.2803,0.8398-1.0605,1.3604-1.8906,1.3604l0,0C395.2397,269.8715,395.02,269.8412,394.8101,269.7709z M10.25,267.8217
			c-0.3501-1.0508,0.2197-2.1807,1.27-2.5205l0,0c1.0498-0.3496,2.1802,0.2197,2.5298,1.2705l0,0l0,0l0,0
			c0.3403,1.0498-0.23,2.1797-1.27,2.5195l0,0c-0.21,0.0703-0.4199,0.0996-0.6299,0.0996l0,0
			C11.3101,269.1908,10.5298,268.6615,10.25,267.8217z M398.6401,257.4115c-1.0703-0.2803-1.71-1.3799-1.4199-2.4502l0,0
			c0,0,0,0,0,0.0098l0,0c0.2793-1.0703,1.3701-1.71,2.4395-1.4297l0,0c1.0703,0.2803,1.71,1.3799,1.4199,2.4502h0.0107
			c-0.2402,0.8897-1.0508,1.4893-1.9404,1.4893l0,0C398.98,257.4808,398.8101,257.4515,398.6401,257.4115z M6.5498,255.2914
			L6.5498,255.2914c-0.2798-1.0703,0.3701-2.1602,1.4399-2.4404l0,0c1.0601-0.2793,2.1504,0.3604,2.4302,1.4307l0,0l0,0l0,0
			c0.2803,1.0693-0.3599,2.1592-1.4302,2.4395l0,0c-0.1699,0.04-0.3398,0.0605-0.5,0.0605l0,0
			C7.6001,256.7816,6.79,256.1908,6.5498,255.2914z M401.6597,244.8314c-1.0801-0.21-1.79-1.2705-1.5801-2.3506l0,0
			c0.2207-1.0801,1.2705-1.79,2.3506-1.5801l0,0c1.0801,0.2207,1.79,1.2705,1.5801,2.3506l0,0
			c-0.1904,0.9502-1.0205,1.6201-1.96,1.6201l0,0C401.9204,244.8714,401.7896,244.8509,401.6597,244.8314z M3.6699,242.5414
			c-0.21-1.0898,0.5-2.1299,1.5898-2.3398l0,0c1.0801-0.21,2.1304,0.5,2.3403,1.5898l0,0c0.21,1.0801-0.5,2.1299-1.5903,2.3398l0,0
			c-0.1196,0.0195-0.25,0.0303-0.3799,0.0303l0,0C4.6899,244.1615,3.8599,243.5013,3.6699,242.5414z M403.8696,232.0814
			c-1.0996-0.1406-1.8701-1.1504-1.7295-2.2402l0,0c0.1494-1.0996,1.1494-1.8701,2.2402-1.7305l0,0
			c1.0996,0.1406,1.8691,1.1504,1.7295,2.2402l0,0c-0.1299,1.0098-0.9902,1.7402-1.9795,1.7402l0,0
			C404.0396,232.0912,403.9497,232.0912,403.8696,232.0814z M1.6201,229.641c-0.1401-1.0996,0.6396-2.0996,1.73-2.2402l0,0
			c1.1001-0.1396,2.1001,0.6406,2.2397,1.7305l0,0c0.1299,1.0996-0.6396,2.0996-1.7397,2.2402l0,0
			c-0.0801,0.0098-0.1699,0.0098-0.25,0.0098l0,0C2.6099,231.3812,1.75,230.6507,1.6201,229.641z M405.2495,219.2211
			c-1.0996-0.0801-1.9297-1.0303-1.8594-2.1299l0,0l0,0l0,0c0.0693-1.1104,1.0195-1.9404,2.1201-1.8701l0,0
			c1.1094,0.0801,1.9395,1.0303,1.8701,2.1299l0,0c-0.0703,1.0605-0.9502,1.8701-2,1.8701l0,0
			C405.3403,219.2211,405.3003,219.2211,405.2495,219.2211z M0.3901,216.6312c-0.0601-1.1104,0.77-2.0498,1.8799-2.1201l0,0
			c1.1001-0.0703,2.0498,0.7705,2.1201,1.8701l0,0l0,0l0,0c0.0601,1.0996-0.77,2.0498-1.8804,2.1201l0,0c-0.04,0-0.0796,0-0.1196,0
			l0,0C1.3398,218.5013,0.46,217.6908,0.3901,216.6312z M405.8198,206.2816c-1.1104,0-2-0.8906-2-2.0005l0,0
			c0-0.0801,0.0098-0.1602,0.0205-0.2397l0,0c-0.0107-0.0801-0.0205-0.1504-0.0205-0.23l0,0c0-1.1001,0.9004-2,2-2l0,0
			c1.1104,0,2,0.8999,2,2l0,0c0,0.0796,0,0.1597-0.0098,0.2397l0,0c0.0098,0.0801,0.0098,0.1602,0.0098,0.2402l0,0
			C407.8198,205.391,406.9204,206.2816,405.8198,206.2816L405.8198,206.2816L405.8198,206.2816z M2,205.5716
			c-1.1099,0-2-0.9004-2-2.0005l0,0c0-1.1099,0.8999-2,2-2l0,0c1.1099,0,2,0.8999,2,2l0,0C4,204.681,3.1001,205.5716,2,205.5716
			L2,205.5716L2,205.5716z M407.8198,204.2914L407.8198,204.2914L407.8198,204.2914L407.8198,204.2914z M403.4204,191.0013
			c-0.0703-1.1001,0.7695-2.0503,1.8691-2.1201l0,0c1.1006-0.0698,2.0508,0.77,2.1201,1.8701l0,0
			c0.0703,1.1001-0.7695,2.0498-1.8701,2.1299l0,0c-0.04,0-0.0898,0-0.1299,0l0,0
			C404.3696,192.8812,403.4897,192.0614,403.4204,191.0013z M2.29,192.6312c-1.1001-0.0698-1.9399-1.02-1.8599-2.1201l0,0
			c0.0698-1.1001,1.02-1.9399,2.1196-1.8701l0,0c1.1001,0.0703,1.9399,1.02,1.8701,2.1304l0,0l0,0l0,0
			c-0.0698,1.0498-0.9502,1.8696-2,1.8696l0,0C2.3799,192.641,2.3398,192.641,2.29,192.6312z M402.1997,178.2513L402.1997,178.2513
			L402.1997,178.2513c-0.1396-1.0903,0.6406-2.0903,1.7305-2.2402l0,0c1.0996-0.1299,2.0996,0.6401,2.2402,1.7402l0,0
			c0.1396,1.0898-0.6309,2.0898-1.7305,2.23l0,0c-0.0898,0.0098-0.1699,0.02-0.25,0.02l0,0
			C403.1899,180.0013,402.3296,179.2611,402.1997,178.2513z M3.4102,179.7411c-1.1001-0.1396-1.8701-1.1396-1.73-2.2397l0,0
			c0.1396-1.0903,1.1396-1.8604,2.2397-1.7202l0,0c1.1001,0.1401,1.8701,1.1401,1.73,2.2402l0,0c-0.1299,1-1,1.7397-1.9897,1.7397
			l0,0C3.5801,179.7611,3.4897,179.7513,3.4102,179.7411z M400.1704,165.6014c-0.2109-1.0801,0.5-2.1304,1.5898-2.3403l0,0
			c1.0801-0.21,2.1299,0.5,2.3398,1.5801l0,0c0.21,1.0898-0.5,2.1401-1.5801,2.3501l0,0c-0.1299,0.02-0.2598,0.0298-0.3799,0.0298
			l0,0C401.1997,167.2211,400.3599,166.5614,400.1704,165.6014z M5.3501,166.951c-1.0903-0.21-1.8003-1.2598-1.5801-2.3398H3.7598
			c0.2202-1.0898,1.27-1.7998,2.3501-1.5898l0,0c1.0801,0.21,1.79,1.27,1.5801,2.3496l0,0c-0.1899,0.9502-1.02,1.6201-1.96,1.6201
			l0,0C5.6001,166.9911,5.4697,166.9813,5.3501,166.951z M397.3403,153.1112L397.3403,153.1112L397.3403,153.1112
			c-0.2803-1.0698,0.3594-2.1602,1.4297-2.4399l0,0c1.0596-0.2803,2.1602,0.3599,2.4395,1.4302l0,0
			c0.2803,1.0698-0.3594,2.1597-1.4297,2.4399l0,0c-0.1699,0.0498-0.3398,0.0698-0.5098,0.0698l0,0
			C398.3804,154.6112,397.5698,154.0111,397.3403,153.1112z M8.1001,154.3114c-1.0703-0.2803-1.71-1.3804-1.4199-2.4404l0,0
			c0.2798-1.0698,1.3696-1.71,2.4399-1.4297l0,0c1.0601,0.2798,1.6997,1.3701,1.4199,2.4399l0,0
			c-0.23,0.8999-1.04,1.4897-1.9302,1.4897l0,0C8.4399,154.371,8.27,154.3514,8.1001,154.3114z M393.6997,140.8314
			c-0.3496-1.0503,0.2207-2.1802,1.2705-2.5303l0,0c1.04-0.3501,2.1797,0.2202,2.5293,1.27l0,0
			c0.3408,1.0498-0.2295,2.1802-1.2695,2.5303l0,0c-0.21,0.0698-0.4199,0.0996-0.6299,0.0996l0,0
			C394.7603,142.201,393.98,141.6712,393.6997,140.8314z M11.6699,141.871c-1.0498-0.3496-1.6201-1.48-1.27-2.5298l0,0
			c0.3501-1.0498,1.48-1.6201,2.5303-1.27l0,0c1.0498,0.3501,1.6099,1.4902,1.27,2.5303l0,0l0,0l0,0
			c-0.2803,0.8398-1.0601,1.3696-1.9004,1.3696l0,0C12.0898,141.9711,11.8799,141.9413,11.6699,141.871z M389.27,128.7914
			c-0.4199-1.0303,0.0703-2.1899,1.0996-2.6104l0,0c1.0205-0.4097,2.1904,0.0801,2.6006,1.1104l0,0
			c0.4199,1.02-0.0801,2.1797-1.1006,2.5996l0,0c-0.25,0.1001-0.5,0.1504-0.75,0.1504l0,0
			C390.3296,130.0414,389.5796,129.5614,389.27,128.7914z M16.0298,129.681c-1.02-0.4097-1.52-1.5796-1.0996-2.5996l0,0
			c0.4097-1.02,1.5796-1.52,2.5996-1.1001l0,0c1.0303,0.4199,1.52,1.5801,1.1001,2.6099l0,0c0,0,0,0,0-0.0098l0,0
			c-0.3101,0.7798-1.0601,1.25-1.8501,1.25l0,0C16.5298,129.8314,16.2798,129.7811,16.0298,129.681z M384.0698,117.0614
			c-0.4795-1-0.0596-2.1904,0.9297-2.6704l0,0c1-0.48,2.1904-0.0596,2.6709,0.9302l0,0c0.4795,1,0.0596,2.1899-0.9307,2.6699l0,0
			c-0.2803,0.1401-0.5801,0.2002-0.8701,0.2002l0,0C385.1304,118.1913,384.4097,117.7713,384.0698,117.0614z M21.1602,117.8314
			c-1-0.4902-1.4102-1.6802-0.9302-2.6802l0,0c0.48-0.9902,1.6802-1.4102,2.6699-0.9302l0,0
			c0.9902,0.4902,1.4102,1.6802,0.9302,2.6802l0,0l0,0l0,0c-0.3501,0.71-1.0601,1.1201-1.8003,1.1201l0,0
			C21.7397,118.0213,21.4399,117.9613,21.1602,117.8314z M378.1304,105.6913c-0.5508-0.96-0.21-2.1802,0.7598-2.7202l0,0
			c0.96-0.54,2.1797-0.1997,2.7197,0.7603l0,0c0.54,0.96,0.2002,2.1797-0.7598,2.7197l0,0
			c-0.3105,0.1802-0.6504,0.2603-0.9805,0.2603l0,0C379.1704,106.7113,378.4995,106.3412,378.1304,105.6913z M27.04,106.3212
			c-0.96-0.5498-1.3003-1.77-0.75-2.73l0,0c0.54-0.96,1.7598-1.2998,2.7197-0.7598l0,0c0.96,0.5498,1.3003,1.77,0.7603,2.73l0,0
			c-0.3701,0.6499-1.0503,1.0098-1.7402,1.0098l0,0C27.6899,106.5712,27.3501,106.4911,27.04,106.3212z M371.4702,94.7411
			c-0.6006-0.9297-0.3398-2.1699,0.5801-2.77l0,0c0.9297-0.6001,2.1699-0.3501,2.7695,0.5801l0,0
			c0.6006,0.9302,0.3398,2.1602-0.5801,2.77l0,0c-0.3398,0.2202-0.7197,0.3198-1.0898,0.3198l0,0
			C372.4897,95.641,371.8501,95.3212,371.4702,94.7411z M33.6602,95.201c-0.9302-0.5996-1.1904-1.8398-0.5903-2.77l0,0
			c0.6104-0.9199,1.8501-1.1797,2.77-0.5796l0,0c0.9302,0.6099,1.1899,1.8496,0.5801,2.7695l0,0
			c-0.3799,0.5903-1.02,0.9102-1.6699,0.9102l0,0C34.3701,95.5311,33.9897,95.4212,33.6602,95.201z M364.1196,84.2313
			c0,0,0,0,0.0107,0l0,0c-0.6602-0.8901-0.4805-2.1401,0.3994-2.8003l0,0c0.8799-0.6597,2.1406-0.48,2.7998,0.4004l0,0
			c0.6602,0.8896,0.4805,2.1396-0.3994,2.7998l0,0c-0.3604,0.27-0.7803,0.3999-1.2002,0.3999l0,0
			C365.1196,85.0311,364.52,84.7513,364.1196,84.2313z M40.9697,84.5311c-0.8896-0.6602-1.0698-1.9102-0.4097-2.7998l0,0
			c0.6699-0.8799,1.9199-1.0601,2.7998-0.3999l0,0c0.8901,0.6597,1.0703,1.9199,0.4102,2.7998l0,0
			c-0.3999,0.52-1,0.7998-1.6099,0.7998l0,0C41.75,84.931,41.3301,84.8011,40.9697,84.5311z M356.1304,74.2113L356.1304,74.2113
			L356.1304,74.2113c-0.7207-0.8403-0.6201-2.1001,0.2197-2.8203l0,0c0.8398-0.71,2.1094-0.6099,2.8203,0.23l0,0
			c0.7197,0.8403,0.6191,2.1001-0.2207,2.8203l0,0c-0.3799,0.3198-0.8398,0.48-1.2998,0.48l0,0
			C357.0796,74.9212,356.52,74.681,356.1304,74.2113z M48.9502,74.3514c-0.8403-0.7202-0.9404-1.9805-0.2305-2.8203l0,0
			c0.7202-0.8398,1.9805-0.9399,2.8203-0.2197l0,0c0.8398,0.71,0.9399,1.98,0.23,2.8198l0,0c0,0,0,0,0-0.0103l0,0
			c-0.3999,0.4702-0.96,0.7104-1.5303,0.7104l0,0C49.7798,74.8314,49.3198,74.6712,48.9502,74.3514z M347.5103,64.7313
			c-0.7705-0.8003-0.75-2.0601,0.04-2.8301l0,0c0.7998-0.77,2.0596-0.75,2.8301,0.0498l0,0c0.7695,0.79,0.75,2.0503-0.04,2.8203l0,0
			c-0.3906,0.3799-0.8906,0.5698-1.3906,0.5698l0,0C348.4204,65.3412,347.8999,65.1312,347.5103,64.7313z M57.5601,64.6913
			c-0.79-0.77-0.8101-2.0303-0.04-2.8203l0,0c0.7598-0.7998,2.0298-0.8198,2.8198-0.0498l0,0c0.8003,0.77,0.8203,2.04,0.0503,2.8301
			l0,0l0,0l0,0c-0.4004,0.3999-0.9204,0.6099-1.4399,0.6099l0,0C58.4502,65.2611,57.9502,65.0712,57.5601,64.6913z
			 M338.3101,55.8114c-0.8203-0.7402-0.8799-2-0.1396-2.8203l0,0c0.7393-0.8198,2.0098-0.8799,2.8291-0.1396l0,0
			c0.8105,0.75,0.8701,2.0098,0.1309,2.8296l0,0c-0.3906,0.4302-0.9404,0.6504-1.4805,0.6504l0,0
			C339.1704,56.3314,338.6899,56.161,338.3101,55.8114z M66.77,55.6014c-0.7402-0.8203-0.6802-2.0801,0.1401-2.8203l0,0
			c0.8198-0.75,2.0796-0.6797,2.8198,0.1401l0,0c0.7397,0.8101,0.6802,2.0801-0.1299,2.8198l0,0
			c-0.3901,0.3501-0.8701,0.52-1.3501,0.52l0,0C67.71,56.2611,67.1699,56.0414,66.77,55.6014z M328.5601,47.5013
			c-0.8701-0.6802-1.0098-1.9399-0.3203-2.8101l0,0c0.6904-0.8599,1.9502-1,2.8105-0.3101l0,0c0.8594,0.6899,1,1.9502,0.3193,2.8101
			l0,0c-0.3994,0.4897-0.9795,0.75-1.5693,0.75l0,0C329.3599,47.9413,328.9204,47.8011,328.5601,47.5013z M76.5498,47.121
			c-0.6899-0.8696-0.5498-2.1299,0.3101-2.8198l0,0c0.8701-0.6802,2.1201-0.54,2.8101,0.3198l0,0
			c0.6899,0.8604,0.5498,2.1201-0.3101,2.8101l0,0c-0.3701,0.3003-0.8101,0.4399-1.25,0.4399l0,0
			C77.52,47.871,76.9399,47.6112,76.5498,47.121z M318.3003,39.8412c-0.9102-0.6401-1.1299-1.8799-0.5-2.79l0,0
			c0.6396-0.8999,1.8799-1.1201,2.79-0.4897l0,0c0.8994,0.6299,1.1191,1.8799,0.4893,2.7798l0,0
			c-0.3896,0.5601-1.0098,0.8599-1.6396,0.8599l0,0C319.0396,40.201,318.6499,40.0814,318.3003,39.8412z M86.8398,39.2713
			c-0.6299-0.9102-0.4097-2.1504,0.5-2.79l0,0c0.8999-0.6299,2.1499-0.4102,2.7803,0.5l0,0
			c0.6396,0.9097,0.4097,2.1499-0.4902,2.7798l0,0c-0.3501,0.25-0.75,0.3599-1.1401,0.3599l0,0
			C87.8501,40.121,87.23,39.8314,86.8398,39.2713z M307.5698,32.8412c-0.9395-0.5698-1.2402-1.7998-0.6699-2.75l0,0
			c0.5801-0.9399,1.7998-1.2397,2.75-0.6699l0,0c0.9404,0.5801,1.2402,1.8101,0.6699,2.75l0,0c-0.3799,0.6201-1.0303,0.96-1.71,0.96
			l0,0C308.2603,33.1312,307.8999,33.0414,307.5698,32.8412z M97.6201,32.0912c-0.5703-0.9399-0.27-2.1699,0.6797-2.7397l0,0
			c0.9399-0.5801,2.1699-0.2803,2.7402,0.6699l0,0c0.5801,0.9399,0.27,2.1699-0.6699,2.75l0,0c-0.3203,0.1899-0.6802,0.29-1.04,0.29
			l0,0C98.6602,33.0614,98,32.7113,97.6201,32.0912z M296.4302,26.5511L296.4302,26.5511L296.4302,26.5511
			c-0.9805-0.5098-1.3604-1.7197-0.8506-2.6997l0,0c0.5107-0.9805,1.7207-1.3604,2.7002-0.8501l0,0
			c0.9805,0.52,1.3604,1.73,0.8398,2.71l0,0c-0.3496,0.6797-1.0498,1.0698-1.7695,1.0698l0,0
			C297.0396,26.7811,296.7202,26.701,296.4302,26.5511z M108.8398,25.621c-0.5098-0.98-0.1299-2.1797,0.8501-2.6997l0,0
			c0.98-0.5103,2.1899-0.1299,2.7002,0.8501l0,0c0.5098,0.98,0.1299,2.1899-0.8501,2.6997l0,0c-0.29,0.1499-0.6099,0.23-0.9199,0.23
			l0,0C109.8999,26.701,109.2002,26.3114,108.8398,25.621z M284.8999,20.9911c-1.0098-0.4497-1.46-1.6299-1.0098-2.6396l0,0
			c0.4395-1.0103,1.6299-1.4702,2.6396-1.02l0,0c1,0.4497,1.46,1.6299,1.0098,2.6396l0,0
			c-0.3301,0.7402-1.0596,1.1899-1.8301,1.1899l0,0C285.4399,21.161,285.1704,21.1014,284.8999,20.9911z M120.46,19.891
			c-0.4502-1.02,0.0098-2.1997,1.02-2.6396l0,0c1.0098-0.4502,2.1899,0.0098,2.6401,1.02l0,0
			c0.4399,1.0098-0.0103,2.1899-1.02,2.6396l0,0l0,0l0,0c-0.27,0.1104-0.54,0.1704-0.8101,0.1704l0,0
			C121.52,21.0814,120.79,20.6312,120.46,19.891z M273.0503,16.181c-1.04-0.3896-1.5703-1.5298-1.1807-2.5698l0,0
			c0.3799-1.04,1.5303-1.5698,2.5605-1.1899l0,0c1.04,0.3901,1.5693,1.54,1.1895,2.5698l0,0
			c-0.2998,0.8101-1.0596,1.3101-1.8799,1.3101l0,0C273.5103,16.3011,273.2798,16.2611,273.0503,16.181z M132.4302,14.911
			c-0.3804-1.04,0.1499-2.1899,1.1797-2.5698l0,0c1.04-0.3799,2.1899,0.1499,2.5703,1.1899l0,0
			c0.3799,1.0303-0.1504,2.1802-1.1904,2.5703l0,0c-0.2197,0.0796-0.46,0.1196-0.6899,0.1196l0,0
			C133.4897,16.2211,132.7197,15.7211,132.4302,14.911z M260.8999,12.141c0,0,0,0-0.0098,0l0,0
			c-1.0605-0.3198-1.6602-1.4297-1.3398-2.4897l0,0c0.3096-1.0601,1.4199-1.6602,2.4795-1.3501l0,0
			c1.0605,0.3198,1.6602,1.4302,1.3506,2.4902l0,0c-0.2607,0.8696-1.0508,1.4297-1.9209,1.4297l0,0
			C261.2798,12.2211,261.0796,12.1913,260.8999,12.141z M144.6699,10.7211c-0.3101-1.0601,0.29-2.1699,1.3501-2.4897l0,0
			c1.0601-0.3101,2.1699,0.2998,2.4897,1.3501l0,0c0.3101,1.0596-0.2998,2.1797-1.3599,2.4897l0,0
			c-0.1899,0.0601-0.3799,0.0801-0.5601,0.0801l0,0C145.7197,12.1512,144.9302,11.5912,144.6699,10.7211z M248.4995,8.891
			c-1.0693-0.2397-1.75-1.3198-1.5-2.3896l0,0c0.2402-1.0801,1.3105-1.7603,2.3906-1.5103l0,0
			c1.0801,0.25,1.75,1.3203,1.5098,2.3901l0,0c-0.21,0.9302-1.04,1.5601-1.9502,1.5601l0,0
			C248.8003,8.9413,248.6499,8.9213,248.4995,8.891z M157.1602,7.3314c-0.25-1.0801,0.4297-2.1504,1.5098-2.3901l0,0
			c1.0698-0.25,2.1401,0.4297,2.3901,1.5l0,0c0.2397,1.0801-0.4302,2.1499-1.5103,2.3999l0,0
			c-0.1499,0.0298-0.2998,0.0498-0.4399,0.0498l0,0C158.1899,8.891,157.3701,8.2611,157.1602,7.3314z M235.9302,6.451
			L235.9302,6.451L235.9302,6.451c-1.0898-0.1797-1.8301-1.1997-1.6602-2.29l0,0c0.1797-1.0898,1.2002-1.8398,2.29-1.6597l0,0
			c1.0996,0.1797,1.8398,1.1997,1.6602,2.29l0,0c-0.1602,0.9897-1.0107,1.6797-1.9707,1.6797l0,0
			C236.1401,6.4711,236.0396,6.4711,235.9302,6.451z M169.8398,4.7513c-0.1797-1.0903,0.5703-2.1104,1.6602-2.29l0,0
			c1.0898-0.1699,2.1099,0.5698,2.29,1.6597l0,0c0.1699,1.0903-0.5703,2.1201-1.6602,2.29l0,0
			c-0.1099,0.02-0.2197,0.0303-0.3198,0.0303l0,0C170.8398,6.4413,169.9897,5.7313,169.8398,4.7513z M223.2202,4.8212
			L223.2202,4.8212L223.2202,4.8212c-1.1006-0.1099-1.9004-1.0801-1.7998-2.1802l0,0c0.1094-1.0996,1.0791-1.9097,2.1797-1.7998l0,0
			c1.0996,0.1001,1.9102,1.0801,1.7998,2.1802l0,0c-0.0996,1.0298-0.9697,1.8101-1.9902,1.8101l0,0
			C223.3501,4.8314,223.2896,4.8314,223.2202,4.8212z M182.6602,2.9911c-0.1104-1.1001,0.6997-2.0698,1.7998-2.1797l0,0
			c1.1001-0.1001,2.0801,0.71,2.1802,1.8096l0,0c0.0996,1.1001-0.7002,2.0703-1.8003,2.1802l0,0c0,0,0,0-0.0098,0l0,0
			c-0.0601,0-0.1201,0.0103-0.1802,0.0103l0,0C183.6201,4.8114,182.75,4.0311,182.6602,2.9911z M210.4399,4.0013
			c-1.1104-0.0303-1.9697-0.96-1.9404-2.0601l0,0c0.04-1.1001,0.96-1.9702,2.0703-1.9302l0,0
			c1.1006,0.0303,1.9697,0.9502,1.9297,2.0601l0,0c-0.0293,1.0801-0.9199,1.9302-2,1.9302l0,0
			C210.48,4.0013,210.4595,4.0013,210.4399,4.0013z M195.5601,2.0614c-0.0303-1.1104,0.8301-2.0303,1.9399-2.0601l0,0
			c1.1001-0.04,2.0298,0.8301,2.0601,1.9399l0,0c0.0298,1.1001-0.8301,2.02-1.9399,2.0601l0,0c-0.02,0-0.04,0-0.0601,0l0,0
			C196.48,4.0013,195.6001,3.141,195.5601,2.0614z"/>
	</g>
</g>
</svg>
