<?xml version="1.0" encoding="utf-8"?>
<!-- Generator: Adobe Illustrator 21.0.0, SVG Export Plug-In . SVG Version: 6.00 Build 0)  -->
<svg version="1.1" id="shield-badge" xmlns="http://www.w3.org/2000/svg" xmlns:xlink="http://www.w3.org/1999/xlink" x="0px"
	 y="0px" viewBox="0 0 607.1152 739.8164" enable-background="new 0 0 607.1152 739.8164" xml:space="preserve">
<g id="change1">
	<path fill="#16A085" d="M309.2146,1.9302C330.43,15.4351,462.7733,132.5909,586.007,145.2691
		c12.019,1.2365,21.1056,11.4589,21.1056,23.5414v230.3108c0,0,3.998,261.495-299.915,340.229c-3.64,1.049-7.278,0-7.278,0
		c-303.915-78.733-299.917-340.228-299.917-340.228V168.8736c0-12.2094,9.2845-22.3758,21.4353-23.5704
		C155.7394,132.099,298.0457,1.9302,298.0457,1.9302S302.8817-2.4128,309.2146,1.9302z"/>
</g>
<g id="change2">
	<path fill="#23B684" d="M307.8902,88.0832c16.2484,10.3431,117.6068,100.0697,211.9883,109.7796
		c9.2051,0.947,16.1642,8.776,16.1642,18.0297v176.3892c0,0,3.062,200.2724-229.6973,260.5728c-2.7878,0.8034-5.574,0-5.574,0
		C68.0105,592.5549,71.0725,392.2825,71.0725,392.2825V215.9409c0-9.3509,7.1107-17.1371,16.4168-18.052
		C190.3474,187.7762,299.3361,88.0832,299.3361,88.0832S303.0399,84.757,307.8902,88.0832z"/>
</g>
</svg>
