<?xml version="1.0" encoding="utf-8"?>
<!-- Generator: Adobe Illustrator 21.0.0, SVG Export Plug-In . SVG Version: 6.00 Build 0)  -->
<svg version="1.1" id="shield-badge2" xmlns="http://www.w3.org/2000/svg" xmlns:xlink="http://www.w3.org/1999/xlink" x="0px"
	 y="0px" viewBox="0 0 608.25 694.9513" enable-background="new 0 0 608.25 694.9513" xml:space="preserve">
<g id="change1">
	<path fill="#54573A" d="M608.25,98.5169h-0.0002c-215.0906-135.2092-417.1319-127.4452-608.2496,0H0l0.0001,0.0001
		c42.8883,45.8825,55.8454,112.211,33.3773,170.8607l-0.9986,2.6066C11.2782,327.064,7.1708,387.2039,20.5867,444.6411v0.0002
		c20.8192,89.1326,81.8276,163.5548,165.1443,201.4543l118.3939,48.8557l118.3939-48.8557
		c83.3167-37.8995,144.3251-112.3217,165.1443-201.4543v-0.0002c13.416-57.4371,9.3085-117.5771-11.792-172.6569l-0.9986-2.6066
		C552.4045,210.728,565.3616,144.3995,608.25,98.5169L608.25,98.5169z"/>
</g>
<g id="change2">
	<path fill="#A19C69" d="M46.1726,123.2394c162.1021-110.8901,333.4694-117.6456,515.9048,0h0.0002l-0.0001,0.0001
		c-36.377,39.9224-47.3669,97.6348-28.3099,148.666l0.847,2.268c17.897,47.925,21.3809,100.2527,10.0018,150.2289v0.0002
		c-17.6584,77.5543-69.4045,142.3091-140.0721,175.2855L304.125,642.1973L203.7057,599.688
		c-70.6675-32.9764-122.4136-97.7312-140.072-175.2855v-0.0002c-11.3791-49.9761-7.8953-102.3039,10.0017-150.2289l0.847-2.268
		c19.057-51.0311,8.0671-108.7436-28.3099-148.666"/>
</g>
</svg>
