<?xml version="1.0" encoding="utf-8"?>
<!-- Generator: Adobe Illustrator 21.0.0, SVG Export Plug-In . SVG Version: 6.00 Build 0)  -->
<svg version="1.1" id="diamond-line2" xmlns="http://www.w3.org/2000/svg" xmlns:xlink="http://www.w3.org/1999/xlink" x="0px"
	 y="0px" viewBox="0 0 226.8741 307.372" enable-background="new 0 0 226.8741 307.372" xml:space="preserve">
<g id="change1">
	<path fill="#00059A" d="M226.2209,151.6932L116.2681,1.4246C115.6129,0.5302,114.5602,0,113.4375,0
		c-1.1222,0-2.1759,0.5302-2.8301,1.4246L0.6535,151.6932c-0.8714,1.191-0.8714,2.795,0,3.9855l109.9539,150.2686
		c0.6542,0.8944,1.7079,1.4246,2.8301,1.4246c1.1227,0,2.1754-0.5302,2.8306-1.4246l109.9528-150.2686
		C227.0918,154.4882,227.0918,152.8843,226.2209,151.6932z M113.4375,298.0937L7.7718,153.6862L113.4375,9.2783l105.6642,144.4079
		L113.4375,298.0937z"/>
	<path fill="#00059A" d="M111.0561,25.5723l-92.5159,126.437c-0.7332,1.0021-0.7332,2.3517,0,3.3535l92.5159,126.437
		c0.5505,0.7526,1.437,1.1987,2.3813,1.1987c0.9446,0,1.8304-0.4461,2.3817-1.1987l92.5151-126.437
		c0.7328-1.0018,0.7328-2.3513,0-3.3535l-92.5151-126.437c-0.5513-0.7526-1.437-1.1987-2.3817-1.1987
		C112.4931,24.3735,111.6066,24.8196,111.0561,25.5723z M202.344,153.6862l-88.9066,121.5054L24.5296,153.6862l88.9078-121.5059
		L202.344,153.6862z"/>
</g>
</svg>
