<?xml version="1.0" encoding="utf-8"?>
<!-- Generator: Adobe Illustrator 21.0.0, SVG Export Plug-In . SVG Version: 6.00 Build 0)  -->
<svg version="1.1" id="badge-6" xmlns="http://www.w3.org/2000/svg" xmlns:xlink="http://www.w3.org/1999/xlink" x="0px" y="0px"
	 viewBox="0 0 524.2969 352.5605" enable-background="new 0 0 524.2969 352.5605" xml:space="preserve">
<g id="change1">
	<path fill="#68D8D2" d="M492.4975,117.3112c-0.142-0.0931-0.2886-0.1789-0.4398-0.2563L264.7744,0.5149
		c-0.8434-0.4326-1.7549-0.5796-2.6317-0.4895c-0.8738-0.0879-1.7812,0.0587-2.6203,0.4895l-227.2838,116.54
		c-0.1512,0.0775-0.2978,0.1632-0.4398,0.2563C11.8875,130.4033,0,152.4471,0,176.2772s11.8875,45.8734,31.7989,58.9655
		c0.142,0.0931,0.2886,0.1788,0.4398,0.2563l227.2838,116.5405c0.6892,0.3531,1.425,0.521,2.1502,0.521
		c0.1596,0,0.3177-0.0164,0.4757-0.0324c0.158,0.0161,0.3162,0.0324,0.4758,0.0324c0.7247,0,1.4605-0.1678,2.1502-0.521
		l227.2833-116.5405c0.1512-0.0775,0.2979-0.1631,0.4398-0.2563c19.9115-13.0921,31.7994-35.1354,31.7994-58.9655
		S512.409,130.4033,492.4975,117.3112z"/>
</g>
</svg>
