<?xml version="1.0" encoding="utf-8"?>
<!-- Generator: Adobe Illustrator 21.0.0, SVG Export Plug-In . SVG Version: 6.00 Build 0)  -->
<svg version="1.1" id="Star-Shape-D6" xmlns="http://www.w3.org/2000/svg" xmlns:xlink="http://www.w3.org/1999/xlink" x="0px"
	 y="0px" viewBox="0 0 500 475.5" enable-background="new 0 0 500 475.5" xml:space="preserve">
<g id="change1">
	<polygon fill="#FEC606" points="250.5,10.7 324.3,160.3 489.5,184.3 370,300.8 398.2,465.2 250.5,387.6 102.8,465.2 131,300.8 
		11.5,184.3 176.6,160.3 	"/>
</g>
<g id="change2">
	<path fill="#FFD671" d="M404.5,475.5L250,394.3L95.5,475.5l29.5-172L0,181.6l172.7-25.1L250,0l77.3,156.5L500,181.6L375,303.5
		L404.5,475.5z M28.7,191l110.6,107.8l-26.1,152.3L250,379.2l136.7,71.9l-26.1-152.3L471.3,191l-152.9-22.2L250,30.2l-68.4,138.5
		L28.7,191z"/>
</g>
</svg>
