<?xml version="1.0" encoding="utf-8"?>
<!-- Generator: Adobe Illustrator 21.0.0, SVG Export Plug-In . SVG Version: 6.00 Build 0)  -->
<svg version="1.1" id="Outlined_Circle_with_Gear_Border_Design"
	 xmlns="http://www.w3.org/2000/svg" xmlns:xlink="http://www.w3.org/1999/xlink" x="0px" y="0px" viewBox="0 0 467.4283 467.4578"
	 enable-background="new 0 0 467.4283 467.4578" xml:space="preserve">
<g id="change1">
	<path fill="#FFB531" d="M457.6605,247.364c-5.1416-2.3652-8.4541-7.5361-8.4385-13.1753c0-0.0049,0-0.0103,0-0.0151v-0.46
		c0-5.645,3.3232-10.813,8.4658-13.166c6.6504-3.0439,10.5137-9.8594,9.6104-16.9639l-0.21-1.6108
		c-0.9619-7.1685-6.3604-12.7554-13.4355-13.9023c-9.8828-1.6025-11.2158-7.8179-11.6533-9.8599
		c-1.25-5.8315,0.5908-11.6567,4.8057-15.2026c5.5732-4.6909,7.4951-12.2603,4.7852-18.8286
		c-0.2607-0.6338-0.5254-1.2666-0.792-1.8984c-2.6543-6.2798-9.0381-10.2856-15.8242-9.9521
		c-3.9004,0.1831-10.917-0.3779-14.4873-6.2075c-0.0244-0.0444-0.0488-0.0884-0.0742-0.1318
		c-2.8213-4.8779-2.5361-11.0063,0.7266-15.6138c4.2324-5.979,4.1553-13.8188-0.1934-19.5103
		c-0.3057-0.3984-0.6113-0.7969-0.915-1.1885c-4.3232-5.5825-11.75-7.5942-18.4795-5.0098
		c-1.6504,0.6343-3.3867,0.9561-5.1592,0.9561c-3.8701,0-7.5107-1.5088-10.248-4.2466c-3.9902-3.9946-5.2979-9.9985-3.3311-15.2944
		c2.5498-6.8628,0.458-14.4146-5.2051-18.7925l-0.9248-0.7114c-5.7158-4.375-13.5303-4.4731-19.4453-0.2437
		c-2.4424,1.7466-5.4414,2.7085-8.4463,2.7085c-2.5322,0-5.04-0.6777-7.2529-1.959c-4.876-2.8237-7.6826-8.2808-7.1494-13.9028
		c0.6904-7.2886-3.2803-14.0444-9.8906-16.8159l-0.8203-0.3423c-6.7344-2.7915-14.5742-0.8833-19.0625,4.6445
		c-2.7695,3.4097-6.8633,5.3657-11.2334,5.3657c-1.2637,0-2.5283-0.168-3.7695-0.5034c-5.4375-1.4536-9.5664-5.9883-10.5166-11.5518
		c-1.2363-7.2319-6.8398-12.7236-13.9414-13.665l-1.1748-0.1528c-7.1055-0.9048-13.917,2.9556-16.9639,9.606
		c-2.3545,5.1377-7.5215,8.457-13.1694,8.457c-5.6431-0.0049-10.8091-3.332-13.1611-8.4766
		c-3.0415-6.6514-9.8555-10.5161-16.9482-9.6182L202.5609,0.28c-7.103,0.9355-12.7109,6.4204-13.9541,13.6484
		c-0.9575,5.5635-5.0923,10.0977-10.5293,11.5498c-1.2344,0.3286-2.498,0.4951-3.7495,0.4951
		c-4.3154-0.0049-8.5195-2.0161-11.2451-5.3799c-4.4844-5.5337-12.3232-7.4531-19.0576-4.6689l-0.8472,0.3516
		c-6.606,2.7598-10.585,9.5127-9.9014,16.8047c0.5269,5.6201-2.2856,11.0723-7.1665,13.8906
		c-2.2104,1.2769-4.7134,1.9521-7.2383,1.9521c-3.0088,0-6.0122-0.9653-8.4561-2.7178c-5.9053-4.2358-13.7207-4.1465-19.4443,0.2236
		l-0.9375,0.7192c-5.667,4.3726-7.7661,11.9233-5.2236,18.7896c1.9629,5.3003,0.6538,11.2998-3.333,15.2812
		c-2.7437,2.7368-6.3857,4.2441-10.2554,4.2441c-1.7695,0-3.5044-0.3228-5.1577-0.9595c-6.7314-2.5908-14.1675-0.585-18.4985,4.9951
		l-0.8999,1.167c-4.356,5.6846-4.4419,13.5249-0.2144,19.5098c3.2603,4.6143,3.54,10.7446,0.7119,15.6191
		c-2.5884,4.4648-7.4053,7.2383-12.5718,7.2383c-0.5298,0-1.0659-0.0303-1.5947-0.0903
		c-6.9795-0.7861-13.7949,3.2793-16.5703,9.8916l-0.4429,1.061c-2.7441,6.627-0.793,14.231,4.8545,18.9214
		c4.3447,3.6074,6.2061,9.4507,4.7427,14.8867c-0.0327,0.1226-0.0615,0.2466-0.0859,0.3716
		c-1.4775,6.5532-4.9243,9.8735-10.8394,10.4443c-7.3496,0.71-13.3926,6.6309-14.3677,14.0747l-0.0967,0.7432
		c-0.9077,7.0967,2.9482,13.915,9.5952,16.9658c5.1406,2.3594,8.4556,7.5288,8.4453,13.1753
		c-0.0049,5.646-3.3311,10.8101-8.4731,13.1577c-6.6558,3.0381-10.5259,9.8506-9.6309,16.9473l0.1514,1.1768
		c0.9321,7.1035,6.4146,12.7139,13.6416,13.96c5.5596,0.959,10.0879,5.0957,11.5356,10.5361
		c1.4487,5.4482-0.4253,11.292-4.7739,14.8867c-5.6548,4.6738-7.623,12.2695-4.895,18.9072l0.4526,1.0928
		c2.7549,6.6064,9.5107,10.584,16.7978,9.9121c5.6157-0.5283,11.0728,2.292,13.8896,7.1758
		c2.8174,4.8848,2.5264,11.0166-0.7417,15.6211c-4.2383,5.9727-4.1699,13.8105,0.1714,19.5059l0.729,0.9512
		c4.3691,5.6719,11.9194,7.7744,18.7886,5.2354c5.3042-1.96,11.3018-0.6484,15.2827,3.3428
		c3.9834,3.9941,5.2808,9.9971,3.3052,15.2949c-2.5576,6.8584-0.4751,14.4121,5.1768,18.7939l0.9419,0.7266
		c5.6831,4.3594,13.5254,4.4482,19.5127,0.2227c4.6128-3.2549,10.7432-3.5322,15.6167-0.7051
		c4.8804,2.833,7.6846,8.2949,7.145,13.915c-0.7002,7.29,3.2622,14.0518,9.8594,16.8262l1.0781,0.4512
		c6.6255,2.748,14.2285,0.8018,18.9224-4.8418c3.6099-4.3418,9.4556-6.2041,14.9023-4.7354
		c5.4414,1.459,9.5664,5.999,10.5093,11.5664c1.2251,7.2354,6.8218,12.7334,13.9272,13.6816l1.1714,0.1533
		c7.0986,0.9102,13.9175-2.9424,16.9697-9.5869c2.3579-5.1338,7.5215-8.4463,13.1602-8.4463c0.0088,0,0.0176,0,0.0264,0
		c5.6416,0.0098,10.8027,3.3408,13.1465,8.4844c2.7441,6.0244,8.5771,9.7695,14.9307,9.7695c0.6719,0,1.3496-0.042,2.0303-0.127
		l1.1602-0.1494c7.1035-0.9287,12.7148-6.4082,13.9648-13.6338c0.9619-5.5615,5.1035-10.0908,10.5469-11.5381
		c5.4492-1.4443,11.2891,0.4365,14.8809,4.7871c4.6699,5.6582,12.2656,7.6299,18.8984,4.9102l1.1016-0.4551
		c6.6113-2.752,10.5986-9.501,9.9229-16.7959c-0.5205-5.6191,2.2988-11.0703,7.1807-13.8857
		c4.8867-2.8135,11.0176-2.5195,15.6182,0.751c5.9717,4.2432,13.8115,4.1826,19.5137-0.1611l0.9434-0.7227
		c5.6748-4.3652,7.7842-11.915,5.248-18.7842c-1.957-5.2998-0.6387-11.2998,3.3564-15.2852
		c3.9912-3.9824,9.9922-5.2773,15.2891-3.2979c6.8545,2.5625,14.4121,0.4854,18.8037-5.1709l0.7246-0.9375
		c4.3633-5.6826,4.457-13.5244,0.2324-19.5156c-3.2559-4.6162-3.5293-10.7471-0.6982-15.6191
		c2.834-4.874,8.2939-7.6738,13.9238-7.1289c7.2725,0.7021,14.0488-3.2549,16.8301-9.8564l0.4521-1.0791
		c2.752-6.623,0.8086-14.2266-4.835-18.9199c-4.3408-3.6104-6.1992-9.459-4.7363-14.8955
		c1.4707-5.4473,6.0166-9.5742,11.5811-10.5146c7.2383-1.2227,12.7402-6.8184,13.6914-13.9287l0.1533-1.168
		C468.1497,257.239,464.3011,250.4187,457.6605,247.364z M456.3285,262.9236l-0.1475,1.126
		c-0.3076,2.2988-2.1641,4.1221-4.6201,4.5371c-9.7861,1.6523-17.7812,8.9111-20.3691,18.4971
		c-2.5781,9.5762,0.6885,19.8662,8.3232,26.2158c1.9131,1.5908,2.6006,4.0996,1.7129,6.2354l-0.4365,1.042
		c-0.9004,2.1367-3.1816,3.415-5.6328,3.1719c-9.8965-0.958-19.5049,3.9707-24.4912,12.5508
		c-4.9863,8.5781-4.5078,19.3662,1.2178,27.4863c1.4336,2.0322,1.4473,4.6348,0.0322,6.4766l-0.6895,0.8926
		c-1.4219,1.8311-3.9355,2.4785-6.2646,1.6104c-9.3125-3.4805-19.876-1.1973-26.9053,5.8135
		c-7.0293,7.0117-9.3486,17.5635-5.9082,26.8838c0.8594,2.3281,0.2021,4.8418-1.6348,6.2549l-0.9062,0.6943
		c-1.8447,1.4043-4.4463,1.3838-6.4717-0.0566c-8.0928-5.7529-18.877-6.2695-27.4834-1.3164
		c-8.5957,4.958-13.5576,14.5479-12.6416,24.4316c0.2295,2.4736-1.0557,4.7344-3.1992,5.627l-1.0469,0.4326
		c-2.1504,0.8818-4.6553,0.1826-6.2412-1.7354c-6.3184-7.6553-16.5957-10.958-26.1855-8.417
		c-9.585,2.5479-16.8721,10.5146-18.5645,20.2949c-0.4238,2.4521-2.2529,4.3008-4.5508,4.6016l-1.1172,0.1436
		c-2.3008,0.2871-4.5391-1.0322-5.5684-3.29c-4.123-9.0479-13.2051-14.9062-23.1367-14.9238c-0.0156,0-0.0298,0-0.0459,0
		c-9.9224,0-19.0093,5.8271-23.1562,14.8555c-1.0337,2.249-3.2778,3.5635-5.5767,3.2666l-1.1147-0.1465
		c-2.2974-0.3057-4.1196-2.1602-4.5352-4.6133c-1.6587-9.7969-8.9229-17.7861-18.5015-20.3535
		c-9.5757-2.5801-19.8652,0.6885-26.2134,8.3252c-1.5928,1.915-4.104,2.6055-6.2427,1.7178l-1.0356-0.4336
		c-2.1362-0.8984-3.4121-3.1631-3.1748-5.6348c0.9502-9.8867-3.9849-19.4951-12.5732-24.4814
		c-8.5796-4.9756-19.3662-4.4941-27.4805,1.2334c-2.0322,1.4326-4.6338,1.4473-6.4756,0.0352l-0.8921-0.6885
		c-1.832-1.4209-2.481-3.9355-1.6143-6.2598c3.4741-9.3164,1.188-19.8779-5.8232-26.9062
		c-7.0098-7.0283-17.5625-9.3418-26.8867-5.8926c-2.3271,0.8623-4.8447,0.2051-6.2578-1.6289l-0.6968-0.9092
		c-1.4062-1.8447-1.3857-4.4453,0.0518-6.4707c5.7476-8.0986,6.2578-18.8867,1.2993-27.4834
		c-4.9575-8.5938-14.5493-13.5566-24.436-12.6328c-2.4775,0.2266-4.7349-1.0537-5.627-3.1914l-0.4341-1.0488
		c-0.8823-2.1475-0.1865-4.6553,1.7319-6.2402c7.6499-6.3242,10.9458-16.6045,8.396-26.1934
		c-2.5498-9.5801-10.5161-16.8604-20.2964-18.5479c-2.4526-0.4229-4.3032-2.252-4.6045-4.5488l-0.144-1.1201
		c-0.29-2.3018,1.0298-4.5391,3.2847-5.5684c9.0454-4.1289,14.8965-13.2178,14.9053-23.1499
		c0.0181-9.9351-5.814-19.0366-14.8569-23.187c-2.2515-1.0337-3.5664-3.2734-3.2725-5.5737l0.0918-0.7051
		c0.3169-2.4189,2.2173-4.3364,4.5186-4.5586c10.7402-1.0366,18.0322-7.813,20.5376-19.0845
		c2.4893-9.5239-0.79-19.7231-8.3848-26.0298c-1.917-1.5923-2.6074-4.104-1.7192-6.2495l0.4214-1.0103
		c0.8989-2.1406,3.0342-3.4648,5.1924-3.2212c0.9375,0.106,1.8901,0.1597,2.8315,0.1597c9.0757,0,17.5396-4.8745,22.0874-12.7202
		c4.978-8.5811,4.4902-19.3691-1.2432-27.4844c-1.4341-2.0298-1.4497-4.6309-0.0386-6.4717l0.8569-1.1118
		c1.3335-1.7188,3.688-2.311,5.8574-1.4761c2.9189,1.1245,5.9839,1.6943,9.1104,1.6943c6.8027,0,13.2036-2.6479,18.0264-7.4585
		c7.022-7.0132,9.3291-17.5669,5.8774-26.8872c-0.8623-2.3281-0.208-4.8438,1.626-6.2588l0.896-0.6875
		c1.8525-1.4141,4.4072-1.4258,6.3574-0.0269c4.2979,3.0815,9.5776,4.7788,14.8667,4.7788c4.4541,0,8.8599-1.1851,12.7398-3.4268
		c8.5918-4.9609,13.5444-14.5552,12.6172-24.4434c-0.2319-2.4722,1.0498-4.7334,3.1943-5.6294l0.7983-0.3315
		c2.2764-0.9409,4.8726-0.354,6.3149,1.4263c4.8618,6,12.0708,9.4458,19.7852,9.4546c2.2124,0,4.4282-0.291,6.5894-0.8662
		c9.5771-2.5581,16.853-10.5312,18.5366-20.314c0.4219-2.4531,2.25-4.3042,4.5513-4.6074l1.1138-0.1436
		c2.3022-0.29,4.5386,1.0264,5.5688,3.2788c4.1348,9.0439,13.2236,14.8931,23.1704,14.9023c9.9307,0,19.0234-5.8384,23.1641-14.874
		c1.0332-2.2529,3.2646-3.5674,5.5781-3.2764l1.1133,0.1445c2.2988,0.3052,4.126,2.1587,4.5459,4.6138
		c1.6729,9.7871,8.9414,17.7656,18.5049,20.3223c2.1641,0.584,4.3916,0.8799,6.624,0.8799c7.6982,0,14.9053-3.438,19.7725-9.4321
		c1.4434-1.7764,4.0371-2.3584,6.3076-1.418l0.793,0.3306c2.1377,0.896,3.417,3.1587,3.1826,5.6304
		c-0.9365,9.8872,4.0039,19.4878,12.5879,24.4585c3.8857,2.251,8.2998,3.4404,12.7656,3.4404
		c5.2803,0,10.5527-1.6909,14.8447-4.7612c1.9541-1.397,4.5107-1.3853,6.3613,0.0317l0.8838,0.6797
		c1.833,1.4175,2.4844,3.9321,1.6201,6.2583c-3.459,9.3135-1.1582,19.8721,5.8613,26.9004
		c4.8174,4.8179,11.2207,7.4712,18.0293,7.4712c3.127,0,6.1895-0.5679,9.1045-1.6875c2.1611-0.8311,4.5088-0.2388,5.8408,1.4814
		c0.292,0.376,0.582,0.7529,0.8691,1.1289c1.4092,1.8438,1.3906,4.4448-0.0449,6.4731c-5.6895,8.0342-6.2285,18.7041-1.3984,27.2544
		c0.0488,0.0942,0.0996,0.1875,0.1543,0.2788c4.7285,7.9995,13.6934,12.2939,24.584,11.7637
		c2.2666-0.1123,4.2842,1.166,5.1641,3.2466c0.2529,0.5981,0.5039,1.1982,0.7539,1.8057c0.8779,2.1289,0.1953,4.6304-1.6973,6.2236
		c-7.335,6.1704-10.583,16.104-8.4785,25.9248c2.1582,10.064,9.4912,16.603,20.6494,18.4121
		c2.2549,0.3657,3.9805,2.1763,4.293,4.5044l0.2012,1.5415c0.292,2.3013-1.0244,4.5396-3.2764,5.5703
		c-9.0449,4.1382-14.8887,13.2324-14.8887,23.1685v0.4448c-0.0273,9.9331,5.7979,19.0396,14.8418,23.1997
		C455.3119,258.3914,456.6234,260.6326,456.3285,262.9236z"/>
	<path fill="#FFB531" d="M233.7147,117.2136c-64.2471,0-116.5156,52.2686-116.5156,116.5156s52.2686,116.5156,116.5156,116.5156
		c64.2476,0,116.5161-52.2686,116.5161-116.5156S297.9622,117.2136,233.7147,117.2136z M233.7147,339.2449
		c-58.1816,0-105.5156-47.334-105.5156-105.5156s47.334-105.5156,105.5156-105.5156c58.1821,0,105.5161,47.334,105.5161,105.5156
		S291.8968,339.2449,233.7147,339.2449z"/>
</g>
</svg>
