<?xml version="1.0" encoding="utf-8"?>
<!-- Generator: Adobe Illustrator 21.0.0, SVG Export Plug-In . SVG Version: 6.00 Build 0)  -->
<svg version="1.1" id="Outlined_Circle_with_Gear_Border_Design"
	 xmlns="http://www.w3.org/2000/svg" xmlns:xlink="http://www.w3.org/1999/xlink" x="0px" y="0px" viewBox="0 0 453.4809 454.5938"
	 enable-background="new 0 0 453.4809 454.5938" xml:space="preserve">
<g id="change1">
	<path fill="#34495E" d="M451.5161,197.4932c-0.1895-2.7241-2.1943-4.9771-4.8789-5.481l-33.9961-6.3804
		c-1.1738-5.2651-2.5928-10.5356-4.2393-15.7456l26.6367-22.8145c2.0752-1.7778,2.6875-4.7339,1.4883-7.1899l-12.3389-25.2676
		c-1.2041-2.4658-3.9326-3.7998-6.6123-3.2417l-34.3037,7.1294c-3.5508-5.1436-7.3672-10.125-11.3994-14.8779l15.3955-31.0674
		c1.21-2.4419,0.6221-5.3936-1.4316-7.1851l-21.165-18.4653c-2.0625-1.7988-5.083-1.9751-7.3379-0.4268l-28.5605,19.5908
		c-4.5186-2.8608-9.2227-5.5713-14.0557-8.0977l2.5762-34.6343c0.2021-2.7207-1.4561-5.2349-4.0361-6.1206l-26.5352-9.1064
		c-2.584-0.8887-5.4473,0.0864-6.9541,2.3696l-19.1191,28.96c-6.0762-1.1143-12.2686-1.9351-18.4922-2.4517l-11.04-32.8979
		c-0.8711-2.5913-3.3848-4.27-6.1074-4.0762l-27.9941,1.9595c-2.7246,0.1909-4.9771,2.1978-5.479,4.8828l-6.3745,34.1001
		c-5.2759,1.1885-10.5186,2.6055-15.6621,4.2329L146.7354,18.502c-1.7793-2.0874-4.7505-2.7002-7.2114-1.4912l-25.2065,12.3887
		c-2.4551,1.2065-3.7827,3.9204-3.2295,6.5991l7.1099,34.3994c-5.1226,3.5552-10.085,7.3774-14.8218,11.416L72.395,66.3824
		c-2.4517-1.2202-5.4165-0.627-7.209,1.4409L46.7808,89.0577c-1.7847,2.0586-1.958,5.0615-0.4224,7.312l19.5581,28.6577
		c-2.9307,4.6426-5.6372,9.3628-8.0869,14.1025l-34.5244-2.5981c-2.7188-0.207-5.2427,1.4561-6.127,4.0405l-9.104,26.6108
		c-0.8838,2.582,0.0869,5.4351,2.3608,6.9429l28.9019,19.1631c-1.1104,6.1138-1.9287,12.3398-2.4448,18.5933L4.0855,222.9302
		c-2.5874,0.8711-4.2607,3.3789-4.0708,6.103l1.9536,28.0684c0.1895,2.7236,2.1938,4.9756,4.8774,5.4795l34.0034,6.3896
		c1.1987,5.3447,2.6167,10.6113,4.2363,15.7344l-26.647,22.8203c-2.0776,1.7803-2.689,4.7393-1.4858,7.1963l12.3672,25.2559
		c1.2056,2.4609,3.9233,3.7959,6.6064,3.2363l34.2939-7.1084c3.5645,5.1562,7.3784,10.1348,11.3887,14.8662l-15.4004,31.0781
		c-1.2114,2.4434-0.6216,5.3975,1.4351,7.1885l21.189,18.4561c2.0625,1.7959,5.0781,1.9697,7.335,0.4238l28.5571-19.5879
		c4.5254,2.8701,9.2261,5.5781,14.042,8.0918l-2.5796,34.6377c-0.2026,2.7207,1.4561,5.2354,4.0371,6.1211l26.5674,9.1104
		c2.5879,0.8887,5.4502-0.0889,6.9556-2.373l19.0869-28.9541c6.1313,1.1172,12.3276,1.9336,18.502,2.4395l11.0449,32.8994
		c0.8247,2.457,3.1245,4.0908,5.6851,4.0908c0.1396,0,0.2793-0.0049,0.4199-0.0146l27.9932-1.9521
		c2.7256-0.1895,4.9785-2.1973,5.4805-4.8828l6.375-34.1045c5.2432-1.1807,10.4834-2.5986,15.6553-4.2383l22.7549,26.6855
		c1.7803,2.0879,4.748,2.7021,7.209,1.4941l25.2021-12.3682c2.4561-1.2061,3.7852-3.9199,3.2324-6.5996l-7.1045-34.4219
		c5.1201-3.5498,10.0879-7.3691,14.834-11.4082l30.9629,15.4277c2.4482,1.2207,5.4131,0.6299,7.208-1.4375l18.4277-21.2383
		c1.7871-2.0605,1.96-5.0664,0.4209-7.3184l-19.5762-28.6396c2.9102-4.6162,5.6221-9.3379,8.1006-14.1064l34.541,2.5957
		c2.7139,0.1895,5.2441-1.459,6.1279-4.0459l9.0781-26.6104c0.8799-2.5811-0.0898-5.4307-2.3623-6.9375l-28.9023-19.1699
		c1.123-6.2002,1.9434-12.418,2.4512-18.5703l32.8037-11.0654c2.585-0.8721,4.2568-3.3789,4.0674-6.1016L451.5161,197.4932z
		 M408.9771,232.6377c-2.3145,0.7812-3.9238,2.8867-4.0713,5.3242c-0.4961,8.2207-1.6016,16.6133-3.2871,24.9444
		c-0.4844,2.3926,0.5303,4.8398,2.5645,6.1895l28.374,18.8193l-6.085,17.8369l-33.9053-2.5479
		c-2.4199-0.1709-4.749,1.1348-5.832,3.332c-3.3184,6.7373-7.1484,13.4111-11.3848,19.8359
		c-1.3408,2.0342-1.3184,4.6777,0.0566,6.6885l19.2119,28.1064l-12.3477,14.2305l-30.3896-15.1426
		c-2.1914-1.0918-4.8301-0.7422-6.6631,0.8867c-6.251,5.5586-12.957,10.7158-19.9316,15.3271
		c-2.0459,1.3535-3.0625,3.8154-2.5664,6.2178l6.9766,33.8008l-16.8457,8.2666l-22.3438-26.2031
		c-1.5957-1.873-4.1729-2.582-6.501-1.7861c-7.2354,2.4658-14.6445,4.4707-22.0225,5.96c-2.3975,0.4844-4.2607,2.375-4.71,4.7793
		l-6.2578,33.4746l-18.7363,1.3066l-10.8408-32.293c-0.7788-2.3193-2.8877-3.9346-5.3301-4.0801
		c-8.2915-0.4961-16.6602-1.5986-24.874-3.2783c-0.4014-0.082-0.8042-0.1221-1.2031-0.1221c-1.9897,0-3.8843,0.9922-5.0083,2.6973
		l-18.7368,28.4229l-17.7886-6.0996l2.5317-34.002c0.1812-2.4346-1.1309-4.7373-3.3188-5.8213
		c-6.8652-3.4023-13.5112-7.2344-19.7534-11.3877c-2.0381-1.3555-4.6973-1.3369-6.7178,0.0469l-28.0288,19.2256l-14.1948-12.3633
		l15.1172-30.5068c1.0845-2.1885,0.7344-4.8154-0.8848-6.6426c-5.5049-6.2129-10.6533-12.9336-15.3022-19.9736
		c-1.354-2.0498-3.8218-3.0664-6.2246-2.5684l-33.6719,6.9795l-8.2764-16.9014l26.1685-22.4102
		c1.8652-1.5977,2.5688-4.1699,1.7759-6.4941c-2.417-7.0869-4.4204-14.5205-5.9546-22.0928
		c-0.4849-2.3936-2.3721-4.2539-4.7725-4.7051l-33.3735-6.2715l-1.3101-18.8203l32.1978-10.8423
		c2.313-0.7788,3.9238-2.8813,4.0737-5.3179c0.5176-8.4219,1.623-16.8213,3.2852-24.9653c0.4888-2.396-0.5249-4.8491-2.5635-6.2002
		l-28.373-18.813l6.103-17.8389l33.9058,2.5518c2.4492,0.1895,4.7651-1.1431,5.8428-3.3516
		c3.251-6.6631,7.0684-13.3262,11.3457-19.8047c1.3428-2.0332,1.3223-4.6763-0.0508-6.6885L58.8765,93.4239l12.3311-14.2266
		l30.4102,15.147c2.1963,1.0938,4.8359,0.7412,6.6675-0.8916c6.2334-5.5552,12.9331-10.7153,19.9131-15.3379
		c2.0444-1.3535,3.0591-3.8154,2.563-6.2168l-6.981-33.7783l16.8516-8.2822l22.3501,26.2026
		c1.5957,1.8711,4.1699,2.5791,6.499,1.7861c7.1699-2.4414,14.5845-4.4463,22.0371-5.958c2.395-0.4858,4.2559-2.376,4.7051-4.7778
		l6.2563-33.4688l18.7373-1.3115l10.8345,32.2842c0.7773,2.3159,2.8809,3.9292,5.3193,4.0796
		c8.3945,0.5171,16.7588,1.6274,24.8604,3.3003c2.3994,0.4956,4.8672-0.521,6.2197-2.5703l18.7715-28.4336l17.7607,6.0952
		l-2.5283,33.9951c-0.1807,2.4316,1.1279,4.7314,3.3115,5.8174c6.9023,3.4321,13.5576,7.2686,19.7812,11.4019
		c2.0381,1.3545,4.6953,1.334,6.7129-0.0503l28.0264-19.2241l14.1758,12.3677l-15.1152,30.501
		c-1.085,2.189-0.7344,4.8169,0.8867,6.645c5.542,6.2495,10.6914,12.9707,15.3047,19.9766
		c1.3525,2.0552,3.8223,3.0728,6.2314,2.5747l33.6816-7l8.2559,16.9067l-26.1611,22.4062c-1.8633,1.5957-2.5664,4.165-1.7773,6.4878
		c2.4727,7.2769,4.4727,14.7095,5.9453,22.0923c0.4785,2.4023,2.3701,4.272,4.7773,4.7236l33.375,6.2637l1.3076,18.8262
		L408.9771,232.6377z"/>
	<path fill="#34495E" d="M226.4805,158.0108c-38.0464,0-68.9995,30.9531-68.9995,68.9995s30.9531,68.9995,68.9995,68.9995
		s68.9995-30.9531,68.9995-68.9995S264.5269,158.0108,226.4805,158.0108z M226.4805,284.0098
		c-31.4297,0-56.9995-25.5703-56.9995-56.9995c0-31.4297,25.5698-56.9995,56.9995-56.9995
		c31.4292,0,56.9995,25.5698,56.9995,56.9995C283.48,258.4395,257.9097,284.0098,226.4805,284.0098z"/>
</g>
</svg>
