<?xml version="1.0" encoding="utf-8"?>
<!-- Generator: Adobe Illustrator 21.0.0, SVG Export Plug-In . SVG Version: 6.00 Build 0)  -->
<svg version="1.1" id="Outlined_Circle_Gear_Border"
	 xmlns="http://www.w3.org/2000/svg" xmlns:xlink="http://www.w3.org/1999/xlink" x="0px" y="0px" viewBox="0 0 460.002 460.002"
	 enable-background="new 0 0 460.002 460.002" xml:space="preserve">
<g id="outlined-circle-gear-border-1">
	<path fill="#23B684" d="M119.1125,230.001c0,61.1445,49.7446,110.8887,110.8887,110.8887
		c61.1436,0,110.8877-49.7441,110.8877-110.8887c0-61.144-49.7441-110.8882-110.8877-110.8882
		C168.8572,119.1128,119.1125,168.8569,119.1125,230.001z M325.8889,230.001c0,52.873-43.0146,95.8887-95.8877,95.8887
		s-95.8887-43.0156-95.8887-95.8887s43.0156-95.8882,95.8887-95.8882S325.8889,177.1279,325.8889,230.001z"/>
	<path fill="#23B684" d="M149.1926,230.001c0,44.5576,36.2505,80.8086,80.8086,80.8086c44.5576,0,80.8076-36.251,80.8076-80.8086
		s-36.25-80.8081-80.8076-80.8081C185.4431,149.1929,149.1926,185.4434,149.1926,230.001z M300.8088,230.001
		c0,39.0439-31.7646,70.8086-70.8076,70.8086c-39.0439,0-70.8086-31.7646-70.8086-70.8086s31.7646-70.8081,70.8086-70.8081
		C269.0442,159.1929,300.8088,190.957,300.8088,230.001z"/>
	<path fill="#23B684" d="M50.7908,85.8474c4.7397,4.2633,10.7237,6.3923,16.6997,6.3923c6.3896,0,12.7798-2.4297,17.6597-7.3101
		c9.4458-9.4265,9.7763-24.5351,0.968-34.3569C73.1064,61.0203,61.2574,72.8519,50.7908,85.8474z"/>
	<path fill="#23B684" d="M115.1501,55.6997c4.2402,0,8.54-1.0801,12.48-3.3501c11.5584-6.6774,15.7643-21.1807,9.7976-32.9422
		c-15.3607,6.7621-29.8393,15.1534-43.2205,24.9586C98.9552,51.6486,106.9412,55.6997,115.1501,55.6997z"/>
	<path fill="#23B684" d="M170.5906,32.75c2.1299,0,4.2896-0.2803,6.4497-0.8501c12.8951-3.4413,20.7427-16.3484,18.0361-29.264
		c-16.734,2.5492-32.8701,6.9113-48.2139,12.8627C150.2632,25.9314,159.9844,32.75,170.5906,32.75z"/>
	<path fill="#23B684" d="M52.5105,127.3496c6.6889-11.5508,3.1076-26.221-7.9224-33.4468
		c-9.8291,13.3681-18.2454,27.836-25.0332,43.1879c3.6111,1.8387,7.4773,2.7204,11.3052,2.7292
		C39.4802,139.8198,47.8704,135.3496,52.5105,127.3496z"/>
	<path fill="#23B684" d="M31.8704,282.8496c-3.432-12.8972-16.3427-20.7454-29.2512-18.0433
		c2.5416,16.7427,6.8971,32.8877,12.8441,48.2402C27.9988,308.9691,35.3011,295.742,31.8704,282.8496z"/>
	<path fill="#23B684" d="M428.0706,176.9399c2.9902,11.1699,13.0996,18.5498,24.1396,18.5498c1.6999,0,3.4193-0.1845,5.1371-0.5431
		c-2.5596-16.7384-6.9333-32.8781-12.8969-48.2239C431.9136,150.8091,424.6292,164.0463,428.0706,176.9399z"/>
	<path fill="#23B684" d="M283.1799,31.96c-0.0098,0-0.0098,0-0.0098,0c2.1699,0.5801,4.3506,0.8501,6.4902,0.8501
		c10.5963,0,20.3076-6.7911,23.7167-17.2212c-15.3387-5.9689-31.472-10.347-48.2035-12.9146
		C262.456,15.5815,270.2846,28.4992,283.1799,31.96z"/>
	<path fill="#23B684" d="M407.5999,127.5298c4.6309,8.0103,13.0303,12.4902,21.6602,12.4902c3.8173,0,7.6811-0.8798,11.2834-2.7095
		c-6.7717-15.359-15.1727-29.8352-24.9874-43.2129C404.5131,101.3041,400.9203,115.9768,407.5999,127.5298z"/>
	<path fill="#23B684" d="M427.9602,283.5c-3.4794,12.8847,3.7859,26.1316,16.3133,30.2444
		c5.998-15.3354,10.3978-31.4708,12.9934-48.2038C444.368,262.8033,431.4305,270.6046,427.9602,283.5z"/>
	<path fill="#23B684" d="M392.6702,92.3999c5.9737,0,11.937-2.1273,16.6812-6.3785
		c-10.4539-13.0053-22.2911-24.8476-35.2917-35.3071c-8.8163,9.8129-8.5043,24.9208,0.9308,34.3654
		C379.8704,89.96,386.2708,92.3999,392.6702,92.3999z"/>
	<path fill="#23B684" d="M332.5608,52.4497c3.9395,2.29,8.25,3.3701,12.5,3.3701c8.2005,0,16.1771-4.0432,20.9323-11.3091
		c-13.3727-9.8208-27.8445-18.2285-43.1996-25.0074C316.8151,31.2562,321.0112,45.7618,332.5608,52.4497z"/>
	<path fill="#23B684" d="M25.0002,229.7798c0.0099-13.3564-10.448-24.2696-23.619-24.9904C0.4782,213.0706,0,221.4794,0,230.001
		c0,8.3505,0.4567,16.5935,1.3243,24.7137C14.5092,254.0273,24.9908,243.1359,25.0002,229.7798z"/>
	<path fill="#23B684" d="M230.1101,25c0.0103,0,0.0103,0,0.0103,0c13.3542,0,24.2576-10.4556,24.9622-23.6336
		C246.8433,0.4727,238.4778,0,230.001,0c-8.392,0-16.6753,0.462-24.8346,1.3381C205.8578,14.5121,216.7534,24.9901,230.1101,25z"/>
	<path fill="#23B684" d="M282.7405,428.1602c-12.8941,3.4218-20.7506,16.3259-18.0645,29.241
		c16.746-2.5323,32.895-6.8784,48.2518-12.8171C308.8589,432.0394,295.6415,424.7287,282.7405,428.1602z"/>
	<path fill="#23B684" d="M374.6907,375.2295c-9.4551,9.4164-9.7961,24.5234-0.9989,34.3545
		c13.0228-10.4336,24.8839-22.2526,35.364-35.2363C399.252,365.5203,384.1445,365.804,374.6907,375.2295z"/>
	<path fill="#23B684" d="M31.9905,176.7197c3.4501-12.8925-3.8239-26.1289-16.3487-30.2341
		c-5.9813,15.3409-10.3683,31.4788-12.9463,48.2148c1.7273,0.3641,3.4553,0.5496,5.1646,0.5496
		C18.8904,195.25,28.9905,187.8896,31.9905,176.7197z"/>
	<path fill="#23B684" d="M407.3801,332.8398c-6.7089,11.5436-3.1361,26.2258,7.8881,33.4592
		c9.8449-13.3596,18.2778-27.8206,25.0825-43.1669C428.6052,317.1323,414.0883,321.3094,407.3801,332.8398z"/>
	<path fill="#23B684" d="M458.6491,205.0375c-13.1722,0.7022-23.6489,11.6063-23.6489,24.9625c0,0.0498,0,0.0898,0,0.1396
		c0,0.1001,0,0.2002,0,0.3003c-0.0293,13.3543,10.4152,24.2849,23.5923,25.0192c0.9208-8.3609,1.4094-16.8519,1.4094-25.4581
		C460.002,221.5647,459.5344,213.2385,458.6491,205.0375z"/>
	<path fill="#23B684" d="M332.1799,407.7695c-11.5588,6.6595-15.7827,21.1539-9.8337,32.9249
		c15.371-6.7468,29.861-15.124,43.2542-24.9166C358.41,404.7186,343.7401,401.1007,332.1799,407.7695z"/>
	<path fill="#23B684" d="M229.6702,435c-13.3557-0.0198-24.278,10.437-25.0004,23.6071c8.3199,0.9116,16.7686,1.3949,25.3313,1.3949
		c8.3093,0,16.5125-0.4514,24.5939-1.3106C253.9136,445.5072,243.0178,435.0189,229.6702,435z"/>
	<path fill="#23B684" d="M52.2903,332.2803c-6.6685-11.5597-21.173-15.7746-32.935-9.8251
		c6.7555,15.3691,15.1414,29.8564,24.9426,43.2462C55.3501,358.5037,58.9603,343.8417,52.2903,332.2803z"/>
	<path fill="#23B684" d="M50.4923,373.784c10.4404,13.0176,22.2656,24.873,35.2552,35.3467
		c8.8218-9.8036,8.5299-24.9144-0.8972-34.3612C75.4235,365.3144,60.314,364.9834,50.4923,373.784z"/>
	<path fill="#23B684" d="M176.6101,427.9902c-12.883-3.4705-26.1289,3.7941-30.2344,16.3282
		c15.3364,5.9886,31.4712,10.3814,48.2036,12.968C197.3157,444.3868,189.5059,431.4501,176.6101,427.9902z"/>
	<path fill="#23B684" d="M127.2502,407.4395c-11.5413-6.6983-26.2202-3.1274-33.4467,7.9022
		c13.363,9.8364,27.8265,18.2604,43.1745,25.0563C142.9679,428.6537,138.8,414.1379,127.2502,407.4395z"/>
</g>
</svg>
