<?xml version="1.0" encoding="utf-8"?>
<!-- Generator: Adobe Illustrator 21.0.0, SVG Export Plug-In . SVG Version: 6.00 Build 0)  -->
<svg version="1.1" id="Cutout_Circle_with_Gear_Shaped_Border_Design10"
	 xmlns="http://www.w3.org/2000/svg" xmlns:xlink="http://www.w3.org/1999/xlink" x="0px" y="0px" viewBox="0 0 467.4328 468.5595"
	 enable-background="new 0 0 467.4328 468.5595" xml:space="preserve">
<g id="change1">
	<path fill="#F31D2F" d="M460.6531,242.4218l6.7797-10.1683l-1.9763-28.4538l-8.1315-9.1355l-31.9384-5.994
		c-0.8945-3.7704-1.909-7.5378-3.0374-11.2791l25.0449-21.4508l2.4807-11.9831l-12.5067-25.6109l-11.0206-5.4028l-32.2431,6.7009
		c-2.7411-3.8598-5.6269-7.6257-8.6364-11.2706l14.4689-29.1976l-2.3861-11.9756l-21.4525-18.7159l-12.2306-0.7111l-26.8339,18.4062
		c-3.2683-2.0099-6.6237-3.9424-10.0474-5.787l2.4211-32.5535l-6.7266-10.2003l-26.896-9.2298l-11.5912,3.9492l-17.9611,27.2067
		c-4.6178-0.7825-9.2927-1.402-13.9904-1.8538l-10.376-30.9174L231.6876,0l-28.3741,1.9863l-9.1314,8.138L188.1915,42.17
		c-3.7583,0.8984-7.4942,1.9079-11.1866,3.0227l-21.3995-25.0889l-12.0193-2.485L118.0369,30.176l-5.3821,10.9985l6.6857,32.3499
		c-3.8426,2.7437-7.5909,5.6306-11.2196,8.6412l-29.1008-14.495l-12.015,2.4012L48.3494,91.5948l-0.7032,12.1868l18.3838,26.9373
		c-2.047,3.337-3.9812,6.7085-5.7913,10.0948l-32.4284-2.4404l-10.212,6.7349l-9.2277,26.9728l3.9355,11.5713l27.1585,18.0071
		c-0.782,4.6553-1.4012,9.3667-1.8529,14.0995L6.7844,226.1401L0,236.3115l1.98,28.4501l8.1293,9.1337l31.9482,6.0029
		c0.9056,3.8071,1.9183,7.5704,3.0321,11.2675l-25.0552,21.4573l-2.4764,11.9932l12.5355,25.5991l11.0107,5.394l32.2357-6.6821
		c2.7488,3.8672,5.6308,7.6292,8.626,11.2599l-14.4743,29.2084l2.3919,11.9807l21.4767,18.7077l12.2247,0.7061l26.8293-18.403
		c3.2698,2.0132,6.6218,3.9446,10.0344,5.7815l-2.4242,32.5548l6.7288,10.2019l26.9285,9.2339l11.5927-3.9554l17.9307-27.2001
		c4.6484,0.7836,9.326,1.4004,13.9987,1.8457l10.3788,30.917l10.1755,6.7933l28.3738-1.978l9.1343-8.1385l5.9904-32.0507
		c3.7399-0.8945,7.4737-1.9052,11.1801-3.0266l21.3893,25.085l12.0152,2.4888l25.5449-12.5371l5.3877-10.9987l-6.682-32.3708
		c3.8419-2.7396,7.5947-5.6257,11.2305-8.637l29.0845,14.4922l12.013-2.3969l18.6777-21.5267l0.7025-12.1967l-18.4005-26.9186
		c2.0374-3.3234,3.9742-6.6956,5.7998-10.0977l32.4501,2.4386l10.2136-6.743l9.202-26.9724l-3.9372-11.5626l-27.1608-18.014
		c0.7897-4.6998,1.4111-9.4044,1.8594-14.0778L460.6531,242.4218z M449.6006,293.2459l-9.202,26.9724l-39.0571-2.9351
		c-3.5255,7.1555-7.504,14.0707-11.9184,20.7661l22.1212,32.3618l-18.6777,21.5267l-35.0208-17.4501
		c-6.5027,5.7819-13.4781,11.1635-20.8898,16.0646l8.0242,38.8732l-25.5449,12.537l-25.7131-30.1558
		c-7.6376,2.6028-15.3422,4.685-23.0803,6.2468l-7.2056,38.5524l-28.3738,1.978l-12.485-37.1911
		c-8.7776-0.5244-17.4924-1.6815-26.0678-3.4357l-21.5844,32.7427l-26.9284-9.2339l2.9149-39.1449
		c-7.1255-3.5319-14.0408-7.5039-20.6898-11.9286l-32.2937,22.1511l-21.4767-18.7076l17.4062-35.1249
		c-5.7761-6.5187-11.1278-13.4982-16.033-20.9259l-38.7505,8.0325l-12.5355-25.5991l30.1017-25.7792
		c-2.6128-7.6602-4.667-15.3839-6.2403-23.1483l-38.4446-7.2235l-1.98-28.4501l37.087-12.4891
		c0.5425-8.8251,1.6857-17.5465,3.4413-26.1473L17.832,175.318l9.2278-26.9727l39.0551,2.9391
		c3.4935-7.1595,7.486-14.0866,11.8905-20.7579L55.9059,98.1447l18.6557-21.5229l35.0429,17.4547
		c6.4929-5.7864,13.4601-11.1681,20.8723-16.077l-8.0289-38.8489l25.5491-12.5573l25.7213,30.1559
		c7.6298-2.5989,15.3298-4.669,23.088-6.2428l7.2055-38.5446l28.3741-1.9863l12.4789,37.1833
		c8.7713,0.5404,17.4825,1.6898,26.0534,3.4595l21.621-32.7505l26.896,9.2299l-2.9108,39.1371
		c7.1174,3.5397,14.0449,7.5121,20.7057,11.9368l32.2941-22.1516l21.4525,18.7159l-17.4022,35.1168
		c5.7839,6.5231,11.1475,13.5064,16.0408,20.9382l38.7668-8.0566l12.5068,25.6109l-30.0894,25.7713
		c2.6045,7.6639,4.683,15.3923,6.2325,23.1603l38.4482,7.2156l1.9764,28.4539l-37.0833,12.5092
		c-0.5306,8.7936-1.7037,17.5305-3.4415,26.1235L449.6006,293.2459z"/>
	<path fill="#F31D2F" d="M233.4553,151.9926c-45.2153,0-82.0005,36.7852-82.0005,82.0005s36.7852,82.0005,82.0005,82.0005
		s82.0005-36.7852,82.0005-82.0005S278.6707,151.9926,233.4553,151.9926z M233.4553,305.9936
		c-39.7012,0-72.0005-32.2988-72.0005-72.0005c0-39.7012,32.2993-72.0005,72.0005-72.0005
		c39.7017,0,72.0005,32.2993,72.0005,72.0005C305.4558,273.6948,273.157,305.9936,233.4553,305.9936z"/>
</g>
</svg>
