<?xml version="1.0" encoding="utf-8"?>
<!-- Generator: Adobe Illustrator 21.0.0, SVG Export Plug-In . SVG Version: 6.00 Build 0)  -->
<svg version="1.1" id="Outlined-Circle-line1" xmlns="http://www.w3.org/2000/svg" xmlns:xlink="http://www.w3.org/1999/xlink"
	 x="0px" y="0px" viewBox="0 0 497.0371 497.0371" enable-background="new 0 0 497.0371 497.0371" xml:space="preserve">
<g id="change1">
	<path fill="#00D717" d="M424.2476,72.7895C377.309,25.8503,314.9,0,248.5186,0c-66.382,0-128.7905,25.8503-175.7291,72.7895
		C25.8503,119.7281,0,182.1366,0,248.5186C0,314.9,25.8503,377.309,72.7895,424.2476
		c46.9386,46.9387,109.3471,72.7895,175.7291,72.7895c66.3815,0,128.7905-25.8508,175.7291-72.7895
		c46.9387-46.9386,72.7895-109.3476,72.7895-175.7291C497.0371,182.1366,471.1863,119.7281,424.2476,72.7895z M413.7756,413.7756
		c-44.1425,44.1415-102.8316,68.4516-165.257,68.4516c-62.4259,0-121.1155-24.3101-165.257-68.4516
		C39.12,369.6341,14.8099,310.944,14.8099,248.5186c0-62.4259,24.3101-121.1155,68.4516-165.257
		C127.403,39.12,186.0927,14.8099,248.5186,14.8099c62.4254,0,121.1155,24.3101,165.257,68.4516
		c44.1415,44.1415,68.4516,102.8311,68.4516,165.257C482.2272,310.944,457.9171,369.6331,413.7756,413.7756z"/>
	<path fill="#00D717" d="M248.5186,51.6381c-108.5604,0-196.8805,88.3201-196.8805,196.8805
		c0,108.5599,88.3201,196.8805,196.8805,196.8805c108.5599,0,196.8805-88.3206,196.8805-196.8805
		C445.399,139.9582,357.0784,51.6381,248.5186,51.6381z M248.5186,66.448c74.0665,0,137.9371,44.4596,166.3469,108.0891H82.1716
		C110.5814,110.9076,174.452,66.448,248.5186,66.448z M248.5186,430.5891c-73.2731,0-136.5658-43.5134-165.4202-106.052h330.8403
		C385.0844,387.0757,321.7917,430.5891,248.5186,430.5891z M76.9779,309.5371C70.1688,290.452,66.448,269.913,66.448,248.5186
		c0-20.6344,3.4569-40.4751,9.811-58.9814h344.5192c6.3541,18.5063,9.811,38.347,9.811,58.9814
		c0,21.3945-3.7208,41.9335-10.5299,61.0186H76.9779z"/>
</g>
</svg>
