<?xml version="1.0" encoding="utf-8"?>
<!-- Generator: Adobe Illustrator 21.0.0, SVG Export Plug-In . SVG Version: 6.00 Build 0)  -->
<svg version="1.1" id="Filled_Circle_with_Multiple_Division_Design12"
	 xmlns="http://www.w3.org/2000/svg" xmlns:xlink="http://www.w3.org/1999/xlink" x="0px" y="0px" viewBox="0 0 493 493"
	 enable-background="new 0 0 493 493" xml:space="preserve">
<g id="change1">
	<path id="filled-circle-with-multiple-division-design12-filled-circle-with-multiple-division-design-1_1_" fill="#1ABC9C" d="
		M420.8018,72.1982C374.2441,25.6406,312.3428,0,246.5,0S118.7559,25.6406,72.1982,72.1982S0,180.6572,0,246.5
		s25.6406,127.7441,72.1982,174.3018S180.6572,493,246.5,493s127.7441-25.6406,174.3018-72.1982
		C467.3596,374.2442,493,312.3428,493,246.5S467.3594,118.7559,420.8018,72.1982z M477.8669,239h-33.9316
		c-1.8323-48.8315-21.4642-93.181-52.5883-126.7401l24.0575-24.0579C454.1129,129.4385,476.0793,182.4703,477.8669,239z
		 M254,15.1331c56.5295,1.7876,109.561,23.7537,150.7975,62.462L380.74,101.653C347.1808,70.5288,302.8313,50.897,254,49.0647
		V15.1331z M239,15.1331v33.9316c-48.8316,1.8323-93.1812,21.4642-126.7404,52.5884L88.202,77.5956
		C129.4385,38.8871,182.4703,16.9207,239,15.1331z M77.5956,88.202l24.0576,24.0576C70.5289,145.8188,50.897,190.1684,49.0647,239
		H15.1331C16.9207,182.4703,38.8871,129.4385,77.5956,88.202z M15.1331,254h33.9316c1.8323,48.8312,21.4641,93.1808,52.5882,126.74
		l-24.057,24.0583C38.8872,363.5617,16.9207,310.5298,15.1331,254z M239,477.8669
		c-56.5295-1.7876-109.5612-23.7538-150.7977-62.4621l24.0569-24.0583C145.8186,422.4709,190.1683,442.103,239,443.9353V477.8669z
		 M63.9082,246.5c0-100.6816,81.9102-182.5918,182.5918-182.5918S429.0918,145.8184,429.0918,246.5
		S347.1816,429.0918,246.5,429.0918S63.9082,347.1816,63.9082,246.5z M254,477.8669v-33.9316
		c48.8311-1.8323,93.1805-21.4641,126.7397-52.5881l24.0577,24.0577C363.561,454.1132,310.5294,476.0793,254,477.8669z
		 M415.4049,404.7975l-24.0577-24.0577c31.124-33.5592,50.7559-77.9086,52.5881-126.7397h33.9316
		C476.0793,310.5294,454.1132,363.561,415.4049,404.7975z"/>
</g>
</svg>
