<?xml version="1.0" encoding="utf-8"?>
<!-- Generator: Adobe Illustrator 21.0.0, SVG Export Plug-In . SVG Version: 6.00 Build 0)  -->
<svg version="1.1" id="Cutout_Circle_Shape3" xmlns="http://www.w3.org/2000/svg" xmlns:xlink="http://www.w3.org/1999/xlink"
	 x="0px" y="0px" viewBox="0 0 487.9218 487.9218" enable-background="new 0 0 487.9218 487.9218" xml:space="preserve">
<g id="change1">
	<path fill="#0F595E" d="M416.4678,71.4546C370.3896,25.3765,309.125,0,243.9609,0C178.7964,0,117.5327,25.3765,71.4546,71.4546
		S0,178.7964,0,243.9609c0,65.1641,25.3765,126.4287,71.4546,172.5068s107.3418,71.4541,172.5063,71.4541
		c65.1641,0,126.4287-25.376,172.5068-71.4541s71.4541-107.3428,71.4541-172.5068
		C487.9219,178.7964,462.5459,117.5327,416.4678,71.4546z M405.8604,405.8604c-43.2451,43.2451-100.7422,67.0615-161.8994,67.0615
		c-61.1577,0-118.6548-23.8164-161.8999-67.0615S15,305.1182,15,243.9609c0-61.1577,23.8159-118.6548,67.061-161.8999
		S182.8032,15,243.9609,15c61.1572,0,118.6543,23.8159,161.8994,67.061s67.0615,100.7422,67.0615,161.8999
		C472.9219,305.1182,449.1055,362.6152,405.8604,405.8604z"/>
	<path fill="#0F595E" d="M160.23,60.4023l-6.2344-13.6436c-1.5684,0.7168-3.127,1.4517-4.6748,2.2046l6.5576,13.4902
		C157.3198,61.7534,158.77,61.0693,160.23,60.4023z"/>
	<path fill="#0F595E" d="M147.3369,66.8628l-7.1953-13.1621c-1.5122,0.8267-3.0137,1.6714-4.5034,2.5327l7.5088,12.9854
		C144.5332,68.417,145.9302,67.6318,147.3369,66.8628z"/>
	<path fill="#0F595E" d="M111.9009,91.4956l-9.8252-11.334c-1.2988,1.126-2.584,2.2671-3.8555,3.4229l10.0889,11.0996
		C109.4937,93.6074,110.6909,92.5444,111.9009,91.4956z"/>
	<path fill="#0F595E" d="M134.9463,74.2251l-8.1191-12.6123c-1.4473,0.9316-2.8823,1.8799-4.3057,2.8438l8.4131,12.4189
		C132.2603,75.9771,133.5977,75.0933,134.9463,74.2251z"/>
	<path fill="#0F595E" d="M123.1143,82.4517l-8.9961-12.0029c-1.3765,1.0312-2.7402,2.0791-4.0913,3.1426l9.2773,11.7871
		C120.5625,84.3882,121.8325,83.4126,123.1143,82.4517z"/>
	<path fill="#0F595E" d="M42.7778,229.355l-14.9619-1.0703c-0.1221,1.71-0.2251,3.4253-0.3071,5.146l14.9824,0.7178
		C42.5684,232.5459,42.6636,230.9478,42.7778,229.355z"/>
	<path fill="#0F595E" d="M229.6738,42.7554L228.626,27.792c-1.7188,0.1206-3.4312,0.2607-5.1387,0.4209l1.4023,14.9346
		C226.479,42.998,228.0742,42.8677,229.6738,42.7554z"/>
	<path fill="#0F595E" d="M201.1865,46.8008l-3.1631-14.6631c-1.6846,0.3638-3.3613,0.7466-5.0312,1.1499l3.5186,14.5811
		C198.0625,47.4946,199.6211,47.1382,201.1865,46.8008z"/>
	<path fill="#0F595E" d="M187.2378,50.3413l-4.209-14.3975c-1.6533,0.4834-3.2979,0.9858-4.9346,1.5078l4.5557,14.291
		C184.1714,51.2578,185.7007,50.7905,187.2378,50.3413z"/>
	<path fill="#0F595E" d="M173.5576,54.8833l-5.2354-14.0566c-1.6177,0.6025-3.2266,1.2236-4.8262,1.8638l5.5713,13.9268
		C170.5557,56.022,172.0522,55.4438,173.5576,54.8833z"/>
	<path fill="#0F595E" d="M44.3135,215.042l-14.8477-2.1318c-0.2437,1.6987-0.4683,3.4033-0.6719,5.1147l14.8945,1.7744
		C43.8784,218.207,44.0869,216.6216,44.3135,215.042z"/>
	<path fill="#0F595E" d="M101.3613,101.3091L90.7568,90.7007c-1.2148,1.2144-2.4155,2.4434-3.6016,3.6855l10.8511,10.3564
		C99.1108,103.5854,100.2295,102.4404,101.3613,101.3091z"/>
	<path fill="#0F595E" d="M54.9854,173.2837l-14.0479-5.2588c-0.6025,1.6094-1.186,3.2275-1.7505,4.855l14.1719,4.915
		C53.8833,176.2827,54.4258,174.7788,54.9854,173.2837z"/>
	<path fill="#0F595E" d="M244.0405,42.2573l0.0298-7.5v-7.5l-0.1094,0.0005c-1.6846,0-3.3647,0.019-5.04,0.0576l0.3438,14.9961
		C240.8257,42.2759,242.3916,42.2578,244.0405,42.2573z"/>
	<path fill="#0F595E" d="M46.8672,200.877L32.21,197.6895c-0.3647,1.6768-0.7104,3.3608-1.0361,5.0522l14.7295,2.8369
		C46.2065,204.0044,46.5278,202.4375,46.8672,200.877z"/>
	<path fill="#0F595E" d="M60.4937,160.0293l-13.6357-6.25c-0.7134,1.5566-1.4087,3.123-2.0859,4.6997l13.7822,5.9199
		C59.1836,162.9336,59.8301,161.4766,60.4937,160.0293z"/>
	<path fill="#0F595E" d="M50.4297,186.9346L36.04,182.7002c-0.4849,1.6479-0.9507,3.3042-1.3965,4.9668l14.4883,3.8848
		C49.5464,190.0054,49.979,188.4663,50.4297,186.9346z"/>
	<path fill="#0F595E" d="M91.5474,111.8413l-11.3311-9.8291c-1.1245,1.2969-2.2344,2.6064-3.3286,3.9292l11.5576,9.5615
		C89.4653,114.27,90.499,113.0498,91.5474,111.8413z"/>
	<path fill="#0F595E" d="M82.5088,123.0381l-11.999-9.001c-1.0298,1.3726-2.0435,2.7573-3.0415,4.1553l12.209,8.7148
		C80.606,125.606,81.5503,124.3159,82.5088,123.0381z"/>
	<path fill="#0F595E" d="M66.9404,147.1938l-13.1543-7.208c-0.8237,1.5034-1.6299,3.0171-2.4185,4.542l13.3242,6.8896
		C65.4248,150,66.1743,148.5918,66.9404,147.1938z"/>
	<path fill="#0F595E" d="M74.292,134.8423l-12.6074-8.127c-0.9302,1.4424-1.8428,2.8965-2.7383,4.3623l12.8008,7.8193
		C72.5791,137.5347,73.4282,136.1831,74.292,134.8423z"/>
	<path fill="#0F595E" d="M215.3555,44.27L213.25,29.4185c-1.7061,0.2417-3.4058,0.5039-5.0986,0.7861l2.4629,14.7959
		C212.189,44.7388,213.7695,44.4946,215.3555,44.27z"/>
	<path fill="#0F595E" d="M421.0098,147.2461l13.1562-7.2041c-0.8271-1.5122-1.6729-3.0137-2.5361-4.5034l-12.9785,7.5205
		C419.4541,144.4443,420.2393,145.8403,421.0098,147.2461z"/>
	<path fill="#0F595E" d="M427.4756,160.1328l13.6406-6.2383c-0.7178-1.5708-1.4541-3.1313-2.21-4.6807l-13.4824,6.5752
		C426.125,157.2271,426.8086,158.6753,427.4756,160.1328z"/>
	<path fill="#0F595E" d="M413.6396,134.8574l12.6094-8.124c-0.9326-1.4478-1.8828-2.8838-2.8496-4.3071l-12.4102,8.4238
		C411.8877,132.1748,412.7715,133.5103,413.6396,134.8574z"/>
	<path fill="#0F595E" d="M433.0029,173.4609l14.0527-5.2471c-0.6045-1.6182-1.2266-3.2275-1.8682-4.8267l-13.9219,5.5859
		C431.8623,170.46,432.4414,171.9561,433.0029,173.4609z"/>
	<path fill="#0F595E" d="M405.4082,123.0312l11.998-9.0039c-1.0322-1.3755-2.0811-2.7383-3.1445-4.0884l-11.7832,9.2822
		C403.4697,120.4795,404.4463,121.7495,405.4082,123.0312z"/>
	<path fill="#0F595E" d="M437.5518,187.1396l14.3926-4.2217c-0.4844-1.6533-0.9873-3.2983-1.5107-4.9341l-14.2871,4.5703
		C436.6328,184.0747,437.1006,185.6035,437.5518,187.1396z"/>
	<path fill="#0F595E" d="M396.3564,111.8208l11.3301-9.8301c-1.1279-1.2998-2.2705-2.5859-3.4297-3.8584l-11.0879,10.1035
		C394.2461,109.4175,395.3086,110.6128,396.3564,111.8208z"/>
	<path fill="#0F595E" d="M445.1592,229.5688l14.9629-1.0566c-0.1211-1.7163-0.2627-3.4268-0.4219-5.1318l-14.9355,1.3979
		C444.9141,226.3696,445.0459,227.9668,445.1592,229.5688z"/>
	<path fill="#0F595E" d="M443.6377,215.2515l14.8496-2.1143c-0.2422-1.7051-0.5059-3.4043-0.7881-5.0967l-14.7949,2.4678
		C443.167,212.0835,443.4111,213.6646,443.6377,215.2515z"/>
	<path fill="#0F595E" d="M441.0996,201.0854l14.6602-3.1729c-0.3643-1.6836-0.748-3.3604-1.1514-5.0298l-14.5801,3.5264
		C440.4043,197.9614,440.7607,199.52,441.0996,201.0854z"/>
	<path fill="#0F595E" d="M290.1221,32.186c-1.6758-0.3638-3.3594-0.708-5.0488-1.0327l-2.834,14.7295
		c1.5742,0.3032,3.1426,0.624,4.7051,0.9624L290.1221,32.186z"/>
	<path fill="#0F595E" d="M305.1143,36.0078c-1.6475-0.4839-3.3037-0.9482-4.9668-1.3936l-3.8789,14.4902
		c1.5479,0.4141,3.0869,0.8457,4.6191,1.2959L305.1143,36.0078z"/>
	<path fill="#0F595E" d="M319.791,40.8975c-1.6094-0.6011-3.2275-1.1836-4.8545-1.7471l-4.9102,14.1738
		c1.5137,0.5239,3.0186,1.0659,4.5146,1.625L319.791,40.8975z"/>
	<path fill="#0F595E" d="M274.9004,29.4502c-1.6982-0.2427-3.4023-0.4653-5.1133-0.6689l-1.7705,14.8955
		c1.5928,0.189,3.1797,0.397,4.7607,0.6226L274.9004,29.4502z"/>
	<path fill="#0F595E" d="M259.5254,27.8086c-1.71-0.1216-3.4258-0.2231-5.1465-0.3047l-0.709,14.9834
		c1.6035,0.0757,3.2002,0.1704,4.793,0.2832L259.5254,27.8086z"/>
	<path fill="#0F595E" d="M334.0391,46.8101c-1.5566-0.7119-3.123-1.4067-4.6992-2.083l-5.9141,13.7847
		c1.4668,0.6299,2.9238,1.2759,4.373,1.939L334.0391,46.8101z"/>
	<path fill="#0F595E" d="M361.1123,61.623c-1.4424-0.9282-2.8965-1.8398-4.3633-2.7354l-7.8145,12.8032
		c1.3633,0.8325,2.7158,1.6807,4.0566,2.5444L361.1123,61.623z"/>
	<path fill="#0F595E" d="M347.8359,53.7314c-1.5039-0.8228-3.0186-1.6284-4.5439-2.416l-6.8809,13.3291
		c1.418,0.7319,2.8271,1.481,4.2256,2.2461L347.8359,53.7314z"/>
	<path fill="#0F595E" d="M376.002,91.4785l9.8242-11.335c-1.2979-1.1255-2.6094-2.2354-3.9355-3.3296l-9.5488,11.5674
		C373.5742,89.3994,374.7939,90.4316,376.002,91.4785z"/>
	<path fill="#0F595E" d="M364.8008,82.4463l8.9941-12.0039c-1.373-1.0293-2.7588-2.042-4.1562-3.0386l-8.709,12.2129
		C362.2314,80.5449,363.5215,81.4883,364.8008,82.4463z"/>
	<path fill="#0F595E" d="M386.5391,101.2876l10.6016-10.6113c-1.2158-1.2148-2.4453-2.4146-3.6895-3.6001l-10.3477,10.8594
		C384.2617,99.0391,385.4072,100.1567,386.5391,101.2876z"/>
	<path fill="#0F595E" d="M413.5166,353.2539l12.5996,8.1406c0.9297-1.4395,1.8428-2.8906,2.7402-4.3535l-12.7852-7.8457
		C415.2344,350.5586,414.3838,351.9121,413.5166,353.2539z"/>
	<path fill="#0F595E" d="M340.3994,421.1611l7.1855,13.166c1.5117-0.8252,3.0137-1.667,4.5039-2.5264l-7.4941-12.9941
		C343.2061,419.6074,341.8076,420.3926,340.3994,421.1611z"/>
	<path fill="#0F595E" d="M327.502,427.6074l6.2217,13.6484c1.5693-0.7148,3.1299-1.4492,4.6787-2.2012l-6.5488-13.4941
		C330.4121,426.2598,328.9609,426.9414,327.502,427.6074z"/>
	<path fill="#0F595E" d="M352.7998,413.8105l8.1074,12.6191c1.4482-0.9297,2.8857-1.877,4.3105-2.8398l-8.4043-12.4258
		C355.4863,412.0625,354.1484,412.9434,352.7998,413.8105z"/>
	<path fill="#0F595E" d="M375.8652,396.5625l9.8105,11.3457c1.3018-1.125,2.5889-2.2656,3.8633-3.4229l-10.082-11.1055
		C378.2725,394.4551,377.0752,395.5156,375.8652,396.5625z"/>
	<path fill="#0F595E" d="M364.6387,405.5967l8.9863,12.0098c1.377-1.0303,2.7412-2.0762,4.0928-3.1377l-9.2637-11.7969
		C367.1943,403.6611,365.9219,404.6357,364.6387,405.5967z"/>
	<path fill="#0F595E" d="M286.5312,441.166l3.1465,14.666c1.6846-0.3613,3.3613-0.7432,5.0312-1.1436l-3.5-14.5859
		C289.6562,440.4756,288.0967,440.8301,286.5312,441.166z"/>
	<path fill="#0F595E" d="M258.04,445.1807l1.0312,14.9648c1.7178-0.1182,3.4297-0.2568,5.1367-0.415l-1.3809-14.9355
		C261.2373,444.9414,259.6406,445.0703,258.04,445.1807z"/>
	<path fill="#0F595E" d="M272.3604,443.6816l2.0879,14.8535c1.707-0.2393,3.4082-0.5,5.1025-0.7803l-2.4512-14.7988
		C275.5264,443.2168,273.9463,443.459,272.3604,443.6816z"/>
	<path fill="#0F595E" d="M300.4824,437.6406l4.1953,14.4014c1.6543-0.4824,3.2998-0.9834,4.9375-1.5039l-4.5449-14.2949
		C303.5498,436.7266,302.0195,437.1924,300.4824,437.6406z"/>
	<path fill="#0F595E" d="M314.1689,433.1113l5.2207,14.0625c1.6191-0.6016,3.2295-1.2217,4.8301-1.8604l-5.5605-13.9316
		C317.1719,431.9756,315.6748,432.5527,314.1689,433.1113z"/>
	<path fill="#0F595E" d="M386.4131,386.7598l10.5938,10.6191c1.2178-1.2139,2.4209-2.4434,3.6084-3.6855l-10.8467-10.3613
		C388.6641,384.4883,387.5449,385.6299,386.4131,386.7598z"/>
	<path fill="#0F595E" d="M420.8799,340.9121l13.1504,7.2168c0.8232-1.501,1.6299-3.0107,2.4199-4.5332l-13.3125-6.9121
		C422.4004,338.1025,421.6484,339.5127,420.8799,340.9121z"/>
	<path fill="#0F595E" d="M441.0088,287.249l14.6543,3.2012c0.3662-1.6758,0.7129-3.3584,1.041-5.0498l-14.7266-2.8535
		C441.6729,284.1211,441.3496,285.6885,441.0088,287.249z"/>
	<path fill="#0F595E" d="M443.5781,273.084l14.8457,2.1504c0.2451-1.6982,0.4707-3.4014,0.6777-5.1133l-14.8926-1.7949
		C444.0176,269.9189,443.8076,271.5049,443.5781,273.084z"/>
	<path fill="#0F595E" d="M445.1289,258.7734l14.9609,1.0879c0.124-1.7109,0.2285-3.4268,0.3125-5.1475l-14.9824-0.7305
		C445.3418,255.585,445.2451,257.1816,445.1289,258.7734z"/>
	<path fill="#0F595E" d="M437.4336,301.1855l14.3848,4.252c0.4863-1.6465,0.9541-3.3018,1.4023-4.9658l-14.4824-3.9023
		C438.3213,298.1162,437.8867,299.6543,437.4336,301.1855z"/>
	<path fill="#0F595E" d="M460.6035,238.8066l-14.9961,0.3535c0.0381,1.5962,0.0566,3.1963,0.0566,4.8008v0.4336h15v-0.4336
		C460.6641,242.2383,460.6436,240.52,460.6035,238.8066z"/>
	<path fill="#0F595E" d="M405.29,365.0479l11.9873,9.0176c1.0312-1.3721,2.0459-2.7559,3.0459-4.1514l-12.1973-8.7324
		C407.1963,362.4814,406.25,363.7715,405.29,365.0479z"/>
	<path fill="#0F595E" d="M244.0283,445.6641l-0.3931-0.001v15l0.3257,0.001c1.6104,0,3.2158-0.0176,4.8184-0.0527l-0.332-14.9961
		C246.9561,445.6484,245.46,445.6641,244.0283,445.6641z"/>
	<path fill="#0F595E" d="M396.2393,376.2363l11.3184,9.8438c1.127-1.2959,2.2383-2.6064,3.335-3.9287l-11.5488-9.5723
		C398.3232,373.8115,397.2881,375.0303,396.2393,376.2363z"/>
	<path fill="#0F595E" d="M432.8623,314.8359l14.0449,5.2676c0.6025-1.6064,1.1865-3.2227,1.7529-4.8477l-14.1641-4.9355
		C433.9688,311.834,433.4238,313.3389,432.8623,314.8359z"/>
	<path fill="#0F595E" d="M427.3408,328.0811l13.6289,6.2656c0.7158-1.5566,1.4131-3.1221,2.0918-4.6973l-13.7754-5.9375
		C428.6543,325.1777,428.0059,326.6338,427.3408,328.0811z"/>
	<path fill="#0F595E" d="M126.6226,426.1787c1.4409,0.9287,2.8936,1.8428,4.3574,2.7383l7.8311-12.793
		c-1.3633-0.835-2.7153-1.6846-4.0566-2.5508L126.6226,426.1787z"/>
	<path fill="#0F595E" d="M66.8115,340.4932l-13.165,7.1895c0.8257,1.5117,1.6689,3.0117,2.5288,4.502l12.9922-7.4961
		C68.3662,343.2998,67.5806,341.9014,66.8115,340.4932z"/>
	<path fill="#0F595E" d="M60.3589,327.5986l-13.6475,6.2246c0.7163,1.5703,1.4502,3.1289,2.2026,4.6787l13.4932-6.5527
		C61.7075,330.5088,61.0244,329.0576,60.3589,327.5986z"/>
	<path fill="#0F595E" d="M82.3896,364.7246l-12.0088,8.9883c1.0312,1.3779,2.0786,2.7422,3.1416,4.0938l11.791-9.2715
		C84.3247,367.2773,83.3496,366.0068,82.3896,364.7246z"/>
	<path fill="#0F595E" d="M54.8462,314.2646l-14.0586,5.2305c0.6016,1.6162,1.2217,3.2236,1.8594,4.8223l13.9326-5.5566
		C55.9849,317.2695,55.4067,315.7715,54.8462,314.2646z"/>
	<path fill="#0F595E" d="M74.1689,352.8887L61.5508,361c0.9316,1.4482,1.8794,2.8857,2.8442,4.3096l12.4199-8.4102
		C75.9175,355.5732,75.0352,354.2373,74.1689,352.8887z"/>
	<path fill="#0F595E" d="M46.7783,286.6318L32.1147,289.79c0.3623,1.6846,0.7446,3.3613,1.1465,5.0303l14.583-3.5117
		C47.4707,289.7568,47.1152,288.1973,46.7783,286.6318z"/>
	<path fill="#0F595E" d="M50.3115,300.583l-14.3994,4.2031c0.4829,1.6533,0.9839,3.2969,1.5044,4.9336l14.2949-4.5449
		C51.2271,303.6514,50.7603,302.1211,50.3115,300.583z"/>
	<path fill="#0F595E" d="M44.2549,272.4609l-14.8525,2.1016c0.2412,1.7051,0.5024,3.4053,0.7832,5.0977l14.7979-2.4551
		C44.7222,275.6299,44.479,274.0488,44.2549,272.4609z"/>
	<path fill="#0F595E" d="M42.748,258.1445l-14.9639,1.0391c0.1191,1.7188,0.2588,3.4316,0.418,5.1387l14.9355-1.3926
		C42.9893,261.3398,42.8594,259.7441,42.748,258.1445z"/>
	<path fill="#0F595E" d="M91.4268,375.9404l-11.3379,9.8203c1.125,1.2988,2.2651,2.585,3.4194,3.8564l11.1064-10.082
		C93.5386,378.3496,92.4756,377.1514,91.4268,375.9404z"/>
	<path fill="#0F595E" d="M212.7988,458.4385c1.6978,0.2451,3.4014,0.4697,5.1118,0.6748l1.7881-14.8926
		c-1.5923-0.1914-3.1787-0.4004-4.7593-0.6279L212.7988,458.4385z"/>
	<path fill="#0F595E" d="M167.9199,446.9453c1.6084,0.6035,3.2256,1.1865,4.8506,1.752l4.9297-14.166
		c-1.5127-0.5264-3.0176-1.0703-4.5137-1.6309L167.9199,446.9453z"/>
	<path fill="#0F595E" d="M182.5923,451.8496c1.647,0.4863,3.3018,0.9521,4.9644,1.3994l3.8965-14.4844
		c-1.5464-0.416-3.0859-0.8506-4.6177-1.3018L182.5923,451.8496z"/>
	<path fill="#0F595E" d="M228.1729,460.0977c1.7104,0.123,3.4263,0.2266,5.1484,0.3096l0.7217-14.9824
		c-1.6021-0.0771-3.1987-0.1729-4.791-0.2881L228.1729,460.0977z"/>
	<path fill="#0F595E" d="M101.2354,386.4863l-10.6133,10.5996c1.2144,1.2158,2.4429,2.418,3.6855,3.6045l10.3584-10.8496
		C103.5093,388.7363,102.3657,387.6182,101.2354,386.4863z"/>
	<path fill="#0F595E" d="M153.6772,441.0176c1.5566,0.7139,3.1226,1.4102,4.6982,2.0889l5.9287-13.7793
		c-1.4653-0.6299-2.9219-1.2773-4.3691-1.9424L153.6772,441.0176z"/>
	<path fill="#0F595E" d="M197.5815,455.6885c1.6763,0.3652,3.3594,0.7109,5.0498,1.0381l2.8457-14.7285
		c-1.5742-0.3037-3.1421-0.626-4.7031-0.9658L197.5815,455.6885z"/>
	<path fill="#0F595E" d="M122.9551,405.3516l-9.0088,11.9922c1.3721,1.0312,2.7573,2.0459,4.1553,3.0449l8.7197-12.2051
		C125.521,407.2549,124.2324,406.3105,122.9551,405.3516z"/>
	<path fill="#0F595E" d="M111.7617,396.3057l-9.834,11.3262c1.2954,1.125,2.6035,2.2344,3.9253,3.3291l9.5713-11.5488
		C114.1914,398.3896,112.9702,397.3545,111.7617,396.3057z"/>
	<path fill="#0F595E" d="M42.2578,243.9102l-0.0005-0.167h-15l0.0005,0.2178c0,1.6475,0.0181,3.29,0.0552,4.9287l14.9961-0.3379
		C42.2749,247.0254,42.2578,245.4951,42.2578,243.9102z"/>
	<path fill="#0F595E" d="M139.8867,434.0811c1.502,0.8242,3.0142,1.6299,4.5371,2.4199l6.9053-13.3164
		c-1.4185-0.7354-2.8267-1.4863-4.2256-2.2539L139.8867,434.0811z"/>
	<path fill="#0F595E" d="M243.9609,54.5742c-104.4282,0-189.3867,84.9585-189.3867,189.3867
		c0,104.4277,84.9585,189.3867,189.3867,189.3867c104.4277,0,189.3867-84.959,189.3867-189.3867
		C433.3477,139.5327,348.3887,54.5742,243.9609,54.5742z M243.9609,418.3477c-96.1572,0-174.3867-78.2295-174.3867-174.3867
		S147.8037,69.5742,243.9609,69.5742s174.3867,78.2295,174.3867,174.3867S340.1182,418.3477,243.9609,418.3477z"/>
</g>
</svg>
