<?xml version="1.0" encoding="utf-8"?>
<!-- Generator: Adobe Illustrator 21.0.0, SVG Export Plug-In . SVG Version: 6.00 Build 0)  -->
<svg version="1.1" id="Outlined_Circle_with_Small_Dots"
	 xmlns="http://www.w3.org/2000/svg" xmlns:xlink="http://www.w3.org/1999/xlink" x="0px" y="0px" viewBox="0 0 477 477"
	 enable-background="new 0 0 477 477" xml:space="preserve">
<g id="change1">
	<path id="outlined-circle-with-small-dots-1_1_" fill="#FF6766" d="M80.4497,102.5898c2.8901-3.3501,7.9399-3.7202,11.29-0.8398
		c3.3501,2.8799,3.7202,7.9297,0.8398,11.2798c-1.5796,1.8398-3.8198,2.7803-6.0698,2.7803c-1.8398,0-3.6997-0.6304-5.21-1.9302
		C77.9497,110.9897,77.5698,105.9399,80.4497,102.5898z M115.9297,87.8896c1.71,0,3.4399-0.54,4.8901-1.6699
		c3.5-2.71,4.1401-7.73,1.4302-11.2197c-2.7002-3.5-7.73-4.1401-11.2202-1.4399c-3.4897,2.71-4.1299,7.73-1.4302,11.23
		C111.1797,86.8296,113.54,87.8896,115.9297,87.8896z M150.3398,66.4399c1.1899,0,2.3901-0.2603,3.52-0.8203
		c3.9697-1.9497,5.6099-6.7397,3.6602-10.6997c-1.9404-3.9702-6.7402-5.6099-10.7002-3.6602
		c-3.9702,1.9399-5.6099,6.73-3.6602,10.7002C144.5498,64.79,147.3896,66.4399,150.3398,66.4399z M188.3696,52.3799
		c0.6602,0,1.3301-0.0801,2-0.2603c4.2803-1.0996,6.8501-5.46,5.75-9.7397c-1.0996-4.2803-5.46-6.8501-9.7397-5.75
		c-4.2803,1.1001-6.8599,5.46-5.75,9.7397C181.5601,49.98,184.8101,52.3799,188.3696,52.3799z M38.29,225.9697
		c0.27,0.02,0.5396,0.04,0.8096,0.04c4.0601,0,7.5303-3.0698,7.9502-7.1899c0-0.0098,0-0.0098,0-0.0098
		c0.4502-4.3901-2.75-8.3203-7.1499-8.7603c-4.3901-0.4502-8.3203,2.75-8.7603,7.1499
		C30.6899,221.5898,33.8896,225.52,38.29,225.9697z M47.0098,257.7598c-0.4399-4.4004-4.3599-7.6104-8.75-7.1699
		c-4.3999,0.4404-7.6099,4.3496-7.1699,8.75c0.4102,4.1299,3.8901,7.21,7.9502,7.21c0.2598,0,0.5298-0.0098,0.7998-0.04
		C44.23,266.0693,47.4399,262.1494,47.0098,257.7598z M44.8599,185.9199c0.7998,0.2598,1.6099,0.3799,2.3999,0.3799
		c3.3999,0,6.5601-2.1899,7.6299-5.6099c1.3301-4.21-1.02-8.7002-5.23-10.0303c-4.2197-1.3301-8.71,1.02-10.0298,5.23
		C38.2998,180.1099,40.6396,184.5996,44.8599,185.9199z M59.3999,148.04c1.2397,0.6899,2.5698,1.0098,3.8901,1.0098
		c2.8096,0,5.5298-1.48,7-4.1001c2.1499-3.8599,0.7598-8.73-3.1001-10.8896c-3.8604-2.1504-8.73-0.7603-10.8799,3.0996
		C54.1597,141.02,55.54,145.8896,59.3999,148.04z M54.7598,295.8994c-1.3101-4.2197-5.7998-6.5693-10.02-5.25
		c-4.2197,1.3105-6.5698,5.8008-5.25,10.0107v0.0098c1.0703,3.4199,4.23,5.6104,7.6299,5.6104c0.79,0,1.6001-0.1104,2.3901-0.3604
		C53.73,304.5996,56.0796,300.1201,54.7598,295.8994z M422.7598,167.4697c1.0498,0,2.1299-0.21,3.1504-0.6499
		c4.0596-1.75,5.9395-6.4502,4.1992-10.5098c-1.75-4.0601-6.4492-5.9404-10.5098-4.2002c-4.0596,1.75-5.9395,6.4502-4.1895,10.5098
		C416.71,165.6499,419.6602,167.4697,422.7598,167.4697z M403.0596,132.02c1.5801,0,3.1807-0.4702,4.5703-1.4404
		c3.6201-2.5195,4.5098-7.5098,1.9902-11.1299c-2.5303-3.6299-7.5205-4.52-11.1406-1.9897
		c-3.6299,2.52-4.5098,7.5098-1.9893,11.1396C398.0498,130.8296,400.5303,132.02,403.0596,132.02z M228.4497,46.3101
		c0.1401,0,0.27-0.0103,0.3999-0.0103c4.4204-0.2202,7.8203-3.98,7.6001-8.3901c-0.2197-4.4097-3.9697-7.8101-8.3799-7.5898
		c-4.4199,0.21-7.8198,3.9702-7.6001,8.3799C220.6797,42.98,224.2197,46.3101,228.4497,46.3101z M427.04,199.7598
		c0.7695,3.79,4.1094,6.3999,7.8301,6.3999c0.5293,0,1.0693-0.0498,1.6094-0.1597c4.3301-0.8901,7.1201-5.1104,6.2402-9.4399
		c-0.8896-4.3301-5.1104-7.1201-9.4395-6.2402C428.9502,191.21,426.1602,195.4297,427.04,199.7598z M376.6299,101.2598
		c2.1201,0,4.2295-0.8398,5.7998-2.4897c3.0498-3.2002,2.9199-8.2603-0.2803-11.3101c-3.1992-3.0503-8.2695-2.9199-11.3096,0.2798
		c-3.0498,3.2002-2.9199,8.27,0.2803,11.3101C372.6699,100.5298,374.6494,101.2598,376.6299,101.2598z M305.4199,58.0098
		c0.9199,0.3398,1.8604,0.5,2.79,0.5c3.2402,0,6.2998-1.9897,7.5-5.2197c1.5303-4.1401-0.5801-8.7402-4.7197-10.2803
		c-4.1406-1.5298-8.75,0.5801-10.2803,4.7202C299.1699,51.8696,301.2803,56.48,305.4199,58.0098z M340.3496,75.1899
		c1.3203,0.8198,2.79,1.2197,4.2402,1.2197c2.6602,0,5.2695-1.3301,6.79-3.7598c2.3398-3.75,1.2002-8.6802-2.5498-11.0303
		c-3.7402-2.3398-8.6807-1.1997-11.0205,2.5503C335.4697,67.9097,336.6094,72.8496,340.3496,75.1899z M267.75,48.27
		c0.4102,0.0596,0.8096,0.0898,1.21,0.0898c3.8896,0,7.2998-2.8398,7.8994-6.7998c0.6709-4.3701-2.3291-8.4502-6.6992-9.1104
		c-4.3701-0.6699-8.4502,2.3301-9.1201,6.7002C260.3799,43.52,263.3799,47.5996,267.75,48.27z M370.8193,378.2295
		c0,0.0107,0,0.0107,0,0.0107c-3.21,3.0293-3.3496,8.0996-0.3096,11.3096c1.5703,1.6602,3.6904,2.4902,5.8096,2.4902
		c1.9707,0,3.9502-0.7207,5.5-2.1904c3.2109-3.04,3.3408-8.0996,0.3105-11.3096
		C379.0898,375.3301,374.0195,375.2002,370.8193,378.2295z M407.3896,346.7803c-3.6201-2.5303-8.6094-1.6504-11.1396,1.9697
		s-1.6602,8.6094,1.9697,11.1396c1.3896,0.9805,2.9902,1.4502,4.5801,1.4502c2.5195,0,5-1.1904,6.5596-3.4102
		C411.8896,354.3096,411.0098,349.3193,407.3896,346.7803z M425.75,310.5996c-4.0498-1.75-8.7598,0.1201-10.5205,4.1699
		c-1.75,4.0605,0.1201,8.7705,4.1807,10.5205c1.0293,0.4502,2.1094,0.6602,3.1699,0.6602c3.0898,0,6.04-1.8105,7.3398-4.8301
		C431.6797,317.0596,429.8096,312.3496,425.75,310.5996z M417.4453,238.5c0,98.6709-80.2744,178.9453-178.9453,178.9453
		S59.5547,337.1709,59.5547,238.5S139.8291,59.5547,238.5,59.5547S417.4453,139.8291,417.4453,238.5z M402.4453,238.5
		c0-90.3999-73.5459-163.9453-163.9453-163.9453c-90.3999,0-163.9453,73.5454-163.9453,163.9453
		c0,90.3994,73.5454,163.9453,163.9453,163.9453C328.8994,402.4453,402.4453,328.8994,402.4453,238.5z M438.9395,230.5
		c-4.4199,0-8,3.5796-8,8c0,0.0601,0,0.1299,0,0.1899c0,0.0801,0,0.1597,0,0.2397c-0.0098,4.4199,3.5605,8.0098,7.9805,8.0205
		c0.0098,0,0.0098,0,0.0195,0c4.4102,0,7.9902-3.5703,8-7.9805c0-0.0698,0-0.1401,0-0.21c0-0.0898,0-0.1699,0-0.2598
		C446.9395,234.0796,443.3594,230.5,438.9395,230.5z M436.4102,271.4502c-4.3301-0.9004-8.5605,1.8896-9.46,6.21
		c0.0098,0,0.0098,0,0.0098,0c-0.9004,4.3301,1.8799,8.5596,6.21,9.46c0.5498,0.1094,1.0898,0.1602,1.6299,0.1602
		c3.71,0,7.04-2.6006,7.8203-6.3809C443.5195,276.5693,440.7295,272.3398,436.4102,271.4502z M477,238.5
		c0,63.7061-24.8086,123.5986-69.8545,168.6455C362.0986,452.1914,302.2061,477,238.5,477
		c-63.7056,0-123.5981-24.8086-168.645-69.8545C24.8086,362.0986,0,302.2061,0,238.5c0-63.7056,24.8086-123.5981,69.855-168.645
		C114.9019,24.8086,174.7944,0,238.5,0c63.7061,0,123.5986,24.8086,168.6455,69.855C452.1914,114.9019,477,174.7944,477,238.5z
		 M462,238.5c0-59.6992-23.248-115.8247-65.4619-158.0381C354.3252,38.248,298.1992,15,238.5,15
		c-59.6987,0-115.8247,23.248-158.0381,65.4619C38.248,122.6753,15,178.8013,15,238.5c0,59.6992,23.248,115.8252,65.4619,158.0381
		C122.6753,438.752,178.8008,462,238.5,462s115.8252-23.248,158.0381-65.4619C438.752,354.3252,462,298.1992,462,238.5z
		 M339.9902,402.0303c-3.75,2.3398-4.9004,7.2695-2.5605,11.0195c1.5098,2.4404,4.1201,3.7803,6.7998,3.7803
		c1.4404,0,2.9004-0.3906,4.2207-1.21c3.75-2.3301,4.8994-7.2705,2.5596-11.0205
		C348.6797,400.8496,343.7402,399.7002,339.9902,402.0303z M228.4297,430.6797c-4.4199-0.2295-8.1797,3.1699-8.4097,7.5801
		c-0.2202,4.4102,3.1699,8.1699,7.5796,8.4004c0.1401,0.0098,0.2803,0.0098,0.4204,0.0098c4.23,0,7.7598-3.3105,7.98-7.5898
		C236.23,434.6699,232.8398,430.9102,228.4297,430.6797z M305.0303,419.1396c-4.1504,1.5205-6.2705,6.1201-4.75,10.2705
		c1.1992,3.2295,4.25,5.2295,7.5098,5.2295c0.9199,0,1.8496-0.1602,2.7695-0.4902c4.1406-1.5293,6.2705-6.1299,4.7402-10.2695
		C313.7695,419.7295,309.1699,417.6094,305.0303,419.1396z M120.4897,390.5195c-3.4897-2.71-8.5098-2.0801-11.2197,1.4102
		c-2.7202,3.4902-2.0903,8.5098,1.3999,11.2197v0.0107c1.46,1.1299,3.1899,1.6797,4.9097,1.6797
		c2.3804,0,4.7402-1.0596,6.3203-3.0898C124.6099,398.2598,123.98,393.2295,120.4897,390.5195z M81.0298,362.7803
		c-3.3599,2.8799-3.75,7.9297-0.8701,11.2793c1.5801,1.8506,3.8203,2.7998,6.0801,2.7998c1.8398,0,3.6899-0.6396,5.2002-1.9297
		c3.3501-2.8701,3.7397-7.9199,0.8701-11.2803C89.4297,360.2998,84.3799,359.9102,81.0298,362.7803z M153.48,411.1895
		c-3.96-1.9492-8.7603-0.3301-10.71,3.6406c-1.96,3.96-0.3301,8.7598,3.6299,10.71c1.1401,0.5596,2.3501,0.8301,3.5298,0.8301
		c2.9502,0,5.79-1.6406,7.1802-4.4707C159.0698,417.9395,157.4399,413.1494,153.48,411.1895z M189.9497,424.7695
		c-4.27-1.1094-8.6396,1.4502-9.75,5.7305c-1.1099,4.2695,1.4502,8.6396,5.73,9.75c0.6699,0.1797,1.3501,0.2598,2.02,0.2598
		c3.5503,0,6.8003-2.3896,7.73-5.9902C196.7998,430.2402,194.23,425.8799,189.9497,424.7695z M267.3193,428.7998
		c-4.3691,0.6504-7.3799,4.7305-6.7197,9.0996c0.5898,3.96,4.0098,6.8105,7.9004,6.8105c0.3994,0,0.7998-0.0303,1.2002-0.0898
		c4.3691-0.6602,7.3799-4.7305,6.7197-9.1006C275.7695,431.1494,271.6895,428.1396,267.3193,428.7998z M59.21,328.5596
		c-3.8701,2.1504-5.2603,7.0205-3.1201,10.8799c1.46,2.6406,4.1899,4.1201,7,4.1201c1.3198,0,2.6499-0.3193,3.8701-1
		c3.8696-2.1494,5.2598-7.0098,3.1196-10.8799C67.9399,327.8193,63.0698,326.4199,59.21,328.5596z"/>
</g>
</svg>
