<?xml version="1.0" encoding="utf-8"?>
<!-- Generator: Adobe Illustrator 20.1.0, SVG Export Plug-In . SVG Version: 6.00 Build 0)  -->
<svg version="1.1" id="Circle-outline2-D5" xmlns="http://www.w3.org/2000/svg" xmlns:xlink="http://www.w3.org/1999/xlink" x="0px"
	 y="0px" viewBox="0 0 500.0026 500.4" enable-background="new 0 0 500.0026 500.4" xml:space="preserve">
<g id="change1">
	<path fill="#41DAFF" d="M250.1,438c-78.4,0-145.8-47.8-173.8-116.8h-66c30.6,104,126.5,179.2,239.8,179.2s209.1-75.2,239.8-179.2
		h-66C395.9,390.1,328.5,438,250.1,438z"/>
	<path fill="#41DAFF" d="M250.1,72.9C152.4,72.9,72.8,152.4,72.8,250.2s79.6,177.2,177.3,177.2s177.3-79.5,177.3-177.3
		S347.8,72.9,250.1,72.9z"/>
	<path fill="#41DAFF" d="M62.4,250.1c0-21.5,3.7-42,10.3-61h-65c-5,19-7.7,39.8-7.7,61c0,20.8,2.6,42,7.4,60h64.9
		C65.9,292.1,62.4,271.3,62.4,250.1z"/>
	<path fill="#41DAFF" d="M250.1,62.3c78,0,145.1,47.8,173.4,115.8h66.1C458.6,76.1,363,0,250.1,0S41.6,76.1,10.6,178.1h66.1
		C105,110.1,172.1,62.3,250.1,62.3z"/>
	<path fill="#41DAFF" d="M492.4,189.1h-65c6.7,19,10.3,39.5,10.3,61c0,21.1-3.5,42-10,60h64.9c4.8-18,7.4-39.2,7.4-60
		C500.1,228.9,497.4,208.1,492.4,189.1z"/>
</g>
</svg>
