<?xml version="1.0" encoding="utf-8"?>
<!-- Generator: Adobe Illustrator 21.0.0, SVG Export Plug-In . SVG Version: 6.00 Build 0)  -->
<svg version="1.1" id="Circle_with_Cutout_Border_Line_6"
	 xmlns="http://www.w3.org/2000/svg" xmlns:xlink="http://www.w3.org/1999/xlink" x="0px" y="0px" viewBox="0 0 438.7773 438.7773"
	 enable-background="new 0 0 438.7773 438.7773" xml:space="preserve">
<g id="change1">
	<path fill="#22A87E" d="M374.5195,64.2573C333.083,22.8203,277.9893,0,219.3887,0C160.7876,0,105.6943,22.8203,64.2573,64.2573
		S0,160.7876,0,219.3887c0,58.6006,22.8203,113.6943,64.2573,155.1309c41.437,41.4375,96.5303,64.2578,155.1313,64.2578
		c58.6006,0,113.6943-22.8203,155.1309-64.2578c41.4375-41.4365,64.2578-96.5303,64.2578-155.1309
		C438.7773,160.7876,415.957,105.6943,374.5195,64.2573z M219.3887,428.7773C103.9312,428.7773,10,334.8457,10,219.3887
		C10,103.9312,103.9312,10,219.3887,10c115.457,0,209.3887,93.9312,209.3887,209.3887
		C428.7773,334.8457,334.8457,428.7773,219.3887,428.7773z"/>
	<path fill="#22A87E" d="M375.9844,219.3887c0-86.3472-70.249-156.5957-156.5957-156.5957
		c-86.3472,0-156.5957,70.2485-156.5957,156.5957c0,86.3467,70.2485,156.5957,156.5957,156.5957
		C305.7354,375.9844,375.9844,305.7354,375.9844,219.3887z M219.3887,365.9844c-80.833,0-146.5957-65.7627-146.5957-146.5957
		S138.5557,72.793,219.3887,72.793s146.5957,65.7627,146.5957,146.5957S300.2217,365.9844,219.3887,365.9844z"/>
	<path fill="#22A87E" d="M34.5386,272.9785c-1.3203,0.4102-2.0601,1.7998-1.6602,3.1201c0.3203,1.0801,1.3203,1.7803,2.3901,1.7803
		c0.2397,0,0.48-0.04,0.7197-0.1104c1.3301-0.4004,2.0703-1.7998,1.6704-3.1201C37.2583,273.3281,35.8584,272.5781,34.5386,272.9785
		z"/>
	<path fill="#22A87E" d="M30.4683,182.6987c-1.3599-0.2402-2.6597,0.6597-2.8999,2.0195c-0.2397,1.3604,0.6602,2.6602,2.02,2.9004
		c0.1499,0.0298,0.3003,0.04,0.4399,0.04c1.1899,0,2.2402-0.8501,2.46-2.0503C32.7383,184.2485,31.8286,182.9487,30.4683,182.6987z"
		/>
	<path fill="#22A87E" d="M29.8086,230.4385c-0.0801-1.3799-1.2603-2.4404-2.6401-2.3604c-1.3701,0.0801-2.4302,1.2607-2.3501,2.6406
		c0.0801,1.3301,1.1802,2.3594,2.5,2.3594c0.04,0,0.0903,0,0.1401,0C28.8384,232.998,29.8887,231.8086,29.8086,230.4385z"/>
	<path fill="#22A87E" d="M42.3286,143.9385c0.3301,0.1499,0.6797,0.2202,1.0098,0.2202c0.96,0,1.8799-0.5601,2.29-1.4902
		c0.5601-1.27-0.0098-2.7397-1.27-3.2998c-1.27-0.5601-2.7397,0.0098-3.2998,1.27
		C40.4985,141.9087,41.0684,143.3784,42.3286,143.9385z"/>
	<path fill="#22A87E" d="M29.5186,250.748c-1.3599,0.2402-2.2603,1.54-2.02,2.9004c0.21,1.21,1.27,2.0596,2.4502,2.0596
		c0.1499,0,0.2998-0.0098,0.4497-0.0293c1.3599-0.2402,2.2603-1.54,2.02-2.9004C32.1787,251.4189,30.8784,250.5088,29.5186,250.748z
		"/>
	<path fill="#22A87E" d="M52.4985,123.5586c0.3999,0.2397,0.8398,0.3501,1.2798,0.3501c0.8501,0,1.6802-0.4404,2.1504-1.23
		c0.6997-1.1802,0.3096-2.7202-0.8804-3.4204c-1.1797-0.71-2.7197-0.3096-3.4199,0.8701
		C50.9185,121.3184,51.3184,122.8584,52.4985,123.5586z"/>
	<path fill="#22A87E" d="M27.1885,210.2886c0.0498,0,0.1001,0,0.1499,0c1.3101,0,2.4199-1.02,2.4902-2.3501
		c0.0898-1.3799-0.96-2.5601-2.3403-2.6401c-1.3799-0.0898-2.5596,0.9702-2.6499,2.3403
		C24.7583,209.0186,25.8086,210.2085,27.1885,210.2886z"/>
	<path fill="#22A87E" d="M52.3184,314.8887c-1.1899,0.71-1.5898,2.2402-0.8896,3.4297c0.4697,0.79,1.2998,1.2305,2.1597,1.2305
		c0.4302,0,0.8701-0.1104,1.27-0.3506c1.1899-0.7002,1.5801-2.2402,0.8799-3.4199
		C55.0386,314.5889,53.5083,314.1885,52.3184,314.8887z"/>
	<path fill="#22A87E" d="M45.4683,295.7588c-0.5498-1.2705-2.0298-1.8398-3.2896-1.29c-1.2603,0.5596-1.8403,2.0293-1.2803,3.2998
		c0.4102,0.9297,1.3198,1.4902,2.29,1.4902c0.3301,0,0.6699-0.0703,1-0.21c1.2603-0.5605,1.8398-2.0303,1.2798-3.3008
		C45.4683,295.7588,45.4683,295.7588,45.4683,295.7588z"/>
	<path fill="#22A87E" d="M96.0386,367.0586c-0.8799,1.0703-0.71,2.6494,0.3599,3.5195c0.46,0.3799,1.02,0.5605,1.5698,0.5605
		c0.7305,0,1.4502-0.3105,1.9404-0.9199c0.8799-1.0703,0.71-2.6406-0.3604-3.5205
		C98.4785,365.8281,96.9087,365.9883,96.0386,367.0586z"/>
	<path fill="#22A87E" d="M137.4585,390.748c-1.2402-0.5898-2.7402-0.0693-3.3301,1.1807c-0.6001,1.2402-0.0698,2.7295,1.1699,3.3301
		h0.0103c0.3398,0.1699,0.71,0.25,1.0698,0.25c0.9302,0,1.8301-0.5303,2.2603-1.4307
		C139.2285,392.8389,138.7085,391.3486,137.4585,390.748z"/>
	<path fill="#22A87E" d="M117.7983,379.8486c-1.1699-0.7402-2.71-0.3906-3.4497,0.7695c-0.7402,1.1699-0.3999,2.71,0.77,3.46
		c0.4199,0.2607,0.8799,0.3799,1.3398,0.3799c0.8301,0,1.6401-0.4092,2.1099-1.1592
		C119.3086,382.1387,118.9683,380.5889,117.7983,379.8486z"/>
	<path fill="#22A87E" d="M158.2886,399.2383c-1.3101-0.4395-2.7202,0.2598-3.1699,1.5703
		c-0.4399,1.2998,0.2598,2.7197,1.5601,3.1699c0.27,0.0898,0.5396,0.1299,0.8096,0.1299c1.04,0,2.0103-0.6602,2.3701-1.7002
		C160.2983,401.0986,159.5986,399.6787,158.2886,399.2383z"/>
	<path fill="#22A87E" d="M65.0186,104.5186c0.4497,0.3501,0.9897,0.5098,1.52,0.5098c0.75,0,1.4897-0.3296,1.98-0.98
		c0.8398-1.0898,0.6299-2.6597-0.46-3.5c-1.1001-0.8398-2.6699-0.6299-3.5103,0.46
		C63.7085,102.1084,63.9185,103.6787,65.0186,104.5186z"/>
	<path fill="#22A87E" d="M64.7983,333.9688c-1.0996,0.8398-1.3101,2.4102-0.4697,3.5c0.4897,0.6494,1.2397,0.9893,1.9897,0.9893
		c0.5303,0,1.0601-0.1699,1.5103-0.5098c1.1001-0.8398,1.3101-2.4102,0.4697-3.5098
		C67.4683,333.3389,65.8984,333.1289,64.7983,333.9688z"/>
	<path fill="#22A87E" d="M82.9785,351.498c-0.96-1-2.54-1.0195-3.54-0.0596c-0.9897,0.96-1.0098,2.54-0.0498,3.5303v0.0098
		c0.4897,0.5,1.1396,0.75,1.79,0.7598c0.6299,0,1.2598-0.2402,1.7397-0.71c0.9902-0.96,1.02-2.54,0.0601-3.54
		C82.9785,351.498,82.9785,351.498,82.9785,351.498z"/>
	<path fill="#22A87E" d="M349.2686,79.9487c0.6797,0,1.3496-0.27,1.8496-0.8101c0.9307-1.02,0.8604-2.6001-0.1602-3.5303
		c-1.0195-0.9399-2.5996-0.8701-3.5293,0.1499c-0.9307,1.02-0.8604,2.6001,0.1494,3.5303
		C348.0586,79.7285,348.6689,79.9487,349.2686,79.9487z"/>
	<path fill="#22A87E" d="M311.1289,53.0786c0.3799,0.2197,0.7998,0.3198,1.1992,0.3198c0.8799,0,1.7402-0.4697,2.2002-1.29
		c0.6602-1.21,0.2197-2.73-0.9795-3.3999c-1.21-0.6699-2.7305-0.23-3.4004,0.98C309.4785,50.8887,309.9189,52.4185,311.1289,53.0786
		z"/>
	<path fill="#22A87E" d="M330.1289,65.1084c0.4395,0.3203,0.9492,0.4702,1.46,0.4702c0.7695,0,1.54-0.3604,2.0293-1.04
		c0.8008-1.1201,0.5508-2.6802-0.5693-3.4902s-2.6904-0.5498-3.4902,0.5703C328.748,62.7383,329.0088,64.2983,330.1289,65.1084z"/>
	<path fill="#22A87E" d="M269.5381,36.1885c0.2207,0.0601,0.4404,0.0898,0.6602,0.0898c1.1006,0,2.1006-0.73,2.4102-1.8496
		c0.3604-1.3301-0.4199-2.7002-1.75-3.0703c-1.3398-0.3599-2.71,0.4302-3.0703,1.7603
		C267.4189,34.4487,268.208,35.8184,269.5381,36.1885z"/>
	<path fill="#22A87E" d="M290.8389,43.3984c0.3096,0.1201,0.6299,0.1802,0.9395,0.1802c0.9902,0,1.9297-0.5903,2.3203-1.5601
		c0.5195-1.2803-0.0898-2.7402-1.3701-3.2603s-2.7402,0.1001-3.2598,1.3804C288.9482,41.4185,289.5586,42.8784,290.8389,43.3984z"/>
	<path fill="#22A87E" d="M365.1484,96.2983c0.5801,0,1.1602-0.1899,1.6299-0.5996c1.0498-0.9004,1.1602-2.4805,0.2598-3.5303
		c-0.8994-1.04-2.4795-1.1602-3.5293-0.2598c-1.04,0.8999-1.1602,2.48-0.2607,3.5298
		C363.748,96.0083,364.4482,96.2983,365.1484,96.2983z"/>
	<path fill="#22A87E" d="M407.9688,196.9287c0.1494,1.2798,1.2295,2.21,2.4795,2.21c0.1006,0,0.2002,0,0.2998-0.02
		c1.3701-0.1602,2.3506-1.4004,2.1904-2.77h-0.0098c-0.1602-1.3701-1.4004-2.3501-2.7705-2.1899
		C408.7881,194.3184,407.8086,195.5586,407.9688,196.9287z"/>
	<path fill="#22A87E" d="M406.4482,176.7085c0.1904,0,0.3906-0.0298,0.5801-0.0698c1.3506-0.3203,2.1699-1.6802,1.8506-3.02
		c-0.3301-1.3403-1.6709-2.1699-3.0205-1.8403c-1.3398,0.3203-2.1602,1.6704-1.8398,3.0103
		C404.2881,175.9385,405.3184,176.7085,406.4482,176.7085z"/>
	<path fill="#22A87E" d="M81.4287,87.7886c0.6499,0,1.3096-0.2603,1.7998-0.7603c0.96-0.9897,0.9399-2.5698-0.0498-3.54
		c-0.9902-0.96-2.5801-0.9297-3.54,0.0503c-0.96,0.9897-0.9399,2.5801,0.0498,3.54C80.1787,87.5483,80.8086,87.7886,81.4287,87.7886
		z"/>
	<path fill="#22A87E" d="M388.3682,132.6787c0.4502,0.8599,1.3203,1.3599,2.2305,1.3599c0.3896,0,0.7803-0.0898,1.1396-0.2803
		c1.2305-0.6396,1.71-2.1396,1.0801-3.3696s-2.1396-1.71-3.3701-1.0801c-1.2197,0.6299-1.71,2.1401-1.0693,3.3701
		C388.3682,132.6787,388.3682,132.6787,388.3682,132.6787z"/>
	<path fill="#22A87E" d="M136.7383,48.1084c0.3604,0,0.7202-0.0801,1.0703-0.25c1.25-0.5898,1.7798-2.0801,1.1797-3.3301
		c-0.5898-1.25-2.0796-1.7798-3.3296-1.1797c-1.25,0.5898-1.7803,2.0801-1.1802,3.3301
		C134.9087,47.5786,135.7983,48.1084,136.7383,48.1084z"/>
	<path fill="#22A87E" d="M116.7783,59.1187c0.4502,0,0.9102-0.1304,1.3301-0.3901c1.1699-0.7402,1.5103-2.2798,0.7803-3.4502
		c-0.7402-1.1699-2.29-1.52-3.4502-0.7798c-1.1699,0.7397-1.52,2.29-0.7798,3.4502
		C115.1387,58.6987,115.9487,59.1187,116.7783,59.1187z"/>
	<path fill="#22A87E" d="M157.8687,39.5386c0.2598,0,0.5298-0.04,0.7998-0.1299c1.2998-0.4404,2.0103-1.8604,1.5698-3.1704
		c-0.4399-1.3096-1.8599-2.0098-3.1699-1.5698s-2.0098,1.8599-1.5698,3.1699C155.8486,38.8784,156.8184,39.5386,157.8687,39.5386z"
		/>
	<path fill="#22A87E" d="M98.2583,72.4087c0.5503,0,1.1104-0.1802,1.5703-0.5601c1.0698-0.8701,1.2397-2.4502,0.3701-3.52
		c-0.8701-1.0703-2.4502-1.23-3.52-0.3604c-1.0703,0.8701-1.2402,2.4404-0.3604,3.5103
		C96.8086,72.0884,97.5283,72.4087,98.2583,72.4087z"/>
	<path fill="#22A87E" d="M179.8687,33.5586c0.1699,0,0.3398-0.02,0.5098-0.0601c1.3599-0.2803,2.2202-1.6001,1.9399-2.9502
		c-0.2798-1.3599-1.6099-2.2197-2.96-1.9399c-1.3501,0.2803-2.2197,1.6099-1.9399,2.96
		C177.6685,32.7485,178.7085,33.5586,179.8687,33.5586z"/>
	<path fill="#22A87E" d="M225.1182,29.5786c0.0303,0,0.0508,0,0.0801,0c1.3398,0,2.4502-1.0703,2.4902-2.4199
		c0.0498-1.3804-1.04-2.54-2.4199-2.5801s-2.5303,1.0498-2.5703,2.4297C222.6582,28.3887,223.7383,29.5386,225.1182,29.5786z"/>
	<path fill="#22A87E" d="M247.5283,31.5586c0,0.0098,0,0.0098,0,0.0098c0.1201,0.0103,0.25,0.02,0.3701,0.02
		c1.2197,0,2.2803-0.8896,2.4697-2.1299c0.2002-1.3701-0.7393-2.6401-2.1094-2.8398c-1.3604-0.2002-2.6406,0.7397-2.8398,2.0996
		C245.2188,30.0884,246.1582,31.3584,247.5283,31.5586z"/>
	<path fill="#22A87E" d="M202.4087,30.2383c0.0796,0,0.1499-0.0098,0.2197-0.0098c0-0.0103,0-0.0103,0-0.0103
		c1.3799-0.1196,2.3999-1.3296,2.2803-2.6997c-0.1201-1.3799-1.3301-2.3999-2.71-2.2803c-1.3804,0.1201-2.3901,1.3403-2.27,2.7104
		C200.0386,29.2485,201.1284,30.2383,202.4087,30.2383z"/>
	<path fill="#22A87E" d="M36.1187,160.6187c-1.3203-0.4004-2.7202,0.3398-3.1201,1.6597c-0.4102,1.3203,0.3398,2.7202,1.6602,3.1201
		c0.2397,0.0801,0.4897,0.1099,0.73,0.1099c1.0698,0,2.0601-0.6899,2.3896-1.77C38.1787,162.4185,37.4385,161.0186,36.1187,160.6187
		z"/>
	<path fill="#22A87E" d="M329.8389,373.8789c-1.1309,0.7998-1.3809,2.3594-0.5801,3.4893c0.4893,0.6807,1.25,1.04,2.0293,1.04
		c0.5107,0,1.0107-0.1494,1.46-0.4697c1.1201-0.7998,1.3809-2.3604,0.5801-3.4805
		C332.5186,373.3281,330.958,373.0684,329.8389,373.8789z"/>
	<path fill="#22A87E" d="M380.1885,325.0986c-1.1504-0.7705-2.7002-0.4805-3.4805,0.6699
		c-0.7695,1.1396-0.4697,2.6895,0.6709,3.4697c0.4297,0.29,0.9199,0.4307,1.3994,0.4307c0.7998,0,1.5898-0.3809,2.0703-1.1006
		C381.6289,327.4287,381.3281,325.8682,380.1885,325.0986z"/>
	<path fill="#22A87E" d="M363.0186,343.6084c-0.9004,1.04-0.79,2.6201,0.2598,3.5303c0.4697,0.4102,1.0498,0.6094,1.6299,0.6094
		c0.7002,0,1.4004-0.2998,1.8906-0.8691c0.8994-1.04,0.79-2.6201-0.25-3.5205
		C365.5088,342.4482,363.9287,342.5684,363.0186,343.6084z"/>
	<path fill="#22A87E" d="M347.3184,359.7188c-1.0195,0.9297-1.0898,2.5098-0.1602,3.54c0.5,0.5293,1.1699,0.8096,1.8506,0.8096
		c0.5996,0,1.1992-0.2197,1.6797-0.6602v0.0107c1.0195-0.9307,1.0996-2.5205,0.1699-3.5303
		C349.9189,358.8682,348.3389,358.7881,347.3184,359.7188z"/>
	<path fill="#22A87E" d="M269.1484,402.6982c-0.0098,0-0.0098,0-0.0098,0c-1.3301,0.3604-2.1201,1.7305-1.75,3.0703
		c0.2998,1.1104,1.3096,1.8398,2.4102,1.8398c0.21,0,0.4297-0.0195,0.6494-0.0801c1.3301-0.3701,2.1201-1.7402,1.7598-3.0703
		C271.8486,403.1289,270.4785,402.3389,269.1484,402.6982z"/>
	<path fill="#22A87E" d="M247.1182,407.2686c-1.3594,0.2002-2.3096,1.4697-2.1094,2.8398c0.1797,1.2402,1.25,2.1396,2.4697,2.1396
		c0.1201,0,0.2402-0.0098,0.3701-0.0293c1.3594-0.2002,2.3096-1.4707,2.1094-2.8398
		C249.7588,408.0186,248.4883,407.0684,247.1182,407.2686z"/>
	<path fill="#22A87E" d="M310.7988,385.8682c-1.21,0.6699-1.6504,2.1904-0.9902,3.4004c0.46,0.8301,1.3096,1.2998,2.2002,1.2998
		c0.3994,0,0.8193-0.0996,1.1992-0.3096c1.2109-0.6699,1.6504-2.1904,0.9805-3.4004
		C313.5283,385.6484,312.0088,385.208,310.7988,385.8682z"/>
	<path fill="#22A87E" d="M290.4785,395.5283c-1.2803,0.5205-1.9004,1.9805-1.3896,3.2598c0.3994,0.9707,1.3301,1.5605,2.3193,1.5605
		c0.3203,0,0.6299-0.0605,0.9404-0.1797c1.2803-0.5205,1.8994-1.9805,1.3799-3.2607
		C293.208,395.6289,291.748,395.0186,290.4785,395.5283z"/>
	<path fill="#22A87E" d="M410.6982,240.0586c-1.3701-0.1699-2.6094,0.8096-2.7793,2.1797
		c-0.1602,1.3701,0.8193,2.6201,2.1895,2.7803c0.0996,0.0195,0.2002,0.0195,0.2998,0.0195c1.25,0,2.3203-0.9297,2.4805-2.1992
		C413.0488,241.4688,412.0684,240.2188,410.6982,240.0586z"/>
	<path fill="#22A87E" d="M377.5889,109.8384c-1.1406,0.77-1.4502,2.3301-0.6699,3.4702c0.4795,0.7197,1.2695,1.1001,2.0693,1.1001
		c0.4805,0,0.9697-0.1304,1.4004-0.4204c1.1396-0.7798,1.4395-2.3296,0.6699-3.4697
		C380.2881,109.3687,378.7383,109.0684,377.5889,109.8384z"/>
	<path fill="#22A87E" d="M411.7783,216.8887c-1.3799,0-2.4902,1.1196-2.4902,2.5c0,0.0601,0,0.1299,0,0.1899
		c0,0.0698-0.0098,0.1396-0.0098,0.21c0,1.3804,1.1201,2.4995,2.5,2.5103c1.3799,0,2.5-1.1201,2.5-2.5005c0-0.0698,0-0.1396,0-0.21
		c0-0.0601,0-0.1299,0-0.1997C414.2783,218.0083,413.1582,216.8887,411.7783,216.8887z"/>
	<path fill="#22A87E" d="M406.9385,262.5381c-1.3398-0.3301-2.6904,0.5-3.0195,1.8408c-0.3203,1.3398,0.5,2.6895,1.8398,3.0195
		c0.1992,0.0498,0.3994,0.0703,0.5996,0.0703c1.1201,0,2.1396-0.7705,2.4199-1.9102
		C409.1084,264.2188,408.2783,262.8584,406.9385,262.5381z"/>
	<path fill="#22A87E" d="M391.5684,305.3682c-1.2295-0.6396-2.7295-0.1602-3.3701,1.0703
		c-0.6299,1.2197-0.1494,2.7305,1.0801,3.3701c0.3604,0.1895,0.75,0.2803,1.1406,0.2803c0.9092,0,1.7793-0.5,2.2197-1.3604
		C393.2783,307.5088,392.7988,305.998,391.5684,305.3682z"/>
	<path fill="#22A87E" d="M400.5381,284.4082c-1.2998-0.4795-2.7393,0.1699-3.2197,1.4707c-0.4795,1.29,0.1699,2.7295,1.4697,3.21
		c0.2803,0.1094,0.5801,0.1592,0.8701,0.1592c1.0107,0,1.9707-0.6191,2.3398-1.6191
		C402.4883,286.3281,401.8281,284.8887,400.5381,284.4082z"/>
	<path fill="#22A87E" d="M398.9287,150.0483c-1.2998,0.48-1.96,1.9199-1.4707,3.2202c-0.0098,0-0.0098,0-0.0098,0
		c0.3799,1,1.3301,1.6201,2.3506,1.6201c0.29,0,0.5801-0.0503,0.8701-0.1504c1.2891-0.48,1.9492-1.9199,1.4697-3.2197
		C401.6582,150.2285,400.2188,149.5684,398.9287,150.0483z"/>
	<path fill="#22A87E" d="M224.708,409.208c-1.3799,0.04-2.4697,1.1904-2.4297,2.5703c0.04,1.3604,1.1504,2.4297,2.5,2.4297
		c0.0303,0,0.0498,0,0.0703,0c1.3799-0.0391,2.4697-1.1895,2.4297-2.5693S226.0889,409.1689,224.708,409.208z"/>
	<path fill="#22A87E" d="M179.9785,405.1885c-1.3501-0.2803-2.6699,0.5801-2.96,1.9297c-0.2803,1.3506,0.5801,2.6807,1.9302,2.96
		c0.1699,0.04,0.3496,0.0605,0.5195,0.0605c1.1504,0,2.1904-0.8105,2.4404-1.9902
		C182.1987,406.7988,181.3286,405.4688,179.9785,405.1885z"/>
	<path fill="#22A87E" d="M202.2285,408.5186c-1.3799-0.1201-2.5898,0.8896-2.7202,2.2695c-0.1196,1.3701,0.9004,2.5908,2.27,2.71
		c0.0801,0.0107,0.1504,0.0107,0.23,0.0107c1.2803,0,2.3701-0.9805,2.48-2.2803
		C204.6187,409.8584,203.5986,408.6387,202.2285,408.5186z"/>
	<path fill="#22A87E" d="M292.9287,53.4287c-1.2598-0.5601-2.7402,0.0098-3.2998,1.27c-0.5605,1.2598,0.0098,2.7397,1.2695,3.2998
		c0.3301,0.1499,0.6699,0.2197,1.0098,0.2197c0.96,0,1.8701-0.5596,2.29-1.4897C294.7588,55.4683,294.1885,53.9883,292.9287,53.4287
		z"/>
	<path fill="#22A87E" d="M310.9189,68.4683c0.4092,0.25,0.8496,0.3701,1.2998,0.3701c0.8398,0,1.6602-0.4297,2.1396-1.21
		c0.71-1.1797,0.3398-2.71-0.8398-3.4297c-1.1797-0.7202-2.7197-0.3403-3.4404,0.8398
		C309.3584,66.2183,309.7383,67.7583,310.9189,68.4683z"/>
	<path fill="#22A87E" d="M393.0986,262.7285c-1.3301-0.3496-2.7002,0.4502-3.0498,1.7803c-0.3506,1.3398,0.4395,2.71,1.7793,3.0596
		c0.21,0.0605,0.4199,0.0801,0.6299,0.0801c1.1104,0,2.1201-0.7402,2.4209-1.8604
		C395.2285,264.4482,394.4385,263.0889,393.0986,262.7285z"/>
	<path fill="#22A87E" d="M384.3984,149.9087c-1.2803,0.5098-1.9004,1.9697-1.3799,3.25c0.3896,0.9697,1.3301,1.5596,2.3203,1.5596
		c0.3096,0,0.6299-0.0596,0.9395-0.1797c1.2803-0.52,1.8906-1.98,1.3799-3.2603
		C387.1387,149.9985,385.6787,149.3887,384.3984,149.9087z"/>
	<path fill="#22A87E" d="M329.4482,81.4185c0.46,0.3701,1.0098,0.5498,1.5498,0.5498c0.7402,0,1.46-0.3198,1.96-0.9399
		c0.8604-1.0796,0.6807-2.6499-0.3896-3.5098c-1.0801-0.8701-2.6602-0.6899-3.5195,0.3901
		C328.1885,78.9883,328.3682,80.5586,329.4482,81.4185z"/>
	<path fill="#22A87E" d="M81.3486,333.3486c-1.0503,0.8896-1.1802,2.4697-0.2803,3.5195c0.4902,0.5801,1.1899,0.8799,1.8999,0.8799
		c0.5703,0,1.1504-0.1895,1.6201-0.5898c1.0503-0.8994,1.1802-2.4697,0.2803-3.5293
		C83.9785,332.5781,82.3984,332.4482,81.3486,333.3486z"/>
	<path fill="#22A87E" d="M271.1084,45.3887c-1.3203-0.3901-2.71,0.3599-3.1104,1.6797c-0.3896,1.3301,0.3604,2.7202,1.6904,3.1104
		c0.2305,0.0698,0.4697,0.1099,0.71,0.1099c1.0801,0,2.0703-0.71,2.4004-1.79C273.1885,47.1685,272.4287,45.7783,271.1084,45.3887z"
		/>
	<path fill="#22A87E" d="M225.2988,38.0083c-1.3799-0.0498-2.5303,1.0303-2.5801,2.4204c-0.04,1.3696,1.04,2.5298,2.4199,2.5698
		c0.0303,0,0.0596,0,0.0801,0c1.3496,0,2.46-1.0601,2.5-2.4199C227.7588,39.1987,226.6787,38.0483,225.2988,38.0083z"/>
	<path fill="#22A87E" d="M67.8984,314.7686c-1.1602,0.75-1.4897,2.2998-0.7397,3.46c0.48,0.7402,1.2798,1.1396,2.0996,1.1396
		c0.4702,0,0.9404-0.1299,1.3604-0.4102c1.1597-0.75,1.4897-2.2998,0.7397-3.4492
		C70.5986,314.3486,69.0483,314.0186,67.8984,314.7686z"/>
	<path fill="#22A87E" d="M202.2983,43.7183c0.0801,0,0.1602-0.0098,0.2402-0.0098c1.3701-0.1299,2.3799-1.3599,2.25-2.73
		s-1.3501-2.3799-2.7202-2.25c-1.3799,0.1299-2.3799,1.3501-2.25,2.7202C199.9385,42.7485,201.0283,43.7183,202.2983,43.7183z"/>
	<path fill="#22A87E" d="M386.1387,284.5781c-1.2803-0.5195-2.7402,0.1006-3.2598,1.3799c-0.5205,1.2705,0.0996,2.7305,1.3691,3.25
		c0.3105,0.1309,0.6309,0.1904,0.9502,0.1904c0.9902,0,1.9199-0.5898,2.3105-1.5596
		C388.0381,286.5586,387.4189,285.0986,386.1387,284.5781z"/>
	<path fill="#22A87E" d="M248.4385,40.2285c-1.3604-0.23-2.6396,0.7002-2.8604,2.0698c-0.2295,1.3604,0.7002,2.6401,2.0703,2.8604
		c0.1299,0.02,0.2598,0.0298,0.3896,0.0298c1.21,0,2.2705-0.8701,2.4707-2.1001C250.7285,41.7285,249.7988,40.4385,248.4385,40.2285
		z"/>
	<path fill="#22A87E" d="M394.4385,196.8286c0.1602,1.2598,1.2402,2.1797,2.4805,2.1797c0.0996,0,0.21-0.0098,0.3193-0.02
		c1.3701-0.1797,2.3301-1.4297,2.1602-2.7998c-0.1797-1.3701-1.4297-2.3398-2.7998-2.1602
		C395.2285,194.1987,394.2686,195.4585,394.4385,196.8286z"/>
	<path fill="#22A87E" d="M398.3682,216.8887c-1.3799,0-2.5,1.1196-2.5,2.5c0,0.0601,0,0.1196,0,0.1797s0,0.1304,0,0.2002
		c-0.0098,1.3799,1.1104,2.5,2.4902,2.5h0.0098c1.3799,0,2.4902-1.1104,2.5-2.4902c0-0.0698,0-0.1299-0.0098-0.1997
		c0.0098-0.0601,0.0098-0.1299,0.0098-0.1899C400.8682,218.0083,399.748,216.8887,398.3682,216.8887z"/>
	<path fill="#22A87E" d="M156.4585,389.6582c0.2798,0.1006,0.5801,0.1504,0.8599,0.1504c1.02,0,1.98-0.6201,2.3501-1.6299
		c0.48-1.29-0.1802-2.7305-1.48-3.21c-1.29-0.4805-2.73,0.1797-3.21,1.4795C154.4985,387.7383,155.1587,389.1787,156.4585,389.6582z
		"/>
	<path fill="#22A87E" d="M391.9287,171.5786c-1.3398,0.3501-2.1406,1.7197-1.79,3.0498c0.2998,1.1201,1.3096,1.8701,2.4199,1.8701
		c0.21,0,0.4199-0.0303,0.6299-0.0801c1.3398-0.3501,2.1396-1.7197,1.79-3.0498
		C394.6289,172.0283,393.2686,171.2285,391.9287,171.5786z"/>
	<path fill="#22A87E" d="M118.2383,364.0186c-1.1299-0.79-2.6899-0.5205-3.48,0.6104c-0.7998,1.1396-0.52,2.6895,0.6104,3.4893
		c0.4297,0.3008,0.9297,0.4502,1.4297,0.4502c0.79,0,1.5601-0.3701,2.0503-1.0703
		C119.6387,366.3682,119.3687,364.8086,118.2383,364.0186z"/>
	<path fill="#22A87E" d="M347.9688,97.3887c0.6299,0,1.2598-0.23,1.7393-0.7002c0.9902-0.96,1.0205-2.5498,0.0605-3.54
		c-0.96-0.9897-2.54-1.0098-3.54-0.0498c-0.9902,0.96-1.0098,2.54-0.0498,3.5298
		C346.6689,97.1387,347.3184,97.3887,347.9688,97.3887z"/>
	<path fill="#22A87E" d="M399.3486,242.9688c0.1797-1.3701-0.79-2.6201-2.1602-2.7998c-1.3701-0.1807-2.6201,0.7891-2.7998,2.1592
		c-0.1807,1.3701,0.79,2.6201,2.1602,2.8008c0.1094,0.0098,0.2197,0.0195,0.3301,0.0195
		C398.1084,245.1484,399.1885,244.2285,399.3486,242.9688z"/>
	<path fill="#22A87E" d="M178.7383,396.2988c0.1904,0.04,0.3804,0.0596,0.5601,0.0596c1.1401,0,2.1699-0.7803,2.4399-1.9395
		c0.3101-1.3506-0.5396-2.6904-1.8799-3c-1.3501-0.3105-2.6899,0.5391-3,1.8799
		C176.5483,394.6484,177.3887,395.9883,178.7383,396.2988z"/>
	<path fill="#22A87E" d="M362.8486,114.8486c0.5195,0,1.04-0.1602,1.4902-0.5c1.1094-0.8301,1.3301-2.3901,0.5-3.5h0.0098
		c-0.8301-1.1104-2.4004-1.3301-3.5-0.5c-1.1104,0.8198-1.3398,2.3896-0.5098,3.4897
		C361.3281,114.4985,362.0781,114.8486,362.8486,114.8486z"/>
	<path fill="#22A87E" d="M224.7686,395.7881c-1.3799,0.04-2.46,1.1904-2.4199,2.5703c0.04,1.3496,1.1494,2.4297,2.5,2.4297
		c0.0195,0,0.0498,0,0.0703,0c1.3799-0.0498,2.4697-1.1992,2.4297-2.5801C227.2988,396.8281,226.1484,395.7383,224.7686,395.7881z"
		/>
	<path fill="#22A87E" d="M373.1982,132.7886c0.4502,0.8101,1.2998,1.27,2.1699,1.27c0.4199,0,0.8398-0.1001,1.2305-0.3203
		c1.2002-0.6797,1.6299-2.21,0.9502-3.4097c-0.6807-1.2002-2.2002-1.6299-3.4102-0.9502c-1.2002,0.6802-1.6299,2.21-0.9502,3.4102
		C373.1982,132.7886,373.1982,132.7886,373.1982,132.7886z"/>
	<path fill="#22A87E" d="M97.0586,350.0586c-0.9302,1.0195-0.8599,2.5996,0.1597,3.5303c0.4805,0.4395,1.0801,0.6494,1.6802,0.6494
		c0.6802,0,1.3599-0.2695,1.8501-0.8096c0.9302-1.0303,0.8599-2.6104-0.1602-3.54
		C99.5684,348.958,97.9883,349.0381,97.0586,350.0586z"/>
	<path fill="#22A87E" d="M311.9287,375.1182c0.4395,0,0.8896-0.1201,1.2998-0.3594c1.1797-0.7207,1.5498-2.2607,0.8398-3.4404
		c-0.7197-1.1797-2.25-1.5596-3.4395-0.8398c-1.1807,0.71-1.5508,2.25-0.8408,3.4297
		C310.2588,374.6885,311.0889,375.1182,311.9287,375.1182z"/>
	<path fill="#22A87E" d="M332.3086,361.4688c1.0801-0.8604,1.2598-2.4404,0.3994-3.5205c-0.8594-1.0801-2.4297-1.25-3.5098-0.3896
		c-1.0898,0.8496-1.2695,2.4297-0.4102,3.5098c0.5,0.6201,1.2305,0.9404,1.96,0.9404
		C331.2988,362.0088,331.8486,361.8389,332.3086,361.4688z"/>
	<path fill="#22A87E" d="M290.5684,380.9189c-1.2598,0.5596-1.8301,2.0391-1.2803,3.2998c0.4199,0.9297,1.3301,1.4893,2.29,1.4893
		c0.3408,0,0.6807-0.0693,1.0107-0.21c1.2695-0.5596,1.8398-2.04,1.2793-3.2998
		C293.3086,380.9385,291.8389,380.3682,290.5684,380.9189z"/>
	<path fill="#22A87E" d="M51.7886,274.8184c-0.4302-1.3096-1.8501-2.0195-3.1499-1.5898c-1.3203,0.4404-2.0303,1.8496-1.6001,3.1602
		c0.3501,1.0498,1.3301,1.7197,2.3799,1.7197c0.2603,0,0.52-0.04,0.7803-0.1299C51.5083,277.5381,52.2285,276.1289,51.7886,274.8184
		z"/>
	<path fill="#22A87E" d="M135.2085,380.208c0.3799,0.1904,0.77,0.2803,1.1602,0.2803c0.8999,0,1.77-0.4902,2.2197-1.3398
		c0.6401-1.2197,0.1699-2.7295-1.0498-3.3701c-1.23-0.6396-2.7402-0.1699-3.3799,1.0498
		C133.5186,378.0488,133.9883,379.5586,135.2085,380.208z"/>
	<path fill="#22A87E" d="M48.7383,165.1987c0.27,0.0898,0.5303,0.1299,0.79,0.1299c1.0503,0,2.0303-0.6699,2.3701-1.71
		c0.4399-1.3101-0.27-2.73-1.5801-3.1699c-1.3101-0.4302-2.7197,0.2798-3.1597,1.5898
		C46.7183,163.3486,47.4287,164.7583,48.7383,165.1987z"/>
	<path fill="#22A87E" d="M40.6187,210.2383c0.0601,0,0.1099,0,0.1699,0c1.2998,0,2.3999-1.0098,2.4897-2.3398
		c0.0903-1.3701-0.96-2.5601-2.3398-2.6499c-1.3701-0.0898-2.5601,0.9502-2.6499,2.3301S39.2485,210.1484,40.6187,210.2383z"/>
	<path fill="#22A87E" d="M43.1685,250.958c-1.3599,0.2607-2.2397,1.5703-1.98,2.9307c0.23,1.2002,1.2798,2.0303,2.4502,2.0303
		c0.1597,0,0.3198-0.0205,0.48-0.0508c1.3496-0.2598,2.2397-1.5693,1.98-2.9297C45.8384,251.5889,44.5186,250.6982,43.1685,250.958z
		"/>
	<path fill="#22A87E" d="M40.9185,233.1689c1.3799-0.0908,2.4199-1.2803,2.3398-2.6504c-0.0898-1.3799-1.2798-2.4297-2.6499-2.3398
		c-1.3799,0.0801-2.4297,1.2695-2.3398,2.6494c0.0801,1.3203,1.1802,2.3408,2.4897,2.3408
		C40.8086,233.1689,40.8687,233.1689,40.9185,233.1689z"/>
	<path fill="#22A87E" d="M247.2783,393.6787c-1.3594,0.21-2.29,1.4902-2.0801,2.8594c0.2002,1.2305,1.2598,2.1104,2.4707,2.1104
		c0.1299,0,0.2598-0.0098,0.3896-0.0303c1.3701-0.2197,2.2998-1.5,2.0801-2.8701
		C249.9189,394.3887,248.6387,393.458,247.2783,393.6787z"/>
	<path fill="#22A87E" d="M44.1885,182.5483c-1.3599-0.27-2.6699,0.6201-2.9302,1.98c-0.27,1.3501,0.6201,2.6602,1.9702,2.9302
		c0.1699,0.0298,0.3301,0.04,0.48,0.04c1.1699,0,2.2202-0.8198,2.46-2.02C46.4287,184.1284,45.5386,182.8086,44.1885,182.5483z"/>
	<path fill="#22A87E" d="M269.3281,388.6982c-1.3193,0.3906-2.0801,1.7803-1.6895,3.1104c0.3193,1.0801,1.3193,1.79,2.3994,1.79
		c0.2305,0,0.4707-0.0303,0.7002-0.1006c1.3301-0.3896,2.0898-1.7793,1.7002-3.0996
		C272.0488,389.0684,270.6582,388.3086,269.3281,388.6982z"/>
	<path fill="#22A87E" d="M67.3486,120.2686c-0.7603,1.1499-0.4302,2.6997,0.7197,3.46c0.4302,0.27,0.8999,0.3999,1.3701,0.3999
		c0.8198,0,1.6201-0.3901,2.1001-1.1299c0.75-1.1499,0.4199-2.7002-0.73-3.46C69.6484,118.7886,68.0986,119.1084,67.3486,120.2686z"
		/>
	<path fill="#22A87E" d="M377.3789,308.748c0.6797-1.1992,0.2598-2.7295-0.9404-3.4092c-1.21-0.6807-2.7305-0.2607-3.4102,0.9492
		c-0.6797,1.1904-0.2598,2.7207,0.9404,3.4004c0.3896,0.2197,0.8096,0.3301,1.2295,0.3301
		C376.0684,310.0186,376.9189,309.5586,377.3789,308.748z"/>
	<path fill="#22A87E" d="M364.6484,328.1885c0.8301-1.0996,0.5996-2.6699-0.5-3.5c-1.1104-0.8301-2.6699-0.5996-3.5,0.5
		c-0.8301,1.1104-0.6104,2.6699,0.5,3.5c0.4502,0.3398,0.9697,0.5,1.4902,0.5
		C363.4082,329.1885,364.1582,328.8486,364.6484,328.1885z"/>
	<path fill="#22A87E" d="M136.6787,63.1284c0.3896,0,0.7896-0.0898,1.1597-0.29c1.2202-0.6396,1.7002-2.1499,1.0601-3.3701
		c-0.6401-1.23-2.1499-1.6997-3.3701-1.0596c-1.23,0.6396-1.6997,2.1499-1.0601,3.3696
		C134.9087,62.6387,135.7783,63.1284,136.6787,63.1284z"/>
	<path fill="#22A87E" d="M59.2485,139.3286c-1.2402-0.6001-2.7402-0.0801-3.3398,1.1699c-0.6001,1.2397-0.0801,2.73,1.1597,3.3301
		c0.3501,0.1699,0.73,0.25,1.0903,0.25c0.9297,0,1.8198-0.52,2.25-1.4102C61.0083,141.4287,60.4883,139.9287,59.2485,139.3286z"/>
	<path fill="#22A87E" d="M179.6587,47.3384c0.1899,0,0.3696-0.02,0.5596-0.0698c1.3403-0.3003,2.1904-1.6401,1.8804-2.9902
		c-0.3003-1.3398-1.6401-2.1899-2.9902-1.8799c-1.3501,0.3003-2.1899,1.6401-1.8799,2.9902
		C177.4883,46.5483,178.5186,47.3384,179.6587,47.3384z"/>
	<path fill="#22A87E" d="M201.6885,400.0186c0.0801,0.0098,0.1602,0.0098,0.2402,0.0098c1.2798,0,2.3599-0.9697,2.4897-2.2598
		c0.1299-1.3799-0.8701-2.5996-2.25-2.7305c-1.3701-0.1299-2.5898,0.8701-2.73,2.25
		C199.3086,398.6582,200.3184,399.8789,201.6885,400.0186z"/>
	<path fill="#22A87E" d="M157.6587,53.8384c0.29,0,0.5796-0.0498,0.8599-0.1499c1.2998-0.48,1.96-1.9199,1.4897-3.21
		c-0.48-1.2998-1.9199-1.96-3.21-1.4902c-1.2998,0.48-1.96,1.9204-1.4897,3.2104
		C155.6787,53.2183,156.6387,53.8384,157.6587,53.8384z"/>
	<path fill="#22A87E" d="M56.9287,294.6289c-1.25,0.5898-1.77,2.0898-1.1704,3.3291c0.4302,0.9004,1.3203,1.4209,2.25,1.4209
		c0.3604,0,0.73-0.0801,1.0801-0.25c1.25-0.6006,1.77-2.0908,1.1699-3.3408C59.6587,294.5488,58.1685,294.0283,56.9287,294.6289z"/>
	<path fill="#22A87E" d="M115.6387,70.4683c-1.1304,0.79-1.4102,2.3501-0.6201,3.4805c0.4897,0.6997,1.2598,1.0698,2.0498,1.0698
		c0.5,0,1-0.1401,1.4302-0.4502c1.1401-0.79,1.4102-2.3501,0.6201-3.48S116.7686,69.6787,115.6387,70.4683z"/>
	<path fill="#22A87E" d="M81.2783,101.6587c-0.8999,1.0498-0.77,2.6299,0.27,3.52c0.48,0.3999,1.0503,0.5996,1.6304,0.5996
		c0.6997,0,1.4097-0.2998,1.8999-0.8799c0.8999-1.0498,0.77-2.6201-0.2803-3.52C83.7485,100.4785,82.1685,100.6084,81.2783,101.6587
		z"/>
	<path fill="#22A87E" d="M97.4585,84.9683c-1.02,0.9302-1.1001,2.5103-0.1699,3.5303c0.4897,0.54,1.1699,0.8198,1.8501,0.8198
		c0.5996,0,1.1997-0.21,1.6797-0.6499c1.0303-0.9199,1.1001-2.5098,0.1699-3.5298C100.0684,84.1187,98.4883,84.0386,97.4585,84.9683
		z"/>
	<path fill="#22A87E" d="M349.5381,345.8584c0.96-0.9902,0.9404-2.5703-0.0498-3.5303c-0.9902-0.9697-2.5693-0.9395-3.5303,0.0508
		c-0.9697,0.9893-0.9395,2.5693,0.0508,3.5293c0.4795,0.4707,1.1094,0.71,1.7393,0.71
		C348.3984,346.6182,349.0488,346.3682,349.5381,345.8584z"/>
</g>
</svg>
