<?xml version="1.0" encoding="utf-8"?>
<!-- Generator: Adobe Illustrator 21.0.0, SVG Export Plug-In . SVG Version: 6.00 Build 0)  -->
<svg version="1.1" id="Filled_Circle_with_Gear_Border_Design"
	 xmlns="http://www.w3.org/2000/svg" xmlns:xlink="http://www.w3.org/1999/xlink" x="0px" y="0px" viewBox="0 0 442.4928 443.5954"
	 enable-background="new 0 0 442.4928 443.5954" xml:space="preserve">
<g id="change1">
	<path id="filled-circle-with-gear-border-design-1" fill="#8870FF" d="M429.078,206.1276l-0.0164-0.0045
	c-4.3873-1.1903-7.6343-4.9078-8.1945-9.4191c-1.2931-10.413-3.3776-20.5801-6.2019-30.4358l6.6022-4.802
	c6.6941-4.8689,9.2513-13.6469,6.2193-21.3491l-0.0213-0.0541c-3.0439-7.7324-10.9442-12.4161-19.1888-11.3759l-0.4886,0.0616
	c-4.5034,0.5681-8.9249-1.6198-11.154-5.5738c-4.2875-7.6055-9.0571-14.9026-14.2645-21.8531
	c-2.7213-3.6322-2.9466-8.5585-0.6151-12.4524l0.1697-0.2833c4.2407-7.0826,3.1738-16.134-2.5976-22.0364l-0.0806-0.0824
	c-5.7963-5.928-14.8694-7.1826-22.0569-3.0501l-0.2944,0.1693c-3.9803,2.2885-8.9265,1.8901-12.5563-0.9214
	c-6.0974-4.7227-12.4735-9.1021-19.0995-13.1107c-3.8852-2.3504-5.9576-6.8205-5.2626-11.3078l0.0759-0.4904
	c1.2646-8.1649-3.1348-16.1559-10.7103-19.454l-0.0721-0.0314c-7.5966-3.3073-16.4685-1.0549-21.5674,5.4756l-0.3021,0.387
	c-2.7902,3.5735-7.4593,5.1355-11.8253,3.9135c-8.216-2.2996-16.6439-4.091-25.2487-5.3373
	c-4.4904-0.6504-8.1268-3.9818-9.2246-8.3842l-0.136-0.5453c-2.0021-8.0291-9.1744-13.6926-17.4489-13.7785l-0.0771-0.0008
	c-8.2766-0.0859-15.5651,5.4331-17.7267,13.4229l-0.1492,0.5514c-1.1886,4.3934-4.9114,7.6423-9.4282,8.203
	c-7.7047,0.9564-15.2751,2.3448-22.684,4.1469c-4.4314,1.0779-9.0779-0.5692-11.753-4.2629l-0.5604-0.7739
	c-4.8721-6.7276-13.7039-9.266-21.4047-6.152l-0.0112,0.0046c-7.683,3.1068-12.3151,10.9932-11.2869,19.2165l0.0904,0.7231
	c0.5635,4.507-1.6332,8.9279-5.5936,11.1518c-7.5669,4.249-14.8292,8.9756-21.7504,14.1346
	c-3.6381,2.7117-8.563,2.9269-12.4512,0.588L88.51,60.8222c-7.106-4.2744-16.204-3.1987-22.1172,2.6151l-0.0948,0.0932
	c-5.884,5.7851-7.1301,14.8091-3.034,21.9722l0.1329,0.2324c2.2568,3.9467,1.9169,8.8686-0.8788,12.4537
	c-4.8267,6.1895-9.2988,12.6683-13.3869,19.4066c-2.3538,3.8798-6.8244,5.9443-11.3082,5.2458l-0.056-0.0087
	c-8.1775-1.2738-16.1835,3.1354-19.4783,10.7273l-0.0662,0.1524c-3.2899,7.5808-1.0479,16.4269,5.4556,21.5256l0.033,0.0259
	c3.5662,2.7958,5.1223,7.4658,3.8922,11.8271c-2.3671,8.3917-4.2043,17.0051-5.4711,25.8033
	c-0.6461,4.4876-3.9758,8.1223-8.3738,9.2239c-8.0209,2.0089-13.6742,9.1796-13.7557,17.4478l-0.0018,0.1799
	c-0.0814,8.2697,5.4304,15.5519,13.4116,17.719l0.0206,0.0056c4.3863,1.191,7.6322,4.9081,8.1923,9.4185
	c0.9797,7.8903,2.4138,15.6392,4.2799,23.2186c1.0888,4.4224-0.6171,9.0609-4.3005,11.7396l-0.3857,0.2805
	c-6.6978,4.871-9.2485,13.6583-6.1996,21.3584l0.0246,0.0621c3.0566,7.7196,10.9505,12.3917,19.1884,11.3568l0.4778-0.0601
	c4.5014-0.5655,8.9201,1.6223,11.1481,5.5744c4.2872,7.6049,9.0563,14.9015,14.2632,21.8516
	c2.7212,3.6322,2.9465,8.5584,0.6151,12.4523l-0.166,0.2772c-4.2444,7.0888-3.1742,16.1483,2.6051,22.053l0.0895,0.0914
	c5.7941,5.92,14.8591,7.1713,22.0403,3.0423l0.3001-0.1726c3.9802-2.2885,8.9261-1.8901,12.556,0.9211
	c6.0947,4.7202,12.4678,9.0973,19.0907,13.104c3.8854,2.3506,5.9578,6.8219,5.2624,11.3096
	c-0.0251,0.1619-0.0501,0.3233-0.0751,0.4843c-1.2659,8.1689,3.1371,16.161,10.7173,19.4586l0.0934,0.0406
	c7.597,3.3049,16.4678,1.0483,21.5621-5.4853l0.2925-0.3751c2.7893-3.5773,7.4608-5.1419,11.8292-3.9196
	c8.215,2.2985,16.6417,4.0891,25.2454,5.3347c4.4904,0.6501,8.127,3.9811,9.2251,8.3834l0.131,0.5251
	c2.0044,8.0353,9.1795,13.7053,17.4604,13.7977l0.0768,0.0009c8.2698,0.0923,15.5553-5.42,17.7148-13.4033l0.1549-0.5728
	c1.1885-4.3934,4.9111-7.6423,9.4277-8.2033c7.703-0.9567,15.2719-2.3453,22.6791-4.1473c4.4305-1.0778,9.077,0.5703,11.7509,4.2638
	c1.3672,1.8885,2.7191,3.7558,3.9963,5.5201c4.4687,6.1725,12.5316,6.8115,17.92,1.4232v-0.0001
	c7.7055-3.0493,12.3722-10.9253,11.346-19.1484l-0.1013-0.8116c-0.5623-4.5062,1.6344-8.9259,5.5941-11.1492
	c7.5698-4.2504,14.8347-8.9786,21.7585-14.1397c3.6385-2.7122,8.5643-2.9271,12.4528-0.5873l0.2203,0.1326
	c7.1014,4.273,16.1942,3.2001,22.106-2.6084l0.1002-0.0984c5.8922-5.7893,7.1379-14.8245,3.0321-21.9922l-0.1207-0.2108
	c-2.2613-3.9476-1.9229-8.8734,0.8746-12.461c4.8253-6.188,9.2961-12.6653,13.3831-19.402
	c2.3535-3.8793,6.8236-5.9439,11.3071-5.246l0.0765,0.0119c8.1799,1.2733,16.1865-3.1426,19.4738-10.7404l0.0638-0.1476
	c3.28-7.5809,1.0351-16.4201-5.4646-21.5173l-0.0381-0.0299c-3.5653-2.796-5.1208-7.4653-3.8909-11.8261
	c2.3663-8.3895,4.2031-17.0006,5.4698-25.7964c0.6459-4.4854,3.9729-8.1188,8.3682-9.222l0.0145-0.0036
	c8.0158-2.012,13.6646-9.1793,13.7476-17.4434l0.0019-0.1878C442.5749,215.5778,437.0615,208.2936,429.078,206.1276z
	 M221.2464,377.0456c-85.741,0-155.2479-69.5068-155.2479-155.2479S135.5053,66.5498,221.2464,66.5498
	s155.2479,69.5068,155.2479,155.2479S306.9875,377.0456,221.2464,377.0456z"/></g>
</svg>
