<?xml version="1.0" encoding="utf-8"?>
<!-- Generator: Adobe Illustrator 21.0.0, SVG Export Plug-In . SVG Version: 6.00 Build 0)  -->
<svg version="1.1" id="Filled_Circle_with_Gear_Border_Design"
	 xmlns="http://www.w3.org/2000/svg" xmlns:xlink="http://www.w3.org/1999/xlink" x="0px" y="0px" viewBox="0 0 481.5809 482.7939"
	enable-background="new 0 0 481.5809 482.7939" xml:space="preserve">
<g id="change1">
	<path id="filled-circle-with-gear-border-design-1" fill="#60646D" d="M441.6717,253.4244l39.9092-13.4624l-2.1269-30.622
	l-41.3782-7.7657c-1.6677-8.3599-3.9045-16.6772-6.7075-24.925l32.3824-27.7352l-13.46-27.5626l-41.721,8.6707
	c-5.2663-7.9982-11.0384-15.5137-17.2633-22.5339l18.7285-37.7927l-23.0873-20.1422l-34.7549,23.8397
	c-7.1686-4.7618-14.624-9.037-22.2836-12.8465l3.1326-42.1196l-28.9457-9.933l-23.2686,35.2462
	c-9.2239-1.9045-18.5989-3.1415-28.0388-3.723L239.3586,0l-30.5363,2.1375l-7.7547,41.4821
	c-8.3494,1.6935-16.636,3.9215-24.8474,6.7183l-27.6812-32.4537L121.043,31.3982l8.6406,41.8094
	c-7.9769,5.283-15.4752,11.0748-22.4628,17.302L69.5074,71.7249l-20.0773,23.163l23.7836,34.8495
	c-4.7403,7.1796-9.037,14.6346-12.7966,22.3397l-42.0312-3.163L8.455,177.9421l35.1619,23.3135
	c-1.8897,9.2562-3.12,18.6423-3.7037,28.1398L0,242.8366l2.131,30.6179l41.3741,7.774c1.6933,8.3558,3.904,16.6683,6.7159,24.9121
	l-32.3956,27.7436l13.4907,27.55l41.7035-8.6446c5.2789,7.9936,11.0386,15.5051,17.2549,22.5204l-18.7327,37.8016l23.1132,20.1333
	l34.7547-23.8391c7.1556,4.7618,14.5979,9.0364,22.2664,12.8376l-3.137,42.1279l28.9804,9.9377l23.2293-35.2379
	c9.2287,1.8878,18.6078,3.1332,28.0541,3.6974l13.4365,40.0253l30.5358-2.1288l7.7547-41.4902
	c8.3278-1.6809,16.6193-3.9215,24.8391-6.7229l27.6725,32.4537l27.4915-13.4926l-8.6357-41.8352
	c7.9763-5.2747,15.4835-11.0664,22.4816-17.2888l37.6896,18.7798l20.101-23.1671l-23.8067-34.8279
	c4.7508-7.2055,9.0324-14.6478,12.8265-22.3483l42.0334,3.1584l9.9031-29.0275l-35.1578-23.3182
	C439.8383,272.2907,441.1007,262.888,441.6717,253.4244z M240.7905,350.3975c-60.1993,0-109.0005-48.8011-109.0005-109.0005
	c0-60.1993,48.8011-109.0005,109.0005-109.0005c60.1993,0,109.0005,48.8012,109.0005,109.0005
	C349.791,301.5963,300.9897,350.3975,240.7905,350.3975z"/></g>
</svg>
