<?xml version="1.0" encoding="utf-8"?>
<!-- Generator: Adobe Illustrator 21.0.0, SVG Export Plug-In . SVG Version: 6.00 Build 0)  -->
<svg version="1.1" id="Filled_Circle_with_Gear_Border_Design"
	 xmlns="http://www.w3.org/2000/svg" xmlns:xlink="http://www.w3.org/1999/xlink" x="0px" y="0px" viewBox="0 0 472.4174 473.5948"
	 enable-background="new 0 0 472.4174 473.5948" xml:space="preserve">
<g id="change1">
	<path fill="#8870FF" d="M236.209,150.7307c-47.4575,0-86.0669,38.6094-86.0669,86.0669c0,47.457,38.6094,86.0664,86.0669,86.0664
		c47.457,0,86.0664-38.6094,86.0664-86.0664C322.2754,189.3401,283.666,150.7307,236.209,150.7307z M308.3478,242.5401
		c-3.1777,39.9291-38.0576,69.7375-77.8981,66.5668c-39.8215-3.1691-69.5519-38.1194-66.3743-78.0485
		c3.1783-39.9374,38.0622-69.741,77.8837-66.5719C281.7996,167.6571,311.5261,202.6027,308.3478,242.5401z"/>
	<path fill="#8870FF" d="M458.0956,220.0677l-13.2614-3.598c-7.1959-1.9523-12.6522-7.8513-13.9888-15.1865
		c-0.0793-0.4351-0.1601-0.8702-0.2424-1.3052c-1.3906-7.3462,1.6105-14.8318,7.657-19.2296l11.4946-8.3604
		c7.1474-5.1985,9.8784-14.5704,6.6425-22.7947l-0.0227-0.0577c-3.2482-8.2553-11.6818-13.256-20.4834-12.1457l-13.9691,1.7623
		c-7.4543,0.9404-14.7804-2.5095-18.8026-8.8557c-0.6707-1.0582-1.3506-2.1085-2.0397-3.1507
		c-4.1143-6.2233-4.2935-14.2518-0.4611-20.6525l7.1331-11.9133c4.5278-7.5622,3.3895-17.2262-2.7716-23.5293l-0.086-0.088
		c-6.1868-6.3294-15.8729-7.6696-23.5458-3.2579l-11.9129,6.8495c-6.4709,3.7205-14.5118,3.4123-20.6515-0.8327
		c-0.3405-0.2354-0.6816-0.4697-1.0234-0.7029c-6.1599-4.2034-9.3345-11.5873-8.1931-18.957l2.131-13.7594
		c1.3501-8.7171-3.3499-17.2477-11.4399-20.7638l-0.077-0.0335c-8.1126-3.5259-17.5829-1.1183-23.0267,5.8539l-8.4952,10.8804
		c-4.6125,5.9076-12.2136,8.6248-19.5272,6.9863c-1.1942-0.2675-2.3912-0.5239-3.5908-0.7692
		c-7.316-1.4956-13.1213-7.059-14.928-14.3044l-3.3522-13.4431c-2.1385-8.5759-9.8027-14.6227-18.6408-14.7069l-0.0823-0.0008
		c-8.8325-0.0842-16.6071,5.808-18.9138,14.3343l-3.6178,13.3721c-1.9469,7.1961-7.8408,12.6548-15.1735,13.9991
		c-0.3963,0.0726-0.7925,0.1465-1.1887,0.2217c-7.3659,1.3971-14.8723-1.6138-19.2697-7.686l-8.2863-11.4419
		c-5.2034-7.185-14.6172-9.9257-22.8641-6.6566l-0.0112,0.0045c-8.2225,3.2595-13.1998,11.6673-12.1025,20.4439l1.77,14.1565
		c0.9288,7.4292-2.5009,14.7302-8.8149,18.7536c-1.0439,0.6652-2.0799,1.3393-3.108,2.0222
		c-6.2415,4.1461-14.3079,4.3312-20.7288,0.4688l-11.738-7.0607c-7.5855-4.5628-17.2975-3.413-23.6078,2.795l-0.1016,0.0999
		c-6.2807,6.1789-7.6096,15.814-3.2361,23.4623l6.9129,12.0892c3.6917,6.4559,3.3841,14.4651-0.8385,20.5869
		c-0.2461,0.3568-0.491,0.7143-0.7346,1.0726c-4.2029,6.1807-11.6052,9.3659-18.9905,8.2155l-13.5812-2.1156
		c-8.7289-1.3597-17.2742,3.3488-20.7878,11.454l-0.0706,0.1627c-3.5098,8.0964-1.114,17.5416,5.8307,22.9861l10.9017,8.5468
		c5.8809,4.6105,8.5887,12.1876,6.961,19.4808c-1.1486,5.1467-2.0942,10.3482-2.8387,15.6011l-25.6193,6.4166
		c-8.5637,2.1448-14.5998,9.8005-14.6874,18.6282l-0.0019,0.1921c-0.0877,8.8287,5.7964,16.6033,14.3169,18.9169l13.2789,3.6057
		c7.1964,1.9541,12.6512,7.8556,13.9861,15.1921c0.0784,0.4307,0.1582,0.8615,0.2396,1.2921
		c1.3873,7.3447-1.6141,14.8273-7.6592,19.2236l-11.4925,8.358c-7.1544,5.203-9.8835,14.5865-6.6356,22.815l0.0262,0.0663
		c3.2529,8.241,11.675,13.2318,20.4657,12.1273l13.9871-1.7572c7.4516-0.9362,14.7732,2.5142,18.7933,8.8577
		c0.669,1.0556,1.3469,2.1033,2.0338,3.1429c4.1115,6.223,4.2898,14.2491,0.4583,20.6484l-7.1346,11.9159
		c-4.5307,7.567-3.3878,17.2377,2.7821,23.54l0.0956,0.0977c6.1877,6.3206,15.8671,7.6561,23.5353,3.2472l11.9163-6.8514
		c6.4722-3.7212,14.5146-3.4119,20.6546,0.8351c0.3365,0.2328,0.6738,0.4645,1.0117,0.6952
		c6.1586,4.2039,9.3316,11.5877,8.1898,18.9564l-2.1315,13.7548c-1.3512,8.7192,3.3509,17.2522,11.4438,20.7673l0.0972,0.0423
		c8.1163,3.5252,17.5895,1.1124,23.0305-5.8659l8.4693-10.8622c4.6091-5.9113,12.2095-8.6335,19.5248-6.9988
		c1.1955,0.2672,2.3939,0.5232,3.595,0.7681c7.3201,1.4922,13.1299,7.0565,14.9381,14.3049l3.3539,13.4455
		c2.1386,8.5731,9.7995,14.6185,18.6349,14.7053l0.082,0.0009c8.8348,0.0867,16.6125-5.8063,18.9196-14.335l3.6179-13.3745
		c1.9458-7.193,7.8351-12.6505,15.1638-13.9979c0.3942-0.0725,0.7882-0.1462,1.1823-0.2212
		c7.3697-1.4019,14.8821,1.61,19.2813,7.6866l8.2798,11.4368c5.2005,7.1833,14.6096,9.9264,22.8556,6.6631l0.0001-0.0001
		c8.2266-3.2556,13.2089-11.6642,12.1133-20.4434l-1.7682-14.17c-0.9276-7.4326,2.5074-14.7353,8.8268-18.7563
		c1.0464-0.6658,2.0851-1.3407,3.1158-2.0244c6.2408-4.1394,14.3024-4.3203,20.7191-0.4592l11.7307,7.0586
		c7.5826,4.5626,17.2917,3.4163,23.6033-2.7867l0.1048-0.103c6.2902-6.182,7.6196-15.8288,3.2358-23.4818l-6.9065-12.0571
		c-3.7006-6.4604-3.3932-14.4794,0.8361-20.6068c0.2463-0.3569,0.4915-0.7146,0.7355-1.073
		c4.2039-6.1754,11.6021-9.3575,18.9837-8.2086l13.5988,2.1168c8.7343,1.3596,17.2835-3.3563,20.7924-11.4696l0.0682-0.1577
		c3.5001-8.0929,1.1031-17.5282-5.8352-22.9692l-10.9164-8.5607c-5.8836-4.614-8.5893-12.1973-6.9557-19.4937
		c0.2762-1.2335,0.5409-2.4701,0.7938-3.7095c1.4912-7.3063,7.0431-13.1066,14.2757-14.9221l13.3964-3.3625
		c8.558-2.1481,14.5889-9.8001,14.6777-18.6231l0.002-0.2005C472.5054,230.1572,466.6191,222.3802,458.0956,220.0677z
		 M236.209,330.864c-51.8687,0-94.0669-42.1982-94.0669-94.0664c0-51.8687,42.1982-94.0669,94.0669-94.0669
		c51.8682,0,94.0664,42.1982,94.0664,94.0669C330.2754,288.6658,288.0771,330.864,236.209,330.864z"/>
</g>
</svg>
