<?xml version="1.0" encoding="utf-8"?>
<!-- Generator: Adobe Illustrator 21.0.0, SVG Export Plug-In . SVG Version: 6.00 Build 0)  -->
<svg version="1.1" id="Filled_Star_Shaped_Design" xmlns="http://www.w3.org/2000/svg" xmlns:xlink="http://www.w3.org/1999/xlink"
	 x="0px" y="0px" viewBox="0 0 499.999 433.0118" enable-background="new 0 0 499.999 433.0118" xml:space="preserve">
<g id="change1">
	<polygon id="filled-star-shaped-design-2" fill="#FCB941" points="379.903,141.506 374.9993,0 249.9995,66.5062 124.9998,0 
		120.0959,141.506 0,216.5059 120.0959,291.5058 124.9998,433.0118 249.9995,366.5056 374.9993,433.0118 379.903,291.5058 
		499.999,216.5059 	"/>
</g>
<g id="change2">
	<path fill="#FFDEA9" d="M360.3867,152.774l-4.167-120.2466L249.9995,89.0421L143.7793,32.5274l-4.1665,120.2466L37.5596,216.5059
		l102.0532,63.7324l4.1665,120.2461l106.2202-56.5137l106.2202,56.5137l4.167-120.2461l102.0527-63.7324L360.3867,152.774z
		 M350.5762,274.5743l-3.7959,109.5605l-96.7808-51.4922l-96.7808,51.4922l-3.7964-109.5605l-92.9839-58.0684l92.9839-58.0684
		l3.7964-109.5605l96.7808,51.4922l96.7808-51.4922l3.7959,109.5605l92.9844,58.0684L350.5762,274.5743z"/>
	<path fill="#FFDEA9" d="M341.3047,163.7906l-3.4473-99.4595l-87.8579,46.7451l-87.8584-46.7451l-3.4463,99.4595l-84.4116,52.7153
		l84.4116,52.7148l3.4463,99.46l87.8584-46.7441l87.8579,46.7441l3.4473-99.46l84.4111-52.7148L341.3047,163.7906z
		 M331.4941,263.5567l-3.0762,88.7744l-78.4185-41.7227l-78.4189,41.7227l-3.0762-88.7744l-75.3423-47.0508l75.3423-47.0513
		l3.0762-88.7739l78.4189,41.7227l78.4185-41.7227l3.0762,88.7739l75.3428,47.0513L331.4941,263.5567z"/>
</g>
</svg>
