<?xml version="1.0" encoding="utf-8"?>
<!-- Generator: Adobe Illustrator 21.0.0, SVG Export Plug-In . SVG Version: 6.00 Build 0)  -->
<svg version="1.1" id="star_shapped_6" xmlns="http://www.w3.org/2000/svg" xmlns:xlink="http://www.w3.org/1999/xlink" x="0px"
	 y="0px" viewBox="0 0 427.8393 427.8393" enable-background="new 0 0 427.8393 427.8393" xml:space="preserve">
<g id="change1">
	<polygon fill="#690CFF" points="0.0472,125.2641 120.7477,120.6981 125.378,0 213.9548,82.1195 302.5753,0.0472 307.1413,120.7477 
		427.8393,125.378 345.7198,213.9548 427.7921,302.5753 307.0916,307.1413 302.4614,427.8393 213.8846,345.7198 125.2641,427.7921 
		120.6981,307.0916 0,302.4614 82.1195,213.8846 	"/>
</g>
<g id="change2">
	<polygon fill="#8D52FF" points="130.9305,179.5186 177.7661,177.7468 179.5627,130.9122 213.9333,162.7771 248.3208,130.9305 
		250.0925,177.7661 296.9271,179.5627 265.0622,213.9333 296.9088,248.3208 250.0733,250.0925 248.2766,296.9271 213.9061,265.0622 
		179.5186,296.9088 177.7468,250.0733 130.9122,248.2766 162.7771,213.9061 	"/>
</g>
</svg>
