<?xml version="1.0" encoding="utf-8"?>
<!-- Generator: Adobe Illustrator 21.0.0, SVG Export Plug-In . SVG Version: 6.00 Build 0)  -->
<svg version="1.1" id="filled-star-shape" xmlns="http://www.w3.org/2000/svg" xmlns:xlink="http://www.w3.org/1999/xlink" x="0px"
	 y="0px" viewBox="0 0 486.2354 486.2349" enable-background="new 0 0 486.2354 486.2349" xml:space="preserve">
<g id="change1">
	<polygon fill="#84D0FF" points="243.1172,70.2691 304.6298,13.5493 329.5413,93.4264 411.1726,75.0619 392.8081,156.6932 
		472.6852,181.6048 415.9654,243.1173 472.6852,304.6299 392.8081,329.5414 411.1726,411.1727 329.5413,392.8082 304.6298,472.6853 
		243.1172,415.9655 181.6046,472.6853 156.6931,392.8082 75.0618,411.1727 93.4263,329.5414 13.5492,304.6299 70.269,243.1173 
		13.5492,181.6048 93.4263,156.6932 75.0618,75.0619 156.6931,93.4264 181.6046,13.5493 	"/>
</g>
<g id="change2">
	<path fill="#5200E9" d="M426.168,243.1172l60.0674-65.1426l-84.5918-26.3823l19.4482-86.4492l-86.4502,19.4482L308.2607,0
		l-65.1436,60.0674L177.9741,0l-26.3823,84.5913L65.1426,65.1431l19.4487,86.4492L0,177.9746l60.0674,65.1426L0,308.2603
		l84.5913,26.3818l-19.4487,86.4492l86.4492-19.4482l26.3823,84.5918l65.1431-60.0674l65.1436,60.0674l26.3809-84.5918
		l86.4502,19.4482l-19.4482-86.4492l84.5918-26.3818L426.168,243.1172z M449.6273,290.6867l-44.9008-12.0309l-32.7694-35.5386
		l32.7693-35.5381l44.8999-12.0307l-43.8625,47.5688L449.6273,290.6867z M348.5459,348.5464l-51.2109-11.5215l-15.6279,50.1104
		l-38.5898-35.583l-38.5898,35.583l-15.6279-50.1104l-51.2109,11.5215l11.5205-51.2109l-50.1104-15.6289l35.583-38.5894
		l-35.583-38.5898l50.1104-15.6274l-11.5205-51.2114l51.2109,11.521l15.6279-50.1108l38.5898,35.583l38.5898-35.583l15.6279,50.1108
		l51.2109-11.521l-11.5205,51.2114l50.1104,15.6274l-35.583,38.5898l35.583,38.5894l-50.1104,15.6289L348.5459,348.5464z
		 M445.7443,181.0589L400.8431,193.09l-46.1478-14.3922l10.6097-47.1614l32.8702-32.8699l-14.2015,63.128L445.7443,181.0589z
		 M387.5679,88.0598l-32.87,32.8697l-47.1618,10.61l-14.3915-46.1489L305.1755,40.49l19.265,61.7712L387.5679,88.0598z
		 M290.6876,36.6067l-12.0313,44.9021l-35.5391,32.7695l-35.538-32.7692L195.548,36.6081l47.5692,43.8626L290.6876,36.6067z
		 M161.7939,102.2612l19.2645-61.7711l12.0314,44.9017l-14.3926,46.1478l-47.1614-10.6101L98.6658,88.0597L161.7939,102.2612z
		 M88.0592,98.666l32.8701,32.8698l10.6098,47.162L85.3917,193.09L40.4902,181.059l61.7711-19.2645L88.0592,98.666z
		 M36.6078,195.5481l44.9012,12.031l32.7693,35.5381l-32.7694,35.5386l-44.9022,12.0312l43.864-47.5699L36.6078,195.5481z
		 M40.4897,305.175l44.9005-12.0308l46.1489,14.3924l-10.6097,47.1619l-32.8701,32.8694l14.2019-63.127L40.4897,305.175z
		 M98.6666,398.1745l32.87-32.8693l47.1606-10.6104l14.3926,46.1479l-12.0314,44.9013l-19.2646-61.7709L98.6666,398.1745z
		 M195.5482,449.6256l12.0309-44.8998l35.5381-32.7693l35.5391,32.7695l12.0309,44.9008l-47.5701-43.8637L195.5482,449.6256z
		 M324.4404,383.9731l-19.265,61.7708l-12.0308-44.9001l14.3914-46.1489l47.1611,10.6102l32.8699,32.8693L324.4404,383.9731z
		 M398.175,387.5674l-32.8701-32.8696l-10.6096-47.1613l46.1493-14.3923l44.9001,12.0307l-61.7711,19.2659L398.175,387.5674z"/>
</g>
</svg>
