<?xml version="1.0" encoding="utf-8"?>
<!-- Generator: Adobe Illustrator 21.0.0, SVG Export Plug-In . SVG Version: 6.00 Build 0)  -->
<svg version="1.1" id="Filled_Star_Shaped_Design" xmlns="http://www.w3.org/2000/svg" xmlns:xlink="http://www.w3.org/1999/xlink"
	 x="0px" y="0px" viewBox="0 0 440.4634 418.9062" enable-background="new 0 0 440.4634 418.9062" xml:space="preserve">
<g id="change1">
	<polygon fill="#F8BD97" points="220.2314,77.5779 285.4342,8.7798 297.7458,102.7638 390.9344,85.4302 345.6523,168.7015 
		431.2319,209.4532 345.6523,250.2049 390.9344,333.4762 297.7458,316.1426 285.4342,410.1266 220.2314,341.3285 155.0287,410.1266 
		142.7171,316.1426 49.5284,333.4762 94.8106,250.2049 9.2309,209.4532 94.8106,168.7015 49.5284,85.4302 142.7171,102.7638 
		155.0287,8.7798 	"/>
</g>
<g id="change2">
	<path fill="#FF7E55" d="M440.4634,209.4531l-80.5967-45.3701l38.5361-84.0791l-91.8721,10.6685L288.2866,0l-68.0552,62.6318
		L152.1758,0l-18.2437,90.6724L42.0605,80.0039l38.5356,84.0791L0,209.4531l80.5962,45.3701l-38.5361,84.0791l91.8721-10.6689
		l18.2437,90.6729l68.0557-62.6318l68.0552,62.6318l18.2441-90.6729l91.8721,10.6689l-38.5361-84.0791L440.4634,209.4531z
		 M296.9448,103.8657l81.667-9.4829l-34.2549,74.7397l60.9851,34.3306h-45.5372l-44.321-24.9497l26.2881-57.3545l-62.6709,7.2778
		l-12.4463-61.8521l-40.4229,37.2014V73.4182l54.4961-50.1526L296.9448,103.8657z M220.2314,293.2988l-38.8647,35.7676
		l-10.4189-51.7803l-52.4653,6.0918l22.0063-48.0146l-46.0264-25.9102l46.0264-25.9097l-22.0068-48.0156l52.4658,6.0923
		l10.4189-51.7803l38.8647,35.7671l38.8647-35.7676l10.4189,51.7808l52.4658-6.0923l-22.0068,48.0156l46.0264,25.9097
		l-46.0264,25.9102l22.0068,48.0146l-52.4658-6.0918l-10.4189,51.7803L220.2314,293.2988z M61.8511,94.3828l81.667,9.4829
		l16.2173-80.6001l54.4961,50.153v30.358l-40.4243-37.2019l-12.4453,61.8521l-62.6704-7.2778l26.2876,57.3545l-44.321,24.9497
		H35.1204l60.9855-34.3306L61.8511,94.3828z M143.5181,315.04l-81.667,9.4834l34.2549-74.7393l-60.9857-34.3311h45.5378
		l44.3209,24.9492l-26.2876,57.3545l62.6704-7.2773l12.4453,61.8525l40.4243-37.2028v30.3584l-54.4961,50.153L143.5181,315.04z
		 M378.6118,324.5234l-81.667-9.4834l-16.2168,80.6006l-54.4961-50.1526v-30.3582l40.4229,37.2022l12.4463-61.8525l62.6709,7.2773
		l-26.2881-57.3545l44.3209-24.9492h45.5374l-60.9852,34.3311L378.6118,324.5234z"/>
</g>
</svg>
