<?xml version="1.0" encoding="utf-8"?>
<!-- Generator: Adobe Illustrator 21.0.0, SVG Export Plug-In . SVG Version: 6.00 Build 0)  -->
<svg version="1.1" id="Filled_Circle_with_Four_Division"
	 xmlns="http://www.w3.org/2000/svg" xmlns:xlink="http://www.w3.org/1999/xlink" x="0px" y="0px" viewBox="0 0 495.0435 495.0435"
	 enable-background="new 0 0 495.0435 495.0435" xml:space="preserve">
<g id="change1">
	<path fill="#FACA9B" d="M247.522,7.0405C114.7078,7.0405,7.0405,114.7078,7.0405,247.522S114.7078,488.0034,247.522,488.0034
		S488.0034,380.3362,488.0034,247.522S380.3362,7.0405,247.522,7.0405z M247.522,411.9399
		c-90.8055,0-164.418-73.6124-164.418-164.418S156.7164,83.104,247.522,83.104S411.94,156.7164,411.94,247.522
		S338.3275,411.9399,247.522,411.9399z"/>
</g>
<g id="change2">
	<path fill="#FFFFFF" d="M422.5464,72.4976C375.7954,25.7466,313.6372,0,247.522,0C181.4062,0,119.248,25.7466,72.4976,72.4976
		C25.7466,119.248,0,181.4062,0,247.522c0,66.1152,25.7466,128.2734,72.4976,175.0244
		c46.7505,46.75,108.9087,72.4971,175.0244,72.4971c66.1152,0,128.2734-25.7471,175.0244-72.4971
		c46.75-46.751,72.4971-108.9092,72.4971-175.0244C495.0435,181.4062,469.2964,119.248,422.5464,72.4976z M83.104,83.104
		C127.0215,39.1865,185.4131,15,247.522,15c62.1084,0,120.5,24.1865,164.418,68.104c21.5998,21.6,38.4144,46.7065,49.9385,74.0293
		h-61.9781c-30.9321-51.9481-87.6537-86.8325-152.3783-86.8325c-64.7249,0-121.4467,34.8844-152.3787,86.8325H33.1651
		C44.6893,129.8105,61.504,104.704,83.104,83.104z M247.522,85.3008c89.4492,0,162.2207,72.772,162.2207,162.2212
		S336.9712,409.7427,247.522,409.7427S85.3008,336.9712,85.3008,247.522S158.0728,85.3008,247.522,85.3008z M27.4517,172.1333H87.16
		c-10.8042,22.8898-16.8592,48.4437-16.8592,75.3887s6.055,52.4988,16.8593,75.3887H27.4518
		C19.2709,298.9621,15,273.5719,15,247.522C15,221.4719,19.2708,196.0818,27.4517,172.1333z M411.9399,411.9399
		c-43.918,43.917-102.3086,68.1035-164.418,68.1035c-62.1089,0-120.5005-24.1865-164.418-68.1035
		c-21.5999-21.6002-38.4146-46.7067-49.9387-74.0293h61.9782c30.9321,51.9478,87.6537,86.832,152.3785,86.832
		c64.7244,0,121.446-34.8842,152.3781-86.832h61.9784C450.3543,365.2333,433.5397,390.3397,411.9399,411.9399z M407.8834,322.9106
		c10.8043-22.8898,16.8593-48.4437,16.8593-75.3887s-6.055-52.4988-16.8592-75.3887h59.7083
		c8.1808,23.9485,12.4517,49.3386,12.4517,75.3887c0,26.0502-4.2708,51.4403-12.4516,75.3887H407.8834z"/>
</g>
</svg>
