<?xml version="1.0" encoding="utf-8"?>
<!-- Generator: Adobe Illustrator 21.0.0, SVG Export Plug-In . SVG Version: 6.00 Build 0)  -->
<svg version="1.1" id="Cutout_Star_6_Shaped_Design"
	 xmlns="http://www.w3.org/2000/svg" xmlns:xlink="http://www.w3.org/1999/xlink" x="0px" y="0px" viewBox="0 0 425.3418 490.7783"
	 enable-background="new 0 0 425.3418 490.7783" xml:space="preserve">
<g id="change1">
	<path fill="#27AE60" d="M212.6709,490.7783L144.333,368.0527L0,367.7715l75.9917-122.3818L0,123.0078l144.333-0.2812L212.6709,0
		l68.3379,122.7266l144.333,0.2812l-75.9912,122.3818l75.9912,122.3818l-144.333,0.2812L212.6709,490.7783z M35.917,347.8418
		l120.1836,0.2344l56.5703,101.5928l56.5703-101.5928l120.1826-0.2344l-63.6152-102.4521l63.6152-102.4521l-120.1826-0.2339
		L212.6709,41.1104l-56.5703,101.5933L35.917,142.9375l63.6167,102.4521L35.917,347.8418z"/>
</g>
<g id="change2">
	<path fill="#66CC99" d="M212.6709,458.9473l-59.4087-106.6904l-125.6167-0.2451l66.2065-106.6221L27.6455,138.7671l125.6167-0.2446
		L212.6709,31.832l59.4082,106.6904l125.6172,0.2446l-66.2061,106.6226l66.2061,106.6221l-125.6172,0.2451L212.6709,458.9473z
		 M45.6045,342.0469l113.5415,0.2217l53.5249,96.124l53.5244-96.124l113.542-0.2217l-60.0186-96.6572l60.0186-96.6577
		l-113.542-0.2212l-53.5244-96.123l-53.5249,96.123l-113.5415,0.2212l60.0186,96.6577L45.6045,342.0469z"/>
</g>
<g id="change3">
	<path fill="#82E0AF" d="M212.6709,440.4717l-54.2764-97.4746L43.646,342.7744l60.4707-97.3848L43.646,148.0049l114.7485-0.2236
		l54.2764-97.4741l54.2773,97.4741l114.748,0.2236l-60.4707,97.3848l60.4707,97.3848l-114.749,0.2227L212.6709,440.4717z
		 M61.605,332.8096l102.6733,0.1992l48.3926,86.9082l48.3926-86.9082l102.6738-0.1992l-54.2832-87.4199l54.2832-87.4199
		l-102.6738-0.2002l-48.3926-86.9072l-48.3926,86.9072L61.605,157.9697l54.2827,87.4199L61.605,332.8096z"/>
</g>
</svg>
