<?xml version="1.0" encoding="utf-8"?>
<!-- Generator: Adobe Illustrator 20.1.0, SVG Export Plug-In . SVG Version: 6.00 Build 0)  -->
<svg version="1.1" id="Circle-lineout-D5" xmlns="http://www.w3.org/2000/svg" xmlns:xlink="http://www.w3.org/1999/xlink" x="0px"
	 y="0px" viewBox="0 0 500 500" enable-background="new 0 0 500 500" xml:space="preserve">
<g id="change1">
	<path fill="#E44A00" d="M50.5,255H0c1.3,66,28,124.8,70.5,168.7l35.7-35.6C72.8,353.4,51.9,307,50.5,255z"/>
	<path fill="#E44A00" d="M105.4,112.7L69.7,77.2C27.6,121,1.3,180,0,245h50.5C51.8,194,72.5,147.3,105.4,112.7z"/>
	<path fill="#E44A00" d="M244.8,50.5V0c-65,1.3-124,27.6-167.8,69.6l35.8,35.7C147.4,72.4,193.8,51.8,244.8,50.5z"/>
	<path fill="#E44A00" d="M77.9,431.3c43.7,41.5,101.9,67.4,166.9,68.7v-50.5c-51-1.3-96.6-21.6-131.1-53.9L77.9,431.3z"/>
	<path fill="#E44A00" d="M423.7,70.5C379.8,28,320.8,1.3,254.8,0v50.5c52,1.3,98.4,22.3,133.1,55.7L423.7,70.5z"/>
	<path fill="#E44A00" d="M254.8,449.5V500c66-1.3,124.2-27.6,168-69.7L387,394.6C352.5,427.5,305.8,448.2,254.8,449.5z"/>
	<path fill="#E44A00" d="M449.4,244.8h50.5c-1.3-64.6-27.2-123.2-68.7-166.9l-35.7,35.7C427.9,148.1,448.1,194.1,449.4,244.8z"/>
	<path fill="#E44A00" d="M439.1,250c0-102.5-82-186.3-183.9-189c-1.7,0-3.5-0.1-5.2-0.1c-1.7,0-3.5,0-5.2,0.1
		C142.9,63.7,60.9,147.5,60.9,250s82,186.3,183.9,189c1.7,0.1,3.5,0.1,5.2,0.1s3.5,0,5.2-0.1C357.1,436.3,439.1,352.5,439.1,250z"/>
	<path fill="#E44A00" d="M449.5,255c-1.4,51-21.9,97.5-54.8,132.1l35.7,35.7C472.4,379,498.7,321,500,255H449.5z"/>
</g>
</svg>
