<?xml version="1.0" encoding="utf-8"?>
<!-- Generator: Adobe Illustrator 21.0.0, SVG Export Plug-In . SVG Version: 6.00 Build 0)  -->
<svg version="1.1" id="Cutout_Circle_with_Dotted_Border"
	 xmlns="http://www.w3.org/2000/svg" xmlns:xlink="http://www.w3.org/1999/xlink" x="0px" y="0px" viewBox="0 0 492.5589 492.7625"
	 enable-background="new 0 0 492.5589 492.7625" xml:space="preserve">
<g id="change1">
	<path fill="#FE6860" d="M246.0633,442.7214c108.2671,0,196.3481-88.082,196.3481-196.3486
		c0-108.2671-88.0811-196.3486-196.3481-196.3486S49.7146,138.1057,49.7146,246.3728
		C49.7146,354.6394,137.7962,442.7214,246.0633,442.7214z M246.0633,60.0242c102.7524,0,186.3481,83.5957,186.3481,186.3486
		s-83.5957,186.3486-186.3481,186.3486c-102.7529,0-186.3486-83.5957-186.3486-186.3486S143.3103,60.0242,246.0633,60.0242z"/>
	<path fill="#FE6860" d="M52.5384,163.7727c0.6802,0.3101,1.3799,0.4497,2.0703,0.4497c1.8999,0,3.7197-1.0898,4.5596-2.9199
		c1.1401-2.52,0.0303-5.48-2.48-6.6299c-2.5098-1.1401-5.48-0.04-6.6196,2.48C48.9183,159.6628,50.0286,162.6228,52.5384,163.7727z"
		/>
	<path fill="#FE6860" d="M355.2483,66.5325c-1.4902,2.3301-0.8203,5.4199,1.5098,6.9102c0.8408,0.54,1.7705,0.79,2.7002,0.79
		c1.6406,0,3.25-0.8101,4.21-2.2998c1.4902-2.3203,0.8105-5.4102-1.5098-6.9004C359.8382,63.5325,356.7386,64.2127,355.2483,66.5325
		z"/>
	<path fill="#FE6860" d="M216.9583,449.6228c-2.73-0.3906-5.2598,1.5098-5.6499,4.25c-0.3901,2.7295,1.5103,5.2598,4.25,5.6494
		c0.23,0.04,0.4702,0.0508,0.71,0.0508c2.4502,0,4.5903-1.8008,4.9399-4.3008
		C221.5984,452.5427,219.6985,450.0125,216.9583,449.6228z"/>
	<path fill="#FE6860" d="M246.1785,451.6726c-2.7603,0-5,2.2402-5,5s2.2397,5,5,5c2.7603-0.0098,4.9995-2.2402,4.9995-5.0098
		C251.178,453.9031,248.9388,451.6628,246.1785,451.6726z"/>
	<path fill="#FE6860" d="M328.5589,52.8025c-1.1504,2.52-0.04,5.48,2.4795,6.6304c0.6699,0.2998,1.3701,0.4497,2.0605,0.4497
		c1.8994,0,3.7197-1.0898,4.5596-2.9302c1.1396-2.5195,0.0303-5.48-2.4805-6.6196
		C332.6682,49.1829,329.6985,50.2927,328.5589,52.8025z"/>
	<path fill="#FE6860" d="M104.3684,90.8928c0.9902,1.1396,2.3799,1.7197,3.7798,1.7197c1.1602,0,2.3301-0.4102,3.2803-1.23
		c2.0801-1.8101,2.2998-4.9697,0.4897-7.0498c-1.8096-2.0801-4.9697-2.3101-7.0498-0.4902
		C102.7786,85.6526,102.5584,88.8025,104.3684,90.8928z"/>
	<path fill="#FE6860" d="M401.468,104.5925c-2.0898,1.8203-2.3096,4.9702-0.4893,7.0601c0.9893,1.1299,2.3701,1.71,3.7695,1.71
		c1.1602,0,2.3301-0.3999,3.2803-1.2197c2.0801-1.8203,2.2998-4.98,0.4902-7.0601
		C406.7083,103.0027,403.5481,102.7825,401.468,104.5925z"/>
	<path fill="#FE6860" d="M42.8787,301.0427c-2.6504,0.7695-4.1602,3.5596-3.3901,6.2002c0.0098,0,0.0098,0,0.0098,0
		c0.6401,2.1797,2.6304,3.5898,4.79,3.5898c0.4702,0,0.9399-0.0605,1.4102-0.2002c2.6499-0.7803,4.1699-3.5596,3.3901-6.21
		C48.3084,301.7722,45.5286,300.2625,42.8787,301.0427z"/>
	<path fill="#FE6860" d="M304.0081,443.3826c-2.6494,0.7803-4.1699,3.5596-3.3896,6.2002c0.6396,2.1797,2.6299,3.5996,4.79,3.5996
		c0.4697,0,0.9404-0.0693,1.4102-0.21c2.6494-0.7695,4.1699-3.5498,3.3896-6.2002
		C309.428,444.1228,306.6585,442.6023,304.0081,443.3826z"/>
	<path fill="#FE6860" d="M379.718,83.9226c-1.8096,2.0898-1.5801,5.25,0.5107,7.0498c0.9395,0.8203,2.1094,1.2202,3.2695,1.2202
		c1.4004,0,2.79-0.5898,3.7803-1.73c1.8096-2.0898,1.5801-5.25-0.5098-7.0498C384.678,81.6028,381.5188,81.8328,379.718,83.9226z"/>
	<path fill="#FE6860" d="M275.388,449.5925c-2.7295,0.3896-4.6299,2.9199-4.2393,5.6602c0.3594,2.4902,2.5,4.29,4.9502,4.29
		c0.2295,0,0.4697-0.0205,0.71-0.0498c2.7295-0.3906,4.6299-2.9307,4.2393-5.6602
		C280.6585,451.0925,278.1282,449.2029,275.388,449.5925z"/>
	<path fill="#FE6860" d="M210.8484,38.9524c0.3599,2.4902,2.5,4.29,4.9399,4.29c0.2402,0,0.48-0.02,0.7202-0.0596
		c2.73-0.3901,4.6299-2.9302,4.2397-5.6602c-0.3999-2.73-2.9297-4.6299-5.6699-4.23
		C212.3484,33.6829,210.4485,36.2127,210.8484,38.9524z"/>
	<path fill="#FE6860" d="M135.1785,419.1824c-2.3301-1.5-5.4199-0.8301-6.9102,1.5c-1.5,2.3203-0.8198,5.4102,1.5,6.9004
		c0,0.0098,0,0.0098,0,0.0098c0.8301,0.5303,1.77,0.79,2.7002,0.79c1.6401,0,3.25-0.8096,4.21-2.2998
		C138.1683,423.7625,137.4983,420.6726,135.1785,419.1824z"/>
	<path fill="#FE6860" d="M71.9285,364.4226c2.3198-1.5,2.9897-4.5898,1.4897-6.9102c-1.5-2.3301-4.5898-2.9902-6.9097-1.5
		c-2.3203,1.5-2.9902,4.6006-1.4902,6.9199c0.9502,1.4805,2.5601,2.29,4.2002,2.29
		C70.1482,365.2224,71.0887,364.9626,71.9285,364.4226z"/>
	<path fill="#FE6860" d="M240.7083,36.0828c0.0103,2.7598,2.25,5,5.0103,4.9897c2.7603,0,4.9995-2.25,4.9897-5c0-2.77-2.2402-5-5-5
		C242.9383,31.0828,240.7083,33.3225,240.7083,36.0828z"/>
	<path fill="#FE6860" d="M111.7283,401.6228c-2.0898-1.8105-5.25-1.5801-7.0601,0.5c-1.8096,2.0898-1.5796,5.25,0.5103,7.0596
		c0.9399,0.8203,2.1099,1.2207,3.27,1.2207c1.3999,0,2.79-0.5908,3.7798-1.7305
		C114.0384,406.5828,113.8084,403.4324,111.7283,401.6228z"/>
	<path fill="#FE6860" d="M181.6883,46.0427c0.6504,2.1797,2.6401,3.5898,4.8003,3.5898c0.4697,0,0.9399-0.0601,1.4097-0.1997
		c2.6504-0.79,4.1704-3.5703,3.3901-6.2104c-0.79-2.6499-3.5601-4.1699-6.21-3.3896
		C182.4285,40.6126,180.9085,43.3928,181.6883,46.0427z"/>
	<path fill="#FE6860" d="M420.0686,128.1326c-2.3203,1.5-2.9805,4.5898-1.4805,6.9102c0.9502,1.48,2.5605,2.29,4.2002,2.29
		c0.9297,0,1.8701-0.2603,2.71-0.8003c2.3203-1.5,2.9805-4.5996,1.4805-6.9199
		C425.4788,127.2927,422.388,126.6326,420.0686,128.1326z"/>
	<path fill="#FE6860" d="M156.3084,50.6126c-2.5,1.1602-3.6099,4.1299-2.4497,6.6401c0.8398,1.8301,2.6499,2.9102,4.5396,2.9102
		c0.7002,0,1.4102-0.1504,2.0903-0.4604c2.5098-1.1499,3.6099-4.1196,2.46-6.6299c-1.1602-2.5098-4.1299-3.6099-6.6401-2.4497
		C156.3084,50.6126,156.3084,50.6126,156.3084,50.6126z"/>
	<path fill="#FE6860" d="M300.1585,43.0325c-0.7705,2.6602,0.7598,5.4302,3.4102,6.2002c0.46,0.1401,0.9395,0.2002,1.3994,0.2002
		c2.1602,0,4.1602-1.4204,4.8008-3.6001c0.7695-2.6499-0.75-5.4302-3.4102-6.2002
		C303.7083,38.8626,300.9388,40.3826,300.1585,43.0325z"/>
	<path fill="#FE6860" d="M90.9983,380.9226c-1.8101-2.0801-4.9697-2.3096-7.0498-0.5c-2.0898,1.8096-2.3101,4.9697-0.5,7.0596
		c0.9897,1.1406,2.3799,1.7207,3.7798,1.7207c1.1602,0,2.3301-0.4004,3.27-1.2305
		C92.5887,386.1628,92.8084,383.0125,90.9983,380.9226z"/>
	<path fill="#FE6860" d="M188.3387,443.4421c-2.6504-0.7695-5.4302,0.75-6.2002,3.4004c-0.7798,2.6504,0.75,5.4297,3.3999,6.2002
		c0.46,0.1396,0.9399,0.2002,1.3999,0.2002c2.1602,0,4.1602-1.4102,4.8003-3.6006
		C192.5086,447.0027,190.9886,444.2224,188.3387,443.4421z"/>
	<path fill="#FE6860" d="M160.8885,433.2224c-2.52-1.1494-5.48-0.04-6.6299,2.4697c-1.1499,2.5107-0.04,5.4805,2.4697,6.6309
		c0.6699,0.2998,1.3804,0.4492,2.0703,0.4492c1.8999,0,3.7197-1.0898,4.5601-2.9297
		C164.4983,437.3328,163.3982,434.3728,160.8885,433.2224z"/>
	<path fill="#FE6860" d="M270.6888,37.4426c-0.3906,2.73,1.5098,5.2598,4.25,5.6499c0.2393,0.0303,0.4697,0.0503,0.6992,0.0503
		c2.4609,0,4.6006-1.8101,4.9502-4.3101c0.3799-2.73-1.5195-5.2603-4.2598-5.6499c0.0098,0,0.0098,0,0.0098,0
		C273.5989,32.8025,271.0686,34.7024,270.6888,37.4426z"/>
	<path fill="#FE6860" d="M127.9183,72.3025c0.9605,1.48,2.5601,2.29,4.2002,2.29c0.9302,0,1.8701-0.2598,2.71-0.7998
		c2.3198-1.5,2.9902-4.6001,1.4902-6.9199c-1.5-2.3101-4.5903-2.98-6.9102-1.48C127.0887,66.8826,126.4183,69.9827,127.9183,72.3025
		z"/>
	<path fill="#FE6860" d="M54.8084,338.9324c0.7002,0,1.3999-0.1494,2.0801-0.46c2.5098-1.1494,3.6099-4.1201,2.46-6.6299
		s-4.1201-3.6104-6.6299-2.46c-2.5103,1.1504-3.6099,4.1201-2.46,6.6299C51.0984,337.8523,52.9085,338.9324,54.8084,338.9324z"/>
	<path fill="#FE6860" d="M454.2581,281.2927c2.4404,0,4.5801-1.7998,4.9404-4.29c0.3896-2.7402-1.5098-5.2705-4.2402-5.6602
		c-2.7402-0.3896-5.2695,1.5098-5.6602,4.2402c-0.3896,2.7402,1.5107,5.2695,4.25,5.6602
		C453.7786,281.2722,454.0188,281.2927,454.2581,281.2927z"/>
	<path fill="#FE6860" d="M454.1682,220.9924c0.2402,0,0.4805-0.02,0.7305-0.0596c2.7295-0.3901,4.6201-2.9302,4.2295-5.6602
		c-0.3896-2.73-2.9297-4.6299-5.6602-4.23c-2.7393,0.3901-4.6299,2.9297-4.2295,5.6597h-0.0098
		C449.5882,219.1926,451.7288,220.9924,454.1682,220.9924z"/>
	<path fill="#FE6860" d="M446.3489,181.8928c-2.6406,0.7798-4.1602,3.5596-3.3701,6.21c0.6396,2.1797,2.6299,3.5801,4.79,3.5898
		c0.4697,0,0.9395-0.0698,1.4199-0.21c2.6396-0.7803,4.1602-3.5601,3.3799-6.21
		C451.7786,182.6228,448.9983,181.1125,446.3489,181.8928z"/>
	<path fill="#FE6860" d="M447.8987,310.613c2.1699,0,4.1602-1.4209,4.7998-3.6006c0.7803-2.6494-0.7402-5.4297-3.3896-6.2002
		c-2.6504-0.7793-5.4307,0.7402-6.21,3.3906c-0.7705,2.6494,0.75,5.4297,3.3994,6.2002
		C446.968,310.5427,447.4388,310.613,447.8987,310.613z"/>
	<path fill="#FE6860" d="M380.5286,401.5125c-2.0898,1.8105-2.3105,4.96-0.5,7.0498c0.9902,1.1406,2.3799,1.7207,3.7803,1.7207
		c1.1592,0,2.3193-0.4004,3.2695-1.2207c2.0898-1.8096,2.3096-4.9697,0.5-7.0498
		C385.7688,399.9226,382.6184,399.7029,380.5286,401.5125z"/>
	<path fill="#FE6860" d="M401.2386,380.7927c-1.8105,2.0898-1.5898,5.25,0.5,7.0596c0.9502,0.8203,2.1104,1.2207,3.2695,1.2207
		c1.4004,0,2.79-0.5908,3.7803-1.7207c1.8105-2.0898,1.5898-5.25-0.5-7.0596C406.1985,378.4822,403.0481,378.7126,401.2386,380.7927
		z"/>
	<path fill="#FE6860" d="M35.7683,251.6023c2.7603,0,5-2.2393,5-4.9995c-0.0098-2.7603-2.25-5-5.0098-5
		c-2.7603,0.0098-5,2.25-4.9902,5.0098C30.7684,249.3728,33.0086,251.6023,35.7683,251.6023z"/>
	<path fill="#FE6860" d="M66.2884,137.0828c0.8301,0.54,1.77,0.7998,2.7002,0.7998c1.6401,0,3.25-0.8198,4.21-2.2998
		c1.4897-2.3301,0.8198-5.4199-1.5103-6.9102c-2.3198-1.4897-5.4097-0.8198-6.9097,1.5
		C63.2884,132.5027,63.9685,135.5925,66.2884,137.0828z"/>
	<path fill="#FE6860" d="M435.138,154.0627c-2.5098,1.1499-3.6094,4.1201-2.46,6.6299c0.8506,1.8301,2.6602,2.9102,4.5508,2.9102
		c0.6992,0,1.4092-0.1504,2.0898-0.46c2.5-1.1504,3.5996-4.1201,2.4502-6.6304C440.6184,154.0027,437.638,152.9026,435.138,154.0627
		z"/>
	<path fill="#FE6860" d="M423.0081,365.0623c1.6406,0,3.25-0.8096,4.21-2.29c1.4902-2.3301,0.8203-5.4199-1.5-6.9092
		c-2.3193-1.5-5.4199-0.8301-6.9092,1.4893c-1.5,2.3301-0.8301,5.4199,1.4893,6.9199
		C421.138,364.8025,422.0784,365.0623,423.0081,365.0623z"/>
	<path fill="#FE6860" d="M83.6883,112.6326c0.9404,0.8198,2.1104,1.2202,3.27,1.2202c1.4004,0,2.79-0.5903,3.7803-1.73
		c1.8101-2.0903,1.5801-5.25-0.5103-7.0503c-2.0898-1.8101-5.2397-1.5801-7.0498,0.5103
		C81.3684,107.6628,81.5984,110.8225,83.6883,112.6326z"/>
	<path fill="#FE6860" d="M461.3587,246.3728c0-0.0801,0-0.1602,0-0.23c0-0.0903,0-0.1704,0-0.25
		c-0.0098-2.7603-2.25-4.9902-5.0098-4.9902c-2.7607,0.0103-5,2.25-4.9902,5.0103c0,0.0796,0,0.1499,0.0098,0.23
		c-0.0098,0.0698-0.0098,0.1499-0.0098,0.23c0,2.7598,2.2402,5,5,5S461.3587,249.1326,461.3587,246.3728z"/>
	<path fill="#FE6860" d="M331.428,433.1326c-2.5098,1.1504-3.6094,4.1201-2.46,6.6299c0.8408,1.8301,2.6504,2.9199,4.5508,2.9199
		c0.6992,0,1.3994-0.1494,2.0801-0.46c2.5098-1.1494,3.6094-4.1094,2.46-6.6299
		C336.9085,433.0828,333.9388,431.9822,331.428,433.1326z"/>
	<path fill="#FE6860" d="M48.9583,188.7625c0.77-2.6499-0.75-5.4297-3.3999-6.1997c-2.6499-0.7803-5.4297,0.7397-6.1997,3.3999
		c-0.77,2.6499,0.75,5.4199,3.3999,6.2002c0.4697,0.1299,0.9399,0.1997,1.3999,0.1997
		C46.3284,192.3625,48.3186,190.9426,48.9583,188.7625z"/>
	<path fill="#FE6860" d="M42.8587,275.8123c-0.3901-2.7295-2.9302-4.6299-5.6602-4.2393c-2.73,0.3994-4.6299,2.9297-4.2402,5.6592
		c0.3604,2.4902,2.5,4.29,4.9502,4.29c0.23,0,0.4702-0.0098,0.71-0.0498C41.3587,281.0828,43.2483,278.5427,42.8587,275.8123z"/>
	<path fill="#FE6860" d="M435.3284,338.283c0.6797,0.3096,1.3799,0.4492,2.0801,0.4492c1.9004,0,3.71-1.0791,4.5498-2.9199
		c1.1504-2.5098,0.04-5.4795-2.4697-6.6299c-2.5098-1.1396-5.4805-0.04-6.6299,2.4707h0.0098
		C431.718,334.1628,432.8186,337.1326,435.3284,338.283z"/>
	<path fill="#FE6860" d="M357.0989,419.0828c-2.3203,1.4902-2.9902,4.5801-1.4902,6.9102c0.96,1.4795,2.5596,2.29,4.21,2.29
		c0.9297,0,1.8594-0.2607,2.7002-0.8008c2.3193-1.4893,2.9893-4.5898,1.5-6.9092
		C362.5188,418.2527,359.4182,417.5828,357.0989,419.0828z"/>
	<path fill="#FE6860" d="M37.1482,221.6326c0.2305,0.0303,0.4702,0.0503,0.7002,0.0503c2.4502,0,4.5898-1.8003,4.9502-4.3003
		c0.3799-2.73-1.52-5.2598-4.25-5.6499c-2.7402-0.3901-5.27,1.5098-5.6602,4.25c0.0098,0,0.0098,0,0.0098,0
		C32.5086,218.7224,34.4085,221.2424,37.1482,221.6326z"/>
	<path fill="#FE6860" d="M25.3587,314.323c0.3896,1.29,1.5796,2.1191,2.8696,2.1191c0.29,0,0.5801-0.0498,0.8804-0.1396
		c1.5796-0.4902,2.4697-2.1602,1.98-3.75c-0.48-1.5801-2.1602-2.4697-3.7402-1.9795
		C25.7586,311.0623,24.8684,312.7322,25.3587,314.323z"/>
	<path fill="#FE6860" d="M42.8587,136.7024c-0.79,1.4604-0.25,3.2803,1.21,4.0703c0.4497,0.2397,0.9399,0.3599,1.4199,0.3599
		c1.0698,0,2.1001-0.5698,2.6401-1.5801h0.0098c0.7798-1.4497,0.2402-3.27-1.2202-4.0601
		C45.4685,134.7024,43.6482,135.2424,42.8587,136.7024z"/>
	<path fill="#FE6860" d="M168.1683,35.1726c0.3403,0,0.6802-0.0601,1.02-0.1899c1.5601-0.5601,2.3604-2.29,1.8003-3.8398
		c-0.5703-1.5601-2.29-2.3604-3.8501-1.8003c-1.5601,0.5703-2.3599,2.29-1.79,3.8501
		C165.7884,34.4128,166.9383,35.1628,168.1683,35.1726z"/>
	<path fill="#FE6860" d="M181.6482,24.6126c-1.5898,0.46-2.5098,2.1201-2.0396,3.7202c0.3799,1.3101,1.5698,2.1597,2.8799,2.1597
		c0.27,0,0.5498-0.04,0.8301-0.1196c1.5898-0.46,2.5098-2.1201,2.0498-3.7202C184.9085,25.0628,183.2386,24.1526,181.6482,24.6126z"
		/>
	<path fill="#FE6860" d="M36.2386,342.8025c0.5098,1.1006,1.5898,1.75,2.73,1.75c0.4199,0,0.8398-0.0898,1.25-0.2803
		c1.5-0.6895,2.1602-2.4697,1.4697-3.9795c-0.6997-1.5098-2.48-2.1602-3.98-1.4697
		C36.1985,339.5125,35.5486,341.2927,36.2386,342.8025z"/>
	<path fill="#FE6860" d="M41.4983,152.8728c0.6802-1.5103,0.02-3.29-1.48-3.98c-1.5098-0.6904-3.29-0.02-3.98,1.48
		c-0.6899,1.5098-0.0298,3.29,1.48,3.98c0.3999,0.1797,0.8301,0.27,1.2402,0.27C39.8982,154.6228,40.9886,153.9724,41.4983,152.8728
		z"/>
	<path fill="#FE6860" d="M78.6385,87.4026c-1.1401,1.2002-1.0898,3.1001,0.1099,4.25c0.5801,0.5498,1.3301,0.8198,2.0703,0.8198
		c0.79,0,1.5796-0.3096,2.1699-0.9297c1.1499-1.21,1.1001-3.1099-0.1099-4.25C81.6785,86.1526,79.7786,86.2024,78.6385,87.4026z"/>
	<path fill="#FE6860" d="M114.9685,62.9724c0.5898,0,1.1899-0.1797,1.7197-0.5498c1.3501-0.9502,1.6802-2.8198,0.7202-4.1802
		c-0.9502-1.3496-2.8198-1.6797-4.1802-0.7197c-1.3496,0.9497-1.6699,2.8198-0.7197,4.1797
		C113.0887,62.5325,114.0183,62.9724,114.9685,62.9724z"/>
	<path fill="#FE6860" d="M91.5486,81.8928c0.73,0,1.4497-0.2603,2.0298-0.79c1.2202-1.1304,1.3003-3.02,0.1699-4.2402
		c-1.1196-1.2197-3.02-1.2998-4.2397-0.1699c-1.2202,1.1201-1.29,3.02-0.1699,4.2402
		C89.9285,81.5725,90.7386,81.8928,91.5486,81.8928z"/>
	<path fill="#FE6860" d="M101.0584,66.7127c-1.29,1.04-1.4897,2.9302-0.4497,4.2202c0.5898,0.73,1.46,1.1099,2.3398,1.1099
		c0.6602,0,1.3198-0.21,1.8799-0.6602c1.29-1.04,1.4902-2.9302,0.4502-4.2197C104.2386,65.8728,102.3484,65.6726,101.0584,66.7127z"
		/>
	<path fill="#FE6860" d="M70.7986,103.7327c0.8599,0,1.7197-0.3701,2.3101-1.0801c1.0596-1.2798,0.8896-3.1699-0.3901-4.23
		c-1.27-1.0601-3.1602-0.8799-4.2202,0.3901s-0.8896,3.1699,0.3901,4.23C69.4485,103.5027,70.1287,103.7327,70.7986,103.7327z"/>
	<path fill="#FE6860" d="M125.9886,49.1526c-1.4199,0.8599-1.8599,2.71-1,4.1201c0.5601,0.9297,1.5498,1.4399,2.5601,1.4399
		c0.54,0,1.0698-0.1401,1.5601-0.4399c1.4199-0.8599,1.8599-2.71,1-4.1201C129.2483,48.7327,127.3982,48.2825,125.9886,49.1526z"/>
	<path fill="#FE6860" d="M152.9983,35.0325c-1.52,0.6699-2.21,2.4399-1.5298,3.9502c0.4897,1.1299,1.5898,1.79,2.7397,1.79
		c0.4004,0,0.8203-0.0801,1.21-0.25c1.5103-0.6699,2.2002-2.4399,1.5303-3.96C156.2884,35.0525,154.5086,34.3626,152.9983,35.0325z"
		/>
	<path fill="#FE6860" d="M140.6482,47.3025c0.4702,0,0.9502-0.1099,1.3901-0.3398c1.4702-0.77,2.04-2.5801,1.27-4.0498
		c-0.77-1.4702-2.5801-2.04-4.0498-1.27c-1.4702,0.77-2.04,2.5796-1.27,4.0498C138.5286,46.7127,139.5686,47.3025,140.6482,47.3025z
		"/>
	<path fill="#FE6860" d="M51.5086,127.6526c0.4897,0.3101,1.04,0.46,1.5898,0.46c1,0,1.9702-0.5,2.54-1.3999
		c0.8901-1.3999,0.4702-3.2603-0.9399-4.1401c-1.3999-0.8799-3.25-0.46-4.1299,0.9399
		C49.6785,124.9128,50.0984,126.7727,51.5086,127.6526z"/>
	<path fill="#FE6860" d="M59.1287,110.8626c-0.9805,1.3398-0.6802,3.2202,0.6597,4.2002c0.5303,0.3799,1.1499,0.5698,1.7603,0.5698
		c0.9297,0,1.8398-0.4302,2.4297-1.2397c0.9702-1.3403,0.6802-3.2202-0.6597-4.1904
		C61.9783,109.2327,60.0984,109.5227,59.1287,110.8626z"/>
	<path fill="#FE6860" d="M30.9383,180.6926c0.48-1.5801-0.4097-3.2598-1.9897-3.7402c-1.5898-0.4897-3.27,0.4102-3.75,1.9902
		s0.4102,3.2598,2,3.7402c0.29,0.0898,0.5801,0.1396,0.8701,0.1396C29.3587,182.8225,30.5486,181.9827,30.9383,180.6926z"/>
	<path fill="#FE6860" d="M444.1087,133.5525c1.4297-0.8398,1.9102-2.6699,1.0693-4.1001c-0.8398-1.4297-2.6797-1.9097-4.1094-1.0698
		c-1.4307,0.8398-1.9004,2.6802-1.0605,4.1099c0.5605,0.9502,1.5605,1.48,2.5801,1.48
		C443.1087,133.9724,443.6282,133.8425,444.1087,133.5525z"/>
	<path fill="#FE6860" d="M441.2884,363.9929c0.4805,0.2793,1,0.4102,1.5098,0.4102c1.0303,0,2.04-0.5303,2.6006-1.4805
		c0.8301-1.4297,0.3496-3.2695-1.0801-4.0996c-1.4307-0.8408-3.2598-0.3604-4.1006,1.0693
		C439.3782,361.323,439.8587,363.1531,441.2884,363.9929z"/>
	<path fill="#FE6860" d="M456.0989,160.8528c0.3896,0,0.7793-0.0801,1.1592-0.2402c1.5303-0.6401,2.25-2.3999,1.6006-3.9297
		c-0.6406-1.52-2.4004-2.2402-3.9307-1.6001c-1.5195,0.6499-2.2393,2.4097-1.5996,3.9297
		C453.8186,160.1628,454.928,160.8528,456.0989,160.8528z"/>
	<path fill="#FE6860" d="M460.4983,169.0627c-1.5596,0.54-2.3994,2.25-1.8496,3.8101c0.4297,1.2397,1.5898,2.02,2.8301,2.02
		c0.3301,0,0.6592-0.0503,0.9795-0.1602c1.5703-0.5498,2.4004-2.25,1.8604-3.8198
		C463.7786,169.3528,462.0686,168.5125,460.4983,169.0627z"/>
	<path fill="#FE6860" d="M463.0286,187.0725c0.3594,1.3403,1.5703,2.21,2.8896,2.2202c0.2598,0,0.5303-0.04,0.7998-0.1099
		c1.5908-0.4404,2.54-2.0903,2.1006-3.6904c0,0.0103,0,0.0103,0,0.0103c-0.4404-1.6001-2.0898-2.5503-3.6807-2.1099
		C463.5384,183.8328,462.5989,185.4724,463.0286,187.0725z"/>
	<path fill="#FE6860" d="M428.0081,104.2424c0,0.0103,0,0.0103,0,0.0103c-1.0195-1.3101-2.8994-1.54-4.21-0.52
		c-1.2998,1.02-1.5293,2.9102-0.5098,4.21c0.5898,0.7598,1.4697,1.1499,2.3604,1.1499c0.6494,0,1.2998-0.1997,1.8496-0.6299
		C428.7981,107.4426,429.0286,105.5525,428.0081,104.2424z"/>
	<path fill="#FE6860" d="M447.1087,145.5325c0.5293,1.0503,1.5801,1.6602,2.6797,1.6602c0.46,0,0.9199-0.1099,1.3496-0.3198
		c1.4805-0.75,2.0801-2.5503,1.3301-4.0303c-0.7393-1.48-2.5498-2.0801-4.0293-1.3301
		C446.9583,142.2527,446.3684,144.0525,447.1087,145.5325z"/>
	<path fill="#FE6860" d="M434.5286,121.2527c0.5898,0,1.1699-0.1602,1.6895-0.52c1.3701-0.9302,1.7207-2.7998,0.79-4.1699
		c-0.9297-1.3604-2.7998-1.7202-4.1699-0.79c-1.3701,0.9399-1.7197,2.7998-0.79,4.1699
		C432.6282,120.7927,433.5784,121.2527,434.5286,121.2527z"/>
	<path fill="#FE6860" d="M476.428,261.6228c0.0107,0,0.0107,0,0.0107,0c0.0996-1.6602-1.1504-3.0801-2.8008-3.1904
		c-1.6592-0.1094-3.0791,1.1406-3.1895,2.7998c-0.1104,1.6504,1.1396,3.0801,2.7998,3.1904c0.0605,0,0.1299,0,0.1904,0
		C475.0081,264.4226,476.3284,263.2126,476.428,261.6228z"/>
	<path fill="#FE6860" d="M470.4085,230.9827c0.1104,1.5898,1.4297,2.7998,3,2.7998c0.0596,0,0.1299,0,0.2002-0.0098
		c1.6494-0.1099,2.8994-1.54,2.79-3.1899c-0.1104-1.6499-1.54-2.8999-3.2002-2.79
		C471.5481,227.9026,470.2981,229.3328,470.4085,230.9827z"/>
	<path fill="#FE6860" d="M471.4983,212.8225c-1.6396,0.2202-2.7998,1.73-2.5801,3.3701c0.21,1.5098,1.4902,2.6099,2.9697,2.6099
		c0.1406,0,0.2705-0.0098,0.4102-0.0298c1.6406-0.2202,2.79-1.73,2.5703-3.3701
		C474.6487,213.7527,473.138,212.6028,471.4983,212.8225z"/>
	<path fill="#FE6860" d="M473.9182,242.8425c-1.6494,0-2.9902,1.3501-2.9902,3.0103c0,0.0898,0,0.1797,0.0107,0.27
		c0,0.0796-0.0107,0.1597-0.0107,0.25c0,1.6602,1.3408,3,3,3c1.6602,0,3-1.3398,3-3c0-0.0903,0-0.1802-0.0098-0.27
		c0.0098-0.0903,0.0098-0.1802,0.0098-0.27C476.928,244.1726,475.5784,242.8328,473.9182,242.8425z"/>
	<path fill="#FE6860" d="M474.9388,276.8123c0.2197-1.6494-0.9404-3.1592-2.5801-3.3701c-1.6406-0.2197-3.1504,0.9404-3.3701,2.5801
		c-0.21,1.6406,0.9395,3.1504,2.5898,3.3701c0.1299,0.0205,0.2598,0.0205,0.3896,0.0205
		C473.4485,279.4128,474.7386,278.323,474.9388,276.8123z"/>
	<path fill="#FE6860" d="M415.9886,97.5427c0.71,0,1.4199-0.25,1.9902-0.7603c1.2393-1.1099,1.3398-3,0.2393-4.2397
		c-1.0996-1.23-3-1.3403-4.2295-0.23c-1.2402,1.1001-1.3506,3-0.2402,4.23C414.3382,97.2024,415.1585,97.5427,415.9886,97.5427z"/>
	<path fill="#FE6860" d="M197.0784,26.7825c0.2202,0,0.4302-0.02,0.6499-0.0698c1.6201-0.3599,2.6401-1.96,2.29-3.5698
		c-0.3599-1.6201-1.96-2.6504-3.5801-2.29c-1.6099,0.3496-2.6396,1.9497-2.2798,3.5698
		C194.4583,25.8225,195.6985,26.7825,197.0784,26.7825z"/>
	<path fill="#FE6860" d="M468.8089,198.0027c-1.6309,0.3301-2.6807,1.9102-2.3506,3.54c0.29,1.4199,1.54,2.3999,2.9404,2.3999
		c0.2002,0,0.3994-0.02,0.5996-0.0601c1.6201-0.3301,2.6699-1.9102,2.3398-3.5298
		C472.0081,198.7224,470.428,197.6726,468.8089,198.0027z"/>
	<path fill="#FE6860" d="M468.9182,294.2224c0.2002,0.04,0.4004,0.0605,0.5898,0.0605c1.4004,0,2.6602-0.9902,2.9404-2.4199
		c0.3203-1.6201-0.7305-3.2002-2.3496-3.5303c-1.6309-0.3203-3.2109,0.7295-3.5303,2.3594
		C466.2386,292.3123,467.2981,293.8923,468.9182,294.2224z"/>
	<path fill="#FE6860" d="M298.6985,24.5925c-0.4004,1.6099,0.5703,3.2402,2.1797,3.6401c0.2402,0.0601,0.4902,0.0898,0.7305,0.0898
		c1.3398,0,2.5693-0.9097,2.9102-2.27c0.3994-1.6099-0.5801-3.2397-2.1807-3.6396
		C300.7288,22.0125,299.0989,22.9827,298.6985,24.5925z"/>
	<path fill="#FE6860" d="M256.8186,21.7527c0.0498,0.0098,0.0996,0.0098,0.1494,0.0098c1.5908,0,2.9199-1.25,2.9902-2.8599
		c0.0801-1.6602-1.2002-3.0601-2.8496-3.1401c-1.6601-0.0796-3.0605,1.2002-3.1406,2.8604
		C253.888,20.2727,255.1683,21.6829,256.8186,21.7527z"/>
	<path fill="#FE6860" d="M286.3489,25.1028c0.1797,0.0298,0.3594,0.0498,0.5293,0.0498c1.4307,0,2.6904-1.02,2.9502-2.4697
		c0.2998-1.6304-0.7803-3.1904-2.4102-3.4902c-1.6299-0.29-3.2002,0.79-3.4902,2.4199
		C283.6282,23.2424,284.718,24.8025,286.3489,25.1028z"/>
	<path fill="#FE6860" d="M268.9983,19.6228c-0.1895,1.6499,1,3.1299,2.6396,3.3198c0.1201,0.0098,0.2305,0.02,0.3408,0.02
		c1.5098,0,2.8096-1.1299,2.9795-2.6602c0.1904-1.6499-1-3.1396-2.6396-3.3198C270.6682,16.7927,269.1888,17.9827,268.9983,19.6228z
		"/>
	<path fill="#FE6860" d="M211.4485,18.0828c-1.6401,0.25-2.77,1.77-2.52,3.4097c0.2197,1.4902,1.5,2.5601,2.96,2.5601
		c0.1499,0,0.2998-0.02,0.4502-0.04h0.0098c1.6299-0.2397,2.7603-1.77,2.5103-3.4097
		C214.6185,18.9627,213.0887,17.8328,211.4485,18.0828z"/>
	<path fill="#FE6860" d="M226.8587,22.3025c0.0796,0,0.1597,0,0.25-0.0098c1.6499-0.1401,2.8799-1.5903,2.7397-3.2402
		s-1.5898-2.8799-3.2397-2.7397c-1.6504,0.1396-2.8804,1.5898-2.7402,3.2397C223.9983,21.1228,225.3084,22.3025,226.8587,22.3025z"
		/>
	<path fill="#FE6860" d="M238.8982,18.5925c0.0303,1.6401,1.3701,2.9502,3,2.9502c0.02,0,0.04,0,0.0601,0
		c1.6504-0.0303,2.9702-1.3999,2.9399-3.0601c-0.0298-1.6499-1.3896-2.9702-3.0498-2.9399
		C240.1883,15.5725,238.8685,16.9426,238.8982,18.5925z"/>
	<path fill="#FE6860" d="M354.8782,46.0925c-0.8193,1.4399-0.2998,3.27,1.1406,4.0801c0.4697,0.2603,0.9697,0.3901,1.4697,0.3901
		c1.0498,0,2.0703-0.5503,2.6201-1.5303c0.8096-1.4497,0.2998-3.2798-1.1504-4.0898
		C357.5188,44.1326,355.6888,44.6428,354.8782,46.0925z"/>
	<path fill="#FE6860" d="M315.1682,32.3225c0.3105,0.1001,0.6201,0.1499,0.9199,0.1499c1.2705,0,2.4502-0.8096,2.8604-2.0898
		c0.5-1.5698-0.3604-3.2598-1.9404-3.77c-1.5801-0.5098-3.2695,0.3599-3.7695,1.9302
		C312.7288,30.1228,313.5882,31.8128,315.1682,32.3225z"/>
	<path fill="#FE6860" d="M394.4788,76.4627c0.8398,0,1.6797-0.3599,2.2793-1.0498c1.0801-1.25,0.9307-3.1504-0.3193-4.23
		c-1.2607-1.0801-3.1602-0.9302-4.2402,0.3198c-1.0801,1.2598-0.9297,3.1499,0.3301,4.23
		C393.0882,76.2224,393.7884,76.4627,394.4788,76.4627z"/>
	<path fill="#FE6860" d="M368.7483,57.8826c0.5,0.3301,1.0703,0.4902,1.6299,0.4902c0.9805,0,1.9404-0.48,2.5205-1.3604
		c0.8994-1.3896,0.5098-3.25-0.8799-4.1499c0.0098,0,0.0098,0,0.0098,0c-1.3906-0.9102-3.25-0.52-4.1602,0.8701
		C366.968,55.1228,367.3587,56.9827,368.7483,57.8826z"/>
	<path fill="#FE6860" d="M380.3284,62.2224c-0.9902,1.3203-0.7197,3.2002,0.5996,4.2002c0.54,0.3999,1.1709,0.6001,1.8008,0.6001
		c0.9092,0,1.8096-0.4199,2.3994-1.2002c0.9902-1.3301,0.7305-3.21-0.5996-4.1997
		C383.2083,60.6326,381.3284,60.8928,380.3284,62.2224z"/>
	<path fill="#FE6860" d="M403.4388,81.5525c-1.1602,1.1802-1.1406,3.0801,0.04,4.2402c0.5801,0.5698,1.3398,0.8599,2.0996,0.8599
		c0.7803,0,1.5498-0.2998,2.1396-0.8999c1.1602-1.1899,1.1406-3.0898-0.04-4.2402
		C406.4983,80.3528,404.5989,80.3728,403.4388,81.5525z"/>
	<path fill="#FE6860" d="M327.4983,33.4627c-0.6104,1.54,0.1396,3.29,1.6797,3.8999c0.3604,0.1401,0.7402,0.21,1.1104,0.21
		c1.1904,0,2.3203-0.71,2.7803-1.8896c0.6201-1.54-0.1299-3.2803-1.6699-3.8901C329.8587,31.1726,328.1087,31.9226,327.4983,33.4627
		z"/>
	<path fill="#FE6860" d="M342.8186,43.3225c0.4102,0.2002,0.8496,0.3003,1.29,0.3003c1.1201,0,2.1895-0.6304,2.7002-1.71
		c0.7197-1.5,0.0898-3.29-1.4102-4c-1.5-0.7202-3.29-0.0801-4,1.4097C340.6888,40.8225,341.3186,42.6126,342.8186,43.3225z"/>
	<path fill="#FE6860" d="M356.388,442.363h0.0107c-1.4502,0.8096-1.96,2.6396-1.1406,4.0791
		c0.5508,0.9805,1.5605,1.5303,2.6104,1.5303c0.5,0,1.0098-0.1201,1.4697-0.3896c1.4502-0.8105,1.96-2.6406,1.1406-4.0801
		C359.6682,442.0525,357.8382,441.5427,356.388,442.363z"/>
	<path fill="#FE6860" d="M413.9983,395.9128v0.0098c-1.0996,1.2305-0.9902,3.1299,0.25,4.2305
		c0.5703,0.5098,1.2803,0.7598,1.9902,0.7598c0.8203,0,1.6494-0.3398,2.2402-1c1.0996-1.2402,0.9893-3.1406-0.2402-4.2402
		C416.9983,394.573,415.0989,394.6824,413.9983,395.9128z"/>
	<path fill="#FE6860" d="M73.3587,390.3826v0.0098c-1.0601-1.2793-2.9604-1.4502-4.23-0.3896
		c-1.27,1.0703-1.4404,2.9502-0.3804,4.2295c0.5903,0.71,1.4502,1.0801,2.3003,1.0801c0.6797,0,1.3696-0.2295,1.9297-0.6992
		C74.2483,393.5525,74.4183,391.6531,73.3587,390.3826z"/>
	<path fill="#FE6860" d="M392.8089,416.7625c-1.25,1.0801-1.3906,2.9697-0.3105,4.2305c0.5898,0.6895,1.4297,1.04,2.2705,1.04
		c0.6992,0,1.3896-0.2402,1.96-0.7305c1.2598-1.0801,1.3994-2.9697,0.3193-4.2295
		C395.9583,415.823,394.0686,415.6824,392.8089,416.7625z"/>
	<path fill="#FE6860" d="M79.0086,401.3826c-1.2002,1.1396-1.2402,3.04-0.1001,4.2402c0.5898,0.6201,1.3799,0.9297,2.1699,0.9297
		c0.75,0,1.4902-0.2803,2.0698-0.8301c1.2002-1.1396,1.25-3.04,0.1001-4.2402C82.1087,400.283,80.2083,400.2322,79.0086,401.3826z"
		/>
	<path fill="#FE6860" d="M403.7483,406.6824c-1.1797,1.1699-1.2002,3.0703-0.04,4.25c0.5898,0.5898,1.3701,0.8906,2.1406,0.8906
		c0.7598,0,1.5195-0.2803,2.1094-0.8604c1.1797-1.1602,1.1904-3.0596,0.0303-4.2402
		C406.8284,405.5427,404.928,405.5222,403.7483,406.6824z"/>
	<path fill="#FE6860" d="M60.0183,378.0125c-1.3398,0.9805-1.6299,2.8506-0.6597,4.1904c0.5898,0.8096,1.5,1.2295,2.4297,1.2295
		c0.6099,0,1.23-0.1797,1.77-0.5693c1.3301-0.9805,1.6299-2.8506,0.6499-4.1904C63.2386,377.3328,61.3587,377.033,60.0183,378.0125z
		"/>
	<path fill="#FE6860" d="M423.5188,384.4929c-1.0107,1.3096-0.7803,3.1895,0.5293,4.21c0.54,0.4297,1.1904,0.6396,1.8398,0.6396
		c0.8906,0,1.7803-0.4004,2.3701-1.1602c1.0205-1.3096,0.7803-3.1895-0.5293-4.21
		C426.428,382.9529,424.5384,383.1824,423.5188,384.4929z"/>
	<path fill="#FE6860" d="M212.8587,468.8025c-1.6401-0.2402-3.1704,0.8896-3.4102,2.5303
		c-0.2402,1.6396,0.8901,3.1699,2.5298,3.4102c0.1504,0.0195,0.29,0.0293,0.4399,0.0293c1.4604,0,2.7402-1.0693,2.9604-2.5596
		C215.6287,470.573,214.4886,469.0525,212.8587,468.8025z"/>
	<path fill="#FE6860" d="M44.2786,352.363c-1.46,0.79-2,2.6094-1.21,4.0693c0.54,1,1.5796,1.5703,2.6396,1.5703
		c0.48,0,0.9702-0.1201,1.4302-0.3701c1.46-0.79,1.9902-2.6104,1.2002-4.0596C47.5486,352.113,45.7283,351.573,44.2786,352.363z"/>
	<path fill="#FE6860" d="M436.4388,371.6726c-1.3701-0.9297-3.2305-0.5801-4.1602,0.7998
		c-0.9297,1.3701-0.5801,3.2305,0.7998,4.1602c0.5098,0.3496,1.0996,0.5205,1.6797,0.5205c0.96,0,1.9004-0.4609,2.4805-1.3203
		C438.1682,374.4626,437.8089,372.6023,436.4388,371.6726z"/>
	<path fill="#FE6860" d="M54.9285,370.5222c1.3999-0.8896,1.8198-2.7393,0.9302-4.1396c-0.8804-1.4102-2.7402-1.8203-4.1401-0.9404
		c-1.3999,0.8906-1.8203,2.7402-0.9302,4.1406c0.5703,0.9102,1.54,1.3994,2.54,1.3994
		C53.8787,370.9822,54.4285,370.8328,54.9285,370.5222z"/>
	<path fill="#FE6860" d="M169.6785,457.9324c-1.5601-0.5596-3.2803,0.2402-3.8398,1.7998
		c-0.5703,1.5605,0.2397,3.2803,1.7998,3.8408c0.3301,0.1299,0.6802,0.1797,1.02,0.1797c1.23,0,2.3799-0.7598,2.8198-1.9805
		C172.0384,460.2126,171.2386,458.4929,169.6785,457.9324z"/>
	<path fill="#FE6860" d="M155.8484,452.4128c-1.5098-0.6699-3.2798,0.0293-3.9502,1.54c-0.6597,1.5195,0.0303,3.29,1.54,3.96
		c0.4004,0.1699,0.8003,0.25,1.21,0.25c1.1504,0,2.25-0.6699,2.75-1.7998C158.0584,454.8523,157.3685,453.0828,155.8484,452.4128z"
		/>
	<path fill="#FE6860" d="M198.2283,466.1423c-1.6196-0.3496-3.21,0.6807-3.5601,2.2998c-0.3496,1.6201,0.6704,3.2109,2.29,3.5605
		c0.2202,0.0498,0.4302,0.0703,0.6401,0.0703c1.3799,0,2.6299-0.96,2.9302-2.3604
		C200.8787,468.0925,199.8484,466.4929,198.2283,466.1423z"/>
	<path fill="#FE6860" d="M369.0784,434.6326c-1.3799,0.9102-1.7695,2.7705-0.8604,4.1602c0.5801,0.8799,1.5303,1.3496,2.5107,1.3496
		c0.5693,0,1.1396-0.1602,1.6396-0.4893c1.3896-0.9102,1.7803-2.7705,0.8701-4.1504
		C372.3284,434.113,370.468,433.7224,369.0784,434.6326z"/>
	<path fill="#FE6860" d="M105.1287,421.6023c-1.29-1.04-3.1802-0.8301-4.2202,0.46s-0.8398,3.1699,0.46,4.21
		c0,0.0107,0,0.0107,0,0.0107c0.5498,0.4395,1.2202,0.6592,1.8799,0.6592c0.8701,0,1.7402-0.3799,2.3301-1.1191
		C106.6184,424.533,106.4183,422.6423,105.1287,421.6023z"/>
	<path fill="#FE6860" d="M183.8186,462.5125c-1.5903-0.46-3.2603,0.46-3.71,2.0605c-0.4604,1.5898,0.46,3.25,2.0498,3.71
		c0.2798,0.0801,0.5601,0.1094,0.8301,0.1094c1.2998,0,2.5-0.8496,2.8799-2.1699
		C186.3284,464.6326,185.4085,462.9724,183.8186,462.5125z"/>
	<path fill="#FE6860" d="M227.6185,470.4929c-1.6499-0.1299-3.0898,1.0996-3.23,2.75c-0.1299,1.6494,1.1001,3.0996,2.75,3.2295
		c0.0801,0.0098,0.1602,0.0098,0.2402,0.0098c1.5498,0,2.8599-1.1895,2.9897-2.7598
		C230.5086,472.073,229.2786,470.6326,227.6185,470.4929z"/>
	<path fill="#FE6860" d="M381.2386,426.0925c-1.3203,0.9902-1.5898,2.8701-0.5898,4.2002c0.5898,0.7803,1.4893,1.1895,2.3994,1.1895
		c0.6299,0,1.2607-0.1895,1.8008-0.5996c1.3193-1,1.5898-2.8799,0.5898-4.2002
		C384.4485,425.3523,382.5686,425.0925,381.2386,426.0925z"/>
	<path fill="#FE6860" d="M117.0086,430.5427v0.0098c-1.3501-0.96-3.2202-0.6299-4.1699,0.7305
		c-0.96,1.3496-0.6304,3.2197,0.73,4.1797c0.52,0.3604,1.1196,0.54,1.7197,0.54c0.9399,0,1.8701-0.4404,2.46-1.2803
		C118.6985,433.3728,118.3684,431.4929,117.0086,430.5427z"/>
	<path fill="#FE6860" d="M142.4285,445.9929c-1.4702-0.7705-3.2803-0.2002-4.0498,1.2695
		c-0.7603,1.4697-0.1904,3.2803,1.2798,4.0498c0.4399,0.2305,0.9199,0.3408,1.3799,0.3408c1.0903,0,2.1299-0.5908,2.6699-1.6201
		C144.4686,448.5623,143.8982,446.7527,142.4285,445.9929z"/>
	<path fill="#FE6860" d="M129.4686,438.6824c-1.4199-0.8594-3.2603-0.4102-4.1299,1.0098
		c-0.8604,1.4209-0.4102,3.2607,1.0098,4.1201c0.4902,0.3008,1.0303,0.4404,1.5601,0.4404c1.0098,0,2-0.5098,2.5601-1.4404
		C131.3284,441.3923,130.8787,439.5427,129.4686,438.6824z"/>
	<path fill="#FE6860" d="M343.2288,449.2224c-1.5,0.7197-2.1299,2.5098-1.4102,4c0.5098,1.0801,1.5898,1.71,2.71,1.71
		c0.4297,0,0.8701-0.0996,1.29-0.2998c1.5-0.7197,2.1201-2.5098,1.4102-4C346.5081,449.1423,344.718,448.5125,343.2288,449.2224z"/>
	<path fill="#FE6860" d="M89.6184,412.073c-1.1201,1.2197-1.04,3.1191,0.1802,4.2393c0.5698,0.5303,1.2998,0.8008,2.0298,0.8008
		c0.8101,0,1.6099-0.3301,2.21-0.9707c1.1201-1.2197,1.04-3.1201-0.1797-4.2393C92.6385,410.783,90.7386,410.8523,89.6184,412.073z"
		/>
	<path fill="#FE6860" d="M272.1585,469.7429c-1.6504,0.1895-2.8301,1.6797-2.6396,3.3193c0.1797,1.5303,1.4795,2.6602,2.9795,2.6602
		c0.1104,0,0.2305-0.0098,0.3506-0.0195c1.6396-0.1904,2.8193-1.6807,2.6299-3.3203
		C275.2884,470.7322,273.7981,469.5525,272.1585,469.7429z"/>
	<path fill="#FE6860" d="M18.2586,208.6526c-0.27,1.6401,0.8398,3.1802,2.48,3.4502c0.1597,0.0298,0.3301,0.04,0.4897,0.04
		c1.4399,0,2.71-1.04,2.9502-2.52c0.27-1.6304-0.8398-3.1704-2.4702-3.4399C20.0686,205.9128,18.5286,207.0227,18.2586,208.6526z"/>
	<path fill="#FE6860" d="M23.4783,197.2927c0.2202,0.0498,0.4502,0.0698,0.6802,0.0698c1.3599,0,2.6001-0.9297,2.9199-2.3101
		c0.3799-1.6196-0.6299-3.23-2.2397-3.6099c-1.6104-0.3701-3.23,0.6299-3.6001,2.2402
		C20.8587,195.2927,21.8587,196.9128,23.4783,197.2927z"/>
	<path fill="#FE6860" d="M301.3782,464.3826c-1.6094,0.4102-2.5801,2.04-2.1699,3.6504c0.3398,1.3594,1.5605,2.2598,2.9102,2.2598
		c0.2402,0,0.4902-0.0303,0.7305-0.0898c1.6094-0.4102,2.5791-2.04,2.1699-3.6406
		C304.6184,464.9529,302.9886,463.9822,301.3782,464.3826z"/>
	<path fill="#FE6860" d="M315.6585,460.2625c-1.5703,0.5098-2.4404,2.21-1.9199,3.7803c0.4102,1.2695,1.5898,2.0703,2.8496,2.0703
		c0.3105,0,0.6201-0.04,0.9307-0.1406c1.5693-0.5195,2.4297-2.21,1.9199-3.7803
		C318.928,460.613,317.2386,459.7527,315.6585,460.2625z"/>
	<path fill="#FE6860" d="M21.3084,287.1326c0.1602,0,0.3301-0.0098,0.4902-0.04c1.6396-0.2695,2.7397-1.8203,2.4697-3.4502
		c-0.27-1.6396-1.8198-2.7393-3.4497-2.4697c-1.6401,0.2695-2.7402,1.8203-2.4702,3.4502
		C18.5984,286.0925,19.8684,287.1326,21.3084,287.1326z"/>
	<path fill="#FE6860" d="M19.3186,272.2029c0.0996,0,0.1997,0,0.2998-0.0205c1.6499-0.1602,2.8599-1.6299,2.6899-3.2793
		c-0.1602-1.6504-1.6299-2.8506-3.2798-2.6904c-1.6499,0.1699-2.8501,1.6396-2.6899,3.29
		C16.4886,271.0525,17.7986,272.2029,19.3186,272.2029z"/>
	<path fill="#FE6860" d="M19.2786,227.0725c1.52,0,2.8301-1.1597,2.98-2.6997c0.1597-1.6602-1.0503-3.1201-2.7002-3.2803
		c-1.6499-0.1597-3.1099,1.0503-3.27,2.6899c-0.1597,1.6504,1.04,3.1201,2.6899,3.2803
		C19.0784,227.0725,19.1785,227.0725,19.2786,227.0725z"/>
	<path fill="#FE6860" d="M15.3084,239.0125c-0.0498,1.6602,1.25,3.04,2.9102,3.0903c0.0298,0.0098,0.0601,0.0098,0.0898,0.0098
		c1.6099,0,2.9502-1.29,3-2.9102c0.0503-1.6597-1.25-3.0396-2.9102-3.0898C16.7483,236.0627,15.3587,237.3625,15.3084,239.0125z"/>
	<path fill="#FE6860" d="M18.3284,257.1726c0.0303,0,0.0601,0,0.1001,0c1.6602-0.0596,2.9502-1.4404,2.8999-3.0996
		c-0.0601-1.6602-1.4497-2.9502-3.1001-2.9004c-1.6597,0.0596-2.96,1.4502-2.8999,3.0996
		C15.3787,255.8923,16.7185,257.1726,18.3284,257.1726z"/>
	<path fill="#FE6860" d="M451.3382,345.4724c-1.4893-0.75-3.29-0.1494-4.0293,1.3398c-0.7402,1.4805-0.1406,3.2803,1.3398,4.0205
		c0.4297,0.2197,0.8896,0.3203,1.3398,0.3203c1.0996,0,2.1602-0.6104,2.6895-1.6602
		C453.4182,348.0125,452.8186,346.2126,451.3382,345.4724z"/>
	<path fill="#FE6860" d="M24.2786,301.9031c0.23,0,0.46-0.0303,0.6899-0.0801c1.6099-0.3809,2.6099-2,2.23-3.6104
		s-2-2.6104-3.6099-2.2305c-1.6104,0.3809-2.6104,1.9902-2.23,3.6104C21.6883,300.9724,22.9183,301.9031,24.2786,301.9031z"/>
	<path fill="#FE6860" d="M286.8587,467.5525c-1.6299,0.29-2.71,1.8604-2.4102,3.4902c0.2598,1.4502,1.5195,2.46,2.9502,2.46
		c0.1797,0,0.3594-0.0205,0.54-0.0498c1.6299-0.2998,2.71-1.8604,2.4102-3.4902
		C290.0481,468.3328,288.4886,467.2527,286.8587,467.5525z"/>
	<path fill="#FE6860" d="M329.638,455.2029c-1.5391,0.6094-2.2891,2.3594-1.6699,3.8994c0.46,1.1699,1.5908,1.8799,2.7803,1.8799
		c0.3701,0,0.75-0.0693,1.1201-0.21c1.5303-0.6191,2.2803-2.3691,1.6699-3.8994
		C332.9182,455.3328,331.1682,454.5828,329.638,455.2029z"/>
	<path fill="#FE6860" d="M35.9285,326.613c-0.5898-1.5508-2.3198-2.3301-3.8701-1.7305c-1.5498,0.5898-2.3198,2.3203-1.73,3.8701
		c0.46,1.1895,1.5898,1.9297,2.8003,1.9297c0.3599,0,0.7197-0.0693,1.0698-0.2002
		C35.7483,329.8923,36.5183,328.1628,35.9285,326.613z"/>
	<path fill="#FE6860" d="M455.1282,337.2126c0.3799,0.1602,0.7705,0.2295,1.1602,0.2295c1.1699,0,2.2803-0.6895,2.7598-1.8398
		c0.6406-1.5293-0.0693-3.2793-1.5996-3.9199c-1.5303-0.6494-3.29,0.0703-3.9297,1.6006
		C452.8782,334.8123,453.5989,336.573,455.1282,337.2126z"/>
	<path fill="#FE6860" d="M30.1385,164.4724c-0.5801,1.5503,0.2002,3.29,1.75,3.8701c0.3501,0.1401,0.7002,0.2002,1.0601,0.2002
		c1.21,0,2.3501-0.7402,2.8101-1.9399h-0.0103c0.5903-1.5503-0.1899-3.2803-1.7397-3.8701
		C32.4583,162.1526,30.7283,162.9226,30.1385,164.4724z"/>
	<path fill="#FE6860" d="M257.3382,470.9626c-1.6494,0.0801-2.9297,1.4902-2.8496,3.1396c0.0801,1.6104,1.4102,2.8604,3,2.8604
		c0.0498,0,0.0996-0.0098,0.1494-0.0098c1.6504-0.0801,2.9307-1.4902,2.8506-3.1406
		C260.3987,472.1531,258.9983,470.8826,257.3382,470.9626z"/>
	<path fill="#FE6860" d="M242.4686,471.2126c-1.6499-0.0303-3.02,1.2998-3.04,2.9502c-0.0303,1.6602,1.29,3.0195,2.9502,3.0498
		c0.0195,0,0.0298,0,0.0498,0c1.6299,0,2.9697-1.3096,3-2.9502C245.4485,472.6023,244.1287,471.2322,242.4686,471.2126z"/>
	<path fill="#FE6860" d="M468.9583,306.7224c0.4297-1.5996-0.5098-3.25-2.1094-3.6797c-1.6006-0.4297-3.25,0.5195-3.6807,2.1201
		c-0.4297,1.5996,0.5098,3.2402,2.1201,3.6797c0.2598,0.0703,0.5205,0.0996,0.7803,0.0996
		C467.388,308.9421,468.5989,308.0623,468.9583,306.7224z"/>
	<path fill="#FE6860" d="M462.6282,317.5125c-1.5693-0.54-3.2793,0.29-3.8096,1.8604c-0.54,1.5693,0.2998,3.2695,1.8594,3.8096
		c0.3203,0.1104,0.6504,0.1699,0.9707,0.1699c1.25,0,2.4199-0.79,2.8398-2.0293
		C465.0286,319.7527,464.1888,318.0427,462.6282,317.5125z"/>
	<path fill="#FE6860" d="M424.2581,88.3728c1.2002,0,2.4102-0.4399,3.3701-1.3101c2.04-1.8701,2.1807-5.0303,0.3105-7.0703
		c-1.8604-2.04-5.0205-2.1797-7.0605-0.3096c-2.04,1.8599-2.1797,5.0195-0.3193,7.0596
		C421.5481,87.8225,422.8987,88.3728,424.2581,88.3728z"/>
	<path fill="#FE6860" d="M442.9485,111.4827c1,0,2.0098-0.2998,2.8896-0.9302c2.25-1.6001,2.7803-4.7197,1.1699-6.9697
		c-1.5996-2.25-4.7197-2.7803-6.9697-1.1699c-2.25,1.5996-2.7695,4.7197-1.1699,6.9697
		C439.8382,110.7527,441.3782,111.4827,442.9485,111.4827z"/>
	<path fill="#FE6860" d="M324.7688,469.4626c-2.6104,0.9102-3.9707,3.7695-3.0605,6.3701c0.7305,2.0596,2.6602,3.3398,4.7197,3.3398
		c0.5508,0,1.1104-0.0898,1.6602-0.2803c2.6104-0.9199,3.9707-3.7793,3.0605-6.3799
		C330.2288,469.9031,327.3684,468.5427,324.7688,469.4626z"/>
	<path fill="#FE6860" d="M480.7288,216.8025c0.3193,2.5303,2.4697,4.3804,4.96,4.3804c0.1992,0,0.4102-0.0103,0.6201-0.04
		c2.7393-0.3403,4.6797-2.8403,4.3398-5.5801c-0.3398-2.7402-2.8398-4.6802-5.5801-4.3403
		C482.3284,211.5627,480.388,214.0627,480.7288,216.8025z"/>
	<path fill="#FE6860" d="M486.3684,271.073c-2.75-0.3301-5.2402,1.6191-5.5801,4.3594c-0.3301,2.7402,1.6201,5.2402,4.3604,5.5703
		c0.2002,0.0303,0.4102,0.04,0.6094,0.04c2.4902,0,4.6504-1.8604,4.96-4.3896C491.0481,273.9128,489.0989,271.4128,486.3684,271.073
		z"/>
	<path fill="#FE6860" d="M481.5481,300.4128c-2.6797-0.6699-5.3994,0.96-6.0693,3.6396s0.9492,5.3896,3.6299,6.0605
		c0.4102,0.1094,0.8193,0.1592,1.2197,0.1592c2.2402,0,4.2803-1.5195,4.8496-3.79
		C485.8489,303.8025,484.218,301.0828,481.5481,300.4128z"/>
	<path fill="#FE6860" d="M461.2483,356.2224c-2.4395-1.3096-5.4697-0.3994-6.7803,2.04c-1.3096,2.4297-0.3896,5.46,2.04,6.7705
		c0.75,0.3994,1.5605,0.5898,2.3604,0.5898c1.7803,0,3.5098-0.9502,4.4102-2.6299
		C464.5882,360.5623,463.678,357.533,461.2483,356.2224z"/>
	<path fill="#FE6860" d="M473.1282,328.9529c-2.5801-1-5.4697,0.2793-6.4697,2.8594c-1,2.5703,0.2803,5.4707,2.8496,6.46
		c0.6006,0.2305,1.21,0.3408,1.8105,0.3408c2,0,3.8994-1.21,4.6602-3.1904C476.9788,332.8523,475.6985,329.9529,473.1282,328.9529z"
		/>
	<path fill="#FE6860" d="M37.9285,123.7127c0.8198,0.5098,1.73,0.75,2.6299,0.75c1.6699,0,3.3101-0.8398,4.2603-2.3701
		c1.4497-2.3501,0.7197-5.4297-1.6201-6.8799c-2.3599-1.46-5.4399-0.73-6.8901,1.6201
		C34.8587,119.1829,35.5784,122.2625,37.9285,123.7127z"/>
	<path fill="#FE6860" d="M475.3489,188.1926c0.5791,2.27,2.6094,3.7798,4.8496,3.7798c0.4004,0,0.8203-0.0498,1.2295-0.1499
		c2.6709-0.6797,4.3008-3.3999,3.6201-6.0801c-0.6797-2.6797-3.3994-4.2998-6.0801-3.6196
		C476.2981,182.8025,474.678,185.5227,475.3489,188.1926z"/>
	<path fill="#FE6860" d="M492.5589,245.8328c-0.0107-2.7603-2.25-4.9902-5.0107-4.98c-2.7598,0-5,2.2397-4.9893,5.0098
		c0,0.0898,0,0.1802,0.0098,0.27c-0.0098,0.0801-0.0098,0.1602-0.0098,0.2402c0,2.7598,2.2393,5,5,5c2.7598,0,5-2.2402,5-5
		c0-0.0903,0-0.1802-0.0107-0.2603C492.5589,246.0227,492.5589,245.9329,492.5589,245.8328z"/>
	<path fill="#FE6860" d="M420.8587,405.6824c-1.8604,2.04-1.7207,5.2002,0.3193,7.0605c0.96,0.8799,2.1709,1.3096,3.3701,1.3096
		c1.3604,0,2.71-0.5498,3.7002-1.6299c1.8506-2.04,1.71-5.21-0.3301-7.0703C425.8782,403.4929,422.718,403.6423,420.8587,405.6824z"
		/>
	<path fill="#FE6860" d="M376.7386,443.5125h0.0098c-2.3096,1.5303-2.9297,4.6299-1.3994,6.9297
		c0.96,1.4502,2.5498,2.2402,4.1699,2.2402c0.9492,0,1.9092-0.2695,2.7598-0.8398c2.2998-1.5303,2.9199-4.6299,1.3994-6.9297
		C382.1487,442.613,379.0384,441.9822,376.7386,443.5125z"/>
	<path fill="#FE6860" d="M458.6585,136.7024c0.7998,0,1.6104-0.1899,2.3701-0.5996c2.4297-1.3101,3.3301-4.3501,2.0195-6.7803
		c-1.3096-2.4297-4.3496-3.3301-6.7793-2.02c-2.4199,1.3203-3.3301,4.3501-2.0107,6.7803
		C455.1585,135.7527,456.8782,136.7024,458.6585,136.7024z"/>
	<path fill="#FE6860" d="M471.138,163.6628c0.6006,0,1.2207-0.1104,1.8105-0.3501c2.5801-1,3.8496-3.8999,2.8496-6.4702
		c-1.0098-2.5698-3.9102-3.8501-6.4795-2.8398c-2.5703,1-3.8506,3.8999-2.8398,6.4697
		C467.2483,162.4524,469.138,163.6628,471.138,163.6628z"/>
	<path fill="#FE6860" d="M399.9583,425.9529c-2.0996,1.7998-2.3398,4.96-0.54,7.0498c0.9902,1.1504,2.3906,1.75,3.7998,1.75
		c1.1504,0,2.3008-0.4004,3.25-1.21c2.0908-1.7998,2.3408-4.9502,0.54-7.0498
		C405.2083,424.3923,402.0589,424.1531,399.9583,425.9529z"/>
	<path fill="#FE6860" d="M351.5589,458.0925c-2.4707,1.2305-3.4707,4.2402-2.2402,6.71c0.8799,1.75,2.6396,2.7705,4.4795,2.7705
		c0.75,0,1.5107-0.1699,2.2305-0.5303c2.4697-1.2402,3.4697-4.2402,2.2402-6.71
		C357.0384,457.863,354.0286,456.863,351.5589,458.0925z"/>
	<path fill="#FE6860" d="M446.0882,381.823c-2.25-1.6006-5.3701-1.0703-6.9697,1.1797s-1.0596,5.3799,1.1904,6.9697
		c0.8799,0.6201,1.8896,0.9199,2.8896,0.9199c1.5596,0,3.1104-0.7295,4.0801-2.0996c0-0.0098,0-0.0098,0-0.0098
		C448.8782,386.533,448.3382,383.4128,446.0882,381.823z"/>
	<path fill="#FE6860" d="M296.7688,477.4226c-2.7002,0.5898-4.4102,3.25-3.8203,5.9502c0.5098,2.3398,2.5801,3.9297,4.8799,3.9297
		c0.3604,0,0.7197-0.0303,1.0703-0.1104c2.7002-0.5898,4.4102-3.2598,3.8193-5.9492
		C302.1282,478.5427,299.468,476.8328,296.7688,477.4226z"/>
	<path fill="#FE6860" d="M38.1683,369.4226c-2.3496,1.46-3.0698,4.54-1.6099,6.8896c0.9502,1.5205,2.5801,2.3604,4.25,2.3604
		c0.8999,0,1.8101-0.2402,2.6401-0.7598c2.3398-1.4502,3.0601-4.54,1.6001-6.8799
		C43.5984,368.6824,40.5086,367.9724,38.1683,369.4226z"/>
	<path fill="#FE6860" d="M24.6087,342.9822c-2.5103,1.1504-3.6001,4.1201-2.4404,6.6309c0.8403,1.8291,2.6504,2.9092,4.54,2.9092
		c0.7002,0,1.4102-0.1494,2.0903-0.46c2.5098-1.1592,3.5996-4.1299,2.4497-6.6396
		C30.0887,342.9128,27.1184,341.823,24.6087,342.9822z"/>
	<path fill="#FE6860" d="M100.2884,58.8225c1.0503,0,2.1099-0.3301,3.02-1.0098c2.2002-1.6699,2.6299-4.8101,0.96-7.0103
		c-1.6699-2.1997-4.8101-2.6299-7.0098-0.96c-2.2002,1.6602-2.6299,4.8003-0.96,7C97.2786,58.1428,98.7786,58.8225,100.2884,58.8225
		z"/>
	<path fill="#FE6860" d="M14.4183,315.0525c-2.6299,0.8398-4.0898,3.6504-3.25,6.2803c0.6802,2.1201,2.6504,3.4795,4.77,3.4795
		c0.5,0,1.0103-0.0801,1.5103-0.2393c2.6401-0.8301,4.0898-3.6504,3.25-6.2803S17.0486,314.2126,14.4183,315.0525z"/>
	<path fill="#FE6860" d="M13.5887,290.073c-0.5-2.7207-3.1104-4.5107-5.8301-4c-2.71,0.5-4.5,3.1191-4,5.8301
		c0.4497,2.4092,2.5498,4.0791,4.9097,4.0791c0.3101,0,0.6201-0.0195,0.9302-0.0791
		C12.3084,295.3923,14.0984,292.783,13.5887,290.073z"/>
	<path fill="#FE6860" d="M54.8684,394.0125c-2.1499,1.7305-2.48,4.8799-0.75,7.0303c0.9902,1.2197,2.4399,1.8604,3.8999,1.8604
		c1.1001,0,2.21-0.3604,3.1299-1.1104c2.1504-1.7305,2.4902-4.8799,0.7603-7.0303
		C60.1683,392.613,57.0183,392.2722,54.8684,394.0125z"/>
	<path fill="#FE6860" d="M151.5887,29.0525c0.6499,0,1.3096-0.1196,1.9497-0.3999c2.5503-1.0801,3.73-4.0098,2.6499-6.5498
		c-1.0898-2.5503-4.02-3.73-6.5596-2.6504c-2.54,1.0903-3.7305,4.02-2.6504,6.5601
		C147.7884,27.9128,149.6385,29.0525,151.5887,29.0525z"/>
	<path fill="#FE6860" d="M125.0286,42.3528c0.8501,0,1.71-0.21,2.5-0.6699c2.3897-1.3901,3.1997-4.4502,1.8101-6.8403
		c-1.3804-2.3901-4.4404-3.1997-6.8301-1.8101c-2.3901,1.3804-3.2002,4.4399-1.8101,6.8301
		C121.6184,41.4627,123.2986,42.3528,125.0286,42.3528z"/>
	<path fill="#FE6860" d="M14.2786,178.1829c0.5,0.1597,1.0098,0.23,1.5,0.23c2.1299,0,4.1001-1.3604,4.77-3.4902
		c0.8301-2.6299-0.6201-5.4399-3.2603-6.2798c-2.6299-0.8301-5.4399,0.6299-6.27,3.2598
		C10.1785,174.5325,11.6385,177.3425,14.2786,178.1829z"/>
	<path fill="#FE6860" d="M77.7386,78.2024c1.2598,0,2.52-0.4697,3.4897-1.4199c1.98-1.9199,2.02-5.0898,0.1001-7.0698
		c-1.9302-1.98-5.0898-2.02-7.0698-0.1001c-1.98,1.9302-2.0303,5.0898-0.1001,7.0703
		C75.1385,77.6926,76.4383,78.2024,77.7386,78.2024z"/>
	<path fill="#FE6860" d="M24.4085,150.2126c0.6802,0.3101,1.3901,0.46,2.0898,0.46c1.8901,0,3.7002-1.0801,4.54-2.9199
		c1.1602-2.5103,0.0601-5.48-2.4497-6.6299c-2.5103-1.1504-5.48-0.0503-6.6304,2.46
		C20.8084,146.0925,21.9085,149.0525,24.4085,150.2126z"/>
	<path fill="#FE6860" d="M54.5984,99.0828c0.9302,0.7397,2.0303,1.1099,3.1299,1.1099c1.46,0,2.9102-0.6401,3.9004-1.8701
		c1.73-2.1597,1.3896-5.2998-0.7603-7.0298c-2.1602-1.73-5.2998-1.3901-7.0298,0.7598
		C52.1087,94.2127,52.4485,97.3528,54.5984,99.0828z"/>
	<path fill="#FE6860" d="M179.6087,19.1326c0.4497,0,0.9097-0.0601,1.3696-0.1899c2.6602-0.7598,4.1899-3.5298,3.4399-6.1802
		c-0.7598-2.6597-3.5298-4.1997-6.1899-3.4399c-2.6499,0.7603-4.1899,3.5303-3.4297,6.1899
		C175.4285,17.7024,177.4285,19.1326,179.6087,19.1326z"/>
	<path fill="#FE6860" d="M7.6785,207.1726c0.3101,0.0498,0.6099,0.0801,0.9102,0.0801c2.3696,0,4.4697-1.6802,4.9199-4.0898
		c0.5-2.7202-1.3003-5.3203-4.0103-5.8301c-2.7197-0.5-5.3301,1.2998-5.8301,4.0098
		C3.1683,204.0627,4.9685,206.6726,7.6785,207.1726z"/>
	<path fill="#FE6860" d="M5.3387,266.4724c2.7598-0.1699,4.8496-2.54,4.6797-5.29c-0.1699-2.7598-2.54-4.8594-5.2998-4.6895
		c-2.75,0.1699-4.8501,2.5498-4.6802,5.2998c0.1699,2.6494,2.3701,4.6895,4.9902,4.6895
		C5.1287,266.4822,5.2386,266.4822,5.3387,266.4724z"/>
	<path fill="#FE6860" d="M4.6985,236.7527c0.1099,0.0098,0.21,0.0098,0.3101,0.0098c2.6201,0,4.8301-2.0498,4.98-4.6997
		c0.1699-2.7603-1.9302-5.1299-4.6899-5.29c-2.7603-0.1699-5.1201,1.9297-5.29,4.6899
		C-0.1516,234.2224,1.9485,236.5828,4.6985,236.7527z"/>
	<path fill="#FE6860" d="M267.4983,10.8328c0.1602,0.0098,0.3105,0.02,0.46,0.02c2.5498,0,4.7402-1.9502,4.9697-4.5503
		c0.25-2.75-1.7793-5.1797-4.5293-5.4297s-5.1807,1.7798-5.4307,4.5298S264.7483,10.5828,267.4983,10.8328z"/>
	<path fill="#FE6860" d="M351.138,34.4426c0.7207,0.3599,1.4805,0.52,2.2207,0.52c1.8398,0,3.6094-1.0103,4.4902-2.77
		c1.2295-2.48,0.2197-5.48-2.2607-6.7002c0-0.0098,0-0.0098,0-0.0098c-2.4697-1.2202-5.4697-0.2202-6.7002,2.2598
		C347.6585,30.2127,348.6682,33.2127,351.138,34.4426z"/>
	<path fill="#FE6860" d="M209.9085,480.1228c-2.73-0.4199-5.2798,1.4502-5.7002,4.1895c-0.4199,2.7305,1.4502,5.2803,4.1802,5.7002
		c0-0.0098,0-0.0098,0-0.0098c0.2598,0.04,0.5098,0.0596,0.77,0.0596c2.4199,0,4.5498-1.7695,4.9302-4.2393
		C214.5086,483.0925,212.6385,480.5427,209.9085,480.1228z"/>
	<path fill="#FE6860" d="M324.3089,23.1228c0.5498,0.1899,1.1094,0.2798,1.6494,0.2798c2.0703,0,4-1.2798,4.7197-3.3398
		c0.9209-2.6104-0.46-5.46-3.0596-6.3799c0,0.0098,0,0.0098,0,0.0098c-2.6104-0.9199-5.46,0.4502-6.3701,3.0601
		C320.3284,19.3626,321.6985,22.2127,324.3089,23.1228z"/>
	<path fill="#FE6860" d="M267.9983,481.863c-2.75,0.2598-4.7695,2.6895-4.5195,5.4395c0.2393,2.5898,2.4199,4.54,4.9795,4.54
		c0.1504,0,0.2998,0,0.46-0.0195c2.75-0.25,4.7705-2.6904,4.5205-5.4404S270.7483,481.613,267.9983,481.863z"/>
	<path fill="#FE6860" d="M238.8982,482.7625c-2.7598-0.0801-5.0698,2.0898-5.1499,4.8506
		c-0.0801,2.7598,2.0903,5.0596,4.8501,5.1494c0.0498,0,0.1001,0,0.1499,0c2.7002,0,4.9199-2.1396,5-4.8496
		C243.8284,485.1423,241.6585,482.8425,238.8982,482.7625z"/>
	<path fill="#FE6860" d="M181.4686,473.9421c-2.6602-0.7598-5.4199,0.79-6.1802,3.4404c-0.75,2.6602,0.79,5.4297,3.4502,6.1797
		c0.4497,0.1299,0.9097,0.1904,1.3599,0.1904c2.1802,0,4.1899-1.4404,4.8101-3.6396
		C185.6585,477.4529,184.1185,474.6921,181.4686,473.9421z"/>
	<path fill="#FE6860" d="M376.3684,48.9827c0.8496,0.5601,1.8096,0.8301,2.7598,0.8301c1.6201,0,3.21-0.79,4.1699-2.2402
		c1.5303-2.2998,0.8906-5.4097-1.4102-6.9297c-2.2998-1.52-5.3994-0.8901-6.9297,1.4097
		C373.4388,44.3528,374.0686,47.4627,376.3684,48.9827z"/>
	<path fill="#FE6860" d="M127.9183,451.2927c-2.3896-1.3799-5.4399-0.5605-6.8296,1.8301
		c-1.3804,2.3896-0.5601,5.4502,1.8296,6.8301c0.79,0.4502,1.6504,0.6699,2.5,0.6699c1.73,0,3.4102-0.9004,4.3301-2.5
		C131.1287,455.7322,130.3186,452.6726,127.9183,451.2927z"/>
	<path fill="#FE6860" d="M296.2786,15.2127c0.3496,0.0801,0.71,0.1201,1.0596,0.1201c2.2998,0,4.3799-1.6001,4.8799-3.9502
		c0.5908-2.6997-1.1299-5.3599-3.8301-5.9399c-2.6992-0.5801-5.3594,1.1299-5.9395,3.8301
		C291.8587,11.9724,293.5784,14.6326,296.2786,15.2127z"/>
	<path fill="#FE6860" d="M208.6385,12.7625c0.25,0,0.5098-0.02,0.77-0.0601c2.73-0.4297,4.6001-2.9897,4.1699-5.71
		c-0.4199-2.73-2.98-4.5996-5.71-4.1699c-2.73,0.4199-4.5898,2.9702-4.1699,5.7002
		C204.0887,10.9924,206.2083,12.7625,208.6385,12.7625z"/>
	<path fill="#FE6860" d="M238.2283,10.0027c0.0601,0,0.1104,0,0.1699-0.0103c2.7603-0.0796,4.9204-2.3896,4.8301-5.1499
		c-0.0801-2.7598-2.3896-4.9297-5.1499-4.8398c-2.7598,0.0898-4.9302,2.3999-4.8398,5.1602
		C233.3284,7.8626,235.5486,10.0027,238.2283,10.0027z"/>
	<path fill="#FE6860" d="M103.6482,435.2029c-2.1997-1.6699-5.3398-1.2305-7,0.9697c-1.6597,2.21-1.23,5.3398,0.9805,7.0098
		c0.8999,0.6807,1.96,1.0098,3.0098,1.0098c1.5098,0,3.0098-0.6895,3.9902-1.9893
		C106.2986,440.0027,105.8587,436.863,103.6482,435.2029z"/>
	<path fill="#FE6860" d="M74.4685,416.3728c-1.9199,1.9795-1.8701,5.1494,0.1099,7.0693c0.9702,0.9404,2.23,1.4102,3.48,1.4102
		c1.3003,0,2.6099-0.5098,3.5898-1.5195c1.9204-1.9805,1.8701-5.1504-0.1099-7.0703S76.3885,414.3923,74.4685,416.3728z"/>
	<path fill="#FE6860" d="M153.9886,464.2722c-2.54-1.0693-5.48,0.1201-6.5503,2.6602c-1.0796,2.54,0.1104,5.4805,2.6504,6.5498
		c0.6396,0.2705,1.2998,0.4004,1.9497,0.4004c1.9502,0,3.8003-1.1504,4.6099-3.0498
		C157.7186,468.283,156.5286,465.3523,153.9886,464.2722z"/>
	<path fill="#FE6860" d="M402.8782,67.7127c1.4102,0,2.8105-0.6001,3.7998-1.7603c1.79-2.0898,1.54-5.25-0.5498-7.0498
		c-2.0996-1.79-5.2598-1.54-7.0498,0.5601c-1.7998,2.1001-1.5498,5.25,0.5498,7.0498
		C400.5686,67.3128,401.7288,67.7127,402.8782,67.7127z"/>
</g>
</svg>
