<?xml version="1.0" standalone="no"?>
<!DOCTYPE svg PUBLIC "-//W3C//DTD SVG 1.1//EN" "http://www.w3.org/Graphics/SVG/1.1/DTD/svg11.dtd">
<!-- Generator: Adobe Illustrator 16.0.0, SVG Export Plug-In . SVG Version: 6.00 Build 0)  -->
<svg xmlns="http://www.w3.org/2000/svg" xmlns:xlink="http://www.w3.org/1999/xlink" version="1.1" x="0px" y="0px" width="500px" height="499.443px" viewBox="0 0 500 499.443" style="enable-background:new 0 0 500 499.443;" xml:space="preserve">
<g id="Layer_1">
	<rect x="14.284" y="16.052" style="fill:none;" width="471.541" height="468.378"/>
</g>
<g id="nw">
	<rect x="0" y="0" style="fill:none;" width="14.284" height="16.053"/>
	<g id="change1">
		<path style="fill:#54A4A6;" d="M13.957,11.883c0.112,0.015,0.219,0.03,0.327,0.044V2.126C10.161,2.05,6.037,1.975,1.898,1.902    c-0.091,4.723-0.186,9.443-0.283,14.151h10.321c-0.032-1.396-0.063-2.795-0.094-4.211C12.541,11.858,13.258,11.871,13.957,11.883z    "/>
	</g>
</g>
<g id="ne">
	<rect x="485.825" y="0" style="fill:none;" width="14.175" height="16.053"/>
	<g id="change1_2_">
		<path style="fill:#54A4A6;" d="M488.155,11.858c-0.023,1.391-0.048,2.794-0.072,4.194h9.756c0.084-4.704,0.168-9.412,0.252-14.13    c-4.094-0.082-8.179-0.165-12.265-0.247V11.91C486.603,11.893,487.371,11.876,488.155,11.858z"/>
	</g>
</g>
<g id="se">
	<rect x="485.825" y="484.43" style="fill:none;" width="14.175" height="15.013"/>
	<g id="change1_4_">
		<path style="fill:#54A4A6;" d="M497.29,486.16c0.029-0.569,0.066-1.105,0.101-1.729    C497.499,484.837,497.424,485.477,497.29,486.16z M486.031,488.129c-0.069-0.01-0.137-0.019-0.205-0.028v9.056    c3.778-0.013,7.355-0.021,11.284-0.029c0-3.276,0.047-6.766,0.185-10.941c-0.13,1.093-0.335,2.04-0.52,2.513    c0.038-0.473,0.046-0.983,0.08-1.437c0.025-0.355,0.05-0.708,0.084-1.051l0.088-0.671c0.069-0.389,0.131-0.757,0.193-1.109h-9.16    c0.027,1.241,0.055,2.481,0.082,3.74C487.447,488.158,486.735,488.145,486.031,488.129z"/>
	</g>
</g>
<g id="sw">
	<rect x="0" y="484.43" style="fill:none;" width="14.284" height="15.013"/>
	<g id="change1_6_">
		<path style="fill:#54A4A6;" d="M12.562,488.522c-0.381,0.059-0.754,0.109-1.089,0.122c0.188-0.98,0.369-2.145,0.536-3.531    l-0.104-0.683h-9.76c-0.08,4.55-0.162,9.105-0.244,13.668c4.134,0.083,8.257,0.166,12.382,0.249v-9.031    c-0.441-0.005-0.884-0.01-1.328-0.015C12.592,489.168,12.432,488.95,12.562,488.522z"/>
	</g>
</g>
<g id="w">
	<rect x="0" y="16.052" style="fill:none;" width="14.284" height="468.378"/>
	<g id="change1_7_">
		<path style="fill:#54A4A6;" d="M12.328,381.265c0.071,0.565,0.142,1.135,0.226,1.675    C12.453,382.292,12.386,381.751,12.328,381.265z M12.441,422.78l-0.297,0.021l0,0h-0.004l0.264,1.286L12.441,422.78z     M1.605,383.682l-0.453-2.966l0.373,5.588L1.605,383.682z M12.6,426.055c-0.082-0.045-0.137,0.018-0.209,0.004l0,0    c-0.001,0-0.002,0.001-0.004,0C12.508,426.399,12.592,426.504,12.6,426.055z M0,91.654c0.7-5.768,1.608-0.708,1.814-9.425    c0.586-0.364,0.397,6.279,1.164,3.418l0.968-7.414c-0.122-0.934-0.26-1.738-0.423-2.488c-0.092-0.306-0.18-0.708-0.268-1.151    c-0.218-0.854-0.482-1.78-0.796-2.937c-0.151-0.033-0.314,0.297-0.503,1.27c0.088-0.913,0.197-1.542,0.306-1.981    c-0.075-0.272-0.138-0.512-0.222-0.812l0.377,0.339c0.243-0.507,0.499-0.297,0.767,0.197c-0.247-2.287-0.544-5.136-0.8-7.955    c-0.138,0.276-0.297,0.616-0.494,1.077c-0.029-2.945,0.004-5.785,0.063-8.587c-0.004-0.649,0.004-1.248,0.038-1.763    c0.017-0.695,0.025-1.408,0.046-2.09C0.432,50.039,1.374,35.768,1.42,30.419c0.071,2.048,0.599,2.421,0.863,2.626    c-0.569-4.302-0.754-8.641-0.75-13.001c0.028-1.327,0.054-2.661,0.082-3.991h10.321c0.046,2.036,0.092,4.059,0.136,6.064    c0.419,2.111,0.507-1.219,1.102-1.575c-0.176,2.505-1.357,3.217-0.607,6.614l0.775-0.758c-2.069,13.14,1.399,37.963-1.843,47.706    c0.528,5.437,0.436,10.187,0.31,15.05c0.164,1.981,0.335,3.862,0.502,5.479c-0.159-0.876-0.394-1.169-0.607-1.01    c-0.025,1.341-0.029,2.714-0.021,4.117c0.544-0.092,1.177-2.11,0.816,2.245c-0.23-1.319-0.699-0.436-0.787,0.746    c0.004,0.167,0.021,0.352,0.025,0.523l1.202,5.438c-0.331,5.684-0.662,11.745-0.913,17.923l0.109,1.295l-0.113-0.771    c1.164,6.937,0.486,16.147-0.248,25.769c0.034,1.202,0.063,2.422,0.118,3.603c-0.164,1.06-0.331,1.433-0.495,1.458    c-0.201,2.765-0.377,5.529-0.49,8.269c0.415,8.926,1.03,17.677,1.202,25.811l-0.57,0.432c0.117,2.216,0.197,4.135,0.268,5.944    c0.172,0.674,0.243,1.546,0.092,2.978c0.109,3.59,0.159,7.163,0.239,12.332c-0.013-0.084-0.021-0.121-0.038-0.192    c0,0.075,0,0.138,0,0.218l-0.562-0.922c-0.234,1.387-0.427,4.801-0.938,5.906c0.151,0.565,0.327,1.072,0.52,1.524    c0.235-0.054,0.453-0.046,0.691,1.546c0.171,0.377,0.335,0.763,0.478,1.194c0.829,4.754,0.373,6.898-0.31,8.968    c-0.18,5.299-0.541,10.317-0.838,15.092c0.473,0.155,0.838-1.085,1.433,0.679c-0.406,10.275,0.641,11.93,0.348,21.552    c0.164,6.635,0.394,12.684,0.385,22.443l-0.415,0.355c1.504,3.753-0.762,12.102,0.101,14.707    c-0.532-0.394-0.746-1.881-1.165-1.508l0.481,6.35c-0.096-0.595-0.23-1.109-0.373-1.558c0.44,2.789,1.093,5.771,1.357,9.303    c-0.184,0.695-0.406,0.977-0.641,1.106c0.021,2.145,0.034,4.28,0.071,6.404c0.59-0.004,1.076,0.599,1.06,4.792    c0,0-0.507-4.356-1.043-3.976c0.176,9.597,0.448,18.967,0.289,27.646l-0.913-1.319c0.054,1.168,0.096,2.421,0.13,3.689    c0.264,1.701,0.578,3.096,1.076,2.982c-0.406,0.499-0.733,0.188-1.018-0.418c0.05,3.56,0.004,7.175-0.197,10.078    c0.23,0.515,0.481,0.93,0.787,1.038c-0.184,1.513-0.415,2.635-0.632,3.921c0.164,0.192,0.318,0.218,0.444-0.23    c1.144,7.611-1.123,1.872-0.381,8.151c-0.164-1.277-0.323-2.467-0.549-3.154c-0.013,0.285-0.034,0.553-0.046,0.867    c0.046-0.355-0.013-0.758-0.088-1.131c-0.05-0.092-0.092-0.26-0.15-0.302l0.171,2.556c0.004,0.088,0.013,0.18,0.017,0.268    l0.93,13.944c-0.122,0.038-0.281,0.507-0.448,1.148c0.167,3.309,0.482,6.165,1.219,7.962c-1.026-0.745-1.232,2.446-1.312,5.89    l0.26,3.431l-0.331,0.729c-0.063,2.702-0.247,4.314-1.026,2.275l-0.122,0.268c0.021,0.318,0.034,0.629,0.059,0.964l1.231,5.83    h-0.004l0,0l-0.465,0.042c0.272,1.508,0.536,2.718,0.716,3.217c-0.001-0.001-0.002,0-0.004,0l0,0    c-0.445-0.088-0.704,0.409-0.859,1.236c0.557,2.132,1.215,3.815,1.14,6.296c-0.377,6.589-0.679,9.608-1.01,11.888    c0.105,2.187,0.185,4.49,0.461,6.283c-0.23-1.776-0.557-2.724-1.068-2.099c0.708,4.067,0.155,3.564-0.628,6.283    c0.457,0.523,0.691,1.642,0.8,3.107c0.402-0.578,0.846-1.508,1.294,0.356c-0.285,3.502-0.725,2.701-1.215,2.053    c0.004,0.862-0.013,1.775-0.034,2.701l1.169,4.83c-0.193,1.587-0.553,2.71-1.068,3.347c0.549,2.706,1.361,5.123,0.448,8.935    l-0.05-5.727c-0.201,1.529-0.356,3.129-0.486,4.788l0.625,4.093h-9.76c0.019-1.076,0.039-2.159,0.058-3.234l0.113-0.125    c-0.067-0.415-0.125-0.926-0.193-1.626c0.285,0.733,0.465,0.135,0.599-1.089c0.05-1.713,0.146-2.924,0.272-3.762    c0.012-0.276,0.029-0.548,0.046-0.825c-1.077-3.107-2.651-5.583-2.601-10.442l0.871,2.622    c-0.289-12.863-0.138-18.058,0.172-28.462l1.215,0.201c-0.566-3.725-0.562-8.378-1.127-12.131c0.143-0.419,0.26-0.909,0.373-1.408    l-0.062-0.896l0.08,0.82c0.574-2.643,0.716-6.3,0.653-10.551c-0.323-3.637-0.536-7.456-0.36-11.486    c-0.31-8.884-0.499-18.393,1.056-25.752l-2.262-0.984c0.046-5.944-0.406-13.567,1.294-16.357l-0.033,1.319    c1.73,0.591,0.038-5.952,0.419-9.659c-0.188-2.811-1.315-5.613-1.659-3.2c1.147-15.796-0.046-39.27,2.006-49.101    c-0.742-15.838-2.539-27.788-2.304-44.887l0.268,0.205c0.293-5.592,0.888-16.604,2.644-17.232    c-0.071-1.923-0.126-3.899-0.209-5.722c-0.83-9.362-2.53-16.894-1.827-29.2l0.729,3.184c0.034-0.348,0.05-0.733,0.063-1.114    c-0.067-1.855-0.138-3.661-0.227-5.429c-0.205-2.095-0.481-3.912-0.586-4.641c0.038-1.308,0.411-0.353,0.679-0.172    c0.641-3.515-0.373-5.601-0.557-8.407l0.637,1.144c0.209-1.894,0.293-4.013,0.331-6.225c-0.251-0.481-0.494-1.806-1.165-1.642    c0.046-3.498-0.377-10.749,0.532-11.557c0.008-1.161,0.059-2.107,0.125-3.092c-0.427-7.606-0.926-15.54-0.775-22.703    c0.075,1.102,0.234,1.517,0.419,1.566c-0.423-3.036-0.901-5.877-1.228-8.093c0.457,1.685,0.8,2.212,1.072,2.141    c-1.005-7.69-0.75-19.754-1.144-24.848l0.821,3.879c-1.382-12.273,2.216-10.623,0.817-22.804l-1.207,7    C1.341,94.686,0.939,90.472,0,91.654z M2.38,171.898c-0.038-0.067-0.109-0.197-0.147-0.269c-0.054-1.688-0.101-2.974-0.142-4.071    c-0.243,0.318-0.482,1.098-0.31,3.427C1.94,171.429,2.153,171.68,2.38,171.898z M11.716,474.633    c0.013,0.021,0.021,0.046,0.029,0.062v-0.146L11.716,474.633z M12.143,422.801h-0.004l0,0H12.143L12.143,422.801z M12.39,426.059    c-0.001-0.001-0.002,0-0.004,0l0,0C12.388,426.06,12.389,426.059,12.39,426.059L12.39,426.059z"/>
	</g>
</g>
<g id="s">
	<rect x="14.284" y="484.43" style="fill:none;" width="471.541" height="15.013"/>
	<g id="change1_5_">
		<path style="fill:#54A4A6;" d="M224.97,496.209c0.004-0.001,0.008-0.003,0.012-0.004h1.367l-2.543,0.578    c0.361-0.22,0.74-0.412,1.144-0.574H224.97z M104.749,495.704c-0.122,0.013-0.246,0.022-0.367,0.039    C104.508,495.731,104.631,495.719,104.749,495.704z M178.169,496.448c0.048,0.011,0.08,0.021,0.125,0.031    C178.28,496.469,178.24,496.459,178.169,496.448z M65.654,498.465c-0.678,0.016-1.326,0.044-1.913,0.099    C64.542,498.543,65.158,498.509,65.654,498.465z M103.085,495.991c0.423-0.111,0.856-0.188,1.297-0.248    C103.317,495.839,102.111,495.837,103.085,495.991z M248,495.662c-0.024,0.012-0.046,0.023-0.046,0.036    C247.954,495.698,247.975,495.682,248,495.662z M54.961,499.204c-2.099-0.004-4.164-0.013-6.686,0.239l4.21-0.415    c-1.106-0.042-2.354-0.172-3.716-0.327c-4.687,0.49-14.208-0.088-18.351-0.121c2.044-0.067,2.417-0.595,2.626-0.863    c-4.302,0.565-8.641,0.75-13.001,0.746c-1.914-0.037-3.841-0.077-5.759-0.115v-9.031c0.32,0.004,0.635,0.007,0.963,0.011    c2.823-0.004,5.688-0.013,8.57-0.021c4.917-0.012,9.852,0.009,14.703,0.118c0.08-0.055,0.151-0.105,0.134-0.172l1.294,0.05    l-1.219,0.122c0.771,0.021,1.55,0.021,2.308,0.041l-1.491,0.223c0.222,0.033,0.39,0.033,0.599,0.059    c2.295-0.172,4.683-0.298,7.184-0.369c2.497-0.59,4.905-1.369,9.483-1.093l-2.103,0.373c1.68,0.213,3.602,0.343,5.609,0.439    c0.867-0.159,1.717-0.318,2.56-0.486c-0.395,0.227-0.947,0.382-1.438,0.524c1.751,0.062,3.573,0.101,5.463,0.101    c1.437-0.302,2.827-0.675,7.648-0.931c-1.399,0.364-1.76,0.633-1.412,0.83c0.788-0.025,1.562-0.042,2.351-0.076    c0.536-0.36,1.998-0.624,3.237-0.745c-0.536,0.247-0.888,0.452-1.151,0.645c6.408-0.301,12.578-0.787,17.064-1.256    c-1.109,0.201-1.311,0.52-0.783,0.767c0.977-0.093,2.479-0.029,3.875-0.029c0.23-0.565-2.4-1.315,2.258-0.931    c-1.189,0.206-0.574,0.607,0.427,0.75c0.314-0.021,0.406-0.021,0.13,0.013c0.159,0.017,0.298,0.055,0.465,0.055l5.685-1.261    c7.976,0.465,16.709,0.934,25.472,1.164c1.608-0.05,3.188-0.055,4.821-0.146c-0.26,0.071-0.729,0.146-1.248,0.23    c6.384,0.113,12.738,0.084,18.766-0.201c0.703,0.109,1.102,0.222,1.303,0.327c4.662-0.398,9.521-0.859,15.377-1.173    c0.582,1.784-12.072,0.657-15.532,1.671c-0.185,0.101-0.415,0.201-0.637,0.302c-0.079,0.062-0.146,0.125-0.18,0.205    c12.155-0.276,24.231-1.312,35.206-1.541l0.097,0.129c4.298-0.229,8.654-0.477,13.106-0.745c0.942,0.465,2.031,0.716,3.191,0.884    c1.198-0.185,2.823-0.306,5.316-0.268l-0.721,0.443c3.016-0.125,6.392-0.49,9.944-0.624c0.008,0,0.017-0.004,0.024-0.008    c5.207-0.909,7.293-0.272,9.567,0.507c-0.238-0.863,4.684-1.186,10.1-1.215c-1.981,0.812,4.113,0.833,2.417,1.42    c0.485-0.088,1.08-0.168,1.721-0.243c-0.066-0.227,0.059-0.465,0.931-0.754c10.689,0.423,11.963-0.746,22.678-0.318    c1.918,0.821,1.918,1.089,1.332,1.173c2.17,0.066,4.377,0.088,6.124-0.181c-0.113-0.037-0.192-0.083-0.314-0.121    c0.36-0.004,0.662-0.004,0.972-0.009c0.218-0.046,0.478-0.07,0.679-0.134c6.38,0.704,13.689-0.39,21.689,0.176    c-2.56-1.08,6.107-0.666,9.915-0.955c-0.721,0.084-1.391,0.197-1.118,0.302c0.678,0.289,1.742,0.335,2.982,0.276    c2.061-0.368,4.238-0.762,6.71-0.946c0.335,0.092,0.569,0.192,0.745,0.297c1.165-0.05,2.3-0.05,3.301,0.084    c2.045,0.423-0.502,1.094,2.815,1.182c0.017-0.122,0.293-0.243,0.737-0.36c-0.088-0.834-0.913-1.713,4.699-1.688    c0,0-6.459,0.737-3.083,1.374c3.771-0.549,11.093-0.862,14.381-0.113c-2.078-0.004-2.111,0.419-3.385,0.746    c1.923-0.13,3.866-0.205,5.818-0.293c0.192-0.159,0.352-0.36,0.46-0.637c0.424,0.247,0.737,0.423,1.022,0.569    c3.824-0.146,7.707-0.209,11.591-0.234c1.344-0.239,2.32-0.528,2.232-0.955c0.452,0.373,0.234,0.679-0.269,0.946    c3.477-0.017,6.971-0.013,10.472,0.009c0.23-0.159,0.415-0.331,0.495-0.52c1.269,0.155,2.258,0.344,3.312,0.527    c9.948,0.034,19.918-0.017,29.711-0.732c0.318-0.093,0.708-0.163,0.98-0.276c-0.067,0.083-0.042,0.15-0.05,0.222    c0.024,0,0.05-0.004,0.075-0.004l-0.075,0.029c-0.071,0.871,3.33,1.021,6.739,1.076c2.082-0.8,3.447-1.923,9.194-1.817    c12.193,0.284,24.584,0.8,36.945,1.243c4.025,0.122,8.038,0.252,12.059,0.369l0.671-0.163c0.41,0.054,0.712,0.143,1.063,0.222    c1.562,0.046,3.142,0.092,4.7,0.139c0.377,0.008,0.745,0.012,1.122,0.021c1.266-0.185,2.664-0.188,4.281,0.075    c1.433,0.025,2.865,0.051,4.298,0.075l0.653-0.096c0.26,0.028,0.491,0.061,0.725,0.093v9.056    c-0.871-0.005-1.784-0.034-2.706-0.063c-0.461,0.046-0.917,0.093-1.357,0.13c0.759,0.188,0.382,0.411-2.32,0.671    c0.741-0.289,0.134-0.47-1.089-0.604c-1.713-0.051-2.915-0.143-3.762-0.269c-2.031-0.112-4.176-0.226-5.449-0.427l-0.854,0.507    c-2.639-0.549,0.185-0.775,2.329-0.959c-0.059,0.167,0.67,0.318,2.152,0.293c-0.176-0.163-0.238-0.331-0.271-0.503    c-0.239,0.08-0.993,0.143-1.881,0.21c0.066-0.118,0.603-0.26,1.859-0.294c-0.101-0.502-0.285-0.992-3.259-1.248    c-2.061,0.101-3.979,0.264-5.789,0.474c-0.406,0.456,0.159,0.909,0.763,1.164c-1.277-0.075-2.35-0.079-3.313-0.042    c-0.926,0.227-2.421,0.402-4.264,0.523c-2.895,0.633-4.813,1.546-10.443,1.061c-1.466-0.005-5.328-1.006-9.793-1.676    c-1.7,0.163-3.326,0.247-4.867,0.247c1.382,0.117,2.928,0.256,4.481,0.302c-0.284,0.071-0.637,0.088-0.946,0.134    c0.787,0.143,1.034,0.327-0.101,0.616c-0.825-0.218-1.676-0.318-2.521-0.457c-1.295-0.033-2.514-0.167-3.506-0.394    c-9.249-0.511-19.177,2.325-31.022,0.904l0.562-0.443c-1.617,0.021-3.171-0.113-4.474-0.671l5.387-0.046l0.302-0.238l-0.771,0.15    l-0.265-0.214c-1.993-0.05-4.037-0.07-6.148-0.05c-0.553,0.104-1.123,0.197-1.776,0.272l3.519,0.549    c-2.735,0.264-8.466,0.121-9.123-0.52c-0.155-0.009-0.272-0.009-0.432-0.017c-0.649-0.059-1.323-0.076-1.977-0.13    c-5.257,0.586-7.322,0.05-13.388-0.265c6.459,0.097,1.89,0.177,4.025-0.28c-0.888-0.033-1.784-0.046-2.672-0.075    c-2.594,0.26-4.939,0.578-6.883,0.972c0.616,0.23,1.039,0.368-1.202,0.465l0.113-0.268c-0.335-0.172,0.059-0.406,0.059-0.406    c-8.704-0.201-16.378,1.801-21.706,0.854l1.696-0.164c-6.937-1.621-17.915,1.5-19.436-1.215c-2.576,0-5.136-0.013-7.69-0.054    c-1.24,0.364-2.874,0.59-6.107,0.31c1.257,0.092,0.851-0.075,1.273-0.327c-1.332,0.013-2.79,0.038-4.272,0.067    c0.318,0.042,0.679,0.08,1.098,0.139c-0.486-0.071-0.914-0.076-1.392-0.135c-5.771,0.109-12.356,0.323-18.062,0.545    c-0.067-0.017-0.159-0.021-0.227-0.038c-0.335,0.025-0.648,0.055-0.913,0.088c0.386-0.017,0.788-0.033,1.14-0.05    c0.31,0.084,0.653,0.155,0.913,0.243l-2.312-0.164c-0.042,0.005-0.096,0.009-0.142,0.021c-0.353-0.15-0.633-0.352-1.01-0.528    c-0.746-0.104-1.513-0.205-2.329-0.271c-0.322,0.708-2.258,0.72-4.025,0.812l1.014,1.198c-3.435,0.33-3.687-0.607-2.296-1.103    c-0.359,0.047-0.695,0.105-0.955,0.193c-0.913-0.097-1.386-0.227-1.662-0.364c-7.628,0.8-15.256,1.462-24.375,0.348l1.42-0.486    c-6.99,0.172-4.079-0.092-3.564-0.503c-0.247-0.004-0.515-0.029-0.762-0.033c-0.015,0.013-0.043,0.024-0.067,0.035    c0.013-0.011,0.026-0.021,0.042-0.035c-1.248-0.013-2.459,0.004-3.648,0.05c-0.811,0.268-1.293,0.598-2.019,0.79    c-0.003-0.001-0.006-0.001-0.009-0.002c-0.002,0.001-0.006,0.001-0.008,0.002c-3.072-0.798-10.345,0.868-12.291,0.337    c-0.046,0.587-3.045,0.432-6.375,0.424c1.542-0.147,2.467-0.298,3.045-0.448c-0.008,0.004-0.029,0.004-0.029,0.004    c0.038-0.013,0.101-0.017,0.139-0.029c1.303-0.364,0.527-0.741,0.968-1.198c-1.226,0.162-2.118,0.367-2.833,0.649h-0.024    c-0.003,0.001-0.005,0.003-0.008,0.004l-2.3,0.005c-7.498,1.235-18.862,1.193-27.691,1.75c-0.256-0.205-0.88-0.401-1.659-0.603    c-1.516,0.055-2.653,0.113-2.588,0.328c-0.002-0.001-0.003-0.001-0.005-0.002c0,0.001,0.002,0.003,0.003,0.005    c-1.759-0.524-4.305-0.834-3.995-1.655c-0.033-0.004-0.066-0.013-0.104-0.017c-3.816,0.348-9.24-0.314-11.439,0.348    c0.322,0.063,0.637,0.117,0.968,0.188c-0.386,0.009-0.582,0.046-0.847,0.075l0.076,0.009c1.908-0.043,3.029-0.094,2.927-0.161    c4.058,0.964-0.407,0.791-0.125,1.975c-3.497-0.042-10.744,0.377-11.553-0.531c-2.006-0.018-3.38-0.143-5.412-0.311    c-0.72,0.059-1.449,0.113-2.161,0.159c-0.088,0.004-0.167,0.013-0.255,0.021c-3.436,0.222-6.803,0.293-10.468-0.126l0.017-0.21    c-2.309,0.206-4.629,0.503-6.841,0.821c0.164,0.071,0.314,0.126,0.503,0.205c-1.177,0.113-2.174,0.164-3.087,0.185    c-1.705,0.264-3.28,0.516-4.62,0.712c1.127-0.306,1.722-0.557,1.985-0.774c-3.648-0.247-5.663-1.048-11.314-0.348    c-2.894-0.348,0.084-1.266-3.217-1.78c-1.868,0.23-3.686,0.213-5.44,0.096c-0.076,0.034-0.164,0.076-0.219,0.113    c-0.046-0.059-0.196-0.104-0.284-0.163c-4.058-0.332-7.786-1.167-11.054-0.819c0.568-0.069,1.004-0.18,0.871-0.379    c-1.312,0.062-2.48,0.104-3.561,0.151c-1.597,0.427-2.358,0.725-3.703,0.888l1.973,0.138c-3.456-0.07-4.029,0.968-10.627,0.369    c-3.812,0.591-5.973,1.843-1.826,1.859c-1.676,0.164-5.37-0.519-4.059-1.281c-10.296-0.033-4.931,2.701-14.857,1.495    c0.674-0.075,1.395-0.205,1.021-0.355c-1.623-0.118-3.049-0.153-4.328-0.124c2.887-0.255,1.144-0.854,1.065-1.233    c-2.915,0.297-6.12,0.595-8.851,0.732c0.126,0.307,0.122,0.591-0.788,0.83c0.042-0.424-2.052-0.428-4.523-0.604L54.961,499.204z     M458.444,496.385c0.26-0.021,0.507-0.05,0.763-0.079C458.954,496.335,458.678,496.351,458.444,496.385z M262.15,488.925    c0.009,0.051,0.051,0.092,0.033,0.151c0.042-0.06,0.155-0.084,0.21-0.135L262.15,488.925z M167.551,497.905    c0.322,0.247,1.102,0.486,3.431,0.314c0.448-0.159,0.695-0.373,0.917-0.599c-0.071,0.037-0.201,0.104-0.272,0.143    C169.943,497.822,168.653,497.868,167.551,497.905z M133.99,497.294c-0.21-0.075-0.406-0.143-0.578-0.218l-2.141,0.36    L133.99,497.294z M128.842,496.41c2.497,0.176,7.113-0.481,11.276-0.469l-4.252,0.716c2.153,0.029,5.24,0.055,8.877,0.075    l0.313-0.021c-0.037,0.013-0.062,0.017-0.101,0.021c0.951,0.005,1.932,0.009,2.937,0.009c-0.624-0.121-1.114-0.318-1.27-0.717    c-5.973-0.934-10.605,0.248-17.714,0.373C128.884,496.401,128.867,496.406,128.842,496.41z M96.07,488.799    c0.264,0.005,0.527,0.013,0.829,0.005c0.419-0.075,0.641-0.168,0.75-0.269C97.003,488.615,96.426,488.711,96.07,488.799z     M69.651,496.929c0.395,0.004,0.863,0.021,1.354,0.046l0.117-0.134c-0.021-0.021-0.062-0.042-0.092-0.059    C70.593,496.829,70.133,496.875,69.651,496.929z M224.949,496.209h0.021c0.004-0.001,0.008-0.003,0.012-0.004h-0.024    C224.954,496.206,224.952,496.208,224.949,496.209z M423.249,498.115l6.267-0.398l-4.624,0.243L423.249,498.115z M68.955,498.94    c-0.104-0.009-0.138-0.013-0.242-0.021C67.31,499.057,68.11,499.032,68.955,498.94z M190.709,497.692    c0.047,0.125,0.334,0.271,1.254,0.523c-0.259-0.209-0.743-0.372-1.252-0.526C190.712,497.69,190.71,497.691,190.709,497.692    L190.709,497.692z M190.709,497.692L190.709,497.692c0.001-0.001,0.003-0.002,0.002-0.003c-0.002-0.001-0.003-0.001-0.005-0.002    C190.706,497.688,190.708,497.69,190.709,497.692z M102.591,496.661c-0.9-0.104-1.625-0.146-2.266-0.159L102.591,496.661z     M242.359,496.467c-0.453,0.119-1.014,0.191-1.834,0.146c0.637,0.069,1.198,0.114,2.353-0.001    c-0.152-0.062-0.306-0.103-0.502-0.145c-0.002,0.001-0.003,0.001-0.005,0.002C242.366,496.468,242.363,496.468,242.359,496.467z     M240.525,496.612c-0.292-0.032-0.598-0.068-0.986-0.098C239.907,496.565,240.231,496.595,240.525,496.612z M242.359,496.467    c0.004,0.001,0.008,0.001,0.012,0.002c0.002-0.001,0.003-0.001,0.005-0.002c-0.003-0.001-0.006-0.001-0.009-0.002    C242.365,496.466,242.361,496.466,242.359,496.467z M249.42,487.182c-2.195-0.113-5.056-0.181-7.871-0.181L249.42,487.182z     M277.204,487.836c0.318-0.097,0.695-0.172,0.913-0.31l-5.345-0.524C274.171,487.433,275.662,487.677,277.204,487.836z     M309.788,486.956c-0.268,0.021-0.628,0.059-0.979,0.104C309.186,487.031,309.529,486.998,309.788,486.956z M240.67,487.002    c0.306,0,0.578,0,0.879,0l-0.862-0.021C240.67,486.989,240.687,486.994,240.67,487.002z"/>
	</g>
</g>
<g id="n">
	<rect x="14.284" y="0" style="fill:none;" width="471.541" height="16.053"/>
	<g id="change1_1_">
		<path style="fill:#54A4A6;" d="M431.28,1.085c-0.097-0.008-0.139-0.013-0.234-0.021C431.887,0.976,432.683,0.955,431.28,1.085z     M308.033,1.788c0.256,0.214,0.745,0.373,1.257,0.528C309.248,2.191,308.968,2.044,308.033,1.788z M250.576,12.822    c2.199,0.122,5.056,0.18,7.862,0.18L250.576,12.822z M190.203,13.052c0.276-0.025,0.633-0.063,0.984-0.101    C190.811,12.976,190.467,13.01,190.203,13.052z M259.306,13.023c0.017-0.008,0-0.013,0.017-0.021c-0.302,0-0.569,0-0.88,0    L259.306,13.023z M408.35,0c3.41,0.419,3.041,0.9,3.963,1.286c1.03-0.063,2.593,0.138,3.48,0.465    c0.57,0.029,1.198,0.054,1.969,0.071c0.122,0.192-0.54,0.301-1.345,0.394c0.018,0.113-0.024,0.234-0.238,0.36    c10.292,0.029,4.93-2.706,14.854-1.5c-0.675,0.08-1.396,0.205-1.026,0.356c1.627,0.118,3.052,0.153,4.329,0.124    c-2.879,0.254-1.138,0.854-1.062,1.233c1.298-0.13,2.668-0.268,4.013-0.381c-0.272-0.143-0.611-0.302-1.081-0.499    c2.007-0.021,3.958-0.013,5.89,0.008c-0.059-0.255,0.05-0.49,0.821-0.691c-0.047,0.423,2.044,0.427,4.515,0.603l-2.404-1.014    c2.107,0.004,4.172,0.013,6.686-0.239l-4.21,0.415c1.106,0.042,2.362,0.172,3.716,0.331c4.691-0.494,14.208,0.083,18.355,0.117    c-2.04,0.071-2.417,0.599-2.631,0.863c4.311-0.565,8.646-0.75,13.002-0.746c1.955,0.04,3.922,0.079,5.881,0.118V11.91    c-2.675,0.06-5.323,0.118-7.946,0.182c-2.111,0.415,1.219,0.507,1.571,1.102c-2.505-0.176-3.217-1.366-6.61-0.612l0.759,0.762    c-12.897-2.031-37.017,1.257-47.115-1.692c-0.336,0.025-0.654,0.046-1.022,0.067c0.239-0.067,0.415-0.117,0.599-0.176    c-0.054-0.017-0.108-0.025-0.159-0.042c-5.424,0.528-10.161,0.431-15.012,0.306c-1.994,0.167-3.896,0.335-5.521,0.507    c0.88-0.164,1.169-0.394,1.006-0.607c-1.337-0.025-2.71-0.029-4.113-0.021c0.083,0.544,2.119,1.177-2.245,0.817    c1.197-0.205,0.573-0.607-0.428-0.75c-0.31,0.021-0.41,0.021-0.134-0.013c-0.071-0.008-0.134-0.017-0.21-0.025    c-0.15,0.004-0.326,0.021-0.478,0.025l-5.462,1.206c-5.688-0.331-11.762-0.666-17.953-0.913l-1.257,0.101l0.771-0.113    c-6.929,1.16-16.119,0.486-25.728-0.248c-1.228,0.034-2.446,0.063-3.645,0.126c-0.703-0.109-1.098-0.218-1.299-0.327    c-4.657,0.398-9.521,0.858-15.381,1.177c-0.523-1.604,9.622-0.863,14.204-1.428c-2.412-0.167-4.825-0.314-7.213-0.415    c-8.938,0.418-17.702,1.03-25.845,1.202l-0.097-0.13c-4.302,0.234-8.658,0.478-13.114,0.746c-0.633-0.314-1.354-0.515-2.104-0.687    c-1.88,0.029-3.945,0.059-6.371,0.096c0.067-0.013,0.105-0.021,0.177-0.029c-0.08,0-0.135,0-0.201,0l0.72-0.444    c-3.016,0.125-6.4,0.49-9.952,0.624c-0.009,0-0.017,0.004-0.025,0.008c-4.771,0.833-6.907,0.369-8.98-0.314    c-0.185-0.004-0.352-0.017-0.536-0.025c-0.406,0.742-5.094,1.022-10.153,1.047c1.981-0.812-4.109-0.833-2.43-1.42    c-0.486,0.092-1.081,0.167-1.713,0.243c0.066,0.227-0.059,0.465-0.938,0.758c-10.296-0.411-11.934,0.641-21.635,0.344    c-6.602,0.159-12.634,0.394-22.36,0.385l-0.355-0.419c-3.753,1.508-12.102-0.762-14.703,0.104    c0.051-0.071,0.155-0.121,0.239-0.184c-1.571,0.021-3.116,0.042-4.252,0.134c0.717-0.088,1.391-0.197,1.119-0.306    c-0.679-0.289-1.738-0.335-2.975-0.276c-2.057,0.369-4.247,0.762-6.706,0.947c-0.344-0.092-0.578-0.193-0.754-0.297    c-1.164,0.05-2.3,0.05-3.305-0.08c-0.353-0.08-0.541-0.155-0.675-0.243c-0.926,0.013-1.847,0.021-2.772,0.038    c0,0.599-0.6,1.089-4.797,1.064c0,0,4.382-0.502,3.972-1.043c-1.839,0.029-3.67,0.063-5.492,0.101    c-1.839,0.109-3.795,0.151-5.566,0.101c-5.705,0.104-11.284,0.18-16.588,0.084l1.006-0.695c-1.378,0.021-2.761,0.033-4.139,0.05    c-1.341,0.235-2.32,0.524-2.229,0.951c-0.448-0.373-0.23-0.679,0.268-0.942c-3.477,0.012-6.966,0.008-10.467-0.009    c-0.235,0.155-0.424,0.327-0.499,0.516c-1.265-0.151-2.262-0.339-3.309-0.528c-0.23,0-0.466,0-0.695,0    c-0.08,0.117-0.029,0.239,0.322,0.331c-4.993,0.758-4.248,0.038-4.905-0.339c-1.252,0-2.496,0.021-3.749,0.029    c-0.394,0.05-0.796,0.096-1.177,0.155c0.432-0.063,0.792-0.109,1.151-0.155c-6.928,0.046-13.831,0.218-20.65,0.716    c-0.326,0.088-0.708,0.159-0.984,0.272c0.067-0.083,0.038-0.151,0.046-0.222c-0.024,0-0.05,0.004-0.075,0.004l0.08-0.029    c0.059-0.804-2.836-0.993-5.981-1.06l-1.014,0.075c-1.948,0.792-3.423,1.826-8.952,1.726c-12.193-0.285-24.583-0.8-36.949-1.244    c-4.03-0.122-8.034-0.248-12.055-0.369l-0.67,0.171c-0.415-0.05-0.712-0.142-1.06-0.218c-1.571-0.05-3.15-0.096-4.712-0.142    c-0.377-0.009-0.741-0.013-1.119-0.021c-1.265,0.184-2.664,0.188-4.276-0.076c-1.437-0.025-2.87-0.05-4.298-0.075l-0.653,0.096    c-0.218-0.024-0.413-0.05-0.607-0.077V2.126c1.506,0.027,3.021,0.054,4.523,0.082l0.565,0.507    c0.122-0.008,0.251-0.021,0.364-0.025c3.364,0.034,5.24,0.188,6.317,0.419c3.196-1.076,5.676-2.718,10.631-2.664l-2.626,0.872    c12.864-0.289,18.058-0.138,28.467,0.171l-0.205,1.211c3.724-0.566,8.378-0.562,12.131-1.127    c8.495,2.953,33.707-1.558,49.269,1.743l0.984-2.266c5.943,0.046,13.562-0.402,16.356,1.294l-1.319-0.033    c-0.595,1.734,5.952,0.038,9.659,0.419c2.807-0.188,5.613-1.315,3.2-1.659c15.796,1.152,39.266-0.042,49.097,2.006    c15.842-0.742,27.792-2.539,44.887-2.3l-0.201,0.264c5.438,0.289,16.014,0.855,17.174,2.501c2.681-0.26,5.312-0.616,6.376-0.331    c0.041-0.561,2.794-0.444,5.939-0.427c6.727-0.812,13.312-1.667,22.661-1.135l-3.18,0.733c0.36,0.038,0.767,0.05,1.16,0.067    c1.81-0.067,3.578-0.138,5.299-0.222c2.137-0.209,3.984-0.49,4.729-0.599c1.299,0.042,0.352,0.415,0.168,0.679    c0.816,0.151,1.558,0.197,2.249,0.197c0.23-0.042,0.36-0.096,0.335-0.176c0.15,0.042,0.318,0.088,0.486,0.134    c1.876-0.126,3.451-0.591,5.336-0.712l-1.151,0.641c1.901,0.209,4.021,0.289,6.232,0.322c0.494-0.247,1.793-0.486,1.638-1.152    c3.498,0.042,10.749-0.377,11.557,0.532c1.152,0.008,2.086,0.05,3.059,0.125c7.619-0.432,15.557-0.934,22.74-0.783    c-0.134,0.008-0.214,0.025-0.326,0.038c0.796-0.059,1.566-0.109,2.229-0.125c1.7-0.264,3.288-0.515,4.624-0.712    c-1.131,0.306-1.726,0.557-1.985,0.775c0.485,0.029,0.959,0.063,1.407,0.113c7.674-0.796,18.522-0.599,23.281-0.968l-3.879,0.825    c12.273-1.386,10.623,2.212,22.804,0.813l-6.995-1.202C405.318,1.344,409.528,0.938,408.35,0z M332.442,2.098    c-0.318-0.243-1.098-0.486-3.427-0.314c-0.448,0.159-0.699,0.373-0.917,0.604c0.071-0.042,0.205-0.109,0.272-0.146    C330.062,2.182,331.344,2.136,332.442,2.098z M358.504,1.73c-0.117-0.05-0.239-0.096-0.369-0.151    c-0.322,0.084-0.49,0.172-0.511,0.276C357.913,1.814,358.21,1.772,358.504,1.73z M429.327,3.187    c0.327-0.029,0.662-0.067,1.014-0.109c-0.23-0.004-0.527-0.017-0.787-0.025C429.487,3.099,429.411,3.141,429.327,3.187z     M412.367,1.29c0.36,0.134,0.913,0.26,1.918,0.348C414.135,1.445,413.553,1.315,412.367,1.29z M434.335,1.556    c0.677-0.016,1.324-0.043,1.912-0.099C435.446,1.477,434.83,1.512,434.335,1.556z M119.283,1.156l-5.588,0.373l2.622,0.076    L119.283,1.156z"/>
	</g>
</g>
<g id="e">
	<rect x="485.825" y="16.052" style="fill:none;" width="14.175" height="468.378"/>
	<g id="change1_3_">
		<path style="fill:#54A4A6;" d="M498.932,431.04c0.093,0.847,0.117,1.643-0.017,0.239    C498.924,431.182,498.924,431.145,498.932,431.04z M498.212,308.033c-0.219,0.256-0.378,0.745-0.528,1.257    C497.81,309.248,497.96,308.963,498.212,308.033z M486.998,258.442l0.185-7.866C487.061,252.779,486.998,255.64,486.998,258.442z     M487.853,374.102l0.004,0.044c0.035,0.242,0.066,0.489,0.105,0.727L487.853,374.102z M500,408.349    c-0.419,3.401-0.896,3.05-1.273,3.967c0.071,1.03-0.13,2.614-0.465,3.498c-0.025,0.569-0.055,1.198-0.071,1.96    c-0.201,0.122-0.302-0.54-0.394-1.353c-0.117,0.021-0.234-0.025-0.352-0.234c-0.029,10.291,2.697,4.926,1.491,14.853    c-0.076-0.674-0.201-1.398-0.353-1.025c-0.118,1.595-0.153,2.999-0.126,4.262c-0.421-4.64-1.769,3.05-1.508-4.719    c-0.083-0.126-0.167-0.276-0.251-0.461c-0.331,0.712-0.427,1.969-0.427,3.447c1.113,1.646-0.336,8.817,1.834,3.67    c0.017,2.002,0.009,3.958-0.008,5.889c0.247-0.059,0.494,0.038,0.695,0.813c-0.432-0.042-0.432,2.052-0.607,4.527l1.026-2.392    c0,2.107-0.009,4.172,0.234,6.689l-0.411-4.21c-0.176,4.57-1.805,11.523-0.82,19.524c-0.193-0.968-0.461-2.325-0.754-3.07    c-0.168,6.241-0.176,12.327,0.326,18.447c-0.218,0.515-0.402,1.164-0.553,1.91c-0.005,0.027-0.011,0.06-0.016,0.088h-9.16    c-0.049-2.196-0.099-4.379-0.152-6.539c-0.415-2.111-0.503,1.219-1.098,1.575c0.176-2.505,1.357-3.217,0.611-6.614l-0.762,0.758    c2.027-12.905-1.266-37.041,1.684-47.127c-0.017-0.331-0.033-0.646-0.059-1.014c0.066,0.234,0.113,0.41,0.176,0.59    c0.017-0.046,0.025-0.101,0.042-0.15c-0.896-9.203-0.025-16.437-0.201-25.623c-0.088-0.95-0.108-1.449-0.009-0.511    c-0.079-3.226-0.289-6.697-0.754-10.589c0.323-2.296,0.637-1.14,0.905,0.004c-0.017-2.827-0.046-5.692-0.046-8.591l-0.541-6.453    c0.035,0.242,0.066,0.489,0.105,0.727l-0.109-0.771l0.004,0.044c-1.141-7.807-0.143-18.277,0.642-28.955    c-0.419-4.968-0.913-10.095-1.257-16.369c1.6-0.523,0.862,9.592,1.424,14.183c0.188-2.769,0.352-5.524,0.452-8.26    c-0.448-12.156-1.051-24.676-1.863-37.979c0.318-0.637,0.52-1.354,0.687-2.091c-0.029-1.889-0.055-3.954-0.101-6.379    c0.223,1.403,0.36,1.68,0.486,1.353c-0.126-5.068-1.14-11.229-0.369-17.534c0.025-0.879,0.034-1.763,0.067-2.63    c-0.737-0.406-1.018-5.094-1.043-10.149c0.809,1.981,0.833-4.109,1.424-2.413c-0.565-3.108-0.926-9.814-0.661-14.396    c-0.143-0.314-0.302-0.545-0.536-0.587c-0.071-11.372-0.545-17.697-0.537-31.658l0.419-0.356    c-1.503-3.753,0.763-12.102-0.104-14.698c0.075,0.051,0.122,0.15,0.193,0.243c-0.025-1.579-0.051-3.129-0.135-4.265    c0.08,0.717,0.193,1.391,0.302,1.114c0.486-1.131,0.31-3.271,0.051-5.676c0,0.08-0.018,0.126-0.025,0.21c0-0.176,0-0.348,0-0.523    c-0.285-2.598-0.62-5.467-0.311-7.75c0.067-0.348,0.151-0.531,0.235-0.661c-0.051-3.108-0.097-6.183-0.168-9.236    c-0.097-1.772-0.139-3.645-0.088-5.354c-0.113-5.73-0.185-11.335-0.088-16.663l0.695,1.014    c-0.101-6.966-0.059-14.016-0.033-21.077c-0.126-0.088-0.243-0.038-0.336,0.313c-0.754-5.01-0.033-4.234,0.344-4.904    c0-1.24-0.017-2.472-0.025-3.707c-0.05-0.411-0.108-0.825-0.167-1.22c0.066,0.444,0.117,0.817,0.167,1.186    c-0.05-7.288-0.218-14.548-0.778-21.702l1.415,3.858c0.771-5.727,0.47-8.206-0.108-9.974c-0.062,0.444-0.109,0.913-0.134,1.37    l-0.159-2.187c-0.792-1.944-1.822-3.427-1.722-8.939c0.28-12.197,0.8-24.588,1.248-36.949c0.185-6.183,0.377-12.353,0.562-18.494    c0.057-3.087,0.11-6.15,0.162-9.201h9.756c-0.017,0.925-0.033,1.855-0.05,2.78l-0.108,0.118c0.062,0.415,0.125,0.925,0.192,1.621    c-0.562-1.432-0.721,2.162-0.922,5.693c1.077,3.1,2.647,5.575,2.598,10.434l-0.871-2.622c0.293,12.864,0.142,18.058-0.168,28.462    l-1.215-0.201c0.562,3.72,0.562,8.374,1.127,12.127c-0.143,0.41-0.256,0.9-0.373,1.395l0.063,0.909l-0.08-0.829    c-0.574,2.63-0.721,6.274-0.657,10.514c0.335,3.661,0.544,7.51,0.359,11.564c0.314,8.872,0.503,18.364-1.055,25.72l2.266,0.979    c-0.05,5.944,0.402,13.572-1.299,16.366l0.034-1.328c-1.726-0.591-0.034,5.952-0.419,9.659c0.192,2.811,1.315,5.621,1.658,3.204    c-1.147,15.801,0.047,39.266-2.002,49.101c0.737,15.834,2.538,27.784,2.304,44.888l-0.264-0.201    c-0.285,5.429-0.846,15.988-2.496,17.174c0.264,2.677,0.615,5.307,0.33,6.366c0.565,0.051,0.448,2.812,0.432,5.982    c0.805,6.714,1.659,13.286,1.123,22.623l-0.721-3.184c-0.377,3.724,0.527,9.693,0.754,11.185    c-0.042,1.303-0.415,0.348-0.675,0.167c-0.15,0.821-0.205,1.55-0.205,2.237c0.055,0.242,0.101,0.368,0.185,0.343    c-0.046,0.159-0.088,0.331-0.13,0.499c0.113,1.868,0.587,3.447,0.704,5.323l-0.637-1.139c-1.295,11.699,1.257,30.159,0.946,45.218    c-0.008-0.097-0.017-0.143-0.025-0.227c0.201,2.681,0.117,4.574-0.059,6.183c0.788,7.678,0.595,18.51,0.964,23.272l-0.825-3.883    c1.382,12.277-2.212,10.623-0.812,22.804l1.206-6.995C498.656,405.317,499.062,409.531,500,408.349z M496.78,22.133    c0.062-0.888,0.125-1.722,0.205-2.417l-0.055,0.059C496.88,20.554,496.85,21.291,496.78,22.133z M498.417,358.147    c-0.272-1.14-0.775-0.15-1.031,0.746C497.667,360.233,497.801,359.626,498.417,358.147z M498.706,412.362    c-0.135,0.36-0.26,0.918-0.353,1.928C498.547,414.151,498.689,413.556,498.706,412.362z M498.458,434.276    c0.016,0.703,0.044,1.374,0.102,1.979C498.539,435.425,498.504,434.78,498.458,434.276z M486.944,190.203    c0.029,0.276,0.071,0.633,0.109,0.984C487.019,190.814,486.994,190.471,486.944,190.203z M486.998,258.442l-0.017,0.863    c0.008,0.017,0.008,0,0.017,0.017C486.998,259.02,486.998,258.748,486.998,258.442z M487.999,91.809    c-0.025,0.695,0.009,1.336,0.143,1.805L487.999,91.809z M498.388,116.326l0.452,2.966l-0.377-5.592L498.388,116.326z"/>
	</g>
</g>
</svg>
