<?xml version="1.0" standalone="no"?>
<!DOCTYPE svg PUBLIC "-//W3C//DTD SVG 1.1//EN" "http://www.w3.org/Graphics/SVG/1.1/DTD/svg11.dtd">
<!-- Generator: Adobe Illustrator 16.0.0, SVG Export Plug-In . SVG Version: 6.00 Build 0)  -->
<svg xmlns="http://www.w3.org/2000/svg" xmlns:xlink="http://www.w3.org/1999/xlink" version="1.1" id="Layer_1" x="0px" y="0px" width="500px" height="499.998px" viewBox="0 0 500 499.998" style="enable-background:new 0 0 500 499.998;" xml:space="preserve">
<g id="se">
	<g id="change1_8_">
		<polygon style="fill:#318BA2;" points="434.282,486.039 486.04,434.281 434.282,434.281   "/>
	</g>
	<g id="change2_7_">
		<polygon style="fill:#54A4A6;" points="486.04,434.281 434.282,486.039 434.282,499.998 440.066,499.998 500,440.062 500,434.281       "/>
	</g>
</g>
<g id="s">
	<g id="change1_7_">
		<rect x="65.723" y="434.281" style="fill:#318BA2;" width="368.561" height="51.758"/>
	</g>
	<g id="change2_6_">
		<rect x="65.723" y="486.039" style="fill:#54A4A6;" width="368.561" height="13.959"/>
	</g>
</g>
<g id="sw">
	<g id="change1_6_">
		<polygon style="fill:#318BA2;" points="13.964,434.281 65.723,486.039 65.723,434.281   "/>
	</g>
	<g id="change2_5_">
		<polygon style="fill:#54A4A6;" points="13.964,434.281 0,434.281 0,440.062 59.941,499.998 65.723,499.998 65.723,486.039   "/>
	</g>
</g>
<g id="w">
	<g id="change1_5_">
		<rect x="13.964" y="65.722" style="fill:#318BA2;" width="51.759" height="368.559"/>
	</g>
	<g id="change2_4_">
		<rect y="65.722" style="fill:#54A4A6;" width="13.964" height="368.559"/>
	</g>
</g>
<g id="c">
	<g id="change1_3_">
		<rect x="65.723" y="65.722" style="fill:#318BA2;" width="368.561" height="368.559"/>
	</g>
</g>
<g id="e">
	<g id="change1_4_">
		<rect x="434.282" y="65.722" style="fill:#318BA2;" width="51.758" height="368.559"/>
	</g>
	<g id="change2_3_">
		<rect x="486.04" y="65.722" style="fill:#54A4A6;" width="13.96" height="368.559"/>
	</g>
</g>
<g id="nw">
	<g id="change1_2_">
		<polygon style="fill:#318BA2;" points="65.723,13.963 13.964,65.722 65.723,65.722   "/>
	</g>
	<g id="change2_2_">
		<polygon style="fill:#54A4A6;" points="65.723,13.963 65.723,0 59.941,0 0,59.941 0,65.722 13.964,65.722   "/>
	</g>
</g>
<g id="ne">
	<g id="change1_1_">
		<polygon style="fill:#318BA2;" points="486.04,65.722 434.282,13.963 434.282,65.722   "/>
	</g>
	<g id="change2_1_">
		<polygon style="fill:#54A4A6;" points="486.04,65.722 500,65.722 500,59.941 440.066,0 434.282,0 434.282,13.963   "/>
	</g>
</g>
<g id="n">
	<g id="change1">
		<rect x="65.723" y="13.963" style="fill:#318BA2;" width="368.561" height="51.759"/>
	</g>
	<g id="change2">
		<rect x="65.723" style="fill:#54A4A6;" width="368.561" height="13.964"/>
	</g>
</g>
</svg>
