<?xml version="1.0" standalone="no"?>
<!DOCTYPE svg PUBLIC "-//W3C//DTD SVG 1.1//EN" "http://www.w3.org/Graphics/SVG/1.1/DTD/svg11.dtd">
<!-- Generator: Adobe Illustrator 16.0.0, SVG Export Plug-In . SVG Version: 6.00 Build 0)  -->
<svg xmlns="http://www.w3.org/2000/svg" xmlns:xlink="http://www.w3.org/1999/xlink" version="1.1" id="Layer_1" x="0px" y="0px" width="500px" height="500.006px" viewBox="0 0 500 500.006" style="enable-background:new 0 0 500 500.006;" xml:space="preserve">
<g id="nw">
	<g id="change1v">
		<path style="fill:#057CB2;" d="M44.492,0c-3.515,9.213-9.495,18.528-17.73,26.762C18.528,34.997,9.213,40.979,0,44.492v38.782    h31.078H71.27h12.004V71.271V31.075V0H44.492z"/>
	</g>
	<g>
		<path style="opacity:0.25;fill:#FFFFFF;enable-background:new    ;" d="M31.078,83.274H0V44.492    c9.213-3.513,18.526-9.495,26.762-17.73C34.997,18.528,40.979,9.213,44.492,0h38.78v31.075H77.41    c-25.586,0-46.332,20.743-46.332,46.332V83.274z M83.274,71.271c0-6.631-5.374-12.004-12.004-12.004    c-6.629,0-12.003,5.374-12.003,12.004c0,6.629,5.374,12.002,12.003,12.002C77.9,83.274,83.274,77.9,83.274,71.271z"/>
	</g>
</g>
<g id="w">
	<g id="change1_7_">
		<polygon style="fill:#057CB2;" points="71.27,83.274 31.078,83.274 0,83.274 0,416.723 31.078,416.723 71.27,416.723     83.274,416.723 83.274,83.274   "/>
	</g>
	<g>
		<path style="opacity:0.25;fill:#FFFFFF;enable-background:new    ;" d="M31.078,416.723H0V83.274h31.078V416.723z"/>
	</g>
</g>
<g id="sw">
	<g id="change1_6_">
		<path style="fill:#057CB2;" d="M71.27,416.723H31.078H0v38.787c9.209,3.517,18.526,9.491,26.762,17.727    c8.232,8.235,14.214,17.552,17.727,26.771h38.786v-31.088v-40.192v-12.003L71.27,416.723L71.27,416.723z"/>
	</g>
	<g>
		<path style="opacity:0.25;fill:#FFFFFF;enable-background:new    ;" d="M83.274,468.918v31.088H44.488    c-3.512-9.221-9.492-18.534-17.727-26.771C18.528,465.001,9.209,459.024,0,455.51v-38.787h31.078v5.866    c0,25.589,20.741,46.329,46.332,46.329H83.274L83.274,468.918z M71.27,416.723c-6.629,0-12.003,5.375-12.003,12.003    c0,6.633,5.374,12.008,12.003,12.008c6.63,0,12.004-5.375,12.004-12.008C83.274,422.098,77.9,416.723,71.27,416.723z"/>
	</g>
</g>
<g id="s">
	<g id="change1_5_">
		<polygon style="fill:#057CB2;" points="83.274,416.723 83.274,428.726 83.274,468.918 83.274,500.006 416.726,500.006     416.726,468.918 416.726,428.726 416.726,416.723   "/>
	</g>
	<g>
		<path style="opacity:0.25;fill:#FFFFFF;enable-background:new    ;" d="M416.726,468.918v31.088H83.274v-31.088H416.726z"/>
	</g>
</g>
<g id="c">
	<g id="change1_4_">
		<rect x="83.274" y="83.274" style="fill:#057CB2;" width="333.452" height="333.449"/>
	</g>
</g>
<g id="n">
	<g id="change1_3_">
		<polygon style="fill:#057CB2;" points="83.274,0 83.274,31.075 83.274,71.271 83.274,83.274 416.726,83.274 416.726,71.271     416.726,31.075 416.726,0   "/>
	</g>
	<g>
		<path style="opacity:0.25;fill:#FFFFFF;enable-background:new    ;" d="M83.274,31.075V0h333.452v31.075H83.274z"/>
	</g>
</g>
<g id="se">
	<g id="change1_2_">
		<path style="fill:#057CB2;" d="M468.924,416.723h-40.191h-12.007v12.003v40.192v31.088h38.787    c3.512-9.221,9.491-18.537,17.729-26.767c8.231-8.232,17.543-14.216,26.758-17.729v-38.787H468.924z"/>
	</g>
	<g>
		<path style="opacity:0.25;fill:#FFFFFF;enable-background:new    ;" d="M500,416.723v38.787    c-9.217,3.517-18.525,9.497-26.76,17.729c-8.236,8.229-14.219,17.546-17.729,26.767h-38.787v-31.088h5.872    c25.586,0,46.326-20.737,46.326-46.329v-5.866H500L500,416.723z M416.726,428.726c0,6.633,5.375,12.008,12.007,12.008    c6.627,0,12.002-5.375,12.002-12.008c0-6.628-5.375-12.003-12.002-12.003C422.101,416.723,416.726,422.098,416.726,428.726z"/>
	</g>
</g>
<g id="e">
	<g id="change1_1_">
		<polygon style="fill:#057CB2;" points="468.924,83.274 428.732,83.274 416.726,83.274 416.726,416.723 428.732,416.723     468.924,416.723 500,416.723 500,83.274   "/>
	</g>
	<g>
		<path style="opacity:0.25;fill:#FFFFFF;enable-background:new    ;" d="M468.924,83.274H500v333.449h-31.076V83.274z"/>
	</g>
</g>
<g id="ne">
	<g id="change1">
		<path style="fill:#057CB2;" d="M473.241,26.765C465.01,18.528,459.024,9.213,455.513,0h-38.787v31.075v40.196v12.002h12.007    h40.191H500V44.487C490.79,40.976,481.475,34.997,473.241,26.765z"/>
	</g>
	<g>
		<path style="opacity:0.25;fill:#FFFFFF;enable-background:new    ;" d="M416.726,31.075V0h38.787    c3.512,9.213,9.497,18.528,17.729,26.765c8.231,8.232,17.55,14.211,26.76,17.722v38.787h-31.076v-5.867    c0-25.586-20.74-46.332-46.329-46.332H416.726z M440.734,71.271c0-6.631-5.375-12.004-12.002-12.004    c-6.632,0-12.007,5.374-12.007,12.004c0,6.629,5.375,12.002,12.007,12.002C435.359,83.274,440.734,77.9,440.734,71.271z"/>
	</g>
</g>
</svg>
