<?xml version="1.0" standalone="no"?>
<!DOCTYPE svg PUBLIC "-//W3C//DTD SVG 1.1//EN" "http://www.w3.org/Graphics/SVG/1.1/DTD/svg11.dtd">
<!-- Generator: Adobe Illustrator 16.0.0, SVG Export Plug-In . SVG Version: 6.00 Build 0)  -->
<svg xmlns="http://www.w3.org/2000/svg" xmlns:xlink="http://www.w3.org/1999/xlink" version="1.1" id="Layer_1" x="0px" y="0px" width="500px" height="680.558px" viewBox="-0.001 0.003 500 680.558" style="enable-background:new -0.001 0.003 500 680.558;" xml:space="preserve">
<g id="change1">
	<path style="fill:#057CB2;" d="M499.999,49.169c0-6.375-3.228-12.001-8.125-15.34c0.964-0.648,1.871-1.382,2.695-2.206   c3.435-3.472,5.43-8.237,5.43-13.114c0-4.875-1.995-9.641-5.43-13.076c-3.434-3.472-8.239-5.429-13.076-5.429   c-4.877,0-9.679,1.957-13.112,5.393c-0.878,0.887-1.659,1.86-2.34,2.896c-3.311-4.996-8.978-8.289-15.43-8.289   c-6.429,0-12.113,3.288-15.439,8.273c-3.286-4.985-8.975-8.273-15.403-8.273c-6.464,0-12.116,3.288-15.438,8.273   c-3.326-4.985-8.979-8.273-15.443-8.273c-6.428,0-12.116,3.288-15.438,8.273c-3.326-4.985-8.976-8.273-15.439-8.273   c-6.429,0-12.117,3.288-15.407,8.273c-3.322-4.985-9.011-8.273-15.438-8.273c-6.429,0-12.117,3.288-15.439,8.273   c-3.326-4.985-8.975-8.273-15.439-8.273c-6.428,0-12.116,3.288-15.406,8.273c-3.322-4.985-9.011-8.273-15.439-8.273   c-6.428,0-12.117,3.288-15.439,8.273c-3.325-4.985-8.977-8.273-15.44-8.273c-6.429,0-12.115,3.288-15.403,8.273   c-3.324-4.985-9.013-8.273-15.44-8.273c-6.465,0-12.115,3.288-15.439,8.273c-3.326-4.985-8.977-8.273-15.441-8.273   c-6.428,0-12.116,3.288-15.44,8.273c-3.286-4.985-8.976-8.273-15.403-8.273c-6.464,0-12.115,3.288-15.441,8.273   c-3.323-4.985-8.975-8.273-15.438-8.273c-6.429,0-12.117,3.288-15.441,8.273c-3.324-4.985-8.975-8.273-15.403-8.273   c-6.464,0-12.115,3.288-15.44,8.273c-3.324-4.985-9.013-8.273-15.439-8.273c-6.451,0-12.118,3.292-15.43,8.287   c-0.68-1.035-1.46-2.008-2.337-2.894c-3.436-3.436-8.201-5.393-13.114-5.393c-4.875,0-9.641,1.957-13.075,5.393   c-3.436,3.472-5.431,8.237-5.431,13.112c0,4.877,1.995,9.642,5.431,13.076c0.828,0.837,1.737,1.582,2.703,2.237   C3.23,37.16-0.001,42.791-0.001,49.169c0,6.353,3.214,11.967,8.127,15.291c-4.914,3.362-8.127,8.977-8.127,15.331   c0,6.39,3.214,12.005,8.127,15.33c-4.914,3.324-8.127,8.938-8.127,15.329c0,6.354,3.214,11.969,8.127,15.329   c-4.914,3.324-8.127,8.938-8.127,15.329c0,6.354,3.214,11.969,8.127,15.293c-4.914,3.324-8.127,8.977-8.127,15.329   c0,6.391,3.214,12.005,8.127,15.331C3.213,190.385-0.001,196-0.001,202.39c0,6.353,3.214,11.967,8.127,15.329   c-4.914,3.324-8.127,8.938-8.127,15.293c0,6.391,3.214,12.005,8.127,15.329c-4.914,3.324-8.127,8.938-8.127,15.329   c0,6.354,3.214,12.005,8.127,15.329c-4.914,3.326-8.127,8.939-8.127,15.331c0,6.353,3.214,11.967,8.127,15.291   c-4.914,3.362-8.127,8.977-8.127,15.329c0,6.391,3.214,12.005,8.127,15.331c-4.914,3.322-8.127,8.939-8.127,15.327   c0,6.356,3.214,11.97,8.127,15.331c-4.914,3.326-8.127,8.939-8.127,15.292c0,6.392,3.214,12.005,8.127,15.33   c-4.914,3.326-8.127,8.976-8.127,15.331c0,6.353,3.214,12.006,8.127,15.328c-4.914,3.325-8.127,8.938-8.127,15.33   c0,6.353,3.214,11.97,8.127,15.328c-4.914,3.325-8.127,8.938-8.127,15.295c0,6.388,3.214,12.005,8.127,15.327   c-4.914,3.326-8.127,8.938-8.127,15.331c0,6.353,3.214,11.969,8.127,15.331c-4.914,3.322-8.127,8.938-8.127,15.327   c0,6.353,3.214,11.969,8.127,15.291c-4.914,3.362-8.127,8.979-8.127,15.331c0,6.392,3.214,12.005,8.127,15.331   c-4.914,3.322-8.127,8.938-8.127,15.327c0,6.356,3.214,11.969,8.127,15.331c-4.914,3.322-8.127,8.938-8.127,15.291   c0,6.376,3.227,12.003,8.125,15.341c-0.963,0.647-1.87,1.381-2.694,2.205c-3.436,3.474-5.431,8.239-5.431,13.112   c0,4.877,1.995,9.643,5.431,13.116c3.434,3.435,8.237,5.394,13.075,5.394c4.877,0,9.642-1.959,13.114-5.394   c0.877-0.887,1.658-1.86,2.337-2.896c3.312,4.996,8.979,8.289,15.43,8.289c6.426,0,12.115-3.29,15.439-8.275   c3.288,4.985,8.977,8.275,15.404,8.275c6.465,0,12.151-3.29,15.439-8.275c3.324,4.985,9.013,8.275,15.441,8.275   c6.426,0,12.115-3.29,15.438-8.275c3.326,4.985,8.978,8.275,15.441,8.275c6.428,0,12.117-3.29,15.403-8.275   c3.324,4.985,9.013,8.275,15.44,8.275c6.465,0,12.115-3.29,15.441-8.275c3.324,4.985,8.975,8.275,15.439,8.275   c6.428,0,12.116-3.29,15.44-8.275c3.288,4.985,8.975,8.275,15.403,8.275c6.464,0,12.115-3.29,15.44-8.275   c3.322,4.985,8.976,8.275,15.439,8.275c6.429,0,12.117-3.29,15.403-8.275c3.326,4.985,9.015,8.275,15.442,8.275   c6.465,0,12.113-3.29,15.439-8.275c3.322,4.985,8.975,8.275,15.439,8.275c6.428,0,12.116-3.29,15.438-8.275   c3.29,4.985,8.979,8.275,15.443,8.275c6.428,0,12.077-3.29,15.403-8.275c3.322,4.985,8.975,8.275,15.438,8.275   c6.429,0,12.117-3.29,15.443-8.275c3.322,4.985,8.975,8.275,15.438,8.275c6.429,0,12.117-3.29,15.403-8.275   c3.326,4.985,9.011,8.275,15.439,8.275c6.452,0,12.119-3.294,15.43-8.291c0.681,1.037,1.462,2.01,2.34,2.897   c3.434,3.435,8.235,5.394,13.112,5.394c4.837,0,9.643-1.959,13.076-5.394c3.435-3.474,5.43-8.239,5.43-13.116   c0-4.873-1.995-9.639-5.43-13.112c-0.831-0.821-1.74-1.553-2.702-2.199c4.901-3.338,8.132-8.968,8.132-15.347   c0-6.353-3.215-11.969-8.128-15.327c4.913-3.326,8.128-8.938,8.128-15.295c0-6.389-3.215-12.005-8.128-15.327   c4.913-3.326,8.128-8.979,8.128-15.331c0-6.389-3.215-12.005-8.128-15.331c4.913-3.322,8.128-8.938,8.128-15.327   c0-6.353-3.215-11.969-8.128-15.291c4.913-3.362,8.128-8.979,8.128-15.331c0-6.393-3.215-12.005-8.128-15.331   c4.913-3.322,8.128-8.939,8.128-15.327c0-6.356-3.215-11.97-8.128-15.331c4.913-3.322,8.128-8.939,8.128-15.292   c0-6.392-3.215-12.005-8.128-15.33c4.913-3.362,8.128-8.976,8.128-15.328c0-6.392-3.215-12.005-8.128-15.331   c4.913-3.325,8.128-8.938,8.128-15.33c0-6.353-3.215-11.966-8.128-15.292c4.913-3.361,8.128-8.975,8.128-15.331   c0-6.388-3.215-12.005-8.128-15.327c4.913-3.326,8.128-8.94,8.128-15.331c0-6.353-3.215-12.005-8.128-15.329   c4.913-3.324,8.128-8.938,8.128-15.329c0-6.354-3.215-11.967-8.128-15.293c4.913-3.36,8.128-8.975,8.128-15.329   c0-6.391-3.215-12.005-8.128-15.329c4.913-3.324,8.128-8.938,8.128-15.329c0-6.354-3.215-11.969-8.128-15.329   c4.913-3.326,8.128-8.94,8.128-15.293c0-6.391-3.215-12.005-8.128-15.329c4.913-3.326,8.128-8.94,8.128-15.331   c0-6.353-3.215-12.005-8.128-15.329c4.913-3.324,8.128-8.939,8.128-15.329c0-6.354-3.215-11.969-8.128-15.293   c4.913-3.36,8.128-8.976,8.128-15.329c0-6.391-3.215-12.005-8.128-15.329c4.913-3.325,8.128-8.939,8.128-15.33   c0-6.354-3.215-11.969-8.128-15.331C496.784,61.136,499.999,55.521,499.999,49.169z"/>
</g>
<g id="P">
	<rect x="30.713" y="35.456" style="fill:#ABAAAA;" width="438.573" height="609.652"/>
</g>
</svg>
