<?xml version="1.0" encoding="utf-8"?>
<!-- Generator: Adobe Illustrator 20.1.0, SVG Export Plug-In . SVG Version: 6.00 Build 0)  -->
<svg version="1.1" id="Star-star6shape-D5" xmlns="http://www.w3.org/2000/svg" xmlns:xlink="http://www.w3.org/1999/xlink" x="0px"
	 y="0px" viewBox="0 0 436.4 500" enable-background="new 0 0 436.4 500" xml:space="preserve">
<g id="change1">
	<polygon fill="#FF5D6A" points="355.4,250 425.7,128.2 285.1,128.2 218.2,12.3 151.3,128.2 10.7,128.2 81,250 10.7,371.8 
		151.3,371.8 218.2,487.7 285.1,371.8 425.7,371.8 	"/>
</g>
<g id="change2">
	<path fill="#BC0D23" d="M218.2,500l-70.5-122H0l73.9-128L0,122h147.7L218.2,0l70.5,122h147.7l-73.9,128l73.9,128H288.7L218.2,500z
		 M21.4,365.6h133.5l63.3,109.7l63.3-109.7H415L348.3,250L415,134.4H281.5L218.2,24.7l-63.3,109.7H21.4L88.1,250L21.4,365.6z"/>
</g>
</svg>
