<?xml version="1.0" encoding="utf-8"?>
<!-- Generator: Adobe Illustrator 16.0.0, SVG Export Plug-In . SVG Version: 6.00 Build 0)  -->
<!DOCTYPE svg PUBLIC "-//W3C//DTD SVG 1.1//EN" "http://www.w3.org/Graphics/SVG/1.1/DTD/svg11.dtd">
<svg version="1.1" xmlns="http://www.w3.org/2000/svg" xmlns:xlink="http://www.w3.org/1999/xlink" x="0px" y="0px"
	 width="700.887px" height="100px" viewBox="0 0 700.887 100" enable-background="new 0 0 700.887 100" xml:space="preserve">
<g id="C">
	<g id="change1">
		<rect x="212.943" y="42.201" fill="#9D427A" width="379" height="15.599"/>
	</g>
</g>
<g id="W">
	<g id="change1_1_">
		<polygon fill="#9D427A" points="32.11,0 0,0 55.044,50 0,100 32.11,100 87.157,50 		"/>
		<polygon fill="#9D427A" points="87.153,0 55.043,0 110.088,50 55.043,100 87.153,100 142.198,50 		"/>
		<polygon fill="#9D427A" points="212.943,42.201 188.655,42.201 142.196,0 110.083,0 165.131,50 110.083,100 142.196,100 
			188.654,57.8 212.943,57.8 		"/>
	</g>
</g>
<g id="E">
	<g id="change1_2_">
		<polygon fill="#9D427A" points="645.844,0 613.732,0 660.191,42.201 591.943,42.201 591.943,57.8 660.19,57.8 613.732,100 
			645.844,100 700.886,50 		"/>
	</g>
</g>
</svg>
