<?xml version="1.0" encoding="utf-8"?>
<!-- Generator: Adobe Illustrator 16.0.0, SVG Export Plug-In . SVG Version: 6.00 Build 0)  -->
<!DOCTYPE svg PUBLIC "-//W3C//DTD SVG 1.1//EN" "http://www.w3.org/Graphics/SVG/1.1/DTD/svg11.dtd">
<svg version="1.1" id="Layer_1" xmlns="http://www.w3.org/2000/svg" xmlns:xlink="http://www.w3.org/1999/xlink" x="0px" y="0px"
	 width="747.57px" height="100px" viewBox="0 0 747.57 100" enable-background="new 0 0 747.57 100" xml:space="preserve">
<g id="C">
	<g id="change1_1_">
		<rect x="221.285" y="42.199" fill="#D3E460" width="445" height="15.602"/>
	</g>
</g>
<g id="W">
	<g id="change1">
		<polygon fill="#D3E460" points="32.11,0 0,0 55.044,50 0,100 32.11,100 87.154,50 		"/>
		<polygon fill="#D3E460" points="87.152,0 55.042,0 110.087,50 55.042,100 87.152,100 142.197,50 		"/>
		<polygon fill="#D3E460" points="221.285,42.199 188.65,42.199 142.193,0 110.083,0 165.128,50 110.083,100 142.193,100 
			188.65,57.801 221.285,57.801 		"/>
	</g>
</g>
<g id="E">
	<g id="change1_2_">
		<polygon fill="#D3E460" points="747.57,50 680.737,0 680.737,42.199 666.285,42.199 666.285,57.801 680.737,57.801 680.737,100 		
			"/>
	</g>
</g>
</svg>
