<?xml version="1.0" encoding="UTF-8"?><svg xmlns="http://www.w3.org/2000/svg" enable-background="new 0 0 500 500" id="Layer_1" version="1.1" viewBox="0 0 500 500" x="0px" xml:space="preserve" y="0px">
<g id="NE">
	<g id="change1_1"><path d="m480 0h-11v33h31v-13c0-11-9-20-20-20z" fill="#fff"/></g>
</g>
<g id="E">
	<g id="change1_2"><rect fill="#fff" height="438" width="31" x="469" y="33"/></g>
</g>
<g id="C">
	<g id="change1_3"><rect fill="#fff" height="438" width="438" x="31" y="33"/></g>
</g>
<g id="N">
	<g id="change1_4"><rect fill="#fff" height="33" width="438" x="31"/></g>
</g>
<g id="NW">
	<g id="change1_5"><path d="m20 0c-11 0-20 9-20 20v13h31v-33h-11z" fill="#fff"/></g>
</g>
<g id="W">
	<g id="change1_6"><rect fill="#fff" height="438" width="31" y="33"/></g>
</g>
<g id="S">
	<g id="change1_7"><rect fill="#fff" height="29" width="438" x="31" y="471"/></g>
</g>
<g id="SW">
	<g id="change1_8"><path d="m0 471v9c0 11 9 20 20 20h11v-29h-31z" fill="#fff"/></g>
</g>
<g id="SE">
	<g id="change1_9"><path d="m480 500c11 0 20-9 20-20v-9h-31v29h11z" fill="#fff"/></g>
</g>
</svg>