<?xml version="1.0" encoding="utf-8"?>
<!-- Generator: Adobe Illustrator 20.1.0, SVG Export Plug-In . SVG Version: 6.00 Build 0)  -->
<svg version="1.1" id="Solid-Circletriple-D5" xmlns="http://www.w3.org/2000/svg" xmlns:xlink="http://www.w3.org/1999/xlink"
	 x="0px" y="0px" viewBox="0 0 500 500" enable-background="new 0 0 500 500" xml:space="preserve">
<g id="change1">
	<path fill="#FFE78D" d="M250,20C123.3,20,20,123.2,20,250s103.2,230,230,230s230-103.2,230-230S376.7,20,250,20z"/>
</g>
<g id="change2">
	<path fill="#F4D160" d="M250,7.5C116.3,7.5,7.5,116.4,7.5,250c0,133.7,108.8,242.5,242.5,242.5c133.6,0,242.5-108.8,242.5-242.5
		C492.5,116.4,383.6,7.5,250,7.5z M250,473.6C126.7,473.6,26.4,373.3,26.4,250S126.7,26.4,250,26.4S473.6,126.7,473.6,250
		S373.3,473.6,250,473.6z"/>
</g>
<g id="change3">
	<path fill="#EAB82A" d="M250,500C112.2,500,0,387.8,0,250S112.2,0,250,0s250,112.2,250,250S387.8,500,250,500z M250,15
		C120.4,15,15,120.4,15,250s105.4,235,235,235s235-105.4,235-235S379.6,15,250,15z"/>
</g>
</svg>
