<?xml version="1.0" encoding="utf-8"?><!DOCTYPE svg PUBLIC "-//W3C//DTD SVG 1.1//EN" "http://www.w3.org/Graphics/SVG/1.1/DTD/svg11.dtd">
<svg version="1.1" id="Layer_1" xmlns="http://www.w3.org/2000/svg" xmlns:xlink="http://www.w3.org/1999/xlink" x="0px" y="0px" viewBox="0 0 500 500" enable-background="new 0 0 500 500" xml:space="preserve">
<g id="change1_1"><circle fill="#7D8693" cx="249.5" cy="248.5" r="216.9"></circle></g>
<g id="change2_1"><path fill="#FFFFFF" d="M248.5,6C114.7,6,6,114.8,6,248.5S114.7,491,248.5,491C382.2,491,491,382.3,491,248.5
	C491,114.8,382.3,6,248.5,6z M248.5,451.6c-111.9,0-203.1-91.1-203.1-203.1S136.6,45.4,248.5,45.4s203.1,91.2,203.1,203.1
	S360.4,451.6,248.5,451.6z"></path></g>
<g id="change1_2"><circle fill="#7D8693" cx="248.5" cy="248.5" r="173.2"></circle></g>
<g id="change2_2"><path fill="#FFFFFF" d="M248.5,498.5c-137.9,0-250-112.1-250-250s112.1-250,250-250s250,112.1,250,250S386.4,498.5,248.5,498.5z
	 M248.5,13.4c-129.6,0-235.1,105.5-235.1,235.1s105.5,235.1,235.1,235.1s235.1-105.5,235.1-235.1S378.1,13.4,248.5,13.4z"></path></g>
</svg>