<?xml version="1.0" encoding="utf-8"?>
<!-- Generator: Adobe Illustrator 18.1.1, SVG Export Plug-In . SVG Version: 6.00 Build 0)  -->
<!DOCTYPE svg PUBLIC "-//W3C//DTD SVG 1.1//EN" "http://www.w3.org/Graphics/SVG/1.1/DTD/svg11.dtd">
<svg version="1.1" id="Layer_1" xmlns="http://www.w3.org/2000/svg" xmlns:xlink="http://www.w3.org/1999/xlink" x="0px" y="0px"
	 viewBox="0 0 500 500" enable-background="new 0 0 500 500" xml:space="preserve">
<g id="change">
	<path fill="#FFFFFF" d="M250,500C112.2,500,0,387.9,0,250C0,112.2,112.2,0,250,0c66.7,0,129.4,26,176.7,73.3S500,183.3,500,250
		C500,387.9,387.9,500,250,500z M250,15C120.4,15,15,120.4,15,250c0,129.6,105.4,235,235,235c129.6,0,235-105.4,235-235
		c0-62.7-24.5-121.7-68.9-166.1C371.7,39.5,312.7,15,250,15z"/>
	<path fill="#FFFFFF" d="M250,470.5c-121.6,0-220.5-98.9-220.5-220.5c0-121.6,98.9-220.5,220.5-220.5c58.8,0,114.1,23,155.8,64.6
		c41.7,41.7,64.6,97,64.6,155.8C470.5,371.6,371.6,470.5,250,470.5z M250,44.2C136.5,44.2,44.2,136.5,44.2,250
		c0,113.5,92.3,205.8,205.8,205.8c113.5,0,205.8-92.3,205.8-205.8c0-54.9-21.4-106.5-60.3-145.4C356.5,65.6,304.9,44.2,250,44.2z"/>
</g>
</svg>
