<?xml version="1.0" encoding="utf-8"?><!DOCTYPE svg PUBLIC "-//W3C//DTD SVG 1.1//EN" "http://www.w3.org/Graphics/SVG/1.1/DTD/svg11.dtd">
<svg version="1.1" id="Layer_1" xmlns="http://www.w3.org/2000/svg" xmlns:xlink="http://www.w3.org/1999/xlink" x="0px" y="0px" viewBox="0 0 500 500" enable-background="new 0 0 500 500" xml:space="preserve">
<g id="change1_1"><path fill="#FFFFFF" d="M250,500c-66.8,0-129.5-26-176.8-73.2S0,316.8,0,250S26,120.4,73.2,73.2S183.2,0,250,0
	c66.8,0,129.5,26,176.8,73.2s73.2,110,73.2,176.8c0,66.8-26,129.5-73.2,176.8C379.6,473.9,316.8,500,250,500z M250,15
	c-62.8,0-121.8,24.5-166.2,68.8C39.4,128.2,15,187.2,15,250c0,62.8,24.5,121.8,68.8,166.2c44.4,44.4,103.5,68.8,166.2,68.8
	s121.8-24.5,166.2-68.8c44.4-44.4,68.8-103.5,68.8-166.2c0-62.8-24.5-121.8-68.8-166.2S312.8,15,250,15z"></path></g>
<g id="change1_2"><path fill="#FFFFFF" d="M250,470c-2.3,0-4.6,0-6.9-0.1l0.3-9.2c7.5,0.2,15.1,0.1,22.5-0.5l0.7,9.2C261.1,469.8,255.5,470,250,470z
	 M233.7,469.4c-7.8-0.6-15.6-1.6-23.3-3l1.6-9.1c7.4,1.3,14.9,2.3,22.4,2.8L233.7,469.4z M275.9,468.5l-1.1-9.1
	c7.5-0.9,14.9-2.2,22.2-3.8l2,9C291.5,466.2,283.7,467.6,275.9,468.5z M201.2,464.5c-7.6-1.7-15.2-3.9-22.6-6.4l3-8.7
	c7.1,2.4,14.4,4.5,21.7,6.2L201.2,464.5z M308.2,462.3l-2.4-8.9c7.2-2,14.4-4.4,21.4-7.1l3.4,8.6
	C323.2,457.7,315.8,460.2,308.2,462.3z M169.8,454.9c-7.3-2.9-14.5-6.1-21.4-9.7l4.3-8.2c6.7,3.5,13.5,6.6,20.5,9.3L169.8,454.9z
	 M339.1,451.2l-3.7-8.4c6.8-3,13.6-6.5,20.1-10.2l4.6,8C353.3,444.5,346.3,448.1,339.1,451.2z M140.1,440.7
	c-6.8-3.9-13.4-8.2-19.7-12.9l5.4-7.4c6.1,4.4,12.4,8.6,18.9,12.3L140.1,440.7z M368.1,435.7l-5-7.8c6.3-4,12.5-8.4,18.3-13.1
	l5.8,7.2C381.2,426.9,374.7,431.5,368.1,435.7z M112.9,422.1c-6.1-4.9-12-10.1-17.6-15.6l6.5-6.6c5.3,5.3,11,10.3,16.9,15
	L112.9,422.1z M394.4,416l-6-6.9c5.6-4.9,11.1-10.2,16.2-15.7l6.7,6.3C406,405.3,400.3,410.8,394.4,416z M88.8,399.7
	c-5.3-5.7-10.4-11.8-15.1-18.1l7.4-5.5c4.5,6,9.4,11.8,14.5,17.3L88.8,399.7z M417.5,392.7l-7-6c4.9-5.7,9.5-11.7,13.7-17.9l7.6,5.2
	C427.4,380.4,422.6,386.7,417.5,392.7z M68.3,374.1c-4.4-6.5-8.5-13.2-12.2-20.1l8.1-4.4c3.5,6.6,7.5,13.1,11.7,19.3L68.3,374.1z
	 M437,366.1l-7.8-4.9c4-6.4,7.6-13,10.9-19.8l8.3,4C444.9,352.5,441.1,359.4,437,366.1z M51.8,345.6c-3.4-7.1-6.5-14.4-9.1-21.7
	l8.7-3.1c2.5,7,5.4,14,8.7,20.8L51.8,345.6z M452.2,336.9l-8.5-3.6c3-6.9,5.6-14,7.8-21.2l8.8,2.7
	C458.1,322.3,455.3,329.7,452.2,336.9z M39.7,315.1c-2.3-7.5-4.2-15.1-5.7-22.8l9-1.8c1.4,7.3,3.3,14.7,5.5,21.9L39.7,315.1z
	 M462.9,305.8l-8.9-2.3c1.9-7.2,3.4-14.7,4.5-22.1l9.1,1.4C466.4,290.5,464.8,298.3,462.9,305.8z M32.5,283
	c-1.2-7.7-1.9-15.6-2.3-23.4l9.2-0.4c0.3,7.5,1.1,15,2.2,22.4L32.5,283z M468.7,273.4l-9.2-1c0.8-7.4,1.2-15,1.2-22.5v-0.5h9.2v0.5
	C470,257.8,469.6,265.7,468.7,273.4z M39.1,250.2H30V250c0-7.8,0.4-15.6,1.2-23.3l9.2,1c-0.8,7.3-1.2,14.9-1.2,22.3V250.2
	L39.1,250.2L39.1,250.2z M460.7,240.6c-0.3-7.5-1.1-15-2.2-22.4l9.1-1.4c1.2,7.7,1.9,15.6,2.3,23.4L460.7,240.6z M41.4,218.8
	l-9.1-1.4c1.1-7.7,2.7-15.5,4.7-23.1l8.9,2.4C44,204,42.5,211.4,41.4,218.8z M456.9,209.2c-1.4-7.4-3.3-14.7-5.5-21.9l8.8-2.7
	c2.3,7.5,4.2,15.1,5.8,22.8L456.9,209.2z M48.4,188l-8.8-2.7c2.3-7.5,5-14.9,8.1-22.1l8.5,3.6C53.2,173.8,50.6,180.9,48.4,188z
	 M448.6,178.8c-2.5-7-5.5-14-8.7-20.8l8.3-4c3.4,7,6.5,14.3,9.1,21.7L448.6,178.8z M59.9,158.7l-8.3-4c3.4-7,7.2-14,11.3-20.6
	l7.8,4.9C66.8,145.3,63.1,152,59.9,158.7z M435.7,150.1c-3.5-6.6-7.5-13.1-11.7-19.2l7.6-5.2c4.4,6.5,8.5,13.2,12.3,20.1
	L435.7,150.1z M75.6,131.4l-7.6-5.2c4.4-6.5,9.2-12.8,14.3-18.7l7,6C84.5,119.2,79.9,125.2,75.6,131.4z M418.7,123.6
	c-4.5-6-9.4-11.8-14.5-17.3l6.7-6.3c5.3,5.7,10.4,11.8,15.1,18L418.7,123.6z M95.3,106.8l-6.8-6.3c5.3-5.7,11-11.3,16.9-16.4
	l6.1,6.9C105.8,96,100.4,101.3,95.3,106.8z M398,99.9c-5.3-5.3-11-10.3-16.9-15l5.7-7.2c6.1,4.9,12,10.1,17.6,15.6L398,99.9z
	 M118.3,85.3l-5.8-7.2c6.1-4.9,12.5-9.5,19.1-13.7l5,7.8C130.3,76.2,124.2,80.6,118.3,85.3z M374,79.5c-6.1-4.4-12.4-8.6-18.9-12.3
	l4.6-8c6.8,3.9,13.4,8.2,19.7,12.8L374,79.5z M144.3,67.5l-4.6-8c6.8-3.9,13.8-7.5,21-10.7l3.7,8.4
	C157.6,60.3,150.8,63.7,144.3,67.5z M347.2,62.8c-6.7-3.5-13.6-6.6-20.5-9.3l3.3-8.6c7.3,2.8,14.5,6.1,21.4,9.7L347.2,62.8z
	 M172.7,53.8l-3.4-8.6c7.3-2.9,14.8-5.4,22.3-7.5l2.4,8.9C186.8,48.6,179.6,51,172.7,53.8z M318.3,50.4c-7.1-2.4-14.4-4.5-21.7-6.1
	l2-9c7.6,1.7,15.3,3.9,22.6,6.4L318.3,50.4z M202.7,44.4l-2.1-9c7.6-1.7,15.4-3.1,23.2-4l1.1,9.1C217.5,41.5,210,42.8,202.7,44.4z
	 M287.7,42.5c-7.3-1.3-14.9-2.3-22.4-2.8l0.7-9.2c7.8,0.6,15.7,1.6,23.3,2.9L287.7,42.5z M233.9,39.7l-0.7-9.2
	c7.8-0.6,15.7-0.8,23.5-0.5l-0.3,9.2C249,39,241.4,39.2,233.9,39.7z"></path></g>
</svg>