<?xml version="1.0" encoding="utf-8"?><!DOCTYPE svg PUBLIC "-//W3C//DTD SVG 1.1//EN" "http://www.w3.org/Graphics/SVG/1.1/DTD/svg11.dtd">
<svg version="1.1" id="Layer_1" xmlns="http://www.w3.org/2000/svg" xmlns:xlink="http://www.w3.org/1999/xlink" x="0px" y="0px" viewBox="0 0 500 500" enable-background="new 0 0 500 500" xml:space="preserve">
<g id="change1_1"><circle fill="#7D8693" cx="250" cy="250" r="243"></circle></g>
<g id="change2_1"><path fill="#FFFFFF" d="M250,460c-2.2,0-4.4,0-6.6-0.1l0.3-8.8c7.1,0.2,14.4,0.1,21.5-0.5l0.7,8.7C260.6,459.8,255.3,460,250,460z
	 M234.4,459.4c-7.4-0.5-14.9-1.5-22.2-2.8l1.6-8.6c7,1.3,14.2,2.2,21.3,2.7L234.4,459.4z M274.7,458.5l-1-8.7
	c7.1-0.8,14.2-2.1,21.2-3.6l1.9,8.6C289.6,456.4,282.2,457.6,274.7,458.5z M203.4,454.8c-7.3-1.6-14.5-3.7-21.6-6.1l2.8-8.3
	c6.8,2.3,13.7,4.3,20.7,5.9L203.4,454.8z M305.5,452.5l-2.3-8.5c6.9-1.9,13.7-4.2,20.4-6.8l3.2,8.2
	C319.9,448.2,312.7,450.6,305.5,452.5z M173.3,445.5c-6.9-2.7-13.8-5.8-20.4-9.3l4.1-7.8c6.3,3.3,12.9,6.3,19.6,8.9L173.3,445.5z
	 M335.1,442l-3.6-8c6.5-2.9,13-6.2,19.1-9.8l4.4,7.6C348.6,435.5,341.9,439,335.1,442z M145,431.9c-6.5-3.7-12.8-7.8-18.8-12.3
	l5.2-7.1c5.8,4.2,11.8,8.2,18,11.7L145,431.9z M362.7,427.2l-4.7-7.4c6-3.8,11.9-8,17.5-12.5l5.5,6.8
	C375.1,418.8,369,423.1,362.7,427.2z M119.2,414.2c-5.8-4.6-11.5-9.7-16.8-14.9l6.2-6.2c5.1,5,10.5,9.8,16.1,14.3L119.2,414.2z
	 M387.8,408.4l-5.8-6.6c5.4-4.7,10.6-9.7,15.4-15l6.4,6C398.8,398.2,393.4,403.5,387.8,408.4z M96.2,392.9
	c-5.1-5.5-9.9-11.2-14.4-17.2l7-5.3c4.3,5.7,8.9,11.3,13.8,16.5L96.2,392.9z M409.9,386l-6.7-5.7c4.6-5.4,9-11.2,13.1-17.1l7.2,5
	C419.3,374.5,414.7,380.4,409.9,386z M76.6,368.5c-4.2-6.2-8.1-12.6-11.7-19.2l7.7-4.2c3.4,6.3,7.1,12.5,11.2,18.4L76.6,368.5z
	 M428.4,360.8l-7.5-4.6c3.8-6.1,7.3-12.4,10.4-18.8l7.9,3.8C436,347.8,432.3,354.5,428.4,360.8z M60.8,341.3
	c-3.3-6.7-6.2-13.7-8.7-20.7l8.3-2.9c2.4,6.7,5.2,13.4,8.3,19.8L60.8,341.3z M442.9,332.9l-8.1-3.5c2.8-6.6,5.3-13.4,7.4-20.2
	l8.4,2.6C448.5,319,445.9,326.1,442.9,332.9z M49.3,312.1c-2.2-7.1-4-14.4-5.5-21.8l8.6-1.7c1.4,7,3.1,14,5.2,20.8L49.3,312.1z
	 M453.1,303.2l-8.5-2.2c1.8-6.9,3.3-14,4.3-21.1l8.7,1.3C456.5,288.6,455,296,453.1,303.2z M42.3,281.5c-1.1-7.4-1.8-14.9-2.2-22.3
	l8.8-0.4c0.3,7.2,1,14.3,2.1,21.4L42.3,281.5z M458.8,272.4l-8.7-0.9c0.8-7.1,1.1-14.3,1.1-21.5v-0.4h8.8v0.4
	C460,257.4,459.6,265,458.8,272.4z M48.8,250.2H40V250c0-7.4,0.4-14.9,1.2-22.2l8.7,0.9c-0.7,7-1.1,14.2-1.1,21.3L48.8,250.2
	L48.8,250.2L48.8,250.2z M451,240.9c-0.3-7.2-1-14.3-2.1-21.4l8.7-1.3c1.1,7.4,1.8,14.9,2.2,22.3L451,240.9z M51,220.2l-8.7-1.3
	c1.1-7.4,2.6-14.8,4.5-22l8.5,2.2C53.5,206,52,213.1,51,220.2z M447.4,211.1c-1.4-7-3.1-14-5.3-20.8l8.4-2.6
	c2.2,7.1,4.1,14.4,5.5,21.7L447.4,211.1z M57.6,190.9l-8.4-2.6c2.2-7.1,4.8-14.2,7.7-21.1l8.1,3.5C62.2,177.2,59.7,184,57.6,190.9z
	 M439.4,182.1c-2.4-6.7-5.2-13.4-8.3-19.8l7.9-3.8c3.3,6.7,6.2,13.7,8.7,20.7L439.4,182.1z M68.6,162.8l-7.9-3.8
	c3.2-6.7,6.9-13.3,10.8-19.7l7.5,4.6C75.1,150.1,71.7,156.4,68.6,162.8z M427.2,154.6c-3.4-6.3-7.1-12.5-11.2-18.3l7.2-5
	c4.2,6.2,8.1,12.6,11.7,19.1L427.2,154.6z M83.6,136.8l-7.3-4.9c4.2-6.2,8.8-12.2,13.6-17.8l6.7,5.7C92,125.1,87.6,130.9,83.6,136.8
	z M411,129.3c-4.3-5.7-8.9-11.3-13.8-16.5l6.4-6c5.1,5.5,9.9,11.2,14.4,17.2L411,129.3z M102.4,113.3l-6.4-6
	c5.1-5.5,10.5-10.7,16.1-15.6l5.8,6.6C112.4,103,107.2,108.1,102.4,113.3z M391.2,106.7c-5.1-5-10.5-9.8-16.1-14.3l5.5-6.9
	c5.8,4.6,11.5,9.6,16.8,14.9L391.2,106.7z M124.4,92.8l-5.5-6.8c5.8-4.7,12-9.1,18.2-13.1l4.7,7.4C135.7,84.2,129.9,88.4,124.4,92.8
	z M368.4,87.3c-5.8-4.2-11.9-8.2-18-11.7l4.4-7.6c6.4,3.7,12.8,7.8,18.8,12.2L368.4,87.3z M149.1,75.8l-4.4-7.6
	c6.5-3.7,13.2-7.2,20-10.2l3.6,8C161.7,69,155.3,72.3,149.1,75.8z M342.8,71.4c-6.3-3.3-12.9-6.3-19.6-8.9l3.2-8.2
	c6.9,2.7,13.8,5.8,20.4,9.3L342.8,71.4z M176.1,62.8l-3.2-8.2c6.9-2.7,14.1-5.1,21.3-7.1l2.3,8.5C189.6,57.8,182.8,60.1,176.1,62.8z
	 M315.1,59.5c-6.8-2.3-13.7-4.3-20.7-5.9l1.9-8.6c7.3,1.6,14.5,3.7,21.6,6.1L315.1,59.5z M204.9,53.8l-2-8.6
	c7.2-1.7,14.7-3,22.1-3.8l1,8.7C218.9,51,211.8,52.3,204.9,53.8z M286,52c-7-1.3-14.2-2.2-21.3-2.7l0.6-8.8
	c7.4,0.5,14.9,1.5,22.3,2.8L286,52z M234.6,49.4l-0.7-8.8c7.4-0.6,15-0.7,22.4-0.5l-0.3,8.8C249,48.6,241.7,48.8,234.6,49.4z"></path></g>
<g id="change2_2"><path fill="#FFFFFF" d="M250,500c-66.8,0-129.5-26-176.7-73.2C26,379.5,0,316.8,0,250S26,120.5,73.2,73.3C120.5,26,183.2,0,250,0
	s129.5,26,176.7,73.2s73.2,110,73.2,176.7s-26,129.5-73.2,176.7S316.8,500,250,500z M250,14c-63.1,0-122.4,24.6-166.9,69.1
	C38.6,127.6,14,186.9,14,250s24.6,122.3,69.1,166.8c44.6,44.6,103.9,69.1,166.8,69.1s122.4-24.5,166.9-69.1S485.9,313,485.9,250
	s-24.5-122.4-69.1-166.9C372.3,38.6,313,14,250,14z"></path></g>
</svg>