<?xml version="1.0" encoding="utf-8"?>
<!-- Generator: Adobe Illustrator 19.1.0, SVG Export Plug-In . SVG Version: 6.00 Build 0)  -->
<!DOCTYPE svg PUBLIC "-//W3C//DTD SVG 1.1//EN" "http://www.w3.org/Graphics/SVG/1.1/DTD/svg11.dtd">
<svg version="1.1" id="Layer_1" xmlns="http://www.w3.org/2000/svg" xmlns:xlink="http://www.w3.org/1999/xlink" x="0px" y="0px"
	 viewBox="0 0 500 351.1" enable-background="new 0 0 500 351.1" xml:space="preserve">
<g id="Change1">
	<ellipse fill="#7D8693" cx="250" cy="175.5" rx="247.5" ry="173.8"/>
</g>
<g id="Change2">
	<path fill="#FFFFFF" d="M250,15c32.3,0,63.6,4.4,93,13.2c28.2,8.4,53.5,20.3,75.1,35.5c43.1,30.3,66.8,70,66.8,111.8
		s-23.7,81.6-66.8,111.8c-21.6,15.2-46.9,27.1-75.1,35.5c-29.4,8.7-60.7,13.2-93,13.2s-63.6-4.4-93-13.2
		c-28.2-8.4-53.5-20.3-75.1-35.5C38.7,257.1,15,217.4,15,175.5S38.7,94,81.8,63.7c21.6-15.2,46.9-27.1,75.1-35.5
		C186.4,19.4,217.7,15,250,15 M250,0C111.9,0,0,78.6,0,175.5s111.9,175.5,250,175.5s250-78.6,250-175.5S388.1,0,250,0L250,0z"/>
</g>
</svg>
