<?xml version="1.0" encoding="utf-8"?>
<!-- Generator: Adobe Illustrator 20.1.0, SVG Export Plug-In . SVG Version: 6.00 Build 0)  -->
<svg version="1.1" id="Solid-Circledotdecor-D5" xmlns="http://www.w3.org/2000/svg" xmlns:xlink="http://www.w3.org/1999/xlink"
	 x="0px" y="0px" viewBox="0 0 500 500" enable-background="new 0 0 500 500" xml:space="preserve">
<g id="change1">
	<g id="solid-circledotdecor-d5-1_1_">
		<path fill="#7C9FFF" d="M250,67.4C149.3,67.4,67.4,149.3,67.4,250S149.3,432.6,250,432.6S432.6,350.7,432.6,250
			S350.7,67.4,250,67.4z"/>
	</g>
	<g id="solid-circledotdecor-d5-2_1_">
		<path fill="#7C9FFF" d="M250,7C115.8,7,7,115.8,7,250s108.8,243,243,243s243-108.8,243-243S384.2,7,250,7z M250,442.5
			c-106.2,0-192.5-86.4-192.5-192.5S143.8,57.5,250,57.5S442.5,143.9,442.5,250C442.5,356.2,356.2,442.5,250,442.5z"/>
	</g>
</g>
<g id="change2">
	<path fill="#FFFFFF" d="M245.1,466.4L245.1,466.4h-0.6c-2.1-0.1-3.8-1.8-3.8-4c0-2.1,1.8-3.8,3.9-3.8h0.1h0.5
		c2.1,0.1,3.8,1.8,3.8,4C249,464.8,247.2,466.4,245.1,466.4z M264.6,466c-2,0-3.7-1.6-3.9-3.7c-0.1-2.1,1.5-4,3.6-4.1h0.4
		c2.1-0.2,4,1.5,4.1,3.6c0.2,2.1-1.5,4-3.6,4.1h-0.5C264.7,466,264.7,466,264.6,466z M225.3,465.1c-0.1,0-0.3,0-0.4,0l-0.5-0.1
		c-2.1-0.3-3.6-2.2-3.4-4.3c0.3-2.1,2.2-3.6,4.3-3.4l0.5,0.1c2.1,0.2,3.7,2.2,3.4,4.3C228.9,463.6,227.2,465.1,225.3,465.1z
		 M284.4,463.7c-1.9,0-3.5-1.4-3.8-3.3c-0.3-2.1,1.1-4.1,3.2-4.5l0.5-0.1c2.1-0.3,4.1,1.1,4.5,3.2c0.3,2.1-1.1,4.1-3.2,4.5l-0.5,0.1
		C284.8,463.7,284.6,463.7,284.4,463.7z M205.6,461.8c-0.3,0-0.5,0-0.8-0.1l-0.5-0.1c-2.1-0.5-3.4-2.5-3-4.6c0.5-2.1,2.5-3.4,4.6-3
		l0.4,0.1c2.1,0.4,3.4,2.5,3,4.6C209,460.6,207.4,461.8,205.6,461.8z M303.9,459.6c-1.7,0-3.3-1.2-3.8-2.9c-0.5-2.1,0.7-4.2,2.8-4.7
		l0.4-0.1c2.1-0.5,4.2,0.7,4.8,2.8c0.6,2.1-0.7,4.2-2.8,4.7l-0.5,0.1C304.5,459.6,304.2,459.6,303.9,459.6z M186.3,456.8
		c-0.4,0-0.8-0.1-1.2-0.2l-0.4-0.1c-2-0.6-3.2-2.8-2.6-4.9c0.6-2,2.8-3.2,4.8-2.5l0.4,0.1c2,0.6,3.2,2.8,2.6,4.9
		C189.5,455.7,188,456.8,186.3,456.8z M322.9,453.7c-1.6,0-3.1-1-3.6-2.6c-0.7-2,0.3-4.2,2.3-5l0.4-0.2c2-0.7,4.2,0.3,5,2.3
		c0.7,2-0.3,4.2-2.3,5l-0.5,0.2C323.8,453.6,323.3,453.7,322.9,453.7z M167.6,449.9c-0.5,0-1-0.1-1.5-0.3l-0.5-0.2
		c-2-0.8-2.9-3.1-2-5.1c0.8-2,3.1-2.9,5.1-2l0.4,0.2c2,0.8,2.9,3.1,2.1,5.1C170.6,449,169.1,449.9,167.6,449.9z M341.3,446
		c-1.4,0-2.8-0.8-3.5-2.2c-0.9-1.9-0.1-4.2,1.8-5.2l0.5-0.2c1.9-0.9,4.3-0.1,5.2,1.8c0.9,1.9,0.1,4.3-1.8,5.2l-0.4,0.2
		C342.4,445.8,341.8,446,341.3,446z M149.6,441.3c-0.6,0-1.3-0.1-1.8-0.5l-0.4-0.2c-1.9-1-2.6-3.4-1.6-5.3s3.4-2.6,5.3-1.6l0.4,0.2
		c1.9,1,2.6,3.4,1.6,5.3C152.3,440.6,151,441.3,149.6,441.3z M358.8,436.6c-1.3,0-2.6-0.7-3.3-1.9c-1.1-1.8-0.5-4.2,1.3-5.3l0.4-0.3
		c1.8-1.1,4.2-0.5,5.3,1.3c1.1,1.8,0.5,4.2-1.3,5.3l-0.4,0.2C360.2,436.4,359.5,436.6,358.8,436.6z M132.5,431.1
		c-0.7,0-1.5-0.2-2.1-0.6l-0.4-0.3c-1.8-1.2-2.3-3.6-1.1-5.4s3.6-2.3,5.4-1.1l0.4,0.3c1.8,1.2,2.3,3.6,1.1,5.4
		C135,430.5,133.8,431.1,132.5,431.1z M375.4,425.6c-1.2,0-2.4-0.6-3.1-1.6c-1.3-1.7-0.9-4.2,0.8-5.4l0.4-0.3
		c1.7-1.3,4.1-0.9,5.4,0.8c1.3,1.7,0.9,4.2-0.8,5.4l-0.4,0.3C377.1,425.3,376.2,425.6,375.4,425.6z M116.5,419.3
		c-0.9,0-1.7-0.3-2.4-0.9l-0.4-0.3c-1.7-1.3-1.9-3.8-0.6-5.5s3.8-1.9,5.5-0.6l0.4,0.3c1.7,1.4,1.9,3.8,0.6,5.5
		C118.7,418.8,117.6,419.3,116.5,419.3z M391,413c-1.1,0-2.1-0.4-2.9-1.3c-1.4-1.6-1.3-4,0.3-5.5l0.3-0.3c1.6-1.4,4-1.3,5.5,0.3
		c1.4,1.6,1.3,4.1-0.3,5.5l-0.3,0.3C392.8,412.7,391.9,413,391,413z M101.6,406.1c-1,0-2-0.4-2.7-1.1l-0.4-0.3c-1.5-1.5-1.5-4,0-5.5
		s4-1.5,5.5,0l0.3,0.3c1.5,1.5,1.6,4,0.1,5.5C103.6,405.7,102.6,406.1,101.6,406.1z M405.2,399.2c-0.9,0-1.9-0.3-2.6-1
		c-1.6-1.5-1.7-3.9-0.2-5.5l0.3-0.4c1.5-1.6,3.9-1.7,5.5-0.2s1.6,3.9,0.2,5.5l-0.3,0.3C407.3,398.7,406.3,399.2,405.2,399.2z
		 M88,391.5c-1.1,0-2.2-0.5-3-1.4l-0.3-0.4c-1.4-1.6-1.2-4.1,0.5-5.5c1.6-1.4,4.1-1.2,5.5,0.5l0.3,0.4c1.4,1.6,1.2,4.1-0.5,5.5
		C89.7,391.2,88.8,391.5,88,391.5z M418.2,384c-0.8,0-1.7-0.3-2.4-0.8c-1.7-1.3-2-3.7-0.7-5.4l0.3-0.4c1.3-1.7,3.8-2,5.4-0.7
		c1.7,1.3,2,3.8,0.7,5.4l-0.3,0.4C420.5,383.5,419.3,384,418.2,384z M75.8,375.8c-1.2,0-2.4-0.6-3.2-1.7l-0.3-0.4
		c-1.2-1.8-0.8-4.2,1-5.4c1.8-1.2,4.2-0.8,5.4,1l0.3,0.4c1.2,1.8,0.8,4.2-1,5.4C77.3,375.5,76.5,375.8,75.8,375.8z M429.6,367.7
		c-0.7,0-1.4-0.2-2.1-0.6c-1.8-1.1-2.4-3.5-1.2-5.4l0.3-0.4c1.1-1.8,3.5-2.3,5.4-1.2c1.8,1.1,2.3,3.5,1.2,5.4l-0.3,0.4
		C432.2,367,430.9,367.7,429.6,367.7z M65.1,358.9c-1.4,0-2.7-0.7-3.4-2l-0.2-0.4c-1.1-1.9-0.4-4.2,1.5-5.3c1.9-1.1,4.2-0.4,5.3,1.5
		l0.2,0.4c1.1,1.9,0.4,4.2-1.5,5.3C66.4,358.8,65.8,358.9,65.1,358.9z M439.5,350.4c-0.6,0-1.2-0.1-1.8-0.4c-1.9-1-2.7-3.3-1.7-5.2
		l0.2-0.4c1-1.9,3.3-2.7,5.2-1.7c1.9,1,2.7,3.3,1.7,5.2l-0.2,0.4C442.3,349.6,440.9,350.4,439.5,350.4z M56.1,341.2
		c-1.5,0-2.9-0.9-3.5-2.3l-0.2-0.4c-0.9-2,0-4.3,1.9-5.1c2-0.9,4.3,0,5.1,1.9l0.2,0.4c0.9,2,0,4.3-1.9,5.1
		C57.2,341.1,56.6,341.2,56.1,341.2z M447.7,332.2c-0.5,0-1-0.1-1.4-0.3c-2-0.8-3-3-2.2-5l0.2-0.5c0.8-2,3-3,5-2.2s3,3,2.2,5
		l-0.2,0.5C450.7,331.3,449.3,332.2,447.7,332.2z M48.8,322.6c-1.6,0-3.1-1-3.7-2.6l-0.2-0.5c-0.7-2,0.4-4.2,2.4-4.9
		c2-0.7,4.2,0.4,4.9,2.4l0.2,0.4c0.7,2-0.4,4.2-2.4,4.9C49.6,322.6,49.2,322.6,48.8,322.6z M454.2,313.4c-0.4,0-0.7-0.1-1.1-0.2
		c-2.1-0.6-3.2-2.8-2.6-4.8l0.1-0.5c0.6-2.1,2.8-3.2,4.8-2.6c2.1,0.6,3.2,2.8,2.6,4.8l-0.1,0.5C457.4,312.3,455.9,313.4,454.2,313.4
		z M43.2,303.5c-1.8,0-3.3-1.2-3.8-3l-0.1-0.5c-0.5-2.1,0.8-4.2,2.9-4.7c2.1-0.5,4.2,0.8,4.7,2.9l0.1,0.5c0.5,2.1-0.8,4.2-2.9,4.7
		C43.8,303.5,43.5,303.5,43.2,303.5z M458.8,294c-0.2,0-0.5,0-0.7-0.1c-2.1-0.4-3.5-2.4-3.1-4.5l0.1-0.5c0.4-2.1,2.4-3.5,4.5-3.1
		s3.5,2.4,3.1,4.5l-0.1,0.5C462.3,292.7,460.7,294,458.8,294z M39.5,283.9c-1.9,0-3.6-1.4-3.8-3.3l-0.1-0.5
		c-0.3-2.1,1.2-4.1,3.3-4.4s4.1,1.2,4.4,3.3l0.1,0.5c0.3,2.1-1.2,4.1-3.3,4.4C39.9,283.9,39.7,283.9,39.5,283.9z M461.6,274.3
		c-0.1,0-0.2,0-0.4,0c-2.1-0.2-3.7-2.1-3.5-4.2v-0.5c0.2-2.1,2.1-3.7,4.2-3.5s3.7,2.1,3.5,4.2v0.5
		C465.3,272.8,463.6,274.3,461.6,274.3z M37.6,264.1c-2.1,0-3.8-1.6-3.9-3.7v-0.5c-0.1-2.1,1.6-4,3.7-4.1c2.1-0.1,4,1.6,4.1,3.7v0.5
		c0.1,2.1-1.6,4-3.7,4.1C37.8,264.1,37.7,264.1,37.6,264.1z M462.6,253.9L462.6,253.9c-2.2,0-4-1.3-4-3.5V250v-0.1v-0.5
		c0-2.1,1.8-3.9,3.9-3.9s3.9,1.7,3.9,3.9v0.4v0.1v0.5C466.4,252.6,464.7,253.9,462.6,253.9z M37.6,244.2c-0.1,0-0.1,0-0.2,0
		c-2.1-0.1-3.8-1.9-3.7-4.1v-0.5c0.1-2.1,1.9-3.8,4.1-3.7c2.1,0.1,3.8,1.9,3.7,4.1v0.5C41.4,242.5,39.7,244.2,37.6,244.2z
		 M461.7,234c-2,0-3.7-1.5-3.9-3.5V230c-0.2-2.1,1.4-4,3.5-4.2s4,1.4,4.2,3.5v0.5c0.2,2.1-1.4,4-3.5,4.2
		C461.9,234,461.8,234,461.7,234z M39.4,224.3c-0.2,0-0.4,0-0.5,0c-2.1-0.3-3.6-2.3-3.3-4.4l0.1-0.5c0.3-2.1,2.3-3.6,4.4-3.3
		c2.1,0.3,3.6,2.3,3.3,4.4l-0.1,0.5C43,222.9,41.3,224.3,39.4,224.3z M458.9,214.2c-1.8,0-3.5-1.3-3.8-3.2l-0.1-0.5
		c-0.4-2.1,1-4.1,3.1-4.5s4.1,1,4.5,3.1l0.1,0.5c0.4,2.1-1,4.1-3.1,4.5C459.4,214.2,459.2,214.2,458.9,214.2z M43.1,204.7
		c-0.3,0-0.6,0-0.9-0.1c-2.1-0.5-3.4-2.6-2.9-4.7l0.1-0.5c0.5-2.1,2.6-3.4,4.7-2.9c2.1,0.5,3.4,2.6,2.9,4.7l-0.1,0.5
		C46.5,203.5,44.9,204.7,43.1,204.7z M454.3,194.9c-1.7,0-3.2-1.1-3.7-2.8l-0.1-0.4c-0.6-2.1,0.6-4.2,2.6-4.8
		c2.1-0.6,4.2,0.6,4.8,2.6l0.1,0.5c0.6,2.1-0.6,4.2-2.7,4.8C455,194.8,454.7,194.9,454.3,194.9z M48.6,185.6c-0.4,0-0.8-0.1-1.2-0.2
		c-2-0.7-3.1-2.9-2.4-4.9l0.1-0.4c0.7-2,2.9-3.2,4.9-2.5s3.1,2.9,2.4,4.9l-0.2,0.4C51.7,184.6,50.2,185.6,48.6,185.6z M447.9,176
		c-1.6,0-3-0.9-3.6-2.5l-0.2-0.4c-0.8-2,0.2-4.2,2.2-5s4.2,0.2,5,2.2l0.2,0.5c0.8,2-0.2,4.2-2.2,5C448.8,175.9,448.4,176,447.9,176z
		 M55.9,167c-0.5,0-1.1-0.1-1.6-0.3c-2-0.9-2.8-3.2-2-5.1l0.2-0.5c0.9-2,3.2-2.8,5.1-1.9c2,0.9,2.8,3.2,1.9,5.1l-0.2,0.4
		C58.8,166.2,57.4,167,55.9,167z M439.7,157.8c-1.4,0-2.8-0.8-3.5-2.1l-0.2-0.4c-1-1.9-0.2-4.2,1.7-5.2c1.9-1,4.2-0.2,5.2,1.7
		l0.2,0.4c1,1.9,0.2,4.2-1.7,5.2C440.9,157.7,440.3,157.8,439.7,157.8z M64.9,149.2c-0.6,0-1.3-0.2-1.9-0.5
		c-1.9-1.1-2.5-3.4-1.5-5.3l0.2-0.4c1.1-1.9,3.4-2.5,5.3-1.4s2.5,3.4,1.4,5.3l-0.2,0.4C67.5,148.5,66.2,149.2,64.9,149.2z
		 M429.9,140.5c-1.3,0-2.6-0.6-3.3-1.8l-0.2-0.4c-1.2-1.8-0.6-4.2,1.2-5.4c1.8-1.2,4.2-0.6,5.4,1.2l0.3,0.4c1.1,1.8,0.6,4.2-1.2,5.3
		C431.3,140.3,430.6,140.5,429.9,140.5z M75.5,132.4c-0.8,0-1.5-0.2-2.2-0.7c-1.8-1.2-2.2-3.6-1-5.4l0.3-0.4
		c1.2-1.8,3.7-2.2,5.4-0.9c1.8,1.2,2.2,3.7,0.9,5.4l-0.3,0.4C77.9,131.8,76.7,132.4,75.5,132.4z M418.5,124.2
		c-1.2,0-2.3-0.5-3.1-1.5l-0.3-0.4c-1.3-1.7-1-4.1,0.7-5.4s4.1-1,5.4,0.7l0.3,0.4c1.3,1.7,1,4.1-0.7,5.4
		C420.1,123.9,419.3,124.2,418.5,124.2z M87.7,116.6c-0.9,0-1.8-0.3-2.5-0.9c-1.6-1.4-1.8-3.8-0.5-5.5l0.3-0.4
		c1.4-1.6,3.8-1.8,5.5-0.4c1.6,1.4,1.8,3.8,0.4,5.5l-0.3,0.3C89.9,116.1,88.8,116.6,87.7,116.6z M405.6,109c-1,0-2.1-0.4-2.8-1.2
		l-0.3-0.3c-1.5-1.6-1.4-4,0.2-5.5s4-1.4,5.5,0.2l0.3,0.4c1.4,1.6,1.4,4-0.2,5.5C407.5,108.6,406.5,109,405.6,109z M101.2,102
		c-1,0-2-0.4-2.8-1.2c-1.5-1.5-1.5-4,0.1-5.5l0.4-0.3c1.5-1.5,4-1.5,5.5,0.1c1.5,1.5,1.5,4-0.1,5.5l-0.3,0.3
		C103.2,101.6,102.2,102,101.2,102z M391.3,95c-0.9,0-1.9-0.3-2.6-1l-0.3-0.3c-1.6-1.4-1.8-3.9-0.3-5.5c1.4-1.6,3.9-1.8,5.5-0.3
		l0.4,0.3c1.6,1.4,1.7,3.9,0.3,5.5C393.5,94.6,392.4,95,391.3,95z M116.1,88.7c-1.1,0-2.3-0.5-3-1.4c-1.3-1.7-1.1-4.1,0.6-5.5
		l0.4-0.3c1.7-1.3,4.1-1.1,5.5,0.6c1.3,1.7,1.1,4.1-0.6,5.5l-0.4,0.3C117.8,88.4,117,88.7,116.1,88.7z M375.8,82.5
		c-0.8,0-1.6-0.2-2.3-0.8l-0.4-0.3c-1.7-1.3-2.1-3.7-0.8-5.4c1.3-1.7,3.7-2.1,5.4-0.8l0.4,0.3c1.7,1.3,2.1,3.7,0.8,5.4
		C378.2,82,377,82.5,375.8,82.5z M132.1,76.9c-1.3,0-2.5-0.6-3.2-1.7c-1.2-1.8-0.7-4.2,1.1-5.4l0.4-0.3c1.8-1.2,4.2-0.7,5.4,1.1
		c1.2,1.8,0.7,4.2-1.1,5.4l-0.4,0.3C133.6,76.7,132.9,76.9,132.1,76.9z M359.2,71.5c-0.7,0-1.4-0.2-2-0.5l-0.4-0.2
		c-1.8-1.1-2.4-3.5-1.3-5.3c1.1-1.8,3.5-2.4,5.3-1.3l0.4,0.2c1.8,1.1,2.4,3.5,1.3,5.3C361.9,70.8,360.6,71.5,359.2,71.5z
		 M149.2,66.6c-1.4,0-2.7-0.7-3.4-2c-1-1.9-0.3-4.2,1.6-5.3l0.4-0.2c1.9-1,4.2-0.3,5.3,1.6c1,1.9,0.3,4.2-1.6,5.3l-0.4,0.2
		C150.5,66.5,149.8,66.6,149.2,66.6z M341.7,62c-0.6,0-1.1-0.1-1.7-0.4l-0.4-0.2c-1.9-0.9-2.8-3.2-1.8-5.2c0.9-1.9,3.2-2.8,5.2-1.8
		l0.4,0.2c1.9,0.9,2.8,3.2,1.8,5.2C344.5,61.2,343.1,62,341.7,62z M167.2,58c-1.5,0-3-0.9-3.6-2.4c-0.8-2,0.1-4.3,2.1-5.1l0.4-0.2
		c2-0.8,4.3,0.1,5.1,2.1s-0.1,4.3-2.1,5.1l-0.4,0.2C168.2,57.9,167.7,58,167.2,58z M323.3,54.3c-0.4,0-0.9-0.1-1.3-0.2l-0.5-0.2
		c-2-0.7-3-3-2.3-5s3-3,5-2.3l0.4,0.2c2,0.7,3.1,3,2.3,5C326.4,53.3,324.9,54.3,323.3,54.3z M185.9,51.1c-1.6,0-3.2-1.1-3.7-2.7
		c-0.6-2,0.5-4.2,2.5-4.9l0.5-0.1c2-0.6,4.2,0.5,4.9,2.5c0.6,2-0.5,4.2-2.5,4.9l-0.5,0.1C186.6,51.1,186.3,51.1,185.9,51.1z
		 M304.3,48.3c-0.3,0-0.7,0-1-0.1l-0.4-0.1c-2.1-0.5-3.3-2.7-2.8-4.7c0.5-2.1,2.7-3.3,4.7-2.8l0.5,0.1c2.1,0.6,3.3,2.7,2.8,4.7
		C307.6,47.1,306,48.3,304.3,48.3z M205.1,46c-1.8,0-3.4-1.2-3.8-3.1c-0.5-2.1,0.9-4.2,3-4.6l0.4-0.1c2.1-0.4,4.2,0.9,4.6,3
		c0.4,2.1-0.9,4.2-3,4.6l-0.5,0.1C205.7,46,205.4,46,205.1,46z M284.8,44.1c-0.2,0-0.4,0-0.6-0.1l-0.5-0.1c-2.1-0.3-3.6-2.3-3.2-4.5
		c0.3-2.1,2.3-3.6,4.5-3.2l0.5,0.1c2.1,0.4,3.5,2.3,3.2,4.5C288.4,42.8,286.7,44.1,284.8,44.1z M224.8,42.8c-1.9,0-3.6-1.5-3.9-3.4
		c-0.2-2.1,1.3-4.1,3.4-4.3l0.5-0.1c2.1-0.2,4.1,1.3,4.3,3.4c0.2,2.1-1.3,4.1-3.4,4.3l-0.5,0.1C225.1,42.7,224.9,42.8,224.8,42.8z
		 M265.1,41.8c-0.1,0-0.2,0-0.3,0h-0.5c-2.1-0.1-3.8-2-3.6-4.1c0.1-2.1,2-3.8,4.1-3.6h0.5c2.1,0.1,3.8,2,3.6,4.1
		C268.8,40.2,267.1,41.8,265.1,41.8z M244.7,41.4c-2.1,0-3.8-1.7-3.9-3.8c-0.1-2.1,1.6-3.9,3.8-4h0.5c2.1-0.1,3.9,1.6,4,3.8
		c0.1,2.1-1.6,4-3.8,4H244.7L244.7,41.4z"/>
</g>
<g id="change3">
	<path fill="#3F75EF" d="M250,500c-66.8,0-129.6-26-176.8-73.2S0,316.8,0,250S26,120.4,73.2,73.2S183.2,0,250,0s129.6,26,176.8,73.2
		S500,183.2,500,250s-26,129.6-73.2,176.8S316.8,500,250,500z M250,14c-63,0-122.3,24.6-166.9,69.1C38.5,127.7,14,187,14,250
		s24.6,122.3,69.1,166.9C127.7,461.5,187,486,250,486s122.3-24.6,166.9-69.1S486,313,486,250s-24.6-122.3-69.1-166.9
		C372.3,38.5,313,14,250,14z"/>
</g>
</svg>
