<?xml version="1.0" encoding="utf-8"?><!DOCTYPE svg PUBLIC "-//W3C//DTD SVG 1.1//EN" "http://www.w3.org/Graphics/SVG/1.1/DTD/svg11.dtd">
<svg version="1.1" id="Layer_1" xmlns="http://www.w3.org/2000/svg" xmlns:xlink="http://www.w3.org/1999/xlink" x="0px" y="0px" viewBox="0 0 500 433" enable-background="new 0 0 500 433" xml:space="preserve">
<g>
	<g id="change1_1"><path fill="#FFFFFF" d="M479.5,433H20.5c-7.4,0-14.1-3.8-17.8-10.3c-3.7-6.4-3.7-14.1,0-20.5L227.5,13c4.7-8.1,13.1-13,22.5-13
		c9.4,0,17.8,4.8,22.5,13l224.8,389.3c3.7,6.4,3.7,14.1,0,20.5C493.5,429.2,486.9,433,479.5,433z M15,409.3c-1.7,2.9-0.6,5.4,0,6.4
		c0.6,1,2.2,3.2,5.5,3.2h458.9c3.3,0,5-2.2,5.5-3.2c0.6-1,1.7-3.5,0-6.4L260.2,20c-2.1-3.7-5.9-5.9-10.2-5.9
		c-4.3,0-8.1,2.2-10.2,5.9L15,409.3z"></path></g>
</g>
</svg>