<?xml version="1.0" encoding="utf-8"?>
<!-- Generator: Adobe Illustrator 19.1.0, SVG Export Plug-In . SVG Version: 6.00 Build 0)  -->
<!DOCTYPE svg PUBLIC "-//W3C//DTD SVG 1.1//EN" "http://www.w3.org/Graphics/SVG/1.1/DTD/svg11.dtd">
<svg version="1.1" id="Layer_1" xmlns="http://www.w3.org/2000/svg" xmlns:xlink="http://www.w3.org/1999/xlink" x="0px" y="0px"
	 viewBox="0 0 500 438.5" enable-background="new 0 0 500 438.5" xml:space="preserve">
<g id="change2">
	<path fill="#7D8693" d="M8.9,411.2L238.4,13.8c5.2-9,18.1-9,23.3,0l229.5,397.4c5.2,9-1.3,20.2-11.6,20.2H20.5
		C10.2,431.4,3.7,420.2,8.9,411.2z"/>
</g>
<g id="change1">
	<path fill="#FFFFFF" d="M479.5,438.5H20.5c-7.4,0-14.1-3.8-17.8-10.3c-3.7-6.4-3.7-14.1,0-20.5L232.2,10.3C235.9,3.8,242.6,0,250,0
		c7.4,0,14.1,3.8,17.8,10.3l229.5,397.4c3.7,6.4,3.7,14.1,0,20.5C493.5,434.6,486.9,438.5,479.5,438.5z M250,14.1
		c-1.1,0-3.9,0.3-5.5,3.2L15,414.8c-1.7,2.9-0.6,5.4,0,6.4c0.6,1,2.2,3.2,5.5,3.2h458.9c3.3,0,5-2.2,5.5-3.2c0.6-1,1.7-3.5,0-6.4
		L255.5,17.3C253.9,14.5,251.1,14.1,250,14.1z"/>
</g>
</svg>
