<?xml version="1.0" encoding="utf-8"?>
<!-- Generator: Adobe Illustrator 19.1.0, SVG Export Plug-In . SVG Version: 6.00 Build 0)  -->
<!DOCTYPE svg PUBLIC "-//W3C//DTD SVG 1.1//EN" "http://www.w3.org/Graphics/SVG/1.1/DTD/svg11.dtd">
<svg version="1.1" id="Layer_1" xmlns="http://www.w3.org/2000/svg" xmlns:xlink="http://www.w3.org/1999/xlink" x="0px" y="0px"
	 viewBox="-0.9 34 500 433" enable-background="new -0.9 34 500 433" xml:space="preserve">
<g id="change2">
	<polygon fill="#FFFFFF" points="-0.9,467 249.1,34 499.1,467 	"/>
</g>
<g id="change1">
	<g>
		<polygon fill="#3F4651" points="53.5,447.5 38.2,447.5 45.8,434.3 50.2,436.8 47,442.4 53.5,442.4 		"/>
	</g>
	<g>
		<path fill="#3F4651" d="M61.7,416.9l-4.4-2.5l11.5-19.9l4.4,2.5L61.7,416.9z M84.7,377l-4.4-2.5l11.5-19.9l4.4,2.5L84.7,377z
			 M107.8,337.2l-4.4-2.5l11.5-19.9l4.4,2.5L107.8,337.2z M130.8,297.3l-4.4-2.5l11.5-19.9l4.4,2.5L130.8,297.3z M153.8,257.5
			l-4.4-2.5l11.5-19.9l4.4,2.5L153.8,257.5z M176.8,217.6l-4.4-2.5l11.5-19.9l4.4,2.5L176.8,217.6z M199.8,177.8l-4.4-2.5l11.5-19.9
			l4.4,2.5L199.8,177.8z M222.8,137.9l-4.4-2.5l11.5-19.9l4.4,2.5L222.8,137.9z"/>
	</g>
	<g>
		<polygon fill="#3F4651" points="252.3,98.1 249.1,92.4 245.8,98.1 241.4,95.5 249.1,82.3 256.7,95.5 		"/>
	</g>
	<g>
		<path fill="#3F4651" d="M436.4,416.9L424.9,397l4.4-2.5l11.5,19.9L436.4,416.9z M413.4,377l-11.5-19.9l4.4-2.5l11.5,19.9
			L413.4,377z M390.4,337.2l-11.5-19.9l4.4-2.5l11.5,19.9L390.4,337.2z M367.4,297.3l-11.5-19.9l4.4-2.5l11.5,19.9L367.4,297.3z
			 M344.4,257.5l-11.5-19.9l4.4-2.5l11.5,19.9L344.4,257.5z M321.3,217.6l-11.5-19.9l4.4-2.5l11.5,19.9L321.3,217.6z M298.3,177.8
			l-11.5-19.9l4.4-2.5l11.5,19.9L298.3,177.8z M275.3,137.9L263.8,118l4.4-2.5l11.5,19.9L275.3,137.9z"/>
	</g>
	<g>
		<polygon fill="#3F4651" points="460,447.5 444.7,447.5 444.7,442.4 451.2,442.4 447.9,436.8 452.3,434.3 		"/>
	</g>
	<g>
		<path fill="#3F4651" d="M421.6,447.5h-23v-5.1h23V447.5z M375.6,447.5h-23v-5.1h23V447.5z M329.6,447.5h-23v-5.1h23V447.5z
			 M283.6,447.5h-23v-5.1h23V447.5z M237.6,447.5h-23v-5.1h23V447.5z M191.5,447.5h-23v-5.1h23V447.5z M145.5,447.5h-23v-5.1h23
			V447.5z M99.5,447.5h-23v-5.1h23V447.5z"/>
	</g>
</g>
</svg>
