<?xml version="1.0" encoding="utf-8"?><!DOCTYPE svg PUBLIC "-//W3C//DTD SVG 1.1//EN" "http://www.w3.org/Graphics/SVG/1.1/DTD/svg11.dtd">
<svg version="1.1" id="Layer_1" xmlns="http://www.w3.org/2000/svg" xmlns:xlink="http://www.w3.org/1999/xlink" x="0px" y="0px" viewBox="0 0 500 433" enable-background="new 0 0 500 433" xml:space="preserve">
<g>
	<g>
		<g>
			<g id="change1_1"><polygon fill="#FFFFFF" points="14,433 0,433 7,420.8 11.1,423.2 8.1,428.3 14,428.3 			"></polygon></g>
		</g>
		<g>
			<g id="change1_2"><path fill="#FFFFFF" d="M21.3,405.4l-4-2.3l10.3-17.8l4,2.3L21.3,405.4z M41.8,369.9l-4-2.3l10.3-17.8l4,2.3L41.8,369.9z
				 M62.4,334.3l-4-2.3l10.3-17.8l4,2.3L62.4,334.3z M82.9,298.8l-4-2.3l10.3-17.8l4,2.3L82.9,298.8z M103.4,263.3l-4-2.3l10.3-17.8
				l4,2.3L103.4,263.3z M123.9,227.7l-4-2.3l10.3-17.8l4,2.3L123.9,227.7z M144.4,192.2l-4-2.3l10.3-17.8l4,2.3L144.4,192.2z
				 M164.9,156.6l-4-2.3l10.3-17.8l4,2.3L164.9,156.6z M185.5,121.1l-4-2.3l10.3-17.8l4,2.3L185.5,121.1z M206,85.6l-4-2.3
				l10.3-17.8l4,2.3L206,85.6z M226.5,50l-4-2.3l10.3-17.8l4,2.3L226.5,50z"></path></g>
		</g>
		<g>
			<g id="change1_3"><polygon fill="#FFFFFF" points="253,14.5 250,9.3 247,14.5 243,12.2 250,0 257,12.2 			"></polygon></g>
		</g>
		<g>
			<g id="change1_4"><path fill="#FFFFFF" d="M478.7,405.4l-10.3-17.8l4-2.3l10.3,17.8L478.7,405.4z M458.2,369.9l-10.3-17.8l4-2.3l10.3,17.8
				L458.2,369.9z M437.6,334.3l-10.3-17.8l4-2.3l10.3,17.8L437.6,334.3z M417.1,298.8L406.9,281l4-2.3l10.3,17.8L417.1,298.8z
				 M396.6,263.3l-10.3-17.8l4-2.3l10.3,17.8L396.6,263.3z M376.1,227.7L365.8,210l4-2.3l10.3,17.8L376.1,227.7z M355.6,192.2
				l-10.3-17.8l4-2.3l10.3,17.8L355.6,192.2z M335.1,156.6l-10.3-17.8l4-2.3l10.3,17.8L335.1,156.6z M314.5,121.1l-10.3-17.8l4-2.3
				l10.3,17.8L314.5,121.1z M294,85.6l-10.3-17.8l4-2.3l10.3,17.8L294,85.6z M273.5,50l-10.3-17.8l4-2.3l10.3,17.8L273.5,50z"></path></g>
		</g>
		<g>
			<g id="change1_5"><polygon fill="#FFFFFF" points="500,433 486,433 486,428.3 491.9,428.3 488.9,423.2 493,420.8 			"></polygon></g>
		</g>
		<g>
			<g id="change1_6"><path fill="#FFFFFF" d="M465.4,433h-20.5v-4.7h20.5V433z M424.4,433h-20.5v-4.7h20.5V433z M383.4,433h-20.5v-4.7h20.5V433z
				 M342.3,433h-20.5v-4.7h20.5V433z M301.3,433h-20.5v-4.7h20.5V433z M260.3,433h-20.5v-4.7h20.5V433z M219.2,433h-20.5v-4.7h20.5
				V433z M178.2,433h-20.5v-4.7h20.5V433z M137.2,433h-20.5v-4.7h20.5V433z M96.1,433H75.6v-4.7h20.5V433z M55.1,433H34.6v-4.7h20.5
				V433z"></path></g>
		</g>
	</g>
</g>
</svg>