<?xml version="1.0" encoding="utf-8"?>
<!-- Generator: Adobe Illustrator 19.1.0, SVG Export Plug-In . SVG Version: 6.00 Build 0)  -->
<!DOCTYPE svg PUBLIC "-//W3C//DTD SVG 1.1//EN" "http://www.w3.org/Graphics/SVG/1.1/DTD/svg11.dtd">
<svg version="1.1" id="Layer_1" xmlns="http://www.w3.org/2000/svg" xmlns:xlink="http://www.w3.org/1999/xlink" x="0px" y="0px"
	 viewBox="0 0 500 433" enable-background="new 0 0 500 433" xml:space="preserve">
<g id="change2">
	<polygon fill="#7D8693" points="5.6,429.8 250,6.5 494.4,429.8 	"/>
</g>
<g id="change1">
	<path fill="#FFFFFF" d="M500,433H0L250,0L500,433z M11.2,426.5h477.6L250,13L11.2,426.5z"/>
</g>
<g id="change3">
	<g>
		<polygon fill="#FFFFFF" points="57.9,410.5 44.2,410.5 51,398.7 55,400.9 52.1,405.9 57.9,405.9 		"/>
	</g>
	<g>
		<path fill="#FFFFFF" d="M65.1,383.4l-3.9-2.3l10.1-17.5l3.9,2.3L65.1,383.4z M85.3,348.4l-3.9-2.3l10.1-17.5l3.9,2.3L85.3,348.4z
			 M105.5,313.4l-3.9-2.3l10.1-17.5l3.9,2.3L105.5,313.4z M125.8,278.3l-3.9-2.3l10.1-17.5l3.9,2.3L125.8,278.3z M146,243.3
			l-3.9-2.3l10.1-17.5l3.9,2.3L146,243.3z M166.2,208.3l-3.9-2.3l10.1-17.5l3.9,2.3L166.2,208.3z M186.4,173.2l-3.9-2.3l10.1-17.5
			l3.9,2.3L186.4,173.2z M206.7,138.2l-3.9-2.3l10.1-17.5l3.9,2.3L206.7,138.2z M226.9,103.2l-3.9-2.3l10.1-17.5l3.9,2.3
			L226.9,103.2z"/>
	</g>
	<g>
		<polygon fill="#FFFFFF" points="252.9,68.1 250,63.1 247.1,68.1 243.2,65.9 250,54.1 256.8,65.9 		"/>
	</g>
	<g>
		<path fill="#FFFFFF" d="M434.9,383.4l-10.1-17.5l3.9-2.3l10.1,17.5L434.9,383.4z M414.7,348.4l-10.1-17.5l3.9-2.3l10.1,17.5
			L414.7,348.4z M394.5,313.4l-10.1-17.5l3.9-2.3l10.1,17.5L394.5,313.4z M374.2,278.3l-10.1-17.5l3.9-2.3l10.1,17.5L374.2,278.3z
			 M354,243.3l-10.1-17.5l3.9-2.3l10.1,17.5L354,243.3z M333.8,208.3l-10.1-17.5l3.9-2.3l10.1,17.5L333.8,208.3z M313.6,173.2
			l-10.1-17.5l3.9-2.3l10.1,17.5L313.6,173.2z M293.3,138.2l-10.1-17.5l3.9-2.3l10.1,17.5L293.3,138.2z M273.1,103.2L263,85.7
			l3.9-2.3l10.1,17.5L273.1,103.2z"/>
	</g>
	<g>
		<polygon fill="#FFFFFF" points="455.8,410.5 442.1,410.5 442.1,405.9 447.9,405.9 445,400.9 449,398.7 		"/>
	</g>
	<g>
		<path fill="#FFFFFF" d="M421.9,410.5h-20.2v-4.5h20.2V410.5z M381.5,410.5h-20.2v-4.5h20.2V410.5z M341,410.5h-20.2v-4.5H341
			V410.5z M300.6,410.5h-20.2v-4.5h20.2V410.5z M260.1,410.5h-20.2v-4.5h20.2V410.5z M219.7,410.5h-20.2v-4.5h20.2V410.5z
			 M179.2,410.5H159v-4.5h20.2V410.5z M138.8,410.5h-20.2v-4.5h20.2V410.5z M98.3,410.5H78.1v-4.5h20.2V410.5z"/>
	</g>
</g>
</svg>
