<?xml version="1.0" encoding="utf-8"?>
<!-- Generator: Adobe Illustrator 20.1.0, SVG Export Plug-In . SVG Version: 6.00 Build 0)  -->
<svg version="1.1" id="Solid-Circlesimple-D5" xmlns="http://www.w3.org/2000/svg" xmlns:xlink="http://www.w3.org/1999/xlink"
	 x="0px" y="0px" viewBox="0 0 501 501" enable-background="new 0 0 501 501" xml:space="preserve">
<g id="change1">
	<circle fill="#87A5F9" cx="250.5" cy="250.5" r="250"/>
</g>
<g id="change2">
	<path fill="#2750E2" d="M250.5,501c-66.9,0-129.8-26.1-177.1-73.4S0,317.4,0,250.5S26.1,120.7,73.4,73.4S183.6,0,250.5,0
		s129.8,26.1,177.1,73.4S501,183.6,501,250.5s-26.1,129.8-73.4,177.1S317.4,501,250.5,501z M250.5,15c-62.9,0-122,24.5-166.5,69
		S15,187.6,15,250.5s24.5,122,69,166.5s103.6,69,166.5,69s122-24.5,166.5-69s69-103.6,69-166.5s-24.5-122-69-166.5
		S313.4,15,250.5,15z"/>
</g>
</svg>
