<?xml version="1.0" encoding="utf-8"?>
<!-- Generator: Adobe Illustrator 20.1.0, SVG Export Plug-In . SVG Version: 6.00 Build 0)  -->
<svg version="1.1" id="Solid-Decorcircle-D5" xmlns="http://www.w3.org/2000/svg" xmlns:xlink="http://www.w3.org/1999/xlink"
	 x="0px" y="0px" viewBox="0 0 500 500" enable-background="new 0 0 500 500" xml:space="preserve">
<g id="change1">
	<path fill="#4416FF" d="M250,0C112.2,0,0,112.1,0,250s112.2,250,250,250c137.9,0,250-112.1,250-250S387.9,0,250,0z M483.6,235.6
		l-18.7,1.1c-0.1-1.3-0.2-2.7-0.3-4l18.7-1.5C483.4,232.7,483.5,234.1,483.6,235.6z M482.2,220.5l-18.6,2.3c-0.2-1.3-0.3-2.6-0.5-4
		l18.6-2.7C481.8,217.6,482,219,482.2,220.5z M479.8,205.5l-18.4,3.5c-0.2-1.3-0.5-2.6-0.8-3.9l18.3-3.9
		C479.3,202.6,479.6,204,479.8,205.5z M476.5,190.6l-18.1,4.7c-0.3-1.3-0.7-2.6-1-3.9l18.1-5.1C475.8,187.8,476.1,189.2,476.5,190.6
		z M472.2,176.1l-17.8,5.9c-0.4-1.3-0.8-2.5-1.3-3.8l17.7-6.2C471.3,173.3,471.7,174.7,472.2,176.1z M466.9,161.8l-17.4,7.1
		c-0.5-1.2-1-2.5-1.5-3.7l17.2-7.4C465.8,159.2,466.4,160.5,466.9,161.8z M460.8,148l-16.9,8.2c-0.6-1.2-1.2-2.4-1.8-3.6l16.7-8.5
		C459.5,145.4,460.2,146.7,460.8,148z M453.8,134.6l-16.3,9.2c-0.7-1.2-1.3-2.3-2-3.4l16.1-9.5C452.3,132,453,133.3,453.8,134.6z
		 M445.9,121.6l-15.7,10.3c-0.7-1.1-1.5-2.2-2.2-3.3l15.5-10.6C444.3,119.2,445.1,120.4,445.9,121.6z M437.1,109.2l-15,11.3
		c-0.8-1.1-1.6-2.1-2.4-3.2l14.8-11.5C435.4,106.9,436.3,108,437.1,109.2z M427.6,97.4l-14.2,12.2c-0.9-1-1.7-2-2.6-3l14-12.5
		C425.7,95.2,426.7,96.3,427.6,97.4z M417.4,86.2L404,99.3c-0.9-1-1.9-1.9-2.8-2.8l13.2-13.3C415.4,84.1,416.4,85.2,417.4,86.2z
		 M406.4,75.7l-12.5,13.9c-1-0.9-2-1.8-3-2.6l12.3-14.2C404.3,73.7,405.4,74.7,406.4,75.7z M394.8,65.9l-11.6,14.7
		c-1-0.8-2.1-1.6-3.2-2.4l11.3-14.9C392.5,64.1,393.7,65,394.8,65.9z M382.6,56.9L372,72.3c-1.1-0.8-2.2-1.5-3.3-2.2L379,54.4
		C380.2,55.2,381.4,56,382.6,56.9z M366.1,46.4c1.3,0.7,2.5,1.5,3.7,2.2l-9.6,16.1c-1.1-0.7-2.3-1.4-3.5-2L366.1,46.4z M352.6,39.3
		c1.3,0.6,2.6,1.3,3.9,1.9L348,58c-1.2-0.6-2.4-1.2-3.6-1.8L352.6,39.3z M338.7,33.1c1.3,0.6,2.7,1.1,4,1.7L335.3,52
		c-1.2-0.5-2.5-1-3.7-1.6L338.7,33.1z M324.5,27.8c1.4,0.5,2.8,0.9,4.1,1.4l-6.3,17.7c-1.3-0.4-2.5-0.9-3.8-1.3L324.5,27.8z
		 M309.9,23.4c1.4,0.4,2.8,0.8,4.2,1.2l-5.1,18c-1.3-0.4-2.6-0.7-3.8-1.1L309.9,23.4z M295.1,20c1.4,0.3,2.8,0.6,4.3,0.9l-3.9,18.3
		c-1.3-0.3-2.6-0.5-3.9-0.8L295.1,20z M280.1,17.6c1.4,0.2,2.9,0.4,4.3,0.6l-2.8,18.5c-1.3-0.2-2.6-0.4-3.9-0.5L280.1,17.6z
		 M265,16.1c1.4,0.1,2.9,0.2,4.3,0.3l-1.5,18.7c-1.3-0.1-2.7-0.2-4-0.3L265,16.1z M249.5,15.6c2,0,3.1,0,4.5,0l-0.4,18.7
		c-1.3,0-2.1,0-4.1,0V15.6z M240.5,15.8l0.7,18.7c-1.3,0.1-2.7,0.1-4,0.2L236.1,16C237.6,15.9,239,15.9,240.5,15.8z M225.3,16.9
		l1.9,18.6c-1.3,0.1-2.7,0.3-4,0.5L221,17.4C222.4,17.2,223.9,17,225.3,16.9z M210.3,19l3.2,18.5c-1.3,0.2-2.6,0.5-3.9,0.7L206,19.7
		C207.4,19.5,208.8,19.2,210.3,19z M195.4,22l4.3,18.2c-1.3,0.3-2.6,0.6-3.9,1L191.2,23C192.6,22.7,194,22.3,195.4,22z M180.7,26
		l5.5,17.9c-1.3,0.4-2.5,0.8-3.8,1.2l-5.9-17.8C178,26.9,179.3,26.4,180.7,26z M166.4,30.9l6.7,17.5c-1.2,0.5-2.5,1-3.7,1.5l-7-17.4
		C163.7,32,165,31.5,166.4,30.9z M152.4,36.8l7.8,17c-1.2,0.6-2.4,1.1-3.6,1.7l-8.1-16.9C149.8,38,151.1,37.4,152.4,36.8z
		 M138.8,43.6l8.9,16.5c-1.2,0.6-2.3,1.3-3.5,1.9L135,45.6C136.3,44.9,137.6,44.2,138.8,43.6z M125.7,51.2l9.9,15.9
		c-1.1,0.7-2.2,1.4-3.4,2.1L122,53.5C123.3,52.7,124.5,51.9,125.7,51.2z M113.1,59.6l11,15.2c-1.1,0.8-2.2,1.6-3.2,2.4l-11.2-15
		C110.8,61.3,112,60.5,113.1,59.6z M101.1,68.9L113,83.4c-1,0.8-2,1.7-3.1,2.6L97.8,71.7C98.9,70.7,100,69.8,101.1,68.9z M89.7,78.9
		l12.8,13.7c-1,0.9-1.9,1.8-2.9,2.8l-13-13.5C87.6,80.9,88.7,79.9,89.7,78.9z M79,89.6l13.7,12.8c-0.9,1-1.8,2-2.7,2.9L76,92.8
		C77,91.8,78,90.7,79,89.6z M68.9,101l14.5,12c-0.8,1-1.7,2.1-2.5,3.1l-14.7-11.7C67.1,103.3,68,102.2,68.9,101z M59.7,113.1
		l15.2,11c-0.8,1.1-1.5,2.2-2.3,3.3l-15.4-10.7C58,115.4,58.8,114.3,59.7,113.1z M51.2,125.7l15.9,9.9c-0.7,1.1-1.4,2.3-2.1,3.4
		l-16.1-9.7C49.7,128.2,50.4,126.9,51.2,125.7z M43.5,138.8l16.5,8.9c-0.6,1.2-1.3,2.4-1.9,3.5l-16.7-8.6
		C42.2,141.4,42.9,140.1,43.5,138.8z M36.8,152.5l17,7.8c-0.6,1.2-1.1,2.4-1.6,3.7L35,156.4C35.6,155.1,36.2,153.8,36.8,152.5z
		 M30.9,166.5l17.5,6.7c-0.5,1.2-0.9,2.5-1.4,3.8l-17.6-6.3C29.9,169.2,30.4,167.9,30.9,166.5z M25.9,180.9l17.9,5.5
		c-0.4,1.3-0.8,2.5-1.1,3.8l-18-5.2C25.1,183.7,25.5,182.3,25.9,180.9z M21.9,195.6l18.2,4.3c-0.3,1.3-0.6,2.6-0.9,3.9l-18.3-4
		C21.3,198.4,21.6,197,21.9,195.6z M18.9,210.4l18.5,3.1c-0.2,1.3-0.4,2.6-0.6,3.9l-18.5-2.8C18.5,213.3,18.7,211.9,18.9,210.4z
		 M16.9,225.5l18.7,1.9c-0.1,1.3-0.3,2.6-0.4,4l-18.7-1.6C16.6,228.4,16.7,226.9,16.9,225.5z M15.8,240.6l18.7,0.7
		c-0.1,1.3-0.1,2.7-0.1,4L15.7,245C15.7,243.5,15.7,242.1,15.8,240.6z M15.7,255.8l18.7-0.5c0,1.3,0.1,2.7,0.1,4l-18.7,0.8
		C15.8,258.7,15.7,257.3,15.7,255.8z M16.6,271l18.7-1.7c0.1,1.3,0.2,2.7,0.4,4l-18.6,2C16.8,273.8,16.7,272.4,16.6,271z M18.4,286
		l18.5-2.9c0.2,1.3,0.4,2.6,0.6,3.9L19,290.2C18.9,288.9,18.6,287.5,18.4,286z M21.2,300.9l18.3-4.1c0.3,1.3,0.6,2.6,0.9,3.9
		l-18.2,4.4C21.9,303.8,21.5,302.4,21.2,300.9z M25,315.7l18-5.3c0.4,1.3,0.8,2.6,1.2,3.8l-17.9,5.6C25.8,318.4,25.4,317.1,25,315.7
		z M29.7,330.1l17.6-6.4c0.5,1.3,0.9,2.5,1.4,3.7l-17.5,6.8C30.7,332.8,30.2,331.5,29.7,330.1z M35.4,344.2l17.2-7.6
		c0.5,1.2,1.1,2.4,1.6,3.6l-17,7.9C36.6,346.8,36,345.5,35.4,344.2z M41.9,357.8l16.6-8.7c0.6,1.2,1.2,2.3,1.9,3.5l-16.5,9
		C43.3,360.4,42.6,359.1,41.9,357.8z M49.4,371l16-9.7c0.7,1.1,1.4,2.3,2.1,3.4l-15.9,10C50.9,373.5,50.1,372.3,49.4,371z
		 M57.7,383.7L73,373c0.8,1.1,1.5,2.2,2.3,3.2l-15.2,11C59.3,386.1,58.5,384.9,57.7,383.7z M69.5,399.3c-0.9-1.1-1.8-2.2-2.7-3.4
		l14.6-11.7c0.8,1,1.7,2.1,2.5,3.1L69.5,399.3z M76.6,407.4l13.9-12.6c0.9,1,1.8,2,2.7,2.9l-13.6,12.9
		C78.5,409.6,77.6,408.5,76.6,407.4z M87.2,418.3l13-13.5c1,0.9,1.9,1.8,2.9,2.7l-12.8,13.7C89.2,420.3,88.2,419.3,87.2,418.3z
		 M98.4,428.5l12.1-14.3c1,0.9,2,1.7,3.1,2.6l-11.9,14.5C100.6,430.4,99.5,429.5,98.4,428.5z M110.3,438l11.2-15.1
		c1.1,0.8,2.1,1.6,3.2,2.4l-10.9,15.3C112.6,439.7,111.5,438.8,110.3,438z M122.8,446.6l10.2-15.7c1.1,0.7,2.2,1.4,3.4,2.1
		l-9.9,15.9C125.2,448.2,124,447.4,122.8,446.6z M139.6,456.6c-1.3-0.7-2.6-1.4-3.8-2.1l9.1-16.4c1.2,0.7,2.3,1.3,3.5,1.9
		L139.6,456.6z M153.3,463.3c-1.3-0.6-2.6-1.2-4-1.8l8.1-16.9c1.2,0.6,2.4,1.1,3.6,1.7L153.3,463.3z M167.3,469.1
		c-1.4-0.5-2.7-1-4.1-1.6l6.9-17.4c1.2,0.5,2.5,1,3.7,1.4L167.3,469.1z M181.8,474c-1.4-0.4-2.8-0.9-4.2-1.3l5.8-17.8
		c1.3,0.4,2.5,0.8,3.8,1.2L181.8,474z M196.4,477.9c-1.4-0.3-2.8-0.7-4.2-1l4.6-18.2c1.3,0.3,2.6,0.6,3.9,0.9L196.4,477.9z
		 M211.3,480.9c-1.4-0.2-2.9-0.5-4.3-0.8l3.4-18.4c1.3,0.2,2.6,0.5,3.9,0.7L211.3,480.9z M226.4,482.9c-1.4-0.1-2.9-0.3-4.3-0.5
		l2.2-18.6c1.3,0.2,2.6,0.3,4,0.4L226.4,482.9z M241.5,483.9c-1.4-0.1-2.9-0.1-4.3-0.2l1-18.7c1.3,0.1,2.7,0.1,4,0.2L241.5,483.9z
		 M50.5,250C50.5,140,140,50.5,250,50.5S449.5,140,449.5,250S360,449.5,250,449.5S50.5,360,50.5,250z M252.4,484l-0.2-18.7
		c1.3,0,2.7,0,4-0.1l0.5,18.7C255.3,484,253.8,484,252.4,484z M267.5,483.4l-1.4-18.7c1.3-0.1,2.7-0.2,4-0.3l1.7,18.7
		C270.4,483.2,269,483.3,267.5,483.4z M282.6,481.8l-2.6-18.6c1.3-0.2,2.6-0.4,4-0.6l2.9,18.5C285.5,481.4,284.1,481.6,282.6,481.8z
		 M297.6,479.2l-3.8-18.4c1.3-0.3,2.6-0.6,3.9-0.8l4.1,18.3C300.4,478.6,299,478.9,297.6,479.2z M312.4,475.6l-5-18.1
		c1.3-0.4,2.6-0.7,3.8-1.1l5.3,18C315.1,474.8,313.8,475.2,312.4,475.6z M326.9,471.1l-6.2-17.7c1.3-0.4,2.5-0.9,3.8-1.3l6.5,17.6
		C329.6,470.1,328.2,470.6,326.9,471.1z M341,465.6l-7.3-17.3c1.2-0.5,2.4-1,3.7-1.6l7.6,17.1C343.7,464.5,342.3,465.1,341,465.6z
		 M354.8,459.3l-8.4-16.8c1.2-0.6,2.4-1.2,3.5-1.8l8.7,16.6C357.3,458,356.1,458.6,354.8,459.3z M368.1,452l-9.5-16.2
		c1.1-0.7,2.3-1.4,3.4-2.1l9.8,16C370.6,450.6,369.3,451.3,368.1,452z M380.9,444l-10.5-15.5c1.1-0.7,2.2-1.5,3.3-2.3l10.8,15.3
		C383.3,442.3,382.1,443.2,380.9,444z M393.2,435.1l-11.5-14.8c1.1-0.8,2.1-1.6,3.1-2.5l11.8,14.6
		C395.5,433.3,394.3,434.2,393.2,435.1z M404.9,425.4l-12.4-14.1c1-0.9,2-1.8,3-2.7l12.7,13.8C407,423.5,406,424.4,404.9,425.4z
		 M415.9,415l-13.3-13.2c0.9-0.9,1.9-1.9,2.8-2.9l13.5,13C418,412.9,416.9,414,415.9,415z M426.3,403.9l-14.1-12.3
		c0.9-1,1.7-2,2.6-3l14.3,12.1C428.2,401.7,427.2,402.8,426.3,403.9z M435.9,392.1L421,380.7c0.8-1.1,1.6-2.1,2.4-3.2l15.1,11.1
		C437.6,389.8,436.8,391,435.9,392.1z M444.7,379.8l-15.6-10.4c0.7-1.1,1.5-2.2,2.2-3.3l15.8,10.1
		C446.3,377.3,445.5,378.6,444.7,379.8z M452.8,366.8l-16.2-9.4c0.7-1.2,1.3-2.3,2-3.5L455,363C454.2,364.3,453.5,365.6,452.8,366.8
		z M459.9,353.4l-16.8-8.3c0.6-1.2,1.2-2.4,1.7-3.6l17,8C461.2,350.8,460.6,352.1,459.9,353.4z M466.2,339.6l-17.3-7.2
		c0.5-1.2,1-2.5,1.5-3.7l17.4,6.9C467.3,336.9,466.8,338.2,466.2,339.6z M471.6,325.3l-17.8-6c0.4-1.3,0.8-2.5,1.3-3.8l17.9,5.7
		C472.5,322.6,472.1,324,471.6,325.3z M476,310.8l-18.1-4.9c0.3-1.3,0.7-2.6,1-3.9l18.2,4.5C476.8,308,476.4,309.4,476,310.8z
		 M479.5,296l-18.4-3.7c0.3-1.3,0.5-2.6,0.7-3.9l18.5,3.3C480.1,293.2,479.8,294.6,479.5,296z M482,281l-18.6-2.5
		c0.2-1.3,0.3-2.6,0.5-4l18.6,2.1C482.4,278.1,482.2,279.6,482,281z M483.5,265.9l-18.7-1.3c0.1-1.3,0.2-2.7,0.2-4l18.7,0.9
		C483.7,263,483.6,264.5,483.5,265.9z M465.3,250.7v-0.8c0-1.1,0-2.1,0-3.2l18.7-0.3c0,1.1,0,2.3,0,3.4v0.9L465.3,250.7z"/>
</g>
<g id="change2">
	<path fill="#4416FF" d="M250,60.9C145.7,60.9,60.9,145.7,60.9,250S145.7,439.1,250,439.1S439.1,354.3,439.1,250
		S354.3,60.9,250,60.9z"/>
</g>
</svg>
