<?xml version="1.0" encoding="utf-8"?>
<!-- Generator: Adobe Illustrator 20.1.0, SVG Export Plug-In . SVG Version: 6.00 Build 0)  -->
<svg version="1.1" id="Outline-Dotlinedecor-D5" xmlns="http://www.w3.org/2000/svg" xmlns:xlink="http://www.w3.org/1999/xlink"
	 x="0px" y="0px" viewBox="0 0 500 500" enable-background="new 0 0 500 500" xml:space="preserve">
<g id="change1">
	<g>
		<path fill="#FF4D3D" d="M250,437.8c-103.6,0-187.8-84.3-187.8-187.8c0-103.6,84.3-187.8,187.8-187.8
			c103.6,0,187.8,84.3,187.8,187.8C437.8,353.6,353.6,437.8,250,437.8z M250,77c-95.4,0-173,77.6-173,173s77.6,173,173,173
			s173-77.6,173-173S345.4,77,250,77z"/>
	</g>
</g>
<g id="change2">
	<g>
		<path fill="#FF4D3D" d="M250,500c-66.8,0-129.6-26-176.8-73.2S0,316.8,0,250S26,120.4,73.2,73.2S183.2,0,250,0
			s129.6,26,176.8,73.2S500,183.2,500,250s-26,129.6-73.2,176.8S316.8,500,250,500z M250,14.9c-62.8,0-121.9,24.5-166.3,68.9
			S14.9,187.2,14.9,250s24.5,121.9,68.9,166.3s103.5,68.9,166.3,68.9s121.9-24.5,166.3-68.9s68.9-103.5,68.9-166.3
			s-24.5-121.9-68.9-166.3C371.9,39.3,312.8,14.9,250,14.9z"/>
	</g>
</g>
<g id="change3">
	<path fill="#FF4D3D" d="M30.73,276.8193c2.1899-0.2197,3.79-2.1895,3.5698-4.3799c-0.23-2.1992-2.2002-3.7998-4.3901-3.5801
		c-2.1997,0.2305-3.7998,2.1904-3.5698,4.3906c0.21,2.0596,1.9399,3.5898,3.9702,3.5898
		C30.4497,276.8398,30.5898,276.8398,30.73,276.8193z"/>
	<path fill="#FF4D3D" d="M33.1499,249.7598c0-2.21-1.79-4-4-4.0098c-2.21,0-4,1.79-4,4s1.79,4,4,4
		S33.1499,251.9697,33.1499,249.7598z"/>
	<path fill="#FF4D3D" d="M29.9497,230.6499c0.1401,0.0098,0.2803,0.02,0.4199,0.02c2.02,0,3.7603-1.5303,3.98-3.5801
		c0.23-2.2002-1.3696-4.1699-3.5698-4.3999c-2.1899-0.23-4.1602,1.3599-4.3901,3.5601
		C26.1597,228.4497,27.75,230.4097,29.9497,230.6499z"/>
	<path fill="#FF4D3D" d="M37.79,294.8594c-0.4502-2.1592-2.5703-3.54-4.73-3.0898c-2.1704,0.46-3.5503,2.5801-3.1001,4.7402
		c0.3999,1.8896,2.0601,3.1797,3.9199,3.1797c0.27,0,0.54-0.0293,0.8198-0.0898C36.8696,299.1494,38.25,297.0195,37.79,294.8594z"/>
	<path fill="#FF4D3D" d="M46.6499,163.5796c0.5298,0.2305,1.0898,0.3403,1.6299,0.3403c1.5303,0,2.9902-0.8799,3.6602-2.3599
		c0.8999-2.02-0.0103-4.3901-2.02-5.29c-2.02-0.9004-4.3901,0.0098-5.29,2.02C43.73,160.3101,44.6396,162.6699,46.6499,163.5796z"/>
	<path fill="#FF4D3D" d="M33.1499,207.7397c0.2798,0.0601,0.5601,0.0898,0.8301,0.0898c1.8496,0,3.5098-1.2896,3.9097-3.1597
		c0-0.0103,0-0.0103,0-0.0103c0.46-2.1597-0.9199-4.2798-3.0796-4.7397c-2.1602-0.46-4.2803,0.9199-4.7402,3.0801
		C29.6099,205.1597,30.9897,207.2798,33.1499,207.7397z"/>
	<path fill="#FF4D3D" d="M56.8101,142.7998c0.6299,0.3701,1.3198,0.54,2,0.54c1.3799,0,2.7197-0.71,3.46-1.9902
		c1.1099-1.9097,0.46-4.3599-1.4502-5.4697c-1.9102-1.1001-4.3599-0.4502-5.4702,1.46
		C54.2397,139.25,54.8999,141.6997,56.8101,142.7998z"/>
	<path fill="#FF4D3D" d="M69.0796,123.21c0.7104,0.52,1.54,0.77,2.3604,0.77c1.23,0,2.4497-0.5703,3.23-1.6504
		c1.2998-1.7798,0.9097-4.2798-0.8701-5.5898c-1.79-1.2998-4.29-0.9102-5.5898,0.8799
		C66.9097,119.4097,67.2998,121.9097,69.0796,123.21z"/>
	<path fill="#FF4D3D" d="M38.73,185.3101c0.4199,0.1299,0.8301,0.1899,1.2397,0.1899c1.6899,0,3.2603-1.0703,3.8101-2.7603
		c0.6802-2.1001-0.4697-4.3599-2.5698-5.04c-2.1001-0.6899-4.3604,0.46-5.04,2.5601
		C35.4897,182.3599,36.6299,184.6196,38.73,185.3101z"/>
	<path fill="#FF4D3D" d="M38.5898,314.2295c-2.1001,0.6807-3.25,2.9307-2.5698,5.04c0.54,1.6904,2.1099,2.7705,3.7998,2.7705
		c0.4102,0,0.8198-0.0703,1.23-0.2002c2.1001-0.6797,3.2603-2.9297,2.5801-5.0303
		C42.9497,314.7002,40.6899,313.5498,38.5898,314.2295z"/>
	<path fill="#FF4D3D" d="M122.3398,425.3594c-1.79-1.3096-4.29-0.9199-5.5898,0.8701c-1.3101,1.7803-0.9204,4.29,0.8696,5.5898
		c0.71,0.5205,1.54,0.7705,2.3501,0.7705c1.2402,0,2.46-0.5703,3.2402-1.6396
		C124.5098,429.1602,124.1196,426.6602,122.3398,425.3594z"/>
	<path fill="#FF4D3D" d="M141.3496,437.7695c0-0.0098,0-0.0098,0-0.0098c-1.9097-1.1104-4.3599-0.4502-5.4697,1.46
		s-0.46,4.3496,1.4497,5.4697v-0.0098c0.6304,0.3701,1.3203,0.54,2,0.54c1.3804,0,2.7305-0.71,3.4702-1.9902
		C143.9097,441.3193,143.2598,438.8701,141.3496,437.7695z"/>
	<path fill="#FF4D3D" d="M161.5498,448.1094c-2.02-0.8994-4.3901,0-5.29,2.0205c-0.8999,2.0195,0,4.3799,2.02,5.29
		c0.5303,0.2295,1.0801,0.3496,1.6299,0.3496c1.5303,0,2.9902-0.8896,3.6504-2.3701
		C164.4697,451.3799,163.5601,449.0195,161.5498,448.1094z"/>
	<path fill="#FF4D3D" d="M182.73,456.29c-2.1001-0.6904-4.3604,0.46-5.0503,2.5596c-0.6797,2.1006,0.46,4.3506,2.5601,5.04
		c0.4199,0.1299,0.8301,0.2002,1.2402,0.2002c1.6899,0,3.2598-1.0703,3.8101-2.7598
		C185.9697,459.2295,184.8296,456.9697,182.73,456.29z"/>
	<path fill="#FF4D3D" d="M204.6499,462.1797c-2.1602-0.46-4.29,0.9199-4.75,3.0801s0.9199,4.29,3.0801,4.75
		c0.2798,0.0596,0.5601,0.0801,0.8301,0.0801c1.8496,0,3.5098-1.2803,3.9097-3.1602
		C208.1797,464.7695,206.8101,462.6396,204.6499,462.1797z"/>
	<path fill="#FF4D3D" d="M46.46,335.9795c-2.0103,0.9004-2.9199,3.2607-2.0303,5.2803c0.6699,1.4902,2.1304,2.3799,3.6602,2.3799
		c0.54,0,1.0898-0.1094,1.6201-0.3496c2.02-0.9004,2.9297-3.2598,2.04-5.2803C50.8496,335.9902,48.48,335.0801,46.46,335.9795z"/>
	<path fill="#FF4D3D" d="M83.0298,394.6494c-1.6401,1.4805-1.77,4.0107-0.2998,5.6504c0.79,0.8799,1.8799,1.3301,2.98,1.3301
		c0.9497,0,1.9097-0.3398,2.6699-1.0303c1.6401-1.4697,1.7798-4,0.2998-5.6396C87.21,393.3096,84.6797,393.1797,83.0298,394.6494z"
		/>
	<path fill="#FF4D3D" d="M68.8198,376.4102c-1.79,1.2998-2.1899,3.7998-0.8901,5.5898c0.7803,1.0801,2,1.6494,3.2402,1.6494
		c0.8101,0,1.6401-0.25,2.3501-0.7598c1.7798-1.2998,2.1797-3.7998,0.8799-5.5898
		C73.1099,375.5098,70.5996,375.1094,68.8198,376.4102z"/>
	<path fill="#FF4D3D" d="M86.0098,106.0298c1.0898,0,2.1802-0.4502,2.9702-1.3198c1.48-1.6401,1.3496-4.1699-0.2803-5.6499
		C87.0498,97.5796,84.52,97.71,83.04,99.3496c-1.48,1.6401-1.3403,4.1704,0.2896,5.6504
		C84.0996,105.6899,85.0601,106.0298,86.0098,106.0298z"/>
	<path fill="#FF4D3D" d="M99.0698,411.3193c-1.48,1.6406-1.3501,4.1709,0.2798,5.6504c0.77,0.6904,1.73,1.0303,2.6904,1.0303
		c1.0898,0,2.1797-0.4404,2.9697-1.3203c1.48-1.6299,1.3501-4.1602-0.29-5.6494
		C103.0796,409.5498,100.5498,409.6797,99.0698,411.3193z"/>
	<path fill="#FF4D3D" d="M338.4297,51.79c0.5303,0.23,1.0898,0.3496,1.6299,0.3496c1.5303,0,2.9902-0.8896,3.6602-2.3696
		c0.9004-2.02-0.0098-4.3901-2.0303-5.29c-2.0098-0.9004-4.3799,0.0098-5.2793,2.02C335.5098,48.52,336.4199,50.8896,338.4297,51.79
		z"/>
	<path fill="#FF4D3D" d="M428.8896,124.1499c0.8203,0,1.6406-0.25,2.3506-0.7603c1.79-1.2998,2.1797-3.7998,0.8799-5.5898
		c-1.3008-1.79-3.8008-2.1802-5.5801-0.8799c-1.79,1.2998-2.1904,3.7998-0.8906,5.5898
		C426.4395,123.5796,427.6494,124.1499,428.8896,124.1499z"/>
	<path fill="#FF4D3D" d="M414.3301,106.1899c0.9502,0,1.9102-0.3403,2.6797-1.0303c1.6396-1.48,1.7705-4.0098,0.29-5.6499
		s-4.0098-1.77-5.6504-0.29c-1.6396,1.4702-1.7695,4-0.29,5.6401C412.1396,105.7397,413.2295,106.1899,414.3301,106.1899z"/>
	<path fill="#FF4D3D" d="M441.5,143.54c0.6797,0,1.3701-0.1704,2-0.54c1.9102-1.1104,2.5693-3.5503,1.46-5.4702v0.0103
		c-1.1104-1.9204-3.5498-2.5703-5.46-1.4702c-1.9199,1.1099-2.5703,3.5601-1.4697,5.4702
		C438.7803,142.8198,440.1201,143.54,441.5,143.54z"/>
	<path fill="#FF4D3D" d="M227.0698,465.7402c-2.2002-0.2305-4.1699,1.3594-4.3999,3.5596s1.3599,4.1699,3.5601,4.4004
		c0.1396,0.0098,0.2798,0.0195,0.4199,0.0195c2.02,0,3.7598-1.5303,3.9697-3.5801
		C230.8599,467.9395,229.2598,465.9697,227.0698,465.7402z"/>
	<path fill="#FF4D3D" d="M358.6494,62.1099c0.6309,0.3701,1.3105,0.54,1.9902,0.54c1.3799,0,2.7305-0.71,3.4697-1.9902
		c1.1104-1.9199,0.4502-4.3599-1.46-5.4697c-1.9092-1.1104-4.3594-0.4502-5.46,1.46
		C356.0801,58.5601,356.7295,61.0098,358.6494,62.1099z"/>
	<path fill="#FF4D3D" d="M460.2998,185.73c0.4102,0,0.8203-0.0601,1.2305-0.2002c2.1094-0.6802,3.2598-2.9302,2.5693-5.04
		c-0.6797-2.1001-2.9297-3.25-5.04-2.5601c-2.0996,0.6699-3.25,2.9302-2.5693,5.0303
		C457.04,184.6499,458.6094,185.73,460.2998,185.73z"/>
	<path fill="#FF4D3D" d="M469.4395,222.9297c-2.1895,0.23-3.79,2.2002-3.5596,4.3901c0.21,2.0601,1.9502,3.5898,3.9697,3.5898
		c0.1406,0,0.2803-0.0098,0.4199-0.02c2.2002-0.23,3.79-2.1899,3.5703-4.3896
		C473.6094,224.2998,471.6396,222.6997,469.4395,222.9297z"/>
	<path fill="#FF4D3D" d="M462.3594,204.8999c0.3906,1.8799,2.0508,3.1699,3.9004,3.1699c0.2803,0,0.5596-0.0298,0.8398-0.0801
		c2.1602-0.46,3.54-2.5801,3.0801-4.7397v-0.0103c-0.4502-2.1602-2.5801-3.54-4.7402-3.0801
		C463.2803,200.6196,461.8994,202.7397,462.3594,204.8999z"/>
	<path fill="#FF4D3D" d="M317.2402,43.6396c0.4199,0.1304,0.8291,0.2002,1.2393,0.2002c1.6904,0,3.2607-1.0801,3.8105-2.77
		c0.6797-2.1001-0.4707-4.3599-2.5703-5.04s-4.3604,0.4702-5.04,2.5698C313.9902,40.6997,315.1396,42.9497,317.2402,43.6396z"/>
	<path fill="#FF4D3D" d="M452.0098,164.1396c0.5498,0,1.0996-0.1099,1.6299-0.3496c2.0205-0.9004,2.9199-3.2603,2.0205-5.2803
		c-0.9004-2.02-3.2607-2.9302-5.2803-2.0298c-2.0205,0.8999-2.9199,3.27-2.0205,5.29
		C449.0195,163.2598,450.4795,164.1396,452.0098,164.1396z"/>
	<path fill="#FF4D3D" d="M139.75,62.54c0.6797,0,1.3696-0.1704,2-0.54c1.9097-1.1001,2.5601-3.5503,1.46-5.46
		c-1.1104-1.9102-3.5503-2.5703-5.4702-1.4604c-1.9102,1.1001-2.5601,3.5503-1.46,5.4604
		C137.02,61.8198,138.3696,62.54,139.75,62.54z"/>
	<path fill="#FF4D3D" d="M181.9399,43.7598c0.4097,0,0.8301-0.0601,1.2397-0.1899c2.1001-0.6899,3.25-2.9399,2.5703-5.04
		c-0.6802-2.1001-2.9399-3.2598-5.04-2.5698c-2.1001,0.6797-3.25,2.9297-2.5703,5.0298
		C178.6899,42.6899,180.2598,43.7598,181.9399,43.7598z"/>
	<path fill="#FF4D3D" d="M295.3193,37.77c0.2803,0.0596,0.5605,0.0898,0.8301,0.0898c1.8506,0,3.5107-1.29,3.9102-3.1699
		c0.46-2.1699-0.9199-4.29-3.0801-4.75c-2.1699-0.4502-4.29,0.9199-4.75,3.0801C291.7803,35.1899,293.1602,37.3101,295.3193,37.77z"
		/>
	<path fill="#FF4D3D" d="M160.3496,52.04c0.5503,0,1.1001-0.1104,1.6304-0.3501c2.02-0.8999,2.9199-3.2603,2.02-5.2803
		c-0.8901-2.02-3.2603-2.9199-5.2803-2.0298c-2.02,0.8999-2.9199,3.27-2.02,5.2798C157.3599,51.1499,158.8198,52.04,160.3496,52.04z
		"/>
	<path fill="#FF4D3D" d="M120.3599,75.1396c0.8101,0,1.6299-0.25,2.3398-0.77c1.79-1.29,2.1899-3.79,0.8901-5.5796
		C122.29,67,119.79,66.5996,118,67.8999c-1.79,1.2998-2.1802,3.7998-0.8804,5.5898
		C117.8999,74.5698,119.1196,75.1396,120.3599,75.1396z"/>
	<path fill="#FF4D3D" d="M102.3799,89.6899c0.9497,0,1.9102-0.3403,2.6699-1.0303c1.6401-1.4697,1.7798-4,0.2998-5.6499
		c-1.48-1.6401-4.0098-1.77-5.6499-0.29c-1.6396,1.4702-1.77,4-0.2998,5.6401C100.1899,89.2397,101.2798,89.6899,102.3799,89.6899z"
		/>
	<path fill="#FF4D3D" d="M272.8896,34.23c0.1406,0.02,0.2803,0.02,0.4199,0.02c2.0303,0.0098,3.7598-1.52,3.9805-3.5801
		c0.2295-2.2002-1.3701-4.1699-3.5703-4.3999v0.0098c-2.1895-0.23-4.1602,1.3599-4.3896,3.5601
		C269.0996,32.04,270.7002,34,272.8896,34.23z"/>
	<path fill="#FF4D3D" d="M250.2197,33.0498c2.21,0,4-1.79,4-4s-1.79-4-3.9897-4h-0.0103c-2.21,0-4,1.79-4,4
		S248.0098,33.0498,250.2197,33.0498z"/>
	<path fill="#FF4D3D" d="M227.1299,34.23c0.1401,0,0.2798-0.0103,0.4199-0.02c-0.0098,0-0.0098,0-0.0098,0
		c2.1997-0.23,3.7998-2.1899,3.5698-4.3901c-0.2202-2.2002-2.1899-3.7998-4.3901-3.5698c-2.1899,0.23-3.79,2.1899-3.5698,4.3896
		C223.3696,32.6997,225.1099,34.23,227.1299,34.23z"/>
	<path fill="#FF4D3D" d="M204.29,37.8101c0.27,0,0.5498-0.0303,0.8296-0.0903c2.1602-0.46,3.54-2.5801,3.0903-4.7397
		c-0.46-2.1602-2.5801-3.5503-4.7402-3.0903c-2.1699,0.46-3.5498,2.5801-3.0898,4.7402
		C200.77,36.5098,202.4399,37.8101,204.29,37.8101z"/>
	<path fill="#FF4D3D" d="M56.5796,356.7803c-1.9097,1.1094-2.5698,3.5498-1.4697,5.4697c0.7397,1.2803,2.0898,2,3.4697,2
		c0.6802,0,1.3701-0.1699,2-0.54c1.9102-1.1006,2.5703-3.5498,1.4604-5.46C60.9399,356.3398,58.4897,355.6797,56.5796,356.7803z"/>
	<path fill="#FF4D3D" d="M358.25,438.1201c-1.9199,1.0996-2.5801,3.54-1.4697,5.46c0.7393,1.2793,2.0791,2,3.4697,2
		c0.6699,0,1.3594-0.1699,1.9902-0.5303c1.9092-1.1104,2.5693-3.5498,1.4697-5.4697
		C362.5996,437.6699,360.1602,437.0098,358.25,438.1201z"/>
	<path fill="#FF4D3D" d="M411.0498,395.4697c-1.4805,1.6396-1.3496,4.1699,0.29,5.6504c0.7598,0.6895,1.7197,1.0293,2.6797,1.0293
		c1.0898,0,2.1807-0.4395,2.9707-1.3096c1.4795-1.6396,1.3496-4.1699-0.29-5.6504
		C415.0596,393.7002,412.5303,393.8301,411.0498,395.4697z"/>
	<path fill="#FF4D3D" d="M453.4502,336.6494c-2.0205-0.9092-4.3809,0-5.29,2.0107c-0.9004,2.0195,0,4.3799,2.0195,5.29
		c0.5303,0.2393,1.0801,0.3496,1.6299,0.3496c1.5303,0,2.9902-0.8799,3.6504-2.3604h0.0098
		C456.3701,339.9199,455.4697,337.5498,453.4502,336.6494z"/>
	<path fill="#FF4D3D" d="M461.3994,314.9297c-2.1094-0.6895-4.3691,0.46-5.0498,2.5605c-0.6895,2.0996,0.46,4.3594,2.5605,5.04
		c0.4092,0.1396,0.8301,0.1992,1.2393,0.1992c1.6807,0,3.25-1.0693,3.8008-2.75
		C464.6396,317.8701,463.4902,315.6201,461.3994,314.9297z"/>
	<path fill="#FF4D3D" d="M294.8496,462.3301c-2.1699,0.4502-3.5498,2.5693-3.0996,4.7393c0.3994,1.8809,2.0596,3.1807,3.9199,3.1807
		c0.2695,0,0.54-0.0303,0.8203-0.0898c2.1592-0.4502,3.54-2.5703,3.0898-4.7402
		C299.1299,463.2598,297.0098,461.8799,294.8496,462.3301z"/>
	<path fill="#FF4D3D" d="M443.2695,357.4102c-1.9102-1.1104-4.3594-0.4707-5.4697,1.4492c-1.1104,1.9102-0.46,4.3506,1.4502,5.46
		c0.6396,0.3701,1.3301,0.5508,2.0098,0.5508c1.3799,0,2.7197-0.7207,3.46-1.9902
		C445.8301,360.9697,445.1797,358.5195,443.2695,357.4102z"/>
	<path fill="#FF4D3D" d="M430.9795,376.9902c-1.79-1.3008-4.29-0.9102-5.5898,0.8691c-1.3096,1.7803-0.9199,4.29,0.8701,5.5908
		c0.71,0.5195,1.5303,0.7695,2.3496,0.7695c1.2402,0,2.4502-0.5703,3.2402-1.6396
		C433.1494,380.79,432.7598,378.29,430.9795,376.9902z"/>
	<path fill="#FF4D3D" d="M382.3799,68.0298c-1.79-1.2998-4.29-0.8999-5.5898,0.8799c-1.2998,1.79-0.9102,4.29,0.8799,5.5903
		c0.71,0.52,1.5303,0.77,2.3496,0.77c1.2402,0,2.4502-0.5703,3.2402-1.6504C384.5596,71.8398,384.1602,69.3296,382.3799,68.0298z"/>
	<path fill="#FF4D3D" d="M272.4102,465.8193c-2.1904,0.2207-3.79,2.1807-3.5703,4.3809c0.21,2.0596,1.9502,3.5996,3.9795,3.5996
		c0.1309,0,0.2705-0.0098,0.4102-0.0195v-0.0107c2.2002-0.2197,3.79-2.1797,3.5703-4.3799
		C276.5693,467.1895,274.6094,465.5898,272.4102,465.8193z"/>
	<path fill="#FF4D3D" d="M377.2998,425.7695c-1.79,1.29-2.1797,3.79-0.8896,5.5801c0.7793,1.0801,2,1.6504,3.2393,1.6504
		c0.8203,0,1.6406-0.2402,2.3506-0.7598c1.79-1.29,2.1797-3.8008,0.8896-5.5801
		C381.5898,424.8701,379.0898,424.4697,377.2998,425.7695z"/>
	<path fill="#FF4D3D" d="M467,292.4902c-2.1602-0.46-4.2803,0.9199-4.7402,3.0791c-0.4697,2.1602,0.9102,4.29,3.0703,4.75
		c0.2793,0.0605,0.5693,0.0908,0.8398,0.0908c1.8496,0,3.5098-1.29,3.9102-3.1699C470.54,295.0801,469.1602,292.96,467,292.4902z"/>
	<path fill="#FF4D3D" d="M316.79,456.5098c-2.1006,0.6797-3.25,2.9297-2.5801,5.0303c0.5498,1.7002,2.1201,2.7695,3.8096,2.7695
		c0.4102,0,0.8203-0.0596,1.2305-0.1895c2.0996-0.6807,3.2598-2.9307,2.5801-5.0303
		C321.1494,456.9795,318.8896,455.8301,316.79,456.5098z"/>
	<path fill="#FF4D3D" d="M395.0098,83.1499c-1.4795,1.6499-1.3496,4.1699,0.29,5.6499c0.7695,0.6899,1.7197,1.0298,2.6797,1.0298
		c1.0898,0,2.1807-0.4399,2.9707-1.3198c1.4795-1.6401,1.3496-4.1699-0.29-5.6499
		C399.0195,81.3799,396.4902,81.5098,395.0098,83.1499z"/>
	<path fill="#FF4D3D" d="M470.2295,269.5996c-2.1992-0.2402-4.1699,1.3604-4.3994,3.5498
		c-0.2305,2.2002,1.3594,4.1699,3.5596,4.4004c0.1406,0.0195,0.2803,0.0303,0.4199,0.0303c2.0205,0,3.75-1.5303,3.9707-3.5801
		C474.0195,271.7998,472.4199,269.8301,470.2295,269.5996z"/>
	<path fill="#FF4D3D" d="M394.9697,411.5c-1.6504,1.4697-1.7803,4-0.3096,5.6494c0.79,0.8701,1.8799,1.3203,2.9795,1.3203
		c0.9502,0,1.9102-0.3301,2.6699-1.0195c1.6406-1.4805,1.7803-4.0107,0.3105-5.6504
		C399.1396,410.1602,396.6094,410.0195,394.9697,411.5z"/>
	<path fill="#FF4D3D" d="M338,448.3994c-2.0205,0.9004-2.9307,3.2607-2.0303,5.2803c0.6602,1.4902,2.1201,2.3799,3.6602,2.3799
		c0.54,0,1.0898-0.1094,1.6201-0.3398c2.0195-0.9004,2.9297-3.2598,2.0303-5.2803C342.3896,448.4199,340.0195,447.5098,338,448.3994
		z"/>
	<path fill="#FF4D3D" d="M249.7397,466.9502c-2.21,0-4,1.7793-4.0098,3.9893c0,2.21,1.79,4.0107,4,4.0107
		c2.2095,0,3.9995-1.79,3.9995-3.9902C253.7402,468.75,251.9502,466.9502,249.7397,466.9502z"/>
	<path fill="#FF4D3D" d="M475.0498,250c0-2.21-1.79-4-4-4s-4,1.79-4,4c0,0.0796,0,0.1597,0.0098,0.2397
		c-0.0098,0.0801-0.0098,0.1602-0.0098,0.2402c-0.0098,2.2095,1.7803,3.9995,3.9902,4.0103h0.0098c2.2002,0,3.9902-1.79,4-3.9902
		c0-0.0903,0-0.1704-0.0098-0.25C475.0498,250.1699,475.0498,250.0796,475.0498,250z"/>
	<path fill="#FF4D3D" d="M396.8193,397.1094c1.04,0,2.0801-0.4092,2.8701-1.21c1.54-1.5801,1.5107-4.1094-0.0693-5.6592
		c-1.5898-1.54-4.1201-1.5107-5.6602,0.0791c-1.54,1.5801-1.5098,4.1104,0.0703,5.6504
		C394.8096,396.7295,395.8096,397.1094,396.8193,397.1094z"/>
	<path fill="#FF4D3D" d="M378.8096,90.4399c1.3506-1.75,1.0303-4.2603-0.71-5.6201c-1.75-1.3501-4.2598-1.04-5.6094,0.71
		c-1.3604,1.75-1.04,4.2603,0.6992,5.6099c0.7305,0.5703,1.6006,0.8403,2.4502,0.8403
		C376.8398,91.98,378.0195,91.4497,378.8096,90.4399z"/>
	<path fill="#FF4D3D" d="M100.3696,104.25c-1.54,1.5796-1.5098,4.1099,0.0703,5.6499c0.7798,0.7598,1.79,1.1401,2.79,1.1401
		c1.04,0,2.0898-0.4102,2.8696-1.2104c1.54-1.5796,1.5-4.1196-0.0796-5.6597C104.4399,102.6299,101.9097,102.6699,100.3696,104.25z"
		/>
	<path fill="#FF4D3D" d="M60.5996,161.8296c-0.9297,2-0.0596,4.3804,1.9404,5.3101c0.5498,0.2603,1.1196,0.3804,1.6899,0.3804
		c1.5,0,2.9497-0.8604,3.6299-2.3101c0.9302-2.0103,0.0601-4.3901-1.9399-5.3203C63.9199,158.96,61.54,159.8198,60.5996,161.8296z"
		/>
	<path fill="#FF4D3D" d="M71.6797,141.1899c-1.1597,1.8799-0.5601,4.3501,1.3203,5.5c0.6499,0.3999,1.3799,0.5898,2.0898,0.5898
		c1.3398,0,2.6602-0.6899,3.4102-1.9199c1.1499-1.8901,0.5601-4.3501-1.3203-5.5C75.29,138.71,72.8296,139.2998,71.6797,141.1899z"
		/>
	<path fill="#FF4D3D" d="M120.1597,95.4897c0.8901,0,1.79-0.2998,2.5303-0.9102c1.71-1.3999,1.96-3.9199,0.5601-5.6299
		c-1.4004-1.71-3.9204-1.9497-5.6304-0.5498s-1.96,3.9199-0.5596,5.6299C117.8496,94.9897,119,95.4897,120.1597,95.4897z"/>
	<path fill="#FF4D3D" d="M395.8496,105.8496c1.54-1.5796,1.5098-4.1196-0.0801-5.6597c-1.5801-1.54-4.1094-1.5-5.6494,0.0801
		c-1.54,1.5898-1.5107,4.1196,0.0801,5.6597c0.7793,0.75,1.7793,1.1304,2.7793,1.1304
		C394.0303,107.0601,395.0693,106.6499,395.8496,105.8496z"/>
	<path fill="#FF4D3D" d="M377.3496,405.5498c-1.71,1.4004-1.96,3.9199-0.5596,5.6299c0.79,0.96,1.9395,1.46,3.0996,1.46
		c0.8906,0,1.79-0.2998,2.5303-0.9102c1.71-1.3994,1.96-3.9199,0.5596-5.6201
		C381.5801,404.3994,379.0596,404.1494,377.3496,405.5498z"/>
	<path fill="#FF4D3D" d="M84.9897,121.9199c-1.3599,1.7397-1.04,4.2598,0.7002,5.6099c0.73,0.5698,1.6001,0.8398,2.4497,0.8398
		c1.2002,0,2.3804-0.5298,3.1704-1.5498c1.3496-1.7402,1.0396-4.25-0.7104-5.6099
		C88.8599,119.8599,86.3398,120.1699,84.9897,121.9199z"/>
	<path fill="#FF4D3D" d="M441.2695,175.8198c-2.0801,0.7598-3.1494,3.0601-2.3896,5.1299c0.5996,1.6201,2.1299,2.6299,3.7598,2.6299
		c0.46,0,0.9199-0.0796,1.3701-0.2397c2.0801-0.7603,3.1504-3.0601,2.3896-5.1299
		C445.6396,176.1299,443.3398,175.0601,441.2695,175.8198z"/>
	<path fill="#FF4D3D" d="M449.4795,224.6797c0.25,2.0303,1.9707,3.5,3.96,3.5c0.1699,0,0.3301-0.0098,0.5-0.0298
		c2.1904-0.27,3.75-2.27,3.4707-4.46c-0.2705-2.2002-2.2705-3.75-4.4707-3.48C450.75,220.4897,449.2002,222.4897,449.4795,224.6797z
		"/>
	<path fill="#FF4D3D" d="M458.0303,270.8701c0.2197-2.2002-1.3906-4.1602-3.5801-4.3799c-2.2002-0.2207-4.1602,1.3896-4.3809,3.5898
		c-0.2197,2.2002,1.3906,4.1602,3.5908,4.3701c0.1299,0.0195,0.2598,0.0195,0.3994,0.0195
		C456.0898,274.4697,457.8301,272.9297,458.0303,270.8701z"/>
	<path fill="#FF4D3D" d="M449.6602,297.0898c0.29,0.0596,0.5693,0.0898,0.8496,0.0898c1.8398,0,3.5-1.29,3.9004-3.1699
		c0.4697-2.1602-0.9102-4.2803-3.0703-4.7402c-2.1602-0.4697-4.2803,0.9102-4.75,3.0703
		C446.1299,294.5,447.5,296.6201,449.6602,297.0898z"/>
	<path fill="#FF4D3D" d="M454.9795,243.1099c-2.21,0.0298-3.9697,1.8398-3.9395,4.0498c0,0.0703,0,0.1304,0,0.1899
		c0,0.0703,0,0.1401,0,0.2104c0.0293,2.1899,1.8096,3.9595,4,3.9595c0.0195,0,0.0293,0,0.04,0
		c2.21-0.0293,3.9795-1.8398,3.96-4.0396c0-0.0703,0-0.1401-0.0098-0.21c0.0098-0.0703,0.0098-0.1504,0.0098-0.2202
		C459,244.8398,457.1895,243.0796,454.9795,243.1099z"/>
	<path fill="#FF4D3D" d="M448.3594,197.6997c-2.1396,0.5103-3.46,2.6802-2.9395,4.8203c0.4395,1.8398,2.0801,3.0596,3.8799,3.0596
		c0.3096,0,0.6299-0.0298,0.9404-0.1099c2.1494-0.52,3.4697-2.6797,2.9492-4.8301
		C452.6699,198.5,450.5098,197.1797,448.3594,197.6997z"/>
	<path fill="#FF4D3D" d="M428.4102,358.9902c1.1592-1.8906,0.5693-4.3506-1.3203-5.5c-1.8799-1.1602-4.3496-0.5605-5.5,1.3193
		s-0.5596,4.3506,1.3203,5.5c0.6494,0.4004,1.3799,0.5898,2.0898,0.5898C426.3398,360.8994,427.6602,360.2197,428.4102,358.9902z"/>
	<path fill="#FF4D3D" d="M411.0801,123.0698c1.71-1.4102,1.96-3.9302,0.5498-5.6299c-1.4004-1.71-3.9199-1.96-5.6299-0.5601
		c-1.7002,1.4102-1.9502,3.9302-0.5498,5.6401c0.79,0.96,1.9395,1.46,3.0996,1.46
		C409.4395,123.98,410.3398,123.6797,411.0801,123.0698z"/>
	<path fill="#FF4D3D" d="M424.2998,141.8799c1.8496-1.21,2.3799-3.6899,1.1797-5.54c-1.21-1.8501-3.6797-2.3799-5.54-1.1699
		c-1.8496,1.1997-2.3799,3.6797-1.1699,5.5298c0.7607,1.1802,2.0498,1.8203,3.3604,1.8203
		C422.8701,142.52,423.6299,142.3101,424.2998,141.8799z"/>
	<path fill="#FF4D3D" d="M415.0801,378.25c1.3594-1.75,1.04-4.2598-0.7002-5.6201c-1.7402-1.3496-4.2598-1.04-5.6104,0.7002
		c-1.3594,1.7393-1.04,4.2598,0.7002,5.6201c0.7305,0.5693,1.5898,0.8398,2.4502,0.8398
		C413.1094,379.79,414.29,379.2598,415.0801,378.25z"/>
	<path fill="#FF4D3D" d="M445.7002,311.54c-2.1006-0.7002-4.3604,0.4297-5.0703,2.5195c-0.7002,2.0898,0.4297,4.3604,2.5195,5.0703
		c0.4199,0.1396,0.8506,0.21,1.2705,0.21c1.6699,0,3.2295-1.0596,3.79-2.7305C448.9199,314.5195,447.79,312.25,445.7002,311.54z"/>
	<path fill="#FF4D3D" d="M439.5098,338.3594c0.9297-2,0.0703-4.3799-1.9404-5.3193c-2-0.9307-4.3799-0.0703-5.3096,1.9395
		c-0.9404,2-0.0703,4.3799,1.9297,5.3105c0.5508,0.2598,1.1201,0.3799,1.6904,0.3799
		C437.3799,340.6699,438.8301,339.8193,439.5098,338.3594z"/>
	<path fill="#FF4D3D" d="M429.96,160.2598c0.7002,1.3999,2.1094,2.21,3.5801,2.21c0.5996,0,1.21-0.1299,1.79-0.4199
		c1.9697-0.9897,2.7695-3.3901,1.79-5.3701h-0.0107c-0.9795-1.9697-3.3799-2.77-5.3594-1.79
		C429.7695,155.8799,428.9697,158.2798,429.96,160.2598z"/>
	<path fill="#FF4D3D" d="M275.1094,449.4102c-2.1895,0.2695-3.75,2.2695-3.4697,4.4697c0.25,2.0195,1.9697,3.5,3.9697,3.5
		c0.1602,0,0.3301-0.0098,0.4902-0.0303c2.1904-0.2695,3.75-2.2695,3.4805-4.46
		C279.2998,450.7002,277.3096,449.1396,275.1094,449.4102z"/>
	<path fill="#FF4D3D" d="M252.6396,450.9395c-2.21,0.0303-3.98,1.8408-3.96,4.0508c0.0303,2.1895,1.8101,3.9492,4,3.9492
		c0.0205,0,0.0303,0,0.0498,0c2.21-0.0195,3.9805-1.8301,3.9502-4.04C256.6602,452.6895,254.8496,450.9199,252.6396,450.9395z"/>
	<path fill="#FF4D3D" d="M126.8496,408.7295c-1.75-1.3594-4.2598-1.04-5.6196,0.7002c-1.3501,1.75-1.04,4.2598,0.71,5.6104
		c0.73,0.5693,1.5898,0.8496,2.4497,0.8496c1.1899,0,2.3701-0.5303,3.1602-1.5498
		C128.9097,412.5996,128.5898,410.0801,126.8496,408.7295z"/>
	<path fill="#FF4D3D" d="M138.71,81.9199c0.75,0,1.5-0.21,2.1699-0.6401c1.8599-1.21,2.3901-3.6802,1.1802-5.5298
		c-1.2002-1.8604-3.6802-2.3901-5.5303-1.1802c-1.8501,1.2002-2.3799,3.6699-1.1802,5.5298
		C136.1196,81.2798,137.3999,81.9199,138.71,81.9199z"/>
	<path fill="#FF4D3D" d="M145.3696,421.54c0.0103,0,0.0103,0,0.0103,0c-1.8901-1.1504-4.3501-0.5605-5.5,1.3301
		c-1.1602,1.8799-0.5601,4.3398,1.3198,5.5c0.6499,0.3994,1.3701,0.5801,2.0801,0.5898c1.3501,0,2.6699-0.6904,3.4199-1.9199
		C147.8496,425.1602,147.2598,422.7002,145.3696,421.54z"/>
	<path fill="#FF4D3D" d="M270.2695,50.02c2.04,0,3.7705-1.5503,3.9805-3.6104c0.21-2.1997-1.4004-4.1597-3.5898-4.3696
		c-2.2002-0.2202-4.1602,1.3896-4.3701,3.5898c-0.2207,2.1997,1.3896,4.1499,3.5898,4.3701
		C270.0098,50.0098,270.1396,50.02,270.2695,50.02z"/>
	<path fill="#FF4D3D" d="M88.9897,376.7695c-1.71,1.4004-1.96,3.9199-0.5601,5.6299c0.79,0.96,1.9399,1.46,3.1001,1.46
		c0.8901,0,1.79-0.29,2.5303-0.8994c1.71-1.4004,1.96-3.9199,0.5596-5.6299C93.2197,375.6201,90.6997,375.3701,88.9897,376.7695z"/>
	<path fill="#FF4D3D" d="M224.8799,50.6099c2.1997-0.27,3.75-2.27,3.48-4.46c-0.2803-2.2002-2.2803-3.75-4.4702-3.48
		c-2.1899,0.2798-3.75,2.2798-3.4697,4.4697c0.25,2.02,1.98,3.5,3.96,3.5C224.5498,50.6396,224.7197,50.6299,224.8799,50.6099z"/>
	<path fill="#FF4D3D" d="M104.1997,394c-1.54,1.5801-1.5098,4.1201,0.0703,5.6602c0.7798,0.7598,1.79,1.1299,2.79,1.1299
		c1.0498,0,2.0898-0.4004,2.8696-1.2002c1.54-1.5898,1.5103-4.1201-0.0698-5.6602C108.27,392.3896,105.7397,392.4199,104.1997,394z"
		/>
	<path fill="#FF4D3D" d="M160.4497,70.0898c1.98-0.98,2.7803-3.3901,1.79-5.3599c-0.9897-1.98-3.3901-2.7803-5.3599-1.79
		c-1.98,0.98-2.7803,3.3896-1.8003,5.3599c0.7002,1.3999,2.1201,2.2202,3.5903,2.2202
		C159.27,70.52,159.8799,70.3799,160.4497,70.0898z"/>
	<path fill="#FF4D3D" d="M230.1196,449.9795c-2.1997-0.2197-4.1597,1.3906-4.3696,3.5898
		c-0.2202,2.2002,1.3896,4.1504,3.5796,4.3701c0.1401,0.0107,0.27,0.0205,0.4004,0.0205c2.04,0,3.77-1.54,3.98-3.6104
		C233.9199,452.1494,232.3198,450.2002,230.1196,449.9795z"/>
	<path fill="#FF4D3D" d="M202.7197,54.6597c2.1499-0.52,3.4702-2.6797,2.9502-4.8301c-0.52-2.1396-2.6802-3.46-4.8203-2.9497
		c-2.1499,0.52-3.4697,2.6802-2.9497,4.8301c0.4399,1.8301,2.0801,3.0601,3.8799,3.0601
		C202.0898,54.77,202.4097,54.7397,202.7197,54.6597z"/>
	<path fill="#FF4D3D" d="M207.8599,446.5195c0-0.0098,0-0.0098,0-0.0098c-2.1602-0.46-4.29,0.9199-4.75,3.0801
		s0.9199,4.2803,3.0801,4.75c0.2798,0.0596,0.5601,0.0898,0.8398,0.0898c1.8398,0,3.5-1.29,3.9102-3.1699
		C211.3999,449.0996,210.02,446.9795,207.8599,446.5195z"/>
	<path fill="#FF4D3D" d="M186.1299,440.5596c-2.0898-0.7002-4.3599,0.4307-5.0601,2.5205c-0.7002,2.0996,0.4199,4.3594,2.52,5.0693
		c0.4199,0.1406,0.8501,0.21,1.27,0.21c1.6699,0,3.23-1.0596,3.79-2.7295C189.3599,443.5303,188.23,441.2695,186.1299,440.5596z"/>
	<path fill="#FF4D3D" d="M165.2197,432.2002c-2.0098-0.9307-4.3901-0.0703-5.3198,1.9297c-0.9302,2-0.0703,4.3896,1.9297,5.3203
		c0.5503,0.2598,1.1201,0.3799,1.6904,0.3799c1.5098,0,2.9497-0.8604,3.6299-2.3105
		C168.0796,435.5195,167.2197,433.1299,165.2197,432.2002z"/>
	<path fill="#FF4D3D" d="M181.1499,61.1797c2.0698-0.7598,3.1401-3.0498,2.3901-5.1299c-0.7603-2.0698-3.0601-3.1401-5.1304-2.3799
		c-2.0801,0.75-3.1499,3.0498-2.3896,5.1201c0.5898,1.6299,2.1299,2.6299,3.7598,2.6299
		C180.23,61.4199,180.6997,61.3496,181.1499,61.1797z"/>
	<path fill="#FF4D3D" d="M247.3696,49.0601c2.21-0.0303,3.9702-1.8501,3.9399-4.0601c-0.0293-2.21-1.8496-3.9702-4.0596-3.9399
		c-2.21,0.0298-3.9702,1.8496-3.9399,4.0596c0.0298,2.1904,1.8198,3.9404,4,3.9404
		C247.3296,49.0601,247.3496,49.0601,247.3696,49.0601z"/>
	<path fill="#FF4D3D" d="M45.1597,256.6797c0.02,0,0.04,0,0.0601,0c2.2002-0.0303,3.9702-1.8398,3.9399-4.0498
		c-0.0298-2.21-1.8496-3.9702-4.0601-3.9399c-2.1997,0.0298-3.9697,1.8398-3.9399,4.0503
		C41.1899,254.9297,42.98,256.6797,45.1597,256.6797z"/>
	<path fill="#FF4D3D" d="M359.1494,418.8301c-1.8594,1.2002-2.3896,3.6797-1.1895,5.5293c0.7695,1.1904,2.0498,1.8301,3.3594,1.8301
		c0.75,0,1.5-0.21,2.1709-0.6396c1.8594-1.2002,2.3896-3.6797,1.1895-5.5303C363.4795,418.1602,361,417.6299,359.1494,418.8301z"/>
	<path fill="#FF4D3D" d="M50.8398,302.2197c0.3101,0,0.6299-0.04,0.9399-0.1201c2.1499-0.5098,3.4702-2.6699,2.96-4.8193
		c-0.52-2.1504-2.6797-3.4707-4.8301-2.9502c-2.1499,0.5098-3.4697,2.6699-2.9497,4.8193
		C47.3999,300.9795,49.04,302.2197,50.8398,302.2197z"/>
	<path fill="#FF4D3D" d="M46.73,279.6094c0.1597,0,0.3301-0.0098,0.5-0.0293c2.1899-0.2803,3.7397-2.2705,3.4697-4.4707
		c-0.27-2.1895-2.27-3.7393-4.46-3.4697c-2.1997,0.2705-3.75,2.2705-3.48,4.46C43.0098,278.1299,44.7397,279.6094,46.73,279.6094z"
		/>
	<path fill="#FF4D3D" d="M360.1494,77.02c1.1504-1.8901,0.5508-4.3501-1.3301-5.5c-1.8896-1.1504-4.3496-0.5503-5.5,1.3296
		c-1.1494,1.8901-0.5498,4.3501,1.3301,5.5c0.6504,0.4004,1.3701,0.5903,2.0801,0.5903
		C358.0801,78.9399,359.3994,78.25,360.1494,77.02z"/>
	<path fill="#FF4D3D" d="M48.8198,210.9399c0.2798,0.0601,0.5601,0.0801,0.8398,0.0801c1.8403,0,3.5-1.2803,3.9004-3.1602
		c0.46-2.1602-0.9102-4.29-3.0703-4.75s-4.29,0.9199-4.75,3.0801C45.2798,208.3496,46.6597,210.4697,48.8198,210.9399z"/>
	<path fill="#FF4D3D" d="M54.4399,188.6499c0.4199,0.1401,0.8501,0.21,1.27,0.21c1.6699,0,3.23-1.0601,3.79-2.73
		c0.6997-2.0898-0.4204-4.3599-2.52-5.0698c-2.0903-0.7002-4.3604,0.4297-5.0601,2.5298
		C51.21,185.6797,52.3398,187.9497,54.4399,188.6499z"/>
	<path fill="#FF4D3D" d="M339.5693,430c-1.9795,0.9795-2.7793,3.3799-1.7998,5.3594c0.7002,1.4004,2.1201,2.2207,3.5801,2.2207
		c0.6006,0,1.21-0.1406,1.7803-0.4199c1.9795-0.9902,2.79-3.3906,1.7998-5.3701C343.9502,429.8096,341.5498,429.0098,339.5693,430z"
		/>
	<path fill="#FF4D3D" d="M42.1499,229.3398c-0.2202,2.2002,1.3901,4.1499,3.5898,4.3701c0.1299,0.0098,0.2603,0.02,0.3901,0.02
		c2.04,0,3.7798-1.5503,3.98-3.6104c0.21-2.1997-1.3901-4.1597-3.5898-4.3696C44.3198,225.5298,42.3599,227.1396,42.1499,229.3398z"
		/>
	<path fill="#FF4D3D" d="M297.2803,445.3896c-2.1504,0.5098-3.4707,2.6699-2.9609,4.8203c0.4502,1.8398,2.0801,3.0703,3.8906,3.0703
		c0.3096,0,0.6299-0.04,0.9395-0.1104v-0.0098c2.1504-0.5107,3.4707-2.6699,2.9502-4.8203
		C301.5898,446.1895,299.4297,444.8701,297.2803,445.3896z"/>
	<path fill="#FF4D3D" d="M340.1201,65.77c0.9297-2,0.0596-4.3804-1.9404-5.3101c-2-0.9302-4.3799-0.0703-5.3203,1.9399
		c-0.9297,2-0.0596,4.3799,1.9404,5.3101c0.5498,0.2598,1.1201,0.3799,1.6797,0.3799
		C337.9902,68.0898,339.4395,67.23,340.1201,65.77z"/>
	<path fill="#FF4D3D" d="M70.1499,339.5596c-0.9902-1.9795-3.3901-2.7793-5.3701-1.7998c-1.9697,0.9902-2.7798,3.3896-1.79,5.3701
		c0.7002,1.4004,2.1099,2.21,3.5801,2.21c0.6001,0,1.21-0.1299,1.7798-0.4199C70.3296,343.9395,71.1299,341.5303,70.1499,339.5596z"
		/>
	<path fill="#FF4D3D" d="M292.9795,53.5298c1.8398,0,3.5-1.29,3.9102-3.1699c0.46-2.1602-0.9199-4.2803-3.0801-4.7402
		s-4.29,0.9204-4.75,3.0801c-0.46,2.1602,0.9199,4.2803,3.0801,4.7402C292.4199,53.5,292.7002,53.5298,292.9795,53.5298z"/>
	<path fill="#FF4D3D" d="M57.4897,324.2295c0.4502,0,0.9199-0.0801,1.3701-0.25c2.0698-0.75,3.1401-3.0498,2.3901-5.1299
		c-0.7603-2.0693-3.0601-3.1396-5.1304-2.3799c-2.0796,0.75-3.1499,3.0498-2.3896,5.1299
		C54.3198,323.2197,55.8599,324.2295,57.4897,324.2295z"/>
	<path fill="#FF4D3D" d="M318.8594,438.8896c-2.0791,0.75-3.1494,3.0498-2.3896,5.1299c0.5898,1.6201,2.1299,2.6299,3.7598,2.6299
		c0.4502,0,0.9199-0.0801,1.3701-0.2393c2.0703-0.7607,3.1406-3.0605,2.3906-5.1299
		C323.2295,439.2002,320.9395,438.1299,318.8594,438.8896z"/>
	<path fill="#FF4D3D" d="M318.9395,56.8398c0.6904-2.0898-0.4297-4.3599-2.5293-5.0601c-2.0908-0.7002-4.3604,0.4302-5.0605,2.5303
		c-0.7002,2.0898,0.4307,4.3599,2.5205,5.0596c0.4199,0.1401,0.8496,0.21,1.2695,0.21
		C316.8193,59.5796,318.3799,58.52,318.9395,56.8398z"/>
	<path fill="#FF4D3D" d="M81.3198,359.1299c-1.2002-1.8604-3.6802-2.3799-5.5298-1.1797c-1.8501,1.1992-2.3804,3.6797-1.1802,5.5293
		c0.7598,1.1807,2.0498,1.8203,3.3599,1.8203c0.7402,0,1.5-0.2002,2.1699-0.6396C82,363.46,82.52,360.9795,81.3198,359.1299z"/>
</g>
</svg>
