<?xml version="1.0" encoding="utf-8"?>
<!-- Generator: Adobe Illustrator 19.1.0, SVG Export Plug-In . SVG Version: 6.00 Build 0)  -->
<!DOCTYPE svg PUBLIC "-//W3C//DTD SVG 1.1//EN" "http://www.w3.org/Graphics/SVG/1.1/DTD/svg11.dtd">
<svg version="1.1" id="Layer_1" xmlns="http://www.w3.org/2000/svg" xmlns:xlink="http://www.w3.org/1999/xlink" x="0px" y="0px"
	 viewBox="0 0 500 492.4" enable-background="new 0 0 500 492.4" xml:space="preserve">
<g id="Change1">
	<polygon fill="#7D8693" points="164,489.9 32.4,379.4 2.5,210.1 88.5,61.3 250,2.5 411.5,61.3 497.5,210.1 467.6,379.4 336,489.9 	
		"/>
</g>
<g id="Change2">
	<path fill="#FFFFFF" d="M250,16l152.9,55.7l81.4,140.9L456,372.8L331.4,477.4H168.6L44,372.8L15.7,212.5L97.1,71.6L250,16 M250,0
		L86.8,59.4L0,209.8l30.2,171l133,111.6h173.6l133-111.6l30.2-171L413.2,59.4L250,0L250,0z"/>
</g>
</svg>
