<?xml version="1.0" encoding="utf-8"?>
<!-- Generator: Adobe Illustrator 18.1.1, SVG Export Plug-In . SVG Version: 6.00 Build 0)  -->
<!DOCTYPE svg PUBLIC "-//W3C//DTD SVG 1.1//EN" "http://www.w3.org/Graphics/SVG/1.1/DTD/svg11.dtd">
<svg version="1.1" id="Layer_1" xmlns="http://www.w3.org/2000/svg" xmlns:xlink="http://www.w3.org/1999/xlink" x="0px" y="0px"
	 viewBox="0 0 501.1 477" enable-background="new 0 0 501.1 477" xml:space="preserve">
<g id="change1_8_">
	<polygon fill="#FFFFFF" points="251.2,1.5 328.4,158 501.1,183.1 376.1,305 405.7,477 251.2,395.8 96.6,477 126.1,305 1.2,183.1 
		173.9,158 	"/>
</g>
<g id="change1_3_">
	<polygon fill="#FFFFFF" points="250,0 327.3,156.5 500,181.6 375,303.5 404.5,475.5 250,394.3 95.5,475.5 125,303.5 0,181.6 
		172.7,156.5 	"/>
</g>
<g id="change1_2_">
	<polygon fill="#FFFFFF" points="250,0 327.3,156.5 500,181.6 375,303.5 404.5,475.5 250,394.3 95.5,475.5 125,303.5 0,181.6 
		172.7,156.5 	"/>
</g>
<g id="change1_1_">
	<polygon fill="#FFFFFF" points="250,0 327.3,156.5 500,181.6 375,303.5 404.5,475.5 250,394.3 95.5,475.5 125,303.5 0,181.6 
		172.7,156.5 	"/>
</g>
</svg>
