<?xml version="1.0" encoding="utf-8"?><!DOCTYPE svg PUBLIC "-//W3C//DTD SVG 1.1//EN" "http://www.w3.org/Graphics/SVG/1.1/DTD/svg11.dtd">
<svg version="1.1" id="Layer_1" xmlns="http://www.w3.org/2000/svg" xmlns:xlink="http://www.w3.org/1999/xlink" x="0px" y="0px" viewBox="31.8 0 436.4 500" enable-background="new 31.8 0 436.4 500" xml:space="preserve">
<g id="change1_1"><polygon fill="#7D8693" points="387.2,250 457.5,128.2 316.9,128.2 250,12.3 183.1,128.2 42.5,128.2 112.8,250 42.5,371.8 
	183.1,371.8 250,487.7 316.9,371.8 457.5,371.8 "></polygon></g>
<g id="change2_1"><path fill="#FFFFFF" d="M250,500l-70.5-122H31.8l73.9-128L31.8,122h147.7L250,0l70.5,122h147.7l-73.9,128l73.9,128H320.5L250,500z
	 M53.2,365.6h133.5L250,475.3l63.3-109.7h133.5L380.1,250l66.7-115.6H313.3L250,24.7l-63.3,109.7H53.2L119.9,250L53.2,365.6z"></path></g>
</svg>