<?xml version="1.0" encoding="utf-8"?><!DOCTYPE svg PUBLIC "-//W3C//DTD SVG 1.1//EN" "http://www.w3.org/Graphics/SVG/1.1/DTD/svg11.dtd">
<svg version="1.1" id="Layer_1" xmlns="http://www.w3.org/2000/svg" xmlns:xlink="http://www.w3.org/1999/xlink" x="0px" y="0px" viewBox="33.1 0 434 500" enable-background="new 33.1 0 434 500" xml:space="preserve">
<g id="change1_1"><polygon fill="#7D8693" points="309.2,148.5 453.8,133.3 367.5,250.4 453,368.2 308.3,351.9 249.2,484.9 190.9,351.5 46.2,366.7 
	132.6,249.6 47.1,131.8 191.7,148.1 250.9,15.1 "></polygon></g>
<g id="change2_1"><path fill="#FFFFFF" d="M249.1,500l-62-142l-154,16.2l92-124.7l-91-125.3l153.9,17.3L250.9,0l62,142L467,125.8l-92,124.7l91,125.3
	l-153.9-17.3L249.1,500z M194.8,345l54.5,124.8l55.4-124.4L440,360.6L360,250.4l80.9-109.6L305.3,155L250.9,30.2l-55.4,124.4
	L60.1,139.4l80.1,110.2L59.3,359.2L194.8,345z"></path></g>
</svg>