<?xml version="1.0" encoding="utf-8"?><!DOCTYPE svg PUBLIC "-//W3C//DTD SVG 1.1//EN" "http://www.w3.org/Graphics/SVG/1.1/DTD/svg11.dtd">
<svg version="1.1" id="Layer_1" xmlns="http://www.w3.org/2000/svg" xmlns:xlink="http://www.w3.org/1999/xlink" x="0px" y="0px" viewBox="0 0 500 500" enable-background="new 0 0 500 500" xml:space="preserve">
<g id="change1_1"><polygon fill="#7D8693" points="419.8,320.3 490.1,250 419.8,179.7 419.8,80.2 320.3,80.2 250,9.9 179.7,80.2 80.2,80.2 80.2,179.7 
	9.9,250 80.2,320.3 80.2,419.8 179.7,419.8 250,490.1 320.3,419.8 419.8,419.8 "></polygon></g>
<g id="change2_1"><path fill="#FFFFFF" d="M250,500l-73.2-73.2H73.2V323.2L0,250l73.2-73.2V73.2h103.6L250,0l73.2,73.2h103.6v103.6L500,250l-73.2,73.2
	v103.6H323.2L250,500z M87.2,412.8h95.4l67.4,67.4l67.4-67.4h95.4v-95.4l67.4-67.4l-67.4-67.4V87.2h-95.4L250,19.7l-67.4,67.4H87.2
	v95.4L19.7,250l67.4,67.4L87.2,412.8L87.2,412.8z"></path></g>
</svg>