<?xml version="1.0" encoding="utf-8"?>
<!-- Generator: Adobe Illustrator 18.1.1, SVG Export Plug-In . SVG Version: 6.00 Build 0)  -->
<!DOCTYPE svg PUBLIC "-//W3C//DTD SVG 1.1//EN" "http://www.w3.org/Graphics/SVG/1.1/DTD/svg11.dtd">
<svg version="1.1" id="Layer_1" xmlns="http://www.w3.org/2000/svg" xmlns:xlink="http://www.w3.org/1999/xlink" x="0px" y="0px"
	 viewBox="0 0 500 501" enable-background="new 0 0 500 501" xml:space="preserve">
<g id="Layer_X_1_">
	<g id="change1_25_">
		<path fill="#FFFFFF" d="M146.4,501l-7.9-139.5L0,353.5L92.4,250L0,146.4l138.5-7.9L146.4,0L250,92.4L353.5,0l8,138.5l138.5,7.9
			L407.7,250L500,353.5l-138.5,7.9L353.6,499l-113.5-90.2L146.4,501z M239.1,390.1l102,81.1l7.1-123l122.1-7L388.9,250l81.4-91.2
			l-122-7l-7-122L250,111.1l-91.2-81.4l-7,122l-122,7l81.4,91.2l-81.4,91.2l122,7l6.9,121.1L239.1,390.1z"/>
	</g>
</g>
</svg>
