<?xml version="1.0" encoding="utf-8"?>
<!-- Generator: Adobe Illustrator 20.1.0, SVG Export Plug-In . SVG Version: 6.00 Build 0)  -->
<svg version="1.1" id="Outline-Dotshapeline-D5" xmlns="http://www.w3.org/2000/svg" xmlns:xlink="http://www.w3.org/1999/xlink"
	 x="0px" y="0px" viewBox="0 0 500 500" enable-background="new 0 0 500 500" xml:space="preserve">
<g id="change1">
	<path fill="#24B400" d="M250,64.1C147.5,64.1,64.1,147.5,64.1,250S147.5,435.9,250,435.9S435.9,352.5,435.9,250
		S352.5,64.1,250,64.1z"/>
</g>
<g id="change2">
	<path fill="#24B400" d="M250,0C111.9,0,0,111.9,0,250s111.9,250,250,250s250-111.9,250-250S388.1,0,250,0z M479,232.5v0.2
		c0.1,1.7-1.2,3.1-2.9,3.2c-0.1,0-0.1,0-0.2,0c-1.6,0-3-1.3-3.1-2.9c-0.1-1.7,1.1-3.2,2.8-3.3C477.4,229.6,478.9,230.8,479,232.5z
		 M477.1,215.7v0.1c0.2,1.7-0.9,3.2-2.6,3.5c-0.1,0-0.3,0-0.4,0c-1.5,0-2.8-1.1-3-2.6v-0.1c-0.2-1.7,0.9-3.2,2.6-3.5
		C475.4,212.8,476.9,214,477.1,215.7z M474,199v0.2c0.3,1.7-0.7,3.3-2.4,3.6c-0.2,0-0.4,0.1-0.6,0.1c-1.4,0-2.7-1-3-2.4
		c-0.4-1.6,0.6-3.3,2.3-3.7C472,196.3,473.6,197.3,474,199z M469.7,182.6c0.5,1.6-0.4,3.3-2,3.8c-0.3,0.1-0.6,0.1-1,0.1
		c-1.3,0-2.5-0.8-2.9-2.1l-0.1-0.2c-0.5-1.6,0.4-3.3,2.1-3.8C467.5,180.1,469.2,181,469.7,182.6 M467.2,250L467.2,250
		c0,1.8-1.4,3.2-3.1,3.2s-3.1-1.4-3.1-3.1c0-0.1,0-0.2,0-0.2c0-0.1,0-0.2,0-0.3c0-1.7,1.4-3.1,3.1-3.1s3.1,1.3,3.1,3v0.1
		c0,0.1,0,0.1,0,0.2C467.2,249.9,467.2,249.9,467.2,250z M464.8,282c-0.2,1.5-1.5,2.7-3,2.7c-0.1,0-0.3,0-0.4,0
		c-1.7-0.2-2.8-1.7-2.6-3.4c0,0,0-0.1,0-0.2c0.2-1.7,1.8-2.8,3.5-2.6C463.9,278.8,465.1,280.3,464.8,282 M466.6,233.5
		c0.1,1.7-1.1,3.2-2.8,3.3c-0.1,0-0.2,0-0.3,0c-1.6,0-2.9-1.2-3-2.8v-0.2c-0.1-1.7,1.2-3.1,2.9-3.2
		C465,230.6,466.5,231.8,466.6,233.5 M462.2,221.1c-0.2,0-0.3,0-0.5,0c-1.5,0-2.8-1.1-3-2.6c-0.3-1.7,0.9-3.3,2.6-3.5
		c1.7-0.3,3.2,0.8,3.5,2.5v0.1C465,219.3,463.9,220.8,462.2,221.1z M463.5,269c-0.1,0-0.2,0-0.3,0c-1.7-0.2-2.9-1.7-2.8-3.3
		c0.1-1.7,1.6-3,3.3-2.8c1.7,0.1,2.9,1.5,2.8,3.2v0.2C466.4,267.8,465.1,269,463.5,269z M460.1,164.8c1.6-0.6,3.3,0.1,4,1.7l0.1,0.2
		c0.6,1.6-0.2,3.3-1.8,3.9c-0.4,0.1-0.7,0.2-1.1,0.2c-1.2,0-2.4-0.8-2.9-2C457.8,167.3,458.5,165.5,460.1,164.8z M461.8,201.8
		c0.4,1.6-0.6,3.3-2.3,3.7c-0.2,0.1-0.5,0.1-0.7,0.1c-1.4,0-2.6-0.9-3-2.3v-0.2c-0.4-1.7,0.7-3.3,2.3-3.6
		C459.8,199.1,461.4,200.1,461.8,201.8 M455.6,190.2c-0.3,0.1-0.6,0.1-0.8,0.1c-1.3,0-2.6-0.9-2.9-2.2c-0.5-1.6,0.4-3.3,2-3.8
		s3.3,0.4,3.8,2c0,0,0,0.2,0.1,0.2C458.2,188,457.2,189.7,455.6,190.2z M446.8,326.3c0.6-1.6,2.4-2.4,4-1.8s2.4,2.3,1.8,3.9
		c0,0,0,0.1-0.1,0.1c-0.5,1.2-1.6,1.9-2.8,1.9c-0.4,0-0.8-0.1-1.1-0.2C447,329.7,446.2,327.9,446.8,326.3z M448.4,169.4
		c1.6-0.6,3.3,0.1,3.9,1.7v0.1c0.6,1.6-0.2,3.3-1.8,4c-0.4,0.1-0.7,0.2-1.1,0.2c-1.2,0-2.4-0.7-2.9-2
		C446.1,171.8,446.9,170,448.4,169.4z M453.2,149.5c1.5-0.7,3.4-0.1,4.1,1.4v0.1c0.7,1.5,0.1,3.4-1.4,4.1c-0.4,0.2-0.9,0.3-1.3,0.3
		c-1.1,0-2.2-0.6-2.8-1.7l-0.1-0.1C451.1,152.1,451.7,150.3,453.2,149.5z M445.3,134.8c1.5-0.8,3.3-0.3,4.2,1.2l0,0
		c0.9,1.5,0.4,3.3-1.1,4.2c-0.5,0.3-1,0.4-1.6,0.4c-1,0-2.1-0.5-2.6-1.5l-0.1-0.1C443.3,137.5,443.8,135.7,445.3,134.8z M446,156.4
		L446,156.4c0.8,1.6,0.1,3.4-1.4,4.2c-0.4,0.2-0.9,0.3-1.3,0.3c-1.1,0-2.2-0.6-2.8-1.7c-0.7-1.5-0.1-3.4,1.4-4.1
		C443.5,154.3,445.3,154.9,446,156.4z M440.5,121.6c0.9,1.4,0.6,3.3-0.8,4.2c-0.5,0.4-1.1,0.5-1.7,0.5c-1,0-1.9-0.4-2.5-1.3
		l-0.1-0.2c-0.9-1.4-0.5-3.3,0.9-4.2C437.7,119.8,439.6,120.2,440.5,121.6 M438.6,142.2c0.8,1.5,0.4,3.3-1.1,4.2
		c-0.5,0.3-1,0.4-1.6,0.4c-1,0-2-0.5-2.6-1.5c0,0-0.1-0.1-0.1-0.2c-0.8-1.5-0.3-3.3,1.2-4.2C435.9,140.2,437.8,140.7,438.6,142.2
		 M426.2,107.4c1.3-1.1,3.2-0.9,4.3,0.5l0.1,0.1c1,1.3,0.8,3.3-0.5,4.3c-0.6,0.4-1.2,0.6-1.9,0.6c-0.9,0-1.8-0.4-2.4-1.2
		C424.7,110.4,424.8,108.5,426.2,107.4z M430.1,128.6c1,1.4,0.6,3.3-0.8,4.3c-0.5,0.4-1.1,0.5-1.7,0.5c-1,0-1.9-0.5-2.5-1.3L425,132
		c-0.9-1.4-0.6-3.3,0.8-4.2C427.3,126.8,429.2,127.2,430.1,128.6 M420.7,115.7c1,1.3,0.8,3.2-0.5,4.3c-0.6,0.5-1.3,0.7-1.9,0.7
		c-0.9,0-1.7-0.4-2.3-1.1c0,0-0.1-0.1-0.1-0.2c-1-1.3-0.8-3.3,0.6-4.3C417.7,114.1,419.6,114.3,420.7,115.7 M415.2,94.7
		c1.3-1.1,3.2-1,4.3,0.2V95c1.1,1.2,1.1,3.2-0.2,4.3c-0.6,0.5-1.3,0.8-2.1,0.8c-0.8,0-1.6-0.3-2.3-1l-0.1-0.1
		C413.8,97.8,413.9,95.9,415.2,94.7z M410.3,103.4c1.2,1.2,1.1,3.2-0.1,4.3c-0.6,0.6-1.3,0.8-2.1,0.8c-0.8,0-1.6-0.3-2.2-1l-0.1-0.1
		c-1.1-1.2-1.1-3.2,0.2-4.3C407.2,102.1,409.1,102.1,410.3,103.4 M407.6,82.9c1.2,1.2,1.3,3.1,0.2,4.3c-0.6,0.7-1.4,1-2.3,1
		c-0.7,0-1.4-0.3-2-0.8l-0.1-0.1c-1.2-1.2-1.3-3.1-0.1-4.3C404.4,81.7,406.4,81.7,407.6,82.9 M399,92L399,92
		c1.3,1.2,1.4,3.2,0.2,4.4c-0.6,0.6-1.4,1-2.2,1c-0.7,0-1.5-0.3-2.1-0.8c-1.2-1.2-1.3-3.1-0.2-4.4C395.8,90.9,397.7,90.8,399,92z
		 M390.5,72.1c1.1-1.3,3-1.5,4.3-0.4l0.1,0.1c1.3,1.1,1.5,3,0.4,4.3c-0.6,0.7-1.5,1.1-2.4,1.1c-0.7,0-1.4-0.2-1.9-0.7l-0.1-0.1
		C389.6,75.4,389.4,73.4,390.5,72.1z M386.9,81.4C386.9,81.4,387,81.5,386.9,81.4c1.4,1.1,1.6,3.1,0.5,4.4c-0.6,0.7-1.5,1.1-2.4,1.1
		c-0.7,0-1.4-0.2-1.9-0.7c-1.3-1.1-1.5-3-0.5-4.3C383.7,80.6,385.6,80.3,386.9,81.4z M377,62.2c1-1.4,2.8-1.8,4.2-0.8l0.1,0.1
		c1.4,1,1.7,2.9,0.7,4.3c-0.6,0.8-1.5,1.3-2.5,1.3c-0.6,0-1.2-0.2-1.8-0.6C376.4,65.6,376,63.6,377,62.2z M374.1,71.8
		c1.4,1,1.8,2.9,0.8,4.3c-0.6,0.9-1.6,1.3-2.5,1.3c-0.6,0-1.2-0.2-1.7-0.5l-0.1-0.1c-1.4-1-1.7-2.9-0.7-4.3
		C370.8,71.1,372.7,70.8,374.1,71.8 M362.8,53.3c0.9-1.4,2.8-1.9,4.2-1h0.1c1.5,0.9,2,2.7,1.1,4.2c-0.6,1-1.6,1.5-2.7,1.5
		c-0.5,0-1.1-0.1-1.5-0.4l-0.1-0.1C362.4,56.6,361.9,54.8,362.8,53.3z M360.6,63.1c1.4,0.9,1.9,2.7,1.1,4.2c-0.6,1-1.6,1.5-2.6,1.5
		c-0.5,0-1-0.1-1.5-0.4c0,0-0.1-0.1-0.2-0.1c-1.4-0.9-1.9-2.8-1-4.2C357.3,62.6,359.2,62.2,360.6,63.1 M347.9,45.5
		c0.8-1.5,2.6-2.1,4.1-1.4h0.1c1.5,0.7,2.2,2.6,1.4,4.1c-0.5,1.1-1.6,1.7-2.8,1.7c-0.4,0-0.9-0.1-1.3-0.3l-0.1-0.1
		C347.8,48.9,347.2,47,347.9,45.5z M342.4,56.8c0.7-1.5,2.5-2.1,4-1.4c0,0,0.1,0.1,0.2,0.1c1.5,0.8,2.1,2.6,1.3,4.1
		c-0.5,1.1-1.6,1.7-2.7,1.7c-0.5,0-1-0.1-1.4-0.3C342.3,60.1,341.7,58.3,342.4,56.8z M332.6,38.9c0.6-1.6,2.4-2.3,3.9-1.7h0.1
		c1.6,0.6,2.3,2.4,1.7,4c-0.5,1.2-1.6,1.9-2.8,1.9c-0.4,0-0.8-0.1-1.2-0.2C332.8,42.2,332,40.4,332.6,38.9z M327.9,50.5
		c0.6-1.6,2.4-2.3,3.9-1.7c0,0,0.1,0,0.1,0.1c1.6,0.7,2.3,2.4,1.6,4c-0.5,1.2-1.6,1.9-2.8,1.9c-0.4,0-0.8-0.1-1.2-0.2
		C328,53.8,327.3,52,327.9,50.5z M316.8,33.3c0.5-1.6,2.2-2.5,3.8-2h0.1c1.6,0.5,2.5,2.2,2,3.9c-0.4,1.3-1.6,2.1-2.9,2.1
		c-0.3,0-0.6,0-0.9-0.1C317.2,36.7,316.3,35,316.8,33.3z M312.9,45.3c0.5-1.6,2.2-2.5,3.8-2h0.1c1.6,0.5,2.5,2.3,2,3.9
		c-0.4,1.3-1.6,2.1-2.9,2.1c-0.3,0-0.6,0-1-0.2C313.3,48.6,312.4,46.9,312.9,45.3z M300.6,29c0.4-1.6,2-2.7,3.7-2.3h0.2
		c1.6,0.4,2.6,2.1,2.2,3.7c-0.4,1.4-1.6,2.3-3,2.3c-0.3,0-0.5,0-0.8-0.1C301.2,32.3,300.2,30.7,300.6,29z M297.6,41.2
		c0.4-1.6,2-2.7,3.6-2.3h0.1c1.6,0.4,2.6,2.1,2.2,3.7c-0.4,1.4-1.6,2.3-3,2.3c-0.2,0-0.5,0-0.7-0.1
		C298.3,44.5,297.2,42.8,297.6,41.2z M284.1,25.9c0.3-1.7,1.8-2.8,3.5-2.5h0.1c1.7,0.3,2.8,1.9,2.5,3.5c-0.3,1.5-1.5,2.5-3,2.5
		c-0.2,0-0.3,0-0.5,0C285,29.1,283.9,27.6,284.1,25.9z M285.6,35.7c1.7,0.3,2.8,1.8,2.6,3.5c-0.2,1.5-1.5,2.6-3,2.6
		c-0.2,0-0.3,0-0.5,0c0,0-0.1,0-0.2,0c-1.7-0.3-2.8-1.9-2.5-3.5C282.3,36.6,283.9,35.4,285.6,35.7 M270.8,21.2h0.2
		c1.7,0.2,2.9,1.7,2.7,3.4c-0.2,1.6-1.5,2.7-3,2.7c-0.1,0-0.2,0-0.3,0c-1.7-0.1-3-1.6-2.8-3.3C267.6,22.3,269.1,21.1,270.8,21.2z
		 M269.7,33.7h0.1c1.7,0.2,2.9,1.7,2.8,3.3s-1.5,2.8-3,2.8c-0.1,0-0.2,0-0.3,0c-1.7-0.2-3-1.7-2.8-3.3
		C266.5,34.8,268,33.5,269.7,33.7z M253.8,20.3h0.1c1.7,0,3,1.9,3,3.6s-1.4,3.5-3.1,3.5l0,0h-0.1c-1.7,0-3-1.9-3-3.6
		C250.7,22.1,252.1,20.3,253.8,20.3z M253.6,33.4L253.6,33.4l0.1-0.3c1.7,0,3,1.5,3,3.2s-1.4,3.1-3.1,3.1l0,0c-1.7,0-3.1-1.4-3.1-3
		C250.6,34.7,251.9,33.4,253.6,33.4z M236.9,20.7h0.1c1.7-0.1,3.1,1.2,3.2,2.9c0.1,1.7-1.2,3.1-2.9,3.2h-0.1c-0.1,0-0.1,0-0.2,0
		c-1.6,0-3-1.3-3.1-2.9C233.9,22.2,235.2,20.8,236.9,20.7z M240.9,36.1c0.1,1.7-1.2,3.1-2.9,3.2h-0.1c-1.6,0-3-1.3-3.1-2.9
		c-0.1-1.7,1.1-3.1,2.8-3.2h0.1C239.4,33.1,240.8,34.4,240.9,36.1z M225.1,37.3c0.2,1.7-0.9,3.2-2.6,3.4c-0.1,0-0.3,0-0.4,0
		c-1.5,0-2.9-1.1-3.1-2.6c-0.2-1.7,0.9-3.2,2.6-3.4h0.1C223.3,34.4,224.9,35.6,225.1,37.3z M220,22.2h0.1c1.7-0.2,3.2,1,3.4,2.6
		c0.2,1.7-1,3.2-2.6,3.4h-0.1c-0.1,0-0.3,0-0.4,0c-1.5,0-2.8-1.1-3-2.7C217.1,24,218.3,22.5,220,22.2z M205.9,37.3
		c1.7-0.4,3.3,0.7,3.6,2.3c0.4,1.7-0.7,3.3-2.3,3.6h-0.1c-0.2,0-0.4,0.1-0.6,0.1c-1.4,0-2.7-1-3-2.5
		C203.1,39.3,204.1,37.7,205.9,37.3 M203.2,25.1h0.1c1.7-0.3,3.3,0.7,3.6,2.4c0.3,1.7-0.7,3.3-2.4,3.6h-0.1c-0.2,0-0.4,0.1-0.6,0.1
		c-1.4,0-2.7-1-3-2.4C200.5,27,201.6,25.4,203.2,25.1z M194.1,43.2c0.5,1.6-0.5,3.3-2.1,3.8c-0.3,0.1-0.6,0.1-0.8,0.1
		c-1.3,0-2.6-0.9-3-2.2c-0.5-1.6,0.4-3.3,2.1-3.8h0.1C192,40.7,193.6,41.6,194.1,43.2z M186.8,29.1h0.1c1.6-0.5,3.3,0.5,3.8,2.1
		c0.5,1.6-0.5,3.3-2.1,3.8h-0.1c-0.3,0.1-0.6,0.1-0.8,0.1c-1.3,0-2.6-0.9-2.9-2.2C184.2,31.3,185.1,29.6,186.8,29.1z M175.1,46.1
		c1.6-0.6,3.3,0.3,3.9,1.8c0.6,1.6-0.3,3.3-1.8,3.9c-0.3,0.1-0.7,0.2-1.1,0.2c-1.3,0-2.5-0.8-2.9-2c-0.6-1.6,0.2-3.3,1.8-3.9H175.1z
		 M170.6,34.4h0.1c1.6-0.6,3.3,0.2,3.9,1.8c0.6,1.6-0.2,3.3-1.8,3.9c-0.4,0.1-0.7,0.2-1.1,0.2c-1.3,0-2.4-0.8-2.9-2
		C168.3,36.7,169,35,170.6,34.4z M160.2,52.2c1.5-0.7,3.4,0,4.1,1.5c0.7,1.5,0,3.4-1.5,4.1h-0.1c-0.4,0.2-0.8,0.3-1.3,0.3
		c-1.2,0-2.3-0.7-2.8-1.8C157.9,54.7,158.6,52.9,160.2,52.2 M154.9,40.8l0.1-0.1c1.5-0.7,3.4,0,4,1.6c0.7,1.5,0,3.4-1.6,4
		c-0.4,0.2-0.9,0.3-1.3,0.3c-1.2,0-2.3-0.7-2.8-1.8C152.8,43.3,153.4,41.5,154.9,40.8z M145.9,59.4c1.5-0.8,3.3-0.3,4.2,1.2
		c0.8,1.5,0.3,3.3-1.2,4.2l-0.1,0.1c-0.5,0.3-1,0.4-1.5,0.4c-1.1,0-2.1-0.6-2.7-1.6C143.8,62.1,144.3,60.2,145.9,59.4 M139.8,48.4
		L139.8,48.4c1.5-0.9,3.4-0.3,4.2,1.2s0.3,3.3-1.2,4.2l-0.1,0.1c-0.5,0.3-1,0.4-1.5,0.4c-1.1,0-2.1-0.6-2.7-1.6
		C137.8,51.1,138.3,49.2,139.8,48.4z M132,67.6l0.1-0.1c1.4-0.9,3.3-0.5,4.2,0.9s0.5,3.3-0.9,4.2c-0.5,0.3-1.1,0.5-1.7,0.5
		c-1,0-2-0.5-2.6-1.4C130.2,70.4,130.6,68.6,132,67.6z M125.2,57.1l0.1-0.1c1.4-0.9,3.3-0.5,4.2,1c0.9,1.4,0.5,3.3-1,4.2
		c-0.5,0.3-1.1,0.5-1.7,0.5c-1,0-2-0.5-2.6-1.4C123.4,59.9,123.8,58,125.2,57.1z M118.9,76.9l0.1-0.1c1.4-1,3.3-0.7,4.3,0.7
		c1,1.4,0.7,3.3-0.7,4.3c-0.6,0.4-1.2,0.6-1.9,0.6c-0.9,0-1.8-0.4-2.4-1.2C117.3,79.8,117.5,77.9,118.9,76.9z M111.3,66.9l0.1-0.1
		c1.4-1,3.3-0.7,4.3,0.6c1,1.4,0.7,3.3-0.6,4.3c-0.6,0.4-1.2,0.6-1.9,0.6c-0.9,0-1.8-0.4-2.4-1.2C109.8,69.8,110,67.9,111.3,66.9z
		 M106.6,86.9c1.3-1.1,3.2-1,4.3,0.3c1.1,1.3,1,3.2-0.3,4.3l-0.1,0.1c-0.6,0.5-1.3,0.8-2,0.8c-0.9,0-1.7-0.4-2.3-1
		C105.1,90,105.2,88.1,106.6,86.9 M98.2,77.6l0.1-0.1c1.3-1.1,3.2-1,4.3,0.3c1.1,1.3,1,3.2-0.3,4.3c-0.6,0.5-1.3,0.8-2.1,0.8
		c-0.8,0-1.7-0.3-2.3-1C96.8,80.6,96.9,78.7,98.2,77.6z M94.8,98L94.8,98c1.3-1.3,3.2-1.3,4.4-0.1c1.2,1.2,1.2,3.1,0,4.3
		c-0.6,0.6-1.4,0.9-2.2,0.9c-0.8,0-1.5-0.3-2.1-0.9C93.7,101.2,93.7,99.3,94.8,98z M85.9,89.3L85.9,89.3c1.3-1.3,3.2-1.3,4.4-0.1
		c1.2,1.2,1.2,3.1,0,4.3l-0.1,0.1c-0.6,0.6-1.4,0.9-2.2,0.9c-0.8,0-1.5-0.3-2.1-0.9C84.7,92.4,84.7,90.5,85.9,89.3z M84,109.9
		C84,109.9,84.1,109.8,84,109.9c1.2-1.4,3.1-1.5,4.4-0.4s1.5,3,0.4,4.3c-0.6,0.7-1.5,1.1-2.4,1.1c-0.7,0-1.4-0.2-1.9-0.7
		C83.1,113.1,82.9,111.2,84,109.9z M74.5,101.8L74.5,101.8c1.1-1.4,3.1-1.5,4.4-0.4s1.5,3,0.4,4.3l-0.1,0.1
		c-0.6,0.7-1.5,1.1-2.3,1.1c-0.7,0-1.4-0.2-2-0.7C73.5,105,73.4,103.1,74.5,101.8z M74.2,122.5c1-1.4,2.9-1.7,4.3-0.7
		s1.7,2.9,0.7,4.2l-0.1,0.1c-0.6,0.8-1.5,1.2-2.5,1.2c-0.6,0-1.3-0.2-1.8-0.6C73.4,125.8,73.1,123.9,74.2,122.5 M65.2,135.8
		c0.9-1.4,2.8-1.9,4.2-1c1.4,0.9,1.9,2.8,1,4.2l-0.1,0.1c-0.6,0.9-1.6,1.4-2.6,1.4c-0.6,0-1.1-0.1-1.6-0.5
		C64.7,139.2,64.3,137.3,65.2,135.8 M64,115.2L64,115.2c1-1.4,2.9-1.7,4.3-0.8c1.4,1,1.7,2.9,0.7,4.3l-0.1,0.1
		c-0.6,0.8-1.5,1.3-2.5,1.3c-0.6,0-1.3-0.2-1.8-0.6C63.3,118.5,63,116.6,64,115.2z M61.4,148.5c1.5,0.8,2.1,2.6,1.3,4.1
		c-0.6,1.1-1.6,1.7-2.8,1.7c-0.5,0-0.9-0.1-1.4-0.3c-1.5-0.8-2.1-2.6-1.3-4.1l0.1-0.1C58.1,148.2,59.9,147.7,61.4,148.5z
		 M54.6,129.2c0.9-1.4,2.8-1.9,4.2-1c1.4,0.9,1.9,2.7,1,4.2l-0.1,0.1c-0.6,0.9-1.6,1.4-2.6,1.4c-0.6,0-1.1-0.2-1.6-0.5
		C54.1,132.6,53.6,130.7,54.6,129.2 M54.4,162.7c1.6,0.7,2.3,2.5,1.6,4c-0.5,1.2-1.7,1.9-2.9,1.9c-0.4,0-0.8-0.1-1.2-0.2
		c-1.6-0.7-2.3-2.4-1.6-4v-0.1C51.1,162.7,52.9,162,54.4,162.7z M46.1,144.1l0.1-0.1c0.8-1.5,2.6-2.1,4.1-1.3s2.1,2.6,1.3,4.1
		c-0.5,1.1-1.6,1.7-2.8,1.7c-0.5,0-0.9-0.1-1.4-0.3C46,147.4,45.3,145.6,46.1,144.1z M48.5,177.3c1.6,0.6,2.4,2.3,1.9,3.9
		c-0.4,1.3-1.7,2.1-2.9,2.1c-0.3,0-0.6-0.1-1-0.2c-1.6-0.5-2.5-2.2-1.9-3.8v-0.1C45.2,177.6,46.9,176.8,48.5,177.3z M40,305.7
		c-0.4-1.6,0.5-3.3,2.1-3.8c1.6-0.4,3.3,0.5,3.8,2.1v0.1c0.4,1.6-0.5,3.3-2.2,3.7c-0.3,0.1-0.5,0.1-0.8,0.1
		C41.7,308.1,40.4,307.2,40,305.7 M34.2,274.2c-0.2-1.7,1-3.2,2.7-3.4c1.7-0.2,3.2,1,3.4,2.7v0.1c0.2,1.7-1,3.2-2.7,3.4
		c-0.1,0-0.2,0-0.3,0C35.7,277,34.3,275.8,34.2,274.2 M33,258.2c-0.1-1.7,1.2-3.1,2.9-3.2c1.7-0.1,3.1,1.2,3.2,2.9v0.2
		c0.1,1.7-1.3,3.3-3,3.3H36c-1.6,0-3-1.4-3.1-3.1 M34.1,226.1c0.2-1.7,1.7-2.9,3.4-2.7s2.9,1.7,2.7,3.4v0.1c-0.2,1.6-1.5,2.7-3,2.7
		c-0.1,0-0.2,0-0.3,0C35.1,229.4,33.9,227.9,34.1,226.1 M39.9,194.6c0.4-1.6,2.1-2.6,3.7-2.2c1.6,0.4,2.6,2.1,2.2,3.7v0.1
		c-0.4,1.4-1.6,2.3-3,2.3c-0.3,0-0.5,0-0.8-0.1C40.5,198,39.5,196.3,39.9,194.6 M40,207.8c1.7,0.3,2.8,1.9,2.4,3.6
		c-0.3,1.5-1.6,2.5-3,2.5c-0.2,0-0.4,0-0.5-0.1c-1.7-0.3-2.8-1.9-2.5-3.5v-0.1C36.8,208.6,38.4,207.5,40,207.8z M36.2,239.2
		c1.7,0.1,3,1.5,2.9,3.2c-0.1,1.6-1.4,3-3.1,3h-0.1c-1.7-0.1-3-1.4-2.9-3.1v-0.1C33,240.4,34.5,239.1,36.2,239.2z M39,286.5
		c1.7-0.3,3.3,0.8,3.6,2.5s-0.8,3.3-2.4,3.6c-0.2,0-0.4,0.1-0.6,0.1c-1.4,0-2.7-1-3-2.5v-0.1C36.2,288.4,37.3,286.8,39,286.5z
		 M38.9,159.3c0.7-1.6,2.4-2.3,4-1.6s2.3,2.4,1.7,4l-0.1,0.1c-0.5,1.1-1.6,1.8-2.8,1.8c-0.4,0-0.8-0.1-1.2-0.3
		C38.9,162.7,38.2,160.9,38.9,159.3 M32.7,175.2L32.7,175.2c0.6-1.7,2.3-2.5,3.9-2c1.6,0.5,2.5,2.3,1.9,3.9v0.1
		c-0.4,1.3-1.6,2.1-2.9,2.1c-0.3,0-0.7-0.1-1-0.2C33,178.6,32.2,176.8,32.7,175.2z M27.8,191.5L27.8,191.5c0.4-1.7,2.1-2.7,3.7-2.3
		c1.6,0.4,2.6,2.1,2.2,3.7v0.2c-0.4,1.4-1.6,2.3-3,2.3c-0.3,0-0.5,0-0.8-0.1C28.3,194.8,27.4,193.1,27.8,191.5z M24.1,208L24.1,208
		c0.3-1.7,1.9-2.8,3.6-2.5s2.8,1.9,2.5,3.5v0.2c-0.3,1.5-1.6,2.5-3,2.5c-0.2,0-0.4,0-0.6-0.1C24.9,211.3,23.8,209.7,24.1,208z
		 M21.7,224.8L21.7,224.8c0.2-1.7,1.7-3,3.4-2.8c1.7,0.2,2.9,1.7,2.7,3.4v0.2c-0.2,1.6-1.5,2.7-3,2.7c-0.1,0-0.2,0-0.4,0
		C22.7,228,21.5,226.5,21.7,224.8z M20.4,241.6c0.1-1.7,1.5-3,3.2-2.9s3,1.8,2.9,3.4c0,1.7-1.4,3.3-3.1,3.3h-0.1c-1.7,0-3-1.7-3-3.4
		L20.4,241.6z M20.5,258.8v-0.1c-0.1-1.7,1.3-3.1,3-3.1c1.7-0.1,3.1,1.3,3.1,3c0.1,1.7-1.2,3.1-2.9,3.2h-0.1
		C21.9,261.7,20.5,260.4,20.5,258.8z M21.7,275.7v-0.1c-0.2-1.7,1.1-3.2,2.7-3.4c1.7-0.2,3.2,1,3.4,2.7c0.2,1.7-1,3.2-2.7,3.4
		c-0.1,0-0.2,0-0.4,0C23.2,278.4,21.9,277.2,21.7,275.7z M27.2,294.9c-1.4,0-2.7-1-3-2.5v-0.2c-0.3-1.7,0.8-3.2,2.5-3.5
		s3.2,0.8,3.5,2.5s-0.8,3.3-2.4,3.6C27.6,294.9,27.4,294.9,27.2,294.9z M30.9,311.3c-1.4,0-2.6-0.9-3-2.3v-0.1
		c-0.4-1.6,0.5-3.3,2.1-3.8c1.6-0.4,3.3,0.5,3.8,2.1v0.1c0.4,1.6-0.5,3.3-2.2,3.7C31.4,311.3,31.2,311.3,30.9,311.3z M36.8,327.1
		c-0.3,0.1-0.7,0.2-1,0.2c-1.3,0-2.4-0.8-2.9-2v-0.1c-0.5-1.6,0.3-3.3,1.9-3.9c1.6-0.5,3.3,0.3,3.9,1.9
		C39.2,324.8,38.4,326.5,36.8,327.1z M39,341c-0.7-1.5,0-3.4,1.6-4c1.5-0.7,3.3,0,4,1.5l0.1,0.2c0.7,1.6-0.1,3.4-1.6,4
		c-0.4,0.2-0.8,0.2-1.2,0.2C40.7,342.9,39.5,342.2,39,341 M44.8,321.2v-0.1c-0.5-1.6,0.3-3.3,1.9-3.9c1.6-0.5,3.3,0.3,3.9,1.9
		c0.5,1.6-0.3,3.4-1.9,3.9c-0.3,0.1-0.7,0.2-1,0.2C46.3,323.2,45.2,322.4,44.8,321.2z M50.5,357.6c-0.4,0.2-0.9,0.3-1.4,0.3
		c-1.1,0-2.2-0.6-2.7-1.7v-0.1c-0.8-1.5-0.2-3.3,1.3-4.1c1.5-0.8,3.3-0.2,4.1,1.3l0.1,0.1C52.6,355,52,356.9,50.5,357.6z
		 M50.6,336.1L50.6,336.1c-0.7-1.6,0-3.4,1.6-4.1s3.4,0,4,1.6c0.7,1.6,0,3.4-1.6,4.1c-0.4,0.2-0.8,0.3-1.2,0.3
		C52.1,337.9,51,337.2,50.6,336.1z M59,372c-0.5,0.3-1.1,0.5-1.7,0.5c-1,0-2-0.5-2.6-1.4l-0.1-0.2c-0.9-1.5-0.4-3.3,1-4.2
		c1.4-0.9,3.3-0.4,4.2,1C60.8,369.2,60.4,371.1,59,372z M57.4,350.5c-0.8-1.5-0.2-3.3,1.3-4.1c1.5-0.8,3.3-0.2,4.1,1.3l0.1,0.1
		c0.8,1.5,0.2,3.3-1.3,4.1c-0.5,0.2-0.9,0.3-1.4,0.3C59.1,352.2,58,351.6,57.4,350.5 M68.5,385.8c-0.5,0.4-1.2,0.6-1.8,0.6
		c-0.9,0-1.9-0.4-2.5-1.3l-0.1-0.1c-1-1.4-0.7-3.3,0.7-4.3c1.4-1,3.3-0.7,4.3,0.7l0.1,0.1C70.2,382.9,69.9,384.8,68.5,385.8z
		 M69.6,365.4c-0.5,0.3-1.1,0.5-1.6,0.5c-1,0-2-0.5-2.5-1.4l-0.1-0.1c-0.9-1.4-0.4-3.3,1-4.2c1.4-0.9,3.3-0.4,4.2,1
		C71.4,362.6,71,364.5,69.6,365.4z M74.3,377.7c-1-1.4-0.7-3.3,0.7-4.3c1.4-1,3.3-0.7,4.3,0.7l0.1,0.1c1,1.4,0.7,3.3-0.7,4.3
		c-0.5,0.4-1.2,0.6-1.8,0.6C75.9,379,75,378.6,74.3,377.7 M74.7,398.4c-1.1-1.3-1-3.2,0.3-4.3c1.3-1.1,3.2-1,4.3,0.3l0.1,0.1
		c1.1,1.3,0.9,3.2-0.4,4.3c-0.6,0.5-1.3,0.7-2,0.7C76.2,399.6,75.3,399.2,74.7,398.4 M84.2,390.3c-1.1-1.3-1-3.2,0.3-4.3
		c1.3-1.1,3.2-1,4.3,0.3l0.1,0.1c1.1,1.3,0.9,3.2-0.4,4.3c-0.6,0.5-1.3,0.7-2,0.7C85.8,391.5,84.9,391.1,84.2,390.3 M90.5,411.1
		c-0.6,0.6-1.4,0.9-2.1,0.9c-0.8,0-1.6-0.3-2.2-0.9l-0.1-0.1c-1.2-1.2-1.2-3.1,0-4.3c1.2-1.2,3.1-1.2,4.3,0l0.1,0.1
		C91.7,407.9,91.7,409.9,90.5,411.1z M95.1,402.3l-0.1-0.1c-1.2-1.2-1.1-3.2,0.1-4.3c1.2-1.2,3.2-1.1,4.3,0.1c1.2,1.2,1.2,3.2,0,4.3
		c-0.6,0.6-1.4,0.9-2.2,0.9C96.5,403.1,95.7,402.8,95.1,402.3z M102.8,422.4c-0.6,0.7-1.4,1-2.3,1c-0.7,0-1.4-0.3-2-0.8h-0.1
		c-1.3-1.1-1.4-3-0.3-4.3s3-1.4,4.3-0.3l0.1,0.1C103.8,419.2,103.9,421.1,102.8,422.4z M106.7,413.2c-1.3-1.1-1.4-3-0.3-4.3
		s3-1.4,4.3-0.4l0.1,0.1c1.3,1.1,1.4,3.1,0.2,4.3c-0.6,0.7-1.4,1-2.3,1C108.1,414,107.3,413.8,106.7,413.2 M115.9,432.8
		c-0.6,0.8-1.5,1.2-2.5,1.2c-0.6,0-1.3-0.2-1.8-0.6l-0.1-0.1c-1.3-1-1.6-2.9-0.6-4.3c1-1.3,2.9-1.6,4.3-0.6
		C116.6,429.5,116.9,431.4,115.9,432.8z M123.5,422.8c-0.6,0.8-1.5,1.2-2.4,1.2c-0.6,0-1.3-0.2-1.8-0.6l-0.1-0.1
		c-1.3-1-1.6-3-0.6-4.3s3-1.6,4.3-0.6C124.2,419.5,124.5,421.4,123.5,422.8z M129.8,442.2c-0.6,0.9-1.6,1.4-2.6,1.4
		c-0.6,0-1.1-0.2-1.6-0.5l-0.1-0.1c-1.4-0.9-1.8-2.8-0.9-4.2c0.9-1.4,2.8-1.8,4.2-0.9C130.3,438.9,130.7,440.8,129.8,442.2z
		 M132.3,432.5c-1.4-0.9-1.8-2.8-0.9-4.2c0.9-1.4,2.8-1.8,4.2-0.9l0.1,0.1c1.4,0.9,1.8,2.8,0.9,4.2c-0.6,0.9-1.6,1.4-2.6,1.4
		C133.5,433.1,132.9,432.9,132.3,432.5 M140.1,451.8c-1.5-0.8-2-2.7-1.3-4.1c0.8-1.5,2.6-2.1,4.1-1.3l0.2,0.1c1.5,0.8,2,2.7,1.2,4.2
		c-0.6,1-1.6,1.6-2.7,1.6C141.1,452.2,140.6,452.1,140.1,451.8 M146.1,440.8c-1.5-0.8-2.1-2.6-1.3-4.1s2.6-2.1,4.1-1.3
		c0,0,0.1,0.1,0.2,0.1c1.5,0.8,2,2.7,1.2,4.2c-0.6,1-1.6,1.6-2.7,1.6C147.1,441.2,146.6,441,146.1,440.8 M159.5,457.8
		c-0.5,1.1-1.6,1.8-2.8,1.8c-0.4,0-0.8-0.1-1.2-0.3l-0.2-0.1c-1.5-0.7-2.2-2.6-1.4-4.1c0.7-1.5,2.6-2.2,4.1-1.4
		C159.4,454.5,160.1,456.3,159.5,457.8z M160.5,447.9c-1.5-0.7-2.2-2.5-1.5-4s2.5-2.2,4-1.6c0,0,0.1,0.1,0.2,0.1
		c1.5,0.7,2.2,2.5,1.5,4.1c-0.5,1.1-1.6,1.8-2.8,1.8C161.4,448.2,160.9,448.1,160.5,447.9 M175,464c-0.5,1.2-1.6,2-2.8,2
		c-0.3,0-0.7-0.1-1-0.2h-0.1c-1.6-0.6-2.4-2.3-1.8-3.9c0.6-1.6,2.3-2.4,3.9-1.8C174.7,460.6,175.6,462.4,175,464z M179.3,452.2
		c-0.5,1.2-1.6,2-2.8,2c-0.3,0-0.7-0.1-1-0.2c0,0-0.1-0.1-0.2-0.1c-1.6-0.6-2.4-2.4-1.7-4c0.6-1.6,2.4-2.4,4-1.8
		C179,448.9,179.9,450.6,179.3,452.2z M191,468.9c-0.4,1.4-1.6,2.3-2.9,2.3c-0.3,0-0.5,0-0.8-0.1l-0.2-0.1c-1.6-0.5-2.5-2.2-2.1-3.8
		c0.5-1.6,2.2-2.5,3.8-2.1C190.5,465.6,191.5,467.2,191,468.9z M190.6,459c-1.6-0.5-2.6-2.1-2.1-3.8c0.5-1.6,2.1-2.6,3.8-2.1h0.1
		c1.6,0.5,2.6,2.2,2.1,3.8c-0.4,1.3-1.6,2.2-2.9,2.2C191.2,459.1,191,459.1,190.6,459 M207.4,472.7c-0.3,1.4-1.6,2.4-3,2.4
		c-0.2,0-0.4,0-0.6-0.1h-0.1c-1.7-0.3-2.7-2-2.4-3.6c0.3-1.7,1.9-2.7,3.6-2.4h0.1C206.6,469.4,207.7,471,207.4,472.7z M206.2,462.8
		c-1.6-0.3-2.7-1.9-2.4-3.6c0.3-1.6,1.9-2.7,3.5-2.4h0.2c1.7,0.4,2.7,2,2.3,3.6c-0.3,1.4-1.6,2.4-3,2.4
		C206.7,462.8,206.5,462.8,206.2,462.8 M223.9,475.1c-0.2,1.6-1.5,2.7-3,2.7c-0.1,0-0.2,0-0.4,0h-0.2c-1.7-0.2-2.8-1.8-2.6-3.5
		s1.8-2.8,3.5-2.6S224.1,473.5,223.9,475.1z M225.5,462.8c-0.2,1.5-1.5,2.6-3,2.6c-0.1,0-0.2,0-0.4,0h-0.2c-1.7-0.3-2.8-1.8-2.6-3.5
		c0.3-1.7,1.8-2.8,3.5-2.6C224.5,459.6,225.7,461.1,225.5,462.8z M237.6,479.4c-0.1,0-0.1,0-0.2,0h-0.1c-1.7-0.1-3-1.5-2.9-3.2
		s1.5-3,3.2-2.9h0.1c1.7,0.1,3,1.5,2.9,3.2C240.5,478.1,239.2,479.4,237.6,479.4z M238,466.8c-1.7-0.1-3-1.5-2.9-3.2s1.5-3,3.1-2.9
		h0.2c1.7,0.1,3,1.6,2.9,3.2s-1.4,2.9-3.1,2.9C238.2,466.9,238.1,466.9,238,466.8 M254.4,479.6h-0.2c-1.7,0-3.1-1.4-3.1-3.1
		s1.4-3.1,3.1-3.1h0.1c1.7,0,3,1.4,3.1,3C257.4,478.1,256.1,479.6,254.4,479.6z M250.9,464.1c0-1.7,1.4-3.1,3.1-3.1
		c1.7,0,3.1,1.3,3.1,3s-1.2,3.1-2.9,3.1H254C252.3,467.1,250.9,465.8,250.9,464.1z M270,466.3c-0.1,0-0.2,0-0.3,0
		c-1.6,0-2.9-1.2-3-2.8c-0.2-1.7,1.1-3.2,2.8-3.3h0.1c1.7-0.2,3.2,1.1,3.3,2.8C273.1,464.6,271.8,466.1,270,466.3 M271.3,478.7
		c-0.1,0-0.2,0-0.3,0c-1.6,0-2.9-1.2-3.1-2.7c-0.2-1.7,1-3.2,2.7-3.4h0.2c1.7-0.1,3.2,1.1,3.3,2.8
		C274.2,477.1,273,478.6,271.3,478.7 M286,464.2c-0.2,0-0.3,0-0.5,0c-1.5,0-2.8-1-3-2.5c-0.3-1.7,0.8-3.2,2.4-3.5c0,0,0.1,0,0.2,0
		c1.7-0.3,3.2,0.9,3.5,2.6C288.8,462.4,287.7,463.9,286,464.2 M288.2,476.5H288c-0.1,0-0.3,0-0.4,0c-1.5,0-2.8-1.1-3-2.6
		c-0.2-1.7,0.9-3.2,2.6-3.5s3.3,0.8,3.5,2.5C290.9,474.7,289.8,476.3,288.2,476.5z M298,458.7c-0.4-1.7,0.7-3.3,2.3-3.6
		c1.6-0.4,3.3,0.7,3.7,2.3c0.4,1.6-0.6,3.3-2.2,3.7h-0.2c-0.2,0-0.4,0.1-0.7,0.1C299.5,461.1,298.3,460.1,298,458.7z M304.7,473.1
		c-0.2,0.1-0.5,0.1-0.7,0.1c-1.4,0-2.6-0.9-3-2.3c-0.4-1.6,0.5-3.3,2.1-3.7l0.2-0.1c1.6-0.4,3.3,0.6,3.7,2.3
		C307.4,471.1,306.4,472.7,304.7,473.1 M317.2,456.6c-0.3,0.1-0.7,0.2-1,0.2c-1.3,0-2.5-0.8-2.9-2.1c-0.5-1.6,0.3-3.3,1.9-3.9
		c0,0,0.1,0,0.1-0.1c1.6-0.5,3.3,0.4,3.9,2C319.7,454.3,318.8,456.1,317.2,456.6 M321.1,468.5l-0.2,0.1c-0.3,0.1-0.6,0.1-0.9,0.1
		c-1.3,0-2.5-0.9-2.9-2.2c-0.5-1.6,0.4-3.3,2-3.8s3.3,0.3,3.9,1.9S322.7,468,321.1,468.5z M332.2,451.1c-0.4,0.2-0.8,0.2-1.2,0.2
		c-1.2,0-2.3-0.7-2.8-1.9c-0.7-1.6,0.1-3.4,1.6-4l0.1-0.1c1.6-0.6,3.4,0.1,4,1.7C334.6,448.6,333.8,450.4,332.2,451.1 M337,462.6
		L337,462.6c-0.4,0.2-0.8,0.3-1.2,0.3c-1.2,0-2.3-0.7-2.8-1.9c-0.7-1.6,0.1-3.4,1.6-4l0.1-0.1c1.6-0.6,3.4,0.1,4,1.7
		C339.3,460.2,338.6,462,337,462.6z M346.9,444.4l-0.2,0.1c-0.4,0.2-0.9,0.3-1.3,0.3c-1.2,0-2.3-0.7-2.8-1.8
		c-0.7-1.5-0.1-3.4,1.5-4.1c1.5-0.8,3.3-0.2,4.1,1.3C349,441.8,348.4,443.6,346.9,444.4z M352.4,455.7c-0.4,0.2-0.9,0.3-1.4,0.3
		c-1.1,0-2.2-0.6-2.7-1.7c-0.8-1.5-0.2-3.3,1.3-4.1l0.2-0.1c1.5-0.7,3.4-0.1,4.1,1.4C354.6,453.1,353.9,454.9,352.4,455.7
		 M361,436.7l-0.2,0.1c-0.5,0.3-1,0.4-1.5,0.4c-1.1,0-2.1-0.6-2.7-1.6c-0.8-1.5-0.3-3.3,1.2-4.2c1.4-0.9,3.3-0.4,4.2,1
		C362.9,434,362.4,435.9,361,436.7z M367.4,447.5l-0.1,0.1c-0.5,0.3-1,0.4-1.5,0.4c-1.1,0-2.1-0.5-2.6-1.5c-0.9-1.5-0.4-3.3,1.1-4.2
		c1.5-0.9,3.4-0.4,4.2,1S368.8,446.6,367.4,447.5z M374.4,428l-0.1,0.1c-0.5,0.3-1.1,0.5-1.7,0.5c-1,0-2-0.5-2.5-1.4
		c-0.9-1.4-0.6-3.3,0.8-4.2c1.4-0.9,3.3-0.6,4.3,0.8C376.1,425.2,375.8,427.1,374.4,428z M381.6,438.3l-0.1,0.1
		c-0.5,0.4-1.1,0.5-1.7,0.5c-1,0-1.9-0.5-2.5-1.3c-1-1.4-0.6-3.3,0.8-4.3s3.3-0.7,4.3,0.7C383.3,435.4,383,437.3,381.6,438.3z
		 M387.2,418.3c0,0-0.1,0.1-0.2,0.1c-0.6,0.4-1.2,0.6-1.9,0.6c-0.9,0-1.8-0.4-2.4-1.2c-1-1.3-0.8-3.3,0.6-4.3
		c1.3-1.1,3.2-0.9,4.3,0.4C388.7,415.3,388.5,417.2,387.2,418.3z M250,446c-108.1,0-196-87.9-196-196S141.9,54,250,54
		s196,87.9,196,196S358.1,446,250,446z M395.1,428.1L395.1,428.1c-0.6,0.5-1.3,0.8-2,0.8c-0.9,0-1.8-0.4-2.4-1.1
		c-1.1-1.3-0.9-3.2,0.4-4.3l0.1-0.1c1.3-1.1,3.2-0.9,4.3,0.4C396.6,425.1,396.4,427,395.1,428.1z M399.3,407.7l-0.1,0.1
		c-0.6,0.5-1.3,0.8-2.1,0.8c-0.8,0-1.7-0.3-2.3-1c-1.1-1.3-1.1-3.2,0.2-4.3c1.2-1.1,3.2-1.1,4.3,0.1
		C400.5,404.7,400.5,406.6,399.3,407.7z M407.9,416.8l-0.1,0.1c-0.6,0.5-1.3,0.8-2.1,0.8c-0.8,0-1.6-0.3-2.3-1
		c-1.1-1.2-1.1-3.2,0.2-4.3c1.2-1.2,3.2-1.1,4.3,0.1C409.1,413.7,409.1,415.7,407.9,416.8z M410.5,396.3c-0.6,0.7-1.4,1-2.3,1
		c-0.7,0-1.4-0.3-2-0.8c-1.3-1.1-1.4-3-0.3-4.3l0.1-0.1c1.1-1.2,3.1-1.3,4.3-0.2C411.6,393.1,411.6,395.1,410.5,396.3 M419.8,404.7
		l-0.1,0.2c-0.6,0.6-1.4,0.9-2.2,0.9c-0.8,0-1.5-0.3-2.1-0.9c-1.2-1.2-1.3-3.1-0.1-4.3c1.1-1.3,3-1.4,4.3-0.3
		C420.8,401.5,420.9,403.5,419.8,404.7z M420.9,384l-0.1,0.1c-0.6,0.8-1.5,1.1-2.4,1.1c-0.7,0-1.4-0.2-1.9-0.7
		c-1.3-1.1-1.5-3-0.5-4.3c1.1-1.3,3-1.6,4.3-0.5C421.6,380.8,421.9,382.7,420.9,384z M425.2,367.7c1-1.4,2.9-1.8,4.3-0.9
		s1.8,2.8,0.9,4.2l-0.1,0.1c-0.6,0.9-1.6,1.4-2.5,1.4c-0.6,0-1.2-0.2-1.7-0.5C424.6,371,424.2,369.1,425.2,367.7z M430.7,391.9
		c-0.6,0.8-1.5,1.2-2.4,1.2c-0.6,0-1.3-0.2-1.8-0.6c-1.4-1-1.6-3-0.6-4.3l0.1-0.2c1.1-1.3,3-1.5,4.3-0.4
		C431.6,388.6,431.8,390.5,430.7,391.9 M433.5,354.4c0.8-1.5,2.7-2,4.1-1.2c1.5,0.8,2,2.7,1.2,4.2l-0.1,0.2
		c-0.6,0.9-1.6,1.5-2.6,1.5c-0.5,0-1.1-0.1-1.6-0.4C433,357.8,432.6,355.9,433.5,354.4z M440.7,378l-0.1,0.1
		c-0.6,0.9-1.6,1.3-2.5,1.3c-0.6,0-1.2-0.2-1.7-0.5c-1.4-1-1.7-2.9-0.8-4.3c0.9-1.4,2.8-1.8,4.2-0.9
		C441.3,374.7,441.7,376.6,440.7,378z M442,344.7c-1.5-0.8-2.1-2.6-1.3-4.1c0.7-1.5,2.5-2.2,4.1-1.5c1.5,0.7,2.2,2.5,1.5,4.1
		l-0.1,0.2c-0.5,1.1-1.6,1.7-2.7,1.7C442.9,345,442.4,344.9,442,344.7z M449.7,363.6l-0.1,0.1c-0.6,1-1.6,1.5-2.7,1.5
		c-0.5,0-1-0.1-1.5-0.4c-1.5-0.8-2-2.7-1.1-4.2c0.8-1.5,2.7-2,4.2-1.2C450,360.3,450.5,362.2,449.7,363.6z M457.5,348.6l-0.1,0.1
		c-0.5,1.1-1.6,1.7-2.8,1.7c-0.4,0-0.9-0.1-1.3-0.3c-1.5-0.7-2.2-2.6-1.4-4.1c0.7-1.5,2.6-2.2,4.1-1.5
		C457.6,345.2,458.3,347,457.5,348.6z M457.8,313.3c-0.4,1.3-1.6,2.2-2.9,2.2c-0.3,0-0.6,0-0.9-0.1c-1.6-0.5-2.5-2.2-2.1-3.8
		c0,0,0-0.1,0-0.2c0.5-1.6,2.2-2.5,3.8-2C457.4,310,458.3,311.7,457.8,313.3 M455.9,296.4c0.4-1.6,2.1-2.7,3.7-2.3
		c1.6,0.4,2.7,1.9,2.3,3.6v0.2c-0.3,1.4-1.6,2.3-3,2.3c-0.2,0-0.5,0-0.7-0.1C456.5,299.7,455.5,298.1,455.9,296.4z M464.3,333
		L464.3,333c-0.5,1.3-1.6,2-2.9,2c-0.4,0-0.7-0.1-1.1-0.2c-1.6-0.6-2.4-2.4-1.8-3.9l0.1-0.1c0.6-1.6,2.4-2.3,4-1.7
		C464.1,329.6,464.9,331.4,464.3,333z M469.8,316.9v0.1c-0.4,1.3-1.6,2.1-2.9,2.1c-0.3,0-0.6,0-0.9-0.1c-1.6-0.5-2.5-2.2-2-3.9
		c0.5-1.6,2.2-2.6,3.8-2.1C469.4,313.6,470.3,315.3,469.8,316.9z M474.1,300.6c-0.3,1.4-1.6,2.4-3,2.4c-0.2,0-0.4,0-0.6-0.1
		c-1.6-0.4-2.7-1.9-2.4-3.6v-0.2c0.4-1.6,2-2.7,3.7-2.3C473.5,297.2,474.5,298.9,474.1,300.6 M477.2,283.8L477.2,283.8
		c-0.2,1.6-1.5,2.7-3,2.7c-0.1,0-0.3,0-0.4,0c-1.7-0.2-2.8-1.8-2.6-3.5v-0.1c0.2-1.7,1.8-2.8,3.5-2.6
		C476.3,280.6,477.5,282.2,477.2,283.8z M479.1,267c-0.1,1.6-1.5,2.9-3.1,2.9c-0.1,0-0.1,0-0.2,0c-1.7-0.1-3-1.5-2.9-3.2v-0.2
		c0.1-1.7,1.6-2.9,3.3-2.8C478,263.8,479.2,265.3,479.1,267 M480.2,250v0.1c0,1.7-1.8,3.1-3.5,3.1s-3.5-1.4-3.5-3.1V250
		c0-0.1,0-0.1,0-0.2c0-0.1,0-0.1,0-0.2v-0.1c0-1.7,1.8-3.1,3.5-3.1s3.5,1.4,3.5,3.1v0.1c0,0.1,0,0.1,0,0.2S480.2,249.9,480.2,250z"
		/>
</g>
</svg>
