<?xml version="1.0" encoding="utf-8"?><!DOCTYPE svg PUBLIC "-//W3C//DTD SVG 1.1//EN" "http://www.w3.org/Graphics/SVG/1.1/DTD/svg11.dtd">
<svg version="1.1" id="Layer_1" xmlns="http://www.w3.org/2000/svg" xmlns:xlink="http://www.w3.org/1999/xlink" x="0px" y="0px" viewBox="0 0 500 500" enable-background="new 0 0 500 500" xml:space="preserve">
<g>
	<g id="change1_1"><polygon fill="#FFFFFF" points="490.5,249.9 499.7,229.3 487.2,210.4 493,188.5 477.5,172 479.5,149.5 461.5,135.7 459.8,113.2 
		439.7,102.6 434.3,80.6 412.8,73.4 403.8,52.6 381.4,49 369.2,30 346.5,30.2 331.2,13.4 308.9,17.3 291,3.3 269.6,10.8 249.7,-0.1 
		229.9,10.8 208.5,3.3 190.6,17.3 168.3,13.4 153,30.2 130.3,30 118.1,49 95.7,52.6 86.7,73.4 65.2,80.6 59.8,102.6 39.7,113.2 
		38,135.7 20,149.5 22,172 6.5,188.5 12.3,210.4 -0.3,229.3 9,249.9 -0.3,270.6 12.3,289.4 6.5,311.3 22,327.9 20,350.4 38,364.1 
		39.7,386.7 59.8,397.3 65.2,419.3 86.7,426.5 95.7,447.2 118.1,450.8 130.3,469.8 153,469.7 168.3,486.4 190.6,482.6 208.5,496.6 
		229.9,489 249.7,499.9 269.6,489 291,496.6 308.9,482.6 331.2,486.4 346.5,469.7 369.2,469.8 381.4,450.8 403.8,447.2 412.8,426.4 
		434.3,419.2 439.7,397.3 459.8,386.7 461.5,364.1 479.5,350.4 477.5,327.9 493,311.3 487.2,289.4 499.7,270.6 	"></polygon></g>
</g>
</svg>