<?xml version="1.0" encoding="utf-8"?><!DOCTYPE svg PUBLIC "-//W3C//DTD SVG 1.1//EN" "http://www.w3.org/Graphics/SVG/1.1/DTD/svg11.dtd">
<svg version="1.1" id="Layer_1" xmlns="http://www.w3.org/2000/svg" xmlns:xlink="http://www.w3.org/1999/xlink" x="0px" y="0px" viewBox="0 0 500 500" enable-background="new 0 0 500 500" xml:space="preserve">
<g>
	<g id="change1_1"><path fill="#FFFFFF" d="M249.7,499.9l-19.4-16.4l-21.9,13.1l-16.5-19.4l-23.7,9.3l-13-21.9l-24.9,5.2l-9.2-23.7l-25.5,1.1
		l-5.2-24.9l-25.3-3.1l-1-25.4l-24.4-7.2l3.2-25.2l-22.9-11.1l7.3-24.3L6.5,311.3l11.3-22.8l-18-18l14.9-20.6l-14.9-20.6l18-18
		L6.5,188.5l20.8-14.7l-7.3-24.3l22.9-11.1l-3.2-25.2l24.4-7.2l1-25.4l25.3-3.1l5.2-24.9l25.5,1.1l9.2-23.7l24.9,5.2l13-21.9
		l23.7,9.3l16.5-19.4l21.9,13.1l19.4-16.4l19.4,16.4L291,3.3l16.5,19.4l23.7-9.3l13,21.9l24.9-5.2l9.2,23.7l25.5-1.1l5.2,24.9
		l25.3,3.1l1,25.4l24.4,7.2l-3.2,25.2l22.9,11.1l-7.3,24.3l20.8,14.7l-11.3,22.8l18,18l-14.9,20.6l14.9,20.6l-18,18l11.3,22.8
		L472.1,326l7.3,24.3l-22.9,11.1l3.2,25.2l-24.4,7.2l-1,25.4l-25.3,3.1l-5.2,24.9l-25.5-1.1l-9.2,23.7l-24.9-5.2l-13,21.9l-23.7-9.3
		L291,496.6l-21.9-13.1L249.7,499.9z M230.7,477.5l18.9,16l18.9-16l21.3,12.7l16-18.9l23.1,9l12.7-21.3l24.3,5.1l9-23.1l24.8,1
		l5-24.2l24.6-3l1-24.7l23.8-7l-3.1-24.6l22.3-10.8l-7.1-23.7l20.2-14.4l-11-22.2l17.6-17.5l-14.5-20.1l14.5-20.1l-17.6-17.5
		l11-22.2l-20.2-14.4l7.1-23.7l-22.3-10.8l3.1-24.6l-23.8-7l-1-24.7l-24.6-3l-5-24.2l-24.8,1l-9-23.1l-24.3,5.1L329,19.5l-23.1,9
		l-16-18.9l-21.3,12.7l-18.9-16l-18.9,16L209.5,9.7l-16,18.9l-23.1-9l-12.7,21.3l-24.3-5.1l-9,23.1l-24.8-1l-5,24.2l-24.6,3l-1,24.7
		l-23.8,7l3.1,24.6l-22.3,10.8l7.1,23.7l-20.2,14.4l11,22.2L6.1,229.8l14.5,20.1L6.1,270l17.6,17.5l-11,22.2L33,324.1l-7.1,23.7
		l22.3,10.8l-3.1,24.6l23.8,7l1,24.7l24.6,3l5,24.2l24.8-1l9,23.1l24.3-5.1l12.7,21.3l23.1-9l16,18.9L230.7,477.5z"></path></g>
</g>
</svg>