<?xml version="1.0" encoding="utf-8"?>
<!-- Generator: Adobe Illustrator 19.1.0, SVG Export Plug-In . SVG Version: 6.00 Build 0)  -->
<!DOCTYPE svg PUBLIC "-//W3C//DTD SVG 1.1//EN" "http://www.w3.org/Graphics/SVG/1.1/DTD/svg11.dtd">
<svg version="1.1" id="Layer_1" xmlns="http://www.w3.org/2000/svg" xmlns:xlink="http://www.w3.org/1999/xlink" x="0px" y="0px"
	 viewBox="0 0 500 500" enable-background="new 0 0 500 500" xml:space="preserve">
<g id="change2">
	<g>
		<polygon fill="#7D8693" points="221.2,24.9 242.7,-0.5 264.2,24.9 		"/>
	</g>
	<g>
		<polygon fill="#7D8693" points="182.6,33.7 199.5,4.9 225,26.3 		"/>
	</g>
	<g>
		<polygon fill="#7D8693" points="146.1,48.7 157.7,17.5 186.6,33.9 		"/>
	</g>
	<g>
		<polygon fill="#7D8693" points="112.8,69.7 118.8,36.9 150.1,48.2 		"/>
	</g>
	<g>
		<polygon fill="#7D8693" points="83.6,96.3 83.8,63 116.7,68.6 		"/>
	</g>
	<g>
		<polygon fill="#7D8693" points="59.5,127.5 53.9,94.7 87.2,94.4 		"/>
	</g>
	<g>
		<polygon fill="#7D8693" points="41.1,162.3 30,131 62.7,125 		"/>
	</g>
	<g>
		<polygon fill="#7D8693" points="29.2,199.9 12.7,171 43.9,159.4 		"/>
	</g>
	<g>
		<polygon fill="#7D8693" points="23.9,239 2.7,213.4 31.4,196.6 		"/>
	</g>
	<g>
		<polygon fill="#7D8693" points="25.3,278.3 0,256.9 25.3,235.3 		"/>
	</g>
	<g>
		<polygon fill="#7D8693" points="34.1,316.9 5.4,300 26.7,274.5 		"/>
	</g>
	<g>
		<polygon fill="#7D8693" points="49.1,353.3 17.8,341.8 34.3,312.8 		"/>
	</g>
	<g>
		<polygon fill="#7D8693" points="70.1,386.6 37.4,380.6 48.5,349.3 		"/>
	</g>
	<g>
		<polygon fill="#7D8693" points="96.6,415.7 63.3,415.6 68.9,382.7 		"/>
	</g>
	<g>
		<polygon fill="#7D8693" points="127.8,439.8 95,445.5 94.7,412.2 		"/>
	</g>
	<g>
		<polygon fill="#7D8693" points="162.6,458.1 131.3,469.4 125.3,436.6 		"/>
	</g>
	<g>
		<polygon fill="#7D8693" points="200.2,470.1 171.2,486.6 159.7,455.3 		"/>
	</g>
	<g>
		<polygon fill="#7D8693" points="239.2,475.4 213.5,496.6 196.8,467.9 		"/>
	</g>
	<g>
		<polygon fill="#7D8693" points="278.5,474.1 256.9,499.5 235.5,474.1 		"/>
	</g>
	<g>
		<polygon fill="#7D8693" points="317.1,466 300.3,494.7 274.6,473.5 		"/>
	</g>
	<g>
		<polygon fill="#7D8693" points="353.7,451 342.1,482.3 313.1,465.8 		"/>
	</g>
	<polygon fill="#7D8693" points="387,430 381,462.7 349.7,451.4 	"/>
	<polygon fill="#7D8693" points="416.2,403.4 416.1,436.7 383.3,431 	"/>
	<g>
		<polygon fill="#7D8693" points="440.4,372.2 446,405 412.7,405.1 		"/>
	</g>
	<g>
		<polygon fill="#7D8693" points="458.8,337.2 469.9,368.5 437.2,374.5 		"/>
	</g>
	<g>
		<polygon fill="#7D8693" points="470.8,299.6 487.3,328.5 456.1,340 		"/>
	</g>
	<g>
		<polygon fill="#7D8693" points="476.2,260.5 497.4,286.1 468.6,302.8 		"/>
	</g>
	<g>
		<polygon fill="#7D8693" points="474.5,221 500,242.6 474.5,264.1 		"/>
	</g>
	<g>
		<polygon fill="#7D8693" points="466.4,182.4 495.2,199.2 473.9,224.8 		"/>
	</g>
	<g>
		<polygon fill="#7D8693" points="451.4,145.8 482.6,157.4 466.2,186.3 		"/>
	</g>
	<g>
		<polygon fill="#7D8693" points="430.3,112.4 463.1,118.3 451.9,149.7 		"/>
	</g>
	<g>
		<polygon fill="#7D8693" points="403.8,83.2 437,83.3 431.5,116.1 		"/>
	</g>
	<g>
		<polygon fill="#7D8693" points="372.5,58.9 405.3,53.4 405.4,86.6 		"/>
	</g>
	<g>
		<polygon fill="#7D8693" points="337.5,40.5 368.8,29.3 374.8,62 		"/>
	</g>
	<g>
		<polygon fill="#7D8693" points="299.9,28.5 328.7,12 340.3,43.2 		"/>
	</g>
	<g>
		<polygon fill="#7D8693" points="260.7,23.1 286.3,1.9 303,30.6 		"/>
	</g>
</g>
<g id="change1">
	<g>
		<circle fill="#FFFFFF" cx="251" cy="249.5" r="227.2"/>
	</g>
</g>
</svg>
