<?xml version="1.0" encoding="utf-8"?><!DOCTYPE svg PUBLIC "-//W3C//DTD SVG 1.1//EN" "http://www.w3.org/Graphics/SVG/1.1/DTD/svg11.dtd">
<svg version="1.1" id="Layer_1" xmlns="http://www.w3.org/2000/svg" xmlns:xlink="http://www.w3.org/1999/xlink" x="0px" y="0px" viewBox="0 0 500 500" enable-background="new 0 0 500 500" xml:space="preserve">
<g>
	<g id="change1_1"><path fill="#FFFFFF" d="M492.1,250.7c0-26.1,13-53.8,5-77.3c-8.2-24.4-36-39.4-51.3-59.7c-15.5-20.5-21.9-50.4-43.2-65.3
		C381.5,33.7,350,37,324.7,29c-24.5-7.6-47.8-28.4-74.9-28.4c-27.1,0-50.5,20.7-74.9,28.4c-25.3,7.9-56.9,4.6-78,19.4
		c-21.3,14.9-27.7,44.8-43.2,65.3C38.3,134,10.6,149,2.3,173.4c-7.9,23.5,5,51.2,5,77.3c0,26.1-13,53.8-5,77.3
		c8.2,24.4,36,39.4,51.3,59.7c15.5,20.5,21.9,50.4,43.2,65.3c21.1,14.8,52.6,11.5,78,19.4c24.5,7.6,47.8,28.4,74.9,28.4
		c27.1,0,50.5-20.7,74.9-28.4c25.3-7.9,56.9-4.6,78-19.4c21.3-14.9,27.7-44.8,43.2-65.3c15.4-20.3,43.1-35.3,51.3-59.7
		C505.1,304.4,492.1,276.7,492.1,250.7z"></path></g>
</g>
</svg>