<?xml version="1.0" encoding="utf-8"?><!DOCTYPE svg PUBLIC "-//W3C//DTD SVG 1.1//EN" "http://www.w3.org/Graphics/SVG/1.1/DTD/svg11.dtd">
<svg version="1.1" id="Layer_1" xmlns="http://www.w3.org/2000/svg" xmlns:xlink="http://www.w3.org/1999/xlink" x="0px" y="0px" viewBox="-0.5 -11.2 500 519.8" enable-background="new -0.5 -11.2 500 519.8" xml:space="preserve">
<g>
	<g id="change1_1"><path fill="#FFFFFF" d="M249.5,508.6c-17.9,0-33.8-8.6-49.1-16.9c-8.9-4.8-17.4-9.4-25.9-12.2c-9-2.9-19.3-4.3-29.2-5.7
		c-17.1-2.3-34.7-4.7-48.6-14.8c-14-10.2-21.7-26.3-29.2-41.8c-4.5-9.4-8.8-18.3-14.3-25.8c-5.4-7.4-12.5-14.1-19.9-21.2
		c-12.6-12-25.6-24.3-31-41c-5.2-16-2-33.3,1-50.1c1.8-10,3.7-20.4,3.7-30.2c0-9.8-1.9-20.1-3.7-30.2c-3-16.8-6.2-34.2-1-50.1
		c5.4-16.7,18.4-29.1,31-41c7.5-7.1,14.5-13.8,19.9-21.2c5.5-7.6,9.8-16.4,14.3-25.8C75,64.8,82.8,48.7,96.8,38.5
		c13.9-10.1,31.5-12.5,48.6-14.8c9.9-1.4,20.2-2.8,29.2-5.7c8.5-2.8,17-7.3,25.9-12.2c15.3-8.3,31.2-16.9,49.1-16.9
		c17.9,0,33.8,8.6,49.1,16.9c8.9,4.8,17.4,9.4,25.9,12.2c9,2.9,19.3,4.3,29.2,5.7c17.1,2.3,34.7,4.7,48.6,14.8
		c14,10.2,21.7,26.3,29.2,41.8c4.5,9.4,8.8,18.3,14.3,25.8c5.4,7.4,12.5,14.1,19.9,21.2c12.6,12,25.6,24.3,31,41
		c5.2,16,2,33.3-1,50.1c-1.8,10-3.7,20.4-3.7,30.2c0,9.8,1.9,20.1,3.7,30.2c3,16.8,6.2,34.2,1,50.1c-5.4,16.7-18.4,29.1-31,41
		c-7.5,7.1-14.5,13.8-19.9,21.2c-5.5,7.6-9.8,16.4-14.3,25.8c-7.5,15.6-15.2,31.7-29.2,41.8c-13.9,10.1-31.5,12.5-48.6,14.8
		c-9.9,1.4-20.2,2.8-29.2,5.7c-8.5,2.8-17,7.3-25.9,12.2C283.3,500,267.5,508.6,249.5,508.6z M249.5-0.3c-15.2,0-29.8,7.9-43.9,15.6
		c-9,4.9-18.2,9.9-27.7,13c-9.9,3.2-20.7,4.7-31.1,6.1c-16.5,2.2-32,4.4-43.6,12.8C91.4,55.8,84.6,70,77.3,85
		c-4.5,9.4-9.2,19.2-15.3,27.5c-6,8.2-13.7,15.6-21.2,22.7c-12.1,11.5-23.6,22.4-28.2,36.5c-4.3,13.4-1.6,28.7,1.3,44.9
		c1.9,10.5,3.9,21.4,3.9,32.1c0,10.7-2,21.6-3.9,32.1c-2.9,16.2-5.7,31.5-1.3,44.9c4.6,14.1,16,25,28.2,36.5
		c7.5,7.1,15.3,14.5,21.2,22.7c6.1,8.4,10.8,18.1,15.3,27.5c7.2,15,14,29.2,25.8,37.8c11.6,8.5,27.2,10.6,43.6,12.8
		c10.4,1.4,21.2,2.9,31.1,6.1c9.5,3.1,18.7,8.1,27.7,13c14.1,7.7,28.8,15.6,43.9,15.6c15.2,0,29.8-7.9,43.9-15.6
		c9-4.9,18.2-9.9,27.7-13c9.9-3.2,20.7-4.7,31.1-6.1c16.5-2.2,32-4.4,43.6-12.8c11.8-8.6,18.6-22.8,25.8-37.8
		c4.5-9.4,9.2-19.2,15.3-27.5c6-8.2,13.7-15.6,21.2-22.7c12.1-11.5,23.6-22.4,28.2-36.5c4.3-13.4,1.6-28.7-1.3-44.9
		c-1.9-10.5-3.9-21.4-3.9-32.1c0-10.7,2-21.6,3.9-32.1c2.9-16.2,5.7-31.5,1.3-44.9c-4.6-14.1-16-25-28.2-36.5
		c-7.5-7.1-15.3-14.5-21.2-22.7c-6.1-8.4-10.8-18.1-15.3-27.5c-7.2-15-14-29.2-25.8-37.8c-11.6-8.5-27.2-10.6-43.6-12.8
		c-10.4-1.4-21.2-2.9-31.1-6.1c-9.5-3.1-18.7-8.1-27.7-13C279.3,7.6,264.7-0.3,249.5-0.3z"></path></g>
</g>
</svg>