<?xml version="1.0" encoding="utf-8"?><!DOCTYPE svg PUBLIC "-//W3C//DTD SVG 1.1//EN" "http://www.w3.org/Graphics/SVG/1.1/DTD/svg11.dtd">
<svg version="1.1" id="Layer_1" xmlns="http://www.w3.org/2000/svg" xmlns:xlink="http://www.w3.org/1999/xlink" x="0px" y="0px" viewBox="-0.8 -0.9 500 500" enable-background="new -0.8 -0.9 500 500" xml:space="preserve">
<g>
	<g id="change1_1"><path fill="#FFFFFF" d="M249.2,499.1c-7.8,0-14.5-4.3-20.9-8.5c-4.7-3.1-9.2-5.9-13.2-6.5c-4.2-0.6-9.4,1-14.9,2.6
		c-7.3,2.2-14.8,4.4-22.1,2.3c-7.4-2.2-12.6-8.1-17.6-13.9c-3.7-4.3-7.1-8.3-10.9-10c-3.8-1.7-9.2-1.7-15-1.7
		c-7.6,0-15.5,0.1-21.9-4c-6.5-4.1-9.7-11.3-12.8-18.2c-2.3-5.2-4.5-10-7.7-12.7c-3.2-2.7-8.3-4.2-13.8-5.7c-7.3-2.1-14.9-4.2-20-10
		c-5-5.7-6.1-13.5-7.1-21c-0.8-5.6-1.5-10.9-3.8-14.4c-2.2-3.5-6.8-6.3-11.6-9.3c-6.5-4-13.2-8.2-16.4-15.2c-3.2-6.9-2-14.6-0.9-22
		c0.9-5.6,1.7-10.9,0.5-15c-1.2-3.9-4.7-7.9-8.4-12.1c-5.1-5.7-10.3-11.6-11.4-19.3c-1.1-7.4,2.2-14.4,5.4-21.2
		c2.4-5.2,4.7-10.1,4.7-14.4s-2.3-9.2-4.7-14.4c-3.2-6.8-6.5-13.8-5.4-21.2c1.1-7.6,6.4-13.5,11.4-19.3c3.7-4.2,7.3-8.2,8.4-12.1
		c1.2-4,0.4-9.3-0.5-15c-1.1-7.5-2.3-15.2,0.9-22c3.2-7,9.9-11.1,16.4-15.2c4.8-3,9.3-5.8,11.6-9.3c2.3-3.5,3-8.8,3.8-14.4
		c1-7.5,2.1-15.2,7.1-21c5-5.7,12.6-7.9,20-10c5.5-1.5,10.7-3,13.8-5.7c3.1-2.7,5.3-7.6,7.7-12.7c3.1-6.9,6.3-14.1,12.8-18.2
		c6.4-4.1,14.3-4,21.9-4c5.7,0,11.1,0.1,15-1.7c3.8-1.7,7.2-5.7,10.9-10c5-5.8,10.1-11.8,17.6-13.9c7.3-2.1,14.8,0.1,22.1,2.3
		c5.5,1.7,10.7,3.2,14.9,2.6c4-0.6,8.5-3.5,13.2-6.5c6.4-4.2,13.1-8.5,20.9-8.5c7.8,0,14.5,4.3,20.9,8.5c4.7,3.1,9.2,5.9,13.2,6.5
		c4.2,0.6,9.4-1,14.9-2.6c7.3-2.2,14.8-4.4,22.1-2.3c7.4,2.2,12.6,8.1,17.6,13.9c3.7,4.3,7.1,8.3,10.9,10c3.8,1.7,9.2,1.7,15,1.7
		c7.6-0.1,15.5-0.1,21.9,4c6.5,4.1,9.7,11.3,12.8,18.2c2.3,5.2,4.5,10,7.7,12.7c3.2,2.7,8.3,4.2,13.8,5.7c7.3,2.1,14.9,4.2,20,10
		c5,5.7,6.1,13.5,7.1,21c0.8,5.6,1.5,10.9,3.8,14.4c2.2,3.5,6.8,6.3,11.6,9.3c6.5,4,13.2,8.2,16.4,15.2c3.2,6.9,2,14.6,0.9,22
		c-0.9,5.6-1.7,10.9-0.5,15c1.2,3.9,4.7,7.9,8.4,12.1c5.1,5.7,10.3,11.6,11.4,19.3c1.1,7.4-2.2,14.4-5.4,21.2
		c-2.4,5.2-4.7,10.1-4.7,14.4s2.3,9.2,4.7,14.4c3.2,6.8,6.5,13.8,5.4,21.2c-1.1,7.6-6.4,13.5-11.4,19.3c-3.7,4.2-7.3,8.2-8.4,12.1
		c-1.2,4-0.4,9.3,0.5,15c1.1,7.5,2.3,15.2-0.9,22c-3.2,7-9.9,11.1-16.4,15.2c-4.8,3-9.3,5.8-11.6,9.3c-2.3,3.5-3,8.8-3.8,14.4
		c-1,7.5-2.1,15.2-7.1,21c-5,5.7-12.6,7.9-20,10c-5.5,1.5-10.7,3-13.8,5.7c-3.1,2.7-5.3,7.6-7.7,12.7c-3.1,6.9-6.3,14.1-12.8,18.2
		c-6.4,4.1-14.3,4-21.9,4c-5.7,0-11.1-0.1-15,1.7c-3.8,1.7-7.2,5.7-10.9,10c-5,5.8-10.1,11.8-17.6,13.9c-7.3,2.1-14.8-0.1-22.1-2.3
		c-5.5-1.7-10.7-3.2-14.9-2.6c-4,0.6-8.5,3.5-13.2,6.5C263.7,494.8,257,499.1,249.2,499.1z M213.1,473.5c1.1,0,2.3,0.1,3.4,0.2
		c6.4,0.9,12,4.6,17.5,8.1c5.4,3.5,10.5,6.8,15.1,6.8s9.7-3.3,15.1-6.8c5.5-3.5,11.1-7.2,17.5-8.1c6.5-0.9,13.1,1,19.5,3
		c6,1.8,11.8,3.5,16,2.3c4.4-1.3,8.3-5.8,12.5-10.7c4.3-5,8.7-10.1,14.6-12.7c6-2.7,12.8-2.7,19.4-2.6c6.3,0,12.3,0.1,16.1-2.3
		c3.8-2.4,6.3-7.9,8.9-13.6c2.7-6,5.5-12.1,10.4-16.4c4.9-4.2,11.5-6.1,17.9-7.9c6.1-1.7,11.9-3.4,14.9-6.7c3-3.4,3.8-9.3,4.6-15.5
		c0.9-6.5,1.8-13.2,5.4-18.7c3.5-5.4,9.3-9,14.9-12.5c5.4-3.4,10.5-6.6,12.4-10.7c1.9-4,1-9.9,0-16.1c-1-6.5-2-13.2-0.2-19.5
		c1.8-6.1,6.3-11.2,10.6-16c4.2-4.8,8.2-9.3,8.9-13.8c0.6-4.3-1.9-9.6-4.6-15.3c-2.8-6-5.7-12.2-5.7-18.8c0-6.6,2.9-12.8,5.7-18.8
		c2.7-5.6,5.2-11,4.6-15.3c-0.7-4.5-4.7-9-8.9-13.8c-4.3-4.9-8.8-9.9-10.6-16c-1.9-6.3-0.8-13,0.2-19.5c0.9-6.2,1.8-12.1,0-16.1
		c-1.9-4.1-7-7.3-12.4-10.7c-5.6-3.5-11.3-7.1-14.9-12.5c-3.5-5.5-4.5-12.2-5.4-18.7c-0.9-6.2-1.7-12.1-4.6-15.5
		c-3-3.4-8.7-5-14.9-6.7c-6.4-1.8-12.9-3.7-17.9-7.9c-4.9-4.2-7.7-10.4-10.4-16.4c-2.6-5.8-5-11.2-8.9-13.6
		c-3.8-2.4-9.8-2.4-16.1-2.3c-6.6,0-13.5,0.1-19.4-2.6c-5.9-2.7-10.3-7.8-14.6-12.7c-4.1-4.8-8.1-9.4-12.5-10.7
		c-4.3-1.2-10,0.5-16,2.3c-6.4,1.9-13,3.9-19.5,3c-6.4-0.9-12-4.6-17.5-8.1c-5.4-3.5-10.5-6.8-15.1-6.8s-9.7,3.3-15.1,6.8
		c-5.5,3.5-11.1,7.2-17.5,8.1c-6.6,0.9-13.1-1-19.5-3c-6-1.8-11.8-3.5-16-2.3c-4.4,1.3-8.3,5.8-12.5,10.7c-4.3,5-8.7,10.1-14.6,12.7
		c-6,2.7-12.8,2.7-19.4,2.6c-6.3,0-12.3-0.1-16.1,2.3c-3.8,2.4-6.3,7.9-8.9,13.6c-2.7,6-5.5,12.1-10.4,16.4
		c-4.9,4.2-11.5,6.1-17.9,7.9c-6.1,1.7-11.9,3.4-14.9,6.7c-3,3.4-3.8,9.3-4.6,15.5c-0.9,6.5-1.8,13.2-5.4,18.7
		c-3.5,5.4-9.3,9-14.9,12.5c-5.4,3.4-10.5,6.6-12.4,10.7c-1.9,4-1,9.9,0,16.1c1,6.5,2,13.2,0.2,19.5c-1.8,6.1-6.3,11.2-10.6,16
		c-4.2,4.8-8.2,9.3-8.9,13.8c-0.6,4.3,1.9,9.6,4.6,15.3c2.8,6,5.7,12.2,5.7,18.8c0,6.6-2.9,12.8-5.7,18.8c-2.7,5.6-5.2,11-4.6,15.3
		c0.7,4.5,4.7,9,8.9,13.8c4.3,4.9,8.8,9.9,10.6,16c1.9,6.3,0.8,13-0.2,19.5c-0.9,6.2-1.8,12.1,0,16.1c1.9,4.1,7,7.3,12.4,10.7
		c5.6,3.5,11.3,7.1,14.9,12.5c3.5,5.5,4.5,12.2,5.4,18.7c0.9,6.2,1.7,12.1,4.6,15.5c3,3.4,8.7,5,14.9,6.7c6.4,1.8,12.9,3.7,17.9,7.9
		c4.9,4.2,7.7,10.4,10.4,16.4c2.6,5.8,5,11.2,8.9,13.6c3.8,2.4,9.8,2.4,16.1,2.3c6.6,0,13.5-0.1,19.4,2.6
		c5.9,2.7,10.3,7.8,14.6,12.7c4.2,4.8,8.1,9.4,12.5,10.7c4.3,1.2,10-0.5,16-2.3C202.3,475.1,207.7,473.5,213.1,473.5z"></path></g>
</g>
</svg>