<?xml version="1.0" encoding="utf-8"?>
<!-- Generator: Adobe Illustrator 19.1.0, SVG Export Plug-In . SVG Version: 6.00 Build 0)  -->
<!DOCTYPE svg PUBLIC "-//W3C//DTD SVG 1.1//EN" "http://www.w3.org/Graphics/SVG/1.1/DTD/svg11.dtd">
<svg version="1.1" id="Layer_1" xmlns="http://www.w3.org/2000/svg" xmlns:xlink="http://www.w3.org/1999/xlink" x="0px" y="0px"
	 viewBox="-8.4 -10 515 519.8" enable-background="new -8.4 -10 515 519.8" xml:space="preserve">
<g id="change2">
	<path fill="#7D8693" d="M488.5,249.9c0-11.9,12.1-24.5,10.5-35.9c-1.7-11.7-16.8-20.4-20.1-31.5c-3.3-11.3,4.7-26.8-0.1-37.4
		c-4.9-10.7-21.9-14.8-28.2-24.6c-6.4-9.9-3-27-10.7-35.9c-7.7-8.8-25.1-8-34-15.6c-8.8-7.7-10.4-25.1-20.3-31.4
		c-9.8-6.3-26.3-0.6-37-5.5c-10.6-4.8-17-21.1-28.3-24.4c-11.1-3.3-25.3,6.9-37,5.2C271.8,11.3,261-2.5,249.1-2.5
		c-11.9,0-22.7,13.8-34.1,15.4c-11.7,1.7-25.9-8.5-37-5.2c-11.3,3.3-17.8,19.6-28.3,24.4c-10.7,4.9-27.2-0.9-37,5.5
		c-9.9,6.4-11.5,23.8-20.3,31.4c-8.8,7.7-26.3,6.8-34,15.6c-7.7,8.8-4.3,26-10.7,35.9c-6.3,9.8-23.3,13.9-28.2,24.6
		c-4.8,10.6,3.2,26.1-0.1,37.4C16.1,193.6,0.9,202.3-0.7,214c-1.6,11.4,10.5,24,10.5,35.9c0,11.9-12.1,24.5-10.5,35.9
		c1.7,11.7,16.8,20.4,20.1,31.5c3.3,11.3-4.7,26.8,0.1,37.4c4.9,10.7,21.9,14.8,28.2,24.6c6.4,9.9,3,27,10.7,35.9
		c7.7,8.8,25.1,8,34,15.6c8.8,7.7,10.4,25.1,20.3,31.4c9.8,6.3,26.3,0.6,37,5.5c10.6,4.8,17,21.1,28.3,24.4
		c11.1,3.3,25.3-6.9,37-5.2c11.4,1.6,22.2,15.4,34.1,15.4c11.9,0,22.7-13.8,34.1-15.4c11.7-1.7,25.9,8.5,37,5.2
		c11.3-3.3,17.8-19.6,28.3-24.4c10.7-4.9,27.2,0.9,37-5.5c9.9-6.4,11.5-23.8,20.3-31.4c8.8-7.7,26.3-6.8,34-15.6
		c7.7-8.8,4.3-26,10.7-35.9c6.3-9.8,23.3-13.9,28.2-24.6c4.8-10.6-3.2-26.1,0.1-37.4c3.3-11.1,18.4-19.8,20.1-31.5
		C500.6,274.4,488.5,261.8,488.5,249.9z"/>
</g>
<g id="change1">
	<path fill="#FFFFFF" d="M249.1,509.8c-8.6,0-16-4.8-22.5-9.1c-4.6-3-9-5.9-12.6-6.4c-3.9-0.5-9,1-14.4,2.6
		c-7.4,2.2-15.7,4.8-23.7,2.4c-8.2-2.4-13.9-9.1-18.9-15c-3.6-4.2-7-8.2-10.4-9.8c-3.5-1.6-8.8-1.6-14.4-1.5
		c-7.7,0.1-16.5,0.1-23.5-4.5c-7.1-4.6-10.7-12.6-13.9-19.7c-2.3-5.1-4.4-9.9-7.3-12.4c-2.9-2.5-8-3.9-13.3-5.5
		c-7.4-2.1-15.9-4.5-21.4-10.9c-5.5-6.4-6.7-15.1-7.8-22.7c-0.8-5.5-1.5-10.8-3.5-14c-2-3.2-6.5-6-11.2-8.9
		c-6.6-4.1-14-8.8-17.5-16.6c-3.5-7.6-2.2-16.3-1-23.9c0.8-5.6,1.6-10.8,0.5-14.5c-1-3.6-4.5-7.5-8.2-11.7
		c-5.1-5.8-11-12.5-12.2-20.9c-1.2-8.2,2.5-16.1,5.7-23.1c2.4-5.1,4.7-10,4.7-13.9c0-3.9-2.3-8.8-4.7-13.9
		c-3.2-6.9-6.9-14.8-5.7-23.1c1.2-8.5,7-15.1,12.2-20.9c3.7-4.2,7.1-8.1,8.2-11.6c1.1-3.7,0.3-9-0.5-14.5c-1.2-7.6-2.5-16.2,1-23.9
		c3.5-7.7,11-12.4,17.5-16.6c4.7-3,9.2-5.8,11.2-8.9c2.1-3.2,2.8-8.5,3.5-14c1-7.6,2.2-16.3,7.8-22.7c5.5-6.4,14-8.8,21.4-10.9
		c5.4-1.5,10.5-3,13.3-5.5c2.9-2.5,5-7.3,7.3-12.4c3.2-7.1,6.7-15.1,13.9-19.7c7.1-4.6,15.8-4.5,23.5-4.5c5.6,0,10.9,0.1,14.4-1.5
		c3.4-1.6,6.8-5.6,10.4-9.8c5-5.9,10.7-12.6,18.9-15c8-2.4,16.4,0.2,23.7,2.4c5.4,1.6,10.5,3.2,14.4,2.6c3.7-0.5,8-3.4,12.6-6.4
		c6.5-4.3,13.9-9.1,22.5-9.1s16,4.8,22.5,9.1c4.6,3,9,5.9,12.6,6.4c3.9,0.6,9-1,14.4-2.6c7.4-2.2,15.7-4.8,23.7-2.4
		c8.2,2.4,13.9,9.1,18.9,15c3.6,4.2,7,8.2,10.4,9.8c3.5,1.6,8.8,1.6,14.4,1.5c7.7-0.1,16.5-0.1,23.5,4.5
		c7.1,4.6,10.7,12.6,13.9,19.7c2.3,5.1,4.4,9.9,7.3,12.4c2.9,2.5,8,3.9,13.3,5.5c7.4,2.1,15.9,4.5,21.4,10.9
		c5.5,6.4,6.7,15.1,7.8,22.7c0.8,5.5,1.5,10.8,3.5,14c2,3.2,6.5,6,11.2,8.9c6.6,4.1,14,8.8,17.5,16.6c3.5,7.6,2.2,16.3,1,23.9
		c-0.8,5.6-1.6,10.8-0.5,14.5c1,3.6,4.5,7.5,8.2,11.7c5.1,5.8,11,12.5,12.2,20.9c1.2,8.2-2.5,16.1-5.7,23.1
		c-2.4,5.1-4.7,10-4.7,13.9c0,3.9,2.3,8.8,4.7,13.9c3.2,6.9,6.9,14.8,5.7,23.1c-1.2,8.5-7,15.1-12.2,20.9c-3.7,4.2-7.1,8.1-8.2,11.6
		c-1.1,3.7-0.3,9,0.5,14.5c1.2,7.6,2.5,16.2-1,23.9c-3.5,7.7-11,12.4-17.5,16.6c-4.7,3-9.2,5.8-11.2,8.9c-2.1,3.2-2.8,8.5-3.5,14
		c-1,7.6-2.2,16.3-7.8,22.7c-5.5,6.4-14,8.8-21.4,10.9c-5.4,1.5-10.5,3-13.3,5.5c-2.9,2.5-5,7.3-7.3,12.4
		c-3.2,7.1-6.7,15.1-13.9,19.7c-7.1,4.6-15.8,4.5-23.5,4.5c-5.6,0-10.9-0.1-14.4,1.5c-3.4,1.6-6.8,5.6-10.4,9.8
		c-5,5.9-10.7,12.6-18.9,15c-8,2.4-16.4-0.2-23.7-2.4c-5.4-1.6-10.5-3.2-14.4-2.6c-3.7,0.5-8,3.4-12.6,6.4
		C265.1,505,257.7,509.8,249.1,509.8z M212.3,479.2c1.3,0,2.5,0.1,3.8,0.3c7,1,12.9,4.9,18.7,8.7c5.2,3.4,10.2,6.7,14.3,6.7
		c4.1,0,9.1-3.2,14.3-6.7c5.8-3.8,11.8-7.7,18.7-8.7c7.1-1,14.1,1.1,20.8,3.1c5.6,1.7,11.4,3.5,15.2,2.4c3.9-1.1,7.7-5.6,11.7-10.3
		c4.5-5.3,9.2-10.7,15.6-13.7c6.5-3,13.8-2.9,20.7-2.9c5.9,0,12,0.1,15.3-2.1c3.4-2.2,5.8-7.5,8.3-13.2c2.8-6.4,5.8-12.9,11.2-17.6
		c5.4-4.7,12.3-6.7,19-8.6c5.9-1.7,11.6-3.3,14.2-6.3c2.6-3,3.4-8.8,4.2-14.9c0.9-6.9,1.9-14.1,5.8-20.1c3.8-6,9.9-9.8,15.8-13.5
		c5.2-3.3,10.2-6.4,11.9-10.1c1.6-3.6,0.7-9.6-0.2-15.4c-1-6.9-2.1-14.1-0.1-21c2-6.8,6.7-12.1,11.3-17.3c4.1-4.7,8-9.1,8.6-13.2
		c0.5-3.8-2-9.3-4.5-14.6c-3-6.4-6.1-13-6.1-20.3s3.1-13.9,6.1-20.3c2.5-5.3,5-10.8,4.5-14.6c-0.6-4.1-4.5-8.5-8.6-13.2
		c-4.6-5.2-9.3-10.6-11.3-17.3c-2-6.9-0.9-14.1,0.1-21c0.9-5.8,1.8-11.8,0.2-15.4c-1.7-3.7-6.6-6.8-11.9-10.1
		c-5.9-3.7-12-7.5-15.8-13.5c-3.9-6-4.9-13.2-5.8-20.1c-0.8-6.1-1.6-11.9-4.2-14.9c-2.6-3-8.2-4.6-14.2-6.3
		c-6.7-1.9-13.7-3.9-19.1-8.6c-5.4-4.7-8.3-11.3-11.2-17.6c-2.5-5.7-4.9-11-8.3-13.2c-3.3-2.1-9.2-2.1-15.3-2.1
		c-7,0-14.2,0.1-20.7-2.9c-6.4-2.9-11.1-8.4-15.6-13.7c-4-4.7-7.8-9.2-11.7-10.3c-3.7-1.1-9.6,0.7-15.2,2.4
		c-6.7,2-13.7,4.1-20.8,3.1c-7-1-12.9-4.9-18.7-8.7C258.2,8.3,253.2,5,249.1,5s-9.1,3.2-14.3,6.7c-5.8,3.8-11.8,7.7-18.7,8.7
		c-7.2,1-14.1-1.1-20.8-3.1c-5.6-1.7-11.4-3.5-15.2-2.4c-3.9,1.1-7.7,5.6-11.7,10.3c-4.5,5.3-9.2,10.7-15.6,13.7
		c-6.5,3-13.8,2.9-20.7,2.9c-6.2,0-12-0.1-15.3,2.1c-3.4,2.2-5.8,7.5-8.3,13.2c-2.8,6.4-5.8,12.9-11.2,17.6
		c-5.4,4.7-12.3,6.7-19.1,8.6c-5.9,1.7-11.6,3.3-14.2,6.3c-2.6,3-3.4,8.8-4.2,14.9c-0.9,6.9-1.9,14.1-5.8,20.1
		c-3.8,6-9.9,9.8-15.8,13.5c-5.2,3.3-10.2,6.4-11.9,10.1c-1.6,3.6-0.7,9.6,0.2,15.4c1,6.9,2.1,14.1,0.1,21
		c-2,6.8-6.7,12.1-11.3,17.3c-4.1,4.7-8,9.1-8.6,13.2c-0.5,3.8,2,9.3,4.5,14.6c3,6.4,6.1,13,6.1,20.3s-3.1,13.9-6.1,20.3
		c-2.5,5.3-5,10.8-4.5,14.6c0.6,4.1,4.5,8.5,8.6,13.2c4.6,5.2,9.3,10.6,11.3,17.3c2,6.9,0.9,14.1-0.1,21c-0.9,5.8-1.8,11.8-0.2,15.4
		c1.7,3.7,6.6,6.8,11.9,10.1c5.9,3.7,12,7.5,15.8,13.5c3.9,6,4.9,13.2,5.8,20.1c0.8,6.1,1.6,11.9,4.2,14.9c2.6,3,8.2,4.6,14.2,6.3
		c6.7,1.9,13.7,3.9,19.1,8.6c5.4,4.7,8.3,11.3,11.2,17.6c2.5,5.7,4.9,11,8.3,13.2c3.3,2.1,9.2,2.1,15.3,2.1c7,0,14.2-0.1,20.7,2.9
		c6.4,2.9,11.1,8.4,15.6,13.7c4,4.7,7.8,9.2,11.7,10.3c3.8,1.1,9.6-0.7,15.2-2.4C200.8,480.9,206.4,479.2,212.3,479.2z"/>
</g>
</svg>
