<?xml version="1.0" encoding="utf-8"?><!DOCTYPE svg PUBLIC "-//W3C//DTD SVG 1.1//EN" "http://www.w3.org/Graphics/SVG/1.1/DTD/svg11.dtd">
<svg version="1.1" id="Layer_1" xmlns="http://www.w3.org/2000/svg" xmlns:xlink="http://www.w3.org/1999/xlink" x="0px" y="0px" viewBox="-0.9 -1.5 500 500" enable-background="new -0.9 -1.5 500 500" xml:space="preserve">
<g>
	<g id="change1_1"><path fill="#FFFFFF" d="M249.1,498.5c-24.5,0-46.6-13.7-57.6-34.9c-20.2,12.9-46.2,13.7-67.4,1.4s-33.5-35.2-32.4-59.1
		c-23.9,1.1-46.8-11.2-59.1-32.4c-12.2-21.2-11.4-47.2,1.5-67.4C12.8,295.1-0.9,273-0.9,248.5c0-24.5,13.7-46.6,34.9-57.6
		c-12.9-20.2-13.7-46.2-1.5-67.4C44.8,102.3,67.7,90,91.6,91.1c-1-23.9,11.2-46.8,32.4-59.1c21.2-12.2,47.2-11.4,67.4,1.5
		c11.1-21.2,33.1-34.9,57.6-34.9c24.5,0,46.6,13.7,57.6,34.9c20.2-12.9,46.2-13.7,67.4-1.5c21.2,12.2,33.5,35.2,32.4,59.1
		c23.9-1,46.8,11.2,59.1,32.4c12.2,21.2,11.4,47.2-1.4,67.4c21.2,11.1,34.9,33.1,34.9,57.6c0,24.5-13.7,46.6-34.9,57.6
		c12.9,20.2,13.7,46.2,1.4,67.4c-12.2,21.2-35.1,33.5-59.1,32.4c1,23.9-11.2,46.8-32.4,59.1s-47.2,11.4-67.4-1.4
		C295.6,484.8,273.5,498.5,249.1,498.5z M197.9,439.6l3.5,10.3c7,20.4,26.1,34.1,47.7,34.1s40.7-13.7,47.7-34.1l3.5-10.3l8.2,7.1
		c16.2,14.2,39.7,16.4,58.3,5.7c18.7-10.8,28.4-32.2,24.3-53.4l-2.1-10.6l10.6,2.1c21.1,4.2,42.6-5.6,53.4-24.3
		c10.8-18.7,8.5-42.1-5.7-58.3l-7.1-8.2l10.3-3.5c20.4-7,34.1-26.1,34.1-47.7s-13.7-40.7-34.1-47.7l-10.3-3.5l7.1-8.2
		c14.2-16.2,16.4-39.7,5.7-58.3c-10.8-18.7-32.2-28.4-53.4-24.3l-10.6,2.1L391,98c4.2-21.1-5.6-42.6-24.3-53.4
		c-18.7-10.8-42.1-8.5-58.3,5.7l-8.2,7.1l-3.5-10.3c-7-20.4-26.1-34.1-47.7-34.1s-40.7,13.7-47.7,34.1l-3.5,10.3l-8.2-7.1
		c-16.2-14.2-39.7-16.4-58.3-5.7c-18.7,10.8-28.4,32.2-24.3,53.4l2.1,10.6l-10.6-2.1c-21.1-4.2-42.6,5.6-53.4,24.3
		c-10.8,18.7-8.5,42.1,5.7,58.3l7.1,8.2l-10.3,3.5c-20.4,7-34.1,26.1-34.1,47.7s13.7,40.7,34.1,47.7l10.3,3.5l-7.1,8.2
		c-14.2,16.2-16.4,39.7-5.7,58.3c10.8,18.7,32.2,28.4,53.4,24.3l10.6-2.1l-2.1,10.6c-4.2,21.1,5.6,42.6,24.3,53.4
		c18.7,10.8,42.1,8.5,58.3-5.7L197.9,439.6z"></path></g>
</g>
</svg>