<?xml version="1.0" encoding="utf-8"?><!DOCTYPE svg PUBLIC "-//W3C//DTD SVG 1.1//EN" "http://www.w3.org/Graphics/SVG/1.1/DTD/svg11.dtd">
<svg version="1.1" id="Layer_1" xmlns="http://www.w3.org/2000/svg" xmlns:xlink="http://www.w3.org/1999/xlink" x="0px" y="0px" viewBox="0 0 500 500" enable-background="new 0 0 500 500" xml:space="preserve">
<g>
	<g id="change1_1"><path fill="#7D8693" d="M500,250c0-26.1-16.8-48.2-40.2-56.2c16.2-18.6,19.7-46.2,6.7-68.8s-38.7-33.4-62.9-28.6
		c4.8-24.2-6-49.9-28.6-62.9s-50.2-9.6-68.8,6.7C298.2,16.8,276.1,0,250,0s-48.2,16.8-56.2,40.2C175.2,24,147.6,20.5,125,33.5
		S91.6,72.2,96.4,96.4c-24.2-4.8-49.9,6-62.9,28.6s-9.6,50.2,6.7,68.8C16.8,201.8,0,223.9,0,250s16.8,48.2,40.2,56.2
		C24,324.8,20.5,352.4,33.5,375c13,22.6,38.7,33.4,62.9,28.6c-4.8,24.2,6,49.9,28.6,62.9s50.2,9.6,68.8-6.7
		c8,23.4,30.1,40.2,56.2,40.2s48.2-16.8,56.2-40.2c18.6,16.2,46.2,19.7,68.8,6.7c22.6-13,33.4-38.7,28.6-62.9
		c24.2,4.8,49.9-6,62.9-28.6s9.6-50.2-6.7-68.8C483.2,298.2,500,276.1,500,250z"></path></g>
</g>
<g>
	<g id="change2_1"><circle fill="#FFFFFF" cx="250" cy="250" r="204.2"></circle></g>
</g>
</svg>