<?xml version="1.0" encoding="utf-8"?>
<!-- Generator: Adobe Illustrator 19.1.0, SVG Export Plug-In . SVG Version: 6.00 Build 0)  -->
<!DOCTYPE svg PUBLIC "-//W3C//DTD SVG 1.1//EN" "http://www.w3.org/Graphics/SVG/1.1/DTD/svg11.dtd">
<svg version="1.1" id="Layer_1" xmlns="http://www.w3.org/2000/svg" xmlns:xlink="http://www.w3.org/1999/xlink" x="0px" y="0px"
	 viewBox="-1.1 28.8 500 442.9" enable-background="new -1.1 28.8 500 442.9" xml:space="preserve">
<g id="change2">
	<path fill="#7D8693" d="M365,38.2c-52.8,0-98.2,33.8-116.1,80.2C230.9,72,185.6,38.2,132.8,38.2C64.2,38.2,8.2,94.1,8.2,162.7
		c0,134,240.6,297.6,240.6,297.6s239.6-164.6,240.6-297.6C489.5,94.1,433.6,38.2,365,38.2z"/>
</g>
<g id="change1">
	<path fill="#FFFFFF" d="M248.9,471.7l-5.3-3.6c-0.6-0.4-61.5-42-121.5-99.5c-35.4-34-63.7-66.8-84.1-97.6
		c-26-39.4-39.1-75.8-39.1-108.2c0-73.8,60.1-133.9,133.9-133.9c27.4,0,53.9,8.4,76.5,24.4c16.4,11.6,29.8,26.4,39.6,43.4
		c9.8-17.1,23.2-31.9,39.6-43.4c22.6-16,49.1-24.4,76.5-24.4c73.8,0,133.9,60.1,133.9,133.9l0,0.1c-0.3,32.2-13.6,68.4-39.6,107.7
		c-20.4,30.8-48.6,63.6-84,97.7c-59.9,57.7-120.5,99.5-121.1,99.9L248.9,471.7z M132.8,47.6c-63.5,0-115.2,51.7-115.2,115.2
		c0,28.7,12.1,61.6,36.1,97.9c19.6,29.7,47,61.4,81.4,94.4c48.7,46.7,97.9,82.6,113.8,93.9c15.9-11.3,65-47.6,113.6-94.4
		c34.3-33.1,61.6-64.8,81.2-94.4c23.9-36.2,36.2-68.9,36.4-97.4c0-63.5-51.7-115.1-115.2-115.1c-47.1,0-90.2,29.8-107.4,74.2
		l-8.7,22.6l-8.7-22.6C223,77.4,179.8,47.6,132.8,47.6z"/>
</g>
</svg>
