<?xml version="1.0" encoding="utf-8"?>
<!-- Generator: Adobe Illustrator 19.1.0, SVG Export Plug-In . SVG Version: 6.00 Build 0)  -->
<!DOCTYPE svg PUBLIC "-//W3C//DTD SVG 1.1//EN" "http://www.w3.org/Graphics/SVG/1.1/DTD/svg11.dtd">
<svg version="1.1" id="Layer_1" xmlns="http://www.w3.org/2000/svg" xmlns:xlink="http://www.w3.org/1999/xlink" x="0px" y="0px"
	 viewBox="93.6 62.7 515 625.6" enable-background="new 93.6 62.7 515 625.6" xml:space="preserve">
<g id="change2">
	<path fill="#7D8693" d="M351.1,680.8L351.1,680.8c-138.1,0-250-111.9-250-250V70.2h500v360.6C601.1,568.8,489.2,680.8,351.1,680.8z
		"/>
</g>
<g id="change1">
	<path fill="#FFFFFF" d="M351.1,688.3c-68.8,0-133.4-26.8-182.1-75.4S93.6,499.5,93.6,430.8V62.7h515v368.1
		c0,68.8-26.8,133.4-75.4,182.1C484.6,661.5,419.9,688.3,351.1,688.3z M108.6,77.7v353.1c0,64.8,25.2,125.7,71,171.5
		c45.8,45.8,106.7,71,171.5,71h0c64.8,0,125.7-25.2,171.5-71c45.8-45.8,71-106.7,71-171.5V77.7H108.6z"/>
</g>
</svg>
