<?xml version="1.0" encoding="utf-8"?>
<!-- Generator: Adobe Illustrator 21.0.0, SVG Export Plug-In . SVG Version: 6.00 Build 0)  -->
<svg version="1.1" id="Outlined-Start-Decor-D5" xmlns="http://www.w3.org/2000/svg" xmlns:xlink="http://www.w3.org/1999/xlink"
	 x="0px" y="0px" viewBox="0 0 493.6265 493.626" enable-background="new 0 0 493.6265 493.626" xml:space="preserve">
<g id="change1">
	<path fill="#213DFF" d="M466.7168,246.8137v-0.0013l26.9097-39.0906l-37.6729-28.8628l13.5127-45.4932l-44.748-15.8086
	l-1.2061-47.4429l-47.4416-1.2065l-0.0024-0.0018l-15.808-44.7463L314.768,37.6725l-0.0015-0.0005L285.9048,0l-39.0903,26.9091
	h-0.003L207.7217,0l-28.8623,37.6722l-0.0013,0.0004l-45.4929-13.5129l-15.8069,44.7462l-0.0027,0.002l-47.4409,1.2065
	l-1.2065,47.4429l-44.7485,15.8086l13.5137,45.4932L0,207.7217l26.9096,39.0905v0.0016L0,285.9043l37.6733,28.8623l-13.5137,45.4941
	l44.7485,15.8086l1.2065,47.4424l47.4414,1.207l0.002,0.0015l15.8076,44.7466l45.4918-13.5131l0.003,0.001l28.8611,37.6713
	l39.0906-26.9097h0.0014l39.0911,26.9097l28.8618-37.6721l0.0014-0.0005l45.4923,13.5134l15.8086-44.748l47.4434-1.207
	l1.2061-47.4424l44.748-15.8086l-13.5127-45.4941l37.6729-28.8623L466.7168,246.8137z M480.0005,209.8799l-21.9828,31.9331h-38.4325
	c-0.4315-15.1072-2.8156-29.7321-6.9-43.638l36.5401-11.8726L480.0005,209.8799z M457.1733,139.6284l-11.0382,37.1634
	l-36.5461,11.8746c-5.0278-14.0324-11.8192-27.2303-20.1097-39.3267l31.1403-22.6249L457.1733,139.6284z M413.7563,79.8691
	l0.9854,38.7565l-31.1515,22.6329c-8.9465-11.5662-19.3219-21.9717-30.8642-30.9478l22.9461-31.4095L413.7563,79.8691z
	 M317.4786,47.2988l36.5179-10.8472l13.1367,37.1862l-22.476,30.766c-12.0755-8.3226-25.2534-15.1524-39.2711-20.2167
	L317.4786,47.2988z M252.3655,35.2285l31.381-21.6025l23.9846,31.3064l-11.8463,36.1374
	c-13.8969-4.1218-28.5164-6.5418-43.6207-7.0123L252.3655,35.2285z M209.8799,13.626l31.9331,21.9828v38.4315
	c-14.9502,0.4269-29.4289,2.7641-43.205,6.7709l-11.8972-36.944L209.8799,13.626z M139.6289,36.4517l37.8043,11.2291
	l11.6592,36.2054c-14.0471,4.9913-27.2651,11.7444-39.3822,20.003l-22.7716-31.515L139.6289,36.4517z M79.8696,79.8691
	l39.4236-1.0019l22.3228,30.8939c-11.8284,9.1005-22.4496,19.6928-31.5802,31.4969l-31.1519-22.6333L79.8696,79.8691z
	 M36.4517,139.6284l36.5546-12.9137l31.1402,22.6248c-8.2906,12.0963-15.082,25.2941-20.1097,39.3265l-36.5461-11.8746
	L36.4517,139.6284z M13.626,209.8799l30.7751-23.5777l36.5394,11.8724c-4.0437,13.7672-6.4173,28.2399-6.8829,43.1869
	l-38.8294-0.1015L13.626,209.8799z M13.626,283.7461l21.9832-31.9336h38.4311c0.4314,15.1075,2.8157,29.7327,6.9002,43.6389
	l-36.539,11.8723L13.626,283.7461z M36.4517,353.9971l11.0391-37.1635l36.5456-11.8744
	c5.0278,14.0327,11.8195,27.231,20.1102,39.3276l-31.1395,22.6242L36.4517,353.9971z M79.8696,413.7559l-0.9858-38.7541
	l31.1522-22.6335c8.9465,11.566,19.3217,21.9712,30.8636,30.9471l-22.9462,31.4096L79.8696,413.7559z M176.1497,446.3255
	l-36.5208,10.8483l-13.1366-37.1851l22.4763-30.7665c12.076,8.3229,25.2545,15.1528,39.2728,20.2172L176.1497,446.3255z
	 M241.2605,458.3974l-31.3806,21.6016l-23.9833-31.3041l11.8464-36.1381c13.8964,4.1213,28.5153,6.5412,43.6189,7.0117
	L241.2605,458.3974z M246.813,410.6629c-90.4919,0-163.85-73.3582-163.85-163.85s73.3581-163.85,163.85-163.85
	s163.85,73.3582,163.85,163.85S337.3049,410.6629,246.813,410.6629z M283.7466,480l-31.9336-21.9828v-38.4315
	c14.9502-0.4269,29.429-2.7642,43.2051-6.771l11.897,36.9434L283.7466,480z M353.9966,457.1738l-37.8043-11.2297l-11.6589-36.2043
	c14.0471-4.9913,27.2652-11.7446,39.3823-20.0032l22.7715,31.5149L353.9966,457.1738z M413.7563,413.7559l-39.4227,1.0032
	l-22.3234-30.8947c11.8282-9.1005,22.4493-19.6927,31.5798-31.4967l31.1517,22.6331L413.7563,413.7559z M457.1733,353.9971
	l-36.5547,12.9139l-31.1396-22.6244c8.2908-12.0967,15.0823-25.295,20.1102-39.3278l36.5457,11.8744L457.1733,353.9971z
	 M449.2249,307.3234l-36.5397-11.8725c4.0436-13.7672,6.4172-28.2401,6.8828-43.1871l38.8297,0.1013l21.6028,31.381
	L449.2249,307.3234z"/></g>
</svg>
