<?xml version="1.0" encoding="utf-8"?><!DOCTYPE svg PUBLIC "-//W3C//DTD SVG 1.1//EN" "http://www.w3.org/Graphics/SVG/1.1/DTD/svg11.dtd">
<svg version="1.1" id="Layer_1" xmlns="http://www.w3.org/2000/svg" xmlns:xlink="http://www.w3.org/1999/xlink" x="0px" y="0px" viewBox="0 0 451.2 500" enable-background="new 0 0 451.2 500" xml:space="preserve">
<g>
	<g id="change1_1"><path fill="#FFFFFF" d="M445.9,69.6L225.6,1.1l0,0l0,0h0l0,0L5.3,69.6c0,0-53.6,343.6,220.3,429.3l0,0h0l0,0l0,0
		C499.4,413.2,445.9,69.6,445.9,69.6z"></path></g>
	<g id="change1_2"><path fill="#FFFFFF" d="M225.6,500l-0.3-0.1c-62.7-19.6-113.3-54.5-150.5-103.6c-29.7-39.3-50.9-87.7-63.1-144
		c-10.8-50-12.2-97.1-11.6-127.7c0.7-33.2,4.1-55,4.1-55.2l0.1-0.7L225.6,0l221.2,68.8l0.1,0.7c0,0.2,3.4,21.9,4.1,55.2
		c0.7,30.7-0.8,77.7-11.6,127.7c-12.1,56.2-33.4,104.7-63.1,144c-37.2,49.1-87.8,84-150.5,103.6L225.6,500z M6.3,70.4
		c-0.6,3.9-3.3,24.4-4,54.3c-0.7,30.6,0.8,77.4,11.5,127.2C25.9,307.9,47,356,76.5,395c36.8,48.7,87,83.2,149.1,102.7
		c62.1-19.5,112.2-54,149.1-102.7c29.5-39,50.6-87.2,62.7-143.1c10.7-49.8,12.2-96.7,11.5-127.2c-0.7-29.9-3.4-50.4-4-54.3
		L225.6,2.2L6.3,70.4z"></path></g>
</g>
</svg>