<?xml version="1.0" encoding="utf-8"?><!DOCTYPE svg PUBLIC "-//W3C//DTD SVG 1.1//EN" "http://www.w3.org/Graphics/SVG/1.1/DTD/svg11.dtd">
<svg version="1.1" id="Layer_1" xmlns="http://www.w3.org/2000/svg" xmlns:xlink="http://www.w3.org/1999/xlink" x="0px" y="0px" viewBox="22.9 -0.6 451.9 500" enable-background="new 22.9 -0.6 451.9 500" xml:space="preserve">
<g>
	<g id="change1_1"><path fill="#FFFFFF" d="M248.9,499.4l-2-0.6c-62.4-19.5-112.7-54.2-149.8-103.1c-29.5-39-50.6-87.1-62.6-142.8
		c-20.4-94.5-7.9-177.2-7.3-180.7l0.6-4.1l221-68.7l221,68.7l0.6,4.1c0.5,3.5,13,86.2-7.3,180.7c-12,55.7-33.1,103.8-62.6,142.8
		c-37,48.9-87.4,83.6-149.8,103.1L248.9,499.4z M39.7,78.2C37.4,96,30,169.8,47.5,250.5c11.6,53.8,31.9,100,60.3,137.4
		c34.9,46.1,82.4,79,141.1,97.7c58.8-18.8,106.3-51.7,141.2-97.9c28.4-37.5,48.6-83.8,60.2-137.6c17.4-80.6,10-154.2,7.7-171.9
		l-209.2-65L39.7,78.2z"></path></g>
</g>
</svg>