<?xml version="1.0" encoding="utf-8"?>
<!-- Generator: Adobe Illustrator 19.1.0, SVG Export Plug-In . SVG Version: 6.00 Build 0)  -->
<!DOCTYPE svg PUBLIC "-//W3C//DTD SVG 1.1//EN" "http://www.w3.org/Graphics/SVG/1.1/DTD/svg11.dtd">
<svg version="1.1" id="Layer_1" xmlns="http://www.w3.org/2000/svg" xmlns:xlink="http://www.w3.org/1999/xlink" x="0px" y="0px"
	 viewBox="23.8 -0.7 451.7 500" enable-background="new 23.8 -0.7 451.7 500" xml:space="preserve">
<g id="change2">
	<g>
		<path fill="#7D8693" d="M465.1,72.9L249.7,6h0h0L34.4,72.9c0,0-52.4,335.9,215.3,419.7h0h0C517.5,408.8,465.1,72.9,465.1,72.9z"/>
		<path fill="#FFFFFF" d="M249.7,493.6l-0.3-0.1c-61.3-19.2-110.8-53.2-147.1-101.3c-29.1-38.4-49.8-85.7-61.7-140.7
			c-20.2-93.5-7.4-178-7.3-178.8l0.1-0.6L249.7,4.9L250,5L466,72.1l0.1,0.6c0.1,0.8,12.9,85.2-7.3,178.8
			c-11.9,55-32.6,102.3-61.7,140.7c-36.3,48-85.8,82.1-147.1,101.3L249.7,493.6z M35.3,73.7c-1.1,7.8-11.8,88.5,7.4,177.5
			c11.8,54.7,32.4,101.8,61.3,139.9c36,47.6,85.1,81.4,145.8,100.4c60.7-19.1,109.8-52.9,145.8-100.5c28.9-38.2,49.5-85.3,61.3-140
			c19.2-89,8.5-169.7,7.4-177.5L249.7,7L35.3,73.7z"/>
	</g>
</g>
<path fill="#FFFFFF" d="M475.5,126.6c-0.7-32.9-3.9-53.8-4.1-54.6l-0.6-3.9L250.5-0.5l-0.7-0.2L28.7,68l-0.6,3.9
	c-0.1,0.9-3.3,21.9-4.1,54.6c-0.7,30.3,0.8,76.7,11.4,126.1c12,55.8,33.1,103.8,62.6,142.8c37,48.9,87.4,83.6,149.8,103.2l1.9,0.6
	l1.9-0.6c62.4-19.5,112.8-54.2,149.8-103.2c29.5-39,50.6-87.1,62.6-142.8C474.7,203.3,476.1,156.8,475.5,126.6z M249.7,12.6
	l209.6,65.1c2.2,17.7,9.7,91.4-7.7,172.2c-11.6,53.9-31.9,100.3-60.3,137.8c-35,46.3-82.6,79.3-141.5,98.1
	c-58.9-18.8-106.4-51.8-141.4-98c-28.4-37.5-48.7-83.8-60.4-137.7C37.5,202,36.1,156.7,36.7,127.1c0.5-23.9,2.4-41.5,3.4-49.3
	L249.7,12.6z"/>
</svg>
