<?xml version="1.0" encoding="utf-8"?>
<!-- Generator: Adobe Illustrator 19.1.0, SVG Export Plug-In . SVG Version: 6.00 Build 0)  -->
<!DOCTYPE svg PUBLIC "-//W3C//DTD SVG 1.1//EN" "http://www.w3.org/Graphics/SVG/1.1/DTD/svg11.dtd">
<svg version="1.1" id="Layer_1" xmlns="http://www.w3.org/2000/svg" xmlns:xlink="http://www.w3.org/1999/xlink" x="0px" y="0px"
	 viewBox="0 0 500 500" enable-background="new 0 0 500 500" xml:space="preserve">
<g id="change1">
	<g id="NW">
		<g>
			<path fill="#FFFFFF" d="M166.6,0H48.8c0,26.9-21.8,48.8-48.8,48.8v117.8h166.6V0z"/>
		</g>
	</g>
	<g id="N">
		<g>
			<rect x="161.9" fill="#FFFFFF" width="176" height="166.5"/>
		</g>
	</g>
	<g id="NE">
		<g>
			<path fill="#FFFFFF" d="M500,166.5V48.8c-26.9,0-48.8-21.8-48.8-48.8H333.4v166.5H500z"/>
		</g>
	</g>
	<g id="W">
		<g>
			<rect y="162.3" fill="#FFFFFF" width="166.6" height="175.3"/>
		</g>
	</g>
	<g id="C">
		<g>
			<rect x="161.9" y="162.3" fill="#FFFFFF" width="176" height="175.3"/>
		</g>
	</g>
	<g id="E">
		<g>
			<rect x="333.4" y="162.3" fill="#FFFFFF" width="166.6" height="175.3"/>
		</g>
	</g>
	<g id="SW">
		<g>
			<path fill="#FFFFFF" d="M0,333.3v117.9c26.9,0,48.8,21.8,48.8,48.8h117.8V333.3H0z"/>
		</g>
	</g>
	<g id="S">
		<g>
			<rect x="161.9" y="333.3" fill="#FFFFFF" width="176" height="166.7"/>
		</g>
	</g>
	<g id="SE">
		<g>
			<path fill="#FFFFFF" d="M333.4,500h117.8c0-26.9,21.8-48.8,48.8-48.8V333.3H333.4V500z"/>
		</g>
	</g>
</g>
</svg>
