<?xml version="1.0" encoding="utf-8"?><!DOCTYPE svg PUBLIC "-//W3C//DTD SVG 1.1//EN" "http://www.w3.org/Graphics/SVG/1.1/DTD/svg11.dtd">
<svg version="1.1" id="Layer_1" xmlns="http://www.w3.org/2000/svg" xmlns:xlink="http://www.w3.org/1999/xlink" x="0px" y="0px" viewBox="-81.3 54.8 500 500" enable-background="new -81.3 54.8 500 500" xml:space="preserve">
<g id="change1_1"><path fill="#FFFFFF" d="M356.7,69.8c5.6,23.1,23.9,41.4,47,47v100.3v4.3v166.8v4.3v100.4c-23.1,5.6-41.4,23.9-47,47H256.6h-4.5H85.3
	h-4.7h-99.9c-5.6-23.1-23.9-41.4-47-47V392.4v-4.3V221.3v-4.3V116.8c23.1-5.6,41.4-23.9,47-47h99.9h4.7h166.8h4.5H356.7 M369.9,54.8
	H256.6h-4.5H85.3h-4.7H-32.5c0,26.9-21.8,48.8-48.8,48.8v113.5v4.3v166.8v4.3V506c26.9,0,48.8,21.8,48.8,48.8H80.6h4.7h166.8h4.5
	h113.4c0-26.9,21.8-48.8,48.8-48.8V392.4v-4.3V221.3v-4.3V103.6C391.8,103.6,369.9,81.7,369.9,54.8L369.9,54.8z"></path></g>
</svg>