<?xml version="1.0" encoding="utf-8"?><!DOCTYPE svg PUBLIC "-//W3C//DTD SVG 1.1//EN" "http://www.w3.org/Graphics/SVG/1.1/DTD/svg11.dtd">
<svg version="1.1" id="Layer_1" xmlns="http://www.w3.org/2000/svg" xmlns:xlink="http://www.w3.org/1999/xlink" x="0px" y="0px" viewBox="-81.6 55.2 500 500" enable-background="new -81.6 55.2 500 500" xml:space="preserve">
<g>
	<g id="change1_1"><path fill="#7D8693" d="M-25.9,547.7c-3.3-25-23.2-44.9-48.3-48.3V111c25-3.3,44.9-23.2,48.3-48.3h388.4
		c3.3,25,23.2,44.9,48.3,48.3v388.4c-25,3.3-44.9,23.2-48.3,48.3H-25.9z"></path></g>
	<g id="change2_1"><path fill="#FFFFFF" d="M356.4,70.2c5.6,23.1,23.9,41.4,47,47v100.3v4.3v166.8v4.3v100.4c-23.1,5.6-41.4,23.9-47,47H256.2h-4.5H85
		h-4.7h-99.9c-5.6-23.1-23.9-41.4-47-47V392.8v-4.3V221.8v-4.3V117.2c23.1-5.6,41.4-23.9,47-47h99.9H85h166.8h4.5H356.4 M369.6,55.2
		H256.2h-4.5H85h-4.7H-32.9c0,26.9-21.8,48.8-48.8,48.8v113.5v4.3v166.8v4.3v113.6c26.9,0,48.8,21.8,48.8,48.8H80.2H85h166.8h4.5
		h113.4c0-26.9,21.8-48.8,48.8-48.8V392.8v-4.3V221.8v-4.3V104C391.4,104,369.6,82.2,369.6,55.2L369.6,55.2z"></path></g>
</g>
</svg>