<?xml version="1.0" encoding="utf-8"?><!DOCTYPE svg PUBLIC "-//W3C//DTD SVG 1.1//EN" "http://www.w3.org/Graphics/SVG/1.1/DTD/svg11.dtd">
<svg version="1.1" id="Layer_1" xmlns="http://www.w3.org/2000/svg" xmlns:xlink="http://www.w3.org/1999/xlink" x="0px" y="0px" viewBox="0 0 500 500" enable-background="new 0 0 500 500" xml:space="preserve">
<g id="change1_1"><path fill="#FFFFFF" d="M0,250c21.9,0,57.5-38.4,36.9-71.8c-7.6-12.3-16.6-23.4-22.6-36.4c-10.6-23-3.8-52.6,13.5-70.5
	s43.4-24.8,67.4-21.3c16.5,2.4,32.1,9.2,48.4,12.4c15.1,2.9,30.7,2.8,45.8-0.6c14.8-3.3,29.2-9.7,40.5-20.3S249.2,15.9,250,0
	c0.8,15.9,8.8,30.9,20.1,41.5s25.7,17,40.5,20.3c15,3.3,30.7,3.5,45.8,0.6c16.3-3.2,32-10,48.4-12.4c24.1-3.5,50.1,3.3,67.4,21.3
	s24.1,47.5,13.5,70.5c-6,13.1-15,24.1-22.6,36.4c-20.6,33.4,15,71.8,36.9,71.8c-21.9,0-57.5,38.4-36.9,71.8
	c7.6,12.3,16.6,23.4,22.6,36.4c10.6,23,3.8,52.6-13.5,70.5c-17.3,17.9-43.4,24.8-67.4,21.3c-16.5-2.4-32.1-9.2-48.4-12.4
	c-15.1-2.9-30.7-2.8-45.8,0.6c-14.8,3.3-29.2,9.7-40.5,20.3S250.8,484.1,250,500c-0.8-15.9-8.8-30.9-20.1-41.5s-25.7-17-40.5-20.3
	c-15-3.3-30.7-3.5-45.8-0.6c-16.3,3.2-32,10-48.4,12.4c-24.1,3.5-50.1-3.3-67.4-21.3s-24.1-47.5-13.5-70.5c6-13.1,15-24.1,22.6-36.4
	C57.5,288.4,21.9,250,0,250z"></path></g>
</svg>