<?xml version="1.0" encoding="utf-8"?><!DOCTYPE svg PUBLIC "-//W3C//DTD SVG 1.1//EN" "http://www.w3.org/Graphics/SVG/1.1/DTD/svg11.dtd">
<svg version="1.1" id="Layer_1" xmlns="http://www.w3.org/2000/svg" xmlns:xlink="http://www.w3.org/1999/xlink" x="0px" y="0px" viewBox="-81.6 55.2 500 500" enable-background="new -81.6 55.2 500 500" xml:space="preserve">
<g>
	<g id="change1_1"><path fill="#FFFFFF" d="M168.1,95.7c2.9,3.9,6.2,7.7,9.8,11.1c12.3,11.6,28.8,19.9,47.5,24c9,2,18.2,3,27.5,3
		c8.2,0,16.4-0.8,24.4-2.4c8.1-1.6,15.9-3.9,23.3-6.2c8.5-2.6,16.5-5,24.4-6.1c3.3-0.5,6.7-0.7,10.1-0.7c17.4,0,33.5,6.4,44.3,17.6
		c13.7,14.2,18.3,37.3,10.7,53.8c-3.4,7.5-8.2,14.5-13.3,21.9c-2.8,4.1-5.7,8.4-8.5,12.9c-11.2,18.1-11.2,39.9-0.1,59.9
		c4.1,7.3,9.6,14.2,15.9,19.8c-6.3,5.6-11.8,12.5-15.9,19.8c-11.1,20-11.1,41.8,0.1,59.9c2.8,4.5,5.7,8.8,8.5,12.9
		c5.1,7.4,9.8,14.5,13.3,21.9c7.6,16.5,3,39.6-10.7,53.8c-10.8,11.2-27,17.6-44.3,17.6c-3.4,0-6.8-0.2-10.1-0.7
		c-7.9-1.2-15.9-3.6-24.4-6.1c-7.5-2.3-15.2-4.6-23.3-6.2c-8-1.6-16.2-2.4-24.4-2.4c-9.2,0-18.5,1-27.5,3
		c-18.7,4.1-35.2,12.4-47.5,24c-3.6,3.4-6.9,7.1-9.8,11.1c-2.9-3.9-6.2-7.7-9.8-11.1c-12.3-11.6-28.8-19.9-47.5-24
		c-9-2-18.2-3-27.5-3c-8.2,0-16.4,0.8-24.4,2.4c-8.1,1.6-15.8,3.9-23.3,6.2c-8.5,2.6-16.5,5-24.4,6.1c-3.3,0.5-6.7,0.7-10.1,0.7
		c-17.4,0-33.5-6.4-44.3-17.6c-13.7-14.2-18.3-37.3-10.7-53.8c3.4-7.5,8.2-14.5,13.3-21.9c2.8-4.1,5.7-8.4,8.5-12.9
		c11.2-18.1,11.2-39.9,0.1-59.9c-4.1-7.3-9.6-14.2-15.9-19.8c6.3-5.6,11.8-12.5,15.9-19.8c11.1-20,11.1-41.8-0.1-59.9
		c-2.8-4.5-5.7-8.8-8.5-12.9c-5.1-7.4-9.8-14.5-13.3-21.9c-7.6-16.5-3-39.6,10.7-53.8c10.8-11.2,27-17.6,44.3-17.6
		c3.4,0,6.8,0.2,10.1,0.7c7.9,1.2,15.9,3.6,24.4,6.1c7.5,2.3,15.2,4.6,23.3,6.2c8,1.6,16.2,2.4,24.4,2.4c9.2,0,18.5-1,27.5-3
		c18.7-4.1,35.2-12.4,47.5-24C161.9,103.4,165.2,99.7,168.1,95.7 M168.1,54.4c-0.8,15.9-8.8,30.9-20.1,41.5
		c-11.3,10.6-25.7,17-40.5,20.3c-8,1.8-16.1,2.6-24.2,2.6c-7.2,0-14.4-0.7-21.5-2.1c-16.3-3.2-32-10-48.4-12.4
		c-4.1-0.6-8.2-0.9-12.3-0.9c-20.3,0-40.7,7.3-55.1,22.2c-17.3,17.9-24.1,47.5-13.5,70.5c6,13.1,15,24.1,22.6,36.4
		c20.6,33.4-15,71.8-36.9,71.8c21.9,0,57.5,38.4,36.9,71.8c-7.6,12.3-16.6,23.4-22.6,36.4c-10.6,23-3.8,52.6,13.5,70.5
		c14.4,14.9,34.8,22.2,55.1,22.2c4.1,0,8.3-0.3,12.3-0.9c16.5-2.4,32.1-9.2,48.4-12.4c7.1-1.4,14.3-2.1,21.5-2.1
		c8.1,0,16.3,0.9,24.2,2.6c14.8,3.3,29.2,9.7,40.5,20.3c11.3,10.6,19.3,25.6,20.1,41.5c0.8-15.9,8.8-30.9,20.1-41.5
		c11.3-10.6,25.7-17,40.5-20.3c8-1.8,16.1-2.6,24.2-2.6c7.2,0,14.4,0.7,21.5,2.1c16.3,3.2,32,10,48.4,12.4c4.1,0.6,8.2,0.9,12.3,0.9
		c20.3,0,40.7-7.3,55.1-22.2c17.3-17.9,24.1-47.5,13.5-70.5c-6-13.1-15-24.1-22.6-36.4c-20.6-33.4,15-71.8,36.9-71.8
		c-21.9,0-57.5-38.4-36.9-71.8c7.6-12.3,16.6-23.4,22.6-36.4c10.6-23,3.8-52.6-13.5-70.5c-14.4-14.9-34.8-22.2-55.1-22.2
		c-4.1,0-8.3,0.3-12.3,0.9c-16.5,2.4-32.1,9.2-48.4,12.4c-7.1,1.4-14.3,2.1-21.5,2.1c-8.1,0-16.3-0.9-24.2-2.6
		c-14.8-3.3-29.2-9.7-40.5-20.3C176.9,85.3,168.9,70.3,168.1,54.4L168.1,54.4z"></path></g>
</g>
</svg>