<?xml version="1.0" encoding="utf-8"?><!DOCTYPE svg PUBLIC "-//W3C//DTD SVG 1.1//EN" "http://www.w3.org/Graphics/SVG/1.1/DTD/svg11.dtd">
<svg version="1.1" id="Layer_1" xmlns="http://www.w3.org/2000/svg" xmlns:xlink="http://www.w3.org/1999/xlink" x="0px" y="0px" viewBox="-81.6 55.2 500 500" enable-background="new -81.6 55.2 500 500" xml:space="preserve">
<g>
	<g>
		<g id="change1_1"><path fill="#7D8693" d="M168.7,527.1c-3.8-7.2-8.8-13.9-15-19.7c-11.4-10.6-26.6-18.3-44-22.1c-8.5-1.9-17.2-2.8-25.9-2.8
			c-7.7,0-15.4,0.7-23,2.2c-7.8,1.5-15.3,3.8-22.6,6c-8.7,2.6-17,5.1-25.5,6.4c-3.7,0.5-7.5,0.8-11.2,0.8
			c-19.4,0-37.5-7.2-49.7-19.9c-16-16.6-21.1-42.7-12.1-62.2c3.7-8,8.7-15.3,13.9-23c2.8-4.1,5.6-8.3,8.3-12.6
			c9.7-15.7,9.7-34.8-0.1-52.3c-5.4-9.7-13.2-17.9-21.5-23.4c8.4-5.5,16.1-13.8,21.5-23.4c9.8-17.5,9.8-36.6,0.1-52.3
			c-2.7-4.4-5.6-8.6-8.3-12.6c-5.2-7.7-10.2-15-13.9-23c-9-19.5-3.9-45.6,12.1-62.2c12.2-12.6,30.3-19.9,49.7-19.9
			c3.8,0,7.5,0.3,11.2,0.8c8.5,1.2,16.7,3.7,25.5,6.4c7.3,2.2,14.8,4.5,22.6,6c7.5,1.5,15.3,2.2,23,2.2c8.7,0,17.4-0.9,25.9-2.8
			c17.4-3.9,32.7-11.5,44-22.1c6.2-5.8,11.2-12.5,15-19.7c3.8,7.2,8.8,13.9,15,19.7c11.4,10.6,26.6,18.3,44,22.1
			c8.5,1.9,17.2,2.8,25.9,2.8c7.7,0,15.4-0.7,23-2.2c7.8-1.5,15.3-3.8,22.6-6c8.7-2.6,17-5.1,25.5-6.4c3.7-0.5,7.5-0.8,11.2-0.8
			c19.4,0,37.5,7.2,49.7,19.9c16,16.6,21.1,42.7,12.1,62.2c-3.7,8-8.7,15.3-13.9,23c-2.8,4.1-5.6,8.3-8.3,12.6
			c-9.7,15.7-9.7,34.8,0.1,52.3c5.4,9.7,13.2,17.9,21.5,23.4c-8.4,5.5-16.1,13.8-21.5,23.4c-9.8,17.5-9.8,36.6-0.1,52.3
			c2.7,4.4,5.6,8.6,8.3,12.6c5.2,7.7,10.2,15,13.9,23c9,19.5,3.9,45.6-12.1,62.2c-12.2,12.6-30.3,19.9-49.7,19.9
			c-3.8,0-7.5-0.3-11.2-0.8c-8.5-1.2-16.7-3.7-25.5-6.4c-7.3-2.2-14.8-4.5-22.6-6c-7.5-1.5-15.3-2.2-23-2.2
			c-8.7,0-17.4,0.9-25.9,2.8c-17.4,3.9-32.7,11.5-44,22.1C177.5,513.2,172.4,519.9,168.7,527.1z"></path></g>
		<g id="change2_1"><path fill="#FFFFFF" d="M168.7,95.7c2.9,3.9,6.2,7.7,9.8,11.1c12.3,11.6,28.8,19.9,47.5,24c9,2,18.2,3,27.5,3
			c8.2,0,16.4-0.8,24.4-2.4c8.1-1.6,15.9-3.9,23.3-6.2c8.5-2.6,16.5-5,24.4-6.1c3.3-0.5,6.7-0.7,10.1-0.7c17.4,0,33.5,6.4,44.3,17.6
			c13.7,14.2,18.3,37.3,10.7,53.8c-3.4,7.5-8.2,14.5-13.3,21.9c-2.8,4.1-5.7,8.4-8.5,12.9c-11.2,18.1-11.2,39.9-0.1,59.9
			c4.1,7.3,9.6,14.2,15.9,19.8c-6.3,5.6-11.8,12.5-15.9,19.8c-11.1,20-11.1,41.8,0.1,59.9c2.8,4.5,5.7,8.8,8.5,12.9
			c5.1,7.4,9.8,14.5,13.3,21.9c7.6,16.5,3,39.6-10.7,53.8c-10.8,11.2-27,17.6-44.3,17.6c-3.4,0-6.8-0.2-10.1-0.7
			c-7.9-1.2-15.9-3.6-24.4-6.1c-7.5-2.3-15.2-4.6-23.3-6.2c-8-1.6-16.2-2.4-24.4-2.4c-9.2,0-18.5,1-27.5,3
			c-18.7,4.1-35.2,12.4-47.5,24c-3.6,3.4-6.9,7.1-9.8,11.1c-2.9-3.9-6.2-7.7-9.8-11.1c-12.3-11.6-28.8-19.9-47.5-24
			c-9-2-18.2-3-27.5-3c-8.2,0-16.4,0.8-24.4,2.4c-8.1,1.6-15.9,3.9-23.3,6.2c-8.5,2.6-16.5,5-24.4,6.1c-3.3,0.5-6.7,0.7-10.1,0.7
			c-17.4,0-33.5-6.4-44.3-17.6c-13.7-14.2-18.3-37.3-10.7-53.8c3.4-7.5,8.2-14.5,13.3-21.9c2.8-4.1,5.7-8.4,8.5-12.9
			c11.2-18.1,11.2-39.9,0.1-59.9c-4.1-7.3-9.6-14.2-15.9-19.8c6.3-5.6,11.8-12.5,15.9-19.8c11.1-20,11.1-41.8-0.1-59.9
			c-2.8-4.5-5.7-8.8-8.5-12.9c-5.1-7.4-9.8-14.5-13.3-21.9c-7.6-16.5-3-39.6,10.7-53.8c10.8-11.2,27-17.6,44.3-17.6
			c3.4,0,6.8,0.2,10.1,0.7c7.9,1.2,15.9,3.6,24.4,6.1c7.5,2.3,15.2,4.6,23.3,6.2c8,1.6,16.2,2.4,24.4,2.4c9.2,0,18.5-1,27.5-3
			c18.7-4.1,35.2-12.4,47.5-24C162.5,103.4,165.8,99.7,168.7,95.7 M168.7,54.4c-0.8,15.9-8.8,30.9-20.1,41.5
			c-11.3,10.6-25.7,17-40.5,20.3c-8,1.8-16.1,2.6-24.2,2.6c-7.2,0-14.4-0.7-21.5-2.1c-16.3-3.2-32-10-48.4-12.4
			c-4.1-0.6-8.2-0.9-12.3-0.9c-20.3,0-40.7,7.3-55.1,22.2c-17.3,17.9-24.1,47.5-13.5,70.5c6,13.1,15,24.1,22.6,36.4
			c20.6,33.4-15,71.8-36.9,71.8c21.9,0,57.5,38.4,36.9,71.8C-52,388.5-61,399.5-67,412.6c-10.6,23-3.8,52.6,13.5,70.5
			c14.4,14.9,34.8,22.2,55.1,22.2c4.1,0,8.3-0.3,12.3-0.9C30.3,502,46,495.2,62.3,492c7.1-1.4,14.3-2.1,21.5-2.1
			c8.1,0,16.3,0.9,24.2,2.6c14.8,3.3,29.2,9.7,40.5,20.3c11.3,10.6,19.3,25.6,20.1,41.5c0.8-15.9,8.8-30.9,20.1-41.5
			c11.3-10.6,25.7-17,40.5-20.3c8-1.8,16.1-2.6,24.2-2.6c7.2,0,14.4,0.7,21.5,2.1c16.3,3.2,32,10,48.4,12.4
			c4.1,0.6,8.2,0.9,12.3,0.9c20.3,0,40.7-7.3,55.1-22.2c17.3-17.9,24.1-47.5,13.5-70.5c-6-13.1-15-24.1-22.6-36.4
			c-20.6-33.4,15-71.8,36.9-71.8c-21.9,0-57.5-38.4-36.9-71.8c7.6-12.3,16.6-23.4,22.6-36.4c10.6-23,3.8-52.6-13.5-70.5
			c-14.4-14.9-34.8-22.2-55.1-22.2c-4.1,0-8.3,0.3-12.3,0.9c-16.5,2.4-32.1,9.2-48.4,12.4c-7.1,1.4-14.3,2.1-21.5,2.1
			c-8.1,0-16.3-0.9-24.2-2.6c-14.8-3.3-29.2-9.7-40.5-20.3C177.5,85.3,169.5,70.3,168.7,54.4L168.7,54.4z"></path></g>
	</g>
</g>
</svg>