<?xml version="1.0" encoding="utf-8"?>
<!-- Generator: Adobe Illustrator 19.1.0, SVG Export Plug-In . SVG Version: 6.00 Build 0)  -->
<!DOCTYPE svg PUBLIC "-//W3C//DTD SVG 1.1//EN" "http://www.w3.org/Graphics/SVG/1.1/DTD/svg11.dtd">
<svg version="1.1" id="Layer_1" xmlns="http://www.w3.org/2000/svg" xmlns:xlink="http://www.w3.org/1999/xlink" x="0px" y="0px"
	 viewBox="0 0 500 500" enable-background="new 0 0 500 500" xml:space="preserve">
<g id="change1_17_">
	<g>
		<path fill="#FFFFFF" d="M481.3,394.5c11.2,19,12.1,43.4,0.3,63.9C464,488.7,425.3,499,395,481.5c-46.3-27.2-106.2-19.7-145,17.1h0
			c-38-36.1-96.7-44.8-144.5-17.4c-19,11.2-43.4,12.1-63.9,0.3C11.3,464,1,425.3,18.4,395c27.2-46.3,19.7-106.2-17.1-145v0
			c36.1-38,44.8-96.7,17.4-144.5c-11.2-19-12.1-43.4-0.3-63.9C35.9,11.3,74.7,0.9,105,18.4c46.3,27.2,106.2,19.7,145-17.2h0
			c39.2,37.2,98.1,44.1,145,17.2c30.3-17.5,69.1-7.1,86.6,23.2c11.8,20.5,10.9,44.8-0.3,63.9c-27.3,47.8-18.7,106.4,17.4,144.5v0
			C462.6,288.1,453.9,346.7,481.3,394.5"/>
		<path fill="#FFFFFF" d="M250.5,500h-1l-0.4-0.4c-18.4-17.5-42.5-28.9-67.8-32.2c-26.2-3.4-52.1,1.8-75.1,14.9
			c-20,11.8-45,11.9-65.1,0.3c-30.9-17.8-41.5-57.5-23.7-88.3c13-22.1,18.4-48.5,15.3-74.5C29.5,294,18,269.5,0.4,250.9L0,250.5v-1
			l0.4-0.4c17.5-18.4,28.9-42.5,32.2-67.8c3.4-26.2-1.8-52.1-14.9-75.1c-11.8-20-11.9-45-0.3-65.1C26,26,39.9,15.3,56.6,10.9
			c16.7-4.5,34.1-2.2,49.1,6.5c22.1,13,48.5,18.4,74.5,15.3C206,29.5,230.5,18,249.1,0.4l0.4-0.4h1l0.4,0.4
			c19,18.1,42.8,29.2,68.9,32.3c26,3.1,51.8-2.2,74.6-15.3c30.9-17.8,70.5-7.2,88.3,23.7c11.6,20.1,11.5,45.1-0.3,65.2
			c-13.1,23-18.3,48.9-14.9,75.1c3.2,25.3,14.7,49.4,32.2,67.8l0.4,0.4v1l-0.4,0.4c-17.5,18.4-28.9,42.5-32.2,67.8
			c-3.4,26.2,1.8,52.1,14.9,75.1c11.8,20.1,11.9,45,0.3,65.2c-12,20.7-33.7,32.3-56.1,32.3c-11,0-22.1-2.8-32.2-8.7
			c-22.1-13-48.5-18.4-74.5-15.3c-25.8,3.1-50.3,14.6-68.9,32.3L250.5,500z M165.7,463.9c5.3,0,10.6,0.3,15.9,1
			c25.5,3.3,49.7,14.6,68.4,32c18.9-17.6,43.5-29,69.5-32.1c26.5-3.2,53.6,2.4,76.1,15.6c29.6,17.1,67.7,6.9,84.8-22.7
			c11.2-19.3,11.1-43.3-0.3-62.6l0,0c-13.4-23.5-18.7-50-15.2-76.7c3.3-25.5,14.6-49.7,32-68.4c-17.4-18.7-28.8-42.9-32-68.4
			c-3.4-26.7,1.8-53.3,15.2-76.7c11.3-19.3,11.4-43.2,0.3-62.6c-17.1-29.6-55.2-39.8-84.8-22.7c-23.2,13.4-49.6,18.8-76.1,15.7
			C293.3,32.1,269.3,21,250,3.1c-18.9,17.6-43.5,29-69.5,32.1c-26.5,3.2-53.6-2.3-76.1-15.6C90,11.3,73.3,9.1,57.3,13.4
			c-16,4.3-29.4,14.6-37.7,28.9C8.4,61.6,8.5,85.6,19.8,104.8c13.4,23.5,18.7,50,15.3,76.7c-3.3,25.5-14.6,49.7-32,68.4
			c17.6,18.9,29,43.5,32.1,69.5c3.2,26.5-2.3,53.6-15.6,76.1c-17.1,29.6-6.9,67.7,22.7,84.8c19.3,11.2,43.3,11.1,62.6-0.3
			C123.7,469.4,144.4,463.9,165.7,463.9z"/>
	</g>
</g>
</svg>
