<?xml version="1.0" encoding="utf-8"?>
<!-- Generator: Adobe Illustrator 19.1.0, SVG Export Plug-In . SVG Version: 6.00 Build 0)  -->
<!DOCTYPE svg PUBLIC "-//W3C//DTD SVG 1.1//EN" "http://www.w3.org/Graphics/SVG/1.1/DTD/svg11.dtd">
<svg version="1.1" id="Layer_1" xmlns="http://www.w3.org/2000/svg" xmlns:xlink="http://www.w3.org/1999/xlink" x="0px" y="0px"
	 viewBox="-89.4 47.5 515 515" enable-background="new -89.4 47.5 515 515" xml:space="preserve">
<g id="change1_17_">
	<g>
		<g>
			<path fill="#FFFFFF" d="M168.1,562.5c-1.9,0-3.8-0.7-5.2-2.1c-17.6-16.7-40.5-27.6-64.7-30.7c-25-3.2-49.7,1.7-71.6,14.2
				c-22,12.9-49.5,13.1-71.7,0.3c-34-19.6-45.7-63.3-26.1-97.3c12.4-21.1,17.6-46.3,14.6-71c-3-24.7-13.9-48-30.8-65.8
				c-1.3-1.4-2.1-3.2-2.1-5.2s0.7-3.8,2.1-5.2c16.7-17.6,27.6-40.5,30.7-64.7c3.2-25-1.7-49.7-14.2-71.6
				c-12.9-22-13.1-49.5-0.3-71.7c9.5-16.5,24.9-28.3,43.2-33.2c18.4-4.9,37.6-2.4,54,7.1c21.1,12.4,46.3,17.6,71.1,14.6
				c24.7-3,48-13.9,65.8-30.8c1.4-1.3,3.2-2.1,5.2-2.1c1.9,0,3.8,0.7,5.2,2.1c18.1,17.2,40.9,27.9,65.7,30.8
				c24.8,2.9,49.4-2.1,71.1-14.6c34-19.6,77.6-7.9,97.2,26.1c12.8,22.2,12.7,49.7-0.3,71.7c-12.5,21.8-17.4,46.6-14.2,71.5
				c3.1,24.2,14,47.1,30.7,64.7c1.3,1.4,2.1,3.2,2.1,5.2s-0.7,3.8-2.1,5.2c-16.7,17.6-27.6,40.5-30.7,64.7
				c-3.2,24.9,1.7,49.7,14.2,71.6c13,22.1,13.1,49.6,0.3,71.7c-13.2,22.8-37.2,35.6-61.8,35.6c-12.1,0-24.3-3.1-35.5-9.5
				c-21.1-12.4-46.3-17.6-71.1-14.6c-24.7,3-48,13.9-65.8,30.8C171.9,561.8,170,562.5,168.1,562.5z M83.4,513.8
				c5.6,0,11.1,0.4,16.7,1.1c25,3.2,48.9,13.8,68,30c41.8-35.6,102.3-41.4,149.5-13.6c26.8,15.5,61.2,6.2,76.7-20.6
				c10.1-17.5,10-39.2-0.2-56.6c0,0,0-0.1,0-0.1c-14.1-24.8-19.7-52.8-16.1-81c3.2-25,13.8-48.9,30.1-68c-16.2-19.1-26.8-43-30.1-68
				c-3.6-28.2,1.9-56.2,16.1-81c10.3-17.5,10.4-39.2,0.3-56.7c-15.5-26.8-49.9-36.1-76.8-20.6c-24.5,14.1-52.3,19.8-80.4,16.5
				c-25.8-3-49.5-13.4-69.1-30.2c-41.8,35.6-102.3,41.4-149.5,13.6C5.6,71.3-9.5,69.3-24,73.2c-14.5,3.9-26.6,13.2-34.1,26.2
				c-10.1,17.5-10,39.2,0.2,56.6c14.2,24.8,19.8,52.8,16.1,81.1c-3.2,25-13.8,48.9-30.1,68c35.6,41.8,41.4,102.3,13.6,149.5
				c-15.5,26.8-6.2,61.2,20.6,76.7c17.5,10.1,39.2,10,56.6-0.2C38.9,519.7,60.9,513.8,83.4,513.8z"/>
		</g>
	</g>
</g>
</svg>
