<?xml version="1.0" encoding="utf-8"?>
<!-- Generator: Adobe Illustrator 18.1.1, SVG Export Plug-In . SVG Version: 6.00 Build 0)  -->
<!DOCTYPE svg PUBLIC "-//W3C//DTD SVG 1.1//EN" "http://www.w3.org/Graphics/SVG/1.1/DTD/svg11.dtd">
<svg version="1.1" id="Layer_1" xmlns="http://www.w3.org/2000/svg" xmlns:xlink="http://www.w3.org/1999/xlink" x="0px" y="0px"
	 viewBox="0 0 500 500" enable-background="new 0 0 500 500" xml:space="preserve">
<g id="nw_3_">
	<g id="change1" enable-background="new    ">
		<path fill="#FFFFFF" d="M44.5,0C41,9.2,35,18.5,26.8,26.8C18.5,35,9.2,41,0,44.5v38.8h83.3V0H44.5z M70.3,82.3
			c-6.6,0-12-5.4-12-12s5.4-12,12-12s12,5.4,12,12S76.9,82.3,70.3,82.3z"/>
	</g>
</g>
<g id="w_3_">
	<g id="change1_42_" enable-background="new    ">
		<rect y="83.3" fill="#FFFFFF" enable-background="new    " width="83.3" height="333.5"/>
	</g>
</g>
<g id="sw_2_">
	<g id="change1_41_" enable-background="new    ">
		<path fill="#FFFFFF" d="M0,416.7v38.8c9.2,3.5,18.5,9.5,26.8,17.7c1,1,2,2.1,3,3.1c0.6,0.7,1.2,1.3,1.8,2c0.6,0.7,1.1,1.4,1.7,2
			c0.5,0.7,1.1,1.4,1.6,2.1c0.5,0.7,1,1.4,1.5,2.1c3.5,5,6.3,10.2,8.2,15.4h38.8v-83.3H0z M70.3,441.7c-6.6,0-12-5.4-12-12
			s5.4-12,12-12s12,5.4,12,12S76.9,441.7,70.3,441.7z"/>
	</g>
</g>
<g id="se">
	<g id="change1_2_">
		<path fill="#FFFFFF" d="M416.7,416.7V500h38.8c3.5-9.2,9.5-18.5,17.7-26.8c8.2-8.2,17.5-14.2,26.8-17.7v-38.8H416.7z M429.7,441.7
			c-6.6,0-12-5.4-12-12s5.4-12,12-12s12,5.4,12,12S436.4,441.7,429.7,441.7z"/>
	</g>
</g>
<g id="s">
	<rect x="416.7" y="468.9" fill="#FFFFFF" enable-background="new    " width="0" height="31.1"/>
	<g id="change1_3_">
		<polygon fill="#FFFFFF" points="416.7,416.7 416.7,468.9 416.7,468.9 416.7,500 83.3,500 83.3,416.7 		"/>
		<rect x="416.7" y="468.9" fill="#FFFFFF" width="0" height="31.1"/>
	</g>
</g>
<g id="c_3_" enable-background="new    ">
	<g id="change1_39_">
		<rect x="83.3" y="83.3" fill="#FFFFFF" width="333.5" height="333.5"/>
	</g>
</g>
<g id="n_2_">
	<g id="change1_38_" enable-background="new    ">
		<g>
			<rect x="83.3" y="0" fill="#FFFFFF" enable-background="new    " width="333.5" height="83.3"/>
		</g>
	</g>
</g>
<g id="e_2_">
	<g id="change1_36_" enable-background="new    ">
		<rect x="416.7" y="83.3" fill="#FFFFFF" width="83.3" height="333.5"/>
	</g>
</g>
<g id="ne_2_">
	<g id="change1_1_">
		<path fill="#FFFFFF" enable-background="new    " d="M473.2,26.8C465,18.5,459,9.2,455.5,0h-38.8v83.3H500V44.5
			C490.8,41,481.5,35,473.2,26.8z M429.7,82.3c-6.6,0-12-5.4-12-12s5.4-12,12-12s12,5.4,12,12S436.4,82.3,429.7,82.3z"/>
	</g>
</g>
</svg>
