<?xml version="1.0" encoding="utf-8"?><!DOCTYPE svg PUBLIC "-//W3C//DTD SVG 1.1//EN" "http://www.w3.org/Graphics/SVG/1.1/DTD/svg11.dtd">
<svg version="1.1" id="Layer_1" xmlns="http://www.w3.org/2000/svg" xmlns:xlink="http://www.w3.org/1999/xlink" x="0px" y="0px" viewBox="0 0 500 500" enable-background="new 0 0 500 500" xml:space="preserve">
<g id="nw_3_">
	<g>
		<g id="change1_1"><path fill="#FFFFFF" enable-background="new    " d="M31,84.2H0V45.4c9.2-3.5,18.5-9.5,26.8-17.7C35,19.4,40.9,10.1,44.5,0.9h38.8
			V32h-5.9C51.8,32,31,52.7,31,78.3L31,84.2z M83.2,72.2c0-6.6-5.4-12-12-12c-6.6,0-12,5.4-12,12c0,6.6,5.4,12,12,12
			C77.9,84.2,83.2,78.8,83.2,72.2z"></path></g>
	</g>
</g>
<g id="w_3_">
	<g>
		<g id="change1_2"><path fill="#FFFFFF" enable-background="new    " d="M31,417.6H0V84.2H31V417.6z"></path></g>
	</g>
</g>
<g id="sw_2_">
	<g>
		<g id="change1_3"><path fill="#FFFFFF" enable-background="new    " d="M83.2,469.8v31.1H44.5c-3.5-9.2-9.5-18.5-17.7-26.8
			c-8.2-8.2-17.6-14.2-26.8-17.7v-38.8H31v5.9c0,25.6,20.7,46.3,46.3,46.3L83.2,469.8L83.2,469.8z M71.2,417.6c-6.6,0-12,5.4-12,12
			c0,6.6,5.4,12,12,12c6.6,0,12-5.4,12-12C83.2,423,77.9,417.6,71.2,417.6z"></path></g>
	</g>
</g>
<g id="s_3_">
	<g>
		<g id="change1_4"><path fill="#FFFFFF" enable-background="new    " d="M416.7,469.8v31.1H83.2v-31.1H416.7z"></path></g>
	</g>
</g>
<g id="n_2_">
	<g>
		<g id="change1_5"><path fill="#FFFFFF" enable-background="new    " d="M83.2,32V0.9h333.5V32H83.2z"></path></g>
	</g>
</g>
<g id="se_3_">
	<g>
		<g id="change1_6"><path fill="#FFFFFF" enable-background="new    " d="M500,417.6v38.8c-9.2,3.5-18.5,9.5-26.8,17.7c-8.2,8.2-14.2,17.5-17.7,26.8
			h-38.8v-31.1h5.9c25.6,0,46.3-20.7,46.3-46.3v-5.9L500,417.6L500,417.6z M416.7,429.6c0,6.6,5.4,12,12,12c6.6,0,12-5.4,12-12
			c0-6.6-5.4-12-12-12C422.1,417.6,416.7,423,416.7,429.6z"></path></g>
	</g>
</g>
<g id="e_2_">
	<g>
		<g id="change1_7"><path fill="#FFFFFF" enable-background="new    " d="M468.9,84.2H500v333.4h-31.1V84.2z"></path></g>
	</g>
</g>
<g id="ne">
	<g id="change1_8"><path fill="#FFFFFF" enable-background="new    " d="M416.7,32V0.9h38.8c3.5,9.2,9.5,18.5,17.7,26.8c8.2,8.2,17.5,14.2,26.8,17.7
		v38.8h-31.1v-5.9c0-25.6-20.7-46.3-46.3-46.3L416.7,32z M440.7,72.2c0-6.6-5.4-12-12-12c-6.6,0-12,5.4-12,12c0,6.6,5.4,12,12,12
		C435.3,84.2,440.7,78.8,440.7,72.2z"></path></g>
</g>
</svg>