<?xml version="1.0" encoding="utf-8"?><!DOCTYPE svg PUBLIC "-//W3C//DTD SVG 1.1//EN" "http://www.w3.org/Graphics/SVG/1.1/DTD/svg11.dtd">
<svg version="1.1" id="Layer_1" xmlns="http://www.w3.org/2000/svg" xmlns:xlink="http://www.w3.org/1999/xlink" x="0px" y="0px" viewBox="0 0 517.6 517.6" enable-background="new 0 0 517.6 517.6" xml:space="preserve">
<g id="w">
	<g id="change1_1"><polygon fill="#FFFFFF" points="26.4,0 26.4,26.5 0,26.5 0,42.9 0,59.9 26.5,59.9 26.5,80 0,80 0,96.9 0,113.9 26.5,113.9 
		26.5,134 0,134 0,150.9 0,167.9 26.5,167.9 26.5,188 0,188 0,204.8 0,221.8 26.5,221.8 26.5,241.9 0,241.9 0,258.8 0,275.8 
		26.5,275.8 26.5,295.9 0,295.9 0,312.8 0,329.8 26.5,329.8 26.5,349.9 0,349.9 0,366.7 0,383.7 26.5,383.7 26.5,403.8 0,403.8 
		0,420.7 0,437.7 26.5,437.7 26.5,457.8 0,457.8 0,474.7 0,491.3 26.5,491.3 26.5,517.6 42.9,517.6 42.9,0 	"></polygon></g>
</g>
<g id="e">
	<g id="change1_2"><polygon fill="#FFFFFF" points="491.1,26.4 491.1,0 474.7,0 474.7,517.6 491.3,517.6 491.3,491.1 517.6,491.1 517.6,474.7 
		517.6,457.7 491.1,457.7 491.1,437.6 517.6,437.6 517.6,420.7 517.6,403.7 491.1,403.7 491.1,383.6 517.6,383.6 517.6,366.7 
		517.6,349.7 491.1,349.7 491.1,329.6 517.6,329.6 517.6,312.8 517.6,295.8 491.1,295.8 491.1,275.7 517.6,275.7 517.6,258.8 
		517.6,241.8 491.1,241.8 491.1,221.7 517.6,221.7 517.6,204.8 517.6,187.8 491.1,187.8 491.1,167.7 517.6,167.7 517.6,150.9 
		517.6,133.9 491.1,133.9 491.1,113.8 517.6,113.8 517.6,96.9 517.6,79.9 491.1,79.9 491.1,59.8 517.6,59.8 517.6,42.9 517.6,26.4 	
		"></polygon></g>
</g>
<g id="c_repeat">
	<g id="change1_3"><polygon fill="#FFFFFF" points="457.7,0 457.7,26.5 437.6,26.5 437.6,0 420.7,0 403.7,0 403.7,26.5 383.6,26.5 383.6,0 366.7,0 
		349.7,0 349.7,26.5 329.6,26.5 329.6,0 312.8,0 295.8,0 295.8,26.5 275.7,26.5 275.7,0 258.8,0 241.8,0 241.8,26.5 221.7,26.5 
		221.7,0 204.8,0 187.8,0 187.8,26.5 167.7,26.5 167.7,0 150.9,0 133.9,0 133.9,26.5 113.8,26.5 113.8,0 96.9,0 79.9,0 79.9,26.5 
		59.8,26.5 59.8,0 42.9,0 42.9,517.6 59.9,517.6 59.9,491.1 80,491.1 80,517.6 96.9,517.6 113.9,517.6 113.9,491.1 134,491.1 
		134,517.6 150.9,517.6 167.9,517.6 167.9,491.1 188,491.1 188,517.6 204.8,517.6 221.8,517.6 221.8,491.1 241.9,491.1 241.9,517.6 
		258.8,517.6 275.8,517.6 275.8,491.1 295.9,491.1 295.9,517.6 312.8,517.6 329.8,517.6 329.8,491.1 349.9,491.1 349.9,517.6 
		366.7,517.6 383.7,517.6 383.7,491.1 403.8,491.1 403.8,517.6 420.7,517.6 437.7,517.6 437.7,491.1 457.8,491.1 457.8,517.6 
		474.7,517.6 474.7,0 	"></polygon></g>
</g>
</svg>