<?xml version="1.0" encoding="utf-8"?><!DOCTYPE svg PUBLIC "-//W3C//DTD SVG 1.1//EN" "http://www.w3.org/Graphics/SVG/1.1/DTD/svg11.dtd">
<svg version="1.1" id="Layer_1" xmlns="http://www.w3.org/2000/svg" xmlns:xlink="http://www.w3.org/1999/xlink" x="0px" y="0px" viewBox="0 0 518.7 518.7" enable-background="new 0 0 518.7 518.7" xml:space="preserve">
<g id="c_repeat">
	<g id="change1_1"><polygon fill="#FFFFFF" points="458.7,0 458.7,26.5 438.5,26.5 438.5,0 421.6,0 404.6,0 404.6,26.5 384.4,26.5 384.4,0 367.5,0 
		350.5,0 350.5,26.5 330.3,26.5 330.3,0 313.4,0 296.4,0 296.4,26.5 276.3,26.5 276.3,0 259.4,0 242.3,0 242.3,26.5 222.2,26.5 
		222.2,0 205.3,0 188.2,0 188.2,26.5 168.1,26.5 168.1,0 151.2,0 134.2,0 134.2,26.5 114,26.5 114,0 97.1,0 80.1,0 80.1,26.5 
		59.9,26.5 59.9,0 43,0 43,6.7 53.1,6.7 53.1,33.3 86.9,33.3 86.9,6.7 97.1,6.7 107.2,6.7 107.2,33.3 141,33.3 141,6.7 151.2,6.7 
		161.3,6.7 161.3,33.3 195.1,33.3 195.1,6.7 205.3,6.7 215.3,6.7 215.3,33.3 249.2,33.3 249.2,6.7 259.4,6.7 269.4,6.7 269.4,33.3 
		303.2,33.3 303.2,6.7 313.4,6.7 323.5,6.7 323.5,33.3 357.3,33.3 357.3,6.7 367.5,6.7 377.6,6.7 377.6,33.3 411.4,33.3 411.4,6.7 
		421.6,6.7 431.7,6.7 431.7,33.3 465.5,33.3 465.5,6.7 475.7,6.7 475.7,0 	"></polygon></g>
	<g id="change1_2"><polygon fill="#FFFFFF" points="465.6,512 465.6,485.4 431.8,485.4 431.8,512 421.6,512 411.5,512 411.5,485.4 377.7,485.4 
		377.7,512 367.5,512 357.5,512 357.5,485.4 323.6,485.4 323.6,512 313.4,512 303.4,512 303.4,485.4 269.5,485.4 269.5,512 
		259.4,512 249.3,512 249.3,485.4 215.5,485.4 215.5,512 205.3,512 195.2,512 195.2,485.4 161.4,485.4 161.4,512 151.2,512 
		141.1,512 141.1,485.4 107.3,485.4 107.3,512 97.1,512 87,512 87,485.4 53.2,485.4 53.2,512 43,512 43,518.7 60.1,518.7 
		60.1,492.2 80.2,492.2 80.2,518.7 97.1,518.7 114.1,518.7 114.1,492.2 134.3,492.2 134.3,518.7 151.2,518.7 168.2,518.7 
		168.2,492.2 188.4,492.2 188.4,518.7 205.3,518.7 222.3,518.7 222.3,492.2 242.4,492.2 242.4,518.7 259.4,518.7 276.4,518.7 
		276.4,492.2 296.5,492.2 296.5,518.7 313.4,518.7 330.5,518.7 330.5,492.2 350.6,492.2 350.6,518.7 367.5,518.7 384.5,518.7 
		384.5,492.2 404.7,492.2 404.7,518.7 421.6,518.7 438.6,518.7 438.6,492.2 458.8,492.2 458.8,518.7 475.7,518.7 475.7,512 	"></polygon></g>
</g>
<g id="e">
	<g id="change1_3"><polygon fill="#FFFFFF" points="492.2,26.4 492.2,0 475.7,0 475.7,6.7 485.4,6.7 485.4,33.1 512,33.1 512,43 512,53.1 485.4,53.1 
		485.4,86.9 512,86.9 512,97.1 512,107.2 485.4,107.2 485.4,141 512,141 512,151.2 512,161.3 485.4,161.3 485.4,195.1 512,195.1 
		512,205.3 512,215.3 485.4,215.3 485.4,249.2 512,249.2 512,259.4 512,269.4 485.4,269.4 485.4,303.2 512,303.2 512,313.4 
		512,323.5 485.4,323.5 485.4,357.3 512,357.3 512,367.5 512,377.6 485.4,377.6 485.4,411.4 512,411.4 512,421.6 512,431.7 
		485.4,431.7 485.4,465.5 512,465.5 512,475.7 512,475.7 512,485.4 485.6,485.4 485.6,512 475.7,512 475.7,518.7 492.3,518.7 
		492.3,492.2 518.7,492.2 518.7,475.7 518.7,458.7 492.2,458.7 492.2,438.5 518.7,438.5 518.7,421.6 518.7,404.6 492.2,404.6 
		492.2,384.4 518.7,384.4 518.7,367.5 518.7,350.5 492.2,350.5 492.2,330.3 518.7,330.3 518.7,313.4 518.7,296.4 492.2,296.4 
		492.2,276.3 518.7,276.3 518.7,259.4 518.7,242.3 492.2,242.3 492.2,222.2 518.7,222.2 518.7,205.3 518.7,188.2 492.2,188.2 
		492.2,168.1 518.7,168.1 518.7,151.2 518.7,134.2 492.2,134.2 492.2,114 518.7,114 518.7,97.1 518.7,80.1 492.2,80.1 492.2,59.9 
		518.7,59.9 518.7,43 518.7,26.4 	"></polygon></g>
</g>
<g id="w">
	<g id="change1_4"><polygon fill="#FFFFFF" points="33.1,33.3 33.1,6.7 43,6.7 43,0 26.4,0 26.4,26.5 0,26.5 0,43 0,60.1 26.5,60.1 26.5,80.2 0,80.2 
		0,97.1 0,114.1 26.5,114.1 26.5,134.3 0,134.3 0,151.2 0,168.2 26.5,168.2 26.5,188.4 0,188.4 0,205.3 0,222.3 26.5,222.3 
		26.5,242.4 0,242.4 0,259.4 0,276.4 26.5,276.4 26.5,296.5 0,296.5 0,313.4 0,330.5 26.5,330.5 26.5,350.6 0,350.6 0,367.5 
		0,384.5 26.5,384.5 26.5,404.7 0,404.7 0,421.6 0,438.6 26.5,438.6 26.5,458.8 0,458.8 0,475.7 0,492.3 26.5,492.3 26.5,518.7 
		43,518.7 43,512 33.3,512 33.3,485.6 6.7,485.6 6.7,475.7 6.7,465.6 33.3,465.6 33.3,431.8 6.7,431.8 6.7,421.6 6.7,411.5 
		33.3,411.5 33.3,377.7 6.7,377.7 6.7,367.5 6.7,357.5 33.3,357.5 33.3,323.6 6.7,323.6 6.7,313.4 6.7,303.4 33.3,303.4 33.3,269.5 
		6.7,269.5 6.7,259.4 6.7,249.3 33.3,249.3 33.3,215.5 6.7,215.5 6.7,205.3 6.7,195.2 33.3,195.2 33.3,161.4 6.7,161.4 6.7,151.2 
		6.7,141.1 33.3,141.1 33.3,107.3 6.7,107.3 6.7,97.1 6.7,87 33.3,87 33.3,53.2 6.7,53.2 6.7,43 6.7,43 6.7,33.3 	"></polygon></g>
</g>
</svg>