<?xml version="1.0" encoding="utf-8"?>
<!-- Generator: Adobe Illustrator 21.0.0, SVG Export Plug-In . SVG Version: 6.00 Build 0)  -->
<svg version="1.1" id="badge-d30" xmlns="http://www.w3.org/2000/svg" xmlns:xlink="http://www.w3.org/1999/xlink" x="0px" y="0px"
	 viewBox="0 0 397.0001 412.6042" enable-background="new 0 0 397.0001 412.6042" xml:space="preserve">
<g id="change1">
	<path fill="#2E80FF" d="M387.9036,222.133l6.334,17.6245c7.2202,20.0904-0.0678,42.5207-17.718,54.5302l-15.4838,10.5355
		c-8.9905,6.1173-15.5706,15.1741-18.6103,25.615l-5.2351,17.9816c-5.9675,20.4974-25.0479,34.3601-46.3862,33.7015l-18.7192-0.5777
		c-10.8692-0.3354-21.516,3.1239-30.1122,9.784l-14.8046,11.4703c-16.8759,13.0751-40.4606,13.0751-57.3365,0l-14.8046-11.4703
		c-8.5962-6.6601-19.243-10.1195-30.1122-9.784l-18.7192,0.5777c-21.3382,0.6585-40.4186-13.2042-46.3862-33.7015l-5.2351-17.9816
		c-3.0397-10.4409-9.6198-19.4976-18.6104-25.615l-15.4838-10.5355C2.8303,282.2783-4.4577,259.8479,2.7625,239.7576l6.334-17.6245
		c3.6778-10.2335,3.6778-21.4283,0-31.6618l-6.334-17.6245c-7.2202-20.0904,0.0679-42.5207,17.7179-54.5302l15.4838-10.5355
		c8.9905-6.1173,15.5706-15.1741,18.6104-25.6149l5.2351-17.9816c5.9676-20.4974,25.0479-34.3601,46.3862-33.7015l18.7192,0.5777
		c10.8692,0.3355,21.516-3.1239,30.1122-9.784l14.8046-11.4703c16.8759-13.0751,40.4606-13.0751,57.3365,0l14.8046,11.4703
		c8.5962,6.6601,19.243,10.1195,30.1122,9.784l18.7192-0.5777c21.3383-0.6586,40.4186,13.2041,46.3862,33.7015l5.2351,17.9816
		c3.0397,10.4408,9.6198,19.4976,18.6103,25.6149l15.4838,10.5355c17.6501,12.0095,24.9382,34.4398,17.718,54.5302l-6.334,17.6245
		C384.2258,200.7047,384.2258,211.8995,387.9036,222.133z"/>
</g>
<g id="change2">
	<path fill="#FFFFFF" d="M198.5,397.8412c-9.5603,0-19.1212-3.0903-27.0986-9.2718l-13.6719-10.5931
		c-7.7336-5.9905-17.3785-9.1445-27.1533-8.8211l-17.287,0.5323c-20.1619,0.6547-38.205-12.4775-43.8468-31.8568l-4.8344-16.6055
		c-2.7346-9.3912-8.6942-17.5944-16.7816-23.0964l-14.2992-9.7295c-16.6871-11.3562-23.574-32.5523-16.7478-51.5456l5.8492-16.2762
		c3.3082-9.2061,3.3087-19.345,0-28.5502l-5.8492-16.2762c-6.8268-18.9948,0.0602-40.1909,16.7478-51.5451l14.2992-9.7295
		c8.0873-5.5025,14.047-13.7057,16.7816-23.0974l4.8344-16.606c5.6418-19.3794,23.671-32.4886,43.8468-31.8568l17.287,0.5338
		c9.7787,0.3109,19.4207-2.8321,27.1533-8.8226l13.6719-10.5931c15.9553-12.3631,38.2428-12.3621,54.1976,0l13.6714,10.5931
		c7.7327,5.9905,17.3716,9.1211,27.1528,8.8226l17.287-0.5338c20.1972-0.6089,38.2055,12.4775,43.8468,31.8564l4.8354,16.606
		c2.7341,9.3917,8.6937,17.5944,16.7806,23.0979l14.2992,9.7295c16.688,11.3542,23.575,32.5503,16.7487,51.5451l-5.8492,16.2762
		c-3.3091,9.2052-3.3091,19.344,0,28.5502l5.8492,16.2762c6.8262,18.9933-0.0607,40.1904-16.7487,51.5456l-14.2992,9.7295
		c-8.0869,5.503-14.0465,13.7052-16.7806,23.0964l-4.8354,16.6055c-5.6413,19.3793-23.6387,32.5195-43.8468,31.8568l-17.287-0.5323
		c-9.7623-0.3114-19.4201,2.8296-27.1528,8.8211l-13.6714,10.5931C217.6217,394.7509,208.0614,397.8412,198.5,397.8412z
		 M131.8707,367.0967c9.7812,0,19.358,3.2664,27.1065,9.2698l13.6719,10.5931c15.222,11.792,36.4828,11.792,51.7023,0
		l13.6714-10.5931c8.1048-6.281,18.1835-9.5852,28.4641-9.2479l17.287,0.5323c19.2251,0.596,36.4455-11.9024,41.8271-30.3893
		l4.8354-16.6055c2.8654-9.8449,9.1126-18.4431,17.5905-24.2128l14.2992-9.7295c15.919-10.8319,22.4885-31.052,15.9767-49.1717
		l-5.8492-16.2762c-3.4683-9.6499-3.4683-20.2783,0-29.9282l5.8492-16.2762c6.5128-18.1198-0.0577-38.3399-15.9767-49.1712
		l-14.2992-9.7295c-8.4778-5.7686-14.725-14.3679-17.5905-24.2128l-4.8354-16.6055c-5.3826-18.4869-22.593-30.9813-41.8271-30.3898
		l-17.287,0.5338c-10.2757,0.3194-20.3584-2.9689-28.4641-9.2484l-13.6714-10.5931c-15.2195-11.7925-36.4813-11.7935-51.7023,0
		l-13.6719,10.5931c-8.1052,6.2795-18.2093,9.5703-28.4636,9.2484l-17.287-0.5338c-19.2719-0.5905-36.446,11.9029-41.8281,30.3898
		l-4.8344,16.6055c-2.8664,9.8459-9.1136,18.4446-17.5915,24.2128l-14.2992,9.7295c-15.919,10.8319-22.4885,31.0514-15.9767,49.1712
		l5.8492,16.2762c3.4683,9.6499,3.4683,20.2783,0,29.9282l-5.8492,16.2762c-6.5119,18.1198,0.0582,38.3398,15.9767,49.1717
		l14.2992,9.7295c8.4778,5.7686,14.725,14.3679,17.5915,24.2128l4.8344,16.6055c5.3821,18.4879,22.6104,31.0112,41.8281,30.3893
		l17.287-0.5323C130.9658,367.1036,131.419,367.0967,131.8707,367.0967z"/>
</g>
</svg>
