<?xml version="1.0" encoding="utf-8"?><!DOCTYPE svg PUBLIC "-//W3C//DTD SVG 1.1//EN" "http://www.w3.org/Graphics/SVG/1.1/DTD/svg11.dtd">
<svg version="1.1" id="Layer_1" xmlns="http://www.w3.org/2000/svg" xmlns:xlink="http://www.w3.org/1999/xlink" x="0px" y="0px" viewBox="0 0 500 500" enable-background="new 0 0 500 500" xml:space="preserve">
<g id="change1_1"><path fill="#FFFFFF" d="M333.4,451.4H166.6l-118-118V166.6l1.4-1.3L166.6,48.6h166.8l118,118v166.8L333.4,451.4z M170.4,442.1h159.2
	l112.5-112.5V170.4L329.6,57.9H170.4L57.9,170.4v159.2L170.4,442.1z"></path></g>
<g id="change1_2"><path fill="#FFFFFF" d="M342.6,473.5H157.4L26.5,342.6V157.4L157.4,26.5h185.2l130.9,130.9v185.2L342.6,473.5z M161.2,464.3h177.5
	l125.5-125.5V161.2L338.8,35.7H161.2L35.7,161.2v177.5L161.2,464.3z"></path></g>
<g id="change1_3"><path fill="#FFFFFF" d="M426.8,426.8H73.2V73.2h353.6V426.8z M82.5,417.5h335.1V82.5H82.5V417.5z"></path></g>
<g id="change1_4"><path fill="#FFFFFF" d="M250,500L0,250L250,0l250,250L250,500z M13.1,250L250,486.9L486.9,250L250,13.1L13.1,250z"></path></g>
</svg>