<?xml version="1.0" encoding="utf-8"?><!DOCTYPE svg PUBLIC "-//W3C//DTD SVG 1.1//EN" "http://www.w3.org/Graphics/SVG/1.1/DTD/svg11.dtd">
<svg version="1.1" id="Layer_1" xmlns="http://www.w3.org/2000/svg" xmlns:xlink="http://www.w3.org/1999/xlink" x="0px" y="0px" viewBox="0 0 500 500" enable-background="new 0 0 500 500" xml:space="preserve">
<g id="change1_1"><path fill="#FFFFFF" d="M250,500l-39.3-39.3h-47.9l-33.9-33.9H73.2v-55.6l-33.9-33.9v-48L0,250l39.3-39.3v-47.9l33.9-33.9V73.2h55.6
	l33.9-33.9h47.9L250,0l39.3,39.3h47.9l33.9,33.9h55.6v55.6l33.9,33.9v47.9L500,250l-39.3,39.3v48l-33.9,33.9v55.6h-55.6l-33.9,33.9
	h-47.9L250,500z M166.2,452.4h47.9l35.9,35.9l35.9-35.9h47.9l33.9-33.9h50.8v-50.8l33.9-33.9v-48l35.9-35.9L452.4,214v-47.9
	l-33.9-33.9V81.5h-50.8l-33.9-33.9h-47.9L250,11.7l-35.9,35.9h-47.9l-33.9,33.9H81.5v50.8l-33.9,33.9v47.9L11.7,250l35.9,35.9v48
	l33.9,33.9v50.8h50.8L166.2,452.4z"></path></g>
<g id="change1_2"><polygon fill="#FFFFFF" points="436.2,220.8 436.2,172.9 402.3,139 402.3,97.7 361,97.7 327.1,63.8 279.2,63.8 250,34.6 220.8,63.8 
	172.9,63.8 139,97.7 97.7,97.7 97.7,139 63.8,172.9 63.8,220.8 34.6,250 63.8,279.2 63.8,327.1 97.7,361 97.7,402.3 139,402.3 
	172.9,436.2 220.8,436.2 250,465.4 279.2,436.2 327.1,436.2 361,402.3 402.3,402.3 402.3,361 436.2,327.1 436.2,279.2 465.4,250 "></polygon></g>
<g id="change2_1"><circle fill="#3F4651" cx="373.5" cy="127.4" r="7.8"></circle></g>
<g id="change2_2"><circle fill="#3F4651" cx="125.2" cy="127.4" r="7.8"></circle></g>
<g id="change2_3"><circle fill="#3F4651" cx="373.5" cy="373.7" r="7.8"></circle></g>
<g id="change2_4"><circle fill="#3F4651" cx="125.2" cy="373.7" r="7.8"></circle></g>
</svg>