<?xml version="1.0" encoding="utf-8"?><!DOCTYPE svg PUBLIC "-//W3C//DTD SVG 1.1//EN" "http://www.w3.org/Graphics/SVG/1.1/DTD/svg11.dtd">
<svg version="1.1" id="Layer_1" xmlns="http://www.w3.org/2000/svg" xmlns:xlink="http://www.w3.org/1999/xlink" x="0px" y="0px" viewBox="0 0 500 500" enable-background="new 0 0 500 500" xml:space="preserve">
<g id="change1_1"><path fill="#FFFFFF" d="M250,500l-39.3-39.3h-47.9l-33.9-33.9H73.2v-55.6l-33.9-33.9v-48L0,250l39.3-39.3v-47.9l33.9-33.9V73.2h55.6
	l33.9-33.9h47.9L250,0l39.3,39.3h47.9l33.9,33.9h55.6v55.6l33.9,33.9v47.9L500,250l-39.3,39.3v48l-33.9,33.9v55.6h-55.6l-33.9,33.9
	h-47.9L250,500z M166.2,452.4h47.9l35.9,35.9l35.9-35.9h47.9l33.9-33.9h50.8v-50.8l33.9-33.9v-48l35.9-35.9l-35.9-35.9v-47.9
	l-33.9-33.9V81.5h-50.8l-33.9-33.9h-47.9L250,11.7l-35.9,35.9h-47.9l-33.9,33.9H81.5v50.8l-33.9,33.9v47.9L11.7,250l35.9,35.9v48
	l33.9,33.9v50.8h50.8L166.2,452.4z"></path></g>
<g id="change1_2"><path fill="#FFFFFF" d="M250,471.2l-30.9-30.9h-47.9l-33.9-33.9H93.6v-43.7l-33.9-33.9v-47.9L28.8,250l30.9-30.9v-47.9l33.9-33.9
	V93.6h43.7l33.9-33.9h47.9L250,28.8l30.9,30.9h47.9l33.9,33.9h43.7v43.7l33.9,33.9v47.9l30.9,30.9l-30.9,30.9v47.9l-33.9,33.9v43.7
	h-43.7l-33.9,33.9h-47.9L250,471.2z M174.6,432.1h47.9l27.5,27.5l27.5-27.5h47.9l33.9-33.9h38.9v-38.9l33.9-33.9v-47.9l27.5-27.5
	l-27.5-27.5v-47.9l-33.9-33.9v-38.9h-38.9L325.4,68h-47.9L250,40.5L222.5,68h-47.9l-33.9,33.9h-38.9v38.9l-33.9,33.9v47.9L40.5,250
	l27.5,27.5v47.9l33.9,33.9v38.9h38.9L174.6,432.1z"></path></g>
<g id="change1_3"><circle fill="#FFFFFF" cx="373.5" cy="127.4" r="7.8"></circle></g>
<g id="change1_4"><circle fill="#FFFFFF" cx="125.2" cy="127.4" r="7.8"></circle></g>
<g id="change1_5"><circle fill="#FFFFFF" cx="373.5" cy="373.7" r="7.8"></circle></g>
<g id="change1_6"><circle fill="#FFFFFF" cx="125.2" cy="373.7" r="7.8"></circle></g>
</svg>