<?xml version="1.0" encoding="utf-8"?><!DOCTYPE svg PUBLIC "-//W3C//DTD SVG 1.1//EN" "http://www.w3.org/Graphics/SVG/1.1/DTD/svg11.dtd">
<svg version="1.1" id="Layer_1" xmlns="http://www.w3.org/2000/svg" xmlns:xlink="http://www.w3.org/1999/xlink" x="0px" y="0px" viewBox="0 0 500 500" enable-background="new 0 0 500 500" xml:space="preserve">
<g>
	<g id="change1_1"><circle fill="#FFFFFF" cx="250" cy="250" r="234.9"></circle></g>
</g>
<g>
	<g id="change1_2"><circle fill="#FFFFFF" cx="250" cy="250" r="250"></circle></g>
</g>
<g id="change2_1"><path fill="#3F4651" d="M438.5,318.6c2.1-5.6,8.5-8.7,14.1-7.1c6,1.8,8.9,8.3,6.5,14.6L438.5,318.6z M450.8,250
	c-0.3,6,4.4,11.1,10.4,11.5c6.1,0.4,11.3-4.8,11.6-11.5H450.8z M466.8,280.2c-3-4.4-6.1-8.6-6.1-8.6s-4.2,3.4-8.4,6.6
	c-4.2,3.2-8.3,6-8.3,6s0.8,1,1.9,2.6s2.8,3.8,4,5.9c2.7,4.3,5.3,8.9,5.3,8.9s4.5-2.8,9.1-5.9c2.4-1.5,4.3-3.2,5.9-4.4
	c1.6-1.3,2.6-2.1,2.6-2.1S469.8,284.6,466.8,280.2z M420.6,393.2c4.3-5.2,3.4-12.6-1.4-16.2c-5-3.7-11.6-2.5-15.5,2L420.6,393.2z
	 M438.5,318.6c-2.1,5.6,0.9,12.1,6.3,14.5c5.7,2.5,12-0.7,14.4-7L438.5,318.6z M445.3,359.8c-0.4-2-0.9-4.5-1.7-7.2
	c-1.5-5.3-3.1-10.3-3.1-10.3s-5,1.9-9.8,3.5c-2.4,0.8-5,1.5-6.9,2s-3.2,0.8-3.2,0.8s1.3,4.9,2.5,10c0.6,2.6,1.1,5.2,1.6,7.1
	c0.4,2,0.6,3.3,0.6,3.3s1.3-0.3,3.2-0.7c1.9-0.5,4.5-1.2,7-1.9c5.2-1.4,10.4-3.1,10.4-3.1S445.7,361.8,445.3,359.8z M361.3,442.8
	c5.8-3.5,7.7-10.4,4.3-15.5c-3.4-5.1-10.2-6.6-15.3-3.5L361.3,442.8z M403.8,379c-4,4.4-3.7,11.4,0.7,15.6
	c4.4,4.2,11.6,3.6,16.2-1.4L403.8,379z M396.7,412.5c0.5-5.4,0.8-10.6,0.8-10.6s-5.4,0-10.6-0.3c-5.2-0.2-10.2-0.6-10.2-0.6
	s0,1.3-0.2,3.2c-0.2,1.9-0.6,4.4-0.9,6.9c-0.7,5.1-1.6,10.4-1.6,10.4s5.2,0.7,10.6,1.2c2.7,0.2,5.5,0.5,7.5,0.6
	c2.1,0.1,3.4,0.1,3.4,0.1S396.2,417.8,396.7,412.5z M288.6,469.2c6.7-0.8,10.8-7.3,9.4-13.1c-1.4-6-7.2-9.2-13.2-8.6L288.6,469.2z
	 M350.3,423.7c-5,3.3-7.3,9.5-4.6,15c2.7,5.4,9.9,7.7,15.6,4L350.3,423.7z M332.3,453c1.2-2.3,2.3-4.8,3-6.7
	c0.7-1.9,1.2-3.1,1.2-3.1s-1.2-0.4-3.1-1.1c-1.8-0.6-4.3-1.6-6.7-2.7c-4.9-2.1-9.4-4.3-9.4-4.3s-2.1,4.7-4.4,9.4
	c-1.1,2.4-2.4,4.7-3.4,6.3c-1,1.7-1.7,2.8-1.7,2.8s1.2,0.6,3,1.6s4.2,2.2,6.6,3.2c4.8,2.1,9.9,4.2,9.9,4.2S330,457.7,332.3,453z
	 M211.4,469.2c6.7,1,12.6-3.1,13.3-9.1s-3.6-11.7-9.5-12.6L211.4,469.2z M284.8,447.5c-5.9,0.9-10.1,6.5-9.5,12.6
	c0.7,6,6.6,10.1,13.3,9.1L284.8,447.5z M257.9,468.7c3.8-3.9,7.4-7.7,7.4-7.7s-4.1-3.5-7.9-6.9c-3.8-3.5-7.4-6.9-7.4-6.9
	s-3.5,3.5-7.4,6.9c-3.8,3.5-7.9,6.9-7.9,6.9s3.5,3.8,7.4,7.7c3.8,3.9,7.9,7.7,7.9,7.7S254.1,472.6,257.9,468.7z M138.7,442.8
	c5.7,3.7,13,1.3,15.6-4c2.7-5.5,0.4-11.7-4.6-15L138.7,442.8z M215.2,447.5c-5.9-0.7-11.7,2.6-13.2,8.6c-1.4,5.8,2.7,12.3,9.4,13.1
	L215.2,447.5z M182.6,458.4c2.4-1,4.8-2.3,6.6-3.2c1.8-1,3-1.6,3-1.6s-0.7-1.1-1.7-2.8c-1-1.7-2.3-3.9-3.4-6.3
	c-2.4-4.8-4.4-9.4-4.4-9.4s-4.6,2.2-9.4,4.3c-2.4,1.1-4.9,2.1-6.7,2.7s-3.1,1.1-3.1,1.1s0.5,1.3,1.2,3.1c0.7,1.9,1.8,4.3,3,6.7
	c2.3,4.8,4.9,9.6,4.9,9.6S177.7,460.6,182.6,458.4z M79.4,393.2c4.5,5,11.8,5.6,16.2,1.4s4.7-11.2,0.7-15.6L79.4,393.2z
	 M149.7,423.7c-5.1-3.1-12-1.5-15.3,3.5c-3.4,5.1-1.4,12,4.3,15.5L149.7,423.7z M107.9,423.3c2.1-0.2,4.8-0.4,7.5-0.6
	c5.4-0.5,10.6-1.2,10.6-1.2s-0.9-5.3-1.6-10.4c-0.3-2.5-0.6-5-0.9-6.9c-0.2-1.9-0.2-3.2-0.2-3.2s-5,0.4-10.2,0.6s-10.6,0.3-10.6,0.3
	s0.3,5.2,0.8,10.6s1.2,10.9,1.2,10.9S105.8,423.4,107.9,423.3z M40.8,326.1c2.4,6.3,8.7,9.5,14.4,7c5.4-2.4,8.4-8.9,6.3-14.5
	L40.8,326.1z M96.3,379c-3.8-4.6-10.5-5.7-15.5-2c-4.8,3.6-5.7,11-1.4,16.2L96.3,379z M64.5,366.2c2.6,0.7,5.1,1.4,7,1.9
	s3.2,0.7,3.2,0.7s0.2-1.3,0.6-3.3c0.4-1.9,1-4.5,1.6-7.1c1.2-5.1,2.5-10,2.5-10s-1.3-0.3-3.2-0.8c-1.9-0.5-4.5-1.1-6.9-2
	c-4.8-1.6-9.8-3.5-9.8-3.5s-1.6,5-3.1,10.3c-0.8,2.7-1.3,5.2-1.7,7.2s-0.7,3.3-0.7,3.3S59.4,364.8,64.5,366.2z M27.2,250
	c0.3,6.7,5.5,11.9,11.6,11.5S49.5,256,49.2,250H27.2z M61.5,318.6c-2.1-5.6-8.5-8.7-14.1-7.1c-6,1.8-8.9,8.3-6.5,14.6L61.5,318.6z
	 M29.8,291.4c1.6,1.2,3.6,2.9,5.9,4.4c4.6,3.1,9.1,5.9,9.1,5.9s2.6-4.6,5.3-8.9c1.2-2.2,2.9-4.3,4-5.9s1.9-2.6,1.9-2.6
	s-4.1-2.9-8.3-6s-8.4-6.6-8.4-6.6s-3.1,4.1-6.1,8.6c-3,4.4-6,9.1-6,9.1S28.2,290.1,29.8,291.4z M40.8,173.9
	c-2.3,6.3,0.5,12.9,6.5,14.6c5.7,1.7,12.1-1.5,14.1-7.1L40.8,173.9z M49.2,250c0.3-6-4.4-11.1-10.4-11.5
	c-6.1-0.4-11.3,4.8-11.6,11.5H49.2z M33.2,219.8c3,4.4,6.1,8.6,6.1,8.6s4.2-3.4,8.4-6.6c4.2-3.2,8.3-6,8.3-6s-0.8-1-1.9-2.6
	c-1.1-1.6-2.8-3.8-4-5.9c-2.7-4.3-5.3-8.9-5.3-8.9s-4.5,2.8-9.1,5.9c-2.4,1.5-4.3,3.2-5.9,4.4c-1.6,1.3-2.6,2.1-2.6,2.1
	S30.2,215.4,33.2,219.8z M79.4,106.8c-4.3,5.2-3.4,12.6,1.4,16.2c5,3.7,11.6,2.5,15.5-2L79.4,106.8z M61.5,181.4
	c2.1-5.6-0.9-12.1-6.3-14.5c-5.7-2.5-12,0.7-14.4,7L61.5,181.4z M54.7,140.2c0.4,2,0.9,4.5,1.7,7.2c1.5,5.3,3.1,10.3,3.1,10.3
	s5-1.9,9.8-3.5c2.4-0.8,5-1.5,6.9-2s3.2-0.8,3.2-0.8s-1.3-4.9-2.5-10c-0.6-2.6-1.1-5.2-1.6-7.1c-0.4-2-0.6-3.3-0.6-3.3
	s-1.3,0.3-3.2,0.7c-1.9,0.5-4.5,1.2-7,1.9c-5.2,1.4-10.4,3.1-10.4,3.1S54.3,138.2,54.7,140.2z M138.7,57.2
	c-5.8,3.5-7.7,10.4-4.3,15.5s10.2,6.6,15.3,3.5L138.7,57.2z M96.2,121c4-4.4,3.7-11.4-0.7-15.6c-4.4-4.2-11.6-3.6-16.2,1.4L96.2,121
	z M103.3,87.5c-0.5,5.4-0.8,10.6-0.8,10.6s5.4,0,10.6,0.3c5.2,0.2,10.2,0.6,10.2,0.6s0-1.3,0.2-3.2c0.2-1.9,0.6-4.4,0.9-6.9
	c0.7-5.1,1.6-10.4,1.6-10.4s-5.2-0.7-10.6-1.2c-2.7-0.2-5.5-0.5-7.5-0.6c-2.1-0.1-3.4-0.1-3.4-0.1S103.8,82.2,103.3,87.5z
	 M211.4,30.8c-6.7,0.8-10.8,7.3-9.4,13.1c1.4,6,7.2,9.2,13.2,8.6L211.4,30.8z M149.7,76.3c5-3.3,7.3-9.5,4.6-15
	c-2.7-5.4-9.9-7.7-15.6-4L149.7,76.3z M167.7,47c-1.2,2.3-2.3,4.8-3,6.7s-1.2,3.1-1.2,3.1s1.2,0.4,3.1,1.1c1.8,0.6,4.3,1.6,6.7,2.7
	c4.9,2.1,9.4,4.3,9.4,4.3s2.1-4.7,4.4-9.4c1.1-2.4,2.4-4.7,3.4-6.3c1-1.7,1.7-2.8,1.7-2.8s-1.2-0.6-3-1.6s-4.2-2.2-6.6-3.2
	c-4.8-2.1-9.9-4.2-9.9-4.2S170,42.3,167.7,47z M288.6,30.8c-6.7-1-12.6,3.1-13.3,9.1c-0.7,6,3.6,11.7,9.5,12.6L288.6,30.8z
	 M215.2,52.5c5.9-0.9,10.1-6.5,9.5-12.6c-0.7-6-6.6-10.1-13.3-9.1L215.2,52.5z M242.1,31.3c-3.8,3.9-7.4,7.7-7.4,7.7
	s4.1,3.5,7.9,6.9c3.8,3.5,7.4,6.9,7.4,6.9s3.5-3.5,7.4-6.9c3.8-3.5,7.9-6.9,7.9-6.9s-3.5-3.8-7.4-7.7c-3.8-3.9-7.9-7.7-7.9-7.7
	S245.9,27.4,242.1,31.3z M361.3,57.2c-5.7-3.7-13-1.3-15.6,4c-2.7,5.5-0.4,11.7,4.6,15L361.3,57.2z M284.8,52.5
	c5.9,0.7,11.7-2.6,13.2-8.6c1.4-5.8-2.7-12.3-9.4-13.1L284.8,52.5z M317.4,41.6c-2.4,1-4.8,2.3-6.6,3.2c-1.8,1-3,1.6-3,1.6
	s0.7,1.1,1.7,2.8s2.3,3.9,3.4,6.3c2.4,4.8,4.4,9.4,4.4,9.4s4.6-2.2,9.4-4.3c2.4-1.1,4.9-2.1,6.7-2.7c1.8-0.6,3.1-1.1,3.1-1.1
	s-0.5-1.3-1.2-3.1c-0.7-1.9-1.8-4.3-3-6.7c-2.3-4.8-4.9-9.6-4.9-9.6S322.3,39.4,317.4,41.6z M420.6,106.8c-4.5-5-11.8-5.6-16.2-1.4
	c-4.4,4.2-4.7,11.2-0.7,15.6L420.6,106.8z M350.3,76.3c5.1,3.1,12,1.5,15.3-3.5c3.4-5.1,1.4-12-4.3-15.5L350.3,76.3z M392.1,76.7
	c-2.1,0.2-4.8,0.4-7.5,0.6c-5.4,0.5-10.6,1.2-10.6,1.2s0.9,5.3,1.6,10.4c0.3,2.5,0.6,5,0.9,6.9c0.2,1.9,0.2,3.2,0.2,3.2
	s5-0.4,10.2-0.6s10.6-0.3,10.6-0.3s-0.3-5.2-0.8-10.6s-1.2-10.9-1.2-10.9S394.2,76.6,392.1,76.7z M459.2,173.9
	c-2.4-6.3-8.7-9.5-14.4-7c-5.4,2.4-8.4,8.9-6.3,14.5L459.2,173.9z M403.7,121c3.8,4.6,10.5,5.7,15.5,2c4.8-3.6,5.7-11,1.4-16.2
	L403.7,121z M435.5,133.8c-2.6-0.7-5.1-1.4-7-1.9s-3.2-0.7-3.2-0.7s-0.2,1.3-0.6,3.3c-0.4,1.9-1,4.5-1.6,7.1c-1.2,5.1-2.5,10-2.5,10
	s1.3,0.3,3.2,0.8c1.9,0.5,4.5,1.1,6.9,2c4.8,1.6,9.8,3.5,9.8,3.5s1.6-5,3.1-10.3c0.8-2.7,1.3-5.2,1.7-7.2c0.4-2,0.7-3.3,0.7-3.3
	S440.6,135.2,435.5,133.8z M472.8,250c-0.3-6.7-5.5-11.9-11.6-11.5s-10.7,5.5-10.4,11.5H472.8z M438.5,181.4
	c2.1,5.6,8.5,8.7,14.1,7.1c6-1.8,8.9-8.3,6.5-14.6L438.5,181.4z M470.2,208.6c-1.6-1.2-3.6-2.9-5.9-4.4c-4.6-3.1-9.1-5.9-9.1-5.9
	s-2.6,4.6-5.3,8.9c-1.2,2.2-2.9,4.3-4,5.9c-1.1,1.6-1.9,2.6-1.9,2.6s4.1,2.9,8.3,6c4.2,3.1,8.4,6.6,8.4,6.6s3.1-4.1,6.1-8.6
	c3-4.4,6-9.1,6-9.1S471.8,209.9,470.2,208.6z"></path></g>
</svg>