<?xml version="1.0" encoding="utf-8"?><!DOCTYPE svg PUBLIC "-//W3C//DTD SVG 1.1//EN" "http://www.w3.org/Graphics/SVG/1.1/DTD/svg11.dtd">
<svg version="1.1" id="Layer_1" xmlns="http://www.w3.org/2000/svg" xmlns:xlink="http://www.w3.org/1999/xlink" x="0px" y="0px" viewBox="0 0 500 500" enable-background="new 0 0 500 500" xml:space="preserve">
<g id="change1_1"><path fill="#FFFFFF" d="M443.3,320.3c2.1-5.7,8.7-9,14.5-7.3c6.1,1.8,9.1,8.5,6.7,15L443.3,320.3z M455.9,250
	c-0.3,6.1,4.5,11.4,10.7,11.8c6.2,0.4,11.5-4.9,11.9-11.8H455.9z M472.4,280.9c-3.1-4.5-6.3-8.8-6.3-8.8s-4.3,3.5-8.6,6.7
	c-4.3,3.2-8.5,6.2-8.5,6.2s0.8,1.1,2,2.7c1.1,1.6,2.8,3.9,4.1,6.1c2.7,4.4,5.4,9.2,5.4,9.2s4.6-2.9,9.3-6c2.4-1.6,4.4-3.3,6.1-4.5
	c1.6-1.3,2.7-2.2,2.7-2.2S475.5,285.4,472.4,280.9z M425,396.8c4.4-5.3,3.5-12.9-1.4-16.6c-5.1-3.7-11.9-2.6-15.8,2.1L425,396.8z
	 M443.3,320.3c-2.1,5.7,0.9,12.5,6.5,14.9c5.8,2.6,12.3-0.7,14.7-7.2L443.3,320.3z M450.3,362.6c-0.4-2-0.9-4.7-1.8-7.4
	c-1.5-5.4-3.2-10.6-3.2-10.6s-5.1,1.9-10,3.5c-2.4,0.9-5.1,1.5-7,2c-1.9,0.5-3.2,0.8-3.2,0.8s1.4,5,2.6,10.2
	c0.6,2.7,1.2,5.3,1.6,7.3c0.4,2,0.6,3.4,0.6,3.4s1.3-0.3,3.3-0.8c2-0.5,4.6-1.2,7.2-1.9c5.3-1.5,10.7-3.2,10.7-3.2
	S450.7,364.6,450.3,362.6z M364.2,447.7c5.9-3.6,7.9-10.7,4.4-15.9c-3.5-5.2-10.5-6.8-15.7-3.6L364.2,447.7z M407.7,382.3
	c-4.1,4.5-3.8,11.7,0.7,16c4.5,4.3,11.9,3.7,16.6-1.5L407.7,382.3z M400.4,416.6c0.5-5.5,0.8-10.9,0.8-10.9s-5.5,0-10.8-0.3
	c-5.3-0.2-10.4-0.7-10.4-0.7s0,1.4-0.2,3.3c-0.2,1.9-0.6,4.5-0.9,7.1c-0.7,5.2-1.7,10.6-1.7,10.6s5.3,0.7,10.9,1.2
	c2.8,0.2,5.6,0.5,7.7,0.6c2.1,0.1,3.5,0.1,3.5,0.1S400,422.1,400.4,416.6z M289.7,474.8c6.9-0.8,11.1-7.5,9.6-13.4
	c-1.5-6.1-7.4-9.5-13.5-8.8L289.7,474.8z M352.9,428.1c-5.1,3.4-7.5,9.7-4.7,15.4c2.7,5.5,10.2,7.9,16,4.1L352.9,428.1z
	 M334.4,458.1c1.2-2.4,2.3-4.9,3.1-6.9c0.8-1.9,1.3-3.2,1.3-3.2s-1.3-0.4-3.1-1.1c-1.9-0.6-4.4-1.6-6.9-2.7c-5-2.2-9.7-4.4-9.7-4.4
	s-2.1,4.8-4.5,9.7c-1.2,2.5-2.5,4.8-3.5,6.5c-1,1.7-1.7,2.9-1.7,2.9s1.2,0.7,3,1.6c1.8,1,4.3,2.3,6.8,3.3c5,2.2,10.2,4.3,10.2,4.3
	S332.1,463,334.4,458.1z M210.4,474.8c6.8,1.1,12.9-3.1,13.6-9.3c0.7-6.2-3.7-12-9.7-12.9L210.4,474.8z M285.8,452.6
	c-6,0.9-10.4,6.7-9.7,12.9c0.7,6.2,6.8,10.4,13.6,9.3L285.8,452.6z M258.1,474.3c3.9-4,7.6-7.9,7.6-7.9s-4.2-3.5-8.1-7.1
	c-3.9-3.6-7.6-7.1-7.6-7.1s-3.6,3.6-7.6,7.1c-3.9,3.6-8.1,7.1-8.1,7.1s3.6,3.9,7.6,7.9c3.9,4,8.1,7.9,8.1,7.9
	S254.2,478.2,258.1,474.3z M135.9,447.7c5.8,3.8,13.3,1.4,16-4.1c2.8-5.7,0.4-12-4.7-15.4L135.9,447.7z M214.3,452.6
	c-6.1-0.7-12,2.7-13.5,8.8c-1.5,6,2.7,12.6,9.6,13.4L214.3,452.6z M180.9,463.7c2.5-1,5-2.3,6.8-3.3c1.8-1,3-1.6,3-1.6
	s-0.7-1.1-1.7-2.9c-1-1.7-2.3-4-3.5-6.5c-2.4-4.9-4.5-9.7-4.5-9.7s-4.7,2.3-9.7,4.4c-2.5,1.1-5,2.1-6.9,2.7
	c-1.9,0.7-3.1,1.1-3.1,1.1s0.5,1.3,1.3,3.2c0.8,2,1.9,4.5,3.1,6.9c2.4,4.9,5.1,9.9,5.1,9.9S175.9,465.9,180.9,463.7z M75.1,396.8
	c4.6,5.1,12.1,5.8,16.6,1.5c4.5-4.3,4.8-11.5,0.7-16L75.1,396.8z M147.2,428.2c-5.2-3.2-12.3-1.5-15.7,3.6
	c-3.5,5.2-1.5,12.3,4.4,15.9L147.2,428.2z M104.3,427.7c2.1-0.2,4.9-0.4,7.7-0.6c5.6-0.5,10.9-1.2,10.9-1.2s-1-5.4-1.7-10.6
	c-0.3-2.6-0.7-5.2-0.9-7.1c-0.2-1.9-0.2-3.3-0.2-3.3s-5.1,0.4-10.4,0.7c-5.3,0.2-10.8,0.3-10.8,0.3s0.3,5.3,0.8,10.9
	c0.5,5.5,1.2,11.2,1.2,11.2S102.2,427.8,104.3,427.7z M35.6,328c2.4,6.5,8.9,9.8,14.7,7.2c5.6-2.4,8.6-9.2,6.5-14.9L35.6,328z
	 M92.4,382.3c-3.9-4.7-10.8-5.8-15.8-2.1c-5,3.6-5.9,11.3-1.4,16.6L92.4,382.3z M59.8,369.2c2.6,0.7,5.2,1.4,7.2,1.9
	c1.9,0.5,3.3,0.8,3.3,0.8s0.2-1.3,0.6-3.4c0.4-2,1-4.6,1.6-7.3c1.2-5.2,2.6-10.2,2.6-10.2s-1.3-0.3-3.2-0.8c-1.9-0.5-4.6-1.1-7-2
	c-5-1.6-10-3.5-10-3.5s-1.7,5.2-3.2,10.6c-0.8,2.7-1.3,5.4-1.8,7.4c-0.4,2-0.7,3.4-0.7,3.4S54.5,367.7,59.8,369.2z M21.6,250
	c0.3,6.9,5.6,12.2,11.9,11.8c6.2-0.4,11-5.7,10.7-11.8H21.6z M56.8,320.3c-2.1-5.7-8.7-9-14.5-7.3c-6.1,1.8-9.1,8.5-6.7,15
	L56.8,320.3z M24.3,292.4c1.7,1.3,3.7,3,6.1,4.5c4.7,3.2,9.3,6,9.3,6s2.7-4.7,5.4-9.2c1.3-2.2,3-4.4,4.1-6.1c1.2-1.6,2-2.7,2-2.7
	s-4.2-2.9-8.5-6.2c-4.3-3.2-8.6-6.7-8.6-6.7s-3.2,4.2-6.3,8.8c-3.1,4.5-6.2,9.3-6.2,9.3S22.6,291.1,24.3,292.4z M35.6,171.9
	c-2.4,6.5,0.6,13.2,6.7,15c5.8,1.7,12.4-1.5,14.5-7.3L35.6,171.9z M44.2,250c0.3-6.1-4.5-11.4-10.7-11.8
	c-6.2-0.4-11.5,4.9-11.9,11.8L44.2,250z M27.7,219c3.1,4.5,6.3,8.8,6.3,8.8s4.3-3.5,8.6-6.7c4.3-3.2,8.5-6.2,8.5-6.2s-0.8-1.1-2-2.7
	c-1.1-1.6-2.8-3.9-4.1-6.1c-2.7-4.4-5.4-9.2-5.4-9.2s-4.6,2.9-9.3,6c-2.4,1.6-4.4,3.3-6.1,4.5c-1.6,1.3-2.7,2.2-2.7,2.2
	S24.6,214.5,27.7,219z M75.1,103.2c-4.4,5.3-3.5,12.9,1.4,16.6c5.1,3.7,11.9,2.6,15.8-2.1L75.1,103.2z M56.7,179.6
	c2.1-5.7-0.9-12.5-6.5-14.9c-5.8-2.6-12.3,0.7-14.7,7.2L56.7,179.6z M49.8,137.4c0.4,2,0.9,4.7,1.8,7.4c1.5,5.4,3.2,10.6,3.2,10.6
	s5.1-1.9,10-3.5c2.4-0.9,5.1-1.5,7-2c1.9-0.5,3.2-0.8,3.2-0.8s-1.4-5-2.6-10.2c-0.6-2.7-1.2-5.3-1.6-7.3c-0.4-2-0.6-3.4-0.6-3.4
	s-1.3,0.3-3.3,0.8c-2,0.5-4.6,1.2-7.2,1.9c-5.3,1.5-10.7,3.2-10.7,3.2S49.4,135.3,49.8,137.4z M135.9,52.3
	c-5.9,3.6-7.9,10.7-4.4,15.9c3.5,5.2,10.5,6.8,15.7,3.6L135.9,52.3z M92.4,117.7c4.1-4.5,3.8-11.7-0.7-16
	c-4.5-4.3-11.9-3.7-16.6,1.5L92.4,117.7z M99.6,83.4c-0.5,5.5-0.8,10.9-0.8,10.9s5.5,0,10.8,0.3c5.3,0.2,10.4,0.7,10.4,0.7
	s0-1.4,0.2-3.3c0.2-1.9,0.6-4.5,0.9-7.1c0.7-5.2,1.7-10.6,1.7-10.6s-5.3-0.7-10.9-1.2c-2.8-0.2-5.6-0.5-7.7-0.6
	c-2.1-0.1-3.5-0.1-3.5-0.1S100.1,77.9,99.6,83.4z M210.4,25.2c-6.9,0.8-11.1,7.5-9.6,13.4c1.5,6.1,7.4,9.5,13.5,8.8L210.4,25.2z
	 M147.2,71.8c5.1-3.4,7.5-9.7,4.7-15.4c-2.7-5.5-10.2-7.9-16-4.1L147.2,71.8z M165.6,41.8c-1.2,2.4-2.3,4.9-3.1,6.9
	c-0.8,1.9-1.3,3.2-1.3,3.2s1.3,0.4,3.1,1.1c1.9,0.6,4.4,1.6,6.9,2.7c5,2.2,9.7,4.4,9.7,4.4s2.1-4.8,4.5-9.7c1.2-2.5,2.5-4.8,3.5-6.5
	c1-1.7,1.7-2.9,1.7-2.9s-1.2-0.7-3-1.6c-1.8-1-4.3-2.3-6.8-3.3c-5-2.2-10.2-4.3-10.2-4.3S168,37,165.6,41.8z M289.7,25.2
	c-6.8-1.1-12.9,3.1-13.6,9.3c-0.7,6.2,3.7,12,9.7,12.9L289.7,25.2z M214.3,47.4c6-0.9,10.4-6.7,9.7-12.9c-0.7-6.2-6.8-10.4-13.6-9.3
	L214.3,47.4z M241.9,25.7c-3.9,4-7.6,7.9-7.6,7.9s4.2,3.5,8.1,7.1c3.9,3.6,7.6,7.1,7.6,7.1s3.6-3.6,7.6-7.1c3.9-3.6,8.1-7.1,8.1-7.1
	s-3.6-3.9-7.6-7.9c-3.9-4-8.1-7.9-8.1-7.9S245.8,21.7,241.9,25.7z M364.2,52.3c-5.8-3.8-13.3-1.4-16,4.1c-2.8,5.7-0.4,12,4.7,15.4
	L364.2,52.3z M285.8,47.4c6.1,0.7,12-2.7,13.5-8.8c1.5-6-2.7-12.6-9.6-13.4L285.8,47.4z M319.2,36.3c-2.5,1-5,2.3-6.8,3.3
	c-1.8,1-3,1.6-3,1.6s0.7,1.1,1.7,2.9c1,1.7,2.3,4,3.5,6.5c2.4,4.9,4.5,9.7,4.5,9.7s4.7-2.3,9.7-4.4c2.5-1.1,5-2.1,6.9-2.7
	c1.9-0.7,3.1-1.1,3.1-1.1s-0.5-1.3-1.3-3.2c-0.8-2-1.9-4.5-3.1-6.9c-2.4-4.9-5.1-9.9-5.1-9.9S324.1,34.1,319.2,36.3z M425,103.2
	c-4.6-5.1-12.1-5.8-16.6-1.5c-4.5,4.3-4.8,11.5-0.7,16L425,103.2z M352.9,71.8c5.2,3.2,12.3,1.5,15.7-3.6c3.5-5.2,1.5-12.3-4.4-15.9
	L352.9,71.8z M395.8,72.3c-2.1,0.2-4.9,0.4-7.7,0.6c-5.6,0.5-10.9,1.2-10.9,1.2s1,5.4,1.7,10.6c0.3,2.6,0.7,5.2,0.9,7.1
	c0.2,1.9,0.2,3.3,0.2,3.3s5.1-0.4,10.4-0.7c5.3-0.2,10.8-0.3,10.8-0.3s-0.3-5.3-0.8-10.9c-0.5-5.5-1.2-11.2-1.2-11.2
	S397.9,72.1,395.8,72.3z M464.5,171.9c-2.4-6.5-8.9-9.8-14.7-7.2c-5.6,2.4-8.6,9.2-6.5,14.9L464.5,171.9z M407.7,117.7
	c3.9,4.7,10.8,5.8,15.8,2.1c5-3.6,5.9-11.3,1.4-16.6L407.7,117.7z M440.3,130.8c-2.6-0.7-5.2-1.4-7.2-1.9c-1.9-0.5-3.3-0.8-3.3-0.8
	s-0.2,1.3-0.6,3.4c-0.4,2-1,4.6-1.6,7.3C426.3,144,425,149,425,149s1.3,0.3,3.2,0.8c1.9,0.5,4.6,1.1,7,2c5,1.6,10,3.5,10,3.5
	s1.7-5.2,3.2-10.6c0.8-2.7,1.3-5.4,1.8-7.4c0.4-2,0.7-3.4,0.7-3.4S445.5,132.2,440.3,130.8z M478.5,250c-0.3-6.9-5.6-12.2-11.9-11.8
	c-6.2,0.4-11,5.7-10.7,11.8H478.5z M443.3,179.6c2.1,5.7,8.7,9,14.5,7.3c6.1-1.8,9.1-8.5,6.7-15L443.3,179.6z M475.8,207.5
	c-1.7-1.3-3.7-3-6.1-4.5c-4.7-3.2-9.3-6-9.3-6s-2.7,4.7-5.4,9.2c-1.3,2.2-3,4.4-4.1,6.1c-1.2,1.6-2,2.7-2,2.7s4.2,2.9,8.5,6.2
	c4.3,3.2,8.6,6.7,8.6,6.7s3.2-4.2,6.3-8.8c3.1-4.5,6.2-9.3,6.2-9.3S477.4,208.8,475.8,207.5z"></path></g>
<g>
	<g id="change1_2"><path fill="#FFFFFF" d="M260.2,497.6c-0.1-1.4,1-2.5,2.4-2.6l0,0c1.4-0.1,2.5,0.9,2.6,2.3l0,0c0.1,1.4-1,2.5-2.4,2.7l0,0
		c-0.1,0-0.1,0-0.1,0l0,0C261.4,500,260.3,498.9,260.2,497.6z M236.8,499.9L236.8,499.9L236.8,499.9c-1.4-0.1-2.5-1.3-2.4-2.6l0,0
		c0.1-1.4,1.3-2.5,2.6-2.4l0,0c1.4,0.1,2.5,1.3,2.4,2.6l0,0C239.3,498.9,238.2,499.9,236.8,499.9L236.8,499.9L236.8,499.9z
		 M286,495.2c-0.2-1.3,0.7-2.6,2.1-2.9l0,0c1.3-0.2,2.6,0.7,2.9,2.1l0,0c0.2,1.3-0.7,2.6-2.1,2.9l0,0c0,0,0,0,0-0.1l0,0
		c-0.1,0.1-0.3,0.1-0.3,0.1l0,0C287.3,497.3,286.2,496.4,286,495.2z M210.7,497.2L210.7,497.2L210.7,497.2c-1.3-0.2-2.3-1.5-2.1-2.9
		l0,0c0.2-1.3,1.5-2.3,2.9-2.1l0,0c1.3,0.2,2.3,1.5,2.1,2.9l0,0c-0.2,1.2-1.3,2.1-2.5,2.1l0,0C210.9,497.2,210.8,497.2,210.7,497.2z
		 M311.5,490.1c-0.4-1.3,0.4-2.7,1.7-3.1l0,0c1.3-0.3,2.7,0.5,3.1,1.8l0,0c0.3,1.3-0.5,2.8-1.8,3.1l0,0c-0.2,0.1-0.4,0.1-0.6,0.1
		l0,0C312.8,491.9,311.8,491.2,311.5,490.1z M185,491.7L185,491.7L185,491.7c-1.3-0.3-2.1-1.7-1.7-3.1l0,0c0.3-1.3,1.7-2.1,3.1-1.7
		l0,0c1.3,0.3,2.1,1.7,1.7,3.1l0,0c-0.3,1.1-1.3,1.8-2.4,1.8l0,0C185.5,491.8,185.2,491.8,185,491.7z M336.2,482.4
		c-0.5-1.3,0.2-2.8,1.5-3.2l0,0c1.3-0.5,2.8,0.1,3.2,1.4l0,0c0.5,1.3-0.1,2.8-1.4,3.3l0,0l0,0l0,0c-0.3,0.1-0.6,0.1-0.9,0.1l0,0
		C337.6,484,336.6,483.4,336.2,482.4z M160.2,483.6L160.2,483.6L160.2,483.6c-1.3-0.5-1.9-1.9-1.5-3.2l0,0c0.5-1.3,1.9-1.9,3.3-1.5
		l0,0c1.3,0.5,1.9,1.9,1.4,3.3l0,0c-0.4,1-1.3,1.6-2.3,1.6l0,0C160.8,483.8,160.4,483.8,160.2,483.6z M360,472.1
		c-0.6-1.3-0.1-2.8,1.1-3.4l0,0c1.2-0.6,2.7-0.1,3.4,1.1l0,0c0.6,1.2,0.1,2.8-1.1,3.4l0,0c-0.3,0.2-0.7,0.3-1.1,0.3l0,0
		C361.4,473.4,360.5,473,360,472.1z M136.2,473L136.2,473L136.2,473c-1.2-0.6-1.7-2.1-1.1-3.4l0,0c0.6-1.3,2.1-1.7,3.4-1.1l0,0
		c1.3,0.7,1.7,2.2,1.1,3.4l0,0c-0.5,0.9-1.3,1.3-2.3,1.3l0,0C137,473.2,136.6,473.2,136.2,473z M382.6,459.4
		c-0.8-1.1-0.4-2.7,0.7-3.5l0,0c1.1-0.7,2.7-0.4,3.5,0.7l0,0c0.7,1.1,0.4,2.7-0.7,3.5l0,0c-0.5,0.3-0.9,0.4-1.4,0.4l0,0
		C383.9,460.5,383.1,460.1,382.6,459.4z M113.5,459.9c-1.1-0.8-1.5-2.3-0.7-3.5l0,0c0.7-1.2,2.4-1.5,3.5-0.7l0,0
		c1.1,0.7,1.5,2.3,0.7,3.5l0,0c-0.5,0.7-1.3,1.1-2.1,1.1l0,0C114.5,460.3,113.9,460.2,113.5,459.9z M403.8,444.3
		c-0.9-1.1-0.7-2.7,0.4-3.5l0,0c1.1-0.9,2.6-0.7,3.5,0.3l0,0c0.9,1.1,0.7,2.7-0.3,3.6l0,0l0,0l0,0c-0.5,0.3-1.1,0.5-1.6,0.5l0,0
		C405,445.3,404.2,444.9,403.8,444.3z M92.4,444.4c-1.1-0.8-1.3-2.4-0.4-3.5l0,0c0.9-1.1,2.5-1.3,3.6-0.4l0,0
		c1.1,0.9,1.2,2.5,0.3,3.6l0,0c-0.5,0.6-1.2,0.9-1.9,0.9l0,0C93.4,445,92.8,444.8,92.4,444.4z M423.2,427.2c-0.9-1-0.9-2.6,0-3.5
		l0,0c1-1,2.6-1,3.6,0l0,0c1,0.9,1,2.5,0,3.5l0,0c-0.5,0.5-1.1,0.7-1.7,0.7l0,0C424.3,428,423.7,427.7,423.2,427.2z M73,426.9
		c-1-1-1-2.6,0-3.5l0,0c0.9-1,2.5-1,3.6,0h-0.1c1,1,1,2.5,0,3.5l0,0c-0.5,0.5-1.1,0.7-1.7,0.7l0,0C74,427.6,73.4,427.4,73,426.9z
		 M440.8,408.2c-1.1-0.9-1.2-2.5-0.3-3.5l0,0c0.9-1.1,2.5-1.3,3.5-0.3l0,0c1.1,0.8,1.2,2.4,0.3,3.5l0,0l0,0l0,0
		c-0.5,0.6-1.2,0.9-1.9,0.9l0,0C441.8,408.7,441.2,408.5,440.8,408.2z M55.4,407.4C55.4,407.4,55.4,407.4,55.4,407.4L55.4,407.4
		c-0.9-1.1-0.7-2.7,0.4-3.6l0,0c1.1-0.9,2.7-0.7,3.6,0.4v-0.1c0.9,1.1,0.7,2.7-0.4,3.6l0,0c-0.5,0.4-1,0.5-1.5,0.5l0,0
		C56.7,408.3,55.9,408,55.4,407.4z M456.3,387.4c-1.1-0.8-1.5-2.4-0.7-3.5l0,0c0.7-1.1,2.3-1.5,3.4-0.7l0,0c1.2,0.7,1.5,2.3,0.7,3.5
		l0,0c-0.5,0.7-1.3,1.1-2.1,1.1l0,0C457.2,387.8,456.7,387.7,456.3,387.4z M40,386.2c-0.7-1.2-0.5-2.8,0.7-3.5l0,0
		c1.1-0.7,2.7-0.5,3.5,0.7l0,0c0.7,1.1,0.4,2.7-0.7,3.5l0,0c-0.4,0.3-0.9,0.4-1.4,0.4l0,0C41.3,387.4,40.5,387,40,386.2z
		 M469.5,365.1c-1.2-0.6-1.7-2.1-1.1-3.4l0,0c0.6-1.3,2.1-1.7,3.4-1.1l0,0c1.2,0.6,1.7,2.1,1.1,3.4l0,0c-0.4,0.9-1.3,1.3-2.2,1.3
		l0,0C470.3,365.3,469.9,365.3,469.5,365.1z M27,363.6c-0.7-1.3-0.2-2.8,1.1-3.4l0,0c1.2-0.6,2.8-0.1,3.4,1.1l0,0
		c0.7,1.2,0.1,2.7-1.1,3.4l0,0c-0.4,0.2-0.7,0.3-1.1,0.3l0,0C28.2,364.9,27.4,364.5,27,363.6z M480.3,341.5
		c-1.3-0.5-1.9-1.9-1.4-3.2l0,0c0.5-1.3,1.9-2,3.2-1.5l0,0c1.3,0.5,1.9,1.9,1.5,3.3l0,0l0,0l0,0c-0.4,0.9-1.3,1.5-2.3,1.5l0,0
		C481,341.6,480.7,341.6,480.3,341.5z M16.3,339.6c-0.5-1.3,0.1-2.8,1.4-3.2l0,0c1.3-0.5,2.8,0.1,3.3,1.4l0,0
		c0.5,1.3-0.2,2.7-1.5,3.3l0,0c-0.3,0.1-0.6,0.1-0.9,0.1l0,0C17.6,341.2,16.6,340.6,16.3,339.6z M488.7,317
		c-1.3-0.4-2.1-1.7-1.7-3.1l0,0c0.3-1.3,1.7-2.1,3.1-1.8l0,0c1.3,0.4,2.1,1.7,1.7,3.1l0,0c-0.3,1.1-1.3,1.9-2.4,1.9l0,0
		C489.1,317,488.9,317,488.7,317z M8.2,314.8L8.2,314.8L8.2,314.8c-0.4-1.3,0.4-2.7,1.7-3.1l0,0c1.3-0.3,2.8,0.4,3.1,1.8l0,0
		c0.4,1.3-0.5,2.7-1.7,3.1l0,0c-0.2,0-0.5,0.1-0.7,0.1l0,0C9.5,316.6,8.5,315.9,8.2,314.8z M494.4,291.7c-1.4-0.3-2.4-1.5-2.1-2.9
		h0.1c0.2-1.4,1.5-2.3,2.8-2.1l0,0c1.4,0.3,2.4,1.5,2.1,2.9l0,0c-0.2,1.3-1.3,2.1-2.5,2.1l0,0C494.6,291.7,494.5,291.7,494.4,291.7z
		 M2.8,289.1L2.8,289.1L2.8,289.1c-0.2-1.4,0.7-2.7,2.1-2.9l0,0c1.4-0.2,2.7,0.7,2.9,2.1l0,0c0.2,1.4-0.7,2.7-2.1,2.9l0,0
		c-0.1,0.1-0.3,0.1-0.4,0.1l0,0C4,291.3,3,290.4,2.8,289.1z M497.3,265.9c-1.4-0.1-2.4-1.3-2.3-2.7l0,0c0-0.1,0-0.3,0.1-0.4l0,0
		c0-0.2-0.1-0.3,0-0.5H495c0.1-1.4,1.3-2.4,2.7-2.3l0,0c1.3,0,2.4,1.2,2.4,2.6l0,0l0,0l0,0c0,0.1,0,0.3-0.1,0.4l0,0
		c0.1,0.2,0.1,0.3,0.1,0.5l0,0l0,0l0,0c-0.1,1.3-1.2,2.4-2.5,2.4l0,0C497.4,265.9,497.4,265.9,497.3,265.9z M0,263.1L0,263.1
		L0,263.1c-0.1-1.4,1-2.6,2.4-2.7l0,0c1.4-0.1,2.5,1,2.6,2.4l0,0c0.1,1.3-1,2.5-2.4,2.6l0,0c-0.1,0-0.1,0-0.1,0l0,0
		C1.2,265.5,0.1,264.5,0,263.1z M2.4,239.6c-1.3-0.1-2.4-1.3-2.3-2.7l0,0l0,0l0,0c0.1-1.4,1.3-2.5,2.6-2.3l0,0
		c1.4,0.1,2.5,1.2,2.4,2.6l0,0c-0.1,1.3-1.2,2.4-2.5,2.4l0,0C2.5,239.6,2.5,239.6,2.4,239.6z M495,236.6L495,236.6
		c-0.1-1.3,1-2.5,2.3-2.6l0,0c1.4-0.1,2.6,1,2.7,2.3l0,0c0,0,0,0,0,0.1l0,0c0.1,1.3-1,2.5-2.4,2.6l0,0c0,0-0.1,0-0.1,0l0,0
		C496.1,239,495,238,495,236.6z M4.9,213.8c-1.4-0.3-2.3-1.5-2.1-2.9l0,0c0.3-1.3,1.5-2.3,2.9-2.1l0,0c1.4,0.2,2.3,1.5,2.1,2.9l0,0
		c-0.2,1.2-1.3,2.1-2.5,2.1l0,0C5.1,213.8,5,213.8,4.9,213.8z M492.3,211.1L492.3,211.1c-0.3-1.3,0.7-2.7,2.1-2.9l0,0
		c1.3-0.2,2.6,0.7,2.9,2.1l0,0c0.2,1.4-0.7,2.7-2.1,2.9l0,0c-0.1,0-0.3,0.1-0.4,0.1l0,0C493.6,213.3,492.5,212.3,492.3,211.1z
		 M10,188.3c-1.4-0.4-2.1-1.7-1.8-3.1l0,0c0.3-1.3,1.7-2.1,3.1-1.8l0,0c1.3,0.4,2.1,1.7,1.7,3.1l0,0c-0.3,1.1-1.3,1.9-2.4,1.9l0,0
		C10.4,188.4,10.2,188.4,10,188.3z M486.9,186c-0.4-1.3,0.4-2.7,1.7-3.1l0,0c1.3-0.3,2.8,0.4,3.1,1.7l0,0c0.3,1.3-0.4,2.7-1.7,3.1
		l0,0c-0.3,0.1-0.5,0.1-0.7,0.1l0,0C488.2,187.9,487.2,187.2,486.9,186z M17.7,163.6c-1.3-0.5-1.9-1.9-1.5-3.3l0,0
		c0.5-1.3,1.9-1.9,3.3-1.4l0,0c1.3,0.5,1.9,1.9,1.4,3.2l0,0c-0.3,1-1.3,1.6-2.4,1.6l0,0C18.3,163.7,18,163.6,17.7,163.6z
		 M478.9,161.6L478.9,161.6c-0.5-1.3,0.1-2.8,1.4-3.2l0,0c1.3-0.5,2.7,0.1,3.3,1.4l0,0c0.5,1.3-0.2,2.7-1.5,3.3l0,0
		c-0.3,0.1-0.6,0.1-0.9,0.1l0,0C480.3,163.2,479.3,162.6,478.9,161.6z M28,139.8c-1.2-0.7-1.7-2.1-1.1-3.4l0,0c0,0,0,0,0,0.1l0,0
		c0.7-1.3,2.1-1.7,3.4-1.1l0,0c1.2,0.6,1.7,2.1,1.1,3.4l0,0c-0.5,0.9-1.3,1.3-2.3,1.3l0,0C28.8,140,28.4,140,28,139.8z M468.4,138.2
		c-0.6-1.2-0.1-2.8,1.1-3.4l0,0c1.2-0.7,2.8-0.1,3.4,1.1l0,0c0.6,1.2,0.1,2.8-1.1,3.4l0,0c-0.4,0.1-0.7,0.3-1.1,0.3l0,0
		C469.8,139.6,468.9,139.1,468.4,138.2z M40.8,117.2c-1.2-0.7-1.5-2.3-0.7-3.5l0,0l0,0l0,0c0.7-1.1,2.3-1.5,3.4-0.7l0,0
		c1.2,0.8,1.5,2.3,0.8,3.5l0,0c-0.5,0.7-1.3,1.1-2.1,1.1l0,0C41.7,117.6,41.2,117.4,40.8,117.2z M455.5,116L455.5,116
		c-0.7-1.1-0.4-2.7,0.7-3.4l0,0c1.1-0.8,2.8-0.5,3.5,0.7l0,0c0.7,1.1,0.4,2.7-0.7,3.5l0,0c-0.4,0.3-0.9,0.4-1.3,0.4l0,0
		C456.8,117.2,456,116.8,455.5,116z M55.8,96c-1.1-0.9-1.3-2.5-0.4-3.5l0,0c0.9-1.1,2.5-1.2,3.6-0.3l0,0c1.1,0.9,1.3,2.5,0.4,3.6
		l0,0c-0.5,0.6-1.3,0.9-2,0.9l0,0C56.8,96.6,56.3,96.4,55.8,96z M440.4,95.3c-0.9-1.1-0.7-2.6,0.3-3.5l0,0c1.1-0.9,2.7-0.7,3.6,0.3
		l0,0l0,0l0,0c0.9,1.1,0.7,2.7-0.3,3.6l0,0c-0.5,0.3-1.1,0.5-1.6,0.5l0,0C441.6,96.2,440.9,95.9,440.4,95.3z M73,76.6
		c-1-0.9-1-2.5,0-3.6l0,0c0.9-0.9,2.5-0.9,3.6,0l0,0c0.9,1,0.9,2.6,0,3.6l0,0c-0.5,0.5-1.1,0.7-1.8,0.7l0,0
		C74.1,77.3,73.4,77.1,73,76.6z M423.2,76.3L423.2,76.3c-0.9-0.9-0.9-2.6,0-3.6l0,0c1-0.9,2.5-0.9,3.6,0l0,0l0,0l0,0
		c1,1,1,2.6,0,3.6l0,0c-0.5,0.5-1.1,0.7-1.7,0.7l0,0C424.3,77,423.7,76.7,423.2,76.3z M92,59.1c-0.9-1.1-0.7-2.7,0.4-3.6l0,0
		c1.1-0.9,2.6-0.7,3.6,0.3l0,0c0.8,1.1,0.7,2.7-0.4,3.5l0,0c-0.5,0.4-1,0.5-1.6,0.5l0,0C93.2,60,92.6,59.7,92,59.1z M404.2,59.2
		c-1.1-0.9-1.3-2.5-0.4-3.5l0,0c0.9-1.1,2.5-1.3,3.6-0.4l0,0l0,0l0,0c1.1,0.9,1.2,2.5,0.3,3.6l0,0c-0.5,0.6-1.2,0.9-1.9,0.9l0,0
		C405.2,59.7,404.6,59.5,404.2,59.2z M112.8,43.6c-0.7-1.2-0.4-2.8,0.7-3.5l0,0c1.2-0.7,2.8-0.5,3.5,0.7l0,0
		c0.7,1.1,0.4,2.7-0.7,3.5l0,0c-0.4,0.3-0.9,0.4-1.3,0.4l0,0C114.1,44.7,113.3,44.3,112.8,43.6z M383.4,44.1
		c-1.1-0.8-1.5-2.3-0.7-3.5l0,0c0.7-1.2,2.3-1.5,3.5-0.7l0,0l0,0l0,0c1.1,0.7,1.5,2.3,0.7,3.5l0,0c-0.5,0.7-1.3,1.1-2.1,1.1l0,0
		C384.2,44.5,383.8,44.3,383.4,44.1z M135.1,30.4c-0.7-1.3-0.2-2.7,1.1-3.4l0,0c1.2-0.6,2.8-0.1,3.4,1.1l0,0
		c0.7,1.3,0.2,2.8-1.1,3.4l0,0c-0.3,0.2-0.7,0.3-1.1,0.3l0,0C136.5,31.7,135.5,31.3,135.1,30.4z M361.1,31.2
		c-1.2-0.6-1.7-2.1-1.1-3.4l0,0c0.6-1.2,2.1-1.7,3.4-1.1l0,0c1.3,0.6,1.7,2.1,1.1,3.4l0,0c-0.5,0.9-1.3,1.4-2.3,1.4l0,0
		C361.9,31.5,361.5,31.4,361.1,31.2z M158.7,19.5c-0.5-1.3,0.1-2.7,1.4-3.2l0,0c1.3-0.5,2.7,0.1,3.3,1.4l0,0
		c0.5,1.3-0.1,2.8-1.4,3.3h-0.1c-0.3,0.1-0.6,0.1-0.9,0.1l0,0C160,21.1,159.1,20.5,158.7,19.5z M337.7,20.8
		c-1.3-0.5-1.9-1.9-1.5-3.2l0,0c0.5-1.3,1.9-1.9,3.2-1.5l0,0c1.3,0.5,1.9,1.9,1.5,3.3l0,0c-0.4,1-1.3,1.6-2.4,1.6l0,0
		C338.3,21,338,20.9,337.7,20.8z M183.2,11.3c-0.3-1.3,0.5-2.8,1.7-3.1l0,0c0,0,0,0,0.1,0l0,0c1.3-0.3,2.7,0.4,3.1,1.7l0,0
		c0.3,1.3-0.5,2.8-1.8,3.1l0,0c-0.2,0.1-0.4,0.1-0.7,0.1l0,0C184.6,13.1,183.6,12.4,183.2,11.3z M313.2,12.9L313.2,12.9
		c-1.3-0.4-2.1-1.7-1.7-3.1l0,0c0.3-1.3,1.7-2.1,3.1-1.8l0,0l0,0l0,0c1.3,0.3,2.1,1.7,1.7,3.1l0,0c-0.3,1.1-1.3,1.9-2.4,1.9l0,0
		C313.7,13,313.5,13,313.2,12.9z M208.5,5.6c-0.2-1.4,0.7-2.7,2.1-3l0,0c1.4-0.2,2.7,0.7,2.9,2.1l0,0c0.3,1.3-0.7,2.6-2.1,2.9l0,0
		c-0.1,0-0.3,0-0.4,0l0,0C209.8,7.7,208.7,6.8,208.5,5.6z M288.1,7.6L288.1,7.6c-1.4-0.2-2.4-1.5-2.1-2.9l0,0
		c0.2-1.3,1.5-2.3,2.9-2.1l0,0c0,0,0,0-0.1,0l0,0c1.4,0.2,2.4,1.5,2.1,2.9l0,0c-0.2,1.2-1.3,2.1-2.5,2.1l0,0
		C288.4,7.7,288.3,7.6,288.1,7.6z M262.6,5L262.6,5c-1.3-0.1-2.4-1.3-2.3-2.7l0,0c0.1-1.3,1.3-2.4,2.6-2.3l0,0l0,0l0,0
		c1.4,0.1,2.5,1.2,2.4,2.6l0,0C265.2,4,264.1,5,262.7,5l0,0C262.7,5,262.6,5,262.6,5z M237,5c-1.4,0.1-2.6-1-2.7-2.4l0,0
		c-0.1-1.4,1-2.5,2.4-2.6l0,0l0,0l0,0c1.4-0.1,2.5,1,2.6,2.3l0,0C239.4,3.8,238.3,5,237,5L237,5z"></path></g>
</g>
<g>
	<g id="change1_3"><path fill="#FFFFFF" d="M248.6,437.8c0-1.4,1.1-2.5,2.5-2.5l0,0c1.3,0,2.5,1.1,2.5,2.5l0,0c0,1.4-1.1,2.5-2.5,2.5l0,0
		C249.7,440.3,248.6,439.2,248.6,437.8z M225,438.7C225,438.7,225,438.7,225,438.7L225,438.7c-1.3-0.2-2.4-1.5-2.1-2.8l0,0
		c0.2-1.4,1.4-2.3,2.8-2.2l0,0c1.4,0.2,2.4,1.5,2.1,2.8l0,0c-0.1,1.3-1.2,2.2-2.5,2.2l0,0C225.2,438.7,225.1,438.7,225,438.7z
		 M274.3,436.3c-0.2-1.4,0.7-2.7,2.1-2.9l0,0c1.3-0.2,2.6,0.7,2.8,2.1l0,0c0.2,1.3-0.7,2.7-2.1,2.8l0,0c-0.1,0.1-0.2,0.1-0.3,0.1
		l0,0C275.6,438.4,274.5,437.5,274.3,436.3z M199.5,433.5c-1.3-0.4-2.1-1.8-1.8-3.2l0,0c0.4-1.3,1.7-2.1,3.1-1.7l0,0
		c1.3,0.4,2.1,1.7,1.8,3.1l0,0c-0.3,1.1-1.3,1.9-2.5,1.9l0,0C199.9,433.6,199.7,433.5,199.5,433.5z M299.6,431.2
		c-0.4-1.3,0.4-2.8,1.7-3.1l0,0c1.3-0.4,2.7,0.4,3.1,1.7l0,0c0.4,1.3-0.4,2.7-1.7,3.2l0,0c-0.2,0.1-0.4,0.1-0.7,0.1l0,0
		C300.9,433,299.9,432.3,299.6,431.2z M174.8,424.8c-1.3-0.5-1.9-2-1.3-3.3l0,0c0.5-1.3,2-1.9,3.4-1.3l0,0c1.2,0.5,1.8,2,1.3,3.3
		l0,0c-0.4,0.9-1.3,1.5-2.4,1.5l0,0C175.4,425,175,424.9,174.8,424.8z M323.9,422.7c-0.6-1.3,0-2.8,1.3-3.3l0,0
		c1.3-0.6,2.8,0,3.3,1.3l0,0c0.6,1.3,0,2.8-1.3,3.3l0,0c-0.3,0.2-0.7,0.3-1,0.3l0,0C325.3,424.2,324.3,423.6,323.9,422.7z
		 M151.5,412.9c-1.2-0.7-1.5-2.3-0.8-3.4l0,0c0.7-1.2,2.2-1.6,3.4-0.9l0,0c1.2,0.7,1.5,2.2,0.9,3.4l0,0c-0.5,0.8-1.3,1.2-2.2,1.2
		l0,0C152.4,413.2,151.9,413.1,151.5,412.9z M346.9,410.9c-0.7-1.2-0.4-2.8,0.8-3.5l0,0c1.1-0.7,2.8-0.3,3.5,0.9l0,0
		c0.7,1.1,0.3,2.7-0.9,3.4l0,0c0,0,0,0,0.1,0l0,0c-0.5,0.3-0.9,0.4-1.3,0.4l0,0C348.2,412.1,347.4,411.7,346.9,410.9z M130.2,397.8
		c-1.1-0.8-1.3-2.4-0.4-3.5l0,0c0.9-1.1,2.5-1.3,3.6-0.4l0,0c1.1,0.9,1.2,2.5,0.3,3.6l0,0c-0.5,0.6-1.2,0.9-1.9,0.9l0,0
		C131.2,398.4,130.6,398.2,130.2,397.8z M367.9,396.2c-0.9-1.1-0.7-2.7,0.3-3.5l0,0c1.1-0.9,2.7-0.7,3.5,0.3l0,0
		c0.9,1.1,0.7,2.6-0.3,3.6l0,0c-0.5,0.3-1,0.5-1.6,0.5l0,0C369.2,397,368.5,396.7,367.9,396.2z M111.1,380L111.1,380L111.1,380
		c-0.9-1-0.9-2.6,0.1-3.5l0,0c1.1-0.9,2.6-0.9,3.6,0.1h0.1c0.9,1,0.9,2.6-0.1,3.6l0,0c-0.5,0.4-1.1,0.7-1.7,0.7l0,0
		C112.2,380.8,111.5,380.5,111.1,380z M386.9,378.6c-1.1-0.9-1.1-2.5-0.2-3.5l0,0c0.9-1,2.5-1.1,3.5-0.1l0,0c1,0.9,1.1,2.5,0.2,3.6
		l0,0c-0.5,0.5-1.2,0.8-1.9,0.8l0,0C388,379.3,387.4,379.1,386.9,378.6z M94.6,359.8L94.6,359.8L94.6,359.8
		c-0.8-1.1-0.5-2.7,0.6-3.5l0,0c1.1-0.8,2.7-0.5,3.5,0.6l0,0c0.8,1.1,0.5,2.7-0.6,3.5l0,0c-0.5,0.3-0.9,0.5-1.5,0.5l0,0
		C95.8,360.8,95,360.4,94.6,359.8z M403.2,358.7c-1.1-0.8-1.4-2.3-0.6-3.5l0,0c0.7-1.1,2.4-1.5,3.5-0.7l0,0c1.1,0.8,1.4,2.4,0.7,3.5
		l0,0c-0.5,0.7-1.3,1.1-2.1,1.1l0,0C404.2,359.1,403.7,359,403.2,358.7z M81,337.4c-0.7-1.2-0.1-2.8,1.1-3.4l0,0
		c1.3-0.7,2.8-0.2,3.4,1.1l0,0c0.6,1.2,0.1,2.8-1.1,3.4l0,0c-0.4,0.2-0.8,0.3-1.2,0.3l0,0C82.3,338.8,81.4,338.3,81,337.4z
		 M416.7,336.7c-1.2-0.7-1.7-2.1-1.1-3.4l0,0c0.7-1.2,2.1-1.7,3.4-1.1l0,0c1.2,0.6,1.7,2.1,1.1,3.4l0,0l0,0l0,0
		c-0.4,0.9-1.3,1.4-2.2,1.4l0,0C417.4,337,417,336.8,416.7,336.7z M70.6,313.5c-0.5-1.3,0.2-2.7,1.5-3.2l0,0
		c1.3-0.5,2.8,0.3,3.2,1.5l0,0c0.5,1.3-0.3,2.8-1.5,3.2l0,0c-0.3,0.1-0.5,0.1-0.8,0.1l0,0C71.9,315.2,70.9,314.6,70.6,313.5z
		 M427,313c-1.3-0.4-2-1.9-1.6-3.2l0,0c0.5-1.3,1.9-2,3.2-1.6l0,0c1.3,0.5,2,1.9,1.6,3.2l0,0c-0.4,1-1.4,1.7-2.4,1.7l0,0
		C427.6,313.1,427.3,313.1,427,313z M63.6,288.3c-0.3-1.3,0.5-2.7,1.9-2.9l0,0c1.3-0.3,2.7,0.6,3,1.9l0,0c0.3,1.3-0.6,2.7-1.9,2.9
		l0,0c-0.2,0.1-0.3,0.1-0.5,0.1l0,0C64.9,290.3,63.8,289.5,63.6,288.3z M433.9,288.2c-1.3-0.3-2.2-1.6-2-3l0,0
		c0.3-1.3,1.6-2.3,3-1.9l0,0c1.4,0.2,2.3,1.5,2,2.9l0,0c-0.2,1.2-1.3,2.1-2.4,2.1l0,0C434.3,288.3,434.1,288.2,433.9,288.2z
		 M60.1,262.4c-0.1-1.4,0.9-2.6,2.3-2.7l0,0c1.4-0.1,2.5,1,2.7,2.4l0,0c0.1,1.4-1,2.6-2.4,2.7l0,0c-0.1,0-0.1,0-0.2,0l0,0
		C61.3,264.8,60.2,263.8,60.1,262.4z M437.4,262.6c-1.4-0.1-2.4-1.3-2.3-2.6l0,0c0.1-1.4,1.3-2.5,2.6-2.4l0,0
		c1.4,0.1,2.5,1.3,2.4,2.7l0,0l0,0l0,0c-0.1,1.3-1.2,2.3-2.6,2.3l0,0C437.6,262.6,437.5,262.6,437.4,262.6z M435.1,241.1
		L435.1,241.1c-0.1-1.4,0.9-2.6,2.3-2.6l0,0c1.4-0.1,2.6,1,2.7,2.3l0,0c0,1.4-1.1,2.6-2.4,2.7l0,0c-0.1,0-0.1,0-0.1,0l0,0
		C436.3,243.5,435.2,242.5,435.1,241.1z M62.5,239c-1.4-0.1-2.4-1.3-2.3-2.8l0,0c0,0,0,0,0,0.1l0,0c0.1-1.4,1.3-2.5,2.8-2.3l0,0
		c1.3,0.1,2.4,1.3,2.3,2.7l0,0c-0.1,1.3-1.2,2.3-2.5,2.3l0,0C62.6,239,62.6,239,62.5,239z M432.2,215.8L432.2,215.8
		c-0.3-1.3,0.6-2.7,2-2.9l0,0c1.3-0.3,2.7,0.6,3,1.9l0,0l0,0l0,0c0.3,1.4-0.7,2.7-2,2.9l0,0c-0.1,0.1-0.3,0.1-0.5,0.1l0,0
		C433.5,217.9,432.4,217,432.2,215.8z M65.8,213.4c-1.3-0.3-2.3-1.6-1.9-2.9l0,0l0,0l0,0c0.3-1.4,1.6-2.3,3-1.9l0,0
		c1.3,0.3,2.2,1.6,1.9,2.9l0,0c-0.3,1.2-1.3,2-2.5,2l0,0C66.1,213.5,65.9,213.5,65.8,213.4z M425.8,191.2c-0.5-1.3,0.3-2.8,1.5-3.2
		l0,0c1.3-0.5,2.8,0.2,3.2,1.5l0,0c0.5,1.3-0.3,2.8-1.6,3.2l0,0c-0.3,0.1-0.5,0.1-0.8,0.1l0,0C427.2,193,426.2,192.3,425.8,191.2z
		 M72.5,188.5c-1.3-0.5-2-1.9-1.5-3.2l0,0l0,0l0,0c0.5-1.3,1.9-2,3.2-1.5l0,0c1.3,0.5,2,1.9,1.5,3.3l0,0c-0.4,1-1.3,1.6-2.4,1.6l0,0
		C73,188.7,72.8,188.7,72.5,188.5z M416.1,167.7L416.1,167.7c-0.6-1.3-0.1-2.8,1.1-3.4l0,0c1.2-0.7,2.8-0.1,3.4,1.1l0,0
		c0.6,1.2,0.1,2.8-1.1,3.4l0,0c-0.3,0.1-0.7,0.3-1.1,0.3l0,0C417.4,169.1,416.6,168.6,416.1,167.7z M82.6,164.8
		c-1.2-0.6-1.7-2.1-1.1-3.4l0,0c0.7-1.2,2.2-1.7,3.4-1l0,0c1.2,0.6,1.7,2.1,1.1,3.4l0,0c-0.5,0.9-1.3,1.3-2.3,1.3l0,0
		C83.4,165.1,83,165,82.6,164.8z M403.3,145.8L403.3,145.8c-0.8-1.2-0.5-2.7,0.7-3.5l0,0c1.1-0.7,2.7-0.5,3.5,0.7l0,0c0,0,0,0,0-0.1
		l0,0c0.7,1.1,0.5,2.8-0.7,3.5l0,0c-0.5,0.3-0.9,0.5-1.4,0.5l0,0C404.6,146.9,403.8,146.5,403.3,145.8z M95.8,142.7
		c-1.1-0.8-1.4-2.3-0.6-3.5l0,0c0.8-1.1,2.4-1.4,3.6-0.6l0,0c1.1,0.8,1.3,2.4,0.5,3.6l0,0c-0.5,0.7-1.3,1-2,1l0,0
		C96.8,143.1,96.3,143,95.8,142.7z M387.5,125.8c-0.9-1.1-0.8-2.7,0.2-3.6l0,0c1-0.9,2.6-0.9,3.6,0.1l0,0c0.9,1.1,0.9,2.6-0.2,3.5
		l0,0c-0.5,0.5-1.1,0.7-1.7,0.7l0,0C388.7,126.6,388.1,126.4,387.5,125.8z M112,122.6c-1-1-1.1-2.5-0.1-3.5l0,0
		c0.9-1,2.5-1.1,3.6-0.1l0,0c0.9,1,1,2.5,0.1,3.6l0,0c-0.5,0.5-1.1,0.8-1.8,0.8l0,0C113.1,123.3,112.5,123.1,112,122.6z
		 M369.2,108.1L369.2,108.1c-1-0.9-1.1-2.5-0.3-3.6l0,0c0.9-1,2.5-1.2,3.6-0.3l0,0l0,0l0,0c1.1,0.9,1.2,2.5,0.3,3.6l0,0
		c-0.5,0.5-1.2,0.9-1.9,0.9l0,0C370.3,108.7,369.8,108.5,369.2,108.1z M130.7,104.9c-0.9-1.1-0.7-2.7,0.4-3.6l0,0
		c1.1-0.9,2.7-0.7,3.6,0.4l0,0c0.9,1.1,0.7,2.7-0.4,3.5l0,0c-0.5,0.4-1,0.6-1.5,0.6l0,0C132,105.8,131.3,105.5,130.7,104.9z
		 M348.7,93.1L348.7,93.1c-1.1-0.7-1.5-2.3-0.7-3.5l0,0c0.7-1.1,2.3-1.5,3.4-0.7l0,0c1.2,0.7,1.5,2.3,0.8,3.4l0,0
		c-0.5,0.8-1.3,1.2-2.1,1.2l0,0C349.6,93.5,349.1,93.4,348.7,93.1z M151.7,89.9c-0.7-1.1-0.3-2.7,0.9-3.4l0,0
		c1.2-0.7,2.8-0.3,3.5,0.9l0,0c0.7,1.2,0.3,2.8-0.9,3.4l0,0c-0.4,0.3-0.9,0.4-1.3,0.4l0,0C153,91.1,152.2,90.7,151.7,89.9z
		 M326.3,81c-1.3-0.5-1.8-2-1.3-3.3l0,0c0.6-1.3,2.1-1.8,3.4-1.3l0,0c1.3,0.6,1.8,2.1,1.3,3.4l0,0c-0.5,0.9-1.3,1.5-2.3,1.5l0,0
		C327,81.3,326.6,81.2,326.3,81z M174.6,77.9c-0.6-1.3,0-2.8,1.3-3.3l0,0l0,0l0,0c1.3-0.5,2.8,0.1,3.4,1.3l0,0
		c0.5,1.3-0.1,2.7-1.3,3.3l0,0c-0.3,0.1-0.7,0.2-1,0.2l0,0C175.9,79.5,175,78.9,174.6,77.9z M302.4,72.2L302.4,72.2
		c-1.3-0.4-2.1-1.8-1.7-3.2l0,0c0.4-1.3,1.8-2.1,3.2-1.7l0,0c0,0,0,0-0.1,0l0,0c1.3,0.3,2.1,1.7,1.7,3.1l0,0
		c-0.3,1.1-1.3,1.8-2.4,1.8l0,0C302.9,72.3,302.7,72.3,302.4,72.2z M198.8,69.2c-0.3-1.3,0.5-2.8,1.8-3.1l0,0
		c1.3-0.4,2.7,0.4,3.1,1.7l0,0c0.3,1.3-0.5,2.7-1.8,3.1l0,0c-0.2,0.1-0.4,0.1-0.7,0.1l0,0C200.1,71.1,199.1,70.4,198.8,69.2z
		 M277.6,66.7L277.6,66.7c-1.4-0.2-2.3-1.5-2.1-2.9l0,0c0.1-1.3,1.5-2.3,2.8-2.1l0,0c1.4,0.2,2.3,1.5,2.1,2.8l0,0
		c-0.2,1.3-1.3,2.1-2.5,2.1l0,0C277.9,66.7,277.7,66.7,277.6,66.7z M224,63.9c-0.1-1.4,0.9-2.6,2.2-2.8l0,0c1.4-0.1,2.6,0.8,2.8,2.2
		l0,0c0.1,1.3-0.8,2.6-2.2,2.8l0,0c-0.1,0-0.2,0-0.3,0l0,0C225.3,66.1,224.2,65.2,224,63.9z M252.2,64.7c-1.4,0-2.5-1.1-2.5-2.5l0,0
		c0-1.4,1.1-2.5,2.6-2.5l0,0c1.4,0,2.5,1.1,2.5,2.5l0,0C254.8,63.6,253.7,64.7,252.2,64.7L252.2,64.7L252.2,64.7z"></path></g>
</g>
</svg>