<?xml version="1.0" encoding="utf-8"?><!DOCTYPE svg PUBLIC "-//W3C//DTD SVG 1.1//EN" "http://www.w3.org/Graphics/SVG/1.1/DTD/svg11.dtd">
<svg version="1.1" id="Layer_1" xmlns="http://www.w3.org/2000/svg" xmlns:xlink="http://www.w3.org/1999/xlink" x="0px" y="0px" viewBox="0 0 500 500" enable-background="new 0 0 500 500" xml:space="preserve">
<g>
	<g id="change1_1"><circle fill="#FFFFFF" cx="250" cy="250" r="250"></circle></g>
</g>
<g>
	<g>
		<g id="change2_1"><path fill="#3F4651" d="M250,461.3c-116.5,0-211.3-94.8-211.3-211.3S133.5,38.7,250,38.7S461.3,133.5,461.3,250
			S366.5,461.3,250,461.3z M250,41.8C135.2,41.8,41.8,135.2,41.8,250S135.2,458.2,250,458.2S458.2,364.8,458.2,250
			S364.8,41.8,250,41.8z"></path></g>
	</g>
	<g>
		<g>
			<g>
				<g id="change2_2"><path fill="#3F4651" d="M281.5,83.6c-0.1,0-0.2,0-0.2,0l-4.9-0.7c-1.1-0.1-2.3-0.3-3.6-0.6c-2.2-0.4-4.6-0.8-7-0.9L250,80.6
					c-0.8,0-1.5-0.7-1.5-1.5V40.3c0-0.6,0.4-1.2,1-1.4s1.3-0.1,1.7,0.4c0.1,0.1,9.9,10.4,17.7,20.4c3.6,4.6,6.8,9.8,9.2,13.6
					l0.8,1.4l3.8,6.4c0.3,0.3,0.5,0.7,0.5,1.1C283.1,82.9,282.4,83.5,281.5,83.6L281.5,83.6z M251.5,77.5l14.4,0.7
					c2.6,0.2,5.1,0.6,7.3,1c1.3,0.2,2.4,0.4,3.5,0.5l1.7,0.3l-3.1-5.2c-2.3-3.7-5.5-8.8-9-13.3c-5.2-6.7-11.4-13.6-14.8-17.3
					L251.5,77.5L251.5,77.5z"></path></g>
			</g>
			<g>
				<g id="change2_3"><path fill="#3F4651" d="M288.5,45.5c-0.5,0-1-0.2-1.2-0.6l-6.4-8.6c-3-3.9-6.8-8.8-10.9-13.2C260.6,13,249.1,2.8,249,2.7
					c-0.5-0.4-0.7-1.1-0.4-1.7c0.2-0.6,0.7-0.9,1.5-1L273,1.1c4,0.3,7.8,0.9,11.2,1.4c1.6,0.3,3.1,0.5,4.5,0.7l7.1,1.1
					c0.4,0.1,0.8,0.3,1,0.6c0.2,0.3,0.3,0.8,0.3,1.2L290,44.2c-0.1,0.6-0.6,1.1-1.2,1.2C288.8,45.5,288.6,45.5,288.5,45.5z
					 M254.2,3.3c4.1,3.8,11.5,10.7,18,17.6c4.2,4.5,8,9.5,11.1,13.5l4.3,5.8l6.1-33l-5.5-0.9c-1.4-0.2-2.9-0.4-4.6-0.7
					c-3.4-0.5-7.2-1.1-10.9-1.4L254.2,3.3z"></path></g>
			</g>
			<g>
				<g>
					<g id="change2_4"><path fill="#3F4651" d="M281.5,83.6c-0.5,0-1-0.3-1.3-0.8l-4.8-8c-2.3-3.7-5.5-8.8-9-13.3c-7.7-9.9-17.4-20-17.5-20.1
						c-0.3-0.3-0.4-0.7-0.4-1.1V1.5c0-0.6,0.4-1.2,0.9-1.4c0.5-0.3,1.2-0.2,1.6,0.2c0.1,0.1,11.7,10.4,21.2,20.5
						c4.2,4.5,8,9.5,11.1,13.5l1.3,1.7l5.1,6.9c0.3,0.3,0.4,0.8,0.3,1.2l-7,38.2c-0.1,0.6-0.6,1.1-1.2,1.2
						C281.6,83.6,281.5,83.6,281.5,83.6z M251.5,39.6c2,2.1,10.4,11.1,17.3,19.9c3.6,4.6,6.8,9.8,9.2,13.6l2.7,4.5l6.2-33.4l-6-8.1
						c-3-3.9-6.8-8.8-10.9-13.2c-6.7-7.2-14.5-14.4-18.4-18v34.7H251.5z"></path></g>
				</g>
			</g>
			<g>
				<g id="change2_5"><path fill="#3F4651" d="M311.7,92.2c-0.2,0-0.4,0-0.5-0.1l-6.5-2.4c-2.5-0.9-5.3-2-8.2-2.6l-10.6-2.7c-1.9-0.6-3.4-0.7-4.1-0.8
					c-0.6-0.1-1.2-0.1-1.6-0.7c-0.2-0.3-0.3-0.8-0.3-1.2l7.1-38.1c0.1-0.6,0.6-1.1,1.2-1.2c0.6-0.1,1.2,0.1,1.6,0.6l1.3,1.9
					c1.2,1.7,2.3,3.4,3.4,5.3c3.1,5.1,6.3,11,8.9,16.1c3.1,5.8,5.6,12.4,7.1,16.4l2.5,7c0.2,0.3,0.3,0.6,0.3,0.9
					C313.3,91.5,312.6,92.2,311.7,92.2C311.8,92.2,311.7,92.2,311.7,92.2z M283.3,80.7c1,0.1,2.1,0.3,3.5,0.8l10.4,2.7
					c3.1,0.6,6.2,1.8,8.6,2.7l3.4,1.3l-1.5-4.3c-1.5-3.9-3.9-10.4-6.9-16c-2.6-5.1-5.8-10.9-8.9-16c-0.8-1.4-1.6-2.7-2.5-4
					L283.3,80.7z"></path></g>
			</g>
			<g>
				<g id="change2_6"><path fill="#3F4651" d="M311.7,92.2L311.7,92.2c-0.7,0-1.2-0.4-1.5-1l-2.6-7.4c-1.5-3.9-3.9-10.4-6.9-16
					c-2.6-5.1-5.8-10.9-8.9-16c-1-1.8-2.1-3.4-3.3-5.1l-1.3-1.9c-0.3-0.5-0.4-1.2,0-1.7c0.3-0.5,1-0.8,1.5-0.7l1.6,0.3
					c1.5,0.2,3,0.5,4.5,0.9l12.9,3.3c3.9,0.8,7.7,2.2,10.8,3.4l7.7,2.8c0.4,0.1,0.7,0.4,0.9,0.8c0.2,0.4,0.2,0.8,0,1.2l-14,36.1
					C312.9,91.8,312.4,92.2,311.7,92.2z M291.9,46c0.9,1.4,1.8,2.7,2.6,4.2c3.1,5.1,6.3,11,8.9,16.1c3.1,5.8,5.6,12.4,7.1,16.4
					l1.2,3.5l11.9-30.7l-6.3-2.3c-3.1-1.2-6.7-2.5-10.4-3.3l-13-3.3C293.3,46.4,292.6,46.2,291.9,46z"></path></g>
			</g>
			<g>
				<g id="change2_7"><path fill="#3F4651" d="M325.7,56.1c-0.2,0-0.4,0-0.5-0.1l-7.7-2.8c-3.1-1.2-6.7-2.5-10.4-3.3l-13-3.3c-1.4-0.4-2.7-0.7-4.1-0.8
					l-1.7-0.3c-0.6-0.1-1.1-0.6-1.3-1.2c-0.1-0.6,0.1-1.3,0.6-1.6l2-1.4c1.8-1.3,3.6-2.4,5.4-3.5c3-1.8,9.3-5.5,17-9.4
					c6.6-3.6,13.4-6.2,18.4-8.1l8.8-3.2c0.5-0.2,1.2-0.1,1.6,0.4c0.4,0.4,0.6,1.1,0.3,1.6l-14,36.1
					C326.9,55.7,326.3,56.1,325.7,56.1z M292.5,43c0.8,0.2,1.6,0.4,2.4,0.6l12.9,3.3c3.9,0.8,7.7,2.2,10.8,3.4l6.3,2.3L337,21.1
					l-5.6,2c-5.2,2-11.7,4.5-18.1,8c-7.6,3.9-13.8,7.5-16.9,9.4C295.2,41.3,293.9,42.1,292.5,43z"></path></g>
			</g>
			<g>
				<g id="change2_8"><path fill="#3F4651" d="M288.5,45.5c-0.3,0-0.6-0.1-0.8-0.2c-0.5-0.3-0.8-1-0.7-1.6l7.1-38.1c0.2-0.8,0.9-1.4,1.8-1.2l1.9,0.3
					c1.8,0.2,3.5,0.6,5.3,1.1l15.3,3.9c4.7,1.1,9.3,2.7,13,4.1l8.9,3.3c0.6,0.2,1,0.8,1,1.4s-0.4,1.2-1,1.4l-8.8,3.2
					c-5.2,2-11.7,4.5-18.1,8c-7.6,3.9-13.8,7.5-16.9,9.4c-1.7,1-3.4,2.1-5.2,3.3l-2,1.4C289.1,45.4,288.8,45.5,288.5,45.5z
					 M296.8,7.6l-6.1,32.9c1.4-1,2.8-1.9,4.2-2.7c3-1.8,9.3-5.5,17-9.4c6.6-3.6,13.4-6.2,18.4-8.1l4.9-1.8l-5-1.8
					c-3.6-1.3-8.1-3-12.7-4l-15.3-3.9c-1.6-0.5-3.2-0.8-4.9-1L296.8,7.6z"></path></g>
			</g>
		</g>
		<g>
			<g>
				<g id="change2_9"><path fill="#3F4651" d="M339.9,106.3c-0.3,0-0.6-0.1-0.8-0.2l-8.5-5.2l-14.9-7.1l-4.5-1.6c-0.4-0.1-0.7-0.4-0.9-0.8
					c-0.2-0.4-0.2-0.8,0-1.2l14-36.1c0.2-0.6,0.8-1,1.4-1l0,0c0.6,0,1.2,0.4,1.4,0.9l3.3,7.7c1.9,5.2,4.1,11.8,5.8,17.7
					c0.9,3.1,1.7,6.2,2.4,9.1c0.6,3.1,1.1,5.9,1.5,8.3l1.1,7.4c0.1,0.2,0.2,0.4,0.2,0.7C341.5,105.6,341,106.3,339.9,106.3
					L339.9,106.3z M313.7,89.8l3.1,1.1l15.2,7.3l5.9,3.6l-0.7-4.5c-0.4-2.3-0.9-5.1-1.5-8.1c-0.7-2.8-1.5-5.8-2.4-8.9
					c-1.7-5.9-3.8-12.4-5.7-17.4l-1.8-4.1L313.7,89.8z"></path></g>
			</g>
			<g>
				<g id="change2_10"><path fill="#3F4651" d="M360.3,73.4c-0.1,0-0.2,0-0.2,0c-0.6-0.1-1.1-0.5-1.3-1.1L356,61.4l-1.8-6.3c-1-2.9-2.3-6.2-3.6-9.5
					c-2.5-6.3-5.4-13.2-7.9-18.4l-4.3-8c-0.3-0.6-0.2-1.3,0.2-1.7c0.4-0.5,1.1-0.7,1.7-0.4l6.7,2.5l22,10.5l12.6,7.6
					c0.3,0.2,0.6,0.6,0.7,1s0,0.8-0.2,1.2l-20.4,32.9C361.3,73.1,360.8,73.4,360.3,73.4z M343,21.3l2.4,4.5c2.6,5.4,5.5,12.4,8,18.7
					c1.3,3.3,2.5,6.6,3.6,9.7l3.8,13.7l17.7-28.5l-11.1-6.7l-21.7-10.4L343,21.3z"></path></g>
			</g>
			<g>
				<g>
					<g id="change2_11"><path fill="#3F4651" d="M339.9,106.3c-0.1,0-0.2,0-0.3,0c-0.6-0.1-1.1-0.6-1.2-1.3l-1.2-7.8c-0.4-2.3-0.9-5.1-1.5-8.1
						c-0.7-2.8-1.5-5.8-2.4-8.9c-1.7-5.9-3.8-12.4-5.7-17.4l-3.3-7.6c-0.2-0.4-0.2-0.8,0-1.2l14-36.1c0.2-0.6,0.7-0.9,1.3-1
						c0.6-0.2,1.2,0.3,1.5,0.8l4.4,8.1c2.6,5.4,5.5,12.4,8,18.7c1.3,3.3,2.5,6.6,3.6,9.7l2.5,8.8l2.1,8.4c0.1,0.4,0,0.8-0.2,1.2
						l-20.4,32.9C340.9,106,340.4,106.3,339.9,106.3z M327.4,54.5l3.1,7.1c1.9,5.2,4.1,11.8,5.8,17.7c0.9,3.1,1.7,6.2,2.4,9.1
						c0.6,3.1,1.1,5.9,1.5,8.3l0.6,3.7l17.9-28.8L356,61.5l-1.8-6.3c-1-2.9-2.3-6.2-3.6-9.5c-2.5-6.3-5.4-13.2-7.9-18.4l-2.8-5.1
						L327.4,54.5z"></path></g>
				</g>
			</g>
			<g>
				<g id="change2_12"><path fill="#3F4651" d="M365,125.3c-0.2,0-0.4,0-0.6-0.1c-0.4-0.2-0.7-0.5-0.9-0.8c-2.2-2.5-21-16.7-23.8-18.1
					c-0.3,0-0.5-0.1-0.8-0.2c-0.7-0.5-0.9-1.4-0.5-2.1L359,71c0.3-0.5,0.9-0.8,1.6-0.7c0.6,0.1,1.1,0.6,1.2,1.2l1.8,8.2
					c1,4.8,1.8,11.4,2.5,18.4c0.7,7.8,1,13.5,0.8,17.8l-0.3,7.9l0,0c0,0.4-0.1,0.7-0.4,1C365.9,125.1,365.5,125.3,365,125.3z
					 M342.1,104.2c4.8,2.9,16.2,11.5,21.6,16.1l0.2-4.5c0.2-4.3,0-9.8-0.8-17.4c-0.7-6.8-1.4-13.4-2.4-18l-1-4.5L342.1,104.2z"></path></g>
			</g>
			<g>
				<g id="change2_13"><path fill="#3F4651" d="M365,125.3c-0.2,0-0.4,0-0.6-0.1c-0.6-0.2-1-0.8-1-1.5l0.3-7.9c0.2-4.3,0-9.8-0.8-17.4
					c-0.7-6.8-1.4-13.4-2.4-18l-1.8-8.2c-0.1-0.6,0.1-1.2,0.6-1.6s1.2-0.4,1.7-0.1l5.2,3.1c2.1,1.2,4.3,3,6.8,4.8
					c1.3,1,2.7,2.1,4.1,3.1l1.8,1.3c3.4,2.5,6.6,4.9,8.8,7.2l4.4,4c0.3,0.3,0.5,0.7,0.5,1.1s-0.1,0.8-0.4,1.1l-26.1,28.6
					C365.9,125.2,365.5,125.3,365,125.3z M362.6,75.1l1,4.7c1,4.8,1.8,11.4,2.5,18.4c0.7,7.8,1,13.5,0.8,17.8l-0.1,3.7L389,95.3
					l-3.3-3c-2.2-2.2-5.3-4.5-8.5-6.9l-1.7-1.3c-1.4-1-2.8-2.1-4.2-3.1c-2.3-1.8-4.6-3.5-6.5-4.6L362.6,75.1z"></path></g>
			</g>
			<g>
				<g id="change2_14"><path fill="#3F4651" d="M391.1,96.7c-0.4,0-0.7-0.1-1-0.4l-4.5-4.1c-2.2-2.2-5.3-4.5-8.5-6.9l-1.7-1.3c-1.4-1-2.8-2.1-4.2-3.1
					c-2.3-1.8-4.6-3.5-6.5-4.6l-5.2-3.2c-0.5-0.3-0.8-1-0.7-1.6c0.1-0.6,0.6-1.1,1.2-1.3l8.5-1.9c5.2-1.1,11.8-1.8,18.9-2.6h0.4
					c8.8-0.9,15.4-1.2,20.3-1l9.2,0.2c0.6,0,1.1,0.4,1.4,0.9c0.2,0.6,0.1,1.2-0.3,1.6L392.3,96C392,96.6,391.6,96.7,391.1,96.7z
					 M364.4,72.5l1.9,1.2c2.1,1.2,4.3,3,6.8,4.8c1.3,1,2.7,2.1,4.1,3.1l1.8,1.3c3.4,2.5,6.6,4.9,8.8,7.2l3.3,3l22.8-25L408,68
					c-0.8,0-1.6,0-2.5,0c-4.3,0-10.2,0.4-17.4,1.1h-0.4c-6.9,0.7-13.5,1.4-18.5,2.5L364.4,72.5z"></path></g>
			</g>
			<g>
				<g id="change2_15"><path fill="#3F4651" d="M360.3,73.4c-0.5,0-1-0.2-1.3-0.7c-0.4-0.5-0.4-1.2-0.1-1.7l20.4-32.9c0.5-0.7,1.4-0.9,2.1-0.5l6.1,3.7
					c2.5,1.5,5.4,3.6,8.4,5.9c1.5,1.1,3,2.3,4.5,3.4l1.4,1.1c4.2,3.2,8.2,6.1,11.1,8.9l5.3,4.8c0.5,0.4,0.6,1.1,0.4,1.7
					s-0.7,1-1.5,1l-9.3-0.2c-4.8-0.2-11.3,0.2-19.9,1h-0.4c-6.9,0.7-13.5,1.4-18.5,2.5l-8.5,1.9C360.5,73.4,360.4,73.4,360.3,73.4z
					 M381.2,41.1l-17.7,28.5l4.9-1.1c5.2-1.1,11.8-1.8,18.9-2.6h0.4c8.8-0.9,15.4-1.2,20.3-1l5.1,0.1l-2.2-2
					c-2.7-2.7-6.7-5.6-10.8-8.7l-1.4-1c-1.5-1.1-3.1-2.3-4.6-3.4c-2.9-2.2-5.7-4.3-8.1-5.7L381.2,41.1z"></path></g>
			</g>
		</g>
		<g>
			<g>
				<g id="change2_16"><path fill="#3F4651" d="M386.3,148.6c-0.5,0-1-0.2-1.3-0.7c0-0.1-4.5-6.5-9.9-11.9c-0.9-0.9-1.7-1.9-2.5-2.8
					c-1.7-1.9-3.3-3.8-4.8-4.9l-3.8-3.4c-0.3-0.3-0.5-0.7-0.5-1.1s0.1-0.8,0.4-1.1L390,94.1c0.4-0.5,1.1-0.6,1.7-0.4s1,0.8,1,1.4
					l0.3,8.4c0.2,5-0.3,12.2-0.9,18.5c-0.9,12.9-4.2,25.3-4.2,25.4c-0.2,0.6-0.6,1-1.2,1.1C386.5,148.6,386.4,148.6,386.3,148.6z
					 M367.2,123.7l2.5,2.3c1.6,1.3,3.3,3.2,5.2,5.2c0.8,0.9,1.6,1.8,2.4,2.7c3.4,3.4,6.4,7.2,8.3,9.6c1-4.5,2.8-13,3.4-21.7
					c0.6-6.7,1.1-13.5,0.9-18.1l-0.2-4.7L367.2,123.7z"></path></g>
			</g>
			<g>
				<g id="change2_17"><path fill="#3F4651" d="M417.2,125.3c-0.3,0-0.5-0.1-0.8-0.2c-0.5-0.3-0.8-0.9-0.7-1.6c0-0.1,2.2-13.8,1.9-27.6
					c0-7.3-0.1-14.8-0.8-19.9l-1.1-9.2c-0.1-0.6,0.3-1.3,0.8-1.6c0.6-0.3,1.3-0.2,1.7,0.2l5.3,4.8c2.5,2.1,5.1,5,7.9,8.1
					c1,1.1,2,2.2,3.1,3.3c8,8.2,14.7,17.7,14.8,17.8c0.5,0.7,0.3,1.6-0.3,2.1L418.1,125C417.9,125.2,417.5,125.3,417.2,125.3z
					 M419.2,70.5l0.6,5.1c0.7,5.3,0.8,12.9,0.8,20.2c0.2,9.7-0.8,19.4-1.4,24.5l26.7-20.2c-2.1-2.8-7.5-9.9-13.6-16.2
					c-1.1-1.1-2.1-2.3-3.1-3.4c-2.7-3-5.3-5.9-7.7-7.9L419.2,70.5z"></path></g>
			</g>
			<g>
				<g>
					<g id="change2_18"><path fill="#3F4651" d="M386.3,148.6c-0.3,0-0.6-0.1-0.9-0.3c-0.5-0.4-0.8-1-0.6-1.7c0-0.1,3.3-12.3,4.2-24.9
						c0.6-6.7,1.1-13.5,0.9-18.1l-0.3-8.4c0-0.4,0.1-0.8,0.4-1.1l26.1-28.6c0.4-0.5,1-0.6,1.6-0.4s1,0.7,1.1,1.3l1.1,9.2
						c0.7,5.3,0.8,12.9,0.8,20.2c0.3,14.2-1.9,28-1.9,28.2c-0.1,0.4-0.3,0.7-0.6,1l-30.9,23.4C387,148.5,386.6,148.6,386.3,148.6z
						 M392.7,95.8l0.3,7.8c0.2,5-0.3,12.2-0.9,18.5c-0.6,8.3-2.2,16.5-3.2,21.2l27-20.4c0.4-2.8,2.1-14.8,1.8-27
						c0-7.3-0.1-14.8-0.8-19.9l-0.7-5.9L392.7,95.8z"></path></g>
				</g>
			</g>
			<g>
				<g id="change2_19"><path fill="#3F4651" d="M402.9,175.4c-0.4,0-0.8-0.1-1-0.4c-0.3-0.3-0.5-0.8-0.5-1.2c-1.1-3.1-13.9-23.1-15.9-25.4
					c-0.2-0.1-0.3-0.2-0.5-0.4c-0.5-0.7-0.4-1.6,0.3-2.1l30.9-23.4c0.5-0.4,1.2-0.4,1.7-0.1s0.8,0.9,0.7,1.6l-1.3,8.4
					c-0.7,4.7-2.2,11.2-4.2,18c-2.3,7.7-4,12.9-5.6,16.8l-3.2,7.3l0,0c-0.1,0.3-0.4,0.7-0.7,0.8
					C403.5,175.4,403.2,175.4,402.9,175.4z M388.5,147.4c2.8,3.9,10.9,16.2,14.4,22.7l1.8-4.1c1.5-3.8,3.2-8.9,5.5-16.5
					c2-6.6,3.5-13,4.1-17.6l0.7-4.6L388.5,147.4z"></path></g>
			</g>
			<g>
				<g id="change2_20"><path fill="#3F4651" d="M402.9,175.4c-0.4,0-0.8-0.1-1.1-0.4c-0.5-0.4-0.6-1.1-0.3-1.7l3.2-7.3c1.5-3.8,3.2-8.9,5.5-16.5
					c2-6.6,3.5-13,4.1-17.6l1.3-8.4c0.1-0.6,0.5-1.1,1.1-1.3c0.6-0.2,1.2,0.1,1.6,0.6l3.6,4.9c2.5,3,5.1,7.4,7.4,11.2
					c0.9,1.5,1.8,2.9,2.6,4.4c1.6,2.6,3.1,5,4.2,7.2l2.7,5.5c0.4,0.8,0.1,1.7-0.7,2l-34.6,17.3C403.4,175.4,403.2,175.4,402.9,175.4
					z M418.2,127.6l-0.7,4.7c-0.7,4.7-2.2,11.2-4.2,18c-2.3,7.7-4,12.9-5.6,16.8l-1.5,3.5l29.5-14.7l-2-4.1c-1-2-2.5-4.4-4.1-6.9
					c-0.9-1.4-1.8-2.9-2.7-4.4c-2.1-3.6-4.8-8-7.2-10.9L418.2,127.6z"></path></g>
			</g>
			<g>
				<g id="change2_21"><path fill="#3F4651" d="M437.6,158.1c-0.2,0-0.3,0-0.5-0.1c-0.4-0.1-0.7-0.4-0.9-0.8l-2.6-5.5c-1-2-2.5-4.4-4.1-6.9
					c-0.9-1.4-1.8-2.9-2.7-4.4c-2.1-3.6-4.8-8-7.2-10.9l-3.7-4.9c-0.4-0.5-0.4-1.2-0.1-1.7s0.9-0.8,1.6-0.7l8.6,1.3
					c5.2,0.8,11.8,2.3,19,4.4c8.6,2.5,14.9,4.6,19.3,6.3l8.5,3.6c0.6,0.2,0.9,0.8,0.9,1.4s-0.3,1.2-0.9,1.4L438.3,158
					C438.1,158.1,437.8,158.1,437.6,158.1z M420.7,125.8l1.4,1.8c2.5,3,5.1,7.4,7.4,11.2c0.9,1.5,1.8,2.9,2.6,4.4
					c1.6,2.6,3.1,5,4.2,7.2l2,4.1l30.3-15.1l-5.4-2.3c-4.2-1.7-10.5-3.7-19-6.2c-7-2.1-13.6-3.6-18.6-4.4L420.7,125.8z"></path></g>
			</g>
			<g>
				<g id="change2_22"><path fill="#3F4651" d="M472.2,140.9c-0.2,0-0.4,0-0.6-0.1l-8.5-3.6c-4.2-1.7-10.5-3.7-19-6.2c-7-2.1-13.6-3.6-18.6-4.4
					l-8.6-1.3c-0.6-0.1-1.1-0.5-1.3-1.1c-0.2-0.6,0.1-1.2,0.6-1.6l30.9-23.4c0.3-0.2,0.7-0.4,1.1-0.3s0.8,0.3,1,0.6l4.3,5.7
					c2.3,2.9,5.1,7.1,8.8,13.3c0.9,1.5,1.8,3,2.7,4.5c2,3.3,4,6.5,5.4,9.2l3,6.1c0.3,0.3,0.4,0.6,0.4,1.1
					C473.9,140.2,473.1,140.7,472.2,140.9C472.3,140.9,472.2,140.9,472.2,140.9z M421,122.8l5,0.8c5.2,0.8,11.8,2.3,19,4.4
					c8.6,2.5,14.9,4.6,19.3,6.3l4.7,2l-1.3-2.8c-1.3-2.6-3.2-5.7-5.3-9c-0.9-1.5-1.8-3-2.7-4.5c-3.6-6.1-6.3-10.2-8.6-13l-3.4-4.5
					L421,122.8z"></path></g>
			</g>
		</g>
		<g>
			<g>
				<g id="change2_23"><path fill="#3F4651" d="M414.4,204.8c-0.1,0-0.2,0-0.3,0c-0.6-0.1-1-0.6-1.2-1.2c0,0-0.4-1.9-1.2-4.6l-3.7-10.1
					c-0.3-0.7-0.5-1.4-0.8-2.1c-0.4-1.1-0.8-2.2-1.2-3.2l-4.4-8.9c-0.4-0.8-0.1-1.7,0.7-2l34.6-17.3c0.6-0.3,1.2-0.2,1.7,0.2
					s0.6,1.1,0.4,1.7l-6,15.9c-1.1,2.6-2.4,5.2-3.8,7.8l-0.6,1.1c-3.5,6.9-6.9,12.7-8.6,15.5c-2.6,4.1-4.5,6.6-4.6,6.7
					C415.3,204.5,414.8,204.8,414.4,204.8z M405,174.6l3.7,7.6c0.5,1.1,0.9,2.3,1.3,3.5c0.2,0.7,0.5,1.4,0.7,2.1l3.8,10.2
					c0.2,0.6,0.4,1.2,0.5,1.7c0.7-1,1.6-2.3,2.5-3.8c1.6-2.7,5-8.4,8.5-15.2l0.6-1.1c1.3-2.5,2.6-5.2,3.7-7.6l4.6-12.2L405,174.6z"></path></g>
			</g>
			<g>
				<g id="change2_24"><path fill="#3F4651" d="M451.6,194.2c-0.5,0-0.9-0.2-1.2-0.6c-0.4-0.5-0.4-1.2-0.1-1.7c0,0,1.8-3,4.1-7.6
					c2.5-5.3,5.3-11.7,7.6-17.6l0.6-1.5c1.1-2.8,2.3-5.8,3.2-8.5l2.6-8.9l2.4-9c0.2-0.6,0.7-1.1,1.3-1.1c0.8-0.1,1.3,0.3,1.5,0.9
					l6.3,13.1c0.7,1.7,1.4,3.4,2,5.2c0.3,0.9,0.7,1.8,1,2.7l5.4,14.9c1.3,4.2,1.9,7,2,7.1c0.2,0.8-0.3,1.6-1.1,1.8L452,194.1
					C451.9,194.2,451.7,194.2,451.6,194.2z M472.7,143.7l-1.7,6.2l-2.3,7.8c-0.9,2.8-2.1,5.8-3.2,8.7l-0.6,1.5
					c-2.3,5.9-5.2,12.4-7.7,17.8c-0.9,1.8-1.7,3.3-2.4,4.5L487,181c-0.3-1.2-0.8-3.1-1.5-5.4l-5.4-14.8c-0.3-0.9-0.7-1.8-1-2.8
					c-0.6-1.7-1.2-3.4-2-5L472.7,143.7z"></path></g>
			</g>
			<g>
				<g>
					<g id="change2_25"><path fill="#3F4651" d="M414.4,204.8c-0.5,0-1-0.2-1.3-0.7c-0.4-0.5-0.4-1.3,0-1.8c0,0,1.9-2.6,4.4-6.5c1.6-2.7,5-8.4,8.5-15.2
						l0.6-1.1c1.3-2.5,2.6-5.2,3.7-7.6l3.1-7.8l2.8-8c0.1-0.4,0.4-0.7,0.8-0.9l34.6-17.3c0.5-0.3,1.2-0.2,1.7,0.2s0.7,1,0.5,1.6
						l-2.7,10.2l-2.3,7.8c-0.9,2.8-2.1,5.8-3.2,8.7l-0.6,1.5c-2.3,5.9-5.2,12.4-7.7,17.8c-2.4,4.7-4.2,7.7-4.2,7.8
						c-0.2,0.3-0.5,0.6-0.9,0.7L415,204.8C414.6,204.7,414.5,204.8,414.4,204.8z M438.8,157.7L433,173c-1.1,2.6-2.4,5.2-3.8,7.8
						l-0.6,1.1c-3.5,6.9-6.9,12.7-8.6,15.5c-0.7,1.2-1.4,2.2-2,3.1l32.5-9.2c0.6-1,2.1-3.6,3.8-7c2.5-5.3,5.3-11.7,7.6-17.6l0.6-1.5
						c1.1-2.8,2.3-5.8,3.2-8.5l4.1-14.6L438.8,157.7z"></path></g>
				</g>
			</g>
			<g>
				<g id="change2_26"><path fill="#3F4651" d="M420.2,235.7c-0.6,0-1.1-0.3-1.4-0.9c-0.2-0.3-0.2-0.7-0.1-1c0-0.8-0.5-3.5-0.9-6.1s-0.9-5.8-1.4-9
					c-0.2-2.5-0.9-4.9-1.5-7c-0.3-1.2-0.7-2.4-0.9-3.4l-1.2-4.7c-0.2-0.8,0.3-1.6,1.1-1.9l37.2-10.6c0.6-0.2,1.3,0,1.6,0.5
					c0.4,0.5,0.4,1.2,0.1,1.7l-4.4,7.3c-0.6,0.9-1.2,1.9-1.8,2.9c-2.4,3.8-5.1,8.1-8.6,12.4c-4.8,6.1-9.2,11.2-11.4,13.6
					c-2.9,3.3-5.2,5.5-5.5,5.7l0,0c-0.2,0.2-0.5,0.4-0.9,0.4C420.3,235.7,420.3,235.7,420.2,235.7z M416.2,204.3l0.8,3.3
					c0.2,1,0.5,2.1,0.9,3.3c0.6,2.3,1.4,4.8,1.6,7.5c0.4,3.1,0.9,6.2,1.3,8.8c0.2,1.5,0.4,2.7,0.6,3.6c0.9-0.9,1.9-2,3.1-3.3
					c2.2-2.4,6.6-7.4,11.3-13.5c3.4-4.1,6-8.3,8.3-12.1c0.6-1,1.2-1.9,1.8-2.9l2.4-4L416.2,204.3z"></path></g>
			</g>
			<g>
				<g id="change2_27"><path fill="#3F4651" d="M420.2,235.7c-0.6,0-1.2-0.4-1.4-0.9c-0.3-0.6-0.1-1.3,0.4-1.8c0,0,2.4-2.2,5.3-5.5
					c2.2-2.4,6.6-7.4,11.3-13.5c3.4-4.1,6-8.3,8.3-12.1c0.6-1,1.2-1.9,1.8-2.9l4.3-7.3c0.3-0.5,0.9-0.8,1.5-0.7s1.1,0.5,1.3,1.1
					l1.5,5.9c0.3,1.2,0.6,2.5,1,3.9c0.8,2.8,1.6,6,2,9.3l2,13.1c0.7,3.6,0.7,6.1,0.7,6.2c0,0.8-0.6,1.5-1.4,1.6L420.2,235.7
					C420.3,235.7,420.3,235.7,420.2,235.7z M451,196.6l-2.5,4.2c-0.6,0.9-1.2,1.9-1.8,2.9c-2.4,3.8-5.1,8.1-8.6,12.4
					c-4.8,6.1-9.2,11.2-11.4,13.6c-0.9,1-1.7,1.9-2.4,2.7l32.8-3c-0.1-1-0.3-2.5-0.6-4.3l-2-13.2c-0.3-3.2-1.2-6.2-1.9-8.9
					c-0.4-1.4-0.8-2.8-1-4L451,196.6z"></path></g>
			</g>
			<g>
				<g id="change2_28"><path fill="#3F4651" d="M458.8,232.2c-0.4,0-0.7-0.1-1-0.4c-0.3-0.3-0.5-0.7-0.5-1.1c0,0-0.1-2.4-0.7-5.8l-2-13.2
					c-0.3-3.2-1.2-6.2-1.9-8.9c-0.4-1.4-0.8-2.8-1-4l-1.5-5.8c-0.2-0.6,0.1-1.2,0.6-1.6c0.5-0.4,1.2-0.4,1.7-0.1l10.2,6.2
					c4.1,2.5,9.1,5.7,13.5,9.3c4.9,3.9,10.6,8.5,15.4,12.8c4.3,3.7,6.8,6.4,6.9,6.5c0.4,0.4,0.5,1.1,0.3,1.6s-0.7,0.9-1.3,1
					l-38.6,3.5H458.8z M454,195.9l0.6,2.2c0.3,1.2,0.6,2.5,1,3.9c0.8,2.8,1.6,6,2,9.3l2,13.1c0.3,1.9,0.5,3.5,0.6,4.6l33.7-3.1
					c-1.1-1.1-2.6-2.4-4.4-4c-4.8-4.3-10.4-8.9-15.3-12.7c-4.2-3.5-9.2-6.6-13.2-9.1L454,195.9z"></path></g>
			</g>
			<g>
				<g id="change2_29"><path fill="#3F4651" d="M497.4,228.7C497.4,228.7,497.3,228.7,497.4,228.7c-0.5,0-0.9-0.2-1.2-0.5c0,0-2.5-2.7-6.7-6.3
					c-4.8-4.3-10.4-8.9-15.3-12.7c-4.2-3.5-9.2-6.6-13.2-9.1l-2.8-1.8l-7.3-4.4c-0.5-0.3-0.8-0.9-0.7-1.5c0.1-0.6,0.5-1.1,1.1-1.3
					l37.2-10.6c0.4-0.1,0.8-0.1,1.2,0.1c0.4,0.2,0.6,0.5,0.7,1l1.8,7c0.3,1.4,0.7,2.8,1.1,4.4c0.9,3.4,1.9,7.2,2.4,11.2l2.4,15.5
					c0.6,3.3,0.8,5.8,0.8,6.8c0.1,0.2,0.1,0.4,0.1,0.6C498.9,228,498.2,228.7,497.4,228.7z M455.5,193.1l7.1,4.3
					c4.1,2.5,9.1,5.7,13.5,9.3c4.9,3.9,10.6,8.5,15.4,12.8c1.5,1.3,2.8,2.5,3.9,3.5c-0.1-0.8-0.2-1.8-0.4-2.8l-2.4-15.6
					c-0.4-3.8-1.4-7.5-2.3-10.8c-0.4-1.6-0.8-3.1-1.1-4.5l-1.4-5.4L455.5,193.1z"></path></g>
			</g>
		</g>
		<g>
			<g>
				<g id="change2_30"><path fill="#3F4651" d="M420.2,267.4c-0.3,0-0.5-0.1-0.7-0.2c-0.5-0.3-0.8-0.8-0.8-1.4l0.8-15.8l-0.8-15.7
					c0-0.8,0.6-1.5,1.4-1.6l38.6-3.5c0.5-0.1,1.2,0.3,1.5,0.8c0.3,0.6,0.2,1.2-0.2,1.7c-0.1,0.1-9.3,10.8-18.5,19.5
					c-10.2,8.9-20.3,15.9-20.4,16C420.8,267.3,420.5,267.4,420.2,267.4z M421.8,235.6l0.7,14.3l-0.7,12.8
					c3.6-2.6,10.5-7.8,17.5-13.9c6.1-5.8,12.3-12.5,15.7-16.3L421.8,235.6z"></path></g>
			</g>
			<g>
				<g id="change2_31"><path fill="#3F4651" d="M497.3,274.4h-0.1l-38.6-3.5c-0.6-0.1-1.1-0.5-1.3-1.1c-0.2-0.6,0-1.2,0.5-1.6
					c0.1-0.1,10.2-8.8,20.2-19.2c9-10.2,18-22.6,18.1-22.7c0.4-0.5,1.1-0.8,1.7-0.6s1.1,0.7,1.1,1.4L500,250l-1.1,23
					c0,0.4-0.2,0.8-0.5,1.1C498.1,274.3,497.7,274.4,497.3,274.4z M462.5,268.1l33.4,3.1l1.1-21.3l-0.9-18.4
					c-3.4,4.5-9.5,12.5-15.7,19.5C473.2,258.4,466.2,264.8,462.5,268.1z"></path></g>
			</g>
			<g>
				<g>
					<g id="change2_32"><path fill="#3F4651" d="M458.8,270.9h-0.1l-38.6-3.5c-0.7-0.1-1.2-0.5-1.4-1.1c-0.2-0.6,0.1-1.3,0.6-1.7c0.1-0.1,10-7,20-15.7
						c9-8.5,18.1-19.1,18.2-19.2c0.3-0.3,0.6-0.5,1-0.5l38.6-3.5c0.6-0.1,1.2,0.2,1.5,0.8c0.3,0.5,0.3,1.2-0.1,1.7
						c-0.1,0.1-9.1,12.6-18.3,23c-10.2,10.6-20.4,19.4-20.5,19.5C459.5,270.8,459.1,270.9,458.8,270.9z M424.5,264.7l33.8,3.1
						c2.1-1.9,11-9.7,19.7-18.8c6.5-7.3,12.9-15.7,16-20l-34.5,3.2c-1.9,2.2-10,11.4-18.1,19C434.8,256.9,428.3,261.9,424.5,264.7z"></path></g>
				</g>
			</g>
			<g>
				<g id="change2_33"><path fill="#3F4651" d="M414.4,298.3c-0.4,0-0.7-0.1-1-0.4c-0.5-0.4-0.7-1-0.5-1.6l1.2-4.8c0.2-1,0.5-2.1,0.9-3.4
					c0.6-2.1,1.3-4.5,1.5-7c0.5-3.2,1-6.4,1.4-9s0.8-5.3,0.9-6.1c0-0.2-0.1-0.3,0-0.5c0.1-0.8,0.9-1.4,1.7-1.4l38.6,3.5
					c0.6,0.1,1.1,0.5,1.3,1s0,1.2-0.4,1.6c-0.1,0.1-2.6,2.3-6.8,5.4c-4.7,3.5-10.2,7.3-15.1,10.4c-4.3,2.9-9.3,5.4-13.3,7.4
					l-2.4,1.2l-7.1,3.3C414.8,298.3,414.6,298.3,414.4,298.3z M421.7,267.5c-0.1,1.1-0.4,2.7-0.8,5.3c-0.4,2.6-0.9,5.8-1.3,8.9
					c-0.2,2.6-1,5.2-1.6,7.5c-0.3,1.1-0.6,2.2-0.8,3.2l-0.4,1.7l6.6-3.1c3.9-1.9,8.8-4.4,12.9-7.2c4.8-3.1,10.3-6.8,15-10.3
					c1.5-1.1,2.8-2,3.8-2.8L421.7,267.5z"></path></g>
			</g>
			<g>
				<g id="change2_34"><path fill="#3F4651" d="M451.6,308.9c-0.1,0-0.3,0-0.4-0.1L414,298.2c-0.6-0.2-1.1-0.7-1.1-1.4c-0.1-0.6,0.3-1.2,0.9-1.5
					l9.5-4.5c3.9-1.9,8.8-4.4,12.9-7.2c4.8-3.1,10.3-6.8,15-10.3c4.1-3,6.6-5.2,6.6-5.2c0.5-0.4,1.1-0.5,1.7-0.3
					c0.6,0.3,0.9,0.8,0.9,1.4c0,0.1-0.1,2.6-0.7,6.2l-2,13.1c-0.3,3.3-1.2,6.5-2,9.3c-0.4,1.4-0.7,2.6-1,3.8l-1.5,5.9
					c-0.1,0.4-0.4,0.7-0.7,1C452.1,308.8,451.9,308.9,451.6,308.9z M418.8,296.4l31.7,9l1.1-4.3c0.2-1.2,0.6-2.5,1-3.9
					c0.7-2.7,1.6-5.7,1.9-8.8l2-13.2c0.1-0.8,0.3-1.5,0.3-2.2c-1.1,0.8-2.4,1.8-3.9,3c-4.7,3.5-10.2,7.3-15.1,10.4
					c-4.3,2.9-9.3,5.4-13.3,7.4L418.8,296.4z"></path></g>
			</g>
			<g>
				<g id="change2_35"><path fill="#3F4651" d="M488.8,319.5c-0.1,0-0.3,0-0.4-0.1l-37.2-10.6c-0.8-0.2-1.3-1.1-1.1-1.9l1.5-5.9c0.2-1.2,0.6-2.5,1-3.9
					c0.7-2.7,1.6-5.7,1.9-8.8l2-13.2c0.6-3.4,0.7-5.8,0.7-5.8c0-0.6,0.4-1.2,1-1.4c0.6-0.2,1.3-0.1,1.7,0.4c0.1,0.1,2.4,2.7,5.4,6.9
					c2.1,2.8,6.3,8.7,11.1,16c3.3,4.9,5.8,9.8,8,14.2c0.6,1.2,1.2,2.3,1.7,3.4l3.9,8.1c0.3,0.3,0.4,0.7,0.4,1.1
					C490.5,318.8,489.8,319.5,488.8,319.5C488.9,319.5,488.9,319.5,488.8,319.5z M453.5,306.3l32.5,9.2l-2.6-5.4
					c-0.5-1-1.1-2.2-1.7-3.4c-2.2-4.3-4.6-9.1-7.8-13.9c-3.4-5.3-7.4-11.1-11-15.9c-1.1-1.5-2-2.8-2.9-3.8c-0.1,0.7-0.2,1.5-0.4,2.4
					l-2,13.1c-0.3,3.3-1.2,6.5-2,9.3c-0.4,1.4-0.7,2.6-1,3.8L453.5,306.3z"></path></g>
			</g>
			<g>
				<g id="change2_36"><path fill="#3F4651" d="M488.8,319.5c-0.6,0-1.1-0.3-1.4-0.9l-4.1-8.4c-0.5-1-1.1-2.2-1.7-3.4c-2.2-4.3-4.6-9.1-7.8-13.9
					c-3.4-5.3-7.4-11.1-11-15.9c-2.9-4-5.2-6.6-5.2-6.6c-0.4-0.5-0.5-1.2-0.2-1.7c0.3-0.6,0.8-0.9,1.5-0.8l38.6,3.5
					c0.8,0.1,1.4,0.8,1.4,1.6c0,0.1-0.1,3-0.8,7.3l-2.4,15.6c-0.5,3.9-1.5,7.8-2.4,11.1c-0.4,1.6-0.8,3-1.1,4.3l-1.8,7
					c-0.2,0.6-0.7,1.1-1.3,1.1C488.9,319.5,488.9,319.5,488.8,319.5z M462.3,271.2c0.9,1.1,1.9,2.4,3,4c2.1,2.8,6.3,8.7,11.1,16
					c3.3,4.9,5.8,9.8,8,14.2c0.6,1.2,1.2,2.3,1.7,3.4l2.3,4.7l0.7-2.9c0.3-1.3,0.7-2.8,1.1-4.4c0.9-3.3,1.9-7,2.3-10.8l2.4-15.7
					c0.4-2.3,0.6-4.3,0.7-5.5L462.3,271.2z"></path></g>
			</g>
		</g>
		<g>
			<g>
				<g id="change2_37"><path fill="#3F4651" d="M402.9,327.7c-0.5,0-0.9-0.2-1.2-0.6c-0.4-0.5-0.5-1.1-0.2-1.6l4.4-9c0.4-1,0.8-2.1,1.2-3.2
					c0.2-0.7,0.5-1.4,0.8-2.1l3.8-10.2c0.8-2.6,1.2-4.5,1.2-4.5c0.1-0.4,0.3-0.8,0.7-1s0.8-0.3,1.2-0.2l37.2,10.6
					c0.6,0.2,1,0.7,1.1,1.3c0.1,0.6-0.2,1.2-0.7,1.5c-0.1,0.1-3,1.8-7.5,4.1c-5.4,2.6-11.6,5.3-17,7.4l-1.5,0.6
					c-2.5,1-5,1.9-7.4,2.7l-8,2.3l-7.7,1.9C403.2,327.7,403.1,327.7,402.9,327.7z M415.5,298.7c-0.2,0.8-0.5,2-0.9,3.3l-3.8,10.3
					c-0.3,0.7-0.5,1.4-0.7,2.1c-0.4,1.2-0.8,2.4-1.3,3.5l-3,6.1l5.7-1.5l6.7-1.9c2.3-0.7,4.7-1.7,7.2-2.6l1.5-0.6
					c5.3-2.1,11.4-4.8,16.8-7.3c1.6-0.8,3-1.5,4.1-2.1L415.5,298.7z"></path></g>
			</g>
			<g>
				<g id="change2_38"><path fill="#3F4651" d="M472.2,362.2c-0.2,0-0.5-0.1-0.7-0.2l-34.6-17.3c-0.6-0.3-0.9-0.9-0.9-1.5s0.4-1.1,1-1.4l8.1-2.9
					l8.4-3.3c2.4-1,4.9-2.3,7.5-3.6l1.7-0.8c5.6-2.8,12-6.4,17.6-9.6c4.6-2.8,7.5-5,7.6-5c0.5-0.4,1.2-0.4,1.8,0
					c0.5,0.4,0.8,1,0.7,1.6c0,0.1-0.7,2.9-2,7l-5.4,14.9c-0.4,0.9-0.7,1.8-1,2.7c-0.7,1.8-1.3,3.6-2,5.2l-6.3,13.2
					c-0.2,0.4-0.5,0.7-0.9,0.8C472.6,362.2,472.4,362.2,472.2,362.2z M441.5,343.6l30,15l5.6-11.7c0.7-1.6,1.3-3.3,1.9-5
					c0.3-0.9,0.7-1.8,1-2.8l5.4-14.8c0.3-1,0.6-1.9,0.8-2.8c-1.2,0.8-2.6,1.7-4.3,2.8c-5.7,3.3-12.1,6.9-17.8,9.7l-1.7,0.8
					c-2.7,1.3-5.2,2.6-7.7,3.7L441.5,343.6z"></path></g>
			</g>
			<g>
				<g>
					<g id="change2_39"><path fill="#3F4651" d="M437.6,345c-0.2,0-0.5-0.1-0.7-0.2l-34.6-17.3c-0.6-0.3-0.9-0.9-0.8-1.5s0.5-1.2,1.2-1.3l9-2.3l6.6-1.9
						c2.3-0.7,4.7-1.7,7.2-2.6l1.5-0.6c5.3-2.1,11.4-4.8,16.8-7.3c4.4-2.2,7.2-3.9,7.2-3.9c0.4-0.2,0.8-0.3,1.2-0.2l37.2,10.6
						c0.6,0.2,1,0.6,1.1,1.2s-0.1,1.2-0.6,1.5c-0.1,0.1-3.1,2.2-7.8,5.2c-5.7,3.3-12.1,6.9-17.8,9.7l-1.7,0.8
						c-2.6,1.3-5.2,2.6-7.7,3.7l-8.5,3.3l-8.2,2.9C437.9,344.9,437.8,345,437.6,345z M407.4,326.6l30.3,15.1l7.5-2.7l8.4-3.3
						c2.4-1,4.9-2.3,7.5-3.6l1.7-0.8c5.6-2.8,12-6.4,17.6-9.6c2-1.2,3.6-2.3,4.9-3.2l-33.5-9.5c-1.1,0.6-3.5,2-6.9,3.7
						c-5.4,2.6-11.6,5.3-17,7.4l-1.5,0.6c-2.5,1-5,1.9-7.4,2.7L407.4,326.6z"></path></g>
				</g>
			</g>
			<g>
				<g id="change2_40"><path fill="#3F4651" d="M386.3,354.5L386.3,354.5c-0.3,0-0.6-0.1-0.9-0.3c-0.5-0.4-0.8-1.1-0.6-1.7c0.1-0.4,0.4-0.7,0.7-0.9
					c2-2.2,14.7-22.2,15.9-25.4c0-0.3,0-0.6,0.2-0.8c0.4-0.8,1.3-1,2.1-0.7l34.6,17.3c0.6,0.3,0.9,0.9,0.8,1.5
					c0,0.6-0.5,1.2-1.1,1.3l-8,2.6c-4.2,1.2-10.3,2.6-18.1,4.1c-6.6,1.3-12.9,2.2-17.7,2.4l-7.7,0.4
					C386.5,354.5,386.4,354.5,386.3,354.5z M403.8,328.3c-2.4,4.9-10,17.1-14.2,22.9l4.5-0.3c4.7-0.2,10.8-1.1,17.3-2.3
					c7.8-1.5,13.7-2.9,17.8-4.1l4.3-1.4L403.8,328.3z"></path></g>
			</g>
			<g>
				<g id="change2_41"><path fill="#3F4651" d="M417.2,377.8c-0.3,0-0.7-0.1-0.9-0.3l-30.9-23.4c-0.5-0.4-0.7-1.1-0.5-1.7s0.7-1.1,1.4-1.1l7.9-0.4
					c4.7-0.2,10.8-1.1,17.3-2.3c7.8-1.5,13.7-2.9,17.8-4.1l7.9-2.6c0.6-0.2,1.2,0,1.6,0.4c0.4,0.5,0.5,1.1,0.2,1.7l-2.6,5.5
					c-1.1,2.2-2.6,4.6-4.2,7.2c-0.9,1.4-1.8,2.9-2.6,4.4c-2.3,3.9-5,8.2-7.5,11.3l-3.6,4.8c-0.2,0.3-0.6,0.5-1,0.6
					C417.3,377.8,417.3,377.8,417.2,377.8z M390.6,354.2l26.3,19.9l2.7-3.6c2.4-3,5.1-7.4,7.2-11c0.9-1.5,1.8-3,2.7-4.4
					c1.6-2.5,3-4.9,4.1-7l1-2.2l-4.5,1.5c-4.2,1.2-10.3,2.6-18.1,4.1c-6.6,1.3-12.9,2.2-17.7,2.4L390.6,354.2z"></path></g>
			</g>
			<g>
				<g id="change2_42"><path fill="#3F4651" d="M448.1,401.2c-0.3,0-0.7-0.1-0.9-0.3l-30.9-23.4c-0.7-0.5-0.8-1.5-0.3-2.1l3.6-4.9c2.4-3,5.1-7.4,7.2-11
					c0.9-1.5,1.8-3,2.7-4.4c1.6-2.5,3-4.9,4.1-7l2.6-5.4c0.3-0.6,1-1,1.5-0.9c0.6,0,1.2,0.5,1.4,1.1l2.7,8.3
					c1.6,5.5,3.1,12.7,4.4,19c1.5,7.6,2.6,14.9,2.9,20.1l0.6,8.8c0.1,0.2,0.1,0.4,0.1,0.6C449.7,400.5,449,401.2,448.1,401.2
					L448.1,401.2z M419.3,376l27,20.4l-0.4-5.9c-0.3-5-1.3-12.2-2.8-19.7c-1.2-6.3-2.7-13.4-4.3-18.7l-1.5-4.6l-1,2
					c-1.1,2.2-2.6,4.6-4.2,7.2c-0.9,1.4-1.8,2.9-2.6,4.4c-2.3,3.9-5,8.2-7.5,11.3L419.3,376z"></path></g>
			</g>
			<g>
				<g id="change2_43"><path fill="#3F4651" d="M448.1,401.2c-0.1,0-0.3,0-0.4-0.1c-0.6-0.2-1.1-0.7-1.1-1.4l-0.6-9.3c-0.3-5-1.3-12.2-2.8-19.7
					c-1.2-6.3-2.7-13.4-4.3-18.7l-2.7-8.3c-0.2-0.6,0-1.2,0.5-1.6s1.1-0.5,1.7-0.2l34.6,17.3c0.8,0.4,1.1,1.3,0.7,2.1l-3.1,6.5
					c-1.4,2.7-3.4,5.9-5.4,9.2c-0.9,1.5-1.8,3-2.7,4.5c-3.7,6.2-6.5,10.4-8.8,13.3l-4.2,5.7C449,400.9,448.6,401.2,448.1,401.2z
					 M440.2,346.4l1.6,4.8c1.6,5.5,3.1,12.7,4.4,19c1.5,7.6,2.6,14.9,2.9,20.1l0.3,5.1l1.8-2.4c2.3-2.8,5-7,8.6-13
					c0.9-1.5,1.8-3,2.7-4.5c2-3.3,3.9-6.4,5.3-9l2.5-5L440.2,346.4z"></path></g>
			</g>
		</g>
		<g>
			<g>
				<g id="change2_44"><path fill="#3F4651" d="M393.3,379.7c-0.9,0-1.9,0-2.8,0c-6.8,0-12.8-0.2-17.8-0.9l-7.9-1c-0.6-0.1-1.1-0.5-1.3-1.1
					c-0.2-0.6,0-1.2,0.4-1.6l3.7-3.3c1.6-1.2,3.2-3.1,4.9-5c0.8-0.9,1.7-1.9,2.5-2.8c5.5-5.5,9.9-11.9,10-12c0.2-0.3,0.6-0.6,1-0.6
					c0.4-0.1,0.8,0,1.2,0.3l30.9,23.4c0.5,0.4,0.7,1,0.6,1.6s-0.6,1-1.2,1.1C417.3,377.8,405.6,379.7,393.3,379.7z M368.6,375.1
					l4.6,0.6c4.8,0.7,10.7,0.8,17.4,0.8c0.9,0,1.9,0,2.8,0c7.9,0,15.6-0.8,20-1.3L386.7,355c-1.6,2.2-5.2,6.8-9.3,11
					c-0.8,0.9-1.6,1.8-2.4,2.7c-1.8,2-3.5,3.9-5.2,5.3L368.6,375.1z"></path></g>
			</g>
			<g>
				<g id="change2_45"><path fill="#3F4651" d="M417.2,435c-0.4,0-0.8-0.2-1.1-0.5L390,405.9c-0.4-0.5-0.5-1.1-0.3-1.7c0.3-0.6,0.9-0.9,1.5-0.9l8.7,0.3
					c5.3,0.2,11.4-0.3,19.1-0.9c14.2-1,28.6-4.5,28.7-4.5c0.7-0.2,1.3,0.1,1.6,0.6c0.4,0.5,0.4,1.2,0,1.8
					c-0.1,0.1-6.8,9.6-14.8,17.8c-1,1.1-2,2.2-3,3.3c-2.8,3.1-5.5,6-8,8.2l-5.2,4.8C418,434.8,417.6,435,417.2,435z M394.7,406.5
					l22.6,24.8l4.2-3.8c2.4-2,5-4.9,7.7-7.9c1-1.1,2-2.3,3.1-3.4c5-5.1,9.4-10.7,12.1-14.2c-5.4,1.1-15.3,3-25.1,3.7
					c-7.9,0.7-14.2,1.2-19.5,0.9L394.7,406.5z"></path></g>
			</g>
			<g>
				<g>
					<g id="change2_46"><path fill="#3F4651" d="M402.6,406.7c-1,0-1.9,0-2.9-0.1l-8.7-0.3c-0.4,0-0.8-0.2-1.1-0.5l-26.1-28.6c-0.4-0.5-0.5-1.2-0.2-1.8
						c0.3-0.6,0.9-0.9,1.6-0.8l7.9,1c4.8,0.7,10.7,0.8,17.4,0.8c0.9,0,1.9,0,2.8,0l0,0c12,0,23.5-1.8,23.6-1.9
						c0.4-0.1,0.8,0,1.2,0.3l30.9,23.4c0.5,0.4,0.7,1,0.6,1.5c-0.1,0.6-0.6,1-1.1,1.2c-0.2,0-14.8,3.6-29.2,4.6
						C412.7,406.3,407.4,406.7,402.6,406.7z M391.8,403.3l8,0.3c5.3,0.2,11.4-0.3,19.1-0.9c10.2-0.7,20.5-2.7,25.5-3.8l-27.7-21
						c-2.6,0.4-12.8,1.8-23.5,1.8l0,0c-0.9,0-1.9,0-2.8,0c-6.8,0-12.8-0.2-17.8-0.9l-3.7-0.5L391.8,403.3z"></path></g>
				</g>
			</g>
			<g>
				<g id="change2_47"><path fill="#3F4651" d="M391.1,406.4L391.1,406.4l-8.5-0.5c-4.3-0.2-10.4-1.1-18.3-2.6c-6.4-1.3-12.5-2.5-17.3-4l-7.4-2.5
					c-0.4-0.1-0.7-0.3-1-0.7c-0.4-0.5-0.3-1.3,0.1-1.8c0.3-0.4,0.7-0.6,1.3-0.6c2.2-1,21.4-15.6,23.7-18.1c0.1-0.2,0.2-0.4,0.4-0.5
					c0.6-0.6,1.6-0.5,2.2,0.1l25.8,28.3c0.4,0.3,0.7,0.8,0.7,1.3C392.8,405.7,392.1,406.4,391.1,406.4
					C391.2,406.4,391.2,406.4,391.1,406.4z M343.7,394.9l4.3,1.4c4.6,1.5,10.6,2.7,16.9,4c7.7,1.5,13.8,2.3,17.9,2.5l4.7,0.3
					L365,378.4C360.9,382,349.7,390.9,343.7,394.9z"></path></g>
			</g>
			<g>
				<g id="change2_48"><path fill="#3F4651" d="M360.3,429.7c-0.5,0-1-0.3-1.3-0.7l-20.4-32.9c-0.3-0.6-0.3-1.3,0.1-1.8s1.1-0.7,1.7-0.5l7.6,2.5
					c4.6,1.5,10.6,2.7,16.9,4c7.7,1.5,13.8,2.3,17.9,2.5l8.5,0.5c0.6,0,1.2,0.4,1.4,1c0.2,0.6,0,1.2-0.4,1.7l-4.5,4.1
					c-2.2,2.2-5.4,4.6-8.8,7.1l-1.7,1.3c-1.4,1-2.8,2.1-4.1,3.1c-2.4,1.9-4.7,3.6-6.8,4.8l-5.2,3.1
					C360.9,429.6,360.6,429.7,360.3,429.7z M343.4,398.1l17.4,28l3.9-2.4c2-1.1,4.2-2.8,6.5-4.6c1.3-1,2.7-2.1,4.2-3.1l1.7-1.3
					c3.3-2.4,6.4-4.7,8.5-6.9l1.8-1.7l-4.8-0.3c-4.3-0.2-10.4-1.1-18.3-2.6c-6.4-1.3-12.5-2.5-17.3-4L343.4,398.1z"></path></g>
			</g>
			<g>
				<g id="change2_49"><path fill="#3F4651" d="M380.7,462.6c-0.5,0-1-0.3-1.3-0.7L359,429c-0.2-0.3-0.3-0.8-0.2-1.2c0.1-0.4,0.3-0.7,0.7-1l5.2-3.1
					c2-1.1,4.2-2.8,6.5-4.6c1.3-1,2.7-2.1,4.2-3.1l1.7-1.3c3.3-2.4,6.4-4.7,8.5-6.9l4.5-4.1c0.5-0.4,1.1-0.5,1.7-0.2
					s0.9,0.9,0.9,1.5l-0.5,8.7c-0.2,4.7-1.1,10.9-2.7,19.3c-1.3,6.8-2.8,14.4-4.5,19.8l-2.8,8.8c-0.2,0.6-0.7,1-1.3,1.1
					C380.8,462.6,380.8,462.6,380.7,462.6z M362.4,428.7l17.8,28.7l1.8-5.6c1.6-5.2,3.1-12.8,4.4-19.5c1.6-8.3,2.4-14.4,2.6-18.9
					l0.3-4.9l-1.7,1.5c-2.2,2.2-5.4,4.6-8.8,7.1l-1.7,1.3c-1.4,1-2.8,2.1-4.1,3.1c-2.4,1.9-4.7,3.6-6.8,4.8L362.4,428.7z"></path></g>
			</g>
			<g>
				<g id="change2_50"><path fill="#3F4651" d="M380.7,462.6c-0.3,0-0.7-0.1-1-0.3c-0.5-0.4-0.7-1.1-0.5-1.7l2.8-8.8c1.6-5.2,3.1-12.8,4.4-19.5
					c1.6-8.3,2.4-14.4,2.6-18.9l0.5-8.7c0-0.6,0.4-1.1,1-1.4c0.6-0.2,1.2,0,1.6,0.4l26.1,28.6c0.3,0.3,0.4,0.7,0.4,1.1
					s-0.2,0.8-0.5,1.1l-5.3,4.8c-2.8,2.7-6.8,5.7-11,8.8l-1.5,1.1c-1.6,1.1-3.1,2.3-4.5,3.4c-3,2.3-5.8,4.4-8.4,5.9l-6.1,3.7
					C381.3,462.5,381,462.6,380.7,462.6z M392.5,408.6l-0.3,5c-0.2,4.7-1.1,10.9-2.7,19.3c-1.3,6.8-2.8,14.4-4.5,19.8l-1.5,4.9
					l2.6-1.6c2.4-1.4,5.2-3.5,8.1-5.8c1.5-1.1,3-2.3,4.6-3.4l1.4-1.1c4.1-3.1,8-6,10.7-8.6l4.2-3.8L392.5,408.6z"></path></g>
			</g>
		</g>
		<g>
			<g>
				<g id="change2_51"><path fill="#3F4651" d="M360.3,429.7c-0.1,0-0.3,0-0.4,0l-8.2-2.1c-2.5-0.7-5.2-1.4-8.2-2.4c-3.1-1.1-6.2-2.3-9.3-3.5
					c-5.8-2.3-11.7-4.9-16.2-7.1l-7.1-4c-0.5-0.3-0.8-0.9-0.8-1.5s0.5-1.1,1-1.3l4.6-1.7l14.9-7.1l8.4-5.1c0.7-0.4,1.7-0.2,2.1,0.5
					l20.2,32.6c0.3,0.3,0.5,0.7,0.5,1.2C361.9,429,361.2,429.7,360.3,429.7L360.3,429.7z M315.4,409.6l4,2.3
					c4.3,2.1,10.1,4.7,15.9,6.9c3,1.2,6.2,2.4,9.2,3.4c2.8,0.9,5.6,1.6,8,2.3l4.5,1.1l-17.6-28.4l-7.2,4.4L315.4,409.6z"></path></g>
			</g>
			<g>
				<g id="change2_52"><path fill="#3F4651" d="M339.7,483.1c-0.6,0-1.2-0.4-1.4-1l-14-36.1c-0.2-0.6-0.1-1.2,0.4-1.7c0.4-0.4,1.1-0.5,1.7-0.3l8,3.5
					c5,1.9,11.7,4,18.1,5.9c3.4,1,7,2,10.3,2.8l9,1.8l9.1,1.5c0.6,0.1,1.1,0.6,1.3,1.2c0.1,0.6-0.2,1.3-0.7,1.6l-12.5,7.5l-22,10.6
					l-6.9,2.6C340.1,483,339.9,483.1,339.7,483.1z M328.5,448.3l12.1,31.2l5.3-2l21.7-10.4l8.8-5.3l-14.2-2.6
					c-3.5-0.9-7-1.9-10.5-2.9c-6.5-1.9-13.2-4.1-18.4-6L328.5,448.3z"></path></g>
			</g>
			<g>
				<g>
					<g id="change2_53"><path fill="#3F4651" d="M380.7,462.6c-0.1,0-0.2,0-0.3,0l-18.3-3.3c-3.5-0.9-7-1.9-10.5-2.9c-6.5-1.9-13.2-4.1-18.4-6l-8.1-3.5
						c-0.4-0.2-0.7-0.5-0.8-0.9l-14-36.1c-0.2-0.6-0.1-1.3,0.4-1.7c0.5-0.4,1.2-0.5,1.8-0.2l7,3.9c4.3,2.1,10.1,4.7,15.9,6.9
						c3,1.2,6.2,2.4,9.2,3.4c2.8,0.9,5.6,1.6,8,2.3l8.2,2.1c0.4,0.1,0.7,0.3,0.9,0.7l20.2,32.6c0.3,0.3,0.5,0.7,0.5,1.2
						C382.3,461.9,381.4,462.6,380.7,462.6L380.7,462.6z M326.9,444.3l7.4,3.2c5,1.9,11.7,4,18.1,5.9c3.4,1,7,2,10.3,2.8l14.8,2.7
						l-18.3-29.5l-7.6-1.9c-2.5-0.7-5.2-1.4-8.2-2.4c-3.1-1.1-6.2-2.3-9.3-3.5c-5.8-2.3-11.7-4.9-16.2-7.1l-3.3-1.9L326.9,444.3z"></path></g>
				</g>
			</g>
			<g>
				<g id="change2_54"><path fill="#3F4651" d="M325.7,447c-0.2,0-0.4,0-0.7-0.1l-7.7-3.6c-4.4-2.1-10.3-5.1-16.1-9c-4.9-3.1-10.2-6.8-14.6-10
					c-1.5-1.1-3.1-2.3-4.6-3.6l-1.6-1.4c-0.6-0.5-0.7-1.4-0.2-2.1c0.4-0.6,1-0.7,1.6-0.7c0.7-0.1,2.2-0.2,4.1-0.8l10.6-2.7
					c3-0.6,5.8-1.7,8.3-2.6l6.5-2.4c0.8-0.3,1.7,0.1,2,0.9l13.8,35.7c0.2,0.3,0.3,0.6,0.3,1C327.3,446.3,326.6,447,325.7,447
					C325.8,447,325.7,447,325.7,447z M285,419c1.1,1,2.3,1.9,3.5,2.7c4.4,3.2,9.6,6.9,14.4,9.9c5.7,3.8,11.5,6.7,15.8,8.8l4.2,2
					l-12.1-31.1l-5.1,1.9c-2.4,0.9-5.5,2.1-8.7,2.7l-10.4,2.7C286.1,418.7,285.5,418.9,285,419z"></path></g>
			</g>
			<g>
				<g id="change2_55"><path fill="#3F4651" d="M288.5,457.6c-0.7,0-1.4-0.5-1.5-1.3l-7.1-38.1c-0.1-0.6,0.2-1.3,0.8-1.6c0.6-0.3,1.3-0.3,1.8,0.2
					l1.7,1.4c1.4,1.3,2.9,2.4,4.3,3.5c4.4,3.2,9.6,6.9,14.4,9.9c5.7,3.8,11.5,6.7,15.8,8.8l7.7,3.6c0.6,0.3,0.9,0.8,0.9,1.5
					c0,0.6-0.4,1.2-1,1.4l-7.7,2.8c-3.1,1.1-6.9,2.6-10.8,3.4l-12.8,3.3c-1.4,0.4-2.9,0.7-4.5,0.9l-1.6,0.2
					C288.7,457.6,288.6,457.6,288.5,457.6z M283.8,422l6,32.3h0.2c1.5-0.2,2.8-0.5,4.1-0.8l12.9-3.3c3.8-0.8,7.3-2.1,10.5-3.3
					l4.3-1.6l-4.4-2c-4.4-2.1-10.3-5.1-16.1-9c-4.9-3.1-10.2-6.8-14.6-10C285.7,423.5,284.7,422.8,283.8,422z"></path></g>
			</g>
			<g>
				<g id="change2_56"><path fill="#3F4651" d="M295.6,495.7c-0.1,0-0.3,0-0.4-0.1c-0.6-0.2-1-0.6-1.1-1.2l-7.1-38.1c-0.1-0.4,0-0.8,0.3-1.2
					c0.2-0.3,0.6-0.6,1-0.6l1.6-0.3c1.5-0.2,2.8-0.5,4.1-0.8l12.9-3.3c3.8-0.8,7.3-2.1,10.5-3.3l7.7-2.8c0.6-0.2,1.3,0,1.7,0.4
					c0.4,0.5,0.5,1.1,0.3,1.7l-3.7,7.8c-2.1,4.2-5.5,11.2-9.5,17.2c-3.4,5.3-7.5,11.4-11.3,16.7c-1.3,1.9-2.8,3.7-4.2,5.4l-1.6,1.9
					C296.5,495.5,296,495.7,295.6,495.7z M290.3,457.3l6.2,33.3c1.2-1.5,2.4-3,3.6-4.7c3.8-5.3,7.9-11.3,11.3-16.6
					c3.9-5.9,7.3-12.8,9.3-16.9l2.1-4.4l-4.2,1.5c-3.1,1.1-6.9,2.6-10.8,3.4l-12.8,3.3C293.4,456.8,291.9,457.1,290.3,457.3
					L290.3,457.3z"></path></g>
			</g>
			<g>
				<g id="change2_57"><path fill="#3F4651" d="M295.6,495.7c-0.5,0-1.1-0.3-1.3-0.8c-0.3-0.6-0.3-1.3,0.2-1.8l1.6-1.9c1.4-1.6,2.8-3.4,4.1-5.2
					c3.8-5.3,7.9-11.3,11.3-16.6c3.9-5.9,7.3-12.8,9.3-16.9l3.7-7.8c0.3-0.6,0.8-0.8,1.5-0.9c0.6,0,1.2,0.4,1.4,1l14,36.1
					c0.2,0.4,0.1,0.8,0,1.2c-0.2,0.4-0.5,0.7-0.9,0.8l-8.9,3.3c-3.7,1.4-8.3,3-13,4.1l-15.3,3.9c-1.7,0.5-3.4,0.8-5.3,1.1l-1.9,0.3
					C295.8,495.7,295.7,495.7,295.6,495.7z M325.6,449.3l-2.1,4.5C321.4,458,318,465,314,471c-3.4,5.3-7.5,11.4-11.3,16.7
					c-1,1.4-2.1,2.8-3.2,4.2c1-0.2,1.9-0.4,2.8-0.7l15.3-3.9c4.6-1,9.1-2.7,12.7-4l7.5-2.7L325.6,449.3z"></path></g>
			</g>
		</g>
		<g>
			<g>
				<g id="change2_58"><path fill="#3F4651" d="M288.6,457.6C288.6,457.6,288.5,457.6,288.6,457.6c-0.4,0-0.7-0.1-1-0.3l-8.7-6.5
					c-3.8-2.9-8.2-6.3-12.4-10.2c-9.7-9.2-17.6-18.5-17.7-18.6c-0.4-0.4-0.5-1.1-0.2-1.6c0.2-0.5,0.8-0.9,1.3-0.9l15.8-0.8
					c2.4-0.1,4.8-0.6,7-0.9c1.3-0.2,2.6-0.4,3.7-0.6l4.8-0.7c0.8-0.2,1.6,0.4,1.7,1.2l7,37.6c0.1,0.2,0.2,0.5,0.2,0.7
					C290.1,456.9,289.5,457.6,288.6,457.6z M253.2,422.4c2.9,3.3,8.7,9.7,15.4,16c4.1,3.9,8.4,7.1,12.1,10l5.5,4.1l-6.1-32.8
					l-3.4,0.5c-1.1,0.1-2.3,0.3-3.6,0.5c-2.2,0.4-4.8,0.8-7.3,1L253.2,422.4z"></path></g>
			</g>
			<g>
				<g id="change2_59"><path fill="#3F4651" d="M250,500c-0.4,0-0.8-0.2-1.1-0.4c-0.3-0.3-0.5-0.7-0.5-1.1v-38.7c0-0.6,0.4-1.2,0.9-1.4
					c0.6-0.2,1.2-0.1,1.7,0.3c0.1,0.1,9.7,9.3,21,18.2c4.8,3.7,9.7,6.9,14.1,9.7l2.2,1.4l8,4.9c0.6,0.3,0.8,1,0.7,1.6
					c-0.1,0.6-0.6,1.1-1.3,1.2l-7.1,1.1c-1.4,0.2-2.9,0.4-4.5,0.7c-3.4,0.5-7.3,1.2-11.2,1.4L250,500L250,500z M251.5,463.3v33.5
					l21.3-1.1c3.8-0.3,7.6-0.9,10.9-1.4c1.6-0.3,3.2-0.5,4.6-0.7l2.9-0.4l-6.7-4.1c-4.4-2.8-9.5-6-14.3-9.9
					C262.2,473,255.2,466.7,251.5,463.3z"></path></g>
			</g>
			<g>
				<g>
					<g id="change2_60"><path fill="#3F4651" d="M295.7,495.7C295.7,495.7,295.6,495.7,295.7,495.7c-0.4,0-0.6-0.1-0.9-0.2l-10.3-6.3
						c-4.4-2.8-9.5-6-14.3-9.9c-11.5-9-21.1-18.3-21.2-18.4c-0.3-0.3-0.5-0.7-0.5-1.1V421c0-0.6,0.4-1.2,1-1.4
						c0.6-0.2,1.3,0,1.7,0.5c0.1,0.1,7.9,9.3,17.5,18.3c4.1,3.9,8.4,7.1,12.1,10l1.8,1.4l6.9,5c0.3,0.2,0.5,0.6,0.6,1l7,37.6
						c0.1,0.2,0.2,0.5,0.2,0.7C297.2,495,296.5,495.7,295.7,495.7z M251.5,459.1c2.1,2,10.6,10,20.5,17.8c4.8,3.7,9.7,6.9,14.1,9.7
						l7.3,4.5l-6.3-34.1l-8.2-6.1c-3.8-2.9-8.2-6.3-12.4-10.2c-6.3-6-11.8-12-15-15.5V459.1z"></path></g>
				</g>
			</g>
			<g>
				<g id="change2_61"><path fill="#3F4651" d="M250,461.3c-0.4,0-0.8-0.2-1.1-0.5c-0.1-0.1-9.9-10.4-17.7-20.4c-3.5-4.6-6.7-9.7-9.1-13.5l-0.9-1.5
					l-4-6.7c-0.3-0.5-0.3-1.1,0.1-1.6c0.3-0.5,0.9-0.7,1.5-0.7l4.9,0.7c1.1,0.1,2.3,0.3,3.6,0.6c2.2,0.4,4.6,0.8,7,0.9l15.8,0.8
					c0.8,0,1.5,0.7,1.5,1.5v38.7c0,0.6-0.4,1.2-1,1.4C250.4,461.3,250.2,461.3,250,461.3z M221.5,420l3.2,5.4
					c2.4,3.9,5.5,8.8,8.9,13.2c5.2,6.7,11.4,13.6,14.8,17.3v-33.4l-14.4-0.7c-2.6-0.2-5.1-0.6-7.4-1c-1.3-0.2-2.4-0.4-3.5-0.5
					L221.5,420z"></path></g>
			</g>
			<g>
				<g id="change2_62"><path fill="#3F4651" d="M250.1,461.3C250.1,461.3,250,461.3,250.1,461.3c-0.1,0-0.1,0-0.2,0l-19.4-1c-3.2-0.2-6.4-0.7-9.2-1.2
					c-1.5-0.2-2.9-0.5-4.1-0.6l-6-0.9c-0.4-0.1-0.8-0.3-1-0.6c-0.2-0.3-0.3-0.8-0.3-1.2l7.1-38.1c0.1-0.6,0.6-1.1,1.3-1.2
					c0.6-0.1,1.3,0.2,1.6,0.7l4.8,8.1c2.4,3.9,5.5,8.8,8.9,13.2c7,9,15.7,18.2,17.2,19.9c0.5,0.3,0.8,0.8,0.8,1.3
					C251.6,460.6,250.9,461.3,250.1,461.3z M213.3,454.8l4.4,0.7c1.2,0.2,2.6,0.4,4.2,0.6c2.7,0.4,5.8,1,8.9,1.2l15.5,0.8
					c-3.5-3.7-9.7-10.7-15.1-17.6c-3.5-4.6-6.7-9.7-9.1-13.5l-2.8-4.7L213.3,454.8z"></path></g>
			</g>
			<g>
				<g id="change2_63"><path fill="#3F4651" d="M204.4,495.7c-0.3,0-0.6-0.1-0.9-0.3c-0.5-0.3-0.8-1-0.6-1.6l7.1-38.1c0.2-0.8,1-1.3,1.8-1.2l6,0.9
					c1.2,0.2,2.6,0.4,4.2,0.6c2.7,0.4,5.8,1,8.9,1.2l19.3,1c0.6,0,1.1,0.4,1.4,1c0.2,0.6,0.1,1.2-0.4,1.6
					c-0.1,0.1-9.8,9.4-21.2,18.4c-4.9,3.8-9.9,7-14.3,9.9l-2.2,1.4l-8.1,4.9C205,495.6,204.7,495.7,204.4,495.7z M212.7,457.8
					l-6.2,33.2l7.3-4.5c4.4-2.8,9.3-5.9,14.1-9.7c7.8-6.1,14.7-12.4,18.4-15.7l-15.7-0.8c-3.2-0.2-6.4-0.7-9.2-1.2
					c-1.5-0.2-2.9-0.5-4.1-0.6L212.7,457.8z"></path></g>
			</g>
			<g>
				<g id="change2_64"><path fill="#3F4651" d="M250,500C250,500,249.9,500,250,500l-23-1.1c-4-0.3-7.8-0.9-11.3-1.4c-1.6-0.3-3.1-0.5-4.5-0.7l-7.1-1.1
					c-0.6-0.1-1.1-0.6-1.3-1.2c-0.1-0.6,0.2-1.3,0.7-1.6l10.2-6.3c4.4-2.8,9.3-5.9,14.1-9.7c11.3-8.9,20.9-18.1,21-18.2
					c0.4-0.4,1.1-0.5,1.7-0.3c0.6,0.2,0.9,0.8,0.9,1.4v38.7c0,0.4-0.2,0.8-0.5,1.1C250.8,499.9,250.4,500,250,500z M208.8,493.3
					l2.9,0.5c1.4,0.2,2.9,0.4,4.5,0.7c3.4,0.5,7.2,1.1,11,1.4l21.2,1.1v-33.5c-3.6,3.4-10.7,9.7-18.6,16c-4.9,3.8-9.9,7-14.3,9.9
					L208.8,493.3z"></path></g>
			</g>
		</g>
		<g>
			<g>
				<g id="change2_65"><path fill="#3F4651" d="M211.5,457.6c-0.5,0-1-0.2-1.3-0.7l-1.3-1.9c-1.2-1.7-2.3-3.4-3.4-5.3c-3-5-6.3-10.9-8.9-16.1
					c-3.2-5.9-5.7-12.7-7.1-16.4l-2.6-7.4c-0.2-0.6-0.1-1.2,0.4-1.6c0.4-0.4,1.1-0.5,1.6-0.4l6.5,2.4c2.5,0.9,5.3,2,8.2,2.6
					l10.6,2.7c1.9,0.6,3.4,0.7,4.1,0.8c0.6,0.1,1.1,0.1,1.6,0.7c0.3,0.3,0.4,0.8,0.3,1.2l-7.1,38.1c-0.1,0.6-0.6,1.1-1.2,1.2
					C211.7,457.6,211.6,457.6,211.5,457.6z M190.8,411.9l1.5,4.3c1.3,3.6,3.8,10.3,6.9,16c2.6,5.2,5.9,11,8.9,16
					c0.8,1.4,1.6,2.7,2.5,4l6.1-32.9c-1-0.1-2.1-0.4-3.5-0.8l-10.4-2.7c-3.1-0.6-6.2-1.8-8.6-2.7L190.8,411.9z"></path></g>
			</g>
			<g>
				<g id="change2_66"><path fill="#3F4651" d="M204.4,495.7c-0.1,0-0.2,0-0.2,0l-1.9-0.3c-1.9-0.3-3.6-0.6-5.3-1.1l-15.3-3.9c-4.7-1.1-9.3-2.7-13-4.1
					l-8.9-3.3c-0.4-0.1-0.7-0.4-0.9-0.8s-0.2-0.8,0-1.2l14-36.1c0.2-0.6,0.8-1,1.4-1c0.7,0.1,1.2,0.3,1.5,0.9l3.7,7.8
					c2.1,4.4,5.4,11,9.3,16.8c3.4,5.3,7.5,11.3,11.3,16.6c1.3,1.9,2.7,3.6,4.1,5.2l1.4,1.7c0.4,0.3,0.7,0.7,0.7,1.3
					C206,495,205.4,495.8,204.4,495.7L204.4,495.7z M162.3,480.6l7.5,2.7c3.6,1.3,8.1,3,12.6,4l15.3,3.9c1,0.3,2,0.5,2.8,0.7
					c-1.1-1.3-2.1-2.7-3.2-4.2c-3.8-5.3-8-11.4-11.3-16.7c-4-6-7.3-12.7-9.5-17.2l-2.1-4.6L162.3,480.6z"></path></g>
			</g>
			<g>
				<g>
					<g id="change2_67"><path fill="#3F4651" d="M204.4,495.7c-0.5,0-0.9-0.2-1.2-0.6l-1.6-1.9c-1.4-1.7-2.9-3.5-4.2-5.4c-3.8-5.3-8-11.4-11.3-16.7
						c-4-6-7.3-12.7-9.5-17.2l-3.7-7.8c-0.2-0.4-0.2-0.8,0-1.2l14-36.1c0.2-0.6,0.8-1,1.4-1l0,0c0.6,0,1.2,0.4,1.4,1l2.6,7.4
						c1.3,3.6,3.8,10.3,6.9,16c2.6,5.2,5.9,11,8.9,16c1,1.8,2.1,3.4,3.3,5.1l1.3,1.9c0.2,0.3,0.3,0.8,0.3,1.2l-7.1,38.1
						c-0.1,0.6-0.5,1.1-1.1,1.2C204.7,495.6,204.5,495.7,204.4,495.7z M176,445.4l3.4,7.2c2.1,4.4,5.4,11,9.3,16.8
						c3.4,5.3,7.5,11.3,11.3,16.6c1.2,1.7,2.4,3.2,3.6,4.7l6.4-34.2l-1-1.4c-1.2-1.7-2.3-3.4-3.4-5.3c-3-5-6.3-10.9-8.9-16.1
						c-3.2-5.9-5.7-12.7-7.1-16.4l-1.2-3.5L176,445.4z"></path></g>
				</g>
			</g>
			<g>
				<g id="change2_68"><path fill="#3F4651" d="M174.3,447c-0.6,0-1.2-0.4-1.4-0.9l-3.3-7.7c-1.9-5.1-4.1-11.7-5.8-17.7c-0.9-3.1-1.7-6.2-2.4-9.1
					c-0.6-3.1-1.1-5.9-1.5-8.3l-1.2-7.8c-0.1-0.6,0.2-1.2,0.7-1.5s1.1-0.3,1.7,0l8.5,5.2l14.9,7.1l4.5,1.6c0.4,0.1,0.7,0.4,0.9,0.8
					s0.2,0.8,0,1.2l-14,36.1C175.5,446.6,174.9,447,174.3,447L174.3,447z M162.1,398.3l0.7,4.5c0.4,2.3,0.9,5.1,1.5,8.1
					c0.7,2.8,1.5,5.8,2.4,8.9c1.7,5.9,3.8,12.4,5.7,17.4l1.8,4.1l12.1-31.1l-3.1-1.1l-15.1-7.3L162.1,398.3z"></path></g>
			</g>
			<g>
				<g id="change2_69"><path fill="#3F4651" d="M174.3,447c-0.2,0-0.4,0-0.5-0.1l-5.7-2.1l-18.6-8.9l-10.6-6.4c-0.3-0.2-0.6-0.6-0.7-1
					c-0.1-0.4,0-0.8,0.2-1.2l20.4-32.9c0.3-0.5,1-0.8,1.6-0.7c0.6,0.1,1.1,0.6,1.2,1.3l1.2,7.8c0.4,2.3,0.9,5.1,1.5,8.1
					c0.7,2.8,1.5,5.8,2.4,8.9c1.7,5.9,3.8,12.4,5.7,17.4l3.1,7.2c0.2,0.3,0.4,0.6,0.4,1C175.9,446.3,175.2,447,174.3,447L174.3,447z
					 M141.8,427.6l9.1,5.5l18.3,8.8l2.2,0.8l-1.9-4.4c-1.9-5.1-4.1-11.7-5.8-17.7c-0.9-3.1-1.7-6.2-2.4-9.1
					c-0.6-3.1-1.1-5.9-1.5-8.3l-0.6-3.7L141.8,427.6z"></path></g>
			</g>
			<g>
				<g id="change2_70"><path fill="#3F4651" d="M119.3,462.6c-0.5,0-1-0.3-1.3-0.7c-0.3-0.5-0.3-1.2,0-1.7l20.4-32.9c0.5-0.7,1.4-0.9,2.1-0.5l10.5,6.4
					l18.3,8.8l5.6,2c0.6,0.2,1,0.8,1,1.4s-0.3,1.2-0.9,1.5l-8,3.5c-5.2,1.9-11.9,4.1-18.5,6.1c-3.5,1-7,2-10.4,2.9l-9.2,1.8
					l-9.2,1.5C119.5,462.6,119.4,462.6,119.3,462.6z M140.2,430.3L122.4,459l14.9-2.7c3.3-0.8,6.8-1.8,10.2-2.8
					c6.5-1.9,13.1-4.1,18.2-6l4.4-1.9l-2.1-0.8l-18.6-8.9L140.2,430.3z"></path></g>
			</g>
			<g>
				<g id="change2_71"><path fill="#3F4651" d="M160.3,483.1c-0.2,0-0.4,0-0.5-0.1l-6.7-2.5l-22-10.5l-12.6-7.6c-0.5-0.3-0.8-1-0.7-1.6
					c0.1-0.6,0.6-1.1,1.3-1.2l18.2-3.3c3.3-0.8,6.8-1.8,10.2-2.8c6.5-1.9,13.1-4.1,18.2-6l8-3.5c0.6-0.2,1.2-0.1,1.7,0.3
					s0.6,1.1,0.4,1.7l-14,36.1C161.5,482.7,160.9,483.1,160.3,483.1z M123.6,461.9l10.5,6.1l20.1,9.6l5.2,1.9l12.1-31.2l-4.6,2
					c-5.2,1.9-11.9,4.1-18.5,6.1c-3.5,1-7,2-10.4,2.9L123.6,461.9z"></path></g>
			</g>
		</g>
		<g>
			<g>
				<g id="change2_72"><path fill="#3F4651" d="M139.7,429.7c-0.1,0-0.2,0-0.3,0c-0.6-0.1-1.1-0.6-1.2-1.2l-1.8-8.2c-1.1-4.8-1.8-11.7-2.5-18.4
					c-0.7-7.8-1-13.5-0.8-17.8l0.3-7.8l0,0l0,0l0,0c0-0.3,0.1-0.7,0.4-0.9c0.4-0.5,1.1-0.7,1.7-0.5c0.5,0.2,0.8,0.6,0.9,1
					c1.7,1.9,20.9,16.5,23.8,17.9c0.3,0,0.5,0.1,0.8,0.2c0.7,0.5,0.9,1.4,0.5,2.1L141,429C140.7,429.4,140.2,429.7,139.7,429.7z
					 M136.4,379.7l-0.2,4.5c-0.2,4.3,0,9.8,0.8,17.4c0.7,6.5,1.4,13.3,2.4,18l1,4.5l17.6-28.3C153.1,392.9,141.7,384.3,136.4,379.7z
					"></path></g>
			</g>
			<g>
				<g id="change2_73"><path fill="#3F4651" d="M119.4,462.6C119.3,462.6,119.3,462.6,119.4,462.6c-0.4,0-0.6-0.1-0.9-0.2l-6.1-3.8
					c-2.5-1.5-5.4-3.7-8.4-5.9c-1.5-1.1-3-2.3-4.5-3.4l-1.5-1.1c-4.2-3.1-8.1-6.1-10.9-8.8l-5.3-4.8c-0.3-0.3-0.5-0.7-0.5-1.1
					s0.1-0.8,0.4-1.1l26.1-28.6c0.4-0.5,1.1-0.6,1.6-0.4c0.6,0.2,1,0.7,1,1.4l0.5,8.7c0.2,4.6,1.1,10.6,2.6,19
					c1.3,6.7,2.8,14.3,4.4,19.4l2.6,8.4c0.2,0.3,0.3,0.6,0.3,0.9C120.9,461.9,120.2,462.6,119.4,462.6z M84.9,433.3l4.2,3.8
					c2.7,2.7,6.6,5.5,10.7,8.6l1.5,1.1c1.5,1.1,3.1,2.3,4.5,3.4c2.9,2.2,5.7,4.3,8.1,5.8l2.6,1.6l-1.5-4.9c-1.7-5.3-3.2-13-4.5-19.8
					c-1.6-8.5-2.5-14.7-2.7-19.4l-0.3-5L84.9,433.3z"></path></g>
			</g>
			<g>
				<g>
					<g id="change2_74"><path fill="#3F4651" d="M119.3,462.6c-0.1,0-0.1,0-0.2,0c-0.6-0.1-1.1-0.5-1.3-1.1l-2.8-8.8c-1.7-5.3-3.2-13-4.5-19.8
						c-1.6-8.5-2.5-14.7-2.7-19.4l-0.5-8.6c0-0.4,0.1-0.8,0.4-1.1l26.1-28.6c0.4-0.5,1.1-0.6,1.7-0.4c0.6,0.2,1,0.8,1,1.5l-0.3,7.9
						c-0.2,4.3,0,9.8,0.8,17.4c0.7,6.5,1.4,13.3,2.4,18l1.8,8.2c0.1,0.4,0,0.8-0.2,1.1l-20.4,32.9
						C120.3,462.3,119.8,462.6,119.3,462.6z M110.4,405.4l0.5,8c0.2,4.6,1.1,10.6,2.6,19c1.3,6.7,2.8,14.3,4.4,19.4l1.8,5.6
						l18.3-29.5l-1.7-7.6c-1.1-4.8-1.8-11.7-2.5-18.4c-0.7-7.8-1-13.5-0.8-17.8l0.1-3.7L110.4,405.4z"></path></g>
				</g>
			</g>
			<g>
				<g id="change2_75"><path fill="#3F4651" d="M108.9,406.4c-0.2,0-0.4,0-0.5-0.1c-0.6-0.2-1-0.8-1-1.4l-0.3-8.4c-0.2-5,0.3-12.2,0.9-18.5
					c0.9-12.9,4.2-25.3,4.3-25.4c0.2-0.6,0.6-1,1.2-1.1s1.2,0.2,1.5,0.6c0,0.1,4.5,6.5,9.9,11.9c0.9,0.9,1.7,1.9,2.5,2.8
					c1.7,1.9,3.3,3.8,4.8,4.9l3.8,3.4c0.3,0.3,0.5,0.7,0.5,1.1s-0.1,0.8-0.4,1.1L110,405.9C109.7,406.2,109.3,406.4,108.9,406.4z
					 M114.4,356.5c-1,4.5-2.8,13-3.4,21.7c-0.6,6.2-1.1,13.3-0.9,18.1l0.2,4.7l22.5-24.7l-2.5-2.3c-1.6-1.3-3.3-3.2-5.2-5.2
					c-0.8-0.9-1.6-1.8-2.4-2.7C119.2,362.7,116.3,358.9,114.4,356.5z"></path></g>
			</g>
			<g>
				<g id="change2_76"><path fill="#3F4651" d="M108.9,406.4c-0.4,0-0.7-0.1-1-0.4l-4.5-4.1c-2-1.7-4.2-4.1-6.5-6.6c-0.9-1-1.8-2.1-2.8-3.1
					c-6.8-6.9-12.3-14.7-12.5-15c-0.5-0.7-0.3-1.6,0.3-2.1l30.9-23.4c0.5-0.4,1.2-0.4,1.8,0c0.5,0.4,0.8,1,0.6,1.7
					c0,0.1-3.3,12.3-4.2,24.9c-0.6,6.2-1.1,13.3-0.9,18.1l0.3,8c0.1,0.2,0.1,0.3,0.1,0.5C110.5,405.7,109.9,406.3,108.9,406.4
					L108.9,406.4z M84.9,376.6c1.8,2.5,6.3,8.3,11.3,13.5c1,1.1,1.9,2.1,2.9,3.1c2.2,2.5,4.3,4.8,6.2,6.4l1.8,1.7l-0.2-4.8
					c-0.2-5,0.3-12.2,0.9-18.5c0.6-8.3,2.2-16.5,3.2-21.2L84.9,376.6z"></path></g>
			</g>
			<g>
				<g id="change2_77"><path fill="#3F4651" d="M97.4,406.7c-4.7,0-10.1-0.4-16.6-1c-14.4-1-29-4.6-29.2-4.6c-0.6-0.1-1-0.6-1.1-1.2s0.1-1.2,0.6-1.5
					L81.9,375c0.3-0.3,0.7-0.4,1.2-0.3c0.4,0.1,0.8,0.3,1,0.6c0.1,0.1,5.6,7.9,12.2,14.7c1,1.1,1.9,2.1,2.9,3.1
					c2.2,2.5,4.3,4.8,6.2,6.4l4.5,4.1c0.5,0.4,0.6,1.1,0.4,1.7s-0.8,1-1.4,1l-8.7,0.3C99.3,406.7,98.4,406.7,97.4,406.7z
					 M55.5,398.9c5,1.1,15.3,3.1,25.5,3.8c7.8,0.7,14,1.2,19.1,0.9l4.9-0.2l-1.7-1.5c-2-1.7-4.2-4.1-6.5-6.6c-0.9-1-1.8-2.1-2.8-3.1
					c-5.2-5.3-9.7-11.2-11.6-13.8L55.5,398.9z"></path></g>
			</g>
			<g>
				<g id="change2_78"><path fill="#3F4651" d="M82.8,435c-0.4,0-0.8-0.1-1-0.4l-5.3-4.8c-2.4-2.1-5.1-5-7.9-8.1c-1-1.1-2-2.2-3.1-3.4
					c-8-8.2-14.7-17.7-14.8-17.8c-0.4-0.5-0.4-1.2,0-1.8c0.4-0.5,1-0.8,1.6-0.6c0.1,0,14.5,3.6,28.7,4.5c6.5,0.6,11.8,1,16.4,1l0,0
					c0.9,0,1.8,0,2.7-0.1l8.7-0.3c0.6,0,1.2,0.3,1.5,0.9s0.2,1.2-0.3,1.7l-26.1,28.6C83.6,434.8,83.2,435,82.8,435L82.8,435z
					 M55.6,402c2.6,3.4,7.1,9,12,14.1c1.1,1.1,2.1,2.3,3.1,3.4c2.7,3,5.3,5.9,7.7,7.8l4.2,3.8l22.6-24.8l-5,0.2
					c-0.9,0-1.8,0.1-2.8,0.1l0,0c-4.7,0-10.1-0.4-16.6-1C70.9,405.1,61,403.2,55.6,402z"></path></g>
			</g>
		</g>
		<g>
			<g>
				<g id="change2_79"><path fill="#3F4651" d="M82.8,377.8c-0.3,0-0.5-0.1-0.8-0.2c-0.5-0.3-0.8-0.9-0.7-1.6l1.3-8.4c0.7-4.7,2.2-11.3,4.2-18
					c2.3-7.7,4-12.9,5.6-16.8l3.2-7.3l0,0v-0.1l0,0c0.2-0.3,0.4-0.6,0.7-0.7c0.6-0.3,1.3-0.2,1.8,0.2c0.4,0.4,0.6,0.9,0.5,1.4
					c0.9,2.6,13.8,23,15.9,25.2c0.2,0.1,0.3,0.2,0.5,0.4c0.5,0.7,0.4,1.6-0.3,2.1l-30.9,23.4C83.5,377.7,83.1,377.8,82.8,377.8z
					 M97.1,330l-1.8,4.1c-1.5,3.8-3.2,8.9-5.5,16.5c-2,6.6-3.5,13-4.1,17.6l-0.7,4.6l26.6-20.1C108.7,348.8,100.5,336.5,97.1,330z"></path></g>
			</g>
			<g>
				<g id="change2_80"><path fill="#3F4651" d="M51.9,401.2c-0.5,0-0.9-0.2-1.2-0.6l-4.3-5.7c-2.3-2.9-5.1-7.1-8.8-13.3c-0.9-1.5-1.9-3.1-2.8-4.6
					c-2-3.3-3.9-6.4-5.3-9.1l-3.2-6.5c-0.4-0.8-0.1-1.7,0.7-2.1L61.7,342c0.5-0.3,1.2-0.2,1.7,0.2c0.5,0.4,0.7,1.1,0.5,1.6l-2.7,8.3
					c-1.6,5.3-3.1,12.8-4.3,18.6c-1.5,7.5-2.5,14.6-2.8,19.6l-0.6,9.3c0,0.6-0.5,1.2-1.1,1.4C52.2,401.1,52.1,401.2,51.9,401.2z
					 M29.8,361.4l2.5,5.1c1.3,2.5,3.2,5.6,5.2,8.8c0.9,1.5,1.9,3.1,2.8,4.6c3.6,6,6.3,10.2,8.6,13l1.8,2.5l0.4-5.1
					c0.3-5.1,1.3-12.4,2.9-20c1.2-5.9,2.7-13.4,4.3-18.9l1.6-4.9L29.8,361.4z"></path></g>
			</g>
			<g>
				<g>
					<g id="change2_81"><path fill="#3F4651" d="M51.9,401.2c-0.3,0-0.5-0.1-0.7-0.2c-0.5-0.3-0.8-0.9-0.8-1.5l0.6-9.3c0.3-5.1,1.3-12.4,2.9-20
						c1.2-5.9,2.7-13.4,4.3-18.9l2.7-8.3c0.1-0.4,0.4-0.7,0.8-0.9l34.6-17.3c0.6-0.3,1.3-0.2,1.8,0.3c0.5,0.4,0.6,1.1,0.3,1.7
						l-3.2,7.3c-1.5,3.8-3.2,8.9-5.5,16.5c-2,6.6-3.5,13-4.1,17.6l-1.3,8.4c-0.1,0.4-0.3,0.8-0.6,1L52.8,401
						C52.6,401.1,52.3,401.2,51.9,401.2z M63.7,344.5l-2.5,7.7c-1.6,5.3-3.1,12.8-4.3,18.6c-1.5,7.5-2.5,14.6-2.8,19.6l-0.4,5.9
						l27.7-20.9l1.2-7.7c0.7-4.7,2.2-11.3,4.2-18c2.3-7.7,4-12.9,5.6-16.8l1.5-3.5L63.7,344.5z"></path></g>
				</g>
			</g>
			<g>
				<g id="change2_82"><path fill="#3F4651" d="M62.4,345c-0.4,0-0.7-0.1-1-0.4c-0.5-0.4-0.6-1.1-0.4-1.7l6-15.9c1.1-2.5,2.4-5.1,3.7-7.7l0.7-1.3
					c3.6-7,6.9-12.7,8.6-15.5c2.6-4.1,4.5-6.6,4.6-6.7c0.4-0.5,1-0.7,1.6-0.6s1,0.6,1.2,1.2c0,0,0.4,1.9,1.2,4.6l3.7,10.1
					c0.3,0.7,0.5,1.4,0.8,2.1c0.4,1.1,0.8,2.2,1.2,3.2l4.4,8.9c0.4,0.8,0.1,1.7-0.7,2.1l-34.6,17.3C62.9,344.9,62.6,345,62.4,345z
					 M85,300.4c-0.7,1-1.6,2.3-2.5,3.8c-1.6,2.7-4.9,8.3-8.5,15.2l-0.7,1.3c-1.3,2.5-2.6,5.1-3.6,7.4l-4.6,12.2L95,325.4l-3.7-7.6
					c-0.5-1.1-0.9-2.3-1.3-3.5c-0.2-0.7-0.5-1.4-0.7-2.1L85.5,302C85.3,301.5,85.1,300.9,85,300.4z"></path></g>
			</g>
			<g>
				<g id="change2_83"><path fill="#3F4651" d="M62.4,345c-0.6,0-1.1-0.3-1.4-0.9l-5.3-11c-0.6-1.4-1.2-2.9-1.7-4.4c-0.3-0.8-0.6-1.6-0.8-2.3l-4.6-12.5
					c-1.1-3.6-1.6-5.9-1.6-6c-0.2-0.8,0.3-1.6,1.1-1.8l37.2-10.6c0.6-0.2,1.3,0.1,1.7,0.6c0.4,0.5,0.4,1.3,0,1.8
					c0,0-1.9,2.6-4.4,6.5c-1.6,2.7-4.9,8.3-8.5,15.2l-0.7,1.3c-1.3,2.5-2.6,5.1-3.6,7.4l-3.1,7.8l-2.8,8
					C63.6,344.5,63.1,344.9,62.4,345C62.5,345,62.4,345,62.4,345z M50.3,308.4c0.3,1,0.7,2.5,1.2,4.3l4.6,12.4
					c0.3,0.8,0.6,1.6,0.9,2.4c0.5,1.4,1,2.9,1.6,4.2l3.7,7.7L67,327c1.1-2.5,2.4-5.1,3.7-7.7l0.7-1.3c3.6-7,6.9-12.7,8.6-15.5
					c0.7-1.2,1.4-2.2,2-3.1L50.3,308.4z"></path></g>
			</g>
			<g>
				<g id="change2_84"><path fill="#3F4651" d="M62.4,345c-0.2,0-0.3,0-0.5-0.1l-10.2-3.7l-6.4-2.5c-2.6-1.1-5.2-2.4-7.8-3.7l-1.6-0.8
					c-5.7-2.9-12.1-6.4-17.8-9.7c-4.7-2.9-7.7-5.1-7.8-5.2c-0.5-0.3-0.7-0.9-0.6-1.5s0.5-1,1.1-1.2L48,305.9
					c0.4-0.1,0.8-0.1,1.2,0.2c0.4,0.2,0.6,0.6,0.7,1c0,0,0.5,2.3,1.6,5.7l4.6,12.4c0.3,0.8,0.6,1.6,0.9,2.4c0.5,1.4,1,2.9,1.6,4.2
					l5.1,10.6c0.3,0.3,0.4,0.7,0.4,1.1C64,344.3,63.4,344.9,62.4,345L62.4,345z M14.7,318.5c1.3,0.9,3,2,4.9,3.2
					c5.6,3.3,12,6.8,17.6,9.6l1.6,0.8c2.6,1.3,5.1,2.6,7.6,3.6l13,4.9l-3.7-7.7c-0.6-1.4-1.2-2.9-1.7-4.4c-0.3-0.8-0.6-1.6-0.8-2.3
					l-4.6-12.5c-0.6-1.9-1-3.4-1.3-4.4L14.7,318.5z"></path></g>
			</g>
			<g>
				<g id="change2_85"><path fill="#3F4651" d="M27.8,362.2c-0.2,0-0.3,0-0.5-0.1c-0.4-0.1-0.7-0.4-0.9-0.8l-6.3-13.1c-0.8-1.7-1.4-3.5-2.1-5.3
					c-0.3-0.9-0.6-1.8-1-2.7l-5.4-14.9c-1.3-4.2-1.9-7-2-7.1c-0.1-0.6,0.1-1.3,0.7-1.6c0.5-0.3,1.2-0.3,1.8,0c0,0,3,2.2,7.6,5
					c5.6,3.3,12,6.8,17.6,9.6l1.6,0.8c2.6,1.3,5.1,2.6,7.6,3.6l8.4,3.3l8.1,2.9c0.6,0.2,1,0.7,1,1.4c0,0.6-0.3,1.2-0.9,1.5L28.5,362
					C28.2,362.2,28,362.2,27.8,362.2z M13.7,321.6c0.2,0.8,0.5,1.8,0.8,2.8l5.4,14.8c0.3,0.9,0.7,1.8,1,2.7c0.6,1.8,1.3,3.5,2,5.1
					l5.6,11.7l30-15l-6.9-2.5l-6.3-2.5c-2.6-1.1-5.2-2.4-7.8-3.7l-1.6-0.8c-5.7-2.9-12.1-6.4-17.8-9.7
					C16.4,323.3,14.9,322.4,13.7,321.6z"></path></g>
			</g>
		</g>
		<g>
			<g>
				<g id="change2_86"><path fill="#3F4651" d="M48.4,308.9c-0.5,0-0.9-0.2-1.2-0.6c-0.4-0.5-0.4-1.2-0.1-1.7l6.1-10.1c2.4-3.8,5.1-8.2,8.6-12.4
					c4.9-6.2,9.3-11.2,11.4-13.6c2.9-3.3,5.2-5.5,5.5-5.7l0,0l0,0l0,0c0.2-0.2,0.5-0.3,0.8-0.4c0.7-0.1,1.3,0.3,1.6,0.9
					c0.2,0.3,0.2,0.7,0.1,1c0,0.8,0.5,3.5,0.9,6.1s0.9,5.8,1.4,9c0.2,2.5,0.9,4.9,1.5,7c0.3,1.2,0.7,2.4,0.9,3.4l1.2,4.7
					c0.2,0.8-0.3,1.6-1.1,1.9L48.8,309C48.7,308.9,48.5,308.9,48.4,308.9z M78.6,269.2c-0.9,0.9-1.9,2-3.1,3.3
					c-2.2,2.4-6.5,7.3-11.3,13.5c-3.4,4.2-6.1,8.4-8.4,12.1l-4.1,6.7l32.1-9.1l-0.8-3.3c-0.2-1-0.5-2.1-0.9-3.3
					c-0.6-2.3-1.4-4.8-1.6-7.5c-0.4-3.1-0.9-6.2-1.3-8.8C78.9,271.3,78.7,270.1,78.6,269.2z"></path></g>
			</g>
			<g>
				<g id="change2_87"><path fill="#3F4651" d="M11.2,319.5c0,0-0.1,0-0.2,0c-0.6-0.1-1.2-0.5-1.3-1.1l-1.8-7c-0.3-1.4-0.7-2.9-1.1-4.4
					c-0.9-3.4-1.9-7.2-2.4-11.2L2,280.2c-0.7-4.3-0.8-7.2-0.8-7.3c0-0.8,0.6-1.5,1.4-1.6l38.6-3.5c0.6-0.1,1.2,0.3,1.5,0.8
					c0.3,0.6,0.2,1.3-0.2,1.7c0,0-2.3,2.6-5.2,6.6c-2.1,2.9-6.4,8.8-11,15.9c-3.2,4.8-5.7,9.6-7.9,13.9c-0.6,1.2-1.2,2.3-1.8,3.4
					l-4,8.4C12.3,319.2,11.7,319.5,11.2,319.5z M4.3,274.3c0.1,1.2,0.3,3.1,0.7,5.5l2.4,15.6c0.4,3.8,1.4,7.5,2.3,10.8
					c0.4,1.6,0.8,3.1,1.1,4.5l0.7,2.8l2.2-4.7c0.6-1.1,1.2-2.3,1.8-3.4c2.2-4.4,4.7-9.3,8-14.2c4.6-7.2,8.9-13.1,11.1-16
					c1.1-1.5,2.1-2.9,3-3.9L4.3,274.3z"></path></g>
			</g>
			<g>
				<g>
					<g id="change2_88"><path fill="#3F4651" d="M11.2,319.5c-0.4,0-0.9-0.2-1.2-0.5c-0.4-0.5-0.5-1.1-0.2-1.7l4.1-8.4c0.6-1.1,1.2-2.3,1.8-3.4
						c2.2-4.4,4.7-9.3,8-14.2c4.6-7.2,8.9-13.1,11.1-16c2.9-4.1,5.3-6.7,5.4-6.8c0.3-0.3,0.6-0.5,1-0.5l38.6-3.5
						c0.6-0.1,1.3,0.3,1.5,0.9c0.3,0.6,0.1,1.3-0.4,1.8c0,0-2.4,2.2-5.3,5.5c-2.2,2.4-6.5,7.3-11.3,13.5c-3.4,4.2-6.1,8.4-8.4,12.1
						l-1.7,2.8l-4.3,7.3c-0.2,0.3-0.5,0.6-0.9,0.7l-37.2,10.6C11.4,319.5,11.3,319.5,11.2,319.5z M42,270.8
						c-0.8,0.9-2.6,3.1-4.8,6.1c-2.1,2.9-6.4,8.8-11,15.9c-3.2,4.8-5.7,9.6-7.9,13.9c-0.6,1.2-1.2,2.3-1.8,3.4l-2.6,5.3l33.4-9.5
						l5.8-9.6c2.4-3.8,5.1-8.2,8.6-12.4c4.9-6.2,9.3-11.2,11.4-13.6c0.9-1,1.7-1.9,2.4-2.7L42,270.8z"></path></g>
				</g>
			</g>
			<g>
				<g id="change2_89"><path fill="#3F4651" d="M41.2,270.9c-0.6,0-1.1-0.3-1.4-0.8c-0.3-0.6-0.2-1.2,0.2-1.7c0.1-0.1,9.3-10.8,18.5-19.5
					c10.2-8.9,20.3-15.9,20.4-16c0.5-0.3,1.1-0.4,1.6-0.1c0.5,0.3,0.8,0.8,0.8,1.4L80.5,250l0.8,15.7c0,0.8-0.6,1.5-1.4,1.6
					l-38.6,3.5C41.3,270.9,41.3,270.9,41.2,270.9z M78.1,237.3c-3.6,2.6-10.5,7.8-17.5,13.9c-6.1,5.8-12.3,12.5-15.7,16.3l33.2-3
					l-0.7-14.3L78.1,237.3z"></path></g>
			</g>
			<g>
				<g id="change2_90"><path fill="#3F4651" d="M41.2,270.9c-0.2,0-0.3,0-0.5-0.1c-0.6-0.2-1-0.8-1-1.4l-1-19.4l1-19.5c0-0.4,0.2-0.8,0.5-1.1
					s0.8-0.4,1.1-0.4l38.6,3.5c0.7,0.1,1.2,0.5,1.4,1.1c0.2,0.6-0.1,1.3-0.6,1.7c-0.1,0.1-10,7-20,15.7c-9,8.5-18.1,19.1-18.2,19.2
					C42.1,270.7,41.7,270.9,41.2,270.9z M42.7,232.3l-0.9,17.8l0.8,15.4c3.4-3.8,9.7-10.7,16-16.6c6.6-5.8,13.2-10.7,17-13.5
					L42.7,232.3z"></path></g>
			</g>
			<g>
				<g id="change2_91"><path fill="#3F4651" d="M41.2,270.9c-0.4,0-0.7-0.1-1-0.4c-0.1-0.1-10.3-8.9-20.4-19.5c-9.2-10.4-18.3-22.9-18.4-23
					c-0.4-0.5-0.4-1.1-0.1-1.7c0.3-0.5,0.9-0.8,1.5-0.8l38.6,3.5c0.8,0.1,1.4,0.8,1.4,1.6l-1,19.4l1,18.7c0.1,0.2,0.1,0.4,0.1,0.6
					C42.9,270.2,42.2,270.9,41.2,270.9C41.3,270.9,41.3,270.9,41.2,270.9z M6,229c3.2,4.2,9.6,12.7,16.1,20
					c6.8,7.2,13.8,13.5,17.5,16.8l-0.8-15.7l0.9-18L6,229z"></path></g>
			</g>
			<g>
				<g id="change2_92"><path fill="#3F4651" d="M2.7,274.4c-0.4,0-0.7-0.1-1-0.4s-0.5-0.7-0.5-1.1L0,250.1l1.1-23c0-0.7,0.5-1.2,1.1-1.4s1.3,0,1.7,0.6
					c0.1,0,9.1,12.4,18.2,22.7c10,10.4,20.1,19.1,20.2,19.2c0.5,0.4,0.7,1,0.5,1.6s-0.7,1-1.3,1.1l-38.6,3.5
					C2.8,274.4,2.7,274.4,2.7,274.4z M4,231.5l-0.9,18.6l1.1,21.1l33.4-3.1c-3.7-3.3-10.8-9.8-17.7-17.1C13.5,244,7.4,236,4,231.5z"></path></g>
			</g>
		</g>
		<g>
			<g>
				<g id="change2_93"><path fill="#3F4651" d="M79.8,235.7L79.8,235.7l-38.7-3.5c-0.6-0.1-1.1-0.5-1.3-1c-0.2-0.6,0-1.2,0.4-1.6
					c0.1-0.1,2.6-2.3,6.8-5.4c4.7-3.5,10.2-7.3,15.1-10.4c4.3-2.9,9.3-5.4,13.3-7.4l2.4-1.2l7.1-3.3c0.5-0.2,1.2-0.2,1.6,0.2
					c0.5,0.4,0.7,1,0.5,1.6l-1.2,4.8c-0.2,1-0.5,2.1-0.9,3.3c-0.6,2.1-1.3,4.5-1.5,7c-0.5,3.2-1,6.4-1.4,9c-0.4,2.4-0.8,4.9-0.9,5.9
					c0.1,0.2,0.1,0.4,0.1,0.6C81.4,235,80.6,235.6,79.8,235.7L79.8,235.7z M45.1,229.5l33.3,3c0.1-1.1,0.4-2.7,0.8-5.3
					s0.9-5.8,1.3-8.9c0.2-2.6,1-5.2,1.6-7.5c0.3-1.1,0.6-2.2,0.8-3.2l0.4-1.7l-6.5,3.1c-3.9,1.9-8.8,4.4-13,7.2
					c-4.8,3.1-10.3,6.8-15,10.3C47.4,227.7,46.1,228.7,45.1,229.5z"></path></g>
			</g>
			<g>
				<g id="change2_94"><path fill="#3F4651" d="M2.7,228.7c-0.2,0-0.4,0-0.6-0.1c-0.6-0.2-1-0.8-1-1.5c0-0.1,0.1-3,0.8-7.3l2.4-15.6
					c0.5-3.9,1.5-7.7,2.4-11.1c0.4-1.6,0.8-3,1.1-4.4l1.8-7c0.1-0.4,0.4-0.7,0.7-1c0.4-0.2,0.8-0.3,1.2-0.1l37.2,10.6
					c0.6,0.2,1,0.7,1.1,1.3s-0.2,1.2-0.7,1.5L39,200.1c-4,2.5-8.9,5.6-13.1,9c-5,3.9-10.6,8.5-15.4,12.8c-4.2,3.6-6.7,6.3-6.7,6.3
					C3.5,228.5,3.1,228.7,2.7,228.7z M12.3,184l-1.4,5.4c-0.3,1.3-0.7,2.8-1.1,4.5c-0.9,3.3-1.9,7-2.3,10.7L5,220.2
					c-0.2,1-0.3,2-0.4,2.8c1.1-1,2.4-2.2,3.9-3.5c4.8-4.3,10.5-9,15.5-12.8c4.3-3.6,9.4-6.7,13.4-9.3l7.1-4.3L12.3,184z"></path></g>
			</g>
			<g>
				<g>
					<g id="change2_95"><path fill="#3F4651" d="M41.2,232.2L41.2,232.2l-38.7-3.5c-0.6-0.1-1.1-0.4-1.3-1s-0.1-1.2,0.3-1.6c0.1-0.1,2.6-2.8,6.9-6.5
						c4.8-4.3,10.5-9,15.5-12.8c4.3-3.6,9.4-6.7,13.4-9.3l2.8-1.8l7.4-4.4c0.4-0.2,0.8-0.3,1.2-0.2l37.2,10.6
						c0.6,0.2,1.1,0.7,1.1,1.4c0.1,0.6-0.3,1.2-0.9,1.5l-9.5,4.5c-3.9,1.9-8.8,4.4-13,7.2c-4.8,3.1-10.3,6.8-15,10.3
						c-4.1,3-6.6,5.2-6.6,5.2C42,232.1,41.6,232.2,41.2,232.2z M6.1,225.9l34.6,3.2c0.9-0.8,3.1-2.6,6.3-4.9
						c4.7-3.5,10.2-7.3,15.1-10.4c4.3-2.9,9.3-5.4,13.3-7.4l5.8-2.8l-32.6-9.3l-9.6,5.8c-4,2.5-8.9,5.6-13.1,9
						c-5,3.9-10.6,8.5-15.4,12.8C8.7,223.4,7.2,224.8,6.1,225.9z"></path></g>
				</g>
			</g>
			<g>
				<g id="change2_96"><path fill="#3F4651" d="M85.6,204.8c-0.1,0-0.3,0-0.4-0.1L48,194.1c-0.6-0.2-1-0.7-1.1-1.3s0.2-1.2,0.7-1.5
					c0.1-0.1,3-1.8,7.5-4.1c5.3-2.5,11.5-5.2,17-7.4l1.5-0.6c2.5-1,5-1.9,7.5-2.7l8-2.3l7.7-1.9c0.6-0.2,1.2,0.1,1.6,0.5
					c0.4,0.5,0.5,1.1,0.2,1.6l-4.4,9c-0.4,1-0.8,2-1.2,3.1c-0.3,0.7-0.5,1.4-0.8,2.1L88.4,199c-0.8,2.6-1.2,4.5-1.2,4.5
					c-0.1,0.4-0.3,0.8-0.7,1C86.2,204.7,85.9,204.8,85.6,204.8z M52.4,192.2l32.2,9.1c0.2-0.8,0.5-2,0.9-3.3l3.8-10.2
					c0.3-0.7,0.5-1.4,0.7-2.1c0.4-1.2,0.8-2.4,1.3-3.4l3-6.1l-12.4,3.4c-2.4,0.7-4.7,1.7-7.2,2.6l-1.4,0.6
					c-5.4,2.1-11.5,4.8-16.7,7.3C54.8,190.8,53.5,191.5,52.4,192.2z"></path></g>
			</g>
			<g>
				<g id="change2_97"><path fill="#3F4651" d="M48.4,194.2c-0.3,0-0.6-0.1-0.9-0.3c-0.5-0.4-0.7-1-0.6-1.6c0-0.1,0.5-2.5,1.6-6l4.6-12.6
					c0.3-0.8,0.6-1.6,0.9-2.3c0.5-1.5,1.1-3,1.7-4.4l5.3-11.1c0.2-0.4,0.5-0.7,0.9-0.8s0.8-0.1,1.2,0.1l34.6,17.3
					c0.6,0.3,0.9,0.9,0.8,1.5s-0.5,1.2-1.2,1.3l-15.6,4.2c-2.4,0.7-4.7,1.7-7.2,2.6l-1.4,0.6c-5.4,2.1-11.5,4.8-16.7,7.3
					c-4.4,2.2-7.2,3.9-7.2,3.9C49,194.1,48.7,194.2,48.4,194.2z M63.1,158.7l-4.6,9.6c-0.6,1.3-1.1,2.7-1.6,4.1
					c-0.3,0.8-0.6,1.6-0.9,2.4l-4.6,12.5c-0.2,0.8-0.5,1.5-0.6,2.2c1.2-0.6,2.6-1.4,4.3-2.3c5.3-2.5,11.5-5.2,17-7.4l1.5-0.6
					c2.5-1,5-1.9,7.5-2.7l11.7-3.2L63.1,158.7z"></path></g>
			</g>
			<g>
				<g id="change2_98"><path fill="#3F4651" d="M48.4,194.2c-0.5,0-1-0.3-1.3-0.7c-0.1-0.1-1.9-3.1-4.2-7.8c-2.6-5.4-5.4-11.9-7.8-17.8l-0.5-1.3
					c-1.2-2.9-2.4-6-3.3-8.8l-2.6-9l-2.4-9c-0.2-0.6,0-1.2,0.5-1.6c0.5-0.4,1.1-0.4,1.7-0.2l34.6,17.3c0.8,0.4,1.1,1.3,0.7,2
					l-5.3,11c-0.6,1.3-1.1,2.7-1.6,4.1c-0.3,0.8-0.6,1.6-0.9,2.4l-4.6,12.5c-1,3.3-1.5,5.6-1.5,5.6c-0.1,0.6-0.6,1.1-1.3,1.2
					C48.6,194.2,48.5,194.2,48.4,194.2z M30.1,142.2l1.8,6.7l2.3,7.9c0.9,2.7,2.1,5.7,3.2,8.6l0.5,1.3c2.3,5.8,5.1,12.2,7.7,17.6
					c0.8,1.6,1.6,3.1,2.2,4.3c0.2-0.7,0.4-1.4,0.7-2.2l4.6-12.6c0.3-0.8,0.6-1.6,0.9-2.3c0.5-1.5,1.1-3,1.7-4.4l4.7-9.7L30.1,142.2z
					"></path></g>
			</g>
			<g>
				<g id="change2_99"><path fill="#3F4651" d="M48.4,194.2c-0.1,0-0.3,0-0.4-0.1l-37.2-10.6c-0.8-0.2-1.3-1-1.1-1.8c0-0.1,0.7-2.9,1.9-7l5.4-14.8
					c0.4-1,0.7-1.9,1-2.8c0.7-1.8,1.3-3.6,2-5.2l6.3-13.2c0.3-0.6,0.9-0.9,1.5-0.9c0.6,0.1,1.2,0.5,1.3,1.1l2.7,10.1l2.3,7.7
					c0.9,2.7,2.1,5.7,3.2,8.6l0.5,1.3c2.3,5.8,5.1,12.2,7.7,17.6c1.8,3.6,3.4,6.3,3.9,7.2c0.3,0.3,0.5,0.7,0.5,1.1
					C50,193.5,49.2,194.1,48.4,194.2L48.4,194.2z M13,181l32.2,9.1c-0.7-1.2-1.5-2.7-2.3-4.5c-2.6-5.4-5.4-11.9-7.8-17.8l-0.5-1.3
					c-1.2-2.9-2.4-6-3.3-8.8l-3.9-14l-4.5,9.3c-0.7,1.6-1.3,3.3-2,5c-0.3,0.9-0.7,1.8-1,2.8l-5.4,14.8C13.8,177.9,13.3,179.8,13,181
					z"></path></g>
			</g>
		</g>
		<g>
			<g>
				<g id="change2_100"><path fill="#3F4651" d="M97.1,175.4c-0.2,0-0.5-0.1-0.7-0.2L61.7,158c-0.6-0.3-0.9-0.9-0.8-1.5c0-0.6,0.5-1.2,1.1-1.3l8-2.6
					c4.2-1.2,10.3-2.6,18.1-4.1c6.7-1.3,12.8-2.1,17.7-2.4l7.7-0.4c0.4-0.1,0.8,0,1.1,0.3c0.5,0.4,0.8,1.1,0.6,1.7
					c-0.1,0.5-0.5,0.8-0.9,1c-1.4,1.6-14.1,21.4-15.6,25.1c0,0.1,0,0.2,0,0.3C98.7,174.7,97.8,175.4,97.1,175.4L97.1,175.4z
					 M66.5,156.9l29.8,14.8c2.4-4.9,10-17.1,14.2-22.9l-4.5,0.3c-4.7,0.2-10.8,1.1-17.3,2.3c-7.8,1.5-13.7,2.9-17.8,4.1L66.5,156.9z
					"></path></g>
			</g>
			<g>
				<g id="change2_101"><path fill="#3F4651" d="M27.8,140.9c-0.4,0-0.8-0.2-1.1-0.5c-0.4-0.5-0.5-1.2-0.3-1.7l3.1-6.5c1.4-2.7,3.3-5.8,5.3-9.1
					c0.9-1.5,1.9-3,2.8-4.6c3.7-6.2,6.5-10.4,8.8-13.3l4.2-5.7c0.2-0.3,0.6-0.5,1-0.6s0.8,0,1.1,0.3l30.9,23.4
					c0.5,0.4,0.7,1,0.6,1.6c-0.2,0.6-0.6,1.1-1.3,1.1l-8.6,1.3c-5,0.7-11.6,2.3-18.7,4.4c-8.5,2.5-14.7,4.5-19,6.2l-8.4,3.6
					C28.2,140.8,28,140.9,27.8,140.9z M52.2,102.6l-3.4,4.5c-2.3,2.9-5,7-8.6,13c-0.9,1.6-1.9,3.1-2.8,4.6c-2,3.2-3.9,6.3-5.2,8.9
					l-1.3,2.7l4.7-2c4.4-1.7,10.7-3.8,19.3-6.3c7.2-2.1,13.9-3.7,19.1-4.4l5-0.8L52.2,102.6z"></path></g>
			</g>
			<g>
				<g>
					<g id="change2_102"><path fill="#3F4651" d="M62.4,158.1c-0.2,0-0.5-0.1-0.7-0.2l-34.6-17.3c-0.5-0.3-0.9-0.8-0.9-1.4c0-0.6,0.4-1.1,0.9-1.4
						l8.5-3.6c4.4-1.7,10.7-3.8,19.3-6.3c7.2-2.1,13.9-3.7,19.1-4.4l8.5-1.3c0.4-0.1,0.8,0,1.2,0.3l30.9,23.4
						c0.5,0.4,0.7,1.1,0.5,1.7c-0.2,0.6-0.7,1.1-1.4,1.1l-7.9,0.4c-4.7,0.2-10.8,1.1-17.3,2.3c-7.8,1.5-13.7,2.9-17.8,4.1l-7.9,2.6
						C62.7,158.1,62.6,158.1,62.4,158.1z M31.4,139.4l31.1,15.5l7.4-2.4c4.2-1.2,10.3-2.6,18.1-4.1c6.7-1.3,12.8-2.1,17.7-2.4
						l3.7-0.2l-27-20.4l-7.9,1.2c-5,0.7-11.6,2.3-18.7,4.4c-8.5,2.5-14.7,4.5-19,6.2L31.4,139.4z"></path></g>
				</g>
			</g>
			<g>
				<g id="change2_103"><path fill="#3F4651" d="M113.7,148.6c-0.3,0-0.7-0.1-0.9-0.3L81.9,125c-0.5-0.4-0.7-1-0.6-1.6s0.6-1,1.2-1.1
					c0.1,0,13.7-2.2,27-1.9c6.8,0,12.9,0.2,17.8,0.9l7.9,1c0.6,0.1,1.1,0.5,1.3,1.1s0,1.2-0.4,1.6l-3.7,3.3c-1.6,1.2-3.2,3.1-4.9,5
					c-0.8,0.9-1.6,1.9-2.5,2.8c-5.5,5.5-9.9,11.9-10,12c-0.2,0.3-0.6,0.6-1,0.6C113.8,148.6,113.8,148.6,113.7,148.6z M86.7,124.8
					l26.7,20.2c1.6-2.2,5.2-6.8,9.3-11c0.8-0.9,1.6-1.8,2.4-2.7c1.8-2,3.5-4,5.2-5.3l1.1-1l-4.6-0.6c-4.8-0.7-10.7-0.8-17.4-0.8
					C100.3,123.2,91.6,124.2,86.7,124.8z"></path></g>
			</g>
			<g>
				<g id="change2_104"><path fill="#3F4651" d="M134.9,125.3c-0.1,0-0.1,0-0.2,0l-7.9-1c-4.8-0.7-10.7-0.8-17.4-0.8c-0.9,0-1.9,0-2.8,0
					c-12,0-23.5,1.8-23.6,1.9c-0.7,0.1-1.2-0.2-1.6-0.7c-0.3-0.5-0.3-1.2,0-1.7c0.2-0.3,5.7-8.1,12.5-15.1c0.9-1,1.9-2,2.8-3.1
					c2.3-2.6,4.5-5,6.6-6.7l4.4-4c0.6-0.6,1.6-0.5,2.2,0.1l25.8,28.3c0.4,0.3,0.7,0.8,0.7,1.3C136.6,124.6,135.9,125.3,134.9,125.3
					C135,125.3,135,125.3,134.9,125.3z M108.8,97.4l-3.3,3c-2,1.6-4.1,3.9-6.3,6.4c-0.9,1-1.9,2.1-2.8,3.1
					c-4.1,4.2-7.9,8.9-10.1,11.8c4.9-0.6,14.2-1.6,23.3-1.3c6.8,0,12.9,0.2,17.8,0.9l3.7,0.5L108.8,97.4z"></path></g>
			</g>
			<g>
				<g id="change2_105"><path fill="#3F4651" d="M82.8,125.3c-0.1,0-0.2,0-0.3,0c-0.6-0.1-1.1-0.6-1.2-1.3c0-0.1-2.2-14-2-28.2c0-7.6,0.1-15,0.8-20.2
					l1.1-9.2c0.1-0.6,0.5-1.1,1.1-1.3c0.6-0.2,1.2,0,1.6,0.4L110,94.1c0.3,0.3,0.4,0.7,0.4,1.1s-0.2,0.8-0.5,1.1l-4.5,4.1
					c-2,1.6-4.1,3.9-6.3,6.4c-0.9,1-1.9,2.1-2.8,3.1c-6.7,6.8-12.2,14.6-12.2,14.7C83.8,125,83.3,125.3,82.8,125.3z M83.9,70.1
					l-0.7,5.8c-0.7,5.1-0.8,12.3-0.8,19.9c-0.2,9.5,0.8,18.9,1.4,24c2.3-3,6-7.7,10.3-12c0.9-1,1.9-2,2.8-3.1c2.3-2.6,4.5-5,6.6-6.7
					l3.3-3L83.9,70.1z"></path></g>
			</g>
			<g>
				<g id="change2_106"><path fill="#3F4651" d="M82.8,125.3c-0.3,0-0.7-0.1-0.9-0.3L51,101.6c-0.7-0.5-0.8-1.4-0.3-2.1c0.1-0.1,6.8-9.6,14.8-17.8
					c1-1.1,2-2.2,3-3.3c2.8-3.1,5.5-6,8-8.1l5.2-4.8c0.5-0.4,1.2-0.5,1.7-0.2c0.6,0.3,0.9,0.9,0.8,1.6l-1.1,9.2
					c-0.7,5.1-0.8,12.3-0.8,19.9c-0.3,12.5,1.5,24.7,1.8,27.2c0.1,0.2,0.2,0.4,0.2,0.7C84.4,124.6,83.7,125.3,82.8,125.3
					C82.9,125.3,82.8,125.3,82.8,125.3z M54.1,100.1l26.7,20.2c-0.6-5.1-1.6-14.7-1.4-24.5c0-7.6,0.1-15,0.8-20.2l0.6-5.1l-2.2,2
					c-2.4,2-5,4.9-7.7,7.9c-1,1.1-2,2.3-3.1,3.4C61.5,90.2,56.1,97.3,54.1,100.1z"></path></g>
			</g>
		</g>
		<g>
			<g>
				<g id="change2_107"><path fill="#3F4651" d="M134.9,125.3c-0.4,0-0.8-0.2-1.1-0.5l-26.1-28.6c-0.4-0.5-0.5-1.1-0.3-1.7c0.3-0.6,0.7-0.9,1.5-0.9
					l8.4,0.5c4.3,0.2,10.5,1.1,18.3,2.6c6.4,1.3,12.5,2.5,17.3,4l7.5,2.5l0,0c0.4,0.1,0.7,0.3,0.9,0.6c0.4,0.5,0.3,1.3,0,1.8
					c-0.3,0.4-0.9,0.6-1.3,0.6c-2.2,1-21.4,15.6-23.7,18.1c-0.1,0.2-0.2,0.4-0.4,0.5C135.7,125.2,135.3,125.3,134.9,125.3z
					 M112.6,97l22.5,24.6c4-3.6,15.3-12.5,21.3-16.5l-4.3-1.4c-4.6-1.5-10.6-2.7-16.9-4c-7.6-1.5-13.8-2.3-17.9-2.5L112.6,97z"></path></g>
			</g>
			<g>
				<g id="change2_108"><path fill="#3F4651" d="M139.7,73.4c-0.1,0-0.2,0-0.3,0l-8.5-1.9c-5-1.1-11.6-1.8-18.6-2.5c-9-0.9-15.5-1.2-20.2-1l-9.3,0.2
					c-0.7,0.1-1.2-0.4-1.5-1c-0.2-0.6-0.1-1.3,0.4-1.7l5.3-4.8c2.8-2.7,6.8-5.7,11-8.8l1.4-1.1c1.6-1.1,3.1-2.3,4.5-3.4
					c3-2.3,5.8-4.4,8.4-5.9l6.1-3.7c0.7-0.4,1.7-0.2,2.1,0.5L141,71c0.3,0.5,0.3,1.2-0.1,1.7C140.7,73.2,140.2,73.4,139.7,73.4z
					 M94.6,64.8c4.4,0,10.4,0.4,17.6,1.1h0.4c7,0.7,13.7,1.4,18.9,2.6l4.9,1.1l-17.7-28.5L114,44c-2.4,1.4-5.2,3.5-8.1,5.8
					c-1.5,1.1-3,2.3-4.6,3.4l-1.4,1.1c-4.1,3.1-8,6-10.7,8.6L86.9,65l5.1-0.1C92.8,64.8,93.7,64.8,94.6,64.8z"></path></g>
			</g>
			<g>
				<g>
					<g id="change2_109"><path fill="#3F4651" d="M160.1,106.3c-0.2,0-0.3,0-0.5-0.1l-7.6-2.5c-4.6-1.5-10.6-2.7-16.9-4c-7.6-1.5-13.8-2.3-17.9-2.5
						l-8.5-0.5c-0.4,0-0.8-0.2-1-0.5L81.6,67.6c-0.4-0.5-0.5-1.1-0.3-1.6c0.2-0.6,0.8-0.9,1.4-0.9l9.3-0.2c4.7-0.2,11.5,0.2,20.2,1
						h0.4c7,0.7,13.7,1.4,18.9,2.6l8.5,1.9c0.4,0.1,0.8,0.3,1,0.7l20.2,32.6c0.3,0.3,0.5,0.7,0.5,1.2
						C161.7,105.6,161.1,106.3,160.1,106.3L160.1,106.3z M109.6,93.7l7.8,0.5c4.3,0.2,10.5,1.1,18.3,2.6c6.4,1.3,12.5,2.5,17.3,4
						l3.6,1.2l-17.8-28.7l-7.9-1.8c-5-1.1-11.6-1.8-18.6-2.5c-9-0.9-15.5-1.2-20.2-1l-5.9,0L109.6,93.7z"></path></g>
				</g>
			</g>
			<g>
				<g id="change2_110"><path fill="#3F4651" d="M160.1,106.3c-0.5,0-1-0.3-1.3-0.7l-20.4-32.9c-0.3-0.5-0.3-1.2,0.1-1.7c0.4-0.5,1-0.7,1.6-0.6l8.2,2.1
					c2.5,0.7,5.3,1.4,8.2,2.4c3.1,1.1,6.2,2.3,9.3,3.5c5.8,2.3,11.7,4.9,16.2,7.1l7.1,4c0.5,0.3,0.8,0.9,0.8,1.5s-0.4,1.1-1,1.3
					l-4.6,1.7l-16.4,8.1l-6.9,4.2C160.7,106.2,160.4,106.3,160.1,106.3z M143,74.3l17.6,28.4l7.2-4.4l16.7-7.9l-4-2.3
					c-4.4-2.1-10.2-4.7-15.9-6.9c-3-1.2-6.2-2.4-9.2-3.4c-2.8-0.9-5.6-1.6-8-2.3L143,74.3z"></path></g>
			</g>
			<g>
				<g id="change2_111"><path fill="#3F4651" d="M188.3,92.2c-0.3,0-0.5-0.1-0.8-0.2l-7-3.9c-4.4-2.1-10.2-4.7-15.9-6.9c-3-1.2-6.2-2.4-9.2-3.4
					c-2.8-0.9-5.6-1.6-8-2.3l-8.2-2.1c-0.6-0.2-1.1-0.7-1.1-1.3s0.2-1.2,0.7-1.5l10.5-6.4l18.5-8.9l5.8-2.1c0.8-0.3,1.7,0.1,2,0.9
					l13.8,35.7c0.2,0.3,0.3,0.6,0.3,1C189.9,91.5,189.2,92.2,188.3,92.2L188.3,92.2z M143.6,71.3l4.7,1.2c2.5,0.7,5.3,1.4,8.2,2.4
					c3.1,1.1,6.2,2.3,9.3,3.5c5.8,2.3,11.7,4.9,16.2,7.1l3.3,1.9l-11.9-30.7l-4.3,1.6l-19.9,9.8L143.6,71.3z"></path></g>
			</g>
			<g>
				<g id="change2_112"><path fill="#3F4651" d="M139.7,73.4c-0.3,0-0.6-0.1-0.9-0.3c-0.5-0.4-0.7-1-0.6-1.6l4.7-17.2c1.1-3.1,2.3-6.4,3.7-9.8
					c2.5-6.4,5.5-13.3,8-18.6l4.4-8.2c0.3-0.5,0.8-0.9,1.5-0.8c0.6,0,1.1,0.4,1.3,1l14,36.1c0.2,0.4,0.1,0.8,0,1.2
					c-0.2,0.4-0.5,0.7-0.9,0.8l-5.7,2.1l-19.9,9.8l-8.7,5.3C140.3,73.3,140,73.4,139.7,73.4z M160.1,22.1l-2.8,5.2
					c-2.4,5.2-5.4,12.1-7.9,18.4c-1.3,3.3-2.5,6.6-3.6,9.6l-3.7,13.3l7.3-4.4l18.5-8.9l4.4-1.6L160.1,22.1z"></path></g>
			</g>
			<g>
				<g id="change2_113"><path fill="#3F4651" d="M139.7,73.4c-0.5,0-1-0.3-1.3-0.7L118,39.8c-0.2-0.3-0.3-0.8-0.2-1.2c0.1-0.4,0.3-0.7,0.7-1l13.3-7.9
					l21.1-10.1l6.9-2.6c0.6-0.2,1.3,0,1.7,0.4c0.4,0.5,0.5,1.2,0.2,1.7l-4.4,8.1c-2.4,5.2-5.4,12.1-7.9,18.4
					c-1.3,3.3-2.5,6.6-3.6,9.6l-2.5,8.7l-2.1,8.3c-0.2,0.6-0.7,1-1.3,1.1C139.9,73.4,139.8,73.4,139.7,73.4z M121.4,39.5L139.1,68
					l3.8-13.7c1.1-3.1,2.3-6.4,3.7-9.8c2.5-6.3,5.5-13.3,8-18.6l2.5-4.5l-2.9,1.1l-21.7,10.4L121.4,39.5z"></path></g>
			</g>
		</g>
		<g>
			<g>
				<g id="change2_114"><path fill="#3F4651" d="M188.3,92.2c-0.6,0-1.2-0.4-1.4-1l-14-36.1c-0.2-0.6-0.1-1.3,0.4-1.7s1.1-0.5,1.7-0.3l7.7,3.6
					c4.4,2.1,10.3,5,16.1,8.9c4.9,3.1,10.2,6.8,14.6,10c1.5,1.1,3.1,2.3,4.6,3.6l1.7,1.4c0.6,0.5,0.7,1.4,0.2,2.1
					c-0.4,0.6-1,0.6-1.6,0.7c-0.7,0.1-2.2,0.2-4.1,0.8l-10.6,2.7c-3,0.6-5.8,1.7-8.3,2.6l-6.5,2.4C188.6,92.2,188.5,92.2,188.3,92.2
					z M177.1,57.6l12.1,31.1l5-1.8c2.5-0.9,5.5-2.1,8.7-2.7l10.4-2.7c0.6-0.2,1.2-0.3,1.7-0.4c-1.2-1-2.3-1.9-3.5-2.7
					c-4.3-3.2-9.6-6.8-14.4-9.9c-5.7-3.8-11.5-6.7-15.8-8.7L177.1,57.6z"></path></g>
			</g>
			<g>
				<g id="change2_115"><path fill="#3F4651" d="M211.6,45.5C211.5,45.5,211.5,45.5,211.6,45.5c-0.4,0-0.7-0.1-1-0.3l-2-1.4c-1.7-1.2-3.4-2.3-5.1-3.3
					c-3.1-1.8-9.3-5.5-16.8-9.4c-6.5-3.5-12.9-6-18.1-8l-8.7-3.2c-0.6-0.2-1-0.8-1-1.4s0.4-1.2,1-1.4l8.9-3.3
					c3.7-1.4,8.3-3,13.1-4.1L197,5.8c1.7-0.5,3.4-0.8,5.3-1.1l1.9-0.3c0.8-0.1,1.6,0.4,1.8,1.2l7,37.6c0.1,0.2,0.2,0.5,0.2,0.7
					C213.1,44.8,212.4,45.5,211.6,45.5z M164.8,18.5l4.8,1.8c5,1.9,11.9,4.6,18.5,8.2c7.6,3.9,13.9,7.6,17,9.4
					c1.4,0.8,2.8,1.7,4.2,2.7l-6.1-32.9l-0.5,0.1c-1.7,0.2-3.3,0.6-4.9,1l-15.3,3.9c-4.6,1-9.1,2.7-12.7,4L164.8,18.5z"></path></g>
			</g>
			<g>
				<g>
					<g id="change2_116"><path fill="#3F4651" d="M218.6,83.6c-0.4,0-0.7-0.1-1-0.4l-1.7-1.4c-1.4-1.3-2.9-2.4-4.4-3.5c-4.3-3.2-9.6-6.8-14.4-9.9
						c-5.7-3.8-11.5-6.7-15.8-8.7l-7.7-3.6c-0.4-0.2-0.6-0.5-0.8-0.8l-14-36.1c-0.2-0.6-0.1-1.2,0.3-1.6c0.4-0.4,1.1-0.6,1.6-0.4
						l8.8,3.2c5,1.9,11.9,4.6,18.5,8.2c7.6,3.9,13.9,7.6,17,9.4c1.8,1,3.6,2.2,5.4,3.5l1.9,1.4c0.3,0.2,0.6,0.6,0.6,1l7,37.6
						c0.1,0.2,0.2,0.5,0.2,0.7C220.2,82.9,219.5,83.6,218.6,83.6L218.6,83.6z M175.5,53.4l7.1,3.4c4.4,2.1,10.3,5,16.1,8.9
						c4.9,3.1,10.2,6.8,14.6,10c1,0.7,1.9,1.4,2.9,2.2L210,44.8l-1.5-1c-1.7-1.2-3.4-2.3-5.1-3.3c-3.1-1.8-9.3-5.5-16.8-9.4
						c-6.5-3.5-12.9-6-18.1-8l-5.5-2L175.5,53.4z"></path></g>
				</g>
			</g>
			<g>
				<g id="change2_117"><path fill="#3F4651" d="M218.6,83.6c-0.7,0-1.4-0.5-1.5-1.3L210,44.2c-0.1-0.6,0.2-1.3,0.7-1.6s1.2-0.3,1.7,0.1l8.7,6.4
					c3.8,2.9,8.2,6.3,12.4,10.3c9.7,9.2,17.6,18.5,17.7,18.6c0.4,0.5,0.5,1.1,0.2,1.6c-0.2,0.5-0.8,0.9-1.3,0.9l-15.8,0.8
					c-2.4,0.1-4.8,0.6-7,0.9c-1.3,0.2-2.6,0.4-3.7,0.6l-4.8,0.7C218.7,83.6,218.6,83.6,218.6,83.6z M213.7,47.5l6.1,32.8l3.4-0.5
					c1.1-0.1,2.3-0.3,3.6-0.6c2.2-0.4,4.7-0.8,7.3-1l12.7-0.7c-2.9-3.3-8.7-9.7-15.4-16c-4.1-3.9-8.4-7.2-12.2-10.1L213.7,47.5z"></path></g>
			</g>
			<g>
				<g id="change2_118"><path fill="#3F4651" d="M250,80.5c-0.4,0-0.9-0.2-1.2-0.5c-0.1-0.1-7.9-9.3-17.5-18.3c-4.1-3.9-8.4-7.2-12.2-10.1l-1.8-1.3
					l-6.9-5c-0.5-0.4-0.7-1-0.6-1.6c0.2-0.6,0.7-1.1,1.3-1.2l6-0.9c1.3-0.2,2.6-0.4,4.1-0.6c2.8-0.5,6-1,9.2-1.2l19.4-1
					c0.4,0,0.8,0.1,1.1,0.4c0.3,0.3,0.5,0.7,0.5,1.1V79c0,0.6-0.4,1.2-1,1.4C250.4,80.5,250.2,80.5,250,80.5z M215.4,44.9l5.7,4.2
					c3.8,2.9,8.2,6.3,12.4,10.3c6.3,6,11.9,12,15,15.5v-33l-17.7,0.9c-3.1,0.2-6.2,0.7-8.9,1.1c-1.5,0.2-2.9,0.5-4.2,0.6L215.4,44.9
					z"></path></g>
			</g>
			<g>
				<g id="change2_119"><path fill="#3F4651" d="M211.5,45.5c-0.5,0-1-0.3-1.3-0.7c-0.3-0.5-0.3-1.2,0.1-1.7l6.4-8.7c3.1-4,6.9-8.9,11.1-13.5
					c9.5-10.2,21.1-20.4,21.2-20.5c0.4-0.4,1.1-0.5,1.6-0.2c0.6,0.2,0.9,0.8,0.9,1.4v38.7c0,0.8-0.6,1.5-1.5,1.5l-19.4,1
					c-3.1,0.2-6.2,0.7-8.9,1.1c-1.5,0.2-2.9,0.5-4.2,0.6l-5.9,0.9C211.6,45.5,211.6,45.5,211.5,45.5z M248.5,5
					c-3.9,3.6-11.7,10.8-18.4,18c-4.1,4.4-7.9,9.3-10.9,13.2l-4.2,5.6l2.3-0.4c1.3-0.2,2.6-0.4,4.1-0.6c2.8-0.5,6-1,9.2-1.2
					l17.9-0.9L248.5,5L248.5,5z"></path></g>
			</g>
			<g>
				<g id="change2_120"><path fill="#3F4651" d="M211.5,45.5c-0.1,0-0.2,0-0.3,0c-0.6-0.1-1.1-0.6-1.2-1.2l-7.1-38.1c-0.1-0.4,0-0.8,0.3-1.2
					c0.2-0.3,0.6-0.6,1-0.6l7.1-1.1c1.4-0.2,2.9-0.4,4.5-0.7c3.4-0.5,7.3-1.2,11.2-1.4L249.9,0c0.9,0,1.3,0.4,1.5,1s0.1,1.3-0.4,1.7
					C250.9,2.8,239.4,13,230,23c-4.1,4.4-7.9,9.3-10.9,13.2l-1.3,1.7l-5,6.9C212.4,45.3,212,45.5,211.5,45.5z M206.2,7.2l6.1,33
					l4.3-5.8c3.1-4,6.9-8.9,11.1-13.5c6.5-6.9,13.9-13.8,18-17.6l-18.6,0.9c-3.8,0.3-7.6,0.9-10.9,1.4c-1.6,0.3-3.2,0.5-4.6,0.7
					L206.2,7.2z"></path></g>
			</g>
		</g>
	</g>
</g>
</svg>