<?xml version="1.0" encoding="utf-8"?><!DOCTYPE svg PUBLIC "-//W3C//DTD SVG 1.1//EN" "http://www.w3.org/Graphics/SVG/1.1/DTD/svg11.dtd">
<svg version="1.1" id="Layer_1" xmlns="http://www.w3.org/2000/svg" xmlns:xlink="http://www.w3.org/1999/xlink" x="0px" y="0px" viewBox="0 0 500 500" enable-background="new 0 0 500 500" xml:space="preserve">
<g>
	<g>
		<g id="change1_1"><path fill="#FFFFFF" d="M250,461.3c-116.5,0-211.3-94.8-211.3-211.3c0-116.5,94.8-211.3,211.3-211.3S461.3,133.5,461.3,250
			C461.3,366.5,366.5,461.3,250,461.3z M250,42.1C135.3,42.1,42.1,135.3,42.1,250S135.3,457.9,250,457.9S457.9,364.7,457.9,250
			S364.7,42.1,250,42.1z"></path></g>
	</g>
	<g>
		<g>
			<g>
				<g id="change1_2"><path fill="#FFFFFF" d="M281.4,83.8c-0.1,0-0.2,0-0.3,0l-4.9-0.7c-1.1-0.1-2.3-0.3-3.6-0.6c-2.1-0.4-4.6-0.8-7-0.9l-15.8-0.8
					c-0.9,0-1.6-0.8-1.6-1.7V40.4c0-0.7,0.4-1.3,1.1-1.6c0.6-0.3,1.4-0.1,1.8,0.4c0.1,0.1,9.9,10.4,17.7,20.4
					c3.6,4.6,6.8,9.8,9.2,13.6l4.6,7.7c0.3,0.3,0.5,0.7,0.5,1.2C283.2,83,282.4,83.8,281.4,83.8C281.5,83.8,281.5,83.8,281.4,83.8z
					 M251.7,77.5l14.2,0.7c2.6,0.2,5.1,0.6,7.4,1c1.3,0.2,2.4,0.4,3.5,0.5l1.4,0.2l-3-5c-2.3-3.7-5.5-8.8-9-13.3
					c-5.1-6.5-11.1-13.2-14.6-17V77.5z"></path></g>
			</g>
			<g>
				<g id="change1_3"><path fill="#FFFFFF" d="M288.5,45.8c-0.5,0-1-0.3-1.4-0.7l-6.3-8.5c-3-3.9-6.8-8.9-10.9-13.3C260.5,13.2,249,3,248.9,3
					c-0.5-0.5-0.7-1.2-0.4-1.9c0.3-0.7,0.9-1,1.6-1L273,1.1c4,0.3,7.8,0.9,11.3,1.4c1.6,0.3,3.1,0.5,4.5,0.7l7.1,1.1
					c0.5,0.1,0.9,0.3,1.1,0.7c0.3,0.4,0.4,0.8,0.3,1.3l-7.1,38c-0.1,0.7-0.6,1.2-1.3,1.3C288.8,45.7,288.6,45.8,288.5,45.8z
					 M254.6,3.6c4.2,3.8,11.4,10.6,17.7,17.3c4.3,4.5,8.1,9.5,11.2,13.5l4.1,5.5l6-32.5l-5.4-0.8c-1.3-0.2-2.9-0.4-4.5-0.7
					c-3.4-0.5-7.2-1.1-10.9-1.4L254.6,3.6z"></path></g>
			</g>
			<g>
				<g>
					<g id="change1_4"><path fill="#FFFFFF" d="M281.4,83.8c-0.6,0-1.1-0.3-1.5-0.8l-4.8-8c-2.3-3.7-5.5-8.8-9-13.3c-7.7-9.9-17.4-20-17.5-20.1
						c-0.3-0.3-0.5-0.7-0.5-1.2V1.7c0-0.7,0.4-1.3,1-1.5c0.6-0.3,1.3-0.2,1.8,0.3c0.1,0.1,11.7,10.4,21.2,20.5
						c4.3,4.5,8.1,9.5,11.2,13.5l1.3,1.7l5.1,6.9c0.3,0.4,0.4,0.8,0.3,1.3l-7.1,38c-0.1,0.7-0.7,1.2-1.4,1.3
						C281.6,83.8,281.5,83.8,281.4,83.8z M251.7,39.7c2,2.2,10.4,11.1,17.2,19.9c3.6,4.6,6.8,9.8,9.2,13.6l2.5,4.2l6.1-32.9l-5.9-8
						c-3-3.9-6.8-8.9-10.9-13.3c-6.6-7-14.2-14.1-18.2-17.8V39.7z"></path></g>
				</g>
			</g>
			<g>
				<g id="change1_5"><path fill="#FFFFFF" d="M311.7,92.5c-0.2,0-0.4,0-0.6-0.1l-6.5-2.4c-2.5-0.9-5.2-2-8.1-2.6l-10.6-2.7c-1.9-0.6-3.4-0.7-4.1-0.8
					c-0.6-0.1-1.2-0.1-1.7-0.8c-0.3-0.4-0.4-0.9-0.3-1.3l7.1-38c0.1-0.7,0.6-1.2,1.3-1.3c0.7-0.1,1.3,0.1,1.7,0.7l1.3,1.9
					c1.2,1.7,2.4,3.4,3.4,5.3c3,5.1,6.3,11,8.9,16.1c3.2,5.9,5.7,12.7,7.1,16.4l2.4,7c0.2,0.3,0.3,0.6,0.3,1
					C313.4,91.7,312.7,92.5,311.7,92.5C311.7,92.5,311.7,92.5,311.7,92.5z M283.4,80.7c0.9,0.1,2.1,0.3,3.3,0.7l10.4,2.7
					c3.1,0.6,6.1,1.8,8.6,2.7l3.1,1.2l-1.4-4c-1.3-3.6-3.8-10.3-6.9-16c-2.6-5.1-5.8-10.9-8.8-15.9c-0.7-1.3-1.5-2.5-2.3-3.7
					L283.4,80.7z"></path></g>
			</g>
			<g>
				<g id="change1_6"><path fill="#FFFFFF" d="M311.7,92.5C311.7,92.5,311.7,92.5,311.7,92.5c-0.7,0-1.4-0.5-1.6-1.1l-2.6-7.4
					c-1.3-3.6-3.8-10.3-6.9-16c-2.6-5.1-5.8-10.9-8.8-15.9c-1-1.8-2.1-3.4-3.3-5l-1.3-1.9c-0.4-0.6-0.4-1.3,0-1.9
					c0.4-0.6,1-0.9,1.7-0.8l1.6,0.3c1.5,0.2,3,0.5,4.5,0.9l12.8,3.3c3.9,0.8,7.6,2.2,10.7,3.4l7.8,2.9c0.4,0.2,0.8,0.5,1,0.9
					c0.2,0.4,0.2,0.9,0,1.3l-14,36.1C313,92,312.4,92.5,311.7,92.5z M292.2,46.4c0.9,1.3,1.7,2.6,2.4,3.9c3,5.1,6.3,11,8.9,16.1
					c3.2,5.9,5.7,12.7,7.1,16.4l1.1,3.1l11.7-30.2l-6.2-2.3c-3.1-1.1-6.6-2.4-10.3-3.2l-13-3.3C293.4,46.7,292.8,46.5,292.2,46.4z"></path></g>
			</g>
			<g>
				<g id="change1_7"><path fill="#FFFFFF" d="M325.7,56.4c-0.2,0-0.4,0-0.6-0.1l-7.8-2.9c-3.1-1.1-6.6-2.4-10.3-3.2l-13-3.3c-1.4-0.4-2.7-0.7-4.1-0.8
					l-1.7-0.3c-0.7-0.1-1.2-0.6-1.4-1.3c-0.2-0.7,0.1-1.4,0.7-1.8l2-1.4c1.2-0.8,3.1-2.1,5.4-3.5c3-1.8,9.3-5.5,17-9.4
					c6.5-3.5,13.1-6.1,18.4-8.1l8.8-3.2c0.6-0.2,1.3-0.1,1.8,0.4c0.5,0.5,0.6,1.2,0.4,1.8l-14,36.1C327,56,326.3,56.4,325.7,56.4z
					 M292.9,43.1c0.7,0.1,1.4,0.3,2,0.5l12.8,3.3c3.9,0.8,7.6,2.2,10.7,3.4l6.2,2.3l12-31.1l-5.3,1.9c-5.2,2-11.7,4.5-18,8
					c-7.6,3.9-13.8,7.5-16.8,9.4C295.1,41.6,293.9,42.4,292.9,43.1z"></path></g>
			</g>
			<g>
				<g id="change1_8"><path fill="#FFFFFF" d="M288.5,45.8c-0.3,0-0.6-0.1-0.9-0.3c-0.6-0.4-0.9-1-0.8-1.7l7.1-38c0.2-0.9,0.9-1.5,1.9-1.4l1.9,0.3
					c1.8,0.3,3.6,0.6,5.3,1.1l15.3,3.9c4.7,1,9.2,2.7,12.9,4l9,3.3c0.7,0.2,1.1,0.9,1.1,1.6c0,0.7-0.4,1.3-1.1,1.6l-8.8,3.2
					c-5.2,2-11.7,4.5-18,8c-7.6,3.9-13.8,7.5-16.8,9.4c-2.2,1.3-4,2.5-5.1,3.3l-2,1.4C289.2,45.7,288.8,45.8,288.5,45.8z M296.9,7.9
					l-6,32.4c1.4-0.9,2.7-1.7,4-2.5c3-1.8,9.3-5.5,17-9.4c6.5-3.5,13.1-6.1,18.4-8.1l4.5-1.7l-4.7-1.7c-3.6-1.3-8-2.9-12.5-3.9
					L302.2,9c-1.6-0.5-3.2-0.8-4.9-1L296.9,7.9z"></path></g>
			</g>
		</g>
		<g>
			<g>
				<g id="change1_9"><path fill="#FFFFFF" d="M339.9,106.5C339.9,106.5,339.9,106.5,339.9,106.5c-0.4,0-0.7-0.1-1-0.2l-8.5-5.2l-14.8-7.1l-4.5-1.6
					c-0.4-0.2-0.8-0.5-1-0.9c-0.2-0.4-0.2-0.9,0-1.3l14-36.1c0.3-0.6,0.9-1.1,1.5-1.1c0,0,0,0,0,0c0.7,0,1.3,0.4,1.5,1l3.3,7.6
					c1.9,5.2,4.1,11.8,5.8,17.7c0.9,3.1,1.7,6.2,2.4,9.1c0.6,3.1,1.1,5.9,1.5,8.3l1.1,7.3c0.1,0.2,0.2,0.5,0.2,0.8
					C341.6,105.8,340.9,106.5,339.9,106.5z M313.9,89.8l3,1.1l15.2,7.3l5.6,3.4l-0.6-4.2c-0.4-2.3-0.9-5.1-1.5-8.1
					c-0.7-2.8-1.5-5.8-2.4-8.9c-1.7-5.9-3.8-12.4-5.7-17.4l-1.7-3.8L313.9,89.8z"></path></g>
			</g>
			<g>
				<g id="change1_10"><path fill="#FFFFFF" d="M360.2,73.6c-0.1,0-0.2,0-0.3,0c-0.7-0.1-1.2-0.6-1.4-1.3l-2.1-8.4l-2.5-8.7c-1-2.9-2.3-6.2-3.6-9.5
					c-2.5-6.4-5.5-13.2-7.9-18.4l-4.3-8c-0.3-0.6-0.3-1.4,0.2-1.9c0.5-0.5,1.2-0.7,1.9-0.5l6.7,2.5l22,10.5l12.6,7.6
					c0.4,0.2,0.7,0.6,0.8,1c0.1,0.4,0,0.9-0.2,1.3l-20.4,32.9C361.4,73.3,360.8,73.6,360.2,73.6z M343.3,21.8l2.2,4.1
					c2.5,5.3,5.5,12.3,8,18.7c1.3,3.3,2.5,6.6,3.6,9.7l3.7,13.4l17.4-28.1l-11-6.6l-21.7-10.4L343.3,21.8z"></path></g>
			</g>
			<g>
				<g>
					<g id="change1_11"><path fill="#FFFFFF" d="M339.8,106.5c-0.1,0-0.2,0-0.3,0c-0.7-0.1-1.2-0.7-1.3-1.4l-1.2-7.8c-0.4-2.3-0.9-5.1-1.5-8.1
						c-0.7-2.8-1.5-5.8-2.4-8.9c-1.7-5.9-3.8-12.4-5.7-17.4l-3.3-7.6c-0.2-0.4-0.2-0.9,0-1.3l14-36.1c0.2-0.6,0.8-1,1.5-1.1
						c0.6-0.1,1.3,0.3,1.6,0.9l4.4,8.1c2.5,5.3,5.5,12.3,8,18.7c1.3,3.3,2.5,6.6,3.6,9.7l2.5,8.8l2.1,8.4c0.1,0.4,0,0.9-0.2,1.3
						l-20.4,32.9C341,106.2,340.4,106.5,339.8,106.5z M327.5,54.7l3.1,7c1.9,5.2,4.1,11.8,5.8,17.7c0.9,3.1,1.7,6.2,2.4,9.1
						c0.6,3.1,1.1,5.9,1.5,8.3l0.5,3.3l17.6-28.4l-2-7.7l-2.5-8.7c-1-2.9-2.3-6.2-3.6-9.5c-2.5-6.4-5.5-13.2-7.9-18.4l-2.6-4.8
						L327.5,54.7z"></path></g>
				</g>
			</g>
			<g>
				<g id="change1_12"><path fill="#FFFFFF" d="M365,125.5c-0.2,0-0.4,0-0.6-0.1c-0.4-0.2-0.8-0.5-0.9-0.9c-2.2-2.5-20.9-16.6-23.7-18
					c-0.3,0-0.5-0.1-0.8-0.3c-0.8-0.5-1-1.5-0.5-2.3l20.4-32.9c0.4-0.6,1-0.9,1.7-0.8c0.7,0.1,1.2,0.6,1.4,1.3l1.8,8.2
					c1.1,4.9,1.8,11.8,2.5,18.4c0.7,7.8,1,13.5,0.8,17.9l-0.3,7.8c0,0,0,0,0,0c0,0.4-0.2,0.8-0.4,1.1
					C365.9,125.3,365.5,125.5,365,125.5z M342.2,104.2c5,3,15.8,11.5,21.2,16.1l0.2-4.4c0.2-4.2,0-9.7-0.8-17.4
					c-0.7-6.5-1.4-13.3-2.4-18l-0.9-4.2L342.2,104.2z"></path></g>
			</g>
			<g>
				<g id="change1_13"><path fill="#FFFFFF" d="M365,125.5c-0.2,0-0.4,0-0.6-0.1c-0.7-0.3-1.1-0.9-1-1.6l0.3-7.9c0.2-4.2,0-9.7-0.8-17.4
					c-0.7-6.5-1.4-13.3-2.4-18l-1.8-8.2c-0.1-0.7,0.1-1.3,0.7-1.7c0.6-0.4,1.3-0.4,1.9-0.1l5.2,3.1c2.1,1.2,4.4,3,6.8,4.8
					c1.3,1,2.7,2.1,4.1,3.1l1.8,1.3c3.4,2.5,6.5,4.9,8.8,7.1l4.4,4c0.3,0.3,0.5,0.7,0.6,1.2c0,0.4-0.1,0.9-0.4,1.2L366.2,125
					C365.9,125.4,365.4,125.5,365,125.5z M362.8,75.5l1,4.3c1.1,4.9,1.8,11.8,2.5,18.4c0.7,7.8,1,13.5,0.8,17.9l-0.1,3.3l21.8-23.9
					l-3.2-2.9c-2.2-2.2-5.2-4.4-8.5-6.9l-1.8-1.3c-1.4-1-2.8-2.1-4.2-3.1c-2.3-1.8-4.5-3.5-6.5-4.6L362.8,75.5z"></path></g>
			</g>
			<g>
				<g id="change1_14"><path fill="#FFFFFF" d="M391.1,97c-0.4,0-0.8-0.1-1.1-0.4l-4.5-4.1c-2.2-2.2-5.2-4.4-8.5-6.9l-1.8-1.3c-1.4-1-2.8-2.1-4.2-3.1
					c-2.3-1.8-4.5-3.5-6.5-4.6l-5.2-3.2c-0.6-0.4-0.9-1-0.8-1.7c0.1-0.7,0.6-1.2,1.3-1.4l8.5-1.9c5.2-1.1,11.9-1.8,18.9-2.6
					c9.2-0.9,15.8-1.3,20.6-1.1l9.2,0.2c0.7,0,1.3,0.4,1.5,1c0.3,0.6,0.1,1.3-0.3,1.8l-26.1,28.6C392,96.8,391.5,97,391.1,97z
					 M364.7,72.7l1.6,1c2.1,1.2,4.4,3,6.8,4.8c1.3,1,2.7,2.1,4.1,3.1l1.8,1.3c3.4,2.5,6.5,4.9,8.8,7.1l3.2,2.9l22.5-24.6l-5.6-0.1
					c-4.8-0.2-11.2,0.2-19.8,1c-7.3,0.8-13.9,1.5-18.9,2.5L364.7,72.7z"></path></g>
			</g>
			<g>
				<g id="change1_15"><path fill="#FFFFFF" d="M360.2,73.6c-0.5,0-1.1-0.3-1.4-0.7c-0.4-0.6-0.4-1.3-0.1-1.9l20.4-32.9c0.5-0.8,1.5-1,2.3-0.6l6.1,3.8
					c2.5,1.5,5.4,3.7,8.4,6c1.5,1.1,3,2.2,4.5,3.3l1.4,1c4.2,3.2,8.2,6.2,11.1,8.9l5.3,4.8c0.5,0.5,0.7,1.2,0.4,1.9
					c-0.3,0.7-1.1,1-1.6,1.1l-9.2-0.2c-4.8-0.2-11.2,0.2-19.8,1c-7.3,0.8-13.9,1.5-18.9,2.5l-8.5,1.9
					C360.5,73.6,360.4,73.6,360.2,73.6z M381.2,41.4l-17.4,28l4.6-1c5.2-1.1,11.9-1.8,18.9-2.6c9.2-0.9,15.8-1.3,20.6-1.1l4.7,0.1
					l-1.9-1.8c-2.7-2.7-6.7-5.6-10.8-8.7l-1.4-1c-1.5-1.1-3-2.3-4.5-3.4c-2.9-2.2-5.7-4.3-8.1-5.8L381.2,41.4z"></path></g>
			</g>
		</g>
		<g>
			<g>
				<g id="change1_16"><path fill="#FFFFFF" d="M386.2,148.8c-0.5,0-1.1-0.3-1.4-0.7c0-0.1-4.5-6.5-9.9-11.9c-0.9-1-1.7-1.9-2.6-2.8
					c-1.7-1.9-3.3-3.7-4.8-4.9l-3.8-3.4c-0.3-0.3-0.5-0.7-0.6-1.2c0-0.5,0.1-0.9,0.4-1.2l26.1-28.6c0.5-0.5,1.2-0.7,1.8-0.4
					c0.6,0.2,1.1,0.8,1.1,1.5l0.3,8.4c0.2,4.8-0.3,11.7-0.9,18.5c-0.9,12.9-4.1,25-4.3,25.5c-0.2,0.6-0.7,1.1-1.3,1.2
					C386.4,148.8,386.3,148.8,386.2,148.8z M367.4,123.7l2.4,2.2c1.6,1.3,3.3,3.2,5.1,5.2c0.8,0.9,1.6,1.8,2.5,2.7
					c3.3,3.3,6.2,6.9,8.1,9.4c1-4.5,2.7-12.9,3.3-21.4c0.6-6.7,1.1-13.5,0.9-18.1l-0.1-4.3L367.4,123.7z"></path></g>
			</g>
			<g>
				<g id="change1_17"><path fill="#FFFFFF" d="M417.1,125.5c-0.3,0-0.6-0.1-0.9-0.2c-0.6-0.4-0.9-1-0.8-1.7c0-0.1,2.2-13.7,1.9-27.6
					c0-7.3-0.1-14.8-0.8-19.9l-1.1-9.2c-0.1-0.7,0.3-1.4,0.9-1.7c0.6-0.3,1.4-0.2,1.9,0.3l5.3,4.8c2.4,2,5.1,5,7.9,8.1
					c1,1.1,2,2.3,3.1,3.4c8,8.2,14.7,17.7,14.8,17.8c0.5,0.7,0.4,1.8-0.4,2.3l-30.9,23.3C417.8,125.4,417.5,125.5,417.1,125.5z
					 M419.3,71l0.6,4.7c0.7,5.3,0.8,12.6,0.8,20.2c0.2,9.5-0.7,18.9-1.4,24.1l26.3-19.9c-2.1-2.9-7.4-9.8-13.5-16.1
					c-1.1-1.2-2.1-2.3-3.1-3.4c-2.7-3-5.3-5.9-7.6-7.8L419.3,71z"></path></g>
			</g>
			<g>
				<g>
					<g id="change1_18"><path fill="#FFFFFF" d="M386.2,148.8c-0.3,0-0.7-0.1-0.9-0.3c-0.6-0.4-0.9-1.1-0.7-1.8c0-0.1,3.3-12.3,4.1-24.9
						c0.6-6.7,1.1-13.5,0.9-18.1l-0.3-8.4c0-0.4,0.1-0.9,0.4-1.2l26.1-28.6c0.4-0.5,1.1-0.7,1.8-0.5c0.6,0.2,1.1,0.8,1.2,1.4
						l1.1,9.2c0.7,5.3,0.8,12.6,0.8,20.2c0.3,14.2-1.9,28-1.9,28.2c-0.1,0.4-0.3,0.8-0.7,1.1l-30.9,23.3
						C387,148.7,386.6,148.8,386.2,148.8z M392.8,95.9l0.3,7.7c0.2,4.8-0.3,11.7-0.9,18.5c-0.6,8.2-2.1,16.1-3.1,20.8l26.6-20.1
						c0.4-2.9,2.1-14.8,1.8-26.9c0-7.3-0.1-14.8-0.8-19.9l-0.7-5.5L392.8,95.9z"></path></g>
				</g>
			</g>
			<g>
				<g id="change1_19"><path fill="#FFFFFF" d="M402.9,175.6c-0.4,0-0.8-0.2-1.1-0.4c-0.4-0.3-0.6-0.8-0.5-1.3c-1.2-3.2-13.8-23-15.8-25.3
					c-0.2-0.1-0.3-0.3-0.5-0.4c-0.5-0.7-0.4-1.8,0.3-2.3l30.9-23.3c0.5-0.4,1.3-0.5,1.9-0.1c0.6,0.4,0.9,1,0.8,1.7l-1.3,8.4
					c-0.7,4.7-2.2,11.3-4.2,18c-2.3,7.7-4,12.9-5.6,16.8l-3.2,7.3c0,0,0,0,0,0c-0.2,0.4-0.4,0.7-0.8,0.9
					C403.4,175.5,403.1,175.6,402.9,175.6z M388.7,147.4c2.8,4,10.7,15.8,14.2,22.3l1.7-3.8c1.5-3.7,3.2-8.8,5.5-16.4
					c2-6.6,3.5-13,4.1-17.6l0.7-4.3L388.7,147.4z"></path></g>
			</g>
			<g>
				<g id="change1_20"><path fill="#FFFFFF" d="M402.9,175.6c-0.4,0-0.8-0.2-1.2-0.5c-0.5-0.5-0.7-1.2-0.4-1.9l3.2-7.3c1.5-3.7,3.2-8.8,5.5-16.4
					c2-6.6,3.5-13,4.1-17.6l1.3-8.4c0.1-0.7,0.6-1.2,1.3-1.4c0.7-0.2,1.3,0.1,1.8,0.6l3.6,4.8c2.5,3,5.3,7.6,7.4,11.2
					c0.9,1.5,1.8,3,2.7,4.4c1.6,2.6,3.1,5,4.2,7.1l2.7,5.5c0.4,0.8,0.1,1.8-0.8,2.2l-34.6,17.3C403.4,175.6,403.1,175.6,402.9,175.6
					z M418.2,128l-0.7,4.4c-0.7,4.7-2.2,11.3-4.2,18c-2.3,7.7-4,12.9-5.6,16.8l-1.4,3.1l29-14.5l-1.9-4c-1-2-2.5-4.3-4-6.9
					c-0.9-1.4-1.8-2.9-2.7-4.4c-2.1-3.5-4.8-8-7.2-10.9L418.2,128z"></path></g>
			</g>
			<g>
				<g id="change1_21"><path fill="#FFFFFF" d="M437.5,158.3c-0.2,0-0.4,0-0.5-0.1c-0.4-0.1-0.8-0.5-1-0.9l-2.6-5.5c-1-2-2.5-4.3-4-6.9
					c-0.9-1.4-1.8-2.9-2.7-4.4c-2.1-3.5-4.8-8-7.2-10.9l-3.7-4.9c-0.4-0.5-0.4-1.3-0.1-1.9c0.3-0.6,1-0.9,1.7-0.8l8.6,1.3
					c5.2,0.8,11.8,2.3,19.1,4.5c8.6,2.5,14.9,4.5,19.3,6.3l8.5,3.6c0.6,0.3,1,0.8,1,1.5c0,0.7-0.3,1.3-0.9,1.6l-34.6,17.3
					C438,158.3,437.7,158.3,437.5,158.3z M420.9,126.1l1.1,1.5c2.5,3,5.3,7.6,7.4,11.2c0.9,1.5,1.8,3,2.7,4.4c1.6,2.6,3.1,5,4.2,7.1
					l1.9,4l29.8-14.9l-5.1-2.2c-4.3-1.7-10.5-3.7-19-6.1c-7-2.1-13.6-3.6-18.6-4.4L420.9,126.1z"></path></g>
			</g>
			<g>
				<g id="change1_22"><path fill="#FFFFFF" d="M472.1,141.1c-0.2,0-0.4,0-0.7-0.1l-8.5-3.6c-4.3-1.7-10.5-3.7-19-6.1c-7-2.1-13.6-3.6-18.6-4.4
					l-8.6-1.3c-0.7-0.1-1.2-0.6-1.4-1.3c-0.2-0.7,0.1-1.3,0.6-1.8L447,99.1c0.4-0.3,0.8-0.4,1.3-0.3c0.4,0.1,0.8,0.3,1.1,0.7
					l4.3,5.7c3,3.8,6.5,9.4,8.8,13.3c0.9,1.5,1.9,3.1,2.8,4.6c2,3.3,3.9,6.4,5.3,9.1l3,6.1c0.3,0.3,0.5,0.7,0.5,1.2
					C473.9,140.3,473.1,141.1,472.1,141.1C472.2,141.1,472.1,141.1,472.1,141.1z M421.3,122.8l4.6,0.7c5.2,0.8,11.8,2.3,19.1,4.5
					c8.6,2.5,14.9,4.5,19.3,6.3l4.4,1.9l-1.2-2.4c-1.3-2.5-3.2-5.6-5.2-8.8c-0.9-1.5-1.9-3-2.8-4.6c-2.3-3.8-5.6-9.3-8.6-12.9
					l-3.3-4.4L421.3,122.8z"></path></g>
			</g>
		</g>
		<g>
			<g>
				<g id="change1_23"><path fill="#FFFFFF" d="M414.3,204.9c-0.1,0-0.2,0-0.4,0c-0.6-0.1-1.1-0.7-1.3-1.3c0,0-0.4-1.9-1.2-4.6l-3.7-10.1
					c-0.3-0.7-0.5-1.4-0.8-2.1c-0.4-1.1-0.8-2.2-1.2-3.2l-4.3-8.9c-0.4-0.8-0.1-1.8,0.8-2.2l34.6-17.3c0.6-0.3,1.4-0.2,1.9,0.2
					c0.5,0.5,0.7,1.2,0.5,1.8l-2.9,8l-3.1,7.9c-1.1,2.6-2.5,5.3-3.8,8l-0.5,1c-3.6,7-6.9,12.7-8.6,15.4c-2.6,4.1-4.5,6.6-4.6,6.7
					C415.3,204.7,414.8,204.9,414.3,204.9z M405.1,174.7l3.6,7.5c0.5,1.1,0.9,2.3,1.3,3.5c0.2,0.7,0.5,1.4,0.7,2.1l3.8,10.2
					c0.2,0.5,0.3,1,0.4,1.4c0.7-1,1.5-2.2,2.3-3.5c1.6-2.7,4.9-8.3,8.4-15.2l0.5-1c1.3-2.6,2.7-5.3,3.7-7.7l4.5-11.8L405.1,174.7z"></path></g>
			</g>
			<g>
				<g id="change1_24"><path fill="#FFFFFF" d="M451.5,194.4c-0.5,0-1-0.2-1.3-0.7c-0.4-0.5-0.5-1.3-0.1-1.9c0,0,1.8-3,4.1-7.5
					c1.5-3.2,4.5-9.7,7.6-17.5l0.6-1.5c1.1-2.9,2.3-5.8,3.2-8.5l2.6-8.9l2.4-9c0.2-0.7,0.8-1.2,1.5-1.3c0.7-0.1,1.4,0.3,1.7,0.9
					l6.3,13.1c0.8,1.7,1.4,3.5,2.1,5.3c0.3,0.9,0.7,1.8,1,2.7l5.4,14.9c1.3,4.2,1.9,7,2,7.1c0.2,0.9-0.3,1.8-1.2,2l-37.2,10.6
					C451.8,194.3,451.6,194.4,451.5,194.4z M472.6,144.2l-3.8,13.5c-0.9,2.9-2.1,5.8-3.2,8.7l-0.6,1.5c-3.2,8-6.2,14.6-7.7,17.8
					c-0.8,1.6-1.6,3-2.2,4.2l31.7-9c-0.3-1.2-0.8-3-1.5-5.2l-5.4-14.8c-0.3-0.9-0.7-1.8-1-2.7c-0.6-1.7-1.3-3.4-2-5L472.6,144.2z"></path></g>
			</g>
			<g>
				<g>
					<g id="change1_25"><path fill="#FFFFFF" d="M414.3,204.9c-0.5,0-1.1-0.3-1.4-0.7c-0.4-0.6-0.4-1.4,0-2c0,0,1.9-2.6,4.4-6.5
						c1.6-2.7,4.9-8.3,8.4-15.2l0.5-1c1.3-2.6,2.7-5.3,3.7-7.7l3.1-7.8l2.8-7.9c0.1-0.4,0.4-0.8,0.8-0.9l34.6-17.3
						c0.6-0.3,1.3-0.2,1.8,0.2c0.5,0.4,0.7,1.1,0.6,1.7l-5,18c-0.9,2.9-2.1,5.8-3.2,8.7l-0.6,1.5c-3.2,8-6.2,14.6-7.7,17.8
						c-2.4,4.7-4.2,7.7-4.3,7.8c-0.2,0.4-0.6,0.6-1,0.7l-37.2,10.6C414.6,204.9,414.4,204.9,414.3,204.9z M438.8,157.9l-2.6,7.4
						l-3.1,7.9c-1.1,2.6-2.5,5.3-3.8,8l-0.5,1c-3.6,7-6.9,12.7-8.6,15.4c-0.7,1-1.3,2-1.8,2.8l32-9.1c0.6-1.1,2.1-3.6,3.8-7
						c1.5-3.2,4.5-9.7,7.6-17.5l0.6-1.5c1.1-2.9,2.3-5.8,3.2-8.5l4-14.2L438.8,157.9z"></path></g>
				</g>
			</g>
			<g>
				<g id="change1_26"><path fill="#FFFFFF" d="M420.1,235.9c-0.6,0-1.2-0.4-1.5-1c-0.2-0.3-0.2-0.7-0.1-1.1c0-0.8-0.5-3.5-0.9-6
					c-0.4-2.7-0.9-5.8-1.4-9c-0.2-2.5-0.9-4.9-1.5-7c-0.3-1.2-0.7-2.4-0.9-3.4l-1.2-4.7c-0.2-0.9,0.3-1.8,1.2-2l37.2-10.6
					c0.7-0.2,1.4,0,1.8,0.6c0.4,0.5,0.5,1.3,0.1,1.9l-6.1,10.2c-2.4,3.8-5.1,8.1-8.6,12.4c-4.9,6.2-9.3,11.2-11.4,13.6
					c-2.9,3.3-5.2,5.5-5.5,5.7c-0.3,0.2-0.6,0.4-0.9,0.4C420.3,235.9,420.2,235.9,420.1,235.9z M416.3,204.4l0.8,3.2
					c0.2,1,0.5,2.1,0.8,3.2c0.6,2.3,1.4,4.8,1.6,7.6c0.4,3.1,0.9,6.2,1.3,8.8c0.2,1.3,0.4,2.4,0.5,3.3c0.8-0.8,1.8-1.9,2.8-3.1
					c2.2-2.4,6.5-7.3,11.3-13.5c3.4-4.1,6-8.4,8.4-12.1l3.9-6.5L416.3,204.4z"></path></g>
			</g>
			<g>
				<g id="change1_27"><path fill="#FFFFFF" d="M420.1,235.9c-0.7,0-1.3-0.4-1.5-1c-0.3-0.7-0.1-1.4,0.4-1.9c0,0,2.4-2.2,5.3-5.5
					c2.2-2.4,6.5-7.3,11.3-13.5c3.4-4.1,6-8.4,8.4-12.1l1.8-2.8l4.3-7.3c0.3-0.6,1-0.9,1.7-0.8c0.7,0.1,1.2,0.6,1.4,1.2l1.5,5.9
					c0.3,1.2,0.6,2.5,1,3.9c0.8,2.8,1.6,6,2,9.3l2,13.1c0.7,3.6,0.7,6.1,0.7,6.2c0,0.9-0.7,1.6-1.5,1.7l-38.5,3.5
					C420.2,235.9,420.2,235.9,420.1,235.9z M450.9,197l-4.1,6.7c-2.4,3.8-5.1,8.1-8.6,12.4c-4.9,6.2-9.3,11.2-11.4,13.6
					c-0.8,0.9-1.5,1.7-2.2,2.4l32.2-2.9c-0.1-1-0.3-2.5-0.6-4.2l-2-13.2c-0.3-3.2-1.2-6.2-1.9-8.9c-0.4-1.4-0.8-2.8-1-4L450.9,197z"></path></g>
			</g>
			<g>
				<g id="change1_28"><path fill="#FFFFFF" d="M458.6,232.4c-0.4,0-0.8-0.2-1.1-0.4c-0.3-0.3-0.6-0.8-0.6-1.2c0,0-0.1-2.4-0.7-5.7l-2-13
					c-0.4-3.4-1.2-6.4-1.9-9.1c-0.4-1.4-0.8-2.8-1-4l-1.5-5.8c-0.2-0.7,0.1-1.4,0.6-1.8c0.6-0.4,1.3-0.4,1.9-0.1l10.2,6.2
					c4,2.5,9.1,5.7,13.4,9.2c4.9,3.8,10.6,8.5,15.4,12.8c4.3,3.7,6.8,6.4,6.9,6.5c0.4,0.5,0.6,1.2,0.3,1.8c-0.2,0.6-0.8,1-1.4,1.1
					l-38.5,3.5C458.7,232.4,458.7,232.4,458.6,232.4z M454.1,196.2l0.5,1.9c0.3,1.2,0.6,2.5,1,3.9c0.8,2.8,1.6,6,2,9.3l2,13.1
					c0.3,1.8,0.5,3.3,0.6,4.4l33.2-3c-1.1-1-2.5-2.3-4.2-3.8c-4.8-4.3-10.4-8.9-15.3-12.7c-4.2-3.5-9.1-6.5-13.1-9L454.1,196.2z"></path></g>
			</g>
			<g>
				<g id="change1_29"><path fill="#FFFFFF" d="M497.3,228.8C497.2,228.8,497.2,228.8,497.3,228.8c-0.5,0-1-0.2-1.3-0.5c0,0-2.5-2.7-6.7-6.3
					c-4.8-4.3-10.4-8.9-15.3-12.7c-4.2-3.5-9.1-6.5-13.1-9l-10.2-6.1c-0.6-0.3-0.9-1-0.8-1.7c0.1-0.7,0.6-1.2,1.2-1.4l37.2-10.6
					c0.4-0.1,0.9-0.1,1.3,0.2c0.4,0.2,0.7,0.6,0.8,1l1.8,6.9c0.3,1.4,0.7,2.9,1.1,4.4c0.9,3.4,1.9,7.2,2.4,11.2l2.4,15.5
					c0.6,3.3,0.7,5.7,0.8,6.8c0.1,0.2,0.1,0.4,0.1,0.6C498.9,228.1,498.2,228.8,497.3,228.8z M455.7,193.2l6.9,4.2
					c4,2.5,9.1,5.7,13.4,9.2c4.9,3.8,10.6,8.5,15.4,12.8c1.4,1.2,2.6,2.3,3.6,3.2c-0.1-0.7-0.2-1.5-0.4-2.4l-2.4-15.6
					c-0.4-3.8-1.4-7.5-2.3-10.8c-0.4-1.6-0.8-3.1-1.1-4.5l-1.3-5.2L455.7,193.2z"></path></g>
			</g>
		</g>
		<g>
			<g>
				<g id="change1_30"><path fill="#FFFFFF" d="M420.1,267.5c-0.3,0-0.6-0.1-0.8-0.2c-0.6-0.3-0.9-0.9-0.9-1.6l0.8-15.8l-0.8-15.6
					c0-0.9,0.6-1.7,1.5-1.8l38.5-3.5c0.6-0.1,1.3,0.3,1.7,0.9c0.3,0.6,0.2,1.3-0.2,1.9c-0.1,0.1-9.3,10.8-18.5,19.5
					c-10.2,8.9-20.3,15.9-20.4,16C420.8,267.4,420.4,267.5,420.1,267.5z M421.9,235.7l0.7,14.2l-0.6,12.5
					c3.7-2.7,10.4-7.8,17.2-13.7c6-5.6,12-12.2,15.4-16L421.9,235.7z"></path></g>
			</g>
			<g>
				<g id="change1_31"><path fill="#FFFFFF" d="M497.2,274.6c-0.1,0-0.1,0-0.2,0l-38.5-3.5c-0.7-0.1-1.3-0.5-1.5-1.2c-0.2-0.6,0-1.4,0.5-1.8
					c0.1-0.1,10.2-8.8,20.2-19.2c9-10.2,18-22.6,18.1-22.7c0.4-0.6,1.2-0.8,1.8-0.6c0.7,0.2,1.2,0.8,1.2,1.5l1.1,22.9l-1.1,23
					c0,0.5-0.2,0.9-0.6,1.2C498,274.4,497.6,274.6,497.2,274.6z M462.7,268l32.9,3l1-21.1l-0.9-18c-3.4,4.5-9.4,12.3-15.5,19.2
					C473.4,258.3,466.5,264.6,462.7,268z"></path></g>
			</g>
			<g>
				<g>
					<g id="change1_32"><path fill="#FFFFFF" d="M458.6,271c-0.1,0-0.1,0-0.2,0l-38.5-3.5c-0.7-0.1-1.3-0.6-1.5-1.3c-0.2-0.7,0.1-1.4,0.7-1.8
						c0.1-0.1,10-7,20-15.7c9-8.5,18.1-19.1,18.2-19.2c0.3-0.3,0.7-0.5,1.1-0.6l38.5-3.5c0.6-0.1,1.3,0.3,1.6,0.8
						c0.3,0.6,0.3,1.3-0.1,1.8c-0.1,0.1-9.1,12.6-18.3,23c-10.2,10.6-20.4,19.4-20.5,19.5C459.4,270.9,459,271,458.6,271z
						 M424.7,264.5l33.3,3.1c2.2-1.9,11-9.7,19.7-18.8c6.3-7.2,12.6-15.4,15.8-19.7l-34.1,3.1c-2,2.2-10,11.4-18,18.9
						C435,256.8,428.6,261.7,424.7,264.5z"></path></g>
				</g>
			</g>
			<g>
				<g id="change1_33"><path fill="#FFFFFF" d="M414.3,298.4c-0.4,0-0.8-0.1-1.1-0.4c-0.5-0.4-0.7-1.1-0.6-1.7l1.2-4.8c0.2-1,0.5-2.1,0.9-3.3
					c0.6-2.1,1.3-4.5,1.5-6.9c0.4-3.3,1-6.4,1.4-9.1c0.4-2.6,0.8-5.2,0.9-6c0-0.2-0.1-0.4,0-0.6c0.1-0.9,0.9-1.6,1.8-1.5l38.5,3.5
					c0.7,0.1,1.2,0.5,1.4,1.1c0.2,0.6,0,1.3-0.5,1.8c-0.1,0.1-2.6,2.3-6.9,5.4c-4.7,3.5-10.2,7.3-15.1,10.4
					c-4.3,2.9-9.3,5.4-13.3,7.4l-2.4,1.2l-7.1,3.3C414.7,298.4,414.5,298.4,414.3,298.4z M421.7,267.6c-0.1,1.1-0.4,2.7-0.8,5.1
					c-0.4,2.6-0.9,5.8-1.3,8.9c-0.2,2.7-1,5.2-1.6,7.5c-0.3,1.1-0.6,2.2-0.8,3.2l-0.4,1.4l6.3-3c3.9-1.9,8.8-4.3,12.9-7.2
					c4.9-3.1,10.3-6.9,15-10.3c1.3-1,2.5-1.9,3.5-2.6L421.7,267.6z"></path></g>
			</g>
			<g>
				<g id="change1_34"><path fill="#FFFFFF" d="M451.5,309c-0.2,0-0.3,0-0.5-0.1l-37.2-10.6c-0.7-0.2-1.2-0.8-1.2-1.5c-0.1-0.7,0.3-1.4,1-1.7l9.5-4.5
					c3.9-1.9,8.8-4.3,12.9-7.2c4.9-3.1,10.3-6.9,15-10.3c4.1-2.9,6.5-5.1,6.6-5.2c0.5-0.5,1.2-0.6,1.8-0.3c0.6,0.3,1,0.9,1,1.6
					c0,0.1-0.1,2.6-0.7,6.3l-2,13.1c-0.3,3.3-1.2,6.5-2,9.3c-0.4,1.4-0.7,2.6-1,3.8l-1.5,5.9c-0.1,0.4-0.4,0.8-0.8,1
					C452.1,308.9,451.8,309,451.5,309z M419.1,296.4l31.2,8.9l1.1-4.2c0.3-1.2,0.6-2.5,1-3.9c0.7-2.7,1.6-5.7,1.9-8.8l2-13.3
					c0.1-0.7,0.2-1.3,0.3-1.8c-1,0.8-2.2,1.7-3.7,2.7c-4.7,3.5-10.2,7.3-15.1,10.4c-4.3,2.9-9.3,5.4-13.3,7.4L419.1,296.4z"></path></g>
			</g>
			<g>
				<g id="change1_35"><path fill="#FFFFFF" d="M488.7,319.6c-0.2,0-0.3,0-0.5-0.1L451,309c-0.9-0.3-1.4-1.2-1.2-2l1.5-5.9c0.3-1.2,0.6-2.5,1-3.9
					c0.7-2.7,1.6-5.7,1.9-8.8l2-13.3c0.6-3.4,0.7-5.8,0.7-5.8c0-0.7,0.5-1.3,1.1-1.5c0.7-0.2,1.4-0.1,1.8,0.4
					c0.1,0.1,2.5,2.7,5.4,6.9c3.6,4.8,7.6,10.7,11.1,16c3.3,4.9,5.8,9.8,8,14.2c0.6,1.2,1.2,2.3,1.7,3.4l3.9,8.1
					c0.3,0.3,0.5,0.7,0.5,1.2C490.5,318.8,489.7,319.6,488.7,319.6C488.8,319.6,488.7,319.6,488.7,319.6z M453.5,306.2l32,9.1
					l-2.4-5c-0.5-1-1.1-2.2-1.7-3.4c-2.2-4.3-4.6-9.1-7.8-13.8c-3.4-5.4-7.4-11.1-11-15.9c-1-1.4-1.9-2.5-2.6-3.5
					c-0.1,0.6-0.2,1.3-0.3,2.1l-2,13.1c-0.3,3.3-1.2,6.5-2,9.3c-0.4,1.4-0.7,2.6-1,3.8L453.5,306.2z"></path></g>
			</g>
			<g>
				<g id="change1_36"><path fill="#FFFFFF" d="M488.7,319.6c-0.6,0-1.2-0.4-1.5-1l-4.1-8.4c-0.5-1-1.1-2.2-1.7-3.4c-2.2-4.3-4.6-9.1-7.8-13.8
					c-3.4-5.4-7.4-11.1-11-15.9c-2.9-4-5.2-6.6-5.2-6.6c-0.5-0.5-0.6-1.3-0.3-1.9c0.3-0.6,1-1,1.7-0.9l38.5,3.5
					c0.9,0.1,1.6,0.8,1.5,1.7c0,0.1-0.1,3-0.8,7.3l-2.4,15.6c-0.5,3.9-1.5,7.8-2.4,11.1c-0.4,1.6-0.8,3-1.1,4.4l-1.8,7
					c-0.2,0.7-0.8,1.2-1.5,1.3C488.8,319.6,488.8,319.6,488.7,319.6z M462.5,271.4c0.8,1,1.8,2.3,2.8,3.7c3.6,4.8,7.6,10.7,11.1,16
					c3.3,4.9,5.8,9.8,8,14.2c0.6,1.2,1.2,2.3,1.7,3.4l2.1,4.3l0.6-2.5c0.3-1.3,0.7-2.8,1.1-4.5c0.9-3.3,1.9-7,2.3-10.7l2.4-15.7
					c0.4-2.3,0.6-4.1,0.7-5.3L462.5,271.4z"></path></g>
			</g>
		</g>
		<g>
			<g>
				<g id="change1_37"><path fill="#FFFFFF" d="M402.9,327.8c-0.5,0-1-0.2-1.3-0.6c-0.4-0.5-0.5-1.2-0.2-1.8l4.4-9c0.4-1,0.8-2,1.2-3.1
					c0.3-0.7,0.5-1.4,0.8-2.2l3.7-10.1c0.8-2.6,1.2-4.5,1.2-4.5c0.1-0.5,0.4-0.9,0.8-1.1c0.4-0.2,0.9-0.3,1.3-0.2l37.2,10.6
					c0.6,0.2,1.1,0.7,1.2,1.4c0.1,0.7-0.2,1.3-0.8,1.7c-0.1,0.1-3,1.8-7.5,4.1c-5.5,2.6-11.7,5.3-17,7.4l-1.2,0.5
					c-2.6,1-5.2,2-7.7,2.8l-8,2.3l-7.7,1.9C403.1,327.8,403,327.8,402.9,327.8z M415.5,298.9c-0.2,0.8-0.5,1.9-0.9,3.2l-3.8,10.3
					c-0.3,0.7-0.5,1.4-0.8,2.1c-0.4,1.2-0.8,2.4-1.3,3.4l-2.8,5.8l12.1-3.3c2.4-0.8,4.9-1.7,7.4-2.7l1.2-0.5
					c5.3-2.1,11.4-4.7,16.7-7.3c1.4-0.7,2.7-1.4,3.8-2L415.5,298.9z"></path></g>
			</g>
			<g>
				<g id="change1_38"><path fill="#FFFFFF" d="M472.1,362.3c-0.3,0-0.5-0.1-0.8-0.2l-34.6-17.3c-0.6-0.3-1-0.9-0.9-1.6c0-0.7,0.5-1.3,1.1-1.5l16.5-6.2
					c2.5-1.1,5.1-2.4,7.7-3.7l1.5-0.7c5.6-2.9,12-6.4,17.6-9.6c4.6-2.8,7.5-5,7.5-5c0.6-0.4,1.3-0.4,1.9,0c0.6,0.4,0.9,1.1,0.7,1.8
					c0,0.1-0.7,2.9-2,7l-5.4,14.9c-0.3,0.9-0.7,1.8-1,2.7c-0.7,1.8-1.3,3.6-2.1,5.3l-6.3,13.2c-0.2,0.4-0.5,0.7-1,0.9
					C472.5,362.3,472.3,362.3,472.1,362.3z M441.8,343.6l29.6,14.8l5.5-11.6c0.7-1.6,1.3-3.3,2-5c0.3-0.9,0.7-1.8,1-2.7l5.4-14.8
					c0.3-0.9,0.5-1.7,0.7-2.4c-1.1,0.7-2.5,1.6-4,2.6c-5.6,3.3-12.1,6.8-17.8,9.7l-1.5,0.7c-2.7,1.4-5.3,2.7-7.9,3.8L441.8,343.6z"></path></g>
			</g>
			<g>
				<g>
					<g id="change1_39"><path fill="#FFFFFF" d="M437.5,345c-0.3,0-0.5-0.1-0.8-0.2l-34.6-17.3c-0.6-0.3-1-1-0.9-1.7c0.1-0.7,0.6-1.3,1.3-1.4l15.6-4.2
						c2.4-0.8,4.9-1.7,7.5-2.7l1.2-0.5c5.3-2.1,11.4-4.7,16.7-7.3c4.3-2.2,7.2-3.9,7.2-3.9c0.4-0.2,0.9-0.3,1.3-0.2l37.2,10.6
						c0.6,0.2,1.1,0.7,1.2,1.3c0.1,0.6-0.1,1.3-0.7,1.7c-0.1,0.1-3.1,2.2-7.8,5.2c-5.6,3.3-12.1,6.8-17.8,9.7l-1.5,0.7
						c-2.7,1.4-5.3,2.7-7.9,3.8l-8.5,3.3l-8.2,2.9C437.9,345,437.7,345,437.5,345z M407.7,326.6l29.9,14.9l15.9-6
						c2.5-1.1,5.1-2.4,7.7-3.7l1.5-0.7c5.6-2.9,12-6.4,17.6-9.6c1.8-1.1,3.4-2.2,4.6-3l-33.1-9.4c-1.1,0.6-3.5,2-6.8,3.7
						c-5.5,2.6-11.7,5.3-17,7.4l-1.2,0.5c-2.6,1-5.2,2-7.7,2.8L407.7,326.6z"></path></g>
				</g>
			</g>
			<g>
				<g id="change1_40"><path fill="#FFFFFF" d="M386.3,354.5L386.3,354.5c-0.3,0-0.7-0.1-1-0.3c-0.6-0.4-0.9-1.2-0.7-1.8c0.1-0.4,0.4-0.8,0.7-1
					c2-2.3,14.6-22.1,15.8-25.2c0-0.3,0-0.6,0.2-0.9c0.4-0.8,1.5-1.1,2.2-0.7l34.6,17.3c0.6,0.3,1,0.9,0.9,1.6
					c0,0.7-0.5,1.3-1.2,1.5l-7.9,2.6c-4.3,1.3-10.4,2.7-18.1,4.1c-6.6,1.3-12.9,2.2-17.7,2.4l-7.7,0.4
					C386.4,354.5,386.3,354.5,386.3,354.5z M403.7,328.4c-2.5,5-9.8,16.7-13.9,22.5l4.2-0.2c4.7-0.2,10.8-1.1,17.3-2.3
					c7.7-1.5,13.6-2.8,17.8-4.1l4-1.3L403.7,328.4z"></path></g>
			</g>
			<g>
				<g id="change1_41"><path fill="#FFFFFF" d="M417.1,377.9c-0.4,0-0.7-0.1-1-0.3l-30.9-23.3c-0.6-0.4-0.8-1.2-0.6-1.8c0.2-0.7,0.8-1.2,1.5-1.2
					l7.9-0.4c4.7-0.2,10.8-1.1,17.3-2.3c7.7-1.5,13.6-2.8,17.8-4.1l7.9-2.6c0.7-0.2,1.3,0,1.8,0.5c0.4,0.5,0.5,1.2,0.3,1.8l-2.6,5.5
					c-1.1,2.2-2.6,4.6-4.2,7.2c-0.9,1.4-1.8,2.9-2.7,4.4c-2.1,3.6-4.9,8.2-7.5,11.3l-3.6,4.8c-0.3,0.4-0.7,0.6-1.1,0.7
					C417.3,377.9,417.2,377.9,417.1,377.9z M390.9,354.3l25.8,19.6l2.6-3.5c2.4-3,5.1-7.4,7.2-10.9c0.9-1.5,1.8-3,2.7-4.4
					c1.6-2.5,3-4.9,4.1-6.9l0.9-1.8l-4.2,1.4c-4.3,1.3-10.4,2.7-18.1,4.1c-6.6,1.3-12.9,2.2-17.7,2.4L390.9,354.3z"></path></g>
			</g>
			<g>
				<g id="change1_42"><path fill="#FFFFFF" d="M448.1,401.2C448,401.2,448,401.2,448.1,401.2c-0.4,0-0.8-0.1-1.1-0.3l-30.9-23.3
					c-0.7-0.6-0.9-1.6-0.3-2.3l3.6-4.8c2.4-3,5.1-7.4,7.2-10.9c0.9-1.5,1.8-3,2.7-4.4c1.6-2.5,3-4.9,4.1-6.9l2.6-5.4
					c0.3-0.6,1-1.1,1.6-0.9c0.7,0,1.3,0.5,1.5,1.2l2.7,8.3c1.6,5.5,3.1,12.7,4.4,19c1.5,7.6,2.6,14.9,2.9,20.1l0.6,8.7
					c0.1,0.2,0.1,0.4,0.1,0.6C449.7,400.5,449,401.2,448.1,401.2z M419.5,375.9L446,396l-0.4-5.5c-0.3-5-1.3-12.2-2.8-19.6
					c-1.2-6.2-2.7-13.3-4.3-18.6l-1.4-4.3l-0.8,1.7c-1.1,2.2-2.6,4.6-4.2,7.2c-0.9,1.4-1.8,2.9-2.7,4.4c-2.1,3.6-4.9,8.2-7.5,11.3
					L419.5,375.9z"></path></g>
			</g>
			<g>
				<g id="change1_43"><path fill="#FFFFFF" d="M448,401.2c-0.2,0-0.3,0-0.5-0.1c-0.7-0.2-1.2-0.8-1.2-1.5l-0.6-9.2c-0.3-5-1.3-12.2-2.8-19.6
					c-1.2-6.2-2.7-13.3-4.3-18.6l-2.7-8.2c-0.2-0.6,0-1.4,0.5-1.8c0.5-0.4,1.2-0.5,1.8-0.2l34.6,17.3c0.8,0.4,1.2,1.4,0.8,2.2
					l-3.1,6.4c-1.4,2.7-3.3,5.8-5.3,9.1c-0.9,1.5-1.8,3-2.8,4.6c-2.3,3.9-5.8,9.5-8.8,13.3l-4.2,5.7C449,401,448.5,401.2,448,401.2z
					 M440.3,346.7l1.5,4.5c1.6,5.5,3.1,12.7,4.4,19c1.5,7.6,2.6,14.9,2.9,20.1l0.3,4.7l1.6-2.1c3-3.7,6.3-9.2,8.6-13
					c0.9-1.6,1.9-3.1,2.8-4.6c2-3.3,3.9-6.3,5.2-8.9l2.4-4.9L440.3,346.7z"></path></g>
			</g>
		</g>
		<g>
			<g>
				<g id="change1_44"><path fill="#FFFFFF" d="M393.2,379.7c-0.9,0-1.9,0-2.8,0c-6.8,0-12.8-0.1-17.8-0.9l-7.8-1c-0.7-0.1-1.2-0.5-1.4-1.2
					c-0.2-0.6,0-1.3,0.5-1.8l3.7-3.3c1.6-1.2,3.2-3.1,4.9-5c0.8-0.9,1.7-1.9,2.5-2.8c5.5-5.5,9.9-11.9,9.9-11.9
					c0.3-0.4,0.7-0.6,1.1-0.7c0.5-0.1,0.9,0,1.3,0.3l30.9,23.3c0.5,0.4,0.8,1.1,0.6,1.8c-0.2,0.7-0.7,1.1-1.4,1.3
					C417.3,377.9,405.5,379.7,393.2,379.7z M368.8,375l4.3,0.6c4.8,0.7,10.7,0.8,17.4,0.8c0.9,0,1.8,0,2.8,0
					c7.7,0,15.2-0.8,19.6-1.3l-26.2-19.8c-1.7,2.3-5.2,6.8-9.3,10.9c-0.8,0.9-1.6,1.8-2.4,2.7c-1.8,2-3.5,4-5.2,5.3L368.8,375z"></path></g>
			</g>
			<g>
				<g id="change1_45"><path fill="#FFFFFF" d="M417.1,435c-0.5,0-0.9-0.2-1.2-0.5l-26.1-28.6c-0.5-0.5-0.6-1.2-0.3-1.8c0.3-0.6,1-0.9,1.6-1l8.7,0.3
					c0.9,0,1.8,0.1,2.7,0.1l0,0c4.7,0,10.2-0.4,16.4-1c14.2-1,28.5-4.5,28.7-4.5c0.7-0.2,1.4,0.1,1.8,0.7c0.4,0.6,0.4,1.3,0,1.9
					c-0.1,0.1-6.8,9.6-14.8,17.8c-1,1.1-2,2.2-3.1,3.3c-2.8,3.1-5.5,6-8,8.1l-5.2,4.8C417.9,434.9,417.5,435,417.1,435z M395,406.6
					l22.2,24.4l4-3.7c2.4-2,5-4.8,7.7-7.9c1-1.1,2.1-2.3,3.1-3.4c4.8-5,9.1-10.4,11.8-13.8c-5.5,1.2-15.1,3-24.8,3.6
					c-6.2,0.5-11.8,1-16.6,1l0,0c-1,0-1.9,0-2.9-0.1L395,406.6z"></path></g>
			</g>
			<g>
				<g>
					<g id="change1_46"><path fill="#FFFFFF" d="M402.5,406.8c-1,0-1.9,0-2.9-0.1l-8.7-0.3c-0.5,0-0.9-0.2-1.2-0.5l-26.1-28.6c-0.5-0.5-0.6-1.3-0.3-1.9
						c0.3-0.6,1-0.9,1.7-0.9l7.9,1c4.8,0.7,10.7,0.8,17.4,0.8c0.9,0,1.8,0,2.8,0c12,0,23.5-1.8,23.6-1.8c0.5-0.1,0.9,0,1.3,0.3
						l30.9,23.3c0.5,0.4,0.8,1,0.6,1.7c-0.1,0.6-0.6,1.1-1.2,1.3c-0.1,0-14.8,3.6-29.2,4.6C412.9,406.3,407.4,406.8,402.5,406.8z
						 M391.8,403.1l8,0.3c5.4,0.2,11.7-0.3,19.1-0.9c10-0.7,20-2.6,25.2-3.7L416.7,378c-2.7,0.4-12.9,1.8-23.4,1.8c0,0,0,0,0,0
						c-0.9,0-1.9,0-2.8,0c-6.8,0-12.8-0.1-17.8-0.9l-3.3-0.4L391.8,403.1z"></path></g>
				</g>
			</g>
			<g>
				<g id="change1_47"><path fill="#FFFFFF" d="M391.1,406.4C391,406.4,391,406.4,391.1,406.4l-8.5-0.5c-4.3-0.2-10.4-1.1-18.3-2.6
					c-6.1-1.2-12.5-2.5-17.3-4l-7.4-2.5c-0.4-0.1-0.8-0.4-1-0.7c-0.4-0.6-0.4-1.4,0.1-2c0.3-0.4,0.9-0.6,1.4-0.7
					c2.2-1,21.3-15.5,23.5-18c0.1-0.2,0.2-0.4,0.4-0.6c0.7-0.6,1.7-0.5,2.4,0.1l25.8,28.3c0.5,0.3,0.8,0.8,0.8,1.4
					C392.8,405.7,392.1,406.4,391.1,406.4C391.1,406.4,391.1,406.4,391.1,406.4z M343.9,394.8l4,1.3c4.7,1.5,10.9,2.7,16.9,3.9
					c7.7,1.5,13.7,2.3,17.9,2.5l4.3,0.3l-22.1-24.3C360.8,382.2,349.9,390.8,343.9,394.8z"></path></g>
			</g>
			<g>
				<g id="change1_48"><path fill="#FFFFFF" d="M360.2,429.7c-0.6,0-1.1-0.3-1.4-0.8l-20.4-32.9c-0.4-0.6-0.3-1.4,0.1-1.9c0.4-0.6,1.2-0.8,1.8-0.6
					l7.6,2.5c4.7,1.5,10.9,2.7,16.9,3.9c7.7,1.5,13.7,2.3,17.9,2.5l8.4,0.5c0.7,0,1.3,0.5,1.5,1.1c0.2,0.6,0.1,1.3-0.5,1.8l-4.5,4.1
					c-2.2,2.2-5.4,4.6-8.8,7.1l-1.8,1.3c-1.4,1-2.8,2.1-4.1,3.1c-2.4,1.8-4.7,3.6-6.8,4.8l-5.2,3.1
					C360.8,429.7,360.5,429.7,360.2,429.7z M343.7,398.2l17.1,27.5l3.7-2.3c1.9-1.1,4.1-2.8,6.5-4.6c1.4-1,2.8-2.1,4.2-3.1l1.7-1.3
					c3.3-2.4,6.3-4.7,8.4-6.8l1.6-1.4l-4.4-0.3c-4.3-0.2-10.4-1.1-18.3-2.6c-6.1-1.2-12.5-2.5-17.3-4L343.7,398.2z"></path></g>
			</g>
			<g>
				<g id="change1_49"><path fill="#FFFFFF" d="M380.6,462.6c-0.6,0-1.1-0.3-1.4-0.8l-20.4-32.9c-0.2-0.4-0.3-0.8-0.2-1.3c0.1-0.4,0.4-0.8,0.8-1.1
					l5.2-3.1c1.9-1.1,4.1-2.8,6.5-4.6c1.4-1,2.8-2.1,4.2-3.1l1.7-1.3c3.3-2.4,6.3-4.7,8.4-6.8l4.5-4.1c0.5-0.5,1.3-0.6,1.9-0.3
					c0.6,0.3,1,0.9,1,1.6l-0.5,8.7c-0.2,4.7-1.1,10.7-2.7,19.3c-1.3,6.4-2.8,14.4-4.5,19.8l-2.8,8.8c-0.2,0.6-0.7,1.1-1.4,1.2
					C380.8,462.6,380.7,462.6,380.6,462.6z M362.6,428.6l17.6,28.3l1.7-5.3c1.6-5.2,3.2-13.1,4.4-19.4c1.6-8.5,2.4-14.3,2.6-18.9
					l0.3-4.5l-1.4,1.3c-2.2,2.2-5.4,4.6-8.8,7.1l-1.8,1.3c-1.4,1-2.8,2.1-4.1,3.1c-2.4,1.8-4.7,3.6-6.8,4.8L362.6,428.6z"></path></g>
			</g>
			<g>
				<g id="change1_50"><path fill="#FFFFFF" d="M380.6,462.6c-0.4,0-0.7-0.1-1-0.4c-0.6-0.4-0.8-1.2-0.6-1.8l2.8-8.8c1.6-5.2,3.2-13.1,4.4-19.4
					c1.6-8.5,2.4-14.3,2.6-18.9l0.5-8.7c0-0.7,0.5-1.3,1.1-1.5c0.6-0.2,1.3-0.1,1.8,0.4l26.1,28.6c0.3,0.3,0.5,0.8,0.4,1.2
					c0,0.4-0.2,0.9-0.6,1.2l-5.3,4.8c-2.8,2.7-6.8,5.7-11.1,8.9l-1.4,1c-1.5,1.1-3,2.3-4.5,3.4c-3,2.3-5.9,4.4-8.4,6l-6.1,3.7
					C381.2,462.5,380.9,462.6,380.6,462.6z M392.5,408.8l-0.3,4.7c-0.2,4.7-1.1,10.7-2.7,19.3c-1.3,6.4-2.8,14.4-4.5,19.8l-1.4,4.5
					l2.3-1.4c2.4-1.4,5.2-3.5,8.1-5.8c1.5-1.1,3-2.3,4.5-3.4l1.3-1c4.2-3.1,8.1-6,10.8-8.7l4.1-3.7L392.5,408.8z"></path></g>
			</g>
		</g>
		<g>
			<g>
				<g id="change1_51"><path fill="#FFFFFF" d="M360.2,429.7c-0.1,0-0.3,0-0.4-0.1l-8.2-2.1c-2.5-0.7-5.3-1.4-8.2-2.4c-3.1-1.1-6.2-2.3-9.3-3.5
					c-5.7-2.3-11.6-4.9-16.2-7.1l-7.1-4c-0.6-0.3-0.9-0.9-0.9-1.6c0.1-0.7,0.5-1.2,1.1-1.4l4.6-1.7l14.8-7.1l8.4-5.1
					c0.8-0.5,1.8-0.2,2.3,0.6l20.2,32.5c0.3,0.3,0.6,0.8,0.6,1.3C362,429,361.3,429.7,360.2,429.7
					C360.3,429.7,360.3,429.7,360.2,429.7z M315.7,409.6l3.8,2.1c4.4,2.1,10.2,4.7,15.8,6.9c3,1.2,6.2,2.4,9.2,3.4
					c2.8,0.9,5.6,1.6,8,2.3l4.1,1l-17.3-27.9l-7.1,4.3L315.7,409.6z"></path></g>
			</g>
			<g>
				<g id="change1_52"><path fill="#FFFFFF" d="M339.7,483.1c-0.7,0-1.3-0.4-1.6-1.1l-14-36.1c-0.2-0.6-0.1-1.4,0.4-1.8c0.5-0.5,1.2-0.6,1.8-0.3l8,3.5
					c5,1.8,11.6,4,18.1,5.9c3.4,1,7,2,10.3,2.8l9,1.8l9.1,1.5c0.7,0.1,1.2,0.7,1.4,1.3c0.1,0.7-0.2,1.4-0.8,1.8l-12.4,7.5l-22,10.6
					l-6.9,2.6C340,483.1,339.9,483.1,339.7,483.1z M328.7,448.5l11.9,30.8l5.2-1.9l21.7-10.4l8.4-5l-4.7-0.8l-9.2-1.8
					c-3.5-0.9-7-1.9-10.5-2.9c-6.5-1.9-13.2-4.1-18.4-6L328.7,448.5z"></path></g>
			</g>
			<g>
				<g>
					<g id="change1_53"><path fill="#FFFFFF" d="M380.6,462.6c-0.1,0-0.2,0-0.3,0l-9.2-1.5l-9.2-1.8c-3.5-0.9-7-1.9-10.5-2.9c-6.5-1.9-13.2-4.1-18.4-6
						l-8.1-3.5c-0.4-0.2-0.7-0.5-0.9-0.9l-14-36.1c-0.3-0.7-0.1-1.4,0.5-1.9c0.5-0.5,1.3-0.5,1.9-0.2l7,3.9
						c4.4,2.1,10.2,4.7,15.8,6.9c3,1.2,6.2,2.4,9.2,3.4c2.8,0.9,5.6,1.6,8,2.3l8.2,2.1c0.4,0.1,0.8,0.4,1,0.7l20.2,32.5
						c0.3,0.3,0.6,0.8,0.6,1.3C382.4,461.9,381.7,462.6,380.6,462.6C380.7,462.6,380.7,462.6,380.6,462.6z M327,444.1l7.4,3.2
						c5,1.8,11.6,4,18.1,5.9c3.4,1,7,2,10.3,2.8l14.5,2.6l-18.1-29.1l-7.6-1.9c-2.5-0.7-5.3-1.4-8.2-2.4c-3.1-1.1-6.2-2.3-9.3-3.5
						c-5.7-2.3-11.6-4.9-16.2-7.1l-3-1.7L327,444.1z"></path></g>
				</g>
			</g>
			<g>
				<g id="change1_54"><path fill="#FFFFFF" d="M325.7,447c-0.2,0-0.5-0.1-0.7-0.2l-7.7-3.6c-4.4-2.1-10.3-5-16.1-8.9c-6.6-4.3-12-8.1-14.6-10
					c-1.5-1.1-3-2.3-4.6-3.6l-1.6-1.4c-0.7-0.6-0.8-1.6-0.3-2.3c0.5-0.6,1.1-0.7,1.7-0.8c0.7-0.1,2.2-0.2,4-0.8l10.6-2.7
					c3-0.6,5.8-1.6,8.2-2.6l6.5-2.4c0.9-0.3,1.8,0.1,2.2,1l13.8,35.6c0.2,0.3,0.4,0.7,0.4,1.1C327.4,446.2,326.7,447,325.7,447
					C325.7,447,325.7,447,325.7,447z M285.3,419c0.9,0.8,2,1.6,3.3,2.5c4.4,3.2,9.6,6.9,14.4,9.9c5.7,3.8,11.5,6.6,15.7,8.7l3.9,1.8
					l-11.9-30.6l-5,1.8c-2.4,0.9-5.5,2.1-8.7,2.7l-10.4,2.7C286.2,418.8,285.7,418.9,285.3,419z"></path></g>
			</g>
			<g>
				<g id="change1_55"><path fill="#FFFFFF" d="M288.5,457.6c-0.8,0-1.5-0.6-1.7-1.4l-7.1-38c-0.1-0.7,0.2-1.4,0.8-1.8c0.6-0.4,1.4-0.3,1.9,0.2l1.7,1.4
					c1,0.9,2.5,2.2,4.3,3.5c4.4,3.2,9.6,6.9,14.4,9.9c5.7,3.8,11.5,6.6,15.7,8.7l7.7,3.6c0.6,0.3,1,0.9,1,1.6c0,0.7-0.5,1.3-1.1,1.5
					l-7.8,2.9c-3,1.1-6.8,2.5-10.8,3.4l-12.8,3.3c-1.4,0.4-2.9,0.7-4.5,0.9l-1.6,0.2C288.7,457.6,288.6,457.6,288.5,457.6z
					 M284,422.3l5.9,31.8l0,0c1.4-0.2,2.8-0.5,4.1-0.8l12.9-3.3c3.8-0.8,7.3-2.1,10.4-3.3l4-1.5l-4-1.9c-4.4-2.1-10.3-5-16.1-8.9
					c-6.6-4.3-12-8.1-14.6-10C285.7,423.6,284.8,423,284,422.3z"></path></g>
			</g>
			<g>
				<g id="change1_56"><path fill="#FFFFFF" d="M295.6,495.7c-0.1,0-0.3,0-0.4-0.1c-0.6-0.2-1.1-0.7-1.2-1.3l-7.1-38c-0.1-0.4,0-0.9,0.3-1.3
					c0.3-0.4,0.7-0.6,1.1-0.7l1.7-0.3c1.4-0.2,2.8-0.5,4.1-0.8l12.9-3.3c3.8-0.8,7.3-2.1,10.4-3.3l7.8-2.9c0.6-0.2,1.4-0.1,1.8,0.4
					c0.5,0.5,0.6,1.2,0.3,1.9l-3.7,7.8c-2.2,4.5-5.5,11.3-9.5,17.2c-3.4,5.3-7.5,11.4-11.3,16.7c-1.3,1.9-2.7,3.7-4.2,5.4l-1.6,1.9
					C296.5,495.4,296.1,495.7,295.6,495.7z M290.5,457.3l6.1,32.8c1.2-1.4,2.3-2.9,3.4-4.4c3.8-5.3,7.9-11.3,11.2-16.6
					c3.9-5.8,7.1-12.4,9.3-16.8l1.9-4l-3.9,1.5c-3,1.1-6.8,2.5-10.8,3.4l-12.8,3.3C293.5,456.8,292,457.1,290.5,457.3z"></path></g>
			</g>
			<g>
				<g id="change1_57"><path fill="#FFFFFF" d="M295.6,495.7c-0.6,0-1.2-0.3-1.5-0.9c-0.3-0.6-0.3-1.4,0.2-1.9l1.6-1.9c1.5-1.7,2.8-3.4,4-5.2
					c3.8-5.3,7.9-11.3,11.2-16.6c3.9-5.8,7.1-12.4,9.3-16.8l3.6-7.8c0.3-0.6,0.9-0.9,1.6-1c0.7,0,1.3,0.4,1.5,1.1l14,36.1
					c0.2,0.4,0.2,0.9,0,1.3c-0.2,0.4-0.5,0.7-1,0.9l-9,3.3c-3.7,1.3-8.2,3-12.9,4.1l-15.3,3.9c-1.7,0.5-3.4,0.8-5.3,1.1l-1.9,0.3
					C295.7,495.7,295.7,495.7,295.6,495.7z M325.5,449.6l-2,4.2c-2.2,4.5-5.5,11.3-9.5,17.2c-3.4,5.3-7.5,11.4-11.3,16.7
					c-0.9,1.3-1.9,2.6-2.9,3.9c0.8-0.2,1.6-0.4,2.4-0.6l15.3-3.9c4.5-1,9-2.6,12.5-3.9l7.4-2.7L325.5,449.6z"></path></g>
			</g>
		</g>
		<g>
			<g>
				<g id="change1_58"><path fill="#FFFFFF" d="M288.6,457.6C288.6,457.6,288.5,457.6,288.6,457.6c-0.4,0-0.8-0.1-1.1-0.3l-8.7-6.5
					c-3.8-2.9-8.2-6.3-12.4-10.2c-9.7-9.2-17.6-18.5-17.7-18.6c-0.4-0.5-0.5-1.2-0.3-1.8c0.3-0.6,0.8-1,1.5-1l15.8-0.8
					c2.4-0.1,4.8-0.6,7-0.9c1.3-0.2,2.6-0.4,3.7-0.6l4.8-0.7c0.9-0.1,1.7,0.5,1.9,1.4l7,37.5c0.1,0.2,0.2,0.5,0.2,0.8
					C290.3,456.9,289.5,457.6,288.6,457.6z M253.6,422.4c3,3.4,8.7,9.6,15.2,15.7c4.1,3.9,8.3,7.1,12.1,10l5.2,3.9l-6-32.3l-3.3,0.5
					c-1.1,0.1-2.3,0.3-3.5,0.6c-2.2,0.4-4.8,0.8-7.3,1L253.6,422.4z"></path></g>
			</g>
			<g>
				<g id="change1_59"><path fill="#FFFFFF" d="M250,500c-0.4,0-0.8-0.2-1.2-0.5c-0.3-0.3-0.5-0.8-0.5-1.2v-38.7c0-0.7,0.4-1.3,1-1.6
					c0.6-0.3,1.3-0.1,1.8,0.3c0.1,0.1,9.6,9.3,21,18.2c4.7,3.7,9.6,6.8,14,9.6l2.3,1.5l8,4.8c0.6,0.4,0.9,1.1,0.8,1.8
					c-0.1,0.7-0.7,1.2-1.4,1.3l-7.1,1.1c-1.4,0.2-2.9,0.4-4.5,0.7c-3.4,0.5-7.3,1.2-11.2,1.4L250,500C250.1,500,250,500,250,500z
					 M251.7,463.5v33l21.1-1.1c3.8-0.3,7.6-0.9,10.9-1.4c1.6-0.3,3.2-0.5,4.6-0.7l2.5-0.4l-6.5-4c-4.4-2.8-9.4-6-14.2-9.8
					C262.3,473.2,255.4,466.9,251.7,463.5z"></path></g>
			</g>
			<g>
				<g>
					<g id="change1_60"><path fill="#FFFFFF" d="M295.7,495.7C295.6,495.7,295.6,495.7,295.7,495.7c-0.4,0-0.7-0.1-1-0.2l-10.4-6.4
						c-4.4-2.8-9.4-6-14.2-9.8c-11.5-9-21.1-18.3-21.2-18.4c-0.3-0.3-0.5-0.8-0.5-1.2v-38.7c0-0.7,0.4-1.3,1.1-1.6
						c0.7-0.2,1.4,0,1.9,0.5c0.1,0.1,7.9,9.3,17.5,18.3c4.1,3.8,8.3,7.1,12.1,10l8.7,6.4c0.3,0.3,0.6,0.6,0.7,1.1l7,37.5
						c0.1,0.2,0.2,0.5,0.2,0.8C297.3,494.9,296.6,495.7,295.7,495.7z M251.7,458.9c2.1,2,10.6,10,20.5,17.7c4.7,3.7,9.6,6.8,14,9.6
						l7.1,4.4l-6.3-33.7l-8.2-6.1c-3.8-2.9-8.2-6.3-12.4-10.2c-6.1-5.8-11.6-11.7-14.7-15.2V458.9z"></path></g>
				</g>
			</g>
			<g>
				<g id="change1_61"><path fill="#FFFFFF" d="M250,461.3c-0.4,0-0.9-0.2-1.2-0.5c-0.1-0.1-9.9-10.4-17.7-20.4c-3.5-4.6-6.8-9.7-9.1-13.5l-4.9-8.2
					c-0.3-0.6-0.3-1.3,0.1-1.8c0.4-0.5,1-0.8,1.6-0.7l4.9,0.7c1.1,0.1,2.3,0.3,3.6,0.6c2.1,0.4,4.6,0.8,7,0.9l15.8,0.8
					c0.9,0,1.6,0.8,1.6,1.7v38.7c0,0.7-0.4,1.3-1.1,1.6C250.4,461.3,250.2,461.3,250,461.3z M221.8,420.1l3,5.1
					c2.4,3.9,5.5,8.8,8.9,13.2c5.1,6.5,11.1,13.2,14.6,17v-32.8l-14.2-0.7c-2.6-0.2-5.1-0.6-7.4-1c-1.3-0.2-2.4-0.4-3.5-0.5
					L221.8,420.1z"></path></g>
			</g>
			<g>
				<g id="change1_62"><path fill="#FFFFFF" d="M250.1,461.3C250.1,461.3,250,461.3,250.1,461.3c-0.1,0-0.1,0-0.2,0l-19.3-1c-3.3-0.2-6.4-0.7-9.3-1.2
					c-1.5-0.2-2.8-0.5-4.1-0.6l-6-0.9c-0.5-0.1-0.9-0.3-1.1-0.7c-0.3-0.4-0.4-0.8-0.3-1.3l7.1-38c0.1-0.7,0.7-1.2,1.4-1.3
					c0.6-0.1,1.4,0.2,1.7,0.8l4.8,8.1c2.4,3.9,5.5,8.8,8.9,13.2c7,8.9,15.6,18.1,17.2,19.8c0.5,0.3,0.8,0.8,0.8,1.4
					C251.8,460.6,251,461.3,250.1,461.3z M213.5,454.5l4.3,0.7c1.2,0.2,2.6,0.4,4.1,0.6c2.7,0.4,5.8,1,8.9,1.2l15.2,0.8
					c-3.5-3.8-9.6-10.6-14.8-17.3c-3.5-4.6-6.8-9.7-9.1-13.5l-2.6-4.3L213.5,454.5z"></path></g>
			</g>
			<g>
				<g id="change1_63"><path fill="#FFFFFF" d="M204.4,495.7c-0.3,0-0.7-0.1-1-0.3c-0.6-0.4-0.8-1-0.7-1.7l7.1-38c0.2-0.9,1-1.5,1.9-1.4l6,0.9
					c1.2,0.2,2.6,0.4,4.1,0.6c2.7,0.4,5.8,1,8.9,1.2l19.3,1c0.7,0,1.3,0.5,1.5,1.1c0.2,0.6,0.1,1.3-0.4,1.8
					c-0.1,0.1-9.8,9.4-21.2,18.4c-4.9,3.8-9.8,7-14.2,9.8l-10.4,6.4C205,495.6,204.7,495.7,204.4,495.7z M212.9,457.9l-6.1,32.7
					l7.1-4.4c4.3-2.8,9.2-5.9,14-9.6c7.6-6,14.4-12.1,18.1-15.5l-15.4-0.8c-3.3-0.2-6.4-0.7-9.3-1.2c-1.5-0.2-2.8-0.5-4.1-0.6
					L212.9,457.9z"></path></g>
			</g>
			<g>
				<g id="change1_64"><path fill="#FFFFFF" d="M250,500C250,500,249.9,500,250,500l-23-1.1c-4-0.3-7.8-0.9-11.3-1.4c-1.6-0.3-3.1-0.5-4.5-0.7l-7.1-1.1
					c-0.7-0.1-1.3-0.6-1.4-1.3c-0.1-0.7,0.2-1.4,0.8-1.8l10.3-6.3c4.3-2.8,9.2-5.9,14-9.6c11.3-8.9,20.9-18.1,21-18.2
					c0.5-0.5,1.2-0.6,1.8-0.3c0.6,0.3,1,0.9,1,1.6v38.7c0,0.5-0.2,0.9-0.5,1.2C250.8,499.8,250.4,500,250,500z M209.2,493l2.5,0.4
					c1.3,0.2,2.9,0.4,4.5,0.7c3.4,0.5,7.2,1.1,10.9,1.4l21.1,1v-33c-3.7,3.4-10.6,9.6-18.4,15.7c-4.9,3.8-9.8,7-14.2,9.8L209.2,493z
					"></path></g>
			</g>
		</g>
		<g>
			<g>
				<g id="change1_65"><path fill="#FFFFFF" d="M211.5,457.6c-0.5,0-1.1-0.3-1.4-0.7l-1.3-1.9c-1.2-1.7-2.3-3.4-3.4-5.3c-3-5.1-6.3-11-8.9-16.1
					c-3.2-5.9-5.7-12.7-7.1-16.4l-2.6-7.4c-0.2-0.6-0.1-1.3,0.4-1.8s1.2-0.6,1.8-0.4l6.5,2.4c2.5,0.9,5.2,2,8.1,2.6l10.6,2.7
					c1.9,0.6,3.4,0.7,4.1,0.8c0.6,0.1,1.2,0.1,1.7,0.8c0.3,0.4,0.4,0.9,0.3,1.3l-7.1,38c-0.1,0.7-0.6,1.2-1.3,1.3
					C211.7,457.6,211.6,457.6,211.5,457.6z M191.1,412.1l1.4,4c1.3,3.6,3.8,10.3,6.9,16c2.6,5.1,5.8,10.9,8.8,15.9
					c0.7,1.3,1.5,2.5,2.3,3.7l6-32.4c-0.9-0.1-2.1-0.3-3.3-0.7l-10.4-2.7c-3.1-0.6-6.1-1.8-8.6-2.7L191.1,412.1z"></path></g>
			</g>
			<g>
				<g id="change1_66"><path fill="#FFFFFF" d="M204.4,495.7c-0.1,0-0.2,0-0.3,0l-1.9-0.3c-1.8-0.3-3.6-0.6-5.3-1.1l-15.3-3.9c-4.7-1-9.2-2.7-12.9-4.1
					l-9-3.3c-0.4-0.2-0.8-0.5-1-0.9c-0.2-0.4-0.2-0.9,0-1.3l14-36.1c0.2-0.6,0.8-1,1.5-1.1c0.6,0.1,1.3,0.4,1.6,1l3.7,7.8
					c2.1,4.4,5.4,11,9.3,16.8c3.4,5.3,7.5,11.3,11.2,16.6c1.3,1.8,2.6,3.5,4,5.2l1.4,1.6c0.4,0.3,0.7,0.8,0.7,1.4
					C206.2,494.9,205.4,495.7,204.4,495.7C204.5,495.7,204.4,495.7,204.4,495.7z M162.5,480.4l7.4,2.7c3.6,1.3,8,2.9,12.5,3.9
					l15.3,3.9c0.8,0.2,1.6,0.4,2.4,0.6c-1-1.3-2-2.6-2.9-3.9c-3.8-5.3-8-11.4-11.3-16.7c-3.9-5.9-7.3-12.7-9.5-17.2l-2-4.2
					L162.5,480.4z"></path></g>
			</g>
			<g>
				<g>
					<g id="change1_67"><path fill="#FFFFFF" d="M204.4,495.7c-0.5,0-1-0.2-1.3-0.6l-1.6-1.9c-1.5-1.8-2.9-3.6-4.2-5.4c-3.8-5.3-8-11.4-11.3-16.7
						c-3.9-5.9-7.3-12.7-9.5-17.2l-3.7-7.8c-0.2-0.4-0.2-0.9,0-1.3l14-36.1c0.3-0.7,0.9-1.1,1.6-1.1c0,0,0,0,0,0
						c0.7,0,1.3,0.5,1.6,1.1l2.6,7.4c1.3,3.6,3.8,10.3,6.9,16c2.6,5.1,5.8,10.9,8.8,15.9c1,1.8,2.1,3.4,3.3,5l1.3,1.9
						c0.3,0.4,0.4,0.8,0.3,1.3l-7.1,38c-0.1,0.6-0.6,1.2-1.2,1.3C204.7,495.6,204.6,495.7,204.4,495.7z M176.2,445.3l3.4,7.1
						c2.1,4.4,5.4,11,9.3,16.8c3.4,5.3,7.5,11.3,11.2,16.6c1.1,1.5,2.2,3,3.4,4.4l6.3-33.8l-0.9-1.3c-1.2-1.7-2.3-3.4-3.4-5.3
						c-3-5.1-6.3-11-8.9-16.1c-3.2-5.9-5.7-12.7-7.1-16.4l-1.1-3.1L176.2,445.3z"></path></g>
				</g>
			</g>
			<g>
				<g id="change1_68"><path fill="#FFFFFF" d="M174.3,447c-0.7,0-1.3-0.4-1.5-1l-3.3-7.6c-1.9-5.2-4.1-11.8-5.8-17.7c-0.9-3.1-1.7-6.2-2.4-9.1
					c-0.6-3.1-1.1-5.9-1.5-8.3l-1.2-7.8c-0.1-0.6,0.2-1.3,0.7-1.7c0.5-0.4,1.3-0.4,1.8,0l8.5,5.2l14.9,7.1l4.5,1.6
					c0.4,0.2,0.8,0.5,1,0.9c0.2,0.4,0.2,0.9,0,1.3l-14,36.1C175.7,446.6,175.1,447,174.3,447C174.4,447,174.3,447,174.3,447z
					 M162.4,398.5l0.6,4.2c0.4,2.3,0.9,5.1,1.5,8.1c0.7,2.8,1.5,5.8,2.4,8.9c1.7,5.9,3.8,12.4,5.7,17.4l1.7,3.8l11.9-30.7l-3-1.1
					l-16.5-8.1L162.4,398.5z"></path></g>
			</g>
			<g>
				<g id="change1_69"><path fill="#FFFFFF" d="M174.3,447c-0.2,0-0.4,0-0.6-0.1l-5.7-2.1l-18.6-8.9l-10.6-6.4c-0.4-0.2-0.7-0.6-0.8-1.1
					c-0.1-0.4,0-0.9,0.2-1.3l20.4-32.9c0.4-0.6,1-0.9,1.8-0.8c0.7,0.1,1.2,0.7,1.3,1.4l1.2,7.8c0.4,2.3,0.9,5.1,1.5,8.1
					c0.7,2.8,1.5,5.8,2.4,8.9c1.7,5.9,3.8,12.4,5.7,17.4l3.1,7.1c0.3,0.3,0.4,0.7,0.4,1.1C176.1,446.2,175.3,447,174.3,447
					C174.4,447,174.3,447,174.3,447z M142.1,427.5l9,5.5l20.1,9.4l-1.8-4c-1.9-5.2-4.1-11.8-5.8-17.7c-0.9-3.1-1.7-6.2-2.4-9.1
					c-0.6-3.1-1.1-5.9-1.5-8.3l-0.5-3.3L142.1,427.5z"></path></g>
			</g>
			<g>
				<g id="change1_70"><path fill="#FFFFFF" d="M119.4,462.6c-0.6,0-1.1-0.3-1.4-0.8c-0.4-0.5-0.4-1.3,0-1.8l20.4-32.9c0.5-0.8,1.5-1,2.3-0.6l10.5,6.3
					l18.3,8.8l5.5,2c0.6,0.2,1.1,0.8,1.1,1.5c0,0.7-0.4,1.3-1,1.6l-8,3.5c-5.3,2-12,4.1-18.5,6.1c-3.5,1-7,2-10.4,2.9l-9.2,1.8
					l-9.2,1.5C119.5,462.6,119.5,462.6,119.4,462.6z M140.3,430.4l-17.6,28.3l5.5-0.9l9.1-1.8c3.3-0.8,6.8-1.8,10.2-2.8
					c6.4-1.9,13.1-4,18.2-5.9l4.1-1.8l-1.7-0.6l-18.6-8.9L140.3,430.4z"></path></g>
			</g>
			<g>
				<g id="change1_71"><path fill="#FFFFFF" d="M160.3,483.1c-0.2,0-0.4,0-0.6-0.1l-6.7-2.5l-22-10.5l-12.6-7.6c-0.6-0.4-0.9-1.1-0.8-1.8
					c0.1-0.7,0.7-1.2,1.4-1.3l9.2-1.5l9.1-1.8c3.3-0.8,6.8-1.8,10.2-2.8c6.4-1.9,13.1-4,18.2-5.9l7.9-3.5c0.6-0.3,1.4-0.1,1.8,0.3
					c0.5,0.5,0.7,1.2,0.4,1.8l-14,36.1C161.7,482.7,161,483.1,160.3,483.1z M124.1,461.9l8.5,5.1l21.7,10.4l5,1.9l11.9-30.8
					l-4.3,1.9c-5.3,2-12,4.1-18.5,6.1c-3.5,1-7,2-10.4,2.9L124.1,461.9z"></path></g>
			</g>
		</g>
		<g>
			<g>
				<g id="change1_72"><path fill="#FFFFFF" d="M139.8,429.7c-0.1,0-0.2,0-0.3,0c-0.7-0.1-1.2-0.6-1.4-1.3l-1.8-8.2c-1.1-4.9-1.8-11.8-2.5-18.4
					c-0.7-7.8-1-13.4-0.8-17.9l0.3-7.8c0,0,0,0,0,0c0,0,0,0,0,0l0,0c0-0.4,0.2-0.7,0.4-1c0.5-0.6,1.2-0.7,1.9-0.5
					c0.5,0.2,0.9,0.6,1,1.1c1.6,1.8,20.7,16.4,23.6,17.8c0.3,0,0.5,0.1,0.8,0.3c0.8,0.5,1,1.5,0.5,2.3l-20.4,32.9
					C140.9,429.4,140.3,429.7,139.8,429.7z M136.6,379.7l-0.2,4.4c-0.2,4.3,0,9.8,0.8,17.4c0.7,6.5,1.4,13.3,2.4,18l0.9,4.1
					l17.3-27.8C152.8,392.9,142,384.4,136.6,379.7z"></path></g>
			</g>
			<g>
				<g id="change1_73"><path fill="#FFFFFF" d="M119.4,462.6c-0.3,0-0.6-0.1-0.9-0.2l-6.1-3.8c-2.5-1.5-5.4-3.7-8.4-5.9c-1.5-1.1-3-2.3-4.5-3.4
					l-1.5-1.1c-4.2-3.1-8.2-6.1-11-8.9l-5.3-4.8c-0.3-0.3-0.5-0.7-0.6-1.2c0-0.4,0.1-0.9,0.4-1.2l26.1-28.6c0.4-0.5,1.2-0.7,1.8-0.4
					c0.6,0.2,1.1,0.8,1.1,1.5l0.5,8.7c0.2,4.6,1.1,10.6,2.6,18.9c1.2,6.3,2.8,14.2,4.4,19.4l2.6,8.3c0.2,0.3,0.3,0.6,0.3,1
					C121.1,461.9,120.4,462.6,119.4,462.6C119.4,462.6,119.4,462.6,119.4,462.6z M85.2,433.2l4.1,3.7c2.7,2.7,6.6,5.6,10.7,8.7
					l1.4,1.1c1.5,1.1,3.1,2.3,4.6,3.4c2.9,2.2,5.7,4.3,8.1,5.7l2.3,1.4l-1.4-4.5c-1.7-5.4-3.2-13.4-4.5-19.8
					c-1.6-8.5-2.5-14.6-2.7-19.4l-0.3-4.7L85.2,433.2z"></path></g>
			</g>
			<g>
				<g>
					<g id="change1_74"><path fill="#FFFFFF" d="M119.4,462.6c-0.1,0-0.1,0-0.2,0c-0.7-0.1-1.2-0.5-1.4-1.2l-2.8-8.8c-1.7-5.4-3.2-13.4-4.5-19.8
						c-1.6-8.5-2.5-14.6-2.7-19.4l-0.5-8.6c0-0.5,0.1-0.9,0.4-1.2l26.1-28.6c0.5-0.5,1.3-0.7,1.9-0.4c0.7,0.3,1.1,0.9,1,1.6
						l-0.3,7.9c-0.2,4.3,0,9.8,0.8,17.4c0.7,6.5,1.4,13.3,2.4,18l1.8,8.2c0.1,0.4,0,0.9-0.2,1.3l-20.4,32.9
						C120.5,462.3,119.9,462.6,119.4,462.6z M110.7,405.3l0.5,7.9c0.2,4.6,1.1,10.6,2.6,18.9c1.2,6.3,2.8,14.2,4.4,19.4l1.7,5.3
						l18.1-29.2l-1.7-7.5c-1.1-4.9-1.8-11.8-2.5-18.4c-0.7-7.8-1-13.4-0.8-17.9l0.1-3.3L110.7,405.3z"></path></g>
				</g>
			</g>
			<g>
				<g id="change1_75"><path fill="#FFFFFF" d="M108.9,406.4c-0.2,0-0.4,0-0.6-0.1c-0.6-0.2-1.1-0.8-1.1-1.5l-0.3-8.4c-0.3-5,0.3-12.2,0.9-18.5
					c0.9-12.9,4.1-25,4.3-25.5c0.2-0.6,0.7-1.1,1.3-1.2c0.7-0.1,1.3,0.2,1.7,0.7c0,0.1,4.5,6.5,9.9,11.9c0.9,1,1.7,1.9,2.6,2.8
					c1.7,1.9,3.3,3.7,4.8,4.9l3.8,3.4c0.3,0.3,0.5,0.7,0.6,1.2c0,0.5-0.1,0.9-0.4,1.2l-26.1,28.6
					C109.9,406.2,109.4,406.4,108.9,406.4z M114.5,356.8c-1,4.5-2.7,12.9-3.3,21.4c-0.6,6.2-1.1,13.3-0.9,18.1l0.1,4.3l22.1-24.3
					l-2.4-2.2c-1.6-1.3-3.3-3.2-5.1-5.2c-0.8-0.9-1.6-1.8-2.5-2.7C119.3,362.8,116.4,359.2,114.5,356.8z"></path></g>
			</g>
			<g>
				<g id="change1_76"><path fill="#FFFFFF" d="M108.9,406.4c-0.4,0-0.8-0.2-1.1-0.4l-4.5-4.1c-2-1.7-4.2-4.1-6.5-6.6c-0.9-1-1.9-2.1-2.8-3.1
					c-6.8-6.9-12.3-14.7-12.5-15.1c-0.5-0.7-0.4-1.8,0.4-2.3l30.9-23.3c0.6-0.4,1.4-0.5,2-0.1c0.6,0.4,0.9,1.1,0.7,1.8
					c0,0.1-3.3,12.3-4.1,24.9c-0.6,6.2-1.1,13.3-0.9,18.1l0.3,7.9c0.1,0.2,0.1,0.4,0.1,0.6C110.7,405.7,110,406.4,108.9,406.4
					C109,406.4,109,406.4,108.9,406.4z M85.2,376.5c1.9,2.5,6.2,8.2,11.2,13.3c1,1.1,2,2.1,2.9,3.2c2.2,2.4,4.3,4.8,6.2,6.3l1.6,1.4
					l-0.1-4.4c-0.3-5,0.3-12.2,0.9-18.5c0.6-8.2,2.1-16.1,3.1-20.8L85.2,376.5z"></path></g>
			</g>
			<g>
				<g id="change1_77"><path fill="#FFFFFF" d="M97.5,406.8c-4.8,0-10.4-0.4-16.7-1c-14.4-1-29-4.6-29.2-4.6c-0.6-0.2-1.1-0.7-1.2-1.3
					c-0.1-0.6,0.1-1.3,0.6-1.7l30.9-23.3c0.4-0.3,0.8-0.4,1.3-0.3c0.4,0.1,0.9,0.3,1.1,0.7c0.1,0.1,5.6,7.9,12.2,14.7
					c1,1.1,2,2.1,2.9,3.2c2.2,2.4,4.3,4.8,6.2,6.3l4.5,4.1c0.5,0.5,0.7,1.2,0.4,1.8c-0.2,0.6-0.8,1.1-1.5,1.1l-8.7,0.3
					C99.4,406.7,98.5,406.8,97.5,406.8z M55.9,398.7c5.1,1.1,15.2,3.1,25.1,3.7c7.5,0.6,13.9,1.2,19.1,0.9l4.5-0.1l-1.4-1.3
					c-2-1.7-4.2-4.1-6.5-6.6c-0.9-1-1.9-2.1-2.8-3.1c-5.2-5.3-9.6-11-11.5-13.6L55.9,398.7z"></path></g>
			</g>
			<g>
				<g id="change1_78"><path fill="#FFFFFF" d="M82.9,435c-0.4,0-0.8-0.2-1.1-0.4l-5.3-4.8c-2.4-2-5.1-5-7.9-8.1c-1-1.1-2-2.3-3.1-3.4
					c-8-8.2-14.7-17.7-14.8-17.8c-0.4-0.6-0.4-1.3,0-1.9c0.4-0.6,1.1-0.9,1.8-0.7c0.1,0,14.5,3.6,28.6,4.5
					c7.5,0.6,13.9,1.2,19.1,0.9l8.7-0.3c0.7,0.1,1.3,0.4,1.6,1c0.3,0.6,0.2,1.3-0.3,1.8l-26.1,28.6C83.8,434.8,83.4,435,82.9,435
					C82.9,435,82.9,435,82.9,435z M56.1,402.2c2.7,3.5,7,8.9,11.8,13.8c1.1,1.2,2.1,2.3,3.1,3.4c2.7,3,5.3,5.9,7.6,7.8l4.1,3.7
					l22.3-24.4l-4.7,0.2c-5.3,0.2-11.9-0.3-19.5-0.9C71.2,405.1,61.6,403.3,56.1,402.2z"></path></g>
			</g>
		</g>
		<g>
			<g>
				<g id="change1_79"><path fill="#FFFFFF" d="M82.9,377.9c-0.3,0-0.6-0.1-0.9-0.2c-0.6-0.4-0.9-1-0.8-1.7l1.3-8.4c0.7-4.7,2.2-11.3,4.2-18
					c2.3-7.7,4-12.9,5.6-16.8l3.2-7.3l0,0c0,0,0,0,0,0c0,0,0-0.1,0-0.1l0,0c0.2-0.3,0.4-0.6,0.7-0.8c0.6-0.3,1.4-0.3,1.9,0.2
					c0.4,0.4,0.6,0.9,0.5,1.5c0.9,2.5,13.8,22.8,15.8,25.1c0.2,0.1,0.3,0.3,0.5,0.4c0.5,0.7,0.4,1.8-0.3,2.3l-30.9,23.3
					C83.6,377.8,83.3,377.9,82.9,377.9z M97.2,330.2l-1.7,3.8c-1.5,3.7-3.2,8.8-5.5,16.4c-2,6.6-3.5,13-4.1,17.6l-0.7,4.3l26.1-19.8
					C108.5,348.6,100.7,336.8,97.2,330.2z"></path></g>
			</g>
			<g>
				<g id="change1_80"><path fill="#FFFFFF" d="M52,401.2c-0.5,0-1-0.2-1.3-0.7l-4.3-5.7c-2.3-2.9-5.1-7.1-8.8-13.3c-0.9-1.6-1.9-3.1-2.8-4.6
					c-2-3.3-3.9-6.4-5.3-9l-3.2-6.5c-0.4-0.8-0.1-1.8,0.8-2.2l34.6-17.3c0.6-0.3,1.3-0.2,1.8,0.2c0.5,0.4,0.7,1.2,0.5,1.8l-2.7,8.3
					c-1.6,5.3-3,12.4-4.3,18.6c-1.5,7.5-2.5,14.6-2.8,19.6l-0.7,9.3c0,0.7-0.5,1.3-1.2,1.5C52.4,401.2,52.2,401.2,52,401.2z
					 M30.1,361.4l2.4,4.9c1.3,2.5,3.2,5.6,5.2,8.8c0.9,1.5,1.9,3.1,2.8,4.6c3.6,6,6.3,10.1,8.6,12.9l1.6,2.2l0.3-4.7
					c0.3-5.1,1.3-12.4,2.9-20.1c1.2-6.3,2.7-13.5,4.3-18.9l1.5-4.5L30.1,361.4z"></path></g>
			</g>
			<g>
				<g>
					<g id="change1_81"><path fill="#FFFFFF" d="M52,401.2c-0.3,0-0.6-0.1-0.8-0.2c-0.6-0.3-0.9-0.9-0.9-1.6l0.6-9.2c0.3-5.1,1.3-12.4,2.9-20.1
						c1.2-6.3,2.7-13.5,4.3-18.9l2.7-8.3c0.1-0.4,0.4-0.8,0.8-1l34.6-17.3c0.6-0.3,1.4-0.2,1.9,0.3c0.5,0.5,0.7,1.3,0.4,1.9
						l-3.2,7.3c-1.5,3.7-3.2,8.8-5.5,16.4c-2,6.6-3.5,13-4.1,17.6l-1.3,8.4c-0.1,0.4-0.3,0.8-0.7,1.1L53,400.9
						C52.8,401.1,52.4,401.2,52,401.2z M63.9,344.6l-2.5,7.6c-1.6,5.3-3,12.4-4.3,18.6c-1.5,7.5-2.5,14.6-2.8,19.6L54,396l27.4-20.7
						l1.2-7.7c0.7-4.7,2.2-11.3,4.2-18c2.3-7.7,4-12.9,5.6-16.8l1.4-3.1L63.9,344.6z"></path></g>
				</g>
			</g>
			<g>
				<g id="change1_82"><path fill="#FFFFFF" d="M62.5,345c-0.4,0-0.8-0.1-1.1-0.4c-0.5-0.5-0.7-1.2-0.5-1.8l2.9-8l3.1-7.9c1.1-2.6,2.5-5.3,3.8-8l0.5-1
					c3.5-6.9,6.9-12.7,8.6-15.4c2.6-4.1,4.5-6.6,4.6-6.7c0.4-0.5,1.1-0.8,1.7-0.6c0.6,0.1,1.1,0.7,1.3,1.3c0,0,0.4,1.9,1.2,4.6
					l3.7,10.1c0.3,0.7,0.5,1.4,0.8,2.1c0.4,1.1,0.8,2.2,1.2,3.2l4.4,8.9c0.4,0.8,0.1,1.8-0.8,2.2l-34.6,17.3
					C63,345,62.8,345,62.5,345z M85,300.7c-0.7,1-1.5,2.2-2.3,3.5c-1.6,2.7-5,8.4-8.4,15.2l-0.5,1c-1.3,2.6-2.7,5.3-3.7,7.7
					L65.5,340l29.4-14.7l-3.6-7.5c-0.5-1.1-0.9-2.3-1.3-3.5c-0.2-0.7-0.5-1.4-0.7-2l-3.8-10.2C85.3,301.6,85.1,301.1,85,300.7z"></path></g>
			</g>
			<g>
				<g id="change1_83"><path fill="#FFFFFF" d="M62.5,345c-0.6,0-1.2-0.4-1.5-1l-5.3-11c-0.6-1.4-1.2-2.9-1.7-4.4c-0.3-0.8-0.6-1.6-0.9-2.4l-4.6-12.5
					c-1.1-3.6-1.7-6.1-1.7-6.1c-0.2-0.9,0.3-1.7,1.2-2l37.2-10.6c0.7-0.2,1.4,0.1,1.8,0.7c0.4,0.6,0.4,1.4,0,2c0,0-1.9,2.6-4.4,6.5
					c-1.6,2.7-5,8.4-8.4,15.2l-0.5,1c-1.3,2.6-2.7,5.3-3.7,7.7l-3.1,7.8l-2.8,7.9C63.9,344.6,63.3,345,62.5,345
					C62.6,345,62.5,345,62.5,345z M50.5,308.5c0.3,1,0.7,2.4,1.2,4.2l4.5,12.4c0.3,0.8,0.6,1.6,0.9,2.5c0.5,1.4,1,2.8,1.6,4.1
					l3.5,7.4l1.5-4.2l3.1-7.9c1.1-2.6,2.5-5.3,3.8-8l0.5-1c3.5-6.9,6.9-12.7,8.6-15.4c0.7-1,1.3-2,1.8-2.8L50.5,308.5z"></path></g>
			</g>
			<g>
				<g id="change1_84"><path fill="#FFFFFF" d="M62.5,345c-0.2,0-0.4,0-0.6-0.1l-16.6-6.2c-2.7-1.1-5.3-2.4-8-3.8l-1.4-0.7c-5.7-2.9-12.2-6.4-17.8-9.7
					c-4.7-2.9-7.7-5.1-7.8-5.2c-0.5-0.4-0.8-1-0.7-1.7c0.1-0.6,0.6-1.2,1.2-1.3l37.2-10.6c0.4-0.1,0.9-0.1,1.3,0.2
					c0.4,0.2,0.7,0.6,0.8,1.1c0,0,0.5,2.3,1.6,5.7l4.5,12.4c0.3,0.8,0.6,1.6,0.9,2.5c0.5,1.4,1,2.8,1.6,4.1l5.1,10.6
					c0.3,0.3,0.5,0.7,0.5,1.1C64.3,344.3,63.5,345,62.5,345C62.6,345,62.5,345,62.5,345z M15.2,318.6c1.2,0.8,2.8,1.9,4.7,3
					c5.5,3.3,11.9,6.8,17.5,9.6l1.4,0.7c2.6,1.3,5.2,2.6,7.7,3.7l12.6,4.8l-3.5-7.3c-0.6-1.4-1.2-2.9-1.7-4.4
					c-0.3-0.8-0.6-1.6-0.9-2.4l-4.6-12.5c-0.6-1.8-1-3.3-1.2-4.3L15.2,318.6z"></path></g>
			</g>
			<g>
				<g id="change1_85"><path fill="#FFFFFF" d="M27.9,362.3c-0.2,0-0.4,0-0.5-0.1c-0.4-0.1-0.8-0.5-1-0.9l-6.3-13.1c-0.8-1.7-1.4-3.5-2.1-5.3
					c-0.3-0.9-0.6-1.8-1-2.7l-5.4-14.9c-1.3-4.2-1.9-7-2-7.1c-0.2-0.7,0.1-1.4,0.7-1.8c0.6-0.4,1.3-0.4,1.9,0c0,0,3,2.2,7.6,5
					c5.5,3.3,11.9,6.8,17.5,9.6l1.4,0.7c2.6,1.3,5.2,2.6,7.7,3.7l8.4,3.3l8.1,2.9c0.6,0.2,1.1,0.8,1.1,1.5c0,0.7-0.3,1.3-0.9,1.6
					l-34.6,17.3C28.4,362.3,28.1,362.3,27.9,362.3z M14.1,321.9c0.2,0.7,0.5,1.6,0.7,2.4l5.4,14.8c0.3,0.9,0.7,1.8,1,2.7
					c0.6,1.8,1.3,3.5,2,5.1l5.5,11.5l29.6-14.8l-12.9-4.9c-2.7-1.1-5.3-2.4-8-3.8l-1.4-0.7c-5.7-2.9-12.2-6.4-17.8-9.7
					C16.6,323.5,15.2,322.6,14.1,321.9z"></path></g>
			</g>
		</g>
		<g>
			<g>
				<g id="change1_86"><path fill="#FFFFFF" d="M48.5,309c-0.5,0-1-0.2-1.3-0.7c-0.4-0.5-0.5-1.3-0.1-1.9l6.1-10.2c2.4-3.8,5.1-8.1,8.6-12.4
					c4.8-6.2,9.2-11.2,11.4-13.6c2.9-3.3,5.2-5.5,5.5-5.7l0,0c0,0,0,0,0,0l0,0c0.3-0.2,0.6-0.4,0.9-0.4c0.7-0.1,1.4,0.3,1.8,0.9
					c0.2,0.3,0.2,0.7,0.1,1.1c0.1,0.8,0.5,3.5,0.9,6.1c0.4,2.6,0.9,5.8,1.4,8.9c0.2,2.5,0.9,4.9,1.5,7c0.3,1.2,0.7,2.4,0.9,3.4
					l1.2,4.7c0.2,0.9-0.3,1.8-1.2,2L49,309C48.8,309,48.7,309,48.5,309z M78.6,269.5c-0.8,0.8-1.8,1.9-2.8,3.1
					c-2.2,2.4-6.5,7.3-11.3,13.5c-3.4,4.1-6,8.4-8.4,12.1l-3.9,6.5l31.6-9l-0.8-3.2c-0.2-1-0.5-2.1-0.8-3.2
					c-0.6-2.3-1.4-4.8-1.6-7.6c-0.4-3-0.9-6.2-1.3-8.8C78.9,271.4,78.7,270.4,78.6,269.5z"></path></g>
			</g>
			<g>
				<g id="change1_87"><path fill="#FFFFFF" d="M11.3,319.6c-0.1,0-0.1,0-0.2,0c-0.7-0.1-1.3-0.6-1.5-1.3l-1.8-7c-0.3-1.4-0.7-2.9-1.1-4.4
					c-0.9-3.4-1.9-7.2-2.4-11.2L2,280.2c-0.7-4.3-0.8-7.2-0.8-7.3c0-0.9,0.6-1.7,1.5-1.7l38.5-3.5c0.6-0.1,1.3,0.3,1.7,0.9
					c0.3,0.6,0.2,1.4-0.3,1.9c0,0-2.3,2.6-5.2,6.6c-2.1,2.9-6.3,8.7-11,15.9c-3.2,4.8-5.7,9.6-7.9,13.9c-0.6,1.2-1.2,2.3-1.8,3.4
					l-4,8.4C12.5,319.2,11.9,319.6,11.3,319.6z M4.6,274.4c0.1,1.2,0.3,3.1,0.7,5.3l2.4,15.6c0.4,3.8,1.4,7.5,2.3,10.8
					c0.4,1.6,0.8,3.1,1.1,4.5l0.6,2.4l2.1-4.3c0.6-1.1,1.2-2.3,1.8-3.4c2.2-4.4,4.7-9.3,8.1-14.2c4.7-7.3,8.9-13.2,11-16
					c1-1.4,2-2.7,2.8-3.7L4.6,274.4z"></path></g>
			</g>
			<g>
				<g>
					<g id="change1_88"><path fill="#FFFFFF" d="M11.3,319.6c-0.5,0-1-0.2-1.3-0.6c-0.4-0.5-0.5-1.2-0.2-1.8l4.1-8.4c0.6-1.1,1.2-2.3,1.8-3.4
						c2.2-4.4,4.7-9.3,8.1-14.2c4.7-7.3,8.9-13.2,11-16c2.9-4.1,5.3-6.7,5.4-6.9c0.3-0.3,0.7-0.5,1.1-0.5l38.5-3.5
						c0.6-0.1,1.4,0.3,1.7,1c0.3,0.7,0.1,1.4-0.4,1.9c0,0-2.4,2.2-5.3,5.5c-2.2,2.4-6.5,7.3-11.3,13.5c-3.4,4.1-6,8.4-8.4,12.1
						L50,308.2c-0.2,0.4-0.6,0.6-1,0.8l-37.2,10.6C11.6,319.6,11.4,319.6,11.3,319.6z M42.2,271c-0.8,0.9-2.6,3.1-4.8,6.1
						c-3.6,4.8-7.6,10.6-11,15.9c-3.2,4.8-5.7,9.6-7.9,13.9c-0.6,1.2-1.2,2.3-1.8,3.4l-2.4,5l33-9.4l5.8-9.6
						c2.4-3.8,5.1-8.1,8.6-12.4c4.8-6.2,9.2-11.2,11.4-13.6c0.8-0.9,1.5-1.7,2.2-2.4L42.2,271z"></path></g>
				</g>
			</g>
			<g>
				<g id="change1_89"><path fill="#FFFFFF" d="M41.4,271c-0.6,0-1.2-0.3-1.5-0.9c-0.3-0.6-0.2-1.3,0.2-1.9c0.1-0.1,9.3-10.8,18.5-19.5
					c10.2-8.9,20.3-15.9,20.4-16c0.5-0.4,1.2-0.4,1.8-0.1c0.6,0.3,0.9,0.9,0.9,1.6l-0.8,15.8l0.8,15.6c0,0.9-0.6,1.7-1.5,1.8
					L41.5,271C41.5,271,41.4,271,41.4,271z M78,237.6c-3.7,2.7-10.4,7.8-17.2,13.7c-6,5.6-12,12.2-15.4,16l32.7-3l-0.7-14.2
					L78,237.6z"></path></g>
			</g>
			<g>
				<g id="change1_90"><path fill="#FFFFFF" d="M41.4,271c-0.2,0-0.4,0-0.5-0.1c-0.7-0.2-1.1-0.8-1.1-1.5l-1-19.3l1-19.5c0-0.5,0.2-0.9,0.6-1.2
					c0.3-0.3,0.8-0.5,1.3-0.4l38.5,3.5c0.7,0.1,1.3,0.6,1.5,1.3c0.2,0.7-0.1,1.4-0.7,1.8c-0.1,0.1-10,7-20,15.7
					c-9,8.5-18.1,19.1-18.2,19.2C42.3,270.8,41.8,271,41.4,271z M43,232.5l-0.9,17.6l0.8,15c3.4-3.8,9.6-10.6,15.7-16.4
					c6.4-5.6,12.8-10.5,16.7-13.3L43,232.5z"></path></g>
			</g>
			<g>
				<g id="change1_91"><path fill="#FFFFFF" d="M41.4,271c-0.4,0-0.8-0.1-1.1-0.4c-0.1-0.1-10.3-8.9-20.5-19.5c-9.2-10.4-18.3-22.9-18.4-23
					c-0.4-0.5-0.4-1.2-0.1-1.8c0.3-0.6,1.1-0.9,1.6-0.8l38.5,3.5c0.9,0.1,1.6,0.9,1.5,1.8l-1,19.3l1,18.6c0.1,0.2,0.1,0.4,0.1,0.6
					C43.1,270.3,42.4,271,41.4,271C41.4,271,41.4,271,41.4,271z M6.4,229.2c3.2,4.3,9.5,12.5,15.9,19.7c6.7,7,13.4,13.2,17.2,16.5
					l-0.8-15.4l0.9-17.9L6.4,229.2z"></path></g>
			</g>
			<g>
				<g id="change1_92"><path fill="#FFFFFF" d="M2.8,274.6c-0.4,0-0.8-0.1-1.1-0.4c-0.3-0.3-0.6-0.7-0.6-1.2L0,250.1l1.1-23c0-0.7,0.5-1.3,1.2-1.5
					c0.7-0.2,1.4,0,1.8,0.6c0.1,0.1,9.1,12.5,18.1,22.7c10,10.4,20.1,19.1,20.2,19.2c0.5,0.4,0.7,1.1,0.5,1.8
					c-0.2,0.6-0.8,1.1-1.5,1.2L3,274.6C2.9,274.6,2.9,274.6,2.8,274.6z M4.3,231.9l-0.9,18.2l1,21l32.9-3
					c-3.8-3.4-10.7-9.7-17.5-16.9C13.7,244.2,7.7,236.4,4.3,231.9z"></path></g>
			</g>
		</g>
		<g>
			<g>
				<g id="change1_93"><path fill="#FFFFFF" d="M79.9,235.9c-0.1,0-0.1,0-0.2,0l-38.5-3.5c-0.7-0.1-1.2-0.5-1.4-1.1c-0.2-0.6,0-1.3,0.5-1.8
					c0.1-0.1,2.6-2.3,6.9-5.4c4.8-3.5,10.3-7.3,15.1-10.4c4.3-2.9,9.3-5.4,13.3-7.4l2.4-1.2l7.1-3.3c0.6-0.3,1.3-0.2,1.8,0.2
					c0.5,0.4,0.7,1.1,0.6,1.7l-1.2,4.8c-0.2,1-0.5,2.1-0.9,3.3c-0.6,2.1-1.3,4.5-1.5,6.9c-0.4,3.2-0.9,6.4-1.4,9
					c-0.4,2.4-0.8,4.9-0.9,5.9c0.1,0.2,0.1,0.4,0.1,0.6C81.7,235.1,80.9,235.9,79.9,235.9C79.9,235.9,79.9,235.9,79.9,235.9z
					 M45.6,229.4l32.7,3c0.1-1.1,0.4-2.7,0.8-5.2c0.4-2.6,0.9-5.7,1.3-8.9c0.2-2.7,1-5.2,1.6-7.5c0.3-1.1,0.6-2.2,0.8-3.2l0.4-1.4
					l-6.3,3c-3.9,1.9-8.8,4.4-12.9,7.2c-4.8,3.1-10.3,6.8-15,10.3C47.7,227.7,46.5,228.6,45.6,229.4z"></path></g>
			</g>
			<g>
				<g id="change1_94"><path fill="#FFFFFF" d="M2.8,228.8c-0.2,0-0.4,0-0.6-0.1c-0.6-0.3-1.1-0.9-1-1.6c0-0.1,0.1-3,0.8-7.3l2.4-15.6
					c0.5-3.9,1.5-7.7,2.4-11.1c0.4-1.6,0.8-3,1.1-4.4l1.8-7c0.1-0.4,0.4-0.8,0.8-1c0.4-0.2,0.9-0.3,1.3-0.2L49,191.1
					c0.6,0.2,1.1,0.7,1.2,1.4c0.1,0.7-0.2,1.3-0.8,1.7l-10.2,6.1c-4,2.5-8.9,5.6-13.1,9c-5,3.8-10.5,8.5-15.4,12.7
					c-4.2,3.6-6.7,6.2-6.7,6.3C3.7,228.6,3.3,228.8,2.8,228.8z M12.5,184.2l-1.4,5.3c-0.3,1.3-0.7,2.8-1.1,4.5
					c-0.9,3.3-1.9,7-2.3,10.7l-2.4,15.7c-0.1,0.9-0.3,1.7-0.4,2.4c1-0.9,2.2-2,3.6-3.2c4.9-4.3,10.5-9,15.5-12.8
					c4.3-3.5,9.3-6.7,13.4-9.2l6.9-4.2L12.5,184.2z"></path></g>
			</g>
			<g>
				<g>
					<g id="change1_95"><path fill="#FFFFFF" d="M41.4,232.4c-0.1,0-0.1,0-0.2,0l-38.5-3.5c-0.6-0.1-1.2-0.5-1.4-1.1c-0.2-0.6-0.1-1.3,0.3-1.8
						c0.1-0.1,2.6-2.8,7-6.5c4.9-4.3,10.5-9,15.5-12.8c4.3-3.5,9.3-6.7,13.4-9.2l2.8-1.8l7.4-4.4c0.4-0.2,0.9-0.3,1.3-0.2l37.2,10.6
						c0.7,0.2,1.2,0.8,1.2,1.5c0.1,0.7-0.3,1.4-1,1.7l-9.5,4.5c-3.9,1.9-8.8,4.4-12.9,7.2c-4.8,3.1-10.3,6.8-15,10.3
						c-4.1,2.9-6.5,5.1-6.6,5.2C42.2,232.2,41.8,232.4,41.4,232.4z M6.6,225.8l34.2,3.1c1-0.8,3.1-2.6,6.3-4.9
						c4.7-3.5,10.3-7.3,15.1-10.4c4.3-2.9,9.3-5.4,13.3-7.4l5.4-2.6l-32.2-9.1l-9.6,5.8c-4,2.5-8.9,5.6-13.1,9
						c-5,3.8-10.5,8.5-15.4,12.7C9.1,223.5,7.7,224.8,6.6,225.8z"></path></g>
				</g>
			</g>
			<g>
				<g id="change1_96"><path fill="#FFFFFF" d="M85.7,204.9c-0.2,0-0.3,0-0.5-0.1l-37.2-10.6c-0.6-0.2-1.1-0.7-1.2-1.4c-0.1-0.7,0.2-1.3,0.8-1.7
					c0.1-0.1,3-1.8,7.5-4.1c5.5-2.6,11.7-5.3,17-7.4l1.2-0.5c2.6-1,5.1-2,7.7-2.8l8-2.3l7.7-1.9c0.7-0.2,1.3,0.1,1.7,0.6
					c0.4,0.5,0.5,1.2,0.2,1.8l-4.4,9c-0.4,1-0.8,2-1.2,3.1c-0.2,0.7-0.5,1.4-0.8,2.2l-3.7,10.1c-0.8,2.6-1.2,4.5-1.2,4.5
					c-0.1,0.5-0.4,0.9-0.8,1.1C86.3,204.8,86,204.9,85.7,204.9z M52.8,192.2l31.7,9c0.2-0.8,0.5-1.9,0.9-3.2l3.8-10.2
					c0.3-0.7,0.5-1.4,0.7-2.1c0.4-1.2,0.8-2.4,1.3-3.5l2.8-5.8L82,179.7c-2.4,0.8-4.9,1.7-7.4,2.7l-1.2,0.5
					c-5.3,2.1-11.4,4.7-16.7,7.3C55.2,190.9,53.9,191.6,52.8,192.2z"></path></g>
			</g>
			<g>
				<g id="change1_97"><path fill="#FFFFFF" d="M48.5,194.4c-0.3,0-0.7-0.1-1-0.3c-0.5-0.4-0.8-1.1-0.7-1.7c0,0,0.5-2.4,1.6-6l4.6-12.6
					c0.3-0.8,0.6-1.6,0.9-2.4c0.5-1.5,1.1-2.9,1.7-4.3l5.3-11.1c0.2-0.4,0.5-0.7,1-0.9c0.4-0.1,0.9-0.1,1.3,0.1l34.6,17.3
					c0.6,0.3,1,1,0.9,1.7c-0.1,0.7-0.6,1.3-1.3,1.4L82,179.7c-2.4,0.8-4.9,1.7-7.4,2.7l-1.2,0.5c-5.3,2.1-11.4,4.7-16.7,7.3
					c-4.3,2.2-7.2,3.9-7.2,3.9C49.1,194.3,48.8,194.4,48.5,194.4z M63.3,158.9l-4.6,9.5c-0.6,1.2-1.1,2.6-1.6,4
					c-0.3,0.8-0.6,1.7-0.9,2.5l-4.6,12.5c-0.2,0.7-0.4,1.3-0.5,1.8c1.1-0.6,2.4-1.3,4-2.1c5.5-2.6,11.7-5.3,17-7.4l1.2-0.5
					c2.6-1,5.1-2,7.7-2.8l11.3-3.1L63.3,158.9z"></path></g>
			</g>
			<g>
				<g id="change1_98"><path fill="#FFFFFF" d="M48.5,194.4c-0.6,0-1.1-0.3-1.4-0.8c-0.1-0.1-1.9-3.1-4.2-7.8c-1.6-3.3-4.6-9.9-7.8-17.8l-0.6-1.5
					c-1.1-2.9-2.3-5.9-3.2-8.7l-2.6-9l-2.4-9.1c-0.2-0.6,0.1-1.3,0.6-1.7c0.5-0.4,1.2-0.5,1.8-0.2l34.6,17.3
					c0.8,0.4,1.2,1.4,0.8,2.2l-5.3,11c-0.6,1.2-1.1,2.6-1.6,4c-0.3,0.8-0.6,1.7-0.9,2.5l-4.6,12.5c-1,3.3-1.5,5.6-1.5,5.6
					c-0.1,0.7-0.7,1.2-1.4,1.3C48.7,194.4,48.6,194.4,48.5,194.4z M30.5,142.5l1.4,5.4l2.6,8.9c0.9,2.7,2,5.6,3.1,8.4l0.6,1.5
					c3.1,7.8,6.1,14.4,7.6,17.6c0.8,1.5,1.5,2.8,2.1,3.9c0.2-0.6,0.4-1.2,0.6-1.9l4.6-12.6c0.3-0.8,0.6-1.6,0.9-2.4
					c0.5-1.5,1.1-2.9,1.7-4.3l4.6-9.6L30.5,142.5z"></path></g>
			</g>
			<g>
				<g id="change1_99"><path fill="#FFFFFF" d="M48.5,194.4c-0.2,0-0.3,0-0.5-0.1l-37.2-10.6c-0.9-0.2-1.4-1.1-1.2-2c0-0.1,0.7-2.9,2-7l5.3-14.7
					c0.4-1.1,0.8-2,1.1-2.9c0.7-1.8,1.3-3.6,2.1-5.3l6.3-13.2c0.3-0.6,1-1,1.7-0.9c0.7,0.1,1.3,0.6,1.5,1.3l2.4,9l2.6,8.9
					c0.9,2.7,2,5.6,3.1,8.4l0.6,1.5c3.1,7.8,6.1,14.4,7.6,17.6c1.8,3.6,3.3,6.2,3.9,7.1c0.3,0.3,0.5,0.8,0.5,1.2
					C50.3,193.6,49.4,194.5,48.5,194.4C48.5,194.4,48.5,194.4,48.5,194.4z M13.3,180.9l31.7,9c-0.6-1.2-1.4-2.6-2.2-4.1
					c-1.6-3.3-4.6-9.9-7.8-17.8l-0.6-1.5c-1.1-2.9-2.3-5.9-3.2-8.7l-3.9-13.6l-4.3,9c-0.7,1.6-1.3,3.3-1.9,5c-0.3,0.9-0.7,1.8-1,2.7
					l-5.4,14.8C14.1,177.9,13.6,179.7,13.3,180.9z"></path></g>
			</g>
		</g>
		<g>
			<g>
				<g id="change1_100"><path fill="#FFFFFF" d="M97.1,175.6c-0.3,0-0.5-0.1-0.8-0.2l-34.6-17.3c-0.6-0.3-1-0.9-0.9-1.6c0-0.7,0.5-1.3,1.2-1.5l8-2.6
					c4.3-1.3,10.3-2.6,18.1-4.1c6.6-1.3,12.9-2.2,17.7-2.4l7.7-0.4c0.4-0.1,0.9,0.1,1.2,0.3c0.6,0.4,0.9,1.2,0.7,1.8
					c-0.1,0.4-0.4,0.8-0.7,1c-2,2.2-14.2,21.4-15.7,25.1c0,0.1,0,0.2,0,0.3C98.9,174.8,98.2,175.6,97.1,175.6
					C97.2,175.6,97.2,175.6,97.1,175.6z M66.9,157l29.3,14.6c2.5-5,9.8-16.7,13.9-22.5l-4.2,0.2c-4.7,0.2-10.8,1.1-17.2,2.3
					c-7.7,1.5-13.7,2.8-17.8,4.1L66.9,157z"></path></g>
			</g>
			<g>
				<g id="change1_101"><path fill="#FFFFFF" d="M27.9,141.1c-0.5,0-0.9-0.2-1.2-0.5c-0.5-0.5-0.6-1.3-0.3-1.9l3.1-6.4c1.4-2.7,3.3-5.8,5.3-9.1
					c0.9-1.5,1.9-3.1,2.8-4.6c3.7-6.2,6.5-10.4,8.8-13.3l4.3-5.7c0.3-0.4,0.7-0.6,1.1-0.7c0.4-0.1,0.9,0.1,1.3,0.3l30.9,23.3
					c0.5,0.4,0.8,1.1,0.6,1.8c-0.2,0.7-0.7,1.2-1.4,1.3l-8.5,1.3c-5,0.7-11.6,2.3-18.6,4.4c-8.5,2.5-14.7,4.5-19,6.2l-8.4,3.6
					C28.3,141,28.1,141.1,27.9,141.1z M52.4,102.8l-3.3,4.4c-2.3,2.9-5,7-8.6,13c-0.9,1.6-1.9,3.1-2.8,4.6c-2,3.2-3.8,6.3-5.2,8.8
					l-1.1,2.3l4.3-1.8c4.4-1.7,10.8-3.8,19.3-6.3c7.2-2.1,13.8-3.7,19.1-4.5l4.6-0.7L52.4,102.8z"></path></g>
			</g>
			<g>
				<g>
					<g id="change1_102"><path fill="#FFFFFF" d="M62.5,158.3c-0.3,0-0.5-0.1-0.8-0.2l-34.6-17.3c-0.6-0.3-1-0.9-0.9-1.6c0-0.7,0.4-1.2,1-1.5l8.5-3.6
						c4.4-1.7,10.8-3.8,19.3-6.3c7.2-2.1,13.8-3.7,19.1-4.5l8.5-1.3c0.4-0.1,0.9,0,1.3,0.3l30.9,23.3c0.6,0.4,0.8,1.2,0.6,1.8
						c-0.2,0.7-0.8,1.2-1.5,1.2l-7.9,0.4c-4.7,0.2-10.8,1.1-17.2,2.3c-7.7,1.5-13.7,2.8-17.8,4.1l-7.9,2.6
						C62.9,158.3,62.7,158.3,62.5,158.3z M31.9,139.5l30.7,15.3l7.3-2.4c4.3-1.3,10.3-2.6,18.1-4.1c6.6-1.3,12.9-2.2,17.7-2.4
						l3.3-0.2l-26.6-20.1l-7.8,1.2c-5,0.7-11.6,2.3-18.6,4.4c-8.5,2.5-14.7,4.5-19,6.2L31.9,139.5z"></path></g>
				</g>
			</g>
			<g>
				<g id="change1_103"><path fill="#FFFFFF" d="M113.8,148.8c-0.4,0-0.7-0.1-1-0.3l-30.9-23.3c-0.5-0.4-0.8-1.1-0.6-1.8c0.2-0.7,0.7-1.1,1.4-1.3
					c0.1,0,13.6-2.1,27-1.9c6.8,0,12.8,0.1,17.8,0.9l7.8,1c0.7,0.1,1.2,0.5,1.4,1.2c0.2,0.6,0,1.3-0.5,1.8l-3.7,3.3
					c-1.6,1.2-3.2,3.1-4.9,5c-0.8,0.9-1.7,1.9-2.5,2.8c-5.5,5.5-9.9,11.9-9.9,11.9c-0.3,0.4-0.7,0.6-1.1,0.7
					C113.9,148.8,113.9,148.8,113.8,148.8z M87.2,124.9l26.2,19.8c1.7-2.3,5.1-6.8,9.3-10.9c0.8-0.9,1.6-1.8,2.4-2.7
					c1.8-2,3.5-4,5.2-5.3l0.9-0.8l-4.3-0.6c-4.8-0.7-10.7-0.8-17.4-0.8c-0.9,0-1.8,0-2.8,0C99.1,123.6,91.6,124.4,87.2,124.9z"></path></g>
			</g>
			<g>
				<g id="change1_104"><path fill="#FFFFFF" d="M135,125.5c-0.1,0-0.1,0-0.2,0l-7.9-1c-4.8-0.7-10.7-0.8-17.4-0.8c-0.9,0-1.8,0-2.8,0
					c-12,0-23.5,1.8-23.6,1.8c-0.7,0.1-1.3-0.2-1.7-0.8s-0.3-1.3,0-1.9c0.2-0.3,5.7-8.1,12.5-15.1c0.9-1,1.9-2,2.8-3.1
					c2.3-2.5,4.4-5,6.5-6.7l4.4-4c0.7-0.6,1.8-0.6,2.4,0.1l25.8,28.3c0.5,0.3,0.8,0.8,0.8,1.4C136.8,124.8,136,125.5,135,125.5
					C135.1,125.5,135,125.5,135,125.5z M108.8,97.6l-3.2,2.9c-2,1.6-4,3.9-6.2,6.4c-0.9,1-1.9,2.1-2.9,3.2c-4,4.1-7.6,8.6-9.9,11.5
					c5-0.6,14-1.5,23-1.3c6.8,0,12.8,0.1,17.8,0.9l3.3,0.4L108.8,97.6z"></path></g>
			</g>
			<g>
				<g id="change1_105"><path fill="#FFFFFF" d="M82.9,125.5c-0.1,0-0.3,0-0.4,0c-0.7-0.2-1.2-0.7-1.3-1.4c0-0.1-2.3-14-2-28.2c0-7.6,0.1-15,0.8-20.2
					l1.1-9.2c0.1-0.7,0.5-1.2,1.2-1.4c0.6-0.2,1.3,0,1.8,0.5l26.1,28.6c0.3,0.3,0.5,0.8,0.4,1.2c0,0.4-0.2,0.9-0.6,1.2l-4.5,4.1
					c-2,1.6-4,3.9-6.2,6.4c-0.9,1-1.9,2.1-2.9,3.2c-6.6,6.8-12.2,14.6-12.2,14.7C84,125.2,83.4,125.5,82.9,125.5z M84.1,70.5
					l-0.7,5.5c-0.7,5.1-0.8,12.3-0.8,19.9c-0.2,9.3,0.7,18.5,1.4,23.6c2.3-3,5.9-7.5,10.1-11.7c0.9-1,1.9-2,2.8-3.1
					c2.3-2.5,4.4-5,6.5-6.7l3.2-2.9L84.1,70.5z"></path></g>
			</g>
			<g>
				<g id="change1_106"><path fill="#FFFFFF" d="M82.9,125.5c-0.4,0-0.7-0.1-1-0.3L51,101.8c-0.7-0.5-0.9-1.6-0.4-2.3c0.1-0.1,6.8-9.6,14.8-17.8
					c1-1.1,2-2.2,3.1-3.3c2.8-3.1,5.5-6,8-8.1l5.2-4.8c0.5-0.5,1.3-0.6,1.9-0.3c0.6,0.3,1,1,0.9,1.7l-1.1,9.2
					c-0.7,5.1-0.8,12.3-0.8,19.9c-0.3,12.4,1.5,24.6,1.8,27.1c0.1,0.2,0.2,0.5,0.2,0.8C84.7,124.7,83.9,125.5,82.9,125.5
					C83,125.5,82.9,125.5,82.9,125.5z M54.4,100.1L80.7,120c-0.6-5.2-1.6-14.6-1.4-24.1c0-7.6,0.1-15,0.8-20.2l0.6-4.7l-1.9,1.8
					c-2.4,2-5,4.8-7.7,7.9c-1,1.1-2.1,2.3-3.1,3.4C61.8,90.3,56.5,97.3,54.4,100.1z"></path></g>
			</g>
		</g>
		<g>
			<g>
				<g id="change1_107"><path fill="#FFFFFF" d="M135,125.5c-0.5,0-0.9-0.2-1.2-0.5l-26.1-28.6c-0.5-0.5-0.6-1.2-0.3-1.9c0.3-0.6,0.9-1,1.6-1l8.4,0.5
					c4.3,0.2,10.5,1.1,18.3,2.6c6.1,1.2,12.4,2.5,17.3,4l7.5,2.5c0,0,0,0,0,0c0.4,0.1,0.7,0.4,0.9,0.7c0.4,0.6,0.4,1.4-0.1,2
					c-0.3,0.4-0.8,0.7-1.4,0.7c-2.2,1-21.3,15.5-23.5,18c-0.1,0.2-0.2,0.4-0.4,0.6C135.8,125.4,135.4,125.5,135,125.5z M113,97.2
					l22.1,24.3c4.1-3.7,14.9-12.2,21-16.2l-4-1.3c-4.7-1.5-10.9-2.8-16.9-3.9c-7.7-1.5-13.7-2.3-17.9-2.5L113,97.2z"></path></g>
			</g>
			<g>
				<g id="change1_108"><path fill="#FFFFFF" d="M139.8,73.6c-0.1,0-0.2,0-0.4,0l-8.5-1.9c-5-1.1-11.6-1.8-18.5-2.5c-9.1-0.9-15.5-1.2-20.2-1.1l-9.3,0.2
					c-0.7-0.1-1.3-0.4-1.6-1.1c-0.3-0.7-0.1-1.4,0.4-1.9l5.3-4.8c2.8-2.7,6.8-5.7,11-8.9l1.4-1.1c1.6-1.1,3.1-2.3,4.5-3.4
					c3-2.3,5.8-4.4,8.4-5.9l6.1-3.7c0.8-0.5,1.8-0.2,2.3,0.6l20.4,32.9c0.4,0.6,0.3,1.3-0.1,1.9C140.8,73.4,140.3,73.6,139.8,73.6z
					 M94.6,64.7c4.4,0,10.4,0.4,17.7,1.1c7.5,0.8,14.1,1.5,19.3,2.6l4.6,1l-17.4-28l-4.7,2.9c-2.4,1.4-5.2,3.5-8.1,5.7
					c-1.5,1.1-3,2.3-4.6,3.4l-1.4,1.1c-4.1,3.1-8,6-10.7,8.6l-2,1.8l4.7-0.1C92.9,64.7,93.7,64.7,94.6,64.7z"></path></g>
			</g>
			<g>
				<g>
					<g id="change1_109"><path fill="#FFFFFF" d="M160.2,106.5c-0.2,0-0.4,0-0.5-0.1l-7.6-2.5c-4.7-1.5-10.9-2.8-16.9-3.9c-7.7-1.5-13.7-2.3-17.9-2.5
						l-8.4-0.5c-0.4,0-0.8-0.2-1.1-0.5L81.6,67.8c-0.4-0.5-0.6-1.2-0.3-1.8c0.3-0.6,0.8-1,1.5-1l9.3-0.2c4.7-0.2,11.5,0.2,20.2,1
						c7.4,0.8,14.1,1.5,19.3,2.6l8.5,1.9c0.4,0.1,0.8,0.4,1.1,0.8l20.2,32.5c0.3,0.3,0.6,0.8,0.6,1.3
						C161.9,105.8,161.2,106.5,160.2,106.5C160.2,106.5,160.2,106.5,160.2,106.5z M109.7,93.6l7.7,0.5c4.3,0.2,10.5,1.1,18.3,2.6
						c6.1,1.2,12.4,2.5,17.3,4l3.2,1.1l-17.6-28.3l-7.8-1.7c-5-1.1-11.6-1.8-18.5-2.5c-9.1-0.9-15.5-1.2-20.2-1.1l-5.6,0.1
						L109.7,93.6z"></path></g>
				</g>
			</g>
			<g>
				<g id="change1_110"><path fill="#FFFFFF" d="M160.2,106.5c-0.6,0-1.1-0.3-1.4-0.8l-20.4-32.9c-0.4-0.6-0.3-1.3,0.1-1.9c0.4-0.6,1.1-0.8,1.8-0.6
					l8.2,2.1c2.5,0.7,5.3,1.4,8.2,2.4c3.1,1.1,6.2,2.3,9.3,3.5c5.7,2.3,11.6,4.9,16.2,7.1l7.1,4c0.6,0.3,0.9,1,0.9,1.6
					c-0.1,0.7-0.5,1.2-1.1,1.4l-4.6,1.7l-15.9,7.8l-7.3,4.5C160.8,106.4,160.5,106.5,160.2,106.5z M143.4,74.6l17.3,27.9l7.1-4.3
					l16.5-7.8l-3.8-2.1c-4.4-2.1-10.2-4.7-15.8-6.9c-3-1.2-6.2-2.4-9.2-3.4c-2.8-0.9-5.6-1.6-8-2.3L143.4,74.6z"></path></g>
			</g>
			<g>
				<g id="change1_111"><path fill="#FFFFFF" d="M188.3,92.5c-0.3,0-0.6-0.1-0.8-0.2l-7-3.9c-4.4-2.1-10.2-4.7-15.8-6.9c-3-1.2-6.2-2.4-9.2-3.4
					c-2.8-0.9-5.6-1.6-8-2.3l-8.2-2.1c-0.7-0.2-1.2-0.7-1.3-1.4s0.2-1.3,0.8-1.7l10.5-6.3l18.5-8.9l5.8-2.1c0.9-0.3,1.8,0.1,2.2,1
					l13.8,35.6c0.2,0.3,0.4,0.7,0.4,1.1C190.1,91.7,189.3,92.5,188.3,92.5C188.4,92.5,188.3,92.5,188.3,92.5z M144.1,71.3l4.3,1.1
					c2.5,0.7,5.3,1.4,8.2,2.4c3.1,1.1,6.2,2.3,9.3,3.5c5.7,2.3,11.6,4.9,16.2,7.1l3,1.7l-11.7-30.2l-4.1,1.5l-20,9.8L144.1,71.3z"></path></g>
			</g>
			<g>
				<g id="change1_112"><path fill="#FFFFFF" d="M139.8,73.6c-0.4,0-0.7-0.1-1-0.3c-0.6-0.4-0.8-1.1-0.6-1.8l4.7-17.2c1.1-3.2,2.3-6.5,3.7-9.8
					c2.5-6.4,5.5-13.4,8-18.6l4.4-8.1c0.3-0.6,1-1,1.6-0.9c0.7,0,1.2,0.5,1.5,1.1l14,36.1c0.2,0.4,0.2,0.9,0,1.3
					c-0.2,0.4-0.5,0.7-1,0.9l-5.7,2.1l-20,9.8l-8.6,5.2C140.4,73.6,140.1,73.6,139.8,73.6z M160.1,22.6l-2.6,4.9
					c-2.4,5.1-5.4,12-7.9,18.3c-1.3,3.3-2.5,6.6-3.6,9.6l-3.6,13l7-4.2l18.5-8.9l4.2-1.5L160.1,22.6z"></path></g>
			</g>
			<g>
				<g id="change1_113"><path fill="#FFFFFF" d="M139.8,73.6c-0.6,0-1.1-0.3-1.4-0.8L117.9,40c-0.2-0.4-0.3-0.8-0.2-1.3c0.1-0.4,0.4-0.8,0.8-1l12.4-7.5
					l22-10.6l6.9-2.6c0.7-0.3,1.4-0.1,1.9,0.5c0.5,0.5,0.5,1.3,0.2,1.9l-4.4,8.1c-2.4,5.1-5.4,12-7.9,18.3c-1.3,3.3-2.5,6.6-3.6,9.6
					l-2.5,8.6l-2.1,8.3c-0.2,0.7-0.7,1.1-1.4,1.3C139.9,73.6,139.8,73.6,139.8,73.6z M121.7,39.6l17.4,28.1l3.7-13.3
					c1.1-3.2,2.3-6.5,3.7-9.8c2.5-6.4,5.5-13.4,8-18.6l2.3-4.2l-2.5,0.9l-21.7,10.4L121.7,39.6z"></path></g>
			</g>
		</g>
		<g>
			<g>
				<g id="change1_114"><path fill="#FFFFFF" d="M188.3,92.5c-0.7,0-1.3-0.4-1.6-1.1l-14-36.1c-0.3-0.6-0.1-1.4,0.4-1.8c0.5-0.5,1.3-0.6,1.9-0.3l7.7,3.6
					c4.4,2.1,10.3,5,16.1,8.9c6.6,4.2,11.9,8.1,14.6,10c1.5,1.1,3,2.3,4.6,3.7l1.6,1.4c0.7,0.6,0.8,1.6,0.3,2.3
					c-0.5,0.6-1.1,0.7-1.7,0.8c-0.7,0.1-2.2,0.2-4,0.8l-10.6,2.7c-3,0.6-5.8,1.6-8.2,2.6l-6.5,2.4C188.7,92.4,188.5,92.5,188.3,92.5
					z M177.4,58l11.9,30.6l4.9-1.8c2.4-0.9,5.5-2.1,8.7-2.7l10.4-2.7c0.5-0.1,1-0.3,1.4-0.4c-0.9-0.8-2-1.6-3.3-2.5
					c-2.6-1.9-7.9-5.8-14.4-9.9c-5.7-3.8-11.5-6.7-15.7-8.7L177.4,58z"></path></g>
			</g>
			<g>
				<g id="change1_115"><path fill="#FFFFFF" d="M211.6,45.8C211.6,45.8,211.5,45.8,211.6,45.8c-0.4,0-0.8-0.1-1-0.3l-2-1.4c-1.8-1.3-3.4-2.3-5.1-3.3
					c-3.1-1.8-9.3-5.5-16.8-9.3c-6.4-3.5-12.9-6-18.1-8l-8.8-3.2c-0.7-0.2-1.1-0.9-1.1-1.6c0-0.7,0.4-1.3,1.1-1.6l9-3.3
					c3.7-1.3,8.2-3,13-4.1L197,5.8c1.7-0.5,3.4-0.8,5.3-1.1l1.9-0.3c0.9-0.1,1.8,0.5,1.9,1.4l7,37.5c0.1,0.2,0.2,0.5,0.2,0.8
					C213.3,45,212.5,45.8,211.6,45.8z M165.2,18.6l4.5,1.6c5.3,2.1,11.9,4.6,18.5,8.2c7.6,3.9,13.9,7.6,17,9.4
					c1.3,0.7,2.6,1.6,3.9,2.5l-6-32.4L202.7,8c-1.7,0.2-3.3,0.6-4.9,1l-15.3,3.9c-4.6,1-9,2.7-12.6,4L165.2,18.6z"></path></g>
			</g>
			<g>
				<g>
					<g id="change1_116"><path fill="#FFFFFF" d="M218.7,83.8C218.6,83.8,218.6,83.8,218.7,83.8c-0.5,0-0.9-0.1-1.2-0.4l-1.7-1.4c-1-0.9-2.5-2.2-4.3-3.5
						c-2.6-1.9-7.9-5.8-14.4-9.9c-5.7-3.8-11.5-6.7-15.7-8.7l-7.7-3.6c-0.4-0.2-0.7-0.5-0.9-0.9l-14-36.1c-0.2-0.6-0.1-1.3,0.4-1.8
						c0.5-0.5,1.2-0.6,1.8-0.4l8.8,3.2c5.3,2.1,11.9,4.6,18.5,8.2c7.6,3.9,13.9,7.6,17,9.4c1.7,1,3.5,2.1,5.4,3.5l1.9,1.4
						c0.4,0.3,0.6,0.6,0.7,1.1l7,37.5c0.1,0.2,0.2,0.5,0.2,0.8C220.3,83,219.6,83.8,218.7,83.8z M175.7,53.5l7.1,3.3
						c4.4,2.1,10.3,5,16.1,8.9c6.6,4.2,11.9,8.1,14.6,10c0.9,0.6,1.7,1.3,2.6,2L210,45.1l-1.4-1c-1.8-1.3-3.4-2.3-5.1-3.3
						c-3.1-1.8-9.3-5.5-16.8-9.3c-6.4-3.5-12.9-6-18.1-8l-5.3-1.9L175.7,53.5z"></path></g>
				</g>
			</g>
			<g>
				<g id="change1_117"><path fill="#FFFFFF" d="M218.6,83.8c-0.8,0-1.5-0.6-1.7-1.4l-7.1-38c-0.1-0.7,0.2-1.4,0.8-1.7c0.6-0.4,1.3-0.3,1.9,0.1l8.6,6.4
					c3.9,3,8.2,6.3,12.5,10.3c9.7,9.2,17.6,18.5,17.7,18.6c0.4,0.5,0.5,1.2,0.3,1.8c-0.3,0.6-0.8,1-1.5,1l-15.8,0.8
					c-2.4,0.1-4.8,0.6-7,0.9c-1.3,0.2-2.6,0.4-3.7,0.6l-4.8,0.7C218.7,83.8,218.6,83.8,218.6,83.8z M213.9,47.9l6,32.3l3.3-0.5
					c1.1-0.1,2.3-0.3,3.5-0.6c2.2-0.4,4.8-0.8,7.3-1l12.4-0.6c-3-3.4-8.7-9.6-15.2-15.7c-4.1-3.9-8.4-7.2-12.2-10.1L213.9,47.9z"></path></g>
			</g>
			<g>
				<g id="change1_118"><path fill="#FFFFFF" d="M250,80.8c-0.5,0-1-0.2-1.3-0.6c-0.1-0.1-7.9-9.3-17.5-18.3c-4.1-3.9-8.4-7.2-12.2-10.1l-8.5-6.3
					c-0.6-0.4-0.8-1.1-0.6-1.8c0.2-0.7,0.7-1.2,1.4-1.3l6-0.9c1.3-0.2,2.6-0.4,4.1-0.6c2.8-0.5,6-1,9.2-1.2l19.4-1
					c0.4,0,0.9,0.1,1.2,0.5c0.3,0.3,0.5,0.8,0.5,1.2v38.7c0,0.7-0.4,1.3-1.1,1.6C250.4,80.7,250.2,80.8,250,80.8z M215.8,45.1
					l5.3,3.9c3.9,3,8.2,6.3,12.5,10.3c6.1,5.8,11.6,11.7,14.7,15.2V42.2L230.7,43c-3,0.2-6.1,0.7-8.9,1.1c-1.5,0.3-2.9,0.5-4.2,0.6
					L215.8,45.1z"></path></g>
			</g>
			<g>
				<g id="change1_119"><path fill="#FFFFFF" d="M211.5,45.8c-0.6,0-1.1-0.3-1.4-0.8c-0.4-0.6-0.3-1.3,0.1-1.9l6.4-8.6c3.1-4,6.9-9,11.2-13.5
					c9.5-10.2,21.1-20.4,21.2-20.5c0.5-0.4,1.2-0.5,1.8-0.3c0.6,0.3,1,0.9,1,1.5v38.7c0,0.9-0.7,1.6-1.6,1.7l-19.3,1
					c-3,0.2-6.1,0.7-8.9,1.1c-1.5,0.3-2.9,0.5-4.2,0.6l-5.9,0.9C211.7,45.8,211.6,45.8,211.5,45.8z M248.3,5.5
					c-4,3.6-11.6,10.7-18.2,17.8c-4.1,4.4-7.9,9.3-11,13.3l-3.9,5.3l2-0.3c1.3-0.2,2.6-0.4,4.1-0.6c2.8-0.5,6-1,9.2-1.2l17.8-0.9
					V5.5z"></path></g>
			</g>
			<g>
				<g id="change1_120"><path fill="#FFFFFF" d="M211.5,45.8c-0.1,0-0.3,0-0.4,0c-0.7-0.2-1.2-0.7-1.3-1.3l-7.1-38c-0.1-0.4,0-0.9,0.3-1.3
					c0.3-0.4,0.7-0.6,1.1-0.7l7.1-1.1c1.4-0.2,2.9-0.4,4.5-0.7c3.4-0.5,7.3-1.2,11.2-1.4L249.9,0c0.7,0,1.4,0.4,1.6,1
					c0.3,0.7,0.1,1.4-0.4,1.9c-0.1,0.1-11.6,10.3-21,20.3c-4.1,4.4-7.9,9.3-10.9,13.3l-6.3,8.5C212.5,45.5,212,45.8,211.5,45.8z
					 M206.4,7.4l6,32.5l4.1-5.5c3.1-4,6.9-9,11.2-13.5c6.3-6.7,13.5-13.5,17.7-17.3l-18.1,0.9c-3.8,0.3-7.6,0.9-10.9,1.4
					c-1.6,0.3-3.2,0.5-4.6,0.7L206.4,7.4z"></path></g>
			</g>
		</g>
	</g>
</g>
</svg>