<?xml version="1.0" encoding="utf-8"?>
<!-- Generator: Adobe Illustrator 21.0.0, SVG Export Plug-In . SVG Version: 6.00 Build 0)  -->
<svg version="1.1" id="Circle-Line-Dashed2-D5" xmlns="http://www.w3.org/2000/svg" xmlns:xlink="http://www.w3.org/1999/xlink"
	 x="0px" y="0px" viewBox="0 0 498.5414 498.61" enable-background="new 0 0 498.5414 498.61" xml:space="preserve">
<g id="change1">
	<circle fill="#F7D6B5" cx="249.2015" cy="249.3102" r="191.002"/>
</g>
<g id="change2">
	<path fill="#EDAF77" d="M249.2015,54.8082c-107.2485,0-194.502,87.2534-194.502,194.502c0,107.249,87.2534,194.502,194.502,194.502
		c107.249,0,194.502-87.2529,194.502-194.502C443.7035,142.0616,356.4506,54.8082,249.2015,54.8082z M249.2015,436.8121
		c-103.3892,0-187.502-84.1133-187.502-187.502c0-103.3892,84.1128-187.502,187.502-187.502
		c103.3887,0,187.502,84.1128,187.502,187.502C436.7035,352.6988,352.5902,436.8121,249.2015,436.8121z"/>
	<path fill="#EDAF77" d="M194.0116,40.1598c0.5498,2.3003,2.5996,3.8403,4.8599,3.8403c0.3799,0,0.77-0.04,1.1597-0.1401
		c2.6904-0.6401,4.3403-3.3301,3.7002-6.02c-0.6299-2.6899-3.3301-4.3398-6.02-3.7002V34.13
		C195.0311,34.7799,193.3715,37.4698,194.0116,40.1598z"/>
	<path fill="#EDAF77" d="M210.5814,36.4898c0.3901,2.4702,2.52,4.23,4.9399,4.23c0.25,0,0.5098-0.02,0.77-0.0601
		c2.73-0.4297,4.6001-2.9897,4.1699-5.71c-0.4302-2.73-2.98-4.5996-5.71-4.1699C212.0214,31.1998,210.1512,33.7599,210.5814,36.4898
		z"/>
	<path fill="#EDAF77" d="M161.9716,51.3702c0.7998,1.9199,2.6597,3.0898,4.6196,3.0898c0.6401,0,1.29-0.1299,1.9102-0.3799
		c2.5498-1.0601,3.77-3.9902,2.71-6.54c-1.0601-2.5503-3.98-3.7603-6.5298-2.71C162.1312,45.8897,160.9213,48.8101,161.9716,51.3702
		z"/>
	<path fill="#EDAF77" d="M177.7811,45.13c0.6802,2.1099,2.6401,3.46,4.75,3.46c0.5103,0,1.0303-0.0801,1.54-0.25
		c2.6304-0.8501,4.0703-3.6699,3.2202-6.29c-0.8501-2.6299-3.6699-4.0698-6.2998-3.2197
		C178.3612,39.6798,176.9213,42.5001,177.7811,45.13z"/>
	<path fill="#EDAF77" d="M132.0912,67.4801c0.9399,1.54,2.5801,2.3799,4.27,2.3799c0.8901,0,1.79-0.23,2.6104-0.73
		c2.3496-1.4502,3.0898-4.5298,1.6396-6.8799c-1.4399-2.3501-4.52-3.0903-6.8696-1.6499
		C131.3812,62.0401,130.6512,65.1202,132.0912,67.4801z"/>
	<path fill="#EDAF77" d="M146.7113,58.8302c0.8901,1.7397,2.6401,2.73,4.46,2.73c0.7603,0,1.54-0.1704,2.27-0.54
		c2.46-1.2603,3.4302-4.27,2.1802-6.73s-4.2603-3.4399-6.7202-2.1802C146.4315,53.36,145.4613,56.3702,146.7113,58.8302z"/>
	<path fill="#EDAF77" d="M118.1913,77.2398c0.98,1.3403,2.5,2.0601,4.0503,2.0601c1.02,0,2.0498-0.3101,2.9399-0.96
		c2.23-1.6201,2.7197-4.75,1.0996-6.98c-1.6196-2.23-4.75-2.73-6.98-1.1001C117.0614,71.88,116.5712,75.0001,118.1913,77.2398z"/>
	<path fill="#EDAF77" d="M327.4115,47.63c-1.0605,2.5498,0.1494,5.4702,2.7002,6.5298c0.6299,0.2603,1.2793,0.3901,1.9092,0.3901
		c1.9609,0,3.8301-1.1602,4.6201-3.0898c1.0605-2.5503-0.1494-5.4702-2.6992-6.5303
		C331.391,43.8702,328.4711,45.0802,327.4115,47.63z"/>
	<path fill="#EDAF77" d="M294.931,37.9c-0.6494,2.6802,1.0107,5.3799,3.6904,6.02c0.3994,0.1001,0.79,0.1401,1.1699,0.1401
		c2.2598,0,4.3096-1.54,4.8604-3.8301c0.6494-2.6899-1.0107-5.3901-3.6904-6.0303C298.2709,33.5601,295.5717,35.21,294.931,37.9z"/>
	<path fill="#EDAF77" d="M311.3715,42.1202c-0.8604,2.6299,0.5801,5.4497,3.21,6.2998c0.5098,0.1699,1.0303,0.25,1.54,0.25
		c2.1104,0,4.0703-1.3398,4.7598-3.46c0.8506-2.6201-0.5801-5.4399-3.21-6.3003C315.0414,38.0601,312.2211,39.5001,311.3715,42.1202
		z"/>
	<path fill="#EDAF77" d="M342.9711,54.3897c-1.2598,2.4502-0.2793,5.4702,2.1807,6.7202c0.7295,0.3701,1.5,0.5498,2.2695,0.5498
		c1.8203,0,3.5703-0.9897,4.4502-2.7197c1.2598-2.46,0.29-5.48-2.1699-6.73C347.2416,50.9498,344.2211,51.9298,342.9711,54.3897z"/>
	<path fill="#EDAF77" d="M278.2015,34.9801c-0.4307,2.73,1.4395,5.29,4.1699,5.7197c0.2598,0.04,0.5195,0.0601,0.7803,0.0601
		c2.4199,0,4.5498-1.7598,4.9297-4.2197c0.4297-2.73-1.4297-5.29-4.1602-5.7202C281.2015,30.3897,278.641,32.2501,278.2015,34.9801z
		"/>
	<path fill="#EDAF77" d="M357.9515,62.3502c-1.4404,2.3496-0.71,5.4297,1.6494,6.8799c0.8105,0.5,1.7207,0.7397,2.6104,0.7397
		c1.6797,0,3.3203-0.8496,4.2598-2.3896c1.4502-2.3501,0.71-5.4302-1.6396-6.8804
		C362.4818,59.2599,359.4017,59.9898,357.9515,62.3502z"/>
	<path fill="#EDAF77" d="M227.3915,34.1397c0.1997,2.6201,2.3999,4.6201,4.98,4.6201c0.1299,0,0.2598-0.0098,0.3901-0.02
		c2.75-0.21,4.8198-2.6099,4.5996-5.3696c-0.21-2.75-2.6099-4.8101-5.3696-4.6001
		C229.2416,28.9801,227.1815,31.3897,227.3915,34.1397z"/>
	<path fill="#EDAF77" d="M261.3109,33.3897c-0.2197,2.75,1.8408,5.1602,4.5908,5.3701c0.1396,0.0103,0.2695,0.02,0.3994,0.02
		c2.5801,0,4.7705-1.9897,4.9805-4.6099c0.21-2.7603-1.8506-5.1602-4.6006-5.3799C263.931,28.5802,261.5209,30.63,261.3109,33.3897z
		"/>
	<path fill="#EDAF77" d="M244.3314,33.11c0,2.7603,2.2397,5,5,5c2.7598,0,5-2.2397,5-5c0.0098-2.7598-2.2305-5-4.9902-5
		S244.3314,30.3502,244.3314,33.11z"/>
	<path fill="#EDAF77" d="M125.9115,426.9996c1.6299-2.2295,1.1396-5.3496-1.0903-6.9795s-5.3599-1.1406-6.9897,1.0898
		s-1.1401,5.3604,1.0898,6.9805c0.8901,0.6494,1.9302,0.9697,2.9502,0.9697C123.4115,429.0602,124.9315,428.3404,125.9115,426.9996z
		"/>
	<path fill="#EDAF77" d="M105.1014,88.0499c0.9897,1.1602,2.3901,1.7603,3.8101,1.7603c1.1396,0,2.2998-0.3901,3.2397-1.2002
		c2.1001-1.79,2.3501-4.9502,0.5601-7.0498c-1.7998-2.1001-4.9497-2.3501-7.0498-0.5503
		C103.5614,82.7999,103.3114,85.9498,105.1014,88.0499z"/>
	<path fill="#EDAF77" d="M111.8212,409.7301c-2.0996-1.7998-5.25-1.5605-7.0498,0.54c-1.7998,2.0898-1.5498,5.25,0.54,7.0498
		c0.9502,0.8096,2.1001,1.2002,3.25,1.2002c1.4102,0,2.8101-0.5898,3.7998-1.7402
		C114.1615,414.6803,113.9213,411.5201,111.8212,409.7301z"/>
	<path fill="#EDAF77" d="M99.6615,398.4498c-1.9502-1.9502-5.1104-1.96-7.0703-0.0098s-1.96,5.1201-0.0098,7.0703
		c0.98,0.9795,2.2598,1.4697,3.54,1.4697c1.2798,0,2.5601-0.4805,3.5298-1.46C101.6112,403.5699,101.6112,400.4098,99.6615,398.4498
		z"/>
	<path fill="#EDAF77" d="M183.5814,450.1197c-2.6299-0.8594-5.4502,0.5703-6.3101,3.2002
		c-0.8599,2.6201,0.5801,5.4404,3.2002,6.2998c0.52,0.1699,1.04,0.25,1.5498,0.25c2.1099,0,4.0698-1.3398,4.7598-3.4502
		C187.6312,453.8004,186.2015,450.9703,183.5814,450.1197z"/>
	<path fill="#EDAF77" d="M168.0511,444.3502c0,0.0098,0,0.0098,0,0.0098c-2.5498-1.0703-5.48,0.1396-6.5396,2.6904
		c-1.0601,2.5498,0.1396,5.4795,2.6899,6.54c0.6299,0.2598,1.2798,0.3799,1.9199,0.3799c1.96,0,3.8198-1.1504,4.6201-3.0801
		C171.8011,448.3404,170.6014,445.4195,168.0511,444.3502z"/>
	<path fill="#EDAF77" d="M153.0214,437.3902c-2.46-1.2607-5.4702-0.29-6.73,2.1699c-1.2603,2.46-0.29,5.4697,2.1699,6.7295
		c0.73,0.3701,1.5103,0.5508,2.2803,0.5508c1.8096,0,3.5698-0.9902,4.4497-2.7207
		C156.4515,441.6598,155.4813,438.65,153.0214,437.3902z"/>
	<path fill="#EDAF77" d="M140.2216,436.1402c1.4399-2.3506,0.71-5.4307-1.6401-6.8799c-2.3501-1.4502-5.4302-0.7207-6.8799,1.6299
		c-1.4502,2.3496-0.71,5.4297,1.6396,6.8799c0.8101,0.5098,1.7202,0.75,2.6104,0.75
		C137.6312,438.5201,139.2714,437.6695,140.2216,436.1402z"/>
	<path fill="#EDAF77" d="M71.4315,126.13c0.8896,0.6499,1.9199,0.96,2.9399,0.96c1.5498,0,3.0698-0.71,4.0498-2.0498
		c-0.0098,0-0.0098,0-0.0098,0c1.6299-2.2402,1.1396-5.3604-1.0903-6.9902s-5.3599-1.1401-6.98,1.0898
		C68.7113,121.38,69.2015,124.5001,71.4315,126.13z"/>
	<path fill="#EDAF77" d="M87.8612,393.3102c2.1001-1.79,2.3501-4.9502,0.5601-7.0498c-1.79-2.1006-4.9497-2.3506-7.0498-0.5605
		s-2.3501,4.9502-0.5601,7.0498c0.9897,1.1602,2.3901,1.75,3.8101,1.75C85.7616,394.4996,86.9115,394.11,87.8612,393.3102z"/>
	<path fill="#EDAF77" d="M92.9012,99.86c0.9702,0.98,2.25,1.4702,3.5303,1.4702c1.2798,0,2.5601-0.4902,3.54-1.4702
		c1.9497-1.9502,1.9497-5.1099,0-7.0698c-1.9502-1.9502-5.1201-1.9502-7.0703,0C90.9515,94.7398,90.9413,97.9098,92.9012,99.86z"/>
	<path fill="#EDAF77" d="M84.9012,113.7799c1.4102,0,2.8101-0.6001,3.8003-1.75c1.79-2.1001,1.5498-5.2598-0.5503-7.0498
		c-2.1001-1.8003-5.25-1.5503-7.0498,0.54v0.0098c-1.79,2.0903-1.5503,5.25,0.5498,7.0503
		C82.5912,113.38,83.7513,113.7799,84.9012,113.7799z"/>
	<path fill="#EDAF77" d="M77.0511,380.2096c2.23-1.6191,2.73-4.75,1.1104-6.9795c-1.6201-2.2402-4.75-2.7305-6.9902-1.1104
		c-2.23,1.6201-2.73,4.75-1.1099,6.9805c0.98,1.3496,2.5098,2.0693,4.0601,2.0693C75.1312,381.1695,76.1615,380.86,77.0511,380.2096
		z"/>
	<path fill="#EDAF77" d="M67.3011,366.3102c2.3501-1.4404,3.0903-4.5205,1.6504-6.8799c-1.4399-2.3506-4.52-3.0898-6.8804-1.6504
		c-2.3496,1.4404-3.0898,4.5205-1.6499,6.8799c0.9399,1.54,2.5903,2.3799,4.27,2.3799
		C65.5814,367.0396,66.4813,366.8102,67.3011,366.3102z"/>
	<path fill="#EDAF77" d="M62.3011,140.44c0.8203,0.5,1.73,0.7397,2.6201,0.7397c1.6802,0,3.3203-0.8398,4.2603-2.3799
		c1.4497-2.3501,0.7197-5.4297-1.6401-6.8799c-2.3501-1.4399-5.4302-0.71-6.8701,1.6401
		C59.2216,135.9098,59.9515,138.9898,62.3011,140.44z"/>
	<path fill="#EDAF77" d="M38.8412,180.7101c-0.8496,2.6299,0.5903,5.4497,3.21,6.2998c0.5103,0.1699,1.04,0.25,1.5503,0.25
		c2.1099,0,4.0698-1.3398,4.75-3.4497c0.8599-2.6304-0.5703-5.4502-3.2002-6.3003C42.5214,176.65,39.7015,178.0802,38.8412,180.7101
		z"/>
	<path fill="#EDAF77" d="M467.6215,284.44c0.4395-2.7305-1.4199-5.2998-4.1504-5.7305c-2.7197-0.4395-5.29,1.4199-5.7197,4.1504
		c-0.4404,2.7305,1.4199,5.29,4.1504,5.7197c0.2695,0.0498,0.5293,0.0703,0.79,0.0703
		C465.1117,288.65,467.2318,286.9,467.6215,284.44z"/>
	<path fill="#EDAF77" d="M419.8314,373.7896c-1.6299,2.2305-1.1396,5.3604,1.0898,6.9902c0.8896,0.6504,1.9199,0.96,2.9404,0.96
		c1.54,0,3.0693-0.71,4.04-2.0498c1.6299-2.2305,1.1494-5.3496-1.0801-6.9805
		C424.5912,371.0797,421.4613,371.5602,419.8314,373.7896z"/>
	<path fill="#EDAF77" d="M444.3812,168.4898c0.0098,0,0.0098,0,0.0098,0c0.79,1.9302,2.6504,3.0903,4.6201,3.0903
		c0.6299,0,1.2803-0.1201,1.9102-0.3804c2.5498-1.0601,3.7598-3.9897,2.7002-6.54c-1.0605-2.5498-3.9805-3.7598-6.5303-2.6997
		C444.5414,163.0099,443.3314,165.94,444.3812,168.4898z"/>
	<path fill="#EDAF77" d="M439.6117,146.6998c-2.46,1.2603-3.4307,4.27-2.1807,6.73c0.8906,1.73,2.6406,2.73,4.46,2.73
		c0.7607,0,1.54-0.1797,2.2705-0.5498c2.46-1.2598,3.4297-4.27,2.1797-6.73C445.0814,146.42,442.0717,145.4498,439.6117,146.6998z"
		/>
	<path fill="#EDAF77" d="M49.3011,336.8004c0.6304,0,1.2803-0.1309,1.9004-0.3809c2.5498-1.0596,3.77-3.9795,2.71-6.5293
		c-1.0503-2.5605-3.9702-3.7705-6.5303-2.7207c-2.5498,1.0605-3.7598,3.9805-2.71,6.5303v0.0098
		C45.4716,335.6295,47.3314,336.8004,49.3011,336.8004z"/>
	<path fill="#EDAF77" d="M44.8715,164.44c-1.0601,2.5498,0.1499,5.48,2.6997,6.54c0.6201,0.2598,1.27,0.3799,1.9102,0.3799
		c1.96,0,3.8198-1.1602,4.6201-3.0801c1.0601-2.5498-0.1499-5.48-2.6899-6.54C48.8612,160.6798,45.9315,161.8897,44.8715,164.44z"/>
	<path fill="#EDAF77" d="M38.8612,304.5103c0.3804,0,0.77-0.0508,1.1602-0.1406c2.6802-0.6396,4.3398-3.3301,3.7002-6.0195
		c-0.6401-2.6807-3.3301-4.3506-6.02-3.71c-2.6802,0.6396-4.3403,3.3398-3.7002,6.0293h-0.0098
		C34.5414,302.9596,36.5912,304.5103,38.8612,304.5103z"/>
	<path fill="#EDAF77" d="M464.2113,301.4596c0.6504-2.6797-1-5.3799-3.6797-6.0293c-2.6807-0.6504-5.3906,1-6.04,3.6797
		c-0.6504,2.6904,1.0098,5.3896,3.6895,6.04c0.3906,0.0898,0.79,0.1396,1.1807,0.1396
		C461.6117,305.2896,463.6615,303.7496,464.2113,301.4596z"/>
	<path fill="#EDAF77" d="M56.6112,155.9698c1.8101,0,3.5703-0.9897,4.4502-2.7197c1.2598-2.46,0.29-5.48-2.1699-6.73
		c-2.46-1.2603-5.4702-0.29-6.73,2.1699c-1.2603,2.46-0.29,5.4697,2.1699,6.73C55.0614,155.7901,55.8412,155.9698,56.6112,155.9698z
		"/>
	<path fill="#EDAF77" d="M462.0013,210.5602c-2.7305,0.4297-4.5996,2.9897-4.1699,5.7197c0.3896,2.46,2.5098,4.2202,4.9297,4.2202
		c0.2598,0,0.5205-0.02,0.79-0.0601c2.7197-0.4302,4.5898-2.9902,4.1602-5.7202
		C467.2816,212.0001,464.7211,210.13,462.0013,210.5602z"/>
	<path fill="#EDAF77" d="M465.4017,244.3102c-2.7607,0-5,2.2397-5,5c0,0.0796,0,0.1699,0.0098,0.25
		c-0.0098,0.0898-0.0098,0.1797-0.0098,0.27c-0.0107,2.7603,2.2295,4.9995,4.9893,5.0103c0,0,0,0,0.0107,0
		c2.75,0,4.9893-2.2305,5-4.9902c0-0.0903,0-0.1802-0.0107-0.27c0.0107-0.0903,0.0107-0.1802,0.0107-0.27
		C470.4017,246.5499,468.1615,244.3102,465.4017,244.3102z"/>
	<path fill="#EDAF77" d="M459.7611,232.7398c0.2002,2.6201,2.3906,4.6104,4.9805,4.6104c0.1299,0,0.2598,0,0.3896-0.0103
		c2.75-0.21,4.8105-2.6201,4.6006-5.3701c-0.2207-2.7598-2.6201-4.8101-5.3701-4.5996
		C461.601,227.5802,459.5511,229.9898,459.7611,232.7398z"/>
	<path fill="#EDAF77" d="M453.1615,321.3697c0.5195,0.1602,1.04,0.2402,1.5596,0.2402c2.1006,0,4.0605-1.3301,4.75-3.4404
		c0.8604-2.6299-0.5693-5.4492-3.2002-6.3096c-2.6191-0.8604-5.4492,0.5703-6.2998,3.2002
		C449.1117,317.6803,450.5414,320.4996,453.1615,321.3697z"/>
	<path fill="#EDAF77" d="M458.3217,193.9898c-2.6904,0.6401-4.3506,3.3403-3.7002,6.0303c-0.0098,0-0.0098,0-0.0098,0
		c0.5498,2.29,2.5996,3.8301,4.8701,3.8301c0.3799,0,0.7695-0.04,1.1592-0.1304c2.6904-0.6499,4.3408-3.3496,3.7002-6.0298
		C463.7015,195.0001,461.0013,193.3502,458.3217,193.9898z"/>
	<path fill="#EDAF77" d="M453.3412,177.7599c-2.6299,0.8501-4.0596,3.6699-3.21,6.3003c0.6797,2.1099,2.6396,3.46,4.75,3.46
		c0.5098,0,1.0303-0.0801,1.5498-0.25c2.6201-0.8501,4.0605-3.6699,3.21-6.3003
		C458.7914,178.3502,455.9711,176.9098,453.3412,177.7599z"/>
	<path fill="#EDAF77" d="M28.6913,231.69c-0.2197,2.75,1.8398,5.1602,4.5898,5.3799c0.1401,0.0103,0.27,0.0103,0.4004,0.0103
		c2.5898,0,4.77-1.98,4.98-4.6001c0.2197-2.7603-1.8403-5.1602-4.5903-5.3799C31.3212,226.88,28.9115,228.94,28.6913,231.69z"/>
	<path fill="#EDAF77" d="M424.141,127.2398c1.0205,0,2.04-0.3101,2.9307-0.96c2.2393-1.6201,2.7295-4.75,1.0996-6.98
		c-1.6201-2.2397-4.75-2.73-6.9795-1.1001c-2.2305,1.6201-2.7305,4.75-1.1006,6.98
		C421.0717,126.5201,422.5912,127.2398,424.141,127.2398z"/>
	<path fill="#EDAF77" d="M430.9613,132.0899c-2.3496,1.4399-3.0898,4.52-1.6396,6.8701c-0.0107,0-0.0107,0-0.0107,0
		c0.9502,1.54,2.5908,2.3901,4.2705,2.3901c0.8896,0,1.7998-0.2402,2.6104-0.7402c2.3594-1.4502,3.0898-4.52,1.6494-6.8799
		C436.391,131.38,433.3109,130.6397,430.9613,132.0899z"/>
	<path fill="#EDAF77" d="M56.4012,352.2203c0.7603,0,1.5303-0.1699,2.2603-0.54c2.46-1.25,3.4399-4.2607,2.1899-6.7207
		s-4.27-3.4395-6.7202-2.1895c-2.4697,1.25-3.4497,4.2598-2.1899,6.7197C52.8212,351.2301,54.5712,352.2203,56.4012,352.2203z"/>
	<path fill="#EDAF77" d="M398.5511,92.9098c-1.9502,1.9604-1.9502,5.1201,0,7.0703c0.9805,0.98,2.2598,1.4697,3.54,1.4697
		s2.5605-0.4897,3.54-1.4697c1.9502-1.9502,1.9502-5.1099,0-7.0703C403.6713,90.9601,400.5111,90.9601,398.5511,92.9098z"/>
	<path fill="#EDAF77" d="M199.5214,454.6295c-2.6802-0.6396-5.3799,1.0107-6.0298,3.6904c-0.6504,2.6904,1,5.3896,3.6899,6.04
		c0.3896,0.0898,0.79,0.1396,1.1699,0.1396c2.2598,0,4.3101-1.54,4.8599-3.8301
		C203.8612,457.9801,202.2113,455.2799,199.5214,454.6295z"/>
	<path fill="#EDAF77" d="M43.4413,320.8502c0.5,0,1.02-0.0801,1.5303-0.2402c2.6299-0.8496,4.0698-3.6699,3.2197-6.2998
		c-0.8501-2.6201-3.6699-4.0703-6.29-3.2197c-2.6299,0.8496-4.0698,3.6699-3.2197,6.2998
		C39.3612,319.4996,41.3212,320.8502,43.4413,320.8502z"/>
	<path fill="#EDAF77" d="M409.8109,112.1598c0.9902,1.1602,2.4004,1.75,3.8105,1.75c1.1494,0,2.2998-0.3896,3.2402-1.1997
		c2.0996-1.79,2.3496-4.9502,0.5498-7.0503c-1.79-2.0996-4.9502-2.3398-7.0498-0.5498
		C408.2709,106.9098,408.0209,110.0602,409.8109,112.1598z"/>
	<path fill="#EDAF77" d="M385.8314,81.67c-1.79,2.1001-1.5498,5.2598,0.5498,7.0498c0.9404,0.8101,2.1006,1.2002,3.25,1.2002
		c1.4102,0,2.8105-0.5898,3.7998-1.75c1.79-2.1001,1.5508-5.25-0.5498-7.0498C390.7816,79.3302,387.6215,79.5802,385.8314,81.67z"/>
	<path fill="#EDAF77" d="M30.7313,214.4498c-0.4302,2.73,1.4302,5.29,4.1602,5.7202c0.2598,0.04,0.5298,0.0601,0.79,0.0601
		c2.4097,0,4.54-1.75,4.9297-4.21c0.4302-2.73-1.4297-5.29-4.1597-5.73C33.7216,209.86,31.1615,211.7198,30.7313,214.4498z"/>
	<path fill="#EDAF77" d="M34.1215,197.42c-0.6401,2.6899,1.0098,5.3901,3.6899,6.0298c0.3999,0.1001,0.79,0.1401,1.1802,0.1401
		c2.2598,0,4.2998-1.54,4.8599-3.8301c-0.0103,0-0.0103,0-0.0103,0c0.6504-2.6899-1-5.3896-3.6899-6.0298
		C37.4716,193.0802,34.7714,194.7398,34.1215,197.42z"/>
	<path fill="#EDAF77" d="M35.5814,287.86c0.2598,0,0.52-0.0195,0.7798-0.0596c2.73-0.4307,4.5903-2.9805,4.1699-5.71
		c-0.4297-2.7305-2.98-4.6006-5.71-4.1709c-2.73,0.4209-4.5996,2.9805-4.1699,5.71C31.0311,286.0904,33.1615,287.86,35.5814,287.86z
		"/>
	<path fill="#EDAF77" d="M372.2709,71.4601c-1.6299,2.2397-1.1396,5.3599,1.1006,6.9897c0.8896,0.6504,1.9102,0.96,2.9297,0.96
		c1.5498,0,3.0703-0.7197,4.0498-2.0596c1.6309-2.23,1.1406-5.3604-1.0996-6.9902
		C377.0209,68.7398,373.891,69.2301,372.2709,71.4601z"/>
	<path fill="#EDAF77" d="M32.9916,254.0396c0.0098,0,0.0098,0,0.0098,0c2.7603,0,5-2.2295,5-4.9897c0-2.7598-2.23-5-4.9897-5.0098
		c-2.7603,0-5.0103,2.2397-5.0103,5S30.2313,254.0396,32.9916,254.0396z"/>
	<path fill="#EDAF77" d="M33.6312,270.9996c0.1304,0,0.2603-0.0098,0.3901-0.0195c2.75-0.21,4.8101-2.6104,4.6001-5.3604
		s-2.6099-4.8193-5.3599-4.6094c-2.7603,0.21-4.8203,2.6094-4.6104,5.3691C28.8514,268.9996,31.0414,270.9996,33.6312,270.9996z"/>
	<path fill="#EDAF77" d="M469.6918,267.1998h-0.0107c0.2207-2.75-1.8301-5.1602-4.5801-5.3799s-5.1592,1.8301-5.3799,4.5801
		c-0.2197,2.75,1.8301,5.1602,4.5801,5.3799c0.1406,0.0098,0.2705,0.0205,0.4102,0.0205
		C467.2914,271.8004,469.4818,269.8102,469.6918,267.1998z"/>
	<path fill="#EDAF77" d="M320.3715,453.5797c-0.8398-2.6299-3.6602-4.0693-6.29-3.2197c-2.6299,0.8398-4.0703,3.6602-3.2197,6.29
		c0.6797,2.1201,2.6396,3.4697,4.75,3.4697c0.5098,0,1.0293-0.0801,1.54-0.25
		C319.7816,459.0299,321.2211,456.2096,320.3715,453.5797z"/>
	<path fill="#EDAF77" d="M336.1918,447.36c-1.0605-2.5498-3.9805-3.7695-6.5303-2.7197c-2.5605,1.0596-3.7705,3.9795-2.7197,6.5293
		c0.7998,1.9307,2.6592,3.1006,4.6299,3.1006c0.6299,0,1.2793-0.1201,1.8994-0.3799
		C336.0209,452.8404,337.2416,449.9098,336.1918,447.36z"/>
	<path fill="#EDAF77" d="M351.4515,439.9098c-1.25-2.46-4.2598-3.4395-6.7197-2.1895c-2.4609,1.25-3.4404,4.2598-2.1904,6.7197
		c0.8799,1.7402,2.6396,2.7402,4.46,2.7402c0.7598,0,1.54-0.1807,2.2598-0.5508
		C351.7211,445.3795,352.7015,442.3697,351.4515,439.9098z"/>
	<path fill="#EDAF77" d="M304.1312,458.5299c-0.6299-2.6895-3.3301-4.3496-6.0098-3.71c-2.6904,0.6299-4.3506,3.3301-3.7197,6.0098
		c0.5498,2.2998,2.5996,3.8506,4.8594,3.8506c0.3906,0,0.7705-0.04,1.1602-0.1299
		C303.1117,463.9098,304.7709,461.2096,304.1312,458.5299z"/>
	<path fill="#EDAF77" d="M265.3812,459.9c-2.75,0.21-4.8203,2.6104-4.6104,5.3604c0.2002,2.6299,2.3906,4.6191,4.9805,4.6191
		c0.1299,0,0.2598,0,0.3896-0.0098c2.75-0.21,4.8105-2.6094,4.6006-5.3594C270.5316,461.7496,268.1312,459.69,265.3812,459.9z"/>
	<path fill="#EDAF77" d="M366.0912,431.2896c-1.4502-2.3594-4.5195-3.0996-6.8799-1.6602
		c-2.3496,1.4404-3.0996,4.5205-1.6602,6.8701c0.9502,1.54,2.5898,2.4004,4.2803,2.4004c0.8896,0,1.7803-0.2402,2.5996-0.7402
		C366.7914,436.7203,367.5316,433.6402,366.0912,431.2896z"/>
	<path fill="#EDAF77" d="M287.5609,462.1803c-0.4297-2.7305-2.9795-4.6006-5.71-4.1807c-2.7295,0.4199-4.5996,2.9805-4.1797,5.71
		c0.3896,2.4707,2.5098,4.2305,4.9404,4.2305c0.25,0,0.5098-0.0205,0.7695-0.0605
		C286.1117,467.4596,287.9818,464.9,287.5609,462.1803z"/>
	<path fill="#EDAF77" d="M380.0013,421.5396c-1.6201-2.2295-4.75-2.7295-6.9805-1.1094c-0.0098,0-0.0098,0-0.0098,0
		c-2.2295,1.6201-2.7295,4.7393-1.1094,6.9795c0.9795,1.3506,2.5,2.0703,4.0498,2.0703c1.0195,0,2.0498-0.3105,2.9297-0.9502
		C381.1215,426.9,381.6215,423.7799,380.0013,421.5396z"/>
	<path fill="#EDAF77" d="M435.9613,358.4098c-2.3496-1.4502-5.4297-0.7197-6.8799,1.6299
		c-1.4502,2.3506-0.7197,5.4307,1.6299,6.8799c0.8203,0.5,1.7197,0.7402,2.6201,0.7402c1.6797,0,3.3203-0.8398,4.2598-2.3701
		C439.0414,362.94,438.3109,359.86,435.9613,358.4098z"/>
	<path fill="#EDAF77" d="M443.9515,343.44c-2.46-1.2598-5.4697-0.29-6.7305,2.1602c-1.2598,2.46-0.29,5.4697,2.1699,6.7295
		c0.7305,0.3799,1.5,0.5605,2.2705,0.5605c1.8203,0,3.5703-0.9902,4.46-2.7207C447.3812,347.7096,446.4115,344.6998,443.9515,343.44
		z"/>
	<path fill="#EDAF77" d="M248.8114,460.5103c-2.7603-0.0107-5.0103,2.2295-5.0103,4.9893c-0.0098,2.7607,2.23,5,4.9902,5.0107
		h0.0098c2.7598,0,5-2.2305,5-4.9902S251.5717,460.5103,248.8114,460.5103z"/>
	<path fill="#EDAF77" d="M453.431,334.4303c1.0605-2.5508-0.1396-5.4707-2.6895-6.54c-2.5498-1.0605-5.4805,0.1396-6.54,2.6895
		c-1.0703,2.5498,0.1396,5.4805,2.6895,6.54c0.6201,0.2598,1.2803,0.3906,1.9199,0.3906
		C450.7709,337.5103,452.6215,336.3502,453.431,334.4303z"/>
	<path fill="#EDAF77" d="M405.3217,398.9498c-1.9502-1.9502-5.1104-1.96-7.0703-0.0098s-1.96,5.1104-0.0098,7.0703
		c0.9697,0.9795,2.2598,1.4697,3.54,1.4697c1.2695,0,2.5498-0.4805,3.5293-1.46
		C407.2611,404.0797,407.2709,400.9098,405.3217,398.9498z"/>
	<path fill="#EDAF77" d="M393.101,410.7398c-1.79-2.0996-4.9492-2.3604-7.0498-0.5596c-2.0996,1.79-2.3496,4.9395-0.5596,7.04
		c0.9902,1.1592,2.3896,1.7598,3.8096,1.7598c1.1406,0,2.2998-0.3896,3.2402-1.1904
		C394.641,415.9996,394.891,412.8404,393.101,410.7398z"/>
	<path fill="#EDAF77" d="M409.5316,386.7896c-1.7998,2.0898-1.5605,5.25,0.54,7.0508c0.9395,0.8096,2.0996,1.1992,3.25,1.1992
		c1.4102,0,2.8096-0.5898,3.7998-1.7393c1.7998-2.1006,1.5596-5.25-0.54-7.0508
		C414.4916,384.4498,411.3314,384.69,409.5316,386.7896z"/>
	<path fill="#EDAF77" d="M215.7811,457.8795c-2.73-0.4395-5.2896,1.4209-5.73,4.1504c-0.4297,2.7305,1.4302,5.29,4.1602,5.7197
		c0.2603,0.0508,0.5303,0.0703,0.79,0.0703c2.4102,0,4.54-1.7598,4.9302-4.2197
		C220.3612,460.8697,218.5013,458.3102,215.7811,457.8795z"/>
	<path fill="#EDAF77" d="M232.2416,459.8404c-2.7603-0.2207-5.1602,1.8291-5.3804,4.5898c-0.2197,2.75,1.8301,5.1602,4.5903,5.3799
		c0.1299,0.0098,0.27,0.0098,0.3999,0.0098c2.5801,0,4.77-1.9795,4.98-4.5996
		C237.0414,462.4596,234.9916,460.0602,232.2416,459.8404z"/>
	<path fill="#EDAF77" d="M444.681,374.9898c-1.5996-1.0703-3.7793-0.6299-4.8496,0.9697c-1.0703,1.6104-0.6299,3.79,0.9795,4.8604
		c0.5908,0.3896,1.2705,0.5898,1.9307,0.5898c1.1299,0,2.2402-0.5498,2.9199-1.5693
		C446.7318,378.2301,446.2914,376.0602,444.681,374.9898z"/>
	<path fill="#EDAF77" d="M143.0814,46.0601c0.54,0,1.0801-0.1201,1.6001-0.3901c1.71-0.8799,2.3896-2.9902,1.5098-4.71
		c-0.8901-1.7202-3-2.3999-4.7197-1.5103h0.0098c-1.7197,0.8804-2.3999,2.9902-1.52,4.71
		C140.5814,45.3702,141.8114,46.0601,143.0814,46.0601z"/>
	<path fill="#EDAF77" d="M310.931,473.3902c-0.4795-1.8701-2.3896-2.9902-4.2598-2.5107c-1.8701,0.4902-3,2.3906-2.5195,4.2705
		c0.4092,1.5703,1.8301,2.6201,3.3896,2.6201c0.29,0,0.5898-0.0303,0.8799-0.1104
		C310.2914,477.1803,311.4213,475.2603,310.931,473.3902z"/>
	<path fill="#EDAF77" d="M128.2811,54.3702c0.6201,0,1.25-0.1602,1.8203-0.5103c1.6499-1.0098,2.1699-3.1602,1.1602-4.8101
		c-1.0103-1.6499-3.1602-2.1699-4.8101-1.1699v0.0098c-1.6504,1-2.1704,3.1602-1.1704,4.8101
		C125.9413,53.7799,127.1014,54.3702,128.2811,54.3702z"/>
	<path fill="#EDAF77" d="M161.1913,464.44c0.7603-1.7803-0.0601-3.8398-1.8398-4.5996c-1.7803-0.75-3.8398,0.0693-4.5898,1.8496
		c-0.7603,1.7803,0.0596,3.8301,1.8398,4.5898c0.4497,0.1904,0.9102,0.2803,1.3701,0.2803
		C159.3314,466.5602,160.6215,465.7701,161.1913,464.44z"/>
	<path fill="#EDAF77" d="M174.3212,32.7901c0.3804,0,0.7603-0.0601,1.1304-0.1899c1.8296-0.6201,2.8101-2.6104,2.1899-4.4404
		c-0.6299-1.8296-2.6201-2.8096-4.4502-2.1797c-1.8198,0.6201-2.7998,2.6099-2.1797,4.4399
		C171.5013,31.8702,172.8612,32.7901,174.3212,32.7901z"/>
	<path fill="#EDAF77" d="M434.9818,388.9098c-1.5205-1.1895-3.7207-0.9102-4.9004,0.6201c-0.0098,0-0.0098,0-0.0098,0
		c-1.1807,1.5205-0.9102,3.7197,0.6201,4.9102c0.6396,0.4902,1.3994,0.7295,2.1494,0.7295c1.04,0,2.0703-0.46,2.7598-1.3496
		C436.7914,392.2896,436.5111,390.0904,434.9818,388.9098z"/>
	<path fill="#EDAF77" d="M190.5712,27.92c0.29,0,0.5903-0.0303,0.8804-0.1099c0.0098,0,0.0098,0,0.0098,0
		c1.8701-0.4902,2.9902-2.4004,2.5-4.27c-0.48-1.8701-2.3999-2.9902-4.27-2.5103c-1.8701,0.4902-2.9897,2.3999-2.5,4.27
		C187.6014,26.88,189.0214,27.92,190.5712,27.92z"/>
	<path fill="#EDAF77" d="M210.0311,478.4c0.3501-1.9004-0.8999-3.7305-2.7998-4.0801c-1.8999-0.3604-3.73,0.9004-4.0801,2.7998
		c-0.3599,1.9004,0.8999,3.7305,2.8003,4.0801c0.2197,0.04,0.4297,0.0605,0.6396,0.0605
		C208.2416,481.2603,209.7216,480.0797,210.0311,478.4z"/>
	<path fill="#EDAF77" d="M327.1215,468.3004c-0.6201-1.8301-2.6104-2.8105-4.4404-2.1904s-2.8096,2.5996-2.1895,4.4297
		c0.4902,1.46,1.8496,2.3799,3.3096,2.3799c0.3799,0,0.75-0.0596,1.1299-0.1797v-0.0098
		C326.7611,472.1197,327.7416,470.1295,327.1215,468.3004z"/>
	<path fill="#EDAF77" d="M158.4515,38.8502c0.46,0,0.9297-0.0903,1.3696-0.2803c1.7803-0.75,2.6104-2.8101,1.8501-4.5898
		c-0.75-1.77-2.8101-2.6099-4.5801-1.8501c-1.79,0.75-2.6099,2.8101-1.8599,4.5898
		C155.8011,38.0499,157.0912,38.8502,158.4515,38.8502z"/>
	<path fill="#EDAF77" d="M474.9515,317.7896c0.5596-1.8594-0.4805-3.8096-2.3301-4.3701c-1.8506-0.5596-3.8105,0.4902-4.3701,2.3408
		c-0.5596,1.8496,0.4902,3.7998,2.3398,4.3594c0.3398,0.1006,0.6797,0.1504,1.0098,0.1504
		C473.101,320.2701,474.4916,319.3004,474.9515,317.7896z"/>
	<path fill="#EDAF77" d="M63.2416,109.94c0.6396,0.5,1.3896,0.7397,2.1396,0.7397c1.0503,0,2.0801-0.4697,2.77-1.3599
		c1.1802-1.5298,0.8999-3.73-0.6201-4.9102c-1.5298-1.1899-3.73-0.9097-4.9097,0.6201
		C61.4315,106.5602,61.7113,108.7599,63.2416,109.94z"/>
	<path fill="#EDAF77" d="M382.3812,63.1798c0.6104,0.4502,1.3301,0.6602,2.0303,0.6602c1.0898,0,2.1699-0.5098,2.8496-1.46
		c1.1299-1.5698,0.7705-3.7598-0.8096-4.8901c-1.5703-1.1196-3.75-0.7598-4.8799,0.8101
		C380.4418,59.8702,380.8109,62.0601,382.3812,63.1798z"/>
	<path fill="#EDAF77" d="M419.351,402.3502c-1.29,1.4297-1.1699,3.6494,0.2607,4.9395c0.6699,0.6006,1.5098,0.9004,2.3398,0.9004
		c0.96,0,1.9102-0.3896,2.6094-1.1602c1.29-1.4395,1.1709-3.6504-0.2598-4.9395
		C422.8617,400.7896,420.6517,400.9098,419.351,402.3502z"/>
	<path fill="#EDAF77" d="M52.5814,119.0201c-1.0698,1.6099-0.6299,3.7798,0.98,4.8501c0.5898,0.3999,1.2598,0.5898,1.9302,0.5898
		c1.1299,0,2.25-0.5503,2.9199-1.5703c1.0698-1.6099,0.6299-3.7798-0.98-4.8496C55.8212,116.9698,53.6512,117.4098,52.5814,119.0201
		z"/>
	<path fill="#EDAF77" d="M43.5912,133.6998c-0.9497,1.6802-0.3599,3.8203,1.3301,4.77c0.54,0.3003,1.1299,0.4502,1.71,0.4502
		c1.2202,0,2.4102-0.6401,3.0503-1.79c0.9497-1.6802,0.3599-3.8101-1.3301-4.7598C46.6713,131.42,44.5311,132.0099,43.5912,133.6998
		z"/>
	<path fill="#EDAF77" d="M100.6815,74.1202c0.79,0,1.5898-0.27,2.2397-0.8101c1.4902-1.2402,1.6899-3.4399,0.4502-4.9302
		c-1.23-1.4902-3.4399-1.6899-4.9302-0.4502c-1.48,1.23-1.6899,3.4404-0.4497,4.9302
		C98.6815,73.69,99.6815,74.1202,100.6815,74.1202z"/>
	<path fill="#EDAF77" d="M460.9115,345.2301c-1.7402-0.8203-3.8301-0.0703-4.6602,1.6699c-0.8203,1.75-0.0703,3.8398,1.6699,4.6602
		c0.4902,0.2295,1,0.3398,1.5,0.3398c1.3105,0,2.5703-0.7402,3.1602-2.0098C463.4115,348.1402,462.6615,346.0602,460.9115,345.2301z
		"/>
	<path fill="#EDAF77" d="M114.1215,63.7398c0.6997,0,1.4199-0.21,2.0298-0.6499c1.5703-1.1201,1.9399-3.3101,0.8101-4.8799
		c-1.1201-1.5801-3.3101-1.9399-4.8799-0.8101c-1.5698,1.1201-1.9399,3.3101-0.8101,4.8799
		C111.9515,63.2398,113.0311,63.7398,114.1215,63.7398z"/>
	<path fill="#EDAF77" d="M453.3412,360.4098c-1.6797-0.9502-3.8096-0.3594-4.7695,1.3203c0.0098,0,0.0098,0,0.0098,0
		c-0.9502,1.6797-0.3604,3.8203,1.3203,4.7695c0.54,0.3105,1.1396,0.4502,1.7197,0.4502c1.2197,0,2.4102-0.6299,3.0498-1.7695
		C455.6215,363.4898,455.0316,361.36,453.3412,360.4098z"/>
	<path fill="#EDAF77" d="M88.0414,85.44c0.8701,0,1.75-0.3198,2.4302-0.98c1.3896-1.3398,1.4297-3.5601,0.0898-4.9502
		c-1.3398-1.3896-3.5601-1.4297-4.9502-0.0898c-1.3896,1.3398-1.4297,3.5498-0.0898,4.9502
		C86.2015,85.0802,87.1215,85.44,88.0414,85.44z"/>
	<path fill="#EDAF77" d="M294.4213,477.2896c-0.3496-1.9102-2.1699-3.1699-4.0703-2.8193
		c-1.8994,0.3398-3.1699,2.1592-2.8193,4.0693c0.3096,1.6904,1.7793,2.8701,3.4395,2.8701c0.21,0,0.4199-0.0098,0.6299-0.0498
		v-0.0098C293.5013,481.0103,294.7611,479.19,294.4213,477.2896z"/>
	<path fill="#EDAF77" d="M76.2513,97.65c0.96,0,1.9199-0.3901,2.6099-1.1602c1.29-1.4399,1.1699-3.6597-0.27-4.9497
		s-3.6499-1.1699-4.9399,0.27s-1.1797,3.6499,0.2603,4.9399C74.5814,97.3502,75.4213,97.65,76.2513,97.65z"/>
	<path fill="#EDAF77" d="M323.2015,32.69c0.3799,0.1299,0.7598,0.1899,1.1299,0.1899c1.46,0,2.8203-0.9199,3.3096-2.3701
		c0.6299-1.8301-0.3496-3.8198-2.1797-4.4399h0.0098c-1.8301-0.6299-3.8193,0.3501-4.4502,2.1802
		C320.391,30.0802,321.3715,32.0699,323.2015,32.69z"/>
	<path fill="#EDAF77" d="M410.4711,85.5401c0.9102,0,1.8301-0.3604,2.5205-1.0703c1.3398-1.3896,1.2998-3.5996-0.0898-4.9497v0.0098
		c-1.3906-1.3501-3.6104-1.3101-4.9502,0.0801c-1.3398,1.3999-1.3105,3.6099,0.0898,4.9502
		C408.7211,85.2198,409.5912,85.5401,410.4711,85.5401z"/>
	<path fill="#EDAF77" d="M338.7914,38.6598c0.4502,0.1904,0.9102,0.2803,1.3701,0.2803c1.3594,0,2.6494-0.8003,3.2197-2.1299
		c0.7598-1.7803-0.0703-3.8301-1.8496-4.5903c-1.7803-0.7598-3.8398,0.0703-4.5898,1.8501
		C336.181,35.8502,337.0111,37.9,338.7914,38.6598z"/>
	<path fill="#EDAF77" d="M395.2611,425.4898c-1.4902,1.2402-1.6895,3.4404-0.46,4.9297c0.6904,0.8408,1.6904,1.2705,2.7002,1.2705
		c0.7803,0,1.5801-0.2705,2.2305-0.8105c1.4893-1.2393,1.6895-3.4395,0.46-4.9297
		C398.9515,424.4596,396.7513,424.2603,395.2611,425.4898z"/>
	<path fill="#EDAF77" d="M372.8715,446.0797c-1.0098-1.6602-3.1602-2.1797-4.8105-1.1699c-1.6494,1-2.1699,3.1602-1.1699,4.8105
		c0.6602,1.0801,1.8105,1.6797,3,1.6797c0.6201,0,1.2402-0.1699,1.8105-0.5098
		C373.351,449.8795,373.8812,447.7301,372.8715,446.0797z"/>
	<path fill="#EDAF77" d="M177.1014,470.2799c0.6299-1.8301-0.3501-3.8203-2.1699-4.4395c-1.8301-0.6309-3.8203,0.3398-4.4502,2.1699
		s0.3501,3.8193,2.1802,4.4492c0.3696,0.1309,0.75,0.1904,1.1299,0.1904C175.2416,472.65,176.6014,471.7301,177.1014,470.2799z"/>
	<path fill="#EDAF77" d="M307.2015,27.88c0.2998,0.0698,0.5996,0.1099,0.8896,0.1099c1.5498,0,2.9697-1.04,3.3799-2.6196
		c0.4902-1.8701-0.6299-3.7803-2.5-4.27c-1.8701-0.48-3.7793,0.6396-4.2695,2.5098S305.3314,27.3897,307.2015,27.88z"/>
	<path fill="#EDAF77" d="M397.8314,74.2198c1.0098,0,2-0.4297,2.6895-1.2598c1.2402-1.4902,1.04-3.7002-0.4492-4.9302
		c-1.4805-1.2397-3.6904-1.04-4.9307,0.4502c-1.2295,1.48-1.0293,3.6899,0.46,4.9199
		C396.2513,73.9498,397.0414,74.2198,397.8314,74.2198z"/>
	<path fill="#EDAF77" d="M386.9017,436.5103c-1.1309-1.5703-3.3105-1.9404-4.8809-0.8105
		c-1.5791,1.1201-1.9395,3.2998-0.8193,4.8799c0.6797,0.96,1.7598,1.46,2.8496,1.46c0.7002,0,1.4199-0.21,2.0303-0.6494
		C387.6615,440.2701,388.0209,438.0797,386.9017,436.5103z"/>
	<path fill="#EDAF77" d="M207.1415,24.2599c0.21,0,0.4199-0.02,0.6299-0.0601c1.8999-0.3398,3.1602-2.1699,2.8101-4.0698
		c-0.3398-1.8999-2.1699-3.1602-4.0698-2.8101c-1.9004,0.3398-3.1602,2.1699-2.8101,4.0698
		C204.0116,23.0802,205.4813,24.2599,207.1415,24.2599z"/>
	<path fill="#EDAF77" d="M353.9017,45.7599c0.5098,0.27,1.0596,0.3901,1.5996,0.3901c1.2695,0,2.4902-0.6899,3.1104-1.8901
		c0.8896-1.7197,0.21-3.8301-1.5107-4.7197c-1.71-0.8901-3.8301-0.21-4.71,1.5098C351.5013,42.7701,352.181,44.88,353.9017,45.7599z
		"/>
	<path fill="#EDAF77" d="M226.8514,480.6197c0.21-1.9199-1.1699-3.6494-3.1001-3.8594c0.0103,0,0.0103,0,0.0103,0
		c-1.9302-0.21-3.6602,1.1699-3.8701,3.0898s1.1797,3.6494,3.1001,3.8701c0.1299,0.0098,0.2598,0.0195,0.3799,0.0195
		C225.1312,483.7398,226.6512,482.4098,226.8514,480.6197z"/>
	<path fill="#EDAF77" d="M368.4515,53.9498c0.5693,0.3501,1.2002,0.52,1.8301,0.52c1.1797,0,2.3301-0.5996,2.9893-1.6797
		c1.0107-1.6504,0.4902-3.8003-1.1592-4.8101c-1.6504-1.0103-3.8105-0.4902-4.8203,1.1597
		C366.2914,50.7901,366.8109,52.94,368.4515,53.9498z"/>
	<path fill="#EDAF77" d="M440.0814,123.0299c0.6797,1.02,1.79,1.5703,2.9199,1.5703c0.6699,0,1.3398-0.1904,1.9297-0.5903
		c1.6104-1.0601,2.0508-3.2397,0.9902-4.8501c-1.0703-1.6099-3.2402-2.0498-4.8604-0.98
		C439.4515,119.2501,439.0111,121.42,440.0814,123.0299z"/>
	<path fill="#EDAF77" d="M193.4213,474.9498c0.4902-1.8701-0.6299-3.79-2.5-4.2803c-1.8701-0.4893-3.7798,0.6309-4.27,2.5
		c-0.4897,1.8701,0.6201,3.7803,2.4902,4.2705c0.2998,0.0801,0.6001,0.1201,0.8896,0.1201
		C191.5912,477.5602,193.0013,476.5201,193.4213,474.9498z"/>
	<path fill="#EDAF77" d="M407.7318,414.3502c0,0.0098,0,0.0098,0,0.0098c-1.4004,1.3398-1.4404,3.5498-0.1006,4.9404
		c0.6797,0.7197,1.6006,1.0791,2.5205,1.0791c0.8691,0,1.75-0.3291,2.4297-0.9795c1.3896-1.3398,1.4395-3.5498,0.0996-4.9404
		C411.3412,413.0602,409.1215,413.0201,407.7318,414.3502z"/>
	<path fill="#EDAF77" d="M240.8514,20.61c0.04,0,0.0801,0,0.1299,0c1.9302-0.0698,3.4399-1.6899,3.3701-3.6201
		c-0.0703-1.9399-1.6899-3.4497-3.6201-3.3799s-3.4399,1.6899-3.3799,3.6201C237.4213,19.1202,238.9716,20.61,240.8514,20.61z"/>
	<path fill="#EDAF77" d="M223.9315,21.8199c0.1196,0,0.25-0.0098,0.3799-0.02c1.9199-0.21,3.3101-1.9399,3.1001-3.8599
		s-1.9302-3.3101-3.8604-3.1001c-1.9199,0.21-3.3096,1.9302-3.0996,3.8599C220.6415,20.4898,222.1615,21.8199,223.9315,21.8199z"/>
	<path fill="#EDAF77" d="M342.9017,462.0201c-0.75-1.7803-2.8008-2.6104-4.5801-1.8604c-1.7803,0.75-2.6201,2.7998-1.8604,4.5898
		c0.5596,1.3301,1.8604,2.1299,3.2197,2.1299c0.46,0,0.9199-0.0898,1.3604-0.2695
		C342.8217,465.8502,343.6615,463.8004,342.9017,462.0201z"/>
	<path fill="#EDAF77" d="M274.3617,21.8302c0.1299,0.0098,0.2598,0.02,0.3799,0.02c1.7695,0,3.2793-1.3301,3.4795-3.1201
		c0.21-1.9199-1.1797-3.6499-3.0996-3.8599c-1.9199-0.2104-3.6504,1.1797-3.8604,3.0996S272.4418,21.6202,274.3617,21.8302z"/>
	<path fill="#EDAF77" d="M422.2513,97.7599c0.8301,0,1.6602-0.2998,2.3301-0.8999c1.4395-1.29,1.5596-3.5,0.2695-4.9399
		s-3.5-1.5601-4.9395-0.27c-1.4404,1.29-1.5605,3.5098-0.2705,4.9502C420.3314,97.3702,421.2914,97.7599,422.2513,97.7599z"/>
	<path fill="#EDAF77" d="M290.891,24.2501c0.2207,0.04,0.4307,0.0601,0.6406,0.0601c1.6494,0,3.1299-1.1802,3.4395-2.8701
		c0.3506-1.8999-0.9102-3.7202-2.8096-4.0698c-1.9004-0.3501-3.7305,0.8999-4.0801,2.8096
		C287.7318,22.0802,288.9916,23.9,290.891,24.2501z"/>
	<path fill="#EDAF77" d="M430.3412,109.44c0.6904,0.8901,1.7305,1.3599,2.7705,1.3599c0.75,0,1.5-0.2397,2.1396-0.73
		c1.5303-1.1802,1.8096-3.3799,0.6299-4.9102c-1.1797-1.5298-3.3799-1.8096-4.9102-0.6299
		C429.4418,105.7101,429.1615,107.9098,430.3412,109.44z"/>
	<path fill="#EDAF77" d="M257.6918,20.6202c0.0498,0,0.0898,0,0.1299,0c1.8799,0,3.4297-1.4902,3.5-3.3701
		c0.0693-1.9399-1.4404-3.5601-3.3701-3.6299c-1.9307-0.0703-3.5605,1.4399-3.6299,3.3696
		C254.2513,18.92,255.7611,20.5499,257.6918,20.6202z"/>
	<path fill="#EDAF77" d="M358.181,454.6002c-0.8799-1.7207-2.9893-2.4004-4.71-1.5205c-1.7197,0.8799-2.3994,2.9902-1.5195,4.71
		c0.6201,1.21,1.8496,1.9004,3.1201,1.9004c0.54,0,1.0801-0.1201,1.5898-0.3799
		C358.3812,458.4303,359.0609,456.3199,358.181,454.6002z"/>
	<path fill="#EDAF77" d="M469.351,334.0797v-0.0098c0.7002-1.7998-0.1992-3.8301-2-4.5195
		c-1.8096-0.7002-3.8301,0.1992-4.5293,2.0098c-0.6904,1.7998,0.21,3.8301,2.0098,4.5195c0.4102,0.1602,0.8398,0.2402,1.2598,0.2402
		C467.4916,336.3199,468.8217,335.4596,469.351,334.0797z"/>
	<path fill="#EDAF77" d="M479.6117,218.9498c1.9092-0.2798,3.2295-2.0498,2.96-3.96c-0.2803-1.9199-2.0605-3.2397-3.9707-2.96
		c-1.9199,0.2803-3.2393,2.0503-2.96,3.9702c0.25,1.7397,1.75,2.9897,3.46,2.9897
		C479.2709,218.9898,479.4418,218.9801,479.6117,218.9498z"/>
	<path fill="#EDAF77" d="M73.6215,401.5396c-1.4399,1.2803-1.5601,3.5-0.27,4.9404c0.6899,0.7695,1.6499,1.1602,2.6099,1.1602
		c0.8301,0,1.6602-0.29,2.3301-0.8906c1.4399-1.29,1.5601-3.5,0.2798-4.9395C77.2811,400.3697,75.0712,400.2496,73.6215,401.5396z"
		/>
	<path fill="#EDAF77" d="M25.7216,298.8004c-0.4204-1.8906-2.29-3.0801-4.1704-2.6602c-1.8896,0.4102-3.0898,2.2793-2.6699,4.1699
		c0.3604,1.6299,1.8101,2.7402,3.4102,2.7402c0.25,0,0.5098-0.0205,0.7598-0.0801C24.9413,302.5504,26.1312,300.69,25.7216,298.8004
		z"/>
	<path fill="#EDAF77" d="M27.5614,319.3297c1.8501-0.5498,2.8999-2.5,2.3501-4.3594c-0.5503-1.8506-2.5-2.9004-4.3501-2.3506
		c-1.8599,0.5498-2.9102,2.5-2.3599,4.3604c0.46,1.5195,1.8496,2.5,3.3599,2.5C26.8915,319.4801,27.2313,319.4303,27.5614,319.3297z
		"/>
	<path fill="#EDAF77" d="M19.7616,286.3297c1.9097-0.2793,3.2397-2.0498,2.96-3.9697c-0.27-1.9102-2.0503-3.2402-3.96-2.96
		c-1.9204,0.2803-3.2402,2.0498-2.9702,3.96c0.25,1.75,1.75,3,3.46,3C19.4213,286.36,19.5912,286.3502,19.7616,286.3297z"/>
	<path fill="#EDAF77" d="M481.5511,245.8102c-1.9395,0-3.5,1.5698-3.5,3.5c0,0.0898,0,0.1899,0.0098,0.2798
		c-0.0098,0.0898-0.0098,0.1802-0.0098,0.27c-0.0098,1.9297,1.5605,3.5,3.4902,3.5098c0,0,0,0,0.0098,0
		c1.9199,0,3.4902-1.5596,3.5-3.4897c0-0.1001-0.0098-0.1899-0.0098-0.29c0-0.0898,0.0098-0.1802,0.0098-0.2798
		C485.0511,247.38,483.4818,245.8102,481.5511,245.8102z"/>
	<path fill="#EDAF77" d="M468.4115,183.3897c0.46,1.52,1.8496,2.5,3.3496,2.5c0.3398,0,0.6699-0.0498,1.0098-0.1499
		c1.8506-0.5601,2.9004-2.5098,2.3506-4.3599c-0.5605-1.8501-2.5098-2.8999-4.3604-2.3501
		C468.9115,179.5899,467.8617,181.5401,468.4115,183.3897z"/>
	<path fill="#EDAF77" d="M97.6615,425.4703c-1.2402,1.4893-1.0503,3.6895,0.4399,4.9297c0.6499,0.5498,1.4497,0.8203,2.2397,0.8203
		c1,0,1.9902-0.4307,2.6899-1.2607c1.2402-1.4795,1.04-3.6895-0.4399-4.9297C101.1014,423.7896,98.8915,423.9898,97.6615,425.4703z"
		/>
	<path fill="#EDAF77" d="M260.7611,481.4c-0.0693-1.9297-1.6895-3.4404-3.6201-3.3799c-1.9297,0.0703-3.4492,1.6895-3.3799,3.6201
		c0.0605,1.8896,1.6201,3.3799,3.5,3.3799c0.04,0,0.0801,0,0.1201,0C259.3109,484.9498,260.8217,483.3297,260.7611,481.4z"/>
	<path fill="#EDAF77" d="M85.2113,413.94c-1.3501,1.3896-1.3101,3.6104,0.0801,4.9502c0.6802,0.6602,1.5601,0.9795,2.4302,0.9795
		c0.9199,0,1.8296-0.3496,2.52-1.0596c1.3398-1.3906,1.3096-3.6104-0.0903-4.9502C88.7616,412.5103,86.5511,412.5504,85.2113,413.94
		z"/>
	<path fill="#EDAF77" d="M62.9716,388.3199c-1.5303,1.1797-1.8101,3.3799-0.6304,4.9102c0.6899,0.8896,1.73,1.3604,2.77,1.3604
		c0.75,0,1.5-0.2402,2.1401-0.7305c1.5298-1.1797,1.8101-3.3701,0.6299-4.9102C66.7015,387.4195,64.5013,387.1402,62.9716,388.3199z
		"/>
	<path fill="#EDAF77" d="M481.1615,263.3297c-1.9297-0.1396-3.6104,1.3105-3.75,3.2305c-0.1504,1.9297,1.2998,3.6094,3.2295,3.75
		c0.0908,0.0098,0.1699,0.0098,0.2607,0.0098c1.8193,0,3.3496-1.4004,3.4893-3.2402
		C484.5316,265.1598,483.0912,263.4801,481.1615,263.3297z"/>
	<path fill="#EDAF77" d="M44.6913,359.7301c-1.6899,0.9502-2.29,3.0801-1.3398,4.7695c0.6401,1.1406,1.8301,1.79,3.0498,1.79
		c0.5801,0,1.1699-0.1494,1.71-0.4492c1.6899-0.9502,2.29-3.0801,1.3403-4.7705C48.5116,359.3902,46.3715,358.7896,44.6913,359.7301
		z"/>
	<path fill="#EDAF77" d="M478.5111,287.15c0.1699,0.0195,0.3398,0.0303,0.5098,0.0303c1.7109,0.0098,3.2109-1.2402,3.4609-2.9805
		c0.2891-1.9102-1.0303-3.7002-2.9404-3.9795c-1.9199-0.2803-3.7002,1.04-3.9805,2.9492
		C475.2816,285.0797,476.601,286.86,478.5111,287.15z"/>
	<path fill="#EDAF77" d="M277.6615,479.9596c-0.2002-1.9297-1.9297-3.3193-3.8506-3.1094c-1.9199,0.21-3.3096,1.9297-3.1094,3.8496
		c0.1895,1.7998,1.71,3.1299,3.4795,3.1299c0.1201,0,0.25-0.0098,0.3701-0.0195
		C276.4818,483.6002,277.8715,481.8795,277.6615,479.9596z"/>
	<path fill="#EDAF77" d="M53.3114,374.36c-1.6099,1.0703-2.0601,3.2402-0.9902,4.8496c0.6704,1.0205,1.79,1.5703,2.9204,1.5703
		c0.6699,0,1.3398-0.1895,1.9297-0.5801c1.6099-1.0703,2.0503-3.2402,0.9902-4.8496
		C57.0912,373.7398,54.9213,373.2896,53.3114,374.36z"/>
	<path fill="#EDAF77" d="M145.7513,457.44c0.8901-1.7197,0.21-3.8301-1.5-4.71c-1.7202-0.8896-3.8301-0.2197-4.7202,1.5
		c-0.8896,1.7197-0.21,3.8301,1.5,4.71c0.52,0.2695,1.0703,0.4004,1.6104,0.4004C143.9012,459.3404,145.1312,458.65,145.7513,457.44
		z"/>
	<path fill="#EDAF77" d="M35.2811,330.8004c-0.6797-1.8105-2.71-2.7207-4.5098-2.0303c-1.8101,0.6895-2.71,2.71-2.0298,4.5195
		c0.5396,1.4004,1.8696,2.25,3.2798,2.25c0.4102,0,0.8301-0.0693,1.2402-0.2295C35.0712,334.6197,35.9716,332.6002,35.2811,330.8004
		z"/>
	<path fill="#EDAF77" d="M480.931,235.86c0.0898,0,0.1699-0.0098,0.2607-0.0098c1.9297-0.1401,3.3799-1.8203,3.2393-3.7402v-0.0098
		c-0.1396-1.9204-1.8193-3.3701-3.7393-3.23c-1.9307,0.1299-3.3809,1.8096-3.2402,3.7397
		C477.5814,234.4498,479.1117,235.86,480.931,235.86z"/>
	<path fill="#EDAF77" d="M475.2914,195.3897c-1.8896,0.4102-3.0801,2.2803-2.6699,4.1704c0.3701,1.6299,1.8096,2.7397,3.4199,2.7397
		c0.25,0,0.5-0.02,0.7598-0.0801c1.8906-0.4199,3.0801-2.29,2.6602-4.1699C479.0414,196.1598,477.1713,194.9698,475.2914,195.3897z"
		/>
	<path fill="#EDAF77" d="M41.8114,346.1998c-0.8198-1.75-2.8999-2.5098-4.6499-1.6895c-1.75,0.8193-2.5103,2.8994-1.6899,4.6494
		c0.5996,1.2803,1.8599,2.0205,3.1797,2.0205c0.4902,0,1-0.1104,1.48-0.3301C41.8812,350.0299,42.6312,347.9498,41.8114,346.1998z"
		/>
	<path fill="#EDAF77" d="M19.0013,197.7799c-0.4199,1.8799,0.77,3.75,2.6499,4.1699c0.2603,0.0601,0.5103,0.0903,0.77,0.0903
		c1.6001,0,3.0503-1.1104,3.4102-2.7402c0.4199-1.8901-0.7603-3.7598-2.6499-4.1797
		C21.2914,194.6998,19.4213,195.8897,19.0013,197.7799z"/>
	<path fill="#EDAF77" d="M25.7015,185.4801c0.3398,0.1001,0.6797,0.1499,1.0098,0.1499c1.5103,0,2.8999-0.98,3.3501-2.4902
		c0.5601-1.8496-0.4902-3.8096-2.3398-4.3599c-1.8501-0.5601-3.8003,0.48-4.3604,2.3301
		C22.8011,182.9698,23.8514,184.92,25.7015,185.4801z"/>
	<path fill="#EDAF77" d="M18.8314,218.69c0.1699,0.02,0.3398,0.0298,0.5098,0.0298c1.71,0,3.2002-1.25,3.46-2.9897
		c0.2803-1.9102-1.0396-3.6899-2.96-3.9702c-1.9097-0.2798-3.6899,1.04-3.9697,2.9502C15.5912,216.63,16.9115,218.4,18.8314,218.69z
		"/>
	<path fill="#EDAF77" d="M17.4413,269.4996c0.0801,0,0.1699-0.0098,0.25-0.0098c1.9302-0.1396,3.3799-1.8203,3.2402-3.7402
		c-0.1304-1.9297-1.8101-3.3799-3.7402-3.25c-1.9199,0.1406-3.3799,1.8105-3.2397,3.7402
		C14.0814,268.0904,15.6215,269.4996,17.4413,269.4996z"/>
	<path fill="#EDAF77" d="M459.6312,154.1798c0.5,0,1.0098-0.1099,1.4902-0.3398c1.75-0.8198,2.5-2.8999,1.6797-4.6499
		c-0.8193-1.75-2.8994-2.5-4.6494-1.6802c-1.7607,0.8203-2.5107,2.8999-1.6807,4.6499
		C457.0609,153.4298,458.3217,154.1798,459.6312,154.1798z"/>
	<path fill="#EDAF77" d="M37.3715,153.65c0.48,0.23,0.9897,0.3301,1.48,0.3301c1.3198,0,2.5801-0.7402,3.1699-2.0103
		c0.8301-1.75,0.0801-3.8301-1.6699-4.6597c-1.75-0.8203-3.8398-0.0703-4.6602,1.6797
		C34.8715,150.7398,35.6215,152.8302,37.3715,153.65z"/>
	<path fill="#EDAF77" d="M450.141,132.5299c-1.6797,0.9502-2.2793,3.0801-1.3301,4.77c0.6406,1.1401,1.8301,1.7803,3.0508,1.7803
		c0.5801,0,1.1699-0.1401,1.71-0.4502c1.6895-0.9502,2.29-3.0801,1.3398-4.77C453.9613,132.1798,451.8314,131.5802,450.141,132.5299
		z"/>
	<path fill="#EDAF77" d="M130.8514,449.3297c1.02-1.6494,0.5-3.7998-1.1499-4.8096c-1.6504-1.0098-3.8003-0.5-4.8101,1.1494
		c-1.0103,1.6504-0.5,3.8105,1.1499,4.8203c0.5698,0.3506,1.2002,0.5098,1.8301,0.5098
		C129.0414,450.9996,130.1913,450.4098,130.8514,449.3297z"/>
	<path fill="#EDAF77" d="M30.9515,169.3399c0.4199,0.1602,0.8398,0.23,1.2598,0.23c1.3999,0,2.73-0.8501,3.2603-2.2397
		c0.6997-1.8101-0.2002-3.8301-2.0103-4.5303c-1.7998-0.6899-3.8301,0.21-4.52,2.02
		C28.2513,166.6202,29.1512,168.65,30.9515,169.3399z"/>
	<path fill="#EDAF77" d="M476.681,296.9498c-1.8799-0.4199-3.75,0.7598-4.1699,2.6504c-0.0098,0-0.0098,0-0.0098,0
		c-0.4199,1.8799,0.7695,3.7598,2.6504,4.1797c0.2598,0.0605,0.5195,0.0898,0.7695,0.0898c1.5996,0,3.0498-1.1094,3.4199-2.7402
		C479.7611,299.2398,478.5717,297.3697,476.681,296.9498z"/>
	<path fill="#EDAF77" d="M20.3514,249.0401c0.0098-1.9302-1.5601-3.5-3.4902-3.5c-1.9399,0-3.5,1.5601-3.5098,3.5
		c0,1.9302,1.5698,3.4995,3.5,3.4995C18.7811,252.5396,20.3514,250.9801,20.3514,249.0401z"/>
	<path fill="#EDAF77" d="M17.7416,228.5899c-1.9302-0.1401-3.6104,1.3101-3.75,3.2402c-0.1401,1.9297,1.3096,3.5996,3.2397,3.7397
		c0.0801,0.0103,0.1699,0.0103,0.2603,0.0103c1.8096,0,3.3496-1.4004,3.48-3.2402
		C21.1112,230.4098,19.6615,228.7301,17.7416,228.5899z"/>
	<path fill="#EDAF77" d="M113.7416,441.61c1.0898,0,2.1699-0.5,2.8496-1.4502c1.1304-1.5801,0.77-3.7598-0.7998-4.8896
		s-3.7603-0.7705-4.8799,0.7998c-1.1304,1.5703-0.77,3.7598,0.79,4.8799v0.0098C112.3212,441.4,113.0414,441.61,113.7416,441.61z"/>
	<path fill="#EDAF77" d="M243.7914,481.6197c0.0698-1.9297-1.4399-3.5596-3.3701-3.6299c-1.9297-0.0703-3.5601,1.4404-3.6299,3.3701
		s1.4399,3.5498,3.3701,3.6299c0.04,0,0.0898,0,0.1299,0C242.1615,484.9898,243.7113,483.5103,243.7914,481.6197z"/>
	<path fill="#EDAF77" d="M463.0111,167.5602c0.54,1.3896,1.8701,2.25,3.2705,2.25c0.4199,0,0.8398-0.0801,1.25-0.2402
		c1.8096-0.6899,2.71-2.71,2.0195-4.52c-0.6895-1.7998-2.71-2.6997-4.5195-2.0098
		C463.2318,163.7301,462.3217,165.7501,463.0111,167.5602z"/>
	<path fill="#EDAF77" d="M428.5717,81.0099c0.5,0,0.9893-0.1899,1.3799-0.5498c0.7998-0.7603,0.8301-2.0303,0.0693-2.8301
		c-0.7598-0.7998-2.0293-0.8301-2.8291-0.0698c-0.8008,0.7598-0.8301,2.02-0.0703,2.8296
		C427.5111,80.7999,428.0414,81.0099,428.5717,81.0099z"/>
	<path fill="#EDAF77" d="M388.601,47.4c0.3506,0.2397,0.75,0.3501,1.1406,0.3501c0.6299,0,1.2598-0.3003,1.6494-0.8604
		c0.6201-0.9097,0.4004-2.1597-0.5098-2.7798c-0.9102-0.6299-2.1494-0.3999-2.7803,0.5
		C387.4711,45.5201,387.6918,46.7701,388.601,47.4z"/>
	<path fill="#EDAF77" d="M402.181,57.5001c0.3701,0.29,0.8105,0.4399,1.25,0.4399c0.5898,0,1.1699-0.2603,1.5703-0.7603
		c0.6904-0.8599,0.54-2.1196-0.3203-2.8096c-0.8594-0.6904-2.1201-0.5503-2.8096,0.3198
		C401.181,55.5499,401.3217,56.8101,402.181,57.5001z"/>
	<path fill="#EDAF77" d="M491.3011,200.4601c0.1406,0,0.2803-0.02,0.4102-0.0503c1.0898-0.2197,1.7803-1.2798,1.5498-2.3599
		c-0.2197-1.0898-1.2793-1.7798-2.3594-1.5498c-1.0801,0.2197-1.7803,1.2798-1.5508,2.3599
		C489.5414,199.8102,490.3812,200.4601,491.3011,200.4601z"/>
	<path fill="#EDAF77" d="M492.2416,215.5499c0.1299,1,0.9902,1.7202,1.9697,1.7202c0.0898,0,0.1904,0,0.2803-0.0103
		c1.0898-0.1597,1.8594-1.1597,1.71-2.2598c-0.1504-1.0903-1.1602-1.8604-2.2598-1.71
		C492.851,213.44,492.0814,214.4498,492.2416,215.5499z"/>
	<path fill="#EDAF77" d="M487.2416,183.88c0.1797,0,0.3594-0.0298,0.54-0.0801c1.0596-0.2998,1.6797-1.3999,1.3799-2.4697
		c-0.2998-1.0601-1.4004-1.6802-2.4697-1.3804c-1.0605,0.3003-1.6807,1.4102-1.3809,2.4702
		C485.5609,183.3102,486.3617,183.88,487.2416,183.88z"/>
	<path fill="#EDAF77" d="M450.3217,107.3102c0.4102,0,0.8096-0.1201,1.1699-0.3701c0.8994-0.6499,1.0996-1.8999,0.46-2.79v-0.0103
		c-0.6504-0.8896-1.9004-1.0996-2.79-0.4497c-0.9004,0.6401-1.1104,1.8901-0.46,2.79
		C449.0912,107.0201,449.7015,107.3102,450.3217,107.3102z"/>
	<path fill="#EDAF77" d="M493.9711,232.3897c-0.0098,0-0.0098,0-0.0098,0c0.0801,1.0503,0.9502,1.8604,2,1.8604
		c0.04,0,0.0898,0,0.1396,0c1.1006-0.0801,1.9307-1.0303,1.8604-2.1299c-0.0801-1.1001-1.0303-1.9404-2.1396-1.8604
		C494.7211,230.3302,493.891,231.2901,493.9711,232.3897z"/>
	<path fill="#EDAF77" d="M401.8412,441.4c-0.8701,0.6797-1.0098,1.9404-0.3203,2.8096c0.3906,0.4902,0.9805,0.75,1.5703,0.75
		c0.4297,0,0.8701-0.1396,1.2402-0.4297c0.8604-0.6895,1.0098-1.9502,0.3203-2.8096
		C403.9613,440.8502,402.7015,440.7096,401.8412,441.4z"/>
	<path fill="#EDAF77" d="M416.4017,69.0401c0.54,0,1.0801-0.2202,1.4697-0.6504c0.75-0.8096,0.6895-2.0796-0.1201-2.8198
		c-0.8096-0.75-2.0801-0.6997-2.8301,0.1201c-0.7402,0.8101-0.6895,2.0801,0.1201,2.8198
		C415.431,68.8702,415.9115,69.0401,416.4017,69.0401z"/>
	<path fill="#EDAF77" d="M468.2611,136.36c0.3203,0,0.6406-0.0698,0.9307-0.23c0.9795-0.5098,1.3594-1.7202,0.8398-2.7002
		c-0.5107-0.98-1.7207-1.3496-2.7002-0.8398c-0.9805,0.5103-1.3496,1.7202-0.8398,2.7002
		C466.851,135.9698,467.5414,136.36,468.2611,136.36z"/>
	<path fill="#EDAF77" d="M482.5111,331.6598c-1.04-0.3799-2.1895,0.1602-2.5596,1.2002c-0.3799,1.0303,0.1602,2.1797,1.2002,2.5596
		c0.2197,0.0801,0.4492,0.1201,0.6797,0.1201c0.8096,0,1.5801-0.5098,1.8799-1.3193
		C484.0814,333.1803,483.5511,332.0396,482.5111,331.6598z"/>
	<path fill="#EDAF77" d="M438.0814,405.9c-0.71,0.8496-0.5898,2.1104,0.2598,2.8203c0.3701,0.3096,0.8203,0.46,1.2705,0.46
		c0.5801,0,1.1494-0.25,1.54-0.7207c0.71-0.8594,0.5898-2.1191-0.2607-2.8193C440.0414,404.9303,438.7816,405.0504,438.0814,405.9z"
		/>
	<path fill="#EDAF77" d="M451.2318,392.0602c-0.9004-0.6504-2.1504-0.4502-2.8008,0.4502c-0.6396,0.8896-0.4395,2.1396,0.46,2.79
		c0.3506,0.2598,0.7607,0.3799,1.1602,0.3799c0.6299,0,1.2402-0.29,1.6299-0.8301
		C452.3314,393.9498,452.1215,392.6998,451.2318,392.0602z"/>
	<path fill="#EDAF77" d="M487.6312,315.3697c-1.0703-0.2998-2.1699,0.3203-2.4795,1.3799
		c-0.3008,1.0605,0.3193,2.1699,1.3799,2.4707c0.1797,0.0498,0.3701,0.0801,0.5498,0.0801c0.8701,0,1.6699-0.5801,1.9199-1.46
		C489.3011,316.7799,488.6918,315.6695,487.6312,315.3697z"/>
	<path fill="#EDAF77" d="M131.1512,464.4303c-0.9697-0.5303-2.1899-0.1807-2.7197,0.79c-0.5303,0.9697-0.1802,2.1797,0.79,2.7197
		v-0.0098c0.2998,0.1699,0.6299,0.25,0.96,0.25c0.71,0,1.3896-0.3701,1.75-1.0303
		C132.4716,466.1803,132.1112,464.9596,131.1512,464.4303z"/>
	<path fill="#EDAF77" d="M468.9613,362.9303c-0.9697-0.5107-2.1797-0.1406-2.7002,0.8398
		c-0.5195,0.9697-0.1396,2.1797,0.8398,2.7002c0.29,0.1592,0.6104,0.2295,0.9307,0.2295c0.7197,0,1.4102-0.3896,1.7695-1.0703
		C470.3109,364.6598,469.9418,363.4498,468.9613,362.9303z"/>
	<path fill="#EDAF77" d="M491.601,298.7701c-1.0801-0.2305-2.1396,0.46-2.3691,1.54c0,0.0098,0,0.0098,0,0.0098
		c-0.2305,1.0801,0.46,2.1396,1.5391,2.3701c0.1406,0.0303,0.2803,0.04,0.4209,0.04c0.9199,0,1.75-0.6504,1.9492-1.5898
		C493.3715,300.0602,492.681,298.9996,491.601,298.7701z"/>
	<path fill="#EDAF77" d="M459.7914,121.5201c0.3604,0,0.7197-0.0903,1.0498-0.29c0.9404-0.5903,1.2305-1.8203,0.6504-2.7603h0.0098
		c-0.5898-0.9399-1.8203-1.23-2.7598-0.6499c-0.9404,0.5801-1.2305,1.8101-0.6504,2.75
		C458.4711,121.19,459.1215,121.5201,459.7914,121.5201z"/>
	<path fill="#EDAF77" d="M460.601,377.8004c-0.9395-0.5908-2.1699-0.3008-2.75,0.6396c-0.0098,0-0.0098,0-0.0098,0
		c-0.5801,0.9395-0.29,2.1699,0.6504,2.7598c0.3301,0.2002,0.6895,0.2998,1.0498,0.2998c0.6699,0,1.3301-0.3398,1.71-0.9492h-0.0098
		C461.8314,379.61,461.5414,378.3795,460.601,377.8004z"/>
	<path fill="#EDAF77" d="M210.8314,491.6695c-1.0898-0.1797-2.1201,0.5703-2.29,1.6602s0.5801,2.1201,1.6699,2.29
		c0.1001,0.0098,0.2002,0.0205,0.3101,0.0205c0.9702,0,1.8198-0.7002,1.9702-1.6904
		C212.6713,492.86,211.9213,491.8404,210.8314,491.6695z"/>
	<path fill="#EDAF77" d="M473.851,150.5602c0.3301,0.75,1.0703,1.1899,1.8408,1.1899c0.2695,0,0.54-0.0503,0.7998-0.1699
		c1.0098-0.4404,1.4697-1.6201,1.0293-2.6304c-0.4492-1.02-1.6299-1.4697-2.6396-1.0298c-1.0098,0.4502-1.4697,1.6299-1.0195,2.6401
		C473.851,150.5602,473.851,150.5602,473.851,150.5602z"/>
	<path fill="#EDAF77" d="M494.4213,281.94c-1.0996-0.1504-2.1104,0.6104-2.2598,1.7002c-0.1602,1.0898,0.5996,2.0996,1.7002,2.2598
		c0.0898,0.0098,0.1895,0.0195,0.2793,0.0195c0.9805,0,1.8408-0.7197,1.9805-1.7197
		C496.2709,283.1002,495.5111,282.0904,494.4213,281.94z"/>
	<path fill="#EDAF77" d="M414.7211,430.4c-0.8096,0.75-0.8701,2.0098-0.1201,2.8301c0.3906,0.4297,0.9307,0.6494,1.4707,0.6494
		c0.4893,0,0.9697-0.1797,1.3496-0.5293c0.8203-0.7402,0.8701-2.0098,0.1299-2.8203
		C416.8011,429.7096,415.5414,429.65,414.7211,430.4z"/>
	<path fill="#EDAF77" d="M439.9017,93.7799c0.4492,0,0.8994-0.1499,1.2695-0.4497c0.8496-0.71,0.9697-1.9702,0.2705-2.8203
		c-0.71-0.8501-1.9707-0.9697-2.8203-0.27c-0.8506,0.71-0.9697,1.9702-0.2598,2.8203
		C438.7513,93.5401,439.3217,93.7799,439.9017,93.7799z"/>
	<path fill="#EDAF77" d="M482.0209,167.6202c0.2305,0,0.4609-0.0303,0.6807-0.1104c1.04-0.3799,1.5801-1.52,1.2002-2.5601
		c-0.3701-1.04-1.5107-1.5796-2.5508-1.21c-1.04,0.3804-1.5801,1.52-1.21,2.5601
		C480.431,167.1202,481.2015,167.6202,482.0209,167.6202z"/>
	<path fill="#EDAF77" d="M426.8217,418.5504c-0.7607,0.7998-0.7305,2.0693,0.0693,2.8291c0.3906,0.3701,0.8799,0.5508,1.3799,0.5508
		c0.5303,0,1.0508-0.21,1.4502-0.6201c0.7607-0.7998,0.7305-2.0703-0.0693-2.8301
		C428.851,417.7203,427.5814,417.7496,426.8217,418.5504z"/>
	<path fill="#EDAF77" d="M496.0609,264.9498c-1.0996-0.0801-2.0596,0.75-2.1299,1.8506c-0.0801,1.0996,0.75,2.0596,1.8506,2.1396
		c0.0498,0,0.0996,0,0.1396,0c1.04,0,1.9199-0.7998,2-1.8604C497.9916,265.9801,497.1615,265.0299,496.0609,264.9498z"/>
	<path fill="#EDAF77" d="M194.2015,488.4596c-1.0703-0.25-2.1504,0.4307-2.3901,1.5c-0.25,1.0801,0.4302,2.1504,1.5,2.4004
		c0.1499,0.0303,0.2998,0.0498,0.4502,0.0498c0.9097,0,1.7397-0.6201,1.9497-1.5498
		C195.9515,489.7799,195.2811,488.7096,194.2015,488.4596z"/>
	<path fill="#EDAF77" d="M498.5414,249.3102c0-1.1001-0.9004-2-2-2s-2,0.8999-2,2c0,0.0996,0.0098,0.1899,0.0195,0.2798
		c-0.0098,0.1001-0.0195,0.1899-0.0195,0.29c0,1.1001,0.8896,1.9995,1.9902,1.9995h0.0098c1.0996,0,2-0.8896,2-1.9897
		c0-0.0996-0.0098-0.1997-0.0205-0.2896C498.5316,249.5001,498.5414,249.4098,498.5414,249.3102z"/>
	<path fill="#EDAF77" d="M476.2816,347.5299c-1.0107-0.4502-2.1904,0.0098-2.6406,1.0205c-0.4492,1,0.0107,2.1895,1.0205,2.6299
		c0.2598,0.1201,0.54,0.1797,0.8096,0.1797c0.7705,0,1.5-0.4502,1.8301-1.2002C477.7416,349.15,477.2914,347.9703,476.2816,347.5299
		z"/>
	<path fill="#EDAF77" d="M1.9413,242.4801c0.0303,0,0.0503,0.0098,0.0703,0.0098c1.0796,0,1.96-0.8599,2-1.9399
		c0.0396-1.1001-0.8203-2.0298-1.9302-2.0698c-1.1001-0.0303-2.0303,0.8301-2.0601,1.9297H0.0116
		C-0.0187,241.5201,0.8412,242.44,1.9413,242.4801z"/>
	<path fill="#EDAF77" d="M2.9916,225.4498c0.0698,0,0.1396,0.0103,0.21,0.0103c1.0098,0,1.8799-0.77,1.98-1.8003
		c0.1196-1.0898-0.6802-2.0796-1.7803-2.1899c-1.1001-0.1196-2.0801,0.6802-2.1997,1.7803
		C1.0912,224.3502,1.8915,225.3302,2.9916,225.4498z"/>
	<path fill="#EDAF77" d="M13.1112,175.3302c0.2002,0.0698,0.4102,0.0996,0.6104,0.0996c0.8398,0,1.6299-0.54,1.8999-1.3896
		c0.3398-1.0503-0.2402-2.1802-1.29-2.52c-1.0503-0.3301-2.1802,0.2397-2.52,1.2998
		C11.4716,173.8702,12.0511,174.9898,13.1112,175.3302z"/>
	<path fill="#EDAF77" d="M5.2015,208.5201c0.1196,0.02,0.23,0.0298,0.3398,0.0298c0.96,0,1.7998-0.6797,1.9702-1.6602
		c0.1899-1.0796-0.54-2.1196-1.6201-2.3096c-1.0903-0.1904-2.1299,0.54-2.3203,1.6299
		C3.3812,207.2999,4.1112,208.3302,5.2015,208.5201z"/>
	<path fill="#EDAF77" d="M7.4115,291.1598c-0.1802-1.0898-1.2202-1.8193-2.3101-1.6299c-1.0801,0.1797-1.8203,1.2197-1.6299,2.2998
		c0.1699,0.9805,1.02,1.6699,1.9697,1.6699c0.1099,0,0.23-0.0098,0.3398-0.0293C6.8715,293.2799,7.6014,292.2496,7.4115,291.1598z"
		/>
	<path fill="#EDAF77" d="M2.0614,259.5504c1.1099-0.0303,1.9697-0.96,1.9302-2.0605c-0.0303-1.0996-0.9604-1.9697-2.0601-1.9297
		c-1.1104,0.0303-1.9702,0.96-1.9302,2.0596c0.0298,1.0801,0.9199,1.9404,1.9902,1.9404
		C2.0214,259.5602,2.0414,259.5602,2.0614,259.5504z"/>
	<path fill="#EDAF77" d="M5.1312,274.3795c-0.1196-1.0996-1.1001-1.8994-2.1997-1.7891c-1.1001,0.1191-1.9004,1.0996-1.7803,2.1992
		c0.1001,1.0303,0.9702,1.79,1.98,1.79c0.0703,0,0.1401,0,0.21,0C4.4413,276.4596,5.2416,275.4801,5.1312,274.3795z"/>
	<path fill="#EDAF77" d="M18.7714,159.2301c0.2402,0.1001,0.4902,0.1401,0.7402,0.1401c0.7896,0,1.5396-0.4702,1.8599-1.25
		c0.4097-1.0303-0.0903-2.1904-1.1201-2.6001c-1.02-0.4102-2.1899,0.0801-2.5898,1.1099
		C17.2416,157.65,17.7416,158.8199,18.7714,159.2301z"/>
	<path fill="#EDAF77" d="M8.4413,306.2603c-1.0698,0.2695-1.73,1.3496-1.4697,2.4199c0.23,0.9199,1.0498,1.5293,1.9497,1.5293
		c0.1499,0,0.3101-0.0195,0.4702-0.0596c1.0698-0.2598,1.73-1.3398,1.4697-2.4199C10.6014,306.6598,9.5116,305.9996,8.4413,306.2603
		z"/>
	<path fill="#EDAF77" d="M64.1713,87.17c0.5503,0,1.1001-0.2202,1.4902-0.6699c0.73-0.8203,0.6597-2.0903-0.1699-2.8203
		c-0.8203-0.73-2.0903-0.6597-2.8203,0.1704c-0.73,0.8198-0.6597,2.0898,0.1699,2.8198C63.2216,87.0099,63.6913,87.17,64.1713,87.17
		z"/>
	<path fill="#EDAF77" d="M52.0614,99.9c0.3599,0.2798,0.79,0.4199,1.2197,0.4199c0.6001,0,1.1904-0.27,1.5801-0.7798
		c0.6802-0.8701,0.5103-2.1304-0.3599-2.8003c-0.8701-0.6797-2.1299-0.52-2.7998,0.3604
		C51.0214,97.9698,51.1815,99.2301,52.0614,99.9z"/>
	<path fill="#EDAF77" d="M146.2416,472.0699c-1-0.4697-2.1904-0.0303-2.6504,0.9697c-0.4697,1-0.0298,2.1904,0.9702,2.6504v0.0098
		c0.27,0.1201,0.5601,0.1797,0.8398,0.1797c0.7603,0,1.48-0.4297,1.8203-1.1592
		C147.6815,473.7203,147.2416,472.5299,146.2416,472.0699z"/>
	<path fill="#EDAF77" d="M42.2113,113.8399c0.3398,0.23,0.73,0.3398,1.1099,0.3398c0.6504,0,1.2803-0.3096,1.6704-0.8896
		c0.6099-0.9199,0.3599-2.1602-0.5601-2.77c-0.9199-0.6201-2.1602-0.3701-2.77,0.5498
		C41.0511,111.9898,41.3011,113.2301,42.2113,113.8399z"/>
	<path fill="#EDAF77" d="M25.5311,143.5802c0.2803,0.1299,0.5703,0.1997,0.8604,0.1997c0.75,0,1.46-0.4199,1.8101-1.1299
		c0.48-1,0.0601-2.2002-0.9302-2.6699c-1-0.4902-2.1899-0.0703-2.6802,0.9297h0.0103
		C24.1215,141.9,24.5311,143.1002,25.5311,143.5802z"/>
	<path fill="#EDAF77" d="M33.3514,128.42c0.3198,0.1802,0.6602,0.27,1,0.27c0.6899,0,1.3599-0.3599,1.73-1.0103
		c0.5498-0.96,0.2197-2.1797-0.7402-2.73c-0.96-0.5498-2.1797-0.2197-2.73,0.7402C32.0614,126.65,32.4012,127.8702,33.3514,128.42z"
		/>
	<path fill="#EDAF77" d="M278.351,492.94c-1.0996,0.1299-1.8799,1.1201-1.7598,2.2197c0.1299,1.0098,0.9902,1.7598,1.9902,1.7598
		c0.0801,0,0.1602,0,0.2402-0.0098c1.0898-0.1299,1.8799-1.1299,1.75-2.2197C280.4418,493.5904,279.4418,492.8102,278.351,492.94z"
		/>
	<path fill="#EDAF77" d="M261.4818,494.3502c-0.0107,0-0.0107,0-0.0107,0c-1.0996,0.0498-1.9502,0.9902-1.8896,2.0898
		c0.0498,1.0703,0.9297,1.9004,1.9902,1.9004c0.04,0,0.0693,0,0.0996,0c1.0996-0.0508,1.9502-0.9902,1.9004-2.0908
		C263.5209,495.1402,262.5814,494.2896,261.4818,494.3502z"/>
	<path fill="#EDAF77" d="M62.5511,411.6197c-0.8296,0.7305-0.9097,1.9902-0.1699,2.8203c0.3901,0.4502,0.9399,0.6797,1.4902,0.6797
		c0.48,0,0.9497-0.1699,1.3301-0.5098c0.8296-0.7305,0.8999-1.9902,0.1699-2.8203S63.3812,410.8795,62.5511,411.6197z"/>
	<path fill="#EDAF77" d="M86.6615,435.7603c-0.7202,0.8398-0.6201,2.0996,0.2197,2.8193c0.3804,0.3301,0.8403,0.4805,1.3003,0.4805
		c0.5601,0,1.1196-0.2305,1.52-0.6904c0.7197-0.8398,0.6196-2.0996-0.2202-2.8193
		C88.6415,434.8297,87.3812,434.9195,86.6615,435.7603z"/>
	<path fill="#EDAF77" d="M74.1913,424.1002c-0.77,0.79-0.7598,2.0596,0.02,2.8301c0.3901,0.3896,0.8999,0.5801,1.4102,0.5801
		c0.5098,0,1.0298-0.2002,1.4199-0.6006c0.7798-0.79,0.77-2.0498-0.02-2.8301C76.2313,423.3102,74.9716,423.3199,74.1913,424.1002z"
		/>
	<path fill="#EDAF77" d="M244.5414,494.61c-1.1001-0.0303-2.02,0.8496-2.0298,1.96c-0.0303,1.0996,0.8496,2.0205,1.96,2.04
		c0.0098,0,0.02,0,0.0298,0c1.0898,0,1.98-0.8701,2-1.9697C246.5214,495.5396,245.6512,494.6295,244.5414,494.61z"/>
	<path fill="#EDAF77" d="M102.7015,446.1295c-0.8804-0.6592-2.1401-0.4795-2.8003,0.4004c-0.6597,0.8896-0.48,2.1396,0.4102,2.7998
		c0.3599,0.2705,0.7798,0.4004,1.1899,0.4004c0.6099,0,1.2202-0.2803,1.6099-0.7998
		C103.7714,448.0396,103.5912,446.7896,102.7015,446.1295z"/>
	<path fill="#EDAF77" d="M116.6112,455.7701c-0.9297-0.6006-2.1699-0.3301-2.7598,0.5996
		c-0.6001,0.9307-0.3301,2.1699,0.5898,2.7598c0.3398,0.2207,0.7202,0.3203,1.0898,0.3203c0.6504,0,1.3003-0.3203,1.6802-0.9199
		C117.8114,457.6002,117.5414,456.3697,116.6112,455.7701z"/>
	<path fill="#EDAF77" d="M12.9315,322.7301c-1.0503,0.3398-1.6304,1.4697-1.29,2.5195c0.27,0.8506,1.0498,1.3906,1.8999,1.3906
		c0.2002,0,0.4102-0.0303,0.6099-0.1006c1.0503-0.3301,1.6299-1.46,1.3003-2.5098C15.1112,322.9801,13.9813,322.4,12.9315,322.7301z
		"/>
	<path fill="#EDAF77" d="M25.3114,354.5797c-1,0.4805-1.4199,1.6699-0.9399,2.6699c0.3398,0.71,1.0601,1.1299,1.7998,1.1299
		c0.3003,0,0.5903-0.0596,0.8701-0.1992c1-0.4805,1.4102-1.6699,0.9399-2.6699C27.5013,354.5201,26.3011,354.1002,25.3114,354.5797z
		"/>
	<path fill="#EDAF77" d="M18.5712,338.8697c-1.0298,0.4102-1.5298,1.5703-1.1196,2.6006c0.3101,0.7793,1.0601,1.2598,1.8599,1.2598
		c0.2397,0,0.4897-0.04,0.7397-0.1396c1.02-0.4102,1.52-1.5703,1.1104-2.6006C20.7513,338.9703,19.5912,338.4703,18.5712,338.8697z"
		/>
	<path fill="#EDAF77" d="M9.5311,187.9098c-1.0698-0.27-2.1499,0.3901-2.4199,1.4604c-0.2598,1.0698,0.3901,2.1597,1.46,2.4199
		c0.1704,0.04,0.3301,0.0601,0.4902,0.0601c0.8901,0,1.71-0.6104,1.9399-1.52C11.2616,189.2599,10.6112,188.17,9.5311,187.9098z"/>
	<path fill="#EDAF77" d="M35.8412,370.5201c-0.54-0.96-1.7598-1.29-2.7197-0.75c-0.96,0.5498-1.3003,1.7695-0.75,2.7295
		c0.3701,0.6504,1.04,1.0107,1.7397,1.0107c0.3403,0,0.6802-0.0801,0.9902-0.2607c0.96-0.5498,1.29-1.7695,0.75-2.7295
		C35.8412,370.5201,35.8412,370.5201,35.8412,370.5201z"/>
	<path fill="#EDAF77" d="M41.9613,384.3902c-0.9199,0.6094-1.1699,1.8496-0.5601,2.7695c0.3901,0.5801,1.02,0.8906,1.6699,0.8906
		c0.3804,0,0.77-0.1006,1.1104-0.3301c0.9199-0.6104,1.1699-1.8506,0.5498-2.7705
		C44.1215,384.0299,42.8812,383.7799,41.9613,384.3902z"/>
	<path fill="#EDAF77" d="M51.7914,398.36c-0.8799,0.6699-1.04,1.9297-0.3701,2.7998c0.3901,0.5205,0.9902,0.7803,1.5903,0.7803
		c0.4199,0,0.8496-0.1299,1.21-0.4102c0.8799-0.6699,1.04-1.9297,0.3696-2.7998C53.9213,397.8502,52.6615,397.69,51.7914,398.36z"/>
	<path fill="#EDAF77" d="M75.9315,74.7999c0.5,0,1.0098-0.1899,1.3999-0.5698c0.79-0.77,0.7998-2.04,0.0298-2.8301
		c-0.7798-0.7798-2.04-0.7998-2.8301-0.02c-0.7896,0.77-0.7998,2.04-0.0298,2.8301C74.8915,74.6002,75.4115,74.7999,75.9315,74.7999
		z"/>
	<path fill="#EDAF77" d="M359.0814,468.7301c-0.9902,0.4902-1.3896,1.6895-0.8896,2.6797c0.3496,0.7002,1.0596,1.1006,1.79,1.1006
		c0.2998,0,0.6094-0.0605,0.8896-0.21c0.9902-0.4902,1.3896-1.7002,0.8896-2.6807
		C361.2709,468.6295,360.0717,468.2301,359.0814,468.7301z"/>
	<path fill="#EDAF77" d="M295.6615,8.36c0.1201,0.0298,0.25,0.04,0.3701,0.04c0.9395,0,1.7793-0.6699,1.9697-1.6299
		c0.2002-1.0801-0.5098-2.1304-1.5898-2.3403c-1.0801-0.1997-2.1299,0.5103-2.3398,1.5903
		C293.8617,7.11,294.5717,8.15,295.6615,8.36z"/>
	<path fill="#EDAF77" d="M278.931,5.7501c0.0801,0.0098,0.1602,0.02,0.2402,0.02c1,0,1.8604-0.75,1.9805-1.7603
		c0.1396-1.1001-0.6406-2.1001-1.7402-2.23c-1.1006-0.1299-2.0898,0.6499-2.2305,1.75
		C277.0511,4.6202,277.8314,5.6202,278.931,5.7501z"/>
	<path fill="#EDAF77" d="M227.6312,493.7203c0-0.0107,0-0.0107,0-0.0107c-1.1001-0.0898-2.0698,0.7207-2.1597,1.8203
		c-0.1001,1.0996,0.71,2.0703,1.8198,2.1699c0.0498,0.0098,0.1099,0.0098,0.1699,0.0098c1.0303,0,1.8999-0.79,1.9902-1.8301
		C229.5511,494.7799,228.7313,493.8102,227.6312,493.7203z"/>
	<path fill="#EDAF77" d="M245.0912,4.0001c0.0103,0,0.0303,0,0.04,0c1.1001-0.02,1.98-0.9199,1.9702-2.0303
		c-0.02-1.0996-0.9302-1.98-2.04-1.9697c-1.1001,0.02-1.98,0.9297-1.96,2.04C243.1112,3.13,244.0013,4.0001,245.0912,4.0001z"/>
	<path fill="#EDAF77" d="M262.0609,4.2999c0.04,0,0.0703,0,0.1006,0c1.0596,0,1.9502-0.8198,2-1.8901
		c0.0596-1.1099-0.79-2.0498-1.8906-2.0996c-1.1094-0.0601-2.0498,0.79-2.0996,1.8896
		C260.1117,3.2999,260.9613,4.2398,262.0609,4.2999z"/>
	<path fill="#EDAF77" d="M312.1615,12.1202c0.1699,0.0498,0.3496,0.0698,0.5195,0.0698c0.8799,0,1.6904-0.5898,1.9307-1.4902
		c0.2793-1.0601-0.3506-2.1597-1.4199-2.4399c-1.0703-0.2798-2.1709,0.3501-2.4502,1.4199
		C310.4613,10.7501,311.101,11.8399,312.1615,12.1202z"/>
	<path fill="#EDAF77" d="M177.8412,484.11c-1.0498-0.3203-2.1699,0.2803-2.4897,1.3301c-0.3203,1.0596,0.27,2.1797,1.3301,2.5
		c0.1899,0.0596,0.3896,0.0898,0.5801,0.0898c0.8599,0,1.6499-0.5596,1.9199-1.4199
		C179.5013,485.5504,178.9012,484.4303,177.8412,484.11z"/>
	<path fill="#EDAF77" d="M359.5316,30.1202c0.29,0.1396,0.5898,0.21,0.8994,0.21c0.7305,0,1.4307-0.4004,1.79-1.1001
		c0.4902-0.98,0.1006-2.1899-0.8896-2.6802c-0.9902-0.5-2.1904-0.1001-2.6904,0.8799
		C358.1517,28.42,358.5414,29.6202,359.5316,30.1202z"/>
	<path fill="#EDAF77" d="M374.3617,38.2501c0.3193,0.1899,0.6699,0.2798,1.0195,0.2798c0.6797,0,1.3506-0.3398,1.7197-0.9697
		c0.5703-0.9502,0.25-2.1802-0.6895-2.7402c-0.9502-0.5698-2.1797-0.2598-2.75,0.6899
		C373.101,36.46,373.4115,37.69,374.3617,38.2501z"/>
	<path fill="#EDAF77" d="M343.6713,475.8004c-1.0098,0.4199-1.4902,1.5996-1.0703,2.6094c0.3203,0.7705,1.0605,1.2305,1.8506,1.2305
		c0.25,0,0.5195-0.0498,0.7695-0.1504c1.0205-0.4297,1.5-1.5996,1.0703-2.6201
		C345.8617,475.8502,344.6918,475.3697,343.6713,475.8004z"/>
	<path fill="#EDAF77" d="M373.9515,460.61c-0.9502,0.5596-1.2598,1.79-0.7002,2.7402c0.3701,0.6299,1.04,0.9795,1.7197,0.9795
		c0.3506,0,0.7002-0.0898,1.0205-0.2793c0.9502-0.5605,1.2695-1.79,0.7002-2.7402
		C376.1312,460.36,374.9017,460.0396,373.9515,460.61z"/>
	<path fill="#EDAF77" d="M344.1713,23.0299c0.2598,0.1099,0.5205,0.1602,0.7803,0.1602c0.7803,0,1.5195-0.46,1.8398-1.23
		c0.4297-1.02-0.0498-2.1899-1.0703-2.6201c-1.0195-0.4302-2.1895,0.0498-2.6201,1.0698
		C342.681,21.4298,343.1615,22.6002,344.1713,23.0299z"/>
	<path fill="#EDAF77" d="M328.3715,17.0201c0.21,0.0801,0.4297,0.1099,0.6396,0.1099c0.8398,0,1.6104-0.52,1.9004-1.3599
		c0.3496-1.04-0.21-2.1802-1.25-2.5303c-1.0498-0.3599-2.1797,0.2002-2.54,1.2402C326.7611,15.5299,327.3217,16.67,328.3715,17.0201
		z"/>
	<path fill="#EDAF77" d="M327.8109,481.7799c-1.04,0.3604-1.5996,1.4902-1.25,2.54c0.2803,0.8301,1.0605,1.3604,1.9004,1.3604
		c0.21,0,0.4199-0.04,0.6396-0.1104c1.04-0.3496,1.6006-1.4902,1.25-2.5303C329.9916,481.9898,328.8617,481.4303,327.8109,481.7799z
		"/>
	<path fill="#EDAF77" d="M130.6112,34.1998c0.3301,0,0.6602-0.0796,0.96-0.25c0.9702-0.5298,1.3301-1.7397,0.8003-2.71
		c-0.5303-0.9697-1.75-1.3301-2.7202-0.79c-0.9697,0.52-1.3198,1.7402-0.79,2.71
		C129.2216,33.8199,129.9115,34.1998,130.6112,34.1998z"/>
	<path fill="#EDAF77" d="M115.9213,42.92c0.3701,0,0.75-0.1099,1.0801-0.3198c0.9302-0.6001,1.2002-1.8301,0.6001-2.7603
		c-0.5898-0.9302-1.8301-1.21-2.7603-0.6099c-0.9297,0.6001-1.1997,1.8301-0.5996,2.7598
		C114.6215,42.5899,115.2616,42.92,115.9213,42.92z"/>
	<path fill="#EDAF77" d="M311.601,486.65c-1.0693,0.2695-1.71,1.3701-1.4297,2.4404c0.2305,0.8994,1.04,1.4893,1.9297,1.4893
		c0.1699,0,0.3408-0.0195,0.5107-0.0693c1.0693-0.2803,1.71-1.3701,1.4297-2.4404S312.6713,486.36,311.601,486.65z"/>
	<path fill="#EDAF77" d="M145.8812,26.5201c0.2803,0,0.5601-0.0601,0.8301-0.1802c1.0103-0.4697,1.4399-1.6499,0.98-2.6602
		c-0.46-1-1.6499-1.4399-2.6499-0.98c-1.0103,0.46-1.4399,1.6504-0.98,2.6602C144.4012,26.0899,145.1215,26.5201,145.8812,26.5201z"
		/>
	<path fill="#EDAF77" d="M101.8715,52.6202c0.4097,0,0.8301-0.1304,1.1899-0.3901c0.8901-0.6602,1.0698-1.9199,0.4102-2.8003
		c-0.6602-0.8896-1.9102-1.0796-2.8003-0.4199v0.0103c-0.8799,0.6499-1.0698,1.9097-0.4097,2.79
		C100.6512,52.3399,101.2616,52.6202,101.8715,52.6202z"/>
	<path fill="#EDAF77" d="M88.5214,63.2701c0.46,0,0.9199-0.1602,1.2998-0.48c0.8301-0.7202,0.9302-1.98,0.2202-2.8203
		c-0.7202-0.8398-1.98-0.9399-2.8198-0.2197c-0.8403,0.71-0.9404,1.98-0.2202,2.8198
		C87.3915,63.0299,87.9515,63.2701,88.5214,63.2701z"/>
	<path fill="#EDAF77" d="M295.0814,490.3697c-1.0898,0.2002-1.7998,1.25-1.5898,2.3301c0.1797,0.96,1.0195,1.6299,1.96,1.6299
		c0.1201,0,0.25-0.0098,0.3701-0.0293c1.0898-0.21,1.7998-1.25,1.5996-2.3408
		C297.2113,490.8795,296.1713,490.1598,295.0814,490.3697z"/>
	<path fill="#EDAF77" d="M194.3314,10.0802c0.1499,0,0.2998-0.02,0.4497-0.0503c1.0703-0.25,1.75-1.3198,1.5-2.3901
		c-0.2397-1.0796-1.3096-1.7598-2.3896-1.5098c-1.0703,0.2402-1.75,1.3101-1.5103,2.3901
		C192.5912,9.4498,193.4213,10.0802,194.3314,10.0802z"/>
	<path fill="#EDAF77" d="M228.0511,4.86c0.0503,0,0.1104,0,0.1704-0.0098c1.0996-0.0903,1.9097-1.0601,1.8198-2.1602
		s-1.0601-1.9199-2.1602-1.8198c-1.1001,0.0898-1.9199,1.0596-1.8198,2.1597C226.1415,4.0699,227.0214,4.86,228.0511,4.86z"/>
	<path fill="#EDAF77" d="M161.8212,478.6295c-1.0298-0.3896-2.1797,0.1309-2.5796,1.1602
		c-0.3901,1.0303,0.1299,2.1904,1.1597,2.5801c0.23,0.0898,0.4702,0.1299,0.71,0.1299c0.8101,0,1.5703-0.4893,1.8701-1.29
		C163.3715,480.1803,162.8514,479.0299,161.8212,478.6295z"/>
	<path fill="#EDAF77" d="M161.6415,19.92c0.23,0,0.4697-0.0498,0.71-0.1299c1.0298-0.3901,1.5498-1.5503,1.1602-2.5801
		c-0.3901-1.04-1.5503-1.5601-2.5801-1.1602c-1.0303,0.3901-1.5503,1.54-1.1602,2.5801
		C160.0712,19.42,160.8314,19.92,161.6415,19.92z"/>
	<path fill="#EDAF77" d="M211.1014,6.8897c0.1001,0,0.1997-0.0098,0.3101-0.0298c1.0898-0.1699,1.8398-1.1899,1.6699-2.2798
		c-0.1699-1.0903-1.1899-1.8403-2.2803-1.6704c-1.0996,0.1704-1.8398,1.1904-1.6699,2.2803
		C209.2811,6.1798,210.1312,6.8897,211.1014,6.8897z"/>
	<path fill="#EDAF77" d="M177.8314,14.42c0.1899,0,0.3799-0.02,0.5698-0.0801c1.0601-0.3198,1.6602-1.4399,1.3403-2.4897
		c-0.3203-1.0601-1.4302-1.6602-2.4902-1.3403c-1.0601,0.3203-1.6602,1.4302-1.3398,2.4902
		C176.1713,13.86,176.9716,14.42,177.8314,14.42z"/>
	<path fill="#EDAF77" d="M388.2318,451.4801c-0.9102,0.6299-1.1406,1.8701-0.5107,2.7803c0.3799,0.5693,1.0107,0.8691,1.6504,0.8691
		c0.3896,0,0.7803-0.1191,1.1299-0.3594v0.0098c0.9102-0.6299,1.1396-1.8799,0.5098-2.79S389.141,450.8502,388.2318,451.4801z"/>
</g>
</svg>
