<?xml version="1.0" encoding="utf-8"?><!DOCTYPE svg PUBLIC "-//W3C//DTD SVG 1.1//EN" "http://www.w3.org/Graphics/SVG/1.1/DTD/svg11.dtd">
<svg version="1.1" id="Layer_1" xmlns="http://www.w3.org/2000/svg" xmlns:xlink="http://www.w3.org/1999/xlink" x="0px" y="0px" viewBox="0 0 500 500" enable-background="new 0 0 500 500" xml:space="preserve">
<g>
	<g id="change1_1"><circle fill="#FFFFFF" cx="250" cy="250" r="231.6"></circle></g>
</g>
<g>
	<g id="change1_2"><path fill="#FFFFFF" d="M250,500h-1.3c-2,0-3.6-1.7-3.6-3.7s1.9-3.7,3.7-3.6h1.2c8.1,0,16.2-0.4,24.2-1.2c2.1-0.3,3.8,1.3,4,3.2
		c0.2,2-1.3,3.8-3.2,4C266.7,499.6,258.3,500,250,500z M222.9,498.5c-0.1,0-0.3,0-0.4,0c-8.7-1-17.4-2.4-25.9-4.2
		c-1.9-0.4-3.2-2.3-2.8-4.3c0.4-1.9,2.3-3.2,4.3-2.8c8.2,1.8,16.7,3.2,25.2,4.1c2,0.2,3.4,2,3.2,4
		C226.3,497.2,224.7,498.5,222.9,498.5z M300.2,494.9c-1.7,0-3.2-1.2-3.5-2.9c-0.4-2,0.9-3.9,2.8-4.3c8.3-1.7,16.6-3.9,24.7-6.5
		c1.9-0.6,3.9,0.4,4.5,2.3s-0.4,3.9-2.3,4.5c-8.3,2.7-16.9,4.9-25.4,6.7C300.7,494.9,300.4,494.9,300.2,494.9z M172.4,487.5
		c-0.4,0-0.8-0.1-1.1-0.2c-8.3-2.7-16.5-6-24.5-9.6c-1.8-0.8-2.6-3-1.8-4.8s3-2.6,4.8-1.8c7.7,3.5,15.7,6.6,23.7,9.3
		c1.9,0.6,2.9,2.7,2.3,4.6C175.3,486.6,173.9,487.5,172.4,487.5z M349.4,479.1c-1.4,0-2.7-0.8-3.3-2.2c-0.8-1.8,0-4,1.8-4.8
		c7.7-3.4,15.4-7.3,22.7-11.5c1.7-1,3.9-0.4,4.9,1.3c1,1.7,0.4,3.9-1.3,4.9c-7.6,4.3-15.4,8.3-23.4,11.9
		C350.4,479,349.9,479.1,349.4,479.1z M125.3,466.2c-0.6,0-1.3-0.2-1.8-0.5c-7.5-4.4-14.9-9.3-21.9-14.5c-1.6-1.2-1.9-3.4-0.8-5.1
		c1.2-1.6,3.4-1.9,5.1-0.8c6.8,5,14,9.8,21.3,14.1c1.7,1,2.3,3.2,1.3,4.9C127.8,465.6,126.6,466.2,125.3,466.2z M394.2,453.4
		c-1.1,0-2.2-0.5-2.9-1.5c-1.2-1.6-0.8-3.9,0.8-5c6.9-5,13.5-10.3,19.9-16c1.5-1.3,3.8-1.2,5.1,0.3c1.3,1.5,1.2,3.8-0.3,5.1
		c-6.5,5.8-13.4,11.4-20.4,16.5C395.7,453.2,394.9,453.4,394.2,453.4z M83.8,435.5c-0.9,0-1.7-0.3-2.4-0.9
		c-6.4-5.9-12.6-12.2-18.4-18.7c-1.3-1.5-1.2-3.8,0.3-5.1c1.5-1.3,3.8-1.2,5.1,0.3c5.6,6.3,11.6,12.5,17.9,18.2
		c1.5,1.3,1.6,3.6,0.2,5.1C85.7,435.1,84.7,435.5,83.8,435.5z M432.7,418.9c-0.9,0-1.7-0.3-2.4-0.9c-1.5-1.3-1.6-3.6-0.3-5.1
		c5.7-6.3,11.1-12.9,16.1-19.8c1.2-1.6,3.4-1.9,5-0.8c1.6,1.2,2,3.4,0.8,5c-5.2,7-10.7,13.9-16.6,20.4
		C434.7,418.5,433.7,418.9,432.7,418.9z M49.5,396.8c-1.1,0-2.2-0.5-2.9-1.5c-5.1-7.1-9.8-14.5-14.1-22.1c-1-1.7-0.4-3.9,1.4-4.9
		c1.7-1,3.9-0.4,4.9,1.4c4.2,7.4,8.8,14.6,13.7,21.5c1.2,1.6,0.8,3.9-0.8,5C50.9,396.6,50.2,396.8,49.5,396.8z M463.2,377.2
		c-0.6,0-1.2-0.2-1.8-0.5c-1.7-1-2.3-3.2-1.3-4.9c4.3-7.3,8.2-15,11.6-22.7c0.8-1.8,3-2.6,4.8-1.8c1.8,0.8,2.6,2.9,1.8,4.8
		c-3.6,7.9-7.6,15.8-12,23.4C465.7,376.5,464.4,377.2,463.2,377.2z M24,351.9c-1.4,0-2.7-0.8-3.3-2.2c-3.5-8-6.6-16.3-9.2-24.6
		c-0.6-1.9,0.5-3.9,2.4-4.5s3.9,0.5,4.5,2.4c2.5,8.1,5.5,16.1,8.9,23.9c0.8,1.8,0,4-1.9,4.8C24.9,351.8,24.5,351.9,24,351.9z
		 M484.3,330c-0.4,0-0.7-0.1-1.1-0.2c-1.9-0.6-2.9-2.7-2.3-4.6c2.6-8.1,4.8-16.3,6.6-24.6c0.4-2,2.4-3.2,4.3-2.8
		c2,0.4,3.2,2.3,2.8,4.3c-1.8,8.5-4.1,17.1-6.8,25.4C487.3,329,485.8,330,484.3,330z M8.5,302.6c-1.7,0-3.2-1.2-3.5-2.9
		c-1.7-8.5-3-17.2-3.8-26c-0.2-2,1.3-3.7,3.3-3.9c2-0.2,3.7,1.3,3.9,3.3c0.8,8.5,2.1,17,3.7,25.2c0.4,2-0.9,3.9-2.8,4.2
		C8.9,302.6,8.7,302.6,8.5,302.6z M495.1,279.5c-0.1,0-0.3,0-0.4,0c-2-0.2-3.4-2-3.2-4c0.9-8.4,1.3-17,1.3-25.5c0-2,1.6-3.6,3.6-3.6
		s3.6,1.6,3.6,3.6c0,8.7-0.5,17.5-1.4,26.2C498.4,278.1,496.9,279.5,495.1,279.5z M3.6,251.1L3.6,251.1c-2,0-3.6-1.7-3.6-3.6
		c0.1-8.7,0.6-17.5,1.6-26.2c0.2-2,2.1-3.4,4-3.2c2,0.2,3.4,2,3.2,4c-1,8.4-1.5,17-1.6,25.4C7.2,249.5,5.6,251.1,3.6,251.1z
		 M495.5,232.7c-1.9,0-3.4-1.4-3.6-3.3c-0.7-8.5-1.9-17-3.5-25.3c-0.4-2,0.9-3.9,2.9-4.2c2-0.4,3.9,0.9,4.2,2.9
		c1.6,8.5,2.8,17.3,3.6,26c0.2,2-1.3,3.7-3.3,3.9C495.7,232.7,495.6,232.7,495.5,232.7z M9.5,199.8c-0.3,0-0.5,0-0.8-0.1
		c-1.9-0.4-3.2-2.4-2.7-4.3c1.9-8.5,4.3-17,7.1-25.3c0.6-1.9,2.7-2.9,4.6-2.3c1.9,0.6,2.9,2.7,2.3,4.6c-2.7,8.1-5,16.3-6.9,24.6
		C12.6,198.6,11.2,199.8,9.5,199.8z M485.8,182c-1.6,0-3-1-3.5-2.6c-2.5-8.1-5.4-16.2-8.7-24c-0.8-1.8,0.1-4,1.9-4.7
		c1.8-0.8,4,0.1,4.7,1.9c3.4,8,6.4,16.3,8.9,24.7c0.6,1.9-0.5,3.9-2.4,4.5C486.5,181.9,486.2,182,485.8,182z M26,150.8
		c-0.5,0-1-0.1-1.5-0.3c-1.8-0.8-2.6-3-1.8-4.8c3.6-7.9,7.8-15.8,12.2-23.3c1-1.7,3.2-2.3,5-1.3c1.7,1,2.3,3.2,1.3,5
		c-4.3,7.3-8.3,14.9-11.9,22.6C28.7,150,27.4,150.8,26,150.8z M465.7,134.4c-1.3,0-2.5-0.7-3.2-1.9c-4.1-7.4-8.7-14.7-13.5-21.6
		c-1.1-1.6-0.7-3.9,0.9-5c1.6-1.2,3.9-0.7,5,0.9c5,7.1,9.7,14.6,13.9,22.3c1,1.7,0.3,3.9-1.4,4.9
		C466.9,134.2,466.3,134.4,465.7,134.4z M52.4,106.4c-0.7,0-1.5-0.2-2.2-0.7c-1.6-1.2-1.9-3.5-0.7-5.1c5.2-7,10.9-13.8,16.8-20.2
		c1.3-1.5,3.6-1.6,5.1-0.2s1.6,3.6,0.2,5.1c-5.8,6.2-11.2,12.8-16.3,19.6C54.6,105.9,53.5,106.4,52.4,106.4z M436,92.1
		c-1,0-2-0.4-2.7-1.2c-5.6-6.4-11.5-12.6-17.7-18.3c-1.5-1.4-1.5-3.6-0.2-5.1c1.4-1.5,3.7-1.5,5.1-0.2c6.4,6,12.5,12.3,18.2,18.9
		c1.3,1.5,1.2,3.8-0.4,5.1C437.7,91.8,436.9,92.1,436,92.1z M87.5,68.4c-1,0-2-0.4-2.7-1.2c-1.3-1.5-1.2-3.8,0.3-5.1
		c6.6-5.8,13.5-11.2,20.6-16.3c1.6-1.1,3.9-0.8,5,0.9c1.2,1.6,0.8,3.9-0.9,5c-6.9,4.9-13.6,10.2-20,15.8
		C89.2,68.1,88.3,68.4,87.5,68.4z M398.2,56.8c-0.8,0-1.5-0.2-2.2-0.7c-6.8-5.1-13.9-9.9-21.1-14.3c-1.7-1-2.3-3.2-1.2-5
		c1-1.7,3.2-2.3,5-1.2c7.5,4.5,14.8,9.4,21.8,14.7c1.6,1.2,1.9,3.5,0.7,5.1C400.4,56.3,399.3,56.8,398.2,56.8z M129.7,38.5
		c-1.3,0-2.5-0.7-3.2-1.8c-1-1.7-0.4-3.9,1.4-4.9c7.6-4.3,15.5-8.2,23.5-11.6c1.8-0.8,4,0.1,4.7,1.9c0.8,1.8-0.1,4-1.9,4.7
		c-7.8,3.3-15.5,7.1-22.9,11.3C130.9,38.4,130.3,38.5,129.7,38.5z M353.9,30.2c-0.5,0-1-0.1-1.5-0.3c-7.7-3.6-15.6-6.8-23.6-9.5
		c-1.9-0.6-2.9-2.7-2.2-4.6c0.6-1.9,2.7-2.9,4.6-2.2c8.3,2.8,16.5,6.1,24.4,9.8c1.8,0.8,2.6,3,1.8,4.8
		C356.6,29.4,355.3,30.2,353.9,30.2z M177.2,18.2c-1.5,0-3-1-3.5-2.5c-0.6-1.9,0.5-3.9,2.4-4.5c8.3-2.6,16.9-4.7,25.5-6.4
		c2-0.4,3.9,0.9,4.2,2.8c0.4,2-0.9,3.9-2.8,4.2c-8.3,1.6-16.6,3.7-24.7,6.2C177.9,18.1,177.5,18.2,177.2,18.2z M305,13.4
		c-0.3,0-0.5,0-0.8-0.1c-8.2-1.9-16.7-3.3-25.1-4.4c-2-0.2-3.4-2-3.2-4c0.2-2,2-3.4,4-3.2c8.7,1,17.4,2.5,25.9,4.5
		c1.9,0.4,3.2,2.4,2.7,4.3C308.2,12.3,306.7,13.4,305,13.4z M227.9,8.2c-1.8,0-3.4-1.4-3.6-3.3c-0.2-2,1.3-3.7,3.3-3.9
		c8.7-0.8,17.5-1.1,26.2-1c2,0,3.6,1.7,3.6,3.7s-1.7,3.6-3.7,3.6c-8.5-0.1-17.1,0.2-25.5,0.9C228.1,8.2,228,8.2,227.9,8.2z"></path></g>
</g>
<g>
	<g>
		<g id="change2_1"><path fill="#3F4651" d="M250,437.9c-103.6,0-187.9-84.3-187.9-187.9S146.4,62.1,250,62.1S437.9,146.4,437.9,250
			S353.6,437.9,250,437.9z M250,64.9c-102.1,0-185.1,83-185.1,185.1s83,185.1,185.1,185.1s185.1-83,185.1-185.1S352.1,64.9,250,64.9
			z"></path></g>
	</g>
	<g>
		<g>
			<g>
				<g id="change2_2"><path fill="#3F4651" d="M278,102c-0.1,0-0.1,0-0.2,0l-4.3-0.6c-0.9-0.1-2-0.3-3.2-0.5c-1.9-0.3-4.1-0.7-6.2-0.8L250,99.4
					c-0.7,0-1.3-0.6-1.3-1.4V63.5c0-0.6,0.3-1.1,0.9-1.3c0.5-0.2,1.1-0.1,1.5,0.3c0.1,0.1,8.8,9.2,15.7,18.1c3.2,4.1,6,8.6,8.1,12
					l4.1,6.9c0.3,0.3,0.4,0.6,0.4,1C279.4,101.4,278.8,102,278,102L278,102z M251.4,96.6l12.8,0.7c2.3,0.1,4.5,0.5,6.5,0.9
					c1.1,0.2,2.2,0.4,3.1,0.5l1.5,0.2l-2.8-4.7c-2.1-3.3-4.9-7.8-7.9-11.8c-4.6-6-10.1-12.1-13.2-15.4L251.4,96.6L251.4,96.6z"></path></g>
			</g>
			<g>
				<g id="change2_3"><path fill="#3F4651" d="M284.3,68.1c-0.4,0-0.8-0.2-1.1-0.6l-5.6-7.6c-2.7-3.5-6-7.9-9.7-11.8c-8.4-8.9-18.6-18-18.7-18.1
					c-0.4-0.4-0.6-1-0.4-1.5c0.2-0.5,0.6-0.9,1.3-0.9l20.3,1c3.5,0.2,7,0.8,10,1.3c1.4,0.2,2.8,0.4,4,0.6l6.3,1
					c0.4,0.1,0.7,0.3,0.9,0.6c0.2,0.3,0.3,0.7,0.2,1L285.6,67c-0.1,0.5-0.5,1-1,1.1C284.5,68.1,284.4,68.1,284.3,68.1z M253.8,30.6
					c3.7,3.4,10.3,9.5,16,15.7c3.8,4,7.2,8.5,9.9,12l3.8,5.1l5.5-29.3l-4.9-0.8c-1.2-0.2-2.6-0.4-4.1-0.6c-3-0.5-6.4-1-9.7-1.2
					L253.8,30.6z"></path></g>
			</g>
			<g>
				<g>
					<g id="change2_4"><path fill="#3F4651" d="M278,102c-0.5,0-0.9-0.3-1.2-0.7l-4.3-7.2c-2.1-3.3-4.9-7.8-7.9-11.8c-6.8-8.8-15.5-17.8-15.5-17.9
						c-0.2-0.3-0.4-0.6-0.4-0.9V29.1c0-0.5,0.3-1,0.8-1.2s1.1-0.1,1.5,0.2c0.1,0.1,10.4,9.2,18.9,18.2c3.8,4,7.2,8.5,9.9,12l1.2,1.5
						l4.5,6.2c0.2,0.3,0.3,0.7,0.2,1.1l-6.3,33.8c-0.1,0.6-0.5,1-1.1,1.1C278.1,102,278,102,278,102z M251.4,62.9
						c1.8,1.9,9.3,9.9,15.3,17.7c3.2,4.1,6,8.6,8.1,12l2.5,4.1l5.5-29.7l-5.3-7.1c-2.7-3.5-6-7.9-9.7-11.8c-6-6.4-12.9-12.8-16.4-16
						V62.9z"></path></g>
				</g>
			</g>
			<g>
				<g id="change2_5"><path fill="#3F4651" d="M304.9,109.7c-0.2,0-0.3,0-0.5-0.1l-5.8-2.1c-2.2-0.8-4.7-1.8-7.3-2.3l-9.4-2.4c-1.7-0.5-3-0.6-3.7-0.7
					c-0.5-0.1-1-0.1-1.4-0.6c-0.2-0.3-0.3-0.7-0.2-1l6.3-33.8c0.1-0.5,0.5-1,1.1-1.1s1.1,0.1,1.4,0.5l1.2,1.7c1.1,1.5,2.1,3.1,3,4.7
					c2.7,4.5,5.6,9.7,7.9,14.3c2.6,4.8,4.6,10,6.3,14.6l2.2,6.2c0.2,0.2,0.3,0.5,0.3,0.8C306.3,109.1,305.6,109.7,304.9,109.7
					L304.9,109.7z M279.6,99.5c0.9,0.1,1.9,0.3,3.1,0.7l9.3,2.4c2.8,0.5,5.5,1.6,7.6,2.4l3.1,1.1l-1.3-3.8
					c-1.3-3.4-3.4-9.2-6.2-14.3c-2.3-4.6-5.2-9.7-7.9-14.2c-0.7-1.2-1.4-2.4-2.2-3.5L279.6,99.5z"></path></g>
			</g>
			<g>
				<g id="change2_6"><path fill="#3F4651" d="M304.9,109.7L304.9,109.7c-0.6,0-1.1-0.4-1.3-0.9l-2.3-6.6c-1.3-3.4-3.4-9.2-6.2-14.3
					c-2.3-4.6-5.2-9.7-7.9-14.2c-0.9-1.6-1.9-3.1-2.9-4.5l-1.2-1.7c-0.3-0.4-0.3-1,0-1.5s0.9-0.7,1.4-0.6l1.5,0.2
					c1.4,0.2,2.7,0.4,4,0.8l11.4,2.9c3.5,0.7,6.8,2,9.6,3l6.9,2.5c0.3,0.1,0.6,0.4,0.8,0.7c0.2,0.3,0.2,0.7,0,1.1l-12.4,32.1
					C305.9,109.3,305.4,109.7,304.9,109.7z M287.2,68.6c0.8,1.2,1.6,2.4,2.3,3.7c2.7,4.5,5.6,9.7,7.9,14.3c2.6,4.8,4.6,10,6.3,14.6
					l1.1,3.1L315.5,77l-5.6-2c-2.8-1-5.9-2.2-9.2-2.9l-11.5-3C288.5,68.9,287.9,68.8,287.2,68.6z"></path></g>
			</g>
			<g>
				<g id="change2_7"><path fill="#3F4651" d="M317.3,77.6c-0.2,0-0.3,0-0.5-0.1L310,75c-2.8-1-5.9-2.2-9.2-2.9l-11.5-3c-1.2-0.4-2.4-0.6-3.7-0.8
					l-1.5-0.2c-0.6-0.1-1-0.5-1.1-1s0.1-1.1,0.5-1.4l1.7-1.2c1.6-1.2,3.2-2.2,4.8-3.1c2.7-1.6,8.3-4.9,15.1-8.4
					c5.9-3.2,11.9-5.5,16.4-7.2l7.8-2.9c0.5-0.2,1.1-0.1,1.5,0.3c0.4,0.4,0.5,1,0.3,1.5l-12.4,32.1
					C318.4,77.3,317.9,77.6,317.3,77.6z M287.8,65.9c0.7,0.1,1.4,0.3,2.1,0.5l11.4,2.9c3.5,0.7,6.8,2,9.6,3l5.6,2.1l10.9-28
					l-4.9,1.8c-4.6,1.8-10.4,4-16.1,7.1c-6.8,3.5-12.3,6.7-15,8.3C290.2,64.4,289,65.1,287.8,65.9z"></path></g>
			</g>
			<g>
				<g id="change2_8"><path fill="#3F4651" d="M284.3,68.1c-0.3,0-0.5-0.1-0.7-0.2c-0.5-0.3-0.7-0.9-0.6-1.4l6.3-33.9c0.1-0.7,0.8-1.2,1.6-1.1l1.7,0.3
					c1.6,0.2,3.1,0.5,4.7,1l13.6,3.5c4.2,0.9,8.2,2.4,11.5,3.6l8,2.9c0.5,0.2,0.9,0.7,0.9,1.3s-0.4,1.1-0.9,1.3l-7.8,2.9
					c-4.6,1.8-10.4,4-16.1,7.1c-6.8,3.5-12.3,6.7-15,8.3c-1.5,0.9-3,1.8-4.6,3l-1.8,1.2C284.8,68.1,284.5,68.1,284.3,68.1z
					 M291.6,34.5l-5.4,29.2c1.3-0.9,2.5-1.7,3.8-2.4c2.7-1.6,8.3-4.9,15.1-8.4c5.9-3.2,11.9-5.5,16.4-7.2l4.3-1.6l-4.5-1.6
					c-3.2-1.2-7.2-2.6-11.2-3.5l-13.6-3.5c-1.4-0.4-2.9-0.7-4.4-0.9L291.6,34.5z"></path></g>
			</g>
		</g>
		<g>
			<g>
				<g id="change2_9"><path fill="#3F4651" d="M329.9,122.2c-0.2,0-0.5-0.1-0.7-0.2l-7.6-4.6l-13.2-6.3l-4-1.4c-0.3-0.1-0.6-0.4-0.8-0.7
					c-0.2-0.3-0.2-0.7,0-1.1L316,75.7c0.2-0.5,0.7-0.9,1.3-0.9l0,0c0.5,0,1,0.3,1.3,0.8l3,6.8c1.7,4.6,3.6,10.5,5.1,15.7
					c0.8,2.8,1.5,5.5,2.2,8.1c0.6,2.7,1,5.3,1.4,7.4l1,6.5c0.1,0.2,0.1,0.4,0.1,0.6C331.4,121.6,330.8,122.2,329.9,122.2
					C330,122.2,330,122.2,329.9,122.2z M306.7,107.5l2.8,1l13.4,6.4l5.3,3.2l-0.6-4c-0.4-2.1-0.8-4.5-1.3-7.2
					c-0.6-2.5-1.3-5.2-2.1-7.9c-1.5-5.2-3.4-11-5.1-15.5l-1.6-3.7L306.7,107.5z"></path></g>
			</g>
			<g>
				<g id="change2_10"><path fill="#3F4651" d="M348.1,93c-0.1,0-0.1,0-0.2,0c-0.5-0.1-1-0.5-1.1-1l-4.1-15.2c-0.9-2.6-2-5.5-3.2-8.4
					c-2.2-5.6-4.8-11.7-7-16.4l-3.9-7.1c-0.3-0.5-0.2-1.1,0.2-1.6c0.4-0.4,1-0.6,1.5-0.4l6,2.2l19.5,9.4l11.2,6.7
					c0.3,0.2,0.5,0.5,0.6,0.9s0,0.7-0.2,1l-18.2,29.3C349,92.7,348.6,93,348.1,93z M332.7,46.7l2.2,4c2.3,4.8,4.9,11,7.2,16.6
					c1.2,3,2.3,5.9,3.2,8.6l3.4,12.2l15.7-25.3l-9.9-5.9l-19.3-9.3L332.7,46.7z"></path></g>
			</g>
			<g>
				<g>
					<g id="change2_11"><path fill="#3F4651" d="M329.9,122.2c-0.1,0-0.2,0-0.3,0c-0.6-0.1-1-0.6-1.1-1.1l-1-6.9c-0.4-2.1-0.8-4.5-1.3-7.2
						c-0.6-2.5-1.3-5.2-2.1-7.9c-1.5-5.2-3.4-11-5.1-15.5l-2.9-6.7c-0.1-0.3-0.1-0.7,0-1l12.4-32.1c0.2-0.5,0.7-0.8,1.2-0.9
						c0.5-0.1,1,0.2,1.3,0.7l3.9,7.2c2.3,4.8,4.9,11,7.2,16.6c1.2,3,2.3,5.9,3.2,8.6l2.3,7.9l1.9,7.5c0.1,0.4,0,0.7-0.2,1.1
						l-18.2,29.3C330.8,122,330.4,122.2,329.9,122.2z M318.8,76.2l2.7,6.3c1.7,4.6,3.6,10.5,5.1,15.7c0.8,2.8,1.5,5.5,2.2,8.1
						c0.6,2.7,1,5.3,1.4,7.4l0.5,3.3l15.9-25.6l-2.4-9l-1.6-5.6c-0.9-2.6-2-5.5-3.2-8.4c-2.2-5.6-4.8-11.7-7-16.4l-2.5-4.5
						L318.8,76.2z"></path></g>
				</g>
			</g>
			<g>
				<g id="change2_12"><path fill="#3F4651" d="M352.3,139.1c-0.2,0-0.3,0-0.5-0.1c-0.4-0.1-0.6-0.4-0.8-0.7c-2-2.2-18.7-14.9-21.2-16.1
					c-0.2,0-0.5-0.1-0.7-0.2c-0.6-0.4-0.8-1.2-0.4-1.9l18.2-29.3c0.3-0.5,0.8-0.7,1.4-0.6c0.5,0.1,1,0.5,1.1,1.1l1.6,7.3
					c0.9,4.3,1.6,10.2,2.2,16.3c0.6,6.9,0.9,12,0.7,15.9l-0.3,7l0,0c0,0.3-0.1,0.6-0.3,0.9C353.1,139,352.7,139.1,352.3,139.1z
					 M331.9,120.3c4.3,2.6,14.4,10.2,19.2,14.3l0.1-4c0.2-3.8,0-8.7-0.7-15.5c-0.6-5.8-1.2-11.9-2.1-16l-0.9-4L331.9,120.3z"></path></g>
			</g>
			<g>
				<g id="change2_13"><path fill="#3F4651" d="M352.3,139.1c-0.2,0-0.4,0-0.5-0.1c-0.5-0.2-0.9-0.7-0.9-1.3l0.3-7c0.2-3.8,0-8.7-0.7-15.5
					c-0.6-5.8-1.2-11.9-2.1-16l-1.6-7.3c-0.1-0.5,0.1-1.1,0.5-1.4s1-0.3,1.5-0.1l4.6,2.8c1.8,1.1,3.9,2.6,6,4.3
					c1.2,0.9,2.4,1.8,3.6,2.7l1.6,1.2c3,2.2,5.8,4.3,7.9,6.4l3.9,3.6c0.3,0.2,0.4,0.6,0.4,1s-0.1,0.7-0.4,1l-23.2,25.4
					C353,139,352.7,139.1,352.3,139.1z M350.1,94.4l0.9,4.1c0.9,4.3,1.6,10.2,2.2,16.3c0.6,6.9,0.9,12,0.7,15.9l-0.1,3.3l19.8-21.7
					l-3-2.7c-1.9-1.9-4.7-4-7.6-6.2l-1.5-1.1c-1.2-0.9-2.5-1.8-3.7-2.8c-2.1-1.6-4.1-3.1-5.8-4.1L350.1,94.4z"></path></g>
			</g>
			<g>
				<g id="change2_14"><path fill="#3F4651" d="M375.5,113.7c-0.3,0-0.7-0.1-0.9-0.4l-4-3.6c-1.9-1.9-4.7-4-7.6-6.2l-1.5-1.1c-1.2-0.9-2.5-1.8-3.7-2.8
					c-2.1-1.6-4.1-3.1-5.8-4.1l-4.6-2.8c-0.5-0.3-0.7-0.8-0.6-1.4s0.5-1,1.1-1.1l7.6-1.7c4.6-1,10.5-1.6,16.8-2.3h0.4
					c8-0.8,13.7-1.1,18-0.9l8.2,0.2c0.5,0,1,0.3,1.2,0.8s0.1,1.1-0.2,1.5l-23.2,25.4C376.2,113.5,375.9,113.7,375.5,113.7z
					 M351.7,92.2l1.7,1c1.8,1.1,3.9,2.6,6,4.3c1.2,0.9,2.4,1.8,3.6,2.7l1.6,1.2c3,2.2,5.8,4.3,7.9,6.4l2.9,2.7l20.3-22.2l-5.2-0.1
					c-0.7,0-1.5,0-2.2,0c-3.8,0-9,0.3-15.4,0.9h-0.4c-6.2,0.6-12,1.3-16.5,2.2L351.7,92.2z"></path></g>
			</g>
			<g>
				<g id="change2_15"><path fill="#3F4651" d="M348.1,93c-0.4,0-0.9-0.2-1.1-0.6c-0.3-0.4-0.3-1,0-1.5l18.2-29.3c0.4-0.6,1.2-0.8,1.9-0.4l5.4,3.3
					c2.2,1.3,4.8,3.2,7.4,5.3c1.3,1,2.7,2,4,3l1.3,1c3.7,2.8,7.3,5.4,9.8,7.9l4.7,4.2c0.4,0.4,0.6,1,0.4,1.5s-0.6,0.9-1.3,0.9
					l-8.2-0.2c-0.7,0-1.5,0-2.2,0c-3.8,0-9,0.3-15.4,0.9h-0.4c-6.2,0.6-12,1.3-16.5,2.2l-7.6,1.7C348.3,92.9,348.2,93,348.1,93z
					 M366.7,64.2L351,89.5l4.4-1c4.6-1,10.5-1.6,16.8-2.3h0.4c8-0.8,13.7-1.1,18-0.9l4.5,0.1l-2-1.8c-2.4-2.4-5.9-4.9-9.5-7.7
					l-1.3-1c-1.4-1-2.7-2-4.1-3c-2.6-2-5.1-3.8-7.2-5.1L366.7,64.2z"></path></g>
			</g>
		</g>
		<g>
			<g>
				<g id="change2_16"><path fill="#3F4651" d="M371.2,159.9c-0.4,0-0.9-0.2-1.1-0.6c0-0.1-4-5.8-8.8-10.6c-0.8-0.8-1.5-1.7-2.3-2.5
					c-1.5-1.7-2.9-3.3-4.3-4.4l-3.3-3c-0.3-0.2-0.4-0.6-0.5-1c0-0.4,0.1-0.7,0.4-1l23.2-25.4c0.4-0.4,1-0.6,1.5-0.4s0.9,0.7,0.9,1.2
					l0.2,7.5c0.2,4.5-0.3,10.8-0.8,16.4c-0.8,11.4-3.7,22.5-3.8,22.6c-0.1,0.5-0.6,0.9-1.1,1C371.4,159.9,371.3,159.9,371.2,159.9z
					 M354.2,137.7l2.2,2c1.5,1.1,3,2.8,4.6,4.6c0.7,0.8,1.4,1.6,2.2,2.4c3,3.1,5.7,6.4,7.3,8.6c0.9-4,2.5-11.6,3-19.3
					c0.5-6,1-12,0.8-16.1l-0.1-4.1L354.2,137.7z"></path></g>
			</g>
			<g>
				<g id="change2_17"><path fill="#3F4651" d="M398.7,139.1c-0.2,0-0.5-0.1-0.7-0.2c-0.5-0.3-0.7-0.8-0.6-1.4c0-0.1,2-12.2,1.7-24.6
					c0-6.5-0.1-13.1-0.7-17.7l-1-8.2c-0.1-0.6,0.2-1.1,0.7-1.4s1.1-0.2,1.6,0.2l4.7,4.3c2.2,1.8,4.6,4.4,7.1,7.2c0.9,1,1.8,2,2.7,3
					c7.1,7.3,13.1,15.7,13.1,15.8c0.4,0.6,0.3,1.4-0.3,1.9l-27.5,20.8C399.3,139,399,139.1,398.7,139.1z M400.5,90.4l0.5,4.5
					c0.6,4.7,0.7,11.5,0.7,18c0.2,8.7-0.7,17.2-1.3,21.7l23.7-18c-1.8-2.5-6.6-8.8-12.1-14.4c-0.9-1-1.9-2-2.8-3
					c-2.4-2.7-4.7-5.2-6.8-7L400.5,90.4z"></path></g>
			</g>
			<g>
				<g>
					<g id="change2_18"><path fill="#3F4651" d="M371.2,159.9c-0.3,0-0.5-0.1-0.8-0.2c-0.5-0.3-0.7-0.9-0.6-1.5c0-0.1,2.9-11,3.7-22.1
						c0.5-6,1-12,0.8-16.1l-0.2-7.5c0-0.4,0.1-0.7,0.4-1L397.7,86c0.4-0.4,0.9-0.5,1.4-0.4c0.5,0.2,0.9,0.6,0.9,1.1l1,8.2
						c0.6,4.7,0.7,11.5,0.7,18c0.3,12.6-1.7,24.9-1.7,25.1c-0.1,0.3-0.2,0.7-0.5,0.9L372,159.6C371.8,159.8,371.5,159.9,371.2,159.9
						z M376.9,112.8l0.2,6.9c0.2,4.5-0.3,10.8-0.8,16.4c-0.5,7.4-1.9,14.7-2.9,18.9l24-18.1c0.4-2.5,1.8-13.2,1.6-24
						c0-6.5-0.1-13.1-0.7-17.7l-0.6-5.2L376.9,112.8z"></path></g>
				</g>
			</g>
			<g>
				<g id="change2_19"><path fill="#3F4651" d="M386,183.7c-0.3,0-0.7-0.1-0.9-0.4c-0.3-0.3-0.5-0.7-0.4-1.1c-1-2.8-12.3-20.6-14.1-22.5
					c-0.2-0.1-0.3-0.2-0.4-0.4c-0.4-0.6-0.3-1.4,0.3-1.9l27.5-20.8c0.4-0.3,1.1-0.4,1.5-0.1c0.5,0.3,0.7,0.8,0.7,1.4l-1.2,7.4
					c-0.6,4.2-2,10-3.8,16c-2,6.9-3.6,11.5-5,14.9l-2.8,6.5l0,0c-0.1,0.3-0.4,0.6-0.6,0.7C386.4,183.6,386.2,183.7,386,183.7z
					 M373.2,158.7c2.5,3.5,9.7,14.4,12.8,20.2l1.6-3.6c1.3-3.3,2.9-7.9,4.9-14.7c1.8-5.9,3.1-11.6,3.7-15.6l0.6-4.1L373.2,158.7z"></path></g>
			</g>
			<g>
				<g id="change2_20"><path fill="#3F4651" d="M386,183.7c-0.3,0-0.7-0.1-0.9-0.4c-0.4-0.4-0.5-1-0.3-1.5l2.9-6.5c1.3-3.3,2.9-7.9,4.9-14.7
					c1.8-5.9,3.1-11.6,3.7-15.6l1.2-7.5c0.1-0.5,0.5-1,1-1.1s1.1,0.1,1.4,0.5l3.2,4.3c2.2,2.7,4.6,6.6,6.6,10
					c0.8,1.3,1.6,2.6,2.3,3.9c1.4,2.3,2.8,4.5,3.7,6.4l2.4,4.9c0.3,0.7,0,1.5-0.6,1.8l-30.8,15.4C386.4,183.6,386.2,183.7,386,183.7
					z M399.5,141.2l-0.7,4.2c-0.6,4.2-2,10-3.8,16c-2,6.9-3.6,11.5-5,14.9l-1.3,3.1l26.2-13.1l-1.8-3.6c-0.9-1.8-2.2-3.9-3.6-6.2
					c-0.8-1.3-1.6-2.6-2.4-3.9c-1.9-3.2-4.3-7.1-6.4-9.7L399.5,141.2z"></path></g>
			</g>
			<g>
				<g id="change2_21"><path fill="#3F4651" d="M416.8,168.3c-0.1,0-0.3,0-0.4-0.1c-0.3-0.1-0.6-0.4-0.8-0.7l-2.3-4.9c-0.9-1.8-2.2-3.9-3.6-6.2
					c-0.8-1.3-1.6-2.6-2.4-3.9c-1.9-3.2-4.3-7.1-6.4-9.7l-3.3-4.4c-0.3-0.4-0.4-1.1-0.1-1.5c0.3-0.5,0.8-0.7,1.4-0.6l7.6,1.2
					c4.6,0.7,10.5,2.1,16.9,4c7.7,2.2,13.3,4.1,17.1,5.6l7.6,3.2c0.5,0.2,0.8,0.7,0.8,1.2s-0.3,1-0.8,1.3l-30.8,15.4
					C417.2,168.3,417,168.3,416.8,168.3z M401.8,139.6l1.2,1.6c2.2,2.7,4.6,6.6,6.6,10c0.8,1.3,1.6,2.6,2.3,3.9
					c1.4,2.3,2.8,4.5,3.7,6.4l1.8,3.6l26.9-13.4l-4.8-2c-3.8-1.5-9.3-3.3-16.9-5.5c-6.2-1.8-12.1-3.2-16.6-3.9L401.8,139.6z"></path></g>
			</g>
			<g>
				<g id="change2_22"><path fill="#3F4651" d="M447.6,152.9c-0.2,0-0.4,0-0.5-0.1l-7.5-3.2c-3.8-1.5-9.3-3.3-16.9-5.5c-6.2-1.8-12.1-3.2-16.6-3.9
					l-7.6-1.2c-0.5-0.1-1-0.5-1.1-1s0.1-1.1,0.5-1.4l27.5-20.8c0.3-0.2,0.7-0.3,1-0.3c0.4,0.1,0.7,0.2,0.9,0.5l3.8,5.1
					c2.1,2.5,4.5,6.3,7.8,11.8c0.8,1.3,1.6,2.7,2.4,4c1.8,3,3.5,5.7,4.8,8.1l2.6,5.4c0.2,0.2,0.4,0.6,0.4,0.9
					C449.1,152.3,448.4,152.9,447.6,152.9L447.6,152.9z M402.1,136.9l4.4,0.7c4.6,0.7,10.5,2.1,16.9,4c7.7,2.2,13.3,4.1,17.1,5.6
					l4.2,1.8l-1.2-2.4c-1.2-2.3-2.9-5-4.7-7.9c-0.8-1.3-1.6-2.7-2.4-4c-3.2-5.4-5.6-9.1-7.6-11.5l-3-4L402.1,136.9z"></path></g>
			</g>
		</g>
		<g>
			<g>
				<g id="change2_23"><path fill="#3F4651" d="M396.1,209.8c-0.1,0-0.2,0-0.3,0c-0.5-0.1-0.9-0.5-1-1.1c0,0-0.3-1.7-1.1-4.1l-3.3-9
					c-0.2-0.6-0.5-1.2-0.7-1.9c-0.3-1-0.7-2-1.1-2.9l-3.9-8c-0.3-0.7,0-1.5,0.6-1.8l30.8-15.4c0.5-0.2,1.1-0.2,1.5,0.2
					s0.6,1,0.4,1.5l-5.3,14.1c-1,2.3-2.2,4.7-3.4,7l-0.5,1c-3.2,6.2-6.1,11.3-7.6,13.7c-2.3,3.6-4,5.9-4.1,6
					C397,209.6,396.6,209.8,396.1,209.8z M387.8,182.9l3.3,6.8c0.5,1,0.8,2.1,1.2,3.1c0.2,0.6,0.4,1.2,0.7,1.8l3.3,9.1
					c0.2,0.5,0.3,1,0.4,1.5c0.6-0.9,1.4-2.1,2.2-3.4c1.5-2.4,4.4-7.4,7.5-13.5l0.5-1c1.2-2.3,2.3-4.6,3.3-6.8l4.1-10.8L387.8,182.9z
					"></path></g>
			</g>
			<g>
				<g id="change2_24"><path fill="#3F4651" d="M429.3,200.4c-0.4,0-0.8-0.2-1.1-0.5c-0.3-0.4-0.4-1.1-0.1-1.5c0,0,1.6-2.7,3.7-6.7
					c1.3-2.8,4-8.6,6.8-15.6l0.5-1.3c1-2.5,2-5.1,2.8-7.5l2.3-7.9l2.1-8c0.1-0.6,0.6-1,1.2-1c0.7,0,1.1,0.3,1.4,0.8l5.6,11.7
					c0.7,1.5,1.2,3.1,1.8,4.7c0.3,0.8,0.6,1.6,0.9,2.4l4.8,13c1.2,3.7,1.7,6.2,1.8,6.3c0.2,0.7-0.3,1.4-1,1.6l-33.1,9.4
					C429.5,200.3,429.4,200.4,429.3,200.4z M448,155.5l-3.5,12.4c-0.8,2.5-1.9,5.2-2.9,7.7l-0.5,1.3c-2.8,7.1-5.5,13-6.9,15.8
					c-0.8,1.6-1.5,2.9-2.1,4l28.6-8.1c-0.3-1.1-0.7-2.8-1.4-4.8l-4.8-13.1c-0.3-0.8-0.6-1.6-0.9-2.4c-0.6-1.5-1.1-3.1-1.7-4.5
					L448,155.5z"></path></g>
			</g>
			<g>
				<g>
					<g id="change2_25"><path fill="#3F4651" d="M396.1,209.8c-0.4,0-0.9-0.2-1.1-0.6c-0.3-0.5-0.3-1.1,0-1.6c0,0,1.7-2.3,3.9-5.8
						c1.5-2.4,4.4-7.4,7.5-13.5l0.5-1c1.1-2.3,2.3-4.6,3.3-6.8l2.7-7l2.5-7.1c0.1-0.3,0.4-0.6,0.7-0.8l30.8-15.4
						c0.5-0.2,1.1-0.2,1.5,0.2c0.4,0.3,0.6,0.9,0.5,1.4l-4.4,16c-0.8,2.5-1.9,5.2-2.9,7.7l-0.5,1.3c-2.8,7.1-5.5,13-6.9,15.8
						c-2.1,4.2-3.7,6.8-3.8,6.9c-0.2,0.3-0.5,0.5-0.8,0.6l-33.1,9.4C396.4,209.8,396.3,209.8,396.1,209.8z M417.9,167.9l-5.1,13.6
						c-1,2.3-2.2,4.7-3.4,7l-0.5,1c-3.2,6.2-6.1,11.3-7.6,13.7c-0.7,1-1.3,2-1.8,2.8l28.9-8.2c0.5-0.9,1.8-3.2,3.4-6.3
						c1.3-2.8,4-8.6,6.8-15.6l0.5-1.3c1-2.5,2-5.1,2.8-7.5l3.6-12.9L417.9,167.9z"></path></g>
				</g>
			</g>
			<g>
				<g id="change2_26"><path fill="#3F4651" d="M401.4,237.3c-0.5,0-1-0.3-1.2-0.8c-0.1-0.3-0.2-0.6-0.1-0.9c0-0.7-0.4-3.1-0.8-5.4
					c-0.4-2.3-0.8-5.1-1.2-8c-0.2-2.2-0.8-4.4-1.3-6.3c-0.3-1.1-0.6-2.1-0.8-3.1l-1.1-4.2c-0.2-0.7,0.2-1.5,1-1.7l33.1-9.4
					c0.5-0.2,1.1,0,1.5,0.5c0.3,0.4,0.4,1.1,0.1,1.5l-3.9,6.5c-0.5,0.8-1.1,1.7-1.6,2.6c-2.1,3.4-4.5,7.2-7.6,11
					c-4.3,5.5-8.2,9.9-10.2,12.1c-2.6,2.9-4.7,4.9-4.9,5.1l0,0c-0.2,0.2-0.5,0.3-0.8,0.4C401.5,237.3,401.4,237.3,401.4,237.3z
					 M397.8,209.4l0.7,3c0.2,0.9,0.5,1.9,0.8,2.9c0.6,2,1.2,4.3,1.4,6.7c0.4,2.7,0.8,5.5,1.2,7.8c0.2,1.3,0.4,2.4,0.5,3.2
					c0.8-0.8,1.7-1.8,2.7-2.9c1.9-2.2,5.8-6.5,10.1-12c3-3.7,5.4-7.4,7.4-10.7c0.6-0.9,1.1-1.7,1.6-2.5l2.1-3.5L397.8,209.4z"></path></g>
			</g>
			<g>
				<g id="change2_27"><path fill="#3F4651" d="M401.4,237.3c-0.5,0-1-0.3-1.3-0.8c-0.2-0.5-0.1-1.2,0.3-1.6c0,0,2.1-1.9,4.7-4.9
					c1.9-2.2,5.8-6.5,10.1-12c3-3.7,5.4-7.4,7.4-10.7c0.6-0.9,1.1-1.7,1.6-2.5l3.9-6.5c0.3-0.5,0.8-0.7,1.4-0.7c0.6,0.1,1,0.5,1.1,1
					l1.3,5.2c0.2,1.1,0.6,2.2,0.9,3.4c0.7,2.5,1.5,5.3,1.8,8.3l1.8,11.6c0.6,3.2,0.6,5.4,0.6,5.5c0,0.7-0.5,1.3-1.2,1.4l-34.3,3.1
					C401.4,237.3,401.4,237.3,401.4,237.3z M428.8,202.5l-2.2,3.7c-0.5,0.8-1.1,1.7-1.6,2.6c-2.1,3.4-4.5,7.2-7.6,11
					c-4.3,5.5-8.2,9.9-10.2,12.1c-0.8,0.9-1.5,1.7-2.2,2.4l29.2-2.7c-0.1-0.9-0.2-2.3-0.5-3.9l-1.8-11.7c-0.3-2.8-1-5.5-1.7-7.9
					c-0.3-1.3-0.7-2.5-0.9-3.5L428.8,202.5z"></path></g>
			</g>
			<g>
				<g id="change2_28"><path fill="#3F4651" d="M435.6,234.2c-0.3,0-0.7-0.1-0.9-0.3c-0.3-0.3-0.4-0.6-0.5-1c0,0-0.1-2.1-0.6-5.1l-1.8-11.6
					c-0.3-2.9-1.1-5.6-1.7-8c-0.3-1.3-0.7-2.5-0.9-3.5l-1.3-5.2c-0.1-0.5,0.1-1.1,0.5-1.4c0.4-0.3,1-0.4,1.5-0.1l9,5.5
					c3.6,2.3,8.1,5.1,12,8.3c4.4,3.4,9.4,7.6,13.7,11.4c3.8,3.3,6.1,5.7,6.2,5.8c0.4,0.4,0.5,0.9,0.3,1.4s-0.6,0.8-1.2,0.9
					l-34.3,3.1C435.7,234.2,435.7,234.2,435.6,234.2z M431.4,201.9l0.5,2c0.2,1.1,0.6,2.2,0.9,3.4c0.7,2.5,1.5,5.3,1.8,8.3l1.8,11.6
					c0.3,1.7,0.5,3.1,0.5,4.1l30-2.7c-1-0.9-2.3-2.2-3.9-3.5c-4.3-3.8-9.3-7.9-13.6-11.3c-3.8-3.1-8.2-5.9-11.8-8.1L431.4,201.9z"></path></g>
			</g>
			<g>
				<g id="change2_29"><path fill="#3F4651" d="M470,231C470,231,469.9,231,470,231c-0.4,0-0.8-0.1-1.1-0.4c0,0-2.2-2.4-6-5.6
					c-4.3-3.8-9.3-7.9-13.6-11.3c-3.8-3.1-8.2-5.9-11.8-8.1l-2.5-1.5l-6.5-3.9c-0.5-0.3-0.7-0.8-0.7-1.4s0.5-1,1-1.1l33.1-9.4
					c0.4-0.1,0.7-0.1,1.1,0.1c0.3,0.2,0.6,0.5,0.6,0.8l1.6,6.2c0.3,1.2,0.6,2.5,1,3.9c0.8,3,1.7,6.4,2.1,10l2.1,13.8
					c0.5,2.9,0.7,5.1,0.7,6c0.1,0.2,0.1,0.3,0.1,0.5C471.4,230.4,470.7,231,470,231z M432.7,199.4l6.3,3.8c3.6,2.3,8.1,5.1,12,8.3
					c4.4,3.4,9.4,7.6,13.7,11.4c1.4,1.2,2.5,2.2,3.5,3.1c-0.1-0.7-0.2-1.6-0.4-2.5l-2.1-13.9c-0.4-3.4-1.3-6.7-2.1-9.6
					c-0.4-1.4-0.7-2.8-1-4l-1.2-4.8L432.7,199.4z"></path></g>
			</g>
		</g>
		<g>
			<g>
				<g id="change2_30"><path fill="#3F4651" d="M401.4,265.4c-0.2,0-0.5-0.1-0.7-0.2c-0.5-0.3-0.7-0.7-0.7-1.3l0.7-14.1L400,236c0-0.7,0.5-1.4,1.2-1.4
					l34.3-3.1c0.5,0,1.1,0.2,1.3,0.7c0.3,0.5,0.2,1.1-0.2,1.5c-0.1,0.1-8.3,9.6-16.4,17.3c-9.1,7.9-18,14.1-18.1,14.2
					C401.9,265.4,401.6,265.4,401.4,265.4z M402.8,237.2l0.7,12.8l-0.6,11.4c3.2-2.3,9.4-6.9,15.5-12.3c5.4-5.1,11-11.2,13.9-14.5
					L402.8,237.2z"></path></g>
			</g>
			<g>
				<g id="change2_31"><path fill="#3F4651" d="M469.9,271.7h-0.1l-34.3-3.1c-0.6-0.1-1-0.4-1.2-1c-0.2-0.5,0-1.1,0.4-1.5c0.1-0.1,9.1-7.8,18-17.1
					c8-9.1,16-20.1,16.1-20.2c0.3-0.5,0.9-0.7,1.5-0.5s0.9,0.7,1,1.2l1,20.3l-1,20.5c0,0.4-0.2,0.7-0.5,1
					C470.6,271.6,470.3,271.7,469.9,271.7z M438.9,266.1l29.7,2.7l0.9-18.9l-0.8-16.4c-3,4-8.5,11.1-14,17.4
					C448.5,257.4,442.2,263.2,438.9,266.1z"></path></g>
			</g>
			<g>
				<g>
					<g id="change2_32"><path fill="#3F4651" d="M435.6,268.6h-0.1l-34.3-3.1c-0.6-0.1-1.1-0.5-1.2-1c-0.1-0.6,0.1-1.1,0.5-1.5c0.1-0.1,8.9-6.2,17.8-14
						c8-7.6,16.1-17,16.2-17.1c0.2-0.3,0.6-0.4,0.9-0.5l34.3-3.1c0.4,0,1,0.2,1.3,0.7s0.2,1-0.1,1.5c-0.1,0.1-8.1,11.2-16.3,20.4
						c-9,9.5-18.1,17.3-18.2,17.3C436.3,268.5,436,268.6,435.6,268.6z M405.1,263l30,2.8c1.9-1.7,9.8-8.6,17.6-16.7
						c5.7-6.5,11.4-14,14.3-17.8l-30.7,2.8c-1.7,1.9-8.9,10.1-16.1,16.9C414.4,256.1,408.5,260.5,405.1,263z"></path></g>
				</g>
			</g>
			<g>
				<g id="change2_33"><path fill="#3F4651" d="M396.1,293c-0.3,0-0.6-0.1-0.9-0.3c-0.4-0.3-0.6-0.9-0.4-1.4l1.1-4.2c0.2-0.9,0.5-1.9,0.8-3
					c0.5-1.9,1.1-4,1.3-6.2c0.4-2.9,0.8-5.7,1.2-8c0.4-2.3,0.7-4.7,0.8-5.4c0-0.1,0-0.3,0-0.5c0.1-0.7,0.8-1.3,1.5-1.2l34.3,3.1
					c0.5,0.1,1,0.4,1.2,0.9s0,1.1-0.4,1.4c-0.1,0.1-2.3,2.1-6.1,4.8c-4.2,3.1-9.1,6.5-13.4,9.2c-3.8,2.6-8.2,4.8-11.8,6.6l-2.2,1.1
					l-6.3,2.9C396.5,292.9,396.3,293,396.1,293z M402.6,265.6c-0.1,1-0.4,2.4-0.7,4.7c-0.4,2.3-0.8,5.1-1.2,7.9
					c-0.2,2.3-0.9,4.6-1.4,6.6c-0.3,1-0.6,2-0.7,2.9l-0.4,1.5l5.8-2.8c3.5-1.7,7.8-3.9,11.5-6.4c4.3-2.7,9.1-6.1,13.3-9.2
					c1.3-1,2.5-1.8,3.4-2.5L402.6,265.6z"></path></g>
			</g>
			<g>
				<g id="change2_34"><path fill="#3F4651" d="M429.3,302.4c-0.1,0-0.3,0-0.4-0.1l-33.1-9.4c-0.6-0.2-0.9-0.6-1-1.2c0-0.6,0.3-1.1,0.8-1.3l8.4-4
					c3.5-1.7,7.8-3.9,11.5-6.4c4.3-2.7,9.1-6.1,13.3-9.2c3.7-2.6,5.8-4.6,5.9-4.6c0.4-0.4,1-0.5,1.5-0.2c0.5,0.2,0.8,0.7,0.8,1.3
					c0,0.1-0.1,2.3-0.6,5.6l-1.8,11.7c-0.3,2.9-1.1,5.8-1.8,8.2c-0.3,1.2-0.6,2.4-0.9,3.4l-1.3,5.3c-0.1,0.4-0.3,0.7-0.6,0.8
					C429.7,302.3,429.5,302.4,429.3,302.4z M400.1,291.3l28.2,8l1-3.9c0.2-1,0.5-2.2,0.9-3.5c0.7-2.4,1.4-5.1,1.7-7.9l1.8-11.8
					c0.1-0.7,0.2-1.4,0.3-2c-0.9,0.7-2.1,1.6-3.5,2.6c-4.2,3.1-9.1,6.5-13.4,9.2c-3.8,2.6-8.2,4.8-11.8,6.6L400.1,291.3z"></path></g>
			</g>
			<g>
				<g id="change2_35"><path fill="#3F4651" d="M462.4,311.8c-0.1,0-0.3,0-0.4-0.1l-33.1-9.4c-0.7-0.2-1.1-0.9-1-1.7l1.3-5.2c0.2-1,0.5-2.2,0.9-3.5
					c0.7-2.4,1.4-5.1,1.7-7.9l1.8-11.8c0.6-3.1,0.6-5.1,0.6-5.2c0-0.6,0.4-1.1,0.9-1.3c0.5-0.2,1.1,0,1.5,0.4
					c0.1,0.1,2.2,2.4,4.8,6.1c1.9,2.5,5.7,7.8,9.8,14.3c2.9,4.3,5.2,8.7,7.1,12.6c0.5,1,1,2.1,1.5,3l3.5,7.2
					c0.2,0.2,0.4,0.6,0.4,0.9C463.8,311.2,463.2,311.8,462.4,311.8L462.4,311.8z M430.9,300.1l28.9,8.2l-2.3-4.8
					c-0.5-0.9-1-1.9-1.5-3c-1.9-3.8-4.1-8.1-7-12.3c-4.2-6.4-7.9-11.6-9.8-14.2c-0.9-1.3-1.8-2.5-2.5-3.4c-0.1,0.7-0.2,1.4-0.3,2.2
					l-1.8,11.6c-0.3,3-1.1,5.8-1.8,8.3c-0.3,1.2-0.6,2.4-0.9,3.4L430.9,300.1z"></path></g>
			</g>
			<g>
				<g id="change2_36"><path fill="#3F4651" d="M462.4,311.8c-0.5,0-1-0.3-1.2-0.8l-3.6-7.5c-0.5-0.9-1-1.9-1.5-3c-1.9-3.8-4.1-8.1-7-12.3
					c-4.2-6.4-7.9-11.6-9.8-14.2c-2.5-3.6-4.6-5.9-4.6-5.9c-0.4-0.4-0.5-1-0.2-1.5s0.8-0.8,1.3-0.8L470,269c0.7,0.1,1.3,0.7,1.2,1.4
					c0,0.1-0.1,2.7-0.8,6.5l-2.1,13.8c-0.4,3.5-1.3,6.9-2.1,9.9c-0.4,1.4-0.7,2.7-1,3.9l-1.6,6.2c-0.1,0.6-0.6,1-1.2,1
					C462.5,311.8,462.4,311.8,462.4,311.8z M438.8,268.9c0.8,1,1.7,2.1,2.6,3.5c1.9,2.5,5.7,7.8,9.8,14.3c2.9,4.3,5.2,8.7,7.1,12.6
					c0.5,1,1,2.1,1.5,3l2,4.2l0.7-2.6c0.3-1.2,0.6-2.5,1-3.9c0.8-2.9,1.7-6.2,2.1-9.6l2.1-13.9c0.4-2.1,0.5-3.8,0.6-4.9L438.8,268.9
					z"></path></g>
			</g>
		</g>
		<g>
			<g>
				<g id="change2_37"><path fill="#3F4651" d="M386,319.1c-0.4,0-0.8-0.2-1.1-0.5c-0.3-0.4-0.4-1-0.2-1.5l3.9-8c0.4-0.9,0.7-1.8,1.1-2.8
					c0.2-0.6,0.4-1.3,0.7-1.9l3.3-9c0.7-2.3,1.1-4,1.1-4c0.1-0.4,0.3-0.7,0.6-0.9c0.3-0.2,0.7-0.3,1.1-0.1l33.1,9.4
					c0.5,0.1,0.9,0.6,1,1.1s-0.2,1.1-0.6,1.4c-0.1,0.1-2.6,1.6-6.6,3.6c-4.8,2.3-10.3,4.7-15.1,6.6L407,313
					c-2.2,0.9-4.4,1.7-6.6,2.4l-7.2,2l-6.8,1.7C386.2,319.1,386.1,319.1,386,319.1z M397.1,293.3c-0.2,0.7-0.5,1.8-0.8,2.9l-3.4,9.1
					c-0.2,0.6-0.4,1.2-0.7,1.8c-0.4,1.1-0.7,2.1-1.2,3.1l-2.6,5.4l5.1-1.3l5.9-1.7c2.1-0.7,4.2-1.5,6.4-2.3l1.3-0.5
					c4.7-1.9,10.2-4.2,14.9-6.5c1.4-0.7,2.6-1.4,3.6-1.9L397.1,293.3z"></path></g>
			</g>
			<g>
				<g id="change2_38"><path fill="#3F4651" d="M447.6,349.8c-0.2,0-0.4,0-0.6-0.1l-30.8-15.4c-0.5-0.2-0.8-0.8-0.8-1.3c0-0.6,0.4-1,0.9-1.2l7.2-2.6
					l7.5-2.9c2.2-0.9,4.4-2,6.7-3.2l1.5-0.7c5-2.5,10.7-5.6,15.6-8.6c4.1-2.5,6.7-4.4,6.7-4.5c0.5-0.3,1.1-0.4,1.6,0
					c0.5,0.3,0.7,0.9,0.6,1.5c0,0.1-0.6,2.6-1.7,6.3l-4.8,13.3c-0.3,0.8-0.6,1.6-0.9,2.4c-0.6,1.6-1.2,3.2-1.8,4.7l-5.6,11.7
					c-0.2,0.3-0.4,0.6-0.8,0.7C447.9,349.8,447.8,349.8,447.6,349.8z M420.3,333.3l26.7,13.3l5-10.4c0.6-1.4,1.2-2.9,1.7-4.4
					c0.3-0.8,0.6-1.6,0.9-2.5l4.8-13.2c0.3-0.9,0.5-1.7,0.7-2.5c-1.1,0.7-2.3,1.5-3.8,2.5c-5,3-10.8,6.1-15.8,8.7l-1.5,0.7
					c-2.4,1.2-4.6,2.3-6.9,3.3L420.3,333.3z"></path></g>
			</g>
			<g>
				<g>
					<g id="change2_39"><path fill="#3F4651" d="M416.8,334.4c-0.2,0-0.4,0-0.6-0.1l-30.8-15.4c-0.5-0.3-0.8-0.8-0.7-1.4c0.1-0.6,0.5-1,1-1.2l8-2
						l5.9-1.7c2.1-0.7,4.2-1.5,6.4-2.3l1.3-0.5c4.7-1.9,10.2-4.2,14.9-6.5c3.9-2,6.4-3.5,6.4-3.5c0.3-0.2,0.7-0.3,1.1-0.1l33.1,9.4
						c0.5,0.1,0.9,0.6,1,1.1s-0.1,1-0.5,1.3c-0.1,0.1-2.7,2-6.9,4.6c-5,3-10.8,6.1-15.8,8.7l-1.5,0.7c-2.4,1.2-4.6,2.3-6.9,3.3
						l-7.6,3l-7.3,2.6C417.1,334.4,417,334.4,416.8,334.4z M389.9,318.1l27,13.4l6.7-2.4l7.5-2.9c2.2-0.9,4.4-2,6.7-3.2l1.5-0.7
						c5-2.5,10.7-5.6,15.6-8.6c1.8-1.1,3.2-2.1,4.4-2.8l-29.8-8.5c-0.9,0.6-3.1,1.8-6.1,3.3c-4.8,2.3-10.3,4.7-15.1,6.6l-1.3,0.5
						c-2.2,0.9-4.4,1.7-6.6,2.4L389.9,318.1z"></path></g>
				</g>
			</g>
			<g>
				<g id="change2_40"><path fill="#3F4651" d="M371.2,342.9L371.2,342.9c-0.3,0-0.6-0.1-0.8-0.3c-0.5-0.3-0.7-0.9-0.5-1.5c0.1-0.3,0.3-0.6,0.6-0.8
					c1.8-2,13.1-19.7,14.1-22.5c0-0.2,0-0.5,0.1-0.7c0.4-0.7,1.2-0.9,1.8-0.6l30.8,15.4c0.5,0.2,0.8,0.8,0.8,1.3
					c0,0.6-0.4,1-0.9,1.2l-7.1,2.3c-3.7,1.1-9.1,2.3-16.1,3.7c-5.9,1.2-11.5,1.9-15.7,2.1l-6.9,0.4
					C371.3,342.9,371.3,342.9,371.2,342.9z M386.7,319.6c-2.1,4.4-8.9,15.2-12.6,20.4l4-0.2c4.2-0.2,9.6-0.9,15.4-2.1
					c6.9-1.3,12.2-2.6,15.8-3.6l3.9-1.3L386.7,319.6z"></path></g>
			</g>
			<g>
				<g id="change2_41"><path fill="#3F4651" d="M398.7,363.6c-0.3,0-0.6-0.1-0.8-0.3l-27.5-20.8c-0.5-0.3-0.7-0.9-0.5-1.5c0.2-0.5,0.7-0.9,1.2-1l7-0.4
					c4.2-0.2,9.6-0.9,15.4-2.1c6.9-1.3,12.2-2.6,15.8-3.6l7-2.3c0.5-0.2,1.1,0,1.5,0.4s0.4,1,0.2,1.5l-2.3,4.8
					c-1,1.9-2.3,4.1-3.8,6.4c-0.8,1.3-1.6,2.6-2.4,3.9c-2,3.5-4.4,7.4-6.6,10.1l-3.2,4.3c-0.2,0.3-0.5,0.5-0.9,0.5
					C398.8,363.6,398.7,363.6,398.7,363.6z M375,342.7l23.4,17.7l2.4-3.2c2.2-2.6,4.6-6.6,6.4-9.8c0.8-1.3,1.6-2.6,2.4-3.9
					c1.4-2.3,2.7-4.4,3.6-6.2l0.9-1.9l-4,1.3c-3.7,1.1-9.1,2.3-16.1,3.7c-5.9,1.2-11.5,1.9-15.7,2.1L375,342.7z"></path></g>
			</g>
			<g>
				<g id="change2_42"><path fill="#3F4651" d="M426.1,384.4c-0.3,0-0.6-0.1-0.8-0.3l-27.5-20.8c-0.6-0.5-0.7-1.3-0.3-1.9l3.2-4.3
					c2.2-2.6,4.6-6.6,6.4-9.8c0.8-1.3,1.6-2.6,2.4-3.9c1.4-2.3,2.7-4.4,3.6-6.2l2.3-4.8c0.2-0.5,0.9-0.9,1.3-0.8
					c0.6,0,1,0.4,1.2,0.9l2.4,7.4c1.4,4.9,2.8,11.3,3.9,16.9c1.4,6.7,2.3,13.2,2.5,17.8l0.5,7.8c0.1,0.2,0.1,0.3,0.1,0.5
					C427.6,383.8,427,384.4,426.1,384.4C426.2,384.4,426.2,384.4,426.1,384.4z M400.6,362l24,18.1l-0.4-5.2
					c-0.3-4.5-1.2-10.8-2.5-17.5c-1.1-5.6-2.4-11.9-3.8-16.6l-1.3-4.1l-0.9,1.8c-1,1.9-2.3,4.1-3.8,6.4c-0.8,1.3-1.6,2.6-2.4,3.9
					c-2,3.5-4.4,7.4-6.6,10.1L400.6,362z"></path></g>
			</g>
			<g>
				<g id="change2_43"><path fill="#3F4651" d="M426.1,384.4c-0.1,0-0.3,0-0.4-0.1c-0.6-0.2-0.9-0.6-1-1.2l-0.6-8.2c-0.3-4.5-1.2-10.8-2.5-17.5
					c-1.1-5.6-2.4-11.9-3.8-16.6l-2.4-7.4c-0.2-0.5,0-1.1,0.4-1.5s1-0.4,1.5-0.2l30.8,15.4c0.7,0.3,1,1.2,0.6,1.8l-2.8,5.7
					c-1.3,2.4-3,5.2-4.8,8.2c-0.8,1.3-1.6,2.6-2.4,4c-3.3,5.5-5.7,9.3-7.8,11.9l-3.8,5.1C427,384.2,426.6,384.4,426.1,384.4z
					 M419.1,335.8l1.4,4.3c1.4,4.9,2.8,11.3,3.9,16.9c1.4,6.7,2.3,13.2,2.5,17.8l0.3,4.5l1.6-2.1c2-2.5,4.4-6.2,7.6-11.6
					c0.8-1.3,1.6-2.7,2.4-4c1.8-2.9,3.5-5.7,4.7-8l2.2-4.5L419.1,335.8z"></path></g>
			</g>
		</g>
		<g>
			<g>
				<g id="change2_44"><path fill="#3F4651" d="M377.4,365.3c-0.8,0-1.7,0-2.5,0c-6,0-11.4-0.1-15.8-0.8l-7-0.9c-0.5-0.1-1-0.4-1.1-1
					c-0.2-0.5,0-1.1,0.4-1.4l3.3-2.9c1.4-1.1,2.8-2.7,4.3-4.4c0.7-0.8,1.5-1.7,2.2-2.5c4.9-4.9,8.8-10.6,8.9-10.6
					c0.2-0.3,0.5-0.5,0.9-0.6s0.7,0,1,0.3l27.5,20.8c0.4,0.3,0.6,0.9,0.5,1.4s-0.6,0.9-1.1,1C398.8,363.6,388.4,365.3,377.4,365.3z
					 M355.4,361.3l4.1,0.5c4.2,0.6,9.5,0.7,15.5,0.7c0.8,0,1.7,0,2.5,0c7.1,0,13.9-0.7,17.8-1.2l-23.7-17.9c-1.4,2-4.6,6.1-8.3,9.8
					c-0.7,0.8-1.5,1.6-2.2,2.4c-1.6,1.8-3.1,3.5-4.6,4.7L355.4,361.3z"></path></g>
			</g>
			<g>
				<g id="change2_45"><path fill="#3F4651" d="M398.7,414.5c-0.4,0-0.7-0.1-1-0.4l-23.2-25.4c-0.4-0.4-0.5-1-0.2-1.5c0.2-0.5,0.8-0.8,1.3-0.8l7.7,0.2
					c4.7,0.2,10.1-0.2,17-0.8c12.7-0.9,25.4-4,25.5-4c0.6-0.2,1.1,0.1,1.5,0.6c0.3,0.5,0.3,1.1,0,1.6c-0.1,0.1-6.1,8.5-13.2,15.8
					c-0.9,1-1.8,2-2.7,3c-2.5,2.8-4.9,5.4-7.1,7.2l-4.7,4.3C399.4,414.4,399,414.5,398.7,414.5z M378.7,389.2l20.1,22l3.7-3.4
					c2.1-1.8,4.4-4.3,6.9-7c0.9-1,1.8-2,2.7-3c4.4-4.5,8.4-9.5,10.7-12.6c-4.8,1-13.6,2.7-22.4,3.3c-7,0.6-12.6,1-17.3,0.8
					L378.7,389.2z"></path></g>
			</g>
			<g>
				<g>
					<g id="change2_46"><path fill="#3F4651" d="M385.7,389.4c-0.9,0-1.7,0-2.5-0.1l-7.7-0.2c-0.4,0-0.7-0.2-1-0.4l-23.2-25.4c-0.4-0.4-0.5-1-0.2-1.6
						c0.3-0.5,0.8-0.8,1.4-0.7l7,0.9c4.2,0.6,9.5,0.7,15.5,0.7c0.8,0,1.7,0,2.5,0l0,0c10.7,0,20.9-1.6,21-1.6c0.4,0,0.7,0,1,0.3
						L427,382c0.4,0.3,0.6,0.9,0.5,1.4s-0.5,0.9-1,1.1c-0.1,0-13.1,3.2-26,4.1C394.7,389,389.9,389.4,385.7,389.4z M376.1,386.3
						l7.1,0.2c4.7,0.2,10.1-0.2,17-0.8c9.1-0.6,18.2-2.4,22.7-3.4l-24.6-18.6c-2.3,0.3-11.4,1.6-20.9,1.6l0,0c-0.8,0-1.7,0-2.5,0
						c-6,0-11.4-0.1-15.8-0.8l-3.3-0.4L376.1,386.3z"></path></g>
				</g>
			</g>
			<g>
				<g id="change2_47"><path fill="#3F4651" d="M375.5,389.1C375.5,389.1,375.4,389.1,375.5,389.1l-7.6-0.5c-3.8-0.2-9.3-0.9-16.3-2.3
					c-5.7-1.1-11.1-2.2-15.4-3.6l-6.6-2.2c-0.3-0.1-0.7-0.3-0.9-0.6c-0.3-0.5-0.3-1.1,0-1.6c0.3-0.4,0.6-0.6,1.2-0.5
					c2-0.9,19.1-13.9,21-16.1c0.1-0.2,0.2-0.3,0.4-0.5c0.6-0.5,1.4-0.4,1.9,0.1l23,25.2c0.4,0.2,0.6,0.7,0.6,1.2
					C376.9,388.4,376.4,389.1,375.5,389.1L375.5,389.1z M333.3,378.8l3.8,1.3c4.1,1.3,9.4,2.4,15.1,3.5c6.9,1.3,12.2,2.1,15.9,2.2
					l4.1,0.3l-20-21.9C348.6,367.4,338.6,375.3,333.3,378.8z"></path></g>
			</g>
			<g>
				<g id="change2_48"><path fill="#3F4651" d="M348.1,409.8c-0.5,0-0.9-0.2-1.2-0.6l-18.2-29.3c-0.3-0.5-0.3-1.1,0.1-1.6c0.4-0.4,0.9-0.6,1.5-0.4
					l6.7,2.2c4.1,1.3,9.4,2.4,15.1,3.5c6.9,1.3,12.2,2.1,15.9,2.2l7.5,0.5c0.5,0,1,0.4,1.2,0.9s0,1.1-0.4,1.5l-4,3.6
					c-2,2-4.8,4.1-7.8,6.3l-1.6,1.2c-1.3,0.9-2.5,1.8-3.7,2.7c-2.2,1.6-4.2,3.2-6.1,4.3l-4.6,2.8
					C348.6,409.7,348.3,409.8,348.1,409.8z M333.1,381.7l15.4,24.9l3.4-2.1c1.7-1,3.7-2.5,5.8-4.1c1.2-0.9,2.4-1.9,3.7-2.8l1.6-1.2
					c2.9-2.2,5.6-4.2,7.5-6.1l1.6-1.5l-4.3-0.3c-3.8-0.2-9.3-0.9-16.3-2.3c-5.7-1.1-11.1-2.2-15.4-3.6L333.1,381.7z"></path></g>
			</g>
			<g>
				<g id="change2_49"><path fill="#3F4651" d="M366.2,439.1c-0.5,0-0.9-0.2-1.2-0.6l-18.2-29.3c-0.2-0.3-0.3-0.7-0.2-1c0.1-0.4,0.3-0.7,0.6-0.9
					l4.6-2.8c1.7-1,3.7-2.5,5.8-4.1c1.2-0.9,2.4-1.9,3.7-2.8l1.6-1.2c2.9-2.2,5.7-4.2,7.5-6.1l4-3.7c0.4-0.4,1-0.5,1.5-0.2
					c0.5,0.2,0.8,0.8,0.8,1.3l-0.5,7.7c-0.2,4.2-1,9.7-2.4,17.2c-1.2,6-2.5,12.8-4,17.6l-2.5,7.8c-0.2,0.5-0.6,0.9-1.1,0.9
					C366.3,439,366.3,439.1,366.2,439.1z M350,408.9l15.8,25.5l1.6-5c1.4-4.6,2.7-11.4,3.9-17.3c1.4-7.4,2.1-12.8,2.3-16.8l0.3-4.3
					l-1.5,1.3c-2,2-4.8,4.1-7.8,6.3l-1.6,1.2c-1.3,0.9-2.5,1.8-3.7,2.7c-2.2,1.6-4.2,3.2-6.1,4.3L350,408.9z"></path></g>
			</g>
			<g>
				<g id="change2_50"><path fill="#3F4651" d="M366.2,439.1c-0.3,0-0.6-0.1-0.8-0.3c-0.4-0.4-0.6-0.9-0.5-1.5l2.5-7.8c1.4-4.6,2.7-11.4,3.9-17.3
					c1.4-7.4,2.1-12.8,2.3-16.8l0.5-7.7c0-0.6,0.4-1,0.9-1.2s1.1,0,1.5,0.4l23.2,25.4c0.2,0.3,0.4,0.6,0.4,1s-0.2,0.7-0.4,1
					l-4.7,4.3c-2.5,2.4-6,5.1-9.8,7.9l-1.3,1c-1.4,1-2.7,2-4,3c-2.7,2-5.2,4-7.5,5.3l-5.4,3.3C366.7,439,366.5,439.1,366.2,439.1z
					 M376.7,391l-0.3,4.5c-0.2,4.2-1,9.7-2.4,17.2c-1.2,6-2.5,12.8-4,17.6l-1.4,4.3l2.3-1.4c2.2-1.3,4.6-3.2,7.3-5.2
					c1.3-1,2.6-2,4-3l1.3-1c3.7-2.7,7.1-5.3,9.5-7.7l3.7-3.4L376.7,391z"></path></g>
			</g>
		</g>
		<g>
			<g>
				<g id="change2_51"><path fill="#3F4651" d="M348.1,409.8c-0.1,0-0.2,0-0.3,0l-7.3-1.9c-2.2-0.6-4.7-1.3-7.3-2.1c-2.7-1-5.6-2-8.3-3.1
					c-5.2-2.1-10.4-4.3-14.4-6.3l-6.3-3.5c-0.5-0.3-0.7-0.8-0.7-1.3s0.4-1,0.9-1.2l4.1-1.5l13.2-6.4l7.5-4.6
					c0.6-0.4,1.5-0.2,1.9,0.4l18,29c0.3,0.3,0.5,0.6,0.5,1C349.5,409.2,348.9,409.7,348.1,409.8L348.1,409.8z M308.2,392l3.6,2
					c3.8,1.9,9,4.1,14.1,6.2c2.7,1.1,5.5,2.1,8.1,3.1c2.5,0.8,5,1.5,7.1,2l4,1L329.5,381l-6.4,3.9L308.2,392z"></path></g>
			</g>
			<g>
				<g id="change2_52"><path fill="#3F4651" d="M329.8,457.3c-0.6,0-1.1-0.3-1.3-0.9L316,424.3c-0.2-0.5-0.1-1.1,0.3-1.5s1-0.5,1.5-0.3l7.1,3.1
					c4.5,1.7,10.4,3.6,16.1,5.3c3.1,0.9,6.2,1.8,9.2,2.5l8,1.6l8.1,1.3c0.6,0.1,1,0.5,1.1,1.1s-0.1,1.1-0.6,1.4l-11.1,6.7l-19.5,9.4
					l-6.1,2.3C330.1,457.2,329.9,457.3,329.8,457.3z M319.8,426.3l10.8,27.8l4.7-1.8l19.3-9.3l7.8-4.7l-4.5-0.7l-8.1-1.6
					c-3.1-0.8-6.3-1.7-9.4-2.6c-5.8-1.7-11.8-3.7-16.4-5.4L319.8,426.3z"></path></g>
			</g>
			<g>
				<g>
					<g id="change2_53"><path fill="#3F4651" d="M366.2,439.1c-0.1,0-0.1,0-0.2,0l-8.2-1.3l-8.1-1.6c-3.1-0.8-6.3-1.7-9.4-2.6
						c-5.8-1.7-11.8-3.7-16.4-5.4l-7.2-3.1c-0.3-0.1-0.6-0.4-0.7-0.8l-12.4-32.1c-0.2-0.5-0.1-1.2,0.4-1.5c0.4-0.4,1.1-0.4,1.6-0.2
						l6.2,3.5c3.8,1.9,9,4.1,14.1,6.2c2.7,1.1,5.5,2.1,8.1,3.1c2.5,0.8,5,1.5,7.1,2l7.3,1.9c0.3,0.1,0.6,0.3,0.8,0.6l18,29
						c0.3,0.3,0.5,0.6,0.5,1C367.7,438.4,367.1,439.1,366.2,439.1C366.3,439,366.2,439.1,366.2,439.1z M318.4,422.8l6.6,2.9
						c4.5,1.7,10.4,3.6,16.1,5.3c3.1,0.9,6.2,1.8,9.2,2.5l13.2,2.4l-16.3-26.2l-6.8-1.7c-2.2-0.6-4.7-1.3-7.3-2.1
						c-2.7-1-5.6-2-8.3-3.1c-5.2-2.1-10.4-4.3-14.4-6.3l-3-1.7L318.4,422.8z"></path></g>
				</g>
			</g>
			<g>
				<g id="change2_54"><path fill="#3F4651" d="M317.3,425.2c-0.2,0-0.4,0-0.6-0.1l-6.9-3.2c-3.9-1.9-9.2-4.5-14.3-8c-5.9-3.8-10.7-7.2-13-8.9
					c-1.4-1-2.7-2.1-4.1-3.2l-1.5-1.3c-0.5-0.5-0.6-1.3-0.2-1.8s0.9-0.6,1.4-0.6c0.6-0.1,2-0.2,3.6-0.7l9.4-2.4
					c2.7-0.5,5.1-1.5,7.3-2.3l5.8-2.1c0.7-0.3,1.5,0.1,1.8,0.8l12.3,31.7c0.2,0.2,0.3,0.5,0.3,0.9
					C318.8,424.5,318.1,425.2,317.3,425.2C317.4,425.2,317.3,425.2,317.3,425.2z M281.1,400.3c1,0.9,2.1,1.7,3.1,2.4
					c3.9,2.9,8.6,6.1,12.8,8.8c5,3.4,10.2,5.9,14,7.8l3.7,1.8L304,393.4l-4.5,1.7c-2.2,0.8-4.9,1.8-7.7,2.4l-9.3,2.4
					C282.1,400.1,281.6,400.2,281.1,400.3z"></path></g>
			</g>
			<g>
				<g id="change2_55"><path fill="#3F4651" d="M284.3,434.6c-0.7,0-1.2-0.5-1.3-1.1l-6.3-33.9c-0.1-0.6,0.2-1.2,0.7-1.4c0.5-0.3,1.1-0.2,1.6,0.2
					l1.5,1.3c1.3,1.1,2.6,2.2,3.9,3.1c3.9,2.9,8.6,6.1,12.8,8.8c5,3.4,10.2,5.9,14,7.8l6.8,3.2c0.5,0.2,0.8,0.7,0.8,1.3
					c0,0.6-0.4,1-0.9,1.2l-6.9,2.5c-2.7,1-6.1,2.3-9.6,3l-11.4,2.9c-1.3,0.4-2.6,0.6-4,0.8l-1.4,0.2
					C284.4,434.6,284.3,434.6,284.3,434.6z M280,403l5.3,28.7h0.1c1.3-0.2,2.5-0.4,3.6-0.7l11.5-3c3.4-0.7,6.5-1.9,9.3-2.9l3.8-1.4
					l-3.9-1.8c-3.9-1.9-9.2-4.5-14.3-8c-5.9-3.8-10.7-7.2-13-8.9C281.7,404.3,280.9,403.7,280,403z"></path></g>
			</g>
			<g>
				<g id="change2_56"><path fill="#3F4651" d="M290.5,468.5c-0.1,0-0.2,0-0.4,0c-0.5-0.1-0.9-0.6-1-1.1l-6.3-33.9c-0.1-0.4,0-0.7,0.2-1
					s0.5-0.5,0.9-0.6l1.5-0.2c1.3-0.2,2.5-0.4,3.6-0.7l11.5-3c3.4-0.7,6.5-1.9,9.3-2.9l6.9-2.5c0.5-0.2,1.1,0,1.5,0.4s0.5,1,0.2,1.5
					l-3.3,6.9c-1.8,3.7-4.9,9.9-8.5,15.3c-3,4.7-6.7,10.1-10.1,14.8c-1.2,1.7-2.4,3.3-3.7,4.8l-1.4,1.7
					C291.3,468.3,290.9,468.5,290.5,468.5z M285.9,434.4l5.5,29.6c1.1-1.3,2.2-2.7,3.2-4.2c3.4-4.7,7-10,10-14.7
					c3.5-5.2,6.5-11.3,8.3-15l1.8-3.9l-3.7,1.4c-2.7,1-6.1,2.3-9.6,3l-11.4,2.9C288.6,433.9,287.3,434.2,285.9,434.4L285.9,434.4z"></path></g>
			</g>
			<g>
				<g id="change2_57"><path fill="#3F4651" d="M290.5,468.5c-0.5,0-0.9-0.3-1.2-0.7c-0.3-0.5-0.2-1.1,0.1-1.6l1.4-1.7c1.3-1.5,2.5-3,3.6-4.6
					c3.4-4.7,7-10,10-14.7c3.5-5.2,6.5-11.3,8.3-15l3.2-6.9c0.2-0.5,0.7-0.7,1.3-0.8c0.5,0,1,0.4,1.2,0.9l12.4,32.1
					c0.1,0.3,0.1,0.7,0,1.1c-0.1,0.3-0.4,0.6-0.8,0.7l-7.9,2.9c-3.3,1.2-7.4,2.7-11.6,3.7l-13.6,3.5c-1.5,0.4-3,0.7-4.7,1l-1.7,0.3
					C290.7,468.4,290.6,468.5,290.5,468.5z M317.2,427.3l-1.9,4c-1.8,3.7-4.9,9.9-8.5,15.3c-3,4.7-6.7,10.1-10.1,14.8
					c-0.9,1.3-1.8,2.5-2.8,3.7c0.8-0.2,1.7-0.4,2.5-0.6L310,461c4.1-0.9,8.1-2.4,11.3-3.6l6.6-2.4L317.2,427.3z"></path></g>
			</g>
		</g>
		<g>
			<g>
				<g id="change2_58"><path fill="#3F4651" d="M284.3,434.6c-0.3,0-0.6-0.1-0.8-0.3l-7.8-5.7c-3.4-2.6-7.3-5.6-11-9.1C256,411.3,249,403.1,249,403
					c-0.3-0.4-0.4-0.9-0.2-1.4s0.7-0.8,1.2-0.8l14-0.8c2.1-0.1,4.3-0.5,6.2-0.8c1.2-0.2,2.3-0.4,3.3-0.5l4.3-0.6
					c0.7-0.1,1.4,0.4,1.5,1.1l6.2,33.4c0.1,0.2,0.2,0.4,0.2,0.7C285.7,434,285.1,434.6,284.3,434.6L284.3,434.6z M252.9,403.3
					c2.6,3,7.8,8.6,13.7,14.2c3.6,3.4,7.4,6.3,10.8,8.9l4.9,3.7l-5.4-29.2l-3,0.4c-1,0.1-2,0.3-3.2,0.5c-2,0.3-4.2,0.7-6.5,0.9
					L252.9,403.3z"></path></g>
			</g>
			<g>
				<g id="change2_59"><path fill="#3F4651" d="M250,472.3c-0.4,0-0.7-0.1-0.9-0.4c-0.3-0.3-0.4-0.6-0.4-1v-34.4c0-0.6,0.3-1,0.8-1.3
					c0.5-0.2,1.1-0.1,1.5,0.3c0.1,0.1,8.6,8.2,18.7,16.2c4.2,3.3,8.6,6.1,12.5,8.6l2,1.3l7.1,4.3c0.5,0.3,0.7,0.9,0.6,1.4
					c-0.1,0.6-0.6,1-1.1,1.1l-6.3,1c-1.3,0.2-2.6,0.4-4,0.6c-3,0.5-6.5,1-10,1.3L250,472.3L250,472.3z M251.4,439.7v29.8l18.9-0.9
					c3.3-0.2,6.7-0.8,9.7-1.2c1.5-0.2,2.8-0.4,4.1-0.6l2.6-0.4l-5.9-3.7c-3.9-2.5-8.4-5.4-12.8-8.8
					C260.9,448.3,254.6,442.7,251.4,439.7z"></path></g>
			</g>
			<g>
				<g>
					<g id="change2_60"><path fill="#3F4651" d="M290.6,468.5L290.6,468.5c-0.3,0-0.6-0.1-0.8-0.2l-9.1-5.6c-3.9-2.5-8.4-5.4-12.8-8.8
						c-10.2-8-18.8-16.3-18.9-16.4c-0.3-0.3-0.4-0.6-0.4-1v-34.4c0-0.6,0.4-1.1,0.9-1.3c0.5-0.2,1.1,0,1.5,0.4
						c0.1,0.1,7,8.2,15.5,16.3c3.6,3.4,7.4,6.3,10.8,8.9l1.6,1.2l6.1,4.5c0.3,0.2,0.5,0.5,0.5,0.9l6.2,33.4c0.1,0.2,0.2,0.4,0.2,0.7
						C292,467.8,291.4,468.5,290.6,468.5z M251.4,435.9c1.8,1.7,9.4,8.9,18.3,15.8c4.2,3.3,8.6,6.1,12.5,8.6l6.5,4L283,434l-7.3-5.4
						c-3.4-2.6-7.3-5.6-11-9.1c-5.6-5.3-10.5-10.6-13.3-13.8L251.4,435.9L251.4,435.9z"></path></g>
				</g>
			</g>
			<g>
				<g id="change2_61"><path fill="#3F4651" d="M250,437.9c-0.4,0-0.7-0.1-1-0.4c-0.1-0.1-8.8-9.2-15.7-18.1c-3.2-4.1-6-8.6-8.1-12l-0.8-1.3l-3.5-6
					c-0.3-0.5-0.2-1,0-1.5c0.3-0.4,0.8-0.7,1.3-0.6l4.3,0.6c0.9,0.1,2,0.3,3.2,0.5c1.9,0.3,4.1,0.7,6.2,0.8l14.1,0.7
					c0.7,0,1.3,0.6,1.3,1.4v34.4c0,0.6-0.3,1.1-0.9,1.3C250.3,437.9,250.2,437.9,250,437.9z M224.7,401.2l2.9,4.8
					c2.2,3.5,4.9,7.8,7.9,11.7c4.7,6,10.1,12.1,13.2,15.4v-29.7l-12.8-0.7c-2.3-0.1-4.6-0.5-6.5-0.9c-1.1-0.2-2.2-0.4-3.1-0.5
					L224.7,401.2z"></path></g>
			</g>
			<g>
				<g id="change2_62"><path fill="#3F4651" d="M250.1,437.9C250,437.9,250,437.9,250.1,437.9c-0.1,0-0.1,0-0.1,0l-17.2-0.9c-2.9-0.2-5.7-0.6-8.2-1.1
					c-1.3-0.2-2.5-0.4-3.6-0.6l-5.4-0.8c-0.4-0.1-0.7-0.3-0.9-0.6c-0.2-0.3-0.3-0.7-0.2-1l6.3-33.9c0.1-0.6,0.6-1,1.1-1.1
					c0.6-0.1,1.1,0.2,1.4,0.7l4.3,7.2c2.2,3.5,4.9,7.8,7.9,11.7c6.2,8,13.9,16.2,15.3,17.7c0.4,0.2,0.7,0.7,0.7,1.2
					C251.4,437.3,250.8,437.9,250.1,437.9z M217.3,432.1l3.9,0.6c1.1,0.1,2.4,0.3,3.7,0.6c2.4,0.4,5.2,0.9,7.9,1l13.8,0.7
					c-3.1-3.3-8.7-9.5-13.4-15.6c-3.2-4.1-6-8.6-8.1-12l-2.5-4.1L217.3,432.1z"></path></g>
			</g>
			<g>
				<g id="change2_63"><path fill="#3F4651" d="M209.4,468.5c-0.3,0-0.5-0.1-0.8-0.2c-0.4-0.3-0.7-0.9-0.6-1.4l6.3-33.9c0.1-0.7,0.9-1.2,1.6-1.1
					l5.3,0.8c1.1,0.1,2.4,0.3,3.7,0.6c2.4,0.4,5.2,0.9,7.9,1l17.2,0.9c0.5,0,1,0.4,1.2,0.9s0.1,1.1-0.3,1.5
					c-0.1,0.1-8.7,8.3-18.9,16.4c-4.4,3.4-8.8,6.3-12.8,8.8l-2,1.3l-7.2,4.4C209.9,468.4,209.7,468.5,209.4,468.5z M216.8,434.8
					l-5.5,29.5l6.5-4c3.9-2.5,8.3-5.3,12.5-8.6c6.9-5.5,13.1-11,16.3-14l-14-0.7c-2.9-0.2-5.7-0.6-8.2-1.1c-1.3-0.2-2.5-0.4-3.6-0.6
					L216.8,434.8z"></path></g>
			</g>
			<g>
				<g id="change2_64"><path fill="#3F4651" d="M250,472.3L250,472.3l-20.4-1c-3.5-0.2-7-0.8-10-1.3c-1.4-0.2-2.8-0.4-4-0.6l-6.3-1
					c-0.6-0.1-1-0.5-1.1-1.1s0.1-1.1,0.6-1.4l9.1-5.6c3.9-2.5,8.3-5.3,12.5-8.6c10.1-7.9,18.6-16.1,18.7-16.2c0.4-0.4,1-0.5,1.5-0.3
					s0.8,0.7,0.8,1.3v34.4c0,0.4-0.2,0.7-0.4,1C250.7,472.2,250.3,472.3,250,472.3z M213.4,466.3l2.6,0.4c1.2,0.2,2.6,0.4,4,0.6
					c3,0.5,6.4,1,9.7,1.2l18.9,0.9v-29.8c-3.2,3-9.5,8.6-16.6,14.2c-4.4,3.4-8.8,6.3-12.8,8.8L213.4,466.3z"></path></g>
			</g>
		</g>
		<g>
			<g>
				<g id="change2_65"><path fill="#3F4651" d="M215.7,434.6c-0.4,0-0.9-0.2-1.1-0.6l-1.2-1.7c-1.1-1.5-2.1-3-3-4.7c-2.7-4.5-5.6-9.7-7.9-14.3
					c-2.8-5.2-5.1-11.3-6.3-14.6l-2.3-6.6c-0.2-0.5-0.1-1.1,0.3-1.4c0.4-0.4,0.9-0.5,1.4-0.3l5.8,2.1c2.2,0.8,4.7,1.8,7.3,2.3
					l9.4,2.4c1.7,0.5,3,0.6,3.7,0.7c0.5,0.1,1,0.1,1.4,0.6c0.2,0.3,0.3,0.7,0.3,1.1l-6.3,33.9c-0.1,0.5-0.5,1-1.1,1.1
					C215.9,434.6,215.8,434.6,215.7,434.6z M197.4,394l1.4,3.8c1.2,3.2,3.4,9.2,6.2,14.3c2.3,4.6,5.2,9.7,7.9,14.2
					c0.7,1.2,1.5,2.4,2.2,3.5l5.4-29.2c-0.9-0.1-1.9-0.3-3.1-0.7l-9.3-2.4c-2.8-0.5-5.5-1.6-7.6-2.4L197.4,394z"></path></g>
			</g>
			<g>
				<g id="change2_66"><path fill="#3F4651" d="M209.4,468.5c-0.1,0-0.1,0-0.2,0l-1.7-0.3c-1.6-0.2-3.2-0.5-4.7-1l-13.6-3.5c-4.2-0.9-8.3-2.4-11.5-3.6
					l-7.9-2.9c-0.3-0.1-0.6-0.4-0.8-0.7c-0.2-0.3-0.2-0.7,0-1.1l12.4-32.1c0.2-0.5,0.7-0.9,1.2-0.9c0.6,0,1.1,0.3,1.3,0.8l3.3,6.9
					c1.9,3.9,4.8,9.8,8.3,14.9c3,4.7,6.6,10.1,10,14.7c1.2,1.7,2.4,3.2,3.6,4.6l1.2,1.5c0.4,0.2,0.6,0.7,0.6,1.1
					C210.9,467.8,210.3,468.5,209.4,468.5C209.5,468.5,209.5,468.5,209.4,468.5z M172,455.1l6.6,2.4c3.2,1.2,7.2,2.6,11.2,3.5
					l13.6,3.5c0.8,0.2,1.7,0.4,2.5,0.6c-1-1.2-1.9-2.4-2.8-3.7c-3.4-4.7-7.1-10.1-10.1-14.8c-3.5-5.3-6.5-11.3-8.4-15.3l-1.9-4
					L172,455.1z"></path></g>
			</g>
			<g>
				<g>
					<g id="change2_67"><path fill="#3F4651" d="M209.4,468.5c-0.4,0-0.8-0.2-1-0.5l-1.5-1.7c-1.3-1.5-2.5-3.1-3.7-4.8c-3.4-4.7-7.1-10.1-10.1-14.8
						c-3.5-5.3-6.5-11.3-8.4-15.3l-3.3-6.9c-0.2-0.3-0.2-0.7,0-1.1l12.4-32.1c0.2-0.5,0.7-0.9,1.3-0.9l0,0c0.6,0,1.1,0.4,1.3,0.9
						l2.3,6.6c1.2,3.2,3.4,9.2,6.2,14.3c2.3,4.6,5.2,9.7,7.9,14.2c0.9,1.6,1.9,3.1,2.9,4.5l1.2,1.7c0.2,0.3,0.3,0.7,0.2,1l-6.3,33.9
						c-0.1,0.5-0.5,0.9-1,1.1C209.7,468.4,209.6,468.5,209.4,468.5z M184.2,423.7l3,6.4c1.9,3.9,4.8,9.8,8.3,14.9
						c3,4.7,6.6,10.1,10,14.7c1,1.5,2.1,2.9,3.2,4.2l5.7-30.4l-0.9-1.2c-1.1-1.5-2.1-3-3-4.7c-2.7-4.5-5.6-9.7-7.9-14.3
						c-2.8-5.2-5.1-11.3-6.3-14.6l-1.1-3.1L184.2,423.7z"></path></g>
				</g>
			</g>
			<g>
				<g id="change2_68"><path fill="#3F4651" d="M182.7,425.2c-0.5,0-1-0.3-1.3-0.8l-3-6.8c-1.7-4.5-3.6-10.4-5.1-15.7c-0.8-2.8-1.5-5.5-2.2-8.1
					c-0.6-2.7-1-5.3-1.4-7.4l-1-7c-0.1-0.5,0.2-1,0.6-1.3c0.4-0.3,1-0.3,1.5,0l7.6,4.6l13.2,6.3l4,1.4c0.3,0.1,0.6,0.4,0.8,0.7
					c0.2,0.3,0.2,0.7,0,1.1L184,424.3C183.7,424.8,183.3,425.1,182.7,425.2L182.7,425.2z M171.9,381.9l0.6,4
					c0.3,2.1,0.8,4.5,1.3,7.2c0.6,2.5,1.3,5.2,2.1,7.9c1.5,5.3,3.4,11.1,5.1,15.5l1.6,3.7l10.7-27.7l-2.8-1L177,385L171.9,381.9z"></path></g>
			</g>
			<g>
				<g id="change2_69"><path fill="#3F4651" d="M182.7,425.2c-0.2,0-0.3,0-0.5-0.1l-5.1-1.9l-16.5-7.9l-9.4-5.7c-0.3-0.2-0.5-0.5-0.6-0.9s0-0.7,0.2-1
					l18.2-29.3c0.3-0.5,0.8-0.7,1.4-0.6c0.6,0.1,1,0.6,1.1,1.1l1,6.9c0.3,2.1,0.8,4.5,1.3,7.2c0.6,2.5,1.3,5.2,2.1,7.9
					c1.5,5.3,3.4,11.1,5.1,15.5l2.8,6.4c0.2,0.2,0.3,0.6,0.3,0.9C184.1,424.6,183.5,425,182.7,425.2L182.7,425.2z M153.8,408
					l8.1,4.9l16.3,7.8l1.9,0.7l-1.7-3.9c-1.7-4.5-3.6-10.4-5.1-15.7c-0.8-2.8-1.5-5.5-2.2-8.1c-0.6-2.7-1-5.3-1.4-7.4l-0.5-3.3
					L153.8,408z"></path></g>
			</g>
			<g>
				<g id="change2_70"><path fill="#3F4651" d="M133.8,439.1c-0.5,0-0.9-0.2-1.1-0.6c-0.3-0.4-0.3-1,0-1.5l18.2-29.3c0.4-0.6,1.2-0.8,1.9-0.4l9.3,5.6
					l16.3,7.8l4.9,1.8c0.5,0.2,0.9,0.7,0.9,1.2c0,0.6-0.3,1.1-0.8,1.3l-7.1,3.1c-4.6,1.7-10.6,3.7-16.4,5.4
					c-3.1,0.9-6.3,1.8-9.3,2.5l-8.2,1.6L134,439C133.9,439,133.8,439.1,133.8,439.1z M152.4,410.3l-15.8,25.5l13.2-2.4
					c2.9-0.7,6-1.6,9.1-2.5c5.8-1.7,11.7-3.6,16.2-5.3l3.9-1.7l-1.8-0.7l-16.5-7.9L152.4,410.3z"></path></g>
			</g>
			<g>
				<g id="change2_71"><path fill="#3F4651" d="M170.2,457.3c-0.2,0-0.3,0-0.5-0.1l-6-2.2l-19.5-9.4l-11.2-6.7c-0.5-0.3-0.7-0.9-0.6-1.4
					c0.1-0.6,0.6-1,1.1-1.1l16.2-2.9c2.9-0.7,6-1.6,9.1-2.5c5.8-1.7,11.7-3.6,16.2-5.3l7.1-3.1c0.5-0.2,1.1-0.1,1.5,0.3
					s0.5,1,0.3,1.5l-12.4,32.1C171.3,456.9,170.8,457.3,170.2,457.3z M137.6,438.4l9.4,5.5l17.8,8.5l4.6,1.7l10.8-27.8l-4.1,1.8
					c-4.6,1.7-10.6,3.7-16.4,5.4c-3.1,0.9-6.3,1.8-9.3,2.5L137.6,438.4z"></path></g>
			</g>
		</g>
		<g>
			<g>
				<g id="change2_72"><path fill="#3F4651" d="M151.9,409.8c-0.1,0-0.1,0-0.2,0c-0.5-0.1-1-0.5-1.1-1l-1.6-7.3c-0.9-4.3-1.6-10.4-2.2-16.3
					c-0.6-6.9-0.9-12-0.7-15.9l0.3-7l0,0l0,0l0,0c0-0.3,0.1-0.6,0.3-0.8c0.4-0.4,1-0.6,1.5-0.4c0.4,0.2,0.7,0.5,0.8,0.9
					c1.5,1.7,18.6,14.7,21.1,15.9c0.2,0,0.5,0.1,0.7,0.2c0.6,0.4,0.8,1.2,0.4,1.9L153,409.3C152.8,409.6,152.4,409.8,151.9,409.8z
					 M148.9,365.3l-0.1,4c-0.2,3.8,0,8.7,0.7,15.5c0.6,5.8,1.2,11.9,2.1,16l0.9,4l15.6-25.2C163.8,377.1,153.7,369.5,148.9,365.3z"></path></g>
			</g>
			<g>
				<g id="change2_73"><path fill="#3F4651" d="M133.8,439.1L133.8,439.1c-0.3,0-0.6-0.1-0.8-0.2l-5.4-3.3c-2.2-1.3-4.8-3.3-7.4-5.3c-1.3-1-2.6-2-4-3
					l-1.4-1c-3.7-2.8-7.2-5.4-9.7-7.9l-4.7-4.2c-0.3-0.2-0.4-0.6-0.4-1s0.1-0.7,0.4-1l23.2-25.4c0.4-0.4,0.9-0.6,1.5-0.4
					c0.5,0.2,0.9,0.7,0.9,1.2l0.5,7.7c0.2,4.1,1,9.4,2.4,16.9c1.2,6,2.5,12.7,3.9,17.3l2.4,7.4c0.2,0.2,0.3,0.5,0.3,0.8
					C135.2,438.4,134.6,439.1,133.8,439.1z M103.2,413l3.7,3.4c2.4,2.4,5.9,4.9,9.5,7.7l1.3,1c1.4,1,2.7,2,4,3
					c2.6,2,5.1,3.8,7.2,5.1l2.3,1.4l-1.4-4.3c-1.5-4.7-2.8-11.6-4-17.6c-1.4-7.6-2.2-13-2.4-17.2l-0.3-4.5L103.2,413z"></path></g>
			</g>
			<g>
				<g>
					<g id="change2_74"><path fill="#3F4651" d="M133.8,439.1c-0.1,0-0.1,0-0.2,0c-0.5-0.1-1-0.4-1.1-0.9l-2.5-7.8c-1.5-4.7-2.8-11.6-4-17.6
						c-1.4-7.6-2.2-13-2.4-17.2l-0.5-7.7c0-0.4,0.1-0.7,0.4-1l23.2-25.4c0.4-0.4,1-0.6,1.5-0.3c0.5,0.2,0.9,0.7,0.9,1.3l-0.3,7
						c-0.2,3.8,0,8.7,0.7,15.5c0.6,5.8,1.2,11.9,2.1,16l1.6,7.3c0.1,0.3,0,0.7-0.2,1l-18.2,29.3
						C134.7,438.8,134.2,439.1,133.8,439.1z M125.9,388.2l0.4,7.1c0.2,4.1,1,9.4,2.4,16.9c1.2,6,2.5,12.7,3.9,17.3l1.6,5l16.3-26.2
						l-1.5-6.7c-0.9-4.3-1.6-10.4-2.2-16.3c-0.6-6.9-0.9-12-0.7-15.9l0.1-3.3L125.9,388.2z"></path></g>
				</g>
			</g>
			<g>
				<g id="change2_75"><path fill="#3F4651" d="M124.5,389.1c-0.2,0-0.3,0-0.5-0.1c-0.5-0.2-0.9-0.7-0.9-1.2l-0.2-7.5c-0.2-4.5,0.3-10.8,0.8-16.4
					c0.8-11.4,3.8-22.5,3.8-22.6c0.1-0.5,0.6-0.9,1.1-1c0.6-0.1,1.1,0.1,1.4,0.6c0,0.1,4,5.8,8.8,10.6c0.8,0.8,1.5,1.7,2.3,2.5
					c1.5,1.7,2.9,3.3,4.3,4.4l3.3,3c0.3,0.2,0.4,0.6,0.4,1s-0.1,0.7-0.4,1l-23.2,25.4C125.2,388.9,124.9,389.1,124.5,389.1z
					 M129.4,344.7c-0.9,4-2.5,11.6-3,19.3c-0.5,5.6-1,11.8-0.8,16.1l0.1,4.1l20-21.9l-2.2-2c-1.5-1.1-3-2.8-4.6-4.6
					c-0.7-0.8-1.4-1.6-2.2-2.4C133.7,350.2,131.1,346.9,129.4,344.7z"></path></g>
			</g>
			<g>
				<g id="change2_76"><path fill="#3F4651" d="M124.5,389.1c-0.3,0-0.7-0.1-0.9-0.4l-4-3.6c-1.8-1.5-3.7-3.6-5.8-5.9c-0.8-0.9-1.6-1.8-2.5-2.7
					c-6-6.2-10.9-13.1-11.1-13.4c-0.4-0.6-0.3-1.4,0.3-1.9l27.5-20.8c0.5-0.4,1.1-0.4,1.6,0c0.5,0.3,0.7,0.9,0.6,1.5
					c0,0.1-2.9,11-3.7,22.1c-0.5,5.6-1,11.8-0.8,16.1l0.2,7.1c0.1,0.1,0.1,0.3,0.1,0.5C125.9,388.4,125.4,389.1,124.5,389.1
					L124.5,389.1z M103.2,362.6c1.6,2.2,5.6,7.4,10.1,12c0.9,0.9,1.7,1.9,2.5,2.8c2,2.2,3.8,4.3,5.5,5.6l1.6,1.5l-0.1-4.3
					c-0.2-4.5,0.3-10.8,0.8-16.4c0.5-7.4,1.9-14.7,2.9-18.9L103.2,362.6z"></path></g>
			</g>
			<g>
				<g id="change2_77"><path fill="#3F4651" d="M114.3,389.4c-4.2,0-9-0.4-14.8-0.9c-12.8-0.9-25.8-4.1-26-4.1c-0.5-0.1-0.9-0.5-1-1.1
					c-0.1-0.5,0.1-1,0.5-1.4l27.5-20.8c0.3-0.2,0.6-0.3,1-0.3c0.4,0.1,0.7,0.3,0.9,0.6c0,0.1,5,7,10.9,13.1c0.9,0.9,1.7,1.9,2.5,2.8
					c2,2.2,3.8,4.3,5.5,5.6l4,3.7c0.4,0.4,0.6,1,0.4,1.5s-0.7,0.9-1.2,0.9l-7.7,0.2C116,389.3,115.2,389.4,114.3,389.4z M77,382.4
					c4.5,1,13.6,2.8,22.7,3.4c6.9,0.6,12.4,1,17,0.8l4.4-0.1l-1.5-1.3c-1.8-1.5-3.7-3.6-5.8-5.9c-0.8-0.9-1.6-1.8-2.5-2.7
					c-4.7-4.7-8.6-10-10.3-12.2L77,382.4z"></path></g>
			</g>
			<g>
				<g id="change2_78"><path fill="#3F4651" d="M101.3,414.5c-0.3,0-0.7-0.1-0.9-0.4l-4.7-4.3c-2.2-1.8-4.5-4.4-7-7.2c-0.9-1-1.8-2-2.7-3
					c-7.1-7.3-13.1-15.7-13.1-15.8c-0.3-0.5-0.3-1.1,0-1.6s0.9-0.7,1.5-0.6c0.1,0,12.9,3.2,25.5,4c5.8,0.5,10.5,0.9,14.6,0.9l0,0
					c0.8,0,1.6,0,2.4-0.1l7.7-0.2c0.5,0,1.1,0.3,1.3,0.8c0.2,0.5,0.1,1.1-0.2,1.5L102.3,414C102,414.3,101.7,414.5,101.3,414.5
					L101.3,414.5z M77.2,385.2c2.3,3.1,6.3,8,10.7,12.6c1,1,1.9,2,2.8,3c2.4,2.7,4.7,5.2,6.8,7l3.7,3.4l20.1-22l-4.5,0.1
					c-0.8,0-1.6,0.1-2.5,0.1l0,0c-4.2,0-9-0.4-14.8-0.9C90.7,387.9,81.9,386.2,77.2,385.2z"></path></g>
			</g>
		</g>
		<g>
			<g>
				<g id="change2_79"><path fill="#3F4651" d="M101.3,363.6c-0.2,0-0.5-0.1-0.7-0.2c-0.5-0.3-0.7-0.8-0.7-1.4l1.2-7.4c0.6-4.2,2-10,3.8-16
					c2-6.9,3.6-11.5,5-14.9l2.8-6.5l0,0c0,0,0,0,0-0.1l0,0c0.1-0.3,0.3-0.5,0.6-0.7c0.5-0.3,1.2-0.2,1.6,0.2
					c0.3,0.3,0.5,0.8,0.4,1.2c0.8,2.3,12.3,20.4,14.1,22.4c0.2,0.1,0.3,0.2,0.4,0.4c0.4,0.6,0.3,1.5-0.3,1.9L102,363.3
					C101.9,363.6,101.6,363.6,101.3,363.6z M114,321.1l-1.6,3.6c-1.3,3.3-2.9,7.9-4.9,14.7c-1.8,5.9-3.1,11.6-3.7,15.6l-0.6,4.1
					l23.6-17.9C124.3,337.8,117.1,326.9,114,321.1z"></path></g>
			</g>
			<g>
				<g id="change2_80"><path fill="#3F4651" d="M73.9,384.4c-0.4,0-0.8-0.2-1.1-0.6l-3.8-5.1c-2.1-2.6-4.6-6.3-7.8-11.8c-0.8-1.4-1.7-2.7-2.5-4.1
					c-1.8-2.9-3.5-5.7-4.7-8.1l-2.8-5.8c-0.3-0.7-0.1-1.5,0.6-1.8l30.8-15.4c0.5-0.2,1.1-0.2,1.5,0.2c0.4,0.4,0.6,0.9,0.4,1.5
					l-2.4,7.4c-1.4,4.8-2.8,11.3-3.8,16.6c-1.3,6.6-2.2,13-2.5,17.5l-0.6,8.2c0,0.6-0.4,1.1-1,1.2C74.1,384.4,74,384.4,73.9,384.4z
					 M54.2,349.1l2.2,4.5c1.2,2.2,2.8,5,4.6,7.9c0.8,1.3,1.7,2.7,2.5,4.1c3.2,5.4,5.6,9,7.6,11.5l1.6,2.2l0.3-4.5
					c0.3-4.6,1.2-11.1,2.5-17.8c1-5.3,2.4-11.9,3.9-16.8l1.4-4.3L54.2,349.1z"></path></g>
			</g>
			<g>
				<g>
					<g id="change2_81"><path fill="#3F4651" d="M73.9,384.4c-0.2,0-0.4-0.1-0.7-0.2c-0.5-0.3-0.7-0.8-0.7-1.3l0.6-8.2c0.3-4.6,1.2-11.1,2.5-17.8
						c1-5.3,2.4-11.9,3.9-16.8l2.4-7.4c0.1-0.3,0.4-0.6,0.7-0.8l30.8-15.4c0.5-0.3,1.1-0.2,1.6,0.2c0.4,0.4,0.5,1,0.3,1.5l-2.9,6.5
						c-1.3,3.3-2.9,7.9-4.9,14.7c-1.8,5.9-3.1,11.6-3.7,15.6l-1.2,7.4c-0.1,0.4-0.2,0.7-0.5,0.9l-27.5,20.8
						C74.4,384.3,74.2,384.4,73.9,384.4z M84.3,334l-2.2,6.8c-1.4,4.8-2.8,11.3-3.8,16.6c-1.3,6.6-2.2,13-2.5,17.5l-0.4,5.2
						l24.6-18.6l1.1-6.9c0.6-4.2,2-10,3.8-16c2-6.9,3.6-11.5,5-14.9l1.3-3.1L84.3,334z"></path></g>
				</g>
			</g>
			<g>
				<g id="change2_82"><path fill="#3F4651" d="M83.2,334.4c-0.3,0-0.7-0.1-0.9-0.3c-0.4-0.4-0.6-1-0.4-1.5l5.3-14.1c1-2.2,2.1-4.6,3.3-6.8l0.6-1.2
					c3.2-6.2,6.1-11.3,7.6-13.7c2.3-3.6,4-5.9,4.1-6c0.3-0.4,0.9-0.6,1.4-0.5s0.9,0.5,1,1.1c0,0,0.3,1.7,1.1,4.1l3.3,9
					c0.2,0.6,0.5,1.3,0.7,1.9c0.3,1,0.7,1.9,1.1,2.8l3.9,7.9c0.3,0.7,0.1,1.5-0.6,1.8l-30.8,15.4C83.6,334.4,83.4,334.4,83.2,334.4z
					 M103.2,294.8c-0.6,0.9-1.4,2.1-2.2,3.4c-1.5,2.4-4.4,7.4-7.5,13.5l-0.6,1.2c-1.1,2.2-2.3,4.5-3.2,6.6l-4.1,10.8l26.6-13.2
					l-3.3-6.8c-0.5-1-0.8-2.1-1.2-3.1c-0.2-0.6-0.4-1.2-0.7-1.8l-3.3-9.1C103.5,295.8,103.4,295.3,103.2,294.8z"></path></g>
			</g>
			<g>
				<g id="change2_83"><path fill="#3F4651" d="M83.2,334.4c-0.5,0-1-0.3-1.2-0.8l-4.7-9.8c-0.6-1.3-1-2.6-1.5-4c-0.2-0.7-0.5-1.4-0.8-2.1l-4.1-11.1
					c-1-3.2-1.5-5.3-1.5-5.4c-0.2-0.7,0.3-1.4,1-1.6l33.1-9.4c0.6-0.2,1.2,0.1,1.5,0.5c0.3,0.5,0.3,1.1,0,1.6c0,0-1.7,2.3-3.9,5.8
					c-1.5,2.4-4.4,7.4-7.5,13.5l-0.6,1.2c-1.1,2.2-2.3,4.5-3.2,6.6l-2.7,7l-2.5,7.1C84.3,334,83.8,334.4,83.2,334.4L83.2,334.4z
					 M72.4,302c0.2,0.9,0.6,2.2,1.1,3.8l4,11.1c0.3,0.7,0.5,1.4,0.8,2.1c0.5,1.3,0.9,2.5,1.4,3.7l3.3,6.8l4.2-11.1
					c1-2.2,2.1-4.6,3.3-6.8l0.6-1.2c3.2-6.2,6.1-11.3,7.6-13.7c0.7-1,1.3-2,1.8-2.8L72.4,302z"></path></g>
			</g>
			<g>
				<g id="change2_84"><path fill="#3F4651" d="M83.2,334.4c-0.2,0-0.3,0-0.5-0.1l-9.1-3.3l-5.7-2.2c-2.3-1-4.6-2.1-7-3.3l-1.4-0.7
					c-5-2.5-10.8-5.7-15.8-8.6c-4.2-2.6-6.8-4.5-6.9-4.6c-0.4-0.3-0.6-0.8-0.5-1.3s0.5-0.9,1-1.1l33.1-9.4c0.4-0.1,0.7-0.1,1.1,0.1
					c0.3,0.2,0.6,0.5,0.6,0.9c0,0,0.5,2.1,1.4,5.1l4,11.1c0.3,0.7,0.5,1.4,0.8,2.1c0.5,1.3,0.9,2.5,1.4,3.7l4.5,9.4
					c0.2,0.2,0.4,0.6,0.4,0.9C84.6,333.8,84,334.3,83.2,334.4L83.2,334.4z M40.8,310.9c1.1,0.8,2.6,1.7,4.4,2.8
					c4.9,2.9,10.6,6,15.6,8.5l1.4,0.7c2.3,1.2,4.5,2.3,6.8,3.2l11.5,4.4l-3.3-6.8c-0.6-1.3-1-2.6-1.5-4c-0.2-0.7-0.5-1.4-0.8-2.1
					l-4.1-11.1c-0.5-1.6-0.9-3-1.1-4L40.8,310.9z"></path></g>
			</g>
			<g>
				<g id="change2_85"><path fill="#3F4651" d="M52.4,349.8c-0.1,0-0.3,0-0.4-0.1c-0.3-0.1-0.6-0.4-0.8-0.7l-5.6-11.7c-0.7-1.5-1.3-3.1-1.8-4.7
					c-0.3-0.8-0.6-1.6-0.9-2.4L38,317c-1.2-3.7-1.7-6.2-1.8-6.3c-0.1-0.6,0.1-1.1,0.6-1.5c0.5-0.3,1.1-0.3,1.6,0
					c0,0,2.7,1.9,6.7,4.5c4.9,2.9,10.6,6,15.6,8.5l1.4,0.7c2.3,1.2,4.5,2.3,6.8,3.2l7.5,2.9l7.2,2.6c0.5,0.2,0.9,0.7,0.9,1.2
					s-0.3,1.1-0.8,1.3L53,349.7C52.8,349.8,52.6,349.8,52.4,349.8z M39.9,313.6c0.2,0.8,0.5,1.6,0.7,2.5l4.8,13.1
					c0.3,0.8,0.6,1.6,0.9,2.4c0.6,1.6,1.1,3.1,1.8,4.5l5,10.4l26.7-13.3l-6.1-2.3l-5.6-2.2c-2.3-1-4.6-2.1-7-3.3l-1.4-0.7
					c-5-2.5-10.8-5.7-15.8-8.6C42.2,315.2,40.9,314.4,39.9,313.6z"></path></g>
			</g>
		</g>
		<g>
			<g>
				<g id="change2_86"><path fill="#3F4651" d="M70.7,302.4c-0.4,0-0.8-0.2-1.1-0.5c-0.3-0.4-0.4-1-0.1-1.5l5.4-9c2.1-3.4,4.5-7.3,7.7-11.1
					c4.3-5.5,8.2-9.9,10.2-12.1c2.6-2.9,4.7-4.9,4.9-5.1l0,0l0,0l0,0l0,0c0.2-0.2,0.5-0.3,0.7-0.3c0.6-0.1,1.2,0.2,1.4,0.8
					c0.1,0.3,0.2,0.6,0.1,0.9c0,0.7,0.4,3.1,0.8,5.4s0.8,5.1,1.2,8c0.2,2.2,0.8,4.4,1.3,6.3c0.3,1.1,0.6,2.1,0.8,3l1.1,4.2
					c0.2,0.7-0.2,1.5-1,1.7L71,302.5C71,302.4,70.8,302.4,70.7,302.4z M97.6,267c-0.8,0.8-1.7,1.8-2.7,2.9c-1.9,2.1-5.8,6.5-10.1,12
					c-3,3.7-5.4,7.5-7.5,10.8l-3.6,6l28.5-8.1l-0.7-3c-0.2-0.9-0.5-1.9-0.8-2.9c-0.6-2-1.2-4.3-1.4-6.7c-0.4-2.7-0.8-5.5-1.2-7.8
					C97.8,268.9,97.7,267.9,97.6,267z"></path></g>
			</g>
			<g>
				<g id="change2_87"><path fill="#3F4651" d="M37.6,311.8L37.6,311.8c-0.7-0.1-1.1-0.5-1.3-1l-1.6-6.2c-0.3-1.2-0.6-2.5-1-3.9c-0.8-3-1.7-6.4-2.1-9.9
					L29.5,277c-0.7-3.8-0.7-6.4-0.7-6.5c0-0.7,0.5-1.3,1.2-1.4l34.3-3.1c0.5,0,1.1,0.2,1.3,0.8c0.3,0.5,0.2,1.1-0.2,1.5
					c0,0-2.1,2.3-4.6,5.9c-1.9,2.6-5.7,7.8-9.8,14.2c-2.9,4.2-5.1,8.6-7,12.4c-0.5,1.1-1,2.1-1.6,3l-3.6,7.5
					C38.6,311.5,38.1,311.8,37.6,311.8z M31.5,271.6c0.1,1.1,0.3,2.8,0.6,4.9l2.1,13.9c0.4,3.4,1.3,6.7,2.1,9.6c0.4,1.4,0.7,2.8,1,4
					l0.7,2.5l2-4.1c0.5-1,1-2,1.6-3c2-3.9,4.2-8.3,7.2-12.6c4.1-6.3,7.9-11.7,9.8-14.3c1-1.4,1.9-2.6,2.6-3.5L31.5,271.6z"></path></g>
			</g>
			<g>
				<g>
					<g id="change2_88"><path fill="#3F4651" d="M37.6,311.8c-0.4,0-0.8-0.2-1-0.5c-0.3-0.4-0.4-1-0.2-1.5l3.6-7.5c0.5-1,1-2,1.6-3
						c2-3.9,4.2-8.3,7.2-12.6c4.1-6.3,7.9-11.7,9.8-14.3c2.6-3.7,4.7-6,4.8-6.1c0.2-0.3,0.6-0.4,0.9-0.4l34.3-3.1
						c0.5-0.1,1.1,0.3,1.4,0.8c0.2,0.5,0.1,1.2-0.3,1.6c0,0-2.1,1.9-4.7,4.9c-1.9,2.1-5.8,6.5-10.1,12c-3,3.7-5.4,7.5-7.5,10.8
						l-1.5,2.5l-3.9,6.5c-0.2,0.3-0.5,0.5-0.8,0.6L38,311.7C37.9,311.8,37.7,311.8,37.6,311.8z M65,268.5c-0.7,0.8-2.3,2.8-4.3,5.5
						c-1.9,2.6-5.7,7.8-9.8,14.2c-2.9,4.2-5.1,8.6-7,12.4c-0.5,1.1-1,2.1-1.6,3l-2.3,4.7l29.7-8.4l5.2-8.5c2.1-3.4,4.5-7.3,7.6-11.1
						c4.3-5.5,8.2-9.9,10.2-12.1c0.8-0.9,1.5-1.7,2.2-2.4L65,268.5z"></path></g>
				</g>
			</g>
			<g>
				<g id="change2_89"><path fill="#3F4651" d="M64.3,268.6c-0.5,0-1-0.3-1.2-0.7c-0.3-0.5-0.2-1.1,0.2-1.5c0.1-0.1,8.3-9.6,16.4-17.3
					c9.1-7.9,18-14.1,18.1-14.2c0.4-0.3,1-0.3,1.4-0.1c0.5,0.3,0.7,0.7,0.7,1.3l-0.7,14.1L100,264c0,0.7-0.5,1.4-1.2,1.4l-34.3,3.1
					C64.4,268.6,64.4,268.6,64.3,268.6z M97.1,238.7c-3.2,2.3-9.4,6.9-15.5,12.3c-5.4,5.1-11,11.2-13.9,14.5l29.5-2.7L96.5,250
					L97.1,238.7z"></path></g>
			</g>
			<g>
				<g id="change2_90"><path fill="#3F4651" d="M64.3,268.6c-0.1,0-0.3,0-0.4-0.1c-0.5-0.2-0.9-0.7-0.9-1.2l-0.9-17.2l0.9-17.3c0-0.4,0.2-0.7,0.5-1
					c0.3-0.2,0.7-0.4,1-0.3l34.3,3.1c0.6,0.1,1.1,0.5,1.2,1c0.1,0.6-0.1,1.1-0.5,1.5c-0.1,0.1-8.9,6.2-17.8,14
					c-8,7.6-16.1,17-16.2,17.1C65.1,268.4,64.7,268.6,64.3,268.6z M65.6,234.3l-0.8,15.8l0.7,13.7c3-3.4,8.6-9.5,14.2-14.8
					c5.9-5.1,11.7-9.5,15.1-12L65.6,234.3z"></path></g>
			</g>
			<g>
				<g id="change2_91"><path fill="#3F4651" d="M64.3,268.6c-0.3,0-0.6-0.1-0.9-0.3c-0.1-0.1-9.2-7.9-18.2-17.3c-8.2-9.3-16.2-20.4-16.3-20.5
					c-0.3-0.4-0.3-1-0.1-1.5c0.3-0.5,0.9-0.7,1.3-0.7l34.3,3.1c0.7,0.1,1.3,0.7,1.2,1.4L64.7,250l0.8,16.6c0.1,0.2,0.1,0.3,0.1,0.5
					C65.8,268,65.3,268.5,64.3,268.6C64.4,268.6,64.4,268.6,64.3,268.6z M33,231.3c2.8,3.8,8.5,11.3,14.3,17.8
					c6.1,6.4,12.2,12,15.5,14.9l-0.7-14l0.8-16L33,231.3z"></path></g>
			</g>
			<g>
				<g id="change2_92"><path fill="#3F4651" d="M30.1,271.7c-0.3,0-0.6-0.1-0.9-0.3c-0.3-0.2-0.4-0.6-0.5-1l-1-20.4l1-20.5c0-0.6,0.4-1.1,1-1.2
					c0.6-0.2,1.2,0,1.5,0.5c0.1,0.1,8.1,11.1,16.1,20.2c8.9,9.3,17.9,17,17.9,17.1c0.4,0.4,0.6,0.9,0.4,1.5c-0.2,0.5-0.6,0.9-1.2,1
					L30.1,271.7C30.2,271.7,30.1,271.7,30.1,271.7z M31.2,233.5L30.4,250l0.9,18.8l29.7-2.7c-3.3-3-9.6-8.7-15.8-15.2
					C39.7,244.6,34.2,237.5,31.2,233.5z"></path></g>
			</g>
		</g>
		<g>
			<g>
				<g id="change2_93"><path fill="#3F4651" d="M98.6,237.3L98.6,237.3l-34.4-3.1c-0.5-0.1-1-0.4-1.2-0.9s0-1.1,0.4-1.4c0.1-0.1,2.3-2.1,6.1-4.8
					c4.2-3.1,9.1-6.5,13.4-9.3c3.8-2.6,8.3-4.8,11.8-6.6l2.1-1.1l6.3-2.9c0.5-0.2,1-0.1,1.5,0.2c0.4,0.3,0.6,0.9,0.4,1.4l-1.1,4.2
					c-0.2,0.9-0.5,1.9-0.8,3c-0.5,1.9-1.2,4-1.3,6.2c-0.4,2.9-0.8,5.7-1.2,8c-0.3,2.2-0.7,4.4-0.8,5.3c0.1,0.2,0.1,0.3,0.1,0.5
					C100.1,236.7,99.4,237.3,98.6,237.3C98.7,237.3,98.6,237.3,98.6,237.3z M67.8,231.7l29.6,2.7c0.1-1,0.4-2.4,0.7-4.7
					c0.4-2.3,0.8-5.1,1.2-7.9c0.2-2.3,0.9-4.6,1.4-6.6c0.3-1,0.6-2,0.7-2.8l0.4-1.5l-5.8,2.8c-3.5,1.7-7.8,3.9-11.6,6.4
					c-4.3,2.7-9.1,6.1-13.3,9.2C69.8,230.2,68.7,231,67.8,231.7z"></path></g>
			</g>
			<g>
				<g id="change2_94"><path fill="#3F4651" d="M30.1,231c-0.2,0-0.4,0-0.5-0.1c-0.5-0.2-0.9-0.7-0.8-1.3c0-0.1,0.1-2.7,0.7-6.5l2.1-13.9
					c0.4-3.5,1.3-6.9,2.1-9.9c0.4-1.4,0.7-2.7,1-3.9l1.6-6.2c0.1-0.4,0.3-0.7,0.6-0.8c0.3-0.2,0.7-0.2,1.1-0.1l33.1,9.4
					c0.5,0.1,0.9,0.6,1,1.1s-0.2,1.1-0.7,1.4l-9,5.4c-3.6,2.2-8,5-11.7,8.1c-4.4,3.4-9.4,7.6-13.7,11.3c-3.8,3.2-6,5.6-6,5.6
					C30.8,230.9,30.4,231,30.1,231z M38.6,191.3l-1.2,4.8c-0.3,1.2-0.6,2.5-1,4c-0.8,2.9-1.7,6.2-2.1,9.5l-2.1,13.9
					c-0.2,0.9-0.3,1.8-0.4,2.5c0.9-0.9,2.1-1.9,3.5-3.1c4.3-3.8,9.3-8,13.8-11.4c3.9-3.2,8.4-6,12-8.2l6.3-3.8L38.6,191.3z"></path></g>
			</g>
			<g>
				<g>
					<g id="change2_95"><path fill="#3F4651" d="M64.3,234.2L64.3,234.2L29.9,231c-0.5,0-1-0.4-1.2-0.9s-0.1-1,0.3-1.4c0.1-0.1,2.3-2.5,6.2-5.8
						c4.3-3.8,9.3-8,13.8-11.4c3.9-3.2,8.4-6,12-8.2l2.4-1.5l6.6-3.9c0.3-0.2,0.7-0.2,1.1-0.1l33.1,9.4c0.6,0.2,0.9,0.6,1,1.2
						c0,0.6-0.3,1.1-0.8,1.4l-8.4,4c-3.5,1.7-7.8,3.9-11.6,6.4c-4.3,2.7-9.1,6.1-13.3,9.2c-3.7,2.6-5.8,4.6-5.9,4.6
						C65,234,64.7,234.2,64.3,234.2z M33.1,228.6l30.8,2.8c0.8-0.7,2.8-2.3,5.6-4.4c4.2-3.1,9.1-6.5,13.4-9.3
						c3.8-2.6,8.3-4.8,11.8-6.6l5.1-2.5l-29-8.2l-8.5,5.1c-3.6,2.2-8,5-11.7,8.1c-4.4,3.4-9.4,7.6-13.7,11.3
						C35.4,226.4,34.1,227.6,33.1,228.6z"></path></g>
				</g>
			</g>
			<g>
				<g id="change2_96"><path fill="#3F4651" d="M103.8,209.8c-0.1,0-0.3,0-0.4-0.1l-33.1-9.4c-0.5-0.1-0.9-0.6-1-1.1s0.2-1.1,0.6-1.4
					c0.1-0.1,2.6-1.6,6.6-3.6c4.8-2.3,10.3-4.7,15.1-6.6l1.2-0.5c2.3-0.9,4.5-1.8,6.8-2.5l7.2-2l6.8-1.7c0.5-0.1,1.1,0.1,1.4,0.5
					s0.4,1,0.2,1.5l-3.9,8c-0.4,0.9-0.7,1.8-1.1,2.8c-0.2,0.6-0.4,1.3-0.7,1.9l-3.3,9c-0.7,2.3-1.1,4-1.1,4
					c-0.1,0.4-0.3,0.7-0.6,0.9C104.3,209.7,104.1,209.8,103.8,209.8z M74.2,198.6l28.6,8.1c0.2-0.7,0.5-1.8,0.8-2.9l3.4-9.1
					c0.2-0.6,0.4-1.2,0.7-1.8c0.4-1.1,0.7-2.1,1.2-3.1l2.6-5.4l-4,1l-7.1,2c-2.1,0.7-4.3,1.5-6.6,2.4l-1.2,0.4
					c-4.8,1.9-10.2,4.2-14.9,6.5C76.5,197.4,75.2,198,74.2,198.6z"></path></g>
			</g>
			<g>
				<g id="change2_97"><path fill="#3F4651" d="M70.7,200.4c-0.3,0-0.6-0.1-0.8-0.3c-0.4-0.3-0.7-0.9-0.5-1.4c0-0.1,0.5-2.2,1.4-5.3l4.1-11.2
					c0.3-0.7,0.5-1.4,0.8-2.1c0.5-1.3,1-2.7,1.5-3.9l4.7-9.9c0.2-0.3,0.4-0.6,0.8-0.7c0.3-0.1,0.7-0.1,1.1,0.1l30.8,15.4
					c0.5,0.3,0.8,0.8,0.7,1.4c-0.1,0.6-0.5,1-1,1.2l-6.8,1.7l-7.1,2c-2.1,0.7-4.3,1.5-6.6,2.4l-1.2,0.4c-4.8,1.9-10.2,4.2-14.9,6.5
					c-3.9,2-6.4,3.5-6.4,3.5C71.2,200.3,71,200.4,70.7,200.4z M83.8,168.8l-4.1,8.6c-0.5,1.1-1,2.4-1.4,3.7
					c-0.3,0.7-0.5,1.4-0.8,2.1l-4.1,11.1c-0.2,0.7-0.4,1.3-0.6,1.9c1-0.6,2.3-1.2,3.8-2c4.8-2.3,10.3-4.7,15.1-6.6l1.2-0.5
					c2.3-0.9,4.5-1.8,6.8-2.5l10.4-2.8L83.8,168.8z"></path></g>
			</g>
			<g>
				<g id="change2_98"><path fill="#3F4651" d="M70.7,200.4c-0.5,0-0.9-0.2-1.2-0.7c-0.1-0.1-1.7-2.8-3.8-6.9c-1.4-2.9-4.1-8.7-6.9-15.8l-0.5-1.2
					c-1-2.6-2.1-5.3-2.9-7.8l-2.3-8l-2.1-8c-0.1-0.5,0-1.1,0.5-1.4c0.4-0.3,1-0.4,1.5-0.2l30.8,15.4c0.7,0.3,0.9,1.1,0.6,1.8
					l-4.7,9.8c-0.5,1.1-1,2.4-1.4,3.7c-0.3,0.7-0.5,1.4-0.8,2.1l-4.1,11.1c-0.9,2.9-1.4,5-1.4,5c-0.1,0.5-0.6,1-1.1,1.1
					C70.9,200.4,70.8,200.4,70.7,200.4z M54.5,154.1l3.7,13c0.8,2.4,1.8,5.1,2.8,7.6l0.5,1.2c2.1,5.2,4.5,10.9,6.8,15.6
					c0.7,1.5,1.4,2.7,2,3.8c0.2-0.6,0.4-1.3,0.6-2l4.1-11.2c0.3-0.7,0.5-1.4,0.8-2.1c0.5-1.3,1-2.7,1.5-3.9l4.2-8.6L54.5,154.1z"></path></g>
			</g>
			<g>
				<g id="change2_99"><path fill="#3F4651" d="M70.7,200.4c-0.1,0-0.3,0-0.4-0.1l-33.1-9.4c-0.7-0.2-1.1-0.9-1-1.6c0-0.1,0.6-2.6,1.7-6.2l4.8-13.3
					c0.3-0.8,0.6-1.6,0.9-2.4c0.6-1.6,1.2-3.2,1.8-4.7L51,151c0.3-0.5,0.8-0.8,1.4-0.8c0.6,0.1,1,0.5,1.2,1l4.4,15.9
					c0.8,2.4,1.8,5.1,2.8,7.6l0.5,1.2c2.1,5.2,4.5,10.9,6.8,15.6c1.6,3.2,3,5.6,3.5,6.4c0.3,0.3,0.4,0.6,0.4,1
					C72.2,199.8,71.4,200.4,70.7,200.4L70.7,200.4z M39.3,188.6l28.6,8.1c-0.6-1.1-1.3-2.4-2.1-4c-1.4-2.9-4.1-8.7-6.9-15.8
					l-0.5-1.2c-1-2.6-2.1-5.3-2.9-7.8L52,155.5l-4,8.3c-0.6,1.4-1.2,2.9-1.7,4.5c-0.3,0.8-0.6,1.6-0.9,2.4l-4.8,13.2
					C40,185.9,39.5,187.6,39.3,188.6z"></path></g>
			</g>
		</g>
		<g>
			<g>
				<g id="change2_100"><path fill="#3F4651" d="M114,183.7c-0.2,0-0.4,0-0.6-0.1l-30.8-15.4c-0.5-0.2-0.8-0.8-0.8-1.3c0-0.6,0.4-1,0.9-1.2l7.1-2.3
					c3.7-1.1,9.1-2.3,16.1-3.7c5.9-1.2,11.5-1.9,15.7-2.1l6.9-0.4c0.4,0,0.7,0,1,0.2c0.5,0.3,0.7,0.9,0.5,1.5
					c-0.1,0.4-0.4,0.8-0.8,0.9c-1.3,1.4-12.5,19.1-13.9,22.3c0,0.1,0,0.1,0,0.2C115.4,183.1,114.8,183.7,114,183.7L114,183.7z
					 M86.8,167.2l26.5,13.2c2.1-4.4,8.9-15.2,12.6-20.4l-4,0.2c-4.2,0.2-9.6,0.9-15.4,2.1c-6.9,1.3-12.2,2.5-15.8,3.6L86.8,167.2z"></path></g>
			</g>
			<g>
				<g id="change2_101"><path fill="#3F4651" d="M52.4,152.9c-0.4,0-0.7-0.1-1-0.4c-0.4-0.4-0.5-1-0.2-1.5l2.8-5.7c1.2-2.4,2.9-5.1,4.7-8.1
					c0.8-1.3,1.7-2.7,2.5-4.1c3.3-5.5,5.7-9.2,7.8-11.9l3.8-5.1c0.2-0.3,0.5-0.5,0.9-0.5s0.7,0,1,0.3l27.5,20.8
					c0.4,0.3,0.6,0.9,0.5,1.4s-0.6,0.9-1.1,1l-7.6,1.2c-4.5,0.7-10.4,2-16.6,3.9c-7.6,2.2-13.1,4-16.9,5.5l-7.5,3.2
					C52.7,152.9,52.6,152.9,52.4,152.9z M74.1,118.9l-3,4c-2,2.5-4.5,6.2-7.6,11.6c-0.8,1.4-1.7,2.8-2.5,4.1
					c-1.8,2.9-3.4,5.6-4.6,7.9l-1.2,2.4l4.2-1.8c3.9-1.5,9.5-3.4,17.2-5.6c6.3-1.9,12.4-3.3,17-4l4.4-0.7L74.1,118.9z"></path></g>
			</g>
			<g>
				<g>
					<g id="change2_102"><path fill="#3F4651" d="M83.2,168.3c-0.2,0-0.4,0-0.6-0.1l-30.8-15.4c-0.5-0.2-0.8-0.7-0.8-1.3c0-0.5,0.3-1,0.8-1.2l7.5-3.2
						c3.9-1.5,9.6-3.4,17.2-5.6c6.3-1.9,12.4-3.3,17-4l7.6-1.2c0.4-0.1,0.7,0,1,0.3l27.5,20.8c0.5,0.3,0.7,0.9,0.5,1.5
						s-0.7,0.9-1.2,1l-7,0.4c-4.2,0.2-9.6,0.9-15.4,2.1c-6.9,1.3-12.2,2.5-15.8,3.6l-7,2.3C83.5,168.3,83.3,168.3,83.2,168.3z
						 M55.6,151.7l27.6,13.8l6.6-2.1c3.7-1.1,9.1-2.3,16.1-3.7c5.9-1.2,11.5-1.9,15.7-2.1l3.3-0.2l-24-18.2l-7,1.1
						c-4.5,0.7-10.4,2-16.6,3.9c-7.6,2.2-13.1,4-16.9,5.5L55.6,151.7z"></path></g>
				</g>
			</g>
			<g>
				<g id="change2_103"><path fill="#3F4651" d="M128.8,159.9c-0.3,0-0.6-0.1-0.8-0.3l-27.5-20.8c-0.4-0.3-0.6-0.9-0.5-1.4s0.6-0.9,1.1-1
					c0.1,0,12.2-1.9,24-1.7c6,0,11.4,0.1,15.8,0.8l7,0.9c0.5,0.1,1,0.4,1.1,1c0.2,0.5,0,1.1-0.4,1.4l-3.3,2.9
					c-1.4,1.1-2.8,2.7-4.3,4.4c-0.7,0.8-1.5,1.7-2.2,2.5c-4.9,4.9-8.8,10.6-8.9,10.6c-0.2,0.3-0.5,0.5-0.9,0.6
					C128.9,159.9,128.8,159.9,128.8,159.9z M104.8,138.6l23.7,17.9c1.4-2,4.6-6.1,8.3-9.8c0.7-0.8,1.5-1.6,2.2-2.4
					c1.6-1.8,3.1-3.5,4.6-4.7l1-0.9l-4.1-0.5c-4.3-0.6-9.5-0.7-15.5-0.7C116.9,137.2,109.1,138.1,104.8,138.6z"></path></g>
			</g>
			<g>
				<g id="change2_104"><path fill="#3F4651" d="M147.7,139.1c-0.1,0-0.1,0-0.2,0l-7-0.9c-4.3-0.6-9.5-0.7-15.5-0.7c-0.8,0-1.7,0-2.5,0
					c-10.7,0-20.9,1.6-21,1.6c-0.6,0.1-1.1-0.2-1.4-0.6c-0.3-0.5-0.3-1.1,0-1.5c0.2-0.3,5.1-7.2,11.1-13.4c0.8-0.9,1.7-1.8,2.5-2.7
					c2-2.3,4-4.4,5.8-5.9l3.9-3.6c0.6-0.5,1.4-0.5,1.9,0.1l23,25.2c0.4,0.2,0.6,0.7,0.6,1.2C149.1,138.5,148.3,139.1,147.7,139.1
					L147.7,139.1z M124.4,114.3l-3,2.7c-1.8,1.4-3.6,3.5-5.6,5.7c-0.8,0.9-1.7,1.9-2.5,2.8c-3.7,3.8-7,7.9-9,10.5
					c4.4-0.6,12.6-1.4,20.7-1.2c6,0,11.4,0.1,15.8,0.8l3.3,0.4L124.4,114.3z"></path></g>
			</g>
			<g>
				<g id="change2_105"><path fill="#3F4651" d="M101.3,139.1c-0.1,0-0.2,0-0.3,0c-0.5-0.1-1-0.6-1-1.1c0-0.1-2-12.5-1.7-25.1c0-6.8,0.1-13.3,0.7-18
					l1-8.1c0.1-0.5,0.4-1,0.9-1.1c0.5-0.2,1.1,0,1.4,0.4l23.2,25.4c0.2,0.3,0.4,0.6,0.4,1s-0.2,0.7-0.4,1l-4,3.6
					c-1.8,1.4-3.6,3.5-5.6,5.7c-0.8,0.9-1.7,1.9-2.5,2.8c-5.9,6-10.8,13-10.9,13.1C102.2,138.9,101.8,139.1,101.3,139.1z M102.3,90
					l-0.6,5.2c-0.6,4.6-0.7,11-0.7,17.7c-0.2,8.5,0.7,16.8,1.2,21.3c2-2.6,5.3-6.8,9.1-10.7c0.8-0.9,1.7-1.8,2.5-2.7
					c2-2.3,4-4.4,5.8-5.9l2.9-2.6L102.3,90z"></path></g>
			</g>
			<g>
				<g id="change2_106"><path fill="#3F4651" d="M101.4,139.1C101.4,139.1,101.3,139.1,101.4,139.1c-0.4,0-0.7-0.1-0.9-0.3L73,118.1
					c-0.6-0.4-0.7-1.3-0.3-1.9c0.1-0.1,6.1-8.5,13.2-15.8c0.9-1,1.8-2,2.7-3c2.5-2.8,4.9-5.4,7.1-7.2l4.7-4.3c0.4-0.4,1-0.5,1.6-0.2
					c0.5,0.3,0.8,0.8,0.7,1.4l-1,8.2c-0.6,4.6-0.7,11-0.7,17.7c-0.2,11.1,1.3,22,1.6,24.2c0.1,0.2,0.1,0.4,0.1,0.6
					C102.8,138.5,102.1,139.1,101.4,139.1z M75.8,116.7l23.7,18c-0.6-4.5-1.5-13.1-1.3-21.8c0-6.8,0.1-13.3,0.7-18l0.5-4.5l-2,1.8
					c-2.1,1.8-4.4,4.3-6.9,7c-0.9,1-1.8,2-2.8,3C82.4,107.9,77.6,114.2,75.8,116.7z"></path></g>
			</g>
		</g>
		<g>
			<g>
				<g id="change2_107"><path fill="#3F4651" d="M147.7,139.1c-0.4,0-0.7-0.1-1-0.4l-23.2-25.4c-0.4-0.4-0.5-1-0.2-1.5c0.2-0.5,0.6-0.8,1.3-0.8l7.5,0.5
					c3.8,0.2,9.3,0.9,16.3,2.3c5.5,1.1,11.1,2.2,15.4,3.6l6.7,2.2l0,0c0.3,0.1,0.6,0.3,0.8,0.6c0.3,0.5,0.3,1.1,0,1.6
					c-0.3,0.4-0.8,0.6-1.2,0.5c-2,0.9-19.1,13.9-21,16.1c-0.1,0.2-0.2,0.3-0.4,0.5C148.3,139,148,139.1,147.7,139.1z M127.8,113.9
					l20,21.9c3.6-3.2,13.6-11.1,18.9-14.6l-3.8-1.3c-4.1-1.3-9.7-2.4-15.1-3.5c-6.9-1.3-12.2-2.1-15.9-2.2L127.8,113.9z"></path></g>
			</g>
			<g>
				<g id="change2_108"><path fill="#3F4651" d="M151.9,93c-0.1,0-0.2,0-0.3,0l-7.6-1.7c-4.5-1-10.3-1.6-16.5-2.2c-8.1-0.8-13.8-1.1-17.9-0.9l-8.3,0.2
					c-0.7,0-1.1-0.3-1.3-0.9c-0.2-0.5-0.1-1.1,0.4-1.5l4.7-4.3c2.5-2.4,6-5,9.7-7.8l1.4-1c1.4-1,2.7-2,4-3c2.7-2,5.2-3.9,7.5-5.3
					l5.4-3.3c0.6-0.4,1.5-0.2,1.9,0.4L153.2,91c0.3,0.5,0.3,1.1,0,1.5C152.8,92.7,152.3,93,151.9,93z M111.8,85.3
					c4,0,9.1,0.3,15.7,1h0.3c6.3,0.7,12.2,1.3,16.8,2.3l4.4,1l-15.7-25.3l-4.3,2.6c-2.1,1.3-4.6,3.2-7.2,5.1c-1.3,1-2.7,2-4.1,3
					l-1.4,1c-3.6,2.7-7.1,5.3-9.4,7.6l-2,1.8l4.5-0.1C110.2,85.3,111,85.3,111.8,85.3z"></path></g>
			</g>
			<g>
				<g>
					<g id="change2_109"><path fill="#3F4651" d="M170.1,122.2c-0.1,0-0.3,0-0.4-0.1l-6.7-2.2c-4.1-1.3-9.7-2.4-15.1-3.5c-6.9-1.3-12.2-2.1-15.9-2.2
						l-7.5-0.5c-0.4,0-0.7-0.2-0.9-0.4l-23.2-25.4c-0.4-0.4-0.5-1-0.2-1.5c0.2-0.5,0.7-0.8,1.2-0.8l8.2-0.2c4.2-0.2,10,0.1,18,0.9
						h0.3c6.3,0.7,12.2,1.3,16.8,2.3l7.6,1.7c0.4,0.1,0.7,0.3,0.9,0.6l18,28.9c0.3,0.3,0.5,0.6,0.5,1
						C171.5,121.6,170.9,122.1,170.1,122.2L170.1,122.2z M125.1,111l6.9,0.4c3.8,0.2,9.3,0.9,16.3,2.3c5.5,1.1,11.1,2.2,15.4,3.6
						l3.2,1L151,92.8l-7-1.6c-4.5-1-10.3-1.6-16.5-2.2c-8.1-0.8-13.8-1.1-17.9-0.9l-5.3,0.1L125.1,111z"></path></g>
				</g>
			</g>
			<g>
				<g id="change2_110"><path fill="#3F4651" d="M170.1,122.2c-0.5,0-0.9-0.2-1.2-0.6l-18.2-29.3c-0.3-0.5-0.3-1.1,0.1-1.5c0.3-0.4,0.9-0.7,1.4-0.5
					l7.3,1.9c2.2,0.6,4.7,1.3,7.3,2.1c2.7,1,5.6,2,8.3,3.1c5.1,2,10.3,4.3,14.4,6.3l6.3,3.5c0.5,0.3,0.7,0.8,0.7,1.3s-0.4,1-0.9,1.2
					l-4.1,1.5l-13.2,6.4l-7.5,4.6C170.6,122.1,170.3,122.2,170.1,122.2z M154.9,93.7l15.6,25.2l6.4-3.9l14.9-7l-3.6-2
					c-3.9-1.9-9.1-4.2-14.1-6.2c-2.7-1.1-5.5-2.1-8.1-3.1c-2.5-0.8-5-1.5-7.1-2L154.9,93.7z"></path></g>
			</g>
			<g>
				<g id="change2_111"><path fill="#3F4651" d="M195.1,109.7c-0.2,0-0.5-0.1-0.7-0.2l-6.2-3.5c-3.9-1.9-9.1-4.2-14.1-6.2c-2.7-1.1-5.5-2.1-8.1-3.1
					c-2.5-0.8-5-1.5-7.1-2l-7.3-1.8c-0.5-0.1-0.9-0.6-1-1.1s0.2-1.1,0.6-1.4l9.3-5.6l16.5-7.9l5.2-1.9c0.7-0.3,1.5,0.1,1.8,0.8
					l12.3,31.7c0.2,0.2,0.3,0.5,0.3,0.9C196.5,109.1,195.9,109.7,195.1,109.7C195.2,109.7,195.1,109.7,195.1,109.7z M155.4,91.1
					l4.1,1.1c2.2,0.6,4.7,1.3,7.3,2.1c2.7,1,5.6,2,8.3,3.1c5.1,2,10.3,4.3,14.4,6.3l3,1.7L181.9,78l-3.8,1.4l-16.3,7.8L155.4,91.1z"></path></g>
			</g>
			<g>
				<g id="change2_112"><path fill="#3F4651" d="M151.9,93c-0.3,0-0.6-0.1-0.8-0.3c-0.4-0.3-0.7-0.9-0.5-1.4l4.1-15.3c1-2.8,2.1-5.7,3.2-8.7
					c2.2-5.6,4.9-11.8,7.1-16.6l3.9-7.3c0.3-0.5,0.7-0.8,1.3-0.7c0.5,0,1,0.4,1.2,0.9l12.4,32.1c0.1,0.3,0.1,0.7,0,1.1
					c-0.1,0.3-0.4,0.6-0.8,0.7l-5.1,1.9l-16.3,7.8l-9.2,5.6C152.4,92.9,152.2,93,151.9,93z M170,47.4l-2.5,4.6
					c-2.2,4.6-4.8,10.7-7,16.3c-1.2,2.9-2.2,5.8-3.2,8.5L154,88.7l6.5-3.9l16.5-7.9l3.9-1.4L170,47.4z"></path></g>
			</g>
			<g>
				<g id="change2_113"><path fill="#3F4651" d="M151.9,93c-0.5,0-0.9-0.2-1.2-0.6L132.6,63c-0.2-0.3-0.3-0.7-0.2-1c0.1-0.4,0.3-0.7,0.6-0.9l11.1-6.7
					l6.8-3.3l12.7-6l6.1-2.3c0.5-0.2,1.1,0,1.5,0.4s0.4,1,0.2,1.5l-3.9,7.2c-2.2,4.6-4.8,10.7-7,16.3c-1.2,2.9-2.2,5.8-3.2,8.5
					l-2.2,7.7l-1.9,7.4c-0.1,0.5-0.6,0.9-1.1,1C152,92.9,152,93,151.9,93z M135.7,62.8l15.7,25.3l3.4-12.1c1-2.8,2.1-5.7,3.2-8.7
					c2.2-5.6,4.9-11.8,7.1-16.6l2.2-4l-2.6,1L145.4,57L135.7,62.8z"></path></g>
			</g>
		</g>
		<g>
			<g>
				<g id="change2_114"><path fill="#3F4651" d="M195.1,109.7c-0.6,0-1.1-0.3-1.3-0.9l-12.4-32.1c-0.2-0.5-0.1-1.1,0.3-1.5c0.4-0.4,1-0.5,1.5-0.2
					l6.9,3.2c3.9,1.9,9.2,4.5,14.3,8c5.9,3.8,10.7,7.2,13,8.9c1.3,1,2.7,2,4.1,3.2l1.5,1.3c0.5,0.5,0.6,1.3,0.2,1.9
					c-0.4,0.5-0.9,0.6-1.4,0.6c-0.6,0.1-2,0.2-3.6,0.7l-9.4,2.4c-2.7,0.5-5.2,1.5-7.4,2.3l-5.8,2.1
					C195.4,109.7,195.3,109.7,195.1,109.7z M185.2,78.9l10.7,27.7l4.5-1.7c2.2-0.8,4.9-1.9,7.7-2.4l9.3-2.4c0.5-0.2,1-0.3,1.5-0.4
					c-1-0.9-2.1-1.7-3.1-2.4c-3.9-2.9-8.6-6.1-12.8-8.8c-5-3.3-10.2-5.9-14-7.8L185.2,78.9z"></path></g>
			</g>
			<g>
				<g id="change2_115"><path fill="#3F4651" d="M215.7,68.1c-0.3,0-0.6-0.1-0.8-0.2l-1.8-1.2c-1.5-1.1-3.1-2.1-4.6-3c-2.7-1.6-8.3-4.9-15-8.3
					c-5.7-3.1-11.5-5.3-16.1-7.1l-7.8-2.9c-0.5-0.2-0.9-0.7-0.9-1.3s0.4-1.1,0.9-1.3l8-2.9c3.3-1.2,7.3-2.7,11.6-3.6l13.6-3.5
					c1.5-0.4,3-0.7,4.7-1l1.7-0.3c0.8-0.1,1.4,0.4,1.6,1.1L217,66c0.1,0.2,0.2,0.4,0.2,0.7C217.2,67.5,216.6,68.1,215.7,68.1
					C215.8,68.1,215.8,68.1,215.7,68.1z M174.2,44.1l4.3,1.6c4.5,1.7,10.6,4.1,16.4,7.3c6.7,3.5,12.3,6.7,15.1,8.4
					c1.2,0.7,2.5,1.5,3.8,2.4l-5.4-29.2l-0.4,0.1c-1.5,0.2-3,0.5-4.4,0.9L190,39.1c-4.1,0.9-8.1,2.4-11.2,3.5L174.2,44.1z"></path></g>
			</g>
			<g>
				<g>
					<g id="change2_116"><path fill="#3F4651" d="M222,102c-0.3,0-0.6-0.1-0.9-0.3l-1.5-1.3c-1.3-1.2-2.6-2.2-3.9-3.1c-3.9-2.9-8.6-6.1-12.8-8.8
						c-5-3.3-10.2-5.9-14-7.8l-6.8-3.2c-0.3-0.1-0.6-0.4-0.7-0.7L169,44.7c-0.2-0.5-0.1-1.1,0.3-1.5c0.4-0.4,1-0.5,1.5-0.3l7.8,2.9
						c4.5,1.7,10.6,4.1,16.4,7.3c6.7,3.5,12.3,6.7,15.1,8.4c1.6,0.9,3.2,1.9,4.8,3.1l1.7,1.2c0.3,0.2,0.5,0.5,0.6,0.9l6.2,33.4
						c0.1,0.2,0.2,0.4,0.2,0.7C223.5,101.4,222.9,102,222,102C222.1,102,222.1,102,222,102z M183.8,75.2l6.4,3
						c3.9,1.9,9.2,4.5,14.3,8c5.9,3.8,10.7,7.2,13,8.9c0.9,0.6,1.7,1.3,2.6,2l-5.5-29.5l-1.3-0.9c-1.5-1.1-3.1-2.1-4.6-3
						c-2.7-1.6-8.3-4.9-15-8.3c-5.7-3.1-11.5-5.3-16.1-7.1l-4.9-1.8L183.8,75.2z"></path></g>
				</g>
			</g>
			<g>
				<g id="change2_117"><path fill="#3F4651" d="M222,102c-0.7,0-1.2-0.5-1.3-1.1L214.4,67c-0.1-0.6,0.1-1.1,0.6-1.4s1.1-0.3,1.5,0.1l7.7,5.7
					c3.4,2.6,7.3,5.6,11.1,9.2C243.9,88.7,251,97,251,97c0.3,0.4,0.4,1,0.2,1.4c-0.2,0.5-0.7,0.8-1.2,0.8l-14,0.8
					c-2.1,0.1-4.3,0.5-6.2,0.8c-1.2,0.2-2.3,0.4-3.3,0.5l-4.3,0.6C222.2,102,222.1,102,222,102z M217.7,69.9l5.4,29.2l3-0.4
					c1-0.1,2-0.3,3.2-0.5c2-0.3,4.2-0.7,6.5-0.9l11.3-0.6c-2.6-3-7.8-8.6-13.7-14.2c-3.7-3.5-7.5-6.4-10.8-9L217.7,69.9z"></path></g>
			</g>
			<g>
				<g id="change2_118"><path fill="#3F4651" d="M250,99.3c-0.4,0-0.8-0.2-1-0.5c-0.1-0.1-7-8.2-15.5-16.3c-3.7-3.5-7.5-6.4-10.8-9l-1.5-1.2l-6.1-4.5
					c-0.4-0.3-0.7-0.9-0.5-1.4c0.1-0.5,0.6-0.9,1.1-1l5.3-0.8c1.1-0.1,2.3-0.3,3.6-0.6c2.5-0.4,5.3-0.9,8.2-1.1L250,62
					c0.3,0,0.7,0.1,1,0.4c0.3,0.3,0.4,0.6,0.4,1v34.4c0,0.6-0.4,1.1-0.9,1.3C250.3,99.3,250.2,99.3,250,99.3z M219.2,67.6l5,3.7
					c3.4,2.6,7.3,5.6,11.1,9.2c5.6,5.3,10.5,10.7,13.3,13.8V64.9l-15.8,0.8c-2.7,0.2-5.5,0.6-7.9,1c-1.3,0.2-2.6,0.4-3.7,0.6
					L219.2,67.6z"></path></g>
			</g>
			<g>
				<g id="change2_119"><path fill="#3F4651" d="M215.7,68.1c-0.5,0-0.9-0.2-1.2-0.7s-0.3-1.1,0.1-1.5l5.7-7.7c2.7-3.6,6.1-8,9.9-12
					c8.5-9,18.8-18.2,18.9-18.2c0.4-0.4,1-0.4,1.5-0.2c0.5,0.2,0.8,0.7,0.8,1.2v34.4c0,0.7-0.6,1.3-1.3,1.4l-17.2,0.9
					c-2.7,0.2-5.5,0.6-7.9,1c-1.3,0.2-2.6,0.4-3.7,0.6l-5.3,0.8C215.9,68.1,215.8,68.1,215.7,68.1z M248.6,32.1
					c-3.5,3.2-10.4,9.6-16.4,16c-3.7,3.9-7,8.3-9.7,11.8l-3.7,5l2.1-0.3c1.1-0.1,2.3-0.3,3.6-0.6c2.5-0.4,5.3-0.9,8.2-1.1l15.9-0.8
					L248.6,32.1L248.6,32.1z"></path></g>
			</g>
			<g>
				<g id="change2_120"><path fill="#3F4651" d="M215.7,68.1c-0.1,0-0.2,0-0.3,0c-0.5-0.1-0.9-0.5-1-1.1l-6.3-33.9c-0.1-0.4,0-0.7,0.2-1s0.5-0.5,0.9-0.6
					l6.3-1c1.2-0.2,2.6-0.4,4-0.6c3-0.5,6.5-1,10-1.3l20.4-1c0,0,0,0,0.1,0c0.6,0,1.1,0.3,1.3,0.9c0.2,0.5,0.1,1.2-0.4,1.5
					c-0.1,0.1-10.3,9.1-18.7,18.1c-3.7,3.9-7,8.3-9.7,11.8l-1.2,1.5l-4.5,6.1C216.6,67.9,216.2,68.1,215.7,68.1z M211,34.1l5.5,29.3
					l3.8-5.1c2.7-3.6,6.1-8,9.9-12c5.7-6.1,12.3-12.3,16-15.7l-16.5,0.8c-3.3,0.2-6.7,0.8-9.7,1.2c-1.5,0.2-2.8,0.5-4.1,0.6
					L211,34.1z"></path></g>
			</g>
		</g>
	</g>
</g>
</svg>