<?xml version="1.0" encoding="utf-8"?><!DOCTYPE svg PUBLIC "-//W3C//DTD SVG 1.1//EN" "http://www.w3.org/Graphics/SVG/1.1/DTD/svg11.dtd">
<svg version="1.1" id="Layer_1" xmlns="http://www.w3.org/2000/svg" xmlns:xlink="http://www.w3.org/1999/xlink" x="0px" y="0px" viewBox="0 0 500 500.1" enable-background="new 0 0 500 500.1" xml:space="preserve">
<g>
	<g>
		<g id="change1_1"><path fill="#FFFFFF" d="M238,46.1c-1.5,0-2.4-0.1-2.4-0.1c-1-0.1-1.7-1.1-1.6-2.1c0.1-0.8,0.7-1.4,1.5-1.5
			c0.2-0.2,0.7-0.6,1.7-1.8c0.9-1.1,1.6-2.1,2.3-3.2c2.1-3.9,3.2-9,3.2-15.3c0-1.1-0.1-2.1-0.2-3.2c-0.1-1.5-0.3-3.1-0.1-4.8
			c0.3-3.6,1.6-6.9,3.7-9.4c2.6-3,6.1-4.7,10-4.7c3.9,0,7.7,1.6,10.7,4.5c3.9,3.7,5.8,8.1,5.8,12.8c-0.1,9.5-8.1,17.2-8.4,17.5
			C254,45,242.5,46.1,238,46.1z M256.1,3.7c-2,0-4.9,0.6-7.3,3.4c-1.6,1.9-2.6,4.5-2.9,7.3c-0.1,1.3,0,2.7,0.1,4.2
			c0.1,1.2,0.2,2.4,0.2,3.6c-0.1,7-1.3,12.5-3.7,17c-0.6,1.2-1.4,2.3-2.1,3.2c4.9-0.4,13.4-2.4,21.1-10.1c0.1-0.1,7.3-7,7.3-14.9
			c0-3.7-1.5-7.1-4.7-10.1C262,4.9,259,3.7,256.1,3.7z"></path></g>
	</g>
	<g>
		<g id="change1_2"><path fill="#FFFFFF" d="M286.3,48.4c-5.5,0-9.1-1.2-9.2-1.3h0c-0.9-0.3-1.4-1.4-1.1-2.3c0.3-0.8,1.2-1.3,1.9-1.2
			c0-0.1,0.6-0.4,1.9-1.4c1.1-0.9,2-1.7,2.8-2.7c2.9-3.4,4.9-8.1,6.3-14.3c0.2-1,0.3-2.1,0.5-3.2c0.2-1.5,0.4-3.1,0.8-4.7
			c1-3.4,3-6.4,5.5-8.4c6.3-4.9,15.7-2.9,20.4,4c3,4.5,4.1,9.1,3.1,13.7c-2,9.3-11.4,15.2-11.8,15.4
			C299.3,47.3,291.5,48.4,286.3,48.4z M282.7,44.6c1.1,0.1,2.3,0.2,3.7,0.2c4.6,0,11.7-1,19.1-5.9c0.1-0.1,8.5-5.4,10.2-13.1
			c0.8-3.6-0.1-7.3-2.5-10.9c-3.5-5.1-10.4-6.8-15.1-3.2c-2,1.5-3.5,3.8-4.3,6.5c-0.4,1.3-0.5,2.7-0.7,4.1c-0.1,1.2-0.3,2.4-0.5,3.5
			c-1.5,6.8-3.8,12-7,15.9C284.6,42.9,283.6,43.8,282.7,44.6z"></path></g>
	</g>
	<g>
		<g id="change1_3"><path fill="#FFFFFF" d="M333.8,60.6c-9.6,0-16-3.7-16.2-3.9c0,0,0,0,0,0l0,0c0,0,0,0,0,0l0,0c0,0,0,0,0,0h0l0,0l0,0l0,0
			c0,0,0,0,0,0l0,0c0,0,0,0,0,0l0,0c0,0,0,0,0,0l0,0l0,0l0,0l0,0l0,0c0,0,0,0,0,0l0,0c0,0,0,0,0,0l0,0l0,0l0,0c0,0,0,0,0,0
			c0,0,0,0,0,0s0,0,0,0l0,0c0,0,0,0,0,0l0,0c0,0,0,0,0,0v0c0,0,0,0,0,0l0,0c0,0,0,0,0,0l0,0c0,0,0,0,0,0l0,0l0,0c0,0,0,0,0,0v0h0
			c0,0,0,0,0,0l0,0l0,0l0,0c0,0,0,0,0,0h0v0h0v0c-0.6-0.6-0.8-1.5-0.4-2.3c0.4-0.7,1.2-1,2-0.8c0.2-0.1,0.9-0.3,2.2-1
			c1.3-0.6,2.4-1.3,3.4-2.1c3.5-2.8,6.5-7,9-12.8c0.4-1,0.8-2,1.1-3c0.5-1.5,1-3,1.8-4.4c1.7-3.2,4.2-5.7,7.1-7.1
			c7.2-3.5,15.9,0.3,19.1,8c2.1,5,2.2,9.7,0.3,14c-3.8,8.7-14.2,12.6-14.7,12.7C343.5,59.7,338.7,60.6,333.8,60.6z M323.5,55.3
			c2.5,0.8,6,1.6,10.3,1.6c4.4,0,8.8-0.9,13.1-2.6c0.1,0,9.5-3.6,12.6-10.8c1.5-3.4,1.4-7.1-0.3-11.1c-2.5-5.9-8.8-8.8-14.1-6.2
			c-2.2,1.1-4.2,3.1-5.5,5.5c-0.6,1.2-1.1,2.5-1.5,3.9c-0.4,1.1-0.7,2.3-1.2,3.4c-2.8,6.4-6.1,11-10.1,14.2
			C325.7,54,324.6,54.7,323.5,55.3z"></path></g>
	</g>
	<g>
		<g id="change1_4"><path fill="#FFFFFF" d="M378,82.1c-13.9,0-22.4-7.5-22.7-7.8c-0.7-0.7-0.8-1.8-0.1-2.6c0.5-0.6,1.4-0.7,2.1-0.5
			c0.7,0,2-0.3,2.5-0.5c1.4-0.3,2.5-0.8,3.7-1.4c4-2,7.7-5.5,11.4-10.7c0.6-0.9,1.2-1.8,1.7-2.7c0.8-1.3,1.6-2.7,2.6-4
			c2.3-2.8,5.3-4.7,8.4-5.5c7.8-2,15.5,3.3,17.1,11.7c1,5.3,0.1,9.9-2.6,13.8c-5.5,7.7-16.5,9.5-16.9,9.5
			C382.8,81.9,380.4,82.1,378,82.1z M361.4,74.1c3.4,2,9.1,4.4,16.6,4.4c2.1,0,4.3-0.2,6.5-0.6c0.1,0,10-1.6,14.5-8
			c2.1-3,2.8-6.7,2-11c-1.2-6.3-6.8-10.4-12.6-8.9c-2.4,0.6-4.7,2.2-6.5,4.3c-0.9,1-1.5,2.2-2.3,3.5c-0.6,1-1.2,2.1-1.9,3
			c-2.3,3.2-4.6,5.8-7,7.9c0,0,0,0,0,0c0,1.1-1.2,2-2.2,1.8c-1.1,0.8-2.3,1.5-3.5,2.1C363.8,73.3,362.6,73.8,361.4,74.1z"></path></g>
	</g>
	<g>
		<g id="change1_5"><path fill="#FFFFFF" d="M417.3,112.2c-0.6,0-0.9,0-0.9,0c-18.4-0.5-27.3-12.5-27.8-13.1v0c-0.1-0.1-0.1-0.2-0.2-0.3l0,0v0l0,0
			c0,0,0,0,0,0c0,0,0,0,0,0v0c0,0,0,0,0,0v0v0c0,0,0,0,0,0c0,0,0,0,0,0l0,0l0,0l0,0c-0.3-0.8-0.1-1.7,0.6-2.2c0.6-0.5,1.5-0.5,2.1,0
			c0.3,0,1.8,0,2.5,0c1.4-0.1,2.6-0.2,3.8-0.6c4.3-1.2,8.7-3.8,13.3-8.2c0.8-0.7,1.5-1.5,2.2-2.4c1-1.1,2.1-2.3,3.4-3.4
			c2.8-2.2,6.1-3.6,9.3-3.7l0.7,0c3.6,0,6.9,1.4,9.4,3.9c2.8,2.8,4.3,6.8,4.3,11.1C440,107.2,428.3,112.2,417.3,112.2z M394.7,100.1
			c3.8,3.3,11,8.1,21.9,8.4l0.8,0c4.5,0,19.1-1.1,19.2-15.3c0-3.2-1.1-6.3-3.2-8.4c-1.8-1.8-4.2-2.8-6.8-2.8l-0.5,0
			c-2.5,0.1-5.1,1.2-7.2,2.9c-1,0.8-2,1.9-2.9,3c-0.8,0.9-1.6,1.8-2.5,2.6c-5.1,4.7-10,7.7-14.9,9
			C397.2,99.8,395.9,100.1,394.7,100.1z"></path></g>
	</g>
	<g>
		<g id="change1_6"><path fill="#FFFFFF" d="M448.4,149.4c-4.2,0-7.4-0.8-7.6-0.9c-17.8-4.2-24.2-17.6-24.6-18.4c0,0,0,0,0,0c-0.1-0.1-0.1-0.2-0.1-0.4
			l0,0c0,0,0,0,0,0l0,0c0,0,0,0,0,0c-0.2-0.8,0.2-1.7,1-2c0.7-0.3,1.6-0.1,2.1,0.4c0.3,0.1,0.9,0.3,2.4,0.5c1.6,0.3,2.7,0.3,3.9,0.2
			c4.5-0.3,9.3-2,14.7-5.3c0.9-0.6,1.8-1.2,2.6-1.8c1.2-0.9,2.5-1.9,4-2.6c3.2-1.6,6.6-2.3,9.9-1.8c3.7,0.6,6.9,2.5,8.9,5.6
			c2.3,3.4,3.1,7.7,2.2,12C465.9,144.2,459,149.4,448.4,149.4z M422,132.4c3,4,9.2,10.2,19.7,12.6c0.1,0,3,0.8,6.7,0.8
			c8.9,0,14.3-3.9,16-11.7c0.7-3.3,0.1-6.6-1.6-9.1c-1.5-2.2-3.7-3.6-6.5-4c-2.5-0.4-5.2,0.1-7.7,1.4c-1.2,0.6-2.3,1.4-3.5,2.3
			c-1,0.7-1.9,1.4-2.9,2c-5.9,3.6-11.3,5.5-16.4,5.8C424.6,132.6,423.3,132.5,422,132.4z"></path></g>
	</g>
	<g>
		<g id="change1_7"><path fill="#FFFFFF" d="M470.2,192c-6.7,0-12.5-2.8-12.7-3c-16.6-7.7-20.1-22.2-20.3-23c0,0,0,0,0,0c0-0.1,0-0.3,0-0.4l0,0l0,0
			c0,0,0,0,0,0l0,0c0-0.8,0.6-1.6,1.4-1.8c0.8-0.2,1.6,0.2,2,0.8c0.2,0.2,0.8,0.5,2.4,1c1.2,0.5,2.4,0.8,3.7,1
			c4.7,0.6,9.5-0.1,15.5-2.2c1-0.4,2-0.8,3-1.3c1.4-0.6,2.8-1.3,4.4-1.8c3.4-1,7-0.9,10.1,0.3c3.5,1.3,6.2,3.9,7.6,7.2
			c1.6,3.8,1.5,8.2-0.3,12.2C483.6,188.3,477.9,192,470.2,192z M442.3,169.4c2.2,4.6,6.9,11.8,16.8,16.3c0.1,0,5.4,2.6,11.1,2.6
			c6.2,0,10.7-2.9,13.3-8.7c1.4-3.1,1.5-6.4,0.3-9.3c-1-2.5-2.9-4.3-5.5-5.2c-2.3-0.9-5.1-0.9-7.8-0.2c-1.3,0.4-2.5,0.9-3.9,1.6
			c-1.1,0.5-2.2,1-3.3,1.4c-6.5,2.3-11.9,3.2-17.2,2.4C444.7,170.2,443.5,169.8,442.3,169.4z"></path></g>
	</g>
	<g>
		<g id="change1_8"><path fill="#FFFFFF" d="M481.6,238.1c-8.4,0-15.7-5.7-16.1-5.9c-14.8-10.9-15.2-26-15.3-26.6c0-1,0.8-1.8,1.8-1.9
			c0.8,0.1,1.5,0.5,1.8,1.2c0.2,0.2,0.7,0.6,2,1.4c1.2,0.8,2.3,1.3,3.5,1.8c4.2,1.5,9.3,1.8,15.6,0.9c1.1-0.2,2.1-0.4,3.2-0.7
			c1.5-0.4,3-0.7,4.7-0.8c3.6-0.2,7,0.6,9.8,2.3c3.2,2,5.3,5,6,8.6c0.8,4-0.2,8.3-2.8,11.9C492.2,235.5,487.4,238.1,481.6,238.1z
			 M454.7,209.9c1.2,4.9,4.4,12.9,13.1,19.4c0.1,0.1,6.7,5.2,13.8,5.2c4.5,0,8.3-2.1,11.3-6.2c2-2.7,2.7-6,2.1-9
			c-0.5-2.6-2-4.8-4.4-6.2c-2.1-1.3-4.9-1.9-7.6-1.8c-1.3,0.1-2.7,0.4-4.1,0.8c-1.2,0.3-2.3,0.5-3.5,0.7c-6.9,1-12.6,0.6-17.4-1.1
			C456.9,211,455.7,210.5,454.7,209.9z"></path></g>
	</g>
	<g>
		<g id="change1_9"><path fill="#FFFFFF" d="M482.8,285.4c-9.9,0-17.7-9-18-9.4c-12.4-13.7-9.7-28.5-9.6-29.2c0.2-1,1.1-1.6,2.1-1.5
			c0.8,0.1,1.4,0.8,1.5,1.5c0.1,0.2,0.6,0.7,1.7,1.8c1,1,2,1.7,3.1,2.4c3.8,2.3,8.8,3.7,15.1,4.1c1.1,0.1,2.2,0,3.2,0
			c1.6-0.1,3.2-0.1,4.8,0.1c3.5,0.5,6.8,2,9.1,4.2c2.7,2.6,4.2,6,4.1,9.7c0,4.1-1.9,8.1-5.1,11C491.2,283.7,487.2,285.4,482.8,285.4
			z M458.6,251.9c0.2,5,1.7,13.6,8.9,21.6c0.1,0.1,7,8.2,15.3,8.2c3.4,0,6.6-1.4,9.6-4.1c2.5-2.3,3.9-5.3,3.9-8.4c0-2.7-1-5.1-3-7
			c-1.8-1.7-4.3-2.9-7.1-3.2c-1.4-0.2-2.8-0.1-4.2-0.1c-1.2,0-2.4,0.1-3.6,0c-6.9-0.4-12.4-1.9-16.8-4.6
			C460.6,253.5,459.6,252.8,458.6,251.9z"></path></g>
	</g>
	<g>
		<g id="change1_10"><path fill="#FFFFFF" d="M474.2,331.9L474.2,331.9c-11.7,0-18.7-12.6-19-13.2c-9.2-15.8-3.9-29.6-3.5-30.5c0,0,0,0,0,0
			c0.4-0.9,1.4-1.4,2.4-1c0.7,0.3,1.2,1,1.1,1.8c0.1,0.3,0.4,0.8,1.3,2.1c0.8,1.2,1.6,2.1,2.5,3c3.3,3.1,7.8,5.4,14,7.1
			c1,0.3,2.1,0.5,3.2,0.6c1.5,0.3,3.1,0.5,4.6,1.1c3.4,1.2,6.2,3.3,8.1,6c2.1,3.1,2.9,6.7,2.1,10.3c-0.9,4-3.5,7.5-7.2,9.8
			C480.6,330.9,477.4,331.9,474.2,331.9z M454,293.9c-0.8,5-1.1,13.6,4.4,23c0.1,0.2,6.3,11.3,15.8,11.3l0,0c2.5,0,5.1-0.8,7.7-2.4
			c2.9-1.7,4.9-4.4,5.5-7.4c0.6-2.6,0-5.2-1.5-7.5c-1.4-2-3.6-3.7-6.3-4.6c-1.3-0.4-2.6-0.7-4.1-0.9c-1.2-0.2-2.3-0.4-3.5-0.7
			c-6.7-1.8-11.8-4.4-15.5-7.9C455.6,295.9,454.7,294.9,454,293.9z"></path></g>
	</g>
	<g>
		<g id="change1_11"><path fill="#FFFFFF" d="M456.4,375.7L456.4,375.7c-13.9,0-19-16.4-19.2-17.1c-5.9-17.4,2.4-30,2.7-30.6c0.6-0.8,1.7-1.1,2.5-0.5
			c0.7,0.4,1,1.3,0.8,2c0,0.3,0.2,0.9,0.8,2.3c0.5,1.3,1.1,2.4,1.9,3.4c2.6,3.7,6.6,6.9,12.3,9.7c1,0.5,2,0.9,3,1.3
			c1.4,0.6,2.9,1.1,4.3,2c3.1,1.8,5.4,4.5,6.7,7.5c1.5,3.4,1.4,7.2,0,10.5c-1.6,3.7-4.9,6.7-9,8.1
			C460.8,375.3,458.6,375.7,456.4,375.7z M441,334.1c-1.8,4.7-3.8,13.1-0.3,23.4c0.1,0.2,4.6,14.5,15.8,14.5l0,0
			c1.7,0,3.6-0.3,5.5-1c3.2-1.1,5.7-3.4,6.9-6.2c1.1-2.4,1.1-5.1,0-7.6c-1-2.3-2.8-4.3-5.2-5.8c-1.2-0.7-2.4-1.2-3.8-1.7
			c-1.1-0.4-2.2-0.9-3.3-1.4c-6.2-3.1-10.6-6.7-13.6-10.9C442.2,336.4,441.5,335.3,441,334.1z"></path></g>
	</g>
	<g>
		<g id="change1_12"><path fill="#FFFFFF" d="M430.6,415.1C430.6,415.1,430.6,415.1,430.6,415.1c-13.6,0-18.5-13.7-19.1-21c-2.3-18.3,8.4-28.9,8.8-29.4
			c0,0,0,0,0,0c0.7-0.7,1.9-0.7,2.6,0c0.6,0.6,0.7,1.4,0.3,2.1c0,0.3,0,0.9,0.3,2.5c0.3,1.4,0.6,2.5,1.1,3.7c1.8,4.1,5.1,8,10,12
			c0.8,0.7,1.7,1.2,2.6,1.8c1.3,0.8,2.6,1.7,3.9,2.8c2.6,2.4,4.4,5.5,5.1,8.7c0.7,3.7,0,7.3-2.1,10.3c-2.4,3.3-6.2,5.6-10.5,6.1
			C432.6,415.1,431.6,415.1,430.6,415.1z M420.2,370.9c-2.7,4.2-6.4,12.1-5.1,22.9c0.1,0.8,1.8,17.7,15.5,17.7l0,0
			c0.8,0,1.7-0.1,2.5-0.2c3.3-0.4,6.2-2.1,8-4.6c1.5-2.2,2.1-4.8,1.5-7.5c-0.5-2.4-1.9-4.8-4-6.7c-1-0.9-2.2-1.7-3.4-2.5
			c-1-0.6-2-1.3-2.9-2c-5.4-4.4-9.1-8.7-11.1-13.4C420.9,373.3,420.4,372.1,420.2,370.9z"></path></g>
	</g>
	<g>
		<g id="change1_13"><path fill="#FFFFFF" d="M397.8,448.6L397.8,448.6c-0.4,0-0.8,0-1.1,0c-5.4-0.4-9.6-2.4-12.7-6c-6.1-7.3-4.9-18.3-4.9-18.8
			c1.5-18.4,14.1-26.7,14.6-27l0,0h0l0,0c0,0,0,0,0,0l0,0h0v0h0l0,0l0,0l0,0h0l0,0l0,0l0,0c0,0,0,0,0,0l0,0h0l0,0l0,0l0,0h0l0,0
			c0,0,0,0,0,0l0,0c0,0,0,0,0,0v0c0,0,0,0,0,0l0,0c0,0,0,0,0,0l0,0h0l0,0c0,0,0,0,0,0l0,0c0,0,0,0,0,0l0,0c0,0,0,0,0,0l0,0h0
			c0,0,0,0,0,0c0,0,0,0,0,0l0,0l0,0l0,0h0l0,0c0,0,0,0,0,0l0,0c0,0,0,0,0,0l0,0c0,0,0,0,0,0l0,0h0l0,0c0,0,0,0,0,0l0,0c0,0,0,0,0,0
			s0,0,0,0h0l0,0h0c0.8-0.4,1.8-0.1,2.3,0.7c0.4,0.7,0.4,1.5-0.1,2.1c-0.1,0.3-0.1,0.9-0.2,2.5c0,1.4,0.1,2.6,0.4,3.9
			c0.9,4.4,3.3,8.9,7.4,13.8c0.7,0.8,1.4,1.6,2.2,2.3c1.1,1.1,2.2,2.2,3.2,3.6c2.1,2.9,3.2,6.3,3.2,9.5
			C412.4,442.7,406.1,448.6,397.8,448.6z M392.3,402.7c-3.5,3.6-8.7,10.6-9.6,21.4c0,0.1-1,10.1,4.1,16.1c2.4,2.8,5.8,4.4,10.1,4.7
			c5.7,0.3,11.8-3.1,11.8-9.9c0-2.5-0.9-5.1-2.5-7.4c-0.8-1.1-1.8-2.1-2.8-3.1c-0.8-0.8-1.7-1.7-2.4-2.6c-4.4-5.3-7.1-10.4-8.2-15.4
			C392.5,405.2,392.4,403.9,392.3,402.7z"></path></g>
	</g>
	<g>
		<g id="change1_14"><path fill="#FFFFFF" d="M358,474.6L358,474.6c-1.5,0-2.9-0.2-4.4-0.6c-5.2-1.4-9-4.3-11.2-8.5c-4.5-8.3-1.1-18.9-1-19.4
			c5.1-17.6,18.9-23.2,19.7-23.5c0,0,0,0,0,0c0.1-0.1,0.3-0.1,0.4-0.1l0,0h0c0,0,0,0,0,0l0,0c0.9-0.1,1.6,0.4,1.9,1.2
			c0.3,0.7,0,1.6-0.5,2.1c-0.1,0.3-0.3,0.9-0.7,2.4c-0.3,1.4-0.4,2.6-0.4,3.9c0,4.5,1.5,9.4,4.5,15c0.5,1,1.1,1.9,1.7,2.8
			c0.8,1.3,1.7,2.6,2.4,4.1c1.5,3.3,1.9,6.8,1.2,10C370.4,470.3,364.9,474.6,358,474.6z M358.7,428.2c-4.2,2.8-10.6,8.6-13.7,19
			c0,0.1-3,9.6,0.7,16.6c1.7,3.2,4.8,5.5,8.9,6.6c1.1,0.3,2.3,0.5,3.4,0.5c5.2,0,9.2-3.1,10.2-7.8c0.5-2.4,0.2-5.2-1-7.7
			c-0.5-1.2-1.3-2.4-2.1-3.6c-0.7-1-1.3-2-1.9-3c-3.3-6.1-4.9-11.6-4.9-16.7C358.3,430.7,358.4,429.4,358.7,428.2z"></path></g>
	</g>
	<g>
		<g id="change1_15"><path fill="#FFFFFF" d="M313.7,492L313.7,492c-2.5,0-5-0.6-7.3-1.8c-4.8-2.5-7.9-6-9.3-10.5c-2.7-9.1,2.7-18.8,2.9-19.2
			c8.7-16.3,23.5-18.9,24.1-19l0,0c1-0.2,1.9,0.5,2.1,1.5c0.1,0.8-0.3,1.6-0.9,1.9c-0.2,0.2-0.5,0.8-1.1,2.2c-0.6,1.3-1,2.5-1.2,3.7
			c-0.9,4.4-0.4,9.5,1.4,15.6c0.3,1,0.7,2,1.1,3c0.6,1.4,1.2,2.9,1.5,4.5c0.8,3.5,0.5,7-0.8,10C324,489,319.3,492,313.7,492z
			 M320.5,446.4c-4.7,1.9-12.2,6.3-17.2,15.8c-0.1,0.1-4.9,8.8-2.6,16.4c1.1,3.5,3.6,6.3,7.4,8.3c1.8,0.9,3.7,1.4,5.6,1.4l0,0
			c4.1,0,7.5-2.2,9.1-5.8c1-2.3,1.2-5,0.6-7.8c-0.3-1.3-0.8-2.6-1.3-3.9c-0.4-1.1-0.9-2.2-1.2-3.4c-2-6.7-2.4-12.3-1.4-17.3
			C319.7,448.8,320,447.6,320.5,446.4z"></path></g>
	</g>
	<g>
		<g id="change1_16"><path fill="#FFFFFF" d="M266.6,500.1L266.6,500.1c-3.5,0-6.9-1.3-9.8-3.5c-4.2-3.4-6.5-7.5-6.9-12.2c-0.8-9.4,6.4-17.8,6.8-18.2
			c10.8-13.1,24.5-13.8,27.1-13.8v0c0.1,0,0.2,0,0.2,0l0,0c0,0,0,0,0.1,0h0c1,0,1.8,0.8,1.8,1.8c0,0.9-0.6,1.6-1.4,1.8
			c-0.2,0.2-0.7,0.7-1.5,1.9c-0.8,1.2-1.4,2.2-1.9,3.4c-1.8,4.1-2.3,9.2-1.8,15.5c0.1,1.1,0.3,2.1,0.5,3.2c0.3,1.5,0.6,3.1,0.6,4.7
			c0,3.6-1,7-2.8,9.7C274.9,498.1,271,500.1,266.6,500.1z M279.5,456.5c-5,0.9-13.2,3.7-20.1,12c-0.1,0.1-6.6,7.7-5.9,15.5
			c0.3,3.7,2.2,6.9,5.6,9.7c2.2,1.8,4.8,2.7,7.5,2.7l0,0c3.2,0,6-1.4,7.9-4.1c1.4-2,2.2-4.7,2.2-7.5c0-1.4-0.3-2.7-0.5-4.1
			c-0.2-1.2-0.4-2.3-0.5-3.5c-0.6-6.9,0.1-12.6,2.1-17.3C278.2,458.7,278.8,457.6,279.5,456.5z"></path></g>
	</g>
	<g>
		<g id="change1_17"><path fill="#FFFFFF" d="M218.6,498.6L218.6,498.6c-4.3,0-8.7-2.1-11.6-5.7c-3.4-4.2-4.9-8.6-4.3-13.3c1.1-9.4,9.9-16.2,10.3-16.5
			c8.8-7.1,17.7-8.5,23.7-8.5c3.6,0,5.9,0.6,6,0.6l0,0c1,0.2,1.6,1.2,1.3,2.2c-0.2,0.8-0.9,1.3-1.6,1.4c-0.2,0.1-0.8,0.5-1.9,1.6
			c-1,1-1.8,1.9-2.6,2.9c-2.5,3.7-4.1,8.5-4.9,14.9c-0.1,1.1-0.1,2.1-0.2,3.2c0,1.5-0.1,3.2-0.4,4.8c-0.7,3.5-2.3,6.7-4.7,8.9
			C225.1,497.3,222,498.6,218.6,498.6z M236.6,458.2c-5.4,0-13.4,1.3-21.4,7.8c-0.1,0.1-8,6.2-8.9,14c-0.4,3.7,0.8,7.2,3.5,10.6
			c4,4.8,11,5.8,15.3,1.8c1.8-1.7,3.1-4.2,3.6-6.9c0.3-1.3,0.3-2.7,0.3-4.2c0-1.2,0.1-2.4,0.2-3.5c0.8-6.9,2.6-12.3,5.5-16.5
			c0.8-1.1,1.6-2.1,2.5-3C237.1,458.2,236.8,458.2,236.6,458.2z"></path></g>
	</g>
	<g>
		<g id="change1_18"><path fill="#FFFFFF" d="M171.8,487.3L171.8,487.3c-5.2,0-10.2-3.1-12.9-8.2c-2.5-4.8-3-9.5-1.6-13.9c3-9,13-13.8,13.4-14
			c5.6-2.9,11.5-4.3,17.6-4.3c7.6,0,12.7,2.4,13.1,2.5l0,0c0.1,0,0.2,0.1,0.3,0.2c0,0,0,0,0,0l0,0c0.7,0.5,0.9,1.4,0.6,2.2
			c-0.4,0.7-1.1,1.2-1.9,1c-0.2,0.1-0.8,0.3-2.1,1.2c-1.2,0.7-2.2,1.5-3.1,2.4c-3.2,3.1-5.8,7.5-7.8,13.5c-0.3,1-0.6,2.1-0.8,3.1
			c-0.3,1.5-0.7,3-1.3,4.6c-1.4,3.3-3.6,6-6.4,7.7C176.5,486.6,174.2,487.3,171.8,487.3z M188.3,450.4c-5.5,0-10.8,1.3-15.9,4
			c-0.1,0.1-9.1,4.4-11.6,11.9c-1.2,3.5-0.7,7.2,1.3,11.1c2,3.8,5.8,6.3,9.6,6.3l0,0c1.7,0,3.4-0.5,5-1.5c2.1-1.3,3.9-3.4,5-6
			c0.5-1.2,0.8-2.6,1.1-4c0.3-1.2,0.5-2.3,0.9-3.5c2.2-6.6,5.1-11.5,8.8-15c1-0.9,2-1.7,3-2.4C193.7,450.8,191.2,450.4,188.3,450.4z
			"></path></g>
	</g>
	<g>
		<g id="change1_19"><path fill="#FFFFFF" d="M128.1,466.8c-6.2,0-11.6-4.4-13.5-10.9c-1.5-5.2-1.1-9.9,1.3-14c4.7-8.2,15.5-10.9,16-11
			c3.5-1,7-1.5,10.6-1.5c11.9,0,19.4,5.5,19.8,5.9l0,0c0,0,0,0,0,0c0.8,0.6,1,1.8,0.3,2.6c-0.5,0.6-1.3,0.9-2,0.6
			c-0.3,0-0.9,0.2-2.4,0.7c-1.4,0.5-2.5,1-3.6,1.7c-3.8,2.4-7.2,6.2-10.4,11.7c-0.5,0.9-1,1.9-1.4,2.9c-0.6,1.4-1.3,2.9-2.2,4.2
			c-2,3-4.8,5.2-7.9,6.3C131.2,466.5,129.7,466.8,128.1,466.8z M142.4,433.1c-3.2,0-6.4,0.4-9.6,1.3c-0.1,0-9.8,2.5-13.7,9.3
			c-1.8,3.2-2.2,6.9-0.9,11.1c1.8,6.1,7.8,9.7,13.4,7.7c2.3-0.8,4.5-2.6,6.1-4.9c0.8-1.1,1.3-2.4,1.9-3.7c0.5-1.1,1-2.2,1.6-3.2
			c3.5-6,7.3-10.3,11.6-13c1.1-0.7,2.3-1.3,3.5-1.7C153.1,434.7,148.3,433.1,142.4,433.1z"></path></g>
	</g>
	<g>
		<g id="change1_20"><path fill="#FFFFFF" d="M89.6,438L89.6,438c-7.2,0-13.1-5.9-13.7-13.7c-0.4-5.4,0.9-9.9,4.1-13.4c6.3-7.1,17.4-7.6,17.9-7.6
			c0.9-0.1,1.8-0.1,2.7-0.1c15.2,0,24,8.3,25.8,10.2c0.5,0.3,0.9,0.9,0.9,1.6c0,1-0.8,1.8-1.9,1.8c-0.5,0-0.6-0.1-0.9-0.2
			c-1-0.2-2,0.1-2.5,0.2c-1.4,0.2-2.6,0.5-3.8,0.9c-4.2,1.6-8.3,4.6-12.5,9.4c-0.7,0.8-1.4,1.7-2,2.5c-0.9,1.2-1.9,2.5-3,3.7
			c-2.5,2.5-5.7,4.1-9,4.6C90.9,437.9,90.3,438,89.6,438z M100.6,406.8c-0.8,0-1.7,0-2.6,0.1c-0.1,0-10.1,0.5-15.3,6.4
			c-2.4,2.8-3.5,6.4-3.2,10.7c0.5,5.9,4.8,10.3,10.1,10.3l0,0c0.5,0,1,0,1.5-0.1c2.5-0.4,4.9-1.6,6.9-3.6c1-0.9,1.8-2.1,2.7-3.2
			c0.7-1,1.4-1.9,2.2-2.8c4.6-5.2,9.2-8.6,14-10.4c1.3-0.5,2.5-0.8,3.7-1C116.9,410.5,110.1,406.8,100.6,406.8z"></path></g>
	</g>
	<g>
		<g id="change1_21"><path fill="#FFFFFF" d="M57.9,401.9c-0.3,0-0.6,0-0.9,0c-3.7-0.2-7.1-1.9-9.4-4.7c-2.6-3.1-3.8-7.4-3.3-11.7
			c1.3-10.5,9-16.5,21.2-16.5c2.6,0,4.4,0.3,4.5,0.3c18.2,2.5,25.8,15.4,26.1,16.1l0,0c0.1,0.1,0.1,0.2,0.2,0.4
			c0.2,0.8-0.1,1.7-0.8,2.1c-0.7,0.4-1.5,0.3-2.1-0.2c-0.3-0.1-0.9-0.2-2.5-0.3c-0.6,0-1,0-1.3,0c-0.9,0-1.8,0.1-2.6,0.2
			c-4.4,0.7-9.1,2.9-14.2,6.6c-0.9,0.6-1.7,1.4-2.5,2.1c-1.1,1-2.3,2.1-3.7,3C64,401,60.9,401.9,57.9,401.9z M65.6,372.7
			c-7.3,0-16.2,2.3-17.6,13.3c-0.4,3.3,0.5,6.6,2.4,8.9c1.7,2,4.1,3.2,6.8,3.4l0.6,0c2.3,0,4.7-0.7,6.9-2.1c1.1-0.7,2.2-1.6,3.2-2.6
			c0.9-0.8,1.8-1.6,2.7-2.3c5.6-4.2,10.8-6.5,15.8-7.3c1.3-0.2,2.5-0.3,3.9-0.2c-3.4-3.7-10.1-9.3-20.8-10.7
			C69.5,372.9,67.9,372.7,65.6,372.7z"></path></g>
	</g>
	<g>
		<g id="change1_22"><path fill="#FFFFFF" d="M34.3,360.3c-1.3,0-2.6-0.2-3.9-0.5c-3.6-1-6.5-3.3-8.2-6.5c-1.9-3.6-2.2-8-0.8-12.1
			c3.5-10.3,11.6-12.5,17.8-12.5c5.7,0,10.4,1.8,10.6,1.9C65.5,336,70.9,348.2,72,351c0.2,0.3,0.4,0.7,0.4,1.1c0,1-0.9,1.8-1.9,1.8
			h0c-0.6,0-1.1-0.3-1.5-0.7c-0.3-0.1-0.9-0.4-2.4-0.8c-1.4-0.4-2.6-0.6-3.9-0.6c-4.7-0.3-9.5,1-15.2,3.6c-1,0.5-1.9,1-2.8,1.5
			c-1.3,0.8-2.7,1.6-4.3,2.2C38.4,359.9,36.4,360.3,34.3,360.3z M39.2,332.3c-7.3,0-12.1,3.4-14.4,10c-1.1,3.2-0.9,6.5,0.6,9.3
			c1.3,2.4,3.3,4,6,4.7c2.4,0.6,5.2,0.4,7.8-0.5c1.3-0.5,2.5-1.2,3.7-1.9c1-0.6,2.1-1.2,3.1-1.7c6.3-2.9,11.8-4.3,16.9-4
			c1.3,0.1,2.6,0.2,3.8,0.5c-2.6-4.3-8-11.1-18.2-14.7C48.4,333.9,44.2,332.3,39.2,332.3z"></path></g>
	</g>
	<g>
		<g id="change1_23"><path fill="#FFFFFF" d="M53.6,315.5c-0.7,0-1.4-0.4-1.7-1.1c-0.2-0.2-0.8-0.5-2.2-1.3c-1.2-0.6-2.4-1.1-3.6-1.4
			c-4.3-1.1-9.5-1-15.6,0.5c-1.1,0.2-2.1,0.6-3.1,0.9c-1.5,0.5-3,1-4.6,1.3c-3.5,0.5-7.1,0.1-10-1.4c-3.3-1.7-5.7-4.5-6.8-8
			c-1.2-3.9-0.6-8.3,1.6-12.1c3.5-6,8.8-9.2,15.3-9.2c7.7,0,14.4,4.3,14.7,4.5c14.2,8.6,17.1,21.5,17.6,24.5
			c0.1,0.2,0.2,0.5,0.2,0.8C55.5,314.7,54.7,315.5,53.6,315.5C53.7,315.5,53.6,315.5,53.6,315.5z M23,287.5c-5.2,0-9.3,2.5-12.2,7.3
			c-1.7,2.9-2.2,6.2-1.3,9.2c0.8,2.6,2.4,4.6,4.9,5.8c2.2,1.1,5,1.5,7.7,1c1.3-0.2,2.6-0.7,4-1.1c1.1-0.4,2.3-0.8,3.4-1
			c6.8-1.6,12.5-1.8,17.4-0.5c1.3,0.3,2.5,0.8,3.6,1.3c-1.6-4.8-5.6-12.5-14.9-18.1C35.7,291.4,29.6,287.5,23,287.5z"></path></g>
	</g>
	<g>
		<g id="change1_24"><path fill="#FFFFFF" d="M44.9,274.5c-0.1,0-0.1,0-0.2,0c-0.8-0.1-1.4-0.7-1.6-1.4c-0.2-0.2-0.7-0.7-1.9-1.7
			c-1.1-0.9-2.1-1.5-3.3-2.1c-4.1-2-9.3-2.8-15.4-2.7c-1.1,0-2.1,0.2-3.2,0.3c-1.4,0.2-2.7,0.3-4.1,0.3l-0.7,0
			c-3.6-0.2-6.9-1.3-9.5-3.4c-2.9-2.3-4.7-5.6-5-9.2c-0.3-4.1,1.1-8.2,4-11.5c3.7-4.2,8.1-6.3,13.1-6.3c9.2,0,16.9,7.5,17.3,7.8
			c13.4,12.4,12.3,27.3,12.3,28.1v0c0,0.2,0,0.3-0.1,0.4c0,0,0,0,0,0v0l0,0c0,0,0,0,0,0v0c0,0,0,0,0,0l0,0
			C46.3,274,45.6,274.5,44.9,274.5z M24.2,262.9c6.1,0,11.2,1,15.4,3.1c1.2,0.6,2.3,1.3,3.3,2c-0.6-5-3-13.4-10.9-20.7
			c-0.1-0.1-7-6.8-14.7-6.8c-3.9,0-7.4,1.7-10.4,5.1c-2.2,2.5-3.4,5.7-3.1,8.7c0.2,2.7,1.5,5,3.6,6.7c1.9,1.5,4.6,2.5,7.4,2.6l0.5,0
			c1.2,0,2.4-0.2,3.6-0.3c1.2-0.1,2.4-0.3,3.5-0.3C23,263,23.6,262.9,24.2,262.9z"></path></g>
	</g>
	<g>
		<g id="change1_25"><path fill="#FFFFFF" d="M44.6,232.5c-0.2,0-0.4,0-0.5-0.1c-0.8-0.2-1.3-0.9-1.3-1.7c-0.1-0.2-0.5-0.8-1.5-2
			c-0.9-1.1-1.8-1.9-2.8-2.7c-3.5-2.8-8.3-4.6-14.5-5.7c-1.1-0.2-2.1-0.3-3.2-0.4c-1.5-0.1-3.1-0.2-4.7-0.6
			c-3.5-0.9-6.5-2.7-8.6-5.2c-2.4-2.9-3.5-6.4-3-10c0.5-4,2.8-7.8,6.3-10.4c3.5-2.5,7.1-3.8,10.8-3.8c10.8,0,18.3,11,18.6,11.4
			c10.7,14.9,6.6,29.2,6.3,30c0,0,0,0,0,0c0,0.1-0.1,0.3-0.2,0.4l0,0c0,0,0,0,0,0l0,0c0,0,0,0,0,0l0,0v0c0,0,0,0,0,0l0,0
			C45.8,232.2,45.2,232.5,44.6,232.5z M21.4,193.4c-2.9,0-5.8,1-8.6,3.1c-2.7,2-4.5,4.9-4.8,7.9c-0.3,2.6,0.4,5.2,2.2,7.3
			c1.6,1.9,4,3.3,6.7,4c1.3,0.3,2.7,0.4,4.1,0.5c1.2,0.1,2.4,0.2,3.6,0.4c6.9,1.2,12.1,3.3,16.2,6.4c1,0.8,2,1.7,2.8,2.6
			c0.4-5-0.2-13.7-6.5-22.5C36.9,203.1,30.3,193.4,21.4,193.4z"></path></g>
	</g>
	<g>
		<g id="change1_26"><path fill="#FFFFFF" d="M52.8,191.4c-0.3,0-0.6-0.1-0.9-0.2c-0.7-0.4-1-1.2-0.9-1.9c-0.1-0.3-0.3-0.9-1.1-2.3
			c-0.6-1.2-1.3-2.2-2.2-3.2c-2.9-3.4-7.2-6.2-13.1-8.5c-1-0.4-2-0.7-3.1-1c-1.5-0.4-3-0.9-4.5-1.6c-3.2-1.5-5.8-4-7.4-6.8
			c-1.8-3.3-2.1-7-0.9-10.5c1.3-3.9,4.3-7.1,8.3-8.9c2.7-1.3,5.5-1.9,8.1-1.9c12.8,0,18.9,14.7,19.2,15.3
			c7.4,16.7,0.5,29.9,0.1,30.7c0,0,0,0,0,0C54.1,191.1,53.4,191.4,52.8,191.4z M35.1,148.1c-2.1,0-4.3,0.5-6.6,1.6
			c-3,1.4-5.3,3.9-6.3,6.8c-0.8,2.5-0.6,5.1,0.7,7.6c1.2,2.2,3.2,4.1,5.8,5.3c1.2,0.6,2.5,1,3.9,1.4c1.1,0.3,2.3,0.7,3.4,1.1
			c6.5,2.6,11.2,5.7,14.5,9.6c0.9,1,1.6,2.1,2.2,3.1c1.4-4.8,2.6-13.4-1.8-23.3C50.8,161,45.4,148.1,35.1,148.1z"></path></g>
	</g>
	<g>
		<g id="change1_27"><path fill="#FFFFFF" d="M69.1,152.8c-0.4,0-0.8-0.1-1.2-0.4c-0.6-0.5-0.8-1.4-0.5-2.1c0-0.3-0.1-0.9-0.6-2.5
			c-0.4-1.3-0.9-2.4-1.5-3.6c-2.2-3.9-5.8-7.5-11.1-11c-0.9-0.6-1.9-1.1-2.8-1.6c-1.4-0.7-2.8-1.5-4.1-2.5c-2.8-2.2-4.9-5.1-5.9-8.2
			c-1.1-3.6-0.7-7.3,1.2-10.4c2-3.5,5.6-6.1,9.9-7.1c1.7-0.4,3.3-0.6,4.8-0.6c12.3,0,17.9,12.5,19.2,19.2c3.9,18-5.6,29.5-6.1,30.1
			l0,0l0,0C70.1,152.5,69.6,152.8,69.1,152.8z M57.4,106.5c-1.3,0-2.6,0.2-4,0.5c-3.3,0.8-6,2.7-7.6,5.4c-1.3,2.3-1.6,4.9-0.8,7.6
			c0.7,2.4,2.3,4.6,4.6,6.3c1.1,0.8,2.3,1.5,3.6,2.1c1.1,0.6,2.1,1.1,3.1,1.8c5.8,3.8,9.8,7.8,12.3,12.3c0.6,1.2,1.2,2.4,1.5,3.5
			c2.3-4.5,5.2-12.7,2.9-23.2C72.9,122.1,69.8,106.5,57.4,106.5z"></path></g>
	</g>
	<g>
		<g id="change1_28"><path fill="#FFFFFF" d="M92.9,118.2c-0.5,0-1.1-0.2-1.4-0.7c-0.5-0.6-0.5-1.5-0.1-2.1c0-0.3,0.1-1-0.1-2.5
			c-0.1-1.4-0.3-2.6-0.7-3.8c-1.3-4.3-4.2-8.5-8.7-13c-0.8-0.8-1.6-1.4-2.4-2.1c-1.2-1-2.4-2-3.5-3.2c-2.3-2.7-3.8-5.9-4.1-9.2
			c-0.3-3.7,0.8-7.3,3.3-10c2.7-3,6.8-4.8,11.1-4.9l0.6,0c5.2,0,9.5,1.7,12.7,5c6.6,6.7,6.5,17.6,6.4,18.1
			c0.2,18.5-11.5,27.8-12,28.2c0,0-0.1,0-0.1,0.1l0,0h0l0,0c0,0,0,0,0,0l0,0c0,0,0,0,0,0h0c0,0,0,0,0,0c0,0,0,0,0,0v0c0,0,0,0,0,0
			l0,0c0,0,0,0,0,0l0,0c0,0,0,0,0,0l0,0c0,0,0,0,0,0s0,0,0,0l0,0h0v0c0,0,0,0,0,0l0,0c0,0,0,0,0,0h0c0,0,0,0,0,0h0l0,0c0,0,0,0,0,0
			s0,0,0,0l0,0c0,0,0,0,0,0l0,0c0,0,0,0,0,0s0,0,0,0c0,0,0,0,0,0v0h0l0,0c0,0,0,0,0,0l0,0l0,0c0,0,0,0,0,0h0l0,0c0,0,0,0,0,0l0,0h0
			l0,0c0,0,0,0,0,0l0,0l0,0C93.5,118.2,93.2,118.2,92.9,118.2z M86.9,70.2l-0.5,0c-3.3,0.1-6.4,1.4-8.5,3.7c-1.8,2-2.6,4.5-2.4,7.2
			c0.2,2.5,1.4,5,3.2,7.1c0.9,1,1.9,1.9,3.1,2.8c0.9,0.8,1.8,1.5,2.7,2.4c4.9,4.9,8.1,9.7,9.6,14.5c0.4,1.3,0.7,2.5,0.8,3.8
			c3.2-3.9,7.7-11.3,7.5-22.2c0-0.1,0.1-10-5.4-15.5C94.5,71.5,91.1,70.2,86.9,70.2z"></path></g>
	</g>
	<g>
		<g id="change1_29"><path fill="#FFFFFF" d="M123.2,89.2c-0.7,0-1.3-0.4-1.6-1c-0.4-0.7-0.2-1.6,0.3-2.1c0.1-0.3,0.2-0.9,0.4-2.5
			c0.2-1.4,0.2-2.6,0.1-3.9c-0.4-4.5-2.3-9.2-5.8-14.5c-0.6-0.9-1.3-1.7-1.9-2.5c-1-1.2-2-2.5-2.8-3.9c-1.7-3.1-2.5-6.6-2.1-9.8
			c0.9-8,8.5-13.3,17.1-11.7c5.3,0.9,9.3,3.4,11.9,7.4c5.2,7.9,2.9,18.8,2.8,19.2C138,81.8,124.8,88.6,124,89c0,0,0,0,0,0
			c-0.1,0-0.2,0.1-0.3,0.1c0,0,0,0,0,0l0,0C123.5,89.2,123.3,89.2,123.2,89.2z M123.8,40.6c-4.6,0-9.9,2.7-10.6,8.8
			c-0.3,2.5,0.3,5.2,1.7,7.6c0.7,1.2,1.5,2.3,2.5,3.4c0.7,0.9,1.5,1.8,2.1,2.8c3.8,5.8,5.9,11.1,6.4,16.2c0.1,1.3,0.1,2.6,0,3.9
			c3.9-3.2,9.8-9.6,11.9-20.2c0-0.1,2.1-9.9-2.3-16.5c-2-3.1-5.2-5-9.5-5.8C125.4,40.7,124.6,40.6,123.8,40.6z"></path></g>
	</g>
	<g>
		<g id="change1_30"><path fill="#FFFFFF" d="M158.7,66.9c-0.8,0-1.5-0.5-1.8-1.4c-0.2-0.8,0.1-1.6,0.8-2c0.1-0.2,0.4-0.8,0.9-2.4
			c0.4-1.3,0.7-2.5,0.8-3.8c0.5-4.5-0.4-9.5-2.8-15.4c-0.4-1-0.9-1.9-1.4-2.9c-0.7-1.4-1.4-2.8-2-4.4c-1.1-3.4-1.1-7-0.1-10.1
			c1.9-5.7,6.9-9.2,13.1-9.2c2,0,4.1,0.4,6,1.2c5,2,8.4,5.2,10.2,9.6c3.5,8.8-1,18.9-1.2,19.4c-7.1,17-21.6,21-22.2,21.2l0,0l0,0
			C159,66.9,158.8,66.9,158.7,66.9z M166.3,19.1c-4.6,0-8.3,2.6-9.6,6.7c-0.8,2.4-0.7,5.1,0.1,7.8c0.4,1.3,1,2.5,1.7,3.8
			c0.5,1,1.1,2.1,1.5,3.2c2.6,6.5,3.6,12.1,3,17.1c-0.1,1.3-0.4,2.6-0.8,3.8c4.5-2.3,11.5-7.4,15.7-17.4c0.1-0.1,4.1-9.2,1.1-16.6
			c-1.4-3.4-4.1-6-8.2-7.6C169.5,19.4,167.9,19.1,166.3,19.1z"></path></g>
	</g>
	<g>
		<g id="change1_31"><path fill="#FFFFFF" d="M198,52.2c-1,0-1.8-0.8-1.8-1.7c0-0.8,0.4-1.5,1.1-1.8c0.2-0.2,0.6-0.7,1.4-2.1c0.7-1.2,1.2-2.3,1.6-3.6
			c1.4-4.3,1.5-9.4,0.4-15.6c-0.2-1.1-0.5-2.1-0.8-3.1c-0.4-1.5-0.8-3-1-4.7c-0.4-3.6,0.3-7,1.9-9.9c2.4-4.2,6.7-6.7,11.6-6.7
			c3,0,6.1,0.9,8.7,2.7c4.5,3,7.2,6.8,8,11.5c1.7,9.3-4.8,18.4-5,18.7c-10.3,15.1-25.1,16.2-26,16.3C198,52.2,198,52.2,198,52.2z
			 M212.4,6.7c-3.6,0-6.7,1.8-8.5,4.9c-1.2,2.1-1.8,4.9-1.5,7.7c0.1,1.3,0.5,2.7,0.9,4.1c0.3,1.1,0.6,2.3,0.8,3.5
			c1.2,6.8,1.1,12.5-0.5,17.4c-0.4,1.3-0.9,2.5-1.5,3.5c4.8-1.4,12.8-4.9,18.9-13.8c0.1-0.1,5.9-8.2,4.4-16
			c-0.7-3.6-2.8-6.7-6.5-9.1C217.1,7.4,214.7,6.7,212.4,6.7z"></path></g>
	</g>
</g>
</svg>