<?xml version="1.0" encoding="utf-8"?><!DOCTYPE svg PUBLIC "-//W3C//DTD SVG 1.1//EN" "http://www.w3.org/Graphics/SVG/1.1/DTD/svg11.dtd">
<svg version="1.1" id="Layer_1" xmlns="http://www.w3.org/2000/svg" xmlns:xlink="http://www.w3.org/1999/xlink" x="0px" y="0px" viewBox="0 0 500 500.1" enable-background="new 0 0 500 500.1" xml:space="preserve">
<g>
	<g>
		<g id="change1_1"><path fill="#FFFFFF" d="M235.7,42.6c0,0,14.6,2,27.3-10.8c0,0,15.9-15,2.6-27.8c-5.2-5-13.3-5.7-18.2,0.1c-2,2.3-3.1,5.3-3.3,8.4
			c-0.2,2.7,0.4,5.3,0.3,7.9c0,5.5-0.8,11.4-3.5,16.3c-0.6,1.2-1.4,2.3-2.3,3.4C238.2,40.5,236.4,42.7,235.7,42.6z"></path></g>
	</g>
	<g>
		<g id="change1_2"><path fill="#FFFFFF" d="M277.9,43.9c0,0,13.9,4.9,28.9-5c0,0,18.6-11.5,8.2-26.7c-4-5.9-11.9-8.3-17.8-3.6
			c-2.4,1.9-4.1,4.6-4.9,7.5c-0.7,2.6-0.7,5.2-1.3,7.8c-1.2,5.4-3.1,10.9-6.7,15.2c-0.9,1-1.8,2-2.9,2.8
			C280.8,42.4,278.6,44.2,277.9,43.9z"></path></g>
	</g>
	<g>
		<g id="change1_3"><path fill="#FFFFFF" d="M319,53.7c0,0,12.6,7.6,29.3,0.9c0,0,20.5-7.5,13.4-24.5c-2.8-6.6-10-10.5-16.7-7.1
			c-2.8,1.4-4.9,3.7-6.3,6.4c-1.2,2.4-1.8,5-2.8,7.4c-2.2,5.1-5.3,10.1-9.6,13.6c-1.1,0.8-2.2,1.6-3.4,2.2
			C322.2,52.8,319.6,54.1,319,53.7z"></path></g>
	</g>
	<g>
		<g id="change1_4"><path fill="#FFFFFF" d="M357.3,71.6c0,0,10.9,10,28.5,6.8c0,0,21.6-3.2,18.1-21.3c-1.4-7.1-7.6-12.3-15-10.4c-3,0.8-5.6,2.6-7.5,5
			c-1.7,2.1-2.7,4.5-4.3,6.7c-3.2,4.5-7.2,8.8-12.2,11.3c-1.2,0.6-2.5,1.1-3.8,1.4C360.6,71.3,357.8,72.1,357.3,71.6z"></path></g>
	</g>
	<g>
		<g id="change1_5"><path fill="#FFFFFF" d="M391.1,96.9c0,0,8.6,12,26.6,12.4c0,0,21.8,1.2,22-17.2c0.1-7.2-5-13.6-12.6-13.2c-3.1,0.2-6,1.4-8.4,3.4
			c-2.1,1.7-3.6,3.9-5.5,5.7c-4,3.8-8.8,7.2-14.2,8.6c-1.3,0.4-2.7,0.6-4,0.6C394.4,97.3,391.6,97.5,391.1,96.9z"></path></g>
	</g>
	<g>
		<g id="change1_6"><path fill="#FFFFFF" d="M419.2,128.5c0,0,6,13.4,23.5,17.5c0,0,21.1,5.6,25.1-12.4c1.5-7-2.2-14.3-9.6-15.4
			c-3-0.5-6.1,0.2-8.9,1.6c-2.4,1.2-4.3,3.1-6.6,4.5c-4.7,2.9-10.1,5.3-15.7,5.6c-1.4,0.1-2.7,0-4.1-0.2
			C422.3,129.5,419.5,129.1,419.2,128.5z"></path></g>
	</g>
	<g>
		<g id="change1_7"><path fill="#FFFFFF" d="M440.3,165.1c0,0,3.2,14.4,19.5,21.9c0,0,19.6,9.7,27-7.1c2.9-6.6,0.8-14.4-6.3-17.1c-2.9-1.1-6.1-1-9-0.2
			c-2.6,0.7-4.8,2.1-7.3,3c-5.2,1.9-10.9,3.1-16.5,2.3c-1.3-0.2-2.7-0.5-3.9-1C443.2,166.7,440.5,165.8,440.3,165.1z"></path></g>
	</g>
	<g>
		<g id="change1_8"><path fill="#FFFFFF" d="M453.6,205.2c0,0,0.2,14.7,14.7,25.4c0,0,17.2,13.5,27.9-1.5c4.2-5.8,3.7-14-2.7-18
			c-2.6-1.6-5.7-2.2-8.8-2c-2.7,0.2-5.2,1.1-7.8,1.5c-5.5,0.8-11.4,0.8-16.6-1.1c-1.3-0.5-2.5-1-3.7-1.8
			C456.1,207.3,453.6,205.9,453.6,205.2z"></path></g>
	</g>
	<g>
		<g id="change1_9"><path fill="#FFFFFF" d="M458.6,247.1c0,0-2.8,14.5,9.2,27.8c0,0,14.1,16.7,27.7,4.2c5.3-4.9,6.4-13,0.9-18.2
			c-2.2-2.1-5.2-3.4-8.2-3.8c-2.6-0.4-5.3,0.1-7.9-0.1c-5.5-0.4-11.3-1.5-16.1-4.4c-1.2-0.7-2.3-1.5-3.2-2.5
			C460.5,249.7,458.4,247.8,458.6,247.1z"></path></g>
	</g>
	<g>
		<g id="change1_10"><path fill="#FFFFFF" d="M454.9,289.2c0,0-5.6,13.6,3.4,29.1c0,0,10.5,19.2,26.2,9.7c6.2-3.7,8.9-11.4,4.6-17.6
			c-1.7-2.5-4.4-4.3-7.2-5.3c-2.5-0.9-5.2-1-7.7-1.7c-5.3-1.5-10.8-3.7-14.8-7.5c-1-0.9-1.9-2-2.7-3.1
			C456.3,292.2,454.7,289.9,454.9,289.2z"></path></g>
	</g>
	<g>
		<g id="change1_11"><path fill="#FFFFFF" d="M442.9,329.7c0,0-8.3,12.2-2.5,29.2c0,0,6.4,20.9,23.7,14.8c6.8-2.4,11-9.4,8.1-16.3
			c-1.2-2.8-3.4-5.1-6-6.7c-2.3-1.4-4.9-2-7.2-3.2c-4.9-2.5-9.8-5.8-13-10.4c-0.8-1.1-1.5-2.3-2-3.6
			C443.6,332.9,442.5,330.3,442.9,329.7z"></path></g>
	</g>
	<g>
		<g id="change1_12"><path fill="#FFFFFF" d="M422.9,366.9c0,0-10.6,10.3-8.4,28.1c0,0,2,21.7,20.3,19.3c7.1-1,12.7-7,11.2-14.4c-0.6-3-2.3-5.7-4.5-7.8
			c-2-1.8-4.4-3-6.4-4.6c-4.3-3.4-8.4-7.7-10.7-12.8c-0.5-1.2-1-2.5-1.2-3.9C423,370.2,422.4,367.4,422.9,366.9z"></path></g>
	</g>
	<g>
		<g id="change1_13"><path fill="#FFFFFF" d="M395.8,399.3c0,0-12.4,7.9-13.9,25.9c0,0-2.4,21.7,16,23c7.2,0.5,13.8-4.3,13.9-11.8
			c0-3.1-1.1-6.1-2.9-8.5c-1.6-2.2-3.7-3.8-5.4-5.8c-3.5-4.2-6.7-9.2-7.9-14.7c-0.3-1.3-0.4-2.7-0.4-4.1
			C395.2,402.6,395.2,399.7,395.8,399.3z"></path></g>
	</g>
	<g>
		<g id="change1_14"><path fill="#FFFFFF" d="M362.7,425.6c0,0-13.8,5.3-18.8,22.5c0,0-6.7,20.8,11,25.7c6.9,1.9,14.4-1.4,16-8.8c0.6-3,0.1-6.1-1.1-8.9
			c-1.1-2.4-2.8-4.5-4.1-6.8c-2.6-4.9-4.7-10.4-4.7-16c0-1.4,0.1-2.7,0.4-4.1C361.5,428.7,362,425.9,362.7,425.6z"></path></g>
	</g>
	<g>
		<g id="change1_15"><path fill="#FFFFFF" d="M325,444.7c0,0-14.5,2.4-23,18.3c0,0-10.8,19,5.6,27.4c6.4,3.3,14.4,1.6,17.4-5.4c1.2-2.8,1.4-6,0.7-9
			c-0.6-2.6-1.9-4.9-2.6-7.5c-1.6-5.3-2.5-11.1-1.4-16.6c0.3-1.3,0.7-2.6,1.2-3.9C323.2,447.5,324.3,444.8,325,444.7z"></path></g>
	</g>
	<g>
		<g id="change1_16"><path fill="#FFFFFF" d="M284.2,455.8c0,0-14.7-0.6-26.2,13.3c0,0-14.4,16.4-0.1,28c5.6,4.5,13.8,4.4,18.1-1.7
			c1.8-2.5,2.6-5.6,2.5-8.6c0-2.7-0.8-5.2-1.1-7.9c-0.5-5.5-0.2-11.4,2-16.5c0.5-1.3,1.2-2.5,2-3.6
			C281.9,458.1,283.5,455.7,284.2,455.8z"></path></g>
	</g>
	<g>
		<g id="change1_17"><path fill="#FFFFFF" d="M242.1,458.4c0,0-14.3-3.6-28.3,7.7c0,0-17.4,13.2-5.7,27.4c4.6,5.5,12.6,7.1,18.1,1.9
			c2.2-2.1,3.6-5,4.2-8c0.5-2.6,0.2-5.3,0.5-7.9c0.7-5.5,2.1-11.2,5.3-15.8c0.8-1.1,1.7-2.2,2.7-3.1
			C239.3,460.2,241.4,458.2,242.1,458.4z"></path></g>
	</g>
	<g>
		<g id="change1_18"><path fill="#FFFFFF" d="M200.2,452.4c0,0-13.3-6.4-29.3,1.8c0,0-19.7,9.4-11.1,25.7c3.4,6.3,10.9,9.5,17.3,5.6
			c2.6-1.6,4.6-4.1,5.7-6.9c1-2.5,1.3-5.1,2.1-7.6c1.8-5.2,4.3-10.5,8.3-14.4c1-0.9,2.1-1.8,3.2-2.5
			C197.2,453.7,199.6,452.1,200.2,452.4z"></path></g>
	</g>
	<g>
		<g id="change1_19"><path fill="#FFFFFF" d="M160.5,438.1c0,0-11.7-8.9-29-4.1c0,0-21.2,5.2-16.1,22.9c2,6.9,8.7,11.5,15.9,8.9c2.9-1,5.3-3.1,7-5.6
			c1.5-2.2,2.3-4.8,3.6-7.1c2.8-4.8,6.3-9.5,11.1-12.4c1.2-0.7,2.4-1.3,3.7-1.8C157.2,438.7,159.9,437.7,160.5,438.1z"></path></g>
	</g>
	<g>
		<g id="change1_20"><path fill="#FFFFFF" d="M124.4,416.1c0,0-9.7-11.1-27.6-9.9c0,0-21.8,0.8-20.3,19.2c0.6,7.2,6.2,13,13.7,12c3-0.4,5.8-2,8-4.1
			c1.9-1.9,3.2-4.2,5-6.2c3.7-4.1,8.1-8,13.4-9.9c1.3-0.5,2.6-0.8,3.9-1C121.1,416.1,124,415.6,124.4,416.1z"></path></g>
	</g>
	<g>
		<g id="change1_21"><path fill="#FFFFFF" d="M93.5,387.3c0,0-7.2-12.8-25-15.3c0,0-21.5-3.6-23.8,14.7c-0.9,7.1,3.5,14,11,14.5
			c3.1,0.2,6.1-0.8,8.7-2.4c2.2-1.4,4-3.5,6.1-5c4.4-3.3,9.6-6.2,15.1-7c1.3-0.2,2.7-0.3,4.1-0.2C90.3,386.6,93.2,386.7,93.5,387.3z
			"></path></g>
	</g>
	<g>
		<g id="change1_22"><path fill="#FFFFFF" d="M69.1,352.8c0,0-4.5-14-21.5-20c0,0-20.4-7.9-26.3,9.6c-2.3,6.8,0.6,14.4,7.9,16.4c3,0.8,6.1,0.5,9-0.6
			c2.5-1,4.6-2.6,7-3.7c5-2.3,10.6-4.1,16.2-3.8c1.4,0.1,2.7,0.3,4,0.6C66.1,351.5,68.9,352.1,69.1,352.8z"></path></g>
	</g>
	<g>
		<g id="change1_23"><path fill="#FFFFFF" d="M52.2,314.1c0,0-1.6-14.7-17-23.9c0,0-18.4-11.8-27.7,4.1c-3.6,6.2-2.3,14.3,4.4,17.7
			c2.7,1.4,5.9,1.7,8.9,1.2c2.6-0.4,5-1.6,7.6-2.2c5.4-1.3,11.2-1.9,16.6-0.5c1.3,0.3,2.6,0.8,3.8,1.4
			C49.5,312.2,52.1,313.4,52.2,314.1z"></path></g>
	</g>
	<g>
		<g id="change1_24"><path fill="#FFFFFF" d="M43.4,272.8c0,0,1.4-14.7-11.8-26.9c0,0-15.6-15.3-27.9-1.6c-4.8,5.3-5.2,13.5,0.7,18.2
			c2.4,1.9,5.4,2.9,8.5,3c2.7,0.1,5.3-0.5,7.9-0.6c5.5-0.2,11.4,0.4,16.4,2.9c1.2,0.6,2.4,1.3,3.4,2.2
			C41.1,270.4,43.4,272.1,43.4,272.8z"></path></g>
	</g>
	<g>
		<g id="change1_25"><path fill="#FFFFFF" d="M43.1,230.6c0,0,4.3-14.1-6.1-28.7c0,0-12.2-18.1-27-7.2c-5.8,4.3-7.8,12.2-2.9,18c2,2.4,4.8,3.9,7.7,4.6
			c2.6,0.6,5.3,0.5,7.9,1c5.4,1,11.1,2.7,15.5,6.1c1.1,0.8,2.1,1.8,2.9,2.8C41.4,227.7,43.3,229.9,43.1,230.6z"></path></g>
	</g>
	<g>
		<g id="change1_26"><path fill="#FFFFFF" d="M51.3,189.1c0,0,7.1-12.9-0.2-29.3c0,0-8.3-20.2-25-12.5c-6.5,3-10.1,10.4-6.5,17c1.5,2.7,3.9,4.8,6.6,6.1
			c2.4,1.2,5,1.6,7.5,2.6c5.1,2,10.3,4.9,13.9,9.1c0.9,1,1.7,2.2,2.3,3.4C50.3,186,51.7,188.5,51.3,189.1z"></path></g>
	</g>
	<g>
		<g id="change1_27"><path fill="#FFFFFF" d="M67.8,150.2c0,0,9.6-11.2,5.7-28.8c0,0-4-21.5-22-17.3c-7,1.6-12,8.1-9.8,15.3c0.9,2.9,2.8,5.5,5.2,7.3
			c2.1,1.6,4.6,2.6,6.8,4c4.6,3,9.1,6.8,11.8,11.7c0.7,1.2,1.2,2.4,1.6,3.8C67.4,146.9,68.2,149.7,67.8,150.2z"></path></g>
	</g>
	<g>
		<g id="change1_28"><path fill="#FFFFFF" d="M91.7,115.4c0,0,11.6-9.1,11.4-27c0,0,0.4-21.8-18-21.4c-7.2,0.2-13.4,5.5-12.7,13
			c0.3,3.1,1.7,5.9,3.7,8.2c1.7,2,4,3.4,5.9,5.3c3.9,3.9,7.5,8.5,9.2,13.9c0.4,1.3,0.7,2.6,0.8,4C92,112.1,92.3,115,91.7,115.4z"></path></g>
	</g>
	<g>
		<g id="change1_29"><path fill="#FFFFFF" d="M122.2,86.2c0,0,13.2-6.5,16.6-24.2c0,0,4.8-21.3-13.3-24.6c-7.1-1.3-14.2,2.7-15.1,10.2
			c-0.4,3,0.4,6.1,1.9,8.8c1.3,2.3,3.2,4.2,4.7,6.4c3,4.6,5.6,9.9,6.2,15.5c0.1,1.4,0.1,2.7,0,4.1C123.1,83,122.9,85.9,122.2,86.2z"></path></g>
	</g>
	<g>
		<g id="change1_30"><path fill="#FFFFFF" d="M158,63.7c0,0,14.3-3.7,21.2-20.3c0,0,9-19.9-8.1-26.8c-6.7-2.7-14.5-0.2-16.8,7c-1,2.9-0.8,6.1,0.1,9
			c0.8,2.5,2.3,4.7,3.3,7.2c2.1,5.1,3.5,10.8,2.9,16.4c-0.1,1.4-0.4,2.7-0.9,4C159.5,60.8,158.7,63.5,158,63.7z"></path></g>
	</g>
	<g>
		<g id="change1_31"><path fill="#FFFFFF" d="M197.6,48.9c0,0,14.7-0.8,24.8-15.6c0,0,12.8-17.7-2.5-27.8c-6-4-14.1-3.1-17.9,3.4
			c-1.5,2.7-2,5.8-1.7,8.8c0.3,2.6,1.3,5.1,1.8,7.7c1,5.4,1.3,11.3-0.4,16.6c-0.4,1.3-1,2.6-1.6,3.7
			C199.7,46.3,198.3,48.9,197.6,48.9z"></path></g>
	</g>
</g>
</svg>