<?xml version="1.0" encoding="utf-8"?>
<!-- Generator: Adobe Illustrator 21.0.0, SVG Export Plug-In . SVG Version: 6.00 Build 0)  -->
<svg version="1.1" id="Circle-Dashed4-D5" xmlns="http://www.w3.org/2000/svg" xmlns:xlink="http://www.w3.org/1999/xlink" x="0px"
	 y="0px" viewBox="0 0 500 500" enable-background="new 0 0 500 500" xml:space="preserve">
<g id="change1">
	<circle fill="#FF7055" cx="250" cy="250" r="244.9319"/>
</g>
<g id="change2">
	<path fill="#E2331B" d="M426.7764,73.2231C379.5573,26.0045,316.7776,0,250,0S120.4422,26.0045,73.2231,73.2231
		C26.0045,120.4422,0,183.2224,0,250s26.0045,129.5573,73.2231,176.7764C120.4422,473.9955,183.2228,500,250,500
		c66.7776,0,129.5573-26.0045,176.7764-73.2236C473.9955,379.5573,500,316.7776,500,250
		C500,183.2228,473.9955,120.4422,426.7764,73.2231z M419.6088,419.6088C374.3051,464.9136,314.0694,489.8639,250,489.8639
		c-64.0699,0-124.3051-24.9503-169.6093-70.2551C35.0864,374.3051,10.1361,314.0694,10.1361,250
		c0-64.0699,24.9503-124.3051,70.2546-169.6093C125.6949,35.0864,185.9301,10.1361,250,10.1361
		c64.0694,0,124.3051,24.9503,169.6088,70.2546C464.9136,125.6949,489.8639,185.9301,489.8639,250
		C489.8639,314.0694,464.9136,374.3051,419.6088,419.6088z"/>
	<path fill="#E2331B" d="M412.042,87.958C368.7588,44.6748,311.2119,20.8379,250,20.8379
		c-61.2114,0-118.7593,23.8369-162.042,67.1201C44.6748,131.2407,20.8379,188.7886,20.8379,250
		c0,61.2119,23.8369,118.7588,67.1201,162.042c43.2827,43.2832,100.8306,67.1201,162.042,67.1201
		c61.2119,0,118.7598-23.8369,162.042-67.1201c43.2832-43.2822,67.1201-100.8301,67.1201-162.042
		C479.1621,188.7886,455.3252,131.2407,412.042,87.958z M404.9717,404.9717C363.5771,446.3652,308.541,469.1621,250,469.1621
		c-58.5405,0-113.5767-22.7969-154.9712-64.1904C53.6348,363.5771,30.8379,308.54,30.8379,250S53.6348,136.4233,95.0288,95.0288
		C136.4233,53.6348,191.46,30.8379,250,30.8379s113.5771,22.7969,154.9717,64.1909
		c41.3936,41.3945,64.1904,96.4307,64.1904,154.9712C469.1621,308.541,446.3652,363.5771,404.9717,404.9717z"/>
	<path fill="#E2331B" d="M239.7998,46.5498c-2.7598,0.1401-4.8799,2.48-4.75,5.2402c0.1401,2.6797,2.3501,4.7598,5,4.7598
		c0.0801,0,0.1602-0.0098,0.2402-0.0098c2.7598-0.1401,4.8896-2.48,4.75-5.2402C244.9097,48.54,242.5601,46.4199,239.7998,46.5498z"
		/>
	<path fill="#E2331B" d="M142.3599,77.0298c-2.3398,1.46-3.0601,4.5498-1.5898,6.8901c0.9399,1.52,2.5698,2.3501,4.2397,2.3501
		c0.9102,0,1.8198-0.2402,2.6401-0.75c0.0098,0,0.0098,0,0.0098,0c2.3403-1.4702,3.0503-4.5503,1.5903-6.8901
		C147.79,76.2798,144.71,75.5698,142.3599,77.0298z"/>
	<path fill="#E2331B" d="M147.2998,414.2598c-2.3398-1.4697-5.4302-0.7598-6.8901,1.5801
		c-1.4697,2.3398-0.7598,5.4297,1.5801,6.8896c0.8203,0.5205,1.7402,0.7705,2.6499,0.7705c1.6602,0,3.29-0.8301,4.2402-2.3506
		C150.3496,418.8096,149.6396,415.7295,147.2998,414.2598z"/>
	<path fill="#E2331B" d="M109.77,102.25c-2,1.8999-2.0801,5.0698-0.1802,7.0698c0.98,1.0298,2.2998,1.5601,3.6299,1.5601
		c1.23,0,2.4702-0.46,3.4399-1.3799c2-1.9004,2.0801-5.0601,0.1802-7.0703C114.9399,100.4297,111.7798,100.3496,109.77,102.25z"/>
	<path fill="#E2331B" d="M164.4199,423.8193c-2.4702-1.2197-5.4702-0.21-6.6899,2.2705c-1.2202,2.4795-0.21,5.4795,2.27,6.7002
		c0.71,0.3496,1.4697,0.5098,2.21,0.5098c1.8398,0,3.6196-1.0195,4.4897-2.7803C167.9199,428.04,166.8999,425.04,164.4199,423.8193z
		"/>
	<path fill="#E2331B" d="M125.4297,88.8198c-2.1797,1.6899-2.5801,4.8301-0.8896,7.0098c0.98,1.27,2.46,1.9404,3.9497,1.9404
		c1.0703,0,2.1499-0.3403,3.0601-1.04c2.1899-1.6899,2.5898-4.8403,0.8901-7.02C130.75,87.5298,127.6196,87.1299,125.4297,88.8198z"
		/>
	<path fill="#E2331B" d="M109.29,390.3799c-1.9102,2-1.8301,5.1602,0.1597,7.0703c0.9702,0.9199,2.21,1.3799,3.4502,1.3799
		c1.3198,0,2.6401-0.5205,3.6299-1.5498c1.8999-2,1.8198-5.1709-0.1699-7.0703C114.3599,388.2998,111.1899,388.3799,109.29,390.3799
		z"/>
	<path fill="#E2331B" d="M239.8599,443.4395c-2.75-0.1396-5.1099,1.9805-5.25,4.7305c-0.1401,2.7598,1.98,5.1104,4.7397,5.25
		c0.0903,0.0098,0.1704,0.0098,0.2603,0.0098c2.6401,0,4.8501-2.0703,4.9897-4.7402
		C244.7397,445.9297,242.6196,443.5801,239.8599,443.4395z"/>
	<path fill="#E2331B" d="M199.0601,52.7197c-2.6704,0.6899-4.2803,3.4199-3.5903,6.0903c0.5801,2.2598,2.6099,3.7598,4.8403,3.7598
		c0.4097,0,0.8296-0.0498,1.25-0.1602c2.6699-0.6899,4.2798-3.4199,3.5898-6.0898C204.46,53.6396,201.7397,52.0298,199.0601,52.7197
		z"/>
	<path fill="#E2331B" d="M220.3496,441.4395c-2.73-0.4199-5.2798,1.46-5.6997,4.1904c-0.4199,2.7295,1.4497,5.2803,4.1797,5.7002
		c0.2603,0.04,0.5103,0.0596,0.77,0.0596c2.4204,0,4.5503-1.7695,4.9302-4.25
		C224.9497,444.4102,223.0796,441.8594,220.3496,441.4395z"/>
	<path fill="#E2331B" d="M219.2798,48.5996c-2.73,0.4204-4.6099,2.9604-4.2002,5.6904c0.3804,2.48,2.5103,4.2598,4.9404,4.2598
		c0.25,0,0.5-0.02,0.75-0.0601c0.0098,0,0.0098,0,0.0098,0c2.7202-0.4102,4.6001-2.96,4.1899-5.6899
		C224.5601,50.0698,222.0098,48.1899,219.2798,48.5996z"/>
	<path fill="#E2331B" d="M179.3696,58.8799c-2.5898,0.96-3.9199,3.8301-2.96,6.4199c0.75,2.02,2.6602,3.27,4.6899,3.27
		c0.5801,0,1.1602-0.1001,1.7402-0.3101c2.5898-0.96,3.9102-3.8301,2.9502-6.4199C184.8296,59.25,181.96,57.9199,179.3696,58.8799z"
		/>
	<path fill="#E2331B" d="M182.4297,431.5898c-2.5801-0.96-5.46,0.3496-6.4297,2.9404c-0.96,2.5898,0.3599,5.4697,2.9497,6.4297
		c0.5703,0.2197,1.1602,0.3203,1.7402,0.3203c2.0298,0,3.9399-1.25,4.6899-3.2607
		C186.3398,435.4297,185.02,432.5498,182.4297,431.5898z"/>
	<path fill="#E2331B" d="M201.1396,437.4795c-2.6699-0.6895-5.3999,0.9199-6.0996,3.5898
		c-0.6904,2.6709,0.9097,5.4004,3.5898,6.0908c0.4199,0.1094,0.8398,0.1592,1.2598,0.1592c2.2202,0,4.25-1.4893,4.8301-3.7393
		C205.4199,440.9102,203.8101,438.1797,201.1396,437.4795z"/>
	<path fill="#E2331B" d="M160.3999,67.0098c-2.48,1.2202-3.5,4.2202-2.2803,6.6899C158.98,75.48,160.7598,76.5,162.6099,76.5
		c0.7397,0,1.4897-0.1602,2.2002-0.5103c2.48-1.2197,3.5-4.21,2.2798-6.6899C165.8799,66.8198,162.8799,65.7998,160.3999,67.0098z"
		/>
	<path fill="#E2331B" d="M131.2197,403.0195c-2.1797-1.7002-5.3198-1.2998-7.02,0.8799c-1.6899,2.1807-1.2998,5.3203,0.8799,7.0107
		c0.9102,0.71,1.9902,1.0498,3.0703,1.0498c1.4897,0.0098,2.96-0.6602,3.9497-1.9297
		C133.79,407.8496,133.3999,404.71,131.2197,403.0195z"/>
	<path fill="#E2331B" d="M51.29,254.7803c0.0098,0,0.0098,0,0.0098,0c2.7603,0,5-2.2402,5-5.0005c0-2.7598-2.23-5-4.9897-5
		c-2.7603-0.0098-5.0103,2.23-5.0103,4.9902S48.5298,254.7695,51.29,254.7803z"/>
	<path fill="#E2331B" d="M52.7798,274.8496c2.7402-0.2803,4.75-2.7197,4.48-5.4697c-0.2798-2.75-2.73-4.7598-5.4697-4.4805
		c-2.75,0.2705-4.7603,2.7207-4.48,5.4707c0.25,2.5801,2.4297,4.5,4.9697,4.5C52.4399,274.8701,52.6099,274.8594,52.7798,274.8496z"
		/>
	<path fill="#E2331B" d="M51.8198,234.6597c0.1699,0.0103,0.3398,0.02,0.5098,0.02c2.54,0,4.7104-1.9199,4.9702-4.4897
		c0.2798-2.75-1.7202-5.2002-4.4702-5.48c-2.7397-0.2803-5.1997,1.7197-5.48,4.4697
		C47.0698,231.9199,49.0698,234.3799,51.8198,234.6597z"/>
	<path fill="#E2331B" d="M58.9199,195.0898c0.5,0.1499,1,0.23,1.5,0.23c2.1299,0,4.1001-1.3701,4.77-3.5
		c0.8301-2.6401-0.6401-5.4502-3.27-6.27c-2.6299-0.8301-5.4399,0.6299-6.27,3.27C54.8198,191.4497,56.29,194.2598,58.9199,195.0898
		z"/>
	<path fill="#E2331B" d="M65.4497,176.04c0.6499,0.2798,1.3203,0.4097,1.98,0.4097c1.9302,0,3.7803-1.1299,4.5903-3.02
		c1.0898-2.54-0.0801-5.48-2.6104-6.5698c-2.54-1.0898-5.48,0.0801-6.5698,2.6099C61.7397,172.0098,62.9199,174.9497,65.4497,176.04
		z"/>
	<path fill="#E2331B" d="M60.1797,288.7695c-0.5498-2.7002-3.1899-4.4502-5.8896-3.8994c-2.7104,0.5498-4.4604,3.1895-3.9102,5.8994
		c0.48,2.3604,2.5698,4,4.8999,4c0.3301,0,0.6602-0.0293,1-0.0996C58.98,294.1201,60.73,291.4795,60.1797,288.7695z"/>
	<path fill="#E2331B" d="M54.3599,214.6899c0.3398,0.0698,0.6802,0.1001,1.0098,0.1001c2.3301,0,4.4102-1.6201,4.9004-3.9902
		c0.5498-2.71-1.1904-5.3501-3.8901-5.8999c-2.71-0.5601-5.3501,1.1797-5.9102,3.8901
		C49.9199,211.4897,51.6597,214.1396,54.3599,214.6899z"/>
	<path fill="#E2331B" d="M78.75,149.04c-2.4102-1.3501-5.4502-0.48-6.8003,1.9297c-1.3398,2.4102-0.48,5.4502,1.9399,6.8003
		c0.77,0.4297,1.6001,0.6299,2.4204,0.6299c1.7598,0,3.46-0.9199,4.3799-2.5601C82.0298,153.4199,81.1699,150.3799,78.75,149.04z"/>
	<path fill="#E2331B" d="M83.8896,359.2002c-2.2598,1.5693-2.8198,4.6895-1.25,6.96c0.9702,1.3896,2.5303,2.1396,4.1104,2.1396
		c0.9897,0,1.98-0.29,2.8496-0.8896c2.27-1.5801,2.8301-4.7002,1.25-6.96C89.2798,358.1797,86.1597,357.6201,83.8896,359.2002z"/>
	<path fill="#E2331B" d="M89.8599,132.2397c-2.27-1.5801-5.3799-1.02-6.96,1.2402c-1.5898,2.2598-1.0303,5.3799,1.23,6.96
		C85,141.0498,86,141.3398,86.9897,141.3398c1.5801,0,3.1299-0.7402,4.1001-2.1299
		C92.6797,136.9399,92.1196,133.8296,89.8599,132.2397z"/>
	<path fill="#E2331B" d="M95.7998,375.4297c-2.0898,1.79-2.3398,4.9502-0.54,7.0498c0.9902,1.1504,2.3901,1.75,3.8003,1.75
		c1.1499,0,2.3096-0.3994,3.25-1.21c2.0996-1.7998,2.3398-4.9502,0.5396-7.0498
		C101.0601,373.8701,97.8999,373.6299,95.7998,375.4297z"/>
	<path fill="#E2331B" d="M95.5498,117.1899c-1.8101,2.0898-1.5698,5.25,0.52,7.0498c0.9502,0.8101,2.1099,1.21,3.27,1.21
		c1.3999,0,2.7998-0.5898,3.79-1.7397c1.7998-2.0903,1.5601-5.25-0.5303-7.0503
		C100.5098,114.8599,97.3496,115.0898,95.5498,117.1899z"/>
	<path fill="#E2331B" d="M71.8496,326.1699c-1.0796-2.5303-4.02-3.71-6.5596-2.6201c-2.54,1.0801-3.7202,4.0195-2.6304,6.5596
		c0.8101,1.9004,2.6602,3.0303,4.6001,3.0303c0.6499,0,1.3198-0.1299,1.96-0.3994C71.7598,331.6494,72.9399,328.71,71.8496,326.1699
		z"/>
	<path fill="#E2331B" d="M65.0601,307.7695c-0.8203-2.6299-3.6304-4.0996-6.2603-3.2793c-2.6401,0.8193-4.1099,3.6191-3.29,6.2598
		c0.6699,2.1396,2.6499,3.5098,4.7803,3.5098c0.4897,0,0.9897-0.0703,1.4897-0.2295
		C64.4097,313.21,65.8799,310.4102,65.0601,307.7695z"/>
	<path fill="#E2331B" d="M73.6797,341.8398c-2.4097,1.3398-3.2798,4.3896-1.9399,6.7998c0.9102,1.6504,2.6201,2.5801,4.3701,2.5801
		c0.8198,0,1.6602-0.2002,2.4199-0.6299c2.4199-1.3398,3.29-4.3799,1.9502-6.7998C79.1396,341.3799,76.0996,340.5,73.6797,341.8398z
		"/>
	<path fill="#E2331B" d="M301.1494,52.7798c-2.6699-0.6899-5.3994,0.9102-6.0898,3.5898c-0.6895,2.6704,0.9199,5.4004,3.5898,6.0903
		c0.4199,0.1099,0.8408,0.1597,1.25,0.1597c2.2305,0,4.2607-1.5,4.8408-3.75C305.4395,56.1997,303.8301,53.4697,301.1494,52.7798z"
		/>
	<path fill="#E2331B" d="M383.3096,102.5698c-1.8994,2-1.8193,5.1699,0.1807,7.0698c0.96,0.9204,2.1992,1.3804,3.4395,1.3804
		c1.3203,0,2.6396-0.52,3.6299-1.5601c1.9004-2,1.8203-5.1602-0.1797-7.0601C388.3799,100.4897,385.21,100.5698,383.3096,102.5698z"
		/>
	<path fill="#E2331B" d="M396.7295,376.4502c-1.7998,2.0898-1.5693,5.25,0.5205,7.0498c0.9502,0.8193,2.1094,1.2197,3.2695,1.2197
		c1.4004,0,2.79-0.5898,3.7803-1.7402c1.8096-2.0898,1.5703-5.2393-0.5195-7.0498
		C401.6895,374.1299,398.5303,374.3594,396.7295,376.4502z"/>
	<path fill="#E2331B" d="M397.54,116.8101c-2.1006,1.7998-2.3398,4.96-0.54,7.0498c0.9902,1.1499,2.3896,1.7397,3.7998,1.7397
		c1.1504,0.0103,2.3096-0.3896,3.25-1.1997c2.0996-1.8003,2.3398-4.96,0.54-7.0503C402.79,115.25,399.6299,115.0098,397.54,116.8101
		z"/>
	<path fill="#E2331B" d="M415.7402,359.7402c-2.2607-1.5801-5.3809-1.0303-6.96,1.2295c-1.5801,2.2598-1.0303,5.3799,1.2295,6.96
		c0.8701,0.6104,1.8701,0.9102,2.8604,0.9102c1.5801,0,3.1299-0.7402,4.0996-2.1299v-0.0098
		C418.5596,364.4395,418.0098,361.3301,415.7402,359.7402z"/>
	<path fill="#E2331B" d="M368.2803,403.4102c-2.1904,1.6797-2.5908,4.8193-0.9102,7.0098c0.9893,1.2803,2.4697,1.9395,3.9697,1.9395
		c1.0596,0,2.1396-0.3398,3.0498-1.04c2.1797-1.6895,2.5898-4.8291,0.9004-7.0098
		C373.5996,402.1201,370.46,401.7197,368.2803,403.4102z"/>
	<path fill="#E2331B" d="M357.8193,77.1499v-0.0103c-2.3398-1.46-5.4297-0.75-6.8896,1.5903
		c-1.4697,2.3496-0.75,5.4297,1.5898,6.8999c0-0.0103,0-0.0103,0-0.0103c0.8203,0.52,1.7402,0.7603,2.6406,0.7603
		c1.6699,0,3.2998-0.8301,4.25-2.3501C360.8701,81.6899,360.1602,78.6099,357.8193,77.1499z"/>
	<path fill="#E2331B" d="M374.7402,88.9497c-2.1904-1.6899-5.3301-1.2998-7.0205,0.8799c-1.6895,2.1802-1.2998,5.3301,0.8896,7.02
		c0.9102,0.7104,1.9902,1.0503,3.0605,1.0503c1.4902,0,2.9697-0.6699,3.9502-1.9399
		C377.3096,93.7798,376.9199,90.6396,374.7402,88.9497z"/>
	<path fill="#E2331B" d="M383.1797,390.6494c-2,1.8906-2.0898,5.0605-0.1895,7.0605c0.9893,1.04,2.3096,1.5596,3.6299,1.5596
		c1.2393,0.0107,2.4697-0.4502,3.4395-1.3594c2-1.9004,2.0898-5.0703,0.1904-7.0703
		C388.3496,388.8301,385.1895,388.75,383.1797,390.6494z"/>
	<path fill="#E2331B" d="M445.5996,285.5303c-2.71-0.5605-5.3496,1.1797-5.9102,3.8799c-0.5596,2.71,1.1807,5.3496,3.8799,5.9092
		c0.3408,0.0703,0.6807,0.1006,1.0205,0.1006c2.3203,0,4.4004-1.6201,4.8896-3.9805
		C450.04,288.7295,448.2998,286.0898,445.5996,285.5303z"/>
	<path fill="#E2331B" d="M448.1602,265.5596c-2.75-0.2793-5.2002,1.7207-5.4805,4.4707c-0.2803,2.7393,1.71,5.1992,4.46,5.4795
		c0.1699,0.0205,0.3506,0.0303,0.5205,0.0303c2.5293,0,4.6992-1.9199,4.96-4.4902
		C452.9102,268.2998,450.9102,265.8398,448.1602,265.5596z"/>
	<path fill="#E2331B" d="M453.7002,250c0-2.7603-2.2402-5-5-5c-2.7607,0-5,2.2397-5,5c0,0.0698,0,0.1299,0,0.1997
		c0,0.0801,0,0.1499,0,0.23c0,0.0103,0,0.0103,0,0.0103c-0.0107,2.7495,2.2295,4.9995,4.9893,4.9995h0.0107
		c2.75,0,4.9893-2.2295,5-4.9795c0-0.0801,0-0.1602-0.0107-0.2402C453.7002,250.1499,453.7002,250.0796,453.7002,250z"/>
	<path fill="#E2331B" d="M441.0195,305.1299c-2.6396-0.8301-5.4395,0.6299-6.2793,3.2598
		c-0.8301,2.6299,0.6299,5.4404,3.2695,6.2705c0.5,0.1592,1,0.2393,1.5,0.2393c2.1201,0,4.0898-1.3691,4.7705-3.5
		C445.1094,308.7695,443.6494,305.96,441.0195,305.1299z"/>
	<path fill="#E2331B" d="M426.0098,342.4297c-2.4102-1.3496-5.46-0.4902-6.7998,1.9199c-1.3506,2.4102-0.4902,5.46,1.9199,6.8105
		c0.7695,0.4297,1.6104,0.6299,2.4297,0.6299c1.7598,0,3.46-0.9199,4.3701-2.5605
		C429.2803,346.8193,428.4199,343.7695,426.0098,342.4297z"/>
	<path fill="#E2331B" d="M447.1895,224.9297c-2.7393,0.2803-4.75,2.73-4.4697,5.4702c0.2598,2.5801,2.4297,4.5098,4.9697,4.5098
		c0.1699,0,0.3408-0.0098,0.5107-0.0298c2.7393-0.2803,4.75-2.73,4.4697-5.4702
		C452.3896,226.6597,449.9395,224.6499,447.1895,224.9297z"/>
	<path fill="#E2331B" d="M434.4697,324.1602c-2.54-1.0908-5.4795,0.0693-6.5801,2.6094c-1.0898,2.5303,0.0703,5.4805,2.6104,6.5703
		c0.6396,0.2803,1.3193,0.4102,1.9795,0.4102c1.9307,0,3.7803-1.1299,4.5898-3.0205
		C438.1699,328.2002,437,325.2598,434.4697,324.1602z"/>
	<path fill="#E2331B" d="M410.2598,132.4097c-2.2598,1.5801-2.8203,4.7002-1.2402,6.96c0.9707,1.4004,2.5303,2.1504,4.1104,2.1504
		c0.9902,0,1.9795-0.29,2.8496-0.9004c2.2705-1.5796,2.8301-4.6997,1.25-6.96
		C415.6494,131.3896,412.5303,130.8296,410.2598,132.4097z"/>
	<path fill="#E2331B" d="M279.0098,441.54c-2.7295,0.4102-4.6104,2.96-4.2002,5.6895c0.3701,2.4805,2.5,4.2607,4.9404,4.2607
		c0.2402,0,0.4902-0.0205,0.7402-0.0605c2.7393-0.4102,4.6191-2.96,4.21-5.6895
		C284.2803,443.0098,281.7402,441.1299,279.0098,441.54z"/>
	<path fill="#E2331B" d="M423.79,158.5898c0.8193,0,1.6494-0.2002,2.4199-0.6299c2.4102-1.3403,3.2803-4.3901,1.9395-6.8003
		c-1.3398-2.4199-4.3799-3.29-6.7998-1.9399c-2.4102,1.3403-3.2803,4.3799-1.9395,6.8003
		C420.3301,157.6597,422.0303,158.5898,423.79,158.5898z"/>
	<path fill="#E2331B" d="M260.4199,46.5601c-2.7598-0.1401-5.1006,1.9897-5.2402,4.75c-0.1396,2.75,1.9805,5.0996,4.7402,5.2397
		c0.0801,0.0103,0.1699,0.0103,0.25,0.0103c2.6494,0,4.8604-2.0801,4.9902-4.75C265.2998,49.0498,263.1797,46.6997,260.4199,46.5601
		z"/>
	<path fill="#E2331B" d="M259.4902,443.4697c-2.7607,0.1299-4.8906,2.4697-4.7607,5.2402c0.1299,2.6699,2.3398,4.75,4.9902,4.75
		c0.0898,0,0.1699,0,0.25,0c2.7598-0.1299,4.8896-2.4805,4.75-5.2402C264.5898,445.4697,262.25,443.3398,259.4902,443.4697z"/>
	<path fill="#E2331B" d="M352.1602,414.5996c-2.3506,1.46-3.0605,4.54-1.6006,6.8906c0.9404,1.5195,2.5801,2.3594,4.25,2.3594
		c0.9004,0,1.8105-0.25,2.6299-0.7598c2.3506-1.46,3.0605-4.54,1.6104-6.8896C357.5898,413.8594,354.5,413.1396,352.1602,414.5996z"
		/>
	<path fill="#E2331B" d="M439.7695,211.0098c0.4902,2.3701,2.5703,4,4.9004,4c0.3301,0,0.6699-0.0298,1.0098-0.1001
		c2.7002-0.5498,4.4502-3.1899,3.8896-5.8999c-0.5498-2.71-3.1895-4.4497-5.8994-3.8999
		C440.9697,205.6699,439.2197,208.3101,439.7695,211.0098z"/>
	<path fill="#E2331B" d="M434.8701,192.02c0.6699,2.1396,2.6494,3.5098,4.7695,3.5098c0.5,0,1-0.0801,1.5-0.23
		c2.6299-0.8301,4.1006-3.6401,3.2803-6.27c-0.8301-2.6299-3.6396-4.1001-6.2705-3.2798
		C435.5098,186.5796,434.0498,189.3799,434.8701,192.02z"/>
	<path fill="#E2331B" d="M428.0596,173.6299c0.8105,1.8901,2.6602,3.02,4.6006,3.02c0.6592,0,1.3193-0.1299,1.9697-0.3999
		c2.5303-1.0903,3.71-4.0303,2.6201-6.5703s-4.0303-3.71-6.5703-2.6196C428.1494,168.1499,426.9697,171.0898,428.0596,173.6299z"/>
	<path fill="#E2331B" d="M335,424.0996c-2.4805,1.2197-3.5098,4.21-2.2998,6.6904c0.8691,1.7695,2.6494,2.8096,4.5,2.8096
		c0.7393,0,1.4893-0.1699,2.1895-0.5098c2.4805-1.2197,3.5098-4.21,2.2998-6.6904C340.4697,423.9199,337.4795,422.8896,335,424.0996
		z"/>
	<path fill="#E2331B" d="M280.9395,48.6396c-2.7295-0.4199-5.2793,1.46-5.6895,4.1899c-0.4199,2.7305,1.46,5.2803,4.1895,5.6904
		c0.25,0.04,0.5,0.0596,0.75,0.0596c2.4307,0,4.5703-1.7695,4.9404-4.25C285.5498,51.5996,283.6699,49.0498,280.9395,48.6396z"/>
	<path fill="#E2331B" d="M339.79,67.1099c-2.4805-1.2202-5.4707-0.2002-6.6904,2.2798s-0.2002,5.48,2.2803,6.6899
		c0.71,0.3501,1.46,0.52,2.2002,0.52c1.8496,0,3.6299-1.0298,4.4893-2.7998C343.29,71.3296,342.2695,68.3296,339.79,67.1099z"/>
	<path fill="#E2331B" d="M320.8398,58.96c-2.5898-0.96-5.4697,0.3599-6.4297,2.9497c-0.96,2.5903,0.3594,5.46,2.9492,6.4199
		c0.5703,0.2202,1.1602,0.3203,1.7402,0.3203c2.0303,0,3.9404-1.25,4.6904-3.27C324.75,62.7998,323.4297,59.9199,320.8398,58.96z"/>
	<path fill="#E2331B" d="M298.2295,437.6494c-2.6699,0.6807-4.29,3.4102-3.5996,6.0801c0.5801,2.2607,2.6104,3.7607,4.8398,3.7607
		c0.4102,0,0.8301-0.0508,1.25-0.1602c2.6699-0.6807,4.2803-3.4102,3.5996-6.0801
		C303.6299,438.5693,300.9102,436.96,298.2295,437.6494z"/>
	<path fill="#E2331B" d="M316.96,431.8096c-2.5898,0.96-3.9199,3.8301-2.96,6.4199c0.7402,2.0303,2.6494,3.2803,4.6895,3.2803
		c0.5703,0,1.1602-0.0996,1.7305-0.3096c2.5898-0.96,3.9102-3.8301,2.96-6.4199
		C322.4199,432.1895,319.5498,430.8594,316.96,431.8096z"/>
</g>
</svg>
