<?xml version="1.0" encoding="utf-8"?>
<!-- Generator: Adobe Illustrator 16.0.0, SVG Export Plug-In . SVG Version: 6.00 Build 0)  -->
<!DOCTYPE svg PUBLIC "-//W3C//DTD SVG 1.1//EN" "http://www.w3.org/Graphics/SVG/1.1/DTD/svg11.dtd">
<svg version="1.1" id="Layer_1" xmlns="http://www.w3.org/2000/svg" xmlns:xlink="http://www.w3.org/1999/xlink" x="0px" y="0px"
	 width="100px" height="99.998px" viewBox="0 0 100 99.998" enable-background="new 0 0 100 99.998" xml:space="preserve">
<g id="change2">
	<circle fill="#FFFFFF" cx="50" cy="49.999" r="46.687"/>
</g>
<g id="change1">
	<path fill="#00A79D" d="M50.053,99.998c-2.359,0-4.751-0.168-7.105-0.504C15.66,95.607-3.382,70.243,0.502,42.951
		C3.988,18.466,25.241,0,49.937,0c2.362,0,4.756,0.171,7.108,0.504c27.291,3.889,46.336,29.254,42.451,56.544
		C96.008,81.535,74.752,99.998,50.053,99.998z M49.937,6.618c-21.424,0-39.856,16.021-42.882,37.267
		c-3.37,23.678,13.15,45.687,36.826,49.061c2.045,0.291,4.123,0.438,6.172,0.438c21.426,0,39.866-16.022,42.892-37.27
		C96.314,32.438,79.792,10.43,56.113,7.055C54.066,6.763,51.992,6.618,49.937,6.618z"/>
</g>
</svg>
