<?xml version="1.0" encoding="utf-8"?>
<!-- Generator: Adobe Illustrator 16.0.0, SVG Export Plug-In . SVG Version: 6.00 Build 0)  -->
<!DOCTYPE svg PUBLIC "-//W3C//DTD SVG 1.1//EN" "http://www.w3.org/Graphics/SVG/1.1/DTD/svg11.dtd">
<svg version="1.1" id="Layer_1" xmlns="http://www.w3.org/2000/svg" xmlns:xlink="http://www.w3.org/1999/xlink" x="0px" y="0px"
	 width="500px" height="500.006px" viewBox="0 0 500 500.006" enable-background="new 0 0 500 500.006" xml:space="preserve">
<g id="change">
	<path fill="#318BA2" d="M250.003,0C112.146,0,0,112.153,0,250.006c0,137.85,112.146,250,250.003,250
		c137.844,0,249.995-112.15,249.995-250C500,112.153,387.847,0,250.003,0z M250.003,480.479
		c-127.088,0-230.482-103.395-230.482-230.473c0-127.09,103.395-230.485,230.482-230.485c127.084,0,230.479,103.396,230.479,230.485
		C480.482,377.084,377.087,480.479,250.003,480.479z"/>
	<path fill="#318BA2" d="M250.003,32.516c-119.928,0-217.488,97.562-217.488,217.491c0,119.924,97.561,217.491,217.488,217.491
		c119.92,0,217.483-97.567,217.483-217.491C467.488,130.077,369.923,32.516,250.003,32.516z"/>
</g>
</svg>
