<?xml version="1.0" encoding="utf-8"?>
<!-- Generator: Adobe Illustrator 16.0.0, SVG Export Plug-In . SVG Version: 6.00 Build 0)  -->
<!DOCTYPE svg PUBLIC "-//W3C//DTD SVG 1.1//EN" "http://www.w3.org/Graphics/SVG/1.1/DTD/svg11.dtd">
<svg version="1.1" id="Layer_1" xmlns="http://www.w3.org/2000/svg" xmlns:xlink="http://www.w3.org/1999/xlink" x="0px" y="0px"
	 width="500px" height="500px" viewBox="0 0 500 500" enable-background="new 0 0 500 500" xml:space="preserve">
<g id="change">
	<path fill="#54A4A6" d="M250,0C112.151,0,0,112.155,0,250.002C0,387.854,112.151,500,250,500c137.847,0,250-112.146,250-249.998
		C500,112.155,387.847,0,250,0z M250,493.485c-134.255,0-243.481-109.228-243.481-243.479C6.519,115.747,115.745,6.522,250,6.522
		c134.254,0,243.484,109.226,243.484,243.483C493.485,384.258,384.253,493.485,250,493.485z"/>
	<path fill="#54A4A6" d="M250,19.519c-127.091,0-230.484,103.396-230.484,230.483c0,127.09,103.395,230.485,230.484,230.485
		c127.092,0,230.48-103.396,230.48-230.485C480.481,122.916,377.091,19.519,250,19.519z"/>
</g>
</svg>
