<?xml version="1.0" encoding="iso-8859-1"?>
<!-- Generator: Adobe Illustrator 16.0.0, SVG Export Plug-In . SVG Version: 6.00 Build 0)  -->
<!DOCTYPE svg PUBLIC "-//W3C//DTD SVG 1.1//EN" "http://www.w3.org/Graphics/SVG/1.1/DTD/svg11.dtd">
<svg version="1.1" id="Layer_1" xmlns="http://www.w3.org/2000/svg" xmlns:xlink="http://www.w3.org/1999/xlink" x="0px" y="0px"
	 width="500px" height="499.993px" viewBox="0 0 500 499.993" style="enable-background:new 0 0 500 499.993;" xml:space="preserve"
	>
<g id="change1">
	<path style="fill:#FEE266;" d="M249.997,0C112.147,0,0,112.144,0,249.993c0,137.855,112.146,250,249.997,250
		S500,387.848,500,249.993C500,112.144,387.848,0,249.997,0z M249.997,492.225C116.435,492.225,7.77,383.557,7.77,249.99
		C7.77,116.426,116.435,7.76,249.997,7.76c133.568,0,242.23,108.666,242.23,242.23C492.226,383.557,383.564,492.225,249.997,492.225
		z"/>
	<path style="fill:#FEE266;" d="M249.997,19.385c-127.156,0-230.609,103.449-230.609,230.612
		c0,127.16,103.453,230.611,230.609,230.611c127.164,0,230.609-103.456,230.609-230.611
		C480.608,122.834,377.157,19.385,249.997,19.385z M249.997,465.075c-118.596,0-215.075-96.479-215.075-215.078
		S131.402,34.922,249.997,34.922c118.597,0,215.075,96.481,215.075,215.075C465.073,368.594,368.594,465.075,249.997,465.075z"/>
	<path style="fill:#FEE266;" d="M249.997,46.54c-112.185,0-203.454,91.271-203.454,203.453
		c0,112.188,91.271,203.466,203.454,203.466c112.189,0,203.463-91.273,203.463-203.466C453.454,137.811,362.188,46.54,249.997,46.54
		z"/>
</g>
</svg>
