<?xml version="1.0" encoding="utf-8"?>
<!-- Generator: Adobe Illustrator 16.0.0, SVG Export Plug-In . SVG Version: 6.00 Build 0)  -->
<!DOCTYPE svg PUBLIC "-//W3C//DTD SVG 1.1//EN" "http://www.w3.org/Graphics/SVG/1.1/DTD/svg11.dtd">
<svg version="1.1" id="Layer_1" xmlns="http://www.w3.org/2000/svg" xmlns:xlink="http://www.w3.org/1999/xlink" x="0px" y="0px"
	 width="500px" height="500px" viewBox="0 0 500 500" enable-background="new 0 0 500 500" xml:space="preserve">
<g id="change">
	<circle fill="#179151" cx="250" cy="250" r="250"/>
</g>
<g id="change2">
	<path fill="#8CCDB0" d="M254.586,477.053c-1.922,0-3.497-1.546-3.533-3.473c-0.035-1.945,1.521-3.562,3.468-3.596l1.712-0.041
		c0.034,0,0.072,0,0.104,0c1.9,0,3.464,1.511,3.529,3.431c0.06,1.952-1.478,3.581-3.434,3.637l-1.795,0.042
		C254.631,477.053,254.61,477.053,254.586,477.053z M244.031,477.021c-0.027,0-0.058,0-0.085,0l-1.803-0.059
		c-1.95-0.069-3.477-1.701-3.406-3.647c0.071-1.957,1.781-3.563,3.658-3.413l1.717,0.052c1.951,0.05,3.493,1.671,3.449,3.613
		C247.516,475.493,245.943,477.021,244.031,477.021z M266.874,476.467c-1.832,0-3.375-1.408-3.521-3.266
		c-0.146-1.945,1.312-3.644,3.258-3.789l1.731-0.138c1.984-0.151,3.651,1.284,3.811,3.23c0.165,1.944-1.279,3.649-3.224,3.81
		l-1.78,0.145C267.057,476.467,266.971,476.467,266.874,476.467z M231.735,476.362c-0.095,0-0.194,0-0.294-0.007l-1.772-0.152
		c-1.944-0.179-3.382-1.891-3.209-3.837c0.174-1.938,1.852-3.375,3.83-3.202l1.731,0.146c1.943,0.159,3.39,1.864,3.23,3.811
		C235.1,474.972,233.556,476.362,231.735,476.362z M279.128,475.227c-1.75,0-3.274-1.297-3.503-3.084
		c-0.248-1.938,1.118-3.71,3.055-3.955l1.715-0.231c1.939-0.255,3.713,1.099,3.981,3.021c0.259,1.933-1.095,3.72-3.02,3.981
		l-1.773,0.238C279.432,475.211,279.276,475.227,279.128,475.227z M219.495,475.03c-0.16,0-0.322-0.007-0.484-0.034l-1.767-0.241
		c-1.931-0.275-3.271-2.07-2.997-4.003s2.06-3.271,3.997-3.003l1.721,0.242c1.933,0.263,3.287,2.042,3.021,3.976
		C222.749,473.747,221.232,475.03,219.495,475.03z M291.299,473.291c-1.674,0-3.157-1.187-3.469-2.881
		c-0.361-1.919,0.911-3.765,2.83-4.12l1.693-0.324c1.937-0.369,3.77,0.87,4.154,2.777c0.373,1.915-0.869,3.775-2.781,4.158
		l-1.77,0.338C291.727,473.277,291.509,473.291,291.299,473.291z M207.338,473.039c-0.217,0-0.441-0.021-0.667-0.064l-1.771-0.358
		c-1.912-0.387-3.144-2.257-2.756-4.169c0.39-1.912,2.264-3.146,4.171-2.754l1.685,0.331c1.915,0.373,3.175,2.223,2.808,4.142
		C210.48,471.859,209,473.039,207.338,473.039z M303.331,470.699c-1.592,0-3.04-1.087-3.431-2.701c-0.459-1.895,0.7-3.807,2.6-4.266
		l1.67-0.41c1.884-0.501,3.812,0.659,4.296,2.546c0.487,1.893-0.659,3.817-2.55,4.305l-1.75,0.435
		C303.887,470.673,303.607,470.699,303.331,470.699z M195.317,470.358c-0.281,0-0.568-0.035-0.854-0.101l-1.746-0.441
		c-1.888-0.5-3.018-2.433-2.522-4.317c0.493-1.88,2.412-3.002,4.311-2.524l1.665,0.421c1.895,0.477,3.045,2.388,2.576,4.286
		C198.342,469.288,196.901,470.358,195.317,470.358z M315.216,467.442c-1.521,0-2.923-0.987-3.386-2.52
		c-0.56-1.87,0.504-3.842,2.366-4.403l1.641-0.507c1.859-0.58,3.848,0.448,4.435,2.312c0.583,1.857-0.452,3.846-2.312,4.433
		l-1.719,0.53C315.896,467.391,315.551,467.442,315.216,467.442z M183.459,467.024c-0.351,0-0.705-0.055-1.057-0.158l-1.706-0.539
		c-1.859-0.593-2.885-2.577-2.292-4.443c0.597-1.856,2.589-2.878,4.443-2.284l1.663,0.523c1.863,0.58,2.898,2.567,2.318,4.425
		C186.356,466.065,184.962,467.024,183.459,467.024z M326.89,463.525c-1.441,0-2.802-0.896-3.319-2.325
		c-0.662-1.843,0.282-3.864,2.122-4.527l1.604-0.594c1.843-0.687,3.865,0.229,4.555,2.058c0.685,1.832-0.228,3.868-2.057,4.555
		l-1.69,0.632C327.697,463.461,327.29,463.525,326.89,463.525z M171.77,463.032c-0.412,0-0.83-0.071-1.24-0.218l-1.677-0.638
		c-1.824-0.701-2.73-2.744-2.033-4.569s2.738-2.723,4.565-2.025l1.626,0.614c1.827,0.681,2.753,2.724,2.066,4.548
		C174.548,462.162,173.202,463.032,171.77,463.032z M338.309,458.978c-1.377,0-2.688-0.808-3.255-2.149
		c-0.759-1.806,0.073-3.876,1.878-4.635l1.561-0.684c1.783-0.772,3.879,0.038,4.65,1.826c0.787,1.786-0.034,3.875-1.822,4.646
		l-1.648,0.718C339.236,458.892,338.768,458.978,338.309,458.978z M160.332,458.391c-0.47,0-0.95-0.093-1.409-0.297l-1.655-0.731
		c-1.775-0.801-2.572-2.888-1.77-4.672c0.799-1.781,2.892-2.566,4.672-1.773l1.572,0.696c1.786,0.78,2.607,2.868,1.826,4.652
		C162.993,457.598,161.695,458.391,160.332,458.391z M349.458,453.809c-1.306,0-2.562-0.718-3.168-1.976
		c-0.866-1.745-0.146-3.87,1.604-4.728l1.528-0.772c1.736-0.891,3.865-0.195,4.748,1.547c0.891,1.746,0.204,3.864-1.542,4.755
		l-1.608,0.812C350.514,453.691,349.985,453.809,349.458,453.809z M149.169,453.125c-0.536,0-1.08-0.113-1.593-0.376l-1.321-0.673
		c-1.735-0.891-2.556-3.092-1.665-4.823c0.891-1.732,2.89-2.484,4.626-1.596l1.555,0.794c1.739,0.885,2.436,3.014,1.556,4.755
		C151.704,452.426,150.46,453.125,149.169,453.125z M360.313,448.031c-1.229,0-2.419-0.642-3.07-1.779
		c-0.964-1.69-0.372-3.852,1.317-4.817l1.505-0.862c1.694-0.986,3.852-0.399,4.824,1.283c0.979,1.691,0.4,3.852-1.284,4.831
		l-1.542,0.884C361.515,447.887,360.907,448.031,360.313,448.031z M138.325,447.256c-0.598,0-1.204-0.151-1.765-0.474l-1.558-0.911
		c-1.679-0.992-2.238-3.167-1.24-4.845c0.993-1.684,3.166-2.235,4.841-1.242l1.487,0.87c1.692,0.974,2.271,3.133,1.298,4.824
		C140.735,446.617,139.545,447.256,138.325,447.256z M370.831,441.673c-1.159,0-2.294-0.572-2.975-1.622
		c-1.057-1.646-0.58-3.83,1.062-4.891l1.449-0.944c1.636-1.062,3.822-0.607,4.894,1.021c1.065,1.636,0.61,3.823-1.021,4.9
		l-1.498,0.966C372.149,441.482,371.49,441.673,370.831,441.673z M127.819,440.797c-0.664,0-1.332-0.19-1.926-0.573l-1.504-0.994
		c-1.622-1.083-2.057-3.278-0.972-4.899c1.083-1.629,3.277-2.062,4.899-0.97l1.438,0.952c1.636,1.069,2.095,3.258,1.028,4.894
		C130.105,440.227,128.976,440.797,127.819,440.797z M380.99,434.726c-1.101,0-2.174-0.511-2.87-1.46
		c-1.14-1.58-0.786-3.789,0.801-4.936l1.391-1.011c1.57-1.159,3.778-0.82,4.938,0.745c1.158,1.57,0.82,3.786-0.746,4.938
		l-1.442,1.056C382.433,434.506,381.708,434.726,380.99,434.726z M117.693,433.76c-0.729,0-1.464-0.223-2.093-0.685l-1.431-1.062
		c-1.565-1.16-1.892-3.375-0.726-4.941c1.163-1.557,3.383-1.888,4.943-0.722l1.402,1.042c1.572,1.149,1.907,3.364,0.745,4.938
		C119.848,433.272,118.776,433.76,117.693,433.76z M390.76,427.241c-1.032,0-2.05-0.448-2.743-1.312
		c-1.234-1.521-1.001-3.744,0.519-4.969l1.339-1.092c1.504-1.253,3.739-1.027,4.973,0.478c1.242,1.504,1.028,3.735-0.487,4.976
		l-1.38,1.121C392.322,426.976,391.543,427.241,390.76,427.241z M107.969,426.195c-0.792,0-1.584-0.259-2.241-0.808l-1.382-1.146
		c-1.494-1.253-1.692-3.48-0.438-4.976c1.251-1.498,3.479-1.694,4.979-0.442l1.325,1.104c1.51,1.242,1.729,3.458,0.488,4.969
		C110.003,425.755,108.99,426.195,107.969,426.195z M400.101,419.225c-0.956,0-1.919-0.39-2.615-1.159
		c-1.308-1.449-1.201-3.686,0.248-4.99l1.273-1.173c1.432-1.317,3.672-1.229,4.993,0.218c1.317,1.437,1.229,3.672-0.215,4.989
		l-1.317,1.208C401.795,418.928,400.946,419.225,400.101,419.225z M98.678,418.11c-0.854,0-1.71-0.313-2.392-0.936l-1.298-1.207
		c-1.431-1.325-1.521-3.556-0.196-4.99c1.32-1.429,3.558-1.52,4.991-0.2l1.286,1.188c1.436,1.323,1.531,3.561,0.209,4.996
		C100.582,417.721,99.632,418.11,98.678,418.11z M408.992,410.709c-0.894,0-1.791-0.346-2.478-1.016
		c-1.392-1.366-1.411-3.609-0.041-4.996l1.222-1.249c1.369-1.396,3.605-1.415,4.996-0.062c1.397,1.358,1.426,3.596,0.065,4.997
		l-1.245,1.263C410.825,410.35,409.907,410.709,408.992,410.709z M89.848,409.521c-0.922,0-1.842-0.366-2.533-1.077l-1.232-1.27
		c-1.354-1.404-1.311-3.642,0.093-4.997c1.41-1.354,3.646-1.312,4.995,0.09l1.213,1.256c1.359,1.396,1.325,3.631-0.074,4.99
		C91.623,409.184,90.735,409.521,89.848,409.521z M417.409,401.717c-0.828,0-1.656-0.283-2.325-0.87
		c-1.471-1.287-1.615-3.521-0.336-4.989l1.159-1.325c1.287-1.477,3.521-1.622,4.986-0.331c1.471,1.283,1.615,3.521,0.335,4.982
		l-1.159,1.325C419.369,401.309,418.39,401.717,417.409,401.717z M81.498,400.47c-0.985,0-1.97-0.407-2.664-1.207l-1.166-1.351
		c-1.271-1.483-1.106-3.713,0.371-4.979c1.479-1.276,3.709-1.102,4.981,0.369l1.138,1.305c1.283,1.478,1.129,3.713-0.342,4.989
		C83.147,400.177,82.321,400.47,81.498,400.47z M425.318,392.274c-0.766,0-1.538-0.248-2.188-0.766
		c-1.532-1.215-1.794-3.438-0.579-4.963l1.083-1.381c1.201-1.531,3.423-1.802,4.959-0.601c1.535,1.208,1.805,3.423,0.601,4.962
		l-1.101,1.397C427.396,391.812,426.364,392.274,425.318,392.274z M73.665,390.977c-1.052,0-2.094-0.469-2.789-1.366l-1.088-1.394
		c-1.19-1.555-0.908-3.77,0.637-4.956c1.544-1.193,3.76-0.911,4.957,0.636l1.066,1.376c1.201,1.539,0.926,3.759-0.614,4.959
		C75.187,390.732,74.424,390.977,73.665,390.977z M432.706,382.405c-0.703,0-1.41-0.214-2.031-0.647
		c-1.596-1.125-1.981-3.327-0.851-4.929l0.99-1.415c1.108-1.602,3.31-2.008,4.918-0.891c1.607,1.104,2.005,3.313,0.897,4.914
		l-1.028,1.47C434.907,381.892,433.821,382.405,432.706,382.405z M66.36,381.066c-1.116,0-2.212-0.523-2.899-1.512l-1.019-1.478
		c-1.099-1.607-0.682-3.81,0.931-4.914c1.611-1.101,3.81-0.676,4.913,0.933l0.975,1.415c1.116,1.602,0.728,3.799-0.876,4.921
		C67.762,380.87,67.06,381.066,66.36,381.066z M439.543,372.149c-0.648,0-1.299-0.179-1.885-0.542
		c-1.648-1.042-2.14-3.229-1.102-4.879l0.915-1.456c1.018-1.674,3.19-2.181,4.857-1.166c1.663,1.021,2.182,3.202,1.159,4.865
		l-0.959,1.535C441.858,371.563,440.716,372.149,439.543,372.149z M59.619,370.783c-1.185,0-2.344-0.594-3.012-1.677l-0.934-1.525
		c-1.013-1.67-0.479-3.845,1.187-4.852c1.673-1.008,3.844-0.483,4.855,1.187l0.902,1.479c1.027,1.656,0.512,3.837-1.149,4.858
		C60.89,370.61,60.25,370.783,59.619,370.783z M445.803,361.515c-0.583,0-1.174-0.146-1.712-0.442
		c-1.704-0.959-2.318-3.104-1.373-4.807l0.828-1.508c0.928-1.708,3.063-2.367,4.781-1.425c1.712,0.925,2.357,3.066,1.43,4.785
		l-0.869,1.58C448.245,360.865,447.045,361.515,445.803,361.515z M53.449,360.141c-1.255,0-2.467-0.662-3.106-1.842l-0.852-1.57
		c-0.911-1.726-0.255-3.868,1.47-4.786c1.726-0.918,3.863-0.256,4.777,1.47l0.812,1.513c0.934,1.718,0.297,3.867-1.417,4.789
		C54.598,360.004,54.018,360.141,53.449,360.141z M451.469,350.559c-0.519,0-1.057-0.11-1.55-0.362
		c-1.753-0.853-2.475-2.975-1.614-4.728l0.741-1.55c0.827-1.761,2.942-2.506,4.707-1.682c1.764,0.835,2.516,2.947,1.685,4.707
		l-0.791,1.636C454.029,349.83,452.773,350.559,451.469,350.559z M47.875,349.188c-1.321,0-2.589-0.745-3.193-2.019l-0.756-1.608
		c-0.819-1.773-0.053-3.872,1.717-4.693c1.771-0.823,3.87-0.055,4.693,1.72l0.734,1.557c0.833,1.767,0.081,3.872-1.683,4.707
		C48.9,349.081,48.385,349.188,47.875,349.188z M456.521,339.306c-0.462,0-0.925-0.087-1.373-0.276
		c-1.802-0.759-2.644-2.829-1.885-4.631l0.656-1.587c0.73-1.815,2.791-2.686,4.603-1.953c1.809,0.731,2.679,2.795,1.946,4.604
		l-0.684,1.681C459.209,338.491,457.897,339.306,456.521,339.306z M42.922,337.946c-1.396,0-2.718-0.829-3.271-2.202l-0.668-1.663
		c-0.725-1.809,0.159-3.864,1.972-4.59c1.816-0.725,3.87,0.166,4.591,1.981l0.645,1.601c0.735,1.81-0.129,3.872-1.936,4.61
		C43.819,337.866,43.367,337.946,42.922,337.946z M460.944,327.773c-0.387,0-0.787-0.069-1.18-0.207
		c-1.843-0.648-2.803-2.671-2.146-4.507l0.562-1.629c0.628-1.843,2.633-2.837,4.481-2.209c1.854,0.628,2.836,2.637,2.216,4.485
		l-0.602,1.713C463.768,326.869,462.4,327.773,460.944,327.773z M38.586,326.413c-1.467,0-2.836-0.918-3.339-2.381l-0.58-1.704
		c-0.614-1.85,0.385-3.852,2.235-4.473c1.845-0.607,3.854,0.387,4.471,2.243l0.552,1.629c0.635,1.843-0.343,3.856-2.191,4.492
		C39.357,326.352,38.968,326.413,38.586,326.413z M464.713,316.04c-0.332,0-0.663-0.048-1.001-0.145
		c-1.867-0.549-2.94-2.519-2.389-4.386l0.47-1.653c0.53-1.873,2.483-2.968,4.357-2.438c1.877,0.521,2.979,2.478,2.447,4.352
		l-0.504,1.732C467.646,315.044,466.238,316.04,464.713,316.04z M34.897,314.66c-1.541,0-2.954-1.008-3.396-2.561l-0.485-1.732
		c-0.516-1.877,0.59-3.823,2.475-4.341c1.884-0.5,3.826,0.587,4.343,2.471l0.462,1.663c0.539,1.877-0.55,3.83-2.428,4.365
		C35.544,314.622,35.218,314.66,34.897,314.66z M467.824,304.121c-0.263,0-0.523-0.026-0.801-0.086
		c-1.901-0.435-3.088-2.333-2.65-4.237l0.388-1.69c0.421-1.904,2.326-3.108,4.217-2.682c1.898,0.429,3.105,2.312,2.678,4.218
		l-0.394,1.738C470.89,303.018,469.434,304.121,467.824,304.121z M31.866,302.728c-1.618,0-3.078-1.118-3.445-2.762l-0.381-1.738
		c-0.414-1.911,0.799-3.785,2.704-4.199c1.907-0.407,3.786,0.797,4.2,2.709l0.375,1.694c0.425,1.903-0.773,3.784-2.679,4.213
		C32.382,302.703,32.12,302.728,31.866,302.728z M470.265,292.051c-0.203,0-0.403-0.014-0.61-0.055
		c-1.922-0.339-3.209-2.16-2.871-4.086l0.29-1.701c0.317-1.926,2.144-3.244,4.062-2.905c1.925,0.327,3.227,2.146,2.9,4.064
		l-0.296,1.76C473.443,290.843,471.951,292.051,470.265,292.051z M29.502,290.643c-1.696,0-3.195-1.229-3.481-2.953l-0.288-1.769
		c-0.306-1.932,1.014-3.739,2.938-4.051c1.916-0.283,3.739,1.016,4.042,2.94l0.28,1.708c0.322,1.926-0.979,3.751-2.904,4.062
		C29.887,290.633,29.692,290.643,29.502,290.643z M472.038,279.866c-0.139,0-0.279-0.007-0.422-0.024
		c-1.938-0.229-3.321-1.986-3.092-3.923l0.197-1.7c0.21-1.939,1.967-3.368,3.889-3.145c1.942,0.21,3.344,1.949,3.145,3.889
		l-0.203,1.794C475.334,278.548,473.806,279.866,472.038,279.866z M27.806,278.441c-1.777,0-3.311-1.339-3.509-3.147l-0.188-1.772
		c-0.201-1.946,1.211-3.68,3.15-3.886c1.952-0.17,3.679,1.215,3.877,3.16l0.183,1.727c0.213,1.945-1.187,3.685-3.126,3.897
		C28.063,278.435,27.932,278.441,27.806,278.441z M473.133,267.599c-0.076,0-0.152-0.008-0.231-0.008
		c-1.95-0.131-3.427-1.814-3.296-3.758l0.094-1.708c0.104-1.95,1.784-3.454,3.724-3.341c1.945,0.104,3.443,1.769,3.337,3.721
		l-0.101,1.802C476.534,266.167,474.982,267.599,473.133,267.599z M26.785,266.174c-1.862,0-3.422-1.455-3.526-3.334l-0.092-1.794
		c-0.093-1.945,1.413-3.605,3.362-3.691c1.918-0.146,3.604,1.403,3.698,3.36l0.088,1.729c0.108,1.949-1.382,3.609-3.332,3.724
		C26.919,266.174,26.852,266.174,26.785,266.174z M473.561,255.297c-0.007,0-0.014,0-0.021,0c-1.952-0.007-3.521-1.602-3.514-3.551
		l0.007-1.742v-0.644c0-1.95,1.577-3.534,3.534-3.534c1.953,0,3.533,1.584,3.533,3.534v0.586l-0.007,1.841
		C477.087,253.727,475.5,255.297,473.561,255.297z M26.438,253.692c-1.95,0-3.534-1.415-3.534-3.371l0.004-1.784
		c0.014-1.95,1.467-3.427,3.56-3.51c1.95,0.016,3.521,1.608,3.508,3.56L29.972,250C29.972,251.946,28.389,253.692,26.438,253.692z
		 M473.283,242.336c-1.87,0-3.439-1.474-3.525-3.367l-0.087-1.714c-0.117-1.95,1.369-3.622,3.315-3.734
		c1.934-0.162,3.616,1.371,3.737,3.316l0.093,1.804c0.087,1.949-1.411,3.604-3.36,3.695
		C473.401,242.336,473.343,242.336,473.283,242.336z M26.755,241.551c-0.062,0-0.126,0-0.19-0.003
		c-1.951-0.103-3.444-1.768-3.344-3.714l0.104-1.792c0.118-1.945,1.78-3.417,3.745-3.306c1.946,0.118,3.427,1.798,3.309,3.743
		l-0.101,1.726C30.18,240.088,28.622,241.551,26.755,241.551z M472.35,230.057c-1.784,0-3.316-1.347-3.51-3.159l-0.189-1.729
		c-0.218-1.939,1.18-3.688,3.122-3.903c1.912-0.217,3.687,1.177,3.903,3.115l0.188,1.768c0.207,1.938-1.196,3.682-3.14,3.888
		C472.601,230.05,472.474,230.057,472.35,230.057z M27.746,229.274c-0.131,0-0.26-0.007-0.389-0.021
		c-1.94-0.212-3.34-1.956-3.128-3.896l0.202-1.771c0.223-1.938,1.993-3.335,3.915-3.102c1.937,0.223,3.328,1.976,3.105,3.914
		l-0.193,1.729C31.053,227.933,29.523,229.274,27.746,229.274z M470.73,217.844c-1.704,0-3.202-1.236-3.485-2.972l-0.281-1.713
		c-0.317-1.928,0.979-3.746,2.904-4.068c1.919-0.327,3.751,0.979,4.064,2.901l0.29,1.757c0.311,1.927-1,3.74-2.926,4.049
		C471.104,217.83,470.916,217.844,470.73,217.844z M29.398,217.071c-0.186,0-0.381-0.016-0.573-0.047
		c-1.928-0.313-3.233-2.134-2.916-4.056l0.297-1.769c0.331-1.922,2.157-3.2,4.084-2.879c1.924,0.331,3.212,2.161,2.881,4.084
		l-0.287,1.702C32.601,215.841,31.102,217.071,29.398,217.071z M468.439,205.746c-1.629,0-3.092-1.131-3.454-2.785l-0.369-1.691
		c-0.425-1.905,0.776-3.796,2.682-4.22c1.9-0.409,3.793,0.773,4.214,2.679l0.383,1.738c0.414,1.908-0.804,3.787-2.709,4.201
		C468.943,205.717,468.694,205.746,468.439,205.746z M31.728,204.979c-0.254,0-0.513-0.028-0.774-0.085
		c-1.903-0.423-3.103-2.313-2.679-4.22l0.393-1.734c0.438-1.899,2.343-3.076,4.233-2.654c1.905,0.438,3.093,2.333,2.653,4.234
		l-0.381,1.695C34.806,203.858,33.346,204.979,31.728,204.979z M465.491,193.791c-1.549,0-2.975-1.032-3.409-2.601l-0.462-1.652
		c-0.539-1.878,0.541-3.834,2.423-4.372c1.897-0.551,3.834,0.548,4.368,2.42l0.493,1.736c0.516,1.882-0.594,3.826-2.475,4.343
		C466.116,193.749,465.803,193.791,465.491,193.791z M34.722,193.035c-0.316,0-0.637-0.042-0.958-0.135
		c-1.88-0.526-2.976-2.477-2.45-4.356l0.495-1.728c0.543-1.873,2.517-2.946,4.382-2.403c1.872,0.544,2.951,2.506,2.402,4.383
		l-0.473,1.656C37.686,192.014,36.266,193.035,34.722,193.035z M461.883,182.017c-1.478,0-2.857-0.933-3.348-2.412l-0.56-1.622
		c-0.642-1.841,0.338-3.859,2.174-4.501c1.843-0.637,3.858,0.331,4.5,2.172l0.583,1.707c0.621,1.848-0.376,3.853-2.226,4.474
		C462.635,181.958,462.256,182.017,461.883,182.017z M38.374,181.271c-0.378,0-0.759-0.062-1.138-0.189
		c-1.848-0.63-2.834-2.641-2.208-4.483l0.591-1.7c0.646-1.841,2.664-2.81,4.501-2.163c1.841,0.646,2.809,2.662,2.162,4.503
		l-0.564,1.64C41.219,180.347,39.844,181.271,38.374,181.271z M457.62,170.46c-1.403,0-2.729-0.845-3.28-2.228l-0.656-1.611
		c-0.731-1.808,0.139-3.868,1.946-4.604c1.802-0.734,3.867,0.135,4.606,1.942l0.666,1.654c0.726,1.812-0.159,3.868-1.98,4.59
		C458.501,170.377,458.06,170.46,457.62,170.46z M42.686,169.703c-0.44,0-0.89-0.085-1.325-0.261
		c-1.81-0.731-2.683-2.795-1.947-4.603l0.684-1.662c0.745-1.805,2.815-2.659,4.617-1.908c1.803,0.748,2.654,2.814,1.909,4.616
		l-0.658,1.604C45.407,168.869,44.085,169.703,42.686,169.703z M452.741,159.176c-1.336,0-2.611-0.759-3.209-2.049l-0.729-1.548
		c-0.842-1.762-0.09-3.868,1.67-4.711c1.753-0.84,3.875-0.095,4.707,1.669l0.77,1.622c0.817,1.771,0.048,3.873-1.722,4.692
		C453.741,159.074,453.241,159.176,452.741,159.176z M47.632,158.393c-0.505,0-1.014-0.106-1.498-0.336
		c-1.767-0.826-2.528-2.935-1.696-4.7l0.78-1.636c0.852-1.757,2.966-2.488,4.721-1.637c1.756,0.852,2.488,2.965,1.638,4.722
		l-0.738,1.552C50.232,157.643,48.958,158.393,47.632,158.393z M447.238,148.188c-1.267,0-2.492-0.683-3.127-1.885l-0.811-1.501
		c-0.942-1.714-0.305-3.857,1.403-4.796c1.705-0.933,3.858-0.3,4.793,1.41l0.854,1.582c0.914,1.727,0.248,3.863-1.475,4.777
		C448.363,148.053,447.797,148.188,447.238,148.188z M53.195,147.382c-0.565,0-1.142-0.139-1.675-0.425
		c-1.717-0.925-2.355-3.07-1.432-4.788l0.854-1.567c0.94-1.71,3.082-2.339,4.799-1.399c1.71,0.94,2.34,3.089,1.398,4.799
		l-0.833,1.53C55.667,146.71,54.453,147.382,53.195,147.382z M441.144,137.509c-1.193,0-2.36-0.604-3.022-1.698l-0.903-1.475
		c-1.021-1.661-0.511-3.837,1.151-4.861c1.65-1.021,3.831-0.513,4.859,1.146l0.932,1.521c1.016,1.668,0.49,3.841-1.188,4.854
		C442.4,137.344,441.772,137.509,441.144,137.509z M59.356,136.7c-0.628,0-1.268-0.166-1.845-0.522
		c-1.663-1.021-2.183-3.195-1.163-4.858l0.944-1.527c1.035-1.651,3.212-2.15,4.869-1.119c1.654,1.035,2.156,3.217,1.122,4.869
		l-0.913,1.474C61.703,136.103,60.543,136.7,59.356,136.7z M434.463,127.181c-1.133,0-2.242-0.542-2.927-1.549l-0.973-1.405
		c-1.108-1.602-0.726-3.804,0.876-4.919c1.598-1.119,3.807-0.726,4.928,0.877l1.016,1.479c1.104,1.615,0.676,3.812-0.938,4.907
		C435.837,126.982,435.146,127.181,434.463,127.181z M66.096,126.375c-0.694,0-1.396-0.205-2.007-0.63
		c-1.604-1.108-2.005-3.313-0.893-4.915l1.021-1.465c1.125-1.602,3.327-1.984,4.923-0.863c1.598,1.12,1.982,3.325,0.862,4.923
		l-0.997,1.428C68.318,125.846,67.215,126.375,66.096,126.375z M427.224,117.229c-1.069,0-2.119-0.477-2.815-1.392l-1.043-1.347
		c-1.207-1.534-0.947-3.753,0.595-4.961c1.543-1.208,3.751-0.937,4.954,0.594l1.104,1.431c1.188,1.552,0.891,3.767-0.662,4.951
		C428.725,116.992,427.969,117.229,427.224,117.229z M73.393,116.442c-0.76,0-1.522-0.242-2.166-0.742
		c-1.541-1.199-1.819-3.418-0.623-4.959l1.106-1.413c1.217-1.525,3.438-1.78,4.966-0.572c1.528,1.214,1.784,3.438,0.571,4.967
		l-1.066,1.354C75.487,115.971,74.444,116.442,73.393,116.442z M419.339,107.643c-0.949,0-1.874-0.389-2.559-1.173l-1.147-1.318
		c-1.28-1.47-1.137-3.699,0.335-4.984c1.463-1.287,3.69-1.139,4.985,0.331l1.028,1.185c1.279,1.474,1.19,3.785-0.283,5.062
		C421.013,107.344,420.166,107.643,419.339,107.643z M81.215,106.922c-0.819,0-1.646-0.286-2.313-0.864
		c-1.474-1.279-1.632-3.514-0.354-4.986l1.184-1.349c1.298-1.464,3.526-1.599,4.989-0.303c1.464,1.297,1.598,3.526,0.301,4.989
		l-1.134,1.298C83.188,106.509,82.205,106.922,81.215,106.922z M411.156,98.579c-0.925,0-1.85-0.364-2.54-1.082l-1.215-1.242
		c-1.363-1.399-1.342-3.633,0.056-4.995c1.397-1.365,3.628-1.346,5.004,0.052l1.241,1.283c1.356,1.405,1.315,3.643-0.093,4.996
		C412.924,98.255,412.039,98.579,411.156,98.579z M89.551,97.852c-0.887,0-1.774-0.332-2.463-0.999
		c-1.398-1.361-1.43-3.599-0.074-4.997l1.248-1.273c1.371-1.391,3.607-1.405,4.996-0.041c1.393,1.366,1.41,3.607,0.042,4.996
		l-1.215,1.244C91.396,97.49,90.474,97.852,89.551,97.852z M402.382,89.943c-0.863,0-1.723-0.312-2.405-0.943l-1.28-1.184
		c-1.438-1.321-1.527-3.555-0.211-4.993c1.325-1.438,3.568-1.523,4.99-0.209l1.312,1.206c1.423,1.325,1.512,3.562,0.188,4.991
		C404.276,89.566,403.33,89.943,402.382,89.943z M98.367,89.25c-0.954,0-1.901-0.381-2.598-1.134
		c-1.325-1.434-1.236-3.671,0.198-4.993l1.321-1.207c1.447-1.312,3.683-1.203,4.991,0.239c1.312,1.446,1.206,3.679-0.239,4.993
		l-1.274,1.17C100.086,88.939,99.227,89.25,98.367,89.25z M393.137,81.795c-0.793,0-1.594-0.268-2.257-0.815l-1.346-1.112
		c-1.505-1.241-1.719-3.467-0.477-4.977c1.238-1.501,3.464-1.725,4.966-0.477l1.376,1.133c1.502,1.248,1.698,3.475,0.456,4.978
		C395.159,81.36,394.151,81.795,393.137,81.795z M107.64,81.147c-1.019,0-2.027-0.438-2.729-1.285
		c-1.244-1.506-1.028-3.735,0.479-4.976l1.37-1.123c1.509-1.234,3.735-1.013,4.972,0.502c1.234,1.508,1.011,3.737-0.502,4.971
		l-1.346,1.103C109.23,80.888,108.435,81.147,107.64,81.147z M383.468,74.162c-0.731,0-1.477-0.227-2.115-0.699l-1.396-1.03
		c-1.57-1.156-1.911-3.365-0.76-4.938c1.159-1.572,3.36-1.916,4.938-0.761l1.438,1.062c1.561,1.166,1.885,3.382,0.719,4.943
		C385.607,73.672,384.545,74.162,383.468,74.162z M117.339,73.568c-1.085,0-2.151-0.493-2.845-1.431
		c-1.161-1.568-0.83-3.782,0.737-4.939l1.442-1.058c1.575-1.147,3.787-0.794,4.933,0.784c1.146,1.58,0.801,3.789-0.784,4.934
		l-1.393,1.021C118.806,73.342,118.071,73.568,117.339,73.568z M373.382,67.07c-0.666,0-1.346-0.191-1.946-0.586l-1.449-0.954
		c-1.636-1.063-2.102-3.25-1.034-4.89c1.059-1.633,3.25-2.101,4.886-1.035l1.501,0.98c1.629,1.079,2.07,3.269,0.994,4.898
		C375.655,66.517,374.527,67.07,373.382,67.07z M127.431,66.538c-1.152,0-2.282-0.562-2.957-1.598
		c-1.071-1.632-0.61-3.823,1.021-4.891l1.482-0.97c1.633-1.062,3.827-0.593,4.888,1.041c1.063,1.636,0.597,3.827-1.039,4.886
		l-1.459,0.951C128.767,66.349,128.096,66.538,127.431,66.538z M362.919,60.54c-0.607,0-1.226-0.154-1.78-0.482l-1.501-0.873
		c-1.694-0.972-2.285-3.131-1.305-4.824c0.966-1.691,3.123-2.278,4.824-1.303l1.546,0.896c1.684,0.985,2.25,3.152,1.263,4.834
		C365.313,59.916,364.134,60.54,362.919,60.54z M137.894,60.071c-1.218,0-2.4-0.628-3.059-1.76c-0.98-1.689-0.407-3.852,1.281-4.831
		l1.533-0.883c1.692-0.969,3.854-0.389,4.826,1.305c0.974,1.692,0.391,3.851-1.303,4.828l-1.51,0.87
		C139.106,59.916,138.498,60.071,137.894,60.071z M352.114,54.601c-0.533,0-1.09-0.124-1.601-0.387l-1.562-0.797
		c-1.735-0.883-2.434-3.007-1.551-4.75c0.877-1.733,2.999-2.438,4.752-1.554l1.577,0.806c1.739,0.888,2.434,3.019,1.546,4.753
		C354.641,53.894,353.405,54.601,352.114,54.601z M148.692,54.187c-1.287,0-2.524-0.704-3.15-1.93
		c-0.889-1.738-0.199-3.866,1.544-4.753l1.598-0.806c1.744-0.873,3.868-0.159,4.737,1.587c0.87,1.746,0.159,3.865-1.585,4.738
		l-1.537,0.773C149.781,54.063,149.232,54.187,148.692,54.187z M340.989,49.265c-0.482,0-0.966-0.099-1.436-0.308l-1.594-0.706
		c-1.788-0.785-2.597-2.871-1.819-4.654c0.791-1.784,2.868-2.604,4.655-1.815l1.636,0.719c1.781,0.795,2.581,2.884,1.788,4.666
		C343.636,48.485,342.342,49.265,340.989,49.265z M159.792,48.918c-1.357,0-2.65-0.787-3.233-2.104
		c-0.788-1.784,0.019-3.874,1.802-4.66l1.647-0.718c1.787-0.762,3.868,0.062,4.636,1.857c0.768,1.794-0.066,3.87-1.858,4.637
		l-1.565,0.682C160.753,48.819,160.269,48.918,159.792,48.918z M329.581,44.552c-0.421,0-0.85-0.074-1.268-0.236l-1.618-0.607
		c-1.828-0.683-2.761-2.717-2.081-4.544c0.688-1.834,2.724-2.752,4.546-2.081l1.688,0.636c1.825,0.699,2.729,2.742,2.032,4.564
		C332.342,43.685,330.999,44.552,329.581,44.552z M171.159,44.268c-1.428,0-2.774-0.872-3.309-2.286
		c-0.688-1.826,0.232-3.865,2.061-4.555l1.683-0.625c1.831-0.667,3.861,0.269,4.534,2.102c0.671,1.834-0.27,3.863-2.104,4.534
		l-1.618,0.601C171.996,44.194,171.576,44.268,171.159,44.268z M317.925,40.478c-0.355,0-0.718-0.058-1.073-0.169l-1.66-0.521
		c-1.862-0.575-2.908-2.557-2.329-4.42c0.576-1.865,2.551-2.914,4.422-2.328l1.711,0.537c1.862,0.594,2.882,2.58,2.291,4.438
		C320.812,39.516,319.422,40.478,317.925,40.478z M182.799,40.248c-1.502,0-2.895-0.965-3.368-2.475
		c-0.587-1.861,0.445-3.844,2.31-4.432l1.717-0.532c1.86-0.566,3.841,0.486,4.41,2.356c0.564,1.865-0.488,3.841-2.357,4.41
		l-1.646,0.507C183.509,40.194,183.152,40.248,182.799,40.248z M306.085,37.06c-0.293,0-0.594-0.035-0.892-0.112l-1.673-0.424
		c-1.892-0.47-3.044-2.388-2.578-4.283c0.479-1.897,2.389-3.045,4.282-2.576l1.739,0.441c1.884,0.492,3.016,2.421,2.533,4.309
		C309.091,36.003,307.655,37.06,306.085,37.06z M194.643,36.876c-1.575,0-3.014-1.061-3.419-2.656
		c-0.485-1.892,0.657-3.816,2.546-4.299l1.743-0.438c1.886-0.459,3.806,0.697,4.272,2.591c0.462,1.898-0.697,3.81-2.591,4.272
		l-1.676,0.421C195.227,36.84,194.933,36.876,194.643,36.876z M294.08,34.311c-0.229,0-0.471-0.021-0.704-0.071l-1.69-0.332
		c-1.916-0.367-3.168-2.22-2.806-4.136c0.369-1.918,2.219-3.181,4.137-2.806l1.761,0.344c1.911,0.385,3.153,2.251,2.765,4.163
		C297.199,33.155,295.723,34.311,294.08,34.311z M206.657,34.166c-1.653,0-3.131-1.167-3.464-2.849
		c-0.378-1.915,0.866-3.773,2.781-4.151l1.76-0.34c1.937-0.359,3.768,0.902,4.127,2.817c0.36,1.919-0.899,3.767-2.814,4.127
		l-1.696,0.328C207.116,34.148,206.883,34.166,206.657,34.166z M281.94,32.237c-0.166,0-0.339-0.01-0.504-0.036l-1.719-0.243
		c-1.933-0.262-3.292-2.043-3.022-3.976c0.263-1.933,2.035-3.3,3.976-3.024l1.768,0.247c1.933,0.276,3.277,2.064,3.002,3.998
		C285.184,30.965,283.673,32.237,281.94,32.237z M218.802,32.126c-1.734,0-3.247-1.277-3.494-3.045
		c-0.271-1.932,1.077-3.718,3.011-3.984l1.774-0.24c1.936-0.224,3.706,1.108,3.961,3.045c0.25,1.933-1.111,3.706-3.047,3.961
		l-1.713,0.229C219.131,32.116,218.964,32.126,218.802,32.126z M269.707,30.827c-0.104,0-0.21-0.003-0.32-0.016l-1.716-0.141
		c-1.946-0.156-3.398-1.859-3.243-3.803s1.805-3.389,3.803-3.244l1.787,0.148c1.943,0.172,3.379,1.888,3.206,3.831
		C273.058,29.445,271.519,30.827,269.707,30.827z M231.042,30.76c-1.819,0-3.366-1.396-3.52-3.24
		c-0.157-1.948,1.285-3.654,3.23-3.813l1.772-0.142c1.971-0.134,3.646,1.308,3.794,3.251c0.148,1.948-1.308,3.644-3.251,3.796
		l-1.734,0.138C231.236,30.756,231.139,30.76,231.042,30.76z M257.419,30.092c-0.045,0-0.076,0-0.117,0l-1.726-0.05
		c-1.953-0.044-3.495-1.663-3.457-3.613c0.041-1.952,1.62-3.64,3.615-3.449l1.791,0.05c1.949,0.062,3.481,1.696,3.419,3.646
		C260.884,28.583,259.317,30.092,257.419,30.092z M243.34,30.063c-1.904,0-3.476-1.516-3.53-3.431
		c-0.057-1.95,1.479-3.579,3.427-3.637l1.784-0.044c1.951-0.074,3.566,1.508,3.607,3.459c0.044,1.95-1.508,3.565-3.459,3.608
		l-1.725,0.042C243.409,30.063,243.375,30.063,243.34,30.063z"/>
</g>
</svg>
