<?xml version="1.0" encoding="utf-8"?>
<!-- Generator: Adobe Illustrator 16.0.0, SVG Export Plug-In . SVG Version: 6.00 Build 0)  -->
<!DOCTYPE svg PUBLIC "-//W3C//DTD SVG 1.1//EN" "http://www.w3.org/Graphics/SVG/1.1/DTD/svg11.dtd">
<svg version="1.1" id="Layer_1" xmlns="http://www.w3.org/2000/svg" xmlns:xlink="http://www.w3.org/1999/xlink" x="0px" y="0px"
	 width="500px" height="499.996px" viewBox="0 0 500 499.996" enable-background="new 0 0 500 499.996" xml:space="preserve">
<g id="change1_1_">
	<circle fill="#99B83C" cx="249.998" cy="250" r="249.999"/>
</g>
<g id="change2_1_">
	<path fill="#D2DF64" d="M249.998,476.826c-2.382,0-4.755-0.041-7.12-0.108l0.285-9.476c7.689,0.226,15.553,0.072,23.211-0.502
		l0.706,9.443C261.448,476.608,255.696,476.826,249.998,476.826z M233.197,476.221c-8.025-0.59-16.109-1.619-24.021-3.06
		l1.693-9.323c7.583,1.377,15.324,2.356,23.021,2.92L233.197,476.221z M276.73,475.264l-1.101-9.414
		c7.673-0.904,15.365-2.221,22.866-3.937l2.104,9.242C292.767,472.948,284.738,474.328,276.73,475.264z M199.674,471.219
		c-7.837-1.775-15.687-4.004-23.312-6.617l3.075-8.961c7.309,2.496,14.816,4.629,22.331,6.336L199.674,471.219z M310,468.805
		l-2.499-9.144c7.433-2.043,14.844-4.502,22.016-7.321l3.47,8.819C325.497,464.11,317.765,466.68,310,468.805z M167.244,461.249
		c-7.491-2.936-14.909-6.313-22.053-10.034l4.388-8.412c6.846,3.582,13.949,6.813,21.124,9.625L167.244,461.249z M341.907,457.424
		l-3.844-8.66c7.041-3.127,13.99-6.664,20.672-10.529l4.751,8.199C356.516,450.475,349.256,454.167,341.907,457.424z
		 M136.682,446.539c-6.97-4.024-13.802-8.475-20.298-13.229l5.587-7.65c6.232,4.554,12.78,8.812,19.455,12.67L136.682,446.539z
		 M371.758,441.41l-5.096-7.993c6.508-4.142,12.854-8.681,18.878-13.492l5.926,7.396
		C385.172,432.348,378.537,437.088,371.758,441.41z M108.675,427.428c-6.291-5.013-12.379-10.429-18.111-16.086l6.665-6.746
		c5.491,5.432,11.329,10.613,17.356,15.42L108.675,427.428z M398.894,421.119l-6.222-7.149c5.814-5.062,11.426-10.496,16.671-16.15
		l6.942,6.441C410.817,410.17,404.963,415.834,398.894,421.119z M83.817,404.387c-5.475-5.894-10.693-12.135-15.519-18.59
		l7.586-5.683c4.624,6.179,9.633,12.179,14.878,17.814L83.817,404.387z M422.73,397.022l-7.213-6.15
		c5.005-5.875,9.75-12.077,14.097-18.44l7.826,5.348C432.906,384.412,427.955,390.885,422.73,397.022z M62.659,377.93
		c-4.549-6.654-8.783-13.609-12.591-20.688l8.351-4.498c3.646,6.791,7.703,13.459,12.062,19.828L62.659,377.93z M442.74,369.651
		l-8.049-5.012c4.079-6.555,7.843-13.396,11.192-20.344l8.539,4.129C450.927,355.664,446.99,362.808,442.74,369.651z
		 M45.676,348.623c-3.511-7.258-6.661-14.782-9.359-22.353l8.93-3.179c2.585,7.244,5.602,14.453,8.964,21.403L45.676,348.623z
		 M458.448,339.578l-8.704-3.739c3.051-7.093,5.742-14.418,8.019-21.78l9.057,2.782
		C464.448,324.539,461.633,332.182,458.448,339.578z M33.252,317.08c-2.379-7.69-4.364-15.592-5.903-23.495l9.304-1.812
		c1.474,7.564,3.373,15.135,5.649,22.498L33.252,317.08z M469.472,307.513l-9.174-2.394c1.958-7.453,3.518-15.104,4.652-22.738
		l9.376,1.406C473.14,291.75,471.509,299.739,469.472,307.513z M25.704,284.034c-1.193-7.943-1.979-16.052-2.324-24.107l9.468-0.402
		c0.329,7.722,1.083,15.486,2.225,23.101L25.704,284.034z M475.553,274.17l-9.427-0.994c0.812-7.637,1.224-15.436,1.224-23.177
		v-0.483h9.476v0.483C476.823,258.066,476.397,266.204,475.553,274.17z M32.642,250.233H23.17V250c0-7.99,0.422-16.047,1.248-23.938
		l9.427,0.991c-0.795,7.565-1.2,15.289-1.2,22.947v0.232H32.642z M467.135,240.237c-0.336-7.724-1.094-15.487-2.249-23.099
		l9.373-1.42c1.196,7.938,1.991,16.044,2.348,24.104L467.135,240.237z M35.008,217.837l-9.376-1.39
		c1.183-7.971,2.808-15.95,4.834-23.738l9.17,2.389C37.698,202.562,36.139,210.209,35.008,217.837z M463.295,207.995
		c-1.48-7.573-3.393-15.144-5.676-22.503l9.057-2.812c2.382,7.683,4.374,15.584,5.924,23.482L463.295,207.995z M42.172,186.161
		l-9.063-2.777c2.365-7.702,5.169-15.354,8.347-22.752l8.708,3.74C47.119,171.454,44.431,178.791,42.172,186.161z M454.677,176.683
		c-2.598-7.254-5.625-14.45-8.991-21.397l8.532-4.139c3.514,7.25,6.668,14.766,9.386,22.334L454.677,176.683z M54.013,155.902
		l-8.543-4.106c3.487-7.25,7.408-14.401,11.656-21.247l8.053,5.002C61.113,142.107,57.352,148.956,54.013,155.902z M441.462,147.036
		c-3.654-6.781-7.72-13.445-12.077-19.812l7.812-5.361c4.556,6.645,8.797,13.601,12.612,20.673L441.462,147.036z M70.256,127.756
		l-7.833-5.337c4.536-6.654,9.479-13.133,14.686-19.264l7.229,6.145C79.337,115.168,74.595,121.38,70.256,127.756z M423.974,119.684
		c-4.628-6.161-9.64-12.148-14.898-17.803l6.938-6.458c5.482,5.898,10.72,12.142,15.547,18.573L423.974,119.684z M90.495,102.348
		l-6.955-6.445c5.475-5.905,11.319-11.584,17.38-16.869l6.229,7.142C101.342,91.243,95.74,96.684,90.495,102.348z M402.603,95.224
		c-5.498-5.42-11.343-10.6-17.373-15.396l5.903-7.419c6.29,5.005,12.389,10.41,18.121,16.066L402.603,95.224z M114.276,80.222
		l-5.928-7.396c6.291-5.036,12.91-9.78,19.688-14.106l5.101,7.987C126.644,70.85,120.299,75.396,114.276,80.222z M377.836,74.193
		c-6.242-4.546-12.799-8.804-19.472-12.646l4.734-8.217c6.963,4.018,13.799,8.454,20.318,13.205L377.836,74.193z M141.059,61.875
		l-4.758-8.197c6.973-4.045,14.227-7.754,21.569-11.021l3.854,8.667C154.686,54.45,147.734,57.994,141.059,61.875z M350.216,57.076
		c-6.853-3.565-13.972-6.795-21.14-9.6l3.447-8.831c7.494,2.928,14.912,6.301,22.063,10.021L350.216,57.076z M170.257,47.738
		l-3.479-8.816c7.49-2.958,15.228-5.537,22.982-7.672l2.509,9.143C184.84,42.434,177.431,44.906,170.257,47.738z M320.331,44.279
		c-7.29-2.499-14.811-4.62-22.332-6.32l2.087-9.242c7.854,1.766,15.704,3.982,23.315,6.589L320.331,44.279z M201.274,38.122
		l-2.112-9.239c7.827-1.793,15.859-3.188,23.864-4.131l1.113,9.41C216.474,35.073,208.782,36.408,201.274,38.122z M288.897,36.116
		c-7.563-1.372-15.314-2.346-23.024-2.904l0.683-9.451c8.042,0.579,16.126,1.598,24.031,3.023L288.897,36.116z M233.385,33.271
		l-0.717-9.455c8.009-0.6,16.191-0.789,24.213-0.548l-0.284,9.476C248.915,32.51,241.061,32.688,233.385,33.271z"/>
</g>
</svg>
