<?xml version="1.0" encoding="utf-8"?>
<!-- Generator: Adobe Illustrator 15.0.0, SVG Export Plug-In . SVG Version: 6.00 Build 0)  -->
<!DOCTYPE svg PUBLIC "-//W3C//DTD SVG 1.1//EN" "http://www.w3.org/Graphics/SVG/1.1/DTD/svg11.dtd">
<svg version="1.1" id="Layer_1" xmlns="http://www.w3.org/2000/svg" xmlns:xlink="http://www.w3.org/1999/xlink" x="0px" y="0px"
	 width="500px" height="500px" viewBox="0 0 500 500" enable-background="new 0 0 500 500" xml:space="preserve">
<g id="Layer_X">
	<g id="change2">
		<circle fill="#FFB531" cx="250" cy="250" r="245"/>
		<circle fill="#FFB531" cx="250" cy="250" r="250"/>
	</g>
	<g id="change1">
		<path fill="#FFFFFF" d="M253.713,453.068c-1.529,0-2.768-1.238-2.768-2.771s1.238-2.769,2.768-2.769
			c1.514,0,2.792,1.214,2.814,2.727c0.021,1.513-1.129,2.763-2.646,2.812C253.857,453.067,253.741,453.068,253.713,453.068z
			 M239.009,452.805c-0.055,0-0.109-0.002-0.165-0.004l-0.093-0.006c-1.525-0.09-2.69-1.398-2.6-2.926
			c0.09-1.527,1.411-2.67,2.926-2.604c1.526,0.095,2.737,1.402,2.647,2.934C241.638,451.668,240.461,452.805,239.009,452.805z
			 M268.486,452.26c-1.416,0-2.627-1.085-2.752-2.521c-0.135-1.522,0.99-2.866,2.514-3c1.521-0.131,2.912,0.982,3.048,2.51
			c0.134,1.521-0.944,2.861-2.47,2.996l-0.092,0.008C268.652,452.256,268.57,452.26,268.486,452.26z M224.27,451.464
			c-0.109,0-0.218-0.006-0.329-0.019c-0.025-0.003-0.141-0.021-0.166-0.022c-1.513-0.223-2.559-1.628-2.336-3.142
			c0.222-1.517,1.631-2.563,3.141-2.335c1.499,0.22,2.587,1.604,2.387,3.105C226.782,450.447,225.633,451.464,224.27,451.464z
			 M283.166,450.368c-1.346,0-2.525-0.981-2.732-2.354c-0.229-1.512,0.812-2.922,2.32-3.147c1.508-0.27,2.955,0.732,3.221,2.243
			c0.27,1.506-0.728,2.938-2.229,3.199l-0.156,0.026C283.441,450.358,283.305,450.368,283.166,450.368z M209.671,449.041
			c-0.187,0-0.378-0.02-0.569-0.06l0.566-2.71l-0.595,2.698c-1.492-0.294-2.482-1.735-2.198-3.229
			c0.283-1.493,1.699-2.483,3.199-2.211c0.024,0.004,0.137,0.022,0.161,0.032c1.497,0.312,2.456,1.775,2.144,3.271
			C212.105,448.144,210.954,449.041,209.671,449.041z M297.665,447.396c-1.247,0-2.38-0.854-2.687-2.116
			c-0.36-1.485,0.551-2.983,2.037-3.343c1.483-0.358,3.022,0.536,3.387,2.022c0.361,1.485-0.508,2.972-1.993,3.332l-0.089,0.021
			C298.104,447.371,297.882,447.396,297.665,447.396z M195.289,445.54c-0.241,0-0.486-0.032-0.73-0.098l-0.174-0.056
			c-1.461-0.445-2.281-1.999-1.831-3.46c0.449-1.463,1.997-2.278,3.459-1.832c1.476,0.401,2.347,1.93,1.944,3.399
			C197.621,444.729,196.506,445.54,195.289,445.54z M311.904,443.356c-1.188,0-2.286-0.771-2.647-1.971
			c-0.444-1.464,0.383-3.01,1.845-3.453c1.453-0.499,3.021,0.274,3.519,1.724c0.496,1.441-0.277,3.021-1.728,3.52
			c-0.026,0.011-0.147,0.05-0.184,0.062C312.44,443.317,312.171,443.356,311.904,443.356z M181.207,440.979
			c-0.323,0-0.652-0.057-0.972-0.179l0.972-2.59l-0.995,2.583c-1.424-0.521-2.186-2.096-1.683-3.525
			c0.503-1.432,2.041-2.193,3.478-1.712l0.172,0.062c1.431,0.535,2.157,2.132,1.619,3.562
			C183.382,440.293,182.328,440.979,181.207,440.979z M325.807,438.265c-1.094,0-2.129-0.647-2.562-1.729
			c-0.575-1.416,0.104-3.03,1.521-3.605c1.408-0.568,3.062,0.083,3.646,1.49c0.579,1.408-0.042,3.003-1.447,3.592
			c-0.008,0.004-0.104,0.044-0.11,0.048C326.506,438.199,326.153,438.265,325.807,438.265z M167.488,435.377
			c-0.38,0-0.768-0.08-1.138-0.246l-0.069-0.033c-1.396-0.614-2.026-2.255-1.405-3.648c0.62-1.396,2.255-2.023,3.653-1.404
			l0.1,0.045c1.393,0.629,2.013,2.271,1.384,3.662C169.551,434.77,168.543,435.377,167.488,435.377z M339.275,432.163
			c-1.027,0-2.021-0.577-2.494-1.564c-0.664-1.376-0.089-3.027,1.286-3.691c1.372-0.666,3.059-0.118,3.729,1.25
			c0.67,1.359,0.156,2.995-1.205,3.676c-0.012,0.006-0.104,0.051-0.11,0.056C340.09,432.072,339.681,432.163,339.275,432.163z
			 M154.221,428.77c-0.437,0-0.881-0.104-1.294-0.319l-0.143-0.079c-1.33-0.754-1.798-2.442-1.043-3.774
			c0.753-1.327,2.441-1.796,3.773-1.043c1.348,0.726,1.868,2.402,1.149,3.751C156.164,428.235,155.209,428.77,154.221,428.77z
			 M352.276,425.061c-0.938,0-1.851-0.469-2.368-1.314c-0.791-1.298-0.402-2.984,0.89-3.786c0.021-0.014,0.119-0.072,0.145-0.082
			c1.315-0.772,3.015-0.332,3.782,0.987c0.772,1.313,0.33,3.015-0.982,3.787l-1.401-2.393l1.375,2.403
			C353.264,424.933,352.769,425.061,352.276,425.061z M141.463,421.196c-0.492,0-0.99-0.14-1.443-0.421
			c-0.013-0.013-0.104-0.065-0.116-0.074c-1.279-0.838-1.636-2.555-0.798-3.834c0.837-1.276,2.554-1.637,3.832-0.799
			c1.271,0.835,1.672,2.562,0.85,3.84C143.254,420.735,142.369,421.196,141.463,421.196z M364.671,417.067
			c-0.846,0-1.681-0.396-2.227-1.128c-0.908-1.229-0.64-2.979,0.593-3.89c0.033-0.021,0.139-0.097,0.17-0.117
			c1.264-0.854,2.987-0.524,3.844,0.736c0.859,1.264,0.53,2.986-0.73,3.844l-1.559-2.29l1.539,2.305
			C365.808,416.894,365.238,417.067,364.671,417.067z M129.359,412.718c-0.594,0-1.193-0.188-1.697-0.582l1.699-2.186l-1.718,2.171
			c-1.205-0.921-1.462-2.651-0.557-3.868c0.906-1.216,2.604-1.49,3.829-0.598l0.146,0.104c1.207,0.939,1.424,2.684,0.485,3.89
			C131.001,412.352,130.185,412.718,129.359,412.718z M376.494,408.127c-0.804,0-1.604-0.348-2.148-1.021
			c-0.964-1.188-0.787-2.935,0.397-3.896c0.004-0.002,0.079-0.062,0.081-0.062c1.188-0.959,2.932-0.774,3.894,0.41
			c0.961,1.189,0.773,2.938-0.416,3.896l-1.739-2.152l1.685,2.203C377.729,407.923,377.108,408.127,376.494,408.127z
			 M117.838,403.353c-0.624,0-1.248-0.217-1.763-0.655c-0.015-0.018-0.1-0.087-0.114-0.104c-1.135-1.021-1.226-2.771-0.202-3.909
			c1.024-1.136,2.774-1.226,3.909-0.196c1.127,1.017,1.26,2.774,0.257,3.917C119.371,403.025,118.605,403.353,117.838,403.353z
			 M387.606,398.379c-0.71,0-1.426-0.271-1.971-0.816c-1.081-1.075-1.062-2.85,0.021-3.93c0.021-0.025,0.121-0.117,0.146-0.145
			c1.125-1.035,2.876-0.959,3.911,0.164c1.034,1.125,0.963,2.877-0.163,3.912l-1.874-2.037l1.86,2.05
			C389.004,398.113,388.305,398.379,387.606,398.379z M107.076,393.18c-0.69,0-1.377-0.263-1.908-0.795
			c-0.021-0.02-0.105-0.105-0.125-0.127c-1.047-1.113-0.993-2.865,0.121-3.912c1.114-1.048,2.865-0.992,3.913,0.119
			c1.035,1.104,1.027,2.865-0.059,3.917C108.473,392.912,107.773,393.18,107.076,393.18z M397.988,387.801
			c-0.669,0-1.342-0.24-1.873-0.73c-1.124-1.032-1.199-2.782-0.164-3.907c1.036-1.127,2.814-1.229,3.938-0.197
			c1.125,1.035,1.229,2.752,0.194,3.877l-0.062,0.068C399.48,387.499,398.735,387.801,397.988,387.801z M97.094,382.246
			c-0.767,0-1.523-0.322-2.063-0.961l-0.06-0.069c-0.987-1.168-0.842-2.914,0.325-3.901c1.167-0.983,2.914-0.842,3.902,0.326
			c0.987,1.166,0.871,2.946-0.296,3.938C98.373,382.021,97.73,382.246,97.094,382.246z M407.562,376.508
			c-0.611,0-1.229-0.201-1.737-0.615c-1.189-0.961-1.375-2.703-0.415-3.893c0.953-1.182,2.711-1.412,3.903-0.467
			c1.188,0.943,1.426,2.635,0.488,3.833c-0.011,0.013-0.075,0.1-0.09,0.11C409.169,376.154,408.369,376.508,407.562,376.508z
			 M87.944,370.611c-0.828,0-1.64-0.375-2.175-1.096c-0.009-0.019-0.073-0.104-0.082-0.113c-0.888-1.244-0.6-2.973,0.644-3.861
			c1.244-0.891,2.972-0.602,3.861,0.643c0.883,1.236,0.631,2.991-0.597,3.887C89.093,370.434,88.515,370.611,87.944,370.611z
			 M416.278,364.538c-0.521,0-1.046-0.146-1.519-0.453c-1.275-0.837-1.636-2.553-0.799-3.832c0.009-0.012,0.067-0.101,0.076-0.112
			c0.859-1.266,2.582-1.597,3.846-0.736c1.27,0.857,1.599,2.58,0.736,3.849l-2.291-1.558l2.264,1.597
			C418.065,364.1,417.181,364.538,416.278,364.538z M79.728,358.364c-0.925,0-1.831-0.466-2.355-1.31l2.352-1.459l-2.396,1.391
			c-0.81-1.297-0.416-3.006,0.88-3.815s3.004-0.416,3.815,0.882c0.001,0.002,0.051,0.08,0.052,0.084
			c0.807,1.299,0.407,3.006-0.892,3.812C80.731,358.229,80.226,358.364,79.728,358.364z M424.092,351.956
			c-0.475,0-0.955-0.122-1.396-0.38c-1.318-0.773-1.766-2.469-0.988-3.789c0.754-1.329,2.457-1.816,3.786-1.064
			c1.329,0.754,1.811,2.42,1.058,3.75l-0.062,0.116C425.967,351.467,425.043,351.956,424.092,351.956z M72.389,345.521
			c-1.002,0-1.969-0.547-2.461-1.5l2.459-1.271l-2.485,1.225c-0.72-1.353-0.209-3.024,1.14-3.746
			c1.347-0.722,3.026-0.209,3.745,1.143c0.005,0.01,0.053,0.104,0.059,0.111c0.702,1.354,0.169,3.023-1.189,3.729
			C73.251,345.422,72.817,345.521,72.389,345.521z M430.957,338.83c-0.392,0-0.79-0.083-1.17-0.262
			c-1.386-0.646-1.984-2.293-1.338-3.678c0.005-0.017,0.05-0.105,0.057-0.119c0.667-1.375,2.323-1.951,3.698-1.285
			c1.376,0.664,1.951,2.32,1.286,3.697l-2.492-1.205l2.469,1.252C432.997,338.238,432,338.83,430.957,338.83z M65.975,332.139
			c-1.05,0-2.043-0.598-2.492-1.627l-0.037-0.085c-0.61-1.401,0.031-3.032,1.433-3.645c1.401-0.608,3.032,0.03,3.643,1.433
			c0.611,1.403-0.012,3.075-1.413,3.688C66.737,332.062,66.353,332.139,65.975,332.139z M436.827,325.229
			c-0.347,0-0.699-0.062-1.04-0.203c-1.416-0.572-2.098-2.188-1.522-3.604c0.536-1.436,2.142-2.167,3.566-1.628
			c1.432,0.536,2.159,2.123,1.622,3.56l-0.062,0.151C438.956,324.576,437.921,325.229,436.827,325.229z M60.665,318.395
			c-1.15,0-2.224-0.722-2.619-1.869l-0.026-0.071c-0.502-1.442,0.26-3.021,1.704-3.524c1.445-0.503,3.022,0.262,3.524,1.701
			l0.034,0.104c0.497,1.441-0.272,3.021-1.718,3.518C61.266,318.346,60.963,318.395,60.665,318.395z M441.674,311.221
			c-0.271,0-0.552-0.041-0.827-0.127c-1.459-0.455-2.271-2.009-1.812-3.467c0.438-1.465,2.001-2.326,3.462-1.881
			c1.463,0.443,2.301,1.956,1.854,3.42l-0.031,0.109C443.944,310.461,442.853,311.221,441.674,311.221z M56.34,304.238
			c-1.232,0-2.357-0.83-2.679-2.079l2.681-0.69l-2.694,0.639c-0.402-1.475,0.467-2.996,1.941-3.396
			c1.472-0.399,2.997,0.465,3.4,1.938c0.003,0.017,0.03,0.115,0.034,0.129c0.38,1.479-0.51,2.99-1.991,3.371
			C56.801,304.21,56.569,304.238,56.34,304.238z M445.457,296.911c-0.21,0-0.422-0.024-0.637-0.075
			c-1.487-0.35-2.409-1.84-2.062-3.328c0.352-1.476,1.819-2.447,3.312-2.111c1.479,0.33,2.427,1.746,2.107,3.229
			c-0.005,0.021-0.022,0.13-0.028,0.149C447.85,296.05,446.713,296.911,445.457,296.911z M53.055,289.758
			c-1.288,0-2.428-0.877-2.687-2.191c-0.002-0.006-0.014-0.065-0.015-0.078c-0.282-1.502,0.701-2.963,2.202-3.243
			c1.501-0.281,2.944,0.685,3.23,2.183c0.287,1.497-0.685,2.991-2.182,3.281C53.419,289.74,53.234,289.758,53.055,289.758z
			 M448.168,282.359c-0.139,0-0.278-0.01-0.419-0.031c-1.513-0.229-2.553-1.641-2.321-3.15c0.229-1.511,1.644-2.59,3.151-2.369
			c1.511,0.229,2.56,1.586,2.337,3.1c0,0.004-0.016,0.1-0.017,0.104C450.694,281.377,449.512,282.359,448.168,282.359z
			 M50.886,275.118c-1.379,0-2.563-0.996-2.729-2.4c-0.001-0.012-0.012-0.112-0.013-0.122c-0.162-1.521,0.94-2.884,2.461-3.045
			c1.528-0.16,2.883,0.94,3.045,2.461c0.16,1.514-0.927,2.918-2.441,3.088C51.101,275.111,50.993,275.118,50.886,275.118z
			 M449.794,267.648c-0.084,0-0.165-0.004-0.247-0.01c-1.521-0.14-2.646-1.479-2.516-3c0.134-1.513,1.449-2.679,2.965-2.563
			c1.508,0.11,2.651,1.366,2.562,2.877c-0.002,0.026-0.011,0.146-0.013,0.172C452.42,266.564,451.211,267.648,449.794,267.648z
			 M49.804,260c-1.473,0-2.692-0.938-2.758-2.421c0-0.015-0.005-0.03-0.005-0.042c-0.045-1.531,1.158-2.762,2.686-2.807
			c1.526-0.059,2.803,1.004,2.848,2.531c0.045,1.521-1.144,2.733-2.663,2.733C49.875,260,49.839,260,49.804,260z M450.282,252.861
			c-1.527,0-2.742-1.238-2.742-2.771c0-0.076,0.016-0.15,0.022-0.225c-0.012-0.078-0.009-0.156-0.009-0.235
			c0-1.529,1.191-2.815,2.726-2.815c1.523,0,2.721,1.194,2.721,2.723v0.092c0,0.059-0.002,0.118-0.006,0.177
			c0.004,0.063,0.006,0.126,0.006,0.191v0.092C453,251.623,451.812,252.861,450.282,252.861z M49.793,245.555
			c-0.032,0-0.066,0-0.1-0.002c-1.52-0.056-2.711-1.282-2.667-2.802c0-0.013,0.004-0.119,0.004-0.132
			c0.067-1.527,1.366-2.705,2.887-2.643c1.528,0.067,2.711,1.36,2.644,2.887C52.497,244.349,51.27,245.555,49.793,245.555z
			 M449.766,237.609c-1.447,0-2.673-1.133-2.761-2.603c-0.09-1.511,1.047-2.86,2.555-2.971c1.509-0.117,2.826,0.963,2.96,2.471
			c0.008,0.026,0.015,0.144,0.017,0.17c0.093,1.526-1.071,2.837-2.603,2.928C449.878,237.608,449.821,237.609,449.766,237.609z
			 M50.853,230.794c-0.099,0-0.198-0.005-0.299-0.017c-1.511-0.168-2.608-1.477-2.453-2.989c0.002-0.014,0.013-0.121,0.015-0.135
			c0.182-1.519,1.562-2.596,3.077-2.421c1.519,0.182,2.602,1.559,2.42,3.077C53.445,229.718,52.241,230.794,50.853,230.794z
			 M448.119,222.902c-1.354,0-2.532-0.99-2.734-2.366c-0.224-1.512,0.813-2.963,2.325-3.187c1.509-0.224,2.911,0.773,3.136,2.284
			c0.001,0.002,0.02,0.095,0.02,0.097c0.224,1.513-0.823,2.919-2.336,3.142C448.389,222.893,448.254,222.902,448.119,222.902z
			 M52.994,216.15c-0.163,0-0.329-0.015-0.494-0.046c-1.496-0.279-2.494-1.667-2.226-3.164c0.002-0.013,0.021-0.117,0.024-0.129
			c0.291-1.501,1.741-2.481,3.245-2.191c1.5,0.292,2.482,1.745,2.191,3.245C55.476,215.193,54.301,216.15,52.994,216.15z
			 M445.392,208.356c-1.279,0-2.434-0.897-2.708-2.202c-0.31-1.48,0.616-2.979,2.095-3.312c1.478-0.333,2.934,0.535,3.291,2.003
			c0.006,0.029,0.028,0.146,0.034,0.176c0.312,1.497-0.646,2.963-2.144,3.276C445.769,208.337,445.579,208.356,445.392,208.356z
			 M56.215,201.705c-0.23,0-0.463-0.03-0.695-0.092c-1.468-0.392-2.357-1.849-1.978-3.32c0.004-0.016,0.032-0.121,0.037-0.137
			c0.407-1.472,1.93-2.337,3.406-1.929c1.474,0.408,2.337,1.933,1.929,3.407C58.573,200.866,57.44,201.705,56.215,201.705z
			 M441.59,194.053c-1.183,0-2.279-0.766-2.644-1.956c-0.45-1.461,0.354-3.054,1.813-3.504c1.46-0.449,2.995,0.328,3.444,1.788
			l0.028,0.088c0.444,1.461-0.371,3.01-1.832,3.46C442.134,194.013,441.86,194.053,441.59,194.053z M60.508,187.565
			c-0.291,0-0.586-0.046-0.877-0.145c-1.447-0.491-2.231-2.042-1.74-3.491l0.047-0.136c0.518-1.438,2.104-2.186,3.542-1.669
			s2.186,2.103,1.668,3.541C62.755,186.824,61.667,187.565,60.508,187.565z M436.725,180.062c-1.09,0-2.114-0.646-2.554-1.718
			c-0.009-0.019-0.049-0.123-0.057-0.142c-0.544-1.429,0.175-3.027,1.603-3.572c1.435-0.547,3.028,0.173,3.572,1.602l-2.587,0.985
			l2.598-0.953c0.562,1.417-0.123,3.031-1.538,3.598C437.421,179.998,437.069,180.062,436.725,180.062z M65.839,173.714
			c-0.359,0-0.721-0.07-1.069-0.221c-1.401-0.605-2.066-2.187-1.465-3.589c0.002-0.004,0.04-0.094,0.042-0.1
			c0.61-1.401,2.24-2.043,3.643-1.433c1.402,0.611,2.044,2.242,1.433,3.644C67.967,173.066,66.923,173.714,65.839,173.714z
			 M430.862,166.502c-1.05,0-2.058-0.598-2.521-1.614c-0.633-1.377-0.061-3.046,1.312-3.697c1.363-0.65,2.98-0.122,3.647,1.238
			c0.017,0.022,0.062,0.127,0.072,0.149c0.638,1.389,0.027,3.032-1.361,3.67C431.641,166.421,431.249,166.502,430.862,166.502z
			 M72.196,160.377c-0.433,0-0.873-0.102-1.283-0.317c-1.354-0.71-1.875-2.383-1.166-3.737l0.036-0.067
			c0.701-1.359,2.372-1.891,3.729-1.189c1.358,0.702,1.891,2.372,1.188,3.73l-0.05,0.097
			C74.155,159.838,73.193,160.377,72.196,160.377z M423.996,153.402c-0.957,0-1.889-0.497-2.4-1.386
			c-0.764-1.324-0.332-3.057,0.994-3.82c1.325-0.763,2.993-0.349,3.757,0.976l0.046,0.08c0.769,1.324,0.312,3.017-1.018,3.78
			C424.94,153.283,424.466,153.402,423.996,153.402z M79.516,147.453c-0.491,0-0.985-0.13-1.43-0.406
			c-1.299-0.807-1.723-2.474-0.917-3.773l0.049-0.078c0.806-1.299,2.512-1.698,3.812-0.892c1.298,0.806,1.698,2.513,0.892,3.812
			C81.392,146.97,80.461,147.453,79.516,147.453z M416.178,140.841c-0.896,0-1.771-0.432-2.305-1.233
			c-0.846-1.269-0.534-3.02,0.73-3.871c1.267-0.852,2.95-0.556,3.811,0.705c0.005,0.006,0.061,0.088,0.062,0.095
			c0.853,1.272,0.508,2.991-0.769,3.839C417.239,140.69,416.704,140.841,416.178,140.841z M87.773,135.156
			c-0.559,0-1.119-0.167-1.602-0.518c-1.236-0.899-1.537-2.594-0.637-3.83l0.054-0.074c0.898-1.236,2.63-1.51,3.867-0.61
			c1.236,0.899,1.51,2.63,0.61,3.867C89.517,134.745,88.648,135.156,87.773,135.156z M407.451,128.889
			c-0.824,0-1.646-0.367-2.188-1.068c-0.935-1.204-0.752-2.972,0.447-3.914c1.201-0.94,2.905-0.772,3.852,0.422
			c0.009,0.006,0.066,0.085,0.072,0.092c0.938,1.207,0.722,2.946-0.48,3.885C408.644,128.699,408.045,128.889,407.451,128.889z
			 M96.915,123.501c-0.627,0-1.255-0.208-1.766-0.641c-1.167-0.987-1.342-2.699-0.355-3.866l0.06-0.07
			c0.986-1.167,2.733-1.313,3.901-0.325c1.167,0.987,1.312,2.734,0.325,3.901C98.525,123.157,97.72,123.501,96.915,123.501z
			 M397.87,117.608c-0.747,0-1.49-0.301-2.036-0.894c-1.037-1.125-0.993-2.91,0.131-3.946c1.123-1.035,2.844-0.996,3.881,0.13
			l0.062,0.067c1.035,1.125,0.964,2.876-0.161,3.912C399.212,117.366,398.541,117.608,397.87,117.608z M106.872,112.601
			c-0.7,0-1.399-0.263-1.937-0.791c-1.092-1.069-1.11-2.822-0.041-3.914l1.978,1.937l-1.914-2.002
			c1.069-1.092,2.823-1.111,3.914-0.042c1.093,1.069,1.111,2.822,0.041,3.915l-0.064,0.066
			C108.307,112.323,107.589,112.601,106.872,112.601z M387.484,107.059c-0.688,0-1.378-0.255-1.914-0.77
			c-1.104-1.054-1.181-2.831-0.127-3.936c1.05-1.104,2.762-1.186,3.865-0.143c0.012,0.007,0.081,0.075,0.092,0.082
			c1.103,1.058,1.141,2.81,0.084,3.914C388.94,106.773,388.212,107.059,387.484,107.059z M117.634,102.366
			c-0.766,0-1.525-0.308-2.065-0.92c-1.012-1.146-0.937-2.865,0.209-3.876l0.07-0.061c1.145-1.011,2.895-0.903,3.907,0.244
			c1.011,1.146,0.902,2.896-0.244,3.907C118.976,102.131,118.303,102.366,117.634,102.366z M376.348,97.298
			c-0.603,0-1.211-0.196-1.721-0.602c-0.011-0.011-0.097-0.08-0.109-0.09c-1.179-0.974-1.344-2.719-0.364-3.897
			c0.973-1.179,2.718-1.343,3.896-0.37l-1.764,2.133l1.797-2.107c1.188,0.955,1.389,2.697,0.436,3.891
			C377.966,96.941,377.16,97.298,376.348,97.298z M129.1,92.999c-0.837,0-1.664-0.367-2.203-1.077
			c-0.925-1.218-0.724-2.927,0.494-3.851l0.073-0.056c1.218-0.925,2.955-0.687,3.878,0.531c0.925,1.217,0.687,2.954-0.53,3.878
			C130.304,92.81,129.7,92.999,129.1,92.999z M364.528,88.382c-0.546,0-1.103-0.161-1.579-0.497
			c-1.256-0.874-1.604-2.626-0.729-3.88c0.873-1.255,2.562-1.589,3.815-0.716l0.075,0.053c1.255,0.874,1.562,2.599,0.688,3.854
			C366.265,87.968,365.404,88.382,364.528,88.382z M141.223,84.5c-0.91,0-1.803-0.434-2.329-1.244
			c-0.832-1.282-0.505-2.972,0.777-3.803l0.077-0.051c1.283-0.832,2.997-0.466,3.829,0.815c0.833,1.282,0.468,2.997-0.815,3.829
			C142.289,84.353,141.753,84.5,141.223,84.5z M352.068,80.357c-0.458,0-0.928-0.115-1.354-0.358
			c-0.021-0.012-0.124-0.072-0.145-0.085c-1.312-0.79-1.729-2.491-0.939-3.8c0.788-1.31,2.49-1.732,3.8-0.94l-1.43,2.37l1.454-2.356
			c1.309,0.771,1.767,2.463,1.006,3.779C353.95,79.856,353.021,80.357,352.068,80.357z M153.934,76.921
			c-0.985,0-1.944-0.511-2.444-1.425c-0.728-1.332-0.287-2.98,1.038-3.721c0.017-0.009,0.113-0.062,0.129-0.071
			c1.347-0.72,3.025-0.21,3.745,1.14c0.72,1.349,0.208,3.025-1.14,3.745C154.842,76.814,154.384,76.921,153.934,76.921z
			 M339.071,73.278c-0.432,0-0.862-0.099-1.271-0.309c-1.377-0.666-1.962-2.326-1.295-3.702c0.665-1.376,2.312-1.957,3.688-1.291
			l0.146,0.074c1.358,0.701,1.896,2.372,1.188,3.729C341.04,72.732,340.074,73.278,339.071,73.278z M167.105,70.34
			c-1.055,0-2.062-0.606-2.524-1.63c-0.63-1.393-0.011-3.033,1.383-3.662l1.139,2.522l-1.071-2.554
			c1.391-0.638,3.033-0.028,3.67,1.361c0.638,1.39,0.029,3.033-1.361,3.671c-0.005,0.002-0.093,0.042-0.099,0.045
			C167.874,70.26,167.487,70.34,167.105,70.34z M325.569,67.18c-0.351,0-0.695-0.065-1.034-0.202l-0.092-0.037
			c-1.416-0.575-2.104-2.19-1.522-3.606c0.575-1.417,2.188-2.1,3.605-1.522l0.079,0.032c1.418,0.572,2.104,2.188,1.528,3.604
			C327.702,66.525,326.665,67.18,325.569,67.18z M180.849,64.688c-1.136,0-2.215-0.685-2.626-1.801
			c-0.524-1.428,0.159-2.996,1.583-3.53c0.012-0.004,0.111-0.041,0.122-0.045c1.436-0.518,3.024,0.23,3.541,1.669
			c0.518,1.438-0.229,3.024-1.668,3.541C181.488,64.635,181.167,64.688,180.849,64.688z M311.65,62.102
			c-0.286,0-0.577-0.044-0.863-0.139c-1.458-0.464-2.295-2.031-1.831-3.488c0.463-1.457,1.991-2.268,3.444-1.809l0.107,0.036
			c1.453,0.477,2.245,2.041,1.771,3.493C313.897,61.361,312.814,62.102,311.65,62.102z M194.925,60.101
			c-1.216,0-2.353-0.789-2.696-2.005c-0.413-1.461,0.385-2.97,1.844-3.396c0.016-0.005,0.121-0.035,0.136-0.039
			c1.474-0.404,2.997,0.467,3.399,1.942s-0.467,2.997-1.942,3.399C195.419,60.068,195.171,60.101,194.925,60.101z M297.407,58.078
			c-0.218,0-0.438-0.025-0.655-0.078c-1.486-0.36-2.443-1.868-2.082-3.354c0.359-1.486,1.805-2.408,3.297-2.049l0.092,0.021
			c1.484,0.36,2.396,1.857,2.035,3.343C299.788,57.229,298.654,58.078,297.407,58.078z M209.303,56.572
			c-1.298,0-2.484-0.898-2.75-2.209c-0.303-1.492,0.611-2.939,2.101-3.251c0.011-0.002,0.112-0.023,0.122-0.025
			c1.497-0.296,2.956,0.681,3.251,2.181s-0.681,2.955-2.181,3.25C209.665,56.556,209.483,56.572,209.303,56.572z M282.906,55.125
			c-0.152,0-0.307-0.013-0.459-0.039c-1.506-0.25-2.569-1.68-2.322-3.187c0.247-1.507,1.624-2.534,3.129-2.291
			c0.004,0,0.1,0.016,0.104,0.017c1.515,0.25,2.526,1.678,2.275,3.186C285.408,54.166,284.232,55.125,282.906,55.125z
			 M223.901,54.121c-1.381,0-2.611-1.019-2.787-2.417c-0.19-1.51,0.829-2.884,2.338-3.084c0.011-0.001,0.114-0.015,0.126-0.016
			c1.52-0.178,2.895,0.902,3.077,2.42c0.181,1.518-0.903,2.895-2.421,3.077C224.123,54.114,224.011,54.121,223.901,54.121z
			 M268.225,53.254c-0.082,0-0.162-0.004-0.246-0.011c-1.521-0.134-2.689-1.482-2.561-3.005s1.428-2.655,2.955-2.519l0.092,0.008
			c1.521,0.134,2.646,1.478,2.514,3.001C270.852,52.169,269.645,53.254,268.225,53.254z M238.64,52.753
			c-1.468,0-2.732-1.146-2.809-2.624c-0.078-1.519,1.038-2.813,2.556-2.903c0.014-0.001,0.119-0.006,0.133-0.007
			c1.508-0.075,2.82,1.115,2.887,2.644c0.068,1.527-1.116,2.819-2.643,2.887C238.723,52.752,238.681,52.753,238.64,52.753z
			 M253.443,53c-0.014,0-0.027,0-0.041,0c-1.529,0-2.795-1.549-2.773-3.076c0.021-1.528,1.251-2.917,2.764-2.862l0.09-0.065
			c1.529,0.022,2.752,1.514,2.729,3.042C256.188,51.553,254.953,53,253.443,53z"/>
		<path fill="#FFFFFF" d="M249.5,482c-61.836,0-119.971-24.08-163.695-67.805C42.081,370.471,18,312.336,18,250.5
			S42.08,130.529,85.805,86.805C129.53,43.081,187.664,19,249.5,19s119.971,24.08,163.695,67.805
			C456.919,130.53,481,188.664,481,250.5s-24.08,119.971-67.805,163.695C369.47,457.919,311.336,482,249.5,482z M249.5,29
			C127.364,29,28,128.364,28,250.5S127.364,472,249.5,472C371.636,472,471,372.636,471,250.5S371.636,29,249.5,29z"/>
	</g>
</g>
</svg>
