<?xml version="1.0" encoding="utf-8"?>
<!-- Generator: Adobe Illustrator 15.0.0, SVG Export Plug-In . SVG Version: 6.00 Build 0)  -->
<!DOCTYPE svg PUBLIC "-//W3C//DTD SVG 1.1//EN" "http://www.w3.org/Graphics/SVG/1.1/DTD/svg11.dtd">
<svg version="1.1" id="Layer_1" xmlns="http://www.w3.org/2000/svg" xmlns:xlink="http://www.w3.org/1999/xlink" x="0px" y="0px"
	 width="500px" height="500px" viewBox="0 0 500 500" enable-background="new 0 0 500 500" xml:space="preserve">
<g id="Layer_X">
	<g id="change2">
		<circle fill="#7EE0DB" cx="250" cy="250" r="245"/>
	</g>
	<g id="change1_1_">
		<path fill="#FFFFFF" d="M250,500c-66.778,0-129.558-26.005-176.777-73.223C26.004,379.559,0,316.777,0,250
			c0-66.777,26.004-129.558,73.223-176.777C120.442,26.004,183.223,0,250,0c66.777,0,129.559,26.004,176.777,73.223
			C473.995,120.442,500,183.222,500,250c0,66.777-26.005,129.559-73.223,176.777C379.559,473.995,316.777,500,250,500z M250,10
			C117.664,10,10,117.664,10,250c0,132.337,107.664,240,240,240c132.337,0,240-107.663,240-240C490,117.664,382.337,10,250,10z"/>
		<path fill="#FFFFFF" d="M245.038,471.019c-0.032,0-0.064-0.001-0.096-0.002l-0.492-0.012c-2.188-0.052-3.92-1.868-3.868-4.057
			c0.051-2.156,1.815-3.869,3.96-3.869c0.032,0,0.064,0.001,0.096,0.002l0.492,0.012c2.188,0.052,3.92,1.868,3.868,4.062
			C248.947,469.306,247.183,471.019,245.038,471.019z M264.885,470.571c-2.08,0-3.826-1.622-3.951-3.729
			c-0.131-2.186,1.533-4.062,3.719-4.188l0.445-0.03c2.188-0.154,4.08,1.487,4.235,3.671c0.156,2.184-1.487,4.08-3.671,4.235
			l-0.536,0.032C265.045,470.568,264.965,470.571,264.885,470.571z M224.744,469.621c-0.15,0-0.301-0.009-0.453-0.025l-0.512-0.061
			c-2.173-0.261-3.725-2.233-3.464-4.407c0.261-2.173,2.235-3.714,4.407-3.464l0.466,0.055c2.175,0.248,3.737,2.212,3.49,4.396
			C228.447,468.128,226.732,469.621,224.744,469.621z M285.098,468.25c-1.906,0-3.589-1.38-3.906-3.324
			c-0.354-2.16,1.111-4.197,3.271-4.551l0.488-0.08c2.162-0.352,4.197,1.114,4.549,3.275s-1.115,4.188-3.275,4.549l-0.479,0.078
			C285.525,468.233,285.311,468.25,285.098,468.25z M204.665,466.333c-0.273,0-0.551-0.028-0.829-0.087l-0.506-0.109
			c-2.138-0.469-3.491-2.583-3.021-4.721c0.469-2.139,2.584-3.497,4.721-3.021l0.457,0.104c2.141,0.456,3.507,2.561,3.052,4.702
			C208.141,465.057,206.496,466.333,204.665,466.333z M305.006,464.046c-1.771,0-3.385-1.196-3.84-2.992
			c-0.537-2.122,0.748-4.271,2.87-4.812l0.432-0.112c2.113-0.558,4.285,0.698,4.854,2.814c0.562,2.106-0.698,4.277-2.814,4.848
			l-0.521,0.136C305.654,464.006,305.328,464.046,305.006,464.046z M184.981,461.171c-0.39,0-0.786-0.059-1.177-0.18l-0.426-0.134
			c-2.087-0.659-3.277-2.896-2.618-4.983c0.659-2.088,2.853-3.257,4.94-2.596l0.454,0.143c2.091,0.649,3.259,2.87,2.61,4.961
			C188.237,460.081,186.671,461.171,184.981,461.171z M324.432,457.98c-1.611,0-3.141-1.01-3.726-2.612
			c-0.747-2.062,0.315-4.331,2.373-5.078l0.448-0.164c2.056-0.753,4.332,0.299,5.087,2.354c0.754,2.056-0.3,4.333-2.354,5.087
			l-0.476,0.174C325.338,457.903,324.881,457.98,324.432,457.98z M165.862,454.171c-0.51,0-1.028-0.1-1.527-0.308l-0.483-0.205
			c-2.013-0.859-2.948-3.188-2.088-5.201c0.86-2.014,3.19-2.951,5.202-2.088l0.426,0.18c2.02,0.845,2.972,3.166,2.128,5.188
			C168.885,453.255,167.413,454.171,165.862,454.171z M343.194,450.114c-1.479,0-2.896-0.825-3.571-2.24
			c-0.953-1.971-0.128-4.34,1.844-5.293l0.461-0.221c1.979-0.942,4.343-0.104,5.283,1.871c0.942,1.976,0.104,4.342-1.871,5.274
			l-0.423,0.203C344.36,449.986,343.772,450.114,343.194,450.114z M147.491,445.401c-0.635,0-1.278-0.152-1.876-0.479l-0.426-0.229
			c-1.929-1.034-2.656-3.438-1.623-5.365c1.035-1.93,3.437-2.653,5.366-1.623l0.442,0.238c1.927,1.038,2.647,3.438,1.609,5.369
			C150.268,444.646,148.902,445.401,147.491,445.401z M361.135,440.517c-1.338,0-2.644-0.677-3.39-1.896
			c-1.138-1.87-0.544-4.312,1.326-5.446l0.439-0.27c1.888-1.128,4.313-0.518,5.438,1.361c1.124,1.886,0.509,4.312-1.37,5.438
			l-0.396,0.236C362.548,440.33,361.837,440.517,361.135,440.517z M130.028,434.946c-0.753,0-1.515-0.214-2.189-0.662l-0.411-0.272
			c-1.823-1.212-2.319-3.672-1.108-5.495c1.211-1.814,3.669-2.312,5.495-1.104l0.41,0.271c1.824,1.219,2.32,3.681,1.108,5.495
			C132.57,434.324,131.311,434.946,130.028,434.946z M378.098,429.279c-1.213,0-2.41-0.562-3.188-1.604
			c-1.304-1.759-0.938-4.241,0.825-5.544l0.411-0.303c1.766-1.294,4.237-0.911,5.531,0.853c1.303,1.771,0.913,4.245-0.853,5.54
			l-0.38,0.279C379.744,429.025,378.918,429.279,378.098,429.279z M113.621,422.905c-0.878,0-1.762-0.291-2.497-0.896l-0.368-0.298
			c-1.705-1.372-1.976-3.867-0.603-5.571c1.372-1.699,3.867-1.977,5.572-0.604l0.397,0.321c1.699,1.38,1.958,3.876,0.578,5.568
			C115.916,422.404,114.773,422.905,113.621,422.905z M393.949,416.483c-1.092,0-2.188-0.445-2.958-1.321
			c-1.454-1.637-1.325-4.125,0.312-5.579l0.355-0.317c1.628-1.46,4.135-1.315,5.597,0.312c1.461,1.63,1.323,4.136-0.308,5.597
			l-0.342,0.31C395.846,416.149,394.896,416.483,393.949,416.483z M98.408,409.389c-0.998,0-1.996-0.375-2.767-1.126l-0.363-0.354
			c-1.561-1.535-1.582-4.044-0.047-5.605c1.535-1.561,4.045-1.581,5.605-0.047l0.34,0.332c1.567,1.528,1.599,4.037,0.071,5.604
			C100.469,408.988,99.439,409.389,98.408,409.389z M408.52,402.317c-0.964,0-1.931-0.354-2.688-1.062
			c-1.605-1.488-1.7-3.996-0.213-5.604l0.348-0.371c1.494-1.602,4.002-1.688,5.604-0.188c1.599,1.493,1.683,4.001,0.188,5.604
			l-0.324,0.348C410.646,401.891,409.584,402.317,408.52,402.317z M84.521,394.516c-1.125,0-2.241-0.477-3.025-1.396l-0.318-0.375
			c-1.416-1.675-1.209-4.177,0.46-5.591c1.67-1.411,4.17-1.209,5.586,0.466l0.318,0.375c1.416,1.67,1.209,4.171-0.46,5.586
			C86.336,394.207,85.426,394.516,84.521,394.516z M421.72,386.828c-0.842,0-1.688-0.268-2.409-0.818
			c-1.729-1.333-2.062-3.82-0.729-5.558l0.312-0.404c1.35-1.729,3.83-2.049,5.562-0.707c1.729,1.341,2.047,3.83,0.707,5.562
			l-0.289,0.375C424.087,386.294,422.91,386.828,421.72,386.828z M72.079,378.415c-1.249,0-2.478-0.589-3.25-1.688l-0.289-0.414
			c-1.25-1.797-0.807-4.268,0.991-5.518c1.797-1.248,4.267-0.806,5.517,0.99l0.274,0.392c1.256,1.794,0.821,4.265-0.972,5.521
			C73.658,378.182,72.865,378.415,72.079,378.415z M433.419,370.176c-0.722,0-1.451-0.195-2.104-0.609
			c-1.854-1.166-2.409-3.604-1.243-5.465l0.271-0.429c1.173-1.849,3.621-2.396,5.47-1.226c1.854,1.172,2.397,3.619,1.229,5.47
			l-0.257,0.405C436.024,369.52,434.736,370.176,433.419,370.176z M61.195,361.223c-1.379,0-2.719-0.721-3.45-2.005l-0.241-0.426
			c-1.083-1.901-0.418-4.321,1.485-5.405c1.902-1.08,4.322-0.419,5.405,1.485l0.243,0.428c1.082,1.903,0.416,4.323-1.487,5.404
			C62.532,361.057,61.859,361.223,61.195,361.223z M443.511,352.501c-0.604,0-1.221-0.14-1.798-0.433
			c-1.95-0.995-2.725-3.383-1.729-5.332l0.22-0.432c0.989-1.951,3.375-2.731,5.326-1.744c1.953,0.981,2.729,3.375,1.744,5.318
			l-0.229,0.45C446.345,351.711,444.953,352.501,443.511,352.501z M51.97,343.091c-1.511,0-2.955-0.868-3.616-2.336l-0.201-0.446
			c-0.899-1.996-0.011-4.343,1.985-5.242c1.995-0.896,4.342-0.01,5.242,1.984l0.201,0.446c0.899,1.996,0.011,4.343-1.985,5.242
			C53.068,342.979,52.515,343.091,51.97,343.091z M451.899,333.955c-0.484,0-0.979-0.09-1.455-0.278
			c-2.036-0.804-3.034-3.106-2.23-5.143l0.188-0.46c0.804-2.035,3.104-3.032,5.143-2.23c2.036,0.805,3.034,3.106,2.229,5.143
			l-0.188,0.461C454.972,333.004,453.479,333.955,451.899,333.955z M44.492,324.174c-1.647,0-3.185-1.033-3.749-2.68l-0.162-0.477
			c-0.704-2.072,0.406-4.324,2.479-5.027c2.07-0.706,4.323,0.404,5.027,2.479l0.155,0.455c0.709,2.07-0.394,4.325-2.464,5.034
			C45.352,324.104,44.918,324.174,44.492,324.174z M458.501,314.704c-0.366,0-0.737-0.052-1.106-0.158
			c-2.103-0.61-3.312-2.81-2.693-4.911l0.14-0.479c0.613-2.102,2.821-3.305,4.915-2.694c2.104,0.613,3.312,2.813,2.694,4.915
			l-0.145,0.467C461.803,313.577,460.22,314.704,458.501,314.704z M38.83,304.63c-1.792,0-3.416-1.224-3.851-3.043l-0.118-0.494
			c-0.5-2.132,0.821-4.265,2.953-4.765c2.131-0.498,4.264,0.82,4.764,2.951l0.11,0.464c0.51,2.129-0.803,4.269-2.932,4.776
			C39.446,304.594,39.136,304.63,38.83,304.63z M463.257,294.919c-0.25,0-0.504-0.022-0.759-0.073
			c-2.148-0.416-3.553-2.496-3.136-4.646l0.087-0.46c0.396-2.152,2.479-3.564,4.627-3.164c2.146,0.404,3.562,2.477,3.164,4.627
			l-0.104,0.507C466.776,293.604,465.117,294.919,463.257,294.919z M35.035,284.641c-1.943,0-3.639-1.431-3.919-3.408l-0.07-0.502
			c-0.299-2.17,1.217-4.17,3.385-4.469c2.17-0.298,4.168,1.219,4.467,3.387l0.066,0.479c0.307,2.167-1.201,4.173-3.369,4.479
			C35.407,284.627,35.22,284.641,35.035,284.641z M466.13,274.777c-0.126,0-0.253-0.006-0.381-0.021
			c-2.179-0.207-3.777-2.142-3.569-4.318l0.047-0.492c0.209-2.18,2.146-3.771,4.323-3.562c2.179,0.209,3.776,2.146,3.567,4.323
			l-0.047,0.482C469.875,273.24,468.149,274.777,466.13,274.777z M33.132,264.384c-2.102,0-3.854-1.653-3.956-3.774l-0.023-0.482
			c-0.104-2.188,1.583-4.044,3.77-4.146c2.193-0.084,4.044,1.584,4.148,3.771l0.023,0.491c0.104,2.188-1.584,4.043-3.771,4.146
			C33.26,264.382,33.196,264.384,33.132,264.384z M467.109,254c-0.017,0-0.021,0-0.023,0c-2.188,0-4.086-1.343-4.086-3.531v-0.388
			c0-0.027,0-0.055,0-0.082v-0.492c0-2.189,1.811-3.963,4-3.963c2.188,0,4,1.774,4,3.963v0.406c0,0.029,0,0.058,0,0.087v0.516
			C471,252.695,469.287,254,467.109,254z M33.116,244.034c-0.06,0-0.12-0.001-0.18-0.004c-2.187-0.098-3.88-1.95-3.783-4.136
			l0.023-0.504c0.104-2.187,1.967-3.86,4.148-3.77c2.187,0.104,3.875,1.961,3.77,4.148l-0.022,0.479
			C36.978,242.374,35.224,244.034,33.116,244.034z M466.166,233.637c-2.028,0-3.758-1.55-3.942-3.609l-0.044-0.466
			c-0.209-2.179,1.396-4.115,3.567-4.323c2.183-0.204,4.115,1.388,4.323,3.567l0.048,0.513c0.196,2.18-1.412,4.106-3.593,4.302
			C466.405,233.631,466.285,233.637,466.166,233.637z M34.977,223.774c-0.181,0-0.363-0.012-0.547-0.038
			c-2.168-0.3-3.683-2.3-3.384-4.469l0.07-0.499c0.307-2.168,2.312-3.674,4.479-3.371c2.167,0.306,3.677,2.311,3.371,4.479
			l-0.067,0.477C38.624,222.337,36.925,223.774,34.977,223.774z M463.339,213.489c-1.869,0-3.533-1.329-3.891-3.232l-0.091-0.483
			c-0.404-2.151,1.013-4.223,3.164-4.627c2.146-0.403,4.224,1.012,4.627,3.164l0.091,0.483c0.396,2.151-1.021,4.223-3.164,4.627
			C463.828,213.467,463.582,213.489,463.339,213.489z M38.723,203.776c-0.301,0-0.606-0.035-0.912-0.106
			c-2.13-0.501-3.451-2.636-2.949-4.767l0.116-0.49c0.508-2.129,2.648-3.442,4.775-2.936c2.129,0.508,3.444,2.646,2.936,4.775
			l-0.111,0.468C42.148,202.546,40.521,203.776,38.723,203.776z M458.634,193.695c-1.725,0-3.312-1.135-3.809-2.875l-0.132-0.454
			c-0.611-2.102,0.597-4.301,2.689-4.913c2.104-0.609,4.311,0.596,4.913,2.698l0.146,0.491c0.602,2.105-0.617,4.298-2.729,4.9
			C459.36,193.646,458.994,193.695,458.634,193.695z M44.335,184.219c-0.42,0-0.848-0.067-1.268-0.209
			c-2.074-0.7-3.188-2.949-2.488-5.023l0.13-0.384c0.706-2.073,2.975-3.226,5.046-2.521c2.072,0.706,3.196,2.911,2.49,4.982
			l-0.156,0.458C47.532,183.176,45.989,184.219,44.335,184.219z M452.083,174.432c-1.586,0-3.083-0.958-3.694-2.525l-0.171-0.434
			c-0.809-2.034,0.188-4.339,2.229-5.147c2.026-0.808,4.339,0.185,5.146,2.219l0.189,0.482c0.796,2.04-0.223,4.337-2.253,5.132
			C453.049,174.345,452.562,174.432,452.083,174.432z M51.771,165.271c-0.542,0-1.092-0.111-1.618-0.347
			c-1.998-0.895-2.892-3.24-1.997-5.238l0.209-0.464c0.904-1.994,3.252-2.876,5.246-1.976c1.994,0.903,2.879,3.251,1.976,5.246
			l-0.196,0.436C54.731,164.398,53.285,165.271,51.771,165.271z M443.745,155.876c-1.446,0-2.84-0.794-3.538-2.173l-0.218-0.428
			c-0.995-1.95-0.229-4.337,1.729-5.332c1.947-0.993,4.336-0.221,5.331,1.73l0.229,0.447c0.98,1.953,0.209,4.338-1.744,5.327
			C444.959,155.738,444.348,155.876,443.745,155.876z M60.958,147.109c-0.662,0-1.333-0.166-1.95-0.516
			c-1.905-1.079-2.574-3.498-1.495-5.402l0.251-0.443c1.086-1.9,3.508-2.561,5.408-1.473c1.9,1.086,2.56,3.508,1.473,5.408
			l-0.236,0.415C63.681,146.386,62.339,147.109,60.958,147.109z M433.699,138.184c-1.319,0-2.609-0.658-3.362-1.859l-0.249-0.393
			c-1.175-1.847-0.63-4.296,1.218-5.471c1.854-1.175,4.296-0.63,5.479,1.217l0.271,0.438c1.162,1.854,0.604,4.301-1.254,5.463
			C435.146,137.988,434.418,138.184,433.699,138.184z M71.81,129.889c-0.781,0-1.57-0.23-2.26-0.71
			c-1.797-1.25-2.241-3.72-0.99-5.517l0.292-0.417c1.258-1.791,3.729-2.225,5.521-0.967c1.792,1.258,2.225,3.729,0.967,5.521
			l-0.273,0.39C74.296,129.295,73.063,129.889,71.81,129.889z M422.04,121.507c-1.193,0-2.372-0.537-3.152-1.558l-0.271-0.363
			c-1.353-1.729-1.032-4.218,0.688-5.562c1.73-1.344,4.227-1.031,5.562,0.697l0.321,0.416c1.32,1.739,0.987,4.227-0.743,5.556
			C423.725,121.241,422.879,121.507,422.04,121.507z M84.222,113.758c-0.903,0-1.811-0.307-2.555-0.935
			c-1.672-1.412-1.883-3.913-0.471-5.585l0.335-0.396c1.422-1.663,3.925-1.858,5.588-0.435c1.663,1.423,1.858,3.925,0.435,5.588
			l-0.302,0.356C86.469,113.28,85.349,113.758,84.222,113.758z M408.874,105.988c-1.065,0-2.127-0.426-2.908-1.269l-0.312-0.341
			c-1.498-1.596-1.428-4.104,0.177-5.603c1.596-1.498,4.104-1.419,5.603,0.177l0.354,0.378c1.479,1.605,1.393,4.113-0.213,5.601
			C410.805,105.639,409.838,105.988,408.874,105.988z M98.084,98.855c-1.029,0-2.056-0.397-2.833-1.19
			c-1.531-1.564-1.505-4.073,0.059-5.605l0.364-0.355c1.57-1.525,4.08-1.488,5.605,0.083c1.525,1.571,1.488,4.08-0.083,5.605
			l-0.34,0.332C100.085,98.479,99.084,98.855,98.084,98.855z M394.32,91.762c-0.942,0-1.896-0.333-2.646-1.011l-0.351-0.311
			c-1.646-1.451-1.792-3.956-0.341-5.595c1.441-1.64,3.944-1.793,5.595-0.342l0.386,0.344c1.631,1.46,1.771,3.966,0.312,5.597
			C396.49,91.317,395.407,91.762,394.32,91.762z M113.271,85.308c-1.156,0-2.301-0.503-3.085-1.472
			c-1.376-1.702-1.111-4.198,0.591-5.574l0.382-0.31c1.702-1.376,4.197-1.112,5.574,0.591c1.376,1.702,1.112,4.198-0.59,5.574
			l-0.382,0.309C115.027,85.02,114.146,85.308,113.271,85.308z M378.505,78.952c-0.812,0-1.641-0.251-2.349-0.773l-0.395-0.283
			c-1.768-1.292-2.146-3.772-0.854-5.539c1.294-1.768,3.771-2.15,5.539-0.858l0.409,0.3c1.762,1.299,2.138,3.78,0.839,5.542
			C380.921,78.394,379.721,78.952,378.505,78.952z M129.652,73.235c-1.281,0-2.538-0.62-3.301-1.765
			c-1.214-1.821-0.722-4.282,1.099-5.497l0.423-0.281c1.828-1.206,4.286-0.704,5.492,1.122c1.207,1.827,0.705,4.285-1.122,5.492
			l-0.396,0.263C131.172,73.02,130.408,73.235,129.652,73.235z M361.562,67.673c-0.689,0-1.396-0.181-2.025-0.56l-0.424-0.253
			c-1.88-1.122-2.495-3.555-1.374-5.435c1.122-1.879,3.555-2.494,5.435-1.373l0.424,0.253c1.888,1.122,2.495,3.555,1.374,5.435
			C364.229,66.983,362.913,67.673,361.562,67.673z M147.087,62.749c-1.411,0-2.776-0.755-3.492-2.084
			c-1.039-1.927-0.319-4.331,1.608-5.369l0.441-0.237c1.929-1.036,4.331-0.308,5.365,1.623c1.033,1.929,0.307,4.332-1.623,5.365
			l-0.423,0.227C148.366,62.596,147.722,62.749,147.087,62.749z M343.639,58.03c-0.563,0-1.146-0.125-1.703-0.387l-0.438-0.213
			c-1.979-0.942-2.813-3.308-1.871-5.284c0.941-1.975,3.309-2.812,5.283-1.871l0.438,0.212c1.979,0.942,2.813,3.308,1.871,5.284
			C346.539,57.197,345.119,58.03,343.639,58.03z M165.425,53.944c-1.546,0-3.015-0.91-3.653-2.423
			c-0.852-2.017,0.093-4.342,2.11-5.193l0.456-0.192c2.02-0.847,4.342,0.099,5.19,2.116c0.849,2.018-0.099,4.342-2.116,5.19
			l-0.448,0.188C166.461,53.844,165.939,53.944,165.425,53.944z M324.888,50.115c-0.45,0-0.91-0.077-1.354-0.241l-0.479-0.173
			c-2.055-0.754-3.104-3.032-2.354-5.086c0.754-2.056,3.032-3.108,5.087-2.355l0.456,0.167c2.057,0.75,3.115,3.025,2.365,5.082
			C328.024,49.117,326.505,50.115,324.888,50.115z M184.506,46.907c-1.684,0-3.245-1.081-3.779-2.771
			c-0.659-2.087,0.5-4.312,2.587-4.973l0.469-0.148c2.089-0.658,4.314,0.499,4.973,2.587c0.659,2.087-0.5,4.313-2.587,4.973
			l-0.469,0.148C185.303,46.847,184.901,46.907,184.506,46.907z M305.48,44.007c-0.338,0-0.688-0.043-1.021-0.133L304,43.753
			c-2.118-0.553-3.389-2.717-2.835-4.835c0.552-2.118,2.718-3.387,4.835-2.835l0.493,0.129c2.116,0.562,3.376,2.732,2.812,4.848
			C308.837,42.834,307.233,44.007,305.48,44.007z M204.171,41.699c-1.826,0-3.468-1.269-3.87-3.126
			c-0.463-2.139,0.896-4.249,3.035-4.712l0.42-0.09c2.144-0.456,4.283,0.901,4.739,3.042c0.457,2.141-0.873,4.239-3.013,4.696
			l-0.47,0.1C204.731,41.67,204.449,41.699,204.171,41.699z M285.585,39.755c-0.215,0-0.435-0.018-0.651-0.054l-0.477-0.078
			c-2.16-0.352-3.627-2.388-3.275-4.548c0.354-2.161,2.396-3.626,4.549-3.276l0.498,0.082c2.16,0.358,3.619,2.398,3.271,4.558
			C289.169,38.379,287.489,39.755,285.585,39.755z M224.242,38.365c-1.983,0-3.696-1.486-3.932-3.504
			c-0.254-2.174,1.303-4.143,3.477-4.396l0.487-0.057c2.173-0.253,4.143,1.302,4.397,3.476c0.255,2.174-1.301,4.143-3.476,4.397
			l-0.49,0.057C224.551,38.356,224.396,38.365,224.242,38.365z M265.376,37.389c-0.092,0-0.185-0.003-0.276-0.01l-0.488-0.034
			c-2.185-0.149-3.834-2.041-3.685-4.225c0.15-2.184,2.05-3.831,4.226-3.684l0.492,0.034c2.188,0.15,3.832,2.042,3.688,4.227
			C269.184,35.789,267.439,37.389,265.376,37.389z M244.538,37c-2.145,0-3.909-1.752-3.96-3.908
			c-0.052-2.188,1.679-4.025,3.868-4.077l0.491-0.022c2.158-0.075,4.005,1.674,4.057,3.863c0.052,2.188-1.679,4.043-3.868,4.095
			L244.635,37C244.603,37,244.57,37,244.538,37z"/>
		<path fill="#FFFFFF" d="M250,444.11c-107.033,0-194.11-87.077-194.11-194.11S142.968,55.89,250,55.89
			c107.033,0,194.11,87.078,194.11,194.11C444.11,357.033,357.033,444.11,250,444.11z M250,65.89
			C148.481,65.89,65.89,148.481,65.89,250c0,101.52,82.591,184.11,184.11,184.11c101.519,0,184.11-82.591,184.11-184.11
			C434.11,148.481,351.519,65.89,250,65.89z"/>
	</g>
</g>
</svg>
