<?xml version="1.0" encoding="utf-8"?>
<!-- Generator: Adobe Illustrator 15.0.0, SVG Export Plug-In . SVG Version: 6.00 Build 0)  -->
<!DOCTYPE svg PUBLIC "-//W3C//DTD SVG 1.1//EN" "http://www.w3.org/Graphics/SVG/1.1/DTD/svg11.dtd">
<svg version="1.1" id="Layer_1" xmlns="http://www.w3.org/2000/svg" xmlns:xlink="http://www.w3.org/1999/xlink" x="0px" y="0px"
	 width="500px" height="500px" viewBox="0 0 500 500" enable-background="new 0 0 500 500" xml:space="preserve">
<g id="Layer_X">
	<g id="change2">
		<circle fill="#FFE36C" cx="250" cy="250" r="245"/>
	</g>
	<g id="change1">
		<path fill="#FFFFFF" d="M250,500c-66.778,0-129.558-26.005-176.777-73.223C26.004,379.559,0,316.777,0,250
			c0-66.777,26.004-129.558,73.223-176.777C120.442,26.004,183.223,0,250,0c66.777,0,129.559,26.004,176.777,73.223
			C473.995,120.442,500,183.222,500,250c0,66.777-26.005,129.559-73.223,176.777C379.559,473.995,316.777,500,250,500z M250,10
			C117.664,10,10,117.664,10,250c0,132.337,107.664,240,240,240c132.337,0,240-107.663,240-240C490,117.664,382.337,10,250,10z"/>
		<path fill="#FFFFFF" d="M250,442.11C144.07,442.11,57.89,355.93,57.89,250c0-105.93,86.181-192.11,192.11-192.11
			c105.931,0,192.11,86.18,192.11,192.11C442.11,355.932,355.931,442.11,250,442.11z M250,67.787
			c-100.473,0-182.213,81.74-182.213,182.213c0,100.475,81.74,182.214,182.213,182.214c100.473,0,182.213-81.739,182.213-182.214
			C432.213,149.527,350.473,67.787,250,67.787z"/>
		<path fill="#FFFFFF" d="M254.116,475.074c-1.657,0-3-1.38-3-3.037s1.343-3.037,3-3.037c0.028,0,0.059,0,0.087,0
			c1.617,0,2.959,1.324,3.006,2.951c0.047,1.656-1.249,3.054-2.904,3.102L254.116,475.074z M237.813,474.781
			c-0.059,0-0.117-0.002-0.177-0.005l-0.099-0.012c-1.654-0.095-2.918-1.512-2.824-3.165c0.094-1.649,1.502-2.9,3.167-2.819
			l0.104,0.006c1.654,0.096,2.917,1.515,2.821,3.169C240.713,473.55,239.391,474.781,237.813,474.781z M270.542,474.173
			c-1.519,0-2.839-1.143-3.002-2.681c-0.174-1.635,0.978-3.104,2.608-3.294l0.192-0.021c1.662-0.131,3.104,1.083,3.244,2.733
			c0.146,1.646-1.082,3.104-2.729,3.245l-0.256-2.989l0.229,2.991C270.732,474.169,270.637,474.173,270.542,474.173z
			 M221.473,473.295c-0.115,0-0.231-0.007-0.349-0.02l-0.186-0.024c-1.64-0.237-2.776-1.76-2.539-3.399
			c0.238-1.639,1.763-2.772,3.399-2.532c1.646,0.188,2.833,1.681,2.643,3.32C224.264,472.168,222.975,473.295,221.473,473.295z
			 M286.77,472.08c-1.469,0-2.752-1.079-2.965-2.576c-0.234-1.64,0.904-3.159,2.545-3.394c1.629-0.287,3.189,0.801,3.479,2.433
			s-0.802,3.188-2.433,3.475l-0.197,0.032C287.055,472.07,286.911,472.08,286.77,472.08z M205.286,470.608
			c-0.2,0-0.404-0.021-0.608-0.062l-0.092-0.019c-1.624-0.33-2.673-1.913-2.343-3.537c0.33-1.623,1.909-2.669,3.537-2.344
			l0.108,0.021c1.623,0.334,2.667,1.921,2.333,3.543C207.929,469.631,206.68,470.608,205.286,470.608z M302.893,468.772
			c-1.342,0-2.574-0.896-2.924-2.244c-0.41-1.589,0.508-3.207,2.092-3.645l0.199-0.05c1.613-0.382,3.229,0.619,3.607,2.232
			c0.379,1.607-0.62,3.229-2.232,3.604l-0.688-2.92l0.662,2.926C303.37,468.744,303.129,468.772,302.893,468.772z M189.339,466.727
			c-0.257,0-0.518-0.028-0.778-0.104l-0.178-0.05c-1.588-0.479-2.491-2.146-2.017-3.733c0.474-1.587,2.144-2.488,3.732-2.017
			c1.6,0.431,2.558,2.078,2.128,3.679C191.868,465.842,190.662,466.727,189.339,466.727z M318.634,464.304
			c-1.287,0-2.478-0.835-2.87-2.131c-0.479-1.586,0.415-3.261,2.001-3.741c1.575-0.521,3.28,0.322,3.81,1.896
			c0.521,1.571-0.316,3.268-1.895,3.791l-0.175,0.057C319.215,464.262,318.922,464.304,318.634,464.304z M173.713,461.668
			c-0.334,0-0.675-0.058-1.011-0.18l-0.11-0.04c-1.554-0.574-2.349-2.299-1.775-3.854c0.574-1.555,2.299-2.347,3.854-1.771
			c1.557,0.562,2.401,2.303,1.835,3.854C176.062,460.901,174.931,461.668,173.713,461.668z M334.044,458.661
			c-1.168,0-2.277-0.688-2.763-1.829c-0.647-1.525,0.062-3.286,1.59-3.934l0.138-0.062c1.532-0.625,3.284,0.115,3.908,1.65
			s-0.115,3.285-1.65,3.906l-0.052,0.021C334.832,458.584,334.435,458.661,334.044,458.661z M158.517,455.458
			c-0.401,0-0.809-0.081-1.2-0.253l-0.181-0.081c-1.496-0.713-2.131-2.503-1.418-3.999c0.713-1.496,2.503-2.13,3.999-1.419
			c1.518,0.664,2.213,2.435,1.549,3.952C160.772,454.785,159.672,455.458,158.517,455.458z M349.001,451.879
			c-1.098,0-2.157-0.598-2.685-1.638c-0.745-1.477-0.187-3.259,1.278-4.021l0.16-0.074c1.49-0.727,3.286-0.104,4.007,1.395
			c0.728,1.491,0.104,3.285-1.394,4.007l-1.31-2.7l1.274,2.715C349.913,451.777,349.454,451.879,349.001,451.879z M143.815,448.135
			c-0.494,0-0.995-0.123-1.458-0.381l1.46-2.62l-1.484,2.607c-1.443-0.787-2.005-2.604-1.234-4.052
			c0.771-1.45,2.546-2.022,4.005-1.271l0.174,0.095c1.447,0.812,1.967,2.64,1.16,4.081
			C145.889,447.579,144.868,448.135,143.815,448.135z M363.376,444.038c-1.03,0-2.032-0.531-2.591-1.483
			c-0.838-1.43-0.358-3.268,1.07-4.104c1.422-0.854,3.294-0.41,4.146,1.011s0.422,3.245-0.998,4.098l-0.113,0.067
			C364.413,443.904,363.892,444.038,363.376,444.038z M129.67,439.738c-0.544,0-1.096-0.152-1.593-0.478l-0.105-0.062
			c-1.386-0.908-1.773-2.771-0.865-4.154c0.908-1.385,2.768-1.771,4.153-0.865c1.393,0.897,1.828,2.775,0.931,4.168
			C131.613,439.243,130.653,439.738,129.67,439.738z M377.155,435.138c-0.953,0-1.896-0.453-2.479-1.297
			c-0.938-1.364-0.598-3.229,0.771-4.173c1.348-0.961,3.242-0.665,4.206,0.683c0.963,1.354,0.672,3.207-0.682,4.176l-0.119,0.087
			C378.336,434.966,377.742,435.138,377.155,435.138z M116.211,430.329c-0.613,0-1.232-0.192-1.765-0.592l-0.103-0.077
			c-1.317-1.006-1.569-2.889-0.563-4.205c1.005-1.317,2.887-1.569,4.205-0.564c1.325,0.994,1.625,2.897,0.63,4.229
			C118.021,429.906,117.122,430.329,116.211,430.329z M390.243,425.245c-0.871,0-1.734-0.377-2.328-1.105
			c-1.046-1.278-0.854-3.174,0.432-4.221l0.078-0.062c1.284-1.053,3.174-0.854,4.228,0.431c1.046,1.285,0.854,3.175-0.437,4.222
			l-0.08,0.064C391.58,425.024,390.909,425.245,390.243,425.245z M103.519,419.967c-0.707,0-1.416-0.248-1.987-0.753l-0.055-0.049
			c-1.251-1.086-1.385-2.98-0.299-4.232c1.086-1.249,2.98-1.386,4.232-0.299l0.098,0.086c1.241,1.104,1.357,2.994,0.259,4.234
			C105.174,419.625,104.348,419.967,103.519,419.967z M402.571,414.417c-0.812,0-1.614-0.324-2.205-0.965
			c-1.124-1.218-1.048-3.116,0.169-4.239c1.197-1.146,3.112-1.123,4.258,0.071c1.147,1.189,1.124,3.079-0.071,4.227l-0.11,0.11
			C404.028,414.153,403.299,414.417,402.571,414.417z M91.592,408.692c-0.778,0-1.555-0.307-2.143-0.9l-0.05-0.051
			c-1.172-1.171-1.172-3.071,0-4.242c1.171-1.172,3.071-1.172,4.242,0l0.093,0.094c1.16,1.188,1.141,3.083-0.043,4.242
			C93.108,408.407,92.35,408.692,91.592,408.692z M414.075,402.71c-0.748,0-1.496-0.277-2.077-0.836
			c-1.195-1.147-1.234-3.047-0.087-4.241c1.097-1.242,2.985-1.351,4.228-0.252c1.241,1.098,1.354,3.001,0.252,4.241l-0.146,0.165
			C415.65,402.401,414.863,402.71,414.075,402.71z M80.527,396.574c-0.859,0-1.713-0.367-2.306-1.079l2.305-1.921l-2.335,1.885
			c-1.078-1.256-0.939-3.15,0.313-4.23c1.254-1.082,3.141-0.94,4.224,0.311l0.102,0.118c1.061,1.271,0.889,3.161-0.384,4.228
			C81.885,396.347,81.204,396.574,80.527,396.574z M424.686,390.21c-0.629,0-1.265-0.196-1.809-0.604
			c-1.325-0.994-1.582-2.892-0.588-4.217l0.138-0.175c1.048-1.284,2.938-1.478,4.228-0.432c1.278,1.047,1.477,2.937,0.431,4.222
			l-2.326-1.896l2.312,1.912C426.479,389.802,425.589,390.21,424.686,390.21z M70.383,383.68c-0.924,0-1.835-0.426-2.423-1.229
			l-0.06-0.082c-0.979-1.337-0.688-3.215,0.648-4.193c1.338-0.978,3.215-0.689,4.193,0.648l0.06,0.082
			c0.979,1.337,0.688,3.214-0.648,4.193C71.618,383.49,70.998,383.68,70.383,383.68z M434.354,376.919
			c-0.587,0-1.181-0.172-1.694-0.53c-1.364-0.938-1.707-2.809-0.771-4.173c0.908-1.386,2.776-1.786,4.162-0.878
			c1.386,0.907,1.781,2.754,0.874,4.141l-0.097,0.146C436.244,376.466,435.307,376.919,434.354,376.919z M61.207,370.068
			c-0.987,0-1.951-0.486-2.521-1.381l-0.097-0.155c-0.853-1.421-0.392-3.265,1.029-4.116c1.419-0.854,3.263-0.393,4.116,1.027
			c0.891,1.396,0.486,3.261-0.91,4.152C62.32,369.916,61.76,370.068,61.207,370.068z M443.017,362.971
			c-0.512,0-1.023-0.13-1.504-0.404c-1.433-0.832-1.92-2.668-1.088-4.103c0.816-1.438,2.663-1.979,4.107-1.161
			c1.438,0.816,1.965,2.616,1.146,4.059l-0.062,0.117C445.058,362.436,444.051,362.971,443.017,362.971z M53.08,355.835
			c-1.087,0-2.136-0.593-2.668-1.625l-0.028-0.054c-0.78-1.463-0.227-3.279,1.235-4.061c1.458-0.777,3.278-0.229,4.059,1.23
			l0.066,0.126c0.76,1.478,0.182,3.278-1.29,4.042C54.014,355.727,53.543,355.835,53.08,355.835z M450.627,348.417
			c-0.438,0-0.884-0.097-1.305-0.301c-1.491-0.722-2.115-2.517-1.396-4.007c0.704-1.5,2.502-2.176,4.004-1.473
			c1.5,0.697,2.16,2.459,1.457,3.959l-0.061,0.127C452.812,347.793,451.741,348.417,450.627,348.417z M46.021,341.035
			c-1.17,0-2.282-0.689-2.766-1.835l2.764-1.166l-2.778,1.134c-0.658-1.512,0.021-3.286,1.528-3.954
			c1.508-0.668,3.265-0.011,3.943,1.493l0.07,0.161c0.644,1.526-0.071,3.286-1.598,3.93
			C46.804,340.959,46.409,341.035,46.021,341.035z M457.137,333.333c-0.35,0-0.706-0.062-1.053-0.192
			c-1.551-0.582-2.337-2.31-1.755-3.855l0.055-0.146c0.607-1.543,2.354-2.301,3.896-1.688c1.541,0.604,2.299,2.349,1.688,3.891
			l-0.02,0.055C459.494,332.59,458.352,333.333,457.137,333.333z M40.053,325.732c-1.231,0-2.376-0.756-2.806-1.987l-0.046-0.136
			c-0.524-1.571,0.326-3.271,1.897-3.795c1.573-0.524,3.271,0.326,3.795,1.896c0.545,1.562-0.271,3.306-1.836,3.851
			C40.725,325.678,40.386,325.732,40.053,325.732z M462.508,317.807c-0.307,0-0.617-0.048-0.925-0.146
			c-1.576-0.511-2.44-2.201-1.931-3.778c0.479-1.585,2.161-2.505,3.748-2.021c1.586,0.479,2.482,2.138,2.008,3.724l-0.047,0.147
			C464.95,316.998,463.773,317.807,462.508,317.807z M35.287,310.064c-1.328,0-2.542-0.895-2.898-2.233l-0.021-0.077
			c-0.436-1.6,0.507-3.247,2.105-3.684c1.595-0.438,3.248,0.506,3.684,2.104l0.032,0.12c0.424,1.603-0.53,3.244-2.132,3.668
			C35.799,310.031,35.541,310.064,35.287,310.064z M466.7,301.92c-0.207,0-0.416-0.021-0.626-0.066
			c-1.609-0.347-2.646-1.9-2.312-3.519l0.041-0.183c0.38-1.613,1.998-2.614,3.607-2.232c1.606,0.379,2.606,1.994,2.229,3.607
			l-2.92-0.688l2.913,0.718C469.323,300.954,468.078,301.92,466.7,301.92z M31.661,294.036c-1.407,0-2.656-0.981-2.931-2.416
			l-0.029-0.157c-0.28-1.633,0.817-3.184,2.45-3.464c1.631-0.282,3.184,0.815,3.464,2.45c0.311,1.627-0.752,3.221-2.379,3.531
			C32.042,294.02,31.85,294.036,31.661,294.036z M469.708,285.809c-0.142,0-0.284-0.011-0.428-0.031
			c-1.646-0.229-2.78-1.754-2.546-3.394l0.017-0.112c0.24-1.641,1.762-2.773,3.404-2.526c1.64,0.235,2.771,1.765,2.525,3.399
			l-0.013,0.088C472.46,284.729,471.177,285.809,469.708,285.809z M29.245,277.794c-1.5,0-2.79-1.099-2.964-2.626l-0.015-0.135
			c-0.169-1.648,1.029-3.122,2.677-3.292c1.654-0.169,3.122,1.028,3.292,2.677c0.188,1.646-0.99,3.168-2.636,3.355
			C29.479,277.787,29.362,277.794,29.245,277.794z M471.509,269.48c-0.062,0-0.134-0.002-0.201-0.008
			c-1.644-0.108-2.893-1.511-2.796-3.149l0.02-0.183c0.142-1.65,1.604-2.863,3.245-2.732c1.646,0.142,2.875,1.595,2.729,3.244
			l-2.989-0.256l2.986,0.289C474.383,268.264,473.066,269.48,471.509,269.48z M28.042,261.434c-1.597,0-2.922-1.229-2.991-2.841
			l-0.005-0.143c-0.049-1.656,1.254-3.038,2.91-3.087c1.659-0.062,3.038,1.255,3.087,2.91c0.071,1.656-1.212,3.086-2.867,3.156
			C28.13,261.434,28.086,261.434,28.042,261.434z M472,253.104c-1.657,0-3-1.345-3-3V250c0-0.066,0.002-0.132,0.008-0.197
			c-0.006-0.069-0.008-0.14-0.008-0.211v-0.102c0-1.657,1.343-3,3-3s3,1.343,3,3v0.102c0,0.066-0.002,0.132-0.008,0.197
			c0.006,0.07,0.008,0.14,0.008,0.211v0.102C475,251.759,473.657,253.104,472,253.104z M28.029,245c-0.028,0-0.057,0-0.085,0
			c-1.656,0-2.961-1.389-2.914-3.044l0.005-0.142c0.072-1.656,1.494-2.935,3.127-2.864c1.655,0.072,2.939,1.462,2.867,3.117
			C30.983,243.695,29.647,245,28.029,245z M471.48,236.192c-1.578,0-2.901-1.233-2.992-2.829c-0.146-1.651,1.077-3.112,2.729-3.255
			c1.646-0.146,3.104,1.072,3.247,2.723l0.021,0.19c0.095,1.654-1.176,3.071-2.824,3.166
			C471.597,236.19,471.538,236.192,471.48,236.192z M29.209,228.687c-0.116,0-0.232-0.007-0.35-0.021
			c-1.646-0.191-2.825-1.68-2.634-3.326l0.006-0.054c0.165-1.648,1.632-2.846,3.283-2.687c1.649,0.165,2.852,1.635,2.687,3.284
			l-0.016,0.149C32.008,227.561,30.711,228.687,29.209,228.687z M469.654,219.887c-1.473,0-2.749-1.076-2.965-2.57l-0.021-0.101
			c-0.238-1.64,0.898-3.162,2.538-3.399c1.64-0.245,3.162,0.898,3.399,2.539l0.015,0.101c0.238,1.64-0.898,3.162-2.538,3.399
			C469.942,219.876,469.798,219.887,469.654,219.887z M31.585,212.452c-0.187,0-0.376-0.018-0.567-0.054
			c-1.627-0.311-2.694-1.883-2.383-3.51l0.01-0.051c0.284-1.632,1.831-2.727,3.47-2.441c1.632,0.284,2.725,1.837,2.441,3.47
			l-0.027,0.149C34.254,211.452,32.996,212.452,31.585,212.452z M466.63,203.759c-1.395,0-2.644-0.977-2.936-2.396
			c-0.379-1.613,0.618-3.237,2.229-3.616c1.606-0.38,3.229,0.612,3.604,2.225l0.041,0.182c0.334,1.623-0.711,3.209-2.334,3.543
			C467.034,203.739,466.83,203.759,466.63,203.759z M35.158,196.438c-0.258,0-0.52-0.034-0.78-0.104
			c-1.6-0.43-2.549-2.076-2.119-3.676l0.013-0.048c0.403-1.607,2.031-2.583,3.639-2.182c1.607,0.402,2.584,2.03,2.183,3.637
			l-0.039,0.149C37.694,195.554,36.482,196.438,35.158,196.438z M462.398,187.88c-1.25,0-2.408-0.78-2.825-2.032l-0.062-0.188
			c-0.474-1.587,0.436-3.259,2.021-3.732c1.586-0.475,3.259,0.428,3.729,2.017l-2.875,0.858l2.886-0.832
			c0.481,1.571-0.381,3.261-1.94,3.763C463.02,187.833,462.706,187.88,462.398,187.88z M39.912,180.731
			c-0.328,0-0.661-0.054-0.987-0.168c-1.564-0.545-2.391-2.256-1.846-3.82l0.02-0.058c0.523-1.572,2.22-2.422,3.795-1.897
			c1.572,0.524,2.421,2.223,1.897,3.795l-0.046,0.135C42.313,179.956,41.152,180.731,39.912,180.731z M457.034,172.399
			c-1.214,0-2.357-0.743-2.812-1.948c-0.61-1.538,0.126-3.301,1.664-3.917c1.538-0.615,3.277,0.116,3.896,1.654l0.061,0.156
			c0.582,1.551-0.204,3.28-1.755,3.862C457.74,172.337,457.385,172.399,457.034,172.399z M45.829,165.405
			c-0.402,0-0.81-0.081-1.201-0.252c-1.518-0.664-2.21-2.433-1.546-3.951l2.749,1.203l-2.73-1.245
			c0.639-1.528,2.394-2.254,3.924-1.614c1.527,0.637,2.252,2.387,1.617,3.916l-0.062,0.146
			C48.086,164.733,46.984,165.405,45.829,165.405z M450.521,157.354c-1.114,0-2.188-0.624-2.702-1.694l-0.059-0.108
			c-0.712-1.496-0.071-3.286,1.419-3.999c1.495-0.711,3.286-0.077,3.999,1.418l0.035,0.075c0.728,1.491,0.104,3.286-1.394,4.007
			C451.405,157.258,450.96,157.354,450.521,157.354z M52.862,150.53c-0.458,0-0.921-0.105-1.354-0.329
			c-1.473-0.76-2.065-2.541-1.305-4.013l0.065-0.125c0.779-1.462,2.596-2.016,4.058-1.239c1.462,0.779,2.017,2.595,1.239,4.058
			C55.029,149.923,53.961,150.53,52.862,150.53z M442.909,142.831c-1.027,0-2.027-0.527-2.587-1.476l-0.077-0.134
			c-0.816-1.441-0.312-3.272,1.131-4.089c1.444-0.819,3.272-0.31,4.09,1.131l0.024,0.042c0.842,1.427,0.367,3.267-1.062,4.108
			C443.952,142.696,443.427,142.831,442.909,142.831z M60.985,136.29c-0.544,0-1.096-0.148-1.591-0.459
			c-1.404-0.88-1.828-2.731-0.948-4.135l2.542,1.594l-2.518-1.631c0.857-1.415,2.701-1.873,4.118-1.019
			c1.416,0.854,1.877,2.688,1.026,4.106l-0.084,0.137C62.96,135.791,61.984,136.29,60.985,136.29z M434.213,128.892
			c-0.936,0-1.852-0.438-2.432-1.264l-0.11-0.164c-0.907-1.386-0.521-3.246,0.865-4.153c1.39-0.908,3.246-0.52,4.154,0.865
			l-2.516,1.644l2.524-1.622c0.913,1.367,0.566,3.233-0.786,4.162C435.396,128.719,434.8,128.892,434.213,128.892z M70.135,122.656
			c-0.615,0-1.235-0.188-1.77-0.58c-1.336-0.979-1.627-2.856-0.648-4.192l0.045-0.062c0.968-1.345,2.843-1.651,4.188-0.684
			c1.345,0.968,1.651,2.842,0.684,4.188l-0.075,0.103C71.97,122.23,71.059,122.656,70.135,122.656z M424.567,115.653
			c-0.896,0-1.778-0.398-2.37-1.158c-1.035-1.294-0.85-3.206,0.449-4.241c1.294-1.035,3.157-0.849,4.192,0.445l0.089,0.112
			c1.021,1.308,0.781,3.193-0.521,4.21C425.859,115.447,425.211,115.653,424.567,115.653z M80.262,109.735
			c-0.687,0-1.376-0.234-1.94-0.713c-1.263-1.073-1.417-2.966-0.345-4.229l0.048-0.057c1.061-1.274,2.953-1.445,4.225-0.384
			c1.273,1.061,1.445,2.953,0.384,4.225l-0.084,0.1C81.957,109.375,81.112,109.735,80.262,109.735z M413.944,103.146
			c-0.812,0-1.614-0.325-2.205-0.965l-0.092-0.101c-1.11-1.23-1.018-3.127,0.218-4.237c1.229-1.11,3.13-1.011,4.231,0.218
			l0.046,0.05c1.124,1.217,1.053,3.115-0.17,4.239C415.401,102.882,414.672,103.146,413.944,103.146z M91.311,97.595
			c-0.758,0-1.516-0.285-2.1-0.857c-1.184-1.16-1.203-3.059-0.043-4.242l0.071-0.072c1.159-1.186,3.06-1.203,4.242-0.044
			c1.184,1.159,1.204,3.059,0.044,4.242l-0.072,0.073C92.866,97.294,92.088,97.595,91.311,97.595z M402.406,91.443
			c-0.708,0-1.419-0.252-1.988-0.768l-0.14-0.131c-1.195-1.147-1.234-3.046-0.087-4.242c1.146-1.197,3.048-1.234,4.235-0.086
			l-2.071,2.164l2.098-2.145c1.198,1.128,1.28,3.024,0.165,4.233C404.023,91.113,403.216,91.443,402.406,91.443z M103.237,86.261
			c-0.829,0-1.652-0.335-2.239-0.999c-1.098-1.241-1.009-3.113,0.231-4.21l0.098-0.086c1.252-1.085,3.147-0.952,4.232,0.299
			c1.086,1.251,0.952,3.146-0.299,4.232C104.683,86.008,103.958,86.261,103.237,86.261z M390.084,80.628
			c-0.666,0-1.336-0.221-1.894-0.674l-0.078-0.064c-1.285-1.046-1.479-2.936-0.438-4.221c1.048-1.283,2.938-1.477,4.227-0.431
			l0.08,0.064c1.278,1.046,1.477,2.936,0.431,4.221C391.818,80.251,390.955,80.628,390.084,80.628z M115.947,75.874
			c-0.904,0-1.798-0.398-2.383-1.165c-1.006-1.317-0.784-3.177,0.533-4.182l0.102-0.077c1.326-0.994,3.207-0.725,4.2,0.6
			c0.994,1.325,0.726,3.206-0.6,4.2C117.25,75.669,116.595,75.874,115.947,75.874z M376.978,70.743
			c-0.604,0-1.212-0.182-1.735-0.559c-1.363-0.941-1.729-2.824-0.788-4.188c0.938-1.364,2.789-1.723,4.146-0.782l0.125,0.087
			c1.354,0.963,1.66,2.836,0.697,4.185C378.836,70.306,377.914,70.743,376.978,70.743z M129.368,66.467
			c-0.979,0-1.94-0.473-2.514-1.349c-0.908-1.386-0.538-3.234,0.848-4.142l0.136-0.087c1.404-0.879,3.255-0.457,4.135,0.948
			c0.88,1.403,0.456,3.255-0.948,4.135C130.516,66.307,129.938,66.467,129.368,66.467z M363.176,61.849
			c-0.514,0-1.033-0.132-1.509-0.409l-0.12-0.071c-1.42-0.852-1.881-2.695-1.028-4.116c0.854-1.42,2.695-1.882,4.116-1.029
			l0.062,0.033c1.431,0.835,1.914,2.672,1.079,4.103C365.213,61.315,364.208,61.849,363.176,61.849z M143.432,58.079
			c-1.066,0-2.098-0.569-2.641-1.573c-0.788-1.457-0.246-3.277,1.211-4.066l0.056-0.031c1.448-0.807,3.274-0.287,4.081,1.16
			c0.807,1.447,0.287,3.274-1.16,4.081l-0.123,0.067C144.403,57.963,143.914,58.079,143.432,58.079z M348.752,53.997
			c-0.438,0-0.885-0.097-1.306-0.301l-0.126-0.062c-1.481-0.741-2.082-2.543-1.348-4.025c0.742-1.482,2.551-2.081,4.025-1.341
			l0.058,0.028c1.491,0.723,2.114,2.517,1.396,4.008C350.936,53.374,349.865,53.997,348.752,53.997z M158.135,50.715
			c-1.14,0-2.236-0.64-2.741-1.736c-0.692-1.505-0.062-3.274,1.443-3.967l0.128-0.058c1.514-0.673,3.287,0.009,3.959,1.523
			c0.673,1.514-0.009,3.287-1.523,3.96C158.993,50.625,158.561,50.715,158.135,50.715z M333.784,47.236
			c-0.379,0-0.763-0.072-1.135-0.224c-1.535-0.624-2.318-2.392-1.694-3.927c0.623-1.535,2.331-2.293,3.864-1.668l0.102,0.041
			c1.533,0.627,2.271,2.379,1.641,3.913C336.087,46.532,334.966,47.236,333.784,47.236z M173.32,44.478
			c-1.228,0-2.394-0.74-2.84-1.949c-0.574-1.554,0.18-3.264,1.734-3.838l0.109-0.04c1.561-0.565,3.279,0.237,3.845,1.794
			c0.566,1.557-0.237,3.278-1.794,3.845C174.028,44.417,173.671,44.478,173.32,44.478z M318.351,41.605
			c-0.307,0-0.611-0.047-0.925-0.146c-1.578-0.502-2.493-2.203-1.99-3.782c0.508-1.58,2.15-2.463,3.729-1.963l0.112,0.036
			c1.57,0.51,2.438,2.202,1.931,3.778C320.793,40.797,319.616,41.605,318.351,41.605z M188.852,39.414
			c-1.308,0-2.51-0.862-2.885-2.183c-0.452-1.594,0.474-3.252,2.068-3.705l0.098-0.028c1.593-0.451,3.253,0.474,3.705,2.068
			c0.452,1.594-0.474,3.252-2.068,3.705l-0.098,0.028C189.398,39.376,189.123,39.414,188.852,39.414z M302.559,37.145
			c-0.246,0-0.498-0.031-0.75-0.095c-1.613-0.379-2.632-1.999-2.252-3.612c0.379-1.612,1.979-2.616,3.59-2.238l0.158,0.039
			c1.604,0.414,2.57,2.049,2.157,3.653C305.113,36.246,303.895,37.145,302.559,37.145z M204.785,35.495
			c-1.394,0-2.644-0.977-2.936-2.396c-0.334-1.623,0.711-3.209,2.333-3.543l0.1-0.021c1.625-0.332,3.21,0.71,3.543,2.333
			c0.334,1.623-0.711,3.209-2.333,3.543l-0.1,0.021C205.188,35.475,204.985,35.495,204.785,35.495z M286.48,33.871
			c-0.168,0-0.338-0.014-0.51-0.043c-1.642-0.265-2.783-1.811-2.521-3.447c0.264-1.636,1.767-2.754,3.402-2.488l0.127,0.021
			c1.636,0.28,2.729,1.831,2.451,3.464C289.184,32.839,287.915,33.871,286.48,33.871z M220.963,32.771
			c-1.484,0-2.774-1.101-2.971-2.612c-0.214-1.643,0.944-3.149,2.586-3.363l0.101-0.013c1.645-0.219,3.149,0.943,3.363,2.586
			s-0.944,3.148-2.586,3.363l-0.101,0.013C221.224,32.762,221.093,32.771,220.963,32.771z M270.204,31.797
			c-0.103,0-0.207-0.005-0.312-0.016c-1.65-0.142-2.899-1.597-2.764-3.248c0.146-1.651,1.578-2.879,3.225-2.735l0.148,0.014
			c1.646,0.17,2.852,1.644,2.682,3.292C273.025,30.647,271.723,31.797,270.204,31.797z M237.302,31.246
			c-1.578,0-2.901-1.233-2.992-2.829c-0.095-1.654,1.17-3.072,2.824-3.167l0.1-0.006c1.651-0.099,3.073,1.167,3.169,2.821
			c0.096,1.654-1.167,3.073-2.821,3.169l-0.104,0.006C237.417,31.245,237.359,31.246,237.302,31.246z M253.816,31
			c-0.02,0-0.029,0-0.045,0l-0.104-0.041c-1.651-0.023-2.979-1.405-2.957-3.062c0.021-1.657,1.386-3.018,3.042-2.966l0.104-0.003
			c1.656,0.024,2.979,1.424,2.955,3.081C256.792,29.649,255.453,31,253.816,31z"/>
		<path fill="#FFFFFF" d="M253.889,462.8c-1.656,0-3-1.343-3-3s1.344-3,3-3c1.639,0,3.022,1.314,3.049,2.953
			c0.023,1.64-1.224,2.994-2.856,3.044C254.045,462.798,253.919,462.8,253.889,462.8z M238.487,462.523
			c-0.061,0-0.123-0.002-0.185-0.012l0.182-2.988l-0.208,2.987c-1.642-0.086-2.932-1.478-2.864-3.121
			c0.067-1.643,1.432-2.947,3.068-2.876c0.03,0.001,0.156,0.014,0.186,0.016c1.654,0.1,2.913,1.521,2.813,3.176
			C241.382,461.297,240.061,462.523,238.487,462.523z M269.363,461.952c-1.53,0-2.838-1.165-2.983-2.72
			c-0.153-1.649,1.058-3.112,2.707-3.271c0.003,0,0.103-0.009,0.104-0.009c1.621-0.153,3.104,1.062,3.259,2.716
			c0.149,1.649-1.065,3.109-2.716,3.259l-0.271-2.981l0.186,2.996C269.552,461.948,269.457,461.952,269.363,461.952z
			 M223.047,461.119c-0.121,0-0.244-0.007-0.368-0.022c-0.027-0.004-0.151-0.02-0.178-0.021c-1.638-0.248-2.765-1.777-2.517-3.415
			c0.249-1.646,1.778-2.771,3.416-2.521c1.622,0.245,2.794,1.757,2.571,3.382C225.765,460.022,224.52,461.119,223.047,461.119z
			 M284.771,459.966c-1.438,0.001-2.715-1.021-2.974-2.479c-0.278-1.624,0.78-3.169,2.401-3.464
			c0.021-0.011,0.146-0.024,0.169-0.028c1.63-0.253,3.171,0.863,3.427,2.501c0.262,1.637-0.857,3.171-2.501,3.427l-0.463-2.964
			l0.438,2.969C285.104,459.953,284.936,459.966,284.771,459.966z M207.757,458.581c-0.212,0-0.428-0.023-0.644-0.07l0.641-2.931
			l-0.664,2.926c-1.607-0.339-2.667-1.911-2.349-3.521c0.318-1.612,1.852-2.678,3.463-2.374c0.032,0.006,0.159,0.026,0.191,0.039
			c1.619,0.354,2.644,1.947,2.29,3.565C210.378,457.624,209.136,458.581,207.757,458.581z M299.925,456.858
			c-1.379,0-2.62-0.957-2.928-2.359c-0.354-1.619,0.671-3.218,2.29-3.572c1.604-0.353,3.234,0.646,3.607,2.235
			c0.375,1.596-0.561,3.186-2.146,3.583c-0.028,0.008-0.15,0.037-0.182,0.043C300.354,456.835,300.139,456.858,299.925,456.858z
			 M192.693,454.914c-0.273,0-0.55-0.038-0.826-0.116l0.824-2.885l-0.905,2.861c-1.595-0.448-2.524-2.104-2.076-3.7
			c0.448-1.601,2.104-2.522,3.7-2.075c0.004,0.001,0.101,0.028,0.105,0.029c1.593,0.455,2.516,2.11,2.061,3.709
			C195.2,454.055,193.999,454.914,192.693,454.914z M314.851,452.621c-1.25,0-2.418-0.783-2.843-2.03
			c-0.535-1.562,0.293-3.266,1.857-3.804c0.019-0.006,0.128-0.043,0.146-0.049c1.57-0.516,3.271,0.354,3.776,1.935
			s-0.357,3.271-1.938,3.776l-0.921-2.855l0.889,2.867C315.496,452.569,315.17,452.621,314.851,452.621z M177.927,450.134
			c-0.326,0-0.659-0.056-0.987-0.172c-0.026-0.01-0.144-0.053-0.17-0.062c-1.545-0.604-2.313-2.336-1.715-3.887
			c0.599-1.546,2.337-2.311,3.881-1.715c1.53,0.598,2.346,2.319,1.775,3.857C180.261,449.373,179.139,450.134,177.927,450.134z
			 M329.399,447.292c-1.178,0-2.286-0.691-2.771-1.841c-0.641-1.528,0.078-3.286,1.606-3.927c0.016-0.013,0.113-0.055,0.135-0.061
			c1.538-0.617,3.285,0.133,3.896,1.671c0.615,1.538-0.133,3.284-1.671,3.899l-1.108-2.785l1.065,2.803
			C330.18,447.217,329.786,447.292,329.399,447.292z M163.574,444.268c-0.425,0-0.856-0.091-1.267-0.276l1.269-2.725l-1.294,2.707
			c-1.498-0.683-2.185-2.447-1.517-3.957c0.668-1.505,2.407-2.189,3.916-1.543c0.025,0.018,0.139,0.062,0.164,0.074
			c1.501,0.701,2.151,2.486,1.45,3.987C165.785,443.626,164.703,444.268,163.574,444.268z M343.508,440.9
			c-1.13,0-2.211-0.646-2.721-1.732c-0.7-1.501-0.052-3.286,1.45-3.987c1.471-0.758,3.27-0.18,4.025,1.292
			c0.767,1.478,0.179,3.287-1.299,4.055c-0.036,0.019-0.158,0.073-0.189,0.097C344.364,440.81,343.933,440.9,343.508,440.9z
			 M149.685,437.349c-0.49,0-0.987-0.121-1.447-0.374l1.449-2.627l-1.475,2.612c-1.449-0.781-2.015-2.594-1.246-4.051
			c0.77-1.456,2.553-2.028,4.014-1.272c0.023,0.019,0.132,0.071,0.156,0.084c1.451,0.807,1.978,2.625,1.178,4.076
			C151.767,436.788,150.742,437.349,149.685,437.349z M357.109,433.478c-1.062,0-2.083-0.561-2.636-1.552
			c-0.8-1.451-0.271-3.271,1.184-4.076c1.415-0.854,3.248-0.396,4.104,1.021c0.859,1.416,0.396,3.268-1.021,4.128
			c-0.035,0.021-0.154,0.091-0.19,0.105C358.097,433.356,357.6,433.478,357.109,433.478z M136.348,429.422
			c-0.563,0-1.133-0.158-1.64-0.49l1.643-2.51l-1.703,2.471c-1.394-0.896-1.797-2.752-0.901-4.146
			c0.896-1.396,2.752-1.799,4.146-0.901c0.007,0.004,0.095,0.062,0.102,0.066c1.386,0.907,1.774,2.767,0.867,4.152
			C138.286,428.944,137.327,429.422,136.348,429.422z M370.127,425.069c-0.97,0-1.921-0.475-2.499-1.336
			c-0.919-1.385-0.547-3.241,0.832-4.16c1.366-0.911,3.25-0.581,4.179,0.771c0.934,1.354,0.64,3.183-0.709,4.121
			c-0.021,0.021-0.121,0.084-0.142,0.104C371.276,424.906,370.698,425.069,370.127,425.069z M123.595,420.524
			c-0.613,0-1.23-0.192-1.763-0.601c-0.007-0.006-0.092-0.063-0.099-0.075c-1.313-1.01-1.559-2.894-0.549-4.207
			c1.01-1.312,2.893-1.558,4.207-0.549c1.309,1.007,1.597,2.912,0.596,4.229C125.39,420.106,124.498,420.524,123.595,420.524z
			 M382.492,415.725c-0.899,0-1.789-0.396-2.38-1.171c-1.016-1.312-0.771-3.19,0.549-4.207c1.27-1.062,3.146-0.891,4.214,0.378
			c1.066,1.271,0.888,3.177-0.381,4.236c-0.033,0.028-0.146,0.115-0.175,0.142C383.774,415.521,383.131,415.725,382.492,415.725z
			 M111.615,410.738c-0.714,0-1.43-0.253-2.003-0.771l2.004-2.229l-2.022,2.217c-1.23-1.088-1.376-2.979-0.304-4.223
			c1.071-1.244,2.926-1.412,4.184-0.354c0.025,0.021,0.123,0.106,0.147,0.128c1.233,1.107,1.335,3.004,0.228,4.236
			C113.256,410.402,112.437,410.738,111.615,410.738z M394.14,405.494c-0.812,0-1.621-0.327-2.213-0.973
			c-1.119-1.228-1.037-3.119,0.188-4.239c1.211-1.11,3.126-1.073,4.251,0.127c1.125,1.199,1.104,3.047-0.077,4.185
			c-0.021,0.021-0.104,0.103-0.119,0.112C395.59,405.233,394.863,405.494,394.14,405.494z M100.297,400.07
			c-0.749,0-1.494-0.285-2.071-0.862c-0.015-0.015-0.098-0.099-0.112-0.113c-1.146-1.19-1.106-3.096,0.09-4.241
			c1.197-1.146,3.095-1.104,4.242,0.09c1.138,1.188,1.142,3.104-0.034,4.259C101.82,399.776,101.057,400.07,100.297,400.07z
			 M405.008,394.424c-0.707,0-1.415-0.247-1.979-0.752c-1.237-1.096-1.36-2.979-0.271-4.219c0.016-0.016,0.091-0.104,0.104-0.117
			c1.113-1.221,3.018-1.303,4.233-0.186c1.228,1.121,1.31,3.019,0.188,4.24l-2.212-2.027l2.187,2.055
			C406.663,394.084,405.837,394.424,405.008,394.424z M89.895,388.639c-0.855,0-1.705-0.363-2.298-1.07l2.297-1.93l-2.336,1.883
			c-1.081-1.256-0.938-3.146,0.318-4.229c1.257-1.082,3.15-0.938,4.23,0.316c0.008,0.011,0.077,0.093,0.085,0.102
			c1.065,1.27,0.901,3.161-0.368,4.229C91.26,388.408,90.576,388.639,89.895,388.639z M415.032,382.605
			c-0.662,0-1.328-0.217-1.883-0.666c-1.289-1.041-1.49-2.935-0.449-4.219c1.032-1.279,2.933-1.525,4.221-0.515
			c1.291,1.021,1.553,2.851,0.551,4.146c-0.015,0.021-0.089,0.112-0.104,0.135C416.775,382.227,415.907,382.605,415.032,382.605z
			 M80.311,376.455c-0.931,0-1.848-0.432-2.435-1.243l2.432-1.757l-2.479,1.691c-0.978-1.338-0.686-3.215,0.652-4.191
			c1.337-0.979,3.214-0.686,4.192,0.65c0.003,0.006,0.063,0.088,0.066,0.092c0.97,1.345,0.667,3.22-0.676,4.188
			C81.534,376.271,80.92,376.455,80.311,376.455z M424.164,370.07c-0.58,0-1.166-0.168-1.682-0.521
			c-1.371-0.931-1.729-2.796-0.804-4.167c0.933-1.362,2.812-1.767,4.188-0.845s1.765,2.734,0.849,4.109
			c-0.005,0.011-0.062,0.098-0.062,0.104C426.069,369.609,425.125,370.07,424.164,370.07z M71.597,363.574
			c-0.98,0-1.93-0.481-2.492-1.381c-0.007-0.012-0.064-0.104-0.071-0.115c-0.86-1.416-0.409-3.262,1.007-4.121
			c1.418-0.857,3.263-0.407,4.122,1.008c0.856,1.409,0.438,3.287-0.966,4.152C72.695,363.426,72.142,363.574,71.597,363.574z
			 M432.348,356.893c-0.524,0-1.062-0.142-1.554-0.437c-1.417-0.86-1.867-2.705-1.008-4.121c0.8-1.451,2.619-1.966,4.062-1.166
			c1.451,0.802,1.977,2.638,1.177,4.088c-0.021,0.036-0.095,0.156-0.11,0.191C434.351,356.378,433.361,356.893,432.348,356.893z
			 M63.964,350.15c-1.086,0-2.134-0.592-2.667-1.623l2.665-1.379l-2.69,1.33c-0.781-1.461-0.229-3.279,1.232-4.062
			s3.279-0.229,4.06,1.229c0.006,0.018,0.057,0.108,0.063,0.121c0.761,1.478,0.186,3.281-1.286,4.043
			C64.899,350.042,64.428,350.15,63.964,350.15z M439.536,343.143c-0.464,0-0.938-0.104-1.375-0.336
			c-1.472-0.762-2.048-2.57-1.287-4.043c0.701-1.502,2.483-2.14,3.981-1.438c1.502,0.699,2.145,2.497,1.438,3.998
			c-0.018,0.037-0.077,0.16-0.096,0.195C441.671,342.551,440.622,343.143,439.536,343.143z M57.247,336.133
			c-1.142,0-2.22-0.648-2.706-1.771l-0.038-0.088c-0.659-1.52,0.04-3.285,1.56-3.939c1.521-0.658,3.287,0.04,3.946,1.562
			c0.659,1.521-0.021,3.328-1.541,3.985C58.069,336.051,57.654,336.133,57.247,336.133z M445.688,328.895
			c-0.365,0-0.742-0.064-1.107-0.217c-1.538-0.615-2.286-2.361-1.671-3.898c0.607-1.528,2.369-2.318,3.896-1.723
			c1.536,0.604,2.312,2.291,1.723,3.83c-0.01,0.01-0.046,0.109-0.054,0.12C448.006,328.18,446.879,328.895,445.688,328.895z
			 M51.64,321.697c-1.22,0-2.351-0.738-2.784-1.959c-0.005-0.014-0.042-0.117-0.046-0.131c-0.532-1.568,0.31-3.271,1.879-3.81
			c1.568-0.521,3.272,0.312,3.804,1.884c0.529,1.562-0.285,3.303-1.843,3.844C52.315,321.643,51.974,321.697,51.64,321.697z
			 M450.761,314.214c-0.273,0-0.562-0.04-0.844-0.123c-1.585-0.467-2.497-2.116-2.036-3.704c0.006-0.02,0.04-0.131,0.046-0.15
			c0.494-1.582,2.177-2.461,3.758-1.969c1.582,0.494,2.469,2.178,1.975,3.758l-2.863-0.895l2.853,0.934
			C453.252,313.365,452.055,314.214,450.761,314.214z M47.154,306.91c-1.327,0-2.541-0.889-2.897-2.23l2.899-0.771l-2.918,0.7
			c-0.438-1.598,0.502-3.248,2.1-3.688c1.597-0.437,3.249,0.502,3.687,2.103c0.002,0.012,0.029,0.105,0.031,0.115
			c0.425,1.604-0.528,3.243-2.129,3.67C47.668,306.877,47.409,306.91,47.154,306.91z M454.726,299.234
			c-0.234,0-0.479-0.029-0.729-0.092c-1.607-0.4-2.585-2.029-2.183-3.643c0.396-1.59,2.009-2.605,3.604-2.234
			c1.596,0.373,2.607,1.907,2.257,3.514c-0.006,0.029-0.034,0.152-0.042,0.182C457.293,298.324,456.07,299.234,454.726,299.234z
			 M43.713,291.742c-1.407,0-2.649-0.967-2.918-2.402c-0.001-0.005-0.02-0.105-0.021-0.109c-0.296-1.631,0.785-3.188,2.415-3.483
			c1.632-0.304,3.192,0.78,3.488,2.414c0.296,1.628-0.772,3.229-2.398,3.528C44.089,291.725,43.9,291.742,43.713,291.742z
			 M457.562,283.977c-0.136,0-0.268-0.009-0.396-0.021c-1.633-0.224-2.788-1.692-2.583-3.328c0.003-0.021,0.021-0.146,0.024-0.173
			c0.242-1.645,1.771-2.771,3.415-2.521c1.639,0.248,2.765,1.776,2.517,3.414l-2.966-0.449l2.962,0.48
			C460.325,282.877,459.037,283.977,457.562,283.977z M41.458,276.454c-1.515,0-2.816-1.144-2.979-2.685l2.983-0.315l-2.988,0.274
			c-0.196-1.646,0.973-3.146,2.614-3.347c1.642-0.192,3.134,0.964,3.34,2.604c0.002,0.019,0.015,0.133,0.017,0.146
			c0.175,1.646-1.02,3.125-2.667,3.306C41.671,276.449,41.564,276.454,41.458,276.454z M459.269,268.586
			c-0.094,0-0.188-0.004-0.278-0.013c-1.649-0.155-2.861-1.618-2.707-3.269c0.147-1.636,1.586-2.893,3.222-2.764
			c1.633,0.126,2.866,1.49,2.769,3.125c-0.004,0.033-0.013,0.161-0.016,0.189C462.105,267.42,460.799,268.586,459.269,268.586z
			 M40.314,261c-1.615,0-2.948-1.286-2.997-2.911l2.999-0.092l-3,0.044c-0.074-1.654,1.206-3.059,2.86-3.134
			c1.658-0.099,3.056,1.198,3.133,2.853c0.001,0.018,0.005,0.133,0.005,0.148c0.05,1.656-1.251,3.092-2.908,3.092
			C40.375,261,40.345,261,40.314,261z M459.917,253.096c-1.657,0-3.042-1.343-3.042-3c0-0.079-0.018-0.157-0.012-0.235
			c-0.007-0.081-0.021-0.164-0.021-0.247c0-1.657,1.421-3.048,3.078-3.048s3.078,1.295,3.078,2.952v0.096
			c0,0.062-0.002,0.124-0.006,0.186c0.004,0.066,0.006,0.133,0.006,0.2v0.096C463,251.753,461.574,253.096,459.917,253.096z
			 M40.297,245.444c-0.038,0-0.075,0-0.112-0.002c-1.646-0.062-2.936-1.394-2.886-3.041c0-0.016,0.004-0.128,0.005-0.144
			c0.076-1.655,1.466-2.932,3.134-2.858c1.655,0.076,2.935,1.48,2.859,3.135C43.224,244.142,41.894,245.444,40.297,245.444z
			 M459.232,237.099c-1.533,0-2.835-1.148-2.979-2.701c-0.003-0.032-0.012-0.159-0.014-0.19c-0.104-1.654,1.159-3.076,2.812-3.176
			c1.645-0.083,3.077,1.159,3.176,2.813l-2.988,0.182l2.99-0.157c0.113,1.64-1.106,3.088-2.75,3.22
			C459.397,237.095,459.314,237.099,459.232,237.099z M41.413,230.03c-0.107,0-0.216-0.005-0.325-0.017
			c-1.647-0.178-2.839-1.657-2.662-3.304l2.983,0.321l-2.973-0.412c0.175-1.647,1.656-2.838,3.3-2.667
			c1.647,0.175,2.842,1.652,2.667,3.3c0,0.001-0.011,0.099-0.011,0.101C44.226,228.89,42.925,230.03,41.413,230.03z
			 M457.514,221.716c-1.455,0-2.729-1.061-2.961-2.544c-0.252-1.638,0.863-3.217,2.501-3.469c1.646-0.252,3.162,0.824,3.414,2.461
			l0.021,0.095c0.252,1.638-0.871,3.169-2.515,3.421C457.819,221.705,457.665,221.716,457.514,221.716z M43.65,214.644
			c-0.177,0-0.355-0.016-0.535-0.05c-1.627-0.303-2.71-1.819-2.41-3.446c0-0.003,0.019-0.101,0.019-0.103
			c0.306-1.629,1.878-2.699,3.501-2.396c1.628,0.306,2.701,1.873,2.396,3.501C46.35,213.597,45.074,214.644,43.65,214.644z
			 M454.642,206.461c-1.34,0-2.554-0.895-2.893-2.253c-0.008-0.029-0.036-0.151-0.042-0.18c-0.354-1.619,0.671-3.218,2.29-3.572
			c1.614-0.354,3.217,0.67,3.571,2.29l-2.937,0.641l2.938-0.616c0.361,1.604-0.624,3.224-2.229,3.606
			C455.113,206.434,454.876,206.461,454.642,206.461z M47.033,199.563c-0.255,0-0.514-0.033-0.772-0.102
			c-1.602-0.425-2.555-2.068-2.129-3.669l2.899,0.77l-2.883-0.832c0.407-1.606,2.044-2.576,3.646-2.169
			c1.606,0.408,2.577,2.041,2.169,3.646c-0.003,0.011-0.03,0.115-0.033,0.125C49.574,198.675,48.36,199.563,47.033,199.563z
			 M450.675,191.499c-1.305,0-2.506-0.859-2.883-2.177c-0.45-1.577,0.435-3.269,2.005-3.743c1.566-0.472,3.215,0.355,3.711,1.918
			c0.009,0.028,0.046,0.148,0.054,0.176c0.455,1.593-0.468,3.253-2.061,3.709C451.226,191.461,450.948,191.499,450.675,191.499z
			 M51.514,184.674c-0.316,0-0.636-0.051-0.95-0.159c-1.562-0.537-2.411-2.189-1.881-3.753c0.003-0.009,0.037-0.109,0.04-0.118
			c0.547-1.564,2.257-2.389,3.822-1.843c1.564,0.546,2.389,2.257,1.843,3.821C53.953,183.868,52.769,184.674,51.514,184.674z
			 M445.591,176.854c-1.203,0-2.338-0.729-2.799-1.918c-0.597-1.542,0.149-3.321,1.689-3.923c1.533-0.602,3.26,0.113,3.859,1.652
			c0.002,0.005,0.039,0.1,0.041,0.105c0.604,1.545-0.17,3.283-1.715,3.881C446.317,176.789,445.95,176.854,445.591,176.854z
			 M57.104,170.195c-0.387,0-0.778-0.076-1.154-0.237c-1.519-0.653-2.243-2.367-1.594-3.888c0.002-0.005,0.043-0.1,0.045-0.105
			c0.659-1.52,2.425-2.219,3.945-1.56c1.52,0.659,2.219,2.425,1.56,3.945C59.411,169.491,58.28,170.195,57.104,170.195z
			 M439.438,162.641c-1.117,0-2.194-0.633-2.713-1.714c-0.711-1.497-0.094-3.329,1.403-4.04c1.497-0.71,3.266-0.116,3.979,1.381
			l0.035,0.086c0.717,1.497,0.073,3.286-1.424,3.997C440.306,162.547,439.867,162.641,439.438,162.641z M63.756,156.174
			c-0.459,0-0.923-0.106-1.355-0.331c-1.466-0.764-2.06-2.528-1.3-3.996c0.003-0.005,0.05-0.097,0.053-0.103
			c0.77-1.467,2.584-2.031,4.051-1.26c1.467,0.771,2.031,2.584,1.26,4.051C65.923,155.567,64.854,156.174,63.756,156.174z
			 M432.226,148.908c-1.015,0-1.999-0.515-2.558-1.452c-0.014-0.022-0.075-0.128-0.088-0.151c-0.812-1.445-0.297-3.273,1.146-4.084
			c1.446-0.812,3.273-0.298,4.085,1.147l-2.61,1.469l2.63-1.443c0.816,1.428,0.346,3.268-1.076,4.1
			C433.27,148.773,432.744,148.908,432.226,148.908z M71.433,142.74c-0.543,0-1.093-0.147-1.587-0.457
			c-1.405-0.878-1.832-2.729-0.954-4.134l2.544,1.59l-2.514-1.639c0.859-1.417,2.705-1.867,4.122-1.007
			c1.416,0.86,1.867,2.705,1.007,4.122c-0.007,0.011-0.064,0.104-0.071,0.115C73.411,142.24,72.433,142.74,71.433,142.74z
			 M424.057,135.764c-0.946,0-1.889-0.453-2.471-1.295c-0.01-0.014-0.073-0.107-0.082-0.121c-0.919-1.378-0.547-3.241,0.832-4.16
			c1.38-0.919,3.241-0.546,4.16,0.832L424,132.684l2.521-1.625c0.938,1.363,0.601,3.231-0.769,4.173
			C425.238,135.591,424.645,135.764,424.057,135.764z M80.076,129.86c-0.617,0-1.24-0.189-1.775-0.583
			c-1.334-0.982-1.621-2.86-0.639-4.194l2.417,1.778l-2.395-1.808c0.962-1.342,2.835-1.665,4.182-0.707
			c1.347,0.956,1.673,2.812,0.723,4.163c-0.012,0.017-0.082,0.112-0.094,0.129C81.907,129.437,80.998,129.86,80.076,129.86z
			 M414.89,123.232c-0.854,0-1.695-0.367-2.289-1.081c-0.021-0.026-0.102-0.127-0.122-0.154c-1.01-1.313-0.765-3.197,0.555-4.207
			c1.312-1.01,3.19-0.765,4.207,0.549l-2.378,1.829l2.392-1.811c1.012,1.294,0.812,3.18-0.47,4.207
			C416.219,123.013,415.552,123.232,414.89,123.232z M89.652,117.601c-0.677,0-1.354-0.225-1.907-0.69
			c-1.267-1.066-1.461-2.92-0.396-4.188c0.001-0.001,0.064-0.077,0.066-0.078c1.067-1.268,2.961-1.428,4.227-0.36
			c1.267,1.068,1.428,2.96,0.36,4.227C91.399,117.227,90.526,117.601,89.652,117.601z M404.883,111.428
			c-0.8,0-1.598-0.318-2.188-0.947c-0.008-0.009-0.081-0.088-0.09-0.097c-1.119-1.222-1.036-3.119,0.185-4.239
			c1.222-1.12,3.119-1.038,4.239,0.184l-2.212,2.027l2.253-1.982c1.134,1.208,1.068,3.106-0.14,4.24
			C406.356,111.159,405.618,111.428,404.883,111.428z M100.098,106.132c-0.754,0-1.505-0.276-2.081-0.839
			c-1.184-1.159-1.238-3.023-0.079-4.208l0.067-0.068c1.16-1.185,3.06-1.204,4.242-0.046c1.185,1.159,1.205,3.058,0.046,4.242
			C101.697,105.822,100.896,106.132,100.098,106.132z M394.003,100.378c-0.735,0-1.472-0.269-2.051-0.812
			c-1.209-1.133-1.306-3.064-0.172-4.273c1.135-1.208,2.998-1.302,4.205-0.169l0.064,0.066c1.209,1.133,1.271,3.032,0.143,4.24
			C395.602,100.06,394.804,100.378,394.003,100.378z M111.331,95.513c-0.833,0-1.663-0.345-2.256-1.021
			c-1.093-1.246-0.969-3.141,0.276-4.234l1.979,2.255l-1.91-2.315c1.244-1.094,3.14-0.973,4.234,0.27
			c1.095,1.244,0.974,3.14-0.27,4.234c-0.001,0.001-0.074,0.065-0.075,0.066C112.739,95.268,112.034,95.513,111.331,95.513z
			 M382.343,90.156c-0.669,0-1.343-0.223-1.896-0.68c-1.277-1.048-1.511-2.962-0.462-4.244c1.043-1.281,2.888-1.509,4.174-0.471
			c0.006,0.005,0.087,0.07,0.093,0.075c1.281,1.051,1.468,2.941,0.417,4.222C384.071,89.782,383.211,90.156,382.343,90.156z
			 M123.366,85.651c-0.912,0-1.813-0.403-2.396-1.178c-0.989-1.314-0.773-3.15,0.53-4.152c0.017-0.013,0.11-0.084,0.128-0.097
			c1.334-0.981,3.211-0.696,4.194,0.639c0.982,1.334,0.696,3.212-0.639,4.194C124.641,85.457,124,85.651,123.366,85.651z
			 M369.959,80.817c-0.584,0-1.175-0.17-1.692-0.526c-0.011-0.007-0.1-0.069-0.104-0.076c-1.354-0.954-1.687-2.825-0.729-4.18
			c0.953-1.355,2.824-1.681,4.186-0.727l-1.729,2.454l1.774-2.419c1.367,0.938,1.716,2.804,0.773,4.17
			C371.855,80.36,370.915,80.817,369.959,80.817z M136.062,76.751c-0.989,0-1.958-0.474-2.528-1.355
			c-0.894-1.386-0.542-3.208,0.837-4.111c0.011-0.007,0.102-0.066,0.113-0.073c1.399-0.89,3.252-0.477,4.142,0.92
			c0.89,1.398,0.478,3.252-0.92,4.142C137.2,76.596,136.628,76.751,136.062,76.751z M356.906,72.412
			c-0.497,0-1.002-0.126-1.467-0.391c-0.024-0.014-0.138-0.078-0.156-0.092c-1.417-0.86-1.867-2.705-1.008-4.122
			c0.854-1.416,2.705-1.867,4.121-1.007l-1.562,2.564l1.58-2.55c1.414,0.841,1.905,2.675,1.078,4.098
			C358.939,71.871,357.938,72.412,356.906,72.412z M149.322,68.853c-1.063,0-2.094-0.567-2.638-1.567
			c-0.792-1.455-0.253-3.277,1.202-4.068l1.433,2.635l-1.365-2.673c1.453-0.799,3.275-0.271,4.076,1.178
			c0.8,1.451,0.273,3.275-1.178,4.076c-0.005,0.003-0.095,0.051-0.1,0.054C150.298,68.735,149.807,68.853,149.322,68.853z
			 M343.293,64.996c-0.464,0-0.935-0.108-1.375-0.336c-1.458-0.754-2.083-2.561-1.349-4.028c0.729-1.468,2.468-2.096,3.939-1.381
			c0.024,0.012,0.142,0.067,0.159,0.08c1.472,0.761,2.048,2.571,1.287,4.043C345.428,64.405,344.379,64.996,343.293,64.996z
			 M163.173,61.918c-1.145,0-2.238-0.659-2.738-1.77c-0.68-1.511-0.006-3.287,1.505-3.967l1.231,2.736l-1.161-2.768
			c1.507-0.688,3.287-0.027,3.977,1.479c0.689,1.507,0.027,3.287-1.479,3.977c-0.006,0.002-0.099,0.045-0.105,0.047
			C164.003,61.833,163.584,61.918,163.173,61.918z M329.153,58.609c-0.391,0-0.775-0.075-1.153-0.232
			c-1.522-0.634-2.292-2.398-1.666-3.925c0.625-1.526,2.32-2.28,3.854-1.663c0.011,0.004,0.105,0.045,0.116,0.05
			c1.529,0.637,2.252,2.394,1.615,3.923C331.443,57.915,330.328,58.609,329.153,58.609z M177.569,56
			c-1.232,0-2.403-0.744-2.847-1.956c-0.567-1.551,0.181-3.252,1.729-3.827c0.009-0.003,0.107-0.04,0.116-0.043
			c1.559-0.562,3.278,0.246,3.84,1.805c0.562,1.559-0.246,3.277-1.805,3.84C178.263,55.941,177.914,56,177.569,56z M314.571,53.29
			c-0.312,0-0.625-0.048-0.938-0.15c-1.565-0.516-2.475-2.221-1.963-3.793c0.512-1.572,2.157-2.451,3.729-1.942
			c0.005,0.001,0.102,0.033,0.104,0.034c1.574,0.517,2.433,2.211,1.915,3.786C317.007,52.487,315.833,53.29,314.571,53.29z
			 M192.313,51.194c-1.316,0-2.547-0.853-2.92-2.17c-0.451-1.592,0.425-3.235,2.016-3.69c0.004-0.001,0.101-0.028,0.105-0.03
			c1.597-0.448,3.251,0.481,3.7,2.076c0.448,1.595-0.481,3.251-2.076,3.7C192.863,51.157,192.586,51.194,192.313,51.194z
			 M299.652,49.076c-0.239,0-0.484-0.029-0.729-0.09c-1.599-0.4-2.623-2.026-2.233-3.628c0.393-1.603,1.947-2.605,3.558-2.226
			c0.017,0.003,0.122,0.029,0.137,0.033c1.604,0.402,2.585,2.031,2.187,3.638C302.221,48.166,300.998,49.076,299.652,49.076z
			 M207.283,47.517c-1.397,0-2.648-0.981-2.937-2.403c-0.33-1.624,0.719-3.208,2.343-3.537l0.597,2.94l-0.538-2.952
			c1.619-0.353,3.216,0.682,3.564,2.301c0.349,1.62-0.681,3.216-2.301,3.564c-0.012,0.002-0.117,0.024-0.129,0.027
			C207.682,47.497,207.481,47.517,207.283,47.517z M284.464,45.982c-0.149,0-0.3-0.011-0.452-0.034
			c-0.02-0.003-0.134-0.022-0.152-0.025c-1.633-0.281-2.729-1.832-2.444-3.465c0.274-1.633,1.836-2.729,3.465-2.448l-0.508,2.957
			l0.546-2.95c1.633,0.258,2.758,1.79,2.505,3.423C287.188,44.921,285.918,45.982,284.464,45.982z M222.662,44.93
			c-1.482,0-2.807-1.083-3.014-2.586c-0.225-1.64,0.873-3.146,2.513-3.374c0.008-0.001,0.067-0.009,0.075-0.01
			c1.637-0.223,3.165,0.937,3.383,2.575c0.219,1.639-0.908,3.143-2.546,3.366C222.936,44.921,222.798,44.93,222.662,44.93z
			 M269.088,44.022c-0.094,0-0.188-0.004-0.283-0.013c-1.646-0.154-2.908-1.619-2.756-3.267c0.152-1.648,1.555-2.865,3.211-2.716
			c0.004,0,0.102,0.009,0.104,0.01c1.649,0.155,2.86,1.617,2.706,3.267C271.925,42.857,270.618,44.022,269.088,44.022z
			 M238.101,43.498c-1.588,0-2.956-1.238-3.042-2.837c-0.088-1.646,1.121-3.052,2.766-3.152c0.015-0.001,0.125-0.007,0.14-0.007
			c1.644-0.074,3.059,1.203,3.135,2.858c0.077,1.655-1.203,3.059-2.858,3.135C238.194,43.497,238.147,43.498,238.101,43.498z
			 M253.605,43c-0.021,0-0.03,0-0.047,0c-1.656,0-3.026-1.389-3.002-3.045C250.58,38.314,251.87,37,253.505,37
			c0.019,0,0.031,0,0.05,0l0.096,0.099c1.656,0.025,2.979,1.339,2.955,2.996C256.58,41.736,255.242,43,253.605,43z"/>
	</g>
</g>
</svg>
