<!--?xml version="1.0" encoding="utf-8"?-->
<!-- Generator: Adobe Illustrator 18.1.1, SVG Export Plug-In . SVG Version: 6.00 Build 0)  -->

<svg version="1.1" id="Layer_1" xmlns="http://www.w3.org/2000/svg" xmlns:xlink="http://www.w3.org/1999/xlink" x="0px" y="0px" viewBox="0 0 500 500" enable-background="new 0 0 500 500" xml:space="preserve">
<g id="change1">
	<path fill="#FFFFFF" d="M250,0C112.1,0,0,112.2,0,250c0,137.9,112.1,250,250,250c137.8,0,250-112.1,250-250
		C500,112.2,387.8,0,250,0z M250,480.5C122.9,480.5,19.5,377.1,19.5,250C19.5,122.9,122.9,19.5,250,19.5
		c127.1,0,230.5,103.4,230.5,230.5C480.5,377.1,377.1,480.5,250,480.5z"></path>
	<path fill="#FFFFFF" d="M250,32.5C130.1,32.5,32.5,130.1,32.5,250c0,119.9,97.6,217.5,217.5,217.5c119.9,0,217.5-97.6,217.5-217.5
		C467.5,130.1,369.9,32.5,250,32.5z"></path>
</g>
</svg>