<?xml version="1.0" encoding="utf-8"?>
<!-- Generator: Adobe Illustrator 15.0.0, SVG Export Plug-In . SVG Version: 6.00 Build 0)  -->
<!DOCTYPE svg PUBLIC "-//W3C//DTD SVG 1.1//EN" "http://www.w3.org/Graphics/SVG/1.1/DTD/svg11.dtd">
<svg version="1.1" id="Layer_1" xmlns="http://www.w3.org/2000/svg" xmlns:xlink="http://www.w3.org/1999/xlink" x="0px" y="0px"
	 width="500px" height="500px" viewBox="0 0 500 500" enable-background="new 0 0 500 500" xml:space="preserve">
<g id="Layer_X">
	<g id="change2">
		<circle fill="#C1A6F4" cx="250" cy="250" r="245.001"/>
	</g>
	<g id="change1">
		<path fill="#FFFFFF" d="M250,500c-66.778,0-129.559-26.005-176.777-73.224C26.004,379.559,0,316.777,0,250
			c0-66.778,26.004-129.559,73.223-176.777C120.441,26.004,183.222,0,250,0c66.777,0,129.558,26.004,176.776,73.223
			C473.995,120.441,500,183.222,500,250c0,66.777-26.005,129.559-73.224,176.776C379.557,473.994,316.777,500,250,500z M250,10
			C117.664,10,10,117.664,10,250c0,132.337,107.664,240,240,240c132.337,0,240-107.663,240-240C490,117.664,382.337,10,250,10z"/>
		<path fill="#FFFFFF" d="M250,441.504c-105.595,0-191.503-85.908-191.503-191.504c0-105.595,85.908-191.503,191.503-191.503
			c105.596,0,191.504,85.908,191.504,191.503C441.504,355.596,355.596,441.504,250,441.504z M250,68.497
			C149.919,68.497,68.497,149.919,68.497,250c0,100.082,81.422,181.504,181.503,181.504c100.082,0,181.504-81.422,181.504-181.504
			C431.504,149.919,350.082,68.497,250,68.497z"/>
		<path fill="#FFFFFF" d="M252.286,474.676l-0.197-17.998c1.281-0.015,2.56-0.04,3.835-0.076l0.516,17.992
			C255.059,474.634,253.675,474.661,252.286,474.676z M241.876,474.55c-1.388-0.049-2.774-0.106-4.155-0.183l0.951-17.978
			c1.275,0.067,2.554,0.124,3.835,0.169L241.876,474.55z M266.835,474.056l-1.342-17.946c1.274-0.099,2.548-0.202,3.817-0.321
			l1.678,17.922C269.607,473.836,268.225,473.952,266.835,474.056z M227.341,473.575c-1.385-0.138-2.766-0.288-4.144-0.451
			l2.113-17.875c1.266,0.149,2.535,0.288,3.808,0.414L227.341,473.575z M281.335,472.5l-2.515-17.824
			c1.271-0.179,2.537-0.368,3.8-0.566l2.825,17.774C284.08,472.101,282.71,472.306,281.335,472.5z M212.89,471.665
			c-1.374-0.228-2.744-0.467-4.109-0.72l3.274-17.699c1.253,0.229,2.509,0.451,3.77,0.659L212.89,471.665z M295.693,470.009
			l-3.658-17.625c1.255-0.26,2.505-0.531,3.752-0.812l3.973,17.557C298.409,469.433,297.055,469.726,295.693,470.009z
			 M198.591,468.818c-1.356-0.316-2.708-0.646-4.056-0.985l4.422-17.449c1.234,0.313,2.474,0.614,3.717,0.903L198.591,468.818z
			 M309.863,466.586l-4.791-17.35c1.229-0.344,2.457-0.692,3.679-1.058l5.123,17.257
			C312.543,465.833,311.206,466.216,309.863,466.586z M184.505,465.046c-1.338-0.406-2.672-0.824-4-1.255l5.558-17.121
			c1.217,0.396,2.438,0.778,3.664,1.149L184.505,465.046z M323.784,462.245l-5.912-17.002c1.207-0.42,2.408-0.854,3.604-1.292
			l6.232,16.887C326.407,461.318,325.099,461.788,323.784,462.245z M170.654,460.345c-1.307-0.492-2.609-0.995-3.905-1.512
			l6.667-16.721c1.188,0.474,2.381,0.936,3.58,1.387L170.654,460.345z M337.375,457.012l-7.023-16.569
			c1.177-0.498,2.346-1.008,3.509-1.522l7.319,16.443C339.917,455.923,338.648,456.473,337.375,457.012z M157.153,454.751
			c-1.272-0.576-2.539-1.163-3.798-1.765l7.749-16.246c1.153,0.55,2.312,1.087,3.476,1.611L157.153,454.751z M350.57,450.918
			l-8.07-16.09c1.138-0.57,2.27-1.152,3.395-1.743l8.38,15.932C353.045,449.662,351.812,450.295,350.57,450.918z M144.048,448.292
			c-1.228-0.656-2.45-1.323-3.665-2.002l8.778-15.715c1.117,0.624,2.24,1.235,3.37,1.842L144.048,448.292z M363.367,443.966
			l-9.115-15.521c1.104-0.647,2.199-1.306,3.289-1.972l9.385,15.359C365.746,442.556,364.56,443.266,363.367,443.966z M131.405,441
			c-1.182-0.733-2.357-1.479-3.524-2.233l9.773-15.112c1.074,0.691,2.154,1.379,3.241,2.054L131.405,441z M375.672,436.209
			l-10.082-14.912c1.06-0.715,2.106-1.438,3.148-2.172l10.356,14.721C377.964,434.644,376.822,435.431,375.672,436.209z
			 M119.259,432.902c-1.129-0.811-2.251-1.625-3.366-2.452l10.729-14.453c1.027,0.763,2.062,1.518,3.105,2.263L119.259,432.902z
			 M387.469,427.662l-11.031-14.228c1.013-0.779,2.015-1.571,3.01-2.375l11.287,14.021
			C389.652,425.953,388.564,426.812,387.469,427.662z M107.676,424.046c-1.077-0.88-2.146-1.77-3.207-2.67l11.648-13.723
			c0.974,0.823,1.955,1.644,2.944,2.448L107.676,424.046z M398.681,418.376l-11.912-13.494c0.956-0.844,1.903-1.697,2.846-2.559
			l12.168,13.264C400.756,416.526,399.723,417.456,398.681,418.376z M96.689,414.462c-1.017-0.945-2.024-1.897-3.022-2.865
			l12.502-12.947c0.919,0.888,1.846,1.767,2.782,2.638L96.689,414.462z M409.288,408.377l-12.771-12.688
			c0.9-0.906,1.793-1.82,2.679-2.742l13.002,12.444C411.237,406.398,410.267,407.393,409.288,408.377z M86.346,404.193
			c-0.953-1.011-1.896-2.025-2.83-3.054l13.308-12.118c0.861,0.942,1.729,1.883,2.607,2.812L86.346,404.193z M419.222,397.719
			l-13.549-11.85c0.841-0.962,1.673-1.932,2.496-2.909l13.768,11.595C421.041,395.617,420.137,396.673,419.222,397.719z
			 M76.688,393.282c-0.885-1.067-1.76-2.144-2.625-3.228l14.064-11.234c0.797,0.998,1.604,1.99,2.419,2.974L76.688,393.282z
			 M428.463,386.428l-14.297-10.937c0.778-1.019,1.548-2.042,2.309-3.073l14.488,10.682
			C430.14,384.217,429.306,385.325,428.463,386.428z M67.758,381.777c-0.814-1.12-1.618-2.25-2.411-3.387l14.758-10.307
			c0.73,1.046,1.471,2.086,2.22,3.119L67.758,381.777z M436.95,374.568l-14.967-10c0.71-1.062,1.407-2.131,2.101-3.207l15.152,9.715
			C438.485,372.248,437.723,373.413,436.95,374.568z M59.591,369.727c-0.74-1.172-1.469-2.351-2.188-3.537l15.395-9.328
			c0.661,1.094,1.332,2.179,2.012,3.255L59.591,369.727z M444.66,362.174l-15.586-9.004c0.64-1.107,1.27-2.222,1.889-3.342
			l15.752,8.711C446.041,359.757,445.356,360.969,444.66,362.174z M52.223,357.174c-0.662-1.215-1.312-2.438-1.952-3.667
			l15.966-8.312c0.588,1.13,1.187,2.255,1.796,3.373L52.223,357.174z M451.548,349.303l-16.137-7.977
			c0.563-1.146,1.122-2.297,1.667-3.455l16.287,7.664C452.771,346.797,452.165,348.055,451.548,349.303z M45.687,344.174
			c-0.581-1.254-1.149-2.515-1.708-3.779l16.47-7.263c0.514,1.166,1.039,2.327,1.574,3.483L45.687,344.174z M457.589,335.997
			l-16.623-6.904c0.491-1.183,0.972-2.37,1.441-3.562l16.748,6.594C458.645,333.419,458.123,334.711,457.589,335.997z
			 M40.012,330.787c-0.5-1.294-0.987-2.594-1.464-3.9l16.909-6.17c0.438,1.201,0.887,2.396,1.347,3.588L40.012,330.787z
			 M462.75,322.316l-17.041-5.799c0.413-1.213,0.814-2.434,1.206-3.654l17.145,5.482
			C463.635,319.675,463.198,320.998,462.75,322.316z M35.207,317.018c-0.414-1.324-0.815-2.649-1.206-3.983l17.275-5.06
			c0.359,1.229,0.729,2.453,1.11,3.672L35.207,317.018z M466.999,308.352l-17.383-4.672c0.331-1.23,0.648-2.47,0.96-3.711
			l17.467,4.348C467.707,305.665,467.359,307.011,466.999,308.352z M31.312,302.966c-0.327-1.349-0.641-2.7-0.943-4.059
			l17.569-3.912c0.278,1.248,0.567,2.493,0.868,3.731L31.312,302.966z M470.32,294.156l-17.648-3.537
			c0.25-1.25,0.488-2.503,0.716-3.76l17.713,3.199C470.854,291.43,470.594,292.795,470.32,294.156z M28.344,288.691
			c-0.238-1.365-0.464-2.735-0.677-4.109l17.787-2.76c0.196,1.263,0.404,2.523,0.623,3.779L28.344,288.691z M472.712,279.773
			l-17.842-2.377c0.168-1.266,0.325-2.529,0.47-3.801l17.885,2.037C473.066,277.02,472.896,278.398,472.712,279.773z M26.31,274.259
			c-0.149-1.378-0.285-2.76-0.41-4.145l17.928-1.605c0.114,1.274,0.24,2.546,0.377,3.814L26.31,274.259z M474.168,265.27
			l-17.959-1.215c0.086-1.271,0.161-2.548,0.224-3.824l17.979,0.881C474.343,262.501,474.262,263.889,474.168,265.27z
			 M25.212,259.729c-0.06-1.379-0.107-2.763-0.142-4.146l17.994-0.455c0.032,1.275,0.076,2.553,0.131,3.823L25.212,259.729z
			 M474.688,250.709l-18-0.062l0.004-0.803c0.001-1.018-0.01-2.025-0.021-3.032l17.998-0.267c0.017,1.101,0.024,2.203,0.023,3.307
			L474.688,250.709z M43.043,245.537l-17.996-0.368c0.028-1.39,0.069-2.776,0.123-4.16l17.986,0.693
			C43.107,242.978,43.069,244.256,43.043,245.537z M456.311,237.227c-0.074-1.277-0.162-2.552-0.266-3.823l17.945-1.413
			c0.105,1.382,0.204,2.768,0.287,4.157L456.311,237.227z M43.745,232.14l-17.936-1.521c0.117-1.385,0.248-2.767,0.39-4.146
			l17.905,1.849C43.973,229.591,43.854,230.864,43.745,232.14z M455.074,223.873c-0.159-1.271-0.329-2.538-0.511-3.801l17.813-2.562
			c0.197,1.372,0.383,2.747,0.556,4.126L455.074,223.873z M45.309,218.821l-17.8-2.679c0.207-1.375,0.426-2.746,0.657-4.112
			l17.748,3.004C45.701,216.293,45.5,217.556,45.309,218.821z M452.976,210.625c-0.237-1.254-0.489-2.504-0.756-3.751l17.611-3.723
			c0.287,1.359,0.562,2.722,0.824,4.091L452.976,210.625z M47.732,205.635l-17.587-3.832c0.295-1.357,0.604-2.71,0.923-4.06
			l17.515,4.151C48.289,203.137,48.005,204.384,47.732,205.635z M450.027,197.562c-0.324-1.241-0.658-2.478-1.004-3.71l17.332-4.857
			c0.37,1.332,0.731,2.669,1.086,4.012L450.027,197.562z M51.011,192.632l-17.302-4.966c0.384-1.337,0.78-2.669,1.188-3.997
			l17.204,5.293C51.727,190.181,51.363,191.404,51.011,192.632z M446.222,184.695c-0.399-1.214-0.813-2.423-1.237-3.626
			l16.979-5.979c0.461,1.309,0.91,2.623,1.348,3.943L446.222,184.695z M55.138,179.854L38.2,173.761
			c0.472-1.312,0.955-2.618,1.451-3.919l16.822,6.403C56.018,177.443,55.572,178.646,55.138,179.854z M441.591,172.118
			c-0.479-1.181-0.969-2.356-1.47-3.527l16.553-7.073c0.542,1.27,1.074,2.546,1.595,3.829L441.591,172.118z M60.096,167.362
			l-16.503-7.188c0.557-1.277,1.124-2.549,1.704-3.814l16.366,7.492C61.13,165.017,60.608,166.186,60.096,167.362z M436.156,159.888
			c-0.556-1.145-1.116-2.283-1.69-3.416l16.058-8.14c0.627,1.237,1.24,2.48,1.847,3.731L436.156,159.888z M65.858,155.224l-16-8.246
			c0.638-1.237,1.287-2.468,1.947-3.693l15.845,8.541C67.042,152.953,66.445,154.085,65.858,155.224z M429.943,148.04
			c-0.627-1.108-1.268-2.209-1.912-3.304l15.494-9.162c0.706,1.194,1.397,2.394,2.084,3.603L429.943,148.04z M72.396,143.493
			l-15.429-9.271c0.716-1.192,1.442-2.376,2.179-3.554l15.259,9.549C73.726,141.303,73.056,142.395,72.396,143.493z
			 M422.973,136.612c-0.695-1.066-1.404-2.126-2.126-3.179l14.869-10.146c0.781,1.146,1.553,2.299,2.312,3.459L422.973,136.612z
			 M79.679,132.214l-14.795-10.252c0.791-1.142,1.592-2.276,2.404-3.403l14.607,10.518
			C81.147,130.116,80.408,131.162,79.679,132.214z M415.27,125.65c-0.768-1.021-1.544-2.034-2.327-3.039l14.186-11.081
			c0.854,1.092,1.697,2.193,2.531,3.302L415.27,125.65z M87.675,121.432l-14.103-11.185c0.863-1.088,1.735-2.168,2.618-3.24
			l13.897,11.439C89.274,119.434,88.47,120.429,87.675,121.432z M406.873,115.204c-0.832-0.97-1.674-1.932-2.523-2.886
			l13.443-11.971c0.922,1.035,1.834,2.079,2.738,3.131L406.873,115.204z M96.349,111.19L82.994,99.121
			c0.932-1.031,1.873-2.053,2.823-3.066l13.127,12.316C98.07,109.303,97.205,110.243,96.349,111.19z M397.812,105.311
			c-0.893-0.913-1.79-1.817-2.698-2.712l12.639-12.816c0.99,0.976,1.971,1.962,2.942,2.957L397.812,105.311z M105.661,101.533
			L93.112,88.628c0.996-0.968,2-1.927,3.014-2.876l12.306,13.137C107.5,99.762,106.576,100.643,105.661,101.533z M388.138,96.025
			c-0.95-0.855-1.909-1.701-2.875-2.539l11.789-13.602c1.05,0.91,2.091,1.829,3.123,2.757L388.138,96.025z M115.571,92.499
			l-11.692-13.686c1.056-0.902,2.12-1.794,3.193-2.677l11.431,13.904C117.518,90.851,116.541,91.67,115.571,92.499z M377.876,87.375
			c-1.004-0.792-2.015-1.575-3.033-2.349l10.892-14.333c1.104,0.84,2.205,1.691,3.295,2.552L377.876,87.375z M126.039,84.126
			l-10.785-14.411c1.11-0.831,2.228-1.651,3.354-2.461l10.518,14.607C128.089,82.607,127.06,83.362,126.039,84.126z M367.075,79.404
			c-1.053-0.726-2.112-1.442-3.183-2.148l9.939-15.007c1.159,0.768,2.312,1.546,3.457,2.335L367.075,79.404z M137.02,76.449
			l-9.832-15.078c1.162-0.757,2.33-1.503,3.506-2.239l9.548,15.259C139.16,75.067,138.086,75.753,137.02,76.449z M355.782,72.15
			c-1.103-0.657-2.205-1.304-3.317-1.941l8.947-15.618c1.206,0.691,2.405,1.393,3.599,2.104L355.782,72.15z M148.467,69.501
			l-8.836-15.682c1.207-0.68,2.42-1.35,3.642-2.007l8.54,15.845C150.691,68.262,149.576,68.877,148.467,69.501z M344.032,65.637
			c-1.141-0.583-2.282-1.156-3.436-1.719l7.908-16.17c1.252,0.612,2.498,1.236,3.737,1.871L344.032,65.637z M160.331,63.315
			l-7.797-16.224c1.246-0.599,2.498-1.187,3.756-1.763l7.501,16.362C162.632,62.222,161.479,62.763,160.331,63.315z M331.883,59.904
			c-1.174-0.508-2.354-1.005-3.54-1.492l6.836-16.651c1.29,0.53,2.575,1.071,3.854,1.624L331.883,59.904z M172.567,57.915
			l-6.73-16.694c1.288-0.519,2.582-1.027,3.882-1.522l6.414,16.818C174.939,56.972,173.75,57.438,172.567,57.915z M319.379,54.975
			c-1.205-0.431-2.415-0.85-3.631-1.258l5.729-17.063c1.323,0.444,2.646,0.901,3.956,1.37L319.379,54.975z M185.157,53.312
			l-5.623-17.1c1.318-0.433,2.641-0.855,3.97-1.265l5.306,17.2C187.587,52.526,186.37,52.914,185.157,53.312z M306.599,50.88
			c-1.227-0.35-2.456-0.688-3.688-1.014l4.604-17.401c1.349,0.356,2.688,0.724,4.022,1.105L306.599,50.88z M198.023,49.541
			l-4.496-17.43c1.343-0.346,2.69-0.68,4.043-1.003l4.173,17.51C200.499,48.915,199.258,49.222,198.023,49.541z M293.596,47.633
			c-1.248-0.269-2.498-0.526-3.755-0.772l3.461-17.664c1.365,0.268,2.726,0.547,4.082,0.839L293.596,47.633z M211.104,46.619
			l-3.347-17.686c1.361-0.257,2.726-0.503,4.096-0.736l3.027,17.743C213.619,46.155,212.36,46.381,211.104,46.619z M280.396,45.239
			c-1.262-0.188-2.522-0.362-3.791-0.526l2.305-17.852c1.38,0.178,2.757,0.369,4.13,0.573L280.396,45.239z M224.354,44.553
			l-2.192-17.866c1.375-0.168,2.753-0.325,4.136-0.469l1.868,17.902C226.892,44.253,225.621,44.397,224.354,44.553z M267.078,43.707
			c-1.271-0.105-2.547-0.198-3.825-0.28l1.151-17.963c1.389,0.089,2.771,0.19,4.152,0.304L267.078,43.707z M237.712,43.348
			l-1.037-17.97c1.383-0.08,2.769-0.147,4.158-0.203l0.71,17.986C240.264,43.212,238.987,43.274,237.712,43.348z M253.678,43.034
			c-1.275-0.023-2.554-0.035-3.834-0.035v-18c1.393,0,2.779,0.013,4.164,0.038L253.678,43.034z"/>
	</g>
</g>
</svg>
