<?xml version="1.0" encoding="utf-8"?>
<!-- Generator: Adobe Illustrator 15.0.0, SVG Export Plug-In . SVG Version: 6.00 Build 0)  -->
<!DOCTYPE svg PUBLIC "-//W3C//DTD SVG 1.1//EN" "http://www.w3.org/Graphics/SVG/1.1/DTD/svg11.dtd">
<svg version="1.1" id="Layer_1" xmlns="http://www.w3.org/2000/svg" xmlns:xlink="http://www.w3.org/1999/xlink" x="0px" y="0px"
	 width="500px" height="500px" viewBox="0 0 500 500" enable-background="new 0 0 500 500" xml:space="preserve">
<g id="Layer_X">
	<g id="change2">
		<path fill="#83EDB2" d="M496.413,243.392c-1.646-62.512-26.564-119.224-66.407-161.795c-3.012-3.217-6.116-6.346-9.294-9.398
			C376.415,29.656,316.268,3.497,250,3.497c-65.653,0-125.299,25.677-169.475,67.522c-3.199,3.031-6.317,6.146-9.351,9.342
			C30.648,123.068,5.248,180.268,3.586,243.392c-0.058,2.196-0.09,4.398-0.09,6.608s0.032,4.413,0.09,6.607
			c1.675,63.649,27.491,121.283,68.613,164.104c3.052,3.178,6.182,6.281,9.399,9.292c44.066,41.244,103.282,66.5,168.402,66.5
			c65.734,0,125.446-25.742,169.64-67.68c3.195-3.033,6.312-6.148,9.345-9.353c40.437-42.688,65.771-99.822,67.433-162.865
			c0.059-2.193,0.091-4.396,0.091-6.606S496.472,245.587,496.413,243.392z"/>
	</g>
	<g id="change1">
		<path fill="#FFFFFF" d="M250,500c-66.778,0-129.559-26.005-176.777-73.224C26.004,379.559,0,316.777,0,250
			c0-66.778,26.004-129.559,73.223-176.777C120.441,26.004,183.222,0,250,0c66.777,0,129.558,26.004,176.776,73.223
			C473.995,120.441,500,183.222,500,250c0,66.777-26.005,129.559-73.224,176.776C379.557,473.994,316.777,500,250,500z M250,10
			C117.664,10,10,117.664,10,250c0,132.337,107.664,240,240,240c132.337,0,240-107.663,240-240C490,117.664,382.337,10,250,10z"/>
		<path fill="#FFFFFF" d="M441.438,245c-1.252-48.602-20.709-92.748-51.774-125.881l37.324-37.325l-7.07-7.071L382.637,112
			C349.316,79.962,304.463,59.836,255,58.562V6h-10v52.562c-49.002,1.262-93.479,21.027-126.701,52.545L80.501,73.309L73.43,80.38
			l37.793,37.793C79.637,151.409,59.826,195.938,58.562,245H4v10h54.562c1.274,49.463,21.4,94.316,53.438,127.637l-39.277,39.276
			l7.071,7.07l39.324-39.324c33.133,31.066,77.28,50.523,125.881,51.778V497h10v-55.562c49.063-1.264,93.592-21.07,126.827-52.662
			l38.793,38.797l7.07-7.07l-38.801-38.797c31.521-33.227,51.281-77.7,52.544-126.702H495v-10L441.438,245L441.438,245z
			 M255,431.433c-1.661,0.046-3.328,0.071-5,0.071s-3.338-0.022-5-0.071C147.222,428.773,68.497,348.41,68.497,250
			c0-98.409,78.725-178.773,176.503-181.432c1.662-0.045,3.328-0.072,5-0.072s3.339,0.026,5,0.072
			C352.779,71.227,431.504,151.591,431.504,250C431.504,348.41,352.779,428.773,255,431.433z"/>
	</g>
</g>
</svg>
