<?xml version="1.0" encoding="utf-8"?>
<!-- Generator: Adobe Illustrator 15.0.0, SVG Export Plug-In . SVG Version: 6.00 Build 0)  -->
<!DOCTYPE svg PUBLIC "-//W3C//DTD SVG 1.1//EN" "http://www.w3.org/Graphics/SVG/1.1/DTD/svg11.dtd">
<svg version="1.1" id="Layer_1" xmlns="http://www.w3.org/2000/svg" xmlns:xlink="http://www.w3.org/1999/xlink" x="0px" y="0px"
	 width="500px" height="500px" viewBox="0 0 500 500" enable-background="new 0 0 500 500" xml:space="preserve">
<g id="Layer_X">
	<g id="change2">
		<circle fill="#A681CC" cx="250" cy="250" r="245"/>
	</g>
	<g id="change1">
		<path fill="#FFFFFF" d="M250,500c-66.778,0-129.559-26.005-176.777-73.224C26.004,379.559,0,316.777,0,250
			c0-66.778,26.004-129.559,73.223-176.777C120.441,26.004,183.222,0,250,0c66.777,0,129.558,26.004,176.776,73.223
			C473.995,120.441,500,183.222,500,250c0,66.777-26.005,129.559-73.224,176.776C379.557,473.994,316.777,500,250,500z M250,10
			C117.664,10,10,117.664,10,250c0,132.337,107.664,240,240,240c132.337,0,240-107.663,240-240C490,117.664,382.337,10,250,10z"/>
		<path fill="#FFFFFF" d="M441.454,246C439.351,143.909,356.965,61.188,255,58.562V6h-10v52.562
			C143.036,61.188,60.65,143.909,58.546,246H4v10h54.6c3.131,101.17,85.103,182.83,186.4,185.438V497h10v-55.562
			C356.298,438.83,438.27,357.17,441.4,256H495v-10H441.454z M255,431.433c-1.661,0.046-3.328,0.071-5,0.071s-3.338-0.022-5-0.071
			C147.222,428.773,68.497,348.41,68.497,250c0-98.409,78.725-178.773,176.503-181.432c1.662-0.045,3.328-0.072,5-0.072
			s3.339,0.026,5,0.072C352.779,71.227,431.504,151.591,431.504,250C431.504,348.41,352.779,428.773,255,431.433z"/>
	</g>
</g>
</svg>
