<?xml version="1.0" encoding="utf-8"?>
<!-- Generator: Adobe Illustrator 15.0.0, SVG Export Plug-In . SVG Version: 6.00 Build 0)  -->
<!DOCTYPE svg PUBLIC "-//W3C//DTD SVG 1.1//EN" "http://www.w3.org/Graphics/SVG/1.1/DTD/svg11.dtd">
<svg version="1.1" id="Layer_1" xmlns="http://www.w3.org/2000/svg" xmlns:xlink="http://www.w3.org/1999/xlink" x="0px" y="0px"
	 width="500px" height="500px" viewBox="0 0 500 500" enable-background="new 0 0 500 500" xml:space="preserve">
<g id="Layer_X">
	<g id="change2">
		<circle fill="#EA5A42" cx="249.5" cy="250.5" r="244.5"/>
	</g>
	<g id="change1">
		<path fill="#FFFFFF" d="M250,420.505c-94.017,0-170.504-76.487-170.504-170.505c0-94.017,76.487-170.504,170.504-170.504
			c94.017,0,170.505,76.487,170.505,170.504C420.505,344.018,344.017,420.505,250,420.505z M250,89.496
			c-88.502,0-160.504,72.002-160.504,160.504c0,88.503,72.002,160.505,160.504,160.505c88.503,0,160.505-72.002,160.505-160.505
			C410.505,161.498,338.503,89.496,250,89.496z"/>
		<path fill="#FFFFFF" d="M250,500c-66.777,0-129.558-26.005-176.777-73.224C26.004,379.559,0,316.777,0,250
			c0-66.777,26.004-129.558,73.223-176.777C120.442,26.004,183.223,0,250,0c66.777,0,129.558,26.004,176.776,73.223
			C473.995,120.442,500,183.223,500,250c0,66.777-26.005,129.559-73.224,176.776C379.557,473.994,316.777,500,250,500z M250,10
			C117.664,10,10,117.664,10,250c0,132.337,107.664,240,240,240c132.337,0,240-107.663,240-240C490,117.664,382.337,10,250,10z"/>
		<path fill="#FFFFFF" d="M458.223,282.107c1.362-8.867,2.165-17.916,2.38-27.107H494v-10h-33.397
			c-0.21-8.96-0.98-17.782-2.28-26.435c-0.497-3.309-1.076-6.592-1.729-9.85c-1.812-9.1-4.213-17.992-7.163-26.631l28.293-10.391
			l-3.444-9.387l-28.303,10.393c-3.231-8.172-6.972-16.091-11.16-23.728c-1.606-2.926-3.278-5.811-5.02-8.651
			c-4.688-7.659-9.859-14.991-15.459-21.966l23.138-19.534l-6.448-7.641l-23.128,19.526c-5.896-6.672-12.199-12.969-18.885-18.85
			c-2.502-2.202-5.056-4.345-7.659-6.428c-6.985-5.588-14.327-10.75-21.997-15.426l15.479-27.015l-8.676-4.973L350.695,65
			c-7.817-4.272-15.938-8.06-24.312-11.329c-3.098-1.21-6.229-2.351-9.396-3.416c-8.264-2.777-16.749-5.053-25.429-6.796
			l5.695-32.256l-9.848-1.739l-5.697,32.255c-10.348-1.568-20.938-2.386-31.712-2.386c-10.777,0-21.366,0.817-31.712,2.386
			L212.59,9.464l-9.848,1.739l5.697,32.256c-8.679,1.744-17.167,4.019-25.427,6.796c-3.167,1.065-6.3,2.206-9.399,3.416
			c-8.375,3.27-16.493,7.057-24.31,11.329l-15.466-26.987l-8.676,4.973l15.482,27.015c-7.67,4.677-15.012,9.838-21.999,15.427
			c-2.604,2.083-5.159,4.226-7.661,6.428c-6.683,5.881-12.989,12.178-18.881,18.85L68.976,91.18l-6.451,7.641l23.138,19.534
			c-5.599,6.975-10.77,14.307-15.459,21.966c-1.739,2.84-3.411,5.725-5.017,8.651c-4.191,7.637-7.928,15.556-11.163,23.729
			l-28.3-10.394l-3.447,9.387l28.293,10.391c-2.95,8.64-5.348,17.532-7.163,26.632c-0.65,3.257-1.229,6.541-1.726,9.85
			c-1.3,8.653-2.073,17.475-2.283,26.435H8v10h31.397c0.215,9.191,1.018,18.24,2.379,27.107c0.508,3.308,1.098,6.589,1.758,9.844
			c1.843,9.084,4.276,17.954,7.25,26.574l-28.509,10.471l3.447,9.387l28.545-10.482c3.254,8.146,7.005,16.039,11.21,23.649
			c1.614,2.923,3.295,5.802,5.042,8.638c4.699,7.625,9.872,14.929,15.473,21.869l-23.469,19.812l6.451,7.641l23.478-19.82
			c5.89,6.638,12.188,12.899,18.862,18.751c2.506,2.194,5.065,4.334,7.675,6.409c6.973,5.556,14.297,10.685,21.946,15.329
			l-15.774,27.524l8.676,4.973l15.766-27.509c7.792,4.242,15.885,7.998,24.23,11.245c3.1,1.206,6.234,2.343,9.403,3.404
			c8.228,2.757,16.68,5.016,25.322,6.746l-5.815,32.923l9.848,1.737l5.816-32.929c8.703,1.314,17.579,2.095,26.593,2.306
			c1.663,0.039,3.328,0.063,5,0.063s3.338-0.024,5-0.063c9.016-0.211,17.891-0.988,26.593-2.306l5.816,32.929l9.848-1.737
			l-5.815-32.923c8.646-1.73,17.098-3.989,25.322-6.746c3.169-1.062,6.306-2.198,9.402-3.404c8.345-3.247,16.438-7.003,24.23-11.245
			l15.766,27.509l8.676-4.973l-15.771-27.524c7.646-4.646,14.974-9.773,21.943-15.329c2.609-2.074,5.168-4.215,7.675-6.409
			c6.677-5.852,12.975-12.113,18.862-18.751l23.479,19.82l6.448-7.641l-23.469-19.812c5.604-6.94,10.774-14.244,15.477-21.869
			c1.743-2.836,3.427-5.715,5.04-8.637c4.203-7.611,7.954-15.506,11.211-23.65l28.545,10.482l3.444-9.387l-28.509-10.471
			c2.977-8.621,5.407-17.49,7.25-26.574C457.126,288.695,457.715,285.415,458.223,282.107z M439.827,315.078l-32.98-12.112
			c-1.066,3.169-2.239,6.29-3.495,9.369l32.987,12.115c-3.05,7.604-6.553,14.981-10.475,22.097l-30.392-17.562
			c-1.597,2.937-3.286,5.811-5.053,8.633l30.396,17.564c-4.397,7.114-9.229,13.937-14.452,20.424l-26.808-22.629
			c-2.074,2.61-4.229,5.156-6.458,7.635l26.806,22.629c-5.516,6.193-11.399,12.049-17.63,17.521l-22.479-26.936
			c-2.492,2.212-5.045,4.356-7.669,6.418l22.475,26.932c-6.521,5.186-13.367,9.977-20.514,14.326l-17.459-30.464
			c-2.835,1.745-5.727,3.404-8.671,4.979l17.462,30.473c-7.293,3.959-14.86,7.474-22.661,10.519l-11.957-33.031
			c-3.091,1.225-6.23,2.346-9.408,3.384l11.965,33.051c-7.691,2.563-15.586,4.68-23.656,6.306l-6.115-34.622
			c-3.25,0.67-6.537,1.235-9.854,1.712l6.119,34.643c-8.14,1.219-16.434,1.951-24.854,2.157v-35.181
			c-1.661,0.05-3.327,0.082-5,0.082c-1.673,0-3.339-0.032-5-0.082v35.181c-8.422-0.206-16.715-0.938-24.853-2.157l6.119-34.643
			c-3.316-0.477-6.603-1.042-9.853-1.712l-6.116,34.622c-8.07-1.626-15.965-3.739-23.655-6.306l11.964-33.051
			c-3.179-1.038-6.32-2.159-9.412-3.384l-11.957,33.031c-7.8-3.045-15.368-6.56-22.661-10.519l17.462-30.473
			c-2.944-1.573-5.836-3.234-8.67-4.979L145.908,421.5c-7.145-4.354-13.991-9.145-20.515-14.326l22.475-26.932
			c-2.624-2.061-5.176-4.206-7.669-6.418l-22.478,26.936c-6.23-5.474-12.117-11.326-17.629-17.521l26.802-22.628
			c-2.228-2.479-4.381-5.022-6.458-7.635l-26.804,22.629c-5.225-6.488-10.055-13.311-14.452-20.424l30.396-17.565
			c-1.765-2.822-3.456-5.696-5.052-8.632l-30.389,17.562c-3.921-7.114-7.424-14.489-10.474-22.097l32.987-12.115
			c-1.253-3.079-2.425-6.2-3.495-9.369l-32.981,12.112c-2.775-8.072-5.055-16.374-6.79-24.871l34.631-6.138
			c-0.68-3.246-1.262-6.529-1.748-9.846l-34.637,6.137c-1.265-8.299-2.02-16.764-2.231-25.36h35.18
			c-0.049-1.661-0.082-3.327-0.082-5s0.032-3.339,0.082-5h-35.18c0.206-8.366,0.932-16.604,2.136-24.688l34.638,6.137
			c0.472-3.316,1.032-6.605,1.698-9.855l-34.614-6.133c1.708-8.514,3.951-16.838,6.703-24.929l32.996,12.118
			c1.057-3.173,2.209-6.301,3.45-9.385L63.416,176.15c3.032-7.632,6.519-15.034,10.428-22.175l30.399,17.568
			c1.585-2.939,3.262-5.821,5.017-8.65l-30.396-17.566c4.389-7.149,9.216-14,14.438-20.522l26.804,22.629
			c2.069-2.616,4.219-5.165,6.439-7.65l-26.802-22.627c5.515-6.231,11.409-12.117,17.649-17.622l22.478,26.935
			c2.487-2.219,5.036-4.368,7.654-6.436l-22.473-26.93c6.538-5.217,13.403-10.041,20.568-14.422l17.458,30.463
			c2.831-1.75,5.717-3.421,8.658-5.003l-17.46-30.466c7.318-3.989,14.912-7.531,22.743-10.6l11.959,33.038
			c3.089-1.226,6.228-2.355,9.405-3.397l-11.964-33.052c7.724-2.587,15.654-4.717,23.761-6.355l6.116,34.625
			c3.249-0.672,6.535-1.242,9.851-1.721l-6.119-34.64c8.175-1.23,16.508-1.968,24.971-2.176v35.18c1.661-0.049,3.327-0.082,5-0.082
			s3.339,0.032,5,0.082v-35.18c8.463,0.208,16.797,0.946,24.971,2.176l-6.117,34.64c3.314,0.479,6.604,1.048,9.854,1.721
			l6.113-34.625c8.106,1.639,16.037,3.769,23.764,6.355l-11.964,33.052c3.178,1.042,6.312,2.171,9.404,3.397l11.96-33.038
			c7.827,3.068,15.425,6.611,22.74,10.6l-17.461,30.466c2.941,1.582,5.827,3.252,8.658,5.003l17.459-30.463
			c7.165,4.381,14.03,9.205,20.568,14.422l-22.477,26.93c2.618,2.067,5.167,4.217,7.654,6.436l22.478-26.936
			c6.24,5.505,12.137,11.392,17.649,17.622l-26.803,22.628c2.221,2.485,4.371,5.034,6.438,7.65l26.808-22.629
			c5.222,6.522,10.049,13.373,14.438,20.522l-30.396,17.566c1.755,2.829,3.432,5.711,5.017,8.65l30.399-17.568
			c3.905,7.141,7.396,14.543,10.428,22.175l-32.987,12.115c1.24,3.084,2.396,6.213,3.45,9.386l32.996-12.118
			c2.752,8.091,4.994,16.414,6.702,24.928l-34.614,6.133c0.666,3.25,1.226,6.539,1.698,9.855l34.637-6.137
			c1.204,8.084,1.931,16.323,2.137,24.688h-35.18c0.05,1.661,0.082,3.327,0.082,5s-0.032,3.339-0.082,5h35.18
			c-0.211,8.598-0.966,17.062-2.229,25.361l-34.64-6.137c-0.483,3.312-1.066,6.599-1.746,9.846l34.631,6.137
			C444.882,298.704,442.603,307.006,439.827,315.078z"/>
	</g>
</g>
</svg>
