<?xml version="1.0" encoding="utf-8"?>
<!-- Generator: Adobe Illustrator 15.0.0, SVG Export Plug-In . SVG Version: 6.00 Build 0)  -->
<!DOCTYPE svg PUBLIC "-//W3C//DTD SVG 1.1//EN" "http://www.w3.org/Graphics/SVG/1.1/DTD/svg11.dtd">
<svg version="1.1" id="Layer_1" xmlns="http://www.w3.org/2000/svg" xmlns:xlink="http://www.w3.org/1999/xlink" x="0px" y="0px"
	 width="499.989px" height="500px" viewBox="0 0 499.989 500" enable-background="new 0 0 499.989 500" xml:space="preserve">
<g id="Layer_X">
	<g id="change1">
		<circle fill="#FFB531" cx="250" cy="250" r="197.003"/>
		<path fill="#FFB531" d="M244.824,488c-0.029,0-0.058,0-0.087,0l0.086-3.08l-0.12,3.22c-1.743-0.024-3.157-1.434-3.143-3.177
			c0.015-1.744,1.412-3.138,3.155-3.138l0.194,0.009c1.753,0.047,3.135,1.416,3.088,3.168C247.95,486.727,246.538,488,244.824,488z
			 M262.083,487.949c-1.673,0-3.073-1.312-3.167-2.999c-0.098-1.75,1.243-3.249,2.994-3.347l0.111-0.009
			c1.742-0.104,3.248,1.247,3.342,2.999c0.095,1.751-1.247,3.247-3,3.346l-0.104,0.005
			C262.202,487.948,262.143,487.949,262.083,487.949z M227.488,487.169c-0.087,0-0.175-0.003-0.263-0.011
			c-0.014-0.001-0.08-0.007-0.094-0.008c-1.736-0.166-3.042-1.705-2.888-3.443c0.154-1.738,1.649-3.031,3.392-2.888
			c0.015,0.002,0.085,0.008,0.101,0.01c1.737,0.166,3.041,1.705,2.886,3.443C230.475,485.923,229.114,487.169,227.488,487.169z
			 M279.382,486.439c-1.597,0-2.972-1.201-3.151-2.825c-0.19-1.743,1.062-3.312,2.809-3.506c1.738-0.235,3.354,0.979,3.588,2.719
			c0.232,1.737-0.967,3.334-2.705,3.565l-0.186,0.022C279.617,486.433,279.499,486.439,279.382,486.439z M210.273,484.89
			c-0.171,0-0.344-0.014-0.519-0.043l-0.197-0.031c-1.721-0.335-2.845-2.005-2.511-3.727s2.004-2.846,3.723-2.51
			c1.73,0.284,2.91,1.918,2.626,3.646C213.139,483.784,211.799,484.89,210.273,484.89z M296.561,483.644
			c-1.47,0-2.799-1.019-3.119-2.508c-0.36-1.705,0.695-3.381,2.397-3.76l0.188-0.038c1.722-0.339,3.388,0.788,3.723,2.51
			c0.335,1.726-0.789,3.393-2.51,3.727l-0.606-3.116l0.572,3.123C296.989,483.622,296.773,483.644,296.561,483.644z
			 M193.263,481.344c-0.251,0-0.507-0.026-0.764-0.095l-0.115-0.028c-1.7-0.432-2.729-2.158-2.297-3.854
			c0.431-1.699,2.161-2.729,3.858-2.298c1.701,0.426,2.783,2.157,2.357,3.858C195.941,480.372,194.678,481.344,193.263,481.344z
			 M313.412,479.597c-1.391,0-2.667-0.921-3.062-2.325c-0.469-1.688,0.521-3.438,2.214-3.906c1.688-0.479,3.479,0.48,3.966,2.17
			c0.479,1.686-0.454,3.432-2.145,3.913l-0.126,0.036C313.979,479.559,313.693,479.597,313.412,479.597z M176.575,476.548
			c-0.314,0-0.633-0.048-0.95-0.146l-0.18-0.062c-1.659-0.565-2.542-2.375-1.974-4.033c0.569-1.655,2.373-2.535,4.033-1.975
			c1.673,0.526,2.615,2.312,2.089,3.985C179.167,475.677,177.922,476.548,176.575,476.548z M329.936,474.304
			c-1.285,0-2.501-0.791-2.977-2.066c-0.61-1.646,0.229-3.476,1.871-4.082l0.148-0.058c1.652-0.58,3.47,0.283,4.052,1.938
			c0.584,1.653-0.284,3.467-1.938,4.051l-0.052,0.021C330.677,474.239,330.303,474.304,329.936,474.304z M160.287,470.521
			c-0.403,0-0.812-0.077-1.208-0.24l-0.085-0.034c-1.625-0.66-2.408-2.512-1.748-4.136c0.66-1.626,2.513-2.405,4.136-1.749
			l0.115,0.048c1.621,0.667,2.395,2.521,1.727,4.145C162.719,469.78,161.535,470.521,160.287,470.521z M346.024,467.796
			c-1.224,0-2.387-0.707-2.907-1.895c-0.707-1.604,0.02-3.479,1.624-4.188c1.598-0.727,3.511-0.034,4.232,1.562
			c0.729,1.596,0.057,3.464-1.544,4.188l-0.13,0.062C346.888,467.709,346.452,467.796,346.024,467.796z M144.475,463.294
			c-0.49,0-0.986-0.113-1.452-0.354l1.454-2.822l-1.488,2.805c-1.562-0.78-2.214-2.683-1.442-4.249
			c0.771-1.562,2.649-2.221,4.219-1.462l0.166,0.084c1.559,0.803,2.171,2.718,1.369,4.276
			C146.737,462.666,145.626,463.294,144.475,463.294z M361.591,460.113c-1.125,0-2.214-0.603-2.79-1.655
			c-0.84-1.54-0.271-3.468,1.271-4.308l0.126-0.067c1.549-0.822,3.471-0.234,4.293,1.314c0.819,1.548,0.23,3.471-1.314,4.293
			l-0.062,0.03C362.626,459.988,362.104,460.113,361.591,460.113z M129.247,454.913c-0.559,0-1.124-0.147-1.637-0.457l-0.074-0.044
			c-1.508-0.896-2.004-2.844-1.109-4.354c0.895-1.508,2.844-2.004,4.351-1.105l0.111,0.063c1.502,0.905,1.985,2.857,1.079,4.358
			C131.373,454.365,130.323,454.913,129.247,454.913z M376.549,451.3c-1.064,0-2.107-0.539-2.71-1.517
			c-0.916-1.495-0.447-3.45,1.048-4.366c1.479-0.951,3.454-0.535,4.403,0.938c0.951,1.474,0.541,3.43-0.932,4.38l-0.153,0.097
			C377.688,451.148,377.114,451.3,376.549,451.3z M114.66,445.422c-0.619,0-1.244-0.184-1.793-0.563l-0.125-0.093
			c-1.422-1.022-1.744-3.011-0.718-4.433s3.011-1.742,4.433-0.718c1.437,1.006,1.812,3.004,0.806,4.438
			C116.642,444.942,115.659,445.422,114.66,445.422z M390.822,441.407c-0.979,0-1.941-0.449-2.563-1.297
			c-1.037-1.414-0.729-3.401,0.687-4.438c1.396-1.058,3.406-0.803,4.471,0.594c1.061,1.397,0.81,3.372-0.588,4.436l-0.127,0.096
			C392.131,441.208,391.474,441.407,390.822,441.407z M100.846,434.892c-0.692,0-1.389-0.228-1.973-0.695l-0.134-0.11
			c-1.341-1.13-1.513-3.133-0.384-4.474c1.129-1.347,3.133-1.517,4.474-0.388c1.365,1.104,1.594,3.113,0.493,4.479
			C102.691,434.483,101.772,434.892,100.846,434.892z M404.344,430.461c-0.87,0-1.731-0.35-2.354-1.043
			c-1.159-1.29-1.09-3.252,0.183-4.431l0.172-0.152c1.333-1.141,3.336-0.985,4.479,0.345c1.141,1.331,0.982,3.336-0.349,4.479
			l-2.062-2.411l2.048,2.427C405.85,430.2,405.095,430.461,404.344,430.461z M87.821,423.367c-0.767,0-1.533-0.281-2.14-0.854
			l-0.102-0.097c-1.263-1.217-1.301-3.227-0.085-4.489c1.215-1.265,3.226-1.302,4.489-0.085c1.276,1.203,1.361,3.238,0.158,4.519
			C89.511,423.025,88.666,423.367,87.821,423.367z M417,418.608c-0.794,0-1.588-0.296-2.203-0.894
			c-1.261-1.217-1.3-3.222-0.085-4.479l0.118-0.12c1.24-1.24,3.25-1.24,4.49,0c1.236,1.24,1.236,3.25,0,4.49l-0.034,0.03
			C418.662,418.284,417.832,418.608,417,418.608z M75.692,410.922c-0.847,0-1.688-0.342-2.307-1.021l-0.089-0.104
			c-1.168-1.308-1.055-3.312,0.253-4.479c1.308-1.168,3.315-1.061,4.483,0.254c1.179,1.298,1.109,3.337-0.19,4.515
			C77.226,410.644,76.457,410.922,75.692,410.922z M428.767,405.832c-0.729,0-1.467-0.251-2.062-0.764
			c-1.331-1.146-1.485-3.146-0.345-4.479l0.066-0.082c1.145-1.332,3.146-1.48,4.479-0.345c1.331,1.142,1.481,3.146,0.344,4.478
			l-0.069,0.082C430.551,405.456,429.661,405.832,428.767,405.832z M64.562,397.645c-0.948,0-1.885-0.422-2.511-1.229l-0.045-0.059
			c-1.089-1.375-0.859-3.371,0.515-4.461c1.373-1.088,3.371-0.86,4.461,0.516l0.087,0.111c1.075,1.386,0.823,3.379-0.562,4.451
			C65.927,397.428,65.241,397.645,64.562,397.645z M439.564,392.221c-0.646,0-1.301-0.195-1.859-0.604
			c-1.42-1.028-1.737-3.016-0.709-4.436l0.074-0.104c1.037-1.412,3.021-1.724,4.438-0.685c1.414,1.037,1.72,3.022,0.687,4.438
			l-0.057,0.069C441.518,391.766,440.548,392.221,439.564,392.221z M54.394,383.568c-1.03,0-2.041-0.502-2.651-1.426l-0.033-0.053
			c-0.989-1.443-0.618-3.423,0.83-4.408c1.449-0.99,3.423-0.617,4.413,0.827l0.087,0.132c0.967,1.463,0.565,3.433-0.897,4.396
			C55.603,383.396,54.995,383.568,54.394,383.568z M449.326,377.814c-0.562,0-1.129-0.148-1.644-0.463
			c-1.479-0.906-1.971-2.812-1.085-4.305l0.12-0.189c0.951-1.476,2.915-1.896,4.394-0.945c1.473,0.949,1.896,2.916,0.942,4.39
			l-2.668-1.722l2.654,1.742C451.438,377.281,450.391,377.814,449.326,377.814z M45.29,368.782c-1.11,0-2.188-0.583-2.77-1.619
			l-0.035-0.062c-0.878-1.521-0.359-3.461,1.159-4.338c1.519-0.881,3.46-0.357,4.338,1.156l0.072,0.126
			c0.86,1.528,0.318,3.468-1.21,4.324C46.351,368.65,45.816,368.782,45.29,368.782z M458.008,362.788
			c-0.523,0-1.062-0.132-1.554-0.408c-1.528-0.86-2.07-2.796-1.211-4.323c0.803-1.559,2.714-2.17,4.271-1.365
			c1.562,0.807,2.174,2.725,1.366,4.279l-0.104,0.198C460.195,362.205,459.117,362.788,458.008,362.788z M37.302,353.37
			c-1.192,0-2.335-0.675-2.876-1.826l-0.044-0.096c-0.747-1.587-0.066-3.478,1.521-4.226c1.588-0.744,3.478-0.064,4.225,1.521
			l0.047,0.1c0.745,1.589,0.063,3.479-1.524,4.226C38.214,353.273,37.754,353.37,37.302,353.37z M465.543,347.105
			c-0.406,0-0.819-0.078-1.217-0.246c-1.609-0.674-2.379-2.506-1.714-4.121l0.069-0.172c0.708-1.604,2.579-2.332,4.188-1.623
			c1.604,0.707,2.331,2.582,1.624,4.187l-2.905-1.28l2.894,1.315C467.964,346.373,466.782,347.105,465.543,347.105z M30.479,337.413
			c-1.278,0-2.482-0.777-2.966-2.042l-0.035-0.092c-0.631-1.637,0.184-3.475,1.82-4.104c1.634-0.635,3.474,0.183,4.105,1.819
			l0.042,0.109c0.626,1.638-0.194,3.474-1.832,4.1C31.239,337.346,30.856,337.413,30.479,337.413z M471.9,330.938
			c-0.368,0-0.741-0.062-1.105-0.199c-1.644-0.606-2.479-2.438-1.871-4.078c0.569-1.658,2.376-2.561,4.038-1.987
			c1.658,0.565,2.547,2.361,1.979,4.021l-0.062,0.181C474.401,330.146,473.189,330.938,471.9,330.938z M24.859,320.997
			c-1.366,0-2.627-0.888-3.04-2.265l-0.027-0.088c-0.512-1.68,0.432-3.451,2.109-3.963c1.678-0.518,3.452,0.432,3.964,2.104
			l0.036,0.116c0.504,1.683-0.449,3.449-2.129,3.953C25.469,320.954,25.161,320.997,24.859,320.997z M477.025,314.335
			c-0.268,0-0.531-0.033-0.802-0.103c-1.69-0.44-2.714-2.162-2.274-3.856l0.044-0.163c0.47-1.689,2.219-2.675,3.909-2.21
			c1.688,0.47,2.679,2.22,2.21,3.909l-3.062-0.85l3.046,0.896C479.725,313.386,478.435,314.335,477.025,314.335z M20.472,304.193
			c-1.456,0-2.768-1.008-3.097-2.487l-0.023-0.104c-0.38-1.713,0.699-3.408,2.411-3.789c1.713-0.383,3.408,0.698,3.789,2.412
			l0.023,0.104c0.38,1.712-0.699,3.407-2.411,3.788C20.932,304.169,20.7,304.193,20.472,304.193z M480.905,297.415
			c-0.196,0-0.396-0.019-0.598-0.056c-1.724-0.326-2.854-1.987-2.526-3.711l0.021-0.123c0.334-1.721,2-2.848,3.727-2.51
			c1.721,0.334,2.845,2.002,2.51,3.724l-0.017,0.09C483.732,296.354,482.4,297.415,480.905,297.415z M17.334,287.084
			c-1.538,0-2.883-1.104-3.123-2.671l-0.023-0.161c-0.235-1.736,0.983-3.336,2.721-3.57c1.736-0.23,3.337,0.982,3.572,2.721
			c0.265,1.734-0.922,3.383-2.655,3.646C17.661,287.07,17.497,287.084,17.334,287.084z M483.52,280.247
			c-0.146,0-0.292-0.011-0.438-0.031c-1.737-0.241-2.949-1.845-2.708-3.581c0.188-1.742,1.76-3.012,3.498-2.82
			c1.743,0.188,3.004,1.748,2.812,3.49l-0.021,0.203C486.439,279.098,485.079,280.247,483.52,280.247z M15.498,269.842
			c-1.656,0-3.051-1.283-3.165-2.961l-0.007-0.102c-0.122-1.749,1.198-3.266,2.948-3.387c1.736-0.144,3.266,1.193,3.387,2.943
			l0.008,0.113c0.118,1.749-1.205,3.264-2.954,3.382C15.643,269.84,15.57,269.842,15.498,269.842z M484.867,262.914
			c-0.037,0-0.075-0.001-0.113-0.002c-1.742-0.062-3.11-1.499-3.062-3.242l0.008-0.189c0.003-0.056,0.008-0.106,0.014-0.162
			c-0.002-0.086-0.001-0.172,0.004-0.258c0.047-1.752,1.484-3.15,3.26-3.098c1.757,0.047,3.14,1.498,3.092,3.251l-0.012,0.197
			c-0.003,0.053-0.007,0.194-0.013,0.247c0.002,0.084,0.001,0.342-0.003,0.342h-0.033c-0.002,0-0.004-0.066-0.007-0.057l0.038-0.041
			C487.966,261.605,486.561,262.914,484.867,262.914z M15.052,252.449c-1.754,0-3.052-1.389-3.052-3.143v-0.151
			c0-1.754,1.36-3.146,3.095-3.131c1.753,0.024,3.155,1.465,3.131,3.218C18.227,250.996,16.805,252.449,15.052,252.449z
			 M484.934,245.019c-1.676,0-3.069-1.293-3.164-2.984l-0.008-0.192c-0.048-1.753,1.334-3.213,3.087-3.261
			c1.751-0.07,3.214,1.333,3.265,3.087l-3.178,0.087l3.179-0.053c0.062,1.742-1.283,3.232-3.025,3.312
			C485.034,245.018,484.984,245.019,484.934,245.019z M15.625,235.126c-0.087,0-0.175-0.003-0.264-0.011
			c-1.748-0.144-3.048-1.677-2.904-3.425l0.005-0.061c0.118-1.75,1.638-3.066,3.382-2.954c1.75,0.118,3.072,1.632,2.954,3.382
			l-0.012,0.154C18.649,233.87,17.261,235.126,15.625,235.126z M483.716,227.716c-1.601,0-2.977-1.207-3.148-2.834l-0.016-0.103
			c-0.188-1.743,1.067-3.311,2.812-3.502c1.742-0.188,3.311,1.067,3.502,2.811l0.012,0.112c0.188,1.743-1.071,3.31-2.812,3.498
			C483.945,227.71,483.83,227.716,483.716,227.716z M17.58,217.87c-0.157,0-0.317-0.012-0.477-0.036
			c-1.734-0.261-2.928-1.879-2.667-3.613l0.016-0.107c0.261-1.734,1.881-2.925,3.613-2.667c1.734,0.261,2.928,1.879,2.667,3.613
			l-0.016,0.107C20.479,216.742,19.125,217.87,17.58,217.87z M481.217,210.531c-1.521,0-2.869-1.1-3.128-2.653
			c-0.33-1.722,0.795-3.401,2.521-3.731c1.714-0.33,3.383,0.783,3.713,2.505l0.033,0.183c0.284,1.729-0.884,3.366-2.61,3.654
			C481.566,210.517,481.391,210.531,481.217,210.531z M20.793,200.771c-0.224,0-0.451-0.024-0.678-0.075
			c-1.711-0.38-2.798-2.044-2.418-3.756l0.034-0.146c0.403-1.707,2.115-2.765,3.819-2.36c1.707,0.403,2.764,2.113,2.36,3.819
			C23.581,199.739,22.255,200.771,20.793,200.771z M477.442,193.566c-1.392,0-2.658-0.912-3.052-2.314l-0.046-0.174
			c-0.431-1.7,0.602-3.427,2.302-3.858c1.699-0.432,3.427,0.598,3.854,2.297l-3.077,0.78l3.088-0.742
			c0.451,1.688-0.543,3.437-2.229,3.896C478.004,193.529,477.721,193.566,477.442,193.566z M25.273,184.025
			c-0.315,0-0.636-0.047-0.953-0.147c-1.673-0.525-2.603-2.308-2.077-3.981l0.016-0.051c0.498-1.682,2.266-2.642,3.945-2.144
			c1.682,0.497,2.642,2.263,2.144,3.945l-0.047,0.155C27.875,183.158,26.623,184.025,25.273,184.025z M472.436,176.951
			c-1.312,0-2.543-0.822-2.995-2.133l-0.039-0.115c-0.569-1.659,0.312-3.464,1.974-4.033c1.66-0.567,3.465,0.316,4.032,1.974
			l0.027,0.089c0.576,1.656-0.3,3.466-1.952,4.042C473.134,176.894,472.781,176.951,472.436,176.951z M30.982,167.624
			c-0.385,0-0.776-0.07-1.156-0.219c-1.633-0.639-2.438-2.48-1.799-4.113l0.04-0.101c0.639-1.632,2.479-2.439,4.114-1.8
			c1.633,0.639,2.438,2.48,1.799,4.113l-0.04,0.101C33.449,166.857,32.251,167.624,30.982,167.624z M466.193,160.752
			c-1.222,0-2.377-0.703-2.9-1.889l-0.066-0.156c-0.676-1.618,0.092-3.478,1.705-4.154c1.618-0.675,3.479,0.087,4.154,1.706
			l-2.93,1.224l2.943-1.182c0.699,1.605-0.025,3.479-1.633,4.183C467.055,160.666,466.62,160.752,466.193,160.752z M37.896,151.628
			c-0.451,0-0.907-0.097-1.339-0.303c-1.582-0.756-2.271-2.611-1.516-4.193l0.055-0.115c0.765-1.577,2.665-2.237,4.242-1.472
			c1.577,0.765,2.237,2.664,1.472,4.242C40.261,150.938,39.098,151.628,37.896,151.628z M458.783,145.065
			c-1.151,0-2.262-0.628-2.825-1.722c-0.813-1.554-0.232-3.511,1.321-4.324c1.555-0.814,3.453-0.25,4.265,1.303l0.059,0.113
			c0.808,1.559,0.19,3.474-1.364,4.277C459.77,144.952,459.272,145.065,458.783,145.065z M45.992,136.29
			c-0.539,0-1.086-0.138-1.586-0.427c-1.518-0.877-2.038-2.819-1.16-4.337l0.035-0.062c0.859-1.529,2.796-2.07,4.324-1.21
			c1.528,0.859,2.07,2.795,1.21,4.324l-0.072,0.126C48.155,135.721,47.088,136.29,45.992,136.29z M450.194,129.948
			c-1.033,0-2.04-0.505-2.646-1.44l-0.104-0.173c-0.905-1.501-0.427-3.453,1.079-4.358c1.501-0.906,3.448-0.422,4.354,1.079
			l-2.719,1.64l2.73-1.614c0.913,1.482,0.479,3.443-0.993,4.372C451.368,129.787,450.777,129.948,450.194,129.948z M55.196,121.509
			c-0.604,0-1.212-0.171-1.748-0.531c-1.455-0.978-1.862-2.921-0.884-4.376l0.081-0.119c0.995-1.443,2.972-1.808,4.416-0.814
			c1.444,0.995,1.809,2.972,0.814,4.416C57.257,121.004,56.233,121.509,55.196,121.509z M440.57,115.527
			c-0.992,0-1.974-0.464-2.59-1.334c-1.037-1.414-0.75-3.427,0.66-4.463c1.416-1.037,3.387-0.756,4.424,0.657l0.09,0.124
			c1.017,1.429,0.683,3.411-0.746,4.428C441.851,115.336,441.207,115.527,440.57,115.527z M65.464,107.529
			c-0.691,0-1.387-0.225-1.971-0.688c-1.374-1.09-1.604-3.087-0.515-4.461l0.046-0.058c1.073-1.386,3.067-1.638,4.455-0.562
			c1.385,1.075,1.637,3.069,0.562,4.455l-0.087,0.112C67.327,107.117,66.4,107.529,65.464,107.529z M429.88,101.839
			c-0.927,0-1.846-0.404-2.473-1.181c-1.146-1.332-0.992-3.341,0.34-4.482c1.332-1.141,3.332-0.991,4.473,0.339l0.129,0.155
			c1.104,1.365,0.892,3.364-0.477,4.465C431.285,101.609,430.58,101.839,429.88,101.839z M76.735,94.305
			c-0.771,0-1.545-0.279-2.156-0.845c-1.287-1.191-1.364-3.2-0.172-4.487l0.054-0.058c1.18-1.297,3.188-1.392,4.485-0.213
			c1.297,1.179,1.393,3.188,0.213,4.485l-0.093,0.101C78.44,93.963,77.588,94.305,76.735,94.305z M418.212,88.97
			c-0.833,0-1.665-0.326-2.289-0.974c-1.228-1.251-1.231-3.289,0.021-4.517c1.251-1.228,3.23-1.237,4.464,0.016l0.098,0.1
			c1.215,1.264,1.176,3.274-0.089,4.489C419.797,88.676,419.004,88.97,418.212,88.97z M88.946,81.947
			c-0.854,0-1.705-0.342-2.331-1.018c-1.191-1.287-1.114-3.295,0.172-4.487l2.157,2.33l-2.123-2.362
			c1.267-1.208,3.278-1.168,4.489,0.096c1.211,1.264,1.175,3.266-0.086,4.48l-0.123,0.115
			C90.492,81.668,89.718,81.947,88.946,81.947z M405.629,76.991c-0.75,0-1.504-0.265-2.104-0.802
			c-1.319-1.155-1.484-3.188-0.33-4.508c1.151-1.321,3.131-1.48,4.445-0.326l0.104,0.088c1.311,1.165,1.429,3.172,0.264,4.482
			C407.376,76.631,406.504,76.991,405.629,76.991z M102.028,70.521c-0.927,0-1.845-0.404-2.473-1.181
			c-1.101-1.365-0.888-3.364,0.477-4.465l0.079-0.064c1.362-1.104,3.362-0.895,4.466,0.468c1.104,1.362,0.895,3.362-0.468,4.466
			l-0.089,0.072C103.433,70.291,102.728,70.521,102.028,70.521z M392.182,65.963c-0.646,0-1.296-0.198-1.854-0.61l-0.154-0.118
			c-1.386-1.075-1.637-3.069-0.562-4.455c1.072-1.386,3.066-1.635,4.454-0.562l-1.945,2.508l1.973-2.488
			c1.392,1.054,1.688,3.043,0.646,4.44C394.104,65.517,393.149,65.963,392.182,65.963z M115.946,60.047
			c-1.003,0-1.991-0.463-2.604-1.339c-1.006-1.437-0.69-3.393,0.746-4.398l0.108-0.076c1.446-0.995,3.422-0.629,4.416,0.814
			c0.994,1.444,0.629,3.421-0.814,4.416C117.237,59.857,116.588,60.047,115.946,60.047z M377.989,55.962
			c-0.604,0-1.209-0.17-1.748-0.527c-1.478-0.951-1.928-2.936-0.979-4.409c0.95-1.474,2.89-1.917,4.359-0.966l0.12,0.079
			c1.463,0.967,1.864,2.937,0.896,4.4C380.03,55.462,379.02,55.962,377.989,55.962z M130.521,50.704
			c-1.089,0-2.149-0.561-2.741-1.567c-0.888-1.512-0.382-3.458,1.13-4.346l0.08-0.047c1.508-0.896,3.457-0.399,4.351,1.109
			c0.896,1.508,0.399,3.456-1.109,4.351l-0.106,0.062C131.622,50.562,131.068,50.704,130.521,50.704z M363.069,47.031
			c-0.498,0-1.003-0.119-1.479-0.369l-0.164-0.09c-1.524-0.859-2.066-2.795-1.211-4.324c0.86-1.529,2.797-2.07,4.324-1.21
			l-1.557,2.767l1.589-2.75c1.529,0.838,2.111,2.763,1.286,4.299C365.288,46.421,364.198,47.031,363.069,47.031z M145.834,42.39
			c-1.17,0-2.304-0.633-2.858-1.74c-0.784-1.568-0.188-3.456,1.381-4.24l0.114-0.057c1.573-0.773,3.476-0.126,4.251,1.446
			c0.774,1.573,0.127,3.477-1.446,4.251C146.815,42.281,146.322,42.39,145.834,42.39z M347.546,39.233
			c-0.438,0-0.886-0.092-1.312-0.285l-0.104-0.046c-1.595-0.728-2.299-2.611-1.571-4.206c0.729-1.596,2.607-2.299,4.206-1.572
			l0.099,0.043c1.597,0.726,2.303,2.608,1.573,4.205C349.906,38.541,348.753,39.233,347.546,39.233z M161.652,35.275
			c-1.254,0-2.451-0.733-2.955-1.956c-0.667-1.622,0.074-3.464,1.696-4.132l0.137-0.056c1.632-0.647,3.476,0.149,4.123,1.779
			s-0.149,3.476-1.779,4.123C162.476,35.197,162.061,35.275,161.652,35.275z M331.473,32.609c-0.36,0-0.73-0.063-1.096-0.196
			l-0.111-0.041c-1.644-0.611-2.479-2.438-1.871-4.082c0.611-1.644,2.438-2.48,4.082-1.871l0.096,0.034
			c1.646,0.605,2.485,2.43,1.885,4.076C333.98,31.813,332.766,32.609,331.473,32.609z M177.962,29.348
			c-1.34,0-2.599-0.841-3.038-2.175c-0.547-1.666,0.328-3.45,1.994-3.998l0.142-0.045c1.673-0.527,3.455,0.404,3.981,2.077
			s-0.404,3.456-2.077,3.981C178.632,29.296,178.294,29.348,177.962,29.348z M314.969,27.205c-0.295,0-0.594-0.041-0.891-0.128
			c-1.688-0.481-2.706-2.251-2.229-3.938c0.481-1.685,2.194-2.679,3.886-2.193l0.12,0.035c1.684,0.491,2.646,2.253,2.155,3.937
			C317.61,26.305,316.344,27.205,314.969,27.205z M194.623,24.66c-1.439,0-2.742-0.985-3.087-2.446
			c-0.403-1.707,0.654-3.417,2.361-3.819l0.054-0.013c1.699-0.43,3.427,0.598,3.858,2.297c0.431,1.7-0.598,3.427-2.297,3.858
			l-0.156,0.038C195.11,24.632,194.864,24.66,194.623,24.66z M298.107,23.044c-0.215,0-0.436-0.022-0.65-0.067l-0.105-0.022
			c-1.717-0.358-2.814-2.039-2.461-3.756c0.357-1.716,2.029-2.819,3.756-2.461l0.105,0.022c1.717,0.358,2.818,2.039,2.461,3.756
			C300.9,22.014,299.58,23.044,298.107,23.044z M211.643,21.209c-1.527,0-2.874-1.105-3.129-2.661
			c-0.285-1.73,0.888-3.364,2.618-3.648l0.1-0.017c1.729-0.289,3.366,0.88,3.654,2.61c0.288,1.729-0.88,3.366-2.61,3.654
			l-0.113,0.019C211.987,21.195,211.814,21.209,211.643,21.209z M280.988,20.142c-0.131,0-0.264-0.008-0.397-0.025l-0.139-0.018
			c-1.738-0.235-2.956-1.834-2.722-3.572c0.231-1.738,1.84-2.959,3.567-2.721l0.076,0.01c1.739,0.217,2.978,1.804,2.757,3.544
			C283.936,18.966,282.566,20.142,280.988,20.142z M228.932,19.026c-1.62,0-3.029-1.227-3.186-2.869
			c-0.167-1.746,1.082-3.293,2.827-3.461l0.154-0.014c1.748-0.146,3.279,1.16,3.421,2.908s-1.16,3.279-2.908,3.421
			C229.137,19.021,229.034,19.026,228.932,19.026z M263.698,18.505c-0.074,0-0.148-0.003-0.224-0.008
			c-1.75-0.095-3.123-1.593-3.027-3.343c0.094-1.751,1.578-3.092,3.312-3.001l0.156,0.009c1.75,0.122,3.069,1.638,2.946,3.388
			C266.746,17.224,265.352,18.505,263.698,18.505z M246.218,18c-1.733,0-3.15-1.328-3.174-3.066
			c-0.023-1.753,1.378-3.161,3.132-3.185l0.107,0.015c1.717-0.049,3.194,1.385,3.218,3.139c0.024,1.753-1.378,3.133-3.131,3.157
			L246.262,18C246.248,18,246.233,18,246.218,18z"/>
		<path fill="#FFB531" d="M250,452.003c-111.385,0-202.003-90.618-202.003-202.003S138.615,47.997,250,47.997
			S452.003,138.615,452.003,250S361.385,452.003,250,452.003z M250,57.997C144.129,57.997,57.997,144.129,57.997,250
			S144.129,442.003,250,442.003S442.003,355.871,442.003,250S355.871,57.997,250,57.997z"/>
		<path fill="#FFB531" d="M253.746,474.802c-2.607,0-4.72-2.109-4.72-4.721s2.113-4.721,4.72-4.721
			c2.605-0.039,4.762,1.975,4.838,4.58c0.077,2.604-1.992,4.776-4.6,4.854L253.746,474.802z M237.592,474.488
			c-0.092,0-0.185-0.003-0.277-0.008l-0.102-0.01c-2.603-0.147-4.59-2.384-4.439-4.982c0.151-2.604,2.404-4.564,4.985-4.439
			l0.101,0.006c2.603,0.151,4.59,2.388,4.439,4.986C242.154,472.551,240.074,474.488,237.592,474.488z M269.98,473.938
			c-2.426,0-4.487-1.854-4.698-4.313c-0.224-2.598,1.702-4.884,4.3-5.106c2.6-0.229,4.934,1.688,5.161,4.283
			c0.229,2.598-1.646,4.884-4.242,5.113l-0.112,0.01C270.252,473.932,270.115,473.938,269.98,473.938z M221.403,472.99
			c-0.184,0-0.37-0.015-0.558-0.032l-0.226-0.029c-2.58-0.374-4.368-2.769-3.994-5.349s2.762-4.369,5.349-3.995
			c2.589,0.305,4.428,2.648,4.124,5.238C225.815,471.225,223.765,472.99,221.403,472.99z M286.109,471.885
			c-2.303,0-4.319-1.688-4.664-4.034c-0.381-2.575,1.404-4.978,3.979-5.354c2.562-0.453,4.999,1.264,5.452,3.83
			c0.452,2.563-1.275,5.019-3.846,5.472l-0.233,0.038C286.568,471.868,286.338,471.885,286.109,471.885z M205.358,470.302
			c-0.313,0-0.631-0.027-0.951-0.098l-0.113-0.023c-2.552-0.529-4.188-3.03-3.655-5.586c0.533-2.552,3.036-4.187,5.586-3.651
			c2.554,0.522,4.24,3.027,3.714,5.585C209.479,468.758,207.544,470.302,205.358,470.302z M302.045,468.643
			c-2.128,0-4.061-1.445-4.584-3.605c-0.613-2.534,0.941-5.086,3.477-5.7l0.129-0.03c2.539-0.6,5.08,0.979,5.68,3.518
			c0.598,2.537-0.979,5.079-3.518,5.676l-0.063,0.017C302.787,468.599,302.413,468.643,302.045,468.643z M189.568,466.432
			c-0.412,0-0.83-0.054-1.247-0.168l-0.205-0.058c-2.498-0.746-3.919-3.376-3.173-5.874c0.746-2.497,3.378-3.915,5.873-3.173
			c2.515,0.687,3.993,3.278,3.307,5.795C193.551,465.053,191.645,466.432,189.568,466.432z M317.697,464.225
			c-2.025,0-3.897-1.312-4.52-3.353c-0.756-2.495,0.653-5.131,3.148-5.887c2.474-0.825,5.133,0.517,5.957,2.985
			c0.825,2.478-0.525,5.15-2.998,5.979l-0.221,0.067C318.612,464.159,318.15,464.225,317.697,464.225z M174.101,461.397
			c-0.543,0-1.095-0.099-1.635-0.298l-0.095-0.031c-2.445-0.902-3.696-3.617-2.793-6.062c0.903-2.445,3.615-3.696,6.063-2.793
			l0.095,0.035c2.445,0.902,3.696,3.617,2.793,6.062C177.825,460.217,176.021,461.397,174.101,461.397z M332.98,458.655
			c-1.864,0-3.635-1.111-4.375-2.945c-0.981-2.415,0.181-5.168,2.597-6.149l0.094-0.034c2.416-0.98,5.169,0.181,6.149,2.597
			c0.979,2.415-0.185,5.168-2.601,6.146l-0.094,0.038C334.173,458.543,333.571,458.655,332.98,458.655z M159.042,455.22
			c-0.643,0-1.295-0.132-1.919-0.409l-0.205-0.094c-2.354-1.121-3.354-3.938-2.232-6.291c1.121-2.354,3.937-3.354,6.291-2.229
			c2.382,1.059,3.445,3.844,2.387,6.226C162.582,454.177,160.852,455.22,159.042,455.22z M347.733,452.012
			c-1.685,0-3.305-0.919-4.153-2.518c-1.227-2.301-0.312-5.187,1.987-6.409c0.084-0.045,0.169-0.087,0.256-0.129
			c2.343-1.134,5.169-0.154,6.305,2.193c1.136,2.347,0.153,5.169-2.193,6.305l-2.056-4.249l2.044,4.255
			C349.221,451.834,348.471,452.012,347.733,452.012z M144.477,447.938c-0.778,0-1.566-0.189-2.294-0.599l2.298-4.123l-2.325,4.108
			c-2.275-1.25-3.133-4.111-1.897-6.396c1.235-2.278,4.065-3.146,6.354-1.928l0.166,0.091c2.277,1.271,3.094,4.146,1.825,6.421
			C147.74,447.064,146.133,447.938,144.477,447.938z M362.07,444.208c-1.62,0-3.197-0.835-4.076-2.333
			c-1.318-2.249-0.564-5.141,1.685-6.46c2.234-1.341,5.156-0.631,6.499,1.604c1.341,2.235,0.643,5.121-1.597,6.467l-0.128,0.072
			C363.703,443.999,362.881,444.208,362.07,444.208z M130.5,439.603c-0.888,0-1.785-0.25-2.583-0.771l2.587-3.948l-2.606,3.938
			c-2.172-1.409-2.828-4.319-1.441-6.505c1.387-2.188,4.253-2.862,6.451-1.497l0.183,0.113c2.181,1.433,2.79,4.354,1.361,6.535
			C133.547,438.852,132.039,439.603,130.5,439.603z M375.738,435.407c-1.539,0-3.047-0.751-3.953-2.134
			c-1.416-2.161-0.83-5.058,1.303-6.496c2.12-1.487,5.062-0.992,6.562,1.121c1.511,2.117,1.025,5.058-1.095,6.567
			c-0.074,0.061-0.154,0.111-0.235,0.165C377.522,435.157,376.625,435.407,375.738,435.407z M117.18,430.261
			c-0.999,0-2.006-0.312-2.861-0.969l-0.081-0.062c-2.072-1.587-2.469-4.549-0.887-6.617c1.581-2.071,4.543-2.474,6.616-0.891
			l0.081,0.062c2.072,1.583,2.469,4.545,0.887,6.617C120.006,429.621,118.601,430.261,117.18,430.261z M388.725,425.625
			c-1.377,0-2.738-0.6-3.675-1.755c-1.639-2.028-1.321-5,0.706-6.638c2.021-1.648,5.026-1.368,6.672,0.648
			c1.647,2.021,1.375,4.969-0.646,6.615l-0.094,0.076C390.814,425.282,389.766,425.625,388.725,425.625z M104.586,419.964
			c-1.111,0-2.228-0.391-3.125-1.186l3.127-3.535l-3.161,3.507c-1.965-1.708-2.182-4.69-0.478-6.658
			c1.705-1.969,4.674-2.188,6.646-0.489l0.12,0.105c1.953,1.727,2.135,4.71,0.408,6.663
			C107.19,419.425,105.892,419.964,104.586,419.964z M400.958,414.912c-1.274,0-2.544-0.513-3.475-1.524
			c-1.77-1.919-1.645-4.901,0.273-6.67c1.88-1.807,4.869-1.746,6.675,0.136c1.81,1.885,1.744,4.868-0.137,6.678l-0.146,0.138
			C403.246,414.5,402.101,414.912,400.958,414.912z M92.785,408.773c-1.24,0-2.479-0.486-3.406-1.452l3.405-3.271l-3.417,3.256
			c-1.862-1.82-1.872-4.791-0.047-6.649c1.825-1.862,4.835-1.87,6.697-0.047l0.173,0.176c1.805,1.88,1.745,4.868-0.136,6.674
			C95.138,408.337,93.96,408.773,92.785,408.773z M412.372,403.328c-1.146,0-2.293-0.414-3.201-1.252
			c-1.915-1.771-2.034-4.755-0.267-6.672c1.767-1.916,4.784-2.075,6.701-0.312c1.919,1.769,2.071,4.717,0.31,6.636l-0.073,0.08
			C414.911,402.817,413.644,403.328,412.372,403.328z M81.802,396.733c-1.327,0-2.641-0.562-3.569-1.657l-0.088-0.104
			c-1.669-2.006-1.398-4.979,0.604-6.647c2.003-1.668,4.98-1.399,6.648,0.604c1.684,1.985,1.457,4.989-0.534,6.676
			C83.971,396.361,82.882,396.733,81.802,396.733z M422.909,390.936c-1.048,0-2.104-0.349-2.979-1.062
			c-2.021-1.646-2.321-4.62-0.678-6.642c1.602-2.062,4.564-2.426,6.622-0.825s2.426,4.567,0.825,6.627l-0.129,0.161
			C425.639,390.341,424.279,390.936,422.909,390.936z M71.805,383.953c-1.473,0-2.924-0.688-3.845-1.979l3.841-2.742l-3.868,2.705
			c-1.535-2.104-1.078-5.062,1.026-6.599c2.103-1.536,5.053-1.083,6.591,1.021l0.092,0.127c1.515,2.121,1.024,5.07-1.098,6.584
			C73.713,383.668,72.755,383.953,71.805,383.953z M432.508,377.8c-0.95,0-1.908-0.284-2.74-0.88
			c-2.103-1.502-2.604-4.411-1.137-6.527c1.439-2.149,4.354-2.754,6.522-1.33c2.177,1.434,2.791,4.342,1.359,6.521
			c-0.053,0.081-0.104,0.162-0.164,0.241C435.432,377.111,433.98,377.8,432.508,377.8z M62.693,370.432
			c-1.561,0-3.078-0.772-3.966-2.205l-0.061-0.099c-1.368-2.219-0.679-5.127,1.541-6.495c2.218-1.369,5.126-0.681,6.496,1.54
			c1.375,2.216,0.716,5.162-1.499,6.537C64.419,370.197,63.549,370.432,62.693,370.432z M441.112,363.989
			c-0.826,0-1.663-0.218-2.425-0.673c-2.234-1.342-2.963-4.241-1.618-6.479c1.286-2.271,4.164-3.06,6.43-1.771
			c2.269,1.285,3.062,4.173,1.775,6.438l-0.109,0.188C444.28,363.172,442.716,363.989,441.112,363.989z M54.713,356.342
			c-1.692,0-3.331-0.912-4.182-2.508l-0.104-0.199c-1.166-2.332-0.221-5.168,2.111-6.333c2.333-1.165,5.167-0.221,6.333,2.11
			c1.227,2.301,0.351,5.148-1.949,6.376C56.218,356.164,55.46,356.342,54.713,356.342z M448.676,349.572
			c-0.672,0-1.354-0.146-2.002-0.448c-2.354-1.108-3.374-3.912-2.269-6.271l0.065-0.146c1.139-2.35,3.957-3.33,6.309-2.191
			c2.347,1.137,3.329,3.959,2.189,6.305l-4.249-2.055l4.229,2.096C452.148,348.568,450.448,349.572,448.676,349.572z
			 M47.726,341.657c-1.841,0-3.59-1.084-4.351-2.888l4.349-1.834l-4.368,1.791c-1.035-2.395,0.061-5.172,2.45-6.209
			c2.388-1.041,5.165,0.051,6.206,2.438l0.061,0.145c1.013,2.4-0.112,5.172-2.514,6.187
			C48.959,341.537,48.337,341.657,47.726,341.657z M455.161,334.688c-0.543,0-1.096-0.094-1.638-0.289
			c-2.45-0.893-3.698-3.642-2.812-6.092c0.032-0.088,0.065-0.173,0.104-0.258c0.979-2.416,3.73-3.576,6.146-2.597
			c2.416,0.981,3.578,3.733,2.597,6.149l-4.369-1.776l4.364,1.79C458.863,333.523,457.076,334.688,455.161,334.688z M41.86,326.509
			c-1.977,0-3.818-1.251-4.478-3.229l4.478-1.489l-4.486,1.47c-0.831-2.449,0.46-5.145,2.906-5.996
			c2.446-0.854,5.113,0.396,5.989,2.836l0.068,0.197c0.825,2.477-0.512,5.146-2.985,5.975
			C42.858,326.432,42.355,326.509,41.86,326.509z M460.5,319.261c-0.454,0-0.914-0.065-1.371-0.204
			c-2.495-0.756-3.904-3.392-3.146-5.887l0.025-0.097c0.757-2.495,3.394-3.907,5.89-3.148c2.492,0.757,3.901,3.392,3.146,5.888
			l-0.029,0.1C464.397,317.945,462.525,319.261,460.5,319.261z M37.132,310.949c-2.076,0-3.978-1.381-4.551-3.479l-0.051-0.195
			c-0.632-2.529,0.906-5.092,3.435-5.728c2.527-0.638,5.092,0.904,5.725,3.438c0.686,2.515-0.797,5.109-3.312,5.796
			C37.962,310.895,37.543,310.949,37.132,310.949z M464.676,303.518c-0.334,0-0.673-0.035-1.012-0.106
			c-2.53-0.562-4.143-3.029-3.604-5.562l0.049-0.199c0.598-2.539,3.142-4.112,5.676-3.518c2.538,0.6,4.107,3.141,3.514,5.68
			l-4.595-1.082l4.589,1.104C468.786,302.018,466.833,303.518,464.676,303.518z M33.566,295.062c-2.217,0-4.19-1.562-4.622-3.817
			l-0.031-0.166c-0.453-2.567,1.261-5.017,3.828-5.47c2.569-0.453,5.016,1.262,5.469,3.828c0.49,2.562-1.186,5.051-3.747,5.541
			C34.163,295.036,33.862,295.062,33.566,295.062z M467.685,287.562c-0.229,0-0.46-0.021-0.688-0.051
			c-2.579-0.383-4.363-2.777-3.983-5.356l0.019-0.101c0.379-2.578,2.778-4.361,5.354-3.982c2.579,0.379,4.363,2.777,3.983,5.355
			l-0.019,0.1C472.004,285.874,469.987,287.562,467.685,287.562z M31.203,278.982c-2.359,0-4.396-1.758-4.679-4.159l-0.02-0.183
			c-0.26-2.598,1.633-4.908,4.227-5.168c2.591-0.257,4.907,1.635,5.167,4.229c0.305,2.589-1.546,4.943-4.135,5.249
			C31.574,278.973,31.387,278.982,31.203,278.982z M469.493,271.434c-0.092,0-0.188-0.002-0.277-0.009
			c-2.603-0.147-4.59-2.409-4.438-5.013l0.019-0.246c0.229-2.598,2.523-4.521,5.117-4.287c2.597,0.229,4.517,2.521,4.287,5.117
			l-4.702-0.415l4.7,0.433C474.053,269.521,471.976,271.434,469.493,271.434z M30.032,262.775c-2.543,0-4.641-2.023-4.716-4.582
			l4.718-0.139l-4.72,0.1c-0.1-2.604,1.925-4.803,4.525-4.907c2.628-0.069,4.795,1.905,4.907,4.505l0.006,0.164
			c0.077,2.605-1.974,4.779-4.58,4.857C30.126,262.773,30.079,262.775,30.032,262.775z M470,255.154c-2.607,0-5-2.113-5-4.721
			v-0.101c0-0.071,0.002-0.143,0.004-0.213c-0.002-0.063-0.004-0.126-0.004-0.189v-0.101c0-2.607,2.393-4.72,5-4.72s5,2.113,5,4.72
			v0.101c0,0.071-0.002,0.143-0.004,0.213c0.002,0.063,0.004,0.126,0.004,0.189v0.101C475,253.041,472.607,255.154,470,255.154z
			 M30.043,246.511c-0.069,0-0.139-0.002-0.208-0.005c-2.604-0.113-4.624-2.316-4.511-4.921l4.716,0.205l-4.714-0.243
			c0.092-2.599,2.258-4.673,4.87-4.563c2.6,0.083,4.642,2.242,4.566,4.841l-0.006,0.169
			C34.646,244.53,32.556,246.511,30.043,246.511z M469.513,238.397c-2.479,0-4.561-1.935-4.708-4.443
			c-0.227-2.597,1.697-4.87,4.294-5.096c2.601-0.229,4.892,1.711,5.113,4.309l0.017,0.232c0.153,2.603-1.828,4.836-4.435,4.99
			C469.699,238.394,469.605,238.397,469.513,238.397z M31.235,230.294c-0.182,0-0.365-0.01-0.549-0.032
			c-2.59-0.3-4.446-2.643-4.146-5.232l4.689,0.543l-4.684-0.586c0.277-2.588,2.607-4.464,5.188-4.201
			c2.589,0.272,4.47,2.58,4.204,5.169l-0.018,0.161C35.64,228.522,33.599,230.294,31.235,230.294z M467.725,222.236
			c-2.308,0-4.321-1.693-4.666-4.044c-0.379-2.58,1.397-5.023,3.979-5.402c2.595-0.378,4.972,1.36,5.351,3.938l0.021,0.11
			c0.374,2.58-1.415,4.975-3.995,5.349C468.178,222.22,467.95,222.236,467.725,222.236z M33.615,214.209
			c-0.294,0-0.592-0.027-0.892-0.085c-2.561-0.489-4.24-2.962-3.75-5.522l4.636,0.886l-4.628-0.932
			c0.465-2.562,2.923-4.269,5.483-3.808c2.564,0.462,4.269,2.909,3.81,5.473l-0.029,0.153
			C37.814,212.636,35.835,214.209,33.615,214.209z M464.753,206.249c-2.193,0-4.159-1.537-4.618-3.77
			c-0.604-2.536,0.964-5.059,3.499-5.665c2.54-0.607,5.088,0.983,5.692,3.518l0.055,0.243c0.526,2.553-1.118,5.049-3.671,5.575
			C465.389,206.217,465.068,206.249,464.753,206.249z M37.179,198.344c-0.406,0-0.817-0.053-1.228-0.163
			c-2.518-0.676-4.011-3.266-3.334-5.783l0.013-0.05c0.65-2.526,3.228-4.043,5.749-3.394c2.525,0.65,4.044,3.224,3.394,5.749
			l-0.039,0.145C41.168,196.955,39.262,198.344,37.179,198.344z M460.602,190.527c-2.021,0-3.896-1.314-4.516-3.353l-0.029-0.097
			c-0.756-2.495,0.653-5.13,3.148-5.887c2.494-0.758,5.13,0.653,5.887,3.148l0.029,0.097c0.756,2.495-0.653,5.13-3.148,5.887
			C461.517,190.461,461.055,190.527,460.602,190.527z M41.912,182.787c-0.522,0-1.054-0.087-1.575-0.271
			c-2.458-0.87-3.745-3.567-2.875-6.025l4.45,1.575l-4.44-1.602c0.851-2.453,3.53-3.779,5.986-2.943
			c2.458,0.836,3.786,3.479,2.965,5.942l-0.061,0.178C45.677,181.577,43.856,182.787,41.912,182.787z M455.268,175.136
			c-1.862,0-3.624-1.108-4.355-2.948l-0.073-0.19c-0.915-2.441,0.321-5.162,2.763-6.077c2.439-0.916,5.161,0.32,6.077,2.763
			l-4.42,1.657l4.429-1.635c0.926,2.422-0.271,5.159-2.686,6.102C456.429,175.03,455.843,175.136,455.268,175.136z M47.797,167.602
			c-0.611,0-1.231-0.119-1.829-0.372c-2.402-1.013-3.53-3.776-2.517-6.179l0.076-0.175c1.059-2.382,3.851-3.454,6.23-2.396
			c2.382,1.059,3.456,3.848,2.396,6.23C51.393,166.515,49.64,167.602,47.797,167.602z M448.86,160.238
			c-1.803,0-3.521-1.033-4.309-2.779c-1.136-2.347-0.146-5.159,2.198-6.294c2.344-1.135,5.174-0.143,6.31,2.204l0.1,0.204
			c1.073,2.376,0.017,5.172-2.359,6.245C450.17,160.104,449.51,160.238,448.86,160.238z M54.794,152.912
			c-0.739,0-1.489-0.174-2.189-0.541c-2.309-1.211-3.198-4.064-1.987-6.373l0.032-0.062c1.196-2.316,4.043-3.225,6.36-2.03
			c2.316,1.196,3.225,4.043,2.03,6.36l-0.062,0.118C58.135,151.992,56.493,152.912,54.794,152.912z M441.339,145.833
			c-1.634,0-3.221-0.848-4.095-2.364l-0.066-0.117c-1.286-2.268-0.485-5.149,1.779-6.434c2.27-1.284,5.148-0.489,6.434,1.78
			l0.033,0.058c1.302,2.259,0.525,5.145-1.729,6.447C442.948,145.629,442.138,145.833,441.339,145.833z M62.86,138.773
			c-0.837,0-1.685-0.223-2.452-0.691c-2.226-1.358-2.93-4.26-1.572-6.485l0.103-0.166c1.402-2.197,4.321-2.842,6.518-1.441
			c2.198,1.402,2.843,4.32,1.441,6.518C66.008,137.967,64.453,138.773,62.86,138.773z M432.738,132.004
			c-1.479,0-2.922-0.691-3.836-1.994l-0.12-0.177c-1.446-2.169-0.859-5.1,1.31-6.546c2.168-1.445,5.103-0.86,6.546,1.31
			l-3.928,2.618l3.939-2.6c1.443,2.147,0.905,5.083-1.229,6.55C434.602,131.731,433.664,132.004,432.738,132.004z M71.948,125.28
			c-0.968,0-1.944-0.296-2.785-0.912c-2.104-1.54-2.56-4.494-1.02-6.597l0.051-0.069c1.532-2.109,4.484-2.576,6.594-1.041
			c2.108,1.533,2.575,4.485,1.041,6.594l-0.068,0.094C74.836,124.61,73.402,125.28,71.948,125.28z M423.173,118.86
			c-1.355,0-2.704-0.587-3.632-1.726l-0.129-0.163c-1.604-2.058-1.23-5.023,0.827-6.624c2.057-1.6,5.021-1.23,6.625,0.828
			l-3.729,2.898l3.74-2.88c1.602,2.037,1.277,5.005-0.745,6.624C425.257,118.517,424.21,118.86,423.173,118.86z M82.004,112.49
			c-1.08,0-2.165-0.369-3.053-1.123c-1.987-1.687-2.23-4.666-0.543-6.653l0.06-0.071c1.684-1.989,4.663-2.238,6.653-0.554
			c1.99,1.684,2.238,4.663,0.554,6.653l-0.071,0.083C84.671,111.924,83.342,112.49,82.004,112.49z M412.667,106.452
			c-1.246,0-2.487-0.494-3.411-1.475l-0.136-0.148c-1.746-1.936-1.593-4.921,0.344-6.667c1.938-1.747,4.921-1.592,6.666,0.344
			l-3.505,3.162l3.521-3.143c1.746,1.916,1.643,4.9-0.264,6.662C414.971,106.032,413.816,106.452,412.667,106.452z M92.972,100.475
			c-1.192,0-2.384-0.448-3.303-1.348c-1.862-1.824-1.893-4.813-0.069-6.675l0.071-0.073c1.825-1.862,4.813-1.892,6.675-0.068
			c1.862,1.825,1.893,4.813,0.068,6.675l-0.07,0.072C95.42,100.002,94.196,100.475,92.972,100.475z M401.3,94.853
			c-1.176,0-2.353-0.437-3.268-1.315c-1.9-1.786-2.011-4.791-0.229-6.69c1.786-1.9,4.754-2.01,6.654-0.224l0.108,0.104
			c1.881,1.806,1.938,4.793,0.137,6.674C403.779,94.367,402.541,94.853,401.3,94.853z M104.791,89.3
			c-1.323,0-2.638-0.553-3.571-1.632c-1.706-1.971-1.491-4.952,0.48-6.658l3.089,3.569l-3.069-3.586
			c1.951-1.708,4.933-1.538,6.656,0.401c1.722,1.938,1.577,4.888-0.349,6.625l-0.148,0.13C106.985,88.921,105.886,89.3,104.791,89.3
			z M389.081,84.112c-1.06,0-2.125-0.355-3.005-1.083c-2.021-1.647-2.354-4.641-0.704-6.662c1.646-2.021,4.596-2.346,6.615-0.699
			l0.104,0.085c2.01,1.661,2.291,4.637,0.63,6.646C391.788,83.528,390.439,84.112,389.081,84.112z M117.411,79.001
			c-1.422,0-2.827-0.634-3.753-1.847c-1.583-2.072-1.204-5.021,0.868-6.603l0.124-0.094c2.09-1.558,5.048-1.126,6.606,0.963
			c1.558,2.09,1.126,5.048-0.963,6.606C119.434,78.683,118.418,79.001,117.411,79.001z M376.126,74.3
			c-0.914,0-1.837-0.262-2.649-0.809l-0.189-0.134c-2.121-1.516-2.612-4.463-1.097-6.585c1.515-2.122,4.463-2.611,6.585-1.098
			l-2.744,3.841l2.759-3.83c2.164,1.455,2.717,4.373,1.263,6.537C379.14,73.574,377.646,74.3,376.126,74.3z M130.717,69.705
			c-1.558,0-3.083-0.771-3.984-2.183c-1.402-2.198-0.757-5.116,1.441-6.518l2.539,3.979l-2.516-3.994
			c2.179-1.406,5.105-0.806,6.527,1.363c1.423,2.168,0.85,5.065-1.309,6.504l-0.164,0.106
			C132.464,69.465,131.585,69.705,130.717,69.705z M362.442,65.46c-0.854,0-1.709-0.229-2.484-0.71
			c-2.252-1.313-3.001-4.197-1.688-6.448c1.314-2.252,4.221-3.005,6.473-1.691l0.193,0.118c2.219,1.375,2.896,4.285,1.521,6.5
			C365.564,64.668,364.021,65.46,362.442,65.46z M144.725,61.366c-1.67,0-3.292-0.875-4.149-2.434
			c-1.256-2.284-0.453-5.138,1.832-6.395l0.117-0.064c2.293-1.241,5.157-0.387,6.398,1.906c1.24,2.293,0.387,5.157-1.906,6.398
			C146.291,61.176,145.502,61.366,144.725,61.366z M348.161,57.658c-0.709,0-1.43-0.16-2.107-0.499l-0.091-0.045
			c-2.331-1.166-3.272-4.001-2.109-6.333c1.164-2.332,4-3.278,6.332-2.111l0.095,0.045c2.331,1.166,3.272,4.001,2.106,6.333
			C351.56,56.702,349.893,57.658,348.161,57.658z M159.225,54.142c-1.809,0-3.534-1.045-4.316-2.805
			c-1.059-2.382,0.014-5.172,2.396-6.23l1.917,4.313l-1.892-4.325c2.365-1.066,5.168-0.037,6.252,2.322
			c1.084,2.357,0.082,5.138-2.269,6.238l-0.175,0.079C160.517,54.011,159.866,54.142,159.225,54.142z M333.337,50.936
			c-0.612,0-1.233-0.12-1.833-0.373c-2.415-0.981-3.596-3.742-2.614-6.157c0.98-2.415,3.72-3.584,6.132-2.604l0.152,0.063
			c2.402,1.013,3.527,3.782,2.519,6.184C336.928,49.852,335.178,50.936,333.337,50.936z M174.303,47.97
			c-1.925,0-3.744-1.173-4.446-3.078c-0.903-2.445,0.319-5.15,2.765-6.053l0.133-0.049c2.454-0.881,5.157,0.393,6.039,2.846
			c0.881,2.454-0.393,5.157-2.846,6.039C175.407,47.875,174.851,47.97,174.303,47.97z M318.053,45.333
			c-0.495,0-0.998-0.079-1.494-0.244c-2.479-0.791-3.875-3.451-3.084-5.935c0.791-2.483,3.427-3.864,5.912-3.072l0.158,0.051
			c2.473,0.824,3.812,3.498,2.985,5.971C321.87,44.082,320.028,45.333,318.053,45.333z M189.791,42.944
			c-2.058,0-3.969-1.338-4.564-3.405c-0.721-2.505,0.686-5.109,3.191-5.831l0.115-0.033c2.507-0.71,5.118,0.746,5.829,3.253
			c0.711,2.508-0.746,5.118-3.253,5.83C190.67,42.884,190.228,42.944,189.791,42.944z M302.411,40.889
			c-0.39,0-0.785-0.049-1.181-0.15c-2.537-0.597-4.111-3.139-3.519-5.676c0.601-2.538,3.146-4.113,5.679-3.514l0.191,0.047
			c2.524,0.65,4.044,3.224,3.395,5.749C306.431,39.474,304.514,40.889,302.411,40.889z M205.516,39.106
			c-2.193,0-4.159-1.537-4.619-3.77c-0.525-2.553,1.118-5.049,3.672-5.575l0.085-0.018c2.548-0.535,5.052,1.103,5.586,3.655
			c0.533,2.552-1.103,5.053-3.655,5.586l-0.113,0.023C206.151,39.074,205.831,39.106,205.516,39.106z M286.484,37.62
			c-0.272,0-0.549-0.023-0.826-0.073c-2.573-0.416-4.34-2.843-3.924-5.416c0.416-2.573,2.812-4.331,5.396-3.909l0.166,0.028
			c2.565,0.453,4.281,2.901,3.828,5.469C290.723,36.009,288.73,37.62,286.484,37.62z M221.577,36.428
			c-2.333,0-4.371-1.726-4.685-4.1c-0.342-2.584,1.464-4.955,4.048-5.297l0.176-0.022c2.587-0.3,4.932,1.555,5.232,4.146
			c0.3,2.589-1.556,4.932-4.146,5.232C221.993,36.414,221.784,36.428,221.577,36.428z M270.357,35.539
			c-0.157,0-0.315-0.008-0.479-0.024c-2.597-0.229-4.539-2.522-4.312-5.119c0.229-2.596,2.48-4.509,5.097-4.289l0.153,0.015
			c2.596,0.259,4.485,2.572,4.229,5.167C274.805,33.722,272.753,35.539,270.357,35.539z M237.781,34.943
			c-2.483,0-4.579-1.937-4.724-4.447c-0.151-2.603,1.82-4.833,4.422-4.984l0.169-0.009c2.608-0.1,4.808,1.906,4.921,4.511
			c0.113,2.605-1.906,4.808-4.511,4.921C237.966,34.94,237.873,34.943,237.781,34.943z M254.119,34.647
			c-0.046,0-0.092,0-0.139-0.002c-2.605-0.038-4.708-2.183-4.667-4.79c0.038-2.606,2.152-4.711,4.771-4.65l0.166,0.003
			c2.605,0.074,4.658,2.247,4.584,4.853C258.762,32.622,256.663,34.647,254.119,34.647z"/>
		<path fill="#FFB531" d="M256.07,500c-1.348,0-2.459-1.107-2.497-2.465c-0.038-1.379,1.05-2.547,2.43-2.585l0.108-0.011
			c1.367-0.024,2.529,1.047,2.566,2.427c0.034,1.38-1.054,2.562-2.435,2.599L256.143,500C256.118,500,256.096,500,256.07,500z
			 M238.908,499.741c-0.046,0-0.092-0.001-0.139-0.004l0.137-2.496l-0.179,2.494c-1.375-0.057-2.46-1.205-2.415-2.58
			c0.044-1.375,1.158-2.484,2.555-2.418l0.175,0.008c1.379,0.075,2.435,1.254,2.359,2.633
			C241.33,498.71,240.227,499.741,238.908,499.741z M273.32,498.928c-1.264,0-2.354-0.953-2.488-2.232
			c-0.146-1.371,0.841-2.604,2.212-2.748l0.167-0.02c1.396-0.107,2.585,0.908,2.699,2.283c0.115,1.376-0.907,2.585-2.283,2.699
			l-0.208-2.491l0.162,2.495C273.493,498.923,273.406,498.928,273.32,498.928z M221.691,498.365c-0.091,0-0.182-0.005-0.275-0.019
			l-0.178-0.021c-1.368-0.19-2.322-1.453-2.132-2.82c0.189-1.367,1.451-2.315,2.82-2.133c1.373,0.15,2.381,1.388,2.23,2.76
			C224.016,497.416,222.948,498.365,221.691,498.365z M290.438,496.721c-1.201,0-2.26-0.862-2.463-2.089
			c-0.229-1.362,0.692-2.646,2.055-2.877l0.104-0.018c1.363-0.233,2.649,0.688,2.878,2.055c0.229,1.363-0.693,2.65-2.056,2.877
			l-0.104,0.021C290.711,496.71,290.573,496.721,290.438,496.721z M204.613,495.81c-0.158,0-0.319-0.015-0.48-0.046l0.477-2.454
			l-0.519,2.446c-1.355-0.24-2.272-1.531-2.04-2.887c0.232-1.356,1.503-2.275,2.864-2.045l0.171,0.031
			c1.355,0.264,2.241,1.572,1.977,2.932C206.832,494.98,205.786,495.81,204.613,495.81z M307.4,493.306
			c-1.127,0-2.159-0.76-2.44-1.896c-0.329-1.331,0.458-2.675,1.786-3.02l0.186-0.044c1.352-0.301,2.688,0.555,2.982,1.898
			c0.3,1.348-0.55,2.683-1.898,2.979l-0.542-2.438l0.512,2.448C307.787,493.283,307.592,493.306,307.4,493.306z M187.753,492.074
			c-0.204,0-0.41-0.025-0.616-0.077l-0.104-0.027c-1.338-0.339-2.148-1.695-1.809-3.037c0.34-1.338,1.703-2.143,3.038-1.81
			l0.104,0.027c1.338,0.339,2.148,1.695,1.809,3.037C189.887,491.319,188.87,492.074,187.753,492.074z M323.998,488.735
			c-1.055,0-2.035-0.678-2.378-1.731c-0.425-1.312,0.296-2.723,1.605-3.146l0.121-0.038c1.32-0.413,2.725,0.313,3.139,1.635
			s-0.318,2.721-1.639,3.135l-0.082,0.026C324.513,488.695,324.254,488.735,323.998,488.735z M171.194,487.167
			c-0.272,0-0.549-0.045-0.821-0.14l0.821-2.361l-0.857,2.349c-1.304-0.431-2.031-1.838-1.609-3.146
			c0.421-1.312,1.804-2.034,3.114-1.622l0.173,0.058c1.304,0.454,1.994,1.879,1.54,3.187
			C173.196,486.52,172.229,487.167,171.194,487.167z M340.284,482.991c-0.987,0-1.926-0.586-2.32-1.559
			c-0.52-1.271,0.082-2.728,1.355-3.252l0.155-0.062c1.287-0.492,2.734,0.15,3.229,1.439c0.493,1.288-0.152,2.733-1.442,3.229
			l-0.893-2.335l0.851,2.352C340.915,482.933,340.597,482.991,340.284,482.991z M155.02,481.11c-0.317,0-0.64-0.062-0.951-0.189
			l-0.1-0.041c-1.277-0.521-1.886-1.986-1.36-3.264c0.526-1.276,1.988-1.893,3.263-1.359l0.1,0.041
			c1.277,0.525,1.886,1.986,1.36,3.264C156.935,480.526,156.003,481.11,155.02,481.11z M356.108,476.134
			c-0.951,0-1.859-0.545-2.278-1.467c-0.571-1.257-0.015-2.738,1.242-3.311c1.235-0.604,2.758-0.099,3.356,1.146
			c0.604,1.242,0.104,2.729-1.139,3.331l-0.153,0.072C356.806,476.062,356.454,476.134,356.108,476.134z M139.286,473.919
			c-0.363,0-0.731-0.08-1.081-0.249l-0.164-0.083c-1.224-0.64-1.696-2.146-1.057-3.374c0.641-1.222,2.152-1.697,3.374-1.056
			c1.242,0.602,1.775,2.104,1.173,3.347C141.098,473.396,140.211,473.919,139.286,473.919z M371.43,468.18
			c-0.857,0-1.696-0.441-2.164-1.245c-0.689-1.189-0.287-2.724,0.907-3.417l0.122-0.065c1.203-0.677,2.729-0.251,3.404,0.953
			c0.677,1.203,0.25,2.728-0.953,3.4l-0.063,0.036C372.288,468.071,371.856,468.18,371.43,468.18z M124.116,465.646
			c-0.439,0-0.885-0.115-1.289-0.359l1.291-2.141l-1.324,2.117c-1.187-0.688-1.607-2.218-0.925-3.406
			c0.683-1.191,2.186-1.617,3.382-0.944l0.158,0.093c1.183,0.713,1.563,2.25,0.85,3.432
			C125.79,465.216,124.963,465.646,124.116,465.646z M386.163,459.178c-0.808,0-1.604-0.391-2.082-1.109
			c-0.766-1.148-0.455-2.701,0.693-3.471l0.117-0.079c1.158-0.744,2.708-0.415,3.456,0.745c0.749,1.16,0.415,2.708-0.742,3.456
			l-0.062,0.038C387.122,459.042,386.64,459.178,386.163,459.178z M109.558,456.331c-0.495,0-0.995-0.146-1.432-0.452l-0.073-0.05
			c-1.137-0.783-1.424-2.34-0.641-3.479c0.783-1.138,2.339-1.425,3.477-0.642l0.104,0.073c1.131,0.792,1.406,2.351,0.614,3.479
			C111.122,455.959,110.346,456.331,109.558,456.331z M400.238,449.174c-0.737,0-1.467-0.324-1.961-0.946
			c-0.857-1.078-0.681-2.65,0.401-3.513l0.128-0.099c1.104-0.832,2.669-0.618,3.503,0.479c0.837,1.103,0.619,2.668-0.479,3.503
			l-0.042,0.032C401.33,448.997,400.782,449.174,400.238,449.174z M95.689,446.021c-0.551,0-1.106-0.186-1.568-0.559l-0.068-0.054
			c-1.082-0.858-1.263-2.433-0.405-3.513c0.857-1.082,2.431-1.267,3.512-0.405l0.101,0.081c1.074,0.867,1.242,2.438,0.375,3.516
			C97.143,445.703,96.419,446.021,95.689,446.021z M413.589,438.215c-0.688,0-1.372-0.282-1.866-0.835
			c-0.919-1.03-0.83-2.61,0.2-3.53l0.084-0.07c1.032-0.918,2.613-0.824,3.529,0.207c0.918,1.028,0.825,2.608-0.207,3.525
			l-0.076,0.068C414.776,438.006,414.182,438.215,413.589,438.215z M82.575,434.774c-0.608,0-1.217-0.224-1.698-0.666l-0.042-0.038
			c-1.032-0.917-1.125-2.497-0.208-3.529c0.917-1.031,2.497-1.126,3.53-0.207l0.117,0.106c1.013,0.938,1.074,2.52,0.136,3.528
			C83.917,434.505,83.247,434.774,82.575,434.774z M426.146,426.355c-0.624,0-1.248-0.231-1.732-0.698
			c-0.995-0.957-1.026-2.539-0.069-3.534l0.109-0.111c0.977-0.977,2.559-0.977,3.535,0c0.976,0.979,0.977,2.562,0,3.535
			l-0.041,0.041C427.458,426.099,426.803,426.355,426.146,426.355z M70.274,422.646c-0.672,0-1.342-0.271-1.835-0.806l1.834-1.694
			l-1.862,1.669c-0.95-0.993-0.929-2.577,0.059-3.533c0.988-0.956,2.553-0.944,3.514,0.035l0.124,0.131
			c0.938,1.013,0.877,2.595-0.136,3.532C71.491,422.426,70.882,422.646,70.274,422.646z M437.853,413.65
			c-0.591,0-1.184-0.208-1.656-0.636c-1.031-0.917-1.125-2.493-0.207-3.525c0.896-1.049,2.498-1.192,3.545-0.295
			c1.049,0.896,1.188,2.454,0.292,3.502l-0.104,0.111C439.229,413.367,438.542,413.65,437.853,413.65z M58.826,409.686
			c-0.705,0-1.404-0.299-1.895-0.884l-0.112-0.137c-0.858-1.082-0.676-2.654,0.405-3.513c1.082-0.857,2.654-0.681,3.512,0.401
			c0.888,1.062,0.762,2.649-0.295,3.537C59.968,409.491,59.395,409.686,58.826,409.686z M448.649,400.16
			c-0.518,0-1.031-0.157-1.479-0.484c-1.113-0.812-1.354-2.381-0.537-3.494l0.088-0.114c0.836-1.104,2.404-1.316,3.503-0.481
			c1.104,0.835,1.315,2.403,0.481,3.503l-0.041,0.054C450.178,399.807,449.419,400.16,448.649,400.16z M48.347,395.984
			c-0.789,0-1.564-0.371-2.051-1.066l2.048-1.434l-2.072,1.396c-0.807-1.11-0.57-2.68,0.539-3.489
			c1.109-0.813,2.661-0.586,3.479,0.518l0.102,0.143c0.792,1.131,0.517,2.689-0.614,3.481
			C49.342,395.838,48.841,395.984,48.347,395.984z M458.482,385.943c-0.446,0-0.897-0.118-1.309-0.369
			c-1.175-0.723-1.544-2.256-0.824-3.432l0.093-0.144c0.749-1.161,2.299-1.492,3.456-0.745c1.156,0.748,1.49,2.296,0.741,3.456
			l-2.101-1.354l2.073,1.396C460.144,385.521,459.322,385.943,458.482,385.943z M38.823,381.58c-0.841,0-1.662-0.424-2.134-1.193
			l-0.06-0.098c-0.719-1.18-0.345-2.717,0.834-3.436c1.179-0.724,2.717-0.351,3.436,0.834l0.053,0.086
			c0.722,1.178,0.352,2.717-0.825,3.438C39.72,381.461,39.269,381.58,38.823,381.58z M467.293,371.059
			c-0.391,0-0.787-0.093-1.155-0.287c-1.209-0.643-1.688-2.117-1.062-3.334l0.096-0.176c0.678-1.203,2.201-1.629,3.404-0.953
			c1.203,0.678,1.63,2.201,0.953,3.404l-2.183-1.227l2.164,1.254C469.058,370.576,468.188,371.059,467.293,371.059z M30.3,366.537
			c-0.886,0-1.739-0.473-2.186-1.312l-0.078-0.146c-0.617-1.235-0.117-2.736,1.118-3.354c1.236-0.615,2.737-0.117,3.354,1.116
			c0.648,1.222,0.195,2.753-1.024,3.4C31.106,366.439,30.699,366.537,30.3,366.537z M475.049,355.629
			c-0.354,0-0.719-0.077-1.062-0.238c-1.249-0.589-1.785-2.078-1.197-3.326c0.57-1.258,2.067-1.847,3.325-1.272
			c1.258,0.567,1.829,2.021,1.258,3.272l-0.06,0.129C476.887,355.098,475.987,355.629,475.049,355.629z M22.854,350.941
			c-0.947,0-1.842-0.537-2.25-1.465l-0.054-0.123c-0.542-1.271,0.049-2.737,1.319-3.279c1.271-0.539,2.739,0.05,3.281,1.318
			c0.555,1.265-0.003,2.772-1.268,3.332C23.547,350.872,23.197,350.941,22.854,350.941z M481.698,339.665
			c-0.289,0-0.583-0.051-0.87-0.157c-1.295-0.48-1.954-1.92-1.478-3.214l0.051-0.123c0.489-1.29,1.938-1.935,3.228-1.442
			c1.29,0.494,1.938,1.938,1.442,3.229l-0.029,0.078C483.668,339.042,482.713,339.665,481.698,339.665z M16.573,334.915
			c-1.03,0-1.995-0.642-2.357-1.669l-0.033-0.092c-0.464-1.301,0.213-2.73,1.514-3.195c1.3-0.461,2.731,0.213,3.195,1.514
			l0.039,0.109c0.459,1.302-0.223,2.729-1.525,3.189C17.13,334.868,16.849,334.915,16.573,334.915z M487.2,323.295
			c-0.249,0-0.501-0.037-0.751-0.115c-1.316-0.414-2.049-1.818-1.635-3.136c0.379-1.328,1.771-2.116,3.096-1.735
			c1.328,0.379,2.103,1.742,1.724,3.069l-0.05,0.166C489.249,322.611,488.263,323.295,487.2,323.295z M11.371,318.434
			c-1.08,0-2.068-0.695-2.38-1.789l-0.042-0.148c-0.353-1.335,0.444-2.703,1.779-3.059c1.336-0.354,2.703,0.444,3.055,1.779
			c0.379,1.327-0.381,2.738-1.709,3.118C11.839,318.4,11.603,318.434,11.371,318.434z M491.54,306.579
			c-0.185,0-0.371-0.021-0.559-0.063c-1.351-0.308-2.188-1.646-1.885-2.994s1.65-2.238,2.993-1.939
			c1.352,0.3,2.208,1.59,1.908,2.938l-0.026,0.119C493.711,305.794,492.681,306.579,491.54,306.579z M7.354,301.627
			c-1.151,0-2.177-0.781-2.422-1.956l-0.028-0.138c-0.264-1.355,0.622-2.668,1.977-2.932c1.358-0.266,2.667,0.621,2.931,1.977
			c0.282,1.354-0.579,2.713-1.93,2.994C7.705,301.609,7.528,301.627,7.354,301.627z M494.703,289.604
			c-0.133,0-0.271-0.012-0.402-0.033c-1.363-0.221-2.289-1.504-2.064-2.864c0.188-1.367,1.448-2.349,2.819-2.157
			c1.368,0.188,2.326,1.432,2.141,2.795l-0.024,0.163C496.969,288.73,495.908,289.604,494.703,289.604z M4.553,284.624
			c-1.243,0-2.32-0.925-2.478-2.188l-0.011-0.082c-0.185-1.369,0.774-2.629,2.143-2.812c1.366-0.188,2.627,0.772,2.812,2.144
			l0.017,0.131c0.171,1.371-0.8,2.621-2.17,2.791C4.761,284.618,4.656,284.624,4.553,284.624z M496.685,272.449
			c-0.065,0-0.14-0.004-0.211-0.01c-1.376-0.113-2.396-1.322-2.279-2.698l0.008-0.103c0.006-0.063,0.014-0.132,0.021-0.191
			c0-0.066,0.003-0.135,0.013-0.201l0.008-0.102c0.108-1.377,1.318-2.392,2.69-2.291c1.376,0.109,2.401,1.315,2.29,2.691
			l-0.01,0.113c-0.005,0.062-0.013,0.125-0.021,0.188c0,0.062-0.003,0.131-0.012,0.193l-0.01,0.113
			C499.064,271.462,497.971,272.449,496.685,272.449z M2.931,267.432c-1.319,0-2.422-1.031-2.495-2.365L0.432,265
			c-0.096-1.377,0.943-2.57,2.321-2.667c1.379-0.101,2.571,0.94,2.667,2.319l0.009,0.146c0.074,1.382-0.983,2.56-2.362,2.634
			C3.022,267.432,2.976,267.432,2.931,267.432z M497.489,255c-0.023,0-0.047,0-0.07,0c-1.38,0-2.468-1.342-2.43-2.721
			c0-1.381,1.119-2.596,2.5-2.596s2.5,1.062,2.5,2.442l-0.002,0.311C499.949,253.793,498.838,255,497.489,255z M2.514,250
			c-0.011,0-0.023,0-0.035,0C1.099,250,0,249.01,0,247.63v-0.073c0-1.381,1.119-2.5,2.5-2.5s2.5,1.119,2.5,2.5v0.142
			C5,249.067,3.879,250,2.514,250z M497.054,237.417c-1.287,0-2.379-0.979-2.481-2.284l-0.016-0.175
			c-0.072-1.378,0.98-2.558,2.359-2.633c1.396-0.085,2.558,0.981,2.633,2.359l-2.496,0.137l2.499-0.095
			c0.102,1.372-0.93,2.577-2.301,2.683C497.185,237.414,497.119,237.417,497.054,237.417z M3.292,232.907
			c-0.069,0-0.138-0.002-0.208-0.008c-1.376-0.113-2.4-1.32-2.287-2.696l0.006-0.073c0.095-1.377,1.288-2.416,2.665-2.323
			c1.377,0.094,2.417,1.288,2.323,2.665l-0.011,0.141C5.674,231.918,4.58,232.907,3.292,232.907z M495.424,220.237
			c-1.257,0-2.34-0.945-2.479-2.224c-0.188-1.368,0.767-2.65,2.135-2.837c1.363-0.188,2.625,0.748,2.812,2.116l0.021,0.17
			c0.152,1.372-0.836,2.608-2.208,2.761C495.609,220.232,495.516,220.237,495.424,220.237z M5.25,215.751
			c-0.125,0-0.252-0.01-0.38-0.029c-1.365-0.208-2.302-1.484-2.094-2.849l0.01-0.068c0.188-1.368,1.447-2.321,2.816-2.138
			c1.368,0.188,2.325,1.448,2.138,2.816l-0.021,0.144C7.529,214.865,6.463,215.751,5.25,215.751z M492.582,203.188
			c-1.141,0-2.166-0.778-2.427-1.937l-0.037-0.178c-0.268-1.355,0.621-2.667,1.977-2.931c1.354-0.264,2.668,0.622,2.936,1.977
			l-2.454,0.477l2.462-0.439c0.282,1.344-0.569,2.68-1.911,2.972C492.941,203.168,492.76,203.188,492.582,203.188z M8.388,198.77
			c-0.18,0-0.362-0.02-0.545-0.06c-1.348-0.299-2.197-1.635-1.898-2.983l0.018-0.079c0.286-1.351,1.611-2.217,2.962-1.929
			c1.351,0.285,2.215,1.612,1.929,2.962l-0.028,0.131C10.567,197.977,9.534,198.77,8.388,198.77z M488.567,186.407
			c-1.113,0-2.133-0.75-2.419-1.878c-0.375-1.329,0.393-2.734,1.722-3.108c1.322-0.375,2.702,0.375,3.077,1.705l0.043,0.159
			c0.344,1.337-0.461,2.7-1.798,3.044C488.983,186.381,488.773,186.407,488.567,186.407z M12.701,182.049
			c-0.238,0-0.48-0.034-0.719-0.106c-1.323-0.397-2.073-1.791-1.676-3.113l0.019-0.062c0.375-1.33,1.758-2.101,3.084-1.729
			c1.329,0.374,2.103,1.755,1.729,3.084l-0.042,0.144C14.77,181.35,13.776,182.049,12.701,182.049z M483.366,169.941
			c-1.001,0-1.941-0.603-2.32-1.595l-0.062-0.172c-0.453-1.304,0.232-2.729,1.54-3.183c1.302-0.455,2.729,0.236,3.183,1.54
			l-2.361,0.821l2.374-0.786c0.474,1.29-0.183,2.733-1.469,3.213C483.959,169.889,483.66,169.941,483.366,169.941z M18.177,165.671
			c-0.293,0-0.591-0.052-0.881-0.161c-1.292-0.487-1.945-1.929-1.458-3.221l0.026-0.071c0.47-1.299,1.903-1.967,3.202-1.499
			c1.298,0.47,1.969,1.904,1.499,3.202l-0.049,0.131C20.14,165.054,19.188,165.671,18.177,165.671z M477.053,153.9
			c-0.979,0-1.903-0.578-2.308-1.537c-0.564-1.26-0.009-2.759,1.251-3.323c1.261-0.564,2.729-0.021,3.295,1.24l0.067,0.156
			c0.528,1.274-0.068,2.738-1.347,3.271C477.701,153.838,477.374,153.9,477.053,153.9z M24.8,149.698
			c-0.352,0-0.708-0.074-1.048-0.231c-1.253-0.58-1.799-2.066-1.219-3.319l0.032-0.07c0.564-1.26,2.043-1.823,3.303-1.26
			c1.26,0.564,1.824,2.043,1.26,3.303l-0.058,0.126C26.647,149.16,25.744,149.698,24.8,149.698z M469.616,138.324
			c-0.896,0-1.761-0.482-2.21-1.328l-0.061-0.109c-0.641-1.224-0.167-2.734,1.06-3.374c1.223-0.64,2.729-0.167,3.374,1.057
			l0.043,0.081c0.646,1.219,0.185,2.733-1.035,3.381C470.413,138.229,470.012,138.324,469.616,138.324z M32.522,134.184
			c-0.393,0-0.789-0.093-1.155-0.29c-1.215-0.655-1.692-2.131-1.038-3.346l0.059-0.109c0.662-1.211,2.18-1.658,3.393-0.994
			c1.211,0.663,1.656,2.182,0.994,3.393C34.318,133.686,33.43,134.184,32.522,134.184z M461.107,123.301
			c-0.851,0-1.677-0.431-2.146-1.209c-0.722-1.177-0.375-2.754,0.802-3.476c1.182-0.724,2.692-0.391,3.415,0.787l0.064,0.106
			c0.713,1.182,0.333,2.719-0.854,3.432C461.993,123.185,461.548,123.301,461.107,123.301z M41.322,119.353
			c-0.464,0-0.934-0.129-1.353-0.4c-1.16-0.749-1.494-2.296-0.745-3.456l0.042-0.066c0.735-1.169,2.277-1.521,3.447-0.785
			c1.169,0.735,1.521,2.279,0.785,3.447l-0.074,0.115C42.947,118.948,42.143,119.353,41.322,119.353z M451.559,108.894
			c-0.756,0-1.5-0.343-1.984-0.998l-0.106-0.148c-0.792-1.131-0.517-2.69,0.614-3.481c1.132-0.792,2.688-0.517,3.479,0.614
			l-2.048,1.434l2.07-1.402c0.805,1.113,0.57,2.679-0.537,3.492C452.596,108.734,452.074,108.894,451.559,108.894z M51.134,105.125
			c-0.52,0-1.044-0.161-1.493-0.496c-1.107-0.825-1.335-2.392-0.509-3.499l0.047-0.064c0.813-1.117,2.377-1.361,3.493-0.548
			c1.116,0.813,1.361,2.377,0.548,3.493l-0.081,0.108C52.649,104.778,51.896,105.125,51.134,105.125z M441.051,95.191
			c-0.698,0-1.391-0.293-1.883-0.867l-0.115-0.14c-0.867-1.074-0.699-2.648,0.375-3.515c1.077-0.868,2.649-0.698,3.52,0.375
			L441,92.614l1.97-1.54c0.88,1.056,0.752,2.634-0.297,3.521C442.198,94.995,441.623,95.191,441.051,95.191z M61.914,91.621
			c-0.576,0-1.154-0.198-1.626-0.602c-1.048-0.898-1.17-2.477-0.271-3.525l0.067-0.079c0.896-1.049,2.474-1.173,3.524-0.276
			c1.05,0.897,1.173,2.475,0.276,3.524l-0.072,0.084C63.318,91.324,62.618,91.621,61.914,91.621z M429.63,82.252
			c-0.655,0-1.311-0.256-1.801-0.766l-0.092-0.097c-0.947-1.004-0.901-2.586,0.103-3.534c1.005-0.947,2.586-0.902,3.534,0.103
			l0.057,0.06c0.958,0.994,0.932,2.577-0.062,3.535C430.879,82.02,430.254,82.252,429.63,82.252z M73.604,78.899
			c-0.632,0-1.264-0.238-1.75-0.715c-0.986-0.967-1.001-2.549-0.034-3.535l0.075-0.077c0.968-0.985,2.551-1,3.536-0.034
			c0.985,0.967,1,2.55,0.034,3.536L75.39,78.15C74.899,78.648,74.252,78.899,73.604,78.899z M417.321,70.13
			c-0.603,0-1.2-0.214-1.683-0.648l-0.098-0.09c-1.014-0.938-1.074-2.52-0.136-3.533c0.937-1.012,2.52-1.074,3.532-0.136L419,65.779
			c1.022,0.928,1.102,2.509,0.172,3.532C418.681,69.854,418.002,70.13,417.321,70.13z M86.148,67.021
			c-0.697,0-1.39-0.29-1.884-0.856c-0.908-1.041-0.801-2.62,0.239-3.528l0.062-0.054c1.031-0.918,2.611-0.826,3.53,0.204
			c0.918,1.031,0.827,2.611-0.204,3.53l-0.1,0.088C87.317,66.818,86.731,67.021,86.148,67.021z M404.198,58.89
			c-0.549,0-1.104-0.18-1.564-0.551c-1.081-0.858-1.299-2.459-0.438-3.541c0.854-1.083,2.395-1.292,3.477-0.434l0.097,0.077
			c1.076,0.865,1.247,2.438,0.387,3.515C405.655,58.571,404.93,58.89,404.198,58.89z M99.511,56.004
			c-0.747,0-1.485-0.324-1.973-0.953c-0.847-1.091-0.68-2.637,0.411-3.483l0.107-0.082c1.1-0.836,2.668-0.62,3.502,0.481
			c0.834,1.1,0.619,2.668-0.48,3.502C100.615,55.829,100.061,56.004,99.511,56.004z M390.315,48.588
			c-0.475,0-0.946-0.133-1.369-0.413l-0.146-0.099c-1.131-0.792-1.402-2.351-0.611-3.481c0.793-1.131,2.352-1.406,3.479-0.614
			l-1.434,2.048l1.47-2.023c1.142,0.769,1.455,2.322,0.688,3.467C391.914,48.195,391.122,48.588,390.315,48.588z M113.545,46.02
			c-0.814,0-1.613-0.397-2.093-1.129c-0.757-1.155-0.435-2.705,0.72-3.462l0.066-0.043c1.146-0.769,2.7-0.465,3.469,0.68
			c0.771,1.146,0.466,2.699-0.68,3.469l-0.113,0.075C114.491,45.887,114.015,46.02,113.545,46.02z M375.761,39.283
			c-0.442,0-0.896-0.119-1.305-0.369c-1.195-0.691-1.623-2.231-0.932-3.426c0.688-1.196,2.198-1.615,3.396-0.924l0.148,0.088
			c1.177,0.721,1.547,2.261,0.821,3.438C377.423,38.859,376.602,39.283,375.761,39.283z M128.266,36.996
			c-0.874,0-1.723-0.459-2.181-1.275c-0.677-1.203-0.25-2.728,0.953-3.404l0.079-0.044c1.199-0.684,2.726-0.268,3.411,0.93
			c0.685,1.199,0.269,2.726-0.93,3.411l-0.108,0.061C129.102,36.893,128.681,36.996,128.266,36.996z M360.578,31.019
			c-0.376,0-0.757-0.085-1.116-0.265l-0.097-0.048c-1.234-0.617-1.735-2.119-1.118-3.354c0.618-1.235,2.117-1.737,3.354-1.118
			l0.101,0.048c1.23,0.617,1.731,2.119,1.118,3.354C362.378,30.512,361.495,31.019,360.578,31.019z M143.574,29.02
			c-0.939,0-1.838-0.531-2.264-1.438c-0.587-1.25-0.05-2.739,1.2-3.326l0.069-0.033c1.244-0.602,2.738-0.083,3.34,1.159
			c0.603,1.243,0.083,2.738-1.159,3.34l-0.125,0.059C144.292,28.944,143.93,29.02,143.574,29.02z M344.849,23.838
			c-0.313,0-0.64-0.061-0.947-0.189l-0.104-0.041c-1.272-0.525-1.885-1.987-1.355-3.263c0.522-1.277,1.983-1.886,3.264-1.36
			l0.1,0.041c1.276,0.525,1.889,1.987,1.359,3.263C346.764,23.254,345.831,23.838,344.849,23.838z M159.455,22.109
			c-1.001,0-1.957-0.589-2.345-1.566c-0.51-1.283,0.083-2.723,1.366-3.232l0.129-0.05c1.289-0.493,2.734,0.152,3.228,1.442
			c0.493,1.29-0.152,2.735-1.442,3.228C160.085,22.051,159.768,22.109,159.455,22.109z M328.674,17.79
			c-0.272,0-0.557-0.046-0.832-0.143c-1.312-0.431-2.051-1.852-1.62-3.164c0.436-1.312,1.819-2.032,3.132-1.603l0.152,0.052
			c1.302,0.459,1.985,1.888,1.525,3.189C330.669,17.148,329.704,17.79,328.674,17.79z M175.662,16.373
			c-1.063,0-2.049-0.683-2.384-1.751c-0.414-1.317,0.318-2.721,1.635-3.134l0.092-0.029c1.316-0.421,2.722,0.307,3.141,1.623
			s-0.307,2.722-1.623,3.141l-0.112,0.035C176.163,16.335,175.91,16.373,175.662,16.373z M312.114,12.893
			c-0.212,0-0.426-0.027-0.644-0.083c-1.338-0.344-2.187-1.718-1.843-3.056c0.343-1.336,1.658-2.156,3-1.81l0.118,0.031
			c1.335,0.352,2.132,1.72,1.779,3.055C314.233,12.151,313.222,12.893,312.114,12.893z M192.372,11.746
			c-1.138,0-2.195-0.762-2.469-1.907c-0.322-1.343,0.458-2.681,1.801-3.002l0.112-0.027c1.341-0.318,2.69,0.515,3.007,1.858
			c0.317,1.344-0.515,2.69-1.858,3.008C192.767,11.723,192.568,11.746,192.372,11.746z M295.255,9.166
			c-0.157,0-0.319-0.015-0.479-0.046c-1.355-0.246-2.297-1.552-2.053-2.911c0.245-1.358,1.508-2.267,2.868-2.023l0.14,0.026
			c1.354,0.264,2.24,1.576,1.979,2.931C297.475,8.336,296.428,9.166,295.255,9.166z M209.208,8.338c-1.2,0-2.259-0.867-2.463-2.089
			c-0.227-1.362,0.693-2.65,2.055-2.877l0.111-0.019c1.363-0.222,2.649,0.699,2.873,2.062c0.224,1.362-0.699,2.648-2.061,2.872
			l-0.101,0.017C209.482,8.327,209.344,8.338,209.208,8.338z M278.175,6.619c-0.101,0-0.202-0.006-0.305-0.019
			c-1.372-0.153-2.401-1.394-2.249-2.766s1.334-2.371,2.721-2.213l0.133,0.015c1.371,0.167,2.346,1.413,2.18,2.784
			C280.499,5.688,279.421,6.619,278.175,6.619z M226.333,6.105c-1.273,0-2.362-0.968-2.486-2.261
			c-0.132-1.375,0.875-2.596,2.25-2.728l0.107-0.01c1.37-0.139,2.596,0.875,2.728,2.25c0.131,1.375-0.876,2.596-2.25,2.728
			l-0.107,0.01C226.493,6.102,226.412,6.105,226.333,6.105z M260.955,5.252c-0.047,0-0.094-0.001-0.141-0.004
			c-1.381-0.056-2.487-1.221-2.436-2.601c0.059-1.38,1.158-2.472,2.562-2.398l0.146,0.007c1.379,0.077,2.437,1.256,2.354,2.635
			C263.375,4.223,262.271,5.252,260.955,5.252z M243.645,5c-1.35,0-2.497-1.037-2.534-2.394c-0.038-1.38,1.014-2.547,2.395-2.585
			L243.646,0c0.012,0,0.023,0,0.035,0c1.365,0,2.48,1.097,2.499,2.466C246.199,3.847,245.095,5,243.714,5
			C243.691,5,243.667,5,243.645,5z"/>
	</g>
</g>
</svg>
