<?xml version="1.0" encoding="utf-8"?>
<!-- Generator: Adobe Illustrator 21.0.0, SVG Export Plug-In . SVG Version: 6.00 Build 0)  -->
<svg version="1.1" id="Outlined-Dashed-D5" xmlns="http://www.w3.org/2000/svg" xmlns:xlink="http://www.w3.org/1999/xlink" x="0px"
	 y="0px" viewBox="0 0 500 500" enable-background="new 0 0 500 500" xml:space="preserve">
<g id="change1">
	<path fill="#FEC606" d="M426.8,73.2C379.5,26,316.8,0,250,0S120.4,26,73.2,73.2S0,183.2,0,250s25.9,129.6,73.2,176.8
		S183.2,500,250,500s129.6-26.1,176.8-73.2C474,379.5,500,316.8,500,250S474.1,120.4,426.8,73.2z M416.2,416.2
		C371.8,460.5,312.7,485,250,485s-121.8-24.4-166.2-68.8C39.5,371.8,15,312.8,15,250S39.4,128.2,83.8,83.8
		C128.2,39.5,187.2,15,250,15s121.9,24.4,166.2,68.8C460.5,128.2,485,187.2,485,250C485,312.7,460.6,371.8,416.2,416.2z"/>
	<path fill="#FEC606" d="M38.4004,263.335l-9.9805,0.6191c0.293,4.7227,0.7412,9.4873,1.3325,14.1621l9.9209-1.2539
		C39.1089,272.3975,38.6807,267.8457,38.4004,263.335z"/>
	<path fill="#FEC606" d="M48.8022,182.9668l-9.4873-3.1592c-1.4941,4.4863-2.8594,9.0752-4.0576,13.6401l9.6719,2.5391
		C46.0732,191.6304,47.3765,187.2495,48.8022,182.9668z"/>
	<path fill="#FEC606" d="M41.9033,209.2295l-9.8154-1.9121c-0.9033,4.6372-1.6665,9.3628-2.269,14.0454l9.918,1.2764
		C40.312,218.1685,41.041,213.6567,41.9033,209.2295z"/>
	<path fill="#FEC606" d="M38.4321,236.1646l-9.9795-0.6426c-0.3027,4.7002-0.459,9.4834-0.4648,14.2168l10,0.0127
		C37.9937,245.2271,38.1431,240.6558,38.4321,236.1646z"/>
	<path fill="#FEC606" d="M41.8086,290.2783l-9.8203,1.8887c0.8916,4.6367,1.9463,9.3057,3.1357,13.8789l9.6777-2.5176
		C43.6665,299.1631,42.6597,294.7051,41.8086,290.2783z"/>
	<path fill="#FEC606" d="M48.6445,316.5586l-9.4951,3.1367c1.4839,4.4912,3.1343,8.9941,4.9062,13.3818l9.2725-3.7441
		C51.6367,325.1445,50.061,320.8457,48.6445,316.5586z"/>
	<path fill="#FEC606" d="M80.7871,393.7285c3.0659,3.6064,6.2817,7.1533,9.5581,10.542l7.1895-6.9512
		c-3.1294-3.2363-6.2007-6.623-9.1294-10.0674L80.7871,393.7285z"/>
	<path fill="#FEC606" d="M81.0376,105.9771c-3.0664,3.5938-6.0547,7.3315-8.8818,11.1089l8.0059,5.9922
		c2.7007-3.6079,5.5547-7.1777,8.4834-10.6108L81.0376,105.9771z"/>
	<path fill="#FEC606" d="M100.8359,85.5615c-3.4971,3.1743-6.938,6.5029-10.2261,9.8936l7.1787,6.9619
		c3.1411-3.2388,6.4272-6.4185,9.7681-9.4502L100.8359,85.5615z"/>
	<path fill="#FEC606" d="M58.8257,341.7754l-9.0117,4.334c2.0479,4.2578,4.2632,8.5078,6.5835,12.6309l8.7148-4.9043
		C62.8965,349.8984,60.7812,345.8408,58.8257,341.7754z"/>
	<path fill="#FEC606" d="M63.7769,370.9199c2.5752,3.959,5.3149,7.8877,8.1421,11.6777l8.0156-5.9785
		c-2.7002-3.6201-5.3164-7.3721-7.7759-11.1523L63.7769,370.9199z"/>
	<path fill="#FEC606" d="M59.0181,157.8262l-9.0029-4.3535c-2.0527,4.2456-3.9946,8.6147-5.771,12.9854l9.2637,3.7656
		C55.2041,166.0508,57.0581,161.8794,59.0181,157.8262z"/>
	<path fill="#FEC606" d="M285.5498,30.8198c-4.6602-0.75-9.4072-1.3589-14.1104-1.8091l-0.9531,9.9541
		c4.4912,0.4302,9.0244,1.0117,13.4736,1.728L285.5498,30.8198z"/>
	<path fill="#FEC606" d="M455.1348,196.2305l9.6758-2.5283c-1.1934-4.5669-2.5527-9.1577-4.041-13.6445l-9.4922,3.1475
		C452.6982,187.4888,453.9961,191.8711,455.1348,196.2305z"/>
	<path fill="#FEC606" d="M446.5781,170.437l9.2676-3.7549c-1.7764-4.3853-3.7188-8.7676-5.7744-13.0264l-9.0059,4.3457
		C443.0273,162.0674,444.8818,166.251,446.5781,170.437z"/>
	<path fill="#FEC606" d="M434.7646,145.9473l8.709-4.9141c-2.3203-4.1123-4.8086-8.207-7.3945-12.1709l-8.375,5.4648
		C430.1738,138.1118,432.5488,142.0215,434.7646,145.9473z"/>
	<path fill="#FEC606" d="M72.3735,134.2056l-8.3721-5.4697c-2.5811,3.9512-5.0674,8.0371-7.3906,12.1455l8.7051,4.9219
		C67.5342,141.8804,69.9087,137.9785,72.3735,134.2056z"/>
	<path fill="#FEC606" d="M100.5522,414.1807c3.4873,3.1748,7.126,6.2832,10.8154,9.2373l6.25-7.8066
		c-3.5249-2.8223-7.001-5.791-10.332-8.8252L100.5522,414.1807z"/>
	<path fill="#FEC606" d="M460.2959,222.8911l9.9199-1.2656c-0.5986-4.6934-1.3574-9.4204-2.2529-14.0488l-9.8184,1.9014
		C459.001,213.8965,459.7246,218.4097,460.2959,222.8911z"/>
	<path fill="#FEC606" d="M339.9512,46.9673c-4.3145-1.9141-8.7441-3.7114-13.168-5.3413l-3.457,9.3838
		c4.2217,1.5557,8.4512,3.2705,12.5684,5.0981L339.9512,46.9673z"/>
	<path fill="#FEC606" d="M427.9258,117.1943c-2.833-3.7891-5.8213-7.5308-8.8828-11.1221l-7.6094,6.4873
		c2.9229,3.4297,5.7773,7.0034,8.4824,10.6221L427.9258,117.1943z"/>
	<path fill="#FEC606" d="M313.2812,37.1377c-4.5293-1.3442-9.1602-2.5576-13.7656-3.6069l-2.2207,9.75
		c4.3955,1.0015,8.8174,2.1602,13.1406,3.4438L313.2812,37.1377z"/>
	<path fill="#FEC606" d="M409.4746,95.542c-3.2832-3.3887-6.7217-6.7188-10.2178-9.897l-6.7266,7.4004
		c3.3408,3.0361,6.626,6.2178,9.7627,9.4556L409.4746,95.542z"/>
	<path fill="#FEC606" d="M365.1299,60.1357c-4.0342-2.4512-8.1992-4.8022-12.3789-6.9888l-4.6348,8.8613
		c3.9922,2.0879,7.9688,4.333,11.8203,6.6733L365.1299,60.1357z"/>
	<path fill="#FEC606" d="M388.4287,76.4194c-3.6875-2.9438-7.5195-5.8086-11.3896-8.5146l-5.7305,8.1963
		c3.6982,2.585,7.3584,5.3213,10.8799,8.1328L388.4287,76.4194z"/>
	<path fill="#FEC606" d="M381.8975,415.998l6.2266,7.8262c3.7012-2.9453,7.3516-6.0449,10.8477-9.2109l-6.7129-7.4121
		C388.9199,410.2256,385.4336,413.1855,381.8975,415.998z"/>
	<path fill="#FEC606" d="M419.6914,377.1201l7.998,6.002c2.834-3.7764,5.582-7.6934,8.168-11.6406l-8.3652-5.4805
		C425.0225,369.7725,422.3975,373.5137,419.6914,377.1201z"/>
	<path fill="#FEC606" d="M402.0381,397.7617l7.1699,6.9707c3.2891-3.3838,6.5146-6.9199,9.5859-10.5107l-7.5996-6.5
		C408.2607,391.1514,405.1797,394.5293,402.0381,397.7617z"/>
	<path fill="#FEC606" d="M359.5918,431.5273l5.1758,8.5566c4.041-2.4443,8.0576-5.0547,11.9404-7.7578l-5.7148-8.207
		C367.2861,426.7012,363.4492,429.1934,359.5918,431.5273z"/>
	<path fill="#FEC606" d="M335.4756,444.0771l4.0352,9.1504c4.3242-1.9072,8.6455-3.9824,12.8438-6.167l-4.6172-8.8711
		C343.7295,440.2754,339.6035,442.2568,335.4756,444.0771z"/>
	<path fill="#FEC606" d="M309.9561,453.417l2.8223,9.5938c4.5322-1.334,9.0791-2.833,13.5146-4.4561l-3.4355-9.3906
		C318.6221,450.7129,314.2812,452.1445,309.9561,453.417z"/>
	<path fill="#FEC606" d="M434.5615,354.4121l8.6992,4.9316c2.3252-4.1006,4.5498-8.335,6.6113-12.583l-8.9971-4.3652
		C438.9062,346.4521,436.7822,350.4951,434.5615,354.4121z"/>
	<path fill="#FEC606" d="M123.0791,67.8223c-3.8682,2.7002-7.7056,5.5649-11.4053,8.5151l6.2344,7.8184
		c3.5342-2.8179,7.1997-5.5542,10.8945-8.1333L123.0791,67.8223z"/>
	<path fill="#FEC606" d="M471.5645,235.7866l-9.9805,0.6299c0.2842,4.4951,0.4277,9.0654,0.4277,13.5547l-0.001,0.5376h10
		l0.001-0.5088C472.0117,245.2725,471.8613,240.4902,471.5645,235.7866z"/>
	<path fill="#FEC606" d="M283.4658,459.3857l1.5645,9.877c4.667-0.7402,9.3682-1.6406,13.9736-2.6777l-2.1973-9.7559
		C292.4102,457.8193,287.9209,458.6797,283.4658,459.3857z"/>
	<path fill="#FEC606" d="M446.3984,330.0068l9.2598,3.7754c1.7812-4.3691,3.4453-8.8584,4.9453-13.3428l-9.4844-3.1719
		C449.6875,321.5488,448.0996,325.835,446.3984,330.0068z"/>
	<path fill="#FEC606" d="M455.0078,304.2529l9.668,2.5508c1.2041-4.5596,2.2754-9.2246,3.1855-13.8672l-9.8125-1.9238
		C457.1797,295.4443,456.1562,299.8994,455.0078,304.2529z"/>
	<path fill="#FEC606" d="M460.2324,277.6045l9.916,1.2891c0.6084-4.6826,1.0732-9.4453,1.3818-14.1562l-9.9785-0.6543
		C461.2568,268.584,460.8135,273.1328,460.2324,277.6045z"/>
	<path fill="#FEC606" d="M147.02,446.7324c4.1768,2.1914,8.4805,4.2754,12.7915,6.1943l4.0664-9.1367
		c-4.1157-1.832-8.2251-3.8213-12.2129-5.9131L147.02,446.7324z"/>
	<path fill="#FEC606" d="M172.9707,458.2832c4.4268,1.6377,8.9683,3.1533,13.4985,4.5039l2.8584-9.582
		c-4.3252-1.29-8.6611-2.7373-12.8872-4.3008L172.9707,458.2832z"/>
	<path fill="#FEC606" d="M173.4629,41.5356c-4.4385,1.6299-8.8833,3.4272-13.2109,5.3423l4.0459,9.1445
		c4.1318-1.8281,8.375-3.5439,12.6123-5.1001L173.4629,41.5356z"/>
	<path fill="#FEC606" d="M122.7495,431.9463c3.8716,2.7129,7.875,5.3311,11.8994,7.7822l5.2031-8.5391
		c-3.8438-2.3418-7.6675-4.8428-11.3652-7.4326L122.7495,431.9463z"/>
	<path fill="#FEC606" d="M147.4165,53.0591c-4.1924,2.188-8.3667,4.5405-12.4077,6.9922l5.1875,8.5498
		c3.8584-2.3413,7.8442-4.5874,11.8472-6.6768L147.4165,53.0591z"/>
	<path fill="#FEC606" d="M257.2451,28.104c-2.3896-0.0767-4.8105-0.1157-7.1963-0.1157c-2.3105-0.0029-4.7061,0.0356-7.0293,0.1079
		l0.3105,9.9951c2.2173-0.0688,4.5005-0.1362,6.7134-0.103c2.2817,0,4.5962,0.0371,6.8794,0.1108L257.2451,28.104z"/>
	<path fill="#FEC606" d="M256.4238,461.916l0.2969,9.9961c4.7197-0.1406,9.4961-0.4336,14.1953-0.8721l-0.9297-9.957
		C265.4971,461.502,260.9336,461.7822,256.4238,461.916z"/>
	<path fill="#FEC606" d="M228.3018,470.9639c4.6836,0.4551,9.459,0.7656,14.1938,0.9229l0.333-9.9941
		c-4.5244-0.1504-9.0864-0.4473-13.5601-0.8818L228.3018,470.9639z"/>
	<path fill="#FEC606" d="M200.7417,33.4731c-4.606,1.0435-9.2388,2.2515-13.7695,3.5903l2.834,9.5898
		c4.3252-1.2783,8.748-2.4312,13.1445-3.4272L200.7417,33.4731z"/>
	<path fill="#FEC606" d="M200.23,466.4102c4.6016,1.0537,9.2998,1.9717,13.9639,2.7285l1.6016-9.8711
		c-4.4536-0.7227-8.9395-1.5986-13.3325-2.6055L200.23,466.4102z"/>
	<path fill="#FEC606" d="M228.8252,28.9854c-4.7114,0.4458-9.4595,1.0488-14.1128,1.7925l1.5781,9.875
		c4.4434-0.7104,8.9775-1.2861,13.4771-1.7124L228.8252,28.9854z"/>
</g>
</svg>
