<?xml version="1.0" encoding="utf-8"?>
<!-- Generator: Adobe Illustrator 15.0.0, SVG Export Plug-In . SVG Version: 6.00 Build 0)  -->
<!DOCTYPE svg PUBLIC "-//W3C//DTD SVG 1.1//EN" "http://www.w3.org/Graphics/SVG/1.1/DTD/svg11.dtd">
<svg version="1.1" id="Layer_1" xmlns="http://www.w3.org/2000/svg" xmlns:xlink="http://www.w3.org/1999/xlink" x="0px" y="0px"
	 width="487.37px" height="423.426px" viewBox="0 0 487.37 423.426" enable-background="new 0 0 487.37 423.426"
	 xml:space="preserve">
<g id="change1">
	<path fill="#ED1C24" d="M483.181,385.631l0.002-0.006L261.219,12.169l-0.114-0.008C256.922,4.927,249.19,0,240.231,0
		c-8.034,0-15.099,3.957-19.499,9.979l-0.062-0.002l-0.146,0.254c-0.815,1.148-1.504,2.379-2.112,3.663L4.081,385.785l0.003,0.006
		C1.509,389.637,0,394.254,0,399.229c0,13.363,10.833,24.197,24.198,24.197h438.981c13.361,0,24.191-10.834,24.191-24.197
		C487.37,394.186,485.821,389.508,483.181,385.631z"/>
</g>
</svg>
