<?xml version="1.0" encoding="utf-8"?>
<!-- Generator: Adobe Illustrator 21.0.0, SVG Export Plug-In . SVG Version: 6.00 Build 0)  -->
<svg version="1.1" id="Circle-Dashed-D5" xmlns="http://www.w3.org/2000/svg" xmlns:xlink="http://www.w3.org/1999/xlink" x="0px"
	 y="0px" viewBox="0 0 500 500" enable-background="new 0 0 500 500" xml:space="preserve">
<g id="change1">
	<circle fill="#FFF6A1" cx="249" cy="249" r="241"/>
</g>
<g id="change2">
	<path fill="#FEC606" d="M426.8,73.2C379.5,26,316.8,0,250,0S120.4,26,73.2,73.2S0,183.2,0,250s25.9,129.6,73.2,176.8
		S183.2,500,250,500s129.6-26.1,176.8-73.2C474,379.5,500,316.8,500,250S474.1,120.4,426.8,73.2z M416.2,416.2
		C371.8,460.5,312.7,485,250,485s-121.8-24.4-166.2-68.8C39.5,371.8,15,312.8,15,250S39.4,128.2,83.8,83.8
		C128.2,39.5,187.2,15,250,15s121.9,24.4,166.2,68.8C460.5,128.2,485,187.2,485,250C485,312.7,460.6,371.8,416.2,416.2z"/>
	<g>
		<path fill="#FEC606" d="M44.2432,262.9654l-9.7049,0.6021c0.2849,4.5923,0.7207,9.2253,1.2957,13.7711l9.647-1.2193
			C44.9322,271.7776,44.5158,267.3516,44.2432,262.9654z"/>
		<path fill="#FEC606" d="M54.3579,184.8164l-9.2253-3.0719c-1.4529,4.3625-2.7804,8.8246-3.9456,13.2635l9.4048,2.469
			C51.7042,193.2407,52.9715,188.9809,54.3579,184.8164z"/>
		<path fill="#FEC606" d="M47.6494,210.3539l-9.5444-1.8593c-0.8784,4.5092-1.6205,9.1042-2.2064,13.6576l9.6441,1.2411
			C46.1021,219.046,46.811,214.6589,47.6494,210.3539z"/>
		<path fill="#FEC606" d="M44.2741,236.5452l-9.7039-0.6248c-0.2944,4.5704-0.4463,9.2215-0.452,13.8242l9.7239,0.0123
			C43.8477,245.3575,43.993,240.9124,44.2741,236.5452z"/>
		<path fill="#FEC606" d="M47.5573,289.1647l-9.5491,1.8365c0.867,4.5087,1.8925,9.0487,3.0492,13.4957l9.4105-2.4481
			C49.3639,297.8042,48.3849,293.4693,47.5573,289.1647z"/>
		<path fill="#FEC606" d="M54.2045,314.7194l-9.2329,3.0501c1.4429,4.3672,3.0477,8.7458,4.7708,13.0123l9.0164-3.6407
			C57.1141,323.0682,55.5819,318.8881,54.2045,314.7194z"/>
		<path fill="#FEC606" d="M85.4595,389.7584c2.9813,3.5069,6.1083,6.9558,9.2942,10.2509l6.9909-6.7592
			c-3.043-3.147-6.0295-6.4402-8.8773-9.7894L85.4595,389.7584z"/>
		<path fill="#FEC606" d="M85.7031,109.9526c-2.9817,3.4945-5.8875,7.1291-8.6366,10.8021l7.7848,5.8267
			c2.6261-3.5083,5.4013-6.9795,8.2491-10.3178L85.7031,109.9526z"/>
		<path fill="#FEC606" d="M104.9548,90.1008c-3.4005,3.0867-6.7464,6.3234-9.9437,9.6204l6.9805,6.7697
			c3.0544-3.1493,6.2498-6.2412,9.4983-9.1892L104.9548,90.1008z"/>
		<path fill="#FEC606" d="M64.1045,339.2398l-8.7629,4.2143c1.9913,4.1402,4.1455,8.2729,6.4017,12.2821l8.4742-4.7689
			C68.0629,347.1386,66.0061,343.193,64.1045,339.2398z"/>
		<path fill="#FEC606" d="M68.919,367.5796c2.5041,3.8496,5.1682,7.6699,7.9173,11.3553l7.7943-5.8134
			c-2.6256-3.5202-5.1696-7.1685-7.5612-10.8444L68.919,367.5796z"/>
		<path fill="#FEC606" d="M64.2916,160.37l-8.7543-4.2333c-1.9961,4.1284-3.8843,8.3769-5.6116,12.6268l9.0079,3.6617
			C60.583,168.3675,62.3858,164.3113,64.2916,160.37z"/>
		<path fill="#FEC606" d="M284.5682,36.8706c-4.5315-0.7293-9.1475-1.3214-13.7207-1.7591l-0.9268,9.6792
			c4.3672,0.4183,8.7752,0.9838,13.1016,1.6803L284.5682,36.8706z"/>
		<path fill="#FEC606" d="M449.4704,197.7138l9.4086-2.4585c-1.1604-4.4408-2.4823-8.9048-3.9294-13.2678l-9.2301,3.0605
			C447.1012,189.2135,448.3632,193.4748,449.4704,197.7138z"/>
		<path fill="#FEC606" d="M441.1501,172.6326l9.0117-3.6512c-1.7273-4.2642-3.6161-8.5255-5.615-12.6667l-8.7572,4.2257
			C437.6973,164.4941,439.5006,168.5621,441.1501,172.6326z"/>
		<path fill="#FEC606" d="M429.6628,148.8191l8.4685-4.7784c-2.2563-3.9988-4.6758-7.9804-7.1904-11.8348l-8.1437,5.3139
			C425.1987,141.2,427.5081,145.0017,429.6628,148.8191z"/>
		<path fill="#FEC606" d="M77.2783,137.4016l-8.1409-5.3187c-2.5098,3.8421-4.9275,7.8152-7.1866,11.8101l8.4647,4.786
			C72.5726,144.8645,74.8815,141.0704,77.2783,137.4016z"/>
		<path fill="#FEC606" d="M104.6789,409.6458c3.391,3.0871,6.9292,6.1097,10.5168,8.9822l6.0774-7.5911
			c-3.4276-2.7443-6.8077-5.6311-10.0467-8.5815L104.6789,409.6458z"/>
		<path fill="#FEC606" d="M454.489,223.6383l9.646-1.2307c-0.5821-4.5638-1.3199-9.1603-2.1907-13.6609l-9.5472,1.8489
			C453.2299,214.892,453.9335,219.2806,454.489,223.6383z"/>
		<path fill="#FEC606" d="M337.4674,52.5722c-4.1953-1.8612-8.5027-3.6089-12.8044-5.1938l-3.3616,9.1247
			c4.1051,1.5127,8.2178,3.1802,12.2213,4.9574L337.4674,52.5722z"/>
		<path fill="#FEC606" d="M423.0128,120.8601c-2.7548-3.6844-5.6606-7.3228-8.6375-10.815l-7.3993,6.3082
			c2.8421,3.335,5.6178,6.81,8.2482,10.3288L423.0128,120.8601z"/>
		<path fill="#FEC606" d="M311.5339,43.014c-4.4042-1.3071-8.9072-2.487-13.3855-3.5073l-2.1594,9.4808
			c4.2741,0.9738,8.5739,2.1005,12.7778,3.3488L311.5339,43.014z"/>
		<path fill="#FEC606" d="M405.0711,99.8056c-3.1926-3.2951-6.5361-6.5332-9.9356-9.6237l-6.5408,7.196
			c3.2486,2.9523,6.443,6.0461,9.4931,9.1945L405.0711,99.8056z"/>
		<path fill="#FEC606" d="M361.9508,65.377c-3.9228-2.3835-7.9728-4.6696-12.0371-6.7958l-4.5068,8.6166
			c3.8819,2.0302,7.7487,4.2134,11.4939,6.4891L361.9508,65.377z"/>
		<path fill="#FEC606" d="M384.6063,81.2111c-3.5857-2.8626-7.3119-5.6482-11.0751-8.2795l-5.5722,7.97
			c3.5961,2.5136,7.1552,5.1744,10.5795,7.9082L384.6063,81.2111z"/>
		<path fill="#FEC606" d="M378.2554,411.413l6.0546,7.6101c3.599-2.864,7.1486-5.878,10.5481-8.9566l-6.5275-7.2074
			C385.084,405.7999,381.6939,408.6782,378.2554,411.413z"/>
		<path fill="#FEC606" d="M415.0057,373.6086l7.7772,5.8362c2.7557-3.6721,5.4279-7.4809,7.9424-11.3192l-8.1342-5.3291
			C420.1896,366.4638,417.6371,370.1017,415.0057,373.6086z"/>
		<path fill="#FEC606" d="M397.8399,393.6802l6.972,6.7782c3.1982-3.2903,6.3347-6.7288,9.3212-10.2205l-7.3897-6.3205
			C403.8907,387.2524,400.8947,390.537,397.8399,393.6802z"/>
		<path fill="#FEC606" d="M356.5656,426.5135l5.0329,8.3204c3.9294-2.3769,7.8351-4.9151,11.6107-7.5436l-5.557-7.9804
			C364.0475,421.8206,360.3166,424.244,356.5656,426.5135z"/>
		<path fill="#FEC606" d="M333.1154,438.7168l3.9237,8.8977c4.2048-1.8546,8.4068-3.8724,12.4891-5.9967l-4.4897-8.6261
			C341.1414,435.02,337.1293,436.9467,333.1154,438.7168z"/>
		<path fill="#FEC606" d="M308.3005,447.7987l2.7443,9.3288c4.4071-1.2971,8.8284-2.7548,13.1415-4.333l-3.3407-9.1313
			C316.7272,445.1693,312.5063,446.5614,308.3005,447.7987z"/>
		<path fill="#FEC606" d="M429.4653,351.5276l8.459,4.7955c2.261-3.9874,4.4242-8.1048,6.4288-12.2356l-8.7486-4.2447
			C433.69,343.7874,431.6246,347.7188,429.4653,351.5276z"/>
		<path fill="#FEC606" d="M126.5837,72.8513c-3.7614,2.6256-7.4928,5.4113-11.0903,8.28l6.0622,7.6025
			c3.4366-2.7401,7.0009-5.4008,10.5937-7.9087L126.5837,72.8513z"/>
		<path fill="#FEC606" d="M465.4464,236.1777l-9.7049,0.6125c0.2763,4.371,0.4159,8.8151,0.4159,13.1804l-0.0009,0.5228h9.7239
			l0.0009-0.4947C465.8813,245.4016,465.7351,240.7514,465.4464,236.1777z"/>
		<path fill="#FEC606" d="M282.5417,453.6026l1.5213,9.6042c4.5381-0.7198,9.1095-1.5953,13.5878-2.6038l-2.1366-9.4865
			C291.2391,452.0795,286.8738,452.9161,282.5417,453.6026z"/>
		<path fill="#FEC606" d="M440.9753,327.7962l9.0041,3.6711c1.7321-4.2485,3.3502-8.6138,4.8087-12.9743l-9.2225-3.0843
			C444.1736,319.5718,442.6295,323.7396,440.9753,327.7962z"/>
		<path fill="#FEC606" d="M449.347,302.7535l9.401,2.4803c1.1708-4.4337,2.2126-8.9699,3.0976-13.4843l-9.5415-1.8707
			C451.4589,294.1881,450.4637,298.5202,449.347,302.7535z"/>
		<path fill="#FEC606" d="M454.4273,276.8409l9.6422,1.2535c0.5916-4.5533,1.0436-9.1845,1.3437-13.7654l-9.703-0.6362
			C455.4234,268.0695,454.9923,272.4927,454.4273,276.8409z"/>
		<path fill="#FEC606" d="M149.8636,441.2987c4.0614,2.1309,8.2463,4.1573,12.4383,6.0233l3.9541-8.8844
			c-4.0021-1.7815-7.998-3.7158-11.8757-5.7498L149.8636,441.2987z"/>
		<path fill="#FEC606" d="M175.0977,452.5305c4.3045,1.5925,8.7206,3.0663,13.1258,4.3795l2.7795-9.3174
			c-4.2058-1.2544-8.422-2.6617-12.5314-4.182L175.0977,452.5305z"/>
		<path fill="#FEC606" d="M175.5763,47.2906c-4.3159,1.5849-8.638,3.3326-12.8461,5.1948l3.9342,8.892
			c4.0177-1.7776,8.1437-3.4461,12.264-4.9593L175.5763,47.2906z"/>
		<path fill="#FEC606" d="M126.2632,426.9209c3.7647,2.638,7.6575,5.1838,11.5708,7.5673l5.0594-8.3033
			c-3.7376-2.2771-7.4558-4.709-11.0514-7.2274L126.2632,426.9209z"/>
		<path fill="#FEC606" d="M150.2491,58.4958c-4.0766,2.1276-8.1357,4.4152-12.0651,6.7991l5.0443,8.3137
			c3.7519-2.2767,7.6276-4.4607,11.52-6.4924L150.2491,58.4958z"/>
		<path fill="#FEC606" d="M257.045,34.2298c-2.3237-0.0745-4.6777-0.1125-6.9976-0.1125c-2.2467-0.0028-4.5761,0.0347-6.8352,0.1049
			l0.302,9.7191c2.1561-0.0669,4.3762-0.1325,6.528-0.1002c2.2187,0,4.4693,0.0361,6.6894,0.1078L257.045,34.2298z"/>
		<path fill="#FEC606" d="M256.2464,456.063l0.2887,9.7201c4.5894-0.1367,9.2339-0.4216,13.8033-0.848l-0.904-9.6821
			C265.0692,455.6604,260.6317,455.933,256.2464,456.063z"/>
		<path fill="#FEC606" d="M228.9009,464.8611c4.5543,0.4425,9.1978,0.7445,13.8019,0.8974l0.3238-9.7182
			c-4.3995-0.1462-8.8355-0.4349-13.1856-0.8575L228.9009,464.8611z"/>
		<path fill="#FEC606" d="M202.1019,39.4507c-4.4788,1.0146-8.9837,2.1893-13.3893,3.4912l2.7557,9.325
			c4.2058-1.243,8.5065-2.364,12.7816-3.3326L202.1019,39.4507z"/>
		<path fill="#FEC606" d="M201.6043,460.4331c4.4745,1.0246,9.043,1.9172,13.5783,2.6532l1.5573-9.5985
			c-4.3306-0.7027-8.6926-1.5545-12.9644-2.5335L201.6043,460.4331z"/>
		<path fill="#FEC606" d="M229.4099,35.0868c-4.5813,0.4335-9.1983,1.0199-13.7231,1.743l1.5345,9.6023
			c4.3207-0.6908,8.7296-1.2506,13.1049-1.6651L229.4099,35.0868z"/>
	</g>
</g>
</svg>
