<?xml version="1.0" encoding="utf-8"?>
<!-- Generator: Adobe Illustrator 15.1.0, SVG Export Plug-In . SVG Version: 6.00 Build 0)  -->
<!DOCTYPE svg PUBLIC "-//W3C//DTD SVG 1.1//EN" "http://www.w3.org/Graphics/SVG/1.1/DTD/svg11.dtd">
<svg version="1.1" id="Layer_1" xmlns="http://www.w3.org/2000/svg" xmlns:xlink="http://www.w3.org/1999/xlink" x="0px" y="0px"
	 width="499.998px" height="478.473px" viewBox="0 0 499.998 478.473" enable-background="new 0 0 499.998 478.473"
	 xml:space="preserve">
<g id="change1">
	<path fill="#77B800" d="M498.549,180.603c-3.479-10.703-12.734-18.511-23.875-20.129l-136.902-19.892L276.532,16.486
		C271.545,6.385,261.256,0,250.005,0c-11.25,0-21.527,6.385-26.515,16.486l-61.239,124.096L25.324,160.474
		c-11.141,1.618-20.409,9.426-23.875,20.129c-3.479,10.703-0.584,22.446,7.479,30.304l99.09,96.602L84.642,443.901
		c-1.909,11.104,2.651,22.306,11.749,28.923c9.122,6.616,21.188,7.492,31.148,2.25l122.466-64.426l122.479,64.426
		c4.329,2.274,9.062,3.393,13.756,3.393c6.13,0,12.247-1.909,17.393-5.643c9.098-6.617,13.671-17.818,11.749-28.923l-23.389-136.393
		l99.077-96.602C499.133,203.049,502.027,191.288,498.549,180.603z"/>
</g>
</svg>
