<?xml version="1.0" encoding="utf-8"?>
<!DOCTYPE svg PUBLIC "-//W3C//DTD SVG 1.1//EN" "http://www.w3.org/Graphics/SVG/1.1/DTD/svg11.dtd">
<!-- Generator: Adobe Illustrator 18.1.1, SVG Export Plug-In . SVG Version: 6.00 Build 0)  -->
<svg version="1.1" id="Layer_1" xmlns="http://www.w3.org/2000/svg" xmlns:xlink="http://www.w3.org/1999/xlink" x="0px" y="0px"
	 viewBox="0 0 112.4 106.9" enable-background="new 0 0 112.4 106.9" xml:space="preserve">
<g id="Layer_X">
	<g id="change3">
		<polygon fill="#E74C3A" points="56.2,4.5 72.3,37 108.1,42.2 82.2,67.5 88.3,103.3 56.2,86.4 24.1,103.3 30.3,67.5 4.3,42.2 
			40.2,37 		"/>
	</g>
	<g id="change2">
		<polygon fill="#E74C3A" points="56.2,31.2 64.2,47.5 82.2,50.1 69.2,62.7 72.3,80.6 56.2,72.1 40.2,80.6 43.2,62.7 30.3,50.1 
			48.2,47.5 		"/>
	</g>
	<g id="change1">
		<path fill="#FFFFFF" d="M36.9,85.2l3.7-21.6L24.9,48.3l21.6-3.1l9.7-19.6l9.7,19.6l21.6,3.1L71.9,63.6l3.7,21.6L56.2,75L36.9,85.2
			z M56.2,69.3L68.9,76l-2.4-14.2l10.3-10l-14.2-2.1l-6.4-12.9l-6.4,12.9l-14.2,2.1l10.3,10L43.5,76L56.2,69.3z"/>
		<path fill="#FFFFFF" d="M21.5,106.9l6.6-38.7L0,40.8l38.8-5.6L56.2,0l17.4,35.2l38.8,5.6L84.3,68.2l6.6,38.7L56.2,88.7L21.5,106.9
			z M56.2,84.1l29.4,15.5L80,66.8l23.8-23.2l-32.9-4.8L56.2,9L41.5,38.9L8.6,43.6l23.8,23.2l-5.6,32.8L56.2,84.1z"/>
	</g>
</g>
</svg>
