<?xml version="1.0" encoding="utf-8"?>
<!-- Generator: Adobe Illustrator 15.0.0, SVG Export Plug-In . SVG Version: 6.00 Build 0)  -->
<!DOCTYPE svg PUBLIC "-//W3C//DTD SVG 1.1//EN" "http://www.w3.org/Graphics/SVG/1.1/DTD/svg11.dtd">
<svg version="1.1" id="Layer_1" xmlns="http://www.w3.org/2000/svg" xmlns:xlink="http://www.w3.org/1999/xlink" x="0px" y="0px"
	 width="433.242px" height="499.492px" viewBox="0 0 433.242 499.492" enable-background="new 0 0 433.242 499.492"
	 xml:space="preserve">
<g id="Layer_X">
	<g id="change2">
		<polygon fill="#EA5A42" points="0,124.536 144.371,124.672 216.728,0 289.083,124.672 432.917,124.536 361.414,249.808 
			433.242,374.727 289.236,374.766 216.728,499.492 144.371,374.818 0.215,374.727 71.647,244.301 		"/>
	</g>
	<g id="change1">
		<path fill="#FFFFFF" d="M216.699,450.65L158.5,350.372l-115.773-0.075l57.291-104.605l-57.842-96.687l116.328,0.109l58.2-100.279
			l58.2,100.279l115.711-0.109L333.09,249.784l57.797,100.517l-115.867,0.031L216.699,450.65z M59.599,340.309l104.662,0.067
			l52.445,90.364l52.558-90.406l104.337-0.029l-52.038-90.502l51.817-90.781l-104.233,0.099l-52.443-90.363l-52.445,90.363
			l-104.437-0.099l51.718,86.451L59.599,340.309z"/>
	</g>
</g>
</svg>
