<?xml version="1.0" encoding="utf-8"?>
<!-- Generator: Adobe Illustrator 21.0.0, SVG Export Plug-In . SVG Version: 6.00 Build 0)  -->
<svg version="1.1" id="Solid-star-decorate3-D5" xmlns="http://www.w3.org/2000/svg" xmlns:xlink="http://www.w3.org/1999/xlink"
	 x="0px" y="0px" viewBox="0 0 462.8832 466.374" enable-background="new 0 0 462.8832 466.374" xml:space="preserve">
<g id="change1">
	<path fill="#36C4D0" d="M198.5645,63.1517l-9.0362-58.9302l-24.0348,31.3713l-34.8698-10.3575l25.8679,51.393
		C169.6965,70.429,183.8043,65.8474,198.5645,63.1517z"/>
	<path fill="#36C4D0" d="M229.6957,60.3369c7.6202,0,15.1251,0.5012,22.4876,1.4619l9.3733-58.3068l-31.8609,21.9328
		L199.7341,4.7992l8.7164,56.8443C215.4146,60.7861,222.5034,60.3369,229.6957,60.3369z"/>
	<path fill="#36C4D0" d="M331.7838,24.3392l-37.8859,11.2535L271.7759,6.7177l-9.276,56.7554
		c14.726,2.8409,28.796,7.5453,41.9435,13.8771L331.7838,24.3392z"/>
	<polygon fill="#36C4D0" points="266.6293,0 266.3051,0.2231 266.8712,0.3157 	"/>
	<polygon fill="#36C4D0" points="62.7523,66.2432 62.7422,66.6417 63.1528,66.233 	"/>
	<path fill="#36C4D0" d="M73.6671,158.849l-52.5795-26.9442l11.0143,37.0801L3.2275,191.1064l56.7543,9.2758
		C62.7934,185.8085,67.4338,171.8793,73.6671,158.849z"/>
	<path fill="#36C4D0" d="M104.3229,114.3198L62.5958,72.3989l-0.9836,38.668l-35.0786,12.3923l51.7115,26.4993
		C85.4095,136.9734,94.1907,125.0011,104.3229,114.3198z"/>
	<polygon fill="#36C4D0" points="336.8793,22.8257 336.5017,22.9378 337.0118,23.2009 	"/>
	<path fill="#36C4D0" d="M147.5618,81.1297l-26.8221-53.2885L107.576,65.104l-37.1907,0.9452l41.0291,41.2195
		C122.2498,97.0844,134.3895,88.2734,147.5618,81.1297z"/>
	<polygon fill="#36C4D0" points="122.5116,22.8257 122.3802,23.1974 122.8934,22.9391 	"/>
	<polygon fill="#36C4D0" points="439.6799,340.504 440.056,340.3711 439.943,339.9905 	"/>
	<path fill="#36C4D0" d="M348.8935,108.1224l42.4306-42.0143l-39.5093-1.0041l-12.116-34.2969l-26.3805,51.1501
		C326.2836,89.155,338.2378,97.9619,348.8935,108.1224z"/>
	<polygon fill="#36C4D0" points="462.8832,196.2539 462.5671,196.0118 462.6563,196.5835 	"/>
	<polygon fill="#36C4D0" points="19.7125,125.8688 19.3344,126.0024 19.448,126.3851 	"/>
	<polygon fill="#36C4D0" points="440.056,126.0024 439.6809,125.8699 439.9422,126.3857 	"/>
	<polygon fill="#36C4D0" points="19.3344,340.3711 19.7104,340.504 19.4485,339.9869 	"/>
	<polygon fill="#36C4D0" points="396.639,66.2432 396.2452,66.2332 396.6492,66.6412 	"/>
	<path fill="#36C4D0" d="M386.0629,159.5742c6.2343,13.1896,10.8482,27.2869,13.5824,42.0378l58.3494-9.1033l-30.7053-23.5239
		l10.5926-35.663L386.0629,159.5742z"/>
	<path fill="#36C4D0" d="M381.5366,150.6569l52.7135-26.7055l-36.4714-12.8845l-0.9246-36.363l-40.9333,40.5319
		C365.8726,125.8787,374.5042,137.7701,381.5366,150.6569z"/>
	<circle fill="#36C4D0" cx="229.6957" cy="233.1869" r="163.85"/>
	<polygon fill="#36C4D0" points="192.7626,0 192.5226,0.3132 193.091,0.2261 	"/>
	<polygon fill="#36C4D0" points="396.639,400.1299 396.6491,399.7329 396.2401,400.14 	"/>
	<path fill="#36C4D0" d="M311.8288,385.2445l26.822,53.2886l13.164-37.2626l37.191-0.9464l-41.0287-41.2192
		C337.1414,369.2895,325.0015,378.1007,311.8288,385.2445z"/>
	<polygon fill="#36C4D0" points="336.8793,443.5479 337.0104,443.1766 336.498,443.4346 	"/>
	<path fill="#36C4D0" d="M260.8271,403.2222l9.0362,58.9303l24.0345-31.3723l34.8695,10.358l-25.8677-51.3925
		C289.6949,395.9449,275.5872,400.5266,260.8271,403.2222z"/>
	<path fill="#36C4D0" d="M355.0685,352.0538l41.7271,41.9208l0.9832-38.6679l35.0778-12.3922l-51.7108-26.499
		C373.9816,329.4003,365.2005,341.3725,355.0685,352.0538z"/>
	<polygon fill="#36C4D0" points="266.6293,466.374 266.8684,466.0619 266.302,466.1487 	"/>
	<path fill="#36C4D0" d="M385.7241,307.5244l52.5786,26.9436l-11.0132-37.0793l28.8758-22.1219l-56.756-9.2761
		C396.5978,280.5645,391.9573,294.4939,385.7241,307.5244z"/>
	<polygon fill="#36C4D0" points="462.567,270.3624 462.8832,270.1201 462.6596,269.7953 	"/>
	<path fill="#36C4D0" d="M458.554,202.5427l-57.3667,8.95c0.894,7.1079,1.358,14.3478,1.358,21.6943
		c0,7.6203-0.5011,15.1252-1.4619,22.4878l58.3084,9.3736l-21.9334-31.8614L458.554,202.5427z"/>
	<path fill="#36C4D0" d="M127.61,442.0334l37.8835-11.2531l22.1221,28.8748l9.2758-56.7541
		c-14.7255-2.8408-28.795-7.545-41.9422-13.8764L127.61,442.0334z"/>
	<polygon fill="#36C4D0" points="62.7523,400.1299 63.1459,400.1399 62.7422,399.7323 	"/>
	<path fill="#36C4D0" d="M77.8542,315.7171l-52.7133,26.7053l36.4713,12.8843l0.9249,36.3626l40.9327-40.5311
		C93.5182,340.4951,84.8865,328.6038,77.8542,315.7171z"/>
	<path fill="#36C4D0" d="M229.6957,406.0371c-7.6204,0-15.1255-0.5012-22.4881-1.462l-9.3732,58.3066l31.8613-21.9325
		l29.9619,20.6255l-8.7163-56.8442C243.977,405.588,236.8881,406.0371,229.6957,406.0371z"/>
	<path fill="#36C4D0" d="M58.2036,254.8815c-0.894-7.108-1.358-14.348-1.358-21.6945c0-7.6204,0.5012-15.1254,1.462-22.488
		L0,201.3256l21.9335,31.8615L0.8379,263.8313L58.2036,254.8815z"/>
	<path fill="#36C4D0" d="M73.3282,306.8003c-6.2343-13.1896-10.8483-27.287-13.5825-42.0381l-58.3484,9.1031l30.7047,23.5233
		l-10.5939,35.6646L73.3282,306.8003z"/>
	<path fill="#36C4D0" d="M110.4976,358.2518l-42.4296,42.0134l39.508,1.0054l12.1165,34.2977l26.381-51.1509
		C133.108,377.2194,121.1536,368.4125,110.4976,358.2518z"/>
	<polygon fill="#36C4D0" points="192.7626,466.373 193.0861,466.1503 192.5212,466.058 	"/>
	<polygon fill="#36C4D0" points="122.5116,443.5479 122.889,443.4358 122.3791,443.1728 	"/>
</g>
</svg>
