<?xml version="1.0" encoding="utf-8"?>
<!-- Generator: Adobe Illustrator 15.0.0, SVG Export Plug-In . SVG Version: 6.00 Build 0)  -->
<!DOCTYPE svg PUBLIC "-//W3C//DTD SVG 1.1//EN" "http://www.w3.org/Graphics/SVG/1.1/DTD/svg11.dtd">
<svg version="1.1" id="Layer_1" xmlns="http://www.w3.org/2000/svg" xmlns:xlink="http://www.w3.org/1999/xlink" x="0px" y="0px"
	 width="433.242px" height="499.494px" viewBox="0 0 433.242 499.494" enable-background="new 0 0 433.242 499.494"
	 xml:space="preserve">
<g id="Layer_X">
	<g id="change1">
		<path fill="#6CDDAA" d="M361.414,249.808l71.506-125.272l-143.834,0.136L216.728,0l-72.357,124.672L0,124.536l71.647,119.765
			L0.215,374.727l144.156,0.094l72.357,124.674l72.508-124.729l144.006-0.039L361.414,249.808z M275.018,350.332L216.699,450.65
			L158.5,350.372l-115.773-0.075l57.291-104.605l-57.842-96.687l116.328,0.109l58.2-100.279l58.2,100.279l115.711-0.109
			L333.09,249.784l57.797,100.517L275.018,350.332z"/>
		<polygon fill="#6CDDAA" points="321.562,249.803 373.38,159.022 269.146,159.121 216.703,68.758 164.258,159.121 59.821,159.022 
			111.539,245.473 59.599,340.309 164.261,340.376 216.706,430.74 269.264,340.334 373.601,340.305 		"/>
	</g>
</g>
</svg>
