<?xml version="1.0" encoding="utf-8"?>
<!-- Generator: Adobe Illustrator 15.0.0, SVG Export Plug-In . SVG Version: 6.00 Build 0)  -->
<!DOCTYPE svg PUBLIC "-//W3C//DTD SVG 1.1//EN" "http://www.w3.org/Graphics/SVG/1.1/DTD/svg11.dtd">
<svg version="1.1" id="Layer_1" xmlns="http://www.w3.org/2000/svg" xmlns:xlink="http://www.w3.org/1999/xlink" x="0px" y="0px"
	 width="499.999px" height="500px" viewBox="0 0 499.999 500" enable-background="new 0 0 499.999 500" xml:space="preserve">
<g id="Layer_X">
	<g id="change2">
		<polygon fill="#5CB1F2" points="146.384,499.998 138.505,361.48 0,353.529 92.351,249.975 0.001,146.417 138.498,138.501 
			146.391,0.002 249.953,92.35 353.511,0 361.472,138.515 499.998,146.404 407.654,249.975 499.999,353.543 361.465,361.468 
			353.518,500 250.167,408.926 		"/>
	</g>
	<g id="change1">
		<path fill="#FFFFFF" d="M335.561,456.548l-85.4-75.292l-85.803,75.261l-6.506-114.38l-114.471-6.57l76.326-85.584l-76.328-85.59
			l114.468-6.542l6.523-114.471l85.596,76.327l85.586-76.324l6.58,114.479l114.493,6.521L380.3,249.98l76.321,85.598l-114.496,6.55
			L335.561,456.548z M64.622,326.77l102.705,5.896l5.848,102.815l77-67.542l76.579,67.515l5.898-102.8l102.724-5.877l-68.475-76.795
			l68.473-76.797l-102.717-5.85l-5.902-102.713l-76.792,68.48l-76.79-68.475l-5.853,102.696l-102.696,5.87l68.478,76.789
			L64.622,326.77z"/>
	</g>
</g>
</svg>
