<?xml version="1.0" encoding="utf-8"?>
<!-- Generator: Adobe Illustrator 15.0.0, SVG Export Plug-In . SVG Version: 6.00 Build 0)  -->
<!DOCTYPE svg PUBLIC "-//W3C//DTD SVG 1.1//EN" "http://www.w3.org/Graphics/SVG/1.1/DTD/svg11.dtd">
<svg version="1.1" id="Layer_1" xmlns="http://www.w3.org/2000/svg" xmlns:xlink="http://www.w3.org/1999/xlink" x="0px" y="0px"
	 width="499.999px" height="500px" viewBox="0 0 499.999 500" enable-background="new 0 0 499.999 500" xml:space="preserve">
<g id="Layer_X">
	<g id="change1_1_">
		<path fill="#E25D99" d="M407.654,249.975l92.344-103.571l-138.526-7.889L353.511,0L249.953,92.35L146.391,0.002l-7.893,138.499
			L0.001,146.417l92.35,103.558L0,353.529l138.505,7.951l7.879,138.518l103.783-91.072L353.518,500l7.947-138.532l138.534-7.925
			L407.654,249.975z M342.125,342.128l-6.564,114.42l-85.4-75.292l-85.803,75.261l-6.506-114.38l-114.471-6.57l76.326-85.584
			l-76.328-85.59l114.468-6.542l6.523-114.471l85.596,76.327l85.586-76.324l6.58,114.479l114.493,6.521L380.3,249.98l76.321,85.598
			L342.125,342.128z"/>
		<polygon fill="#E25D99" points="366.901,249.98 435.374,173.184 332.657,167.334 326.755,64.621 249.963,133.102 173.173,64.626 
			167.321,167.322 64.625,173.192 133.103,249.98 64.622,326.77 167.327,332.664 173.174,435.479 250.175,367.939 326.754,435.452 
			332.652,332.652 435.376,326.777 		"/>
	</g>
</g>
</svg>
