<?xml version="1.0" encoding="utf-8"?>
<!-- Generator: Adobe Illustrator 16.0.0, SVG Export Plug-In . SVG Version: 6.00 Build 0)  -->
<!DOCTYPE svg PUBLIC "-//W3C//DTD SVG 1.1//EN" "http://www.w3.org/Graphics/SVG/1.1/DTD/svg11.dtd">
<svg version="1.1" id="Layer_1" xmlns="http://www.w3.org/2000/svg" xmlns:xlink="http://www.w3.org/1999/xlink" x="0px" y="0px"
	 width="500px" height="512.857px" viewBox="0 0 500 512.857" enable-background="new 0 0 500 512.857" xml:space="preserve">
<g id="change1">
	<polygon fill="#EC6433" points="250,0 295.505,57.061 361.259,25.399 377.502,96.55 450.485,96.55 434.241,167.701 500,199.37 
		454.494,256.427 500,313.488 434.241,345.156 450.485,416.307 377.502,416.307 361.259,487.464 295.505,455.796 250,512.858 
		204.495,455.796 138.737,487.464 122.498,416.307 49.518,416.307 65.758,345.156 0,313.488 45.505,256.427 0,199.37 
		65.758,167.701 49.518,96.55 122.498,96.55 138.737,25.399 204.495,57.061 	"/>
</g>
</svg>
