<?xml version="1.0" encoding="utf-8"?>
<!-- Generator: Adobe Illustrator 16.0.0, SVG Export Plug-In . SVG Version: 6.00 Build 0)  -->
<!DOCTYPE svg PUBLIC "-//W3C//DTD SVG 1.1//EN" "http://www.w3.org/Graphics/SVG/1.1/DTD/svg11.dtd">
<svg version="1.1" id="Layer_1" xmlns="http://www.w3.org/2000/svg" xmlns:xlink="http://www.w3.org/1999/xlink" x="0px" y="0px"
	 width="500px" height="512.867px" viewBox="0 0 500 512.867" enable-background="new 0 0 500 512.867" xml:space="preserve">
<g id="change1">
	<polygon fill="#E05A47" points="49.517,96.557 111.258,82.459 138.739,25.399 200.485,39.49 250.002,0 299.515,39.49 
		361.261,25.399 388.744,82.459 450.489,96.557 450.489,159.884 500,199.374 472.529,256.432 500,313.494 450.489,352.983 
		450.489,416.317 388.744,430.413 361.261,487.473 299.515,473.383 250.002,512.867 200.485,473.383 138.739,487.473 
		111.258,430.413 49.517,416.317 49.517,352.983 0,313.494 27.477,256.432 0,199.374 49.517,159.884 	"/>
</g>
</svg>
