<?xml version="1.0" encoding="utf-8"?>
<!-- Generator: Adobe Illustrator 16.0.0, SVG Export Plug-In . SVG Version: 6.00 Build 0)  -->
<!DOCTYPE svg PUBLIC "-//W3C//DTD SVG 1.1//EN" "http://www.w3.org/Graphics/SVG/1.1/DTD/svg11.dtd">
<svg version="1.1" id="Layer_1" xmlns="http://www.w3.org/2000/svg" xmlns:xlink="http://www.w3.org/1999/xlink" x="0px" y="0px"
	 width="500px" height="499.379px" viewBox="0 0 500 499.379" enable-background="new 0 0 500 499.379" xml:space="preserve">
<g id="change">
	<path fill="#E05A47" d="M497.851,285.285l-15.627-22.373c0.077-1.356,0.092-2.747,0.141-4.112L500,237.834l-19.615-19.115
		c-0.185-1.361-0.325-2.737-0.534-4.096l13.308-23.805l-22.859-15.062c-0.429-1.291-0.846-2.599-1.306-3.879l8.538-25.958
		l-25.29-10.434c-0.682-1.186-1.336-2.365-2.036-3.532l3.486-27.143l-26.816-5.462c-0.878-1.021-1.762-2.059-2.666-3.076
		l-1.677-27.312l-27.368-0.321c-1.067-0.85-2.128-1.688-3.21-2.521l-6.781-26.51l-26.931,4.83c-1.202-0.633-2.411-1.241-3.627-1.856
		l-11.699-24.734l-25.499,9.836c-1.301-0.39-2.634-0.746-3.938-1.117L297.281,4.497l-23.104,14.476
		c-1.364-0.135-2.75-0.216-4.122-0.332L250,0L229.942,18.64c-1.375,0.116-2.754,0.197-4.117,0.332L202.708,4.497l-16.187,22.069
		c-1.312,0.371-2.634,0.721-3.938,1.117l-25.499-9.836L145.397,42.59c-1.209,0.615-2.422,1.225-3.624,1.856l-26.934-4.83
		l-6.796,26.513c-1.074,0.831-2.135,1.668-3.195,2.518l-27.373,0.322L75.796,96.28c-0.898,1.015-1.786,2.04-2.666,3.08
		l-26.821,5.459l3.486,27.143c-0.689,1.163-1.361,2.345-2.037,3.531l-25.293,10.435l8.542,25.947c-0.459,1.29-0.873,2.6-1.312,3.89
		L6.842,190.825l13.297,23.805c-0.205,1.358-0.347,2.74-0.527,4.099L0,237.838l17.632,20.959c0.049,1.371,0.062,2.762,0.142,4.126
		L2.146,285.288l21.238,17.27c0.308,1.329,0.594,2.665,0.919,3.99L13.198,331.52l24.128,12.919c0.551,1.244,1.112,2.485,1.676,3.713
		l-6.166,26.654l26.138,8.104c0.774,1.121,1.563,2.221,2.355,3.323l-1.04,27.353l27.203,3.036c0.962,0.947,1.95,1.873,2.938,2.796
		l4.126,27.072l27.266-2.139c1.14,0.749,2.284,1.478,3.438,2.206l9.154,25.788l26.34-7.233c1.262,0.53,2.542,1.004,3.82,1.506
		l13.902,23.575l24.436-12.085c1.343,0.276,2.719,0.488,4.071,0.735l18.127,20.535l21.802-16.567
		c1.027,0.014,2.051,0.074,3.09,0.074s2.062-0.062,3.101-0.074l21.797,16.567l18.123-20.535c1.352-0.247,2.724-0.459,4.066-0.735
		l24.438,12.085l13.902-23.575c1.276-0.502,2.56-0.976,3.821-1.506l26.344,7.233l9.15-25.788c1.146-0.729,2.305-1.457,3.437-2.206
		l27.272,2.139l4.115-27.072c0.986-0.926,1.979-1.853,2.945-2.796l27.19-3.036l-1.031-27.358c0.799-1.097,1.584-2.195,2.352-3.316
		l26.146-8.104l-6.174-26.662c0.572-1.233,1.124-2.464,1.677-3.705l24.126-12.908l-11.108-24.989
		c0.325-1.314,0.615-2.651,0.919-3.983L497.851,285.285z"/>
</g>
</svg>
