<?xml version="1.0" encoding="utf-8"?>
<!-- Generator: Adobe Illustrator 15.0.0, SVG Export Plug-In . SVG Version: 6.00 Build 0)  -->
<!DOCTYPE svg PUBLIC "-//W3C//DTD SVG 1.1//EN" "http://www.w3.org/Graphics/SVG/1.1/DTD/svg11.dtd">
<svg version="1.1" id="Layer_1" xmlns="http://www.w3.org/2000/svg" xmlns:xlink="http://www.w3.org/1999/xlink" x="0px" y="0px"
	 width="500.479px" height="500.548px" viewBox="0 0 500.479 500.548" enable-background="new 0 0 500.479 500.548"
	 xml:space="preserve">
<g id="Layer_X">
	<g id="change1_1_">
		<path fill="#B1C949" d="M268.962,500.548l-18.721-19.96l-18.72,19.96l-15.562-22.514l-21.499,16.949l-12.006-24.604
			l-23.807,13.521l-8.162-26.133l-25.564,9.783l-4.154-27.053l-26.733,5.854l-0.082-27.362l-27.302,1.823l3.973-27.071
			l-27.273-2.242l7.947-26.186l-26.64-6.271l11.764-24.715l-25.407-10.184l15.329-22.679l-23.597-13.86l18.53-20.137L0,250.274
			l21.276-17.193l-18.53-20.135l23.595-13.865l-15.329-22.677l25.407-10.184l-11.764-24.713l26.641-6.273l-7.947-26.188
			l27.273-2.241L66.65,79.732l27.303,1.825l0.082-27.365l26.733,5.857l4.154-27.054l25.563,9.785l8.162-26.131l23.808,13.519
			l12.007-24.604l21.497,16.951L231.521,0l18.72,19.959L268.961,0l15.562,22.514l21.498-16.95l12.006,24.605l23.809-13.518
			l8.162,26.131l25.563-9.784l4.153,27.054l26.732-5.856l0.083,27.365l27.303-1.825l-3.974,27.074l27.271,2.242l-7.948,26.188
			l26.644,6.273l-11.766,24.712l25.405,10.184l-15.329,22.676l23.599,13.864l-18.529,20.135l21.273,17.194l-21.273,17.195
			l18.529,20.135l-23.598,13.865l15.328,22.676l-25.405,10.185l11.764,24.714l-26.643,6.273l7.947,26.187l-27.271,2.241
			l3.971,27.074l-27.301-1.826l-0.083,27.365l-26.732-5.857l-4.154,27.053l-25.562-9.781l-8.162,26.131l-23.807-13.521
			l-12.007,24.604l-21.497-16.949L268.962,500.548z M218.131,463.589l14.572,21.082l17.539-18.7l17.539,18.7l14.57-21.084
			l20.121,15.865l11.235-23.025l22.277,12.651l7.64-24.457l23.932,9.16l3.891-25.332l25.037,5.484l0.078-25.635l25.575,1.711
			l-3.721-25.361l25.548-2.101l-7.442-24.526l24.947-5.873l-11.015-23.144l23.787-9.532l-14.354-21.23l22.1-12.985l-17.361-18.864
			l19.944-16.119l-19.943-16.119l17.36-18.865l-22.101-12.984l14.354-21.231l-23.787-9.534l11.015-23.139l-24.946-5.875L443.967,118
			l-25.547-2.099l3.722-25.364l-25.575,1.71l-0.078-25.633L371.449,72.1l-3.892-25.332l-23.933,9.159l-7.639-24.457l-22.279,12.65
			l-11.234-23.025L282.352,36.96l-14.572-21.083l-17.536,18.7l-17.539-18.7L218.13,36.96l-20.12-15.865L186.774,44.12l-22.278-12.65
			l-7.64,24.457l-23.931-9.16l-3.889,25.331l-25.038-5.485l-0.077,25.633l-25.578-1.71l3.722,25.363l-25.548,2.099l7.443,24.528
			L39.012,148.4l11.015,23.139l-23.787,9.534l14.352,21.231l-22.097,12.985l17.361,18.866L15.91,250.274l19.945,16.119
			l-17.361,18.864l22.098,12.984L26.24,319.473l23.786,9.533l-11.014,23.141l24.947,5.873l-7.444,24.527l25.548,2.1l-3.722,25.362
			l25.578-1.71l0.077,25.634l25.037-5.482l3.891,25.332l23.932-9.159l7.64,24.456l22.279-12.649l11.235,23.024L218.131,463.589z"/>
		<path fill="#B1C949" d="M250.241,67.497c-100.463,0-182.196,81.993-182.196,182.777c0,100.783,81.733,182.776,182.196,182.776
			c100.463,0,182.196-81.993,182.196-182.776C432.438,149.49,350.704,67.497,250.241,67.497z"/>
		<path fill="#B1C949" d="M471.918,266.93l20.609-16.656l-20.609-16.656l17.945-19.5l-22.85-13.424l14.843-21.954l-24.599-9.859
			l11.392-23.925l-25.796-6.074l7.695-25.356l-26.41-2.17l3.85-26.219l-26.44,1.768l-0.08-26.499l-25.885,5.671l-4.021-26.193
			l-24.749,9.472l-7.9-25.294l-23.044,13.084L304.247,13.33l-20.81,16.407L268.37,7.938l-18.129,19.33l-18.129-19.33l-15.067,21.798
			l-20.808-16.408l-11.622,23.814l-23.043-13.084l-7.901,25.294l-24.747-9.472l-4.021,26.192l-25.886-5.671L98.937,86.9
			l-26.44-1.768l3.848,26.218l-26.411,2.17l7.695,25.358l-25.794,6.074l11.389,23.926l-24.597,9.859l14.84,21.954L10.62,214.118
			l17.945,19.5l-20.61,16.655l20.61,16.657l-17.945,19.5l22.846,13.424l-14.84,21.953l24.597,9.858l-11.389,23.928l25.793,6.072
			l-7.696,25.356l26.411,2.17l-3.848,26.219l26.44-1.77l0.08,26.499l25.885-5.67l4.022,26.192l24.748-9.473l7.901,25.295
			l23.043-13.084l11.621,23.812l20.811-16.406l15.067,21.799l18.129-19.329l18.13,19.329l15.066-21.8l20.81,16.407l11.621-23.812
			l23.042,13.085l7.899-25.294l24.747,9.472l4.021-26.192l25.885,5.672l0.08-26.5l26.439,1.771l-3.848-26.22l26.41-2.17
			l-7.695-25.356l25.797-6.073l-11.391-23.928l24.598-9.857l-14.841-21.955l22.849-13.424L471.918,266.93z M250.241,443.05
			c-105.978,0-192.196-86.479-192.196-192.776c0-106.297,86.219-192.777,192.196-192.777c105.977,0,192.196,86.479,192.196,192.777
			C442.438,356.572,356.219,443.05,250.241,443.05z"/>
	</g>
</g>
</svg>
