<?xml version="1.0" encoding="utf-8"?>
<!-- Generator: Adobe Illustrator 21.0.0, SVG Export Plug-In . SVG Version: 6.00 Build 0)  -->
<svg version="1.1" id="Solid-star-shape-D5" xmlns="http://www.w3.org/2000/svg" xmlns:xlink="http://www.w3.org/1999/xlink"
	 x="0px" y="0px" viewBox="0 0 414.9014 474.709" enable-background="new 0 0 414.9014 474.709" xml:space="preserve">
<g id="change1">
	<polygon fill="#39B4FF" points="149.6543,140.841 203.8575,12.3914 262.1359,139.0442 400.4781,121.7608 319.9327,235.5577 
		404.0717,346.7238 265.248,333.868 211.0448,462.3176 152.7665,335.6648 14.4242,352.9482 94.9696,239.1513 10.8306,127.9851 	"/>
</g>
<g id="change2">
	<path fill="#3B7CFF" d="M211.2432,474.709l-61.4888-133.6289L3.792,359.3154L88.7739,239.25L0,121.9609l146.4707,13.5635
		L203.6597,0l61.4888,133.6294l145.9629-18.2358l-84.9824,120.0649l88.7725,117.2896l-146.4697-13.5635L211.2432,474.709z
		 M155.7788,330.25l55.0679,119.6758l51.2178-121.374l131.1768,12.1475l-79.5039-105.0425l76.1084-107.5288L259.124,144.4595
		L204.0552,24.7832l-51.2173,121.374L21.6611,134.0098l79.5044,105.043L25.0566,346.5811L155.7788,330.25z"/>
</g>
</svg>
