<?xml version="1.0" encoding="utf-8"?>
<!-- Generator: Adobe Illustrator 15.0.0, SVG Export Plug-In . SVG Version: 6.00 Build 0)  -->
<!DOCTYPE svg PUBLIC "-//W3C//DTD SVG 1.1//EN" "http://www.w3.org/Graphics/SVG/1.1/DTD/svg11.dtd">
<svg version="1.1" id="Layer_1" xmlns="http://www.w3.org/2000/svg" xmlns:xlink="http://www.w3.org/1999/xlink" x="0px" y="0px"
	 width="499.34px" height="497.053px" viewBox="0.562 1.829 499.34 497.053" enable-background="new 0.562 1.829 499.34 497.053"
	 xml:space="preserve">
<g id="Layer_X">
	<g id="change2">
		<polyline fill="#7EE0DB" points="245,34 292,8 322,46 371,38 383.827,82.464 383.827,82.464 435,94 435,142 477,164 459,212 
			492,249 459,287 478,333 435,356 436,406 387,415 371,462 323,453 291,492 250,466 209,489 176,454 126,462 109,416 63,405 
			65,357 22,333 38,286 8,248 38,213 21,164 65,143 64,91 112,85 128,36 176,47 207,8 245,34 		"/>
	</g>
	<g id="change1">
		<path fill="#FFFFFF" d="M293.866,498.882l-43.636-26.991l-43.637,26.991l-31.591-40.426l-50.29,10.104l-15.602-48.862
			l-50.684-7.771l1.971-51.237l-45.034-24.52l19.258-47.521L0.562,250.355l34.061-38.295l-19.258-47.52l45.034-24.52l-1.971-51.237
			l50.684-7.77l15.602-48.864l50.291,10.105l31.59-40.425l43.637,26.99l43.637-26.99l31.59,40.425l50.291-10.105l15.602,48.864
			l50.687,7.77l-1.972,51.238l45.032,24.52L465.84,212.06l34.062,38.295L465.84,288.65l19.259,47.52l-45.033,24.521l1.972,51.235
			l-50.687,7.771L375.75,468.56l-50.291-10.104L293.866,498.882z M179.083,447.438l29.872,38.228l41.275-25.53l41.274,25.53
			l29.872-38.228l47.566,9.559l14.765-46.242l47.989-7.355l-1.866-48.521l42.646-23.22l-18.239-45.007l32.278-36.292l-32.278-36.292
			l18.239-45.007L429.83,145.84l1.866-48.521l-47.989-7.356l-14.766-46.242l-47.566,9.557L291.504,15.05L250.23,40.578
			l-41.275-25.53l-29.871,38.226l-47.567-9.558l-14.765,46.242l-47.989,7.357l1.866,48.521l-42.645,23.219l18.24,45.008
			l-32.28,36.292l32.28,36.293l-18.24,45.006l42.645,23.22l-1.867,48.521l47.989,7.356l14.765,46.243L179.083,447.438z"/>
		<path fill="#FFFFFF" d="M250,420.505c-94.017,0-170.504-76.487-170.504-170.505c0-94.017,76.487-170.504,170.504-170.504
			c94.017,0,170.505,76.487,170.505,170.504C420.505,344.018,344.017,420.505,250,420.505z M250,89.496
			c-88.502,0-160.504,72.002-160.504,160.504c0,88.503,72.002,160.505,160.504,160.505c88.503,0,160.505-72.002,160.505-160.505
			C410.505,161.498,338.503,89.496,250,89.496z"/>
		<path fill="#FFFFFF" d="M63.498,352.693l5.004,8.658l41.075-23.736c-1.765-2.822-3.456-5.696-5.052-8.631L63.498,352.693z"/>
		<path fill="#FFFFFF" d="M172.298,450.653l9.403,3.402l16.905-46.698c-3.179-1.038-6.32-2.159-9.412-3.383L172.298,450.653z"/>
		<path fill="#FFFFFF" d="M108.495,411.817l7.678,6.406l31.697-37.98c-2.624-2.06-5.176-4.206-7.669-6.418L108.495,411.817z"/>
		<path fill="#FFFFFF" d="M42.622,208.577l-1.744,9.847l45.293,8.025c0.472-3.316,1.032-6.605,1.698-9.855L42.622,208.577z"/>
		<path fill="#FFFFFF" d="M457.378,292.113l1.744-9.848l-45.387-8.041c-0.486,3.313-1.069,6.598-1.749,9.846L457.378,292.113z"/>
		<path fill="#FFFFFF" d="M40.878,282.268l1.744,9.848l45.392-8.042c-0.68-3.248-1.262-6.531-1.748-9.849L40.878,282.268z"/>
		<path fill="#FFFFFF" d="M383.827,418.226l7.678-6.406l-31.706-37.992c-2.492,2.212-5.045,4.356-7.669,6.418L383.827,418.226z"/>
		<path fill="#FFFFFF" d="M68.502,139.337l-5.004,8.658l40.745,23.546c1.585-2.939,3.262-5.821,5.017-8.65L68.502,139.337z"/>
		<path fill="#FFFFFF" d="M431.498,361.354l5.004-8.658l-41.026-23.709c-1.597,2.935-3.285,5.809-5.053,8.631L431.498,361.354z"/>
		<path fill="#FFFFFF" d="M318.299,454.058l9.402-3.402l-16.896-46.679c-3.091,1.224-6.23,2.345-9.41,3.383L318.299,454.058z"/>
		<path fill="#FFFFFF" d="M459.122,218.423l-1.744-9.847l-45.247,8.017c0.666,3.25,1.228,6.539,1.698,9.855L459.122,218.423z"/>
		<path fill="#FFFFFF" d="M436.502,147.996l-5.004-8.658l-40.758,23.554c1.755,2.829,3.432,5.711,5.017,8.65L436.502,147.996z"/>
		<path fill="#FFFFFF" d="M255,84.577V34h-10v50.577c1.661-0.049,3.327-0.082,5-0.082C251.673,84.496,253.339,84.528,255,84.577z"/>
		<path fill="#FFFFFF" d="M245,415.423V466h10v-50.577c-1.661,0.05-3.327,0.082-5,0.082S246.661,415.473,245,415.423z"/>
		<path fill="#FFFFFF" d="M181.702,46.632l-9.403,3.403l16.679,46.077c3.089-1.226,6.228-2.355,9.405-3.397L181.702,46.632z"/>
		<path fill="#FFFFFF" d="M116.173,82.464l-7.678,6.407l31.375,37.597c2.487-2.219,5.036-4.368,7.654-6.436L116.173,82.464z"/>
		<path fill="#FFFFFF" d="M327.701,50.036l-9.402-3.403l-16.682,46.083c3.178,1.042,6.313,2.171,9.403,3.397L327.701,50.036z"/>
		<path fill="#FFFFFF" d="M391.505,88.871l-7.678-6.407l-31.354,37.569c2.618,2.067,5.167,4.217,7.654,6.436L391.505,88.871z"/>
	</g>
</g>
</svg>
