<?xml version="1.0" encoding="utf-8"?>
<!-- Generator: Adobe Illustrator 15.0.0, SVG Export Plug-In . SVG Version: 6.00 Build 0)  -->
<!DOCTYPE svg PUBLIC "-//W3C//DTD SVG 1.1//EN" "http://www.w3.org/Graphics/SVG/1.1/DTD/svg11.dtd">
<svg version="1.1" id="Layer_1" xmlns="http://www.w3.org/2000/svg" xmlns:xlink="http://www.w3.org/1999/xlink" x="0px" y="0px"
	 width="492.604px" height="491.136px" viewBox="0 0 492.604 491.136" enable-background="new 0 0 492.604 491.136"
	 xml:space="preserve">
<g id="Layer_X">
	<g id="change2">
		<polygon fill="#C1A6F4" points="182.559,485.208 151.798,410.747 71.955,421.463 82.48,341.665 7.972,311.174 57.11,247.58 
			7.972,183.986 82.48,153.495 71.955,73.695 151.798,84.412 182.56,9.952 246.303,59.101 310.046,9.952 340.807,84.413 
			420.649,73.697 410.123,153.495 484.632,183.986 435.493,247.58 484.632,311.174 410.123,341.665 420.649,421.463 
			340.806,410.747 310.046,485.208 246.411,436.542 		"/>
	</g>
	<g id="change1">
		<path fill="#FFFFFF" d="M312.181,491.136l-65.773-50.303l-65.985,50.292l-31.772-76.91l-82.504,11.073l10.876-82.455L0,311.312
			l50.792-65.732L0,179.846l77.02-31.519L66.144,65.871l82.503,11.074L180.435,0l65.868,50.788L312.171,0l31.787,76.945
			l82.503-11.073l-10.877,82.456l77.021,31.519l-50.793,65.734l50.793,65.733l-77.021,31.52l10.877,82.455l-82.504-11.073
			L312.181,491.136z M154.949,403.279l29.749,72.012l61.717-47.04l61.496,47.029l29.743-72.001l77.184,10.356l-10.176-77.141
			l71.997-29.464l-47.484-61.453l47.484-61.454l-71.997-29.464l10.176-77.141l-77.183,10.36l-29.734-71.976l-61.618,47.51
			l-61.619-47.51L154.949,87.88L77.767,77.52l10.175,77.142l-71.997,29.464L63.43,245.58l-47.485,61.454l71.997,29.463
			l-10.175,77.141L154.949,403.279z"/>
		<path fill="#FFFFFF" d="M481.381,313.165l2.572-9.664l-73.388-19.535L384.106,250H440v-10h-55.894l25.843-33.175l71.829-18.991
			l-2.559-9.668l-70.59,18.663l-39.795-16.157l42.641-24.329l-4.954-8.686l-43.572,24.861l5.802-42.167l54.271-53.8l-7.041-7.102
			l-52.931,52.472l-42.908,5.903l26.43-45.305l-8.641-5.039l-26.972,46.237l-16.204-39.911l19.239-71.168l-9.654-2.609
			l-18.941,70.069L251,106.893V52h-10v54.893l-33.552-26.137l-19.12-70.728l-9.653,2.609l18.972,70.181l-16.332,40.223
			L154.737,77.48l-8.638,5.039l26.485,45.403l-42.86-5.896L76.688,69.449l-7.04,7.102l53.498,53.035l5.849,42.519l-42.849-24.447
			l-4.956,8.686l42.363,24.17l-39.922,16.209l-70.186-18.557l-2.556,9.668l70.987,18.769L107.893,240H53v10h54.893L81.26,284.189
			L8.715,303.501l2.572,9.664l73.281-19.507l39.327,15.968L81.19,333.991l4.956,8.686l42.799-24.419l-5.944,43.205l-51.862,51.661
			l7.058,7.084l52.583-52.379l42.017-5.781L146.1,407.815l8.638,5.038l26.658-45.699l16.414,40.426l-18.969,70.454l9.656,2.6
			l19.291-71.651L241,383.139V439h10v-55.378l34.062,26.034l19.107,70.977l9.656-2.6l-19.234-71.443l16.286-40.109l27.051,46.373
			l8.641-5.037l-26.642-45.668l42.065,5.787l52.477,52.272l7.059-7.084l-52.636-52.431l-5.896-42.852l43.524,24.833l4.953-8.687
			l-42.98-24.522l39.201-15.917L481.381,313.165z M391.641,289.275l-34.195,13.887l-6.213,2.521l0.812,5.908l5.152,37.447
			l1.142,8.297l-8.101-1.113l-36.71-5.053l-6.845-0.939l-2.167,5.34l-14.228,35.037l-3.24,7.979l-6.254-4.778l-35.209-26.912
			l-33.484,26.055l-7.174,5.583l-2.817-6.938l-14.353-35.352l-2.442-6.016l-6.118,0.842l-36.661,5.045l-8.875,1.222l1.036-7.526
			l5.201-37.804l0.87-6.323l-5.823-2.363l-34.323-13.938l-8.154-3.311l4.783-6.141L124.464,245l-26.623-34.177l-5.372-6.896
			l7.261-2.948l34.875-14.16l6.164-2.502l-0.82-5.962l-5.115-37.182l-1.171-8.51l7.884,1.084l37.44,5.151l6.33,0.871l2.362-5.817
			l14.282-35.175l2.967-7.307l6.862,5.345L246,123.464l35.059-27.308l6.018-4.688l3.365,8.294l14.154,34.863l2.089,5.144
			l7.057-0.971l37.486-5.158l7.11-0.978l-1.276,9.275l-5.064,36.829l-0.764,5.549l6.553,2.661l34.748,14.108l6.998,2.841
			l-5.545,7.119L367.536,245l27.036,34.709l4.958,6.364L391.641,289.275z"/>
	</g>
</g>
</svg>
