<?xml version="1.0" encoding="utf-8"?>
<!-- Generator: Adobe Illustrator 15.0.0, SVG Export Plug-In . SVG Version: 6.00 Build 0)  -->
<!DOCTYPE svg PUBLIC "-//W3C//DTD SVG 1.1//EN" "http://www.w3.org/Graphics/SVG/1.1/DTD/svg11.dtd">
<svg version="1.1" id="Layer_1" xmlns="http://www.w3.org/2000/svg" xmlns:xlink="http://www.w3.org/1999/xlink" x="0px" y="0px"
	 width="499.34px" height="497.053px" viewBox="0 0 499.34 497.053" enable-background="new 0 0 499.34 497.053"
	 xml:space="preserve">
<g id="Layer_X">
	<g id="change2">
		<polyline fill="#FFE36C" points="177,47 209,7 249,32 291,10 322,46 370,37 383.827,82.464 436,92 436,140 477,167 459,213 
			490,249 459,288 479,332 435,356 435,406 387,416 372,462 324,451 293,490 250,465 207,490 178,454 129,462 113,417 63,406 
			63,356 23,334 39,287 7,249 38,213 22,164 64,144 62,92 112,85 127,38 177,47 		"/>
	</g>
	<g id="change1">
		<path fill="#FFFFFF" d="M293.866,498.882l-43.636-26.991l-43.638,26.991l-31.591-40.426l-50.29,10.104l-15.602-48.861
			l-50.684-7.771l1.971-51.236L15.363,336.17l19.258-47.521L0.562,250.354l34.061-38.294l-19.258-47.52l45.034-24.52l-1.971-51.237
			l50.684-7.77l15.602-48.864l50.291,10.105l31.59-40.425l43.637,26.99l43.637-26.99l31.59,40.425l50.291-10.105l15.602,48.864
			l50.688,7.77l-1.972,51.238l45.031,24.52L465.84,212.06l34.062,38.294l-34.062,38.295l19.259,47.521l-45.032,24.521l1.972,51.235
			l-50.688,7.771L375.75,468.56l-50.291-10.104L293.866,498.882z M179.083,447.438l29.872,38.229l41.275-25.53l41.273,25.53
			l29.872-38.229l47.566,9.56l14.765-46.242l47.989-7.354l-1.866-48.521l42.646-23.22l-18.238-45.008l32.277-36.291l-32.277-36.292
			l18.238-45.007L429.83,145.84l1.866-48.521l-47.989-7.356l-14.766-46.242l-47.566,9.557L291.504,15.05L250.23,40.578
			l-41.275-25.53l-29.871,38.226l-47.567-9.558l-14.765,46.242l-47.989,7.357l1.866,48.521l-42.645,23.219l18.24,45.008
			l-32.28,36.292l32.28,36.293l-18.24,45.006l42.645,23.221l-1.867,48.521l47.989,7.356l14.765,46.243L179.083,447.438z"/>
		<path fill="#FFFFFF" d="M250,420.505c-94.017,0-170.504-76.486-170.504-170.505c0-94.017,76.487-170.504,170.504-170.504
			c94.017,0,170.505,76.487,170.505,170.504C420.505,344.019,344.017,420.505,250,420.505z M250,89.496
			c-88.502,0-160.504,72.002-160.504,160.504c0,88.503,72.002,160.505,160.504,160.505c88.503,0,160.505-72.002,160.505-160.505
			C410.505,161.498,338.503,89.496,250,89.496z"/>
		<path fill="#FFFFFF" d="M62.524,401.869l6.451,7.641l57.92-48.897c-2.228-2.479-4.381-5.021-6.458-7.633L62.524,401.869z
			 M125.162,457.703l8.676,4.973l38.201-66.656c-2.944-1.573-5.836-3.233-8.67-4.979L125.162,457.703z M22.276,328.996l3.447,9.387
			l70.925-26.048c-1.253-3.079-2.425-6.2-3.495-9.369L22.276,328.996z M431.024,409.51l6.448-7.641l-57.913-48.894
			c-2.074,2.609-4.229,5.155-6.458,7.635L431.024,409.51z M202.743,489.485l9.848,1.737l13.675-77.422
			c-3.316-0.477-6.603-1.042-9.853-1.712L202.743,489.485z M474.276,338.383l3.444-9.387l-70.877-26.03
			c-1.066,3.169-2.241,6.29-3.495,9.369L474.276,338.383z M366.162,462.676l8.676-4.973l-38.206-66.666
			c-2.835,1.745-5.727,3.405-8.671,4.979L366.162,462.676z M287.409,491.226l9.848-1.737l-13.67-77.396
			c-3.25,0.67-6.537,1.235-9.853,1.712L287.409,491.226z M25.724,162.307l-3.447,9.387l70.677,25.957
			c1.057-3.173,2.209-6.301,3.45-9.385L25.724,162.307z M477.724,171.693l-3.444-9.387l-70.683,25.958
			c1.24,3.084,2.396,6.213,3.45,9.386L477.724,171.693z M415.423,255H489v-10h-73.577c0.05,1.661,0.082,3.327,0.082,5
			S415.473,253.339,415.423,255z M84.577,245H13v10h71.577c-0.049-1.661-0.082-3.327-0.082-5
			C84.496,248.327,84.528,246.661,84.577,245z M437.476,98.82l-6.448-7.641l-57.57,48.603c2.221,2.485,4.371,5.034,6.438,7.65
			L437.476,98.82z M374.838,42.986l-8.676-4.973l-37.898,66.127c2.941,1.582,5.827,3.252,8.658,5.003L374.838,42.986z
			 M133.838,38.014l-8.676,4.973l37.916,66.157c2.831-1.75,5.717-3.421,8.658-5.003L133.838,38.014z M212.591,9.464l-9.848,1.739
			l13.553,76.73c3.249-0.672,6.535-1.242,9.851-1.721L212.591,9.464z M68.976,91.18l-6.451,7.641l57.582,48.612
			c2.069-2.616,4.219-5.165,6.439-7.65L68.976,91.18z M297.257,11.204l-9.848-1.739l-13.558,76.749
			c3.313,0.479,6.603,1.048,9.853,1.721L297.257,11.204z"/>
	</g>
</g>
</svg>
