<?xml version="1.0" encoding="utf-8"?>
<!-- Generator: Adobe Illustrator 15.0.0, SVG Export Plug-In . SVG Version: 6.00 Build 0)  -->
<!DOCTYPE svg PUBLIC "-//W3C//DTD SVG 1.1//EN" "http://www.w3.org/Graphics/SVG/1.1/DTD/svg11.dtd">
<svg version="1.1" id="Layer_1" xmlns="http://www.w3.org/2000/svg" xmlns:xlink="http://www.w3.org/1999/xlink" x="0px" y="0px"
	 width="492.604px" height="491.136px" viewBox="0 0 492.604 491.136" enable-background="new 0 0 492.604 491.136"
	 xml:space="preserve">
<g id="Layer_X">
	<g id="change2">
		<polygon fill="#C1A6F4" points="182.559,485.208 151.798,410.747 71.955,421.463 82.48,341.665 7.972,311.174 57.11,247.58 
			7.972,183.986 82.48,153.495 71.955,73.695 151.798,84.412 182.56,9.952 246.303,59.101 310.046,9.952 340.807,84.413 
			420.649,73.697 410.123,153.495 484.632,183.986 435.493,247.58 484.632,311.174 410.123,341.665 420.649,421.463 
			340.806,410.747 310.046,485.208 246.411,436.542 		"/>
	</g>
	<g id="change1">
		<path fill="#FFFFFF" d="M310.26,486.001l-63.85-48.83L182.345,486l-0.248-0.602l-30.614-74.104l-80.109,10.751l10.561-80.062
			l-74.76-30.594l49.304-63.809L7.175,183.772l74.76-30.595L71.374,73.113l80.109,10.752l30.864-74.708l63.956,49.312l63.956-49.312
			l0.249,0.604l30.614,74.104l80.108-10.751l-0.087,0.646l-10.477,79.416l74.76,30.594l-49.304,63.808l49.304,63.81l-0.605,0.247
			l-74.152,30.347l10.562,80.062l-80.109-10.751L310.26,486.001z M152.113,410.2l0.147,0.354l30.513,73.859l63.638-48.503
			l0.303,0.229l63.118,48.271L340.49,410.2l0.382,0.052l79.196,10.629l-10.491-79.531l0.354-0.146l73.901-30.242l-48.974-63.38
			l48.974-63.38l-74.258-30.388l0.05-0.382l10.441-79.15l-79.577,10.68l-0.146-0.356L309.831,10.75l-63.53,48.985L182.77,10.75
			l-30.659,74.212L72.536,74.278l10.49,79.534L8.77,184.2l48.973,63.38L8.77,310.96l74.257,30.39l-10.49,79.531L152.113,410.2z"/>
		<path fill="#FFFFFF" d="M312.181,491.136l-65.773-50.303l-65.985,50.292l-31.772-76.91l-82.504,11.073l10.876-82.455L0,311.312
			l50.792-65.732L0,179.846l77.02-31.519L66.144,65.871l82.503,11.074L180.435,0l65.868,50.788L312.171,0l31.787,76.945
			l82.503-11.073l-10.877,82.456l77.021,31.519l-50.793,65.734l50.793,65.733l-77.021,31.52l10.877,82.455l-82.504-11.073
			L312.181,491.136z M154.949,403.279l29.749,72.012l61.717-47.04l61.496,47.029l29.743-72.001l77.184,10.356l-10.176-77.141
			l71.997-29.464l-47.484-61.453l47.484-61.454l-71.997-29.464l10.176-77.141l-77.183,10.36l-29.734-71.976l-61.618,47.51
			l-61.619-47.51L154.949,87.88L77.767,77.52l10.175,77.142l-71.997,29.464L63.43,245.58l-47.485,61.454l71.997,29.463
			l-10.175,77.141L154.949,403.279z"/>
		<path fill="#FFFFFF" d="M200.636,414.544l-21.66-53.347l-57.018,7.846l7.844-57.02l-53.351-21.662L111.788,245l-35.336-45.362
			l53.351-21.662l-7.844-57.018l57.018,7.844l21.662-53.351L246,110.788l45.363-35.336l21.661,53.352l57.019-7.844l-7.845,57.017
			l53.35,21.661L380.212,245l35.336,45.361l-53.351,21.662l7.846,57.02l-57.019-7.846l-21.641,53.292l-45.745-34.964
			L200.636,414.544z M245.586,366.896l41.463,31.69l19.635-48.356l51.653,7.105l-7.105-51.652l48.3-19.61L367.536,245l31.994-41.073
			l-48.299-19.61l7.104-51.653l-51.653,7.106l-19.608-48.301L246,123.464l-41.073-31.995l-19.61,48.3l-51.654-7.106l7.106,51.654
			l-48.3,19.61L124.464,245l-31.995,41.073l48.3,19.61l-7.106,51.652l51.654-7.105l19.612,48.304L245.586,366.896z"/>
		<rect x="241" y="378" fill="#FFFFFF" width="10" height="61"/>
		<rect x="241" y="52" fill="#FFFFFF" width="10" height="61"/>
		<rect x="53" y="240" fill="#FFFFFF" width="61" height="10"/>
		<rect x="379" y="240" fill="#FFFFFF" width="61" height="10"/>
	</g>
</g>
</svg>
