<?xml version="1.0" encoding="utf-8"?>
<!-- Generator: Adobe Illustrator 16.0.0, SVG Export Plug-In . SVG Version: 6.00 Build 0)  -->
<!DOCTYPE svg PUBLIC "-//W3C//DTD SVG 1.1//EN" "http://www.w3.org/Graphics/SVG/1.1/DTD/svg11.dtd">
<svg version="1.1" id="Layer_1" xmlns="http://www.w3.org/2000/svg" xmlns:xlink="http://www.w3.org/1999/xlink" x="0px" y="0px"
	 width="500px" height="497.465px" viewBox="0 0 500 497.465" enable-background="new 0 0 500 497.465" xml:space="preserve">
<g id="change">
	<path fill="#C6302C" d="M499.969,252.477c0.021-1.25,0.031-2.508,0.031-3.965l-0.005-0.433c0-13.769-10.813-25.007-24.414-25.666
		c13.064-3.744,21.04-17.113,17.932-30.5c-0.286-1.247-0.58-2.474-0.888-3.702c-3.325-13.345-16.537-21.624-29.87-18.993
		c11.8-6.777,16.326-21.69,10.073-33.944c-0.565-1.118-1.148-2.238-1.735-3.354c-6.424-12.133-21.204-17.002-33.521-11.273
		c9.807-9.403,10.627-24.944,1.643-35.335c-0.824-0.95-1.652-1.89-2.483-2.829c-9.152-10.271-24.684-11.469-35.271-2.944
		c7.305-11.444,4.423-26.741-6.764-34.709c-1.036-0.748-2.082-1.476-3.137-2.201c-11.336-7.793-26.721-5.243-34.976,5.586
		c4.388-12.904-2.106-27.102-14.923-32.152c-1.167-0.458-2.342-0.908-3.521-1.352c-12.883-4.855-27.229,1.32-32.635,13.83
		c1.153-13.568-8.56-25.802-22.21-27.618c-1.247-0.164-2.494-0.325-3.748-0.476c-13.617-1.567-26.043,7.787-28.327,21.178
		c-2.14-13.409-14.439-22.936-28.102-21.476c-1.259,0.141-2.509,0.28-3.76,0.431c-13.645,1.67-23.475,13.764-22.5,27.324
		c-5.285-12.533-19.53-18.836-32.448-14.141c-1.191,0.434-2.384,0.88-3.567,1.334c-12.82,4.901-19.45,18.965-15.275,31.876
		c-8.144-10.843-23.454-13.529-34.85-5.883c-1.048,0.702-2.089,1.412-3.127,2.131c-11.286,7.835-14.354,23.098-7.182,34.646
		c-10.494-8.621-26.021-7.599-35.275,2.554c-0.854,0.933-1.698,1.873-2.533,2.823c-9.104,10.309-8.439,25.882,1.296,35.383
		c-12.269-5.899-27.125-1.194-33.688,10.889c-0.608,1.115-1.202,2.232-1.789,3.357c-6.379,12.202-2.001,27.171,9.75,34.057
		c-13.334-2.784-26.647,5.352-30.12,18.688c-0.314,1.216-0.625,2.438-0.925,3.657c-3.256,13.352,4.572,26.821,17.599,30.699
		c-13.575,0.521-24.513,11.598-24.694,25.34C0.007,246.445,0,247.573,0,248.712v0.321c0,13.918,11.074,25.104,24.89,25.521
		c-13.375,3.514-21.616,17.064-18.482,30.626c0.286,1.229,0.575,2.459,0.88,3.678c3.305,13.353,16.478,21.662,29.843,19.046
		c-11.812,6.768-16.359,21.676-10.127,33.94c0.568,1.115,1.148,2.235,1.731,3.34c6.414,12.15,21.181,17.044,33.504,11.332
		c-9.826,9.396-10.657,24.946-1.68,35.339c0.821,0.953,1.643,1.9,2.478,2.84c9.128,10.268,24.655,11.486,35.258,2.983
		c-7.333,11.454-4.451,26.783,6.763,34.759c1.018,0.727,2.04,1.442,3.063,2.145c11.336,7.832,26.729,5.311,35-5.506
		c-4.398,12.896,2.066,27.096,14.866,32.159c1.175,0.462,2.352,0.923,3.524,1.363c12.891,4.883,27.241-1.275,32.666-13.785
		c-1.177,13.568,8.517,25.815,22.165,27.656c1.251,0.161,2.498,0.32,3.748,0.476c13.647,1.628,26.054-7.755,28.359-21.138
		c1.979,12.509,12.81,21.658,25.34,21.658c0.9,0,1.815-0.042,2.73-0.146c1.251-0.133,2.505-0.271,3.752-0.42
		c13.652-1.655,23.503-13.729,22.543-27.296c5.271,12.541,19.511,18.877,32.442,14.183c1.184-0.434,2.368-0.865,3.542-1.312
		c12.838-4.884,19.492-18.935,15.335-31.859c8.14,10.878,23.469,13.579,34.87,5.911c1.038-0.688,2.064-1.396,3.085-2.104
		c11.305-7.817,14.398-23.076,7.24-34.641c10.498,8.649,26.039,7.63,35.302-2.536c0.838-0.918,1.677-1.848,2.504-2.772
		c9.128-10.298,8.492-25.878-1.24-35.401c12.248,5.918,27.122,1.24,33.718-10.832c0.602-1.114,1.198-2.222,1.778-3.344
		c6.413-12.188,2.054-27.178-9.69-34.084c13.337,2.814,26.661-5.311,30.15-18.633c0.321-1.228,0.629-2.449,0.93-3.668
		c3.276-13.349-4.534-26.829-17.554-30.729C488.811,277.284,499.77,266.214,499.969,252.477z"/>
</g>
</svg>
