<?xml version="1.0" encoding="utf-8"?>
<!-- Generator: Adobe Illustrator 21.0.0, SVG Export Plug-In . SVG Version: 6.00 Build 0)  -->
<svg version="1.1" id="Sun-CutoutShape-D5" xmlns="http://www.w3.org/2000/svg" xmlns:xlink="http://www.w3.org/1999/xlink" x="0px"
	 y="0px" viewBox="0 0 436.439 436.4389" enable-background="new 0 0 436.439 436.4389" xml:space="preserve">
<g id="change1">
	<path fill="#E3EEFF" d="M70.1792,250.1224c-1.7063-7.9249-2.7977-16.0751-3.2059-24.4032H18.1258L0,246.9487l23.0033,15.8147
		L70.1792,250.1224z"/>
	<path fill="#E3EEFF" d="M66.9734,210.7192c0.4082-8.3278,1.4996-16.4779,3.2057-24.4026l-47.1765-12.6409L0,189.4902
		l18.1257,21.229H66.9734z"/>
	<path fill="#E3EEFF" d="M74.0647,264.6102L26.885,277.2519l-12.0139,25.1968l26.3123,9.3227l42.3203-24.4337
		C79.7659,280.0821,76.6048,272.4845,74.0647,264.6102z"/>
	<path fill="#E3EEFF" d="M116.626,330.4194L82.0354,365.01l2.1942,27.8284l27.4481-5.0832l24.4476-42.3445
		C129.2202,340.9385,122.6986,335.923,116.626,330.4194z"/>
	<path fill="#E3EEFF" d="M74.0646,171.8284c2.5401-7.8742,5.7011-15.4718,9.4388-22.7273l-42.3198-24.4334l-26.3125,9.3221
		l12.0139,25.1968L74.0646,171.8284z"/>
	<path fill="#E3EEFF" d="M91.0281,300.3138l-42.3447,24.4478l-5.0828,27.4479l27.8279,2.1937l34.5907-34.5906
		C100.5156,313.7401,95.5003,307.2188,91.0281,300.3138z"/>
	<path fill="#E3EEFF" d="M225.7192,369.4651v48.8473l21.2295,18.1265l15.8148-23.003l-12.6412-47.1767
		C242.1974,367.9655,234.0472,369.0569,225.7192,369.4651z"/>
	<path fill="#E3EEFF" d="M173.6757,413.4368l15.8145,23.0021l21.229-18.1264v-48.8474c-8.3278-0.4082-16.4778-1.4996-24.4025-3.2057
		L173.6757,413.4368z"/>
	<path fill="#E3EEFF" d="M91.0277,136.1248c4.4723-6.905,9.4878-13.4266,14.9915-19.4991L71.4289,82.0354l-27.8282,2.1941
		l5.0827,27.4478L91.0277,136.1248z"/>
	<path fill="#E3EEFF" d="M136.1251,91.0278l-24.4476-42.3444l-27.4479-5.0828L82.0355,71.429l34.5903,34.5903
		C122.6984,100.5157,129.2199,95.5001,136.1251,91.0278z"/>
	<path fill="#E3EEFF" d="M171.8284,74.0646l-12.6418-47.1795l-25.1969-12.0135l-9.3223,26.3116l24.4337,42.3202
		C156.3566,79.7657,163.9542,76.6046,171.8284,74.0646z"/>
	<path fill="#E3EEFF" d="M366.2595,186.3169c1.7061,7.9246,2.7975,16.0745,3.2057,24.4023h48.8474l18.1264-21.229l-23.0021-15.8145
		L366.2595,186.3169z"/>
	<path fill="#E3EEFF" d="M300.3136,345.4106l24.4478,42.3447l27.4471,5.0831l2.1943-27.8281l-34.5905-34.5907
		C313.74,335.9231,307.2185,340.9385,300.3136,345.4106z"/>
	<path fill="#E3EEFF" d="M311.7714,41.1834l-9.3226-26.3118l-25.1969,12.0135L264.61,74.0647
		c7.8742,2.5401,15.4719,5.7012,22.7275,9.439L311.7714,41.1834z"/>
	<path fill="#E3EEFF" d="M345.4105,300.3136c-4.4722,6.9049-9.4875,13.4264-14.9911,19.4988l34.5911,34.5907l27.8278-2.1937
		l-5.0832-27.4481L345.4105,300.3136z"/>
	<path fill="#E3EEFF" d="M264.6102,362.3738l12.642,47.1807l25.1966,12.0134l9.3226-26.3123l-24.4338-42.3206
		C280.082,356.6727,272.4844,359.8338,264.6102,362.3738z"/>
	<path fill="#E3EEFF" d="M362.3738,264.61c-2.54,7.8742-5.7011,15.4718-9.4388,22.7274l42.3204,24.4338l26.3115-9.3225
		l-12.0128-25.1967L362.3738,264.61z"/>
	<path fill="#E3EEFF" d="M124.6677,395.2552l9.322,26.3126l25.1966-12.0134l12.642-47.1806
		c-7.8741-2.54-15.4717-5.701-22.7271-9.4387L124.6677,395.2552z"/>
	<path fill="#E3EEFF" d="M369.4653,225.7193c-0.4082,8.328-1.4997,16.4782-3.2059,24.4031l47.1767,12.6411l23.003-15.8147
		l-18.1265-21.2295H369.4653z"/>
	<path fill="#E3EEFF" d="M210.7192,66.9733V18.1257L189.4902,0l-15.8145,23.0023l12.641,47.1767
		C194.2415,68.4729,202.3914,67.3815,210.7192,66.9733z"/>
	<path fill="#E3EEFF" d="M225.7193,66.9733c8.3281,0.4082,16.4783,1.4997,24.4033,3.2059l12.6409-47.1758L246.9487,0
		l-21.2295,18.1258h0.0001V66.9733z"/>
	<path fill="#E3EEFF" d="M319.8125,106.0191l34.5905-34.5905l-2.1945-27.8279l-27.447,5.0828L300.3137,91.028
		C307.2186,95.5001,313.7401,100.5156,319.8125,106.0191z"/>
	<path fill="#E3EEFF" d="M362.3738,171.8284l47.1803-12.642l12.0128-25.1967l-26.3114-9.3222l-42.3204,24.4337
		C356.6729,156.3567,359.8339,163.9542,362.3738,171.8284z"/>
	<path fill="#E3EEFF" d="M345.4108,136.1252l42.3444-24.4476l5.0832-27.4481l-27.8284-2.1941l-34.5906,34.5905
		C335.923,122.6985,340.9387,129.2201,345.4108,136.1252z"/>
	<circle fill="#E3EEFF" cx="218.2195" cy="218.2194" r="139.7963"/>
</g>
</svg>
