<?xml version="1.0" encoding="utf-8"?>
<!-- Generator: Adobe Illustrator 21.0.0, SVG Export Plug-In . SVG Version: 6.00 Build 0)  -->
<svg version="1.1" id="Circle-SunCutout-D5" xmlns="http://www.w3.org/2000/svg" xmlns:xlink="http://www.w3.org/1999/xlink"
	 x="0px" y="0px" viewBox="0 0 498.336 498.2854" enable-background="new 0 0 498.336 498.2854" xml:space="preserve">
<g id="change1">
	<path fill="#8870FF" d="M211.1739,84.2241l-7.049-34.2568c-10.1824,2.3028-20.0816,5.3602-29.6283,9.1255l13.4329,32.304
		C195.435,88.4717,203.1962,86.0625,211.1739,84.2241z"/>
	<path fill="#8870FF" d="M151.1895,111.2565l-19.5754-28.9688c-8.4557,5.9761-16.4372,12.5789-23.8805,19.7385l24.7166,24.7166
		C138.3124,121.1488,144.5751,115.9713,151.1895,111.2565z"/>
	<path fill="#8870FF" d="M126.793,132.3999l-24.7166-24.7166c-7.7148,8.0203-14.7772,16.6701-21.1118,25.8599l29.2015,19.2347
		C115.1846,145.5598,120.7409,138.7424,126.793,132.3999z"/>
	<path fill="#8870FF" d="M214.3328,450.3508c10.057,1.7372,20.3625,2.7356,30.8606,2.9385v-34.9707
		c-8.2296-0.1919-16.3126-0.9824-24.2145-2.3143L214.3328,450.3508z"/>
	<path fill="#8870FF" d="M245.1934,79.967V44.9963c-11.3248,0.2189-22.4258,1.3628-33.2319,3.3619l7.049,34.257
		C227.5354,81.0741,236.2802,80.1748,245.1934,79.967z"/>
	<path fill="#8870FF" d="M180.5475,94.4796l-13.4283-32.2931c-10.0773,4.4412-19.7312,9.6697-28.8807,15.615l19.5742,28.967
		C165.0339,102.1175,172.6326,98.0063,180.5475,94.4796z"/>
	<path fill="#8870FF" d="M102.0792,401.9133l-26.2302,26.2302c21.4956,20.8205,46.7357,37.7883,74.6027,49.8285l14.1317-34.2506
		C141.2813,433.5496,120.1457,419.3171,102.0792,401.9133z"/>
	<path fill="#8870FF" d="M150.4512,477.9728l0.0435,0.0179c-0.0144-0.0062-0.0287-0.0125-0.0432-0.0188L150.4512,477.9728z"/>
	<path fill="#8870FF" d="M157.8467,481.0236l-7.352-3.0328c29.1136,12.5723,61.0941,19.7652,94.6987,20.2946v-36.9962
		c-25.7819-0.4794-50.4549-5.5718-73.2225-14.4981L157.8467,481.0236z"/>
	<path fill="#8870FF" d="M105.7552,159.4518l-29.2035-19.2361c-5.5099,8.7018-10.3763,17.8474-14.5411,27.3688l32.3321,13.3401
		C97.6396,173.4699,101.4592,166.2977,105.7552,159.4518z"/>
	<path fill="#8870FF" d="M58.9424,174.9728c-3.9587,10.1193-7.1255,20.6309-9.4387,31.4557l34.3452,6.6459
		c1.8542-8.5077,4.3476-16.7784,7.4321-24.7588L58.9424,174.9728z"/>
	<path fill="#8870FF" d="M82.3317,220.9293l-34.3469-6.6462c-1.7372,10.0567-2.7355,20.362-2.9384,30.8597h34.9712
		C80.2095,236.9135,80.9999,228.8309,82.3317,220.9293z"/>
	<path fill="#8870FF" d="M54.8495,334.2892l-34.2029,14.2227l-3.0713-7.3867l34.179-14.2127
		c-9.0591-22.9186-14.2245-47.782-14.7078-73.7697H0.0506c1.0365,65.7897,27.5607,125.3823,70.1416,169.344l26.2302-26.2302
		C79.1523,378.3288,65.0051,357.379,54.8495,334.2892z"/>
	<path fill="#8870FF" d="M48.4083,286.3745l34.2574-7.0491c-1.5411-8.5248-2.4403-17.2696-2.6481-26.1827H45.0464
		C45.2653,264.4675,46.4092,275.5684,48.4083,286.3745z"/>
	<path fill="#8870FF" d="M213.1241,414.4871c-8.5075-1.8543-16.778-4.3477-24.7582-7.4321l-13.3427,32.3384
		c10.1191,3.9587,20.6303,7.1254,31.455,9.4385L213.1241,414.4871z"/>
	<path fill="#8870FF" d="M82.3376,366.7214c5.9763,8.4559,12.5791,16.4375,19.739,23.8809l24.7166-24.7166
		c-5.594-5.8624-10.7717-12.1253-15.4865-18.7397L82.3376,366.7214z"/>
	<path fill="#8870FF" d="M107.7333,396.2592c8.0203,7.7148,16.67,14.7771,25.8597,21.1116l19.2347-29.2014
		c-7.218-5.0185-14.0353-10.5748-20.3777-16.6268L107.7333,396.2592z"/>
	<path fill="#8870FF" d="M140.2655,421.7837c8.702,5.5101,17.8478,10.3765,27.3695,14.5414l13.3401-32.3318
		c-7.4548-3.2971-14.6275-7.1167-21.4736-11.413L140.2655,421.7837z"/>
	<path fill="#8870FF" d="M62.2369,331.2173c4.4411,10.077,9.6696,19.7305,15.6146,28.8797l28.9673-19.5743
		c-4.6508-7.2209-8.7619-14.8195-12.2885-22.734L62.2369,331.2173z"/>
	<path fill="#8870FF" d="M50.0175,294.2111c2.3028,10.1825,5.3603,20.0819,9.1257,29.6288l32.3043-13.4332
		c-2.925-7.5057-5.3344-15.2668-7.1728-23.2447L50.0175,294.2111z"/>
	<path fill="#8870FF" d="M390.6532,396.259l-24.7167-24.7164c-5.8627,5.5943-12.1259,10.7722-18.7407,15.4873l19.5753,28.9688
		C375.2274,410.0223,383.2095,403.4192,390.6532,396.259z"/>
	<path fill="#8870FF" d="M436.1495,167.0684c-4.4412-10.0771-9.6696-19.7308-15.6147-28.88l-28.9669,19.5742
		c4.6509,7.2211,8.7619,14.8197,12.2886,22.7343L436.1495,167.0684z"/>
	<path fill="#8870FF" d="M416.049,131.5645c-5.9764-8.4561-12.5793-16.4379-19.7393-23.8815l-24.7164,24.7165
		c5.5941,5.8626,10.772,12.1255,15.487,18.7402L416.049,131.5645z"/>
	<path fill="#8870FF" d="M449.9781,211.9113l-34.257,7.0491c1.541,8.5247,2.4403,17.2693,2.6481,26.1823h34.9707
		C453.121,233.8182,451.9771,222.7173,449.9781,211.9113z"/>
	<path fill="#8870FF" d="M448.8825,291.8577l-34.3448-6.6458c-1.8543,8.5076-4.3477,16.778-7.4321,24.7582l32.3384,13.3427
		C443.4026,313.1936,446.5695,302.6823,448.8825,291.8577z"/>
	<path fill="#8870FF" d="M417.421,364.7435l-29.2014-19.2347c-5.0184,7.2178-10.5746,14.0349-16.6265,20.3772l24.7164,24.7166
		C404.0243,382.5824,411.0866,373.933,417.421,364.7435z"/>
	<path fill="#8870FF" d="M436.376,330.7004l-32.3318-13.34c-3.2971,7.455-7.1168,14.6278-11.4132,21.4741l29.2034,19.236
		C427.3445,349.3682,432.2111,340.2222,436.376,330.7004z"/>
	<path fill="#8870FF" d="M396.3069,96.3719l26.2304-26.2303c-21.4957-20.8206-46.736-37.7883-74.6031-49.8284l-14.1317,34.2506
		C357.1047,64.7356,378.2404,78.9681,396.3069,96.3719z"/>
	<path fill="#8870FF" d="M340.5401,17.2609l7.347,3.0317C318.7748,7.7216,286.7961,0.5294,253.1934,0v36.9963
		c25.7817,0.4794,50.4546,5.5718,73.222,14.498L340.5401,17.2609z"/>
	<path fill="#8870FF" d="M347.9346,20.3122l-0.0475-0.0196c0.0157,0.0068,0.0314,0.0138,0.0471,0.0206L347.9346,20.3122z"/>
	<path fill="#8870FF" d="M448.3689,204.0745c-2.3027-10.1824-5.3602-20.0818-9.1255-29.6285l-32.304,13.433
		c2.925,7.5056,5.3343,15.2668,7.1727,23.2446L448.3689,204.0745z"/>
	<path fill="#8870FF" d="M75.8526,70.1452l-0.662,0.662c0.2233-0.218,0.4456-0.4371,0.6697-0.6542L75.8526,70.1452z"/>
	<path fill="#8870FF" d="M70.8564,75.1414l4.3342-4.3342C73.7282,72.2343,72.2835,73.679,70.8564,75.1414z"/>
	<path fill="#8870FF" d="M37.0464,245.1428c0.4794-25.7818,5.5718-50.4548,14.4982-73.2223l-34.233-14.1244l3.0513-7.3955
		l34.2516,14.1321c10.1718-23.3018,24.4041-44.4372,41.8077-62.5035l-26.2191-26.219
		C27.626,119.7683,1.0871,179.3533,0.0506,245.1428H37.0464z"/>
	<path fill="#8870FF" d="M164.0472,54.799l-14.2068-34.165l7.3867-3.0713l14.1969,34.1411
		c22.9185-9.059,47.7818-14.2243,73.7694-14.7075V0C179.4036,1.0364,119.8185,27.5756,75.8604,70.153l26.2191,26.2191
		C120.0072,79.1019,140.9572,64.9546,164.0472,54.799z"/>
	<path fill="#8870FF" d="M70.1954,75.8024l0.0078,0.0078c0.2169-0.2239,0.4357-0.4458,0.6533-0.6688L70.1954,75.8024z"/>
	<polygon fill="#8870FF" points="0.0001,249.1475 0.0001,249.1379 0,249.1427 	"/>
	<path fill="#8870FF" d="M334.3395,443.4864l14.2113,34.1759l-7.3867,3.0723l-14.2018-34.1528
		c-22.9184,9.059-47.7816,14.2242-73.7689,14.7075v36.9962c65.7899-1.0366,125.3826-27.5609,169.3444-70.142l-26.2304-26.2302
		C378.3795,419.1834,357.4296,433.3307,334.3395,443.4864z"/>
	<path fill="#8870FF" d="M478.0235,347.884l0.014-0.0339c-0.0049,0.0112-0.0098,0.0224-0.0147,0.0336L478.0235,347.884z"/>
	<path fill="#8870FF" d="M401.9638,396.2568l26.2302,26.2303c20.8207-21.4958,37.7886-46.7361,49.8289-74.6034l-34.2505-14.1316
		C433.6004,357.0543,419.3678,378.1901,401.9638,396.2568z"/>
	<path fill="#8870FF" d="M461.3399,253.1428c-0.4794,25.7819-5.5718,50.4548-14.4982,73.2224l34.2325,14.1243l-3.0367,7.3606
		c12.5746-29.116,19.7689-61.0994,20.2985-94.7073H461.3399z"/>
	<path fill="#8870FF" d="M443.537,163.9964l34.2101-14.2257l3.0723,7.3867l-34.1871,14.2161
		c9.059,22.9185,14.2244,47.7817,14.7076,73.7693h36.9961c-1.0365-65.7899-27.5609-125.3826-70.142-169.3444l-26.2302,26.2303
		C419.234,119.9565,433.3813,140.9065,443.537,163.9964z"/>
	<path fill="#8870FF" d="M453.3399,253.1428h-34.9707c-0.1919,8.2297-0.9825,16.3129-2.3144,24.215l34.3464,6.6462
		C452.1385,273.9468,453.137,263.641,453.3399,253.1428z"/>
	<path fill="#8870FF" d="M358.1201,76.5012c-8.702-5.51-17.8477-10.3763-27.3693-14.5411l-13.34,32.3317
		c7.4547,3.2969,14.6273,7.1166,21.4733,11.4127L358.1201,76.5012z"/>
	<path fill="#8870FF" d="M390.6528,102.0261c-8.0203-7.7147-16.6699-14.7771-25.8596-21.1116l-19.2346,29.2013
		c7.2181,5.0184,14.0353,10.5746,20.3777,16.6266L390.6528,102.0261z"/>
	<path fill="#8870FF" d="M284.0537,47.9348c-10.0569-1.7372-20.3624-2.7356-30.8603-2.9385V79.967
		c8.2294,0.1919,16.3123,0.9824,24.2141,2.3142L284.0537,47.9348z"/>
	<path fill="#8870FF" d="M253.1934,418.3185v34.9707c11.3243-0.2189,22.4249-1.3627,33.2307-3.3617l-7.049-34.257
		C270.8506,417.2115,262.1061,418.1107,253.1934,418.3185z"/>
	<path fill="#8870FF" d="M287.2119,414.0616l7.049,34.2568c10.1825-2.3027,20.0821-5.3602,29.629-9.1255l-13.433-32.304
		C302.951,409.8139,295.1898,412.2233,287.2119,414.0616z"/>
	<path fill="#8870FF" d="M360.1472,420.4846l-19.5742-28.967c-7.2209,4.6507-14.8193,8.7618-22.7338,12.2883l13.4284,32.2931
		C341.3446,431.6579,350.998,426.4296,360.1472,420.4846z"/>
	<path fill="#8870FF" d="M285.2616,83.7982c8.5078,1.8543,16.7784,4.3477,24.7589,7.4322l13.3427-32.3383
		c-10.1194-3.9588-20.6309-7.1256-31.4557-9.4387L285.2616,83.7982z"/>
	<path fill="#8870FF" d="M253.1934,410.2582v0.0604c8.3612-0.2047,16.5667-1.048,24.5691-2.4847l-0.0099-0.048
		c2.6353-0.4713,5.2486-1.0062,7.8378-1.6039l0.0087,0.042c6.326-1.4657,12.4979-3.3313,18.5157-5.5208
		c0.3908-0.1417,0.7802-0.2862,1.1696-0.4308c0.6987-0.2603,1.4054-0.5038,2.0995-0.7734l-0.0089-0.0214
		c2.4927-0.9653,4.9554-1.9898,7.3863-3.0737l0.0061,0.0146c0.1804-0.0806,0.3557-0.1703,0.5356-0.2516
		c1.4766-0.665,2.9392-1.3552,4.3918-2.063c0.466-0.2274,0.9285-0.4601,1.392-0.6918c1.372-0.6851,2.7342-1.3865,4.0836-2.1091
		c0.2156-0.1156,0.4343-0.2261,0.6494-0.3427c1.5799-0.8555,3.1396-1.7429,4.6872-2.649c0.3007-0.1763,0.6003-0.3538,0.8998-0.532
		c25.3647-15.0737,46.2375-36.9059,60.1387-63.0189c0.0786-0.1472,0.1555-0.2952,0.2336-0.4427
		c0.7838-1.4833,1.5477-2.9785,2.2861-4.4888c0.0757-0.1546,0.1545-0.3074,0.2297-0.4623c0.7244-1.4938,1.4241-3.0017,2.1032-4.5209
		c0.0808-0.1804,0.1696-0.3563,0.2498-0.537l-0.0126-0.0052c1.0771-2.4335,2.095-4.8986,3.0534-7.3936l0.0192,0.0079
		c0.1703-0.4421,0.3201-0.8941,0.4866-1.3381c0.3119-0.8341,0.6153-1.6721,0.9137-2.5127c0.5377-1.5106,1.0497-3.0326,1.5432-4.5634
		c0.1757-0.5465,0.3569-1.0906,0.5269-1.6396c0.3348-1.0786,0.6545-2.1632,0.9671-3.2513c0.0966-0.3373,0.1895-0.676,0.2839-1.0142
		c0.8238-2.9398,1.5931-5.9022,2.2517-8.9069l-0.0405-0.0078c0.567-2.5957,1.071-5.2145,1.5112-7.8552l0.046,0.0089
		c1.2398-7.4089,1.9828-14.9837,2.1716-22.6946h-0.0557c0.0325-1.3312,0.0507-2.6659,0.0507-4.0049
		c0-1.3357-0.0182-2.6672-0.0505-3.9951h0.0555c-0.2047-8.3615-1.048-16.5672-2.4849-24.5698l-0.0425,0.0087
		c-0.4712-2.6354-1.0062-5.2486-1.6038-7.8379l0.0364-0.0075c-1.1891-5.1324-2.645-10.1622-4.3148-15.0942
		c-0.0259-0.0768-0.05-0.1544-0.076-0.2311c-0.3174-0.933-0.6472-1.86-0.981-2.7853c-0.2568-0.7145-0.5201-1.4258-0.7866-2.1356
		c-0.1925-0.511-0.3691-1.0296-0.5666-1.5381l-0.0157,0.0065c-0.9653-2.4926-1.9896-4.9553-3.0734-7.386l0.0088-0.0037
		c-0.0485-0.1083-0.1025-0.2136-0.1512-0.3218c-0.735-1.6387-1.4999-3.2608-2.2875-4.8699
		c-0.1247-0.2543-0.252-0.5068-0.3779-0.7604c-1.7021-3.4313-3.522-6.793-5.4561-10.0803
		c-0.0591-0.1003-0.1185-0.2004-0.1778-0.3007c-16.9915-28.7385-42.6463-51.7427-73.3763-65.4157
		c-0.0952-0.0425-0.1879-0.0895-0.2832-0.1318l-0.0027,0.0067c-2.4335-1.0771-4.8987-2.095-7.3938-3.0533l0.0055-0.0133
		c-0.3073-0.1183-0.6218-0.2216-0.93-0.3381c-1.1616-0.4379-2.3295-0.8623-3.5037-1.274c-0.6754-0.2375-1.3502-0.4756-2.0297-0.7043
		c-1.2781-0.429-2.5638-0.8415-3.856-1.2391c-0.8713-0.2688-1.7471-0.5263-2.6245-0.7807c-0.679-0.1962-1.361-0.3846-2.0436-0.5721
		c-1.8575-0.5118-3.7283-0.9897-5.6119-1.4361c-0.3167-0.0748-0.6315-0.1542-0.9489-0.2271
		c-0.5613-0.1294-1.1151-0.2781-1.6786-0.4016l-0.0067,0.0347c-2.5957-0.5669-5.2145-1.0709-7.8553-1.511l0.0078-0.0404
		c-7.4086-1.2397-14.983-1.9827-22.6937-2.1714v0.0506c-1.3296-0.0324-2.6627-0.0506-4.0001-0.0506
		c-1.3373,0-2.6703,0.0182-3.9999,0.0506V87.967c-8.3616,0.2047-16.5676,1.048-24.5704,2.4849l0.0079,0.0386
		c-2.6353,0.4713-5.2485,1.0062-7.8376,1.6039l-0.0067-0.0327c-2.5991,0.6022-5.1642,1.291-7.7132,2.0186
		c-0.003,0.0009-0.006,0.0018-0.009,0.0026c-2.2057,0.6298-4.3915,1.3052-6.5578,2.0258c-0.3938,0.1304-0.79,0.2555-1.1824,0.3888
		c-0.8201,0.2798-1.635,0.5701-2.4492,0.8626c-0.8689,0.311-1.7335,0.6306-2.5954,0.9561
		c-0.4239,0.1605-0.8549,0.3064-1.2771,0.4704l0.0054,0.0131c-2.4924,0.9653-4.9551,1.9897-7.3858,3.0737l-0.0026-0.0063
		c-0.078,0.0349-0.1537,0.0738-0.2316,0.1088c-1.7019,0.7622-3.386,1.5562-5.0561,2.375c-0.1776,0.0872-0.354,0.1761-0.5312,0.264
		c-3.5055,1.735-6.9382,3.5933-10.2937,5.5701c-0.0458,0.027-0.0915,0.0541-0.1373,0.0812
		c-28.7468,16.9745-51.764,42.614-65.4544,73.3317c-0.0568,0.1272-0.1196,0.2512-0.1761,0.3785l0.0089,0.0037
		c-1.0771,2.4338-2.095,4.8992-3.0533,7.3945l-0.0158-0.0065c-0.1407,0.3652-0.2639,0.7389-0.4019,1.1054
		c-0.3813,1.015-0.7514,2.0353-1.1127,3.0599c-0.3815,1.0787-0.7496,2.163-1.1085,3.2521c-0.302,0.9189-0.6025,1.8384-0.8884,2.7645
		c-0.3029,0.9786-0.5926,1.9625-0.8772,2.949c-0.1423,0.4947-0.2789,0.9916-0.4166,1.4883
		c-0.619,2.2256-1.1943,4.4686-1.7191,6.7316c-0.002,0.0084-0.0041,0.0169-0.006,0.0253c-0.1433,0.6185-0.3066,1.2294-0.4428,1.8506
		l0.0383,0.0074c-0.5668,2.5959-1.0708,5.215-1.5109,7.8561l-0.0443-0.0085c-1.2397,7.4084-1.9825,14.9827-2.1713,22.6931h0.0553
		c-0.0323,1.3279-0.0505,2.6594-0.0505,3.9951c0,1.339,0.0182,2.6737,0.0507,4.0049h-0.0554
		c0.2047,8.3616,1.048,16.5674,2.4849,24.5701l0.0441-0.0091c0.4713,2.6352,1.0063,5.2485,1.6041,7.8376l-0.0384,0.0079
		c1.449,6.2543,3.2887,12.358,5.4457,18.3113c0.1981,0.5487,0.4006,1.095,0.6044,1.6409c0.2282,0.6092,0.4397,1.2264,0.6749,1.8322
		l0.0187-0.0078c0.9653,2.4924,1.9899,4.9551,3.0739,7.3857l-0.0122,0.0051c0.0672,0.1504,0.1421,0.2965,0.2098,0.4467
		c0.6921,1.5392,1.4113,3.0635,2.1498,4.5767c0.1902,0.3892,0.3848,0.7756,0.578,1.163c0.7427,1.4909,1.5037,2.9711,2.2908,4.4352
		c0.0654,0.1216,0.1276,0.245,0.1933,0.3664c0.8813,1.6293,1.796,3.2375,2.7311,4.8324c0.1441,0.2455,0.2891,0.4902,0.4344,0.7348
		c15.0605,25.3755,36.8824,46.2615,62.9883,60.1772c0.2147,0.1147,0.4307,0.2271,0.6459,0.3408
		c1.3815,0.7283,2.7734,1.4389,4.1782,2.1279c0.2423,0.1191,0.4821,0.2424,0.7251,0.3603c1.439,0.6968,2.8911,1.3705,4.3536,2.0255
		c0.2117,0.095,0.4183,0.1992,0.6306,0.2933l0.0061-0.0148c2.4337,1.0771,4.899,2.095,7.3943,3.0533l-0.0089,0.0217
		c0.5,0.1926,1.0108,0.3625,1.5132,0.5502c0.688,0.2563,1.3791,0.506,2.0715,0.7532c1.9107,0.684,3.8372,1.3326,5.7802,1.9455
		c0.184,0.0579,0.3662,0.1196,0.5504,0.1768c1.1867,0.3696,2.3805,0.7219,3.5787,1.0645c0.1519,0.0433,0.3046,0.085,0.4567,0.1279
		c3.0598,0.8654,6.1453,1.6688,9.2756,2.3549l0.0085-0.0441c2.5959,0.5669,5.2149,1.071,7.856,1.511l-0.0096,0.0499
		c7.4087,1.2397,14.9833,1.9827,22.6941,2.1714v-0.0604c1.3295,0.0324,2.6625,0.0506,3.9999,0.0506
		C250.5307,410.3088,251.8638,410.2906,253.1934,410.2582z"/>
</g>
</svg>
