<?xml version="1.0" encoding="utf-8"?>
<!-- Generator: Adobe Illustrator 21.0.0, SVG Export Plug-In . SVG Version: 6.00 Build 0)  -->
<svg version="1.1" id="Filled-Star-shape2-D5" xmlns="http://www.w3.org/2000/svg" xmlns:xlink="http://www.w3.org/1999/xlink"
	 x="0px" y="0px" viewBox="0 0 418.0401 418.0401" enable-background="new 0 0 418.0401 418.0401" xml:space="preserve">
<g id="change1">
	<path fill="#A9D3AA" d="M37.8274,205.5201c1.8478-91.6458,76.0471-165.845,167.6929-167.6929V0
		C92.8388,1.8514,1.8515,92.8387,0,205.5201H37.8274z"/>
	<path fill="#A9D3AA" d="M373.2571,209.0201c0-90.5605-73.6768-164.2373-164.2368-164.2373
		c-90.5605,0-164.2373,73.6768-164.2373,164.2373s73.6768,164.2373,164.2373,164.2373
		C299.5803,373.2574,373.2571,299.5806,373.2571,209.0201z"/>
	<path fill="#A9D3AA" d="M212.5208,37.8272c91.6455,1.8481,165.8441,76.0472,167.6919,167.6929h37.8275
		C416.1886,92.839,325.2018,1.8519,212.5208,0V37.8272z"/>
	<path fill="#A9D3AA" d="M205.5203,380.213c-91.6458-1.8478-165.845-76.0466-167.6929-167.6929H0
		c1.8516,112.6814,92.8389,203.6686,205.5203,205.52V380.213z"/>
	<path fill="#A9D3AA" d="M380.2126,212.5201c-1.8478,91.6461-76.0464,165.8447-167.6919,167.6929v37.8271
		c112.681-1.8519,203.6678-92.839,205.5193-205.52H380.2126z"/>
</g>
</svg>
