<?xml version="1.0" encoding="utf-8"?>
<!-- Generator: Adobe Illustrator 21.0.0, SVG Export Plug-In . SVG Version: 6.00 Build 0)  -->
<svg version="1.1" id="Filled-Star-shape-D5" xmlns="http://www.w3.org/2000/svg" xmlns:xlink="http://www.w3.org/1999/xlink"
	 x="0px" y="0px" viewBox="0 0 419.5366 419.5366" enable-background="new 0 0 419.5366 419.5366" xml:space="preserve">
<g id="change1">
	<polygon fill="#27D0B9" points="329.9683,209.7683 362.5366,168.8337 313.8647,149.6682 321.603,97.9338 269.8687,105.6721 
		250.7026,56.9998 209.7686,89.5686 168.834,56.9998 149.6685,105.6721 97.9341,97.9338 105.6724,149.6682 57,168.8337 
		89.5684,209.7683 57,250.7019 105.6724,269.8679 97.9341,321.6033 149.6685,313.865 168.834,362.5369 209.7686,329.9685 
		250.7026,362.5369 269.8687,313.865 321.603,321.6033 313.8647,269.8679 362.5366,250.7019 	"/>
	<polygon fill="#27D0B9" points="41.9359,206.2683 77.8383,206.2683 45.6309,165.7878 97.9253,145.1956 89.6108,89.6116 
		145.1958,97.925 165.7881,45.6306 206.2686,77.8386 206.2686,41.936 153.5611,0 127.2444,66.8327 56.2073,56.2072 
		66.8328,127.2444 0,153.561 	"/>
	<polygon fill="#27D0B9" points="213.269,77.8382 253.7495,45.6306 274.3413,97.925 329.9253,89.6116 321.6108,145.1956 
		373.9058,165.7878 341.6983,206.2683 377.6008,206.2683 419.5366,153.561 352.7039,127.2444 363.3293,56.2072 292.2922,66.8327 
		265.9756,0 213.269,41.9352 	"/>
	<polygon fill="#27D0B9" points="206.2686,341.6985 165.7881,373.906 145.1958,321.6111 89.6108,329.9255 97.9253,274.3406 
		45.6309,253.7488 77.8383,213.2683 41.9358,213.2683 0,265.9755 66.8328,292.2922 56.2073,363.3293 127.2444,352.7039 
		153.5611,419.5366 206.2686,377.6006 	"/>
	<polygon fill="#27D0B9" points="377.6009,213.2683 341.6983,213.2683 373.9058,253.7488 321.6108,274.3406 329.9253,329.9255 
		274.3413,321.6111 253.7495,373.906 213.269,341.6989 213.269,377.6013 265.9756,419.5366 292.2922,352.7039 363.3293,363.3293 
		352.7039,292.2922 419.5366,265.9755 	"/>
</g>
</svg>
