<?xml version="1.0" encoding="utf-8"?>
<!-- Generator: Adobe Illustrator 21.0.0, SVG Export Plug-In . SVG Version: 6.00 Build 0)  -->
<svg version="1.1" id="Circle-Line-Dashed5-D5" xmlns="http://www.w3.org/2000/svg" xmlns:xlink="http://www.w3.org/1999/xlink"
	 x="0px" y="0px" viewBox="0 0 499.6997 499.6997" enable-background="new 0 0 499.6997 499.6997" xml:space="preserve">
<g id="change1">
	<path fill="#00B5B5" d="M426.5202,73.1795C379.3309,25.9887,316.5881,0,249.8501,0C183.1126,0,120.3698,25.9887,73.1795,73.1795
		C25.9887,120.3698,0,183.1126,0,249.8501c0,66.738,25.9887,129.4808,73.1795,176.6701
		c47.1902,47.1903,109.9331,73.1795,176.6706,73.1795c66.738,0,129.4808-25.9892,176.6701-73.1795
		c47.1903-47.1893,73.1795-109.9321,73.1795-176.6701C499.6997,183.1126,473.7105,120.3698,426.5202,73.1795z M419.4972,419.4972
		c-45.3143,45.3142-105.5632,70.2693-169.6471,70.2693c-64.0844,0-124.3328-24.9551-169.6471-70.2693
		C34.8888,374.1829,9.9332,313.934,9.9332,249.8501c0-64.0844,24.9556-124.3328,70.2698-169.6471
		C125.5173,34.8888,185.7657,9.9332,249.8501,9.9332c64.0839,0,124.3328,24.9556,169.6471,70.2698
		c45.3142,45.3143,70.2693,105.5627,70.2693,169.6471C489.7665,313.934,464.8114,374.1829,419.4972,419.4972z"/>
	<path fill="#00B5B5" d="M444.1953,249.8496c0-107.1621-87.1836-194.3452-194.3457-194.3452S55.5044,142.6875,55.5044,249.8496
		s87.1831,194.3457,194.3452,194.3457S444.1953,357.0117,444.1953,249.8496z M249.8496,434.1953
		c-101.6484,0-184.3452-82.6973-184.3452-184.3457S148.2012,65.5044,249.8496,65.5044s184.3457,82.6968,184.3457,184.3452
		S351.498,434.1953,249.8496,434.1953z"/>
	<path fill="#00B5B5" d="M164.6128,59.5459l-6.1377-13.6865c-0.9502,0.4263-1.8975,0.8589-2.8408,1.2983l6.332,13.5977
		C162.8452,60.3462,163.7271,59.9434,164.6128,59.5459z"/>
	<path fill="#00B5B5" d="M145.6323,69.2612l-7.5117-12.9834c-0.8999,0.5205-1.7959,1.0474-2.6875,1.5796l7.6904,12.8789
		C143.9556,70.2393,144.792,69.7476,145.6323,69.2612z"/>
	<path fill="#00B5B5" d="M154.9956,64.1611l-6.833-13.3535c-0.9263,0.4741-1.8486,0.9546-2.7676,1.4409l7.0186,13.2568
		C153.271,65.0513,154.1318,64.603,154.9956,64.1611z"/>
	<path fill="#00B5B5" d="M119.2832,87.3267l-9.4023-11.6875c-0.8086,0.6509-1.6133,1.3071-2.4131,1.9692l9.5635,11.5557
		C117.7783,88.5459,118.5288,87.9336,119.2832,87.3267z"/>
	<path fill="#00B5B5" d="M136.5425,74.8335l-8.165-12.583c-0.8721,0.5659-1.7393,1.1372-2.6025,1.7144l8.3389,12.4688
		C134.9194,75.8945,135.729,75.3613,136.5425,74.8335z"/>
	<path fill="#00B5B5" d="M127.7524,80.8608l-8.7959-12.1504c-0.8413,0.6089-1.6782,1.2236-2.5107,1.8438l8.9629,12.0283
		C126.1855,82.0034,126.9668,81.4297,127.7524,80.8608z"/>
	<path fill="#00B5B5" d="M174.4604,55.4297l-5.4277-13.9834c-0.9712,0.377-1.9395,0.7603-2.9043,1.1504l5.6235,13.9062
		C172.6519,56.1392,173.5547,55.7812,174.4604,55.4297z"/>
	<path fill="#00B5B5" d="M215.4854,44.2007l-2.4521-14.7979c-1.0249,0.1694-2.0483,0.3467-3.0688,0.5308l2.6611,14.7617
		C213.5767,44.5239,214.5298,44.3594,215.4854,44.2007z"/>
	<path fill="#00B5B5" d="M226.0288,42.728l-1.6924-14.9043c-1.0337,0.1172-2.0649,0.2417-3.0947,0.374l1.9082,14.8779
		C224.1079,42.9531,225.0674,42.8374,226.0288,42.728z"/>
	<path fill="#00B5B5" d="M111.1548,94.2124l-9.9834-11.1953c-0.7754,0.6914-1.5464,1.3887-2.312,2.0913l10.1445,11.0498
		C109.7158,95.5044,110.4331,94.856,111.1548,94.2124z"/>
	<path fill="#00B5B5" d="M236.6353,41.7944l-0.9336-14.9707c-1.0381,0.0645-2.0747,0.1367-3.1089,0.2158l1.1484,14.9561
		C234.7041,41.9219,235.6685,41.855,236.6353,41.7944z"/>
	<path fill="#00B5B5" d="M184.5078,51.8262l-4.6953-14.2461c-0.9912,0.3267-1.9795,0.6606-2.9644,1.001l4.9004,14.1768
		C182.665,52.4409,183.585,52.1304,184.5078,51.8262z"/>
	<path fill="#00B5B5" d="M205.0347,46.21l-3.2109-14.6523c-1.0142,0.2222-2.0259,0.4517-3.0352,0.6875l3.4121,14.6064
		C203.1436,46.6313,204.0879,46.4175,205.0347,46.21z"/>
	<path fill="#00B5B5" d="M194.6978,48.7539l-3.9551-14.4688c-1.0024,0.2739-2.002,0.5547-2.9985,0.8428l4.1602,14.4111
		C192.8325,49.2715,193.7637,49.0093,194.6978,48.7539z"/>
	<path fill="#00B5B5" d="M70.6577,143.2544l-12.8828-7.6826c-0.5308,0.8896-1.0557,1.7837-1.5737,2.6816l12.9932,7.4961
		C69.6763,144.9141,70.1641,144.0825,70.6577,143.2544z"/>
	<path fill="#00B5B5" d="M52.7671,181.7227l-14.1777-4.8965c-0.3384,0.9785-0.6694,1.96-0.9951,2.9443l14.2422,4.708
		C52.1406,183.5576,52.4512,182.6387,52.7671,181.7227z"/>
	<path fill="#00B5B5" d="M103.3901,101.4985l-10.541-10.6719c-0.7373,0.728-1.4692,1.4614-2.1963,2.1992l10.6826,10.5293
		C102.0156,102.8652,102.7007,102.1797,103.3901,101.4985z"/>
	<path fill="#00B5B5" d="M49.5488,191.8711l-14.4092-4.167c-0.2886,0.9966-0.5693,1.9961-0.8442,2.9985l14.4678,3.9619
		C49.0186,193.7305,49.2808,192.7993,49.5488,191.8711z"/>
	<path fill="#00B5B5" d="M46.8604,202.1655l-14.6064-3.4141c-0.2358,1.0098-0.4653,2.022-0.6875,3.0371l14.6523,3.209
		C46.4263,204.0508,46.6401,203.1069,46.8604,202.1655z"/>
	<path fill="#00B5B5" d="M41.4546,244.3389l-14.9951-0.3887c-0.0269,1.0342-0.0464,2.0698-0.0591,3.1069l14.999,0.1826
		C41.4111,246.271,41.4297,245.3037,41.4546,244.3389z"/>
	<path fill="#00B5B5" d="M43.0815,223.1079l-14.8789-1.9014c-0.1313,1.0273-0.2559,2.0566-0.3735,3.0879l14.9033,1.6997
		C42.8423,225.0298,42.959,224.0679,43.0815,223.1079z"/>
	<path fill="#00B5B5" d="M41.9995,233.7031l-14.9561-1.1484c-0.0791,1.0342-0.1519,2.0708-0.2163,3.1089l14.9707,0.9336
		C41.8584,235.6304,41.9258,234.666,41.9995,233.7031z"/>
	<path fill="#00B5B5" d="M44.7021,212.5884l-14.7617-2.6611c-0.1836,1.0181-0.3604,2.0391-0.5308,3.062l14.7959,2.4658
		C44.3652,214.4976,44.5303,213.542,44.7021,212.5884z"/>
	<path fill="#00B5B5" d="M89.0234,117.2012l-11.5674-9.5498c-0.6587,0.7979-1.3115,1.6001-1.96,2.4067l11.6914,9.3975
		C87.7949,118.6997,88.4067,117.9482,89.0234,117.2012z"/>
	<path fill="#00B5B5" d="M82.458,125.5757l-12.0342-8.9541c-0.6182,0.8311-1.2305,1.6665-1.8379,2.5063l12.1572,8.7871
		C81.3096,127.1309,81.8809,126.3511,82.458,125.5757z"/>
	<path fill="#00B5B5" d="M96.0059,109.1694l-11.0674-10.125c-0.6997,0.7646-1.394,1.5347-2.0835,2.3091l11.2061,9.9717
		C94.7046,110.6016,95.353,109.8833,96.0059,109.1694z"/>
	<path fill="#00B5B5" d="M56.501,171.7559l-13.9072-5.6201c-0.3882,0.9609-0.77,1.9253-1.1455,2.8926l13.9824,5.4297
		C55.7817,173.5542,56.1382,172.6533,56.501,171.7559z"/>
	<path fill="#00B5B5" d="M60.7285,162.0264l-13.5986-6.3301c-0.4365,0.9375-0.8662,1.8784-1.29,2.8232l13.6875,6.1367
		C59.9219,163.7759,60.3223,162.8994,60.7285,162.0264z"/>
	<path fill="#00B5B5" d="M76.3311,134.2676l-12.4736-8.3311c-0.5757,0.8618-1.145,1.7285-1.7085,2.5991l12.5918,8.1504
		C75.2656,135.876,75.7954,135.0693,76.3311,134.2676z"/>
	<path fill="#00B5B5" d="M303.623,32.897c-1.0068-0.2485-2.0166-0.4907-3.0273-0.7256l-3.3945,14.6113
		c0.9443,0.2192,1.8857,0.4448,2.8242,0.6768L303.623,32.897z"/>
	<path fill="#00B5B5" d="M441.1885,166.9604l13.7617-5.9678c-0.4141-0.9546-0.835-1.9058-1.2607-2.8525l-13.6797,6.1543
		C440.4082,165.1792,440.8018,166.0684,441.1885,166.9604z"/>
	<path fill="#00B5B5" d="M436.6924,157.2871l13.4355-6.6699c-0.4639-0.9336-0.9326-1.8638-1.4102-2.7896l-13.3359,6.8652
		C435.8252,155.5542,436.2617,156.4189,436.6924,157.2871z"/>
	<path fill="#00B5B5" d="M426.2461,138.6997l12.6855-8.0049c-0.5566-0.8813-1.1191-1.7588-1.6885-2.6313l-12.5625,8.1953
		C425.209,137.0688,425.7305,137.8818,426.2461,138.6997z"/>
	<path fill="#00B5B5" d="M431.708,147.8579l13.0771-7.3477c-0.5107-0.9077-1.0264-1.812-1.5498-2.7124l-12.9688,7.5381
		C430.7529,146.1729,431.2334,147.0137,431.708,147.8579z"/>
	<path fill="#00B5B5" d="M420.3301,129.8398l12.2539-8.6509c-0.5986-0.8477-1.2021-1.6914-1.8115-2.5308l-12.1367,8.8154
		C419.2061,128.2583,419.7705,129.0474,420.3301,129.8398z"/>
	<path fill="#00B5B5" d="M407.1787,113.0752l11.3184-9.8438c-0.6807-0.7827-1.3682-1.5605-2.0596-2.3345l-11.1816,9.999
		C405.9023,111.6182,406.543,112.3442,407.1787,113.0752z"/>
	<path fill="#00B5B5" d="M399.9863,105.2202l10.8047-10.4038c-0.7197-0.748-1.4453-1.4902-2.1748-2.2275l-10.6582,10.5557
		C398.6387,103.8311,399.3154,104.5234,399.9863,105.2202z"/>
	<path fill="#00B5B5" d="M413.9658,121.2876l11.8027-9.2559c-0.6406-0.8179-1.2881-1.6309-1.9414-2.4399l-11.6699,9.4238
		C412.7656,119.769,413.3682,120.5264,413.9658,121.2876z"/>
	<path fill="#00B5B5" d="M457.2451,228.5869l14.9238-1.5176c-0.1055-1.0312-0.2168-2.0605-0.335-3.0879l-14.9023,1.7109
		C457.042,226.6553,457.1475,227.6201,457.2451,228.5869z"/>
	<path fill="#00B5B5" d="M455.9043,218.0259l14.8262-2.2764c-0.1572-1.0249-0.3213-2.0479-0.4922-3.0679l-14.7949,2.4717
		C455.6025,216.1089,455.7568,217.0664,455.9043,218.0259z"/>
	<path fill="#00B5B5" d="M458.0498,239.2046l14.9805-0.7588c-0.0518-1.0347-0.1113-2.0679-0.1768-3.0996l-14.9707,0.9512
		C457.9443,237.2646,458,238.2334,458.0498,239.2046z"/>
	<path fill="#00B5B5" d="M454.0215,207.5425l14.6934-3.0205c-0.21-1.021-0.4268-2.0396-0.6523-3.0552l-14.6445,3.2461
		C453.627,205.6533,453.8271,206.5967,454.0215,207.5425z"/>
	<path fill="#00B5B5" d="M445.1826,176.8579l14.0508-5.251c-0.3652-0.9761-0.7363-1.9487-1.1143-2.9185l-13.9766,5.4473
		C444.4951,175.04,444.8428,175.9473,445.1826,176.8579z"/>
	<path fill="#00B5B5" d="M448.6631,186.9526l14.3027-4.5205c-0.3145-0.9937-0.6357-1.9849-0.9629-2.9722l-14.2383,4.7168
		C448.0703,185.0991,448.3701,186.0244,448.6631,186.9526z"/>
	<path fill="#00B5B5" d="M451.6074,197.1816l14.5156-3.7803c-0.2617-1.0039-0.5303-2.0054-0.8047-3.0039l-14.4629,3.9756
		C451.1123,195.3071,451.3633,196.2432,451.6074,197.1816z"/>
	<path fill="#00B5B5" d="M367.5488,77.7632l8.4844-12.3701c-0.8545-0.5859-1.7148-1.166-2.5781-1.7407l-8.3066,12.4902
		C365.9531,76.6772,366.7529,77.2173,367.5488,77.7632z"/>
	<path fill="#00B5B5" d="M325.4658,39.5024c-0.9736-0.3496-1.9512-0.6934-2.9307-1.0308l-4.8848,14.1821
		c0.917,0.3164,1.832,0.6377,2.7451,0.9658L325.4658,39.5024z"/>
	<path fill="#00B5B5" d="M292.4746,30.4448c-1.0166-0.1968-2.0371-0.3862-3.0596-0.5688l-2.6406,14.7656
		c0.9541,0.1709,1.9062,0.3477,2.8564,0.5308L292.4746,30.4448z"/>
	<path fill="#00B5B5" d="M314.6289,35.9189c-0.9932-0.3003-1.9893-0.5942-2.9883-0.8809l-4.1367,14.418
		c0.9307,0.2671,1.8584,0.5405,2.7832,0.8203L314.6289,35.9189z"/>
	<path fill="#00B5B5" d="M41.4443,254.9883l-14.9956,0.3652c0.0254,1.0371,0.0576,2.0713,0.0967,3.1055l14.9893-0.5625
		C41.4985,256.9287,41.4683,255.959,41.4443,254.9883z"/>
	<path fill="#00B5B5" d="M258.4971,26.5479c-1.0342-0.0396-2.0693-0.0718-3.1064-0.0967l-0.3584,14.9961
		c0.9658,0.0229,1.9297,0.0532,2.8926,0.0898L258.4971,26.5479z"/>
	<path fill="#00B5B5" d="M281.2158,28.5684c-1.0264-0.144-2.0537-0.2812-3.083-0.4116L276.25,43.0386
		c0.9629,0.1216,1.9238,0.25,2.8818,0.3843L281.2158,28.5684z"/>
	<path fill="#00B5B5" d="M269.8838,27.27c-1.0332-0.0923-2.0684-0.1772-3.1064-0.2544l-1.1152,14.958
		c0.9658,0.0723,1.9287,0.1514,2.8896,0.2368L269.8838,27.27z"/>
	<path fill="#00B5B5" d="M336.0928,43.6348c-0.9521-0.3984-1.9072-0.7905-2.8652-1.1763l-5.6016,13.915
		c0.8955,0.3604,1.7881,0.7271,2.6777,1.0991L336.0928,43.6348z"/>
	<path fill="#00B5B5" d="M376.168,83.9971l9.0996-11.9238c-0.8242-0.6289-1.6533-1.2524-2.4863-1.8701l-8.9297,12.0527
		C374.6279,82.8306,375.4004,83.4111,376.168,83.9971z"/>
	<path fill="#00B5B5" d="M384.4609,90.6631l9.6934-11.4473c-0.791-0.6699-1.5869-1.3345-2.3877-1.9932l-9.5332,11.5811
		C382.9795,89.418,383.7227,90.0381,384.4609,90.6631z"/>
	<path fill="#00B5B5" d="M247.2803,41.3984l-0.1826-14.999c-1.0371,0.0127-2.0728,0.0322-3.1064,0.0586l0.3799,14.9951
		C245.3394,41.4287,246.3086,41.4102,247.2803,41.3984z"/>
	<path fill="#00B5B5" d="M358.6328,71.9805l7.8379-12.7891c-0.8828-0.541-1.7695-1.0767-2.6611-1.606l-7.6562,12.8994
		C356.9844,70.978,357.8105,71.4766,358.6328,71.9805z"/>
	<path fill="#00B5B5" d="M392.4082,97.7461l10.2578-10.9443c-0.7559-0.7085-1.5176-1.4121-2.2822-2.1104l-10.1094,11.082
		C390.9902,96.4258,391.7012,97.0835,392.4082,97.7461z"/>
	<path fill="#00B5B5" d="M346.4785,48.2993c-0.9316-0.4478-1.8682-0.8887-2.8066-1.3237l-6.3066,13.6094
		c0.875,0.4058,1.748,0.8174,2.6172,1.2349L346.4785,48.2993z"/>
	<path fill="#00B5B5" d="M356.6104,53.4873c-0.9062-0.4932-1.8154-0.9805-2.7275-1.4619l-7.0059,13.2637
		c0.8555,0.4521,1.71,0.9092,2.5596,1.3721L356.6104,53.4873z"/>
	<path fill="#00B5B5" d="M65.4521,152.5156l-13.2588-7.0146c-0.4839,0.9146-0.9614,1.8325-1.4321,2.7539l13.3555,6.8281
		C64.5562,154.2241,65.0015,153.3677,65.4521,152.5156z"/>
	<path fill="#00B5B5" d="M367.459,421.998l8.4707,12.3789c0.8574-0.5869,1.71-1.1797,2.5586-1.7773l-8.6406-12.2617
		C369.0557,420.8965,368.2598,421.4502,367.459,421.998z"/>
	<path fill="#00B5B5" d="M376.0938,415.7578l9.0957,11.9277c0.8242-0.6279,1.6445-1.2627,2.46-1.9023l-9.252-11.8066
		C377.6328,414.5752,376.8652,415.1689,376.0938,415.7578z"/>
	<path fill="#00B5B5" d="M349.2754,433.126l7.1699,13.1758c0.9111-0.4961,1.8184-0.9971,2.7217-1.5039l-7.3359-13.084
		C350.9824,432.1895,350.1299,432.6611,349.2754,433.126z"/>
	<path fill="#00B5B5" d="M358.5137,427.792l7.8262,12.7969c0.8887-0.5439,1.7725-1.0928,2.6523-1.6484l-8.0117-12.6816
		C360.1631,426.7754,359.3398,427.2871,358.5137,427.792z"/>
	<path fill="#00B5B5" d="M399.9375,394.5283l10.8027,10.4082c0.7178-0.7451,1.4307-1.4961,2.1396-2.251l-10.9375-10.2656
		C401.2783,393.1279,400.6104,393.8301,399.9375,394.5283z"/>
	<path fill="#00B5B5" d="M392.3574,402.002l10.2578,10.9453c0.7549-0.708,1.5059-1.4209,2.252-2.1396l-10.4004-10.8086
		C393.7676,400.6709,393.0654,401.3389,392.3574,402.002z"/>
	<path fill="#00B5B5" d="M384.4033,409.085l9.6855,11.4531c0.792-0.6699,1.5801-1.3457,2.3633-2.0264l-9.8438-11.3184
		C385.8779,407.8291,385.1426,408.46,384.4033,409.085z"/>
	<path fill="#00B5B5" d="M309.9453,449.5264l4.3145,14.3652c0.999-0.2998,1.9961-0.6064,2.9883-0.9199l-4.5156-14.3047
		C311.8066,448.959,310.8779,449.2461,309.9453,449.5264z"/>
	<path fill="#00B5B5" d="M268.1953,457.5215l1.2988,14.9434c1.0371-0.0898,2.0723-0.1875,3.1055-0.293l-1.5195-14.9219
		C270.1191,457.3477,269.1582,457.4375,268.1953,457.5215z"/>
	<path fill="#00B5B5" d="M299.6738,452.3262l3.5762,14.5684c1.0049-0.2471,2.0078-0.501,3.0078-0.7598L302.5,451.6133
		C301.5605,451.8564,300.6182,452.0947,299.6738,452.3262z"/>
	<path fill="#00B5B5" d="M278.7754,456.3271l2.0586,14.8574c1.0312-0.1426,2.0605-0.292,3.0879-0.4502l-2.2812-14.8262
		C280.6875,456.0547,279.7324,456.1943,278.7754,456.3271z"/>
	<path fill="#00B5B5" d="M320.0918,446.1885l5.0469,14.125c0.9834-0.3516,1.9639-0.71,2.9404-1.0752l-5.2559-14.0488
		C321.915,445.5293,321.0049,445.8623,320.0918,446.1885z"/>
	<path fill="#00B5B5" d="M330.0391,442.3369l5.7793,13.8418c0.958-0.4004,1.9141-0.8066,2.8662-1.2188l-5.958-13.7656
		C331.834,441.5811,330.9385,441.9619,330.0391,442.3369z"/>
	<path fill="#00B5B5" d="M339.7783,437.9775l6.4805,13.5273c0.9395-0.4492,1.875-0.9062,2.8076-1.3691l-6.6738-13.4336
		C341.5244,437.1338,340.6533,437.5576,339.7783,437.9775z"/>
	<path fill="#00B5B5" d="M407.1318,386.6777l11.3125,9.8516c0.6807-0.7822,1.3555-1.5684,2.0254-2.3594l-11.4473-9.6934
		C408.3975,385.2148,407.7676,385.9482,407.1318,386.6777z"/>
	<path fill="#00B5B5" d="M289.2773,454.5938l2.8154,14.7334c1.0244-0.1953,2.0449-0.3975,3.0645-0.6084l-3.041-14.6895
		C291.1729,454.2246,290.2266,454.4131,289.2773,454.5938z"/>
	<path fill="#00B5B5" d="M448.5527,313.0938l14.2949,4.5449c0.3145-0.9873,0.6211-1.9785,0.9219-2.9727l-14.3555-4.3477
		C449.1328,311.2461,448.8457,312.1709,448.5527,313.0938z"/>
	<path fill="#00B5B5" d="M453.9492,292.5078l14.6855,3.0566c0.2109-1.0156,0.416-2.0342,0.6123-3.0547l-14.7266-2.8457
		C454.3359,290.6143,454.1465,291.5625,453.9492,292.5078z"/>
	<path fill="#00B5B5" d="M451.5156,302.8711l14.5098,3.8027c0.2617-0.999,0.5166-2.002,0.7666-3.0078l-14.5566-3.6172
		C452.001,300.9922,451.7617,301.9326,451.5156,302.8711z"/>
	<path fill="#00B5B5" d="M413.9111,378.4814l11.8027,9.2578c0.6377-0.8135,1.2715-1.6318,1.8994-2.4551l-11.9219-9.1016
		C415.1025,376.9531,414.5098,377.7188,413.9111,378.4814z"/>
	<path fill="#00B5B5" d="M473.2949,246.7388l-14.998,0.2051c0.0127,0.9668,0.0195,1.9355,0.0195,2.9058v0.376h15v-0.376
		C473.3164,248.811,473.3096,247.7739,473.2949,246.7388z"/>
	<path fill="#00B5B5" d="M458.0303,260.8633l14.9805,0.7754c0.0527-1.0322,0.0996-2.0664,0.1396-3.1016l-14.9883-0.584
		C458.124,258.9258,458.0811,259.8955,458.0303,260.8633z"/>
	<path fill="#00B5B5" d="M457.208,271.4785l14.9219,1.5352c0.1055-1.0303,0.2051-2.0635,0.2969-3.0977l-14.9414-1.3281
		C457.3994,269.5537,457.3076,270.5166,457.208,271.4785z"/>
	<path fill="#00B5B5" d="M455.8477,282.0371l14.8242,2.2949c0.1582-1.0244,0.3096-2.0518,0.4541-3.0811l-14.8535-2.0859
		C456.1377,280.124,455.9961,281.0811,455.8477,282.0371z"/>
	<path fill="#00B5B5" d="M426.1748,361.1133l12.6816,8.0098c0.5527-0.874,1.0996-1.752,1.6396-2.6338l-12.7891-7.8379
		C427.2021,359.4746,426.6904,360.2959,426.1748,361.1133z"/>
	<path fill="#00B5B5" d="M431.624,351.9883l13.0723,7.3574c0.5059-0.9004,1.0068-1.8037,1.502-2.7119l-13.168-7.1836
		C432.5664,350.2998,432.0986,351.1465,431.624,351.9883z"/>
	<path fill="#00B5B5" d="M420.2666,369.9482l12.2539,8.6523c0.5967-0.8457,1.1875-1.6963,1.7734-2.5508l-12.3711-8.4824
		C421.376,368.3652,420.8242,369.1592,420.2666,369.9482z"/>
	<path fill="#00B5B5" d="M441.083,332.9814l13.752,5.9883c0.4131-0.9482,0.8203-1.9004,1.2197-2.8545l-13.8379-5.79
		C441.8447,331.2139,441.4668,332.0996,441.083,332.9814z"/>
	<path fill="#00B5B5" d="M436.5996,342.6006l13.4277,6.6855c0.4619-0.9268,0.917-1.8574,1.3652-2.791l-13.5234-6.4902
		C437.4521,340.874,437.0283,341.7383,436.5996,342.6006z"/>
	<path fill="#00B5B5" d="M445.0674,323.1494l14.041,5.2754c0.3643-0.9688,0.7217-1.9414,1.0732-2.916l-14.1094-5.0918
		C445.7422,321.3301,445.4082,322.2412,445.0674,323.1494z"/>
	<path fill="#00B5B5" d="M119.2002,412.3066l-9.4043,11.6855c0.8052,0.6484,1.6147,1.291,2.4287,1.9287l9.2539-11.8047
		C120.7153,413.5176,119.9556,412.9141,119.2002,412.3066z"/>
	<path fill="#00B5B5" d="M76.2544,365.3184l-12.4814,8.3184c0.5771,0.8672,1.1606,1.7295,1.7495,2.5859l12.3584-8.502
		C77.333,366.9248,76.7915,366.123,76.2544,365.3184z"/>
	<path fill="#00B5B5" d="M111.0845,405.4238l-9.9863,11.1934c0.7725,0.6885,1.5503,1.373,2.3325,2.0527l9.835-11.3262
		C112.5342,406.709,111.8071,406.0693,111.0845,405.4238z"/>
	<path fill="#00B5B5" d="M65.3545,347l-13.2676,6.998c0.4858,0.9209,0.978,1.8389,1.4766,2.752l13.166-7.1875
		C66.2651,348.7119,65.8071,347.8584,65.3545,347z"/>
	<path fill="#00B5B5" d="M70.5708,356.2998l-12.8906,7.6699c0.5312,0.8936,1.0688,1.7822,1.6133,2.6689l12.7822-7.8496
		C71.5684,357.9629,71.0669,357.1328,70.5708,356.2998z"/>
	<path fill="#00B5B5" d="M88.9595,382.4219l-11.5723,9.543c0.6606,0.8018,1.3267,1.5967,1.9971,2.3877l11.4404-9.7012
		C90.1982,383.9131,89.5762,383.1689,88.9595,382.4219z"/>
	<path fill="#00B5B5" d="M103.3281,398.1396l-10.5479,10.6641c0.7393,0.7314,1.4834,1.458,2.2334,2.1777l10.3887-10.8203
		C104.7061,399.4922,104.0146,398.8184,103.3281,398.1396z"/>
	<path fill="#00B5B5" d="M95.9434,390.4619L84.873,400.583c0.7002,0.7666,1.4062,1.5273,2.1172,2.2842l10.9268-10.2773
		C97.2539,391.8857,96.5967,391.1758,95.9434,390.4619z"/>
	<path fill="#00B5B5" d="M82.3892,374.0312l-12.04,8.9453c0.6187,0.833,1.2432,1.6621,1.874,2.4873l11.917-9.1094
		C83.5513,375.584,82.9678,374.8096,82.3892,374.0312z"/>
	<path fill="#00B5B5" d="M44.6362,286.7451l-14.7666,2.6338c0.1821,1.0234,0.3721,2.0449,0.5688,3.0625l14.7275-2.8438
		C44.9829,288.6484,44.8066,287.6973,44.6362,286.7451z"/>
	<path fill="#00B5B5" d="M60.6196,337.4414L47.0112,343.75c0.4385,0.9463,0.8828,1.8877,1.334,2.8252l13.5166-6.5039
		C61.4419,339.1982,61.0278,338.3213,60.6196,337.4414z"/>
	<path fill="#00B5B5" d="M43.0342,276.2207l-14.8823,1.875c0.1299,1.0322,0.2671,2.0625,0.4116,3.0898l14.8535-2.0898
		C43.2822,278.1387,43.1548,277.1807,43.0342,276.2207z"/>
	<path fill="#00B5B5" d="M46.7744,297.168l-14.6113,3.3945c0.2349,1.0107,0.4766,2.0205,0.7251,3.0264l14.5625-3.5967
		C47.2188,299.0537,46.9937,298.1123,46.7744,297.168z"/>
	<path fill="#00B5B5" d="M56.3813,327.6465l-13.914,5.6035c0.3892,0.9658,0.7847,1.9287,1.1865,2.8887l13.835-5.7969
		C57.1133,329.4463,56.7441,328.5479,56.3813,327.6465z"/>
	<path fill="#00B5B5" d="M49.4468,307.4727l-14.418,4.1367c0.2861,0.999,0.5796,1.9941,0.8794,2.9873l14.3589-4.3379
		C49.9873,309.332,49.7144,308.4033,49.4468,307.4727z"/>
	<path fill="#00B5B5" d="M52.6528,317.6445l-14.1855,4.877c0.3389,0.9854,0.6846,1.9668,1.0366,2.9473l14.1162-5.0723
		C53.2915,319.4824,52.9692,318.5654,52.6528,317.6445z"/>
	<path fill="#00B5B5" d="M179.4395,461.9961c0.9863,0.3271,1.9756,0.6475,2.9678,0.9609l4.5107-14.3066
		c-0.9219-0.29-1.8408-0.5889-2.7568-0.8926L179.4395,461.9961z"/>
	<path fill="#00B5B5" d="M201.4419,468.0586c1.0083,0.2217,2.02,0.4375,3.0332,0.6484l3.0498-14.6875
		c-0.9526-0.1973-1.9028-0.3994-2.8506-0.6094L201.4419,468.0586z"/>
	<path fill="#00B5B5" d="M212.6421,470.2314c1.0254,0.1719,2.0532,0.3369,3.0835,0.4941l2.2607-14.8281
		c-0.9551-0.1455-1.9077-0.2988-2.8579-0.459L212.6421,470.2314z"/>
	<path fill="#00B5B5" d="M257.5684,458.1768l0.5391,14.9902c1.041-0.0371,2.0801-0.082,3.1162-0.1348l-0.7598-14.9805
		C259.5,458.1006,258.5352,458.1416,257.5684,458.1768z"/>
	<path fill="#00B5B5" d="M190.3584,465.3076c1.001,0.2764,2.0054,0.5459,3.0127,0.8076l3.7783-14.5156
		c-0.936-0.2441-1.8691-0.4941-2.7998-0.751L190.3584,465.3076z"/>
	<path fill="#00B5B5" d="M223.9424,471.8311c1.0322,0.1191,2.0664,0.2324,3.1025,0.3359l1.5029-14.9238
		c-0.9619-0.0977-1.9219-0.2012-2.8799-0.3125L223.9424,471.8311z"/>
	<path fill="#00B5B5" d="M246.708,473.2939c1.0356,0.0146,2.0728,0.0215,3.1113,0.0215v-15c-0.9702,0-1.939-0.0068-2.9062-0.0195
		L246.708,473.2939z"/>
	<path fill="#00B5B5" d="M235.3057,472.8506c1.0361,0.0674,2.0742,0.127,3.1138,0.1787l0.7441-14.9824
		c-0.9653-0.0479-1.9302-0.1025-2.8931-0.165L235.3057,472.8506z"/>
	<path fill="#00B5B5" d="M127.6562,418.7686l-8.8066,12.1426c0.8394,0.6084,1.6836,1.2119,2.5317,1.8086l8.6318-12.2676
		C129.2236,419.8965,128.438,419.3359,127.6562,418.7686z"/>
	<path fill="#00B5B5" d="M136.4189,424.7861l-8.1709,12.5781c0.8652,0.5625,1.7349,1.1191,2.6089,1.6709l8.0107-12.6816
		C138.0474,425.835,137.2314,425.3135,136.4189,424.7861z"/>
	<path fill="#00B5B5" d="M145.4741,430.3467l-7.5166,12.9805c0.8936,0.5176,1.7905,1.0283,2.6909,1.5352l7.3477-13.0781
		C147.1519,431.3105,146.311,430.8311,145.4741,430.3467z"/>
	<path fill="#00B5B5" d="M41.9702,265.627l-14.958,1.1172c0.0771,1.0361,0.1616,2.0723,0.2539,3.1055l14.9404-1.332
		C42.1211,267.5566,42.0425,266.5928,41.9702,265.627z"/>
	<path fill="#00B5B5" d="M147.9526,448.7832c0.9175,0.4697,1.8384,0.9346,2.7627,1.3936l6.6758-13.4316
		c-0.8677-0.4316-1.7319-0.8672-2.5928-1.3096L147.9526,448.7832z"/>
	<path fill="#00B5B5" d="M168.6982,458.123c0.9663,0.377,1.936,0.7471,2.9092,1.1104l5.2549-14.0488
		c-0.9067-0.3398-1.811-0.6846-2.7119-1.0361L168.6982,458.123z"/>
	<path fill="#00B5B5" d="M158.2075,453.7188c0.9434,0.4258,1.8901,0.8428,2.8403,1.2549l5.9629-13.7637
		c-0.8848-0.3838-1.7651-0.7725-2.6431-1.167L158.2075,453.7188z"/>
</g>
</svg>
