<!--?xml version="1.0" encoding="utf-8"?-->
<!-- Generator: Adobe Illustrator 18.1.1, SVG Export Plug-In . SVG Version: 6.00 Build 0)  -->

<svg version="1.1" id="Layer_1" xmlns="http://www.w3.org/2000/svg" xmlns:xlink="http://www.w3.org/1999/xlink" x="0px" y="0px" viewBox="0 0 500 500" enable-background="new 0 0 500 500" xml:space="preserve">
<g id="change1">
	<path fill="#FFFFFF" d="M250,500C112.1,500,0,387.9,0,250C0,112.1,112.1,0,250,0s250,112.1,250,250C500,387.9,387.9,500,250,500z
		 M250,15C120.4,15,15,120.4,15,250s105.5,235,235,235c129.6,0,235-105.5,235-235C485,120.4,379.6,15,250,15z"></path>
	<path fill="#FFFFFF" d="M250,430C150.7,430,70,349.3,70,250S150.7,70.1,250,70.1S429.9,150.8,429.9,250
		C430,349.2,349.3,430,250,430z M250,83.5c-91.8,0-166.4,74.7-166.4,166.4S158.2,416.4,250,416.4S416.4,341.7,416.4,250
		S341.8,83.5,250,83.5z"></path>
</g>
</svg>