<?xml version="1.0" encoding="utf-8"?>
<!-- Generator: Adobe Illustrator 21.0.0, SVG Export Plug-In . SVG Version: 6.00 Build 0)  -->
<svg version="1.1" id="Outlined_Solid_Hexagon-D4" xmlns="http://www.w3.org/2000/svg" xmlns:xlink="http://www.w3.org/1999/xlink"
	 x="0px" y="0px" viewBox="0 0 415.0938 477.762" enable-background="new 0 0 415.0938 477.762" xml:space="preserve">
<g id="change1">
	<polygon fill="#FACA9B" points="410.0938,355.8216 410.0938,121.9406 207.5469,5.0001 4.9999,121.9406 4.9999,355.8216 
		207.5469,472.7621 	"/>
</g>
<g id="change2">
	<path fill="#EE543A" d="M207.5469,477.762c-0.8633,0-1.7266-0.2236-2.5-0.6699L2.5,360.1516c-1.5469-0.8936-2.5-2.5439-2.5-4.3301
		V121.9407c0-1.7861,0.9531-3.437,2.5-4.3301L205.0469,0.6702c1.5469-0.8936,3.4531-0.8936,5,0l202.5469,116.9404
		c1.5469,0.8931,2.5,2.5439,2.5,4.3301v233.8809c0,1.7861-0.9531,3.4365-2.5,4.3301L210.0469,477.092
		C209.2734,477.5383,208.4102,477.762,207.5469,477.762z M10,352.9348l197.5469,114.0537l197.5469-114.0537V124.8274
		L207.5469,10.7737L10,124.8274V352.9348z M410.0938,355.8215h0.0098H410.0938z"/>
</g>
</svg>
