<?xml version="1.0" encoding="utf-8"?>
<!-- Generator: Adobe Illustrator 21.0.0, SVG Export Plug-In . SVG Version: 6.00 Build 0)  -->
<svg version="1.1" id="Badge-New2-D4" xmlns="http://www.w3.org/2000/svg" xmlns:xlink="http://www.w3.org/1999/xlink" x="0px"
	 y="0px" viewBox="0 0 488.5278 488.5278" enable-background="new 0 0 488.5278 488.5278" xml:space="preserve">
<g id="change1">
	<path fill="#FD5B03" d="M263.4888,488.5278l-19.2246-13.9463L225.04,488.5278l-16.8057-16.7822l-21.1689,10.7676l-13.9731-19.2041
		l-22.5928,7.3232l-10.7979-21.1533l-23.4595,3.6992l-7.356-22.583l-23.7495-0.0176l-3.7319-23.4541l-23.4546-3.7324l-0.0176-23.749
		l-22.5815-7.3555l3.6982-23.46L17.896,338.0288l7.3228-22.5928L6.0146,301.4634l10.7671-21.1689L0,263.4878l13.9463-19.2236
		L0,225.0396l16.7817-16.8052L6.0146,187.0654l19.2041-13.9741L17.896,150.499l21.1533-10.7974l-3.6982-23.46l22.5815-7.3555
		l0.0176-23.7495l23.4546-3.7319l3.7319-23.4551l23.7495-0.0171l7.356-22.582l23.4595,3.6982l10.7979-21.1528l22.5923,7.3223
		l13.9736-19.2036l21.1694,10.7666L225.04,0l19.2241,13.9458L263.4888,0l16.8057,16.7812l21.1689-10.7666l13.9736,19.2036
		l22.5918-7.3223l10.7979,21.1528l23.46-3.6982l7.3555,22.582l23.749,0.0171l3.7334,23.4551l23.4541,3.7319l0.0166,23.7495
		l22.582,7.3555l-3.6973,23.46l21.1523,10.7974l-7.3232,22.5923l19.2051,13.9741l-10.7676,21.1689l16.7812,16.8052l-13.9453,19.2246
		l13.9453,19.2236l-16.7812,16.8066l10.7676,21.1689l-19.2051,13.9727l7.3232,22.5928L449.48,348.8267l3.6973,23.46l-22.582,7.3555
		l-0.0166,23.749l-23.4541,3.7324l-3.7334,23.4541l-23.749,0.0176l-7.3555,22.583l-23.46-3.6992l-10.7979,21.1533l-22.5918-7.3232
		l-13.9736,19.2041l-21.1689-10.7666L263.4888,488.5278z M209.3945,464.4253l16.2646,16.2412l18.605-13.4971l18.6055,13.4971
		l16.2646-16.2422l20.4883,10.4209l13.5234-18.5859l21.8652,7.0879l10.4502-20.4736l22.7041,3.5801l7.1191-21.8545l22.9854-0.0176
		l3.6123-22.7002l22.7002-3.6113l0.0166-22.9854l21.8545-7.1191l-3.5791-22.7041l20.4727-10.4502l-7.0879-21.8662l18.5869-13.5234
		l-10.4199-20.4873l16.2402-16.2656l-13.4961-18.6045l13.4961-18.6055l-16.2402-16.2651l10.4199-20.4873l-18.5869-13.5239
		l7.0879-21.8657l-20.4727-10.4497l3.5791-22.7051l-21.8545-7.1182l-0.0166-22.9858l-22.7002-3.6118L398.27,63.9458l-22.9854-0.0161
		l-7.1191-21.8555l-22.7041,3.5791l-10.4502-20.4722l-21.8652,7.0869l-13.5234-18.5854l-20.4883,10.4199L262.8696,7.8613
		l-18.6055,13.4966L225.6587,7.8613l-16.2642,16.2412l-20.4883-10.4199l-13.5234,18.5854l-21.8657-7.0869l-10.4502,20.4722
		l-22.7046-3.5791l-7.1187,21.8555l-22.9858,0.0161L86.646,86.646l-22.6997,3.6118l-0.0166,22.9858l-21.855,7.1182l3.5791,22.7051
		l-20.4727,10.4497l7.0874,21.8657l-18.5859,13.5239l10.4204,20.4873L7.8613,225.6587l13.4971,18.6055L7.8613,262.8687
		l16.2417,16.2656l-10.4204,20.4873l18.5859,13.5234l-7.0874,21.8662l20.4727,10.4502l-3.5791,22.7041l21.855,7.1191l0.0166,22.9854
		l22.6997,3.6113l3.6118,22.7002l22.9858,0.0176l7.1187,21.8545l22.7046-3.5801l10.4502,20.4736l21.8652-7.0879l13.5239,18.5859
		L209.3945,464.4253z"/>
</g>
</svg>
