<?xml version="1.0" encoding="utf-8"?>
<!-- Generator: Adobe Illustrator 21.0.0, SVG Export Plug-In . SVG Version: 6.00 Build 0)  -->
<svg version="1.1" id="Outline_Edgy_Lineart" xmlns="http://www.w3.org/2000/svg" xmlns:xlink="http://www.w3.org/1999/xlink"
	 x="0px" y="0px" viewBox="0 0 167.9999 167.9999" enable-background="new 0 0 167.9999 167.9999" xml:space="preserve">
<g id="change1">
	<path fill="#FF1B5E" d="M135.033,32.9669v102.066H32.9669V32.9669H135.033 M137.033,30.9669H30.9669v106.066h106.066V30.9669
		L137.033,30.9669z"/>
	<path fill="#FF1B5E" d="M124,44v80H44V44H124 M126,42H42v84h84V42L126,42z"/>
	<path fill="#FF1B5E" d="M143,25v118H25V25H143 M145,23H23v122h122V23L145,23z"/>
	<path fill="#FF1B5E" d="M84,11.8284L156.1715,84L84,156.1715L11.8284,84L84,11.8284 M84,9L9,84l75,75l75-75L84,9L84,9z"/>
	<path fill="#FF1B5E" d="M84,11.8284L156.1715,84L84,156.1715L11.8284,84L84,11.8284 M84,9L9,84l75,75l75-75L84,9L84,9z"/>
	<path fill="#FF1B5E" d="M84,2.8284L165.1715,84L84,165.1715L2.8284,84L84,2.8284 M84,0L0,84l84,84l84-84L84,0L84,0z"/>
	<path fill="#FF1B5E" d="M84,2.8284L165.1715,84L84,165.1715L2.8284,84L84,2.8284 M84,0L0,84l84,84l84-84L84,0L84,0z"/>
</g>
</svg>
