<?xml version="1.0" encoding="utf-8"?>
<!-- Generator: Adobe Illustrator 21.0.0, SVG Export Plug-In . SVG Version: 6.00 Build 0)  -->
<svg version="1.1" id="star_6_shape_red" xmlns="http://www.w3.org/2000/svg" xmlns:xlink="http://www.w3.org/1999/xlink" x="0px"
	 y="0px" viewBox="0 0 425.3418 490.7783" enable-background="new 0 0 425.3418 490.7783" xml:space="preserve">
<g id="change1">
	<polygon fill="#EF5C54" points="425.3418,123.0078 281.0088,122.7266 212.6709,0 144.333,122.7266 0,123.0078 75.9917,245.3897 
		0,367.7715 144.333,368.0527 212.6709,490.7783 281.0088,368.0526 425.3418,367.7714 349.3506,245.3896 	"/>
</g>
<g id="change2">
	<path fill="#FFB8B6" d="M212.6709,447.584l-56.3887-101.2656l-118.9199-0.2324l62.5264-100.6963L37.3623,144.6929l118.9199-0.2319
		l56.3887-101.2671l56.3887,101.2671l118.9199,0.2319l-62.5264,100.6968l62.5264,100.6963l-118.9199,0.2314L212.6709,447.584z
		 M55.3213,336.1211l106.8447,0.209l50.5049,90.6992l50.5049-90.7002l106.8447-0.208l-56.3389-90.7314l56.3389-90.7319
		l-106.8447-0.2085l-50.5049-90.7007l-50.5049,90.7007l-106.8447,0.2085l56.3384,90.7319L55.3213,336.1211z"/>
</g>
</svg>
