<?xml version="1.0" encoding="utf-8"?>
<!-- Generator: Adobe Illustrator 21.0.0, SVG Export Plug-In . SVG Version: 6.00 Build 0)  -->
<svg version="1.1" id="Filled_Circle_with_Border_Line_10"
	 xmlns="http://www.w3.org/2000/svg" xmlns:xlink="http://www.w3.org/1999/xlink" x="0px" y="0px" viewBox="0 0 482 482"
	 enable-background="new 0 0 482 482" xml:space="preserve">
<g id="change1">
	<path fill="#FFDE49" d="M241,35.207C127.5254,35.207,35.207,127.5254,35.207,241S127.5254,446.793,241,446.793
		S446.793,354.4746,446.793,241S354.4746,35.207,241,35.207z M65.7397,171.4097c1.02-2.5601,3.9199-3.8198,6.4902-2.7998
		c2.5698,1.02,3.8198,3.9302,2.7998,6.4897c0,0,0,0,0,0.0103c-0.7798,1.96-2.6602,3.1499-4.6499,3.1499
		c-0.6099,0-1.2402-0.1099-1.8398-0.3599C65.9697,176.8799,64.7197,173.98,65.7397,171.4097z M58.3999,193.9199
		c0.6899-2.6699,3.4199-4.2803,6.0898-3.6001c2.6802,0.6899,4.29,3.4199,3.6001,6.0898c-0.5801,2.2603-2.6099,3.7603-4.8398,3.7603
		c-0.4102,0-0.8301-0.0503-1.25-0.1602C59.3296,199.3198,57.7197,196.5996,58.3999,193.9199z M53.9697,217.1699
		c0.3403-2.7402,2.8403-4.6802,5.5903-4.3301c2.7397,0.3398,4.6797,2.8501,4.3296,5.5898c-0.3198,2.52-2.4697,4.3701-4.96,4.3701
		c-0.1997,0-0.4097-0.0098-0.6299-0.04C55.5601,222.4097,53.6196,219.9097,53.9697,217.1699z M57.48,235.79
		c2.7598,0.0098,5,2.25,5,5.0098c-0.0103,2.7598-2.25,4.9902-5,4.9902c-0.0103,0-0.0103,0-0.0103,0c-2.7598,0-5-2.2402-4.9897-5
		C52.48,238.02,54.7197,235.79,57.48,235.79z M53.9199,264.3994c-0.3403-2.7393,1.6001-5.2295,4.3398-5.5693
		c2.7402-0.3398,5.2402,1.5996,5.5801,4.3398c0,0,0,0,0,0.0098c0.3398,2.7402-1.6099,5.2305-4.3501,5.5703
		c-0.21,0.0303-0.4102,0.04-0.6201,0.04C56.3799,268.79,54.23,266.9395,53.9199,264.3994z M63.1396,291.4297
		c-2.23,0-4.27-1.5-4.8398-3.7598c-0.6802-2.6797,0.9302-5.4004,3.6099-6.0801c2.6802-0.6904,5.4004,0.9297,6.0801,3.6104
		c0.6802,2.6699-0.9399,5.3994-3.6099,6.0801C63.96,291.3799,63.5498,291.4297,63.1396,291.4297z M72.0698,313.0195
		c-0.6001,0.2402-1.2202,0.3506-1.8301,0.3506c-1.9897,0-3.8799-1.2002-4.6499-3.1602c-1.02-2.5703,0.2397-5.4805,2.8101-6.4902
		c2.5698-1.0195,5.4697,0.25,6.4897,2.8105C75.8999,309.0996,74.6396,312.0098,72.0698,313.0195z M82.4497,333.6201
		c-0.77,0.4199-1.5898,0.6094-2.4097,0.6094c-1.7603,0-3.4702-0.9297-4.3804-2.5898c-1.3301-2.4199-0.4497-5.46,1.9702-6.79
		s5.46-0.4395,6.79,1.9805S84.8696,332.29,82.4497,333.6201z M84.5996,154.8599c-0.9097,1.6499-2.6196,2.5801-4.3799,2.5801
		c-0.8198,0-1.6499-0.2002-2.4199-0.6201c-2.4199-1.3398-3.29-4.3799-1.96-6.7998c1.3398-2.4204,4.3799-3.29,6.7998-1.96
		C85.0498,149.3999,85.9297,152.4399,84.5996,154.8599z M95.3198,352.7402c-0.8799,0.6494-1.9102,0.96-2.9302,0.96
		c-1.5498,0-3.0698-0.7207-4.0498-2.0605c-1.6201-2.2402-1.1299-5.3701,1.1099-6.9902c2.23-1.6191,5.3604-1.1191,6.98,1.1104
		C98.0498,348,97.5601,351.1201,95.3198,352.7402z M96.6396,135.96c-0.98,1.3398-2.5098,2.0498-4.0498,2.0498
		c-1.02,0-2.0498-0.3101-2.9399-0.96c-2.23-1.6201-2.7202-4.75-1.1001-6.98c1.6299-2.2402,4.7603-2.7202,6.9902-1.1001
		C97.77,130.5996,98.2598,133.73,96.6396,135.96z M110.48,370.1094c-0.96,0.9102-2.1899,1.3604-3.4199,1.3604
		c-1.3301,0-2.6602-0.54-3.6504-1.5898c-1.8896-2.0098-1.7798-5.1797,0.23-7.0605c2.02-1.8896,5.1802-1.7891,7.0703,0.2305
		C112.5996,365.0596,112.5,368.2295,110.48,370.1094z M110.9399,118.71c-0.98,1.04-2.3101,1.5698-3.6401,1.5698
		c-1.23,0-2.46-0.4502-3.4199-1.3599c-2.02-1.8901-2.1099-5.0601-0.2202-7.0703c1.8901-2.0098,5.0503-2.0996,7.0703-0.21
		C112.7397,113.5298,112.8296,116.6899,110.9399,118.71z M127.6797,385.46c-0.9897,1.1895-2.4097,1.7998-3.8501,1.7998
		c-1.1196,0-2.25-0.3799-3.1899-1.1504c-2.1196-1.7695-2.4199-4.9199-0.6499-7.04c1.7603-2.1299,4.9199-2.4199,7.04-0.6494
		C129.1499,380.1797,129.4497,383.3301,127.6797,385.46z M127.29,103.3599c0,0,0,0,0,0.0098
		c-0.9302,0.77-2.0601,1.1401-3.1802,1.1401c-1.4399,0-2.8701-0.6099-3.8599-1.8101c-1.7603-2.1299-1.46-5.2798,0.6699-7.04
		c2.1299-1.7598,5.2798-1.46,7.04,0.6699C129.7197,98.4497,129.4199,101.5996,127.29,103.3599z M146.6597,398.5303
		c-0.9497,1.5-2.5698,2.3096-4.2197,2.3096c-0.9199,0-1.8501-0.25-2.6899-0.7803h0.0098c-2.3301-1.4902-3.02-4.5801-1.5298-6.9102
		c1.48-2.3301,4.5698-3.0098,6.8999-1.5195C147.46,393.1094,148.1499,396.2002,146.6597,398.5303z M145.4297,90.1797
		c-0.8301,0.5303-1.7598,0.7803-2.6797,0.7803c-1.6504,0-3.27-0.8203-4.2202-2.3203c-1.48-2.3296-0.79-5.4199,1.54-6.8999
		s5.4199-0.79,6.8999,1.54S147.7598,88.6997,145.4297,90.1797z M167.1196,409.1201c-0.8496,1.8096-2.6499,2.8594-4.5298,2.8594
		c-0.71,0-1.4399-0.1494-2.1299-0.4795c-2.4902-1.1807-3.5601-4.1602-2.3804-6.6602c1.1802-2.4902,4.1602-3.5596,6.6602-2.3799
		C167.23,403.6396,168.2998,406.6299,167.1196,409.1201z M165.0796,79.3799c-0.6899,0.3198-1.4199,0.4697-2.1299,0.4697
		c-1.8799,0-3.6797-1.0596-4.5298-2.8696c-1.1699-2.5-0.1001-5.4702,2.3999-6.6504c2.5-1.1797,5.48-0.0996,6.6499,2.3901
		C168.6499,75.2197,167.5796,78.1997,165.0796,79.3799z M188.7598,417.0498c-0.6899,2.1104-2.6499,3.4502-4.75,3.4502
		c-0.5098,0-1.04-0.0801-1.5498-0.25c-2.6304-0.8506-4.0601-3.6807-3.2002-6.2998c0.8501-2.6201,3.6802-4.0605,6.3003-3.2002
		C188.1797,411.5996,189.6196,414.4297,188.7598,417.0498z M185.9297,71.1299c-0.52,0.1699-1.04,0.25-1.5498,0.25
		c-2.1099,0-4.0698-1.3501-4.75-3.46c-0.8501-2.6299,0.5898-5.4502,3.21-6.3003c2.6299-0.8496,5.4502,0.5903,6.2998,3.21
		C189.9897,67.46,188.5498,70.2798,185.9297,71.1299z M211.23,422.1895c-0.46,2.4004-2.5503,4.0605-4.9004,4.0605
		c-0.3096,0-0.6299-0.0303-0.9497-0.0898c-2.71-0.5205-4.4902-3.1406-3.9702-5.8506s3.1401-4.4902,5.8501-3.9697
		C209.9697,416.8594,211.75,419.4795,211.23,422.1895z M207.6396,65.5898c-0.3101,0.0601-0.6299,0.0801-0.9399,0.0801
		c-2.3501,0-4.4497-1.6699-4.8999-4.0703c-0.52-2.71,1.27-5.3296,3.98-5.8398c2.7202-0.5098,5.3301,1.27,5.8398,3.9902
		C212.1396,62.46,210.3496,65.0698,207.6396,65.5898z M229.1899,429.1494c-0.1104,0-0.2202,0-0.3301-0.0098
		c-2.75-0.1797-4.8501-2.5498-4.6699-5.3096c0.1699-2.7607,2.5498-4.8506,5.3101-4.6699c2.75,0.1699,4.8398,2.5498,4.6699,5.3096
		C234,427.1094,231.7998,429.1494,229.1899,429.1494z M229.8799,62.8198c-0.1001,0-0.21,0.0098-0.3101,0.0098
		c-2.6201,0-4.8198-2.0498-4.9902-4.6997c-0.1699-2.75,1.9302-5.1299,4.6904-5.29c2.75-0.1699,5.1299,1.9199,5.2998,4.6802
		C234.73,60.2798,232.6396,62.6499,229.8799,62.8198z M428.0596,217.3799c0.3398,2.7397-1.5996,5.2397-4.3398,5.5898
		c-0.21,0.02-0.4199,0.0303-0.6299,0.0303c-2.4902,0-4.6396-1.8501-4.9502-4.3701c-0.3496-2.75,1.6006-5.2402,4.3398-5.5898
		C425.2197,212.6997,427.71,214.6396,428.0596,217.3799z M423.6494,194.1299c0.6807,2.6699-0.9297,5.3999-3.6094,6.0801
		c-0.4102,0.1099-0.8301,0.1597-1.2402,0.1597c-2.2305,0-4.2598-1.5-4.8398-3.7598c-0.6904-2.6802,0.9297-5.3999,3.5996-6.0898
		C420.2402,189.8398,422.96,191.4497,423.6494,194.1299z M409.8496,168.79c2.5605-1.02,5.4697,0.2397,6.4805,2.8096
		c1.0195,2.5601-0.2305,5.4702-2.7998,6.4902c-0.6104,0.23-1.2305,0.3501-1.8408,0.3501c-1.9893,0-3.8701-1.2002-4.6494-3.1602
		C406.0195,172.71,407.2803,169.7998,409.8496,168.79z M399.4502,148.1997c2.4092-1.3301,5.46-0.4497,6.79,1.9702
		c1.3291,2.4199,0.4492,5.46-1.9707,6.79c-0.7598,0.4199-1.5898,0.6196-2.3994,0.6196c-1.7705,0-3.4805-0.9297-4.3906-2.5796
		C396.1494,152.5796,397.0303,149.54,399.4502,148.1997z M252.5195,429.1797c-0.0996,0-0.2002,0.0098-0.2998,0.0098
		c-2.6299,0-4.8301-2.0498-4.9902-4.6992c-0.1699-2.7607,1.9307-5.1309,4.6904-5.3008c2.75-0.1592,5.1201,1.9404,5.29,4.6904
		C257.3799,426.6396,255.2803,429.0098,252.5195,429.1797z M252.6201,62.8398c-0.1104,0-0.21-0.0103-0.3203-0.0103
		c-2.75-0.1699-4.8496-2.5498-4.6797-5.2998c0.1797-2.7598,2.5498-4.8599,5.3096-4.6802c2.75,0.1704,4.8506,2.54,4.6699,5.3003
		C257.4395,60.7998,255.2402,62.8398,252.6201,62.8398z M276.0098,426.2803c-0.3096,0.0596-0.6201,0.0791-0.9297,0.0791
		c-2.3604,0-4.46-1.6699-4.9102-4.0693c-0.5098-2.7207,1.2803-5.3301,3.9902-5.8398c2.7197-0.5107,5.3301,1.2793,5.8398,3.9893
		S278.7197,425.7695,276.0098,426.2803z M280.3896,61.6396c-0.46,2.4004-2.5596,4.0703-4.9102,4.0703
		c-0.3096,0-0.6201-0.0303-0.9395-0.0903c-2.71-0.5098-4.4902-3.1299-3.9805-5.8398c0.5205-2.7197,3.1406-4.5,5.8506-3.98
		C279.1201,56.3101,280.8994,58.9297,280.3896,61.6396z M298.9502,420.4502c-0.5107,0.1592-1.0205,0.2393-1.5303,0.2393
		c-2.1104,0-4.0801-1.3496-4.7598-3.4697c-0.8506-2.6201,0.5898-5.4395,3.2197-6.29c2.6299-0.8496,5.4502,0.5898,6.2998,3.2197
		C303.0195,416.7803,301.5801,419.5996,298.9502,420.4502z M302.5498,67.98c-0.6904,2.1099-2.6504,3.46-4.7598,3.46
		c-0.5098,0-1.0303-0.0801-1.54-0.25c-2.6299-0.8604-4.0605-3.6802-3.21-6.3003c0.8496-2.6299,3.6699-4.0601,6.2998-3.21
		S303.3994,65.3496,302.5498,67.98z M320.9902,411.7598c-0.6904,0.3203-1.4102,0.4697-2.1201,0.4697
		c-1.8799,0-3.6807-1.0596-4.5303-2.8701c-1.1699-2.5-0.0996-5.4795,2.4004-6.6494c2.5-1.1797,5.4795-0.1006,6.6494,2.3994
		S323.4902,410.5898,320.9902,411.7598z M323.7295,77.0601c-0.8496,1.8096-2.6494,2.8696-4.5195,2.8696
		c-0.7197,0-1.4404-0.1499-2.1299-0.48c-2.5-1.1797-3.5703-4.1597-2.3906-6.6499c1.1807-2.5,4.1602-3.5698,6.6602-2.3901
		C323.8398,71.5898,324.9102,74.5698,323.7295,77.0601z M341.75,400.3701c-0.8301,0.5293-1.75,0.7793-2.6699,0.7793
		c-1.6602,0-3.2803-0.8301-4.2305-2.3301c-1.4795-2.3291-0.7803-5.4199,1.5498-6.8994c2.3301-1.4805,5.4199-0.7803,6.9004,1.5498
		S344.0801,398.8896,341.75,400.3701z M343.5996,88.73c-0.9502,1.5-2.5693,2.3198-4.2197,2.3198
		c-0.9199,0-1.8496-0.2598-2.6797-0.7798c-2.3301-1.4902-3.0205-4.5801-1.54-6.9102c1.4795-2.3301,4.5693-3.0103,6.8994-1.5303
		C344.3896,83.3101,345.0801,86.3999,343.5996,88.73z M360.9199,386.4697c-0.9404,0.7705-2.0605,1.1504-3.1797,1.1504
		c-1.4404,0-2.8701-0.6201-3.8604-1.8203c-1.7598-2.1299-1.46-5.2803,0.6699-7.04s5.2803-1.4502,7.04,0.6797
		S363.0498,384.7197,360.9199,386.4697z M361.8496,102.79c-0.9795,1.1997-2.4102,1.8096-3.8496,1.8096
		c-1.1201,0-2.25-0.3696-3.1904-1.1396c-2.1201-1.77-2.4199-4.9199-0.6602-7.0503c1.7705-2.1196,4.9199-2.4199,7.04-0.6597
		C363.3193,97.52,363.6094,100.6699,361.8496,102.79z M378.1895,370.2998c-0.9795,1.04-2.2998,1.5703-3.6299,1.5703
		c-1.2295,0-2.4697-0.4502-3.4297-1.3604c-2.0098-1.9004-2.1104-5.0596-0.21-7.0703c1.8896-2.0098,5.0596-2.0996,7.0703-0.21
		C380,365.1299,380.0898,368.29,378.1895,370.2998z M378.2197,119.0298c-0.9697,0.8999-2.2002,1.3501-3.4199,1.3501
		c-1.3398,0-2.6602-0.5303-3.6504-1.5698c-1.8896-2.02-1.79-5.1802,0.2207-7.0703c2.0195-1.8901,5.1797-1.79,7.0693,0.2202
		C380.3301,113.9697,380.2295,117.1396,378.2197,119.0298z M393.3193,352.0996c-0.9795,1.3398-2.5,2.0498-4.0391,2.0498
		c-1.0205,0-2.0605-0.3096-2.9502-0.96c-2.2305-1.6299-2.71-4.7598-1.0801-6.9893c1.6201-2.2305,4.75-2.71,6.9795-1.0801
		C394.46,346.7402,394.9502,349.8701,393.3193,352.0996z M392.4297,137.1797c-0.8799,0.6401-1.9102,0.9502-2.9297,0.9502
		c-1.5498,0-3.0703-0.71-4.0498-2.0601c-1.6309-2.23-1.1309-5.3599,1.0996-6.98c2.2305-1.6299,5.3604-1.1299,6.9902,1.1001
		C395.1602,132.4199,394.6699,135.5498,392.4297,137.1797z M406.0596,332.1602c-0.9199,1.6494-2.6201,2.5801-4.3799,2.5801
		c-0.8203,0-1.6494-0.2002-2.4199-0.6309c-2.4199-1.3291-3.29-4.3691-1.9502-6.79c1.3301-2.4199,4.3799-3.2891,6.79-1.9492
		C406.5195,326.7002,407.3896,329.75,406.0596,332.1602z M416.1895,310.7803c-0.79,1.96-2.6699,3.1494-4.6494,3.1494
		c-0.6201,0-1.2402-0.1104-1.8506-0.3496c-2.5693-1.0303-3.8193-3.9307-2.79-6.5c1.0205-2.5605,3.9307-3.8105,6.4902-2.79
		c2.5703,1.0195,3.8203,3.9297,2.79,6.4902H416.1895z M423.54,288.2803c-0.5801,2.2598-2.6104,3.75-4.8398,3.75
		c-0.4102,0-0.8301-0.0508-1.25-0.1602c-2.6699-0.6904-4.2803-3.4199-3.5908-6.0898c0.6904-2.6709,3.4209-4.2803,6.0908-3.5908
		C422.6299,282.8799,424.2295,285.6094,423.54,288.2803z M428,265.04c-0.3203,2.5195-2.4697,4.3701-4.9502,4.3701
		c-0.21,0-0.4199-0.0205-0.6396-0.04c-2.7402-0.3506-4.6699-2.8604-4.3301-5.6006c0.3496-2.7393,2.8594-4.6699,5.5996-4.3193
		C426.4102,259.79,428.3496,262.2998,428,265.04z M429.5195,241.4297c0,2.75-2.2393,4.9805-5,4.9805c0,0,0,0-0.0098,0
		c-2.7598,0-4.9902-2.25-4.9902-5.0103c0-0.0601,0-0.1299,0.0107-0.1899c-0.0107-0.0703-0.0107-0.1401-0.0107-0.21
		c0-2.7603,2.2402-5,5-5c2.7607,0,5,2.2397,5,5c0,0.0698,0,0.1396,0,0.21C429.5195,241.2798,429.5195,241.3496,429.5195,241.4297z"
		/>
	<path fill="#FFDE49" d="M241,0C107.8994,0,0,107.8994,0,241s107.8994,241,241,241s241-107.8994,241-241S374.1006,0,241,0z
		 M393.5889,393.5889C352.8311,434.3467,298.6406,456.793,241,456.793s-111.8311-22.4463-152.5889-63.2041
		S25.207,298.6406,25.207,241S47.6533,129.1689,88.4111,88.4111S183.3594,25.207,241,25.207s111.8311,22.4463,152.5889,63.2041
		S456.793,183.3594,456.793,241S434.3467,352.8311,393.5889,393.5889z"/>
</g>
</svg>
