<?xml version="1.0" encoding="utf-8"?>
<!-- Generator: Adobe Illustrator 21.0.0, SVG Export Plug-In . SVG Version: 6.00 Build 0)  -->
<svg version="1.1" id="filled-star-shape-line5" xmlns="http://www.w3.org/2000/svg" xmlns:xlink="http://www.w3.org/1999/xlink"
	 x="0px" y="0px" viewBox="0 0 486.2355 486.2349" enable-background="new 0 0 486.2355 486.2349" xml:space="preserve">
<g id="change1">
	<polygon fill="#00BFDB" points="85.3917,193.09 131.5391,178.6978 120.9293,131.5358 88.0592,98.666 102.2613,161.7945 
		40.4902,181.059 	"/>
	<polygon fill="#00BFDB" points="161.7939,102.2612 98.6658,88.0597 131.5358,120.9295 178.6972,131.5396 193.0898,85.3918 
		181.0584,40.4901 	"/>
	<polygon fill="#00BFDB" points="195.548,36.6082 207.5792,81.5092 243.1172,114.2783 278.6563,81.5089 290.6876,36.6068 
		243.1172,80.4707 	"/>
	<polygon fill="#00BFDB" points="354.6979,120.9295 387.5679,88.0598 324.4405,102.2612 305.1755,40.4901 293.1446,85.3906 
		307.5361,131.5396 	"/>
	<polygon fill="#00BFDB" points="365.3051,131.5364 354.6953,178.6978 400.8431,193.09 445.7443,181.0589 383.9738,161.7945 
		398.1752,98.6665 	"/>
	<polygon fill="#00BFDB" points="404.7264,207.5791 371.9571,243.1172 404.7265,278.6558 449.6273,290.6867 405.7638,243.1172 
		449.6263,195.5484 	"/>
	<polygon fill="#00BFDB" points="307.536,354.6949 293.1447,400.8438 305.1754,445.744 324.4404,383.9731 387.567,398.1744 
		354.6971,365.3051 	"/>
	<polygon fill="#00BFDB" points="243.1172,371.9565 207.5791,404.7258 195.5482,449.6256 243.1171,405.7631 290.6873,449.6268 
		278.6563,404.726 	"/>
	<polygon fill="#00BFDB" points="400.8446,293.1442 354.6953,307.5365 365.3049,354.6978 398.175,387.5674 383.9736,324.4408 
		445.7447,305.1749 	"/>
	<polygon fill="#00BFDB" points="120.9294,354.6985 131.5391,307.5366 85.3902,293.1442 40.4897,305.175 102.2612,324.4409 
		88.0593,387.5679 	"/>
	<polygon fill="#00BFDB" points="81.5089,278.6558 114.2783,243.1172 81.509,207.5791 36.6078,195.5481 80.4707,243.1171 
		36.6067,290.687 	"/>
	<polygon fill="#00BFDB" points="131.5366,365.3052 98.6666,398.1745 161.7938,383.9731 181.0584,445.744 193.0898,400.8427 
		178.6972,354.6948 	"/>
</g>
<g id="change2">
	<path fill="#0C545C" d="M486.2355,308.2603l-60.0674-65.1431l60.0674-65.1426l-84.5918-26.3823l19.4482-86.4492l-86.4502,19.4482
		L308.2607,0l-65.1436,60.0674L177.9741,0l-26.3823,84.5913L65.1426,65.1431l19.4487,86.4492L0,177.9746l60.0674,65.1426L0,308.2603
		l84.5913,26.3818l-19.4487,86.4492l86.4492-19.4482l26.3823,84.5918l65.1431-60.0674l65.1436,60.0674l26.3809-84.5918
		l86.4502,19.4482l-19.4482-86.4492L486.2355,308.2603z M305.1754,445.744l-12.0308-44.9001l14.3914-46.1489l47.1611,10.6102
		l32.8699,32.8693l-63.1266-14.2013L305.1754,445.744z M161.7938,383.9731l-63.1272,14.2014l32.87-32.8693l47.1606-10.6104
		l14.3926,46.1479l-12.0314,44.9013L161.7938,383.9731z M80.4707,243.1171l-43.8629-47.569l44.9012,12.031l32.7693,35.5381
		l-32.7694,35.5386L36.6067,290.687L80.4707,243.1171z M181.0584,40.4901l12.0314,44.9017l-14.3926,46.1478l-47.1614-10.6101
		l-32.87-32.8698l63.1281,14.2015L181.0584,40.4901z M405.7638,243.1172l43.8635,47.5695l-44.9008-12.0309l-32.7694-35.5386
		l32.7693-35.5381l44.8999-12.0307L405.7638,243.1172z M348.5459,348.5464l-51.2109-11.5215l-15.6279,50.1104l-38.5898-35.583
		l-38.5898,35.583l-15.6279-50.1104l-51.2109,11.5215l11.5205-51.2109l-50.1104-15.6289l35.583-38.5894l-35.583-38.5898
		L149.2092,188.9l-11.5205-51.2114l51.2109,11.521l15.6279-50.1108l38.5898,35.583l38.5898-35.583l15.6279,50.1108l51.2109-11.521
		L337.0254,188.9l50.1104,15.6274l-35.583,38.5898l35.583,38.5894l-50.1104,15.6289L348.5459,348.5464z M383.9738,161.7945
		l61.7706,19.2644L400.8431,193.09l-46.1478-14.3922l10.6097-47.1614l32.8702-32.8699L383.9738,161.7945z M354.6979,120.9295
		l-47.1618,10.61l-14.3915-46.1489l12.0309-44.9006l19.265,61.7712l63.1274-14.2014L354.6979,120.9295z M278.6563,81.5089
		l-35.5391,32.7695l-35.538-32.7692l-12.0312-44.901l47.5692,43.8625l47.5704-43.864L278.6563,81.5089z M120.9293,131.5358
		l10.6098,47.162L85.3917,193.09l-44.9016-12.031l61.7711-19.2645L88.0592,98.666L120.9293,131.5358z M102.2612,324.4409
		L40.4897,305.175l44.9005-12.0308l46.1489,14.3924l-10.6097,47.1619l-32.8701,32.8694L102.2612,324.4409z M207.5791,404.7258
		l35.5381-32.7693l35.5391,32.7695l12.0309,44.9008l-47.5701-43.8637l-47.5689,43.8625L207.5791,404.7258z M365.3049,354.6978
		l-10.6096-47.1613l46.1493-14.3923l44.9001,12.0307l-61.7711,19.2659l14.2014,63.1266L365.3049,354.6978z"/>
</g>
</svg>
