<?xml version="1.0" encoding="utf-8"?>
<!-- Generator: Adobe Illustrator 21.0.0, SVG Export Plug-In . SVG Version: 6.00 Build 0)  -->
<svg version="1.1" id="Cutout_Circle_with_Spiked_Design_Border_3"
	 xmlns="http://www.w3.org/2000/svg" xmlns:xlink="http://www.w3.org/1999/xlink" x="0px" y="0px" viewBox="0 0 500.548 500.548"
	 enable-background="new 0 0 500.548 500.548" xml:space="preserve">
<g id="change1">
	<path fill="#6BB18C" d="M250.2737,113.1831c-75.5918,0-137.0903,61.4985-137.0903,137.0908s61.4985,137.0903,137.0903,137.0903
		s137.0908-61.498,137.0908-137.0903S325.8655,113.1831,250.2737,113.1831z"/>
	<path fill="#6BB18C" d="M474.6635,269.9056l25.8845-19.6315l-25.8845-19.6315l22.0823-23.8281l-28.9003-14.8384l17.6091-27.3007
		l-31.0378-9.5946l12.6009-29.9437l-32.2324-4.0591l7.2098-31.6769l-32.4476,1.5996l1.5997-32.4476l-31.6769,7.2098l-4.0591-32.2324
		l-29.9437,12.6009l-9.5945-31.0379l-27.3007,17.6091L293.7336,3.8022l-23.8281,22.0823L250.274,0l-19.6315,25.8846L206.8144,3.8022
		l-14.8385,28.9003l-27.3007-17.6091l-9.5945,31.0379L125.137,33.5304l-4.0591,32.2324L89.4009,58.553l1.5997,32.4476L58.553,89.401
		l7.2098,31.6769l-32.2324,4.0591l12.6009,29.9437l-31.0378,9.5946l17.6091,27.3007L3.8022,206.8144l22.0823,23.8281L0,250.274
		l25.8845,19.6315L3.8022,293.7336l28.9003,14.8385l-17.6091,27.3007l31.0378,9.5945L33.5303,375.411l32.2324,4.0591L58.553,411.147
		l32.4476-1.5996l-1.5997,32.4476l31.6769-7.2098l4.0591,32.2325l29.9437-12.6009l9.5945,31.0378l27.3007-17.6091l14.8385,28.9003
		l23.8281-22.0823l19.6315,25.8845l19.6315-25.8845l23.8281,22.0823l14.8385-28.9003l27.3007,17.6091l9.5945-31.0378
		l29.9437,12.6009l4.0591-32.2325l31.6769,7.2098l-1.5997-32.4476l32.4476,1.5996l-7.2098-31.6769l32.2324-4.0591l-12.6009-29.9437
		l31.0378-9.5945l-17.6091-27.3007l28.9003-14.8385L474.6635,269.9056z M250.2737,397.3643
		c-81.106,0-147.0903-65.9844-147.0903-147.0903s65.9844-147.0908,147.0903-147.0908c81.1064,0,147.0908,65.9849,147.0908,147.0908
		S331.3802,397.3643,250.2737,397.3643z"/>
</g>
<g id="change2">
	<path fill="#7FCCA2" d="M250.2737,113.1831c-75.5918,0-137.0903,61.4985-137.0903,137.0908s61.4985,137.0903,137.0903,137.0903
		s137.0908-61.498,137.0908-137.0903S325.8655,113.1831,250.2737,113.1831z"/>
	<path fill="#7FCCA2" d="M440.1332,266.8846l21.9013-16.6105l-21.9013-16.6105l18.6842-20.1613l-24.4529-12.5551l14.8994-23.0995
		l-26.2617-8.1181l10.6618-25.3358l-27.2723-3.4345l6.1003-26.8023l-27.4544,1.3535l1.3535-27.4544l-26.8022,6.1003l-3.4345-27.2723
		l-25.3358,10.6618l-8.1182-26.2616l-23.0994,14.8994l-12.5551-24.4529l-20.1613,18.6841L250.274,38.5135l-16.6105,21.9012
		l-20.1613-18.6841l-12.5551,24.4529l-23.0994-14.8994l-8.1182,26.2616L144.3937,66.884l-3.4345,27.2723l-26.8022-6.1003
		l1.3535,27.4544L88.056,114.157l6.1003,26.8023l-27.2723,3.4345l10.6618,25.3358l-26.2617,8.1181l14.8994,23.0995l-24.4529,12.5551
		l18.6842,20.1613L38.5135,250.274l21.9013,16.6105l-18.6842,20.1613l24.4529,12.5551l-14.8994,23.0995l26.2617,8.1181
		L66.884,356.1543l27.2723,3.4345l-6.1003,26.8022l27.4544-1.3535l-1.3535,27.4544l26.8022-6.1003l3.4345,27.2723l25.3358-10.6618
		l8.1182,26.2616l23.0994-14.8993l12.5551,24.4529l20.1613-18.6841l16.6105,21.9013l16.6105-21.9013l20.1613,18.6841
		l12.5551-24.4529l23.0994,14.8993l8.1182-26.2616l25.3358,10.6618l3.4345-27.2723l26.8022,6.1003l-1.3535-27.4544l27.4544,1.3535
		l-6.1003-26.8022l27.2723-3.4345l-10.6618-25.3358l26.2617-8.1181l-14.8994-23.0995l24.4529-12.5551L440.1332,266.8846z
		 M250.2737,397.3643c-81.106,0-147.0903-65.9844-147.0903-147.0903s65.9844-147.0908,147.0903-147.0908
		c81.1064,0,147.0908,65.9849,147.0908,147.0908S331.3802,397.3643,250.2737,397.3643z"/>
</g>
</svg>
