<?xml version="1.0" encoding="utf-8"?>
<!-- Generator: Adobe Illustrator 21.0.0, SVG Export Plug-In . SVG Version: 6.00 Build 0)  -->
<svg version="1.1" id="Filled_Circle_with_Multiple_Division_Design_2"
	 xmlns="http://www.w3.org/2000/svg" xmlns:xlink="http://www.w3.org/1999/xlink" x="0px" y="0px" viewBox="0 0 475 475"
	 enable-background="new 0 0 475 475" xml:space="preserve">
<g id="change1">
	<circle fill="#8686F2" cx="237.5" cy="237.5" r="229"/>
</g>
<g id="change2">
	<path fill="#362DB2" d="M405.4375,69.562C360.5801,24.7041,300.9385,0,237.5,0S114.4199,24.7041,69.562,69.562S0,174.0615,0,237.5
		s24.7041,123.0801,69.562,167.9375C114.4199,450.2959,174.0615,475,237.5,475s123.0801-24.7041,167.9375-69.5625
		C450.2959,360.5801,475,300.9385,475,237.5S450.2959,114.4199,405.4375,69.562z M459.8614,230H425.005
		C421.1512,132.4733,342.5267,53.8488,245,49.995V15.1386c56.6191,1.8633,109.5797,24.7785,149.8311,65.0303
		C435.0824,120.4203,457.9981,173.3809,459.8614,230z M237.5,410.168c-95.2095,0-172.668-77.459-172.668-172.668
		c0-95.2095,77.4585-172.668,172.668-172.668c95.209,0,172.668,77.4585,172.668,172.668
		C410.168,332.709,332.709,410.168,237.5,410.168z M80.1689,80.1689C120.4203,39.9171,173.3809,17.0019,230,15.1386V49.995
		C132.4733,53.8488,53.8488,132.4733,49.995,230H15.1386C17.0019,173.3809,39.9171,120.4203,80.1689,80.1689z M15.1386,245H49.995
		C53.8488,342.5267,132.4733,421.1512,230,425.005v34.8564c-56.6191-1.8633-109.5797-24.779-149.8311-65.0303
		C39.9171,354.5797,17.0019,301.6191,15.1386,245z M394.8311,394.8311C354.5797,435.0824,301.6191,457.9981,245,459.8614V425.005
		c97.5267-3.8538,176.1512-82.4783,180.005-180.005h34.8564C457.9981,301.6191,435.0824,354.5797,394.8311,394.8311z"/>
</g>
</svg>
