<?xml version="1.0" encoding="utf-8"?>
<!-- Generator: Adobe Illustrator 21.0.0, SVG Export Plug-In . SVG Version: 6.00 Build 0)  -->
<svg version="1.1" id="Cutout_Circle_with_Multiple_Division_2"
	 xmlns="http://www.w3.org/2000/svg" xmlns:xlink="http://www.w3.org/1999/xlink" x="0px" y="0px" viewBox="0 0 498.3709 498.3865"
	 enable-background="new 0 0 498.3709 498.3865" xml:space="preserve">
<g id="change1">
	<path fill="#C9C1FE" d="M249.1854,9.3787c-132.4459,0-239.8146,107.3687-239.8146,239.8146S116.7395,489.008,249.1854,489.008
		s239.8147-107.3687,239.8147-239.8146S381.6314,9.3787,249.1854,9.3787z M249.1854,393.1915
		c-79.528,0-143.998-64.4702-143.998-143.9981s64.4701-143.9981,143.998-143.9981s143.9981,64.4702,143.9981,143.9981
		S328.7134,393.1915,249.1854,393.1915z"/>
</g>
<g id="change2">
	<path id="cutout-circle-with-multiple-division-2-outlined-circle-with-multiple-division-1" fill="#8870FF" d="M493.7525,201.7447
		c-6.0588-31.5872-18.1635-61.5158-35.7336-88.4066c-0.3403-0.5255-0.6808-1.0508-1.0249-1.5734
		c-0.3463-0.5212-0.6962-1.0402-1.0465-1.559c-17.865-26.6942-40.6649-49.5491-67.3574-67.4904
		C361.963,24.6561,332.2312,12.048,300.7818,5.4567c-0.6051-0.1294-1.2101-0.2585-1.8159-0.3834
		c-0.6199-0.1251-1.241-0.2458-1.8622-0.3663c-31.5116-6.2426-63.7973-6.2796-95.3607-0.0883
		c-31.5913,6.0598-61.5237,18.167-88.4172,35.741c-0.5184,0.3357-1.0365,0.6716-1.5521,1.011
		c-0.5284,0.351-1.0546,0.7059-1.5806,1.061c-25.4338,17.0237-47.3785,38.5299-64.9114,63.6127
		c-0.0007,0.001-0.0014,0.002-0.0021,0.0029c-0.8632,1.2349-1.7191,2.4755-2.5607,3.7277
		c-18.06,26.6268-30.6689,56.3583-37.261,87.8074c-0.1302,0.6085-0.2599,1.217-0.3855,1.8261
		c-0.1246,0.6176-0.245,1.2363-0.3649,1.8552c-6.2419,31.5064-6.2802,63.7871-0.0923,95.346
		c6.0578,31.5936,18.1638,61.5283,35.7371,88.4238c0.3403,0.5256,0.6808,1.0509,1.025,1.5736
		c0.3456,0.5202,0.6949,1.0381,1.0446,1.556c17.8686,26.7004,40.674,49.5596,67.3737,67.5026
		c26.9525,18.277,57.0843,30.9738,88.9592,37.4946c0.4502,0.0941,0.8997,0.1935,1.3502,0.285
		c0.1609,0.032,0.3228,0.0609,0.4838,0.0926c16.0494,3.2258,32.3026,4.8486,48.5638,4.8486c16.0344,0,32.0747-1.5782,47.9309-4.7191
		c31.4143-6.0866,61.1791-18.1597,87.9371-35.6409c0.5333-0.3453,1.0662-0.6909,1.5966-1.04
		c0.5123-0.3403,1.0225-0.6844,1.5325-1.0287c26.7079-17.871,49.5728-40.6815,67.5195-67.3879
		c18.0505-26.6196,30.6532-56.3416,37.2433-87.7801c0.1304-0.6097,0.2606-1.2195,0.3863-1.8298
		c0.1241-0.6154,0.2441-1.2319,0.3636-1.8485C499.9064,265.5983,499.9441,233.3104,493.7525,201.7447z M443.4969,118.5787
		c0.3257,0.4866,0.6568,0.969,0.9789,1.4583c0.328,0.4938,0.646,0.9932,0.97,1.4892c6.7961,10.4958,12.7864,21.6041,17.9094,33.2504
		l-32.816,13.2267c-8.7989-19.6749-20.7704-37.9541-35.5859-53.9794l24.952-24.952
		C428.619,98.3484,436.4979,108.2126,443.4969,118.5787z M339.4004,371.91c4.1769-3.0596,8.2062-6.3386,12.072-9.8304
		l22.2628,22.2629c-5.3939,4.9558-11.063,9.563-16.9661,13.8114L339.4004,371.91z M344.2437,406.4067
		c-6.293,3.7935-12.8,7.2049-19.4841,10.2188l-11.7515-29.1559c4.744-2.1869,9.3736-4.6257,13.8781-7.2898L344.2437,406.4067z
		 M362.103,351.4961c2.9053-3.2007,5.674-6.5506,8.3185-10.0236l25.9521,17.808c-3.7803,5.0534-7.7955,9.8768-12.0266,14.4594
		L362.103,351.4961z M378.9205,329.113c2.6546-4.3147,5.1021-8.8073,7.3516-13.4525l28.9545,12.319
		c-3.1185,6.5798-6.5819,12.8965-10.3665,18.933L378.9205,329.113z M392.1615,301.8649c1.6817-4.5566,3.1235-9.1486,4.3453-13.7615
		l30.788,6.5308c-1.6776,6.5575-3.7485,13.0792-6.1956,19.5425L392.1615,301.8649z M356.7953,100.1633
		c5.9644,4.3059,11.6151,8.9395,16.9447,13.8602l-22.2441,22.2441c-3.8267-3.4734-7.8482-6.7703-12.0628-9.8678L356.7953,100.1633z
		 M326.9193,118.1284c-3.637-2.1539-7.3867-4.1746-11.2518-6.0461l12.3118-28.938c5.6303,2.6684,11.0658,5.5916,16.2995,8.7512
		L326.9193,118.1284z M384.3423,124.6351c4.9171,5.3517,9.4894,10.9753,13.7103,16.8287l-26.2154,17.3849
		c-3.0361-4.1367-6.2872-8.1299-9.7477-11.9608L384.3423,124.6351z M406.3195,153.9807c3.8287,6.3383,7.269,12.8948,10.3061,19.6307
		l-29.1566,11.7518c-2.2065-4.7867-4.6674-9.4582-7.3597-14.0009L406.3195,153.9807z M397.2494,213.4615
		c-1.1637-4.7968-2.5559-9.5315-4.1729-14.1863l29.1565-11.7518c2.3436,6.5692,4.3154,13.2727,5.906,20.0777L397.2494,213.4615z
		 M430.9622,222.3331c0.9553,6.3945,1.5748,12.8539,1.8504,19.3525h-31.4562c-0.2303-4.5254-0.6633-9.0262-1.292-13.4906
		L430.9622,222.3331z M399.6241,273.4303c0.8989-5.58,1.4852-11.1692,1.7542-16.7448h31.45
		c-0.3079,7.7473-1.1088,15.5191-2.4258,23.2736L399.6241,273.4303z M380.2047,55.1572c1.166,0.791,2.3323,1.5814,3.4855,2.3944
		c0.0073,0.0051,0.0146,0.0102,0.0219,0.0153c8.9413,6.3058,17.4852,13.2882,25.5864,20.8981l-24.9416,24.9417
		c-14.6381-13.5997-31.5599-25.168-50.5012-34.0744l13.8155-32.4722C359.0814,42.1418,369.9483,48.2626,380.2047,55.1572z
		 M256.6854,15.2507c12.9071,0.4037,25.6356,1.8383,38.0863,4.283c0.1874,0.0376,0.3757,0.0697,0.5631,0.1078
		c0.3904,0.0776,0.7775,0.1668,1.1674,0.2465c12.6334,2.6342,25.1248,6.3374,37.3665,11.0995l-13.8157,32.4727
		c-20.7932-7.9446-42.1714-12.1506-63.3676-12.9269V15.2507z M314.1766,77.2721L301.8648,106.21
		c-5.5565-2.0507-11.1655-3.7471-16.8013-5.1156l5.8945-30.9081C298.7537,72.0095,306.5076,74.3687,314.1766,77.2721z
		 M256.6854,65.5425c6.5037,0.2585,13.0253,0.8563,19.5399,1.8242l-5.8958,30.9147c-4.549-0.6362-9.1011-1.0687-13.6441-1.2878
		L256.6854,65.5425L256.6854,65.5425z M204.1402,19.4332c12.2787-2.3808,24.8246-3.7847,37.5452-4.1825v35.3011
		c-20.5118,0.8064-40.671,4.7935-59.77,11.673l-13.2269-32.8165C180.3329,25.1329,192.1792,21.8041,204.1402,19.4332z
		 M241.6853,65.5562v31.4593c-4.5414,0.2311-9.0583,0.6661-13.5383,1.2984l-5.8725-30.8999
		C228.6879,66.4539,235.1671,65.8325,241.6853,65.5562z M213.4142,101.1335c-4.7806,1.1613-9.4994,2.5502-14.1389,4.1619
		l-11.7565-29.1683c6.5511-2.3371,13.2379-4.3007,20.0238-5.8889L213.4142,101.1335z M140.0947,397.1253
		c-5.421-3.9973-10.578-8.2667-15.4643-12.7783l22.2439-22.2439c3.4555,3.1365,7.0731,6.1258,10.8455,8.9573L140.0947,397.1253z
		 M170.1483,379.4586c4.0424,2.449,8.2255,4.7339,12.5546,6.8301l-12.312,28.938c-6.1935-2.9354-12.1591-6.1701-17.8717-9.6973
		L170.1483,379.4586z M114.0281,373.7353c-4.8761-5.3072-9.4119-10.8826-13.6034-16.6835l26.1968-17.4095
		c3.0107,4.0938,6.2324,8.0467,9.6592,11.8405L114.0281,373.7353z M92.1439,344.545c-3.866-6.3861-7.3365-12.9948-10.3983-19.7852
		l29.1561-11.7516c2.2274,4.8319,4.714,9.546,7.4363,14.129L92.1439,344.545z M97.0144,256.6856
		c0.2449,4.8133,0.715,9.5998,1.4102,14.3432l-30.8542,6.0344c-1.0442-6.7294-1.7216-13.5312-2.012-20.3776H97.0144z
		 M65.5427,241.6855c0.2707-6.8131,0.9167-13.6452,1.9662-20.468l30.8785,6.0526c-0.6974,4.8056-1.163,9.6156-1.3946,14.4154
		H65.5427z M101.3282,285.7447c1.1212,4.5112,2.443,8.967,3.9661,13.3513l-29.156,11.7516
		c-2.2277-6.2441-4.1234-12.6085-5.6714-19.0673L101.3282,285.7447z M101.2772,212.5512l-30.8716-6.0513
		c1.7919-7.4879,4.0756-14.9359,6.866-22.3061l28.9385,12.3121C104.2509,201.814,102.6133,207.1697,101.2772,212.5512z
		 M83.1339,170.3869c2.6933-5.683,5.6501-11.1648,8.8434-16.4436l26.2236,17.3884c-2.1807,3.6746-4.2262,7.4639-6.1183,11.3716
		L83.1339,170.3869z M100.258,141.4367c4.2781-5.9146,8.8769-11.5226,13.7602-16.8118l22.2502,22.2502
		c-3.4426,3.7927-6.7111,7.7775-9.7846,11.9514L100.258,141.4367z M124.6381,114.0318c5.2848-4.8558,10.8304-9.3812,16.6049-13.558
		l17.4257,26.1932c-4.0724,2.9981-8.0052,6.2049-11.7805,9.615L124.6381,114.0318z M153.7462,92.1868
		c6.4102-3.8849,13.0449-7.3719,19.863-10.446l11.754,29.162c-4.8544,2.2378-9.59,4.7372-14.1931,7.4745L153.7462,92.1868z
		 M118.588,54.8673c0.4813-0.3221,0.9584-0.6495,1.4423-0.9681c0.4984-0.3311,1.0024-0.652,1.5031-0.9791
		c10.4935-6.794,21.5994-12.7828,33.2429-17.9045l13.2269,32.8165c-19.6747,8.7988-37.9539,20.7701-53.9791,35.5856L89.0717,78.4655
		C98.3509,69.749,108.2183,61.868,118.588,54.8673z M55.1437,118.1856c6.9321-10.222,14.7185-19.9551,23.3216-29.1136
		l24.9418,24.9418c-13.5997,14.6381-25.1682,31.5599-34.0746,50.5012l-32.4728-13.8157
		C42.1381,139.2963,48.2544,128.4362,55.1437,118.1856z M19.43,204.1561c0.1157-0.5844,0.2246-1.1697,0.3449-1.7536
		c0.1151-0.5704,0.241-1.1377,0.3604-1.7069c2.6165-12.2335,6.237-24.3303,10.852-36.1938L63.46,178.3176
		c-7.9451,20.7931-12.1514,42.1714-12.9277,63.368H15.2504C15.6481,228.9704,17.051,216.4298,19.43,204.1561z M19.3464,293.7645
		c-2.3265-12.1303-3.7032-24.519-4.096-37.0789h35.3007c0.8065,20.5118,4.7936,40.6711,11.6733,59.7702L29.408,329.6827
		C25.0774,317.8877,21.7233,305.8838,19.3464,293.7645z M54.8653,379.7802c-0.321-0.4797-0.6475-0.9552-0.965-1.4376
		c-0.3321-0.4999-0.6541-1.0056-0.9821-1.5077c-6.7933-10.4928-12.7814-21.5977-17.9027-33.2402l32.8164-13.2269
		c8.7988,19.6744,20.7701,37.9533,35.5853,53.9784l-24.9523,24.9523C69.7478,400.0187,61.8663,390.1507,54.8653,379.7802z
		 M121.7489,445.5913c-0.0061-0.004-0.0123-0.008-0.0184-0.012c-1.1866-0.7664-2.3569-1.5536-3.5276-2.3403
		c-10.2284-6.9351-19.9673-14.7255-29.131-23.3334l24.9419-24.9419c14.6381,13.5998,31.5597,25.1682,50.501,34.0747
		l-13.8159,32.4728C140.6115,456.8419,130.9406,451.5274,121.7489,445.5913z M241.6853,483.1204
		c-12.7079-0.3975-25.2415-1.7993-37.5085-4.1758c-0.5967-0.1182-1.1943-0.2292-1.7904-0.3521
		c-0.5582-0.1127-1.1135-0.2359-1.6706-0.3527c-12.2404-2.6166-24.344-6.2386-36.2141-10.8561l13.8159-32.4728
		c20.7941,7.9456,42.17,12.1509,63.3677,12.9271V483.1204z M184.1938,421.0994l12.3121-28.9384
		c5.037,1.8591,10.1162,3.4369,15.2201,4.7346l-6.2213,30.8291C198.3521,425.9705,191.2374,423.7662,184.1938,421.0994z
		 M241.6853,432.8286c-7.1496-0.2841-14.3199-0.9894-21.4786-2.1318l6.2217-30.8304c5.0853,0.7673,10.1768,1.2693,15.2569,1.5145
		L241.6853,432.8286L241.6853,432.8286z M110.3085,249.1934c0-76.6996,62.1773-138.8769,138.877-138.8769
		s138.877,62.1773,138.877,138.8769s-62.1774,138.877-138.877,138.877S110.3085,325.893,110.3085,249.1934z M310.8475,422.233
		c-6.4984,2.3185-13.1282,4.2733-19.8577,5.855l-5.9022-30.9026c4.7338-1.1547,9.4062-2.529,14.0015-4.1254L310.8475,422.233z
		 M276.2602,430.9276c-6.4672,0.9744-13.0008,1.6066-19.5748,1.8855v-31.4748c4.587-0.2336,9.1504-0.6611,13.6746-1.304
		L276.2602,430.9276z M293.7292,479.0308c-1.3701,0.2625-2.74,0.5257-4.1165,0.764c-0.0245,0.0043-0.0489,0.0086-0.0733,0.0129
		c-10.7764,1.8621-21.7498,2.9654-32.8539,3.3127v-35.2919c20.5118-0.8064,40.6736-4.794,59.7732-11.6742l13.2237,32.8085
		C317.8759,473.2972,305.8603,476.6537,293.7292,479.0308z M379.7863,443.501c-0.4831,0.3233-0.962,0.652-1.4478,0.9719
		c-0.4969,0.3301-0.9995,0.6501-1.4987,0.9763c-10.4944,6.7948-21.601,12.7841-33.2455,17.9062l-13.2249-32.8112
		c19.6743-8.7989,37.9493-20.7778,53.9745-35.5927l24.9543,24.9545C400.0204,428.6212,390.1544,436.5012,379.7863,443.501z
		 M443.2242,380.1893c-6.9313,10.2204-14.7166,19.9521-23.3184,29.1093l-24.9411-24.9409
		c13.6008-14.6389,25.1805-31.554,34.0872-50.496l32.4589,13.8099C456.2319,359.0759,450.1145,369.9374,443.2242,380.1893z
		 M478.9364,294.2377c-0.1133,0.5715-0.2197,1.1439-0.3373,1.7148c-0.1174,0.5819-0.2458,1.1607-0.3676,1.7414
		c-2.6162,12.2269-6.2353,24.3173-10.848,36.1746l-32.4724-13.8156c7.9449-20.793,12.1511-42.1712,12.9274-63.3674h35.2818
		C482.7223,269.4086,481.3181,281.9567,478.9364,294.2377z M447.8197,241.6855c-0.8064-20.5118-4.7935-40.6711-11.6731-59.7701
		l32.8162-13.2268c3.8311,10.4342,6.9115,21.0301,9.2134,31.7268c0.0018,0.0084,0.0035,0.0169,0.0053,0.0253
		c0.2968,1.3796,0.5675,2.7623,0.8388,4.145c2.3289,12.137,3.7068,24.5327,4.0999,37.0998H447.8197z"/>
</g>
</svg>
