<?xml version="1.0" encoding="utf-8"?>
<!-- Generator: Adobe Illustrator 21.0.0, SVG Export Plug-In . SVG Version: 6.00 Build 0)  -->
<svg version="1.1" id="Filled_Circle_with_Dotted_Border_Line"
	 xmlns="http://www.w3.org/2000/svg" xmlns:xlink="http://www.w3.org/1999/xlink" x="0px" y="0px" viewBox="0 0 483.8337 483.8129"
	 enable-background="new 0 0 483.8337 483.8129" xml:space="preserve">
<g id="change1">
	<circle fill="#FC575E" cx="241.921" cy="241.9028" r="190.5391"/>
	<path fill="#FC575E" d="M51.3325,143.4228c-1.9004,3.6797-0.46,8.21,3.21,10.1099c1.1099,0.5698,2.29,0.8398,3.4497,0.8398
		c2.71,0,5.3301-1.4697,6.6602-4.0498c1.9102-3.6802,0.4702-8.21-3.21-10.1099C57.7622,138.3124,53.2421,139.7426,51.3325,143.4228z
		"/>
	<path fill="#FC575E" d="M35.1425,253.8725c-4.1201,0.3799-7.1504,4.0401-6.77,8.1602c0.3599,3.8896,3.6299,6.8096,7.46,6.8096
		c0.23,0,0.4697-0.0098,0.6997-0.04c4.1304-0.3799,7.1602-4.04,6.7803-8.1592C42.9223,256.5121,39.2724,253.4828,35.1425,253.8725z"
		/>
	<path fill="#FC575E" d="M45.3022,307.183c3.9702-1.1602,6.2603-5.3301,5.1001-9.3008c-1.1602-3.9795-5.3301-6.2598-9.2998-5.0996
		c-3.98,1.1602-6.2603,5.3203-5.1001,9.2998c0.9497,3.2705,3.9497,5.4004,7.1899,5.4004
		C43.8925,307.4828,44.6025,307.3823,45.3022,307.183z"/>
	<path fill="#FC575E" d="M36.5922,214.5326c-4.1201-0.3901-7.7798,2.6299-8.1797,6.7598h0.0098
		c-0.3999,4.1201,2.6299,7.7803,6.75,8.1704c0.2402,0.0298,0.48,0.0396,0.7202,0.0396c3.8198,0,7.0898-2.9097,7.46-6.7896
		C43.7421,218.5927,40.7221,214.9325,36.5922,214.5326z"/>
	<path fill="#FC575E" d="M74.4125,363.7328c-3.2603,2.5596-3.8301,7.2695-1.27,10.5293c1.48,1.8809,3.6797,2.8701,5.8999,2.8701
		c1.6201,0,3.2598-0.5293,4.6299-1.5996c3.2598-2.5605,3.8301-7.2803,1.27-10.5303
		C82.3823,361.7426,77.6625,361.1723,74.4125,363.7328z"/>
	<path fill="#FC575E" d="M141.9223,414.5522c-3.5801-2.0898-8.1699-0.8691-10.25,2.71c-2.0801,3.5908-0.8599,8.1807,2.7202,10.2607
		c1.1797,0.6797,2.48,1.0098,3.7598,1.0098c2.5801,0,5.1001-1.3398,6.4902-3.7305
		C146.7221,421.2123,145.5024,416.6225,141.9223,414.5522z"/>
	<path fill="#FC575E" d="M64.4521,333.0922c-1.8999-3.6895-6.4199-5.1396-10.0996-3.2393
		c-3.6899,1.8994-5.1304,6.4199-3.2402,10.0996c1.3301,2.5898,3.96,4.0703,6.6802,4.0703c1.1499,0,2.3301-0.2705,3.4199-0.8301
		C64.9023,341.2924,66.3525,336.7729,64.4521,333.0922z"/>
	<path fill="#FC575E" d="M213.1923,439.3325c-4.1001-0.5898-7.8999,2.25-8.4902,6.3506c-0.5898,4.0996,2.25,7.8994,6.3501,8.5
		v-0.0107c0.3604,0.0605,0.7202,0.0801,1.0801,0.0801c3.6699,0,6.8799-2.6895,7.4199-6.4297
		C220.1425,443.7221,217.2924,439.9223,213.1923,439.3325z"/>
	<path fill="#FC575E" d="M176.3623,430.3627c-3.9102-1.3604-8.1802,0.71-9.54,4.6201s0.71,8.1895,4.6201,9.5498
		c0.8101,0.2803,1.6401,0.4199,2.46,0.4199c3.1099,0,6.0103-1.9404,7.0898-5.04
		C182.3525,436.0024,180.2822,431.7221,176.3623,430.3627z"/>
	<path fill="#FC575E" d="M73.4321,109.1625c-2.5596,3.2603-2,7.9702,1.25,10.54c1.3701,1.0801,3.0103,1.6099,4.6304,1.6099
		c2.2197,0,4.4199-0.98,5.8999-2.8599c2.5698-3.25,2.0098-7.96-1.2402-10.5298C80.7123,105.3627,76.0024,105.9125,73.4321,109.1625z
		"/>
	<path fill="#FC575E" d="M111.0825,392.4828c-3.1304-2.7207-7.8701-2.3906-10.5801,0.7393
		c-2.7202,3.1201-2.3901,7.8604,0.73,10.5801c1.4199,1.2305,3.1802,1.8408,4.9199,1.8408c2.1001,0,4.1802-0.8701,5.6602-2.5801
		C114.5322,399.933,114.2021,395.2026,111.0825,392.4828z"/>
	<path fill="#FC575E" d="M174.3422,53.7026c0.8203,0,1.6401-0.1299,2.4502-0.4102c3.9097-1.3496,5.9897-5.6196,4.6396-9.54
		c-1.3496-3.9097-5.6196-5.9897-9.5298-4.6396c-3.9199,1.3501-6,5.6196-4.6499,9.54
		C168.3325,51.7524,171.2324,53.7026,174.3422,53.7026z"/>
	<path fill="#FC575E" d="M427.1826,167.7826c-0.0107,0-0.0107,0-0.0107,0c1.1807,2.9302,3.9902,4.71,6.9707,4.71
		c0.9297,0,1.8701-0.1699,2.79-0.54c3.8398-1.54,5.71-5.9102,4.1699-9.75c-1.54-3.8501-5.9102-5.71-9.75-4.1699
		C427.5019,159.5624,425.6425,163.9325,427.1826,167.7826z"/>
	<path fill="#FC575E" d="M416.1025,137.5326c1.3896,0,2.79-0.3901,4.0498-1.2002c3.4805-2.2397,4.4902-6.8799,2.25-10.3599
		c-2.25-3.4902-6.8896-4.4902-10.3701-2.25c-3.4795,2.2402-4.4902,6.8799-2.25,10.3701
		C411.2226,136.3124,413.6328,137.5326,416.1025,137.5326z"/>
	<path fill="#FC575E" d="M106.5122,92.8627c1.73,0,3.48-0.6001,4.9004-1.8301c3.1299-2.71,3.4697-7.4502,0.7598-10.5801
		s-7.4502-3.4702-10.5801-0.7598c-3.1299,2.71-3.4697,7.4497-0.7598,10.5796C102.3124,91.9824,104.4023,92.8627,106.5122,92.8627z"
		/>
	<path fill="#FC575E" d="M391.7626,106.6127c1.8594,0,3.7197-0.6899,5.1699-2.0703c3-2.8599,3.1094-7.6099,0.2598-10.6099
		c-2.8604-3-7.6104-3.1099-10.6104-0.25s-3.1094,7.6001-0.25,10.6001C387.8027,105.8325,389.7822,106.6127,391.7626,106.6127z"/>
	<path fill="#FC575E" d="M443.7919,195.3725c-4.0693,0.7803-6.7393,4.71-5.96,8.7803c0.6904,3.5898,3.8301,6.0898,7.3604,6.0898
		c0.4697,0,0.9404-0.04,1.4199-0.1299c4.0703-0.79,6.7305-4.71,5.96-8.7803C451.7919,197.2626,447.8622,194.5927,443.7919,195.3725z
		"/>
	<path fill="#FC575E" d="M441.4023,241.9028c0,0.0698,0,0.1299,0,0.1997c0,0.0801,0,0.1602,0,0.25
		c-0.0098,4.1401,3.3398,7.5005,7.4805,7.5103c0.0098,0,0.0098,0,0.0195,0c4.1299,0,7.4902-3.3506,7.5-7.48
		c0-0.0703,0-0.1401,0-0.2202s0-0.1699,0-0.2598c0-4.1401-3.3604-7.5-7.5-7.5S441.4023,237.7626,441.4023,241.9028z"/>
	<path fill="#FC575E" d="M357.6826,79.4325c1.3193,0.9399,2.8496,1.3901,4.3496,1.3901c2.3398,0,4.6504-1.0903,6.1104-3.1401
		c2.4102-3.3701,1.6299-8.0601-1.7402-10.46c-3.3701-2.4102-8.0596-1.6299-10.46,1.7402
		C353.5322,72.3427,354.3124,77.0224,357.6826,79.4325z"/>
	<path fill="#FC575E" d="M324.872,60.4325c1.0107,0.46,2.0703,0.6802,3.1201,0.6802c2.8398,0,5.5605-1.6201,6.8203-4.3804
		c1.7197-3.7695,0.0703-8.2197-3.7002-9.9399h0.0098c-3.7695-1.73-8.2197-0.0698-9.9502,3.7002
		C319.4521,54.2524,321.1025,58.7026,324.872,60.4325z"/>
	<path fill="#FC575E" d="M251.082,441.1723c-4.1396,0.1904-7.3398,3.7002-7.1602,7.8398c0.1807,4.0205,3.5,7.1602,7.4902,7.1602
		c0.1201,0,0.2305-0.0098,0.3398-0.0098c4.1406-0.1904,7.3408-3.6904,7.1601-7.8301
		C258.7226,444.1928,255.2119,440.9926,251.082,441.1723z"/>
	<path fill="#FC575E" d="M138.5625,70.0424c1.27,0,2.5601-0.3296,3.7397-1.0098c3.5903-2.0698,4.8203-6.6602,2.75-10.2402
		c-2.0801-3.5898-6.6597-4.8198-10.25-2.75c-3.5898,2.0703-4.8198,6.6602-2.7397,10.25
		C133.4521,68.6928,135.9721,70.0424,138.5625,70.0424z"/>
	<path fill="#FC575E" d="M212.5825,44.4824c0.3496,0,0.6997-0.0195,1.0601-0.0698c4.0996-0.5801,6.9497-4.3799,6.3696-8.48
		s-4.3799-6.96-8.48-6.3701c-4.1001,0.5801-6.9497,4.3701-6.3696,8.48C205.6923,41.7826,208.9023,44.4824,212.5825,44.4824z"/>
	<path fill="#FC575E" d="M251.5322,42.6528c0.1201,0,0.2402,0,0.3604,0c3.9795,0,7.29-3.1304,7.4795-7.1401
		c0.2002-4.1401-3-7.6499-7.1299-7.8501c-4.1396-0.1899-7.6494,3-7.8496,7.1401S247.3925,42.4526,251.5322,42.6528z"/>
	<path fill="#FC575E" d="M289.0527,48.0224c0.5996,0.1401,1.1895,0.21,1.7793,0.21c3.3799,0,6.4502-2.2998,7.2803-5.73
		c0.9697-4.0298-1.5-8.0898-5.5195-9.0596c-4.0303-0.98-8.0908,1.5-9.0605,5.52C282.5624,42.9926,285.0322,47.0424,289.0527,48.0224
		z"/>
	<path fill="#FC575E" d="M36.1323,181.2626c-1.1699,3.9697,1.1099,8.1401,5.0801,9.3101c0.71,0.21,1.4199,0.3101,2.1201,0.3101
		c3.2397,0,6.23-2.1201,7.1899-5.3901c1.1699-3.9702-1.1001-8.1401-5.0801-9.3101
		C41.4721,175.0126,37.3022,177.2826,36.1323,181.2626z"/>
	<path fill="#FC575E" d="M324.4619,423.5629c-3.7695,1.71-5.4297,6.1592-3.71,9.9297c1.25,2.7598,3.9805,4.3896,6.8301,4.3896
		c1.04,0,2.0898-0.21,3.1006-0.6699c3.7695-1.7197,5.4297-6.1602,3.7197-9.9395
		C332.6826,423.5024,328.2324,421.8422,324.4619,423.5629z"/>
	<path fill="#FC575E" d="M446.5419,274.1528c-4.0693-0.7803-8.0098,1.8701-8.79,5.9395c-0.79,4.0605,1.8701,8,5.9404,8.79
		c0.4795,0.0898,0.96,0.1406,1.4297,0.1406c3.5205,0,6.6602-2.4902,7.3506-6.0801h0.0098
		C453.2626,278.8823,450.6025,274.9428,446.5419,274.1528z"/>
	<path fill="#FC575E" d="M396.8622,390.2123c2.8604-2.9902,2.7598-7.7402-0.2295-10.6094c-3-2.8604-7.7402-2.7607-10.6104,0.2393
		c-2.8604,2.9902-2.7598,7.7305,0.2295,10.6006c1.46,1.3896,3.3203,2.0801,5.1904,2.0801
		C393.412,392.5229,395.3828,391.7524,396.8622,390.2123z"/>
	<path fill="#FC575E" d="M440.9218,322.0522c1.5508-3.8398-0.3096-8.2197-4.1494-9.7598c-3.8398-1.5498-8.21,0.2998-9.7598,4.1504
		c-1.5508,3.8398,0.3096,8.21,4.1494,9.7598c0.9199,0.3701,1.8701,0.54,2.7998,0.54
		C436.9326,326.7426,439.7421,324.9721,440.9218,322.0522z"/>
	<path fill="#FC575E" d="M357.3222,404.6323c-3.3799,2.4004-4.1699,7.0801-1.7695,10.46c1.46,2.0605,3.7793,3.1602,6.1191,3.1602
		c1.5,0,3.0205-0.4502,4.3408-1.3896c3.3701-2.4004,4.1699-7.0801,1.7695-10.46
		C365.3828,403.0229,360.7021,402.2328,357.3222,404.6323z"/>
	<path fill="#FC575E" d="M422.1425,358.2328c2.25-3.4805,1.25-8.1201-2.2305-10.3701c-3.4697-2.25-8.1201-1.25-10.3701,2.2295
		c-2.25,3.4707-1.25,8.1201,2.2305,10.3701c1.2598,0.8105,2.6699,1.2002,4.0596,1.2002
		C418.2919,361.6625,420.7021,360.4526,422.1425,358.2328z"/>
	<path fill="#FC575E" d="M288.622,435.893c-4.0293,0.96-6.5098,5.0098-5.54,9.04c0.8203,3.4395,3.8906,5.75,7.2803,5.75
		c0.5801,0,1.1699-0.0703,1.7598-0.2109c4.0205-0.96,6.5107-5.0098,5.54-9.0391
		C296.6923,437.4028,292.6523,434.9223,288.622,435.893z"/>
	<path fill="#FC575E" d="M425.4218,381.143c1.6709-2.2002,1.2402-5.3408-0.9492-7.0107c-2.2002-1.6699-5.3398-1.2393-7.0107,0.96
		c-1.6699,2.1904-1.25,5.3301,0.9502,7c0.9102,0.6904,1.9707,1.0205,3.0303,1.0205
		C422.9423,383.1127,424.4423,382.433,425.4218,381.143z"/>
	<path fill="#FC575E" d="M366.8525,60.3827c0.0098,0,0.0098,0,0.0098,0c0.8604,0.5996,1.8496,0.8799,2.8301,0.8799
		c1.5898,0,3.1504-0.75,4.1201-2.1602c1.5596-2.27,0.9902-5.3896-1.2803-6.9497c-2.2695-1.5703-5.3896-1-6.9502,1.2798
		C364.0126,55.7026,364.582,58.8124,366.8525,60.3827z"/>
	<path fill="#FC575E" d="M466.3622,221.0224c-2.75,0.1904-4.8301,2.5801-4.6396,5.3301c0.1895,2.6401,2.3799,4.6499,4.9795,4.6499
		c0.1201,0,0.2402,0,0.3604-0.0098c2.75-0.1899,4.8301-2.5801,4.6396-5.3301C471.5019,222.9028,469.122,220.8324,466.3622,221.0224z
		"/>
	<path fill="#FC575E" d="M16.5322,242.3827c0.0303,0,0.0703,0,0.1001,0c2.7202,0,4.9399-2.1699,5-4.9004
		c0.0601-2.7598-2.1299-5.0396-4.8901-5.0996c-2.7598-0.0601-5.0498,2.1299-5.1099,4.8896
		C11.5825,240.0326,13.7724,242.3227,16.5322,242.3827z"/>
	<path fill="#FC575E" d="M139.0825,46.3925c0.77,0,1.5601-0.1797,2.29-0.5498c2.4497-1.2603,3.4199-4.2803,2.1597-6.73
		c-1.27-2.46-4.2798-3.4302-6.73-2.1699c-2.46,1.27-3.4297,4.2798-2.1597,6.7397
		C135.5224,45.4028,137.2724,46.3925,139.0825,46.3925z"/>
	<path fill="#FC575E" d="M24.3422,276.8823c-0.4399-2.7295-3-4.5898-5.73-4.1494c-2.73,0.4395-4.5801,3-4.1499,5.7295
		c0.3999,2.46,2.52,4.21,4.9302,4.21c0.27,0,0.5298-0.0195,0.7998-0.0693C22.9223,282.1723,24.7822,279.603,24.3422,276.8823z"/>
	<path fill="#FC575E" d="M400.7626,87.0825c1.2793,0,2.5596-0.4897,3.54-1.4697c1.9492-1.96,1.9395-5.1304-0.0205-7.0703
		c-1.96-1.9497-5.1201-1.9399-7.0703,0.0103c-1.9492,1.96-1.9395,5.1299,0.0205,7.0801
		C398.2021,86.6025,399.4824,87.0825,400.7626,87.0825z"/>
	<path fill="#FC575E" d="M20.0722,202.1327c0.3403,0.0698,0.6699,0.0996,0.9902,0.0996c2.3398,0,4.4199-1.6396,4.8999-4.0098
		c0.54-2.71-1.21-5.3501-3.9199-5.8901c-2.7002-0.5498-5.3403,1.21-5.8799,3.9199
		C15.6123,198.9526,17.3725,201.5927,20.0722,202.1327z"/>
	<path fill="#FC575E" d="M104.9521,67.9926c1.0703,0,2.1304-0.3301,3.04-1.0298c2.1899-1.6802,2.6104-4.8203,0.9302-7.0103
		s-4.8198-2.6099-7.0098-0.9302c-2.1904,1.6802-2.6104,4.8203-0.9302,7.0103C101.9721,67.3227,103.4521,67.9926,104.9521,67.9926z"
		/>
	<path fill="#FC575E" d="M390.8427,404.2621c-2.04,1.8701-2.1807,5.0303-0.3105,7.0703c0.9902,1.0703,2.3398,1.6201,3.6904,1.6201
		c1.21,0,2.4199-0.4297,3.3799-1.3096c2.0303-1.8701,2.1699-5.0303,0.2998-7.0703
		C396.0419,402.5424,392.872,402.4028,390.8427,404.2621z"/>
	<path fill="#FC575E" d="M332.4619,40.9824c0.6709,0.3003,1.3701,0.4502,2.0508,0.4502c1.9092,0,3.7295-1.1001,4.5693-2.9502
		c1.1299-2.5195,0.0107-5.48-2.5098-6.6099v-0.0098c-2.5195-1.1304-5.4795-0.0103-6.6104,2.5098
		C328.8222,36.8925,329.9521,39.8525,332.4619,40.9824z"/>
	<path fill="#FC575E" d="M48.1323,126.7226c0.8301,0.52,1.75,0.77,2.6499,0.77c1.6699,0,3.29-0.8398,4.2402-2.3501
		c0.0098,0,0.0098,0,0.0098,0c1.46-2.3398,0.75-5.4297-1.5898-6.8901c-2.3398-1.4697-5.4302-0.7598-6.8901,1.5801
		C45.0825,122.1728,45.7924,125.2626,48.1323,126.7226z"/>
	<path fill="#FC575E" d="M459.2822,301.5922c-2.6494-0.79-5.4395,0.7207-6.2197,3.3701c-0.79,2.6406,0.7197,5.4307,3.3701,6.21
		c0.4697,0.1504,0.9502,0.21,1.4199,0.21c2.1602,0,4.1494-1.3994,4.79-3.5693
		C463.4326,305.1625,461.9218,302.3823,459.2822,301.5922z"/>
	<path fill="#FC575E" d="M295.1523,28.0825c0.4004,0.1001,0.8096,0.1499,1.21,0.1499c2.2402,0,4.2803-1.5195,4.8398-3.7998
		c0.6699-2.6802-0.9697-5.3901-3.6494-6.0498c-2.6807-0.6699-5.3906,0.9697-6.0508,3.6499
		C290.832,24.7128,292.4726,27.4228,295.1523,28.0825z"/>
	<path fill="#FC575E" d="M75.2021,95.3124c1.3501,0,2.7104-0.5498,3.7002-1.6299c1.8501-2.04,1.71-5.21-0.3301-7.0698
		c-2.0498-1.8604-5.21-1.71-7.0698,0.3301c-1.8599,2.0396-1.71,5.21,0.3301,7.0698C72.7924,94.8827,73.9921,95.3124,75.2021,95.3124
		z"/>
	<path fill="#FC575E" d="M30.6923,163.1625c0.6099,0.2402,1.23,0.3501,1.8501,0.3501c1.98,0.0098,3.8599-1.1899,4.6396-3.1499
		c1.02-2.5703-0.23-5.4702-2.7896-6.4902c-2.5703-1.02-5.48,0.23-6.5,2.8003C26.8725,159.2323,28.1225,162.1425,30.6923,163.1625z"
		/>
	<path fill="#FC575E" d="M466.4423,261.4223c-2.7402-0.2998-5.21,1.6807-5.5098,4.4199c-0.0107,0.0703-0.0107,0.1406-0.0205,0.2002
		c-0.0098,0.0703-0.0195,0.1406-0.0293,0.21c-0.3008,2.7402,1.6797,5.21,4.4199,5.5205c0.1895,0.0195,0.3691,0.0293,0.5596,0.0293
		c2.5098,0,4.6797-1.8896,4.96-4.4492c0.0098-0.0703,0.0205-0.1406,0.0205-0.2002c0.0098-0.0703,0.0195-0.1504,0.0293-0.2197
		C471.1718,264.1928,469.1923,261.7221,466.4423,261.4223z"/>
	<path fill="#FC575E" d="M446.8027,153.0624c0.6992,0,1.4092-0.1396,2.0898-0.4497c2.5098-1.1602,3.6094-4.1201,2.4502-6.6304
		c-1.1504-2.5098-4.1201-3.6099-6.6309-2.46c-2.5098,1.1504-3.6094,4.1201-2.4492,6.6304
		C443.1025,151.9823,444.912,153.0624,446.8027,153.0624z"/>
	<path fill="#FC575E" d="M172.6323,456.4028c0.9102-2.6006-0.4697-5.4502-3.0801-6.3604c-2.6099-0.8994-5.46,0.4805-6.3599,3.0898
		c-0.9102,2.6104,0.4702,5.46,3.0801,6.3604c0.54,0.1904,1.1001,0.2803,1.6401,0.2803
		C169.9824,459.7729,171.9223,458.4721,172.6323,456.4028z"/>
	<path fill="#FC575E" d="M292.4326,461.603c-0.5605-2.71-3.21-4.4502-5.9102-3.8906c-2.71,0.5605-4.4502,3.21-3.8896,5.9102
		c0.4893,2.3604,2.5693,3.9902,4.8994,3.9902c0.3301,0,0.6699-0.0303,1.0098-0.1006
		C291.2519,466.9526,292.9824,464.3022,292.4326,461.603z"/>
	<path fill="#FC575E" d="M330.8222,449.0424c-1.0303-2.5703-3.9502-3.7998-6.5098-2.7695c-2.5605,1.04-3.7998,3.9492-2.7598,6.5098
		c0.79,1.9502,2.6592,3.1299,4.6396,3.1299c0.6201,0,1.2598-0.1201,1.8701-0.3701
		C330.622,454.5121,331.8622,451.5922,330.8222,449.0424z"/>
	<path fill="#FC575E" d="M256.1122,22.0424c0.1104,0,0.2197,0.0103,0.3301,0.0103c2.6104,0,4.8096-2.0303,4.9902-4.6802
		c0.1797-2.75-1.9102-5.1299-4.6699-5.3101c-2.75-0.1797-5.1299,1.9102-5.3105,4.6602
		C251.2724,19.4824,253.3623,21.8627,256.1122,22.0424z"/>
	<path fill="#FC575E" d="M455.4423,187.3725c0.5801,2.2603,2.6104,3.77,4.8398,3.77c0.4102,0,0.8301-0.0498,1.2402-0.1602
		c2.6797-0.6797,4.29-3.4097,3.6104-6.0796c-0.6807-2.6802-3.4102-4.29-6.0801-3.6104
		C456.372,181.9726,454.7626,184.7026,455.4423,187.3725z"/>
	<path fill="#FC575E" d="M212.0424,465.2827c0.4199-2.7305-1.4502-5.2803-4.1699-5.71c-2.73-0.4199-5.29,1.4395-5.71,4.1699
		c-0.4302,2.7295,1.4399,5.29,4.1699,5.71c0.2598,0.04,0.52,0.0596,0.77,0.0596
		C209.5322,469.5121,211.6523,467.7524,212.0424,465.2827z"/>
	<path fill="#FC575E" d="M216.0625,23.0224c0.1899,0,0.3799-0.0098,0.5698-0.0298c2.7402-0.3101,4.71-2.79,4.3999-5.54
		c-0.3198-2.7397-2.79-4.71-5.54-4.3901c-2.7397,0.3101-4.71,2.79-4.3896,5.5303
		C211.3925,21.1425,213.5522,23.0224,216.0625,23.0224z"/>
	<path fill="#FC575E" d="M252.4023,467.0629c-0.0596-2.7607-2.3496-4.9502-5.1104-4.8906
		c-2.7598,0.0703-4.9492,2.3604-4.8799,5.1201c0.0605,2.7197,2.2803,4.8799,4.9902,4.8799c0.04,0,0.0801,0,0.1201,0
		C250.2822,472.1127,252.4726,469.8227,252.4023,467.0629z"/>
	<path fill="#FC575E" d="M43.7021,349.1928c-2.3999,1.3701-3.23,4.4199-1.8599,6.8193c0.9199,1.6201,2.6099,2.5205,4.3398,2.5205
		c0.8501,0,1.7002-0.21,2.4805-0.6602c2.3999-1.3701,3.23-4.4199,1.8599-6.8203C49.1523,348.6528,46.1025,347.8227,43.7021,349.1928
		z"/>
	<path fill="#FC575E" d="M73.1025,383.4623c-1.77-2.1201-4.9302-2.3896-7.04-0.6201c-2.1201,1.7803-2.3999,4.9307-0.6201,7.0508
		c0.98,1.1699,2.3999,1.7793,3.8301,1.7793c1.1299,0,2.27-0.3799,3.21-1.1602C74.6025,388.7328,74.8725,385.5825,73.1025,383.4623z"
		/>
	<path fill="#FC575E" d="M135.4521,440.6127c1.3604-2.4102,0.52-5.46-1.8896-6.8203c-2.3999-1.3594-5.4502-0.5098-6.8101,1.9004
		c-1.3599,2.3994-0.5103,5.4502,1.8901,6.8096c0.7798,0.4404,1.6196,0.6504,2.46,0.6504
		C132.8422,443.1528,134.5424,442.2328,135.4521,440.6127z"/>
	<path fill="#FC575E" d="M359.4521,428.2524c-2.3301,1.4697-3.0303,4.5605-1.5498,6.9004c0.9502,1.5,2.5703,2.3301,4.2305,2.3301
		c0.9092,0,1.8398-0.25,2.6592-0.7705h0.0107c2.3301-1.4795,3.0293-4.5693,1.5498-6.8994
		C364.8828,427.4721,361.7919,426.7827,359.4521,428.2524z"/>
	<path fill="#FC575E" d="M27.7021,312.0922c-2.6099,0.9199-3.9697,3.7803-3.0498,6.3799c0.7202,2.0605,2.6499,3.3408,4.71,3.3408
		c0.5601,0,1.1201-0.0908,1.6699-0.29c2.6001-0.9199,3.9702-3.7705,3.0503-6.3799
		C33.1625,312.5424,30.3022,311.1723,27.7021,312.0922z"/>
	<path fill="#FC575E" d="M426.7421,118.0126c0.9805,0,1.9805-0.29,2.8506-0.8999c2.2695-1.5801,2.8193-4.7002,1.2393-6.96
		c-1.5801-2.2603-4.6992-2.8203-6.96-1.2402c-2.2598,1.5801-2.8193,4.7002-1.2393,6.96
		C423.6025,117.2724,425.162,118.0126,426.7421,118.0126z"/>
	<path fill="#FC575E" d="M176.5122,31.2226c0.48,0,0.9702-0.0698,1.46-0.21c2.6401-0.7998,4.1304-3.6001,3.3301-6.2402
		c-0.7998-2.6396-3.6001-4.1299-6.2397-3.3296c-2.6401,0.7998-4.1304,3.5898-3.3301,6.2397
		C172.3925,29.8325,174.3725,31.2226,176.5122,31.2226z"/>
	<path fill="#FC575E" d="M101.7221,418.393c1.7603-2.1201,1.4702-5.2803-0.6499-7.04c-2.1201-1.7705-5.27-1.4805-7.04,0.6396
		s-1.48,5.2695,0.6401,7.04c0.9399,0.7803,2.0698,1.1602,3.2002,1.1602C99.3022,420.1928,100.7324,419.5825,101.7221,418.393z"/>
	<path fill="#FC575E" d="M447.3525,346.1625c1.25-2.46,0.2695-5.4795-2.1904-6.7197c-2.4697-1.2598-5.4795-0.2705-6.7295,2.1895
		s-0.2607,5.4707,2.2002,6.7207c0.7197,0.3691,1.5,0.54,2.2598,0.54C444.7119,348.893,446.4726,347.893,447.3525,346.1625z"/>
	<path fill="#FC575E" d="M271.2822,6.5727c0.1104,0.02,0.21,0.02,0.3105,0.02c1.2393,0,2.3193-0.9199,2.4795-2.1899
		c0.1699-1.3701-0.7998-2.6201-2.1699-2.79s-2.6201,0.7998-2.79,2.1699S269.912,6.4028,271.2822,6.5727z"/>
	<path fill="#FC575E" d="M457.2119,139.1127c0.3701,0,0.7402-0.0801,1.0908-0.2603c1.2393-0.6001,1.7598-2.1001,1.1494-3.3398
		c-0.5996-1.2402-2.0996-1.7603-3.3398-1.1499c-1.2402,0.6099-1.7598,2.1001-1.1504,3.3501
		C455.4023,138.5927,456.2919,139.1127,457.2119,139.1127z"/>
	<path fill="#FC575E" d="M476.9218,288.9828c-1.3496-0.2803-2.6797,0.5801-2.9697,1.9297
		c-0.2803,1.3496,0.5801,2.6797,1.9404,2.9697c0.1699,0.0303,0.3398,0.0508,0.5195,0.0508c1.1504,0,2.1904-0.8105,2.4404-1.9805
		C479.1328,290.5922,478.2724,289.2729,476.9218,288.9828z"/>
	<path fill="#FC575E" d="M478.832,252.0824c0.0001-0.001,0.0004-0.0018,0.0004-0.0028c0.0001-0.0024-0.0005-0.0046-0.0004-0.007
		C478.832,252.0727,478.832,252.0727,478.832,252.0824z"/>
	<path fill="#FC575E" d="M436.9326,105.1225c0.5,0,1.0098-0.1499,1.4502-0.46c1.1191-0.8101,1.3799-2.3701,0.5791-3.4897
		c-0.7998-1.1201-2.3594-1.3804-3.4893-0.5801c-1.1201,0.7998-1.3799,2.3701-0.5703,3.4897
		C435.3828,104.7626,436.1523,105.1225,436.9326,105.1225z"/>
	<path fill="#FC575E" d="M309.6025,14.6127c-0.0098,0-0.0098,0-0.0098,0c0.2393,0.0698,0.4795,0.1001,0.7197,0.1001
		c1.0801,0,2.0703-0.7002,2.3994-1.7803c0.3906-1.3301-0.3594-2.7197-1.6895-3.1099c-1.3203-0.3999-2.71,0.3501-3.1104,1.6797
		C307.5224,12.8227,308.2724,14.2128,309.6025,14.6127z"/>
	<path fill="#FC575E" d="M477.2226,212.7226c0,0.0801,0.0098,0.1499,0.0195,0.2202c0.1504,1.27,1.2305,2.1997,2.4805,2.1997
		c0.0996,0,0.1992-0.0098,0.2998-0.02c1.3701-0.1699,2.3496-1.4199,2.1797-2.79c-0.0098-0.0698-0.0195-0.1499-0.04-0.2197
		c0-0.0703,0-0.1499-0.0098-0.23h-0.0098c-0.1699-1.3701-1.4199-2.3403-2.79-2.1699c-1.3701,0.1699-2.3398,1.4199-2.1699,2.7896
		C477.1923,212.5727,477.2021,212.6528,477.2226,212.7226z"/>
	<path fill="#FC575E" d="M481.4326,249.683c-1.3789-0.0605-2.5382,1.0182-2.6002,2.3966c-0.0555,1.3768,1.0127,2.5429,2.3902,2.5927
		c0.04,0.0107,0.0693,0.0107,0.1094,0.0107c1.3301,0,2.4404-1.0508,2.4902-2.4004h0.0098
		C483.8828,250.9028,482.8124,249.7426,481.4326,249.683z"/>
	<path fill="#FC575E" d="M465.9619,326.9926c-1.29-0.5098-2.7393,0.1299-3.2393,1.4102c-0.5107,1.29,0.1201,2.7402,1.4102,3.2402
		c0.2998,0.1191,0.6094,0.1797,0.9092,0.1797c1,0,1.9404-0.6104,2.3301-1.5898
		C467.872,328.9428,467.2421,327.4926,465.9619,326.9926z"/>
	<path fill="#FC575E" d="M346.0527,28.8725c0.3496,0.1699,0.7295,0.25,1.0898,0.25c0.9297,0,1.8193-0.5098,2.25-1.3999
		c0.6094-1.2402,0.0996-2.7402-1.1406-3.3398c-1.2393-0.6104-2.7393-0.1001-3.3496,1.1396
		C344.2919,26.7626,344.8124,28.2626,346.0527,28.8725z"/>
	<path fill="#FC575E" d="M411.332,74.9526c0.6299,0,1.2803-0.2397,1.7607-0.73c0.9795-0.98,0.9795-2.5601,0-3.5298
		c-0.9805-0.98-2.5605-0.98-3.54,0c-0.9707,0.98-0.9707,2.5596,0.0098,3.5298C410.0527,74.7128,410.6923,74.9526,411.332,74.9526z"
		/>
	<path fill="#FC575E" d="M379.6718,48.9325c0.4404,0.3101,0.9502,0.46,1.4502,0.46c0.7803,0,1.5498-0.3599,2.04-1.04
		c0.7998-1.1299,0.54-2.6899-0.5801-3.4897c-1.1299-0.8003-2.6895-0.54-3.4893,0.5801
		C378.2919,46.5624,378.5527,48.1225,379.6718,48.9325z"/>
	<path fill="#FC575E" d="M473.9726,172.7626c-0.4004-1.3301-1.79-2.0801-3.1104-1.6899s-2.0801,1.79-1.6904,3.1099
		c0.3301,1.0898,1.3203,1.79,2.4004,1.79c0.2402,0,0.4697-0.0298,0.71-0.1001
		C473.6122,175.4726,474.3622,174.0824,473.9726,172.7626z"/>
	<path fill="#FC575E" d="M192.7924,9.8827c0.1699,0,0.3398-0.0103,0.52-0.0503c1.3501-0.2798,2.21-1.6099,1.9297-2.96
		c-0.2798-1.3501-1.5996-2.2197-2.9497-1.9297V4.9325c-1.3604,0.29-2.2202,1.6099-1.9399,2.96
		C190.5922,9.0727,191.6323,9.8827,192.7924,9.8827z"/>
	<path fill="#FC575E" d="M363.0624,445.7827c-1.1904,0.7002-1.5801,2.2402-0.8701,3.4297c0.4697,0.7803,1.2998,1.2207,2.1504,1.2207
		c0.4297,0,0.8691-0.1201,1.2793-0.3506c1.1807-0.71,1.5703-2.2402,0.8701-3.4297
		C365.7822,445.4623,364.2519,445.0727,363.0624,445.7827z"/>
	<path fill="#FC575E" d="M11.4921,307.7123c-1.3198,0.3906-2.0796,1.79-1.6797,3.1104c0.3101,1.0898,1.3101,1.79,2.3896,1.79
		c0.2402,0,0.4702-0.0303,0.7104-0.1006c1.3198-0.3896,2.0796-1.7793,1.6899-3.1094
		C14.2123,308.0825,12.8222,307.3227,11.4921,307.7123z"/>
	<path fill="#FC575E" d="M70.5825,409.4223c-0.9702,0.9707-0.9702,2.5498,0,3.5303c0.4897,0.4902,1.1299,0.7305,1.77,0.7305
		c0.6396,0,1.2798-0.2402,1.77-0.7305c0.9697-0.9805,0.9697-2.5596,0-3.5303C73.1425,408.4428,71.5624,408.4428,70.5825,409.4223z"
		/>
	<path fill="#FC575E" d="M45.3222,378.9623c-1.1201,0.7998-1.3799,2.3604-0.5801,3.4805c0.4902,0.6895,1.2603,1.0498,2.04,1.0498
		c0.5,0,1.0103-0.1504,1.4502-0.4697c1.1201-0.8008,1.3799-2.3604,0.5801-3.4805
		C48.0122,378.4125,46.4423,378.1528,45.3222,378.9623z"/>
	<path fill="#FC575E" d="M25.4321,344.7426c-1.2397,0.5996-1.7598,2.0996-1.1499,3.3398c0.4302,0.8896,1.3203,1.4102,2.25,1.4102
		c0.3701,0,0.7402-0.0801,1.0903-0.25c1.25-0.6104,1.7598-2.1104,1.1499-3.3496C28.1723,344.6528,26.6723,344.143,25.4321,344.7426z
		"/>
	<path fill="#FC575E" d="M137.5922,454.8325c-1.2397-0.6104-2.7397-0.0898-3.3501,1.1396
		c-0.6099,1.2402-0.0996,2.7402,1.1401,3.3506c0.3599,0.1797,0.73,0.2598,1.1001,0.2598c0.9302,0,1.8101-0.5195,2.25-1.3994
		C139.3422,456.9428,138.8325,455.4428,137.5922,454.8325z"/>
	<path fill="#FC575E" d="M103.9824,434.7426c-1.1201-0.7998-2.6802-0.54-3.48,0.5801c-0.8101,1.1201-0.5503,2.6797,0.5698,3.4902
		c0.4399,0.3096,0.9502,0.46,1.46,0.46c0.7803,0,1.54-0.3604,2.0303-1.04C105.3623,437.103,105.1123,435.5522,103.9824,434.7426z"/>
	<path fill="#FC575E" d="M290.3222,474.0229c-1.3604,0.2695-2.2295,1.5996-1.9502,2.9492c0.25,1.1807,1.29,1.9902,2.4502,1.9902
		c0.1699,0,0.3398-0.0098,0.5098-0.0498c1.3506-0.2803,2.2207-1.5996,1.9404-2.9502
		C292.9921,474.603,291.6718,473.7328,290.3222,474.0229z"/>
	<path fill="#FC575E" d="M232.0625,5.0024c0.0298,0,0.0698,0,0.1001-0.0098c1.3799-0.0601,2.4497-1.2202,2.3896-2.6001
		s-1.2197-2.4497-2.6001-2.3901c-1.3799,0.0601-2.4497,1.2202-2.3896,2.6001C229.6225,3.9428,230.7221,5.0024,232.0625,5.0024z"/>
	<path fill="#FC575E" d="M327.8622,462.933c-1.29,0.5-1.9297,1.9492-1.4297,3.2393c0.3799,0.9902,1.3301,1.5898,2.3301,1.5898
		c0.2998,0,0.6094-0.0498,0.9092-0.1699c1.2803-0.5,1.9209-1.9492,1.4209-3.2295
		C330.5927,463.0727,329.1523,462.433,327.8622,462.933z"/>
	<path fill="#FC575E" d="M212.3325,477.2026c-1.3701-0.1699-2.6201,0.7998-2.79,2.1699s0.7998,2.6201,2.1699,2.79
		c0.1099,0.0098,0.21,0.0205,0.3198,0.0205c1.2402,0,2.3101-0.9307,2.4702-2.1904
		C214.6723,478.6225,213.7021,477.3725,212.3325,477.2026z"/>
	<path fill="#FC575E" d="M174.0322,469.1323c-1.3301-0.3994-2.7197,0.3506-3.1196,1.6807c-0.3901,1.3193,0.3599,2.71,1.6797,3.1094
		c0.2402,0.0703,0.48,0.1006,0.7202,0.1006c1.0801,0,2.0698-0.7002,2.3999-1.7803
		C176.1025,470.9223,175.3525,469.5229,174.0322,469.1323z"/>
	<path fill="#FC575E" d="M251.4521,478.8129c-1.3799,0.0596-2.4502,1.2295-2.3994,2.6094c0.0596,1.3398,1.1699,2.3906,2.5,2.3906
		c0.04,0,0.0693,0,0.1094,0c1.3799-0.0605,2.4502-1.2207,2.3906-2.6006C253.9921,479.8325,252.832,478.7621,251.4521,478.8129z"/>
	<path fill="#FC575E" d="M119.3124,38.4926c0.4297,0,0.8696-0.1201,1.2798-0.3599c1.1802-0.7002,1.5703-2.2402,0.8599-3.4199
		c-0.71-1.1904-2.2397-1.5801-3.4297-0.8701c-1.1802,0.71-1.5703,2.2397-0.8599,3.4297
		C117.6323,38.0527,118.4521,38.4926,119.3124,38.4926z"/>
	<path fill="#FC575E" d="M59.1425,89.4926c0.71,0,1.4097-0.2998,1.9097-0.8901c0.8901-1.0498,0.7603-2.6299-0.29-3.52
		c-1.0601-0.8896-2.6299-0.7598-3.5298,0.29c-0.8901,1.0503-0.7603,2.6299,0.29,3.52
		C57.9921,89.2924,58.5722,89.4926,59.1425,89.4926z"/>
	<path fill="#FC575E" d="M87.1123,61.5024c0.5698,0,1.1499-0.1997,1.6201-0.5996c1.0498-0.8901,1.1802-2.4702,0.29-3.52
		c-0.8999-1.0503-2.4702-1.1802-3.52-0.29c-1.0601,0.8896-1.1899,2.4697-0.3003,3.5298
		C85.7021,61.2026,86.4023,61.5024,87.1123,61.5024z"/>
	<path fill="#FC575E" d="M7.9023,190.1425c-1.3501-0.2798-2.6802,0.5801-2.96,1.9302s0.5801,2.6797,1.9302,2.96
		c0.1797,0.04,0.3496,0.0601,0.52,0.0601c1.1597,0,2.1997-0.8101,2.4399-1.9902C10.1225,191.7524,9.2524,190.4228,7.9023,190.1425z"
		/>
	<path fill="#FC575E" d="M448.872,362.6723c-1.1797-0.71-2.7197-0.3193-3.4297,0.8604c-0.7002,1.1895-0.3203,2.7197,0.8701,3.4297
		c0.3994,0.2402,0.8398,0.3604,1.2803,0.3604c0.8496,0,1.6699-0.4404,2.1396-1.2197h0.0098
		C450.4423,364.9223,450.0624,363.3823,448.872,362.6723z"/>
	<path fill="#FC575E" d="M154.8623,21.1225c0.3101,0,0.6099-0.0498,0.9102-0.1699c1.29-0.5,1.9199-1.9502,1.4297-3.2397
		c-0.5098-1.2803-1.96-1.9204-3.2397-1.4204c-1.29,0.5-1.9302,1.9502-1.4302,3.2402
		C152.9223,20.5126,153.8623,21.1225,154.8623,21.1225z"/>
	<path fill="#FC575E" d="M422.6425,395.3725c-0.8906,1.0498-0.7598,2.6201,0.29,3.5205c0.4697,0.3994,1.0498,0.5898,1.6201,0.5898
		c0.71,0,1.4092-0.2998,1.9092-0.8799c0.8906-1.0508,0.7607-2.6309-0.29-3.5205
		C425.1122,394.183,423.5419,394.3129,422.6425,395.3725z"/>
	<path fill="#FC575E" d="M2.5024,234.3427c1.3301,0,2.4399-1.0503,2.5-2.3901c0.0498-1.3799-1.02-2.5498-2.3999-2.6001
		c-1.3804-0.0601-2.5503,1.0103-2.6001,2.3901c-0.0601,1.3799,1.02,2.5498,2.3999,2.6001
		C2.4321,234.3427,2.4623,234.3427,2.5024,234.3427z"/>
	<path fill="#FC575E" d="M6.6323,271.0727c-0.1699-1.3701-1.4199-2.3398-2.79-2.1699s-2.3501,1.4199-2.1699,2.79
		c0.1499,1.2695,1.23,2.1895,2.4702,2.1895c0.1099,0,0.21,0,0.3096-0.0195c1.3701-0.1699,2.3501-1.4199,2.1802-2.7803
		C6.6323,271.0727,6.6323,271.0727,6.6323,271.0727z"/>
	<path fill="#FC575E" d="M394.9423,423.0424c-1.0596,0.8906-1.1904,2.4697-0.2998,3.5205c0.5,0.5801,1.2002,0.8896,1.9102,0.8896
		c0.5693,0,1.1494-0.2002,1.6191-0.5996c1.0508-0.8906,1.1807-2.4707,0.29-3.5205
		C397.5722,422.2827,395.9921,422.143,394.9423,423.0424z"/>
	<path fill="#FC575E" d="M34.8525,121.3227c0.3999,0.2397,0.8398,0.3501,1.2798,0.3501c0.8501,0,1.6802-0.4302,2.1499-1.2202
		c0.7002-1.1802,0.3203-2.7202-0.8696-3.4199c-1.1802-0.71-2.7202-0.3198-3.4302,0.8599
		C33.2822,119.0825,33.6625,120.6127,34.8525,121.3227z"/>
	<path fill="#FC575E" d="M17.8022,157.0224c0.3003,0.1201,0.6104,0.1704,0.9102,0.1704c1,0,1.9399-0.6001,2.3301-1.5903
		c0.5-1.2798-0.1299-2.73-1.4199-3.23c-1.2803-0.5098-2.73,0.1201-3.2402,1.4102
		C15.8823,155.0727,16.5122,156.5224,17.8022,157.0224z"/>
</g>
</svg>
