<?xml version="1.0" encoding="utf-8"?>
<!-- Generator: Adobe Illustrator 21.0.0, SVG Export Plug-In . SVG Version: 6.00 Build 0)  -->
<svg version="1.1" id="Cutout_Star_Shaped_Design" xmlns="http://www.w3.org/2000/svg" xmlns:xlink="http://www.w3.org/1999/xlink"
	 x="0px" y="0px" viewBox="0 0 499.999 433.0118" enable-background="new 0 0 499.999 433.0118" xml:space="preserve">
<g id="change1">
	<polygon fill="#F24D16" points="350.5762,158.4376 346.7803,48.8771 249.9995,100.3693 153.2188,48.8771 149.4223,158.4376 
		56.4384,216.506 149.4223,274.5743 153.2188,384.1348 249.9995,332.6426 346.7803,384.1348 350.5762,274.5743 443.5606,216.506 	
		"/>
	<path fill="#F24D16" d="M379.903,141.506L374.9993,0L249.9995,66.5062L124.9998,0l-4.9039,141.506L0,216.5059l120.0959,74.9999
		l4.9039,141.506l124.9997-66.5062l124.9998,66.5062l4.9037-141.506l120.096-74.9999L379.903,141.506z M360.3867,280.2383
		l-4.167,120.2461l-106.2202-56.5137l-106.2202,56.5137l-4.1665-120.2461L37.5596,216.5059l102.0532-63.7319l4.1665-120.2466
		l106.2202,56.5147l106.2202-56.5147l4.167,120.2466l102.0527,63.7319L360.3867,280.2383z"/>
</g>
</svg>
