<?xml version="1.0" encoding="utf-8"?>
<!-- Generator: Adobe Illustrator 21.0.0, SVG Export Plug-In . SVG Version: 6.00 Build 0)  -->
<svg version="1.1" id="Cutout_Circle_Award_Shaped_Design"
	 xmlns="http://www.w3.org/2000/svg" xmlns:xlink="http://www.w3.org/1999/xlink" x="0px" y="0px" viewBox="0 0 480.8813 480.8813"
	 enable-background="new 0 0 480.8813 480.8813" xml:space="preserve">
<g id="change1">
	<polygon fill="#FDD09F" points="240.4407,41.1528 270.0001,15.9146 292.0202,47.9433 327.1045,31.2157 340.0846,67.8523 
		378.3029,60.7751 381.3585,99.5229 420.1063,102.5784 413.0291,140.7967 449.6657,153.7768 432.938,188.8612 464.9668,210.8813 
		439.7286,240.4407 464.9668,270.0001 432.938,292.0202 449.6657,327.1045 413.0291,340.0846 420.1063,378.3029 381.3585,381.3585 
		378.3029,420.1063 340.0846,413.0291 327.1045,449.6657 292.0202,432.938 270.0001,464.9668 240.4407,439.7286 210.8813,464.9668 
		188.8612,432.938 153.7768,449.6657 140.7967,413.0291 102.5784,420.1063 99.5229,381.3585 60.7751,378.3029 67.8523,340.0846 
		31.2157,327.1045 47.9433,292.0202 15.9146,270.0001 41.1528,240.4407 15.9146,210.8813 47.9433,188.8612 31.2157,153.7768 
		67.8523,140.7967 60.7751,102.5784 99.5229,99.5229 102.5784,60.7751 140.7967,67.8523 153.7768,31.2157 188.8612,47.9433 
		210.8813,15.9146 	"/>
</g>
<g id="change2">
	<path fill="#FF6766" d="M453.855,240.4409l27.0264-31.6548l-34.2988-23.5806l17.9131-37.5713l-39.2324-13.9004l7.5781-40.9272
		l-41.4941-3.272L388.0747,48.04l-40.9268,7.5796l-13.8994-39.2334l-37.5713,17.9131L272.0962,0l-31.6553,27.0273L208.7861,0
		l-23.5806,34.2993l-37.5713-17.9131l-13.8999,39.2334L92.8066,48.04l-3.272,41.4946L48.04,92.8066l7.5796,40.9272l-39.2339,13.9004
		l17.9136,37.5713L0,208.7861l27.0273,31.6548L0,272.0962l34.2993,23.5811l-17.9136,37.5713l39.2339,13.8994L48.04,388.0757
		l41.4946,3.2715l3.272,41.4941l40.9272-7.5781l13.9004,39.2334l37.5713-17.9141l23.5806,34.2988l31.6548-27.0264l31.6553,27.0264
		l23.5811-34.2988l37.5713,17.9141l13.8994-39.2334l40.9268,7.5781l3.2725-41.4941l41.4941-3.2715l-7.5781-40.9277l39.2324-13.8994
		l-17.9131-37.5713l34.2988-23.5811L453.855,240.4409z M458.6606,211.7119l-18.1264,21.229h-48.8474
		c-0.4082-8.3278-1.4996-16.4777-3.2057-24.4023l47.1774-12.6412L458.6606,211.7119z M443.7886,156.2114l-12.0128,25.1967
		l-47.1803,12.642c-2.54-7.8742-5.701-15.4717-9.4387-22.7272l42.3204-24.4337L443.7886,156.2114z M415.0601,106.4512
		l-5.0832,27.4481l-42.3444,24.4476c-4.4722-6.9051-9.4878-13.4267-14.9914-19.4993l34.5906-34.5905L415.0601,106.4512z
		 M374.4302,65.8223l2.1945,27.828l-34.5905,34.5905c-6.0724-5.5035-12.5939-10.519-19.4988-14.9911l24.4479-42.3446
		L374.4302,65.8223z M299.4735,49.1068l25.1969-12.0135l9.3226,26.3118l-24.4338,42.3203
		c-7.2556-3.7378-14.8533-6.8989-22.7275-9.439L299.4735,49.1068z M247.9409,40.3475l21.2295-18.1258l15.8148,23.0034
		l-12.6409,47.1758c-7.925-1.7062-16.0753-2.7977-24.4033-3.2059V40.3475z M211.7119,22.2217l21.229,18.1257V89.195
		c-8.3278,0.4082-16.4778,1.4996-24.4025,3.2057l-12.641-47.1767L211.7119,22.2217z M156.2114,37.0933l25.1969,12.0135
		l12.6418,47.1795c-7.8742,2.54-15.4718,5.7011-22.7273,9.4388l-24.4337-42.3202L156.2114,37.0933z M106.4512,65.8223
		l27.4479,5.0828l24.4476,42.3444c-6.9051,4.4723-13.4267,9.4879-19.4993,14.9915l-34.5903-34.5903L106.4512,65.8223z
		 M93.6506,104.2571l34.5903,34.5903c-5.5037,6.0725-10.5192,12.5941-14.9915,19.4991L70.905,133.899l-5.0827-27.4478
		L93.6506,104.2571z M63.4053,146.8894l42.3198,24.4334c-3.7377,7.2555-6.8987,14.8531-9.4388,22.7273l-47.1796-12.6418
		l-12.0139-25.1968L63.4053,146.8894z M22.2217,211.7119l23.0026-15.8145l47.1765,12.6409
		c-1.7061,7.9247-2.7975,16.0748-3.2057,24.4026H40.3474L22.2217,211.7119z M22.2217,269.1704l18.1258-21.2295H89.195
		c0.4082,8.3281,1.4996,16.4783,3.2059,24.4032l-47.1759,12.641L22.2217,269.1704z M37.0928,324.6704l12.0139-25.1968
		l47.1797-12.6417c2.5401,7.8743,5.7012,15.4719,9.4389,22.7275L63.405,333.9931L37.0928,324.6704z M65.8223,374.4312
		l5.0828-27.4479l42.3447-24.4478c4.4722,6.905,9.4875,13.4263,14.9911,19.4988l-34.5907,34.5906L65.8223,374.4312z
		 M106.4512,415.0601l-2.1941-27.8284l34.5906-34.5906c6.0726,5.5036,12.5941,10.5191,19.4992,14.9913l-24.4476,42.3445
		L106.4512,415.0601z M181.408,431.7761l-25.1966,12.0134l-9.322-26.3126l24.4335-42.3201
		c7.2554,3.7376,14.8529,6.8987,22.7271,9.4387L181.408,431.7761z M232.9409,440.5342l-21.229,18.1264l-15.8145-23.0021
		l12.641-47.1774c7.9247,1.7061,16.0747,2.7975,24.4025,3.2057V440.5342z M240.4407,377.6334
		c-75.7695,0-137.1927-61.4233-137.1927-137.1927s61.4233-137.1927,137.1927-137.1927s137.1927,61.4233,137.1927,137.1927
		S316.2101,377.6334,240.4407,377.6334z M269.1704,458.6606l-21.2295-18.1265v-48.8473c8.328-0.4082,16.4782-1.4997,24.4031-3.2059
		l12.6412,47.1767L269.1704,458.6606z M324.6704,443.7896l-25.1966-12.0134l-12.642-47.1807
		c7.8743-2.54,15.4719-5.7011,22.7274-9.4388l24.4338,42.3206L324.6704,443.7896z M374.4302,415.0601l-27.4471-5.0831
		l-24.4478-42.3447c6.9049-4.4721,13.4264-9.4875,19.4988-14.991l34.5905,34.5907L374.4302,415.0601z M387.2322,376.6248
		l-34.5911-34.5907c5.5035-6.0724,10.5189-12.5939,14.9911-19.4988l42.3446,24.4477l5.0832,27.4481L387.2322,376.6248z
		 M417.4771,333.9929l-42.3204-24.4338c3.7377-7.2556,6.8988-14.8532,9.4388-22.7274l47.1803,12.642l12.0128,25.1967
		L417.4771,333.9929z M435.6577,284.9852l-47.1767-12.6411c1.7062-7.9249,2.7977-16.0751,3.2059-24.4031h48.8473l18.1265,21.2295
		L435.6577,284.9852z"/>
</g>
</svg>
