<?xml version="1.0" encoding="utf-8"?>
<!-- Generator: Adobe Illustrator 21.0.0, SVG Export Plug-In . SVG Version: 6.00 Build 0)  -->
<svg version="1.1" id="Circle_with_Cutout_Border_Line"
	 xmlns="http://www.w3.org/2000/svg" xmlns:xlink="http://www.w3.org/1999/xlink" x="0px" y="0px" viewBox="0 0 455 455"
	 enable-background="new 0 0 455 455" xml:space="preserve">
<g id="change1">
	<path fill="#64DDBB" d="M227.5,7.5c-121.5026,0-220,98.4974-220,220s98.4974,220,220,220s220-98.4974,220-220
		S349.0026,7.5,227.5,7.5z M425.9795,206.2998c0.2002,1.9199-1.1895,3.6401-3.1094,3.8398c-0.1299,0.02-0.25,0.02-0.3701,0.02
		c-1.7705,0-3.29-1.3301-3.4805-3.1299c-0.2002-1.9199,1.1904-3.6401,3.1104-3.8501
		C424.0498,202.98,425.7803,204.3696,425.9795,206.2998z M422.6299,185.3198c0.4004,1.8901-0.7998,3.75-2.6904,4.1602
		c-0.25,0.0498-0.4893,0.0801-0.7393,0.0801c-1.6104,0-3.0605-1.1201-3.4199-2.77c-0.4004-1.8901,0.7998-3.75,2.6895-4.1504
		C420.3594,182.23,422.2197,183.4297,422.6299,185.3198z M412.6299,162.5898c1.8301-0.6099,3.8096,0.3901,4.4199,2.23
		c0.6104,1.8301-0.3896,3.8101-2.2197,4.4199c-0.3701,0.1201-0.7402,0.1802-1.1006,0.1802c-1.4697,0-2.8398-0.9399-3.3193-2.4102
		C409.7998,165.1797,410.79,163.1997,412.6299,162.5898z M414.9395,227.9297c0,1.9297-1.5693,3.5-3.5,3.5c0,0,0,0-0.0098,0
		c-1.9297-0.0098-3.4902-1.5801-3.4902-3.5098c0-0.0703,0-0.1401,0.0107-0.21c-0.0107-0.0703-0.0107-0.1401-0.0107-0.21
		c0-1.9302,1.5703-3.5,3.5-3.5c1.9307,0,3.5,1.5698,3.5,3.5c0,0.0698,0,0.1396-0.0098,0.21
		C414.9395,227.79,414.9395,227.8599,414.9395,227.9297z M408.9795,197.1499c-0.21,0.04-0.4297,0.0601-0.6396,0.0601
		c-1.6504,0-3.1201-1.1802-3.4404-2.8604c-0.3496-1.8999,0.9004-3.73,2.8008-4.0796c1.8994-0.3501,3.7295,0.8999,4.0801,2.7998
		C412.1396,194.9697,410.8799,196.7998,408.9795,197.1499z M414.1494,210.21v0.0098c0.1807,1.9199-1.2393,3.6201-3.1592,3.8003
		c-0.1104,0.0098-0.2207,0.02-0.3203,0.02c-1.79-0.0103-3.3203-1.3701-3.4902-3.1904c-0.1699-1.9199,1.2402-3.6299,3.1699-3.7998
		C412.2695,206.8696,413.9795,208.29,414.1494,210.21z M405.4297,180.54c-0.3203,0.0898-0.6494,0.1299-0.96,0.1299
		c-1.5303,0-2.9297-1-3.3701-2.54c-0.5303-1.8599,0.5605-3.8003,2.4102-4.3198c1.8604-0.5303,3.7998,0.5498,4.3301,2.4097
		C408.3594,178.0796,407.2803,180.0098,405.4297,180.54z M400.9902,277.2695c0,0,0,0,0,0.0107
		c0.5293-1.8604,2.4697-2.9404,4.3291-2.4102c1.8604,0.5293,2.9307,2.4697,2.4004,4.3301c-0.4395,1.54-1.8398,2.54-3.3701,2.54
		c-0.3096,0-0.6396-0.04-0.96-0.1406C401.5303,281.0693,400.46,279.1299,400.9902,277.2695z M407.6201,265.1494
		c-1.9004-0.3594-3.1504-2.1895-2.79-4.0898c0.3496-1.8994,2.1797-3.1494,4.0801-2.79c1.8994,0.3604,3.1494,2.1904,2.79,4.0898
		c-0.3105,1.6807-1.7803,2.8506-3.4307,2.8506C408.0596,265.21,407.8398,265.1895,407.6201,265.1494z M410.6299,248.3896
		c-0.1104,0-0.2197,0-0.3301-0.0098c-1.9199-0.1797-3.3398-1.8896-3.1602-3.8203c0,0,0,0,0.0098,0.0098
		c0.1699-1.9297,1.8809-3.3398,3.8105-3.1592c1.9199,0.1797,3.3301,1.8799,3.1494,3.8096
		C413.9395,247.0303,412.4199,248.3896,410.6299,248.3896z M404.6797,143.29c1.7598-0.8003,3.8301-0.02,4.6299,1.7397
		c0.7998,1.7603,0.0205,3.8301-1.7402,4.6299c-0.4697,0.2202-0.96,0.3203-1.4395,0.3203c-1.3398,0-2.6104-0.77-3.1904-2.0601
		C402.1396,146.1597,402.9199,144.0898,404.6797,143.29z M402.3398,159.7998c0.7002,1.7998-0.2002,3.8301-2,4.5298
		c-0.4102,0.1602-0.8398,0.2402-1.2598,0.2402c-1.4004,0-2.7305-0.8501-3.2705-2.2402c-0.6895-1.7998,0.2002-3.8296,2-4.5298
		C399.6201,157.0996,401.6396,158,402.3398,159.7998z M394.71,124.9497c1.6602-0.9897,3.8096-0.4297,4.79,1.23
		c0.9795,1.6699,0.4297,3.8101-1.2305,4.8003c-0.5596,0.3198-1.1699,0.48-1.7793,0.48c-1.2002,0-2.3701-0.6104-3.0205-1.7202
		C392.4902,128.0796,393.04,125.9297,394.71,124.9497z M390.6494,142.3896c1.7305-0.8599,3.8301-0.1597,4.6904,1.5703
		s0.1602,3.8398-1.5703,4.6997c-0.5,0.25-1.0293,0.3701-1.5596,0.3701c-1.2803,0-2.5205-0.71-3.1299-1.9399
		C388.2197,145.3599,388.9199,143.2598,390.6494,142.3896z M382.8496,107.77c1.5498-1.1602,3.7402-0.8301,4.9004,0.7197h-0.0098
		c1.1592,1.5503,0.8291,3.7402-0.7207,4.8901c-0.6201,0.4697-1.3594,0.6997-2.0801,0.6997c-1.0693,0-2.1299-0.4897-2.8096-1.4199
		C380.9697,111.1099,381.2998,108.9199,382.8496,107.77z M382.0898,127.71c1.6396-1.02,3.7998-0.5103,4.8203,1.1299
		c1.0195,1.6499,0.5098,3.7998-1.1299,4.8198c-0.5801,0.3604-1.2207,0.5303-1.8408,0.5303c-1.1797,0-2.3193-0.5903-2.9795-1.6602
		C379.9395,130.8896,380.4395,128.73,382.0898,127.71z M377.1094,114.5698c1.1709,1.54,0.8701,3.7402-0.6797,4.8999
		c-0.6299,0.48-1.3701,0.71-2.1104,0.71c-1.0498,0-2.0996-0.48-2.7891-1.3896c-1.1709-1.54-0.8604-3.7402,0.6797-4.9004
		C373.75,112.7197,375.9502,113.0298,377.1094,114.5698z M369.2295,91.9399c1.4199-1.3101,3.6406-1.2202,4.9502,0.1997
		c1.3105,1.4204,1.2197,3.6304-0.2002,4.9399c-0.6699,0.6304-1.5195,0.9302-2.3701,0.9302c-0.9395,0-1.8799-0.3799-2.5693-1.1201
		C367.7295,95.4697,367.8096,93.25,369.2295,91.9399z M366.0498,101.25c1.2998,1.4297,1.2002,3.6499-0.2305,4.9497
		c-0.6699,0.6104-1.5098,0.9102-2.3496,0.9102c-0.9502,0-1.9004-0.3799-2.5898-1.1401c-1.3105-1.4297-1.2002-3.6401,0.2295-4.9497
		C362.5303,99.7197,364.75,99.8198,366.0498,101.25z M354.0303,77.6396c1.2695-1.4497,3.4795-1.5996,4.9395-0.3198
		c1.4502,1.27,1.5996,3.48,0.3203,4.9399c-0.6904,0.79-1.6602,1.1899-2.6299,1.1899c-0.8203,0-1.6406-0.29-2.3105-0.8701
		C352.8994,81.3101,352.7598,79.0996,354.0303,77.6396z M348.8701,89.2397c1.2998-1.4297,3.5195-1.5298,4.9395-0.23
		c1.4307,1.3003,1.5303,3.52,0.2305,4.9502c-0.6904,0.75-1.6406,1.1396-2.5898,1.1396c-0.8408,0-1.6807-0.3096-2.3506-0.9199
		C347.6699,92.8799,347.5693,90.6597,348.8701,89.2397z M337.3994,65.0298c1.1104-1.5801,3.29-1.96,4.8809-0.8398h-0.0107
		c1.5801,1.1099,1.96,3.29,0.8506,4.8701c-0.6807,0.9697-1.7607,1.4897-2.8604,1.4897c-0.7002,0-1.4004-0.21-2.0195-0.6401
		C336.6602,68.7998,336.2803,66.6099,337.3994,65.0298z M335.5996,78.6196c1.1699-1.54,3.3701-1.8398,4.9102-0.6797
		c1.54,1.1699,1.8398,3.3599,0.6797,4.9097C340.5,83.75,339.4502,84.23,338.3896,84.23c-0.7295,0-1.4795-0.23-2.1094-0.71
		C334.7402,82.3599,334.4395,80.1597,335.5996,78.6196z M327.3701,72.96c-0.6699,1.0698-1.8105,1.6597-2.9805,1.6597
		c-0.6299,0-1.2695-0.1699-1.8398-0.5298c-1.6396-1.02-2.1504-3.1802-1.1299-4.8198c1.0195-1.6401,3.1797-2.1401,4.8203-1.1304
		C327.8799,69.1597,328.3896,71.3198,327.3701,72.96z M319.5195,54.2598c0.9404-1.6899,3.0703-2.2998,4.7607-1.3599
		c1.6895,0.9399,2.2998,3.0698,1.3594,4.7598C325,58.8101,323.8096,59.46,322.5801,59.46c-0.5703,0-1.1602-0.1401-1.6904-0.4399
		c0,0,0,0-0.0098,0C319.1895,58.0796,318.5898,55.9497,319.5195,54.2598z M311.1299,59.6997
		c1.7295,0.8701,2.4297,2.9702,1.5596,4.7002c-0.6094,1.23-1.8496,1.9297-3.1299,1.9297c-0.5293,0-1.0596-0.1099-1.5596-0.3599
		c-1.7305-0.8701-2.4307-2.9697-1.5703-4.6997S309.3994,58.8398,311.1299,59.6997z M300.6094,45.46
		c0.75-1.79,2.8105-2.6201,4.5908-1.8701c1.7793,0.7598,2.6094,2.8101,1.8594,4.5898c-0.5693,1.3403-1.8701,2.1401-3.2295,2.1401
		c-0.4502,0-0.9199-0.0898-1.3604-0.2798C300.6895,49.29,299.8594,47.2397,300.6094,45.46z M290.7695,54.6997
		c0.7002-1.8101,2.7305-2.6997,4.5303-2c1.7998,0.7002,2.7002,2.73,2,4.5303c-0.54,1.3799-1.8604,2.23-3.2695,2.23
		c-0.4209,0-0.8506-0.0801-1.2607-0.2402C290.96,58.52,290.0693,56.5,290.7695,54.6997z M280.8496,38.7197
		c0.5605-1.8501,2.5098-2.8999,4.3701-2.3398c1.8398,0.5601,2.8896,2.5098,2.3398,4.3599c-0.46,1.5103-1.8496,2.4902-3.3496,2.4902
		c-0.3398,0-0.6797-0.0503-1.0205-0.1504C281.3398,42.52,280.29,40.5698,280.8496,38.7197z M274.5596,49.5996
		c0.5303-1.8599,2.4707-2.9399,4.3301-2.4097c1.8604,0.5298,2.9297,2.4697,2.4102,4.3301c-0.4404,1.54-1.8496,2.54-3.3701,2.54
		c-0.3203,0-0.6396-0.0503-0.96-0.1401C275.1094,53.3999,274.04,51.46,274.5596,49.5996z M260.4902,34.1396
		c0.3594-1.8999,2.1895-3.1499,4.0898-2.79c1.8994,0.3501,3.1494,2.1802,2.79,4.0801c-0.3105,1.6802-1.7803,2.8604-3.4307,2.8604
		c-0.2197,0-0.4395-0.02-0.6494-0.0703C261.3799,37.8696,260.1299,36.04,260.4902,34.1396z M257.9502,46.0298
		c0.3594-1.8999,2.1895-3.1499,4.0898-2.7998c1.8994,0.3599,3.1494,2.1797,2.7998,4.0898c-0.3203,1.6802-1.79,2.8599-3.4404,2.8599
		c-0.21,0-0.4297-0.02-0.6396-0.0601C258.8496,49.7598,257.5996,47.9297,257.9502,46.0298z M248.0596,44.6597
		c-0.1699,1.8203-1.7002,3.1802-3.4795,3.1802c-0.1104,0-0.2207,0-0.3301-0.0103c-1.9199-0.1797-3.3398-1.8896-3.1602-3.8096
		c0.1797-1.9302,1.8799-3.3403,3.7998-3.1602C246.8193,41.0298,248.2402,42.7397,248.0596,44.6597z M243.5207,28.5402
		c-0.0004-0.0001-0.0007-0.0001-0.0012-0.0002h0.0107C243.527,28.5398,243.5239,28.5405,243.5207,28.5402
		c1.93,0.1505,3.3689,1.8401,3.2195,3.7698c-0.1504,1.8296-1.6807,3.2197-3.4902,3.2197c-0.0898,0-0.1904,0-0.2803-0.0098
		c-1.9297-0.1602-3.3701-1.8403-3.21-3.77C239.9099,29.8231,241.594,28.3954,243.5207,28.5402z M227.6099,40.0601
		c1.9302,0,3.4995,1.5698,3.4995,3.5c-0.0098,1.9297-1.5693,3.5-3.4995,3.5h-0.0103c-1.9297,0-3.5-1.5703-3.4897-3.5
		C224.1099,41.6196,225.6797,40.0601,227.6099,40.0601z M222.2998,27.9697c1.9302-0.0498,3.54,1.48,3.5898,3.4102
		c0.0503,1.9302-1.48,3.54-3.4097,3.5898c-1.9399,0.0503-3.54-1.48-3.5903-3.4097C218.8398,29.6299,220.3599,28.02,222.2998,27.9697
		z M210.3198,40.8296c1.9302-0.1699,3.6299,1.25,3.8101,3.1704c0.1699,1.9297-1.25,3.6299-3.1699,3.8101
		c-0.1104,0.0098-0.2202,0.0098-0.3203,0.0098c-1.79,0-3.3198-1.3599-3.48-3.1802C206.98,42.71,208.3999,41.0098,210.3198,40.8296z
		 M201.1299,29.6299c1.9102-0.25,3.6699,1.1001,3.9302,3.0098c0.25,1.9204-1.1001,3.6802-3.02,3.9302
		c-0.1504,0.02-0.3003,0.0298-0.4604,0.0298c-1.73,0-3.23-1.2798-3.46-3.0396C197.8599,31.6396,199.21,29.8896,201.1299,29.6299z
		 M193.1797,43.1899c1.8999-0.3501,3.7202,0.9097,4.0801,2.8101c0.3501,1.8999-0.9102,3.73-2.8101,4.0796
		c-0.21,0.04-0.4297,0.0601-0.6396,0.0601c-1.6504,0-3.1304-1.1797-3.4404-2.8696C190.02,45.3696,191.2798,43.5498,193.1797,43.1899
		z M180.25,33.5298c1.8799-0.4502,3.77,0.7002,4.2197,2.5801c0.46,1.8799-0.6899,3.77-2.5698,4.23
		c-0.2803,0.0601-0.5601,0.1001-0.8301,0.1001c-1.5801,0-3.0098-1.0801-3.3999-2.6802
		C177.2197,35.8799,178.3696,33.9897,180.25,33.5298z M176.3198,47.1299c1.8599-0.5303,3.7998,0.5601,4.3198,2.4199
		c0.5303,1.8501-0.5498,3.79-2.4097,4.3198C177.9097,53.96,177.5898,54,177.27,54c-1.52,0-2.9302-1.0103-3.3604-2.5503
		C173.3799,49.5898,174.46,47.6597,176.3198,47.1299z M159.8999,39.6499c1.8101-0.6602,3.8198,0.29,4.4697,2.1099
		c0.6602,1.8101-0.2798,3.8198-2.0996,4.4702c-0.3901,0.1396-0.79,0.21-1.1904,0.21c-1.4297,0-2.7798-0.8901-3.2896-2.3101
		C157.1299,42.3101,158.0796,40.2998,159.8999,39.6499z M162.4297,59.1499c-0.4199,0.1602-0.8398,0.23-1.2598,0.23
		c-1.4102,0-2.73-0.8501-3.27-2.23c-0.7002-1.8101,0.1997-3.8301,2-4.5303c1.8101-0.6997,3.8301,0.2002,4.5298,2
		C165.1299,56.4199,164.23,58.4497,162.4297,59.1499z M148.75,61.1797c0.8696,1.73,0.1597,3.8301-1.5703,4.7002c0,0,0,0,0-0.0103
		c-0.5,0.25-1.0298,0.3701-1.5601,0.3701c-1.2798,0-2.52-0.71-3.1299-1.9399c-0.8599-1.73-0.1602-3.8301,1.5703-4.6899
		C145.79,58.75,147.8896,59.4497,148.75,61.1797z M140.3198,47.8999c1.7402-0.8398,3.8301-0.1201,4.6802,1.6201
		c0.8398,1.7397,0.1196,3.8296-1.6201,4.6797c-0.4902,0.2402-1.02,0.3501-1.5303,0.3501c-1.2998,0-2.5396-0.7202-3.1499-1.9702
		C137.8496,50.8398,138.5796,48.75,140.3198,47.8999z M128.9399,68.04c1.6396-1.02,3.7998-0.52,4.8198,1.1299
		c1.0103,1.6401,0.5,3.7998-1.1401,4.8198c-0.5698,0.3501-1.21,0.52-1.8398,0.52c-1.1699,0-2.3101-0.5898-2.9697-1.6602
		C126.79,71.21,127.29,69.0498,128.9399,68.04z M121.73,58.1997c1.6396-1.02,3.7998-0.5298,4.8301,1.1104
		c1.0195,1.6396,0.5298,3.7998-1.1104,4.8296c-0.5801,0.3604-1.2197,0.5303-1.8599,0.5303c-1.1602,0-2.2998-0.5801-2.96-1.6401
		C119.5996,61.3896,120.0898,59.23,121.73,58.1997z M114.6499,77.8198c1.5498-1.1699,3.7397-0.8599,4.9102,0.6802
		c1.1597,1.5498,0.8599,3.7397-0.6904,4.9097c0,0,0,0,0.0103,0c-0.6401,0.4702-1.3799,0.7002-2.1099,0.7002
		c-1.0601,0-2.1104-0.48-2.8003-1.3901C112.8101,81.1797,113.1099,78.98,114.6499,77.8198z M104.3496,70.4199
		c1.52-1.2002,3.7202-0.9302,4.9204,0.5898c1.1899,1.52,0.9199,3.7202-0.6001,4.9102c-0.6401,0.5-1.3999,0.75-2.1499,0.75
		c-1.04,0-2.0703-0.46-2.7603-1.3403C102.5698,73.8101,102.8296,71.6099,104.3496,70.4199z M101.3296,88.8799
		c1.4302-1.3101,3.6504-1.2002,4.9502,0.23c1.2998,1.4199,1.2002,3.6401-0.23,4.9399c-0.6699,0.6099-1.52,0.9102-2.3599,0.9102
		c-0.9502,0-1.8999-0.3804-2.5903-1.1401C99.7998,92.3896,99.8999,90.1797,101.3296,88.8799z M88.3599,84.3999
		c1.3901-1.3501,3.6001-1.3203,4.9502,0.0698c1.3496,1.3799,1.3198,3.6001-0.0703,4.9502
		c-0.6797,0.6597-1.5601,0.9897-2.4399,0.9897c-0.9102,0-1.8198-0.3599-2.5098-1.0601C86.9497,87.96,86.98,85.75,88.3599,84.3999z
		 M94.25,105.8296c-0.6899,0.75-1.6304,1.1304-2.5801,1.1304c-0.8403,0-1.6899-0.3003-2.3599-0.9102
		c-1.4302-1.3101-1.5303-3.52-0.2202-4.9502c1.2998-1.4199,3.5098-1.52,4.9399-0.2197
		C95.46,102.1899,95.5601,104.3999,94.25,105.8296z M82.9097,113.73c1.54,1.1699,1.8403,3.3599,0.6802,4.8999
		c-0.6899,0.9102-1.7402,1.3901-2.79,1.3901c-0.7397,0-1.48-0.23-2.1201-0.71c-1.54-1.1704-1.8398-3.3604-0.6699-4.9004
		S81.3696,112.5601,82.9097,113.73z M73.9399,99.9897c1.23-1.4897,3.4399-1.6899,4.9297-0.4497
		c1.48,1.23,1.6904,3.4399,0.4502,4.9199c-0.6899,0.8398-1.6899,1.27-2.6899,1.27c-0.79,0-1.5801-0.27-2.2402-0.8101
		C72.9097,103.6797,72.6997,101.48,73.9399,99.9897z M68.1997,128.6699c1.02-1.6401,3.1802-2.1499,4.8203-1.1299
		c1.6396,1.02,2.1499,3.1797,1.1299,4.8198c-0.6699,1.0698-1.8101,1.6602-2.98,1.6602c-0.6299,0-1.27-0.1704-1.8403-0.5303
		C67.6797,132.4697,67.1797,130.3101,68.1997,128.6699z M61.25,117.02c1.0698-1.6104,3.2397-2.0503,4.8496-0.98
		c1.6104,1.0698,2.0503,3.25,0.9702,4.8599c-0.6699,1.0098-1.7798,1.5601-2.9102,1.5601c-0.6699,0-1.3398-0.1899-1.9399-0.5903
		C60.6099,120.7998,60.1699,118.6299,61.25,117.02z M59.75,143.77c0.8696-1.7202,2.9697-2.4204,4.6997-1.5601
		c1.73,0.8599,2.4302,2.9697,1.5601,4.6997c-0.6099,1.2202-1.8501,1.9302-3.1299,1.9302c-0.5303,0-1.0601-0.1201-1.5601-0.3701
		C59.5898,147.6099,58.8896,145.5,59.75,143.77z M59.2598,162.1299c0,0,0,0,0,0.0098c-0.54,1.3804-1.8599,2.23-3.2598,2.23
		c-0.4204,0-0.8501-0.0796-1.27-0.2397c-1.8003-0.7002-2.6899-2.73-1.9902-4.5303c0.7002-1.7998,2.73-2.6997,4.5303-2
		C59.0698,158.2998,59.96,160.3296,59.2598,162.1299z M44.6699,206.8398c1.9297,0.1699,3.3398,1.8799,3.1597,3.7998
		c0,0,0,0,0.0103,0c-0.1699,1.8203-1.7002,3.1802-3.4902,3.1802c-0.0996,0-0.21,0-0.3198-0.0098
		c-1.9302-0.1802-3.3398-1.8901-3.1699-3.8101h0.0098C41.04,208.0698,42.75,206.6597,44.6699,206.8398z M43.25,192.8599
		c0.3599-1.8999,2.1899-3.1602,4.0898-2.7998c1.8999,0.3496,3.1499,2.1797,2.79,4.0796C49.8198,195.8198,48.3496,197,46.6997,197
		c-0.21,0-0.4297-0.02-0.6499-0.0601C44.1499,196.5796,42.8999,194.7598,43.25,192.8599z M43.5601,223.79
		c1.9399,0,3.5,1.5698,3.5,3.5c0,1.9297-1.5703,3.5-3.5,3.4902c-1.9404,0-3.5-1.5703-3.5-3.5005S41.6299,223.79,43.5601,223.79z
		 M44,240.7695c1.9199-0.1797,3.6196,1.2402,3.7998,3.1699c0.1699,1.9199-1.25,3.6201-3.1699,3.8008
		c-0.1099,0.0098-0.2202,0.0098-0.3198,0.0098c-1.79,0-3.3203-1.3604-3.4805-3.1807C40.6499,242.6396,42.0698,240.9395,44,240.7695z
		 M45.98,257.6396c1.8999-0.3496,3.73,0.9004,4.0801,2.8105c0.3496,1.8994-0.9102,3.7197-2.8101,4.0693
		c-0.21,0.04-0.4302,0.0605-0.6401,0.0605c-1.6499,0-3.1299-1.1807-3.4399-2.8701C42.8198,259.8096,44.0796,257.9902,45.98,257.6396
		z M49.52,274.25c1.8599-0.5205,3.79,0.5596,4.3198,2.4199c0.52,1.8604-0.5601,3.79-2.4199,4.3203
		c-0.3203,0.0898-0.6401,0.1299-0.9502,0.1299c-1.5298,0-2.9297-1.0107-3.3701-2.5508C46.5796,276.71,47.6597,274.7803,49.52,274.25
		z M53.9497,177.9297c-0.4297,1.5303-1.8398,2.54-3.3599,2.54c-0.3198,0-0.6401-0.0498-0.96-0.1401
		c-1.8599-0.5298-2.9399-2.46-2.4102-4.3198c0.5303-1.8599,2.4702-2.9399,4.3301-2.4102
		C53.3999,174.1299,54.48,176.0698,53.9497,177.9297z M50.4297,135.2998c0.8999-1.7202,3.0103-2.3799,4.73-1.4897
		c1.71,0.8999,2.3701,3.0098,1.48,4.7197c-0.6299,1.2002-1.8398,1.8901-3.1099,1.8901c-0.54,0-1.0898-0.1299-1.6099-0.3999
		C50.1997,139.1196,49.54,137.0098,50.4297,135.2998z M41.6299,154.6299c0.6997-1.8003,2.73-2.6899,4.54-1.98
		c1.79,0.6997,2.6797,2.73,1.98,4.54c-0.5503,1.3701-1.8701,2.2197-3.2603,2.2197c-0.4297,0-0.8599-0.0801-1.2798-0.2397
		C41.8101,158.46,40.9199,156.4297,41.6299,154.6299z M34.9399,174.79c0.5098-1.8604,2.4297-2.9604,4.2998-2.4502
		c1.8599,0.5098,2.96,2.4302,2.4502,4.2998c-0.4199,1.5503-1.8301,2.5703-3.3701,2.5703c-0.3101,0-0.6201-0.04-0.9199-0.1201
		C35.5298,178.5796,34.4297,176.6597,34.9399,174.79z M30.4497,195.5498c0.3101-1.9102,2.1001-3.2002,4.0103-2.8999
		c1.9097,0.3101,3.21,2.1099,2.8999,4.0098c-0.2803,1.73-1.7603,2.9502-3.4502,2.9502c-0.1797,0-0.3696-0.02-0.5601-0.0498
		C31.4399,199.2598,30.1396,197.46,30.4497,195.5498z M31.8799,213.3599c1.9302,0.1001,3.4102,1.75,3.3101,3.6802
		c-0.1001,1.8696-1.6499,3.3198-3.5,3.3198c-0.0601,0-0.1201,0-0.1899-0.0103c-1.9302-0.0996-3.4102-1.75-3.3101-3.6797
		C28.2998,214.7397,29.9497,213.2598,31.8799,213.3599z M28.1699,237.9102c-0.1001-1.9404,1.3901-3.5801,3.3198-3.6807
		c1.9302-0.0996,3.5703,1.3799,3.6699,3.3203c0.1001,1.9297-1.3799,3.5703-3.3101,3.6699c-0.0596,0-0.1196,0-0.1797,0
		C29.8101,241.2197,28.27,239.7695,28.1699,237.9102z M33.8398,261.9795c-1.6899,0-3.1802-1.2295-3.46-2.9492
		c-0.3003-1.9102,1-3.7109,2.9102-4.0107c1.9097-0.2998,3.6997,1,4.0098,2.9102c0.2998,1.9102-1,3.7002-2.9102,4.0098
		C34.1997,261.9697,34.02,261.9795,33.8398,261.9795z M39.1196,282.2598c-0.2998,0.0801-0.6099,0.1201-0.9199,0.1201
		c-1.54,0-2.9497-1.0205-3.3701-2.5801c-0.5098-1.8701,0.6001-3.79,2.4604-4.29c1.8696-0.5098,3.7896,0.5898,4.2998,2.46
		C42.0898,279.8398,40.9897,281.7598,39.1196,282.2598z M46.0098,301.9697c-0.4199,0.1602-0.8501,0.2402-1.27,0.2402
		c-1.3999,0-2.73-0.8506-3.2598-2.2305c-0.71-1.7998,0.1797-3.8301,1.9897-4.5293C45.27,294.75,47.29,295.6396,48,297.4395
		C48.6997,299.2402,47.8101,301.2695,46.0098,301.9697z M54.96,320.8301c-0.5103,0.2695-1.0601,0.3896-1.6104,0.3896
		c-1.2598,0-2.48-0.6797-3.1099-1.8799c-0.8901-1.7197-0.2197-3.8301,1.5-4.7197c1.71-0.8906,3.8301-0.2207,4.7202,1.4893
		C57.3496,317.8301,56.6797,319.9395,54.96,320.8301z M57.1099,297c-0.4199,0.1602-0.8501,0.2402-1.27,0.2402
		c-1.3999,0-2.7202-0.8506-3.2603-2.2402c-0.6997-1.8105,0.2002-3.8301,2-4.5303c1.8101-0.7002,3.8301,0.2002,4.5303,2
		C59.8101,294.2803,58.9097,296.2998,57.1099,297z M59.5601,310.8398c-0.8604-1.7305-0.1504-3.8301,1.5796-4.6904
		c1.73-0.8594,3.8301-0.1592,4.6899,1.5801c0.8604,1.7305,0.1504,3.8301-1.5796,4.6904c-0.5,0.25-1.0303,0.3604-1.5503,0.3604
		C61.4097,312.7803,60.1699,312.0693,59.5601,310.8398z M65.8696,338.6299c-0.5898,0.3896-1.2598,0.5801-1.9297,0.5801
		c-1.1299,0-2.2402-0.5498-2.9199-1.5703c-1.0601-1.6094-0.6201-3.7803,0.9897-4.8496c1.6099-1.0605,3.7803-0.6201,4.8501,0.9902
		C67.9297,335.3896,67.48,337.5596,65.8696,338.6299z M70.96,327.6299c-1.1699,0-2.3203-0.5898-2.98-1.6602
		c-1.02-1.6504-0.5103-3.7998,1.1299-4.8203c1.6499-1.0098,3.7998-0.5,4.8198,1.1406c1.02,1.6396,0.5103,3.7998-1.1299,4.8193
		C72.2197,327.46,71.5898,327.6299,70.96,327.6299z M78.6099,355.1699c-0.6499,0.54-1.4399,0.7998-2.23,0.7998
		c-1,0-2-0.4297-2.7002-1.2695c-1.23-1.4902-1.02-3.6904,0.4702-4.9307c1.4897-1.2295,3.6899-1.0195,4.9297,0.4707
		C80.3101,351.7295,80.0996,353.9297,78.6099,355.1699z M82.6597,340.9395c-0.6396,0.4805-1.3799,0.71-2.1099,0.71
		c-1.0601,0-2.1099-0.4795-2.7998-1.3896c-1.1602-1.5498-0.8501-3.7402,0.6899-4.9102c1.54-1.1602,3.7397-0.8496,4.8999,0.6904
		C84.5098,337.5898,84.1997,339.7803,82.6597,340.9395z M93.02,370.2598c-0.6802,0.71-1.5903,1.0596-2.5,1.0596
		c-0.8804,0-1.7603-0.3291-2.4404-1c-1.3896-1.3496-1.4097-3.5596-0.0596-4.9492c1.3496-1.3799,3.5596-1.4102,4.9497-0.0605
		C94.3496,366.6602,94.3696,368.8799,93.02,370.2598z M93.75,353.8193c-0.6802,0.6104-1.52,0.9102-2.3604,0.9102
		c-0.9497,0-1.8999-0.3896-2.5898-1.1396c-1.2998-1.4404-1.1899-3.6504,0.2402-4.9502c1.4199-1.2998,3.6396-1.2002,4.9399,0.2305
		C95.2798,350.2998,95.1797,352.5195,93.75,353.8193z M100.7998,360.8994c1.3101-1.4297,3.52-1.5293,4.9502-0.2197
		c1.4297,1.2998,1.52,3.5098,0.2197,4.9404c-0.6899,0.7598-1.6401,1.1396-2.5801,1.1396c-0.8496,0-1.6899-0.2998-2.3696-0.9199
		C99.5996,364.54,99.5,362.3193,100.7998,360.8994z M108.9497,383.75c-0.6899,0.8799-1.71,1.3398-2.75,1.3398
		c-0.7598,0-1.52-0.25-2.1597-0.75c-1.52-1.2002-1.7803-3.4004-0.5903-4.9199c1.2002-1.5205,3.3999-1.7803,4.9199-0.5801
		S110.1499,382.2402,108.9497,383.75z M116.4297,377.6396c-0.7397,0-1.48-0.2402-2.1099-0.71
		c-1.54-1.1699-1.8398-3.3701-0.6699-4.9102c1.1602-1.54,3.3599-1.8398,4.8999-0.6699s1.8398,3.3604,0.6699,4.9004
		C118.5298,377.1602,117.4897,377.6396,116.4297,377.6396z M126.2197,395.4795c-0.6699,1.0605-1.8101,1.6406-2.9697,1.6406
		c-0.6401,0-1.2803-0.1807-1.8604-0.54c-1.6396-1.0303-2.1299-3.1904-1.0996-4.8301c1.0298-1.6299,3.1899-2.1201,4.8198-1.0898
		c0,0,0,0,0.0098,0C126.75,391.6797,127.2397,393.8496,126.2197,395.4795z M133.3999,385.6201
		c-0.6699,1.0693-1.8101,1.6494-2.98,1.6494c-0.6299,0-1.27-0.1699-1.8403-0.5293c-1.6499-1.0205-2.1499-3.1807-1.1299-4.8203
		c1.0303-1.6396,3.1802-2.1504,4.8301-1.1201C133.9199,381.8193,134.4199,383.9795,133.3999,385.6201z M144.6196,405.3096
		c-0.5996,1.2402-1.8496,1.96-3.1396,1.96c-0.52,0-1.04-0.1094-1.54-0.3594c-1.73-0.8506-2.4502-2.9404-1.6001-4.6807
		c0.8501-1.7393,2.9399-2.46,4.6802-1.6094C144.75,401.4697,145.4697,403.5693,144.6196,405.3096z M148.3696,393.6396
		c-0.6099,1.2197-1.8398,1.9297-3.1299,1.9297c-0.52,0-1.0601-0.1191-1.5601-0.3691c-1.73-0.8701-2.4297-2.9707-1.5601-4.7002
		c0.8604-1.7305,2.96-2.4307,4.6904-1.5605C148.54,389.8096,149.2397,391.9102,148.3696,393.6396z M163.98,413.1094
		c-0.5103,1.4209-1.8604,2.3105-3.29,2.3105c-0.3901,0-0.8003-0.0703-1.1899-0.21c-1.8203-0.6602-2.7603-2.6699-2.1001-4.4805
		c0.6602-1.8193,2.6699-2.7598,4.48-2.0996c0,0,0,0,0.0098,0C163.6997,409.29,164.6396,411.29,163.98,413.1094z M164.0298,400.2295
		c-0.54,1.3906-1.8599,2.2305-3.27,2.2305c-0.4199,0-0.8501-0.0703-1.2598-0.2402c-1.8101-0.7002-2.7002-2.7295-1.9902-4.5303
		c0.7002-1.7998,2.73-2.6895,4.5303-1.9893C163.8398,396.3994,164.73,398.4297,164.0298,400.2295z M175.8999,407.75
		c-1.8599-0.5303-2.9302-2.4697-2.3999-4.3301c0.5298-1.8604,2.4697-2.9297,4.3296-2.4004c1.8604,0.5303,2.9302,2.46,2.4004,4.3203
		c-0.4399,1.54-1.8403,2.54-3.3701,2.54C176.5498,407.8799,176.2197,407.8398,175.8999,407.75z M184.0601,418.7998
		c-0.3901,1.5996-1.8203,2.6699-3.3901,2.6699c-0.2803,0-0.5601-0.04-0.8403-0.1104c-1.8799-0.46-3.0298-2.3496-2.5596-4.2295
		c0.46-1.8799,2.3496-3.0303,4.23-2.5605C183.3799,415.0195,184.52,416.9199,184.0601,418.7998z M196.8296,408.9297
		c-0.3096,1.6797-1.7798,2.8604-3.4297,2.8604c-0.2202,0-0.4302-0.0205-0.6499-0.0605c-1.9004-0.3594-3.1504-2.1895-2.79-4.0898
		c0.3501-1.8994,2.1797-3.1494,4.0801-2.79C195.9399,405.2002,197.1899,407.0303,196.8296,408.9297z M204.6396,422.3096
		c-0.2397,1.75-1.7397,3.0303-3.4697,3.0303c-0.1499,0-0.3101-0.0098-0.4702-0.0303c-1.9097-0.2598-3.2598-2.0195-3-3.9395
		c0.2603-1.9102,2.02-3.2607,3.9302-3C203.5498,418.6299,204.8896,420.3896,204.6396,422.3096z M210.2197,414.1396
		c-0.1099,0-0.2197,0-0.3301-0.0195c-1.9297-0.1699-3.3398-1.8799-3.1597-3.8105c0.1797-1.9199,1.8799-3.3301,3.8101-3.1602
		c1.9199,0.1807,3.3398,1.8906,3.1597,3.8105C213.5298,412.7803,212,414.1396,210.2197,414.1396z M221.96,427.0195
		c-0.0303,0-0.0601,0-0.0903,0c-1.9297-0.0596-3.46-1.6699-3.3999-3.5996c0.0503-1.9297,1.6602-3.46,3.5903-3.4004
		c1.9297,0.0498,3.46,1.6602,3.3999,3.5898C225.4097,425.5098,223.8496,427.0195,221.96,427.0195z M227.1797,414.9395
		c0,0,0,0-0.0098,0c-1.9302,0-3.4902-1.5693-3.4902-3.5c0-1.9395,1.5703-3.5,3.5103-3.5c1.9302,0,3.4897,1.5703,3.4897,3.5107
		C230.6797,413.3799,229.1094,414.9395,227.1797,414.9395z M243.0898,426.4902C243,426.5,242.9102,426.5,242.8193,426.5
		c-1.8096,0-3.3398-1.3906-3.4795-3.2305c-0.1504-1.9297,1.29-3.6094,3.2197-3.7598c1.9199-0.1504,3.6006,1.2998,3.75,3.2197
		C246.46,424.6602,245.0195,426.3398,243.0898,426.4902z M244.46,414.1797c-0.1104,0.0098-0.21,0.0205-0.3203,0.0205
		c-1.79,0-3.3203-1.3701-3.4795-3.1904c-0.1699-1.9297,1.25-3.6299,3.1699-3.7998c1.9297-0.1699,3.6299,1.25,3.7998,3.1797
		C247.7998,412.3096,246.3799,414.0098,244.46,414.1797z M257.5303,409.0303c-0.3506-1.9004,0.9092-3.7207,2.8096-4.0703
		c1.9004-0.3506,3.7295,0.9102,4.0801,2.8096c0.3496,1.9004-0.9102,3.7207-2.8105,4.0801
		c-0.2197,0.0303-0.4297,0.0498-0.6396,0.0498C259.3193,411.8994,257.8398,410.7197,257.5303,409.0303z M264.1494,423.7295
		c-0.21,0.04-0.4297,0.0605-0.6396,0.0605c-1.6504,0-3.1201-1.1807-3.4404-2.8604c-0.3496-1.8994,0.9004-3.7295,2.8105-4.0801
		c1.8896-0.3496,3.7197,0.9004,4.0703,2.7998C267.3096,421.5596,266.0498,423.3799,264.1494,423.7295z M278.4697,407.9297
		c-0.3203,0.0898-0.6396,0.1299-0.9502,0.1299c-1.5293,0-2.9297-1.0098-3.3701-2.5498c-0.5195-1.8604,0.5605-3.7998,2.4199-4.3203
		c1.8604-0.5195,3.79,0.5605,4.3203,2.4199C281.4102,405.4697,280.3301,407.3994,278.4697,407.9297z M284.7998,418.7402
		c-0.3301,0.0996-0.6699,0.1494-1,0.1494c-1.5098,0-2.9004-0.9795-3.3496-2.4902c-0.5605-1.8594,0.4893-3.8096,2.3398-4.3594
		c1.8594-0.5605,3.8096,0.5,4.3594,2.3496C287.7002,416.2402,286.6494,418.1895,284.7998,418.7402z M294.8994,402.46
		c-0.4199,0.1602-0.8398,0.2295-1.2598,0.2295c-1.4102,0-2.7402-0.8496-3.2695-2.2393c-0.6904-1.8008,0.1992-3.8301,2.0098-4.5205
		c1.7998-0.7002,3.8301,0.2002,4.5195,2C297.5996,399.7402,296.7002,401.7598,294.8994,402.46z M304.7998,411.5693
		c-0.4404,0.1904-0.9004,0.2803-1.3496,0.2803c-1.3701,0-2.6699-0.8096-3.2305-2.1494c-0.75-1.7803,0.0898-3.8301,1.8701-4.5801
		s3.8301,0.0801,4.5801,1.8701C307.4199,408.7695,306.5801,410.8193,304.7998,411.5693z M310.7402,395.4902
		c-0.5,0.2393-1.0303,0.3594-1.5508,0.3594c-1.29,0-2.5293-0.71-3.1396-1.9395c-0.8604-1.7305-0.1504-3.8301,1.5801-4.6904
		c1.7295-0.8604,3.8301-0.1602,4.6895,1.5801C313.1797,392.5303,312.4795,394.6299,310.7402,395.4902z M323.9199,402.2998
		c-0.54,0.2998-1.1201,0.4404-1.6904,0.4404c-1.2295,0-2.4297-0.6602-3.0693-1.8105c-0.9307-1.6895-0.3203-3.8203,1.3701-4.7598
		c1.6992-0.9297,3.8193-0.3203,4.7598,1.3701C326.2295,399.2295,325.6094,401.3701,323.9199,402.2998z M325.8799,387.0801
		c-0.5801,0.3496-1.21,0.5195-1.8398,0.5195c-1.1699,0-2.3203-0.5898-2.9805-1.6602c-1.0195-1.6396-0.5098-3.7998,1.1406-4.8193
		c1.6396-1.0107,3.7998-0.5,4.8193,1.1396C328.0303,383.8994,327.5195,386.0596,325.8799,387.0801z M335.2695,376.6201
		c-1.1602-1.54-0.8594-3.7402,0.6904-4.9004c1.54-1.1602,3.7295-0.8496,4.8994,0.6904c1.1602,1.54,0.8506,3.7393-0.6895,4.8994
		c-0.6299,0.4805-1.3701,0.71-2.1006,0.71C337,378.0195,335.96,377.5303,335.2695,376.6201z M341.9395,391.0498
		c-0.6094,0.4297-1.3096,0.6299-2,0.6299c-1.1094,0-2.1895-0.5195-2.8701-1.4902c-1.1094-1.5801-0.7295-3.7598,0.8506-4.8799
		c1.5801-1.1094,3.7695-0.7197,4.8799,0.8604S343.5195,389.9395,341.9395,391.0498z M227.5,393.0508
		c-91.2852,0-165.5508-74.2656-165.5508-165.5508S136.2148,61.9492,227.5,61.9492S393.0508,136.2148,393.0508,227.5
		S318.7852,393.0508,227.5,393.0508z M348.5596,366.0303c-1.2998-1.4307-1.1895-3.6406,0.2402-4.9404s3.6396-1.1904,4.9404,0.2402
		c1.2998,1.4297,1.1992,3.6396-0.2402,4.9395c-0.6699,0.6104-1.5098,0.9102-2.3506,0.9102
		C350.2002,367.1797,349.25,366.79,348.5596,366.0303z M358.6602,377.9502c-0.6602,0.5801-1.4805,0.8594-2.3008,0.8594
		c-0.9697,0-1.9395-0.4102-2.6299-1.2002c-1.2793-1.46-1.1299-3.6699,0.3301-4.9395c1.46-1.2705,3.6699-1.1201,4.9404,0.3398
		C360.2695,374.46,360.1201,376.6797,358.6602,377.9502z M365.7695,354.0596c-0.6895,0.75-1.6396,1.1299-2.5801,1.1299
		c-0.8496,0-1.6992-0.2998-2.3701-0.9199c-1.4199-1.2998-1.5195-3.5195-0.2197-4.9395c1.3105-1.4307,3.5205-1.5205,4.9502-0.2207
		C366.9697,350.4199,367.0693,352.6299,365.7695,354.0596z M373.9102,363.1602c-0.6904,0.7393-1.6299,1.1201-2.5703,1.1201
		c-0.8496,0-1.7002-0.3105-2.3799-0.9307c-1.4199-1.3193-1.5-3.54-0.1904-4.9502c1.3203-1.4199,3.5303-1.5,4.9502-0.1895
		C375.1396,359.5195,375.2197,361.7402,373.9102,363.1602z M376.8594,340.7695c-0.6895,0.9004-1.7295,1.3799-2.79,1.3799
		c-0.7393,0-1.4795-0.2295-2.1191-0.71c-1.5303-1.1699-1.8408-3.3701-0.6699-4.9092c1.1699-1.54,3.3691-1.8408,4.9092-0.6709
		C377.7295,337.0303,378.0303,339.2295,376.8594,340.7695z M380.7402,322.8096c1.0195-1.6396,3.1797-2.1396,4.8193-1.1201
		c1.6504,1.0303,2.1504,3.1807,1.1201,4.8301c-0.6602,1.0605-1.7998,1.6406-2.9697,1.6406c-0.6299,0-1.2705-0.1699-1.8506-0.5303
		C380.2197,326.6094,379.7197,324.4502,380.7402,322.8096z M387.5,346.8398c-0.6904,0.9199-1.7402,1.4004-2.8105,1.4004
		c-0.7197,0-1.46-0.2207-2.0898-0.6904c-1.5498-1.1602-1.8594-3.3496-0.71-4.9004c1.1602-1.5498,3.3506-1.8691,4.9004-0.71
		C388.3398,343.0996,388.6602,345.29,387.5,346.8398z M390.4502,312.9795c-1.7207-0.8701-2.4199-2.9697-1.5605-4.6992
		c0.8701-1.7305,2.9697-2.4307,4.7002-1.5605c1.7295,0.8701,2.4297,2.9697,1.5596,4.7002
		c-0.6094,1.2197-1.8496,1.9297-3.1299,1.9297C391.4902,313.3496,390.9502,313.2295,390.4502,312.9795z M399.29,329.1699
		c-0.6504,1.1104-1.8203,1.7197-3.0098,1.7197c-0.6104,0-1.2305-0.1602-1.79-0.4902c-1.6602-0.9893-2.2002-3.1299-1.2207-4.7998
		c0.9805-1.6602,3.1299-2.21,4.7998-1.2197C399.7295,325.3594,400.2803,327.5098,399.29,329.1699z M402.1797,295.5996
		c-0.54,1.3906-1.8604,2.2305-3.2598,2.2305c-0.4199,0-0.8506-0.0703-1.2705-0.2402c-1.7998-0.7002-2.6895-2.7305-1.9893-4.5303
		c0.6992-1.7998,2.7295-2.6895,4.5293-1.9902C402,291.7695,402.8896,293.7998,402.1797,295.5996z M409.1396,310.3594
		c-0.5898,1.29-1.8594,2.04-3.1895,2.04c-0.4902,0-0.9805-0.0996-1.4502-0.3096c-1.7598-0.8096-2.54-2.8799-1.7305-4.6396
		c0.7998-1.7607,2.8799-2.54,4.6299-1.7305C409.1602,306.5195,409.9395,308.5996,409.1396,310.3594z M416.9199,290.5898h-0.0098
		c-0.4805,1.4697-1.8506,2.3896-3.3105,2.3896c-0.3701,0-0.7402-0.0498-1.1094-0.1699c-1.8301-0.6201-2.8301-2.5996-2.2207-4.4297
		c0.6104-1.8398,2.5898-2.8301,4.4307-2.2197C416.5303,286.7695,417.5303,288.7598,416.9199,290.5898z M422.5303,270.0996
		c-0.3506,1.6406-1.8008,2.7598-3.4102,2.7598c-0.25,0-0.5-0.0195-0.75-0.0791c-1.8906-0.4102-3.0898-2.2803-2.6807-4.1602
		c0.4199-1.8906,2.2803-3.0898,4.1699-2.6807C421.75,266.3496,422.9395,268.21,422.5303,270.0996z M422.46,252.2598
		c-0.1299,0-0.2598,0-0.3799-0.0195c-1.9307-0.21-3.3105-1.9307-3.1104-3.8506c0.21-1.9199,1.9404-3.3096,3.8604-3.1094
		c1.9199,0.21,3.3096,1.9395,3.0996,3.8594h0.0098C425.7402,250.9297,424.2197,252.2598,422.46,252.2598z M427.0898,227.9399
		c0,1.9194-1.5703,3.4897-3.5,3.4897c-1.9404-0.0098-3.5-1.5801-3.5-3.5098c0-0.0801,0-0.1499,0.0098-0.2202
		c0-0.0698-0.0098-0.1299-0.0098-0.1997c0-1.9302,1.5703-3.5,3.5-3.5s3.5,1.5698,3.5,3.5c0,0.0698,0,0.1396,0,0.21
		C427.0898,227.79,427.0898,227.8599,427.0898,227.9399z"/>
	<path fill="#64DDBB" d="M227.5,68.9492c-87.4253,0-158.5508,71.1255-158.5508,158.5508
		c0,87.4248,71.1255,158.5508,158.5508,158.5508c87.4248,0,158.5508-71.126,158.5508-158.5508
		C386.0508,140.0747,314.9248,68.9492,227.5,68.9492z"/>
</g>
<g id="change2">
	<path id="circle-with-cutout-border-line-1" fill="#22A87E" d="M388.3672,66.6333C345.3975,23.6641,288.2676,0,227.5,0
	S109.6025,23.6641,66.6333,66.6333S0,166.7324,0,227.5s23.6641,117.8975,66.6333,160.8672C109.6025,431.3359,166.7324,455,227.5,455
	s117.8975-23.6641,160.8672-66.6328C431.3359,345.3975,455,288.2676,455,227.5S431.3359,109.6025,388.3672,66.6333z M227.5,440
	C110.3271,440,15,344.6729,15,227.5S110.3271,15,227.5,15S440,110.3271,440,227.5S344.6729,440,227.5,440z"/></g>
</svg>
