<?xml version="1.0" encoding="utf-8"?>
<!-- Generator: Adobe Illustrator 21.0.0, SVG Export Plug-In . SVG Version: 6.00 Build 0)  -->
<svg version="1.1" id="Filled_Circle_with_Dotted_Border_Line"
	 xmlns="http://www.w3.org/2000/svg" xmlns:xlink="http://www.w3.org/1999/xlink" x="0px" y="0px" viewBox="0 0 473 473"
	 enable-background="new 0 0 473 473" xml:space="preserve">
<g id="change1">
	<circle fill="#D6DAC2" cx="236.5" cy="236.5" r="223"/>
</g>
<g id="change2">
	<g>
		<path fill="#002CAA" d="M236.5,473c-63.1714,0-122.562-24.6006-167.2305-69.2695C24.6001,359.0615,0,299.6719,0,236.5
			c0-63.1714,24.6001-122.562,69.2695-167.2305C113.938,24.6001,173.3286,0,236.5,0c63.1719,0,122.5615,24.6001,167.2305,69.2695
			C448.3994,113.938,473,173.3286,473,236.5c0,63.1719-24.6006,122.5625-69.2695,167.2305C359.0625,448.3994,299.6719,473,236.5,473
			z M236.5,15c-59.1646,0-114.7881,23.04-156.624,64.876S15,177.3354,15,236.5c0,59.165,23.04,114.7881,64.876,156.624
			S177.335,458,236.5,458s114.7891-23.04,156.624-64.876C434.96,351.2891,458,295.665,458,236.5s-23.04-114.7881-64.876-156.624
			S295.665,15,236.5,15z"/>
	</g>
	<g>
		<path fill="#002CAA" d="M236.5,419.3398c-100.8184,0-182.8398-82.0215-182.8398-182.8398S135.6816,53.6602,236.5,53.6602
			S419.3398,135.6816,419.3398,236.5S337.3184,419.3398,236.5,419.3398z M236.5,68.6602
			c-92.5474,0-167.8398,75.2925-167.8398,167.8398c0,92.5469,75.2925,167.8398,167.8398,167.8398
			c92.5469,0,167.8398-75.293,167.8398-167.8398C404.3398,143.9526,329.0469,68.6602,236.5,68.6602z"/>
	</g>
	<g>
		<path fill="#002CAA" d="M238.1299,437.54c-0.0703-2.4805,1.8799-4.5605,4.3604-4.6299l0,0
			c2.4893-0.0801,4.5596,1.8799,4.6396,4.3594l0,0c0.0703,2.4805-1.8799,4.5605-4.3701,4.6299l0,0c-0.04,0-0.0898,0-0.1396,0l0,0
			C240.2002,441.8994,238.2002,439.9795,238.1299,437.54z M216.46,441.0303L216.46,441.0303
			c-2.4702-0.2402-4.2803-2.4404-4.0503-4.9102l0,0c0.2402-2.4805,2.4399-4.29,4.9199-4.0508l0,0l0,0l0,0
			c2.4702,0.2402,4.2803,2.4404,4.04,4.9209l0,0c-0.2197,2.3193-2.1797,4.0596-4.4697,4.0596l0,0
			C216.75,441.0498,216.6099,441.04,216.46,441.0303z M263.8193,435.7002c-0.3896-2.4502,1.2803-4.7607,3.7402-5.1406l0,0
			c2.4502-0.3994,4.7598,1.2803,5.1504,3.7305l0,0c0.3896,2.46-1.29,4.7598-3.7402,5.1494l0,0
			c-0.2402,0.04-0.4795,0.0605-0.71,0.0605l0,0C266.0801,439.5,264.1699,437.9199,263.8193,435.7002z M190.4697,436.8193
			c-2.4199-0.5498-3.9297-2.9697-3.3799-5.3896l0,0c0.5601-2.4199,2.9702-3.9395,5.3901-3.3799l0,0
			c2.4199,0.5498,3.9399,2.96,3.3799,5.3896l0,0c-0.4702,2.0801-2.3301,3.5-4.3799,3.5l0,0
			C191.1499,436.9395,190.8101,436.8994,190.4697,436.8193z M289.0596,430.5996c-0.7002-2.3799,0.6699-4.8799,3.0498-5.5801l0,0l0,0
			l0,0c2.3809-0.71,4.8809,0.6602,5.5908,3.04l0,0c0.6992,2.3906-0.6602,4.8906-3.0508,5.5898l0,0
			c-0.4199,0.1309-0.8496,0.1904-1.2695,0.1904l0,0C291.4395,433.8398,289.6396,432.5693,289.0596,430.5996z M165.2397,429.2998
			c-2.3301-0.8604-3.52-3.4502-2.6602-5.7803l0,0c0.8604-2.3301,3.4502-3.5195,5.7803-2.6602l0,0
			c2.3301,0.8604,3.52,3.4502,2.6602,5.7803l0,0c-0.6704,1.8203-2.3901,2.9404-4.2202,2.9404l0,0
			C166.2798,429.5801,165.75,429.4902,165.2397,429.2998z M313.46,422.29c-1.0098-2.2705,0.0195-4.9307,2.2998-5.9307l0,0
			c2.2705-1.0098,4.9297,0.0205,5.9297,2.3008l0,0c1,2.2695-0.0293,4.9297-2.2998,5.9297l0,0
			c-0.5898,0.2598-1.2002,0.3896-1.8096,0.3896l0,0C315.8496,424.9795,314.2002,423.9697,313.46,422.29z M141.1797,418.5996
			L141.1797,418.5996c-2.1997-1.1602-3.0498-3.8799-1.8896-6.0801l0,0c1.1499-2.2002,3.8696-3.04,6.0698-1.8896l0,0l0,0l0,0
			c2.2002,1.1504,3.0498,3.8701,1.8999,6.0703l0,0c-0.8101,1.54-2.3701,2.4092-3.9897,2.4092l0,0
			C142.5698,419.1094,141.8496,418.9502,141.1797,418.5996z M336.5801,410.9102c-1.29-2.1299-0.6104-4.9004,1.5098-6.1807l0,0
			c2.1299-1.29,4.9004-0.6094,6.1797,1.5205l0,0c1.29,2.1201,0.6104,4.8896-1.5098,6.1797l0,0
			c-0.7295,0.4404-1.54,0.6504-2.3301,0.6504l0,0C338.9102,413.0801,337.4199,412.3096,336.5801,410.9102z M118.71,404.9102
			c-2.04-1.4307-2.5303-4.2305-1.1001-6.2705l0,0c1.4199-2.04,4.23-2.5303,6.27-1.0996l0,0c0,0,0,0-0.0103,0l0,0
			c2.04,1.4199,2.54,4.2295,1.1104,6.2695l0,0c-0.8804,1.2402-2.27,1.9102-3.6899,1.9102l0,0
			C120.3999,405.7197,119.5,405.46,118.71,404.9102z M358.04,396.6602c-1.5498-1.9404-1.2305-4.7803,0.7197-6.3203l0,0l0,0l0,0
			c1.9404-1.5498,4.7705-1.2305,6.3203,0.7197l0,0c1.5498,1.9404,1.2295,4.7705-0.7207,6.3203l0,0
			c-0.8193,0.6602-1.8096,0.9795-2.7998,0.9795l0,0C360.2402,398.3594,358.9297,397.7803,358.04,396.6602z M98.1597,388.46
			L98.1597,388.46c-1.8301-1.6699-1.9697-4.5205-0.29-6.3604l0,0c1.6704-1.8301,4.52-1.9697,6.3501-0.29l0,0
			c1.8403,1.6699,1.9702,4.5098,0.3003,6.3506l0,0c-0.8901,0.9795-2.1001,1.4697-3.3301,1.4697l0,0
			C100.1099,389.6299,99.0298,389.25,98.1597,388.46z M377.5098,379.7998c-1.7803-1.7305-1.8203-4.5801-0.0898-6.3604l0,0l0,0l0,0
			c1.7295-1.79,4.5801-1.8301,6.3701-0.0898l0,0c1.7793,1.7305,1.8193,4.5801,0.0898,6.3604l0,0
			c-0.8896,0.9102-2.0605,1.3594-3.2305,1.3594l0,0C379.5195,381.0693,378.3896,380.6494,377.5098,379.7998z M79.8696,369.5303
			c-1.6099-1.8906-1.3799-4.7305,0.52-6.3408l0,0c1.8901-1.6094,4.73-1.3799,6.3403,0.5107l0,0
			c1.6099,1.8896,1.3799,4.7295-0.52,6.3398l0,0c-0.8403,0.7197-1.8804,1.0801-2.9102,1.0801l0,0
			C82.0298,371.1201,80.7598,370.5801,79.8696,369.5303z M394.6797,360.5996c-1.9902-1.4902-2.3896-4.3096-0.8994-6.2998l0,0l0,0
			l0,0c1.4893-1.9902,4.3096-2.3896,6.2998-0.9004l0,0c1.9893,1.4902,2.3896,4.3203,0.8994,6.3008l0,0
			c-0.8799,1.1797-2.2393,1.7998-3.5996,1.7998l0,0C396.4395,361.5,395.4902,361.21,394.6797,360.5996z M64.1299,348.4199
			c-1.3599-2.0801-0.77-4.8701,1.3198-6.2197l0,0c2.0801-1.3604,4.8701-0.7705,6.2202,1.3193l0,0
			c1.3599,2.0801,0.77,4.8701-1.3101,6.2207l0,0c-0.7603,0.4893-1.6099,0.7295-2.4502,0.7295l0,0
			C66.4297,350.4697,64.9897,349.75,64.1299,348.4199z M409.2598,339.3799c-2.1602-1.2197-2.9199-3.9697-1.6904-6.1299l0,0l0,0l0,0
			c1.2207-2.1602,3.9707-2.9307,6.1309-1.7002l0,0c2.1592,1.2305,2.9199,3.9697,1.6992,6.1396l0,0
			c-0.8301,1.46-2.3594,2.2803-3.9199,2.2803l0,0C410.7295,339.9697,409.96,339.7803,409.2598,339.3799z M51.21,325.4697
			c-1.0801-2.2402-0.1304-4.9297,2.1099-6l0,0c2.2402-1.0801,4.9302-0.1396,6,2.0996l0,0l0,0l0,0
			c1.0801,2.2402,0.1401,4.9307-2.1001,6.0107l0,0c-0.6299,0.2998-1.2998,0.4395-1.9497,0.4395l0,0
			C53.5898,328.0195,51.9897,327.0801,51.21,325.4697z M421.0098,316.4795c-2.2998-0.9395-3.4102-3.5596-2.4697-5.8594l0,0
			c0.9395-2.3105,3.5596-3.4102,5.8594-2.4707l0,0c2.3008,0.9307,3.4102,3.5605,2.4707,5.8604l0,0
			c-0.71,1.75-2.3906,2.7998-4.1699,2.7998l0,0C422.1396,316.8096,421.5596,316.71,421.0098,316.4795z M41.3496,301.0498V301.04
			c-0.7798-2.3604,0.5-4.9004,2.8604-5.6807l0,0c2.3599-0.7793,4.8999,0.5,5.6797,2.8604l0,0
			c0.7803,2.3604-0.5,4.9004-2.8599,5.6797l0,0c-0.4697,0.1602-0.9399,0.2305-1.4102,0.2305l0,0
			C43.73,304.1299,41.9697,302.9395,41.3496,301.0498z M429.7197,292.2402c-2.4102-0.6309-3.8398-3.0908-3.21-5.5l0,0
			c0.6396-2.4004,3.0996-3.8301,5.5-3.2002l0,0c2.4004,0.6299,3.8398,3.0996,3.21,5.5l0,0c-0.54,2.0195-2.3604,3.3496-4.3496,3.3496
			l0,0C430.4902,292.3896,430.0996,292.3398,429.7197,292.2402z M34.71,275.5596c-0.4702-2.4395,1.1299-4.7998,3.5698-5.2695l0,0
			c2.4399-0.4707,4.7998,1.1299,5.27,3.5693l0,0c0.4702,2.4404-1.1299,4.8008-3.5698,5.2705l0,0
			c-0.2803,0.0596-0.5703,0.0801-0.8501,0.0801l0,0C37.0098,279.21,35.1299,277.7197,34.71,275.5596z M435.2295,267.0801
			c-2.46-0.3203-4.1992-2.5703-3.8799-5.04l0,0c0.3203-2.46,2.5801-4.2002,5.04-3.8799l0,0c2.4697,0.3193,4.21,2.5801,3.8906,5.04
			l0,0c-0.3008,2.2695-2.2305,3.9199-4.4609,3.9199l0,0C435.6299,267.1201,435.4297,267.1094,435.2295,267.0801z M31.4097,249.4502
			c-0.1597-2.4805,1.73-4.6201,4.21-4.7705l0,0c2.48-0.1602,4.6104,1.7305,4.77,4.21l0,0c0.1504,2.4805-1.73,4.6201-4.21,4.7705l0,0
			c-0.1001,0.0098-0.1899,0.0098-0.29,0.0098l0,0C33.5298,253.6699,31.5498,251.8301,31.4097,249.4502z M437.4795,241.4297
			c-2.4795-0.0098-4.4893-2.0195-4.4893-4.5098l0,0c0-0.0703,0.0098-0.1499,0.0098-0.23l0,0c0-0.0601,0-0.1299,0-0.1899l0,0
			c0-2.48,2.0098-4.5,4.5-4.5l0,0c2.4795,0,4.4902,2.02,4.4902,4.5H442c0,0.0796-0.0098,0.1597-0.0098,0.2397l0,0
			c0,0.0703,0,0.1299,0,0.2002l0,0c0,2.48-2.0205,4.4897-4.5,4.4897l0,0C437.4902,241.4297,437.4902,241.4297,437.4795,241.4297z
			 M35.6299,227.9097c-2.48-0.1597-4.3599-2.2998-4.2002-4.7798l0,0c0.1602-2.48,2.3003-4.3599,4.7803-4.2002l0,0
			c2.48,0.1602,4.3599,2.3003,4.1997,4.7803l0,0c-0.1499,2.3799-2.1299,4.21-4.48,4.21l0,0
			C35.8296,227.9199,35.73,227.9199,35.6299,227.9097z M431.3994,211.3696c-0.3096-2.46,1.4307-4.71,3.9004-5.0298l0,0
			c2.46-0.3101,4.7197,1.4302,5.0303,3.8999l0,0c0.3193,2.46-1.4307,4.71-3.8906,5.0303l0,0
			c-0.1992,0.02-0.3896,0.0298-0.5801,0.0298l0,0C433.6299,215.2998,431.6895,213.6499,431.3994,211.3696z M38.3496,202.2998
			c-2.4399-0.4702-4.0298-2.8398-3.5596-5.27l0,0c0.48-2.4502,2.8398-4.04,5.2798-3.5601l0,0
			c2.4399,0.4702,4.0298,2.8301,3.5601,5.27l0,0c-0.4199,2.1499-2.3101,3.6499-4.4199,3.6499l0,0
			C38.9297,202.3896,38.6396,202.3599,38.3496,202.2998z M426.6201,186.6597L426.6201,186.6597L426.6201,186.6597
			c-0.6299-2.3999,0.8096-4.8599,3.2197-5.4897l0,0c2.4004-0.6299,4.8604,0.8101,5.4902,3.2197l0,0
			c0.6201,2.4004-0.8105,4.8604-3.2207,5.4902l0,0c-0.3799,0.1001-0.7598,0.1499-1.1396,0.1499l0,0
			C428.9697,190.0298,427.1494,188.6899,426.6201,186.6597z M44.3296,177.25c-2.3599-0.79-3.6396-3.3301-2.8496-5.6899l0,0
			c0.7798-2.3604,3.3301-3.6401,5.6899-2.8501l0,0c2.3599,0.7798,3.6299,3.3301,2.8501,5.6899l0,0
			c-0.6304,1.8901-2.3901,3.0801-4.27,3.0801l0,0C45.2798,177.48,44.7998,177.4097,44.3296,177.25z M418.6895,162.7598
			L418.6895,162.7598L418.6895,162.7598c-0.9297-2.2998,0.1807-4.9302,2.4805-5.8599l0,0c2.2998-0.9302,4.9297,0.1797,5.8604,2.48
			l0,0c0.9395,2.2998-0.1807,4.9302-2.4805,5.8599l0,0c-0.5498,0.2202-1.1201,0.3301-1.6904,0.3301l0,0
			C421.0801,165.5698,419.3994,164.5098,418.6895,162.7598z M53.48,153.1699c-2.2402-1.0801-3.1699-3.77-2.0903-6.0103l0,0
			c1.0801-2.23,3.77-3.1699,6.0103-2.0898l0,0c2.2397,1.0801,3.1699,3.77,2.0898,6.0098l0,0c-0.7798,1.6104-2.3799,2.54-4.0601,2.54
			l0,0C54.7798,153.6196,54.1099,153.48,53.48,153.1699z M407.75,140.0796L407.75,140.0796L407.75,140.0796
			c-1.2197-2.1699-0.46-4.9097,1.71-6.1396l0,0c2.1602-1.2202,4.9102-0.4502,6.1299,1.71l0,0c1.2197,2.1699,0.46,4.9102-1.71,6.1299
			l0,0c-0.7002,0.3999-1.46,0.5898-2.21,0.5898l0,0C410.0996,142.3696,408.5801,141.54,407.75,140.0796z M65.6499,130.4897
			c-2.0898-1.3599-2.6699-4.1499-1.3101-6.23l0,0c1.3599-2.0801,4.1499-2.6699,6.23-1.3101l0,0
			c2.0801,1.3604,2.6602,4.1499,1.2998,6.23l0,0l0,0l0,0c-0.8599,1.3203-2.2998,2.04-3.77,2.04l0,0
			C67.2598,131.2197,66.3999,130.98,65.6499,130.4897z M394,118.98c-1.4902-1.9902-1.0801-4.8101,0.9102-6.29l0,0
			c1.9893-1.4902,4.8096-1.0903,6.29,0.9097l0,0c1.4893,1.9902,1.0801,4.8101-0.9102,6.29l0,0
			c-0.7998,0.6104-1.75,0.9004-2.6904,0.9004l0,0C396.2295,120.79,394.8799,120.1699,394,118.98z M80.6099,109.5298
			c-1.8901-1.6099-2.1099-4.4502-0.5-6.3398l0,0c1.6099-1.8901,4.4502-2.1201,6.3398-0.5l0,0
			c1.8901,1.6099,2.1201,4.4497,0.5103,6.3398l0,0c-0.8901,1.04-2.1602,1.5801-3.4302,1.5801l0,0
			C82.5,110.6099,81.46,110.25,80.6099,109.5298z M377.6699,99.8198c-1.7305-1.79-1.6904-4.6401,0.0996-6.3701l0,0
			c1.7803-1.73,4.6299-1.6797,6.3604,0.1104l0,0c1.7295,1.7798,1.6797,4.6299-0.0996,6.3599l0,0c-0.8809,0.8398-2,1.27-3.1309,1.27
			l0,0C379.7197,101.1899,378.5498,100.73,377.6699,99.8198z M98.1299,90.6499c-1.6699-1.8398-1.54-4.6899,0.3101-6.3599l0,0
			c1.8398-1.6704,4.6797-1.5303,6.3501,0.3096l0,0c1.6699,1.8403,1.5298,4.6904-0.3101,6.3604l0,0
			c-0.8604,0.7798-1.9399,1.1597-3.02,1.1597l0,0C100.2397,92.1196,99.02,91.6299,98.1299,90.6499z M359.04,82.8799
			c-1.9404-1.5503-2.2598-4.3799-0.71-6.3198l0,0c1.5498-1.9404,4.3799-2.2603,6.3193-0.7104l0,0
			c1.9502,1.5503,2.2607,4.3804,0.71,6.3301l0,0c-0.8896,1.1104-2.1895,1.6899-3.5195,1.6899l0,0
			C360.8594,83.8696,359.8701,83.54,359.04,82.8799z M117.8999,74.1396c-1.4199-2.04-0.9199-4.8398,1.1201-6.2598l0,0
			c2.04-1.4302,4.8398-0.9302,6.2598,1.1099l0,0c1.4302,2.04,0.9302,4.8398-1.1099,6.27l0,0l0,0l0,0
			c-0.7803,0.54-1.6802,0.8101-2.5703,0.8101l0,0C120.1797,76.0698,118.7798,75.3999,117.8999,74.1396z M338.4102,68.46
			L338.4102,68.46L338.4102,68.46c-2.1201-1.29-2.8008-4.0601-1.5107-6.1802l0,0c1.29-2.1201,4.0605-2.7998,6.1807-1.5098l0,0
			c2.1299,1.29,2.7998,4.0596,1.5098,6.1899l0,0c-0.8398,1.3896-2.3301,2.1597-3.8496,2.1597l0,0
			C339.9502,69.1196,339.1396,68.9097,338.4102,68.46z M139.6299,60.29c-1.1499-2.2104-0.3003-4.9204,1.9102-6.0703l0,0
			c2.1997-1.1499,4.9199-0.2998,6.0698,1.8999l0,0c1.1499,2.21,0.29,4.9204-1.9102,6.0801l0,0l0,0l0,0
			c-0.6597,0.3403-1.3799,0.5103-2.0801,0.5103l0,0C142,62.71,140.4297,61.8296,139.6299,60.29z M316.1201,56.7998
			c-2.2705-1-3.3008-3.6602-2.29-5.9399l0,0c1.0098-2.27,3.6699-3.29,5.9395-2.2803l0,0c2.2705,1,3.2998,3.6602,2.29,5.9302l0,0
			c-0.75,1.6802-2.3896,2.6802-4.1201,2.6802l0,0C317.3301,57.1899,316.71,57.0698,316.1201,56.7998z M162.9497,49.3296
			c-0.8501-2.3296,0.3403-4.9199,2.6802-5.7798l0,0c2.3301-0.8501,4.9102,0.3398,5.77,2.6802l0,0
			c0.8599,2.3301-0.3398,4.9199-2.6699,5.77l0,0c-0.5103,0.1899-1.04,0.2798-1.5503,0.2798l0,0
			C165.3398,52.2798,163.6196,51.1499,162.9497,49.3296z M292.5,48.0996c-2.3799-0.71-3.7402-3.21-3.0303-5.5898l0,0
			c0.71-2.3901,3.21-3.75,5.5898-3.04l0,0c2.3906,0.71,3.75,3.21,3.04,5.6001l0,0c-0.5801,1.9502-2.3701,3.2202-4.3096,3.2202l0,0
			C293.3594,48.29,292.9297,48.23,292.5,48.0996z M187.5,41.4697c-0.5503-2.4297,0.9697-4.8398,3.3896-5.3901l0,0
			c2.4302-0.5498,4.8403,0.9702,5.3901,3.4004l0,0c0.5498,2.4199-0.9697,4.8301-3.3999,5.3799l0,0
			c-0.3301,0.0801-0.6699,0.1099-1,0.1099l0,0C189.8296,44.9697,187.9697,43.5498,187.5,41.4697z M267.96,42.5098
			c-2.4502-0.3999-4.1201-2.6997-3.7197-5.1602l0,0c0.3896-2.4497,2.6992-4.1196,5.1494-3.73l0,0
			c2.46,0.4004,4.1299,2.71,3.7305,5.1602l0,0c-0.3506,2.21-2.2705,3.79-4.4404,3.79l0,0
			C268.4395,42.5698,268.2002,42.5498,267.96,42.5098z M212.8296,36.8296c-0.23-2.4697,1.5801-4.6699,4.0601-4.8999l0,0
			c2.4702-0.2397,4.6704,1.5801,4.9004,4.0503l0,0c0.2397,2.48-1.5801,4.6699-4.0503,4.9097l0,0
			c-0.1499,0.0103-0.29,0.02-0.4297,0.02l0,0C215.0098,40.9097,213.0498,39.1597,212.8296,36.8296z M242.8994,40.0996
			c0,0,0,0,0,0.0103l0,0c-2.4795-0.0801-4.4297-2.1602-4.3496-4.6499l0,0c0.0801-2.48,2.1602-4.4302,4.6396-4.3501l0,0
			c2.4902,0.0801,4.4307,2.1602,4.3506,4.6401l0,0c-0.0703,2.4399-2.0703,4.3599-4.4902,4.3599l0,0
			C243,40.1099,242.9502,40.1099,242.8994,40.0996z"/>
	</g>
</g>
</svg>
