<?xml version="1.0" encoding="utf-8"?>
<!-- Generator: Adobe Illustrator 21.0.0, SVG Export Plug-In . SVG Version: 6.00 Build 0)  -->
<svg version="1.1" id="Circle_with_Cutout_Border_Line"
	 xmlns="http://www.w3.org/2000/svg" xmlns:xlink="http://www.w3.org/1999/xlink" x="0px" y="0px" viewBox="0 0 500 500"
	 enable-background="new 0 0 500 500" xml:space="preserve">
<g id="change1">
	<path fill="#FD5B03" d="M250,60.4414C145.4771,60.4414,60.4414,145.4771,60.4414,250
		c0,104.5225,85.0356,189.5586,189.5586,189.5586c104.5225,0,189.5586-85.0361,189.5586-189.5586
		C439.5586,145.4771,354.5225,60.4414,250,60.4414z"/>
	<path fill="#FD5B03" d="M250,0C111.9288,0,0,111.9288,0,250s111.9288,250,250,250s250-111.9288,250-250S388.0712,0,250,0z
		 M477.1396,223.4697c0.3203,2.7402-1.6494,5.2202-4.3896,5.54c-0.2002,0.02-0.3906,0.0303-0.5801,0.0303
		c-2.5098,0-4.6699-1.8804-4.96-4.4204c-0.3203-2.75,1.6494-5.23,4.3896-5.54
		C474.3398,218.7598,476.8301,220.7197,477.1396,223.4697z M472.5596,197.2798c0.6299,2.6899-1.0293,5.3799-3.7197,6.0103
		c-0.3896,0.0996-0.7705,0.1396-1.1504,0.1396c-2.2695,0-4.3193-1.5498-4.8701-3.8501c-0.6299-2.6899,1.0303-5.3799,3.7207-6.0195
		C469.2295,192.9297,471.9199,194.5898,472.5596,197.2798z M458.5303,168.7998c2.5996-0.9399,5.46,0.3901,6.4092,2.9902
		c0.9404,2.5996-0.3896,5.46-2.9893,6.4097c-0.5605,0.2002-1.1406,0.3003-1.71,0.3003c-2.04,0-3.96-1.2603-4.7002-3.29
		C454.5996,172.6196,455.9395,169.75,458.5303,168.7998z M434.1494,122.9199c2.3105-1.52,5.4102-0.8799,6.9307,1.4297
		c1.5195,2.3003,0.8799,5.4004-1.4307,6.9204c-0.8398,0.5596-1.7998,0.8296-2.7393,0.8296c-1.6299,0-3.2207-0.7896-4.1807-2.25
		C431.21,127.54,431.8496,124.4399,434.1494,122.9199z M418.1396,102.4199c2.1201-1.7803,5.2705-1.5,7.0498,0.6099
		c1.7705,2.1201,1.5,5.27-0.6201,7.0498c-0.9297,0.7803-2.0693,1.1704-3.21,1.1704c-1.4297,0-2.8398-0.6104-3.8291-1.79
		C415.75,107.3496,416.0303,104.1899,418.1396,102.4199z M399.8701,83.8999c1.8994-2.0103,5.0693-2.1001,7.0693-0.2002
		c2.0107,1.8901,2.1006,5.0601,0.21,7.0601c-0.9893,1.0503-2.3096,1.5698-3.6396,1.5698c-1.2295,0-2.4697-0.4497-3.4297-1.3599
		C398.0693,89.0698,397.9795,85.9097,399.8701,83.8999z M379.5996,67.6196c1.6504-2.2197,4.7803-2.6699,6.9902-1.02
		c2.2197,1.6504,2.6699,4.7803,1.0195,7c-0.9795,1.3101-2.4893,2-4.0098,2c-1.04,0-2.0898-0.3198-2.9902-0.9897
		C378.3994,72.96,377.9395,69.8296,379.5996,67.6196z M357.5693,53.79c1.3906-2.3901,4.4404-3.2104,6.8301-1.8203
		c2.3906,1.3799,3.21,4.4399,1.8301,6.8301c-0.9297,1.6001-2.6094,2.5-4.3398,2.5c-0.8496,0-1.71-0.2202-2.5-0.6802
		c0,0,0,0,0.0098,0C357,59.2397,356.1895,56.1797,357.5693,53.79z M334.0996,42.6196c1.0898-2.5298,4.04-3.6997,6.5703-2.5996
		c2.5303,1.0898,3.7002,4.0298,2.5996,6.5698c-0.8096,1.8901-2.6494,3.02-4.5898,3.02c-0.6602,0-1.3301-0.1401-1.9795-0.4102
		C334.1699,48.0996,333,45.1597,334.0996,42.6196z M309.46,34.27c0.7998-2.6504,3.5801-4.1504,6.2295-3.3604
		c2.6406,0.79,4.1504,3.5801,3.3506,6.2202c-0.6406,2.1699-2.6299,3.5698-4.7803,3.5698c-0.4795,0-0.96-0.0698-1.4404-0.21
		C310.1797,39.6997,308.6699,36.9097,309.46,34.27z M284.0195,28.8496c0.4805-2.7197,3.0703-4.5396,5.79-4.0596
		c2.7207,0.48,4.54,3.0698,4.0605,5.7896c-0.4199,2.4302-2.5303,4.1304-4.9199,4.1304c-0.2803,0-0.5703-0.02-0.8701-0.0703
		c0,0,0,0,0.0098,0C285.3594,34.1597,283.5498,31.5698,284.0195,28.8496z M263.4102,21.7197
		c2.7598,0.1602,4.8594,2.52,4.6992,5.2803c-0.1494,2.6597-2.3496,4.71-4.9795,4.71c-0.0996,0-0.2002,0-0.2998-0.0103
		c-2.7607-0.1499-4.8604-2.52-4.7002-5.27C258.29,23.6699,260.6494,21.5601,263.4102,21.7197z M236.8296,21.71
		c2.7603-0.1602,5.1201,1.9497,5.2803,4.71c0.1602,2.75-1.9502,5.1099-4.71,5.27c-0.0898,0.0098-0.1899,0.0098-0.29,0.0098
		c-2.6299,0-4.8301-2.0601-4.98-4.7197C231.9697,24.23,234.0796,21.8599,236.8296,21.71z M210.4297,24.75
		c2.7202-0.48,5.3101,1.3398,5.7803,4.0601c0.48,2.7197-1.3403,5.3096-4.0703,5.7896c-0.29,0.0503-0.5796,0.0703-0.8599,0.0703
		c-2.3799,0-4.4897-1.71-4.9199-4.1401C205.8896,27.8101,207.71,25.2197,210.4297,24.75z M184.5498,30.8398
		c2.6401-0.79,5.4302,0.7202,6.2202,3.3599c0.7798,2.6499-0.7202,5.4302-3.3701,6.2202c-0.4702,0.1499-0.9502,0.21-1.4199,0.21
		c-2.1602,0-4.1504-1.3999-4.8003-3.5698C180.3896,34.4199,181.8999,31.6299,184.5498,30.8398z M159.54,39.9199
		c2.5396-1.0903,5.48,0.0801,6.5698,2.6201c1.1001,2.5298-0.0698,5.4697-2.6099,6.5698c-0.6401,0.27-1.3101,0.4102-1.98,0.4102
		c-1.9302,0-3.77-1.1304-4.5903-3.02C155.8398,43.96,157.0098,41.02,159.54,39.9199z M135.7798,51.8599
		c2.3901-1.3799,5.4399-0.5601,6.8301,1.8301c1.3799,2.3896,0.5601,5.4497-1.8301,6.8301c-0.79,0.46-1.6499,0.6699-2.5,0.6699
		c-1.73,0-3.4102-0.8901-4.3301-2.5C132.5698,56.2998,133.3799,53.2397,135.7798,51.8599z M113.5601,66.48
		c2.2197-1.6504,5.3496-1.1899,7,1.0298c1.6499,2.21,1.1899,5.3398-1.02,6.9902c-0.9004,0.6699-1.9502,0.9897-2.9902,0.9897
		c-1.52,0-3.0298-0.6997-4.0098-2.0098C110.8896,71.2598,111.3496,68.1299,113.5601,66.48z M93.1899,83.5698
		c2.0098-1.8999,5.1797-1.7998,7.0698,0.21c1.8999,2.0103,1.8003,5.1699-0.21,7.0601C99.0796,91.75,97.8496,92.21,96.6196,92.21
		c-1.3296,0-2.6499-0.5303-3.6396-1.5801C91.0898,88.6299,91.1797,85.46,93.1899,83.5698z M74.9399,102.8896
		c1.77-2.1196,4.9199-2.3896,7.04-0.6099c2.1099,1.7803,2.3896,4.9302,0.6099,7.04c-0.9902,1.1802-2.4102,1.7798-3.8301,1.7798
		c-1.1401,0-2.2798-0.3799-3.2197-1.1699C73.4297,108.1499,73.1597,105,74.9399,102.8896z M59.0298,124.1797
		c1.52-2.2998,4.6201-2.9399,6.9302-1.4199c2.2998,1.5303,2.9399,4.6299,1.4199,6.9302c-0.96,1.46-2.5601,2.25-4.1802,2.25
		c-0.9497,0-1.8999-0.27-2.75-0.8301C58.1396,129.5898,57.5098,126.48,59.0298,124.1797z M45.6997,147.1699
		c1.25-2.46,4.25-3.4502,6.7202-2.21c2.46,1.2397,3.46,4.25,2.21,6.7197c-0.8799,1.7402-2.6401,2.75-4.4702,2.75
		c-0.75,0-1.52-0.1797-2.2397-0.54C45.4497,152.6396,44.46,149.6396,45.6997,147.1699z M27.5,197.04
		c0.6299-2.6802,3.3296-4.3501,6.02-3.7104c2.6797,0.6401,4.3496,3.3301,3.71,6.02c-0.5503,2.3003-2.6001,3.8501-4.8604,3.8501
		c-0.3896,0-0.77-0.0498-1.1597-0.1396C28.52,202.4199,26.8599,199.73,27.5,197.04z M22.8896,223.23
		c0.3203-2.75,2.8003-4.71,5.54-4.3901c2.7402,0.3198,4.71,2.7998,4.3901,5.54c-0.2998,2.5498-2.46,4.4199-4.96,4.4199
		c-0.1899,0-0.3901-0.0098-0.5898-0.0298C24.5298,228.4497,22.5601,225.9697,22.8896,223.23z M21.3296,249.7598
		c0.0103-2.7598,2.25-5,5.0103-5c2.7598,0,5,2.25,4.9897,5.0103c0,2.7603-2.2397,4.9897-5,4.9897
		C23.5698,254.7598,21.3296,252.5195,21.3296,249.7598z M22.8296,276.29c-0.3096-2.7402,1.6504-5.2207,4.4004-5.54
		c2.7397-0.3105,5.2197,1.6602,5.5298,4.3994c0.3198,2.75-1.6499,5.2207-4.3901,5.54c-0.1997,0.0205-0.3896,0.0303-0.5796,0.0303
		C25.29,280.7197,23.1196,278.8398,22.8296,276.29z M32.25,306.3398c-2.27,0-4.3203-1.5596-4.8604-3.8604
		c-0.6396-2.6895,1.0303-5.3799,3.7202-6.0098s5.3799,1.04,6.0098,3.7305c0,0,0,0,0-0.0107
		c0.6304,2.6904-1.0298,5.3799-3.7197,6.0205C33.0098,306.2998,32.6299,306.3398,32.25,306.3398z M41.3799,330.9795
		c-0.5601,0.2002-1.1401,0.3008-1.7002,0.3008c-2.0498,0-3.9697-1.2705-4.6997-3.3008c-0.9502-2.5898,0.3999-5.46,2.9897-6.4102
		c2.6001-0.9297,5.4702,0.4004,6.4102,3C45.3198,327.1699,43.98,330.04,41.3799,330.9795z M44.5298,175
		c-0.7397,2.0298-2.6499,3.29-4.7002,3.29c-0.5596,0-1.1396-0.1001-1.71-0.3003c-2.5898-0.9497-3.9297-3.8198-2.98-6.4199
		c0.9399-2.5898,3.8203-3.9199,6.4102-2.98C44.1396,169.54,45.48,172.4097,44.5298,175z M52.21,354.6396
		c-0.7202,0.3604-1.4902,0.5303-2.2402,0.5303c-1.8301,0-3.6001-1.0098-4.4697-2.7598c-1.2402-2.4707-0.25-5.4707,2.2197-6.71
		c2.4702-1.2402,5.48-0.2402,6.71,2.2295C55.6699,350.3994,54.6699,353.3994,52.21,354.6396z M65.71,376.8799
		c-0.8403,0.5498-1.8003,0.8203-2.7402,0.8203c-1.6299,0-3.2197-0.79-4.1797-2.25c-1.52-2.3105-0.8804-5.4102,1.4297-6.9307
		c2.3101-1.5098,5.4102-0.8701,6.9199,1.4404C68.6597,372.2598,68.02,375.3594,65.71,376.8799z M81.6997,397.3994
		c-0.9399,0.79-2.0801,1.1699-3.21,1.1699c-1.4297,0-2.8501-0.6094-3.8301-1.7891c-1.7798-2.1104-1.5-5.2705,0.6104-7.04
		c2.1196-1.7803,5.2798-1.5,7.0498,0.6191C84.0898,392.4697,83.8198,395.6299,81.6997,397.3994z M99.9497,415.9395
		c-0.9897,1.04-2.3101,1.5605-3.6396,1.5605c-1.2305,0-2.4702-0.4502-3.4302-1.3604c-2.0103-1.8994-2.0898-5.0703-0.2002-7.0703
		c1.8999-2.0098,5.0703-2.0996,7.0703-0.1992C101.7598,410.7695,101.8496,413.9297,99.9497,415.9395z M120.21,432.2402
		c-0.98,1.3193-2.4902,2.0098-4.0103,2.0098c-1.04,0-2.0898-0.3203-2.9897-0.9902c-2.21-1.6602-2.6602-4.79-1.0103-7
		c1.6602-2.21,4.79-2.6699,7-1.0098C121.4097,426.8994,121.8599,430.0303,120.21,432.2402z M142.2197,446.0898
		c-0.9297,1.5996-2.6099,2.5-4.3301,2.5c-0.8496,0-1.7197-0.2197-2.5-0.6797c-2.3896-1.3906-3.21-4.4502-1.8198-6.8408
		c1.3901-2.3799,4.4502-3.1992,6.8301-1.8096C142.79,440.6494,143.5996,443.71,142.2197,446.0898z M165.6797,457.29
		c-0.8198,1.8799-2.6597,3.0098-4.5898,3.0098c-0.6602,0-1.3398-0.1299-1.98-0.4102c-2.54-1.0996-3.7002-4.0498-2.6001-6.5801
		c1.1001-2.5293,4.04-3.7002,6.5801-2.5996C165.6196,451.8096,166.7798,454.7598,165.6797,457.29z M190.3101,465.6699
		c-0.6504,2.1602-2.6401,3.5596-4.79,3.5596c-0.48,0-0.96-0.0693-1.4404-0.21c-2.6396-0.7998-4.1396-3.5801-3.3496-6.2295
		c0.79-2.6406,3.5801-4.1406,6.23-3.3506C189.5996,460.2402,191.0996,463.0303,190.3101,465.6699z M215.7397,471.1094
		c-0.4297,2.4307-2.54,4.1309-4.9199,4.1309c-0.29,0-0.5801-0.0205-0.8701-0.0703c-2.7197-0.4805-4.54-3.0801-4.0601-5.79
		c0.48-2.7197,3.0801-4.54,5.8003-4.0605C214.4097,465.7998,216.2197,468.3994,215.7397,471.1094z M236.6499,478.2695
		c-0.1001,0-0.2002,0-0.3003,0c-2.7598-0.1699-4.8599-2.5293-4.6997-5.29c0.1602-2.7598,2.5298-4.8594,5.2798-4.6992
		c2.7603,0.1592,4.8604,2.5293,4.7002,5.2891C241.48,476.2197,239.27,478.2695,236.6499,478.2695z M262.9199,478.3096
		c-0.0898,0-0.1797,0-0.2803,0c-2.6299,0-4.8398-2.0498-4.9902-4.7197c-0.1494-2.75,1.96-5.1104,4.7207-5.2705
		c2.75-0.1494,5.1094,1.9609,5.2695,4.7207C267.79,475.79,265.6797,478.1494,262.9199,478.3096z M289.3301,475.2998
		c-0.2803,0.0498-0.5703,0.0703-0.8506,0.0703c-2.3896,0-4.5098-1.7207-4.9297-4.1504c-0.4697-2.7197,1.3496-5.3096,4.0703-5.7803
		c2.7295-0.4697,5.3096,1.3506,5.79,4.0703C293.8799,472.2295,292.0596,474.8193,289.3301,475.2998z M315.2197,469.2295
		c-0.4697,0.1406-0.9502,0.21-1.4199,0.21c-2.1602,0-4.1504-1.4092-4.7998-3.5801c-0.7803-2.6494,0.7295-5.4297,3.3701-6.2197
		c2.6494-0.7803,5.4297,0.7197,6.2197,3.3701S317.8701,468.4395,315.2197,469.2295z M340.2295,460.1699
		c-0.6396,0.2803-1.3096,0.4102-1.9697,0.4102c-1.9404,0-3.7803-1.1406-4.5898-3.0303c-1.0898-2.5303,0.0801-5.4805,2.6104-6.5703
		c2.5391-1.0898,5.4795,0.0898,6.5693,2.6201C343.9395,456.1396,342.7695,459.0801,340.2295,460.1699z M364.0098,448.2598
		c-0.7803,0.4502-1.6396,0.6699-2.4902,0.6699c-1.7295,0-3.4102-0.8994-4.3301-2.5098c-1.3799-2.3896-0.5596-5.4502,1.8301-6.8301
		c2.3906-1.3799,5.4502-0.5498,6.8301,1.8398S366.4102,446.8799,364.0098,448.2598z M386.2402,433.6602
		c-0.8906,0.6699-1.9404,0.9893-2.9707,0.9893c-1.5293,0-3.04-0.6992-4.0195-2.0195c-1.6504-2.2197-1.1904-5.3496,1.0303-6.9902
		c2.21-1.6494,5.3496-1.1895,6.9893,1.0303C388.9199,428.8799,388.46,432.0195,386.2402,433.6602z M406.6299,416.5996
		c-0.9697,0.9102-2.2002,1.3604-3.4297,1.3604c-1.3301,0-2.6602-0.5303-3.6406-1.5801c-1.8896-2.0098-1.79-5.1699,0.2207-7.0703
		c0,0,0,0,0,0.0098c2.0098-1.8994,5.1699-1.7998,7.0693,0.2109C408.7402,411.54,408.6396,414.71,406.6299,416.5996z
		 M424.9102,397.2998c-0.9902,1.1699-2.4004,1.7803-3.8301,1.7803c-1.1406,0-2.2803-0.3906-3.2207-1.1807
		c-2.1094-1.7793-2.3799-4.9395-0.5996-7.0498c1.7803-2.1094,4.9404-2.3799,7.0498-0.5996
		C426.4199,392.0303,426.6895,395.1895,424.9102,397.2998z M250,449.5586c-110.0371,0-199.5586-89.5215-199.5586-199.5586
		S139.9629,50.4414,250,50.4414S449.5586,139.9629,449.5586,250S360.0371,449.5586,250,449.5586z M440.8301,376.0195
		c-0.96,1.46-2.5498,2.2402-4.1699,2.2402c-0.9502,0-1.9102-0.2695-2.75-0.8301c-2.3105-1.5195-2.9404-4.6299-1.4102-6.9297
		c1.5195-2.2998,4.6201-2.9307,6.9199-1.4102C441.7295,370.6094,442.3594,373.7197,440.8301,376.0195z M454.1895,353.04
		c-0.8799,1.7402-2.6396,2.75-4.4697,2.75c-0.7598,0-1.5303-0.1807-2.25-0.54c-2.4697-1.25-3.4502-4.2598-2.21-6.7197
		c1.25-2.4609,4.2598-3.4502,6.7197-2.2109C454.4395,347.5693,455.4297,350.5801,454.1895,353.04z M452.1797,154.0796
		c-0.7295,0.3701-1.4902,0.54-2.25,0.54c-1.8301,0-3.5898-1.0098-4.4697-2.7598c-1.2402-2.46-0.25-5.4702,2.2197-6.71
		c2.4697-1.2402,5.4697-0.25,6.71,2.2197C455.6299,149.8398,454.6396,152.8398,452.1797,154.0796z M464.7803,328.6494
		c-0.7402,2.0303-2.6602,3.2803-4.7002,3.2803c-0.5703,0-1.1504-0.0898-1.7207-0.2998c-2.5898-0.9502-3.9199-3.8203-2.9697-6.4199
		c0.9502-2.5898,3.8203-3.9199,6.4102-2.9697C464.3994,323.1895,465.7295,326.0596,464.7803,328.6494z M472.4502,303.1895
		c-0.5508,2.3008-2.6006,3.8506-4.8604,3.8408c-0.3896,0-0.7803-0.04-1.1699-0.1309c-2.6797-0.6396-4.3398-3.3398-3.7002-6.0195
		c0,0,0,0,0-0.0098c0.6396-2.6807,3.3301-4.3398,6.0205-3.7002C471.4297,297.8096,473.0898,300.5098,472.4502,303.1895z
		 M477.0898,277.0195c-0.2998,2.54-2.4697,4.4102-4.9697,4.4102c-0.1904,0-0.3906-0.0098-0.5898-0.0303
		c-2.7402-0.3301-4.7002-2.8096-4.3809-5.5498c0.3301-2.75,2.8105-4.71,5.5605-4.3896
		C475.4502,271.79,477.4102,274.2695,477.0898,277.0195z M478.6602,250.4897c0,2.7505-2.2402,4.9897-5,4.9897c0,0,0,0-0.0107,0
		c-2.7598-0.0098-4.9893-2.25-4.9795-5.0195c0-0.0703,0-0.1499,0-0.2202c0-0.0801,0-0.1602,0-0.2397c0-2.7603,2.2295-5,5-5
		c2.7598,0,4.9902,2.2397,4.9902,5h0.0098c0,0.0898-0.0098,0.1699-0.0098,0.2598
		C478.6602,250.3296,478.6602,250.4097,478.6602,250.4897z"/>
</g>
</svg>
