<?xml version="1.0" encoding="utf-8"?>
<!-- Generator: Adobe Illustrator 21.0.0, SVG Export Plug-In . SVG Version: 6.00 Build 0)  -->
<svg version="1.1" id="_Award-Shape" xmlns="http://www.w3.org/2000/svg" xmlns:xlink="http://www.w3.org/1999/xlink" x="0px"
	 y="0px" viewBox="0 0 489.254 487.4589" enable-background="new 0 0 489.254 487.4589" xml:space="preserve">
<g id="P"><circle fill="#F9B8AF" cx="244.6274" cy="243.7294" r="166.7525"/>
</g>
	<g id="change2">
		<path fill="#ffc952" d="M484.3954,242.374l-31-36l18-46l-41-27v-48l-48.5-6.5l-17.5-48.5l-48,9l-31-36l-42,22l-40-25l-32,40l-50-9
			l-15,47l-50,7l2,52l-42,20l16,49l-31,36l32,38l-16,47l40,22v50l50,11l16,45l49-8l29,36l43-25l43,25l31-39l48,11l15-46l48-10v-50
			l44-24l-20-44L484.3954,242.374z M244.3954,408.879c-94.017,0-165.505-71.486-165.505-165.505
			c0-94.017,71.988-168.5,166.005-168.5s165.005,74.483,165.005,168.5C409.9004,337.393,338.4124,408.879,244.3954,408.879z"/>
	</g>
	<g id="change1">
		<path fill="#EA5A42" d="M276.9006,485.2287l-24.4339-15.1136c-4.8051-2.9722-10.8775-2.9722-15.6826-0.0002l-24.4356,15.1139
			c-6.4658,3.9992-14.9053,2.4916-19.5865-3.4989l-17.7018-22.6525c-3.4719-4.4429-9.1535-6.5464-14.6816-5.4358l-28.1937,5.6646
			c-7.4458,1.496-14.826-2.8452-17.1361-10.08l-8.7342-27.3526c-1.7214-5.3909-6.3471-9.3422-11.9408-10.1998l-28.4056-4.3552
			c-7.4907-1.1485-12.9275-7.7345-12.6362-15.3071l1.1042-28.7038c0.2178-5.6607-2.792-10.9556-7.7672-13.6646l-25.228-13.7361
			c-6.6562-3.6242-9.5335-11.666-6.6869-18.6901l10.7832-26.6086c2.1302-5.2564,1.0928-11.2662-2.6762-15.5044L3.7675,253.6346
			c-5.0237-5.649-5.0233-14.164,0.0008-19.8126l19.0941-21.4671c3.7697-4.2382,4.8074-10.2486,2.677-15.5054l-10.7826-26.6067
			c-2.8466-7.0241,0.0306-15.066,6.6869-18.6902l25.2279-13.736c4.9752-2.7089,7.985-8.0038,7.7672-13.6646l-1.1042-28.7035
			c-0.2913-7.5727,5.1457-14.1588,12.6365-15.3072l28.4048-4.3545c5.594-0.8576,10.2199-4.809,11.9412-10.2002l8.7345-27.3555
			c2.3101-7.235,9.6905-11.5764,17.1365-10.0802l28.1941,5.6651c5.5282,1.1108,11.2099-0.9928,14.6818-5.4358L192.765,5.7288
			c4.6812-5.9905,13.1207-7.4981,19.5865-3.4989l24.4348,15.1132c4.805,2.9719,10.8772,2.9719,15.6822,0l24.4348-15.1132
			c6.4658-3.9992,14.9052-2.4915,19.5865,3.4989l17.7008,22.6513c3.472,4.443,9.1537,6.5466,14.6819,5.4358l28.1941-5.6651
			c7.446-1.4961,14.8264,2.8452,17.1365,10.0802l8.7344,27.3554c1.7214,5.3913,6.3474,9.3427,11.9414,10.2002l28.4083,4.3547
			c7.491,1.1483,12.9281,7.7346,12.6367,15.3075l-1.1047,28.7044c-0.2179,5.6606,2.7917,10.9555,7.7667,13.6646l25.2249,13.7356
			c6.656,3.6244,9.533,11.6662,6.6864,18.69l-10.7825,26.6059c-2.1305,5.2569-1.0927,11.2675,2.6771,15.5057l19.0938,21.4662
			c5.0246,5.6489,5.0247,14.1647,0.0002,19.8137l-19.0941,21.467c-3.7697,4.2383-4.8074,10.2487-2.6769,15.5056l10.7835,26.608
			c2.8466,7.0239-0.0303,15.0656-6.6862,18.69l-25.226,13.7365c-4.975,2.7091-7.9845,8.004-7.7666,13.6646l1.1047,28.7006
			c0.2915,7.5728-5.1455,14.159-12.6364,15.3075l-28.4088,4.3553c-5.5939,0.8576-10.2198,4.809-11.9411,10.2002l-8.7346,27.3559
			c-2.3101,7.2349-9.6902,11.5762-17.1362,10.0803l-28.1948-5.6646c-5.5279-1.1106-11.2094,0.9928-14.6813,5.4355l-17.7036,22.6533
			C291.8057,487.7207,283.3663,489.2281,276.9006,485.2287z M179.1421,448.0601l15.9828,20.4542
			c4.6812,5.9908,13.121,7.4986,19.587,3.4992l22.072-13.6523c4.8052-2.9722,10.8777-2.9721,15.6829,0.0002l22.07,13.6517
			c6.466,3.9996,14.906,2.4919,19.5873-3.499l15.9821-20.4533c3.4721-4.4435,9.1545-6.5472,14.6832-5.4359l25.4675,5.1191
			c7.4463,1.4967,14.8273-2.8446,17.1375-10.08l7.8969-24.7321c1.7215-5.3915,6.3477-9.343,11.9421-10.2003l25.7085-3.9397
			c7.4911-1.148,12.9286-7.7341,12.6374-15.3071l-0.9994-25.9871c-0.2177-5.6606,2.792-10.9554,7.7672-13.6643l22.8408-12.4364
			c6.656-3.6241,9.5332-11.6655,6.6872-18.6894l-9.7635-24.096c-2.1299-5.2564-1.0923-11.2661,2.6768-15.5041l17.3111-19.4645
			c5.0237-5.6487,5.0238-14.1635,0.0001-19.8122l-17.3113-19.4653c-3.769-4.238-4.8065-10.2476-2.6766-15.504l9.7638-24.096
			c2.8459-7.0235-0.0308-15.0645-6.686-18.6889l-22.8423-12.4397c-4.9745-2.7091-7.9838-8.0036-7.7661-13.6638l0.9995-25.9884
			c0.2912-7.5728-5.1458-14.1588-12.6367-15.307l-25.7098-3.9409c-5.594-0.8575-10.2199-4.8088-11.9414-10.1999l-7.8981-24.7342
			c-2.3102-7.2348-9.6904-11.5759-17.1362-10.0799L324.7887,44.84c-5.5283,1.1107-11.2101-0.993-14.682-5.4362l-15.982-20.4533
			c-4.6811-5.9908-13.1208-7.4986-19.5867-3.4994l-22.0714,13.6512c-4.805,2.9719-10.8773,2.9718-15.6823-0.0002l-22.0727-13.6527
			c-6.4659-3.9994-14.9055-2.4917-19.5868,3.4989L179.1432,39.4c-3.4719,4.4431-9.1538,6.5467-14.682,5.4359l-25.4699-5.1179
			c-7.446-1.4962-14.8264,2.8452-17.1365,10.0802l-7.8974,24.7336c-1.7214,5.3912-6.3472,9.3425-11.9412,10.2001L76.306,88.6734
			c-7.4908,1.1484-12.9277,7.7343-12.6365,15.307l0.9994,25.9878c0.2177,5.6607-2.7921,10.9556-7.7673,13.6644l-22.8389,12.4351
			c-6.6563,3.6242-9.5336,11.6661-6.687,18.6902l9.7646,24.0946c2.1304,5.2568,1.0927,11.2672-2.677,15.5054l-17.3127,19.4644
			c-5.0244,5.6488-5.0244,14.1644-0.0001,19.8133l17.3129,19.4652c3.7696,4.2383,4.8072,10.2486,2.6767,15.5054l-9.7644,24.093
			c-2.8467,7.0239,0.0303,15.0658,6.6864,18.6902l22.8397,12.4366c4.975,2.709,7.9846,8.0039,7.7668,13.6645l-1,25.9874
			c-0.2914,7.5729,5.1457,14.1591,12.6368,15.3073l25.7092,3.9408c5.5941,0.8575,10.2201,4.809,11.9415,10.2003l7.8975,24.7345
			c2.3101,7.2349,9.6903,11.5763,17.1363,10.0803l25.47-5.1174C169.9884,441.5132,175.6702,443.6169,179.1421,448.0601z"/>
		<path fill="#EA5A42" d="M244.3954,72.87c-94.017,0-170.504,76.487-170.504,170.504c0,94.019,76.487,170.505,170.504,170.505
			s170.505-76.486,170.505-170.505C414.9004,149.357,338.4124,72.87,244.3954,72.87z M244.3954,403.879
			c-88.502,0-160.504-72.002-160.504-160.505c0-88.502,72.002-160.504,160.504-160.504c88.503,0,160.505,72.002,160.505,160.504
			C404.9004,331.877,332.8984,403.879,244.3954,403.879z"/>
	</g>
</svg>
