<?xml version="1.0" encoding="utf-8"?>
<!-- Generator: Adobe Illustrator 21.0.0, SVG Export Plug-In . SVG Version: 6.00 Build 0)  -->
<svg version="1.1" id="circle-withdot" xmlns="http://www.w3.org/2000/svg" xmlns:xlink="http://www.w3.org/1999/xlink" x="0px"
	 y="0px" viewBox="0 0 495 495" enable-background="new 0 0 495 495" xml:space="preserve">
<g id="change1"><circle fill="#FF6EC8" cx="247.4999" cy="247.5" r="245"/>
</g>
<g id="change2">
	<path fill="#FFFFFF" d="M247.5,495c-66.1094,0-128.2617-25.7441-175.0088-72.4912S0,313.6094,0,247.5
		S25.7441,119.2378,72.4912,72.4912S181.3906,0,247.5,0s128.2617,25.7446,175.0088,72.4912S495,181.3906,495,247.5
		s-25.7441,128.2617-72.4912,175.0088S313.6094,495,247.5,495z M247.5,5C182.7256,5,121.8291,30.2246,76.0264,76.0269
		C30.2246,121.8291,5,182.7261,5,247.5c0,64.7744,25.2246,125.6709,71.0264,171.4736C121.8291,464.7754,182.7256,490,247.5,490
		s125.6709-25.2246,171.4736-71.0264C464.7754,373.1709,490,312.2744,490,247.5c0-64.7739-25.2246-125.6709-71.0264-171.4731
		C373.1709,30.2246,312.2744,5,247.5,5z"/>
	<path fill="#FFFFFF" d="M251.6159,472.574c-1.657,0-3-1.38-3-3.037s1.343-3.037,3-3.037c0.028,0,0.059,0,0.087,0
		c1.617,0,2.959,1.324,3.006,2.951c0.047,1.656-1.249,3.054-2.904,3.102L251.6159,472.574z M235.3129,472.281
		c-0.059,0-0.117-0.002-0.177-0.005l-0.099-0.012c-1.654-0.095-2.918-1.512-2.824-3.165c0.094-1.649,1.502-2.9,3.167-2.819
		l0.104,0.006c1.654,0.096,2.917,1.515,2.821,3.169C238.2129,471.05,236.8909,472.281,235.3129,472.281z M268.0419,471.673
		c-1.519,0-2.839-1.143-3.002-2.681c-0.174-1.635,0.978-3.104,2.608-3.294l0.192-0.021c1.662-0.131,3.104,1.083,3.244,2.733
		c0.146,1.646-1.082,3.104-2.729,3.245l-0.256-2.989l0.229,2.991C268.2319,471.669,268.1369,471.673,268.0419,471.673z
		 M218.9729,470.795c-0.115,0-0.231-0.007-0.349-0.02l-0.186-0.024c-1.64-0.237-2.776-1.76-2.539-3.399
		c0.238-1.639,1.763-2.772,3.399-2.532c1.646,0.188,2.833,1.681,2.643,3.32C221.7639,469.668,220.4749,470.795,218.9729,470.795z
		 M284.2699,469.58c-1.469,0-2.752-1.079-2.965-2.576c-0.234-1.64,0.904-3.159,2.545-3.394c1.629-0.287,3.189,0.801,3.479,2.433
		s-0.802,3.188-2.433,3.475l-0.197,0.032C284.5549,469.57,284.4109,469.58,284.2699,469.58z M202.7859,468.108
		c-0.2,0-0.404-0.021-0.608-0.062l-0.092-0.019c-1.624-0.33-2.673-1.913-2.343-3.537c0.33-1.623,1.909-2.669,3.537-2.344
		l0.108,0.021c1.623,0.334,2.667,1.921,2.333,3.543C205.4289,467.131,204.1799,468.108,202.7859,468.108z M300.3929,466.272
		c-1.342,0-2.574-0.896-2.924-2.244c-0.41-1.589,0.508-3.207,2.092-3.645l0.199-0.05c1.613-0.382,3.229,0.619,3.607,2.232
		c0.379,1.607-0.62,3.229-2.232,3.604l-0.688-2.92l0.662,2.926C300.8699,466.244,300.6289,466.272,300.3929,466.272z
		 M186.8389,464.227c-0.257,0-0.518-0.028-0.778-0.104l-0.178-0.05c-1.588-0.479-2.491-2.146-2.017-3.733s2.144-2.488,3.732-2.017
		c1.6,0.431,2.558,2.078,2.128,3.679C189.3679,463.342,188.1619,464.227,186.8389,464.227z M316.1339,461.804
		c-1.287,0-2.478-0.835-2.87-2.131c-0.479-1.586,0.415-3.261,2.001-3.741c1.575-0.521,3.28,0.322,3.81,1.896
		c0.521,1.571-0.316,3.268-1.895,3.791l-0.175,0.057C316.7149,461.762,316.4219,461.804,316.1339,461.804z M171.2129,459.168
		c-0.334,0-0.675-0.058-1.011-0.18l-0.11-0.04c-1.554-0.574-2.349-2.299-1.775-3.854s2.299-2.347,3.854-1.771
		c1.557,0.562,2.401,2.303,1.835,3.854C173.5619,458.401,172.4309,459.168,171.2129,459.168z M331.5439,456.161
		c-1.168,0-2.277-0.688-2.763-1.829c-0.647-1.525,0.062-3.286,1.59-3.934l0.138-0.062c1.532-0.625,3.284,0.115,3.908,1.65
		s-0.115,3.285-1.65,3.906l-0.052,0.021C332.3319,456.084,331.9349,456.161,331.5439,456.161z M156.0169,452.958
		c-0.401,0-0.809-0.081-1.2-0.253l-0.181-0.081c-1.496-0.713-2.131-2.503-1.418-3.999s2.503-2.13,3.999-1.419
		c1.518,0.664,2.213,2.435,1.549,3.952C158.2719,452.285,157.1719,452.958,156.0169,452.958z M346.5009,449.379
		c-1.098,0-2.157-0.598-2.685-1.638c-0.745-1.477-0.187-3.259,1.278-4.021l0.16-0.074c1.49-0.727,3.286-0.104,4.007,1.395
		c0.728,1.491,0.104,3.285-1.394,4.007l-1.31-2.7l1.274,2.715C347.4129,449.277,346.9539,449.379,346.5009,449.379z
		 M141.3149,445.635c-0.494,0-0.995-0.123-1.458-0.381l1.46-2.62l-1.484,2.607c-1.443-0.787-2.005-2.604-1.234-4.052
		c0.771-1.45,2.546-2.022,4.005-1.271l0.174,0.095c1.447,0.812,1.967,2.64,1.16,4.081
		C143.3889,445.079,142.3679,445.635,141.3149,445.635z M360.8759,441.538c-1.03,0-2.032-0.531-2.591-1.483
		c-0.838-1.43-0.358-3.268,1.07-4.104c1.422-0.854,3.294-0.41,4.146,1.011s0.422,3.245-0.998,4.098l-0.113,0.067
		C361.9129,441.404,361.3919,441.538,360.8759,441.538z M127.1699,437.238c-0.544,0-1.096-0.152-1.593-0.478l-0.105-0.062
		c-1.386-0.908-1.773-2.771-0.865-4.154c0.908-1.385,2.768-1.771,4.153-0.865c1.393,0.897,1.828,2.775,0.931,4.168
		C129.1129,436.743,128.1529,437.238,127.1699,437.238z M374.6549,432.638c-0.953,0-1.896-0.453-2.479-1.297
		c-0.938-1.364-0.598-3.229,0.771-4.173c1.348-0.961,3.242-0.665,4.206,0.683c0.963,1.354,0.672,3.207-0.682,4.176l-0.119,0.087
		C375.8359,432.466,375.2419,432.638,374.6549,432.638z M113.7109,427.829c-0.613,0-1.232-0.192-1.765-0.592l-0.103-0.077
		c-1.317-1.006-1.569-2.889-0.563-4.205c1.005-1.317,2.887-1.569,4.205-0.564c1.325,0.994,1.625,2.897,0.63,4.229
		C115.5209,427.406,114.6219,427.829,113.7109,427.829z M387.7429,422.745c-0.871,0-1.734-0.377-2.328-1.105
		c-1.046-1.278-0.854-3.174,0.432-4.221l0.078-0.062c1.284-1.053,3.174-0.854,4.228,0.431c1.046,1.285,0.854,3.175-0.437,4.222
		l-0.08,0.064C389.0799,422.524,388.4089,422.745,387.7429,422.745z M101.0189,417.467c-0.707,0-1.416-0.248-1.987-0.753
		l-0.055-0.049c-1.251-1.086-1.385-2.98-0.299-4.232c1.086-1.249,2.98-1.386,4.232-0.299l0.098,0.086
		c1.241,1.104,1.357,2.994,0.259,4.234C102.6739,417.125,101.8479,417.467,101.0189,417.467z M400.0709,411.917
		c-0.812,0-1.614-0.324-2.205-0.965c-1.124-1.218-1.048-3.116,0.169-4.239c1.197-1.146,3.112-1.123,4.258,0.071
		c1.147,1.189,1.124,3.079-0.071,4.227l-0.11,0.11C401.5279,411.653,400.7989,411.917,400.0709,411.917z M89.0919,406.192
		c-0.778,0-1.555-0.307-2.143-0.9l-0.05-0.051c-1.172-1.171-1.172-3.071,0-4.242c1.171-1.172,3.071-1.172,4.242,0l0.093,0.094
		c1.16,1.188,1.141,3.083-0.043,4.242C90.6079,405.907,89.8499,406.192,89.0919,406.192z M411.5749,400.21
		c-0.748,0-1.496-0.277-2.077-0.836c-1.195-1.147-1.234-3.047-0.087-4.241c1.097-1.242,2.985-1.351,4.228-0.252
		c1.241,1.098,1.354,3.001,0.252,4.241l-0.146,0.165C413.1499,399.901,412.3629,400.21,411.5749,400.21z M78.0269,394.074
		c-0.859,0-1.713-0.367-2.306-1.079l2.305-1.921l-2.335,1.885c-1.078-1.256-0.939-3.15,0.313-4.23
		c1.254-1.082,3.141-0.94,4.224,0.311l0.102,0.118c1.061,1.271,0.889,3.161-0.384,4.228
		C79.3849,393.847,78.7039,394.074,78.0269,394.074z M422.1859,387.71c-0.629,0-1.265-0.196-1.809-0.604
		c-1.325-0.994-1.582-2.892-0.588-4.217l0.138-0.175c1.048-1.284,2.938-1.478,4.228-0.432c1.278,1.047,1.477,2.937,0.431,4.222
		l-2.326-1.896l2.312,1.912C423.9789,387.302,423.0889,387.71,422.1859,387.71z M67.8829,381.18c-0.924,0-1.835-0.426-2.423-1.229
		l-0.06-0.082c-0.979-1.337-0.688-3.215,0.648-4.193c1.338-0.978,3.215-0.689,4.193,0.648l0.06,0.082
		c0.979,1.337,0.688,3.214-0.648,4.193C69.1179,380.99,68.4979,381.18,67.8829,381.18z M431.8539,374.419
		c-0.587,0-1.181-0.172-1.694-0.53c-1.364-0.938-1.707-2.809-0.771-4.173c0.908-1.386,2.776-1.786,4.162-0.878
		c1.386,0.907,1.781,2.754,0.874,4.141l-0.097,0.146C433.7439,373.966,432.8069,374.419,431.8539,374.419z M58.7069,367.568
		c-0.987,0-1.951-0.486-2.521-1.381l-0.097-0.155c-0.853-1.421-0.392-3.265,1.029-4.116c1.419-0.854,3.263-0.393,4.116,1.027
		c0.891,1.396,0.486,3.261-0.91,4.152C59.8199,367.416,59.2599,367.568,58.7069,367.568z M440.5169,360.471
		c-0.512,0-1.023-0.13-1.504-0.404c-1.433-0.832-1.92-2.668-1.088-4.103c0.816-1.438,2.663-1.979,4.107-1.161
		c1.438,0.816,1.965,2.616,1.146,4.059l-0.062,0.117C442.5579,359.936,441.5509,360.471,440.5169,360.471z M50.5799,353.335
		c-1.087,0-2.136-0.593-2.668-1.625l-0.028-0.054c-0.78-1.463-0.227-3.279,1.235-4.061c1.458-0.777,3.278-0.229,4.059,1.23
		l0.066,0.126c0.76,1.478,0.182,3.278-1.29,4.042C51.5139,353.227,51.0429,353.335,50.5799,353.335z M448.1269,345.917
		c-0.438,0-0.884-0.097-1.305-0.301c-1.491-0.722-2.115-2.517-1.396-4.007c0.704-1.5,2.502-2.176,4.004-1.473
		c1.5,0.697,2.16,2.459,1.457,3.959l-0.061,0.127C450.3119,345.293,449.2409,345.917,448.1269,345.917z M43.5209,338.535
		c-1.17,0-2.282-0.689-2.766-1.835l2.764-1.166l-2.778,1.134c-0.658-1.512,0.021-3.286,1.528-3.954
		c1.508-0.668,3.265-0.011,3.943,1.493l0.07,0.161c0.644,1.526-0.071,3.286-1.598,3.93
		C44.3039,338.459,43.9089,338.535,43.5209,338.535z M454.6369,330.833c-0.35,0-0.706-0.062-1.053-0.192
		c-1.551-0.582-2.337-2.31-1.755-3.855l0.055-0.146c0.607-1.543,2.354-2.301,3.896-1.688c1.541,0.604,2.299,2.349,1.688,3.891
		l-0.02,0.055C456.9939,330.09,455.8519,330.833,454.6369,330.833z M37.5529,323.232c-1.231,0-2.376-0.756-2.806-1.987l-0.046-0.136
		c-0.524-1.571,0.326-3.271,1.897-3.795c1.573-0.524,3.271,0.326,3.795,1.896c0.545,1.562-0.271,3.306-1.836,3.851
		C38.2249,323.178,37.8859,323.232,37.5529,323.232z M460.0079,315.307c-0.307,0-0.617-0.048-0.925-0.146
		c-1.576-0.511-2.44-2.201-1.931-3.778c0.479-1.585,2.161-2.505,3.748-2.021c1.586,0.479,2.482,2.138,2.008,3.724l-0.047,0.147
		C462.4499,314.498,461.2729,315.307,460.0079,315.307z M32.7869,307.564c-1.328,0-2.542-0.895-2.898-2.233l-0.021-0.077
		c-0.436-1.6,0.507-3.247,2.105-3.684c1.595-0.438,3.248,0.506,3.684,2.104l0.032,0.12c0.424,1.603-0.53,3.244-2.132,3.668
		C33.2989,307.531,33.0409,307.564,32.7869,307.564z M464.1999,299.42c-0.207,0-0.416-0.021-0.626-0.066
		c-1.609-0.347-2.646-1.9-2.312-3.519l0.041-0.183c0.38-1.613,1.998-2.614,3.607-2.232c1.606,0.379,2.606,1.994,2.229,3.607
		l-2.92-0.688l2.913,0.718C466.8229,298.454,465.5779,299.42,464.1999,299.42z M29.1609,291.536c-1.407,0-2.656-0.981-2.931-2.416
		l-0.029-0.157c-0.28-1.633,0.817-3.184,2.45-3.464c1.631-0.282,3.184,0.815,3.464,2.45c0.311,1.627-0.752,3.221-2.379,3.531
		C29.5419,291.52,29.3499,291.536,29.1609,291.536z M467.2079,283.309c-0.142,0-0.284-0.011-0.428-0.031
		c-1.646-0.229-2.78-1.754-2.546-3.394l0.017-0.112c0.24-1.641,1.762-2.773,3.404-2.526c1.64,0.235,2.771,1.765,2.525,3.399
		l-0.013,0.088C469.9599,282.229,468.6769,283.309,467.2079,283.309z M26.7449,275.294c-1.5,0-2.79-1.099-2.964-2.626l-0.015-0.135
		c-0.169-1.648,1.029-3.122,2.677-3.292c1.654-0.169,3.122,1.028,3.292,2.677c0.188,1.646-0.99,3.168-2.636,3.355
		C26.9789,275.287,26.8619,275.294,26.7449,275.294z M469.0089,266.98c-0.062,0-0.134-0.002-0.201-0.008
		c-1.644-0.108-2.893-1.511-2.796-3.149l0.02-0.183c0.142-1.65,1.604-2.863,3.245-2.732c1.646,0.142,2.875,1.595,2.729,3.244
		l-2.989-0.256l2.986,0.289C471.8829,265.764,470.5659,266.98,469.0089,266.98z M25.5419,258.934c-1.597,0-2.922-1.229-2.991-2.841
		l-0.005-0.143c-0.049-1.656,1.254-3.038,2.91-3.087c1.659-0.062,3.038,1.255,3.087,2.91c0.071,1.656-1.212,3.086-2.867,3.156
		C25.6299,258.934,25.5859,258.934,25.5419,258.934z M469.4999,250.604c-1.657,0-3-1.345-3-3V247.5c0-0.066,0.002-0.132,0.008-0.197
		c-0.006-0.069-0.008-0.14-0.008-0.211v-0.102c0-1.657,1.343-3,3-3s3,1.343,3,3v0.102c0,0.066-0.002,0.132-0.008,0.197
		c0.006,0.07,0.008,0.14,0.008,0.211v0.102C472.4999,249.259,471.1569,250.604,469.4999,250.604z M25.5289,242.5
		c-0.028,0-0.057,0-0.085,0c-1.656,0-2.961-1.389-2.914-3.044l0.005-0.142c0.072-1.656,1.494-2.935,3.127-2.864
		c1.655,0.072,2.939,1.462,2.867,3.117C28.4829,241.195,27.1469,242.5,25.5289,242.5z M468.9799,233.692
		c-1.578,0-2.901-1.233-2.992-2.829c-0.146-1.651,1.077-3.112,2.729-3.255c1.646-0.146,3.104,1.072,3.247,2.723l0.021,0.19
		c0.095,1.654-1.176,3.071-2.824,3.166C469.0969,233.69,469.0379,233.692,468.9799,233.692z M26.7089,226.187
		c-0.116,0-0.232-0.007-0.35-0.021c-1.646-0.191-2.825-1.68-2.634-3.326l0.006-0.054c0.165-1.648,1.632-2.846,3.283-2.687
		c1.649,0.165,2.852,1.635,2.687,3.284l-0.016,0.149C29.5079,225.061,28.2109,226.187,26.7089,226.187z M467.1539,217.387
		c-1.473,0-2.749-1.076-2.965-2.57l-0.021-0.101c-0.238-1.64,0.898-3.162,2.538-3.399c1.64-0.245,3.162,0.898,3.399,2.539
		l0.015,0.101c0.238,1.64-0.898,3.162-2.538,3.399C467.4419,217.376,467.2979,217.387,467.1539,217.387z M29.0849,209.952
		c-0.187,0-0.376-0.018-0.567-0.054c-1.627-0.311-2.694-1.883-2.383-3.51l0.01-0.051c0.284-1.632,1.831-2.727,3.47-2.441
		c1.632,0.284,2.725,1.837,2.441,3.47l-0.027,0.149C31.7539,208.952,30.4959,209.952,29.0849,209.952z M464.1299,201.259
		c-1.395,0-2.644-0.977-2.936-2.396c-0.379-1.613,0.618-3.237,2.229-3.616c1.606-0.38,3.229,0.612,3.604,2.225l0.041,0.182
		c0.334,1.623-0.711,3.209-2.334,3.543C464.5339,201.239,464.3299,201.259,464.1299,201.259z M32.6579,193.938
		c-0.258,0-0.52-0.034-0.78-0.104c-1.6-0.43-2.549-2.076-2.119-3.676l0.013-0.048c0.403-1.607,2.031-2.583,3.639-2.182
		c1.607,0.402,2.584,2.03,2.183,3.637l-0.039,0.149C35.1939,193.054,33.9819,193.938,32.6579,193.938z M459.8979,185.38
		c-1.25,0-2.408-0.78-2.825-2.032l-0.062-0.188c-0.474-1.587,0.436-3.259,2.021-3.732c1.586-0.475,3.259,0.428,3.729,2.017
		l-2.875,0.858l2.886-0.832c0.481,1.571-0.381,3.261-1.94,3.763C460.5199,185.333,460.2059,185.38,459.8979,185.38z
		 M37.4119,178.231c-0.328,0-0.661-0.054-0.987-0.168c-1.564-0.545-2.391-2.256-1.846-3.82l0.02-0.058
		c0.523-1.572,2.22-2.422,3.795-1.897c1.572,0.524,2.421,2.223,1.897,3.795l-0.046,0.135
		C39.8129,177.456,38.6519,178.231,37.4119,178.231z M454.5339,169.899c-1.214,0-2.357-0.743-2.812-1.948
		c-0.61-1.538,0.126-3.301,1.664-3.917c1.538-0.615,3.277,0.116,3.896,1.654l0.061,0.156c0.582,1.551-0.204,3.28-1.755,3.862
		C455.2399,169.837,454.8849,169.899,454.5339,169.899z M43.3289,162.905c-0.402,0-0.81-0.081-1.201-0.252
		c-1.518-0.664-2.21-2.433-1.546-3.951l2.749,1.203l-2.73-1.245c0.639-1.528,2.394-2.254,3.924-1.614
		c1.527,0.637,2.252,2.387,1.617,3.916l-0.062,0.146C45.5859,162.233,44.4839,162.905,43.3289,162.905z M448.0209,154.854
		c-1.114,0-2.188-0.624-2.702-1.694l-0.059-0.108c-0.712-1.496-0.071-3.286,1.419-3.999c1.495-0.711,3.286-0.077,3.999,1.418
		l0.035,0.075c0.728,1.491,0.104,3.286-1.394,4.007C448.9049,154.758,448.4599,154.854,448.0209,154.854z M50.3619,148.03
		c-0.458,0-0.921-0.105-1.354-0.329c-1.473-0.76-2.065-2.541-1.305-4.013l0.065-0.125c0.779-1.462,2.596-2.016,4.058-1.239
		c1.462,0.779,2.017,2.595,1.239,4.058C52.5289,147.423,51.4609,148.03,50.3619,148.03z M440.4089,140.331
		c-1.027,0-2.027-0.527-2.587-1.476l-0.077-0.134c-0.816-1.441-0.312-3.272,1.131-4.089c1.444-0.819,3.272-0.31,4.09,1.131
		l0.024,0.042c0.842,1.427,0.367,3.267-1.062,4.108C441.4519,140.196,440.9269,140.331,440.4089,140.331z M58.4849,133.79
		c-0.544,0-1.096-0.148-1.591-0.459c-1.404-0.88-1.828-2.731-0.948-4.135l2.542,1.594l-2.518-1.631
		c0.857-1.415,2.701-1.873,4.118-1.019c1.416,0.854,1.877,2.688,1.026,4.106l-0.084,0.137
		C60.4599,133.291,59.4839,133.79,58.4849,133.79z M431.7129,126.392c-0.936,0-1.852-0.438-2.432-1.264l-0.11-0.164
		c-0.907-1.386-0.521-3.246,0.865-4.153c1.39-0.908,3.246-0.52,4.154,0.865l-2.516,1.644l2.524-1.622
		c0.913,1.367,0.566,3.233-0.786,4.162C432.8959,126.219,432.2999,126.392,431.7129,126.392z M67.6349,120.156
		c-0.615,0-1.235-0.188-1.77-0.58c-1.336-0.979-1.627-2.856-0.648-4.192l0.045-0.062c0.968-1.345,2.843-1.651,4.188-0.684
		c1.345,0.968,1.651,2.842,0.684,4.188l-0.075,0.103C69.4699,119.73,68.5589,120.156,67.6349,120.156z M422.0669,113.153
		c-0.896,0-1.778-0.398-2.37-1.158c-1.035-1.294-0.85-3.206,0.449-4.241c1.294-1.035,3.157-0.849,4.192,0.445l0.089,0.112
		c1.021,1.308,0.781,3.193-0.521,4.21C423.3589,112.947,422.7109,113.153,422.0669,113.153z M77.7619,107.235
		c-0.687,0-1.376-0.234-1.94-0.713c-1.263-1.073-1.417-2.966-0.345-4.229l0.048-0.057c1.061-1.274,2.953-1.445,4.225-0.384
		c1.273,1.061,1.445,2.953,0.384,4.225l-0.084,0.1C79.4569,106.875,78.6119,107.235,77.7619,107.235z M411.4439,100.646
		c-0.812,0-1.614-0.325-2.205-0.965l-0.092-0.101c-1.11-1.23-1.018-3.127,0.218-4.237c1.229-1.11,3.13-1.011,4.231,0.218l0.046,0.05
		c1.124,1.217,1.053,3.115-0.17,4.239C412.9009,100.382,412.1719,100.646,411.4439,100.646z M88.8109,95.095
		c-0.758,0-1.516-0.285-2.1-0.857c-1.184-1.16-1.203-3.059-0.043-4.242l0.071-0.072c1.159-1.186,3.06-1.203,4.242-0.044
		c1.184,1.159,1.204,3.059,0.044,4.242l-0.072,0.073C90.3659,94.794,89.5879,95.095,88.8109,95.095z M399.9059,88.943
		c-0.708,0-1.419-0.252-1.988-0.768l-0.14-0.131c-1.195-1.147-1.234-3.046-0.087-4.242c1.146-1.197,3.048-1.234,4.235-0.086
		l-2.071,2.164l2.098-2.145c1.198,1.128,1.28,3.024,0.165,4.233C401.5229,88.613,400.7159,88.943,399.9059,88.943z M100.7369,83.761
		c-0.829,0-1.652-0.335-2.239-0.999c-1.098-1.241-1.009-3.113,0.231-4.21l0.098-0.086c1.252-1.085,3.147-0.952,4.232,0.299
		c1.086,1.251,0.952,3.146-0.299,4.232C102.1829,83.508,101.4579,83.761,100.7369,83.761z M387.5839,78.128
		c-0.666,0-1.336-0.221-1.894-0.674l-0.078-0.064c-1.285-1.046-1.479-2.936-0.438-4.221c1.048-1.283,2.938-1.477,4.227-0.431
		l0.08,0.064c1.278,1.046,1.477,2.936,0.431,4.221C389.3179,77.751,388.4549,78.128,387.5839,78.128z M113.4469,73.374
		c-0.904,0-1.798-0.398-2.383-1.165c-1.006-1.317-0.784-3.177,0.533-4.182l0.102-0.077c1.326-0.994,3.207-0.725,4.2,0.6
		c0.994,1.325,0.726,3.206-0.6,4.2C114.7499,73.169,114.0949,73.374,113.4469,73.374z M374.4779,68.243
		c-0.604,0-1.212-0.182-1.735-0.559c-1.363-0.941-1.729-2.824-0.788-4.188c0.938-1.364,2.789-1.723,4.146-0.782l0.125,0.087
		c1.354,0.963,1.66,2.836,0.697,4.185C376.3359,67.806,375.4139,68.243,374.4779,68.243z M126.8679,63.967
		c-0.979,0-1.94-0.473-2.514-1.349c-0.908-1.386-0.538-3.234,0.848-4.142l0.136-0.087c1.404-0.879,3.255-0.457,4.135,0.948
		c0.88,1.403,0.456,3.255-0.948,4.135C128.0159,63.807,127.4379,63.967,126.8679,63.967z M360.6759,59.349
		c-0.514,0-1.033-0.132-1.509-0.409l-0.12-0.071c-1.42-0.852-1.881-2.695-1.028-4.116c0.854-1.42,2.695-1.882,4.116-1.029
		l0.062,0.033c1.431,0.835,1.914,2.672,1.079,4.103C362.7129,58.815,361.7079,59.349,360.6759,59.349z M140.9319,55.579
		c-1.066,0-2.098-0.569-2.641-1.573c-0.788-1.457-0.246-3.277,1.211-4.066l0.056-0.031c1.448-0.807,3.274-0.287,4.081,1.16
		c0.807,1.447,0.287,3.274-1.16,4.081l-0.123,0.067C141.9029,55.463,141.4139,55.579,140.9319,55.579z M346.2519,51.497
		c-0.438,0-0.885-0.097-1.306-0.301l-0.126-0.062c-1.481-0.741-2.082-2.543-1.348-4.025c0.742-1.482,2.551-2.081,4.025-1.341
		l0.058,0.028c1.491,0.723,2.114,2.517,1.396,4.008C348.4359,50.874,347.3649,51.497,346.2519,51.497z M155.6349,48.215
		c-1.14,0-2.236-0.64-2.741-1.736c-0.692-1.505-0.062-3.274,1.443-3.967l0.128-0.058c1.514-0.673,3.287,0.009,3.959,1.523
		c0.673,1.514-0.009,3.287-1.523,3.96C156.4929,48.125,156.0609,48.215,155.6349,48.215z M331.2839,44.736
		c-0.379,0-0.763-0.072-1.135-0.224c-1.535-0.624-2.318-2.392-1.694-3.927c0.623-1.535,2.331-2.293,3.864-1.668l0.102,0.041
		c1.533,0.627,2.271,2.379,1.641,3.913C333.5869,44.032,332.4659,44.736,331.2839,44.736z M170.8199,41.978
		c-1.228,0-2.394-0.74-2.84-1.949c-0.574-1.554,0.18-3.264,1.734-3.838l0.109-0.04c1.561-0.565,3.279,0.237,3.845,1.794
		s-0.237,3.278-1.794,3.845C171.5279,41.917,171.1709,41.978,170.8199,41.978z M315.8509,39.105c-0.307,0-0.611-0.047-0.925-0.146
		c-1.578-0.502-2.493-2.203-1.99-3.782c0.508-1.58,2.15-2.463,3.729-1.963l0.112,0.036c1.57,0.51,2.438,2.202,1.931,3.778
		C318.2929,38.297,317.1159,39.105,315.8509,39.105z M186.3519,36.914c-1.308,0-2.51-0.862-2.885-2.183
		c-0.452-1.594,0.474-3.252,2.068-3.705l0.098-0.028c1.593-0.451,3.253,0.474,3.705,2.068s-0.474,3.252-2.068,3.705l-0.098,0.028
		C186.8979,36.876,186.6229,36.914,186.3519,36.914z M300.0589,34.645c-0.246,0-0.498-0.031-0.75-0.095
		c-1.613-0.379-2.632-1.999-2.252-3.612c0.379-1.612,1.979-2.616,3.59-2.238l0.158,0.039c1.604,0.414,2.57,2.049,2.157,3.653
		C302.6129,33.746,301.3949,34.645,300.0589,34.645z M202.2849,32.995c-1.394,0-2.644-0.977-2.936-2.396
		c-0.334-1.623,0.711-3.209,2.333-3.543l0.1-0.021c1.625-0.332,3.21,0.71,3.543,2.333c0.334,1.623-0.711,3.209-2.333,3.543
		l-0.1,0.021C202.6879,32.975,202.4849,32.995,202.2849,32.995z M283.9799,31.371c-0.168,0-0.338-0.014-0.51-0.043
		c-1.642-0.265-2.783-1.811-2.521-3.447c0.264-1.636,1.767-2.754,3.402-2.488l0.127,0.021c1.636,0.28,2.729,1.831,2.451,3.464
		C286.6839,30.339,285.4149,31.371,283.9799,31.371z M218.4629,30.271c-1.484,0-2.774-1.101-2.971-2.612
		c-0.214-1.643,0.944-3.149,2.586-3.363l0.101-0.013c1.645-0.219,3.149,0.943,3.363,2.586s-0.944,3.148-2.586,3.363l-0.101,0.013
		C218.7239,30.262,218.5929,30.271,218.4629,30.271z M267.7039,29.297c-0.103,0-0.207-0.005-0.312-0.016
		c-1.65-0.142-2.899-1.597-2.764-3.248c0.146-1.651,1.578-2.879,3.225-2.735l0.148,0.014c1.646,0.17,2.852,1.644,2.682,3.292
		C270.5249,28.147,269.2229,29.297,267.7039,29.297z M234.8019,28.746c-1.578,0-2.901-1.233-2.992-2.829
		c-0.095-1.654,1.17-3.072,2.824-3.167l0.1-0.006c1.651-0.099,3.073,1.167,3.169,2.821c0.096,1.654-1.167,3.073-2.821,3.169
		l-0.104,0.006C234.9169,28.745,234.8589,28.746,234.8019,28.746z M251.3159,28.5c-0.02,0-0.029,0-0.045,0l-0.104-0.041
		c-1.651-0.023-2.979-1.405-2.957-3.062c0.021-1.657,1.386-3.018,3.042-2.966l0.104-0.003c1.656,0.024,2.979,1.424,2.955,3.081
		C254.2919,27.149,252.9529,28.5,251.3159,28.5z"/>
</g>
</svg>
