<?xml version="1.0" encoding="utf-8"?>
<!-- Generator: Adobe Illustrator 21.0.0, SVG Export Plug-In . SVG Version: 6.00 Build 0)  -->
<svg version="1.1" id="Filled_Circle_with_Award_Border_Design"
	 xmlns="http://www.w3.org/2000/svg" xmlns:xlink="http://www.w3.org/1999/xlink" x="0px" y="0px" viewBox="0 0 488.66 493.685"
	 enable-background="new 0 0 488.66 493.685" xml:space="preserve">
<g id="change1">
	<polygon fill="#FFCA0C" points="244.33,0 274.7755,35.0898 313.8736,9.9989 333.1998,52.2448 377.7831,39.1854 384.4245,85.1649 
		430.8811,85.195 424.2995,131.1831 468.8658,144.3004 449.5945,186.5714 488.66,211.7132 458.2602,246.8425 488.66,281.9719 
		449.5945,307.1136 468.8658,349.3846 424.2995,362.5019 430.8811,408.49 384.4245,408.5201 377.7831,454.4996 333.1998,441.4402 
		313.8736,483.6862 274.7755,458.5952 244.33,493.685 213.8846,458.5952 174.7864,483.6862 155.4602,441.4402 110.8769,454.4996 
		104.2355,408.5201 57.7789,408.49 64.3605,362.5019 19.7942,349.3846 39.0655,307.1136 0,281.9719 30.3998,246.8425 0,211.7132 
		39.0655,186.5714 19.7942,144.3004 64.3605,131.1831 57.7789,85.195 104.2355,85.1649 110.8769,39.1854 155.4602,52.2448 
		174.7864,9.9989 213.8846,35.0898 	"/>
</g>
<g id="change2">
	<polygon fill="#FFD91E" points="244.33,21.316 272.1463,53.3757 307.8682,30.4514 325.5255,69.0492 366.2589,57.1175 
		372.3267,99.1265 414.7716,99.1541 408.7583,141.1709 449.4761,153.1554 431.869,191.7761 467.561,214.7467 439.7863,246.8425 
		467.561,278.9383 431.869,301.9089 449.4761,340.5296 408.7583,352.5142 414.7716,394.5309 372.3267,394.5585 366.2589,436.5675 
		325.5255,424.6358 307.8682,463.2336 272.1463,440.3094 244.33,472.369 216.5137,440.3094 180.7918,463.2336 163.1345,424.6358 
		122.4012,436.5675 116.3333,394.5585 73.8884,394.5309 79.9017,352.5142 39.1839,340.5296 56.791,301.9089 21.099,278.9383 
		48.8737,246.8425 21.099,214.7467 56.791,191.7761 39.1839,153.1554 79.9017,141.1709 73.8884,99.1541 116.3333,99.1265 
		122.4012,57.1175 163.1345,69.0492 180.7918,30.4514 216.5137,53.3757 	"/>
</g>
<g id="change1">
	<path fill="#FFCA0C" d="M468.5789,271.5074l-55.9081-7.6546c0.6288-5.9195,0.9589-11.9269,0.9589-18.0105
		c0-5.2801-0.2556-10.501-0.7309-15.6591l55.7299-8.0128c4.0996-0.5898,6.9453-4.3911,6.3564-8.4912
		c-0.5898-4.1006-4.3906-6.9409-8.4912-6.3564l-55.627,7.9979c-2.0299-11.1035-5.1462-21.8314-9.2351-32.0707l50.9597-23.2724
		c3.7686-1.7207,5.4277-6.1699,3.707-9.938c-1.7217-3.7676-6.1709-5.4287-9.9375-3.7065l-50.9084,23.249
		c-5.0693-10.0049-11.0965-19.4458-17.972-28.1914l42.2017-36.5688c3.1309-2.7124,3.4697-7.4492,0.7568-10.5796
		c-2.7139-3.1304-7.4512-3.4688-10.5791-0.7563l-42.1669,36.5386c-7.6505-8.144-16.0903-15.5377-25.2054-22.0463l30.0803-46.8057
		c2.2393-3.4844,1.2295-8.1245-2.2549-10.3643c-3.4844-2.2383-8.124-1.2314-10.3643,2.2549l-30.0463,46.7529
		c-9.5922-5.6427-19.7836-10.3693-30.4579-14.0547l15.6194-53.1972c1.167-3.9741-1.1094-8.1421-5.083-9.3091
		c-3.9795-1.1655-8.1426,1.1099-9.3096,5.0835l-15.6113,53.1694c-10.7147-2.6564-21.8271-4.2902-33.2305-4.7899V21.316
		c0-4.1421-3.3574-7.5-7.5-7.5c-4.1421,0-7.5,3.3579-7.5,7.5v55.402c-11.4032,0.4998-22.5154,2.1335-33.2299,4.7898
		l-15.6119-53.1694c-1.167-3.9746-5.3384-6.2495-9.3091-5.0835c-3.9746,1.167-6.2505,5.335-5.0835,9.3091l15.6201,53.1971
		c-10.6745,3.6854-20.866,8.412-30.4584,14.0549l-30.0464-46.753c-2.2397-3.4849-6.8809-4.4937-10.3643-2.2549
		c-3.4849,2.2397-4.4941,6.8799-2.2549,10.3643l30.0804,46.806c-9.1149,6.5085-17.5544,13.902-25.2047,22.0457L78.8001,93.4859
		c-3.1313-2.7129-7.8687-2.374-10.5796,0.7563c-2.7129,3.1304-2.374,7.8672,0.7563,10.5796l42.2025,36.5689
		c-6.8754,8.7455-12.9025,18.1863-17.9717,28.1911l-50.908-23.2488c-3.7671-1.7207-8.2173-0.061-9.938,3.7065
		c-1.7207,3.7681-0.061,8.2173,3.7065,9.938l50.9601,23.2726c-4.1506,10.394-7.3043,21.2898-9.3315,32.5726l-55.4631-8.4897
		c-4.0972-0.6265-7.9219,2.1846-8.5483,6.2788c-0.627,4.0942,2.1841,7.9219,6.2788,8.5483l55.7518,8.5339
		c-0.4448,4.9922-0.6854,10.0423-0.6854,15.1483c0,5.9539,0.3129,11.836,0.9156,17.6331l-55.9146,8.0388
		c-4.1001,0.5898-6.9458,4.3916-6.3564,8.4912c0.5376,3.7383,3.7451,6.4336,7.4146,6.4336c0.355,0,0.7148-0.0254,1.0767-0.0771
		l56.0009-8.0513c2.2363,11.4662,5.6251,22.5247,10.0557,33.0428l-51.9936,22.2828c-3.8071,1.6318-5.5708,6.041-3.939,9.8477
		c1.2188,2.8447,3.9873,4.5479,6.897,4.5479c0.9858,0,1.9878-0.1953,2.9512-0.6084l52.5295-22.5125
		c4.9937,9.4139,10.8479,18.3025,17.4603,26.5615l-43.1514,37.3905c-3.1304,2.7119-3.4692,7.4492-0.7563,10.5791
		c1.4829,1.7119,3.5713,2.5889,5.6714,2.5889c1.7402,0,3.4893-0.6025,4.9082-1.832l43.2022-37.4346
		c7.622,7.9711,16.0158,15.1966,25.0554,21.5648l-30.9661,48.1842c-2.2393,3.4844-1.23,8.125,2.2549,10.3643
		c1.2549,0.8066,2.6592,1.1914,4.0479,1.1914c2.4668,0,4.8833-1.2168,6.3164-3.4463l30.9777-48.2023
		c9.4794,5.4952,19.5369,10.0981,30.0589,13.6913l-16.1518,55.009c-1.167,3.9746,1.1089,8.1426,5.0835,9.3096
		c0.7051,0.207,1.4165,0.3057,2.1162,0.3057c3.2427,0,6.2329-2.1201,7.1929-5.3887l16.1597-55.0358
		c10.5455,2.5768,21.473,4.1646,32.6821,4.6558v57.4016c0,4.1426,3.3579,7.5,7.5,7.5c4.1426,0,7.5-3.3574,7.5-7.5v-57.4016
		c11.2089-0.4912,22.1364-2.0789,32.6817-4.6556l16.1601,55.0357c0.96,3.2686,3.9502,5.3887,7.1934,5.3887
		c0.6992,0,1.4111-0.0986,2.1162-0.3057c3.9736-1.167,6.25-5.335,5.083-9.3096l-16.1522-55.0088
		c10.5224-3.5933,20.5802-8.1965,30.06-13.6918l30.9769,48.2026c1.4336,2.2305,3.8496,3.4463,6.3164,3.4463
		c1.3887,0,2.793-0.3848,4.0479-1.1914c3.4844-2.2393,4.4941-6.8799,2.2549-10.3643l-30.9653-48.1844
		c9.0396-6.3683,17.4333-13.5937,25.0552-21.5648l43.202,37.4348c1.4189,1.2295,3.167,1.832,4.9082,1.832
		c2.0996,0,4.1875-0.877,5.6709-2.5889c2.7129-3.1299,2.374-7.8672-0.7568-10.5791l-43.1506-37.3903
		c6.8904-8.6062,12.9603-17.8945,18.0882-27.7499l51.7411,23.6295c1.0098,0.4609,2.0684,0.6797,3.1104,0.6797
		c2.8457,0,5.5674-1.6289,6.8271-4.3867c1.7207-3.7676,0.0615-8.2168-3.707-9.9375L400.9422,310.12
		c4.1335-10.0344,7.33-20.5481,9.479-31.4352l56.1226,7.684c0.3457,0.0469,0.6885,0.0703,1.0273,0.0703
		c3.6904,0,6.9062-2.7246,7.4209-6.4834C475.5536,275.8511,472.6825,272.0689,468.5789,271.5074z M244.3299,400.1422
		c-85.0811,0-154.2993-69.2188-154.2993-154.2998S159.2489,91.543,244.3299,91.543s154.2998,69.2183,154.2998,154.2993
		S329.411,400.1422,244.3299,400.1422z"/>
</g>
</svg>
