<?xml version="1.0" encoding="utf-8"?>
<!-- Generator: Adobe Illustrator 15.0.0, SVG Export Plug-In . SVG Version: 6.00 Build 0)  -->
<!DOCTYPE svg PUBLIC "-//W3C//DTD SVG 1.1//EN" "http://www.w3.org/Graphics/SVG/1.1/DTD/svg11.dtd">
<svg version="1.1" id="Layer_1" xmlns="http://www.w3.org/2000/svg" xmlns:xlink="http://www.w3.org/1999/xlink" x="0px" y="0px"
	 width="500.221px" height="500.22px" viewBox="-0.11 -0.11 500.221 500.22" enable-background="new -0.11 -0.11 500.221 500.22"
	 xml:space="preserve">
<g id="Layer_X">
	<g id="change1_1_">
		<path fill="#6CDDAA" d="M250,500.11c-66.807,0-129.615-26.018-176.855-73.258C25.906,379.615-0.11,316.807-0.11,250
			c0-66.807,26.016-129.615,73.255-176.855C120.385,25.906,183.193-0.11,250-0.11c66.807,0,129.615,26.016,176.854,73.255
			c47.24,47.24,73.258,110.048,73.258,176.855c0,66.807-26.018,129.615-73.258,176.854C379.615,474.095,316.807,500.11,250,500.11z
			 M250,9.89C117.603,9.89,9.89,117.603,9.89,250c0,132.396,107.713,240.11,240.11,240.11c132.397,0,240.11-107.714,240.11-240.11
			C490.11,117.603,382.397,9.89,250,9.89z"/>
		<path fill="#6CDDAA" d="M308.041,52.744c26.122,7.7,50.095,20.456,70.784,37.135C409.494,45.039,327.352,2.238,308.041,52.744z"/>
		<path fill="#6CDDAA" d="M447.408,307.532c53.756,11.815,61.916-81.727,7.025-79.5c0.771,7.22,1.178,14.547,1.178,21.968
			C455.611,269.964,452.74,289.268,447.408,307.532z"/>
		<path fill="#6CDDAA" d="M70.194,349.628c-45.385,29.817,14.492,100.93,51.604,60.996
			C100.882,393.896,83.294,373.177,70.194,349.628z"/>
		<path fill="#6CDDAA" d="M430.487,151.59c12.635,23.079,20.964,48.832,23.918,76.173
			C508.367,217.997,480.218,128.779,430.487,151.59z"/>
		<path fill="#6CDDAA" d="M52.415,193.06c-52.658-10.441-60.547,81.116-6.758,79.717c-0.828-7.481-1.268-15.079-1.268-22.777
			C44.389,230.252,47.194,211.149,52.415,193.06z"/>
		<path fill="#6CDDAA" d="M150.952,69.87c-29.829-44.604-100.086,14.453-61.235,51.506
			C106.523,100.474,127.322,82.915,150.952,69.87z"/>
		<path fill="#6CDDAA" d="M307.686,52.638c10.738-52.829-80.97-60.836-79.673-7.071c7.227-0.772,14.562-1.178,21.99-1.178
			C270.02,44.389,289.375,47.277,307.686,52.638z"/>
		<path fill="#6CDDAA" d="M430.344,151.333c45.832-29.696-14.08-101.071-51.269-61.253
			C399.892,106.914,417.371,127.715,430.344,151.333z"/>
		<path fill="#6CDDAA" d="M193.213,447.63c-11.514,53.586,81.873,61.627,79.541,6.716c-7.475,0.827-15.062,1.268-22.754,1.268
			C230.309,455.611,211.257,452.823,193.213,447.63z"/>
		<path fill="#6CDDAA" d="M349.044,430.133c-23.024,12.71-48.729,21.129-76.036,24.186
			C282.716,508.527,372.459,480.111,349.044,430.133z"/>
		<path fill="#6CDDAA" d="M250,56.389C143.242,56.389,56.389,143.242,56.389,250S143.242,443.611,250,443.611
			S443.611,356.758,443.611,250S356.758,56.389,250,56.389z"/>
		<path fill="#6CDDAA" d="M447.337,307.771c-7.646,26.08-20.337,50.023-36.937,70.707
			C455.633,410.276,499.15,326.648,447.337,307.771z"/>
		<path fill="#6CDDAA" d="M151.307,69.671c23.11-12.699,48.91-21.079,76.309-24.059C217.182-7.075,129.644,20.576,151.307,69.671z"
			/>
		<path fill="#6CDDAA" d="M192.939,447.549c-26.142-7.562-50.153-20.187-70.906-36.733
			C91.078,455.835,173.967,498.87,192.939,447.549z"/>
		<path fill="#6CDDAA" d="M70.026,349.328C57.251,326.271,48.781,300.52,45.7,273.157C-7.233,283.537,20.682,371.585,70.026,349.328
			z"/>
		<path fill="#6CDDAA" d="M349.247,430.019c29.68,46.623,101.928-14.124,61.015-51.366
			C393.506,399.482,372.784,416.991,349.247,430.019z"/>
		<path fill="#6CDDAA" d="M52.532,192.669c7.614-26.182,20.306-50.22,36.933-70.981C44.839,91.847,2.512,173.271,52.532,192.669z"/>
	</g>
</g>
</svg>
