<?xml version="1.0" encoding="utf-8"?>
<!-- Generator: Adobe Illustrator 21.0.0, SVG Export Plug-In . SVG Version: 6.00 Build 0)  -->
<svg version="1.1" id="Cutout_Circle_with_Crimped_Border_Line_Design"
	 xmlns="http://www.w3.org/2000/svg" xmlns:xlink="http://www.w3.org/1999/xlink" x="0px" y="0px" viewBox="0 0 446.8369 446.8359"
	 enable-background="new 0 0 446.8369 446.8359" xml:space="preserve">
<g id="change1">
	<path fill="#023E63" d="M381.3994,65.4375C339.2012,23.2397,283.0957,0,223.4185,0S107.6362,23.2397,65.438,65.4375
		C23.2397,107.6357,0,163.7407,0,223.418c0,59.6768,23.2397,115.7822,65.438,157.9805s98.3032,65.4375,157.9805,65.4375
		s115.7827-23.2393,157.981-65.4375s65.4375-98.3037,65.4375-157.9805C446.8369,163.7407,423.5977,107.6357,381.3994,65.4375z
		 M398.02,303.5558c11.4227,1.7689,22.7035-3.8511,28.2534-13.8162c-5.1001,15.5608-11.9316,30.3442-20.2876,44.1074
		C409.8447,323.1817,406.7573,311.0443,398.02,303.5558z M326.9839,385.1993c8.6182,7.6083,21.0424,8.9703,31.0687,3.6805
		c-12.4884,10.1807-26.1456,18.9761-40.7376,26.1555C326.3447,408.1395,330.305,396.2282,326.9839,385.1993z M223.4186,402.3715
		c-98.8408,0-178.967-80.1263-178.967-178.967s80.1262-178.967,178.967-178.967s178.967,80.1262,178.967,178.967
		S322.2593,402.3715,223.4186,402.3715z M306.2119,420.1195c-14.8776,6.2857-30.6147,10.9182-46.9759,13.6947
		c10.7612-3.9874,18.0511-14.3599,17.9817-25.9877C283.3776,417.6281,295.0311,422.4683,306.2119,420.1195z M128.8931,414.7224
		c-14.5755-7.2312-28.216-16.0713-40.6779-26.3011c10.0118,5.3435,22.4606,4.0309,31.1132-3.5566
		C115.9705,395.8815,119.8876,407.7999,128.8931,414.7224z M186.925,433.7019c-16.345-2.8282-32.0605-7.515-46.9155-13.8464
		c11.1563,2.3786,22.8167-2.4195,29.0035-12.1924C168.9125,419.2886,176.1718,429.6841,186.925,433.7019z M40.4819,333.2231
		c-8.3035-13.7819-15.0871-28.5752-20.1335-44.1449c5.5215,9.9858,16.7845,15.6392,28.215,13.9167
		C39.813,310.4445,36.6735,322.5526,40.4819,333.2231z M48.7352,143.4413c-11.421-1.7526-22.6816,3.8659-28.2267,13.8242
		c5.0719-15.5188,11.8678-30.2642,20.178-43.9987C36.9024,123.9098,40.0217,135.9868,48.7352,143.4413z M33.2889,195.8752
		c-11.5007,1.5623-20.7464,10.2178-23.1954,21.4195c0.4724-16.6787,2.8721-32.8817,6.9761-48.4003
		C16.304,180.2865,22.7203,191.1453,33.2889,195.8752z M33.2258,250.5245c-10.5898,4.7128-17.0295,15.5764-16.2731,26.9856
		c-4.0768-15.549-6.4461-31.7816-6.8789-48.4889C12.486,240.2394,21.7122,248.9298,33.2258,250.5245z M119.6812,61.7245
		c-8.6018-7.5788-20.9881-8.9403-30.9913-3.6925c12.4202-10.1368,25.9995-18.9008,40.5048-26.0685
		C120.253,38.8779,116.3594,50.7365,119.6812,61.7245z M140.544,26.7496c14.7927-6.257,30.436-10.8797,46.698-13.6682
		c-10.6861,4.0329-17.9065,14.3811-17.8219,25.9533C163.2688,29.2786,151.6796,24.4501,140.544,26.7496z M317.8595,32.0715
		c14.4894,7.1805,28.0537,15.953,40.4579,26.0977c-9.9967-5.2542-22.3816-3.9062-30.9899,3.6639
		C330.6629,50.858,326.7838,39.0004,317.8595,32.0715z M259.8264,13.1198c16.2491,2.8047,31.8787,7.4419,46.6578,13.7101
		c-11.1196-2.2975-22.7045,2.5159-28.8593,12.2502C277.7098,27.5138,270.4999,17.1587,259.8264,13.1198z M406.2508,113.4365
		c8.2981,13.743,15.0822,28.495,20.1399,44.0204c-5.5442-9.9471-16.7961-15.5689-28.2081-13.8257
		C406.9131,136.1765,410.0433,124.0904,406.2508,113.4365z M429.8326,169.1354c4.0844,15.5187,6.4658,31.7202,6.9197,48.3957
		c-2.4329-11.2037-11.6724-19.8777-23.1686-21.4479C424.1384,191.3641,430.5724,180.5233,429.8326,169.1354z M413.5202,251.14
		c11.5003-1.5551,20.7524-10.2018,23.2153-21.3948c-0.4883,16.6815-2.9039,32.8862-7.0249,48.4049
		C430.4951,266.7515,424.0859,255.8788,413.5202,251.14z M399.3602,102.7664c-8.1213-7.8104-20.3817-9.9492-30.749-5.1118
		c6.2757-9.586,5.8705-22.0198-0.7255-31.1741C379.679,77.345,390.2463,89.5174,399.3602,102.7664z M247.8788,11.4102
		c-11.3725,0.8801-21.1799,8.7732-24.3517,19.8832c-3.1644-11.1089-12.9621-19.0146-24.3253-19.9112
		C207.1529,10.48,215.2301,10,223.4185,10C231.6905,10,239.8492,10.4897,247.8788,11.4102z M79.1254,66.3182
		c-6.613,9.1447-7.0362,21.5854-0.7729,31.1822c-10.3533-4.849-22.6021-2.7311-30.7343,5.0619
		C56.7453,89.3271,67.3224,77.1677,79.1254,66.3182z M47.2957,343.8084c8.1135,7.8592,20.3968,10.0301,30.7857,5.1907
		c-6.2974,9.6102-5.8815,22.0944,0.7695,31.2629C67.0206,369.3494,56.4244,357.121,47.2957,343.8084z M198.5505,435.3791
		c11.4466-0.7973,21.3549-8.7063,24.5513-19.8745c3.1697,11.1746,13.0411,19.1117,24.478,19.9555
		c-7.9332,0.8981-15.992,1.3759-24.1614,1.3759C215.0064,436.8359,206.7114,436.3306,198.5505,435.3791z M367.482,380.7312
		c6.6804-9.1474,7.1339-21.6367,0.8669-31.2711c10.3702,4.8759,22.6526,2.7462,30.7954-5.0795
		C389.9745,357.6605,379.3459,369.8575,367.482,380.7312z"/>
	<path fill="#023E63" d="M345.8375,100.9993c-32.6993-32.6989-76.1753-50.7073-122.419-50.7073s-89.7194,18.0084-122.4186,50.7073
		c-32.6993,32.6993-50.7077,76.1749-50.7077,122.4186c0,46.2433,18.0084,89.7194,50.7077,122.4186s76.1749,50.7073,122.4186,50.7073
		s89.7197-18.0081,122.419-50.7073c32.6993-32.6993,50.7073-76.1753,50.7073-122.4186
		C396.5448,177.1743,378.5368,133.6986,345.8375,100.9993z M223.4185,388.795c-91.1893,0-165.3774-74.1881-165.3774-165.377
		c0-91.1893,74.1881-165.377,165.3774-165.377s165.3774,74.1877,165.3774,165.377
		C388.7958,314.6069,314.6077,388.795,223.4185,388.795z"/>
</g>
</svg>
