<?xml version="1.0" encoding="utf-8"?>
<!-- Generator: Adobe Illustrator 21.0.0, SVG Export Plug-In . SVG Version: 6.00 Build 0)  -->
<svg version="1.1" id="Cutout_Star_Shaped_Design" xmlns="http://www.w3.org/2000/svg" xmlns:xlink="http://www.w3.org/1999/xlink"
	 x="0px" y="0px" viewBox="0 0 428.9826 495.3464" enable-background="new 0 0 428.9826 495.3464" xml:space="preserve">
<g id="change1">
	<polygon fill="#2DCC70" points="366.6223,159.7186 264.2277,159.9252 214.4914,71.9496 164.7556,159.9252 62.3605,159.7186 
		115.0207,247.6727 62.3605,335.6288 164.7556,335.4208 214.5178,423.4432 264.2277,336.2225 366.6769,335.7196 313.9631,247.6727 	
		"/>
	<path fill="#2DCC70" d="M428.9826,123.8366l-144.3172,0.2916L214.4913,0l-70.1741,124.1282L0,123.8366l74.1431,123.8366L0,371.5098
		l144.3172-0.2916l70.1741,124.1282l70.1741-123.1282l144.3172-0.7084l-74.1431-123.8366L428.9826,123.8366z M393.0637,350.5907
		l-120.0957,0.5889L214.465,453.83l-58.4507-103.3916l-120.1499,0.2432l61.6729-103.0088L35.8644,144.6649l120.1499,0.2427
		l58.4771-103.4375l58.4766,103.4375l120.1504-0.2427l-61.6729,103.0078L393.0637,350.5907z"/>
</g>
</svg>
