<?xml version="1.0" encoding="utf-8"?>
<!-- Generator: Adobe Illustrator 21.0.0, SVG Export Plug-In . SVG Version: 6.00 Build 0)  -->
<svg version="1.1" id="Circle_with_Cutout_Border_Line"
	 xmlns="http://www.w3.org/2000/svg" xmlns:xlink="http://www.w3.org/1999/xlink" x="0px" y="0px" viewBox="0 0 484 484"
	 enable-background="new 0 0 484 484" xml:space="preserve">
<g id="change1">
	<path fill="#6CDDAA" d="M413.1197,70.8803C367.4124,25.1725,306.6403,0,242,0S116.5881,25.1725,70.8803,70.8803S0,177.3597,0,242
		s25.1725,125.4124,70.8803,171.1197C116.5881,458.8279,177.3593,484,242,484c64.6403,0,125.4124-25.1721,171.1197-70.8803
		C458.8279,367.4124,484,306.6403,484,242C484,177.3593,458.8279,116.5881,413.1197,70.8803z M402.749,402.749
		C359.8117,445.6862,302.7234,469.3333,242,469.3333c-60.723,0-117.8112-23.6471-160.749-66.5844
		C38.3134,359.8117,14.6667,302.7234,14.6667,242c0-60.723,23.6467-117.8112,66.5844-160.749
		C124.1888,38.3134,181.277,14.6667,242,14.6667c60.7234,0,117.8117,23.6467,160.749,66.5844
		c42.9373,42.9377,66.5844,100.026,66.5844,160.749C469.3333,302.7234,445.6862,359.8117,402.749,402.749z"/>
	<path fill="#6CDDAA" d="M242,48.1523C135.1118,48.1523,48.1523,135.1118,48.1523,242
		c0,106.8877,86.9595,193.8477,193.8477,193.8477c106.8877,0,193.8477-86.96,193.8477-193.8477
		C435.8477,135.1118,348.8877,48.1523,242,48.1523z M55.0796,221.48c0.1504-1.3701,1.3804-2.3604,2.75-2.21
		c1.3804,0.1499,2.3701,1.3799,2.2202,2.75c-0.1401,1.2798-1.23,2.23-2.48,2.23c-0.0898,0-0.1802,0-0.2798-0.0103
		C55.9199,224.0898,54.9297,222.8496,55.0796,221.48z M53.9697,241.7998c0-1.3799,1.1201-2.5,2.5-2.5s2.5,1.1299,2.5,2.5103
		c0,1.3794-1.1201,2.4897-2.5,2.4897S53.9697,243.1797,53.9697,241.7998z M57.52,264.3594c-1.27,0-2.3501-0.96-2.48-2.2393
		c-0.1504-1.3701,0.8398-2.6006,2.2197-2.75c1.3701-0.1406,2.6001,0.8496,2.75,2.2197c0.1401,1.3799-0.8501,2.6104-2.2197,2.75
		C57.6899,264.3496,57.5996,264.3594,57.52,264.3594z M61.2598,284.1299c-0.1802,0.04-0.3599,0.0498-0.54,0.0498
		c-1.1499,0-2.1797-0.79-2.4399-1.96c-0.29-1.3496,0.5601-2.6895,1.9102-2.9795c1.3501-0.3008,2.6797,0.5596,2.98,1.9092
		C63.46,282.5,62.6099,283.8301,61.2598,284.1299z M63.25,202.4697c-0.2603,1.1699-1.29,1.9702-2.4399,1.96
		c-0.1802,0-0.3604-0.0098-0.54-0.0498c-1.3501-0.3003-2.2002-1.6401-1.9004-2.98c0.29-1.3501,1.6304-2.21,2.98-1.9102
		C62.6899,199.79,63.5498,201.1196,63.25,202.4697z M66.8599,303.4199c-0.2603,0.0898-0.5303,0.1299-0.79,0.1299
		c-1.0498,0-2.02-0.6602-2.3701-1.7002c-0.4399-1.3096,0.2603-2.7295,1.5703-3.1699c1.3096-0.4395,2.73,0.2705,3.1699,1.5801
		C68.8799,301.5596,68.1699,302.9795,66.8599,303.4199z M68.5601,183.3896c-0.3604,1.04-1.3301,1.6899-2.3701,1.6899
		c-0.27,0-0.54-0.0396-0.8003-0.1299c-1.3101-0.4399-2.0098-1.8599-1.5698-3.1597c0.4399-1.3203,1.8599-2.02,3.1699-1.5703
		C68.2998,180.6597,69,182.0796,68.5601,183.3896z M74.5298,321.9902c-0.3398,0.1592-0.6899,0.2295-1.04,0.2295
		c-0.9497,0-1.8501-0.54-2.27-1.4502c-0.5801-1.25-0.04-2.7393,1.2202-3.3193c1.25-0.5801,2.7397-0.0303,3.3101,1.2197
		C76.3296,319.9297,75.79,321.4102,74.5298,321.9902z M75.9097,164.9897c-0.4199,0.9102-1.3301,1.4502-2.27,1.4502
		c-0.3496,0-0.71-0.0801-1.0498-0.2402c-1.25-0.5801-1.79-2.0698-1.21-3.3198s2.0698-1.8003,3.3198-1.21
		C75.9497,162.25,76.4897,163.7397,75.9097,164.9897z M84.1797,339.6094c-0.4097,0.25-0.8501,0.3604-1.29,0.3604
		c-0.8496,0-1.6699-0.4297-2.1396-1.21c-0.71-1.1797-0.3301-2.7197,0.8496-3.4297c1.1802-0.71,2.7202-0.3301,3.4302,0.8594
		C85.7397,337.3701,85.3599,338.8994,84.1797,339.6094z M85.2197,147.5c-0.4697,0.7798-1.2998,1.21-2.1401,1.21
		c-0.4399,0-0.8896-0.1104-1.2896-0.3604c-1.1904-0.71-1.5601-2.25-0.8501-3.4297c0.71-1.1802,2.25-1.5601,3.4297-0.8501
		C85.5498,144.79,85.9297,146.3198,85.2197,147.5z M95.6699,356.0996c-0.4502,0.3398-0.98,0.5-1.5103,0.5
		c-0.7598,0-1.5-0.3398-1.9897-0.9795c-0.8403-1.1006-0.6299-2.6699,0.4697-3.5107c1.1001-0.8291,2.6704-0.6191,3.5103,0.4805
		C96.98,353.6895,96.77,355.2598,95.6699,356.0996z M96.3599,131.1299c-0.4902,0.6401-1.23,0.98-1.9902,0.98
		c-0.52,0-1.0596-0.1699-1.5098-0.5103c-1.1001-0.8398-1.3101-2.4097-0.4702-3.5098c0.8301-1.0898,2.4004-1.3101,3.5-0.4702
		C96.9897,128.46,97.1997,130.0298,96.3599,131.1299z M108.8696,371.2402c-0.4897,0.46-1.0996,0.6797-1.7197,0.6797
		c-0.6602,0-1.3301-0.2598-1.8203-0.7803c-0.9497-1-0.8999-2.5898,0.1001-3.5303c1.0103-0.9492,2.5903-0.9092,3.54,0.1006
		c0,0,0,0,0-0.0098C109.9199,368.71,109.8696,370.29,108.8696,371.2402z M109.21,116.04c-0.4902,0.52-1.1499,0.7798-1.8203,0.7798
		c-0.6099,0-1.23-0.23-1.7197-0.6899c-1-0.9502-1.04-2.5303-0.0903-3.5303c0.9502-1,2.5303-1.0498,3.54-0.0996
		C110.1196,113.4497,110.1597,115.04,109.21,116.04z M123.6196,384.8799c-0.5,0.5801-1.1997,0.8799-1.9097,0.8799
		c-0.5703,0-1.1499-0.2002-1.6201-0.5996c-1.0498-0.9004-1.1802-2.4805-0.2798-3.5303c0.8999-1.0498,2.4697-1.1699,3.5195-0.2803
		C124.3896,382.25,124.5098,383.8301,123.6196,384.8799z M123.5996,102.4199c-0.4697,0.3999-1.0396,0.5898-1.6196,0.5898
		c-0.7002,0-1.4102-0.2998-1.9004-0.8799c-0.8896-1.0503-0.7695-2.6299,0.29-3.52c1.0503-0.8999,2.6304-0.77,3.52,0.2798
		C124.7798,99.9497,124.6499,101.52,123.5996,102.4199z M139.7397,396.8496c-0.48,0.71-1.27,1.0898-2.0698,1.0898
		c-0.48,0-0.9702-0.1396-1.3999-0.4297c-1.1401-0.7803-1.4404-2.3398-0.6602-3.4795c0.7798-1.1406,2.3301-1.4307,3.4697-0.6602
		c0,0,0,0,0,0.0098C140.2197,394.1494,140.52,395.71,139.7397,396.8496z M139.3799,90.4199
		c-0.4302,0.2998-0.9199,0.4297-1.3999,0.4297c-0.8003,0-1.5903-0.3799-2.0703-1.0898c-0.7798-1.1401-0.48-2.6997,0.6602-3.4697
		c1.1499-0.7803,2.7002-0.48,3.48,0.6597C140.8198,88.0898,140.52,89.6499,139.3799,90.4199z M157.0601,407.0098
		c-0.4502,0.8398-1.3101,1.3203-2.2104,1.3203c-0.3896,0-0.7896-0.0898-1.1699-0.29c-1.2197-0.6504-1.6797-2.1699-1.0298-3.3906
		c0.6499-1.21,2.1602-1.6797,3.3799-1.0195C157.25,404.2695,157.71,405.79,157.0601,407.0098z M156.3599,80.1997
		c-0.3799,0.2002-0.7803,0.29-1.1699,0.29c-0.8999,0-1.7603-0.48-2.21-1.3198c-0.6504-1.2202-0.1899-2.7402,1.0298-3.3901
		c1.2202-0.6401,2.7402-0.1802,3.3799,1.04C158.04,78.04,157.5796,79.5498,156.3599,80.1997z M175.3896,415.2295
		c-0.3896,0.9805-1.3296,1.5703-2.3198,1.5703c-0.3101,0-0.6201-0.0596-0.9302-0.1797c-1.2798-0.5107-1.8999-1.9707-1.3896-3.25
		c0.5098-1.2803,1.9697-1.9004,3.25-1.3906C175.2798,412.4902,175.8999,413.9502,175.3896,415.2295z M174.3496,71.8799
		c0,0,0,0-0.0098,0C174.04,72,173.73,72.0601,173.4199,72.0601c-0.9902,0-1.9302-0.6001-2.3203-1.5801
		c-0.52-1.2803,0.1104-2.73,1.3901-3.2402c1.29-0.52,2.7402,0.1099,3.25,1.3901C176.25,69.9199,175.6299,71.3696,174.3496,71.8799z
		 M194.5,421.4102c-0.3101,1.1094-1.3101,1.8301-2.4102,1.8301c-0.2202,0-0.4399-0.0303-0.6699-0.0908
		c-1.3301-0.3691-2.1001-1.75-1.73-3.0801c0.3701-1.3291,1.75-2.1094,3.0698-1.7393
		C194.0996,418.7002,194.8696,420.0801,194.5,421.4102z M193.1299,65.5698c-0.2202,0.0601-0.4502,0.0898-0.6699,0.0898
		c-1.0903,0-2.1001-0.73-2.4102-1.8398c-0.3599-1.3301,0.4199-2.7002,1.75-3.0698c1.3301-0.3701,2.71,0.4097,3.0698,1.7397
		C195.2397,63.8198,194.46,65.1997,193.1299,65.5698z M214.1699,425.4697c-0.2002,1.2305-1.2603,2.0996-2.46,2.0996
		c-0.1304,0-0.27-0.0098-0.4102-0.0391c-1.3599-0.2207-2.29-1.5107-2.0601-2.8701c0.2202-1.3604,1.5103-2.2803,2.8701-2.0605
		S214.3999,424.1094,214.1699,425.4697z M212.48,61.3398c-0.1304,0.02-0.27,0.0298-0.4004,0.0298
		c-1.1997,0-2.2695-0.8696-2.46-2.0996c-0.23-1.3604,0.7002-2.6504,2.0601-2.8701c1.3701-0.2202,2.6499,0.71,2.8701,2.0698
		S213.8496,61.1196,212.48,61.3398z M231.6699,429.75c-0.04,0-0.0903-0.0098-0.1401-0.0098
		c-1.3799-0.0703-2.4302-1.25-2.3599-2.6309c0.0801-1.3799,1.2598-2.4395,2.6401-2.3594c1.3799,0.0693,2.4297,1.25,2.3599,2.6299
		C234.0898,428.71,232.9897,429.75,231.6699,429.75z M232.1797,59.23c-0.04,0-0.0898,0-0.1299,0
		c-1.3198,0-2.4199-1.0303-2.4897-2.3701c-0.0801-1.3799,0.98-2.5498,2.3599-2.6201c1.3799-0.0801,2.5498,0.98,2.6299,2.3599
		C234.6196,57.98,233.5601,59.1597,232.1797,59.23z M428.9395,221.6797c0.1504,1.3701-0.8398,2.6104-2.2197,2.75
		c-0.0898,0.0103-0.1797,0.02-0.2695,0.02c-1.2607,0-2.3408-0.9497-2.4805-2.2397c-0.1504-1.3701,0.8496-2.6001,2.2197-2.75
		S428.7998,220.3101,428.9395,221.6797z M422.7002,199.6797c1.3496-0.29,2.6797,0.5601,2.9795,1.9102
		c0.29,1.3501-0.5596,2.6802-1.9102,2.98c-0.1797,0.04-0.3594,0.0601-0.54,0.0601c-1.1494,0-2.1797-0.8003-2.4395-1.9702
		C420.4902,201.3101,421.3496,199.98,422.7002,199.6797z M251.8799,429.7695c-0.04,0-0.0801,0.0107-0.1299,0.0107
		c-1.3203,0-2.4199-1.04-2.4902-2.3701c-0.0703-1.3799,0.9805-2.5605,2.3604-2.6299c1.3799-0.0703,2.5596,0.9893,2.6299,2.3691
		C254.3193,428.5303,253.2598,429.7002,251.8799,429.7695z M252.1396,59.2397c-0.0498,0-0.0898,0-0.1396,0
		c-1.3799-0.0698-2.4404-1.25-2.3604-2.6299c0.0703-1.3799,1.25-2.4399,2.6299-2.3599c1.3799,0.0698,2.4404,1.25,2.3604,2.6299
		C254.5596,58.21,253.46,59.2397,252.1396,59.2397z M272.1201,427.6299c-0.1406,0.0195-0.2705,0.0303-0.4004,0.0303
		c-1.21,0-2.2695-0.8799-2.46-2.1006c-0.2295-1.3701,0.7002-2.6494,2.0596-2.8701c1.3701-0.2197,2.6504,0.71,2.8701,2.0703
		C274.4102,426.1299,273.4795,427.4102,272.1201,427.6299z M274.5693,59.2998c-0.1992,1.23-1.2598,2.1001-2.46,2.1001
		c-0.1396,0-0.2695-0.0103-0.4092-0.0303c-1.3604-0.23-2.29-1.5098-2.0703-2.8696c0.2295-1.3604,1.5098-2.29,2.8701-2.0703
		C273.8701,56.6597,274.79,57.9399,274.5693,59.2998z M292.0098,423.2998c-0.2197,0.0703-0.4404,0.0996-0.6602,0.0898
		c-1.0996,0-2.1094-0.7197-2.4102-1.8301c-0.3701-1.3398,0.4102-2.71,1.75-3.0801c1.3301-0.3701,2.7002,0.4199,3.0703,1.75
		S293.3398,422.9395,292.0098,423.2998z M294.1299,63.8799c-0.3105,1.1001-1.3203,1.8301-2.4102,1.8301
		c-0.2197,0-0.4502-0.0303-0.6699-0.0903c-1.3301-0.3696-2.1104-1.75-1.7402-3.0796c0.3701-1.3301,1.75-2.1104,3.0801-1.7402
		h-0.0098C293.7197,61.1699,294.4902,62.54,294.1299,63.8799z M311.3193,416.8398c-0.2998,0.1201-0.6094,0.1797-0.9199,0.1797
		c-1,0-1.9395-0.5996-2.3301-1.5801c-0.5098-1.29,0.1201-2.7393,1.4102-3.25c1.2803-0.5098,2.7305,0.1201,3.2402,1.4004
		S312.5996,416.3301,311.3193,416.8398z M313.0693,70.5498c-0.3896,0.98-1.3291,1.5801-2.3193,1.5801
		c-0.3105,0-0.6201-0.0601-0.9307-0.1802c-1.2793-0.5098-1.9092-1.9697-1.3896-3.25c0.5098-1.2798,1.96-1.9097,3.2402-1.3999
		C312.96,67.8198,313.5801,69.27,313.0693,70.5498z M329.8096,408.3096c-0.3701,0.1904-0.7695,0.29-1.1699,0.29
		c-0.8896,0-1.7598-0.4902-2.21-1.3301c-0.6494-1.2197-0.1797-2.7393,1.04-3.3799c1.2197-0.6494,2.7305-0.1797,3.3799,1.04
		C331.5,406.1494,331.0303,407.6602,329.8096,408.3096z M331.1797,79.25c-0.4502,0.8496-1.3203,1.3296-2.21,1.3296
		c-0.4004,0-0.7998-0.0996-1.1797-0.2998c-1.2207-0.6499-1.6807-2.1602-1.0303-3.3799c0.6504-1.2202,2.1602-1.6802,3.3799-1.0303
		C331.3594,76.52,331.8193,78.0298,331.1797,79.25z M347.2598,397.8301c-0.4297,0.29-0.9102,0.4297-1.4004,0.4297
		c-0.7998,0-1.5898-0.3896-2.0693-1.0996c-0.7705-1.1504-0.4707-2.7002,0.6699-3.4805c1.1396-0.7695,2.7002-0.4697,3.4697,0.6699
		C348.71,395.5,348.4102,397.0498,347.2598,397.8301z M348.2295,89.8496c-0.4795,0.7202-1.2695,1.1001-2.0693,1.1001
		c-0.4805,0-0.9707-0.1396-1.4004-0.4297c-1.1504-0.7803-1.4404-2.3403-0.6699-3.48c0.7803-1.1401,2.3301-1.4404,3.4795-0.6602
		C348.71,87.1597,349,88.71,348.2295,89.8496z M363.4795,385.5195c-0.4697,0.4004-1.04,0.5898-1.6094,0.5898
		c-0.71,0-1.4199-0.2998-1.9102-0.8799c-0.9004-1.0498-0.7705-2.6299,0.29-3.5195c1.0498-0.9004,2.6299-0.7705,3.5195,0.29
		C364.6602,383.0498,364.5303,384.6299,363.4795,385.5195z M364.04,102.2397c-0.4902,0.5801-1.2002,0.8799-1.9004,0.8799
		c-0.5801,0-1.1494-0.1997-1.6201-0.5996c-1.0498-0.8901-1.1797-2.4702-0.29-3.52c0.9004-1.0503,2.4805-1.1802,3.5303-0.29
		C364.8096,99.6099,364.9395,101.1797,364.04,102.2397z M378.2803,371.5498c-0.4902,0.5098-1.1504,0.7695-1.8105,0.7695
		c-0.6201,0-1.2402-0.2197-1.7197-0.6797c-1.0098-0.9502-1.04-2.54-0.0898-3.54c0.9492-1,2.5293-1.04,3.5293-0.0898
		S379.2295,370.5498,378.2803,371.5498z M378.4297,116.25c-0.4795,0.46-1.0996,0.6797-1.71,0.6797
		c-0.6699,0-1.3301-0.2598-1.8203-0.7798c-0.9492-1-0.9092-2.5801,0.1006-3.5303c1-0.9497,2.5801-0.9097,3.5303,0.0903
		C379.4795,113.7197,379.4395,115.2998,378.4297,116.25z M391.4902,356.0596c-0.4902,0.6504-1.2305,0.9902-1.9902,0.9902
		c-0.5303,0-1.0605-0.1699-1.5098-0.5195c-1.1006-0.8408-1.3105-2.4102-0.4707-3.5c0.8398-1.1006,2.4102-1.3105,3.5-0.4707
		C392.1201,353.3994,392.3301,354.9697,391.4902,356.0596z M391.2402,131.73c-0.46,0.3398-0.9902,0.5098-1.5205,0.5098
		c-0.75,0-1.4902-0.3398-1.9902-0.9897c-0.8301-1.0903-0.6201-2.6602,0.4805-3.5c1.0996-0.8403,2.6699-0.6201,3.5,0.48
		C392.5498,129.3198,392.3398,130.8896,391.2402,131.73z M402.96,339.25c-0.4697,0.7803-1.2998,1.21-2.1406,1.21
		c-0.4395,0-0.8896-0.1201-1.2998-0.3701c-1.1797-0.71-1.5498-2.25-0.8398-3.4297c0.7197-1.1807,2.25-1.5605,3.4297-0.8408
		C403.2998,336.5303,403.6699,338.0693,402.96,339.25z M402.2998,148.5c-0.4004,0.2397-0.8496,0.3599-1.29,0.3599
		c-0.8496,0-1.6699-0.4302-2.1396-1.21c-0.7207-1.1802-0.3398-2.7202,0.8496-3.4302c1.1797-0.7197,2.7197-0.3301,3.4297,0.8501
		S403.4795,147.79,402.2998,148.5z M412.54,321.2998c-0.4307,0.9102-1.3301,1.4404-2.2705,1.4404
		c-0.3496,0-0.71-0.0703-1.0498-0.2305c-1.25-0.5801-1.7998-2.0703-1.21-3.3203c0.5801-1.2598,2.0703-1.7998,3.3203-1.21
		C412.5801,318.5596,413.1201,320.0498,412.54,321.2998z M411.4795,166.3696c-0.3398,0.1602-0.6992,0.23-1.0498,0.23
		c-0.9395,0-1.8398-0.5396-2.2695-1.4497c-0.5801-1.25-0.0303-2.7402,1.2197-3.3203c1.25-0.5796,2.7402-0.0298,3.3203,1.2202
		S412.7295,165.79,411.4795,166.3696z M420.1201,302.3994h-0.0107c-0.3496,1.04-1.3193,1.7002-2.3594,1.7002
		c-0.2705,0-0.54-0.04-0.7998-0.1299c-1.3105-0.4502-2.0107-1.8701-1.5703-3.1699c0.4395-1.3096,1.8604-2.0098,3.1699-1.5703
		C419.8594,299.6797,420.5596,301.0898,420.1201,302.3994z M418.6699,185.1299c-0.2705,0.0898-0.5303,0.1299-0.7998,0.1299
		c-1.04,0-2.0205-0.6602-2.3701-1.6997c-0.4404-1.3101,0.2598-2.7305,1.5693-3.1704c1.3105-0.4399,2.7305,0.27,3.1709,1.5703
		C420.6797,183.27,419.9795,184.6899,418.6699,185.1299z M425.5898,282.7998c-0.2598,1.1602-1.29,1.96-2.4404,1.96
		c-0.1797,0-0.3594-0.0195-0.54-0.0596c-1.3496-0.3008-2.1992-1.6406-1.8994-2.9805c0.2998-1.3496,1.6299-2.2002,2.9795-1.9004
		C425.04,280.1094,425.8896,281.4502,425.5898,282.7998z M428.8994,262.71c-0.1396,1.2803-1.2197,2.2295-2.4795,2.2295
		c-0.0898,0-0.1797,0-0.2803-0.0098c-1.3701-0.1602-2.3594-1.3896-2.21-2.7598c0.1504-1.3701,1.3799-2.3604,2.7598-2.21
		C428.0596,260.1094,429.0498,261.3398,428.8994,262.71z M427.5303,244.8896h-0.0107c-1.3799,0-2.5-1.1201-2.4893-2.5
		c0-0.0698,0-0.1299,0.0098-0.1899c-0.0098-0.0698-0.0098-0.1299-0.0098-0.1997c0-1.3804,1.1191-2.5,2.5-2.5
		c1.3799,0,2.5,1.1196,2.5,2.5c0,0.0698,0,0.1396-0.0107,0.21c0,0.0601,0.0107,0.1196,0.0107,0.1899
		C430.0195,243.7803,428.8994,244.8896,427.5303,244.8896z"/>
	<path fill="#6CDDAA" d="M242,25.4395C122.3969,25.4395,25.4395,122.3969,25.4395,242S122.3969,458.5605,242,458.5605
		S458.5605,361.6031,458.5605,242S361.6031,25.4395,242,25.4395z M242,440.8477c-109.645,0-198.8477-89.2031-198.8477-198.8477
		C43.1523,132.355,132.355,43.1523,242,43.1523c109.6445,0,198.8477,89.2026,198.8477,198.8477
		C440.8477,351.6445,351.6445,440.8477,242,440.8477z"/>
</g>
</svg>
