<?xml version="1.0" encoding="utf-8"?>
<!-- Generator: Adobe Illustrator 21.0.0, SVG Export Plug-In . SVG Version: 6.00 Build 0)  -->
<svg version="1.1" id="star-shape-1" xmlns="http://www.w3.org/2000/svg" xmlns:xlink="http://www.w3.org/1999/xlink" x="0px"
	 y="0px" viewBox="0 0 490.4121 466.4106" enable-background="new 0 0 490.4121 466.4106" xml:space="preserve">
<g id="change1">
	<polygon fill="#C6F0DA" points="245.3782,62.2856 316.6981,10.6372 344.0389,94.3424 432.096,94.4787 405.0145,178.2682 
		476.1741,230.1372 405.0145,282.0062 432.096,365.7957 344.0389,365.932 316.6981,449.6372 245.3782,397.9888 174.0583,449.6372 
		146.7175,365.932 58.6603,365.7957 85.7418,282.0062 14.5822,230.1372 85.7418,178.2682 58.6603,94.4787 146.7175,94.3424 
		174.0583,10.6372 	"/>
</g>
<g id="change2">
	<path fill="#11BC9B" d="M490.4121,233.2051l-75.6025-55.1074l28.7725-89.021l-93.5547-0.145L320.9795,0l-75.7729,54.873L169.4336,0
		l-29.0483,88.9316l-93.5552,0.145l28.772,89.021L0,233.2051l75.6025,55.1079l-28.7725,89.0215l93.5552,0.1436l29.0483,88.9326
		l75.7729-54.874l75.7729,54.874l29.0479-88.9326l93.5547-0.1436l-28.7725-89.0215L490.4121,233.2051z M397.1963,183.8203
		l57.4617,41.8848h-53.5499l-40.9509-29.8496l15.5853-48.22l43.3222-31.4758L397.1963,183.8203z M252.707,67.9619l60.4033-43.7431
		l26.0303,79.6963l71.1079,0.1097l-43.3224,31.476l-50.6761-0.0789l-19.6875-60.2739l-43.8555,31.7588V67.9619z M151.271,103.915
		l26.0317-79.6963l60.4038,43.7434v38.9449l-43.856-31.7592l-19.6875,60.2739l-50.6755,0.0788l-43.3231-31.4759L151.271,103.915z
		 M93.2158,183.8203l-21.8683-67.6602l43.3231,31.476l15.5847,48.2194l-40.9509,29.8496H35.7541L93.2158,183.8203z
		 M93.2158,282.5903l-57.4612-41.8848H89.305l40.9504,29.8496l-15.5847,48.2194l-43.3235,31.4765L93.2158,282.5903z
		 M237.7065,398.4485l-60.4038,43.7434l-26.0317-79.6963l-71.1068-0.1102l43.3224-31.4757l50.6765,0.0781l19.6875,60.2744
		l43.856-31.7592V398.4485z M201.7197,367.0435l-16.6709-51.0381l-53.6924-0.084l16.5132-51.0889L104.48,233.2051l43.3896-31.627
		l-16.5132-51.0898l53.6924-0.083l16.6709-51.0386l43.4868,31.4922l43.4868-31.4922l16.6699,51.0386l53.6934,0.083l-16.5127,51.0898
		l43.3887,31.627l-43.3887,31.6274l16.5127,51.0889l-53.6934,0.084l-16.6699,51.0381l-43.4868-31.4912L201.7197,367.0435z
		 M339.1406,362.4956l-26.0303,79.6963l-60.4033-43.7431v-38.9454l43.8555,31.7588l19.6875-60.2744l50.6765-0.0781l43.3217,31.4757
		L339.1406,362.4956z M419.0648,350.2509l-43.3225-31.4763l-15.5851-48.2194l40.9504-29.8496h53.5499l-57.4612,41.8848
		L419.0648,350.2509z"/>
</g>
</svg>
