<?xml version="1.0" encoding="utf-8"?>
<!-- Generator: Adobe Illustrator 21.0.0, SVG Export Plug-In . SVG Version: 6.00 Build 0)  -->
<svg version="1.1" id="circle-cutout-line" xmlns="http://www.w3.org/2000/svg" xmlns:xlink="http://www.w3.org/1999/xlink" x="0px"
	 y="0px" viewBox="0 0 493 493" enable-background="new 0 0 493 493" xml:space="preserve">
<g id="circle-cutout-line-2">
	<path fill="#148C75" d="M246.5,8.8333C115.2403,8.8333,8.8333,115.2403,8.8333,246.5S115.2403,484.1667,246.5,484.1667
		S484.1667,377.7597,484.1667,246.5S377.7597,8.8333,246.5,8.8333z M246.5,411.4617c-91.1058,0-164.9617-73.8559-164.9617-164.9617
		S155.3942,81.5383,246.5,81.5383S411.4617,155.3942,411.4617,246.5S337.6058,411.4617,246.5,411.4617z"/>
</g>
<path id="circle-cutout-line-1" fill="#1ABC9C" d="M420.8018,72.1982C374.2441,25.6406,312.3428,0,246.5,0
	S118.7559,25.6406,72.1982,72.1982S0,180.6572,0,246.5s25.6406,127.7441,72.1982,174.3018S180.6572,493,246.5,493
	s127.7441-25.6406,174.3018-72.1982S493,312.3428,493,246.5S467.3594,118.7559,420.8018,72.1982z M477.8669,239h-33.9316
	c-1.8323-48.8315-21.4642-93.181-52.5884-126.7402l24.0576-24.0578C454.1129,129.4385,476.0793,182.4703,477.8669,239z
	 M90.8765,246.5c0-85.811,69.8125-155.6235,155.6235-155.6235c85.8115,0,155.624,69.8125,155.624,155.6235
	c0,85.8115-69.8125,155.624-155.624,155.624C160.689,402.124,90.8765,332.3115,90.8765,246.5z M120.7243,361.6688l-8.4636,8.4637
	C82.2618,337.5853,63.9082,294.1485,63.9082,246.5c0-47.6486,18.3536-91.0854,48.3527-123.6327l8.4637,8.4637
	C92.8891,161.7048,75.8765,202.1513,75.8765,246.5C75.8765,290.8486,92.889,331.295,120.7243,361.6688z M417.124,246.5
	c0-44.3487-17.0128-84.7951-44.8483-115.1688l8.4636-8.4637c29.9989,32.5472,48.3525,75.984,48.3525,123.6325
	c0,47.6483-18.3535,91.085-48.3522,123.6322l-8.4636-8.4636C400.1114,331.2949,417.124,290.8484,417.124,246.5z M254,15.1331
	c56.5295,1.7876,109.5611,23.7537,150.7975,62.462l-24.0576,24.0578C347.1807,70.5288,302.8312,50.897,254,49.0647V15.1331z
	 M370.1324,112.2606l-8.4636,8.4637C331.295,92.889,290.8485,75.8765,246.5,75.8765c-44.3487,0-84.7952,17.0126-115.1689,44.8481
	l-8.4637-8.4637c32.5473-29.999,75.9841-48.3527,123.6327-48.3527C294.1484,63.9082,337.5851,82.2617,370.1324,112.2606z
	 M239,15.1331v33.9316c-48.8316,1.8323-93.1812,21.4642-126.7404,52.5884L88.202,77.5956
	C129.4385,38.8871,182.4703,16.9207,239,15.1331z M77.5956,88.202l24.0576,24.0576C70.5289,145.8188,50.897,190.1684,49.0647,239
	H15.1331C16.9207,182.4703,38.8871,129.4385,77.5956,88.202z M15.1331,254h33.9316c1.8323,48.8314,21.4642,93.181,52.5884,126.7402
	L77.5955,404.798C38.8871,363.5615,16.9207,310.5297,15.1331,254z M239,477.8669c-56.5295-1.7876-109.5611-23.7537-150.7975-62.462
	l24.0576-24.0578c33.5591,31.124,77.9086,50.7559,126.7399,52.5882V477.8669z M122.8676,380.7394l8.4636-8.4637
	c30.3737,27.8355,70.8201,44.8483,115.1688,44.8483c44.3484,0,84.7949-17.0126,115.1686-44.848l8.4636,8.4636
	c-32.5472,29.9987-75.9839,48.3522-123.6322,48.3522C198.8516,429.0918,155.4149,410.7383,122.8676,380.7394z M254,477.8669
	v-33.9316c48.8311-1.8323,93.1805-21.4641,126.7397-52.5881l24.0577,24.0577C363.561,454.1132,310.5294,476.0793,254,477.8669z
	 M415.4049,404.7975l-24.0577-24.0577c31.124-33.5592,50.7559-77.9086,52.5881-126.7397h33.9316
	C476.0793,310.5294,454.1132,363.561,415.4049,404.7975z"/>
</svg>
