<?xml version="1.0" encoding="utf-8"?>
<!-- Generator: Adobe Illustrator 19.1.0, SVG Export Plug-In . SVG Version: 6.00 Build 0)  -->
<!DOCTYPE svg PUBLIC "-//W3C//DTD SVG 1.1//EN" "http://www.w3.org/Graphics/SVG/1.1/DTD/svg11.dtd">
<svg version="1.1" id="Layer_1" xmlns="http://www.w3.org/2000/svg" xmlns:xlink="http://www.w3.org/1999/xlink" x="0px" y="0px"
	 viewBox="0 -36 514.7 535.1" enable-background="new 0 -36 514.7 535.1" xml:space="preserve">
<g id="change2">
	<path fill="#7D8693" d="M499.9,231.5c0-27.1,13-55.9,5-80.4c-8.2-25.3-36-41-51.3-62.1c-15.5-21.3-21.9-52.5-43.2-68
		c-21.1-15.4-52.6-11.9-78-20.1c-24.5-7.9-47.8-29.5-74.9-29.5S207-7,182.6,0.9c-25.3,8.2-56.9,4.8-78,20.1
		C83.3,36.5,76.9,67.7,61.4,89c-15.3,21.2-43.1,36.8-51.3,62.1c-7.9,24.5,5,53.3,5,80.4s-13,55.9-5,80.4c8.2,25.3,36,41,51.3,62.1
		c15.5,21.3,21.9,52.5,43.2,68c21.1,15.4,52.6,11.9,78,20.1c24.5,7.9,47.8,29.5,74.9,29.5s50.5-21.6,74.9-29.5
		c25.3-8.2,56.9-4.8,78-20.1c21.3-15.5,27.7-46.7,43.2-68c15.4-21.1,43.1-36.7,51.3-62.1C512.9,287.5,499.9,258.6,499.9,231.5z"/>
</g>
<g id="change1">
	<path fill="#FFFFFF" d="M257.5,499.1c-18.8,0-35.2-8.9-51.1-17.6c-9-4.9-17.6-9.6-26.1-12.3c-9.1-2.9-19-4.3-29.5-5.7
		c-17.7-2.4-36-4.9-50.5-15.5c-14.7-10.7-22.7-27.4-30.5-43.5c-4.6-9.5-8.9-18.5-14.4-26.1C50,371,42.8,364.2,35.3,357
		C22.2,344.6,8.7,331.8,3,314.2c-5.5-16.8-2.2-34.8,0.9-52.2c1.8-10.2,3.7-20.7,3.7-30.5S5.7,211.2,3.9,201
		c-3.1-17.4-6.4-35.4-0.9-52.2c5.7-17.6,19.2-30.4,32.2-42.7c7.6-7.2,14.7-14,20.1-21.4c5.5-7.6,9.8-16.6,14.4-26.1
		c7.7-16.1,15.8-32.8,30.5-43.5C114.8,4.5,133,2,150.7-0.4c10.5-1.4,20.5-2.8,29.5-5.7c8.5-2.8,17.1-7.4,26.1-12.3
		C222.2-27,238.6-36,257.4-36s35.2,8.9,51.1,17.6c9,4.9,17.6,9.6,26.1,12.3c9,2.9,19,4.3,29.5,5.7c17.7,2.4,36,4.9,50.5,15.5
		c14.7,10.7,22.7,27.4,30.5,43.5c4.6,9.5,8.9,18.5,14.4,26.1c5.4,7.4,12.6,14.2,20.1,21.4c13,12.4,26.5,25.2,32.2,42.7
		c5.5,16.8,2.2,34.8-0.9,52.2c-1.8,10.2-3.7,20.7-3.7,30.5c0,9.8,1.9,20.3,3.7,30.5c3.1,17.4,6.4,35.4,0.9,52.2
		c-5.7,17.6-19.2,30.4-32.2,42.7c-7.6,7.2-14.7,14-20.1,21.4c-5.5,7.6-9.8,16.6-14.4,26.1c-7.7,16.1-15.8,32.8-30.5,43.5
		c-14.6,10.6-32.8,13.1-50.5,15.5c-10.5,1.4-20.5,2.8-29.5,5.7c-8.5,2.8-17.1,7.4-26.1,12.3C292.8,490.2,276.4,499.1,257.5,499.1z
		 M257.5-21.1c-15,0-29.1,7.6-44,15.7c-9.2,5-18.8,10.2-28.6,13.4c-10.3,3.4-21.4,4.9-32.2,6.3c-16.6,2.3-32.2,4.4-43.7,12.8
		C97.4,35.6,90.5,49.9,83.2,65c-4.7,9.7-9.5,19.8-15.8,28.4c-6.2,8.5-14.2,16.1-21.9,23.5c-12.2,11.6-23.8,22.6-28.3,36.5
		c-4.3,13.2-1.5,28.6,1.4,44.9c2,10.8,4,22,4,33.2c0,11.1-2,22.3-4,33.2c-2.9,16.3-5.7,31.7-1.4,44.9c4.5,13.9,16.1,24.9,28.3,36.5
		c7.7,7.3,15.7,14.9,21.9,23.5c6.3,8.7,11.1,18.7,15.8,28.4c7.3,15.1,14.1,29.4,25.8,37.9c11.5,8.4,27.1,10.5,43.7,12.8
		c10.7,1.5,21.8,3,32.2,6.3c9.9,3.2,19.4,8.4,28.6,13.4c14.9,8.1,29,15.7,44,15.7s29.1-7.6,44-15.7c9.2-5,18.8-10.2,28.6-13.4
		c10.3-3.4,21.4-4.9,32.2-6.3c16.6-2.3,32.2-4.4,43.7-12.8c11.6-8.5,18.5-22.8,25.8-37.9c4.7-9.7,9.5-19.8,15.8-28.4
		c6.2-8.5,14.2-16.1,21.9-23.5c12.2-11.6,23.8-22.6,28.3-36.5c4.3-13.2,1.5-28.6-1.4-44.9c-2-10.8-4-22-4-33.2c0-11.1,2-22.3,4-33.2
		c2.9-16.3,5.7-31.7,1.4-44.9c-4.5-13.9-16.1-24.9-28.3-36.5c-7.7-7.3-15.7-14.9-21.9-23.5c-6.3-8.7-11.1-18.7-15.8-28.4
		c-7.3-15.1-14.1-29.4-25.8-37.9c-11.5-8.4-27.2-10.5-43.7-12.8c-10.7-1.5-21.8-3-32.2-6.3c-9.9-3.2-19.4-8.4-28.6-13.4
		C286.6-13.4,272.6-21.1,257.5-21.1z"/>
</g>
</svg>
